%TF.GenerationSoftware,KiCad,Pcbnew,(6.0.8-1)-1*%
%TF.CreationDate,2022-11-29T20:43:37+01:00*%
%TF.ProjectId,ControllerBoard,436f6e74-726f-46c6-9c65-72426f617264,rev?*%
%TF.SameCoordinates,Original*%
%TF.FileFunction,Drillmap*%
%TF.FilePolarity,Positive*%
%FSLAX45Y45*%
G04 Gerber Fmt 4.5, Leading zero omitted, Abs format (unit mm)*
G04 Created by KiCad (PCBNEW (6.0.8-1)-1) date 2022-11-29 20:43:37*
%MOMM*%
%LPD*%
G01*
G04 APERTURE LIST*
%ADD10C,0.250000*%
%ADD11C,0.100000*%
%ADD12C,0.200000*%
%ADD13C,0.264000*%
G04 APERTURE END LIST*
D10*
X10950000Y-15825000D02*
G75*
G03*
X11180000Y-15825000I115000J0D01*
G01*
X11180000Y-15775000D02*
G75*
G03*
X10950000Y-15775000I-115000J0D01*
G01*
X11843332Y-5064901D02*
G75*
G03*
X12082496Y-5084924I119582J-10012D01*
G01*
X12086668Y-5035099D02*
G75*
G03*
X11847504Y-5015076I-119582J10012D01*
G01*
X10047505Y-5084924D02*
G75*
G03*
X10286667Y-5064901I119582J10011D01*
G01*
X10282496Y-5015076D02*
G75*
G03*
X10043333Y-5035099I-119582J-10011D01*
G01*
X10615000Y-14550000D02*
G75*
G03*
X11515000Y-14550000I450000J0D01*
G01*
X11515000Y-14050000D02*
G75*
G03*
X10615000Y-14050000I-450000J0D01*
G01*
X10950000Y-15775000D02*
X10950000Y-15825000D01*
X11180000Y-15775000D02*
X11180000Y-15825000D01*
X11847504Y-5015076D02*
X11843333Y-5064901D01*
X12086667Y-5035099D02*
X12082496Y-5084924D01*
X10043333Y-5035099D02*
X10047504Y-5084924D01*
X10282496Y-5015076D02*
X10286667Y-5064901D01*
X10615000Y-14050000D02*
X10615000Y-14550000D01*
X11515000Y-14050000D02*
X11515000Y-14550000D01*
D11*
X11580000Y-17500000D02*
X11815000Y-17500000D01*
X10315000Y-17500000D02*
X9815000Y-12500000D01*
X12315000Y-12500000D02*
X12315000Y-3500000D01*
X9815000Y-12500000D02*
X9815000Y-3500000D01*
X10550000Y-17500000D02*
X10315000Y-17500000D01*
X12315000Y-12500000D02*
X11815000Y-17500000D01*
X12315000Y-3500000D02*
X9815000Y-3500000D01*
D12*
D13*
X10348500Y-6818000D02*
X10612500Y-7082000D01*
X10612500Y-6818000D02*
X10348500Y-7082000D01*
X11547500Y-11466000D02*
X11811500Y-11730000D01*
X11811500Y-11466000D02*
X11547500Y-11730000D01*
D12*
X10067619Y-17815476D02*
X10067619Y-17615476D01*
X10115238Y-17615476D01*
X10143810Y-17625000D01*
X10162857Y-17644048D01*
X10172381Y-17663095D01*
X10181905Y-17701190D01*
X10181905Y-17729762D01*
X10172381Y-17767857D01*
X10162857Y-17786905D01*
X10143810Y-17805952D01*
X10115238Y-17815476D01*
X10067619Y-17815476D01*
X10267619Y-17815476D02*
X10267619Y-17682143D01*
X10267619Y-17720238D02*
X10277143Y-17701190D01*
X10286667Y-17691667D01*
X10305714Y-17682143D01*
X10324762Y-17682143D01*
X10391429Y-17815476D02*
X10391429Y-17682143D01*
X10391429Y-17615476D02*
X10381905Y-17625000D01*
X10391429Y-17634524D01*
X10400952Y-17625000D01*
X10391429Y-17615476D01*
X10391429Y-17634524D01*
X10515238Y-17815476D02*
X10496190Y-17805952D01*
X10486667Y-17786905D01*
X10486667Y-17615476D01*
X10620000Y-17815476D02*
X10600952Y-17805952D01*
X10591429Y-17786905D01*
X10591429Y-17615476D01*
X10848571Y-17815476D02*
X10848571Y-17615476D01*
X10915238Y-17758333D01*
X10981905Y-17615476D01*
X10981905Y-17815476D01*
X11162857Y-17815476D02*
X11162857Y-17710714D01*
X11153333Y-17691667D01*
X11134286Y-17682143D01*
X11096190Y-17682143D01*
X11077143Y-17691667D01*
X11162857Y-17805952D02*
X11143810Y-17815476D01*
X11096190Y-17815476D01*
X11077143Y-17805952D01*
X11067619Y-17786905D01*
X11067619Y-17767857D01*
X11077143Y-17748810D01*
X11096190Y-17739286D01*
X11143810Y-17739286D01*
X11162857Y-17729762D01*
X11258095Y-17682143D02*
X11258095Y-17882143D01*
X11258095Y-17691667D02*
X11277143Y-17682143D01*
X11315238Y-17682143D01*
X11334286Y-17691667D01*
X11343809Y-17701190D01*
X11353333Y-17720238D01*
X11353333Y-17777381D01*
X11343809Y-17796429D01*
X11334286Y-17805952D01*
X11315238Y-17815476D01*
X11277143Y-17815476D01*
X11258095Y-17805952D01*
X11439048Y-17796429D02*
X11448571Y-17805952D01*
X11439048Y-17815476D01*
X11429524Y-17805952D01*
X11439048Y-17796429D01*
X11439048Y-17815476D01*
X11439048Y-17691667D02*
X11448571Y-17701190D01*
X11439048Y-17710714D01*
X11429524Y-17701190D01*
X11439048Y-17691667D01*
X11439048Y-17710714D01*
X9610000Y-18045000D02*
X9810000Y-18245000D01*
X9810000Y-18045000D02*
X9610000Y-18245000D01*
X10058095Y-18054524D02*
X10067619Y-18045000D01*
X10086667Y-18035476D01*
X10134286Y-18035476D01*
X10153333Y-18045000D01*
X10162857Y-18054524D01*
X10172381Y-18073571D01*
X10172381Y-18092619D01*
X10162857Y-18121190D01*
X10048571Y-18235476D01*
X10172381Y-18235476D01*
X10258095Y-18216429D02*
X10267619Y-18225952D01*
X10258095Y-18235476D01*
X10248571Y-18225952D01*
X10258095Y-18216429D01*
X10258095Y-18235476D01*
X10439048Y-18035476D02*
X10400952Y-18035476D01*
X10381905Y-18045000D01*
X10372381Y-18054524D01*
X10353333Y-18083095D01*
X10343810Y-18121190D01*
X10343810Y-18197381D01*
X10353333Y-18216429D01*
X10362857Y-18225952D01*
X10381905Y-18235476D01*
X10420000Y-18235476D01*
X10439048Y-18225952D01*
X10448571Y-18216429D01*
X10458095Y-18197381D01*
X10458095Y-18149762D01*
X10448571Y-18130714D01*
X10439048Y-18121190D01*
X10420000Y-18111667D01*
X10381905Y-18111667D01*
X10362857Y-18121190D01*
X10353333Y-18130714D01*
X10343810Y-18149762D01*
X10629524Y-18102143D02*
X10629524Y-18235476D01*
X10581905Y-18025952D02*
X10534286Y-18168810D01*
X10658095Y-18168810D01*
X10772381Y-18035476D02*
X10791429Y-18035476D01*
X10810476Y-18045000D01*
X10820000Y-18054524D01*
X10829524Y-18073571D01*
X10839048Y-18111667D01*
X10839048Y-18159286D01*
X10829524Y-18197381D01*
X10820000Y-18216429D01*
X10810476Y-18225952D01*
X10791429Y-18235476D01*
X10772381Y-18235476D01*
X10753333Y-18225952D01*
X10743810Y-18216429D01*
X10734286Y-18197381D01*
X10724762Y-18159286D01*
X10724762Y-18111667D01*
X10734286Y-18073571D01*
X10743810Y-18054524D01*
X10753333Y-18045000D01*
X10772381Y-18035476D01*
X10924762Y-18235476D02*
X10924762Y-18102143D01*
X10924762Y-18121190D02*
X10934286Y-18111667D01*
X10953333Y-18102143D01*
X10981905Y-18102143D01*
X11000952Y-18111667D01*
X11010476Y-18130714D01*
X11010476Y-18235476D01*
X11010476Y-18130714D02*
X11020000Y-18111667D01*
X11039048Y-18102143D01*
X11067619Y-18102143D01*
X11086667Y-18111667D01*
X11096190Y-18130714D01*
X11096190Y-18235476D01*
X11191428Y-18235476D02*
X11191428Y-18102143D01*
X11191428Y-18121190D02*
X11200952Y-18111667D01*
X11220000Y-18102143D01*
X11248571Y-18102143D01*
X11267619Y-18111667D01*
X11277143Y-18130714D01*
X11277143Y-18235476D01*
X11277143Y-18130714D02*
X11286667Y-18111667D01*
X11305714Y-18102143D01*
X11334286Y-18102143D01*
X11353333Y-18111667D01*
X11362857Y-18130714D01*
X11362857Y-18235476D01*
X11753333Y-18025952D02*
X11581905Y-18283095D01*
X12010476Y-18035476D02*
X12029524Y-18035476D01*
X12048571Y-18045000D01*
X12058095Y-18054524D01*
X12067619Y-18073571D01*
X12077143Y-18111667D01*
X12077143Y-18159286D01*
X12067619Y-18197381D01*
X12058095Y-18216429D01*
X12048571Y-18225952D01*
X12029524Y-18235476D01*
X12010476Y-18235476D01*
X11991428Y-18225952D01*
X11981905Y-18216429D01*
X11972381Y-18197381D01*
X11962857Y-18159286D01*
X11962857Y-18111667D01*
X11972381Y-18073571D01*
X11981905Y-18054524D01*
X11991428Y-18045000D01*
X12010476Y-18035476D01*
X12162857Y-18216429D02*
X12172381Y-18225952D01*
X12162857Y-18235476D01*
X12153333Y-18225952D01*
X12162857Y-18216429D01*
X12162857Y-18235476D01*
X12362857Y-18235476D02*
X12248571Y-18235476D01*
X12305714Y-18235476D02*
X12305714Y-18035476D01*
X12286667Y-18064048D01*
X12267619Y-18083095D01*
X12248571Y-18092619D01*
X12486667Y-18035476D02*
X12505714Y-18035476D01*
X12524762Y-18045000D01*
X12534286Y-18054524D01*
X12543809Y-18073571D01*
X12553333Y-18111667D01*
X12553333Y-18159286D01*
X12543809Y-18197381D01*
X12534286Y-18216429D01*
X12524762Y-18225952D01*
X12505714Y-18235476D01*
X12486667Y-18235476D01*
X12467619Y-18225952D01*
X12458095Y-18216429D01*
X12448571Y-18197381D01*
X12439048Y-18159286D01*
X12439048Y-18111667D01*
X12448571Y-18073571D01*
X12458095Y-18054524D01*
X12467619Y-18045000D01*
X12486667Y-18035476D01*
X12620000Y-18035476D02*
X12743809Y-18035476D01*
X12677143Y-18111667D01*
X12705714Y-18111667D01*
X12724762Y-18121190D01*
X12734286Y-18130714D01*
X12743809Y-18149762D01*
X12743809Y-18197381D01*
X12734286Y-18216429D01*
X12724762Y-18225952D01*
X12705714Y-18235476D01*
X12648571Y-18235476D01*
X12629524Y-18225952D01*
X12620000Y-18216429D01*
X12839048Y-18235476D02*
X12877143Y-18235476D01*
X12896190Y-18225952D01*
X12905714Y-18216429D01*
X12924762Y-18187857D01*
X12934286Y-18149762D01*
X12934286Y-18073571D01*
X12924762Y-18054524D01*
X12915238Y-18045000D01*
X12896190Y-18035476D01*
X12858095Y-18035476D01*
X12839048Y-18045000D01*
X12829524Y-18054524D01*
X12820000Y-18073571D01*
X12820000Y-18121190D01*
X12829524Y-18140238D01*
X12839048Y-18149762D01*
X12858095Y-18159286D01*
X12896190Y-18159286D01*
X12915238Y-18149762D01*
X12924762Y-18140238D01*
X12934286Y-18121190D01*
X13010476Y-18035476D02*
X13010476Y-18073571D01*
X13086667Y-18035476D02*
X13086667Y-18073571D01*
X13381905Y-18311667D02*
X13372381Y-18302143D01*
X13353333Y-18273571D01*
X13343809Y-18254524D01*
X13334286Y-18225952D01*
X13324762Y-18178333D01*
X13324762Y-18140238D01*
X13334286Y-18092619D01*
X13343809Y-18064048D01*
X13353333Y-18045000D01*
X13372381Y-18016429D01*
X13381905Y-18006905D01*
X13448571Y-18054524D02*
X13458095Y-18045000D01*
X13477143Y-18035476D01*
X13524762Y-18035476D01*
X13543809Y-18045000D01*
X13553333Y-18054524D01*
X13562857Y-18073571D01*
X13562857Y-18092619D01*
X13553333Y-18121190D01*
X13439048Y-18235476D01*
X13562857Y-18235476D01*
X13800952Y-18235476D02*
X13800952Y-18035476D01*
X13886667Y-18235476D02*
X13886667Y-18130714D01*
X13877143Y-18111667D01*
X13858095Y-18102143D01*
X13829524Y-18102143D01*
X13810476Y-18111667D01*
X13800952Y-18121190D01*
X14010476Y-18235476D02*
X13991428Y-18225952D01*
X13981905Y-18216429D01*
X13972381Y-18197381D01*
X13972381Y-18140238D01*
X13981905Y-18121190D01*
X13991428Y-18111667D01*
X14010476Y-18102143D01*
X14039048Y-18102143D01*
X14058095Y-18111667D01*
X14067619Y-18121190D01*
X14077143Y-18140238D01*
X14077143Y-18197381D01*
X14067619Y-18216429D01*
X14058095Y-18225952D01*
X14039048Y-18235476D01*
X14010476Y-18235476D01*
X14191428Y-18235476D02*
X14172381Y-18225952D01*
X14162857Y-18206905D01*
X14162857Y-18035476D01*
X14343809Y-18225952D02*
X14324762Y-18235476D01*
X14286667Y-18235476D01*
X14267619Y-18225952D01*
X14258095Y-18206905D01*
X14258095Y-18130714D01*
X14267619Y-18111667D01*
X14286667Y-18102143D01*
X14324762Y-18102143D01*
X14343809Y-18111667D01*
X14353333Y-18130714D01*
X14353333Y-18149762D01*
X14258095Y-18168810D01*
X14429524Y-18225952D02*
X14448571Y-18235476D01*
X14486667Y-18235476D01*
X14505714Y-18225952D01*
X14515238Y-18206905D01*
X14515238Y-18197381D01*
X14505714Y-18178333D01*
X14486667Y-18168810D01*
X14458095Y-18168810D01*
X14439048Y-18159286D01*
X14429524Y-18140238D01*
X14429524Y-18130714D01*
X14439048Y-18111667D01*
X14458095Y-18102143D01*
X14486667Y-18102143D01*
X14505714Y-18111667D01*
X14581905Y-18311667D02*
X14591428Y-18302143D01*
X14610476Y-18273571D01*
X14620000Y-18254524D01*
X14629524Y-18225952D01*
X14639048Y-18178333D01*
X14639048Y-18140238D01*
X14629524Y-18092619D01*
X14620000Y-18064048D01*
X14610476Y-18045000D01*
X14591428Y-18016429D01*
X14581905Y-18006905D01*
X14943809Y-18311667D02*
X14934286Y-18302143D01*
X14915238Y-18273571D01*
X14905714Y-18254524D01*
X14896190Y-18225952D01*
X14886667Y-18178333D01*
X14886667Y-18140238D01*
X14896190Y-18092619D01*
X14905714Y-18064048D01*
X14915238Y-18045000D01*
X14934286Y-18016429D01*
X14943809Y-18006905D01*
X15020000Y-18102143D02*
X15020000Y-18235476D01*
X15020000Y-18121190D02*
X15029524Y-18111667D01*
X15048571Y-18102143D01*
X15077143Y-18102143D01*
X15096190Y-18111667D01*
X15105714Y-18130714D01*
X15105714Y-18235476D01*
X15229524Y-18235476D02*
X15210476Y-18225952D01*
X15200952Y-18216429D01*
X15191428Y-18197381D01*
X15191428Y-18140238D01*
X15200952Y-18121190D01*
X15210476Y-18111667D01*
X15229524Y-18102143D01*
X15258095Y-18102143D01*
X15277143Y-18111667D01*
X15286667Y-18121190D01*
X15296190Y-18140238D01*
X15296190Y-18197381D01*
X15286667Y-18216429D01*
X15277143Y-18225952D01*
X15258095Y-18235476D01*
X15229524Y-18235476D01*
X15353333Y-18102143D02*
X15429524Y-18102143D01*
X15381905Y-18035476D02*
X15381905Y-18206905D01*
X15391428Y-18225952D01*
X15410476Y-18235476D01*
X15429524Y-18235476D01*
X15648571Y-18102143D02*
X15648571Y-18302143D01*
X15648571Y-18111667D02*
X15667619Y-18102143D01*
X15705714Y-18102143D01*
X15724762Y-18111667D01*
X15734286Y-18121190D01*
X15743809Y-18140238D01*
X15743809Y-18197381D01*
X15734286Y-18216429D01*
X15724762Y-18225952D01*
X15705714Y-18235476D01*
X15667619Y-18235476D01*
X15648571Y-18225952D01*
X15858095Y-18235476D02*
X15839048Y-18225952D01*
X15829524Y-18206905D01*
X15829524Y-18035476D01*
X16020000Y-18235476D02*
X16020000Y-18130714D01*
X16010476Y-18111667D01*
X15991428Y-18102143D01*
X15953333Y-18102143D01*
X15934286Y-18111667D01*
X16020000Y-18225952D02*
X16000952Y-18235476D01*
X15953333Y-18235476D01*
X15934286Y-18225952D01*
X15924762Y-18206905D01*
X15924762Y-18187857D01*
X15934286Y-18168810D01*
X15953333Y-18159286D01*
X16000952Y-18159286D01*
X16020000Y-18149762D01*
X16086667Y-18102143D02*
X16162857Y-18102143D01*
X16115238Y-18035476D02*
X16115238Y-18206905D01*
X16124762Y-18225952D01*
X16143809Y-18235476D01*
X16162857Y-18235476D01*
X16305714Y-18225952D02*
X16286667Y-18235476D01*
X16248571Y-18235476D01*
X16229524Y-18225952D01*
X16220000Y-18206905D01*
X16220000Y-18130714D01*
X16229524Y-18111667D01*
X16248571Y-18102143D01*
X16286667Y-18102143D01*
X16305714Y-18111667D01*
X16315238Y-18130714D01*
X16315238Y-18149762D01*
X16220000Y-18168810D01*
X16486667Y-18235476D02*
X16486667Y-18035476D01*
X16486667Y-18225952D02*
X16467619Y-18235476D01*
X16429524Y-18235476D01*
X16410476Y-18225952D01*
X16400952Y-18216429D01*
X16391428Y-18197381D01*
X16391428Y-18140238D01*
X16400952Y-18121190D01*
X16410476Y-18111667D01*
X16429524Y-18102143D01*
X16467619Y-18102143D01*
X16486667Y-18111667D01*
X16562857Y-18311667D02*
X16572381Y-18302143D01*
X16591428Y-18273571D01*
X16600952Y-18254524D01*
X16610476Y-18225952D01*
X16620000Y-18178333D01*
X16620000Y-18140238D01*
X16610476Y-18092619D01*
X16600952Y-18064048D01*
X16591428Y-18045000D01*
X16572381Y-18016429D01*
X16562857Y-18006905D01*
M02*
