%TF.GenerationSoftware,KiCad,Pcbnew,(6.0.8-1)-1*%
%TF.CreationDate,2022-11-29T20:43:37+01:00*%
%TF.ProjectId,ControllerBoard,436f6e74-726f-46c6-9c65-72426f617264,rev?*%
%TF.SameCoordinates,Original*%
%TF.FileFunction,Drillmap*%
%TF.FilePolarity,Positive*%
%FSLAX45Y45*%
G04 Gerber Fmt 4.5, Leading zero omitted, Abs format (unit mm)*
G04 Created by KiCad (PCBNEW (6.0.8-1)-1) date 2022-11-29 20:43:37*
%MOMM*%
%LPD*%
G01*
G04 APERTURE LIST*
%ADD10C,0.250000*%
%ADD11C,0.100000*%
%ADD12C,0.200000*%
%ADD13C,0.040000*%
%ADD14C,0.050000*%
%ADD15C,0.080000*%
%ADD16C,0.102000*%
G04 APERTURE END LIST*
D10*
X10950000Y-15825000D02*
G75*
G03*
X11180000Y-15825000I115000J0D01*
G01*
X11180000Y-15775000D02*
G75*
G03*
X10950000Y-15775000I-115000J0D01*
G01*
X11843332Y-5064901D02*
G75*
G03*
X12082496Y-5084924I119582J-10012D01*
G01*
X12086668Y-5035099D02*
G75*
G03*
X11847504Y-5015076I-119582J10012D01*
G01*
X10047505Y-5084924D02*
G75*
G03*
X10286667Y-5064901I119582J10011D01*
G01*
X10282496Y-5015076D02*
G75*
G03*
X10043333Y-5035099I-119582J-10011D01*
G01*
X10615000Y-14550000D02*
G75*
G03*
X11515000Y-14550000I450000J0D01*
G01*
X11515000Y-14050000D02*
G75*
G03*
X10615000Y-14050000I-450000J0D01*
G01*
X10950000Y-15775000D02*
X10950000Y-15825000D01*
X11180000Y-15775000D02*
X11180000Y-15825000D01*
X11847504Y-5015076D02*
X11843333Y-5064901D01*
X12086667Y-5035099D02*
X12082496Y-5084924D01*
X10043333Y-5035099D02*
X10047504Y-5084924D01*
X10282496Y-5015076D02*
X10286667Y-5064901D01*
X10615000Y-14050000D02*
X10615000Y-14550000D01*
X11515000Y-14050000D02*
X11515000Y-14550000D01*
D11*
X11580000Y-17500000D02*
X11815000Y-17500000D01*
X10315000Y-17500000D02*
X9815000Y-12500000D01*
X12315000Y-12500000D02*
X12315000Y-3500000D01*
X9815000Y-12500000D02*
X9815000Y-3500000D01*
X10550000Y-17500000D02*
X10315000Y-17500000D01*
X12315000Y-12500000D02*
X11815000Y-17500000D01*
X12315000Y-3500000D02*
X9815000Y-3500000D01*
D12*
D13*
X9962200Y-12578400D02*
X10002200Y-12618400D01*
X10002200Y-12578400D02*
X9962200Y-12618400D01*
X10025700Y-6545900D02*
X10065700Y-6585900D01*
X10065700Y-6545900D02*
X10025700Y-6585900D01*
X10040000Y-4480000D02*
X10080000Y-4520000D01*
X10080000Y-4480000D02*
X10040000Y-4520000D01*
X10051100Y-3599500D02*
X10091100Y-3639500D01*
X10091100Y-3599500D02*
X10051100Y-3639500D01*
X10090000Y-5345000D02*
X10130000Y-5385000D01*
X10130000Y-5345000D02*
X10090000Y-5385000D01*
X10114600Y-11689400D02*
X10154600Y-11729400D01*
X10154600Y-11689400D02*
X10114600Y-11729400D01*
X10140000Y-4755000D02*
X10180000Y-4795000D01*
X10180000Y-4755000D02*
X10140000Y-4795000D01*
X10140000Y-13607100D02*
X10180000Y-13647100D01*
X10180000Y-13607100D02*
X10140000Y-13647100D01*
X10203500Y-13175300D02*
X10243500Y-13215300D01*
X10243500Y-13175300D02*
X10203500Y-13215300D01*
X10241600Y-14127800D02*
X10281600Y-14167800D01*
X10281600Y-14127800D02*
X10241600Y-14167800D01*
X10267000Y-14546900D02*
X10307000Y-14586900D01*
X10307000Y-14546900D02*
X10267000Y-14586900D01*
X10279700Y-12730800D02*
X10319700Y-12770800D01*
X10319700Y-12730800D02*
X10279700Y-12770800D01*
X10292400Y-15296200D02*
X10332400Y-15336200D01*
X10332400Y-15296200D02*
X10292400Y-15336200D01*
X10300000Y-12255000D02*
X10340000Y-12295000D01*
X10340000Y-12255000D02*
X10300000Y-12295000D01*
X10335000Y-16510000D02*
X10375000Y-16550000D01*
X10375000Y-16510000D02*
X10335000Y-16550000D01*
X10368600Y-10990900D02*
X10408600Y-11030900D01*
X10408600Y-10990900D02*
X10368600Y-11030900D01*
X10370000Y-6185000D02*
X10410000Y-6225000D01*
X10410000Y-6185000D02*
X10370000Y-6225000D01*
X10410000Y-9145000D02*
X10450000Y-9185000D01*
X10450000Y-9145000D02*
X10410000Y-9185000D01*
X10457500Y-7752400D02*
X10497500Y-7792400D01*
X10497500Y-7752400D02*
X10457500Y-7792400D01*
X10470200Y-7244400D02*
X10510200Y-7284400D01*
X10510200Y-7244400D02*
X10470200Y-7284400D01*
X10533700Y-4755200D02*
X10573700Y-4795200D01*
X10573700Y-4755200D02*
X10533700Y-4795200D01*
X10630000Y-13650000D02*
X10670000Y-13690000D01*
X10670000Y-13650000D02*
X10630000Y-13690000D01*
X10635000Y-5245000D02*
X10675000Y-5285000D01*
X10675000Y-5245000D02*
X10635000Y-5285000D01*
X10655000Y-6105000D02*
X10695000Y-6145000D01*
X10695000Y-6105000D02*
X10655000Y-6145000D01*
X10711500Y-15410500D02*
X10751500Y-15450500D01*
X10751500Y-15410500D02*
X10711500Y-15450500D01*
X10724200Y-16096300D02*
X10764200Y-16136300D01*
X10764200Y-16096300D02*
X10724200Y-16136300D01*
X10745000Y-4815250D02*
X10785000Y-4855250D01*
X10785000Y-4815250D02*
X10745000Y-4855250D01*
X10800400Y-11460800D02*
X10840400Y-11500800D01*
X10840400Y-11460800D02*
X10800400Y-11500800D01*
X10815000Y-16300000D02*
X10855000Y-16340000D01*
X10855000Y-16300000D02*
X10815000Y-16340000D01*
X10825800Y-9936800D02*
X10865800Y-9976800D01*
X10865800Y-9936800D02*
X10825800Y-9976800D01*
X10863900Y-10457500D02*
X10903900Y-10497500D01*
X10903900Y-10457500D02*
X10863900Y-10497500D01*
X10885000Y-6280000D02*
X10925000Y-6320000D01*
X10925000Y-6280000D02*
X10885000Y-6320000D01*
X10902000Y-10851200D02*
X10942000Y-10891200D01*
X10942000Y-10851200D02*
X10902000Y-10891200D01*
X10920000Y-3615000D02*
X10960000Y-3655000D01*
X10960000Y-3615000D02*
X10920000Y-3655000D01*
X10927400Y-11143300D02*
X10967400Y-11183300D01*
X10967400Y-11143300D02*
X10927400Y-11183300D01*
X10945000Y-4815250D02*
X10985000Y-4855250D01*
X10985000Y-4815250D02*
X10945000Y-4855250D01*
X10980000Y-3895000D02*
X11020000Y-3935000D01*
X11020000Y-3895000D02*
X10980000Y-3935000D01*
X11029000Y-8908100D02*
X11069000Y-8948100D01*
X11069000Y-8908100D02*
X11029000Y-8948100D01*
X11054400Y-9619300D02*
X11094400Y-9659300D01*
X11094400Y-9619300D02*
X11054400Y-9659300D01*
X11067100Y-7879400D02*
X11107100Y-7919400D01*
X11107100Y-7879400D02*
X11067100Y-7919400D01*
X11067100Y-8374700D02*
X11107100Y-8414700D01*
X11107100Y-8374700D02*
X11067100Y-8414700D01*
X11095000Y-7220000D02*
X11135000Y-7260000D01*
X11135000Y-7220000D02*
X11095000Y-7260000D01*
X11145000Y-4815250D02*
X11185000Y-4855250D01*
X11185000Y-4815250D02*
X11145000Y-4855250D01*
X11190000Y-13445000D02*
X11230000Y-13485000D01*
X11230000Y-13445000D02*
X11190000Y-13485000D01*
X11206800Y-9441500D02*
X11246800Y-9481500D01*
X11246800Y-9441500D02*
X11206800Y-9481500D01*
X11206800Y-9682800D02*
X11246800Y-9722800D01*
X11246800Y-9682800D02*
X11206800Y-9722800D01*
X11219500Y-10673400D02*
X11259500Y-10713400D01*
X11259500Y-10673400D02*
X11219500Y-10713400D01*
X11230000Y-5950000D02*
X11270000Y-5990000D01*
X11270000Y-5950000D02*
X11230000Y-5990000D01*
X11321100Y-11029000D02*
X11361100Y-11069000D01*
X11361100Y-11029000D02*
X11321100Y-11069000D01*
X11333800Y-16032800D02*
X11373800Y-16072800D01*
X11373800Y-16032800D02*
X11333800Y-16072800D01*
X11345000Y-4815250D02*
X11385000Y-4855250D01*
X11385000Y-4815250D02*
X11345000Y-4855250D01*
X11359200Y-15435900D02*
X11399200Y-15475900D01*
X11399200Y-15435900D02*
X11359200Y-15475900D01*
X11405000Y-12460000D02*
X11445000Y-12500000D01*
X11445000Y-12460000D02*
X11405000Y-12500000D01*
X11435000Y-5465000D02*
X11475000Y-5505000D01*
X11475000Y-5465000D02*
X11435000Y-5505000D01*
X11545000Y-4815250D02*
X11585000Y-4855250D01*
X11585000Y-4815250D02*
X11545000Y-4855250D01*
X11565000Y-12720000D02*
X11605000Y-12760000D01*
X11605000Y-12720000D02*
X11565000Y-12760000D01*
X11585000Y-16300000D02*
X11625000Y-16340000D01*
X11625000Y-16300000D02*
X11585000Y-16340000D01*
X11625900Y-11879900D02*
X11665900Y-11919900D01*
X11665900Y-11879900D02*
X11625900Y-11919900D01*
X11625900Y-12286300D02*
X11665900Y-12326300D01*
X11665900Y-12286300D02*
X11625900Y-12326300D01*
X11638600Y-11054400D02*
X11678600Y-11094400D01*
X11678600Y-11054400D02*
X11638600Y-11094400D01*
X11740200Y-16413800D02*
X11780200Y-16453800D01*
X11780200Y-16413800D02*
X11740200Y-16453800D01*
X11745000Y-4815250D02*
X11785000Y-4855250D01*
X11785000Y-4815250D02*
X11745000Y-4855250D01*
X11791000Y-13772200D02*
X11831000Y-13812200D01*
X11831000Y-13772200D02*
X11791000Y-13812200D01*
X11795000Y-3615000D02*
X11835000Y-3655000D01*
X11835000Y-3615000D02*
X11795000Y-3655000D01*
X11825000Y-8885000D02*
X11865000Y-8925000D01*
X11865000Y-8885000D02*
X11825000Y-8925000D01*
X11829100Y-15499400D02*
X11869100Y-15539400D01*
X11869100Y-15499400D02*
X11829100Y-15539400D01*
X11830000Y-12460000D02*
X11870000Y-12500000D01*
X11870000Y-12460000D02*
X11830000Y-12500000D01*
X11835000Y-14845000D02*
X11875000Y-14885000D01*
X11875000Y-14845000D02*
X11835000Y-14885000D01*
X11860000Y-6655000D02*
X11900000Y-6695000D01*
X11900000Y-6655000D02*
X11860000Y-6695000D01*
X11879900Y-14191300D02*
X11919900Y-14231300D01*
X11919900Y-14191300D02*
X11879900Y-14231300D01*
X11918000Y-13340400D02*
X11958000Y-13380400D01*
X11958000Y-13340400D02*
X11918000Y-13380400D01*
X11975000Y-7900000D02*
X12015000Y-7940000D01*
X12015000Y-7900000D02*
X11975000Y-7940000D01*
X11994200Y-4590100D02*
X12034200Y-4630100D01*
X12034200Y-4590100D02*
X11994200Y-4630100D01*
X12160000Y-5285000D02*
X12200000Y-5325000D01*
X12200000Y-5285000D02*
X12160000Y-5325000D01*
X12190000Y-3685000D02*
X12230000Y-3725000D01*
X12230000Y-3685000D02*
X12190000Y-3725000D01*
X12190000Y-6430000D02*
X12230000Y-6470000D01*
X12230000Y-6430000D02*
X12190000Y-6470000D01*
X12195000Y-6885000D02*
X12235000Y-6925000D01*
X12235000Y-6885000D02*
X12195000Y-6925000D01*
D14*
X10510000Y-17100000D02*
G75*
G03*
X10510000Y-17100000I-25000J0D01*
G01*
D12*
X10460000Y-17070000D02*
X10460000Y-17130000D01*
X10510000Y-17070000D02*
X10510000Y-17130000D01*
X10460000Y-17130000D02*
G75*
G03*
X10510000Y-17130000I25000J0D01*
G01*
X10510000Y-17070000D02*
G75*
G03*
X10460000Y-17070000I-25000J0D01*
G01*
D14*
X10510000Y-17400000D02*
G75*
G03*
X10510000Y-17400000I-25000J0D01*
G01*
D12*
X10460000Y-17370000D02*
X10460000Y-17430000D01*
X10510000Y-17370000D02*
X10510000Y-17430000D01*
X10460000Y-17430000D02*
G75*
G03*
X10510000Y-17430000I25000J0D01*
G01*
X10510000Y-17370000D02*
G75*
G03*
X10460000Y-17370000I-25000J0D01*
G01*
D14*
X11670000Y-17100000D02*
G75*
G03*
X11670000Y-17100000I-25000J0D01*
G01*
D12*
X11620000Y-17070000D02*
X11620000Y-17130000D01*
X11670000Y-17070000D02*
X11670000Y-17130000D01*
X11620000Y-17130000D02*
G75*
G03*
X11670000Y-17130000I25000J0D01*
G01*
X11670000Y-17070000D02*
G75*
G03*
X11620000Y-17070000I-25000J0D01*
G01*
D14*
X11670000Y-17400000D02*
G75*
G03*
X11670000Y-17400000I-25000J0D01*
G01*
D12*
X11620000Y-17370000D02*
X11620000Y-17430000D01*
X11670000Y-17370000D02*
X11670000Y-17430000D01*
X11620000Y-17430000D02*
G75*
G03*
X11670000Y-17430000I25000J0D01*
G01*
X11670000Y-17370000D02*
G75*
G03*
X11620000Y-17370000I-25000J0D01*
G01*
D15*
X10059750Y-7535000D02*
X10059750Y-7615000D01*
X10019750Y-7575000D02*
X10099750Y-7575000D01*
X10059750Y-7789000D02*
X10059750Y-7869000D01*
X10019750Y-7829000D02*
X10099750Y-7829000D01*
X10059750Y-8043000D02*
X10059750Y-8123000D01*
X10019750Y-8083000D02*
X10099750Y-8083000D01*
X10059750Y-8297000D02*
X10059750Y-8377000D01*
X10019750Y-8337000D02*
X10099750Y-8337000D01*
X10059750Y-8551000D02*
X10059750Y-8631000D01*
X10019750Y-8591000D02*
X10099750Y-8591000D01*
X10059750Y-8805000D02*
X10059750Y-8885000D01*
X10019750Y-8845000D02*
X10099750Y-8845000D01*
X10059750Y-9059000D02*
X10059750Y-9139000D01*
X10019750Y-9099000D02*
X10099750Y-9099000D01*
X10059750Y-9313000D02*
X10059750Y-9393000D01*
X10019750Y-9353000D02*
X10099750Y-9353000D01*
X10059750Y-9567000D02*
X10059750Y-9647000D01*
X10019750Y-9607000D02*
X10099750Y-9607000D01*
X10059750Y-9821000D02*
X10059750Y-9901000D01*
X10019750Y-9861000D02*
X10099750Y-9861000D01*
X10059750Y-10075000D02*
X10059750Y-10155000D01*
X10019750Y-10115000D02*
X10099750Y-10115000D01*
X10059750Y-10329000D02*
X10059750Y-10409000D01*
X10019750Y-10369000D02*
X10099750Y-10369000D01*
X10059750Y-10583000D02*
X10059750Y-10663000D01*
X10019750Y-10623000D02*
X10099750Y-10623000D01*
X10059750Y-10837000D02*
X10059750Y-10917000D01*
X10019750Y-10877000D02*
X10099750Y-10877000D01*
X10059750Y-11091000D02*
X10059750Y-11171000D01*
X10019750Y-11131000D02*
X10099750Y-11131000D01*
X10059750Y-11345000D02*
X10059750Y-11425000D01*
X10019750Y-11385000D02*
X10099750Y-11385000D01*
X12091750Y-8551000D02*
X12091750Y-8631000D01*
X12051750Y-8591000D02*
X12131750Y-8591000D01*
X12091750Y-8805000D02*
X12091750Y-8885000D01*
X12051750Y-8845000D02*
X12131750Y-8845000D01*
X12091750Y-9059000D02*
X12091750Y-9139000D01*
X12051750Y-9099000D02*
X12131750Y-9099000D01*
X12091750Y-9313000D02*
X12091750Y-9393000D01*
X12051750Y-9353000D02*
X12131750Y-9353000D01*
X12091750Y-9567000D02*
X12091750Y-9647000D01*
X12051750Y-9607000D02*
X12131750Y-9607000D01*
X12091750Y-9821000D02*
X12091750Y-9901000D01*
X12051750Y-9861000D02*
X12131750Y-9861000D01*
X12091750Y-10075000D02*
X12091750Y-10155000D01*
X12051750Y-10115000D02*
X12131750Y-10115000D01*
X12091750Y-10329000D02*
X12091750Y-10409000D01*
X12051750Y-10369000D02*
X12131750Y-10369000D01*
X12091750Y-10583000D02*
X12091750Y-10663000D01*
X12051750Y-10623000D02*
X12131750Y-10623000D01*
X12091750Y-10837000D02*
X12091750Y-10917000D01*
X12051750Y-10877000D02*
X12131750Y-10877000D01*
X12091750Y-11091000D02*
X12091750Y-11171000D01*
X12051750Y-11131000D02*
X12131750Y-11131000D01*
X12091750Y-11345000D02*
X12091750Y-11425000D01*
X12051750Y-11385000D02*
X12131750Y-11385000D01*
D11*
X10300356Y-5860356D02*
X10300356Y-5789644D01*
X10229644Y-5789644D01*
X10229644Y-5860356D01*
X10300356Y-5860356D01*
X10550356Y-5860356D02*
X10550356Y-5789644D01*
X10479644Y-5789644D01*
X10479644Y-5860356D01*
X10550356Y-5860356D01*
X12100356Y-5735356D02*
X12100356Y-5664644D01*
X12029644Y-5664644D01*
X12029644Y-5735356D01*
X12100356Y-5735356D01*
X12100356Y-5985356D02*
X12100356Y-5914644D01*
X12029644Y-5914644D01*
X12029644Y-5985356D01*
X12100356Y-5985356D01*
D16*
X11080000Y-6726000D02*
X11131000Y-6675000D01*
X11080000Y-6624000D01*
X11029000Y-6675000D01*
X11080000Y-6726000D01*
X11080000Y-11925000D02*
X11131000Y-11874000D01*
X11080000Y-11823000D01*
X11029000Y-11874000D01*
X11080000Y-11925000D01*
D12*
X10067619Y-17815476D02*
X10067619Y-17615476D01*
X10115238Y-17615476D01*
X10143810Y-17625000D01*
X10162857Y-17644048D01*
X10172381Y-17663095D01*
X10181905Y-17701190D01*
X10181905Y-17729762D01*
X10172381Y-17767857D01*
X10162857Y-17786905D01*
X10143810Y-17805952D01*
X10115238Y-17815476D01*
X10067619Y-17815476D01*
X10267619Y-17815476D02*
X10267619Y-17682143D01*
X10267619Y-17720238D02*
X10277143Y-17701190D01*
X10286667Y-17691667D01*
X10305714Y-17682143D01*
X10324762Y-17682143D01*
X10391429Y-17815476D02*
X10391429Y-17682143D01*
X10391429Y-17615476D02*
X10381905Y-17625000D01*
X10391429Y-17634524D01*
X10400952Y-17625000D01*
X10391429Y-17615476D01*
X10391429Y-17634524D01*
X10515238Y-17815476D02*
X10496190Y-17805952D01*
X10486667Y-17786905D01*
X10486667Y-17615476D01*
X10620000Y-17815476D02*
X10600952Y-17805952D01*
X10591429Y-17786905D01*
X10591429Y-17615476D01*
X10848571Y-17815476D02*
X10848571Y-17615476D01*
X10915238Y-17758333D01*
X10981905Y-17615476D01*
X10981905Y-17815476D01*
X11162857Y-17815476D02*
X11162857Y-17710714D01*
X11153333Y-17691667D01*
X11134286Y-17682143D01*
X11096190Y-17682143D01*
X11077143Y-17691667D01*
X11162857Y-17805952D02*
X11143810Y-17815476D01*
X11096190Y-17815476D01*
X11077143Y-17805952D01*
X11067619Y-17786905D01*
X11067619Y-17767857D01*
X11077143Y-17748810D01*
X11096190Y-17739286D01*
X11143810Y-17739286D01*
X11162857Y-17729762D01*
X11258095Y-17682143D02*
X11258095Y-17882143D01*
X11258095Y-17691667D02*
X11277143Y-17682143D01*
X11315238Y-17682143D01*
X11334286Y-17691667D01*
X11343809Y-17701190D01*
X11353333Y-17720238D01*
X11353333Y-17777381D01*
X11343809Y-17796429D01*
X11334286Y-17805952D01*
X11315238Y-17815476D01*
X11277143Y-17815476D01*
X11258095Y-17805952D01*
X11439048Y-17796429D02*
X11448571Y-17805952D01*
X11439048Y-17815476D01*
X11429524Y-17805952D01*
X11439048Y-17796429D01*
X11439048Y-17815476D01*
X11439048Y-17691667D02*
X11448571Y-17701190D01*
X11439048Y-17710714D01*
X11429524Y-17701190D01*
X11439048Y-17691667D01*
X11439048Y-17710714D01*
D13*
X9770000Y-18125000D02*
X9810000Y-18165000D01*
X9810000Y-18125000D02*
X9770000Y-18165000D01*
D12*
X10105714Y-18035476D02*
X10124762Y-18035476D01*
X10143810Y-18045000D01*
X10153333Y-18054524D01*
X10162857Y-18073571D01*
X10172381Y-18111667D01*
X10172381Y-18159286D01*
X10162857Y-18197381D01*
X10153333Y-18216429D01*
X10143810Y-18225952D01*
X10124762Y-18235476D01*
X10105714Y-18235476D01*
X10086667Y-18225952D01*
X10077143Y-18216429D01*
X10067619Y-18197381D01*
X10058095Y-18159286D01*
X10058095Y-18111667D01*
X10067619Y-18073571D01*
X10077143Y-18054524D01*
X10086667Y-18045000D01*
X10105714Y-18035476D01*
X10258095Y-18216429D02*
X10267619Y-18225952D01*
X10258095Y-18235476D01*
X10248571Y-18225952D01*
X10258095Y-18216429D01*
X10258095Y-18235476D01*
X10439048Y-18102143D02*
X10439048Y-18235476D01*
X10391429Y-18025952D02*
X10343810Y-18168810D01*
X10467619Y-18168810D01*
X10581905Y-18035476D02*
X10600952Y-18035476D01*
X10620000Y-18045000D01*
X10629524Y-18054524D01*
X10639048Y-18073571D01*
X10648571Y-18111667D01*
X10648571Y-18159286D01*
X10639048Y-18197381D01*
X10629524Y-18216429D01*
X10620000Y-18225952D01*
X10600952Y-18235476D01*
X10581905Y-18235476D01*
X10562857Y-18225952D01*
X10553333Y-18216429D01*
X10543810Y-18197381D01*
X10534286Y-18159286D01*
X10534286Y-18111667D01*
X10543810Y-18073571D01*
X10553333Y-18054524D01*
X10562857Y-18045000D01*
X10581905Y-18035476D01*
X10772381Y-18035476D02*
X10791429Y-18035476D01*
X10810476Y-18045000D01*
X10820000Y-18054524D01*
X10829524Y-18073571D01*
X10839048Y-18111667D01*
X10839048Y-18159286D01*
X10829524Y-18197381D01*
X10820000Y-18216429D01*
X10810476Y-18225952D01*
X10791429Y-18235476D01*
X10772381Y-18235476D01*
X10753333Y-18225952D01*
X10743810Y-18216429D01*
X10734286Y-18197381D01*
X10724762Y-18159286D01*
X10724762Y-18111667D01*
X10734286Y-18073571D01*
X10743810Y-18054524D01*
X10753333Y-18045000D01*
X10772381Y-18035476D01*
X10924762Y-18235476D02*
X10924762Y-18102143D01*
X10924762Y-18121190D02*
X10934286Y-18111667D01*
X10953333Y-18102143D01*
X10981905Y-18102143D01*
X11000952Y-18111667D01*
X11010476Y-18130714D01*
X11010476Y-18235476D01*
X11010476Y-18130714D02*
X11020000Y-18111667D01*
X11039048Y-18102143D01*
X11067619Y-18102143D01*
X11086667Y-18111667D01*
X11096190Y-18130714D01*
X11096190Y-18235476D01*
X11191428Y-18235476D02*
X11191428Y-18102143D01*
X11191428Y-18121190D02*
X11200952Y-18111667D01*
X11220000Y-18102143D01*
X11248571Y-18102143D01*
X11267619Y-18111667D01*
X11277143Y-18130714D01*
X11277143Y-18235476D01*
X11277143Y-18130714D02*
X11286667Y-18111667D01*
X11305714Y-18102143D01*
X11334286Y-18102143D01*
X11353333Y-18111667D01*
X11362857Y-18130714D01*
X11362857Y-18235476D01*
X11753333Y-18025952D02*
X11581905Y-18283095D01*
X12010476Y-18035476D02*
X12029524Y-18035476D01*
X12048571Y-18045000D01*
X12058095Y-18054524D01*
X12067619Y-18073571D01*
X12077143Y-18111667D01*
X12077143Y-18159286D01*
X12067619Y-18197381D01*
X12058095Y-18216429D01*
X12048571Y-18225952D01*
X12029524Y-18235476D01*
X12010476Y-18235476D01*
X11991428Y-18225952D01*
X11981905Y-18216429D01*
X11972381Y-18197381D01*
X11962857Y-18159286D01*
X11962857Y-18111667D01*
X11972381Y-18073571D01*
X11981905Y-18054524D01*
X11991428Y-18045000D01*
X12010476Y-18035476D01*
X12162857Y-18216429D02*
X12172381Y-18225952D01*
X12162857Y-18235476D01*
X12153333Y-18225952D01*
X12162857Y-18216429D01*
X12162857Y-18235476D01*
X12296190Y-18035476D02*
X12315238Y-18035476D01*
X12334286Y-18045000D01*
X12343809Y-18054524D01*
X12353333Y-18073571D01*
X12362857Y-18111667D01*
X12362857Y-18159286D01*
X12353333Y-18197381D01*
X12343809Y-18216429D01*
X12334286Y-18225952D01*
X12315238Y-18235476D01*
X12296190Y-18235476D01*
X12277143Y-18225952D01*
X12267619Y-18216429D01*
X12258095Y-18197381D01*
X12248571Y-18159286D01*
X12248571Y-18111667D01*
X12258095Y-18073571D01*
X12267619Y-18054524D01*
X12277143Y-18045000D01*
X12296190Y-18035476D01*
X12553333Y-18235476D02*
X12439048Y-18235476D01*
X12496190Y-18235476D02*
X12496190Y-18035476D01*
X12477143Y-18064048D01*
X12458095Y-18083095D01*
X12439048Y-18092619D01*
X12734286Y-18035476D02*
X12639048Y-18035476D01*
X12629524Y-18130714D01*
X12639048Y-18121190D01*
X12658095Y-18111667D01*
X12705714Y-18111667D01*
X12724762Y-18121190D01*
X12734286Y-18130714D01*
X12743809Y-18149762D01*
X12743809Y-18197381D01*
X12734286Y-18216429D01*
X12724762Y-18225952D01*
X12705714Y-18235476D01*
X12658095Y-18235476D01*
X12639048Y-18225952D01*
X12629524Y-18216429D01*
X12810476Y-18035476D02*
X12943809Y-18035476D01*
X12858095Y-18235476D01*
X13010476Y-18035476D02*
X13010476Y-18073571D01*
X13086667Y-18035476D02*
X13086667Y-18073571D01*
X13381905Y-18311667D02*
X13372381Y-18302143D01*
X13353333Y-18273571D01*
X13343809Y-18254524D01*
X13334286Y-18225952D01*
X13324762Y-18178333D01*
X13324762Y-18140238D01*
X13334286Y-18092619D01*
X13343809Y-18064048D01*
X13353333Y-18045000D01*
X13372381Y-18016429D01*
X13381905Y-18006905D01*
X13439048Y-18035476D02*
X13572381Y-18035476D01*
X13486667Y-18235476D01*
X13629524Y-18035476D02*
X13762857Y-18035476D01*
X13677143Y-18235476D01*
X13991428Y-18235476D02*
X13991428Y-18035476D01*
X14077143Y-18235476D02*
X14077143Y-18130714D01*
X14067619Y-18111667D01*
X14048571Y-18102143D01*
X14020000Y-18102143D01*
X14000952Y-18111667D01*
X13991428Y-18121190D01*
X14200952Y-18235476D02*
X14181905Y-18225952D01*
X14172381Y-18216429D01*
X14162857Y-18197381D01*
X14162857Y-18140238D01*
X14172381Y-18121190D01*
X14181905Y-18111667D01*
X14200952Y-18102143D01*
X14229524Y-18102143D01*
X14248571Y-18111667D01*
X14258095Y-18121190D01*
X14267619Y-18140238D01*
X14267619Y-18197381D01*
X14258095Y-18216429D01*
X14248571Y-18225952D01*
X14229524Y-18235476D01*
X14200952Y-18235476D01*
X14381905Y-18235476D02*
X14362857Y-18225952D01*
X14353333Y-18206905D01*
X14353333Y-18035476D01*
X14534286Y-18225952D02*
X14515238Y-18235476D01*
X14477143Y-18235476D01*
X14458095Y-18225952D01*
X14448571Y-18206905D01*
X14448571Y-18130714D01*
X14458095Y-18111667D01*
X14477143Y-18102143D01*
X14515238Y-18102143D01*
X14534286Y-18111667D01*
X14543809Y-18130714D01*
X14543809Y-18149762D01*
X14448571Y-18168810D01*
X14620000Y-18225952D02*
X14639048Y-18235476D01*
X14677143Y-18235476D01*
X14696190Y-18225952D01*
X14705714Y-18206905D01*
X14705714Y-18197381D01*
X14696190Y-18178333D01*
X14677143Y-18168810D01*
X14648571Y-18168810D01*
X14629524Y-18159286D01*
X14620000Y-18140238D01*
X14620000Y-18130714D01*
X14629524Y-18111667D01*
X14648571Y-18102143D01*
X14677143Y-18102143D01*
X14696190Y-18111667D01*
X14772381Y-18311667D02*
X14781905Y-18302143D01*
X14800952Y-18273571D01*
X14810476Y-18254524D01*
X14820000Y-18225952D01*
X14829524Y-18178333D01*
X14829524Y-18140238D01*
X14820000Y-18092619D01*
X14810476Y-18064048D01*
X14800952Y-18045000D01*
X14781905Y-18016429D01*
X14772381Y-18006905D01*
D14*
X9810000Y-18409000D02*
G75*
G03*
X9810000Y-18409000I-25000J0D01*
G01*
D12*
X10105714Y-18299476D02*
X10124762Y-18299476D01*
X10143810Y-18309000D01*
X10153333Y-18318524D01*
X10162857Y-18337571D01*
X10172381Y-18375667D01*
X10172381Y-18423286D01*
X10162857Y-18461381D01*
X10153333Y-18480429D01*
X10143810Y-18489952D01*
X10124762Y-18499476D01*
X10105714Y-18499476D01*
X10086667Y-18489952D01*
X10077143Y-18480429D01*
X10067619Y-18461381D01*
X10058095Y-18423286D01*
X10058095Y-18375667D01*
X10067619Y-18337571D01*
X10077143Y-18318524D01*
X10086667Y-18309000D01*
X10105714Y-18299476D01*
X10258095Y-18480429D02*
X10267619Y-18489952D01*
X10258095Y-18499476D01*
X10248571Y-18489952D01*
X10258095Y-18480429D01*
X10258095Y-18499476D01*
X10448571Y-18299476D02*
X10353333Y-18299476D01*
X10343810Y-18394714D01*
X10353333Y-18385190D01*
X10372381Y-18375667D01*
X10420000Y-18375667D01*
X10439048Y-18385190D01*
X10448571Y-18394714D01*
X10458095Y-18413762D01*
X10458095Y-18461381D01*
X10448571Y-18480429D01*
X10439048Y-18489952D01*
X10420000Y-18499476D01*
X10372381Y-18499476D01*
X10353333Y-18489952D01*
X10343810Y-18480429D01*
X10581905Y-18299476D02*
X10600952Y-18299476D01*
X10620000Y-18309000D01*
X10629524Y-18318524D01*
X10639048Y-18337571D01*
X10648571Y-18375667D01*
X10648571Y-18423286D01*
X10639048Y-18461381D01*
X10629524Y-18480429D01*
X10620000Y-18489952D01*
X10600952Y-18499476D01*
X10581905Y-18499476D01*
X10562857Y-18489952D01*
X10553333Y-18480429D01*
X10543810Y-18461381D01*
X10534286Y-18423286D01*
X10534286Y-18375667D01*
X10543810Y-18337571D01*
X10553333Y-18318524D01*
X10562857Y-18309000D01*
X10581905Y-18299476D01*
X10772381Y-18299476D02*
X10791429Y-18299476D01*
X10810476Y-18309000D01*
X10820000Y-18318524D01*
X10829524Y-18337571D01*
X10839048Y-18375667D01*
X10839048Y-18423286D01*
X10829524Y-18461381D01*
X10820000Y-18480429D01*
X10810476Y-18489952D01*
X10791429Y-18499476D01*
X10772381Y-18499476D01*
X10753333Y-18489952D01*
X10743810Y-18480429D01*
X10734286Y-18461381D01*
X10724762Y-18423286D01*
X10724762Y-18375667D01*
X10734286Y-18337571D01*
X10743810Y-18318524D01*
X10753333Y-18309000D01*
X10772381Y-18299476D01*
X10924762Y-18499476D02*
X10924762Y-18366143D01*
X10924762Y-18385190D02*
X10934286Y-18375667D01*
X10953333Y-18366143D01*
X10981905Y-18366143D01*
X11000952Y-18375667D01*
X11010476Y-18394714D01*
X11010476Y-18499476D01*
X11010476Y-18394714D02*
X11020000Y-18375667D01*
X11039048Y-18366143D01*
X11067619Y-18366143D01*
X11086667Y-18375667D01*
X11096190Y-18394714D01*
X11096190Y-18499476D01*
X11191428Y-18499476D02*
X11191428Y-18366143D01*
X11191428Y-18385190D02*
X11200952Y-18375667D01*
X11220000Y-18366143D01*
X11248571Y-18366143D01*
X11267619Y-18375667D01*
X11277143Y-18394714D01*
X11277143Y-18499476D01*
X11277143Y-18394714D02*
X11286667Y-18375667D01*
X11305714Y-18366143D01*
X11334286Y-18366143D01*
X11353333Y-18375667D01*
X11362857Y-18394714D01*
X11362857Y-18499476D01*
X11753333Y-18289952D02*
X11581905Y-18547095D01*
X12010476Y-18299476D02*
X12029524Y-18299476D01*
X12048571Y-18309000D01*
X12058095Y-18318524D01*
X12067619Y-18337571D01*
X12077143Y-18375667D01*
X12077143Y-18423286D01*
X12067619Y-18461381D01*
X12058095Y-18480429D01*
X12048571Y-18489952D01*
X12029524Y-18499476D01*
X12010476Y-18499476D01*
X11991428Y-18489952D01*
X11981905Y-18480429D01*
X11972381Y-18461381D01*
X11962857Y-18423286D01*
X11962857Y-18375667D01*
X11972381Y-18337571D01*
X11981905Y-18318524D01*
X11991428Y-18309000D01*
X12010476Y-18299476D01*
X12162857Y-18480429D02*
X12172381Y-18489952D01*
X12162857Y-18499476D01*
X12153333Y-18489952D01*
X12162857Y-18480429D01*
X12162857Y-18499476D01*
X12296190Y-18299476D02*
X12315238Y-18299476D01*
X12334286Y-18309000D01*
X12343809Y-18318524D01*
X12353333Y-18337571D01*
X12362857Y-18375667D01*
X12362857Y-18423286D01*
X12353333Y-18461381D01*
X12343809Y-18480429D01*
X12334286Y-18489952D01*
X12315238Y-18499476D01*
X12296190Y-18499476D01*
X12277143Y-18489952D01*
X12267619Y-18480429D01*
X12258095Y-18461381D01*
X12248571Y-18423286D01*
X12248571Y-18375667D01*
X12258095Y-18337571D01*
X12267619Y-18318524D01*
X12277143Y-18309000D01*
X12296190Y-18299476D01*
X12553333Y-18499476D02*
X12439048Y-18499476D01*
X12496190Y-18499476D02*
X12496190Y-18299476D01*
X12477143Y-18328048D01*
X12458095Y-18347095D01*
X12439048Y-18356619D01*
X12648571Y-18499476D02*
X12686667Y-18499476D01*
X12705714Y-18489952D01*
X12715238Y-18480429D01*
X12734286Y-18451857D01*
X12743809Y-18413762D01*
X12743809Y-18337571D01*
X12734286Y-18318524D01*
X12724762Y-18309000D01*
X12705714Y-18299476D01*
X12667619Y-18299476D01*
X12648571Y-18309000D01*
X12639048Y-18318524D01*
X12629524Y-18337571D01*
X12629524Y-18385190D01*
X12639048Y-18404238D01*
X12648571Y-18413762D01*
X12667619Y-18423286D01*
X12705714Y-18423286D01*
X12724762Y-18413762D01*
X12734286Y-18404238D01*
X12743809Y-18385190D01*
X12810476Y-18299476D02*
X12943809Y-18299476D01*
X12858095Y-18499476D01*
X13010476Y-18299476D02*
X13010476Y-18337571D01*
X13086667Y-18299476D02*
X13086667Y-18337571D01*
X13381905Y-18575667D02*
X13372381Y-18566143D01*
X13353333Y-18537571D01*
X13343809Y-18518524D01*
X13334286Y-18489952D01*
X13324762Y-18442333D01*
X13324762Y-18404238D01*
X13334286Y-18356619D01*
X13343809Y-18328048D01*
X13353333Y-18309000D01*
X13372381Y-18280429D01*
X13381905Y-18270905D01*
X13496190Y-18299476D02*
X13515238Y-18299476D01*
X13534286Y-18309000D01*
X13543809Y-18318524D01*
X13553333Y-18337571D01*
X13562857Y-18375667D01*
X13562857Y-18423286D01*
X13553333Y-18461381D01*
X13543809Y-18480429D01*
X13534286Y-18489952D01*
X13515238Y-18499476D01*
X13496190Y-18499476D01*
X13477143Y-18489952D01*
X13467619Y-18480429D01*
X13458095Y-18461381D01*
X13448571Y-18423286D01*
X13448571Y-18375667D01*
X13458095Y-18337571D01*
X13467619Y-18318524D01*
X13477143Y-18309000D01*
X13496190Y-18299476D01*
X13800952Y-18499476D02*
X13800952Y-18299476D01*
X13886667Y-18499476D02*
X13886667Y-18394714D01*
X13877143Y-18375667D01*
X13858095Y-18366143D01*
X13829524Y-18366143D01*
X13810476Y-18375667D01*
X13800952Y-18385190D01*
X14010476Y-18499476D02*
X13991428Y-18489952D01*
X13981905Y-18480429D01*
X13972381Y-18461381D01*
X13972381Y-18404238D01*
X13981905Y-18385190D01*
X13991428Y-18375667D01*
X14010476Y-18366143D01*
X14039048Y-18366143D01*
X14058095Y-18375667D01*
X14067619Y-18385190D01*
X14077143Y-18404238D01*
X14077143Y-18461381D01*
X14067619Y-18480429D01*
X14058095Y-18489952D01*
X14039048Y-18499476D01*
X14010476Y-18499476D01*
X14191428Y-18499476D02*
X14172381Y-18489952D01*
X14162857Y-18470905D01*
X14162857Y-18299476D01*
X14343809Y-18489952D02*
X14324762Y-18499476D01*
X14286667Y-18499476D01*
X14267619Y-18489952D01*
X14258095Y-18470905D01*
X14258095Y-18394714D01*
X14267619Y-18375667D01*
X14286667Y-18366143D01*
X14324762Y-18366143D01*
X14343809Y-18375667D01*
X14353333Y-18394714D01*
X14353333Y-18413762D01*
X14258095Y-18432810D01*
X14429524Y-18489952D02*
X14448571Y-18499476D01*
X14486667Y-18499476D01*
X14505714Y-18489952D01*
X14515238Y-18470905D01*
X14515238Y-18461381D01*
X14505714Y-18442333D01*
X14486667Y-18432810D01*
X14458095Y-18432810D01*
X14439048Y-18423286D01*
X14429524Y-18404238D01*
X14429524Y-18394714D01*
X14439048Y-18375667D01*
X14458095Y-18366143D01*
X14486667Y-18366143D01*
X14505714Y-18375667D01*
X14753333Y-18423286D02*
X14905714Y-18423286D01*
X14829524Y-18499476D02*
X14829524Y-18347095D01*
X15239048Y-18366143D02*
X15239048Y-18499476D01*
X15191428Y-18289952D02*
X15143809Y-18432810D01*
X15267619Y-18432810D01*
X15486667Y-18489952D02*
X15505714Y-18499476D01*
X15543809Y-18499476D01*
X15562857Y-18489952D01*
X15572381Y-18470905D01*
X15572381Y-18461381D01*
X15562857Y-18442333D01*
X15543809Y-18432810D01*
X15515238Y-18432810D01*
X15496190Y-18423286D01*
X15486667Y-18404238D01*
X15486667Y-18394714D01*
X15496190Y-18375667D01*
X15515238Y-18366143D01*
X15543809Y-18366143D01*
X15562857Y-18375667D01*
X15686667Y-18499476D02*
X15667619Y-18489952D01*
X15658095Y-18470905D01*
X15658095Y-18299476D01*
X15791428Y-18499476D02*
X15772381Y-18489952D01*
X15762857Y-18480429D01*
X15753333Y-18461381D01*
X15753333Y-18404238D01*
X15762857Y-18385190D01*
X15772381Y-18375667D01*
X15791428Y-18366143D01*
X15820000Y-18366143D01*
X15839048Y-18375667D01*
X15848571Y-18385190D01*
X15858095Y-18404238D01*
X15858095Y-18461381D01*
X15848571Y-18480429D01*
X15839048Y-18489952D01*
X15820000Y-18499476D01*
X15791428Y-18499476D01*
X15915238Y-18366143D02*
X15991428Y-18366143D01*
X15943809Y-18299476D02*
X15943809Y-18470905D01*
X15953333Y-18489952D01*
X15972381Y-18499476D01*
X15991428Y-18499476D01*
X16048571Y-18489952D02*
X16067619Y-18499476D01*
X16105714Y-18499476D01*
X16124762Y-18489952D01*
X16134286Y-18470905D01*
X16134286Y-18461381D01*
X16124762Y-18442333D01*
X16105714Y-18432810D01*
X16077143Y-18432810D01*
X16058095Y-18423286D01*
X16048571Y-18404238D01*
X16048571Y-18394714D01*
X16058095Y-18375667D01*
X16077143Y-18366143D01*
X16105714Y-18366143D01*
X16124762Y-18375667D01*
X16200952Y-18575667D02*
X16210476Y-18566143D01*
X16229524Y-18537571D01*
X16239048Y-18518524D01*
X16248571Y-18489952D01*
X16258095Y-18442333D01*
X16258095Y-18404238D01*
X16248571Y-18356619D01*
X16239048Y-18328048D01*
X16229524Y-18309000D01*
X16210476Y-18280429D01*
X16200952Y-18270905D01*
D15*
X9770000Y-18633000D02*
X9770000Y-18713000D01*
X9730000Y-18673000D02*
X9810000Y-18673000D01*
D12*
X10105714Y-18563476D02*
X10124762Y-18563476D01*
X10143810Y-18573000D01*
X10153333Y-18582524D01*
X10162857Y-18601571D01*
X10172381Y-18639667D01*
X10172381Y-18687286D01*
X10162857Y-18725381D01*
X10153333Y-18744429D01*
X10143810Y-18753952D01*
X10124762Y-18763476D01*
X10105714Y-18763476D01*
X10086667Y-18753952D01*
X10077143Y-18744429D01*
X10067619Y-18725381D01*
X10058095Y-18687286D01*
X10058095Y-18639667D01*
X10067619Y-18601571D01*
X10077143Y-18582524D01*
X10086667Y-18573000D01*
X10105714Y-18563476D01*
X10258095Y-18744429D02*
X10267619Y-18753952D01*
X10258095Y-18763476D01*
X10248571Y-18753952D01*
X10258095Y-18744429D01*
X10258095Y-18763476D01*
X10381905Y-18649190D02*
X10362857Y-18639667D01*
X10353333Y-18630143D01*
X10343810Y-18611095D01*
X10343810Y-18601571D01*
X10353333Y-18582524D01*
X10362857Y-18573000D01*
X10381905Y-18563476D01*
X10420000Y-18563476D01*
X10439048Y-18573000D01*
X10448571Y-18582524D01*
X10458095Y-18601571D01*
X10458095Y-18611095D01*
X10448571Y-18630143D01*
X10439048Y-18639667D01*
X10420000Y-18649190D01*
X10381905Y-18649190D01*
X10362857Y-18658714D01*
X10353333Y-18668238D01*
X10343810Y-18687286D01*
X10343810Y-18725381D01*
X10353333Y-18744429D01*
X10362857Y-18753952D01*
X10381905Y-18763476D01*
X10420000Y-18763476D01*
X10439048Y-18753952D01*
X10448571Y-18744429D01*
X10458095Y-18725381D01*
X10458095Y-18687286D01*
X10448571Y-18668238D01*
X10439048Y-18658714D01*
X10420000Y-18649190D01*
X10581905Y-18563476D02*
X10600952Y-18563476D01*
X10620000Y-18573000D01*
X10629524Y-18582524D01*
X10639048Y-18601571D01*
X10648571Y-18639667D01*
X10648571Y-18687286D01*
X10639048Y-18725381D01*
X10629524Y-18744429D01*
X10620000Y-18753952D01*
X10600952Y-18763476D01*
X10581905Y-18763476D01*
X10562857Y-18753952D01*
X10553333Y-18744429D01*
X10543810Y-18725381D01*
X10534286Y-18687286D01*
X10534286Y-18639667D01*
X10543810Y-18601571D01*
X10553333Y-18582524D01*
X10562857Y-18573000D01*
X10581905Y-18563476D01*
X10772381Y-18563476D02*
X10791429Y-18563476D01*
X10810476Y-18573000D01*
X10820000Y-18582524D01*
X10829524Y-18601571D01*
X10839048Y-18639667D01*
X10839048Y-18687286D01*
X10829524Y-18725381D01*
X10820000Y-18744429D01*
X10810476Y-18753952D01*
X10791429Y-18763476D01*
X10772381Y-18763476D01*
X10753333Y-18753952D01*
X10743810Y-18744429D01*
X10734286Y-18725381D01*
X10724762Y-18687286D01*
X10724762Y-18639667D01*
X10734286Y-18601571D01*
X10743810Y-18582524D01*
X10753333Y-18573000D01*
X10772381Y-18563476D01*
X10924762Y-18763476D02*
X10924762Y-18630143D01*
X10924762Y-18649190D02*
X10934286Y-18639667D01*
X10953333Y-18630143D01*
X10981905Y-18630143D01*
X11000952Y-18639667D01*
X11010476Y-18658714D01*
X11010476Y-18763476D01*
X11010476Y-18658714D02*
X11020000Y-18639667D01*
X11039048Y-18630143D01*
X11067619Y-18630143D01*
X11086667Y-18639667D01*
X11096190Y-18658714D01*
X11096190Y-18763476D01*
X11191428Y-18763476D02*
X11191428Y-18630143D01*
X11191428Y-18649190D02*
X11200952Y-18639667D01*
X11220000Y-18630143D01*
X11248571Y-18630143D01*
X11267619Y-18639667D01*
X11277143Y-18658714D01*
X11277143Y-18763476D01*
X11277143Y-18658714D02*
X11286667Y-18639667D01*
X11305714Y-18630143D01*
X11334286Y-18630143D01*
X11353333Y-18639667D01*
X11362857Y-18658714D01*
X11362857Y-18763476D01*
X11753333Y-18553952D02*
X11581905Y-18811095D01*
X12010476Y-18563476D02*
X12029524Y-18563476D01*
X12048571Y-18573000D01*
X12058095Y-18582524D01*
X12067619Y-18601571D01*
X12077143Y-18639667D01*
X12077143Y-18687286D01*
X12067619Y-18725381D01*
X12058095Y-18744429D01*
X12048571Y-18753952D01*
X12029524Y-18763476D01*
X12010476Y-18763476D01*
X11991428Y-18753952D01*
X11981905Y-18744429D01*
X11972381Y-18725381D01*
X11962857Y-18687286D01*
X11962857Y-18639667D01*
X11972381Y-18601571D01*
X11981905Y-18582524D01*
X11991428Y-18573000D01*
X12010476Y-18563476D01*
X12162857Y-18744429D02*
X12172381Y-18753952D01*
X12162857Y-18763476D01*
X12153333Y-18753952D01*
X12162857Y-18744429D01*
X12162857Y-18763476D01*
X12296190Y-18563476D02*
X12315238Y-18563476D01*
X12334286Y-18573000D01*
X12343809Y-18582524D01*
X12353333Y-18601571D01*
X12362857Y-18639667D01*
X12362857Y-18687286D01*
X12353333Y-18725381D01*
X12343809Y-18744429D01*
X12334286Y-18753952D01*
X12315238Y-18763476D01*
X12296190Y-18763476D01*
X12277143Y-18753952D01*
X12267619Y-18744429D01*
X12258095Y-18725381D01*
X12248571Y-18687286D01*
X12248571Y-18639667D01*
X12258095Y-18601571D01*
X12267619Y-18582524D01*
X12277143Y-18573000D01*
X12296190Y-18563476D01*
X12429524Y-18563476D02*
X12553333Y-18563476D01*
X12486667Y-18639667D01*
X12515238Y-18639667D01*
X12534286Y-18649190D01*
X12543809Y-18658714D01*
X12553333Y-18677762D01*
X12553333Y-18725381D01*
X12543809Y-18744429D01*
X12534286Y-18753952D01*
X12515238Y-18763476D01*
X12458095Y-18763476D01*
X12439048Y-18753952D01*
X12429524Y-18744429D01*
X12743809Y-18763476D02*
X12629524Y-18763476D01*
X12686667Y-18763476D02*
X12686667Y-18563476D01*
X12667619Y-18592048D01*
X12648571Y-18611095D01*
X12629524Y-18620619D01*
X12924762Y-18563476D02*
X12829524Y-18563476D01*
X12820000Y-18658714D01*
X12829524Y-18649190D01*
X12848571Y-18639667D01*
X12896190Y-18639667D01*
X12915238Y-18649190D01*
X12924762Y-18658714D01*
X12934286Y-18677762D01*
X12934286Y-18725381D01*
X12924762Y-18744429D01*
X12915238Y-18753952D01*
X12896190Y-18763476D01*
X12848571Y-18763476D01*
X12829524Y-18753952D01*
X12820000Y-18744429D01*
X13010476Y-18563476D02*
X13010476Y-18601571D01*
X13086667Y-18563476D02*
X13086667Y-18601571D01*
X13381905Y-18839667D02*
X13372381Y-18830143D01*
X13353333Y-18801571D01*
X13343809Y-18782524D01*
X13334286Y-18753952D01*
X13324762Y-18706333D01*
X13324762Y-18668238D01*
X13334286Y-18620619D01*
X13343809Y-18592048D01*
X13353333Y-18573000D01*
X13372381Y-18544429D01*
X13381905Y-18534905D01*
X13448571Y-18582524D02*
X13458095Y-18573000D01*
X13477143Y-18563476D01*
X13524762Y-18563476D01*
X13543809Y-18573000D01*
X13553333Y-18582524D01*
X13562857Y-18601571D01*
X13562857Y-18620619D01*
X13553333Y-18649190D01*
X13439048Y-18763476D01*
X13562857Y-18763476D01*
X13677143Y-18649190D02*
X13658095Y-18639667D01*
X13648571Y-18630143D01*
X13639048Y-18611095D01*
X13639048Y-18601571D01*
X13648571Y-18582524D01*
X13658095Y-18573000D01*
X13677143Y-18563476D01*
X13715238Y-18563476D01*
X13734286Y-18573000D01*
X13743809Y-18582524D01*
X13753333Y-18601571D01*
X13753333Y-18611095D01*
X13743809Y-18630143D01*
X13734286Y-18639667D01*
X13715238Y-18649190D01*
X13677143Y-18649190D01*
X13658095Y-18658714D01*
X13648571Y-18668238D01*
X13639048Y-18687286D01*
X13639048Y-18725381D01*
X13648571Y-18744429D01*
X13658095Y-18753952D01*
X13677143Y-18763476D01*
X13715238Y-18763476D01*
X13734286Y-18753952D01*
X13743809Y-18744429D01*
X13753333Y-18725381D01*
X13753333Y-18687286D01*
X13743809Y-18668238D01*
X13734286Y-18658714D01*
X13715238Y-18649190D01*
X13991428Y-18763476D02*
X13991428Y-18563476D01*
X14077143Y-18763476D02*
X14077143Y-18658714D01*
X14067619Y-18639667D01*
X14048571Y-18630143D01*
X14020000Y-18630143D01*
X14000952Y-18639667D01*
X13991428Y-18649190D01*
X14200952Y-18763476D02*
X14181905Y-18753952D01*
X14172381Y-18744429D01*
X14162857Y-18725381D01*
X14162857Y-18668238D01*
X14172381Y-18649190D01*
X14181905Y-18639667D01*
X14200952Y-18630143D01*
X14229524Y-18630143D01*
X14248571Y-18639667D01*
X14258095Y-18649190D01*
X14267619Y-18668238D01*
X14267619Y-18725381D01*
X14258095Y-18744429D01*
X14248571Y-18753952D01*
X14229524Y-18763476D01*
X14200952Y-18763476D01*
X14381905Y-18763476D02*
X14362857Y-18753952D01*
X14353333Y-18734905D01*
X14353333Y-18563476D01*
X14534286Y-18753952D02*
X14515238Y-18763476D01*
X14477143Y-18763476D01*
X14458095Y-18753952D01*
X14448571Y-18734905D01*
X14448571Y-18658714D01*
X14458095Y-18639667D01*
X14477143Y-18630143D01*
X14515238Y-18630143D01*
X14534286Y-18639667D01*
X14543809Y-18658714D01*
X14543809Y-18677762D01*
X14448571Y-18696810D01*
X14620000Y-18753952D02*
X14639048Y-18763476D01*
X14677143Y-18763476D01*
X14696190Y-18753952D01*
X14705714Y-18734905D01*
X14705714Y-18725381D01*
X14696190Y-18706333D01*
X14677143Y-18696810D01*
X14648571Y-18696810D01*
X14629524Y-18687286D01*
X14620000Y-18668238D01*
X14620000Y-18658714D01*
X14629524Y-18639667D01*
X14648571Y-18630143D01*
X14677143Y-18630143D01*
X14696190Y-18639667D01*
X14772381Y-18839667D02*
X14781905Y-18830143D01*
X14800952Y-18801571D01*
X14810476Y-18782524D01*
X14820000Y-18753952D01*
X14829524Y-18706333D01*
X14829524Y-18668238D01*
X14820000Y-18620619D01*
X14810476Y-18592048D01*
X14800952Y-18573000D01*
X14781905Y-18544429D01*
X14772381Y-18534905D01*
D11*
X9795356Y-18972356D02*
X9795356Y-18901644D01*
X9724644Y-18901644D01*
X9724644Y-18972356D01*
X9795356Y-18972356D01*
D12*
X10172381Y-19027476D02*
X10058095Y-19027476D01*
X10115238Y-19027476D02*
X10115238Y-18827476D01*
X10096190Y-18856048D01*
X10077143Y-18875095D01*
X10058095Y-18884619D01*
X10258095Y-19008429D02*
X10267619Y-19017952D01*
X10258095Y-19027476D01*
X10248571Y-19017952D01*
X10258095Y-19008429D01*
X10258095Y-19027476D01*
X10391429Y-18827476D02*
X10410476Y-18827476D01*
X10429524Y-18837000D01*
X10439048Y-18846524D01*
X10448571Y-18865571D01*
X10458095Y-18903667D01*
X10458095Y-18951286D01*
X10448571Y-18989381D01*
X10439048Y-19008429D01*
X10429524Y-19017952D01*
X10410476Y-19027476D01*
X10391429Y-19027476D01*
X10372381Y-19017952D01*
X10362857Y-19008429D01*
X10353333Y-18989381D01*
X10343810Y-18951286D01*
X10343810Y-18903667D01*
X10353333Y-18865571D01*
X10362857Y-18846524D01*
X10372381Y-18837000D01*
X10391429Y-18827476D01*
X10581905Y-18827476D02*
X10600952Y-18827476D01*
X10620000Y-18837000D01*
X10629524Y-18846524D01*
X10639048Y-18865571D01*
X10648571Y-18903667D01*
X10648571Y-18951286D01*
X10639048Y-18989381D01*
X10629524Y-19008429D01*
X10620000Y-19017952D01*
X10600952Y-19027476D01*
X10581905Y-19027476D01*
X10562857Y-19017952D01*
X10553333Y-19008429D01*
X10543810Y-18989381D01*
X10534286Y-18951286D01*
X10534286Y-18903667D01*
X10543810Y-18865571D01*
X10553333Y-18846524D01*
X10562857Y-18837000D01*
X10581905Y-18827476D01*
X10772381Y-18827476D02*
X10791429Y-18827476D01*
X10810476Y-18837000D01*
X10820000Y-18846524D01*
X10829524Y-18865571D01*
X10839048Y-18903667D01*
X10839048Y-18951286D01*
X10829524Y-18989381D01*
X10820000Y-19008429D01*
X10810476Y-19017952D01*
X10791429Y-19027476D01*
X10772381Y-19027476D01*
X10753333Y-19017952D01*
X10743810Y-19008429D01*
X10734286Y-18989381D01*
X10724762Y-18951286D01*
X10724762Y-18903667D01*
X10734286Y-18865571D01*
X10743810Y-18846524D01*
X10753333Y-18837000D01*
X10772381Y-18827476D01*
X10924762Y-19027476D02*
X10924762Y-18894143D01*
X10924762Y-18913190D02*
X10934286Y-18903667D01*
X10953333Y-18894143D01*
X10981905Y-18894143D01*
X11000952Y-18903667D01*
X11010476Y-18922714D01*
X11010476Y-19027476D01*
X11010476Y-18922714D02*
X11020000Y-18903667D01*
X11039048Y-18894143D01*
X11067619Y-18894143D01*
X11086667Y-18903667D01*
X11096190Y-18922714D01*
X11096190Y-19027476D01*
X11191428Y-19027476D02*
X11191428Y-18894143D01*
X11191428Y-18913190D02*
X11200952Y-18903667D01*
X11220000Y-18894143D01*
X11248571Y-18894143D01*
X11267619Y-18903667D01*
X11277143Y-18922714D01*
X11277143Y-19027476D01*
X11277143Y-18922714D02*
X11286667Y-18903667D01*
X11305714Y-18894143D01*
X11334286Y-18894143D01*
X11353333Y-18903667D01*
X11362857Y-18922714D01*
X11362857Y-19027476D01*
X11753333Y-18817952D02*
X11581905Y-19075095D01*
X12010476Y-18827476D02*
X12029524Y-18827476D01*
X12048571Y-18837000D01*
X12058095Y-18846524D01*
X12067619Y-18865571D01*
X12077143Y-18903667D01*
X12077143Y-18951286D01*
X12067619Y-18989381D01*
X12058095Y-19008429D01*
X12048571Y-19017952D01*
X12029524Y-19027476D01*
X12010476Y-19027476D01*
X11991428Y-19017952D01*
X11981905Y-19008429D01*
X11972381Y-18989381D01*
X11962857Y-18951286D01*
X11962857Y-18903667D01*
X11972381Y-18865571D01*
X11981905Y-18846524D01*
X11991428Y-18837000D01*
X12010476Y-18827476D01*
X12162857Y-19008429D02*
X12172381Y-19017952D01*
X12162857Y-19027476D01*
X12153333Y-19017952D01*
X12162857Y-19008429D01*
X12162857Y-19027476D01*
X12296190Y-18827476D02*
X12315238Y-18827476D01*
X12334286Y-18837000D01*
X12343809Y-18846524D01*
X12353333Y-18865571D01*
X12362857Y-18903667D01*
X12362857Y-18951286D01*
X12353333Y-18989381D01*
X12343809Y-19008429D01*
X12334286Y-19017952D01*
X12315238Y-19027476D01*
X12296190Y-19027476D01*
X12277143Y-19017952D01*
X12267619Y-19008429D01*
X12258095Y-18989381D01*
X12248571Y-18951286D01*
X12248571Y-18903667D01*
X12258095Y-18865571D01*
X12267619Y-18846524D01*
X12277143Y-18837000D01*
X12296190Y-18827476D01*
X12429524Y-18827476D02*
X12553333Y-18827476D01*
X12486667Y-18903667D01*
X12515238Y-18903667D01*
X12534286Y-18913190D01*
X12543809Y-18922714D01*
X12553333Y-18941762D01*
X12553333Y-18989381D01*
X12543809Y-19008429D01*
X12534286Y-19017952D01*
X12515238Y-19027476D01*
X12458095Y-19027476D01*
X12439048Y-19017952D01*
X12429524Y-19008429D01*
X12648571Y-19027476D02*
X12686667Y-19027476D01*
X12705714Y-19017952D01*
X12715238Y-19008429D01*
X12734286Y-18979857D01*
X12743809Y-18941762D01*
X12743809Y-18865571D01*
X12734286Y-18846524D01*
X12724762Y-18837000D01*
X12705714Y-18827476D01*
X12667619Y-18827476D01*
X12648571Y-18837000D01*
X12639048Y-18846524D01*
X12629524Y-18865571D01*
X12629524Y-18913190D01*
X12639048Y-18932238D01*
X12648571Y-18941762D01*
X12667619Y-18951286D01*
X12705714Y-18951286D01*
X12724762Y-18941762D01*
X12734286Y-18932238D01*
X12743809Y-18913190D01*
X12915238Y-18894143D02*
X12915238Y-19027476D01*
X12867619Y-18817952D02*
X12820000Y-18960810D01*
X12943809Y-18960810D01*
X13010476Y-18827476D02*
X13010476Y-18865571D01*
X13086667Y-18827476D02*
X13086667Y-18865571D01*
X13381905Y-19103667D02*
X13372381Y-19094143D01*
X13353333Y-19065571D01*
X13343809Y-19046524D01*
X13334286Y-19017952D01*
X13324762Y-18970333D01*
X13324762Y-18932238D01*
X13334286Y-18884619D01*
X13343809Y-18856048D01*
X13353333Y-18837000D01*
X13372381Y-18808429D01*
X13381905Y-18798905D01*
X13543809Y-18894143D02*
X13543809Y-19027476D01*
X13496190Y-18817952D02*
X13448571Y-18960810D01*
X13572381Y-18960810D01*
X13800952Y-19027476D02*
X13800952Y-18827476D01*
X13886667Y-19027476D02*
X13886667Y-18922714D01*
X13877143Y-18903667D01*
X13858095Y-18894143D01*
X13829524Y-18894143D01*
X13810476Y-18903667D01*
X13800952Y-18913190D01*
X14010476Y-19027476D02*
X13991428Y-19017952D01*
X13981905Y-19008429D01*
X13972381Y-18989381D01*
X13972381Y-18932238D01*
X13981905Y-18913190D01*
X13991428Y-18903667D01*
X14010476Y-18894143D01*
X14039048Y-18894143D01*
X14058095Y-18903667D01*
X14067619Y-18913190D01*
X14077143Y-18932238D01*
X14077143Y-18989381D01*
X14067619Y-19008429D01*
X14058095Y-19017952D01*
X14039048Y-19027476D01*
X14010476Y-19027476D01*
X14191428Y-19027476D02*
X14172381Y-19017952D01*
X14162857Y-18998905D01*
X14162857Y-18827476D01*
X14343809Y-19017952D02*
X14324762Y-19027476D01*
X14286667Y-19027476D01*
X14267619Y-19017952D01*
X14258095Y-18998905D01*
X14258095Y-18922714D01*
X14267619Y-18903667D01*
X14286667Y-18894143D01*
X14324762Y-18894143D01*
X14343809Y-18903667D01*
X14353333Y-18922714D01*
X14353333Y-18941762D01*
X14258095Y-18960810D01*
X14429524Y-19017952D02*
X14448571Y-19027476D01*
X14486667Y-19027476D01*
X14505714Y-19017952D01*
X14515238Y-18998905D01*
X14515238Y-18989381D01*
X14505714Y-18970333D01*
X14486667Y-18960810D01*
X14458095Y-18960810D01*
X14439048Y-18951286D01*
X14429524Y-18932238D01*
X14429524Y-18922714D01*
X14439048Y-18903667D01*
X14458095Y-18894143D01*
X14486667Y-18894143D01*
X14505714Y-18903667D01*
X14581905Y-19103667D02*
X14591428Y-19094143D01*
X14610476Y-19065571D01*
X14620000Y-19046524D01*
X14629524Y-19017952D01*
X14639048Y-18970333D01*
X14639048Y-18932238D01*
X14629524Y-18884619D01*
X14620000Y-18856048D01*
X14610476Y-18837000D01*
X14591428Y-18808429D01*
X14581905Y-18798905D01*
D16*
X9759000Y-19252000D02*
X9810000Y-19201000D01*
X9759000Y-19150000D01*
X9708000Y-19201000D01*
X9759000Y-19252000D01*
D12*
X10172381Y-19291476D02*
X10058095Y-19291476D01*
X10115238Y-19291476D02*
X10115238Y-19091476D01*
X10096190Y-19120048D01*
X10077143Y-19139095D01*
X10058095Y-19148619D01*
X10258095Y-19272429D02*
X10267619Y-19281952D01*
X10258095Y-19291476D01*
X10248571Y-19281952D01*
X10258095Y-19272429D01*
X10258095Y-19291476D01*
X10391429Y-19091476D02*
X10410476Y-19091476D01*
X10429524Y-19101000D01*
X10439048Y-19110524D01*
X10448571Y-19129571D01*
X10458095Y-19167667D01*
X10458095Y-19215286D01*
X10448571Y-19253381D01*
X10439048Y-19272429D01*
X10429524Y-19281952D01*
X10410476Y-19291476D01*
X10391429Y-19291476D01*
X10372381Y-19281952D01*
X10362857Y-19272429D01*
X10353333Y-19253381D01*
X10343810Y-19215286D01*
X10343810Y-19167667D01*
X10353333Y-19129571D01*
X10362857Y-19110524D01*
X10372381Y-19101000D01*
X10391429Y-19091476D01*
X10534286Y-19110524D02*
X10543810Y-19101000D01*
X10562857Y-19091476D01*
X10610476Y-19091476D01*
X10629524Y-19101000D01*
X10639048Y-19110524D01*
X10648571Y-19129571D01*
X10648571Y-19148619D01*
X10639048Y-19177190D01*
X10524762Y-19291476D01*
X10648571Y-19291476D01*
X10772381Y-19091476D02*
X10791429Y-19091476D01*
X10810476Y-19101000D01*
X10820000Y-19110524D01*
X10829524Y-19129571D01*
X10839048Y-19167667D01*
X10839048Y-19215286D01*
X10829524Y-19253381D01*
X10820000Y-19272429D01*
X10810476Y-19281952D01*
X10791429Y-19291476D01*
X10772381Y-19291476D01*
X10753333Y-19281952D01*
X10743810Y-19272429D01*
X10734286Y-19253381D01*
X10724762Y-19215286D01*
X10724762Y-19167667D01*
X10734286Y-19129571D01*
X10743810Y-19110524D01*
X10753333Y-19101000D01*
X10772381Y-19091476D01*
X10924762Y-19291476D02*
X10924762Y-19158143D01*
X10924762Y-19177190D02*
X10934286Y-19167667D01*
X10953333Y-19158143D01*
X10981905Y-19158143D01*
X11000952Y-19167667D01*
X11010476Y-19186714D01*
X11010476Y-19291476D01*
X11010476Y-19186714D02*
X11020000Y-19167667D01*
X11039048Y-19158143D01*
X11067619Y-19158143D01*
X11086667Y-19167667D01*
X11096190Y-19186714D01*
X11096190Y-19291476D01*
X11191428Y-19291476D02*
X11191428Y-19158143D01*
X11191428Y-19177190D02*
X11200952Y-19167667D01*
X11220000Y-19158143D01*
X11248571Y-19158143D01*
X11267619Y-19167667D01*
X11277143Y-19186714D01*
X11277143Y-19291476D01*
X11277143Y-19186714D02*
X11286667Y-19167667D01*
X11305714Y-19158143D01*
X11334286Y-19158143D01*
X11353333Y-19167667D01*
X11362857Y-19186714D01*
X11362857Y-19291476D01*
X11753333Y-19081952D02*
X11581905Y-19339095D01*
X12010476Y-19091476D02*
X12029524Y-19091476D01*
X12048571Y-19101000D01*
X12058095Y-19110524D01*
X12067619Y-19129571D01*
X12077143Y-19167667D01*
X12077143Y-19215286D01*
X12067619Y-19253381D01*
X12058095Y-19272429D01*
X12048571Y-19281952D01*
X12029524Y-19291476D01*
X12010476Y-19291476D01*
X11991428Y-19281952D01*
X11981905Y-19272429D01*
X11972381Y-19253381D01*
X11962857Y-19215286D01*
X11962857Y-19167667D01*
X11972381Y-19129571D01*
X11981905Y-19110524D01*
X11991428Y-19101000D01*
X12010476Y-19091476D01*
X12162857Y-19272429D02*
X12172381Y-19281952D01*
X12162857Y-19291476D01*
X12153333Y-19281952D01*
X12162857Y-19272429D01*
X12162857Y-19291476D01*
X12296190Y-19091476D02*
X12315238Y-19091476D01*
X12334286Y-19101000D01*
X12343809Y-19110524D01*
X12353333Y-19129571D01*
X12362857Y-19167667D01*
X12362857Y-19215286D01*
X12353333Y-19253381D01*
X12343809Y-19272429D01*
X12334286Y-19281952D01*
X12315238Y-19291476D01*
X12296190Y-19291476D01*
X12277143Y-19281952D01*
X12267619Y-19272429D01*
X12258095Y-19253381D01*
X12248571Y-19215286D01*
X12248571Y-19167667D01*
X12258095Y-19129571D01*
X12267619Y-19110524D01*
X12277143Y-19101000D01*
X12296190Y-19091476D01*
X12534286Y-19158143D02*
X12534286Y-19291476D01*
X12486667Y-19081952D02*
X12439048Y-19224810D01*
X12562857Y-19224810D01*
X12677143Y-19091476D02*
X12696190Y-19091476D01*
X12715238Y-19101000D01*
X12724762Y-19110524D01*
X12734286Y-19129571D01*
X12743809Y-19167667D01*
X12743809Y-19215286D01*
X12734286Y-19253381D01*
X12724762Y-19272429D01*
X12715238Y-19281952D01*
X12696190Y-19291476D01*
X12677143Y-19291476D01*
X12658095Y-19281952D01*
X12648571Y-19272429D01*
X12639048Y-19253381D01*
X12629524Y-19215286D01*
X12629524Y-19167667D01*
X12639048Y-19129571D01*
X12648571Y-19110524D01*
X12658095Y-19101000D01*
X12677143Y-19091476D01*
X12820000Y-19110524D02*
X12829524Y-19101000D01*
X12848571Y-19091476D01*
X12896190Y-19091476D01*
X12915238Y-19101000D01*
X12924762Y-19110524D01*
X12934286Y-19129571D01*
X12934286Y-19148619D01*
X12924762Y-19177190D01*
X12810476Y-19291476D01*
X12934286Y-19291476D01*
X13010476Y-19091476D02*
X13010476Y-19129571D01*
X13086667Y-19091476D02*
X13086667Y-19129571D01*
X13381905Y-19367667D02*
X13372381Y-19358143D01*
X13353333Y-19329571D01*
X13343809Y-19310524D01*
X13334286Y-19281952D01*
X13324762Y-19234333D01*
X13324762Y-19196238D01*
X13334286Y-19148619D01*
X13343809Y-19120048D01*
X13353333Y-19101000D01*
X13372381Y-19072429D01*
X13381905Y-19062905D01*
X13448571Y-19110524D02*
X13458095Y-19101000D01*
X13477143Y-19091476D01*
X13524762Y-19091476D01*
X13543809Y-19101000D01*
X13553333Y-19110524D01*
X13562857Y-19129571D01*
X13562857Y-19148619D01*
X13553333Y-19177190D01*
X13439048Y-19291476D01*
X13562857Y-19291476D01*
X13800952Y-19291476D02*
X13800952Y-19091476D01*
X13886667Y-19291476D02*
X13886667Y-19186714D01*
X13877143Y-19167667D01*
X13858095Y-19158143D01*
X13829524Y-19158143D01*
X13810476Y-19167667D01*
X13800952Y-19177190D01*
X14010476Y-19291476D02*
X13991428Y-19281952D01*
X13981905Y-19272429D01*
X13972381Y-19253381D01*
X13972381Y-19196238D01*
X13981905Y-19177190D01*
X13991428Y-19167667D01*
X14010476Y-19158143D01*
X14039048Y-19158143D01*
X14058095Y-19167667D01*
X14067619Y-19177190D01*
X14077143Y-19196238D01*
X14077143Y-19253381D01*
X14067619Y-19272429D01*
X14058095Y-19281952D01*
X14039048Y-19291476D01*
X14010476Y-19291476D01*
X14191428Y-19291476D02*
X14172381Y-19281952D01*
X14162857Y-19262905D01*
X14162857Y-19091476D01*
X14343809Y-19281952D02*
X14324762Y-19291476D01*
X14286667Y-19291476D01*
X14267619Y-19281952D01*
X14258095Y-19262905D01*
X14258095Y-19186714D01*
X14267619Y-19167667D01*
X14286667Y-19158143D01*
X14324762Y-19158143D01*
X14343809Y-19167667D01*
X14353333Y-19186714D01*
X14353333Y-19205762D01*
X14258095Y-19224810D01*
X14429524Y-19281952D02*
X14448571Y-19291476D01*
X14486667Y-19291476D01*
X14505714Y-19281952D01*
X14515238Y-19262905D01*
X14515238Y-19253381D01*
X14505714Y-19234333D01*
X14486667Y-19224810D01*
X14458095Y-19224810D01*
X14439048Y-19215286D01*
X14429524Y-19196238D01*
X14429524Y-19186714D01*
X14439048Y-19167667D01*
X14458095Y-19158143D01*
X14486667Y-19158143D01*
X14505714Y-19167667D01*
X14581905Y-19367667D02*
X14591428Y-19358143D01*
X14610476Y-19329571D01*
X14620000Y-19310524D01*
X14629524Y-19281952D01*
X14639048Y-19234333D01*
X14639048Y-19196238D01*
X14629524Y-19148619D01*
X14620000Y-19120048D01*
X14610476Y-19101000D01*
X14591428Y-19072429D01*
X14581905Y-19062905D01*
M02*
