%TF.GenerationSoftware,KiCad,Pcbnew,(6.0.4-0)*%
%TF.CreationDate,2022-12-13T14:35:05+01:00*%
%TF.ProjectId,ControllerBoard,436f6e74-726f-46c6-9c65-72426f617264,rev?*%
%TF.SameCoordinates,Original*%
%TF.FileFunction,Copper,L2,Bot*%
%TF.FilePolarity,Positive*%
%FSLAX46Y46*%
G04 Gerber Fmt 4.6, Leading zero omitted, Abs format (unit mm)*
G04 Created by KiCad (PCBNEW (6.0.4-0)) date 2022-12-13 14:35:05*
%MOMM*%
%LPD*%
G01*
G04 APERTURE LIST*
G04 Aperture macros list*
%AMRoundRect*
0 Rectangle with rounded corners*
0 $1 Rounding radius*
0 $2 $3 $4 $5 $6 $7 $8 $9 X,Y pos of 4 corners*
0 Add a 4 corners polygon primitive as box body*
4,1,4,$2,$3,$4,$5,$6,$7,$8,$9,$2,$3,0*
0 Add four circle primitives for the rounded corners*
1,1,$1+$1,$2,$3*
1,1,$1+$1,$4,$5*
1,1,$1+$1,$6,$7*
1,1,$1+$1,$8,$9*
0 Add four rect primitives between the rounded corners*
20,1,$1+$1,$2,$3,$4,$5,0*
20,1,$1+$1,$4,$5,$6,$7,0*
20,1,$1+$1,$6,$7,$8,$9,0*
20,1,$1+$1,$8,$9,$2,$3,0*%
G04 Aperture macros list end*
%TA.AperFunction,ComponentPad*%
%ADD10O,2.000000X1.700000*%
%TD*%
%TA.AperFunction,ComponentPad*%
%ADD11RoundRect,0.250000X-0.750000X0.600000X-0.750000X-0.600000X0.750000X-0.600000X0.750000X0.600000X0*%
%TD*%
%TA.AperFunction,ComponentPad*%
%ADD12R,1.600000X1.600000*%
%TD*%
%TA.AperFunction,ComponentPad*%
%ADD13C,1.600000*%
%TD*%
%TA.AperFunction,ComponentPad*%
%ADD14O,0.900000X1.500000*%
%TD*%
%TA.AperFunction,ComponentPad*%
%ADD15R,2.000000X2.000000*%
%TD*%
%TA.AperFunction,ComponentPad*%
%ADD16C,2.000000*%
%TD*%
%TA.AperFunction,ViaPad*%
%ADD17C,0.800000*%
%TD*%
%TA.AperFunction,Conductor*%
%ADD18C,0.500000*%
%TD*%
G04 APERTURE END LIST*
D10*
%TO.P,X1,2,2*%
%TO.N,3.3V*%
X118410000Y-60178000D03*
D11*
%TO.P,X1,1,1*%
%TO.N,Net-(A1-Pad19)*%
X118410000Y-57678000D03*
%TD*%
D12*
%TO.P,A1,1,~{RESET}*%
%TO.N,unconnected-(A1-Pad1)*%
X120796500Y-115062000D03*
D13*
%TO.P,A1,2,3V3*%
%TO.N,3.3V*%
X120796500Y-112522000D03*
%TO.P,A1,3,NC*%
%TO.N,unconnected-(A1-Pad3)*%
X120796500Y-109982000D03*
%TO.P,A1,4,GND*%
%TO.N,GND*%
X120796500Y-107442000D03*
%TO.P,A1,5,DAC2/A0*%
%TO.N,unconnected-(A1-Pad5)*%
X120796500Y-104902000D03*
%TO.P,A1,6,DAC1/A1*%
%TO.N,unconnected-(A1-Pad6)*%
X120796500Y-102362000D03*
%TO.P,A1,7,I34/A2*%
%TO.N,unconnected-(A1-Pad7)*%
X120796500Y-99822000D03*
%TO.P,A1,8,I39/A3*%
%TO.N,unconnected-(A1-Pad8)*%
X120796500Y-97282000D03*
%TO.P,A1,9,IO36/A4*%
%TO.N,unconnected-(A1-Pad9)*%
X120796500Y-94742000D03*
%TO.P,A1,10,IO4/A5*%
%TO.N,unconnected-(A1-Pad10)*%
X120796500Y-92202000D03*
%TO.P,A1,11,SCK/IO5*%
%TO.N,Net-(A1-Pad11)*%
X120796500Y-89662000D03*
%TO.P,A1,12,MOSI/IO18*%
%TO.N,Net-(A1-Pad12)*%
X120796500Y-87122000D03*
%TO.P,A1,13,MISO/IO19*%
%TO.N,unconnected-(A1-Pad13)*%
X120796500Y-84582000D03*
%TO.P,A1,14,RX/IO16*%
%TO.N,unconnected-(A1-Pad14)*%
X120796500Y-82042000D03*
%TO.P,A1,15,TX/IO17*%
%TO.N,unconnected-(A1-Pad15)*%
X120796500Y-79502000D03*
%TO.P,A1,16,IO21*%
%TO.N,unconnected-(A1-Pad16)*%
X120796500Y-76962000D03*
%TO.P,A1,17,SDA/IO23*%
%TO.N,Net-(A1-Pad17)*%
X100476500Y-76962000D03*
%TO.P,A1,18,SCL/IO22*%
%TO.N,Net-(A1-Pad18)*%
X100476500Y-79502000D03*
%TO.P,A1,19,A6/IO14*%
%TO.N,Net-(A1-Pad19)*%
X100476500Y-82042000D03*
%TO.P,A1,20,A7/IO32*%
%TO.N,Net-(A1-Pad20)*%
X100476500Y-84582000D03*
%TO.P,A1,21,A8/IO15*%
%TO.N,Net-(A1-Pad21)*%
X100476500Y-87122000D03*
%TO.P,A1,22,A9/IO33*%
%TO.N,Net-(A1-Pad22)*%
X100476500Y-89662000D03*
%TO.P,A1,23,A10/IO27*%
%TO.N,Net-(A1-Pad23)*%
X100476500Y-92202000D03*
%TO.P,A1,24,A11/IO12*%
%TO.N,unconnected-(A1-Pad24)*%
X100476500Y-94742000D03*
%TO.P,A1,25,A12/IO13*%
%TO.N,unconnected-(A1-Pad25)*%
X100476500Y-97282000D03*
%TO.P,A1,26,USB*%
%TO.N,Net-(A1-Pad26)*%
X100476500Y-99822000D03*
%TO.P,A1,27,EN*%
%TO.N,unconnected-(A1-Pad27)*%
X100476500Y-102362000D03*
%TO.P,A1,28,VBAT*%
%TO.N,Net-(A1-Pad28)*%
X100476500Y-104902000D03*
%TD*%
D14*
%TO.P,J2,S1,SHIELD*%
%TO.N,Net-(J2-PadS1)*%
X104850000Y-174000000D03*
%TO.P,J2,S2,SHIELD*%
X116450000Y-174000000D03*
%TO.P,J2,S3,SHIELD*%
X104850000Y-171000000D03*
%TO.P,J2,S4,SHIELD*%
X116450000Y-171000000D03*
%TD*%
D15*
%TO.P,BT1,1,+*%
%TO.N,Net-(A1-Pad28)*%
X110617000Y-64389000D03*
D16*
%TO.P,BT1,2,-*%
%TO.N,GND*%
X110617000Y-116379000D03*
%TD*%
D17*
%TO.N,GND*%
X115824000Y-161163000D03*
X106553000Y-152781000D03*
X104521000Y-146939000D03*
X120269000Y-128778000D03*
X119634000Y-119253000D03*
X105537000Y-89916000D03*
X107950000Y-91694000D03*
X113538000Y-93345000D03*
X113538000Y-98806000D03*
X109347000Y-73152000D03*
X109347000Y-67691000D03*
X110998000Y-60706000D03*
X112268000Y-83185000D03*
X106045000Y-80264000D03*
X108204000Y-95123000D03*
X108712000Y-86106000D03*
X105664000Y-93599000D03*
X107950000Y-89154000D03*
X107188000Y-97409000D03*
X104521000Y-101219000D03*
X103505000Y-99187000D03*
X102870000Y-96139000D03*
X103124000Y-91694000D03*
X119634000Y-144272000D03*
X118999000Y-151130000D03*
X106299000Y-162687000D03*
X104267000Y-161544000D03*
X104521000Y-164973000D03*
X116586000Y-153924000D03*
X112522000Y-155194000D03*
X113919000Y-156464000D03*
X113157000Y-162052000D03*
X115570000Y-163957000D03*
X116205000Y-157861000D03*
X116205000Y-149352000D03*
X114300000Y-151765000D03*
X109728000Y-152400000D03*
X106807000Y-155702000D03*
X104902000Y-150368000D03*
X104648000Y-142240000D03*
X100457000Y-133223000D03*
X100203000Y-127762000D03*
X100457000Y-123190000D03*
X100330000Y-117729000D03*
X100203000Y-112268000D03*
X100330000Y-108204000D03*
X104140000Y-110109000D03*
X104267000Y-115951000D03*
X104267000Y-120523000D03*
X104902000Y-125603000D03*
X104775000Y-130810000D03*
X105664000Y-135890000D03*
X109347000Y-134112000D03*
X119507000Y-141732000D03*
X116713000Y-145669000D03*
X116459000Y-138557000D03*
X119634000Y-137922000D03*
X120015000Y-131572000D03*
X121031000Y-123317000D03*
X116459000Y-134112000D03*
X116332000Y-124333000D03*
X116586000Y-128016000D03*
X116713000Y-120015000D03*
X114046000Y-134493000D03*
X114046000Y-129032000D03*
X114046000Y-122682000D03*
X113919000Y-117094000D03*
X111506000Y-130302000D03*
X111506000Y-124841000D03*
X111506000Y-118872000D03*
X108839000Y-131191000D03*
X108839000Y-125603000D03*
X108839000Y-120777000D03*
X106426000Y-133096000D03*
X106426000Y-127762000D03*
X106426000Y-122936000D03*
X106426000Y-118237000D03*
X106426000Y-113792000D03*
X106426000Y-107950000D03*
X108839000Y-115316000D03*
X108966000Y-111125000D03*
X108966000Y-105918000D03*
X111506000Y-113284000D03*
X111506000Y-108712000D03*
X111506000Y-103632000D03*
X116459000Y-98425000D03*
X116586000Y-93726000D03*
X116713000Y-89662000D03*
X116586000Y-106807000D03*
X116840000Y-102870000D03*
X113792000Y-110236000D03*
X113919000Y-107061000D03*
X113919000Y-101473000D03*
X113792000Y-96012000D03*
X113665000Y-91186000D03*
X113665000Y-87122000D03*
X104521000Y-36195000D03*
X110744000Y-36322000D03*
X117348000Y-36322000D03*
X121920000Y-42037000D03*
X120269000Y-53340000D03*
X117856000Y-52197000D03*
X119126000Y-47117000D03*
X103378000Y-48387000D03*
X99949000Y-42418000D03*
X100330000Y-46609000D03*
X100584000Y-53467000D03*
X100457000Y-56642000D03*
X100711000Y-62738000D03*
X102616000Y-60325000D03*
X108077000Y-48387000D03*
X107696000Y-51181000D03*
X110744000Y-51308000D03*
X110998000Y-56515000D03*
X109601000Y-59055000D03*
X107061000Y-61849000D03*
X103886000Y-64643000D03*
X107061000Y-64643000D03*
X107061000Y-68707000D03*
X103886000Y-73914000D03*
X107061000Y-73787000D03*
X107061000Y-71755000D03*
X103886000Y-71755000D03*
X103886000Y-76708000D03*
X120269000Y-64389000D03*
X120269000Y-68834000D03*
X120142000Y-73787000D03*
X117094000Y-77470000D03*
X116840000Y-81407000D03*
X115189000Y-79756000D03*
X107950000Y-77978000D03*
X103505000Y-82169000D03*
X121412000Y-47117000D03*
%TO.N,Net-(A1-Pad28)*%
X104013000Y-104902000D03*
%TO.N,Net-(A1-Pad12)*%
X112482500Y-71628000D03*
%TO.N,Net-(A1-Pad11)*%
X113371500Y-70231000D03*
%TO.N,Net-(A1-Pad12)*%
X107744000Y-45197000D03*
%TO.N,Net-(A1-Pad11)*%
X109744000Y-45197000D03*
%TO.N,Net-(A1-Pad20)*%
X111744000Y-45197000D03*
%TO.N,Net-(A1-Pad21)*%
X113744000Y-45197000D03*
%TO.N,Net-(A1-Pad22)*%
X115744000Y-45197000D03*
%TO.N,Net-(A1-Pad23)*%
X117744000Y-45197000D03*
%TO.N,GND*%
X112903000Y-166370000D03*
X107900000Y-166801000D03*
%TD*%
D18*
%TO.N,GND*%
X108839000Y-165862000D02*
X112395000Y-165862000D01*
X112395000Y-165862000D02*
X112903000Y-166370000D01*
X107900000Y-166801000D02*
X108839000Y-165862000D01*
X121412000Y-47117000D02*
X121412000Y-74579424D01*
X121412000Y-74579424D02*
X119126000Y-76865424D01*
X119126000Y-76865424D02*
X119126000Y-105771500D01*
X119126000Y-105771500D02*
X120796500Y-107442000D01*
%TO.N,Net-(A1-Pad28)*%
X104013000Y-104902000D02*
X100476500Y-104902000D01*
%TO.N,3.3V*%
X118410000Y-60178000D02*
X118410000Y-110135500D01*
X118410000Y-110135500D02*
X120796500Y-112522000D01*
%TO.N,Net-(A1-Pad22)*%
X115620021Y-75334496D02*
X101292517Y-89662000D01*
%TO.N,Net-(A1-Pad20)*%
X111744000Y-45197000D02*
X114221001Y-47674001D01*
%TO.N,Net-(A1-Pad21)*%
X113744000Y-45197000D02*
X114920511Y-46373511D01*
%TO.N,Net-(A1-Pad22)*%
X115620022Y-45320978D02*
X115620021Y-75334496D01*
%TO.N,Net-(A1-Pad21)*%
X114920511Y-75044747D02*
X102843258Y-87122000D01*
%TO.N,Net-(A1-Pad22)*%
X115744000Y-45197000D02*
X115620022Y-45320978D01*
%TO.N,Net-(A1-Pad21)*%
X102843258Y-87122000D02*
X100476500Y-87122000D01*
X114920511Y-46373511D02*
X114920511Y-75044747D01*
%TO.N,Net-(A1-Pad20)*%
X114221001Y-74754999D02*
X104394000Y-84582000D01*
%TO.N,Net-(A1-Pad22)*%
X101292517Y-89662000D02*
X100476500Y-89662000D01*
%TO.N,Net-(A1-Pad20)*%
X114221001Y-47674001D02*
X114221001Y-74754999D01*
X104394000Y-84582000D02*
X100476500Y-84582000D01*
%TO.N,Net-(A1-Pad23)*%
X117744000Y-45197000D02*
X116319532Y-46621468D01*
X116319532Y-75704468D02*
X100476500Y-91547500D01*
X116319532Y-46621468D02*
X116319532Y-75704468D01*
X100476500Y-91547500D02*
X100476500Y-92202000D01*
%TO.N,Net-(A1-Pad12)*%
X112522000Y-49975000D02*
X112522000Y-71588500D01*
X112522000Y-71588500D02*
X112482500Y-71628000D01*
X107744000Y-45197000D02*
X112522000Y-49975000D01*
%TO.N,Net-(A1-Pad11)*%
X113221511Y-70081011D02*
X113371500Y-70231000D01*
X113221511Y-49685253D02*
X113221511Y-70081011D01*
X109744000Y-45197000D02*
X109744000Y-46207742D01*
X109744000Y-46207742D02*
X113221511Y-49685253D01*
%TO.N,Net-(J2-PadS1)*%
X104609222Y-170759222D02*
X104609222Y-168313778D01*
X104609222Y-168313778D02*
X108077000Y-164846000D01*
X104850000Y-171000000D02*
X104609222Y-170759222D01*
X108077000Y-164846000D02*
X113224627Y-164846000D01*
X113224627Y-164846000D02*
X116724824Y-168346197D01*
X116724824Y-168346197D02*
X116724824Y-170725176D01*
X116724824Y-170725176D02*
X116450000Y-171000000D01*
X104850000Y-174000000D02*
X104850000Y-171000000D01*
X116450000Y-174000000D02*
X116450000Y-171000000D01*
%TD*%
%TA.AperFunction,Conductor*%
%TO.N,GND*%
G36*
X122583621Y-35528502D02*
G01*
X122630114Y-35582158D01*
X122641500Y-35634500D01*
X122641500Y-124968348D01*
X122640875Y-124980885D01*
X117701159Y-174378037D01*
X117674478Y-174443830D01*
X117616462Y-174484753D01*
X117575784Y-174491500D01*
X117534500Y-174491500D01*
X117466379Y-174471498D01*
X117419886Y-174417842D01*
X117408500Y-174365500D01*
X117408500Y-173651337D01*
X117393765Y-173506273D01*
X117376111Y-173449939D01*
X117337444Y-173326549D01*
X117337442Y-173326544D01*
X117335535Y-173320459D01*
X117241130Y-173150150D01*
X117236979Y-173145307D01*
X117233334Y-173140063D01*
X117234983Y-173138917D01*
X117209688Y-173082732D01*
X117208500Y-173065471D01*
X117208500Y-171927591D01*
X117231287Y-171855321D01*
X117287349Y-171775256D01*
X117287352Y-171775250D01*
X117291011Y-171770025D01*
X117368345Y-171591316D01*
X117387460Y-171499818D01*
X117407176Y-171405443D01*
X117407177Y-171405438D01*
X117408165Y-171400707D01*
X117408500Y-171394315D01*
X117408500Y-171084527D01*
X117422283Y-171027226D01*
X117437264Y-170997887D01*
X117440593Y-170991368D01*
X117442332Y-170984260D01*
X117444428Y-170978625D01*
X117446347Y-170972855D01*
X117449446Y-170966226D01*
X117455962Y-170934903D01*
X117464314Y-170894747D01*
X117465285Y-170890458D01*
X117479121Y-170833914D01*
X117482632Y-170819566D01*
X117483324Y-170808412D01*
X117483359Y-170808414D01*
X117483599Y-170804442D01*
X117483976Y-170800221D01*
X117485465Y-170793061D01*
X117483370Y-170715634D01*
X117483324Y-170712226D01*
X117483324Y-168413267D01*
X117484757Y-168394317D01*
X117486923Y-168380082D01*
X117486923Y-168380078D01*
X117488023Y-168372848D01*
X117483739Y-168320179D01*
X117483324Y-168309964D01*
X117483324Y-168301904D01*
X117480035Y-168273690D01*
X117479602Y-168269315D01*
X117474278Y-168203858D01*
X117474277Y-168203855D01*
X117473684Y-168196560D01*
X117471428Y-168189596D01*
X117470237Y-168183637D01*
X117468853Y-168177782D01*
X117468006Y-168170516D01*
X117443089Y-168101870D01*
X117441672Y-168097742D01*
X117421431Y-168035261D01*
X117421430Y-168035259D01*
X117419175Y-168028298D01*
X117415379Y-168022043D01*
X117412873Y-168016569D01*
X117410154Y-168011139D01*
X117407657Y-168004260D01*
X117367638Y-167943221D01*
X117365291Y-167939502D01*
X117327419Y-167877090D01*
X117320021Y-167868713D01*
X117320048Y-167868689D01*
X117317395Y-167865697D01*
X117314692Y-167862464D01*
X117310680Y-167856345D01*
X117254434Y-167803062D01*
X117251999Y-167800691D01*
X113808397Y-164357089D01*
X113796011Y-164342677D01*
X113787478Y-164331082D01*
X113787473Y-164331077D01*
X113783135Y-164325182D01*
X113777557Y-164320443D01*
X113777554Y-164320440D01*
X113742859Y-164290965D01*
X113735343Y-164284035D01*
X113729648Y-164278340D01*
X113713363Y-164265456D01*
X113707376Y-164260719D01*
X113703972Y-164257928D01*
X113653924Y-164215409D01*
X113653922Y-164215408D01*
X113648342Y-164210667D01*
X113641826Y-164207339D01*
X113636777Y-164203972D01*
X113631648Y-164200805D01*
X113625911Y-164196266D01*
X113559752Y-164165345D01*
X113555852Y-164163439D01*
X113490819Y-164130231D01*
X113483711Y-164128492D01*
X113478068Y-164126393D01*
X113472305Y-164124476D01*
X113465677Y-164121378D01*
X113394210Y-164106513D01*
X113389926Y-164105543D01*
X113319017Y-164088192D01*
X113313415Y-164087844D01*
X113313412Y-164087844D01*
X113307863Y-164087500D01*
X113307865Y-164087464D01*
X113303872Y-164087225D01*
X113299680Y-164086851D01*
X113292512Y-164085360D01*
X113228747Y-164087085D01*
X113215106Y-164087454D01*
X113211699Y-164087500D01*
X108144070Y-164087500D01*
X108125120Y-164086067D01*
X108110885Y-164083901D01*
X108110881Y-164083901D01*
X108103651Y-164082801D01*
X108096359Y-164083394D01*
X108096356Y-164083394D01*
X108050982Y-164087085D01*
X108040767Y-164087500D01*
X108032707Y-164087500D01*
X108029073Y-164087924D01*
X108029067Y-164087924D01*
X108016042Y-164089443D01*
X108004480Y-164090791D01*
X108000132Y-164091221D01*
X107978059Y-164093016D01*
X107934662Y-164096546D01*
X107934659Y-164096547D01*
X107927364Y-164097140D01*
X107920400Y-164099396D01*
X107914461Y-164100583D01*
X107908590Y-164101970D01*
X107901319Y-164102818D01*
X107894443Y-164105314D01*
X107894434Y-164105316D01*
X107832702Y-164127725D01*
X107828598Y-164129135D01*
X107759101Y-164151648D01*
X107752846Y-164155444D01*
X107747387Y-164157943D01*
X107741939Y-164160671D01*
X107735063Y-164163167D01*
X107674010Y-164203195D01*
X107670327Y-164205519D01*
X107612686Y-164240496D01*
X107612682Y-164240499D01*
X107607893Y-164243405D01*
X107603694Y-164247114D01*
X107603689Y-164247117D01*
X107599516Y-164250803D01*
X107599492Y-164250776D01*
X107596500Y-164253429D01*
X107593267Y-164256132D01*
X107587148Y-164260144D01*
X107557951Y-164290965D01*
X107533872Y-164316383D01*
X107531494Y-164318825D01*
X104120311Y-167730008D01*
X104105899Y-167742394D01*
X104094304Y-167750927D01*
X104094299Y-167750932D01*
X104088404Y-167755270D01*
X104083665Y-167760848D01*
X104083662Y-167760851D01*
X104054187Y-167795546D01*
X104047257Y-167803062D01*
X104041562Y-167808757D01*
X104039282Y-167811639D01*
X104023941Y-167831029D01*
X104021150Y-167834433D01*
X103992027Y-167868713D01*
X103973889Y-167890063D01*
X103970561Y-167896579D01*
X103967194Y-167901628D01*
X103964027Y-167906757D01*
X103959488Y-167912494D01*
X103928577Y-167978633D01*
X103926664Y-167982547D01*
X103893453Y-168047586D01*
X103891714Y-168054694D01*
X103889615Y-168060337D01*
X103887698Y-168066100D01*
X103884600Y-168072728D01*
X103883110Y-168079890D01*
X103883110Y-168079891D01*
X103869736Y-168144190D01*
X103868766Y-168148474D01*
X103851414Y-168219388D01*
X103850722Y-168230542D01*
X103850686Y-168230540D01*
X103850447Y-168234533D01*
X103850073Y-168238725D01*
X103848582Y-168245893D01*
X103848780Y-168253210D01*
X103850676Y-168323299D01*
X103850722Y-168326706D01*
X103850722Y-170692152D01*
X103849289Y-170711102D01*
X103848600Y-170715634D01*
X103846023Y-170732571D01*
X103846616Y-170739863D01*
X103846616Y-170739866D01*
X103850307Y-170785240D01*
X103850722Y-170795455D01*
X103850722Y-170803515D01*
X103851147Y-170807159D01*
X103854011Y-170831729D01*
X103854444Y-170836104D01*
X103859041Y-170892613D01*
X103860362Y-170908859D01*
X103862617Y-170915820D01*
X103863803Y-170921755D01*
X103865192Y-170927632D01*
X103866040Y-170934903D01*
X103868538Y-170941784D01*
X103883939Y-170984213D01*
X103891500Y-171027205D01*
X103891500Y-171348663D01*
X103906235Y-171493727D01*
X103908144Y-171499818D01*
X103962556Y-171673451D01*
X103962558Y-171673456D01*
X103964465Y-171679541D01*
X104058870Y-171849850D01*
X104063021Y-171854693D01*
X104066666Y-171859937D01*
X104065017Y-171861083D01*
X104090312Y-171917268D01*
X104091500Y-171934529D01*
X104091500Y-173072409D01*
X104068713Y-173144679D01*
X104012651Y-173224744D01*
X104012648Y-173224750D01*
X104008989Y-173229975D01*
X103931655Y-173408684D01*
X103930350Y-173414931D01*
X103930349Y-173414934D01*
X103911268Y-173506273D01*
X103891835Y-173599293D01*
X103891500Y-173605685D01*
X103891500Y-174348663D01*
X103891917Y-174352765D01*
X103891880Y-174352963D01*
X103891984Y-174355022D01*
X103891491Y-174355047D01*
X103878903Y-174422557D01*
X103830222Y-174474235D01*
X103766562Y-174491500D01*
X103724215Y-174491500D01*
X103656094Y-174471498D01*
X103609601Y-174417842D01*
X103598840Y-174378037D01*
X101985408Y-158243724D01*
X108986309Y-158243724D01*
X108987130Y-158250000D01*
X108986849Y-158250000D01*
X109005425Y-158497880D01*
X109060738Y-158740222D01*
X109151553Y-158971614D01*
X109275840Y-159186886D01*
X109430824Y-159381230D01*
X109613042Y-159550304D01*
X109818425Y-159690331D01*
X109822674Y-159692377D01*
X109822677Y-159692379D01*
X109943719Y-159750670D01*
X110042383Y-159798184D01*
X110046885Y-159799573D01*
X110046891Y-159799575D01*
X110182306Y-159841344D01*
X110279914Y-159871452D01*
X110284564Y-159872153D01*
X110284569Y-159872154D01*
X110389473Y-159887965D01*
X110525713Y-159908500D01*
X110774287Y-159908500D01*
X110910527Y-159887965D01*
X111015431Y-159872154D01*
X111015436Y-159872153D01*
X111020086Y-159871452D01*
X111257617Y-159798184D01*
X111481576Y-159690331D01*
X111485478Y-159687671D01*
X111683056Y-159552965D01*
X111683062Y-159552960D01*
X111686958Y-159550304D01*
X111869176Y-159381230D01*
X112024160Y-159186886D01*
X112148447Y-158971614D01*
X112239262Y-158740222D01*
X112294575Y-158497880D01*
X112310681Y-158282956D01*
X112312076Y-158271465D01*
X112312768Y-158267355D01*
X112312768Y-158267352D01*
X112313576Y-158262552D01*
X112313729Y-158250000D01*
X112309773Y-158222376D01*
X112308500Y-158204514D01*
X112308500Y-157803250D01*
X112310246Y-157782345D01*
X112312770Y-157767344D01*
X112312770Y-157767341D01*
X112313576Y-157762552D01*
X112313729Y-157750000D01*
X112313039Y-157745180D01*
X112313010Y-157744735D01*
X112312200Y-157737308D01*
X112311744Y-157731215D01*
X112294575Y-157502120D01*
X112239262Y-157259778D01*
X112148447Y-157028386D01*
X112024160Y-156813114D01*
X111869176Y-156618770D01*
X111686958Y-156449696D01*
X111683062Y-156447040D01*
X111683056Y-156447035D01*
X111485472Y-156312325D01*
X111485470Y-156312324D01*
X111481576Y-156309669D01*
X111257617Y-156201816D01*
X111020086Y-156128548D01*
X111015436Y-156127847D01*
X111015431Y-156127846D01*
X110910527Y-156112035D01*
X110774287Y-156091500D01*
X110525713Y-156091500D01*
X110389473Y-156112035D01*
X110284569Y-156127846D01*
X110284564Y-156127847D01*
X110279914Y-156128548D01*
X110182306Y-156158656D01*
X110046891Y-156200425D01*
X110046885Y-156200427D01*
X110042383Y-156201816D01*
X109943719Y-156249330D01*
X109822677Y-156307621D01*
X109822674Y-156307623D01*
X109818425Y-156309669D01*
X109613042Y-156449696D01*
X109430824Y-156618770D01*
X109275840Y-156813114D01*
X109151553Y-157028386D01*
X109060738Y-157259778D01*
X109005425Y-157502120D01*
X109005073Y-157506820D01*
X109005072Y-157506825D01*
X108988632Y-157726215D01*
X108987764Y-157733753D01*
X108987835Y-157733927D01*
X108986309Y-157743724D01*
X108986951Y-157748636D01*
X108986849Y-157750000D01*
X108987130Y-157750000D01*
X108988325Y-157759139D01*
X108988325Y-157759140D01*
X108990436Y-157775283D01*
X108991500Y-157791620D01*
X108991500Y-158200633D01*
X108990000Y-158220018D01*
X108987690Y-158234851D01*
X108987690Y-158234855D01*
X108986309Y-158243724D01*
X101985408Y-158243724D01*
X100710408Y-145493724D01*
X105636309Y-145493724D01*
X105637130Y-145500000D01*
X105636728Y-145500000D01*
X105637064Y-145507697D01*
X105653810Y-145891235D01*
X105655805Y-145936935D01*
X105712891Y-146370546D01*
X105807551Y-146797530D01*
X105939065Y-147214640D01*
X106106433Y-147618700D01*
X106308379Y-148006636D01*
X106543368Y-148375495D01*
X106545032Y-148377663D01*
X106545040Y-148377675D01*
X106807929Y-148720277D01*
X106809611Y-148722469D01*
X106811469Y-148724497D01*
X106811476Y-148724505D01*
X107082420Y-149020189D01*
X107105081Y-149044919D01*
X107107101Y-149046770D01*
X107425495Y-149338524D01*
X107425503Y-149338531D01*
X107427531Y-149340389D01*
X107429723Y-149342071D01*
X107772325Y-149604960D01*
X107772337Y-149604968D01*
X107774505Y-149606632D01*
X108143364Y-149841621D01*
X108531300Y-150043567D01*
X108935360Y-150210935D01*
X108937980Y-150211761D01*
X108937988Y-150211764D01*
X109349840Y-150341620D01*
X109349845Y-150341621D01*
X109352470Y-150342449D01*
X109779454Y-150437109D01*
X109782173Y-150437467D01*
X109782179Y-150437468D01*
X109944621Y-150458854D01*
X110213065Y-150494195D01*
X110215814Y-150494315D01*
X110215825Y-150494316D01*
X110647252Y-150513152D01*
X110650000Y-150513272D01*
X110652748Y-150513152D01*
X111084175Y-150494316D01*
X111084186Y-150494315D01*
X111086935Y-150494195D01*
X111355379Y-150458854D01*
X111517821Y-150437468D01*
X111517827Y-150437467D01*
X111520546Y-150437109D01*
X111947530Y-150342449D01*
X111950155Y-150341621D01*
X111950160Y-150341620D01*
X112362012Y-150211764D01*
X112362020Y-150211761D01*
X112364640Y-150210935D01*
X112768700Y-150043567D01*
X113156636Y-149841621D01*
X113525495Y-149606632D01*
X113527663Y-149604968D01*
X113527675Y-149604960D01*
X113870277Y-149342071D01*
X113872469Y-149340389D01*
X113874497Y-149338531D01*
X113874505Y-149338524D01*
X114192899Y-149046770D01*
X114194919Y-149044919D01*
X114217580Y-149020189D01*
X114488524Y-148724505D01*
X114488531Y-148724497D01*
X114490389Y-148722469D01*
X114492071Y-148720277D01*
X114754960Y-148377675D01*
X114754968Y-148377663D01*
X114756632Y-148375495D01*
X114991621Y-148006636D01*
X115193567Y-147618700D01*
X115360935Y-147214640D01*
X115492449Y-146797530D01*
X115587109Y-146370546D01*
X115644195Y-145936935D01*
X115646191Y-145891235D01*
X115662147Y-145525763D01*
X115662531Y-145520004D01*
X115662770Y-145517344D01*
X115663576Y-145512552D01*
X115663729Y-145500000D01*
X115659773Y-145472376D01*
X115658500Y-145454514D01*
X115658500Y-140553250D01*
X115660246Y-140532345D01*
X115662770Y-140517344D01*
X115662770Y-140517341D01*
X115663576Y-140512552D01*
X115663729Y-140500000D01*
X115663081Y-140495474D01*
X115663049Y-140494879D01*
X115644316Y-140065825D01*
X115644315Y-140065814D01*
X115644195Y-140063065D01*
X115587109Y-139629454D01*
X115492449Y-139202470D01*
X115360935Y-138785360D01*
X115193567Y-138381300D01*
X114991621Y-137993364D01*
X114756632Y-137624505D01*
X114754968Y-137622337D01*
X114754960Y-137622325D01*
X114492071Y-137279723D01*
X114490389Y-137277531D01*
X114488531Y-137275503D01*
X114488524Y-137275495D01*
X114196770Y-136957101D01*
X114194919Y-136955081D01*
X113895127Y-136680373D01*
X113874505Y-136661476D01*
X113874497Y-136661469D01*
X113872469Y-136659611D01*
X113675538Y-136508500D01*
X113527675Y-136395040D01*
X113527663Y-136395032D01*
X113525495Y-136393368D01*
X113156636Y-136158379D01*
X112768700Y-135956433D01*
X112364640Y-135789065D01*
X112362020Y-135788239D01*
X112362012Y-135788236D01*
X111950160Y-135658380D01*
X111950155Y-135658379D01*
X111947530Y-135657551D01*
X111520546Y-135562891D01*
X111517827Y-135562533D01*
X111517821Y-135562532D01*
X111355379Y-135541146D01*
X111086935Y-135505805D01*
X111084186Y-135505685D01*
X111084175Y-135505684D01*
X110652748Y-135486848D01*
X110650000Y-135486728D01*
X110647252Y-135486848D01*
X110215825Y-135505684D01*
X110215814Y-135505685D01*
X110213065Y-135505805D01*
X109944621Y-135541146D01*
X109782179Y-135562532D01*
X109782173Y-135562533D01*
X109779454Y-135562891D01*
X109352470Y-135657551D01*
X109349845Y-135658379D01*
X109349840Y-135658380D01*
X108937988Y-135788236D01*
X108937980Y-135788239D01*
X108935360Y-135789065D01*
X108531300Y-135956433D01*
X108143364Y-136158379D01*
X107774505Y-136393368D01*
X107772337Y-136395032D01*
X107772325Y-136395040D01*
X107624462Y-136508500D01*
X107427531Y-136659611D01*
X107425503Y-136661469D01*
X107425495Y-136661476D01*
X107404873Y-136680373D01*
X107105081Y-136955081D01*
X107103230Y-136957101D01*
X106811476Y-137275495D01*
X106811469Y-137275503D01*
X106809611Y-137277531D01*
X106807929Y-137279723D01*
X106545040Y-137622325D01*
X106545032Y-137622337D01*
X106543368Y-137624505D01*
X106308379Y-137993364D01*
X106106433Y-138381300D01*
X105939065Y-138785360D01*
X105807551Y-139202470D01*
X105712891Y-139629454D01*
X105655805Y-140063065D01*
X105655685Y-140065814D01*
X105655684Y-140065825D01*
X105642756Y-140361934D01*
X105637272Y-140487539D01*
X105636309Y-140493724D01*
X105636829Y-140497697D01*
X105636728Y-140500000D01*
X105637130Y-140500000D01*
X105637646Y-140503947D01*
X105637646Y-140503949D01*
X105640436Y-140525283D01*
X105641500Y-140541620D01*
X105641500Y-145450633D01*
X105640000Y-145470018D01*
X105636309Y-145493724D01*
X100710408Y-145493724D01*
X98659125Y-124980891D01*
X98658500Y-124968354D01*
X98658500Y-117611670D01*
X109749160Y-117611670D01*
X109754887Y-117619320D01*
X109926042Y-117724205D01*
X109934837Y-117728687D01*
X110144988Y-117815734D01*
X110154373Y-117818783D01*
X110375554Y-117871885D01*
X110385301Y-117873428D01*
X110612070Y-117891275D01*
X110621930Y-117891275D01*
X110848699Y-117873428D01*
X110858446Y-117871885D01*
X111079627Y-117818783D01*
X111089012Y-117815734D01*
X111299163Y-117728687D01*
X111307958Y-117724205D01*
X111475445Y-117621568D01*
X111484907Y-117611110D01*
X111481124Y-117602334D01*
X110629812Y-116751022D01*
X110615868Y-116743408D01*
X110614035Y-116743539D01*
X110607420Y-116747790D01*
X109755920Y-117599290D01*
X109749160Y-117611670D01*
X98658500Y-117611670D01*
X98658500Y-116383930D01*
X109104725Y-116383930D01*
X109122572Y-116610699D01*
X109124115Y-116620446D01*
X109177217Y-116841627D01*
X109180266Y-116851012D01*
X109267313Y-117061163D01*
X109271795Y-117069958D01*
X109374432Y-117237445D01*
X109384890Y-117246907D01*
X109393666Y-117243124D01*
X110244978Y-116391812D01*
X110251356Y-116380132D01*
X110981408Y-116380132D01*
X110981539Y-116381965D01*
X110985790Y-116388580D01*
X111837290Y-117240080D01*
X111849670Y-117246840D01*
X111857320Y-117241113D01*
X111962205Y-117069958D01*
X111966687Y-117061163D01*
X112053734Y-116851012D01*
X112056783Y-116841627D01*
X112109885Y-116620446D01*
X112111428Y-116610699D01*
X112129275Y-116383930D01*
X112129275Y-116374070D01*
X112111428Y-116147301D01*
X112109885Y-116137554D01*
X112056783Y-115916373D01*
X112053734Y-115906988D01*
X111966687Y-115696837D01*
X111962205Y-115688042D01*
X111859568Y-115520555D01*
X111849110Y-115511093D01*
X111840334Y-115514876D01*
X110989022Y-116366188D01*
X110981408Y-116380132D01*
X110251356Y-116380132D01*
X110252592Y-116377868D01*
X110252461Y-116376035D01*
X110248210Y-116369420D01*
X109396710Y-115517920D01*
X109384330Y-115511160D01*
X109376680Y-115516887D01*
X109271795Y-115688042D01*
X109267313Y-115696837D01*
X109180266Y-115906988D01*
X109177217Y-115916373D01*
X109124115Y-116137554D01*
X109122572Y-116147301D01*
X109104725Y-116374070D01*
X109104725Y-116383930D01*
X98658500Y-116383930D01*
X98658500Y-115146890D01*
X109749093Y-115146890D01*
X109752876Y-115155666D01*
X110604188Y-116006978D01*
X110618132Y-116014592D01*
X110619965Y-116014461D01*
X110626580Y-116010210D01*
X111478080Y-115158710D01*
X111484840Y-115146330D01*
X111479113Y-115138680D01*
X111307958Y-115033795D01*
X111299163Y-115029313D01*
X111089012Y-114942266D01*
X111079627Y-114939217D01*
X110858446Y-114886115D01*
X110848699Y-114884572D01*
X110621930Y-114866725D01*
X110612070Y-114866725D01*
X110385301Y-114884572D01*
X110375554Y-114886115D01*
X110154373Y-114939217D01*
X110144988Y-114942266D01*
X109934837Y-115029313D01*
X109926042Y-115033795D01*
X109758555Y-115136432D01*
X109749093Y-115146890D01*
X98658500Y-115146890D01*
X98658500Y-113730940D01*
X114781793Y-113730940D01*
X114818442Y-114000232D01*
X114819751Y-114004722D01*
X114819752Y-114004728D01*
X114822832Y-114015295D01*
X114894493Y-114261150D01*
X115008274Y-114507960D01*
X115010837Y-114511869D01*
X115154720Y-114731328D01*
X115154724Y-114731333D01*
X115157286Y-114735241D01*
X115338256Y-114938001D01*
X115547207Y-115111784D01*
X115596120Y-115141465D01*
X115775554Y-115250349D01*
X115775559Y-115250351D01*
X115779551Y-115252774D01*
X116030182Y-115357872D01*
X116293594Y-115424770D01*
X116519322Y-115447500D01*
X116680991Y-115447500D01*
X116683316Y-115447327D01*
X116683322Y-115447327D01*
X116878375Y-115432832D01*
X116878379Y-115432831D01*
X116883027Y-115432486D01*
X117148101Y-115372506D01*
X117182773Y-115359023D01*
X117397044Y-115275698D01*
X117397046Y-115275697D01*
X117401397Y-115274005D01*
X117435379Y-115254583D01*
X117608447Y-115155666D01*
X117637351Y-115139146D01*
X117850780Y-114970892D01*
X118036996Y-114772939D01*
X118039662Y-114769096D01*
X118189244Y-114553474D01*
X118189247Y-114553469D01*
X118191906Y-114549636D01*
X118210531Y-114511869D01*
X118310044Y-114310077D01*
X118310045Y-114310074D01*
X118312109Y-114305889D01*
X118394964Y-114047052D01*
X118433344Y-113811385D01*
X118437898Y-113783424D01*
X118437898Y-113783421D01*
X118438649Y-113778811D01*
X118442207Y-113507060D01*
X118405558Y-113237768D01*
X118389670Y-113183257D01*
X118371856Y-113122143D01*
X118329507Y-112976850D01*
X118215726Y-112730040D01*
X118079329Y-112522000D01*
X118069280Y-112506672D01*
X118069276Y-112506667D01*
X118066714Y-112502759D01*
X117938482Y-112359087D01*
X117888861Y-112303491D01*
X117888859Y-112303489D01*
X117885744Y-112299999D01*
X117676793Y-112126216D01*
X117560621Y-112055721D01*
X117448446Y-111987651D01*
X117448441Y-111987649D01*
X117444449Y-111985226D01*
X117193818Y-111880128D01*
X116930406Y-111813230D01*
X116704678Y-111790500D01*
X116543009Y-111790500D01*
X116540684Y-111790673D01*
X116540678Y-111790673D01*
X116345625Y-111805168D01*
X116345621Y-111805169D01*
X116340973Y-111805514D01*
X116075899Y-111865494D01*
X116071547Y-111867186D01*
X116071545Y-111867187D01*
X115826956Y-111962302D01*
X115826954Y-111962303D01*
X115822603Y-111963995D01*
X115818549Y-111966312D01*
X115818547Y-111966313D01*
X115734859Y-112014145D01*
X115586649Y-112098854D01*
X115373220Y-112267108D01*
X115187004Y-112465061D01*
X115184338Y-112468904D01*
X115034756Y-112684526D01*
X115034753Y-112684531D01*
X115032094Y-112688364D01*
X115030028Y-112692553D01*
X115030027Y-112692555D01*
X115001656Y-112750087D01*
X114911891Y-112932111D01*
X114829036Y-113190948D01*
X114785351Y-113459189D01*
X114784365Y-113534511D01*
X114781936Y-113720049D01*
X114781793Y-113730940D01*
X98658500Y-113730940D01*
X98658500Y-104902000D01*
X99163002Y-104902000D01*
X99182957Y-105130087D01*
X99184381Y-105135400D01*
X99184381Y-105135402D01*
X99219716Y-105267271D01*
X99242216Y-105351243D01*
X99244539Y-105356224D01*
X99244539Y-105356225D01*
X99336651Y-105553762D01*
X99336654Y-105553767D01*
X99338977Y-105558749D01*
X99410224Y-105660500D01*
X99434944Y-105695803D01*
X99470302Y-105746300D01*
X99632200Y-105908198D01*
X99636708Y-105911355D01*
X99636711Y-105911357D01*
X99714889Y-105966098D01*
X99819751Y-106039523D01*
X99824733Y-106041846D01*
X99824738Y-106041849D01*
X100022275Y-106133961D01*
X100027257Y-106136284D01*
X100032565Y-106137706D01*
X100032567Y-106137707D01*
X100243098Y-106194119D01*
X100243100Y-106194119D01*
X100248413Y-106195543D01*
X100476500Y-106215498D01*
X100704587Y-106195543D01*
X100709900Y-106194119D01*
X100709902Y-106194119D01*
X100920433Y-106137707D01*
X100920435Y-106137706D01*
X100925743Y-106136284D01*
X100930725Y-106133961D01*
X101128262Y-106041849D01*
X101128267Y-106041846D01*
X101133249Y-106039523D01*
X101238111Y-105966098D01*
X101316289Y-105911357D01*
X101316292Y-105911355D01*
X101320800Y-105908198D01*
X101482698Y-105746300D01*
X101505155Y-105714229D01*
X101560610Y-105669901D01*
X101608367Y-105660500D01*
X103470413Y-105660500D01*
X103544472Y-105684563D01*
X103550902Y-105689235D01*
X103550909Y-105689239D01*
X103556248Y-105693118D01*
X103562276Y-105695802D01*
X103562278Y-105695803D01*
X103675697Y-105746300D01*
X103730712Y-105770794D01*
X103824112Y-105790647D01*
X103911056Y-105809128D01*
X103911061Y-105809128D01*
X103917513Y-105810500D01*
X104108487Y-105810500D01*
X104114939Y-105809128D01*
X104114944Y-105809128D01*
X104201887Y-105790647D01*
X104295288Y-105770794D01*
X104350303Y-105746300D01*
X104463722Y-105695803D01*
X104463724Y-105695802D01*
X104469752Y-105693118D01*
X104475097Y-105689235D01*
X104525157Y-105652864D01*
X104624253Y-105580866D01*
X104752040Y-105438944D01*
X104847527Y-105273556D01*
X104906542Y-105091928D01*
X104926504Y-104902000D01*
X104906542Y-104712072D01*
X104847527Y-104530444D01*
X104752040Y-104365056D01*
X104624253Y-104223134D01*
X104514647Y-104143500D01*
X104475094Y-104114763D01*
X104475093Y-104114762D01*
X104469752Y-104110882D01*
X104463724Y-104108198D01*
X104463722Y-104108197D01*
X104301319Y-104035891D01*
X104301318Y-104035891D01*
X104295288Y-104033206D01*
X104201887Y-104013353D01*
X104114944Y-103994872D01*
X104114939Y-103994872D01*
X104108487Y-103993500D01*
X103917513Y-103993500D01*
X103911061Y-103994872D01*
X103911056Y-103994872D01*
X103824112Y-104013353D01*
X103730712Y-104033206D01*
X103724682Y-104035891D01*
X103724681Y-104035891D01*
X103562278Y-104108197D01*
X103562276Y-104108198D01*
X103556248Y-104110882D01*
X103550909Y-104114761D01*
X103550902Y-104114765D01*
X103544472Y-104119437D01*
X103470413Y-104143500D01*
X101608367Y-104143500D01*
X101540246Y-104123498D01*
X101505155Y-104089772D01*
X101482698Y-104057700D01*
X101320800Y-103895802D01*
X101316292Y-103892645D01*
X101316289Y-103892643D01*
X101238111Y-103837902D01*
X101133249Y-103764477D01*
X101128267Y-103762154D01*
X101128262Y-103762151D01*
X101094043Y-103746195D01*
X101040758Y-103699278D01*
X101021297Y-103631001D01*
X101041839Y-103563041D01*
X101094043Y-103517805D01*
X101128262Y-103501849D01*
X101128267Y-103501846D01*
X101133249Y-103499523D01*
X101238111Y-103426098D01*
X101316289Y-103371357D01*
X101316292Y-103371355D01*
X101320800Y-103368198D01*
X101482698Y-103206300D01*
X101614023Y-103018749D01*
X101616346Y-103013767D01*
X101616349Y-103013762D01*
X101708461Y-102816225D01*
X101708461Y-102816224D01*
X101710784Y-102811243D01*
X101770043Y-102590087D01*
X101789998Y-102362000D01*
X101770043Y-102133913D01*
X101710784Y-101912757D01*
X101708461Y-101907775D01*
X101616349Y-101710238D01*
X101616346Y-101710233D01*
X101614023Y-101705251D01*
X101482698Y-101517700D01*
X101320800Y-101355802D01*
X101316292Y-101352645D01*
X101316289Y-101352643D01*
X101238111Y-101297902D01*
X101133249Y-101224477D01*
X101128267Y-101222154D01*
X101128262Y-101222151D01*
X101094043Y-101206195D01*
X101040758Y-101159278D01*
X101021297Y-101091001D01*
X101041839Y-101023041D01*
X101094043Y-100977805D01*
X101128262Y-100961849D01*
X101128267Y-100961846D01*
X101133249Y-100959523D01*
X101238111Y-100886098D01*
X101316289Y-100831357D01*
X101316292Y-100831355D01*
X101320800Y-100828198D01*
X101482698Y-100666300D01*
X101614023Y-100478749D01*
X101616346Y-100473767D01*
X101616349Y-100473762D01*
X101708461Y-100276225D01*
X101708461Y-100276224D01*
X101710784Y-100271243D01*
X101770043Y-100050087D01*
X101789998Y-99822000D01*
X101770043Y-99593913D01*
X101710784Y-99372757D01*
X101708461Y-99367775D01*
X101616349Y-99170238D01*
X101616346Y-99170233D01*
X101614023Y-99165251D01*
X101482698Y-98977700D01*
X101320800Y-98815802D01*
X101316292Y-98812645D01*
X101316289Y-98812643D01*
X101238111Y-98757902D01*
X101133249Y-98684477D01*
X101128267Y-98682154D01*
X101128262Y-98682151D01*
X101094043Y-98666195D01*
X101040758Y-98619278D01*
X101021297Y-98551001D01*
X101041839Y-98483041D01*
X101094043Y-98437805D01*
X101128262Y-98421849D01*
X101128267Y-98421846D01*
X101133249Y-98419523D01*
X101238111Y-98346098D01*
X101316289Y-98291357D01*
X101316292Y-98291355D01*
X101320800Y-98288198D01*
X101482698Y-98126300D01*
X101614023Y-97938749D01*
X101616346Y-97933767D01*
X101616349Y-97933762D01*
X101708461Y-97736225D01*
X101708461Y-97736224D01*
X101710784Y-97731243D01*
X101770043Y-97510087D01*
X101789998Y-97282000D01*
X101770043Y-97053913D01*
X101710784Y-96832757D01*
X101708461Y-96827775D01*
X101616349Y-96630238D01*
X101616346Y-96630233D01*
X101614023Y-96625251D01*
X101482698Y-96437700D01*
X101320800Y-96275802D01*
X101316292Y-96272645D01*
X101316289Y-96272643D01*
X101238111Y-96217902D01*
X101133249Y-96144477D01*
X101128267Y-96142154D01*
X101128262Y-96142151D01*
X101094043Y-96126195D01*
X101040758Y-96079278D01*
X101021297Y-96011001D01*
X101041839Y-95943041D01*
X101094043Y-95897805D01*
X101128262Y-95881849D01*
X101128267Y-95881846D01*
X101133249Y-95879523D01*
X101238111Y-95806098D01*
X101316289Y-95751357D01*
X101316292Y-95751355D01*
X101320800Y-95748198D01*
X101482698Y-95586300D01*
X101614023Y-95398749D01*
X101616346Y-95393767D01*
X101616349Y-95393762D01*
X101708461Y-95196225D01*
X101708461Y-95196224D01*
X101710784Y-95191243D01*
X101770043Y-94970087D01*
X101789998Y-94742000D01*
X101770043Y-94513913D01*
X101710784Y-94292757D01*
X101708461Y-94287775D01*
X101616349Y-94090238D01*
X101616346Y-94090233D01*
X101614023Y-94085251D01*
X101482698Y-93897700D01*
X101320800Y-93735802D01*
X101316292Y-93732645D01*
X101316289Y-93732643D01*
X101238111Y-93677902D01*
X101133249Y-93604477D01*
X101128267Y-93602154D01*
X101128262Y-93602151D01*
X101094043Y-93586195D01*
X101040758Y-93539278D01*
X101021297Y-93471001D01*
X101041839Y-93403041D01*
X101094043Y-93357805D01*
X101128262Y-93341849D01*
X101128267Y-93341846D01*
X101133249Y-93339523D01*
X101238111Y-93266098D01*
X101316289Y-93211357D01*
X101316292Y-93211355D01*
X101320800Y-93208198D01*
X101482698Y-93046300D01*
X101614023Y-92858749D01*
X101616346Y-92853767D01*
X101616349Y-92853762D01*
X101708461Y-92656225D01*
X101708461Y-92656224D01*
X101710784Y-92651243D01*
X101770043Y-92430087D01*
X101789998Y-92202000D01*
X101770043Y-91973913D01*
X101710784Y-91752757D01*
X101631403Y-91582523D01*
X101620742Y-91512331D01*
X101649722Y-91447518D01*
X101656503Y-91440178D01*
X116808443Y-76288238D01*
X116822855Y-76275852D01*
X116834450Y-76267319D01*
X116834455Y-76267314D01*
X116840350Y-76262976D01*
X116845089Y-76257398D01*
X116845092Y-76257395D01*
X116874567Y-76222700D01*
X116881497Y-76215184D01*
X116887193Y-76209488D01*
X116889456Y-76206627D01*
X116889461Y-76206622D01*
X116904825Y-76187202D01*
X116907614Y-76183801D01*
X116909275Y-76181846D01*
X116954865Y-76128183D01*
X116958191Y-76121670D01*
X116961552Y-76116631D01*
X116964728Y-76111489D01*
X116969266Y-76105752D01*
X117000187Y-76039593D01*
X117002093Y-76035693D01*
X117035301Y-75970660D01*
X117037040Y-75963551D01*
X117039136Y-75957917D01*
X117041055Y-75952147D01*
X117044154Y-75945518D01*
X117059023Y-75874033D01*
X117059993Y-75869750D01*
X117077340Y-75798858D01*
X117078032Y-75787704D01*
X117078067Y-75787706D01*
X117078307Y-75783734D01*
X117078684Y-75779513D01*
X117080173Y-75772353D01*
X117078078Y-75694926D01*
X117078032Y-75691518D01*
X117078032Y-61226179D01*
X117098034Y-61158058D01*
X117151690Y-61111565D01*
X117221964Y-61101461D01*
X117286544Y-61130955D01*
X117299199Y-61143601D01*
X117305973Y-61151408D01*
X117305979Y-61151413D01*
X117309477Y-61155445D01*
X117313608Y-61158832D01*
X117483627Y-61298240D01*
X117483633Y-61298244D01*
X117487755Y-61301624D01*
X117587832Y-61358591D01*
X117637138Y-61409673D01*
X117651500Y-61468093D01*
X117651500Y-110068430D01*
X117650067Y-110087380D01*
X117646801Y-110108849D01*
X117647394Y-110116141D01*
X117647394Y-110116144D01*
X117651085Y-110161518D01*
X117651500Y-110171733D01*
X117651500Y-110179793D01*
X117651925Y-110183437D01*
X117654789Y-110208007D01*
X117655222Y-110212382D01*
X117661140Y-110285137D01*
X117663396Y-110292101D01*
X117664587Y-110298060D01*
X117665971Y-110303915D01*
X117666818Y-110311181D01*
X117691735Y-110379827D01*
X117693152Y-110383955D01*
X117715649Y-110453399D01*
X117719445Y-110459654D01*
X117721951Y-110465128D01*
X117724670Y-110470558D01*
X117727167Y-110477437D01*
X117731180Y-110483557D01*
X117731180Y-110483558D01*
X117767186Y-110538476D01*
X117769523Y-110542180D01*
X117807405Y-110604607D01*
X117811121Y-110608815D01*
X117811122Y-110608816D01*
X117814803Y-110612984D01*
X117814776Y-110613008D01*
X117817429Y-110616000D01*
X117820132Y-110619233D01*
X117824144Y-110625352D01*
X117829456Y-110630384D01*
X117880383Y-110678628D01*
X117882825Y-110681006D01*
X119460829Y-112259010D01*
X119494855Y-112321322D01*
X119497255Y-112359087D01*
X119487984Y-112465061D01*
X119483002Y-112522000D01*
X119502957Y-112750087D01*
X119504381Y-112755400D01*
X119504381Y-112755402D01*
X119552922Y-112936556D01*
X119562216Y-112971243D01*
X119564539Y-112976224D01*
X119564539Y-112976225D01*
X119656651Y-113173762D01*
X119656654Y-113173767D01*
X119658977Y-113178749D01*
X119790302Y-113366300D01*
X119952200Y-113528198D01*
X119956711Y-113531357D01*
X119960924Y-113534892D01*
X119959973Y-113536026D01*
X119999971Y-113586071D01*
X120007276Y-113656690D01*
X119975242Y-113720049D01*
X119914038Y-113756030D01*
X119896983Y-113759082D01*
X119886184Y-113760255D01*
X119749795Y-113811385D01*
X119633239Y-113898739D01*
X119545885Y-114015295D01*
X119494755Y-114151684D01*
X119488000Y-114213866D01*
X119488000Y-115910134D01*
X119494755Y-115972316D01*
X119545885Y-116108705D01*
X119633239Y-116225261D01*
X119749795Y-116312615D01*
X119886184Y-116363745D01*
X119948366Y-116370500D01*
X121644634Y-116370500D01*
X121706816Y-116363745D01*
X121843205Y-116312615D01*
X121959761Y-116225261D01*
X122047115Y-116108705D01*
X122098245Y-115972316D01*
X122105000Y-115910134D01*
X122105000Y-114213866D01*
X122098245Y-114151684D01*
X122047115Y-114015295D01*
X121959761Y-113898739D01*
X121843205Y-113811385D01*
X121706816Y-113760255D01*
X121696026Y-113759083D01*
X121693894Y-113758197D01*
X121691278Y-113757575D01*
X121691379Y-113757152D01*
X121630465Y-113731845D01*
X121590037Y-113673483D01*
X121587578Y-113602529D01*
X121623871Y-113541510D01*
X121632531Y-113534511D01*
X121636293Y-113531354D01*
X121640800Y-113528198D01*
X121802698Y-113366300D01*
X121934023Y-113178749D01*
X121936346Y-113173767D01*
X121936349Y-113173762D01*
X122028461Y-112976225D01*
X122028461Y-112976224D01*
X122030784Y-112971243D01*
X122040079Y-112936556D01*
X122088619Y-112755402D01*
X122088619Y-112755400D01*
X122090043Y-112750087D01*
X122109998Y-112522000D01*
X122090043Y-112293913D01*
X122045910Y-112129206D01*
X122032207Y-112078067D01*
X122032206Y-112078065D01*
X122030784Y-112072757D01*
X121989968Y-111985226D01*
X121936349Y-111870238D01*
X121936346Y-111870233D01*
X121934023Y-111865251D01*
X121802698Y-111677700D01*
X121640800Y-111515802D01*
X121636292Y-111512645D01*
X121636289Y-111512643D01*
X121558111Y-111457902D01*
X121453249Y-111384477D01*
X121448267Y-111382154D01*
X121448262Y-111382151D01*
X121414043Y-111366195D01*
X121360758Y-111319278D01*
X121341297Y-111251001D01*
X121361839Y-111183041D01*
X121414043Y-111137805D01*
X121448262Y-111121849D01*
X121448267Y-111121846D01*
X121453249Y-111119523D01*
X121558111Y-111046098D01*
X121636289Y-110991357D01*
X121636292Y-110991355D01*
X121640800Y-110988198D01*
X121802698Y-110826300D01*
X121934023Y-110638749D01*
X121936346Y-110633767D01*
X121936349Y-110633762D01*
X122028461Y-110436225D01*
X122028461Y-110436224D01*
X122030784Y-110431243D01*
X122061114Y-110318053D01*
X122088619Y-110215402D01*
X122088619Y-110215400D01*
X122090043Y-110210087D01*
X122109998Y-109982000D01*
X122090043Y-109753913D01*
X122030784Y-109532757D01*
X122028461Y-109527775D01*
X121936349Y-109330238D01*
X121936346Y-109330233D01*
X121934023Y-109325251D01*
X121802698Y-109137700D01*
X121640800Y-108975802D01*
X121636292Y-108972645D01*
X121636289Y-108972643D01*
X121558111Y-108917902D01*
X121453249Y-108844477D01*
X121448267Y-108842154D01*
X121448262Y-108842151D01*
X121413451Y-108825919D01*
X121360166Y-108779002D01*
X121340705Y-108710725D01*
X121361247Y-108642765D01*
X121413451Y-108597529D01*
X121448011Y-108581414D01*
X121457506Y-108575931D01*
X121509548Y-108539491D01*
X121517924Y-108529012D01*
X121510856Y-108515566D01*
X120809312Y-107814022D01*
X120795368Y-107806408D01*
X120793535Y-107806539D01*
X120786920Y-107810790D01*
X120081423Y-108516287D01*
X120074993Y-108528062D01*
X120084289Y-108540077D01*
X120135494Y-108575931D01*
X120144989Y-108581414D01*
X120179549Y-108597529D01*
X120232834Y-108644446D01*
X120252295Y-108712723D01*
X120231753Y-108780683D01*
X120179549Y-108825919D01*
X120144738Y-108842151D01*
X120144733Y-108842154D01*
X120139751Y-108844477D01*
X120034889Y-108917902D01*
X119956711Y-108972643D01*
X119956708Y-108972645D01*
X119952200Y-108975802D01*
X119790302Y-109137700D01*
X119658977Y-109325251D01*
X119656654Y-109330233D01*
X119656651Y-109330238D01*
X119564539Y-109527775D01*
X119562216Y-109532757D01*
X119502957Y-109753913D01*
X119502478Y-109759393D01*
X119494177Y-109854267D01*
X119468313Y-109920385D01*
X119410810Y-109962024D01*
X119339923Y-109965965D01*
X119279561Y-109932380D01*
X119205405Y-109858224D01*
X119171379Y-109795912D01*
X119168500Y-109769129D01*
X119168500Y-107447475D01*
X119483983Y-107447475D01*
X119502972Y-107664519D01*
X119504875Y-107675312D01*
X119561264Y-107885761D01*
X119565010Y-107896053D01*
X119657086Y-108093511D01*
X119662569Y-108103006D01*
X119699009Y-108155048D01*
X119709488Y-108163424D01*
X119722934Y-108156356D01*
X120424478Y-107454812D01*
X120430856Y-107443132D01*
X121160908Y-107443132D01*
X121161039Y-107444965D01*
X121165290Y-107451580D01*
X121870787Y-108157077D01*
X121882562Y-108163507D01*
X121894577Y-108154211D01*
X121930431Y-108103006D01*
X121935914Y-108093511D01*
X122027990Y-107896053D01*
X122031736Y-107885761D01*
X122088125Y-107675312D01*
X122090028Y-107664519D01*
X122109017Y-107447475D01*
X122109017Y-107436525D01*
X122090028Y-107219481D01*
X122088125Y-107208688D01*
X122031736Y-106998239D01*
X122027990Y-106987947D01*
X121935914Y-106790489D01*
X121930431Y-106780994D01*
X121893991Y-106728952D01*
X121883512Y-106720576D01*
X121870066Y-106727644D01*
X121168522Y-107429188D01*
X121160908Y-107443132D01*
X120430856Y-107443132D01*
X120432092Y-107440868D01*
X120431961Y-107439035D01*
X120427710Y-107432420D01*
X119722213Y-106726923D01*
X119710438Y-106720493D01*
X119698423Y-106729789D01*
X119662569Y-106780994D01*
X119657086Y-106790489D01*
X119565010Y-106987947D01*
X119561264Y-106998239D01*
X119504875Y-107208688D01*
X119502972Y-107219481D01*
X119483983Y-107436525D01*
X119483983Y-107447475D01*
X119168500Y-107447475D01*
X119168500Y-104902000D01*
X119483002Y-104902000D01*
X119502957Y-105130087D01*
X119504381Y-105135400D01*
X119504381Y-105135402D01*
X119539716Y-105267271D01*
X119562216Y-105351243D01*
X119564539Y-105356224D01*
X119564539Y-105356225D01*
X119656651Y-105553762D01*
X119656654Y-105553767D01*
X119658977Y-105558749D01*
X119730224Y-105660500D01*
X119754944Y-105695803D01*
X119790302Y-105746300D01*
X119952200Y-105908198D01*
X119956708Y-105911355D01*
X119956711Y-105911357D01*
X120034889Y-105966098D01*
X120139751Y-106039523D01*
X120144733Y-106041846D01*
X120144738Y-106041849D01*
X120179549Y-106058081D01*
X120232834Y-106104998D01*
X120252295Y-106173275D01*
X120231753Y-106241235D01*
X120179549Y-106286471D01*
X120144989Y-106302586D01*
X120135494Y-106308069D01*
X120083452Y-106344509D01*
X120075076Y-106354988D01*
X120082144Y-106368434D01*
X120783688Y-107069978D01*
X120797632Y-107077592D01*
X120799465Y-107077461D01*
X120806080Y-107073210D01*
X121511577Y-106367713D01*
X121518007Y-106355938D01*
X121508711Y-106343923D01*
X121457506Y-106308069D01*
X121448011Y-106302586D01*
X121413451Y-106286471D01*
X121360166Y-106239554D01*
X121340705Y-106171277D01*
X121361247Y-106103317D01*
X121413451Y-106058081D01*
X121448262Y-106041849D01*
X121448267Y-106041846D01*
X121453249Y-106039523D01*
X121558111Y-105966098D01*
X121636289Y-105911357D01*
X121636292Y-105911355D01*
X121640800Y-105908198D01*
X121802698Y-105746300D01*
X121838057Y-105695803D01*
X121862776Y-105660500D01*
X121934023Y-105558749D01*
X121936346Y-105553767D01*
X121936349Y-105553762D01*
X122028461Y-105356225D01*
X122028461Y-105356224D01*
X122030784Y-105351243D01*
X122053285Y-105267271D01*
X122088619Y-105135402D01*
X122088619Y-105135400D01*
X122090043Y-105130087D01*
X122109998Y-104902000D01*
X122090043Y-104673913D01*
X122088619Y-104668598D01*
X122032207Y-104458067D01*
X122032206Y-104458065D01*
X122030784Y-104452757D01*
X121987600Y-104360148D01*
X121936349Y-104250238D01*
X121936346Y-104250233D01*
X121934023Y-104245251D01*
X121845927Y-104119437D01*
X121805857Y-104062211D01*
X121805855Y-104062208D01*
X121802698Y-104057700D01*
X121640800Y-103895802D01*
X121636292Y-103892645D01*
X121636289Y-103892643D01*
X121558111Y-103837902D01*
X121453249Y-103764477D01*
X121448267Y-103762154D01*
X121448262Y-103762151D01*
X121414043Y-103746195D01*
X121360758Y-103699278D01*
X121341297Y-103631001D01*
X121361839Y-103563041D01*
X121414043Y-103517805D01*
X121448262Y-103501849D01*
X121448267Y-103501846D01*
X121453249Y-103499523D01*
X121558111Y-103426098D01*
X121636289Y-103371357D01*
X121636292Y-103371355D01*
X121640800Y-103368198D01*
X121802698Y-103206300D01*
X121934023Y-103018749D01*
X121936346Y-103013767D01*
X121936349Y-103013762D01*
X122028461Y-102816225D01*
X122028461Y-102816224D01*
X122030784Y-102811243D01*
X122090043Y-102590087D01*
X122109998Y-102362000D01*
X122090043Y-102133913D01*
X122030784Y-101912757D01*
X122028461Y-101907775D01*
X121936349Y-101710238D01*
X121936346Y-101710233D01*
X121934023Y-101705251D01*
X121802698Y-101517700D01*
X121640800Y-101355802D01*
X121636292Y-101352645D01*
X121636289Y-101352643D01*
X121558111Y-101297902D01*
X121453249Y-101224477D01*
X121448267Y-101222154D01*
X121448262Y-101222151D01*
X121414043Y-101206195D01*
X121360758Y-101159278D01*
X121341297Y-101091001D01*
X121361839Y-101023041D01*
X121414043Y-100977805D01*
X121448262Y-100961849D01*
X121448267Y-100961846D01*
X121453249Y-100959523D01*
X121558111Y-100886098D01*
X121636289Y-100831357D01*
X121636292Y-100831355D01*
X121640800Y-100828198D01*
X121802698Y-100666300D01*
X121934023Y-100478749D01*
X121936346Y-100473767D01*
X121936349Y-100473762D01*
X122028461Y-100276225D01*
X122028461Y-100276224D01*
X122030784Y-100271243D01*
X122090043Y-100050087D01*
X122109998Y-99822000D01*
X122090043Y-99593913D01*
X122030784Y-99372757D01*
X122028461Y-99367775D01*
X121936349Y-99170238D01*
X121936346Y-99170233D01*
X121934023Y-99165251D01*
X121802698Y-98977700D01*
X121640800Y-98815802D01*
X121636292Y-98812645D01*
X121636289Y-98812643D01*
X121558111Y-98757902D01*
X121453249Y-98684477D01*
X121448267Y-98682154D01*
X121448262Y-98682151D01*
X121414043Y-98666195D01*
X121360758Y-98619278D01*
X121341297Y-98551001D01*
X121361839Y-98483041D01*
X121414043Y-98437805D01*
X121448262Y-98421849D01*
X121448267Y-98421846D01*
X121453249Y-98419523D01*
X121558111Y-98346098D01*
X121636289Y-98291357D01*
X121636292Y-98291355D01*
X121640800Y-98288198D01*
X121802698Y-98126300D01*
X121934023Y-97938749D01*
X121936346Y-97933767D01*
X121936349Y-97933762D01*
X122028461Y-97736225D01*
X122028461Y-97736224D01*
X122030784Y-97731243D01*
X122090043Y-97510087D01*
X122109998Y-97282000D01*
X122090043Y-97053913D01*
X122030784Y-96832757D01*
X122028461Y-96827775D01*
X121936349Y-96630238D01*
X121936346Y-96630233D01*
X121934023Y-96625251D01*
X121802698Y-96437700D01*
X121640800Y-96275802D01*
X121636292Y-96272645D01*
X121636289Y-96272643D01*
X121558111Y-96217902D01*
X121453249Y-96144477D01*
X121448267Y-96142154D01*
X121448262Y-96142151D01*
X121414043Y-96126195D01*
X121360758Y-96079278D01*
X121341297Y-96011001D01*
X121361839Y-95943041D01*
X121414043Y-95897805D01*
X121448262Y-95881849D01*
X121448267Y-95881846D01*
X121453249Y-95879523D01*
X121558111Y-95806098D01*
X121636289Y-95751357D01*
X121636292Y-95751355D01*
X121640800Y-95748198D01*
X121802698Y-95586300D01*
X121934023Y-95398749D01*
X121936346Y-95393767D01*
X121936349Y-95393762D01*
X122028461Y-95196225D01*
X122028461Y-95196224D01*
X122030784Y-95191243D01*
X122090043Y-94970087D01*
X122109998Y-94742000D01*
X122090043Y-94513913D01*
X122030784Y-94292757D01*
X122028461Y-94287775D01*
X121936349Y-94090238D01*
X121936346Y-94090233D01*
X121934023Y-94085251D01*
X121802698Y-93897700D01*
X121640800Y-93735802D01*
X121636292Y-93732645D01*
X121636289Y-93732643D01*
X121558111Y-93677902D01*
X121453249Y-93604477D01*
X121448267Y-93602154D01*
X121448262Y-93602151D01*
X121414043Y-93586195D01*
X121360758Y-93539278D01*
X121341297Y-93471001D01*
X121361839Y-93403041D01*
X121414043Y-93357805D01*
X121448262Y-93341849D01*
X121448267Y-93341846D01*
X121453249Y-93339523D01*
X121558111Y-93266098D01*
X121636289Y-93211357D01*
X121636292Y-93211355D01*
X121640800Y-93208198D01*
X121802698Y-93046300D01*
X121934023Y-92858749D01*
X121936346Y-92853767D01*
X121936349Y-92853762D01*
X122028461Y-92656225D01*
X122028461Y-92656224D01*
X122030784Y-92651243D01*
X122090043Y-92430087D01*
X122109998Y-92202000D01*
X122090043Y-91973913D01*
X122030784Y-91752757D01*
X122028461Y-91747775D01*
X121936349Y-91550238D01*
X121936346Y-91550233D01*
X121934023Y-91545251D01*
X121802698Y-91357700D01*
X121640800Y-91195802D01*
X121636292Y-91192645D01*
X121636289Y-91192643D01*
X121558111Y-91137902D01*
X121453249Y-91064477D01*
X121448267Y-91062154D01*
X121448262Y-91062151D01*
X121414043Y-91046195D01*
X121360758Y-90999278D01*
X121341297Y-90931001D01*
X121361839Y-90863041D01*
X121414043Y-90817805D01*
X121448262Y-90801849D01*
X121448267Y-90801846D01*
X121453249Y-90799523D01*
X121558111Y-90726098D01*
X121636289Y-90671357D01*
X121636292Y-90671355D01*
X121640800Y-90668198D01*
X121802698Y-90506300D01*
X121934023Y-90318749D01*
X121936346Y-90313767D01*
X121936349Y-90313762D01*
X122028461Y-90116225D01*
X122028461Y-90116224D01*
X122030784Y-90111243D01*
X122090043Y-89890087D01*
X122109998Y-89662000D01*
X122090043Y-89433913D01*
X122030784Y-89212757D01*
X122028461Y-89207775D01*
X121936349Y-89010238D01*
X121936346Y-89010233D01*
X121934023Y-89005251D01*
X121802698Y-88817700D01*
X121640800Y-88655802D01*
X121636292Y-88652645D01*
X121636289Y-88652643D01*
X121478294Y-88542014D01*
X121453249Y-88524477D01*
X121448267Y-88522154D01*
X121448262Y-88522151D01*
X121414043Y-88506195D01*
X121360758Y-88459278D01*
X121341297Y-88391001D01*
X121361839Y-88323041D01*
X121414043Y-88277805D01*
X121448262Y-88261849D01*
X121448267Y-88261846D01*
X121453249Y-88259523D01*
X121558111Y-88186098D01*
X121636289Y-88131357D01*
X121636292Y-88131355D01*
X121640800Y-88128198D01*
X121802698Y-87966300D01*
X121934023Y-87778749D01*
X121936346Y-87773767D01*
X121936349Y-87773762D01*
X122028461Y-87576225D01*
X122028461Y-87576224D01*
X122030784Y-87571243D01*
X122090043Y-87350087D01*
X122109998Y-87122000D01*
X122090043Y-86893913D01*
X122030784Y-86672757D01*
X122028461Y-86667775D01*
X121936349Y-86470238D01*
X121936346Y-86470233D01*
X121934023Y-86465251D01*
X121802698Y-86277700D01*
X121640800Y-86115802D01*
X121636292Y-86112645D01*
X121636289Y-86112643D01*
X121558111Y-86057902D01*
X121453249Y-85984477D01*
X121448267Y-85982154D01*
X121448262Y-85982151D01*
X121414043Y-85966195D01*
X121360758Y-85919278D01*
X121341297Y-85851001D01*
X121361839Y-85783041D01*
X121414043Y-85737805D01*
X121448262Y-85721849D01*
X121448267Y-85721846D01*
X121453249Y-85719523D01*
X121558111Y-85646098D01*
X121636289Y-85591357D01*
X121636292Y-85591355D01*
X121640800Y-85588198D01*
X121802698Y-85426300D01*
X121934023Y-85238749D01*
X121936346Y-85233767D01*
X121936349Y-85233762D01*
X122028461Y-85036225D01*
X122028461Y-85036224D01*
X122030784Y-85031243D01*
X122090043Y-84810087D01*
X122109998Y-84582000D01*
X122090043Y-84353913D01*
X122030784Y-84132757D01*
X122028461Y-84127775D01*
X121936349Y-83930238D01*
X121936346Y-83930233D01*
X121934023Y-83925251D01*
X121802698Y-83737700D01*
X121640800Y-83575802D01*
X121636292Y-83572645D01*
X121636289Y-83572643D01*
X121558111Y-83517902D01*
X121453249Y-83444477D01*
X121448267Y-83442154D01*
X121448262Y-83442151D01*
X121414043Y-83426195D01*
X121360758Y-83379278D01*
X121341297Y-83311001D01*
X121361839Y-83243041D01*
X121414043Y-83197805D01*
X121448262Y-83181849D01*
X121448267Y-83181846D01*
X121453249Y-83179523D01*
X121558111Y-83106098D01*
X121636289Y-83051357D01*
X121636292Y-83051355D01*
X121640800Y-83048198D01*
X121802698Y-82886300D01*
X121934023Y-82698749D01*
X121936346Y-82693767D01*
X121936349Y-82693762D01*
X122028461Y-82496225D01*
X122028461Y-82496224D01*
X122030784Y-82491243D01*
X122090043Y-82270087D01*
X122109998Y-82042000D01*
X122090043Y-81813913D01*
X122030784Y-81592757D01*
X122028461Y-81587775D01*
X121936349Y-81390238D01*
X121936346Y-81390233D01*
X121934023Y-81385251D01*
X121802698Y-81197700D01*
X121640800Y-81035802D01*
X121636292Y-81032645D01*
X121636289Y-81032643D01*
X121558111Y-80977902D01*
X121453249Y-80904477D01*
X121448267Y-80902154D01*
X121448262Y-80902151D01*
X121414043Y-80886195D01*
X121360758Y-80839278D01*
X121341297Y-80771001D01*
X121361839Y-80703041D01*
X121414043Y-80657805D01*
X121448262Y-80641849D01*
X121448267Y-80641846D01*
X121453249Y-80639523D01*
X121558111Y-80566098D01*
X121636289Y-80511357D01*
X121636292Y-80511355D01*
X121640800Y-80508198D01*
X121802698Y-80346300D01*
X121934023Y-80158749D01*
X121936346Y-80153767D01*
X121936349Y-80153762D01*
X122028461Y-79956225D01*
X122028461Y-79956224D01*
X122030784Y-79951243D01*
X122090043Y-79730087D01*
X122109998Y-79502000D01*
X122090043Y-79273913D01*
X122030784Y-79052757D01*
X122028461Y-79047775D01*
X121936349Y-78850238D01*
X121936346Y-78850233D01*
X121934023Y-78845251D01*
X121802698Y-78657700D01*
X121640800Y-78495802D01*
X121636292Y-78492645D01*
X121636289Y-78492643D01*
X121558111Y-78437902D01*
X121453249Y-78364477D01*
X121448267Y-78362154D01*
X121448262Y-78362151D01*
X121414043Y-78346195D01*
X121360758Y-78299278D01*
X121341297Y-78231001D01*
X121361839Y-78163041D01*
X121414043Y-78117805D01*
X121448262Y-78101849D01*
X121448267Y-78101846D01*
X121453249Y-78099523D01*
X121558111Y-78026098D01*
X121636289Y-77971357D01*
X121636292Y-77971355D01*
X121640800Y-77968198D01*
X121802698Y-77806300D01*
X121934023Y-77618749D01*
X121936346Y-77613767D01*
X121936349Y-77613762D01*
X122028461Y-77416225D01*
X122028461Y-77416224D01*
X122030784Y-77411243D01*
X122090043Y-77190087D01*
X122109998Y-76962000D01*
X122090043Y-76733913D01*
X122030784Y-76512757D01*
X122028461Y-76507775D01*
X121936349Y-76310238D01*
X121936346Y-76310233D01*
X121934023Y-76305251D01*
X121813943Y-76133759D01*
X121805857Y-76122211D01*
X121805855Y-76122208D01*
X121802698Y-76117700D01*
X121640800Y-75955802D01*
X121636292Y-75952645D01*
X121636289Y-75952643D01*
X121558111Y-75897902D01*
X121453249Y-75824477D01*
X121448267Y-75822154D01*
X121448262Y-75822151D01*
X121250725Y-75730039D01*
X121250724Y-75730039D01*
X121245743Y-75727716D01*
X121240435Y-75726294D01*
X121240433Y-75726293D01*
X121029902Y-75669881D01*
X121029900Y-75669881D01*
X121024587Y-75668457D01*
X120796500Y-75648502D01*
X120568413Y-75668457D01*
X120563100Y-75669881D01*
X120563098Y-75669881D01*
X120352567Y-75726293D01*
X120352565Y-75726294D01*
X120347257Y-75727716D01*
X120342276Y-75730039D01*
X120342275Y-75730039D01*
X120144738Y-75822151D01*
X120144733Y-75822154D01*
X120139751Y-75824477D01*
X120034889Y-75897902D01*
X119956711Y-75952643D01*
X119956708Y-75952645D01*
X119952200Y-75955802D01*
X119790302Y-76117700D01*
X119787145Y-76122208D01*
X119787143Y-76122211D01*
X119779057Y-76133759D01*
X119658977Y-76305251D01*
X119656654Y-76310233D01*
X119656651Y-76310238D01*
X119564539Y-76507775D01*
X119562216Y-76512757D01*
X119502957Y-76733913D01*
X119483002Y-76962000D01*
X119502957Y-77190087D01*
X119562216Y-77411243D01*
X119564539Y-77416224D01*
X119564539Y-77416225D01*
X119656651Y-77613762D01*
X119656654Y-77613767D01*
X119658977Y-77618749D01*
X119790302Y-77806300D01*
X119952200Y-77968198D01*
X119956708Y-77971355D01*
X119956711Y-77971357D01*
X120034889Y-78026098D01*
X120139751Y-78099523D01*
X120144733Y-78101846D01*
X120144738Y-78101849D01*
X120178957Y-78117805D01*
X120232242Y-78164722D01*
X120251703Y-78232999D01*
X120231161Y-78300959D01*
X120178957Y-78346195D01*
X120144738Y-78362151D01*
X120144733Y-78362154D01*
X120139751Y-78364477D01*
X120034889Y-78437902D01*
X119956711Y-78492643D01*
X119956708Y-78492645D01*
X119952200Y-78495802D01*
X119790302Y-78657700D01*
X119658977Y-78845251D01*
X119656654Y-78850233D01*
X119656651Y-78850238D01*
X119564539Y-79047775D01*
X119562216Y-79052757D01*
X119502957Y-79273913D01*
X119483002Y-79502000D01*
X119502957Y-79730087D01*
X119562216Y-79951243D01*
X119564539Y-79956224D01*
X119564539Y-79956225D01*
X119656651Y-80153762D01*
X119656654Y-80153767D01*
X119658977Y-80158749D01*
X119790302Y-80346300D01*
X119952200Y-80508198D01*
X119956708Y-80511355D01*
X119956711Y-80511357D01*
X120034889Y-80566098D01*
X120139751Y-80639523D01*
X120144733Y-80641846D01*
X120144738Y-80641849D01*
X120178957Y-80657805D01*
X120232242Y-80704722D01*
X120251703Y-80772999D01*
X120231161Y-80840959D01*
X120178957Y-80886195D01*
X120144738Y-80902151D01*
X120144733Y-80902154D01*
X120139751Y-80904477D01*
X120034889Y-80977902D01*
X119956711Y-81032643D01*
X119956708Y-81032645D01*
X119952200Y-81035802D01*
X119790302Y-81197700D01*
X119658977Y-81385251D01*
X119656654Y-81390233D01*
X119656651Y-81390238D01*
X119564539Y-81587775D01*
X119562216Y-81592757D01*
X119502957Y-81813913D01*
X119483002Y-82042000D01*
X119502957Y-82270087D01*
X119562216Y-82491243D01*
X119564539Y-82496224D01*
X119564539Y-82496225D01*
X119656651Y-82693762D01*
X119656654Y-82693767D01*
X119658977Y-82698749D01*
X119790302Y-82886300D01*
X119952200Y-83048198D01*
X119956708Y-83051355D01*
X119956711Y-83051357D01*
X120034889Y-83106098D01*
X120139751Y-83179523D01*
X120144733Y-83181846D01*
X120144738Y-83181849D01*
X120178957Y-83197805D01*
X120232242Y-83244722D01*
X120251703Y-83312999D01*
X120231161Y-83380959D01*
X120178957Y-83426195D01*
X120144738Y-83442151D01*
X120144733Y-83442154D01*
X120139751Y-83444477D01*
X120034889Y-83517902D01*
X119956711Y-83572643D01*
X119956708Y-83572645D01*
X119952200Y-83575802D01*
X119790302Y-83737700D01*
X119658977Y-83925251D01*
X119656654Y-83930233D01*
X119656651Y-83930238D01*
X119564539Y-84127775D01*
X119562216Y-84132757D01*
X119502957Y-84353913D01*
X119483002Y-84582000D01*
X119502957Y-84810087D01*
X119562216Y-85031243D01*
X119564539Y-85036224D01*
X119564539Y-85036225D01*
X119656651Y-85233762D01*
X119656654Y-85233767D01*
X119658977Y-85238749D01*
X119790302Y-85426300D01*
X119952200Y-85588198D01*
X119956708Y-85591355D01*
X119956711Y-85591357D01*
X120034889Y-85646098D01*
X120139751Y-85719523D01*
X120144733Y-85721846D01*
X120144738Y-85721849D01*
X120178957Y-85737805D01*
X120232242Y-85784722D01*
X120251703Y-85852999D01*
X120231161Y-85920959D01*
X120178957Y-85966195D01*
X120144738Y-85982151D01*
X120144733Y-85982154D01*
X120139751Y-85984477D01*
X120034889Y-86057902D01*
X119956711Y-86112643D01*
X119956708Y-86112645D01*
X119952200Y-86115802D01*
X119790302Y-86277700D01*
X119658977Y-86465251D01*
X119656654Y-86470233D01*
X119656651Y-86470238D01*
X119564539Y-86667775D01*
X119562216Y-86672757D01*
X119502957Y-86893913D01*
X119483002Y-87122000D01*
X119502957Y-87350087D01*
X119562216Y-87571243D01*
X119564539Y-87576224D01*
X119564539Y-87576225D01*
X119656651Y-87773762D01*
X119656654Y-87773767D01*
X119658977Y-87778749D01*
X119790302Y-87966300D01*
X119952200Y-88128198D01*
X119956708Y-88131355D01*
X119956711Y-88131357D01*
X120034889Y-88186098D01*
X120139751Y-88259523D01*
X120144733Y-88261846D01*
X120144738Y-88261849D01*
X120178957Y-88277805D01*
X120232242Y-88324722D01*
X120251703Y-88392999D01*
X120231161Y-88460959D01*
X120178957Y-88506195D01*
X120144738Y-88522151D01*
X120144733Y-88522154D01*
X120139751Y-88524477D01*
X120114706Y-88542014D01*
X119956711Y-88652643D01*
X119956708Y-88652645D01*
X119952200Y-88655802D01*
X119790302Y-88817700D01*
X119658977Y-89005251D01*
X119656654Y-89010233D01*
X119656651Y-89010238D01*
X119564539Y-89207775D01*
X119562216Y-89212757D01*
X119502957Y-89433913D01*
X119483002Y-89662000D01*
X119502957Y-89890087D01*
X119562216Y-90111243D01*
X119564539Y-90116224D01*
X119564539Y-90116225D01*
X119656651Y-90313762D01*
X119656654Y-90313767D01*
X119658977Y-90318749D01*
X119790302Y-90506300D01*
X119952200Y-90668198D01*
X119956708Y-90671355D01*
X119956711Y-90671357D01*
X120034889Y-90726098D01*
X120139751Y-90799523D01*
X120144733Y-90801846D01*
X120144738Y-90801849D01*
X120178957Y-90817805D01*
X120232242Y-90864722D01*
X120251703Y-90932999D01*
X120231161Y-91000959D01*
X120178957Y-91046195D01*
X120144738Y-91062151D01*
X120144733Y-91062154D01*
X120139751Y-91064477D01*
X120034889Y-91137902D01*
X119956711Y-91192643D01*
X119956708Y-91192645D01*
X119952200Y-91195802D01*
X119790302Y-91357700D01*
X119658977Y-91545251D01*
X119656654Y-91550233D01*
X119656651Y-91550238D01*
X119564539Y-91747775D01*
X119562216Y-91752757D01*
X119502957Y-91973913D01*
X119483002Y-92202000D01*
X119502957Y-92430087D01*
X119562216Y-92651243D01*
X119564539Y-92656224D01*
X119564539Y-92656225D01*
X119656651Y-92853762D01*
X119656654Y-92853767D01*
X119658977Y-92858749D01*
X119790302Y-93046300D01*
X119952200Y-93208198D01*
X119956708Y-93211355D01*
X119956711Y-93211357D01*
X120034889Y-93266098D01*
X120139751Y-93339523D01*
X120144733Y-93341846D01*
X120144738Y-93341849D01*
X120178957Y-93357805D01*
X120232242Y-93404722D01*
X120251703Y-93472999D01*
X120231161Y-93540959D01*
X120178957Y-93586195D01*
X120144738Y-93602151D01*
X120144733Y-93602154D01*
X120139751Y-93604477D01*
X120034889Y-93677902D01*
X119956711Y-93732643D01*
X119956708Y-93732645D01*
X119952200Y-93735802D01*
X119790302Y-93897700D01*
X119658977Y-94085251D01*
X119656654Y-94090233D01*
X119656651Y-94090238D01*
X119564539Y-94287775D01*
X119562216Y-94292757D01*
X119502957Y-94513913D01*
X119483002Y-94742000D01*
X119502957Y-94970087D01*
X119562216Y-95191243D01*
X119564539Y-95196224D01*
X119564539Y-95196225D01*
X119656651Y-95393762D01*
X119656654Y-95393767D01*
X119658977Y-95398749D01*
X119790302Y-95586300D01*
X119952200Y-95748198D01*
X119956708Y-95751355D01*
X119956711Y-95751357D01*
X120034889Y-95806098D01*
X120139751Y-95879523D01*
X120144733Y-95881846D01*
X120144738Y-95881849D01*
X120178957Y-95897805D01*
X120232242Y-95944722D01*
X120251703Y-96012999D01*
X120231161Y-96080959D01*
X120178957Y-96126195D01*
X120144738Y-96142151D01*
X120144733Y-96142154D01*
X120139751Y-96144477D01*
X120034889Y-96217902D01*
X119956711Y-96272643D01*
X119956708Y-96272645D01*
X119952200Y-96275802D01*
X119790302Y-96437700D01*
X119658977Y-96625251D01*
X119656654Y-96630233D01*
X119656651Y-96630238D01*
X119564539Y-96827775D01*
X119562216Y-96832757D01*
X119502957Y-97053913D01*
X119483002Y-97282000D01*
X119502957Y-97510087D01*
X119562216Y-97731243D01*
X119564539Y-97736224D01*
X119564539Y-97736225D01*
X119656651Y-97933762D01*
X119656654Y-97933767D01*
X119658977Y-97938749D01*
X119790302Y-98126300D01*
X119952200Y-98288198D01*
X119956708Y-98291355D01*
X119956711Y-98291357D01*
X120034889Y-98346098D01*
X120139751Y-98419523D01*
X120144733Y-98421846D01*
X120144738Y-98421849D01*
X120178957Y-98437805D01*
X120232242Y-98484722D01*
X120251703Y-98552999D01*
X120231161Y-98620959D01*
X120178957Y-98666195D01*
X120144738Y-98682151D01*
X120144733Y-98682154D01*
X120139751Y-98684477D01*
X120034889Y-98757902D01*
X119956711Y-98812643D01*
X119956708Y-98812645D01*
X119952200Y-98815802D01*
X119790302Y-98977700D01*
X119658977Y-99165251D01*
X119656654Y-99170233D01*
X119656651Y-99170238D01*
X119564539Y-99367775D01*
X119562216Y-99372757D01*
X119502957Y-99593913D01*
X119483002Y-99822000D01*
X119502957Y-100050087D01*
X119562216Y-100271243D01*
X119564539Y-100276224D01*
X119564539Y-100276225D01*
X119656651Y-100473762D01*
X119656654Y-100473767D01*
X119658977Y-100478749D01*
X119790302Y-100666300D01*
X119952200Y-100828198D01*
X119956708Y-100831355D01*
X119956711Y-100831357D01*
X120034889Y-100886098D01*
X120139751Y-100959523D01*
X120144733Y-100961846D01*
X120144738Y-100961849D01*
X120178957Y-100977805D01*
X120232242Y-101024722D01*
X120251703Y-101092999D01*
X120231161Y-101160959D01*
X120178957Y-101206195D01*
X120144738Y-101222151D01*
X120144733Y-101222154D01*
X120139751Y-101224477D01*
X120034889Y-101297902D01*
X119956711Y-101352643D01*
X119956708Y-101352645D01*
X119952200Y-101355802D01*
X119790302Y-101517700D01*
X119658977Y-101705251D01*
X119656654Y-101710233D01*
X119656651Y-101710238D01*
X119564539Y-101907775D01*
X119562216Y-101912757D01*
X119502957Y-102133913D01*
X119483002Y-102362000D01*
X119502957Y-102590087D01*
X119562216Y-102811243D01*
X119564539Y-102816224D01*
X119564539Y-102816225D01*
X119656651Y-103013762D01*
X119656654Y-103013767D01*
X119658977Y-103018749D01*
X119790302Y-103206300D01*
X119952200Y-103368198D01*
X119956708Y-103371355D01*
X119956711Y-103371357D01*
X120034889Y-103426098D01*
X120139751Y-103499523D01*
X120144733Y-103501846D01*
X120144738Y-103501849D01*
X120178957Y-103517805D01*
X120232242Y-103564722D01*
X120251703Y-103632999D01*
X120231161Y-103700959D01*
X120178957Y-103746195D01*
X120144738Y-103762151D01*
X120144733Y-103762154D01*
X120139751Y-103764477D01*
X120034889Y-103837902D01*
X119956711Y-103892643D01*
X119956708Y-103892645D01*
X119952200Y-103895802D01*
X119790302Y-104057700D01*
X119787145Y-104062208D01*
X119787143Y-104062211D01*
X119747073Y-104119437D01*
X119658977Y-104245251D01*
X119656654Y-104250233D01*
X119656651Y-104250238D01*
X119605400Y-104360148D01*
X119562216Y-104452757D01*
X119560794Y-104458065D01*
X119560793Y-104458067D01*
X119504381Y-104668598D01*
X119502957Y-104673913D01*
X119483002Y-104902000D01*
X119168500Y-104902000D01*
X119168500Y-61473120D01*
X119188502Y-61404999D01*
X119224133Y-61368600D01*
X119328642Y-61298240D01*
X119414319Y-61240559D01*
X119581135Y-61081424D01*
X119718754Y-60896458D01*
X119823240Y-60690949D01*
X119891607Y-60470773D01*
X119921898Y-60242226D01*
X119913249Y-60011842D01*
X119865907Y-59786209D01*
X119781224Y-59571779D01*
X119740824Y-59505201D01*
X119664390Y-59379243D01*
X119661623Y-59374683D01*
X119574755Y-59274576D01*
X119514023Y-59204588D01*
X119514021Y-59204586D01*
X119510523Y-59200555D01*
X119474880Y-59171330D01*
X119434886Y-59112671D01*
X119432954Y-59041701D01*
X119469698Y-58980952D01*
X119488468Y-58966752D01*
X119628120Y-58880332D01*
X119634348Y-58876478D01*
X119759305Y-58751303D01*
X119852115Y-58600738D01*
X119907797Y-58432861D01*
X119918500Y-58328400D01*
X119918500Y-57027600D01*
X119907526Y-56921834D01*
X119851550Y-56754054D01*
X119758478Y-56603652D01*
X119633303Y-56478695D01*
X119549630Y-56427118D01*
X119488968Y-56389725D01*
X119488966Y-56389724D01*
X119482738Y-56385885D01*
X119322254Y-56332655D01*
X119321389Y-56332368D01*
X119321387Y-56332368D01*
X119314861Y-56330203D01*
X119308025Y-56329503D01*
X119308022Y-56329502D01*
X119264969Y-56325091D01*
X119210400Y-56319500D01*
X117609600Y-56319500D01*
X117606354Y-56319837D01*
X117606350Y-56319837D01*
X117510692Y-56329762D01*
X117510688Y-56329763D01*
X117503834Y-56330474D01*
X117497298Y-56332655D01*
X117497296Y-56332655D01*
X117384299Y-56370354D01*
X117336054Y-56386450D01*
X117329822Y-56390306D01*
X117329823Y-56390306D01*
X117270335Y-56427118D01*
X117201883Y-56445956D01*
X117134113Y-56424795D01*
X117088542Y-56370354D01*
X117078032Y-56319974D01*
X117078032Y-50850603D01*
X117919202Y-50850603D01*
X117951051Y-51092911D01*
X117952264Y-51097235D01*
X117952265Y-51097240D01*
X117995656Y-51251918D01*
X118017060Y-51328220D01*
X118018882Y-51332341D01*
X118052348Y-51408033D01*
X118115884Y-51551739D01*
X118141023Y-51591918D01*
X118243096Y-51755058D01*
X118245512Y-51758920D01*
X118248413Y-51762351D01*
X118400399Y-51942109D01*
X118400405Y-51942115D01*
X118403305Y-51945545D01*
X118586051Y-52107813D01*
X118790030Y-52242423D01*
X119011089Y-52346635D01*
X119244730Y-52418325D01*
X119486194Y-52456036D01*
X119490689Y-52456091D01*
X119490695Y-52456091D01*
X119606656Y-52457497D01*
X119730568Y-52459000D01*
X119735025Y-52458414D01*
X119735030Y-52458414D01*
X119968418Y-52427742D01*
X119968420Y-52427742D01*
X119972876Y-52427156D01*
X119977201Y-52425943D01*
X119977205Y-52425942D01*
X120203859Y-52362366D01*
X120203863Y-52362365D01*
X120208186Y-52361152D01*
X120431708Y-52262333D01*
X120638892Y-52132709D01*
X120825519Y-51974920D01*
X120851604Y-51945545D01*
X120984800Y-51795547D01*
X120984803Y-51795543D01*
X120987792Y-51792177D01*
X121122406Y-51588201D01*
X121124326Y-51584129D01*
X121224705Y-51371211D01*
X121224707Y-51371207D01*
X121226622Y-51367144D01*
X121227940Y-51362848D01*
X121227943Y-51362841D01*
X121296996Y-51137810D01*
X121296996Y-51137809D01*
X121298317Y-51133505D01*
X121330587Y-50926907D01*
X121333002Y-50915153D01*
X121334490Y-50909332D01*
X121334493Y-50909318D01*
X121335696Y-50904609D01*
X121336896Y-50892113D01*
X121336446Y-50884453D01*
X121335259Y-50864246D01*
X121335481Y-50846345D01*
X121354301Y-50621549D01*
X121368960Y-50446458D01*
X121372441Y-50425788D01*
X121377413Y-50406331D01*
X121378613Y-50393835D01*
X121378233Y-50387367D01*
X121378025Y-50378451D01*
X121380744Y-50153892D01*
X121380744Y-50153886D01*
X121380798Y-50149397D01*
X121348949Y-49907089D01*
X121346934Y-49899906D01*
X121284157Y-49676117D01*
X121284155Y-49676112D01*
X121282940Y-49671780D01*
X121263948Y-49628825D01*
X121185937Y-49452379D01*
X121185935Y-49452375D01*
X121184116Y-49448261D01*
X121093770Y-49303864D01*
X121056872Y-49244890D01*
X121056871Y-49244888D01*
X121054488Y-49241080D01*
X121023520Y-49204453D01*
X120899601Y-49057891D01*
X120899595Y-49057885D01*
X120896695Y-49054455D01*
X120713949Y-48892187D01*
X120509970Y-48757577D01*
X120288911Y-48653365D01*
X120055270Y-48581675D01*
X119813806Y-48543964D01*
X119809311Y-48543909D01*
X119809305Y-48543909D01*
X119693344Y-48542503D01*
X119569432Y-48541000D01*
X119564975Y-48541586D01*
X119564970Y-48541586D01*
X119331582Y-48572258D01*
X119331580Y-48572258D01*
X119327124Y-48572844D01*
X119322799Y-48574057D01*
X119322795Y-48574058D01*
X119096141Y-48637634D01*
X119096137Y-48637635D01*
X119091814Y-48638848D01*
X118868292Y-48737667D01*
X118661108Y-48867291D01*
X118474481Y-49025080D01*
X118471492Y-49028446D01*
X118315200Y-49204453D01*
X118315197Y-49204457D01*
X118312208Y-49207823D01*
X118177594Y-49411799D01*
X118175676Y-49415868D01*
X118175674Y-49415871D01*
X118086482Y-49605061D01*
X118073378Y-49632856D01*
X118072060Y-49637152D01*
X118072057Y-49637159D01*
X118029416Y-49776119D01*
X118001683Y-49866495D01*
X118000989Y-49870939D01*
X117969413Y-50073093D01*
X117966998Y-50084847D01*
X117965510Y-50090668D01*
X117965507Y-50090682D01*
X117964304Y-50095391D01*
X117963104Y-50107887D01*
X117963389Y-50112739D01*
X117963389Y-50112743D01*
X117964741Y-50135754D01*
X117964519Y-50153655D01*
X117931041Y-50553533D01*
X117927558Y-50574214D01*
X117922587Y-50593669D01*
X117921387Y-50606165D01*
X117921672Y-50611016D01*
X117921672Y-50611020D01*
X117921767Y-50612633D01*
X117921975Y-50621549D01*
X117919257Y-50846098D01*
X117919202Y-50850603D01*
X117078032Y-50850603D01*
X117078032Y-46987839D01*
X117098034Y-46919718D01*
X117114937Y-46898744D01*
X117900331Y-46113350D01*
X117963228Y-46079199D01*
X118019824Y-46067169D01*
X118019833Y-46067166D01*
X118026288Y-46065794D01*
X118032319Y-46063109D01*
X118194722Y-45990803D01*
X118194724Y-45990802D01*
X118200752Y-45988118D01*
X118355253Y-45875866D01*
X118362197Y-45868154D01*
X118478621Y-45738852D01*
X118478622Y-45738851D01*
X118483040Y-45733944D01*
X118578527Y-45568556D01*
X118637542Y-45386928D01*
X118641008Y-45353956D01*
X118656814Y-45203565D01*
X118657504Y-45197000D01*
X118642280Y-45052151D01*
X118638232Y-45013635D01*
X118638232Y-45013633D01*
X118637542Y-45007072D01*
X118578527Y-44825444D01*
X118483040Y-44660056D01*
X118355253Y-44518134D01*
X118200752Y-44405882D01*
X118194724Y-44403198D01*
X118194722Y-44403197D01*
X118032319Y-44330891D01*
X118032318Y-44330891D01*
X118026288Y-44328206D01*
X117932888Y-44308353D01*
X117845944Y-44289872D01*
X117845939Y-44289872D01*
X117839487Y-44288500D01*
X117648513Y-44288500D01*
X117642061Y-44289872D01*
X117642056Y-44289872D01*
X117555112Y-44308353D01*
X117461712Y-44328206D01*
X117455682Y-44330891D01*
X117455681Y-44330891D01*
X117293278Y-44403197D01*
X117293276Y-44403198D01*
X117287248Y-44405882D01*
X117132747Y-44518134D01*
X117004960Y-44660056D01*
X116909473Y-44825444D01*
X116907432Y-44831726D01*
X116863833Y-44965909D01*
X116823759Y-45024514D01*
X116758363Y-45052151D01*
X116688406Y-45040044D01*
X116636100Y-44992038D01*
X116624167Y-44965909D01*
X116580568Y-44831726D01*
X116578527Y-44825444D01*
X116483040Y-44660056D01*
X116355253Y-44518134D01*
X116200752Y-44405882D01*
X116194724Y-44403198D01*
X116194722Y-44403197D01*
X116032319Y-44330891D01*
X116032318Y-44330891D01*
X116026288Y-44328206D01*
X115932888Y-44308353D01*
X115845944Y-44289872D01*
X115845939Y-44289872D01*
X115839487Y-44288500D01*
X115648513Y-44288500D01*
X115642061Y-44289872D01*
X115642056Y-44289872D01*
X115555112Y-44308353D01*
X115461712Y-44328206D01*
X115455682Y-44330891D01*
X115455681Y-44330891D01*
X115293278Y-44403197D01*
X115293276Y-44403198D01*
X115287248Y-44405882D01*
X115132747Y-44518134D01*
X115004960Y-44660056D01*
X114909473Y-44825444D01*
X114907432Y-44831726D01*
X114863833Y-44965909D01*
X114823759Y-45024514D01*
X114758363Y-45052151D01*
X114688406Y-45040044D01*
X114636100Y-44992038D01*
X114624167Y-44965909D01*
X114580568Y-44831726D01*
X114578527Y-44825444D01*
X114483040Y-44660056D01*
X114355253Y-44518134D01*
X114200752Y-44405882D01*
X114194724Y-44403198D01*
X114194722Y-44403197D01*
X114032319Y-44330891D01*
X114032318Y-44330891D01*
X114026288Y-44328206D01*
X113932888Y-44308353D01*
X113845944Y-44289872D01*
X113845939Y-44289872D01*
X113839487Y-44288500D01*
X113648513Y-44288500D01*
X113642061Y-44289872D01*
X113642056Y-44289872D01*
X113555112Y-44308353D01*
X113461712Y-44328206D01*
X113455682Y-44330891D01*
X113455681Y-44330891D01*
X113293278Y-44403197D01*
X113293276Y-44403198D01*
X113287248Y-44405882D01*
X113132747Y-44518134D01*
X113004960Y-44660056D01*
X112909473Y-44825444D01*
X112907432Y-44831726D01*
X112863833Y-44965909D01*
X112823759Y-45024514D01*
X112758363Y-45052151D01*
X112688406Y-45040044D01*
X112636100Y-44992038D01*
X112624167Y-44965909D01*
X112580568Y-44831726D01*
X112578527Y-44825444D01*
X112483040Y-44660056D01*
X112355253Y-44518134D01*
X112200752Y-44405882D01*
X112194724Y-44403198D01*
X112194722Y-44403197D01*
X112032319Y-44330891D01*
X112032318Y-44330891D01*
X112026288Y-44328206D01*
X111932888Y-44308353D01*
X111845944Y-44289872D01*
X111845939Y-44289872D01*
X111839487Y-44288500D01*
X111648513Y-44288500D01*
X111642061Y-44289872D01*
X111642056Y-44289872D01*
X111555112Y-44308353D01*
X111461712Y-44328206D01*
X111455682Y-44330891D01*
X111455681Y-44330891D01*
X111293278Y-44403197D01*
X111293276Y-44403198D01*
X111287248Y-44405882D01*
X111132747Y-44518134D01*
X111004960Y-44660056D01*
X110909473Y-44825444D01*
X110907432Y-44831726D01*
X110863833Y-44965909D01*
X110823759Y-45024514D01*
X110758363Y-45052151D01*
X110688406Y-45040044D01*
X110636100Y-44992038D01*
X110624167Y-44965909D01*
X110580568Y-44831726D01*
X110578527Y-44825444D01*
X110483040Y-44660056D01*
X110355253Y-44518134D01*
X110200752Y-44405882D01*
X110194724Y-44403198D01*
X110194722Y-44403197D01*
X110032319Y-44330891D01*
X110032318Y-44330891D01*
X110026288Y-44328206D01*
X109932888Y-44308353D01*
X109845944Y-44289872D01*
X109845939Y-44289872D01*
X109839487Y-44288500D01*
X109648513Y-44288500D01*
X109642061Y-44289872D01*
X109642056Y-44289872D01*
X109555112Y-44308353D01*
X109461712Y-44328206D01*
X109455682Y-44330891D01*
X109455681Y-44330891D01*
X109293278Y-44403197D01*
X109293276Y-44403198D01*
X109287248Y-44405882D01*
X109132747Y-44518134D01*
X109004960Y-44660056D01*
X108909473Y-44825444D01*
X108907432Y-44831726D01*
X108863833Y-44965909D01*
X108823759Y-45024514D01*
X108758363Y-45052151D01*
X108688406Y-45040044D01*
X108636100Y-44992038D01*
X108624167Y-44965909D01*
X108580568Y-44831726D01*
X108578527Y-44825444D01*
X108483040Y-44660056D01*
X108355253Y-44518134D01*
X108200752Y-44405882D01*
X108194724Y-44403198D01*
X108194722Y-44403197D01*
X108032319Y-44330891D01*
X108032318Y-44330891D01*
X108026288Y-44328206D01*
X107932888Y-44308353D01*
X107845944Y-44289872D01*
X107845939Y-44289872D01*
X107839487Y-44288500D01*
X107648513Y-44288500D01*
X107642061Y-44289872D01*
X107642056Y-44289872D01*
X107555112Y-44308353D01*
X107461712Y-44328206D01*
X107455682Y-44330891D01*
X107455681Y-44330891D01*
X107293278Y-44403197D01*
X107293276Y-44403198D01*
X107287248Y-44405882D01*
X107132747Y-44518134D01*
X107004960Y-44660056D01*
X106909473Y-44825444D01*
X106850458Y-45007072D01*
X106849768Y-45013633D01*
X106849768Y-45013635D01*
X106845720Y-45052151D01*
X106830496Y-45197000D01*
X106831186Y-45203565D01*
X106846993Y-45353956D01*
X106850458Y-45386928D01*
X106909473Y-45568556D01*
X107004960Y-45733944D01*
X107009378Y-45738851D01*
X107009379Y-45738852D01*
X107125803Y-45868154D01*
X107132747Y-45875866D01*
X107287248Y-45988118D01*
X107293276Y-45990802D01*
X107293278Y-45990803D01*
X107455681Y-46063109D01*
X107461712Y-46065794D01*
X107468167Y-46067166D01*
X107468176Y-46067169D01*
X107524772Y-46079199D01*
X107587669Y-46113350D01*
X111726595Y-50252276D01*
X111760621Y-50314588D01*
X111763500Y-50341371D01*
X111763500Y-62754500D01*
X111743498Y-62822621D01*
X111689842Y-62869114D01*
X111637500Y-62880500D01*
X109568866Y-62880500D01*
X109506684Y-62887255D01*
X109370295Y-62938385D01*
X109253739Y-63025739D01*
X109166385Y-63142295D01*
X109115255Y-63278684D01*
X109108500Y-63340866D01*
X109108500Y-65437134D01*
X109115255Y-65499316D01*
X109166385Y-65635705D01*
X109253739Y-65752261D01*
X109370295Y-65839615D01*
X109506684Y-65890745D01*
X109568866Y-65897500D01*
X111637500Y-65897500D01*
X111705621Y-65917502D01*
X111752114Y-65971158D01*
X111763500Y-66023500D01*
X111763500Y-71023708D01*
X111741908Y-71090160D01*
X111743460Y-71091056D01*
X111647973Y-71256444D01*
X111588958Y-71438072D01*
X111568996Y-71628000D01*
X111588958Y-71817928D01*
X111647973Y-71999556D01*
X111743460Y-72164944D01*
X111871247Y-72306866D01*
X112025748Y-72419118D01*
X112031776Y-72421802D01*
X112031778Y-72421803D01*
X112194181Y-72494109D01*
X112200212Y-72496794D01*
X112293612Y-72516647D01*
X112380556Y-72535128D01*
X112380561Y-72535128D01*
X112387013Y-72536500D01*
X112577987Y-72536500D01*
X112584439Y-72535128D01*
X112584444Y-72535128D01*
X112671388Y-72516647D01*
X112764788Y-72496794D01*
X112770819Y-72494109D01*
X112933222Y-72421803D01*
X112933224Y-72421802D01*
X112939252Y-72419118D01*
X113093753Y-72306866D01*
X113221540Y-72164944D01*
X113224839Y-72159231D01*
X113224842Y-72159226D01*
X113227381Y-72154827D01*
X113278763Y-72105833D01*
X113348476Y-72092395D01*
X113414388Y-72118781D01*
X113455570Y-72176613D01*
X113462501Y-72217825D01*
X113462501Y-74388628D01*
X113442499Y-74456749D01*
X113425596Y-74477723D01*
X104116724Y-83786595D01*
X104054412Y-83820621D01*
X104027629Y-83823500D01*
X101608367Y-83823500D01*
X101540246Y-83803498D01*
X101505155Y-83769772D01*
X101482698Y-83737700D01*
X101320800Y-83575802D01*
X101316292Y-83572645D01*
X101316289Y-83572643D01*
X101238111Y-83517902D01*
X101133249Y-83444477D01*
X101128267Y-83442154D01*
X101128262Y-83442151D01*
X101094043Y-83426195D01*
X101040758Y-83379278D01*
X101021297Y-83311001D01*
X101041839Y-83243041D01*
X101094043Y-83197805D01*
X101128262Y-83181849D01*
X101128267Y-83181846D01*
X101133249Y-83179523D01*
X101238111Y-83106098D01*
X101316289Y-83051357D01*
X101316292Y-83051355D01*
X101320800Y-83048198D01*
X101482698Y-82886300D01*
X101614023Y-82698749D01*
X101616346Y-82693767D01*
X101616349Y-82693762D01*
X101708461Y-82496225D01*
X101708461Y-82496224D01*
X101710784Y-82491243D01*
X101770043Y-82270087D01*
X101789998Y-82042000D01*
X101770043Y-81813913D01*
X101710784Y-81592757D01*
X101708461Y-81587775D01*
X101616349Y-81390238D01*
X101616346Y-81390233D01*
X101614023Y-81385251D01*
X101482698Y-81197700D01*
X101320800Y-81035802D01*
X101316292Y-81032645D01*
X101316289Y-81032643D01*
X101238111Y-80977902D01*
X101133249Y-80904477D01*
X101128267Y-80902154D01*
X101128262Y-80902151D01*
X101094043Y-80886195D01*
X101040758Y-80839278D01*
X101021297Y-80771001D01*
X101041839Y-80703041D01*
X101094043Y-80657805D01*
X101128262Y-80641849D01*
X101128267Y-80641846D01*
X101133249Y-80639523D01*
X101238111Y-80566098D01*
X101316289Y-80511357D01*
X101316292Y-80511355D01*
X101320800Y-80508198D01*
X101482698Y-80346300D01*
X101614023Y-80158749D01*
X101616346Y-80153767D01*
X101616349Y-80153762D01*
X101708461Y-79956225D01*
X101708461Y-79956224D01*
X101710784Y-79951243D01*
X101770043Y-79730087D01*
X101789998Y-79502000D01*
X101770043Y-79273913D01*
X101710784Y-79052757D01*
X101708461Y-79047775D01*
X101616349Y-78850238D01*
X101616346Y-78850233D01*
X101614023Y-78845251D01*
X101482698Y-78657700D01*
X101320800Y-78495802D01*
X101316292Y-78492645D01*
X101316289Y-78492643D01*
X101238111Y-78437902D01*
X101133249Y-78364477D01*
X101128267Y-78362154D01*
X101128262Y-78362151D01*
X101094043Y-78346195D01*
X101040758Y-78299278D01*
X101021297Y-78231001D01*
X101041839Y-78163041D01*
X101094043Y-78117805D01*
X101128262Y-78101849D01*
X101128267Y-78101846D01*
X101133249Y-78099523D01*
X101238111Y-78026098D01*
X101316289Y-77971357D01*
X101316292Y-77971355D01*
X101320800Y-77968198D01*
X101482698Y-77806300D01*
X101614023Y-77618749D01*
X101616346Y-77613767D01*
X101616349Y-77613762D01*
X101708461Y-77416225D01*
X101708461Y-77416224D01*
X101710784Y-77411243D01*
X101770043Y-77190087D01*
X101789998Y-76962000D01*
X101770043Y-76733913D01*
X101710784Y-76512757D01*
X101708461Y-76507775D01*
X101616349Y-76310238D01*
X101616346Y-76310233D01*
X101614023Y-76305251D01*
X101493943Y-76133759D01*
X101485857Y-76122211D01*
X101485855Y-76122208D01*
X101482698Y-76117700D01*
X101320800Y-75955802D01*
X101316292Y-75952645D01*
X101316289Y-75952643D01*
X101238111Y-75897902D01*
X101133249Y-75824477D01*
X101128267Y-75822154D01*
X101128262Y-75822151D01*
X100930725Y-75730039D01*
X100930724Y-75730039D01*
X100925743Y-75727716D01*
X100920435Y-75726294D01*
X100920433Y-75726293D01*
X100709902Y-75669881D01*
X100709900Y-75669881D01*
X100704587Y-75668457D01*
X100476500Y-75648502D01*
X100248413Y-75668457D01*
X100243100Y-75669881D01*
X100243098Y-75669881D01*
X100032567Y-75726293D01*
X100032565Y-75726294D01*
X100027257Y-75727716D01*
X100022276Y-75730039D01*
X100022275Y-75730039D01*
X99824738Y-75822151D01*
X99824733Y-75822154D01*
X99819751Y-75824477D01*
X99714889Y-75897902D01*
X99636711Y-75952643D01*
X99636708Y-75952645D01*
X99632200Y-75955802D01*
X99470302Y-76117700D01*
X99467145Y-76122208D01*
X99467143Y-76122211D01*
X99459057Y-76133759D01*
X99338977Y-76305251D01*
X99336654Y-76310233D01*
X99336651Y-76310238D01*
X99244539Y-76507775D01*
X99242216Y-76512757D01*
X99182957Y-76733913D01*
X99163002Y-76962000D01*
X99182957Y-77190087D01*
X99242216Y-77411243D01*
X99244539Y-77416224D01*
X99244539Y-77416225D01*
X99336651Y-77613762D01*
X99336654Y-77613767D01*
X99338977Y-77618749D01*
X99470302Y-77806300D01*
X99632200Y-77968198D01*
X99636708Y-77971355D01*
X99636711Y-77971357D01*
X99714889Y-78026098D01*
X99819751Y-78099523D01*
X99824733Y-78101846D01*
X99824738Y-78101849D01*
X99858957Y-78117805D01*
X99912242Y-78164722D01*
X99931703Y-78232999D01*
X99911161Y-78300959D01*
X99858957Y-78346195D01*
X99824738Y-78362151D01*
X99824733Y-78362154D01*
X99819751Y-78364477D01*
X99714889Y-78437902D01*
X99636711Y-78492643D01*
X99636708Y-78492645D01*
X99632200Y-78495802D01*
X99470302Y-78657700D01*
X99338977Y-78845251D01*
X99336654Y-78850233D01*
X99336651Y-78850238D01*
X99244539Y-79047775D01*
X99242216Y-79052757D01*
X99182957Y-79273913D01*
X99163002Y-79502000D01*
X99182957Y-79730087D01*
X99242216Y-79951243D01*
X99244539Y-79956224D01*
X99244539Y-79956225D01*
X99336651Y-80153762D01*
X99336654Y-80153767D01*
X99338977Y-80158749D01*
X99470302Y-80346300D01*
X99632200Y-80508198D01*
X99636708Y-80511355D01*
X99636711Y-80511357D01*
X99714889Y-80566098D01*
X99819751Y-80639523D01*
X99824733Y-80641846D01*
X99824738Y-80641849D01*
X99858957Y-80657805D01*
X99912242Y-80704722D01*
X99931703Y-80772999D01*
X99911161Y-80840959D01*
X99858957Y-80886195D01*
X99824738Y-80902151D01*
X99824733Y-80902154D01*
X99819751Y-80904477D01*
X99714889Y-80977902D01*
X99636711Y-81032643D01*
X99636708Y-81032645D01*
X99632200Y-81035802D01*
X99470302Y-81197700D01*
X99338977Y-81385251D01*
X99336654Y-81390233D01*
X99336651Y-81390238D01*
X99244539Y-81587775D01*
X99242216Y-81592757D01*
X99182957Y-81813913D01*
X99163002Y-82042000D01*
X99182957Y-82270087D01*
X99242216Y-82491243D01*
X99244539Y-82496224D01*
X99244539Y-82496225D01*
X99336651Y-82693762D01*
X99336654Y-82693767D01*
X99338977Y-82698749D01*
X99470302Y-82886300D01*
X99632200Y-83048198D01*
X99636708Y-83051355D01*
X99636711Y-83051357D01*
X99714889Y-83106098D01*
X99819751Y-83179523D01*
X99824733Y-83181846D01*
X99824738Y-83181849D01*
X99858957Y-83197805D01*
X99912242Y-83244722D01*
X99931703Y-83312999D01*
X99911161Y-83380959D01*
X99858957Y-83426195D01*
X99824738Y-83442151D01*
X99824733Y-83442154D01*
X99819751Y-83444477D01*
X99714889Y-83517902D01*
X99636711Y-83572643D01*
X99636708Y-83572645D01*
X99632200Y-83575802D01*
X99470302Y-83737700D01*
X99338977Y-83925251D01*
X99336654Y-83930233D01*
X99336651Y-83930238D01*
X99244539Y-84127775D01*
X99242216Y-84132757D01*
X99182957Y-84353913D01*
X99163002Y-84582000D01*
X99182957Y-84810087D01*
X99242216Y-85031243D01*
X99244539Y-85036224D01*
X99244539Y-85036225D01*
X99336651Y-85233762D01*
X99336654Y-85233767D01*
X99338977Y-85238749D01*
X99470302Y-85426300D01*
X99632200Y-85588198D01*
X99636708Y-85591355D01*
X99636711Y-85591357D01*
X99714889Y-85646098D01*
X99819751Y-85719523D01*
X99824733Y-85721846D01*
X99824738Y-85721849D01*
X99858957Y-85737805D01*
X99912242Y-85784722D01*
X99931703Y-85852999D01*
X99911161Y-85920959D01*
X99858957Y-85966195D01*
X99824738Y-85982151D01*
X99824733Y-85982154D01*
X99819751Y-85984477D01*
X99714889Y-86057902D01*
X99636711Y-86112643D01*
X99636708Y-86112645D01*
X99632200Y-86115802D01*
X99470302Y-86277700D01*
X99338977Y-86465251D01*
X99336654Y-86470233D01*
X99336651Y-86470238D01*
X99244539Y-86667775D01*
X99242216Y-86672757D01*
X99182957Y-86893913D01*
X99163002Y-87122000D01*
X99182957Y-87350087D01*
X99242216Y-87571243D01*
X99244539Y-87576224D01*
X99244539Y-87576225D01*
X99336651Y-87773762D01*
X99336654Y-87773767D01*
X99338977Y-87778749D01*
X99470302Y-87966300D01*
X99632200Y-88128198D01*
X99636708Y-88131355D01*
X99636711Y-88131357D01*
X99714889Y-88186098D01*
X99819751Y-88259523D01*
X99824733Y-88261846D01*
X99824738Y-88261849D01*
X99858957Y-88277805D01*
X99912242Y-88324722D01*
X99931703Y-88392999D01*
X99911161Y-88460959D01*
X99858957Y-88506195D01*
X99824738Y-88522151D01*
X99824733Y-88522154D01*
X99819751Y-88524477D01*
X99794706Y-88542014D01*
X99636711Y-88652643D01*
X99636708Y-88652645D01*
X99632200Y-88655802D01*
X99470302Y-88817700D01*
X99338977Y-89005251D01*
X99336654Y-89010233D01*
X99336651Y-89010238D01*
X99244539Y-89207775D01*
X99242216Y-89212757D01*
X99182957Y-89433913D01*
X99163002Y-89662000D01*
X99182957Y-89890087D01*
X99242216Y-90111243D01*
X99244539Y-90116224D01*
X99244539Y-90116225D01*
X99336651Y-90313762D01*
X99336654Y-90313767D01*
X99338977Y-90318749D01*
X99470302Y-90506300D01*
X99632200Y-90668198D01*
X99636708Y-90671355D01*
X99636711Y-90671357D01*
X99714889Y-90726098D01*
X99819751Y-90799523D01*
X99824736Y-90801847D01*
X99824742Y-90801851D01*
X99858957Y-90817805D01*
X99912242Y-90864721D01*
X99931704Y-90932998D01*
X99911163Y-91000958D01*
X99858959Y-91046194D01*
X99819751Y-91064477D01*
X99740376Y-91120056D01*
X99636711Y-91192643D01*
X99636708Y-91192645D01*
X99632200Y-91195802D01*
X99470302Y-91357700D01*
X99338977Y-91545251D01*
X99336654Y-91550233D01*
X99336651Y-91550238D01*
X99244539Y-91747775D01*
X99242216Y-91752757D01*
X99182957Y-91973913D01*
X99163002Y-92202000D01*
X99182957Y-92430087D01*
X99242216Y-92651243D01*
X99244539Y-92656224D01*
X99244539Y-92656225D01*
X99336651Y-92853762D01*
X99336654Y-92853767D01*
X99338977Y-92858749D01*
X99470302Y-93046300D01*
X99632200Y-93208198D01*
X99636708Y-93211355D01*
X99636711Y-93211357D01*
X99714889Y-93266098D01*
X99819751Y-93339523D01*
X99824733Y-93341846D01*
X99824738Y-93341849D01*
X99858957Y-93357805D01*
X99912242Y-93404722D01*
X99931703Y-93472999D01*
X99911161Y-93540959D01*
X99858957Y-93586195D01*
X99824738Y-93602151D01*
X99824733Y-93602154D01*
X99819751Y-93604477D01*
X99714889Y-93677902D01*
X99636711Y-93732643D01*
X99636708Y-93732645D01*
X99632200Y-93735802D01*
X99470302Y-93897700D01*
X99338977Y-94085251D01*
X99336654Y-94090233D01*
X99336651Y-94090238D01*
X99244539Y-94287775D01*
X99242216Y-94292757D01*
X99182957Y-94513913D01*
X99163002Y-94742000D01*
X99182957Y-94970087D01*
X99242216Y-95191243D01*
X99244539Y-95196224D01*
X99244539Y-95196225D01*
X99336651Y-95393762D01*
X99336654Y-95393767D01*
X99338977Y-95398749D01*
X99470302Y-95586300D01*
X99632200Y-95748198D01*
X99636708Y-95751355D01*
X99636711Y-95751357D01*
X99714889Y-95806098D01*
X99819751Y-95879523D01*
X99824733Y-95881846D01*
X99824738Y-95881849D01*
X99858957Y-95897805D01*
X99912242Y-95944722D01*
X99931703Y-96012999D01*
X99911161Y-96080959D01*
X99858957Y-96126195D01*
X99824738Y-96142151D01*
X99824733Y-96142154D01*
X99819751Y-96144477D01*
X99714889Y-96217902D01*
X99636711Y-96272643D01*
X99636708Y-96272645D01*
X99632200Y-96275802D01*
X99470302Y-96437700D01*
X99338977Y-96625251D01*
X99336654Y-96630233D01*
X99336651Y-96630238D01*
X99244539Y-96827775D01*
X99242216Y-96832757D01*
X99182957Y-97053913D01*
X99163002Y-97282000D01*
X99182957Y-97510087D01*
X99242216Y-97731243D01*
X99244539Y-97736224D01*
X99244539Y-97736225D01*
X99336651Y-97933762D01*
X99336654Y-97933767D01*
X99338977Y-97938749D01*
X99470302Y-98126300D01*
X99632200Y-98288198D01*
X99636708Y-98291355D01*
X99636711Y-98291357D01*
X99714889Y-98346098D01*
X99819751Y-98419523D01*
X99824733Y-98421846D01*
X99824738Y-98421849D01*
X99858957Y-98437805D01*
X99912242Y-98484722D01*
X99931703Y-98552999D01*
X99911161Y-98620959D01*
X99858957Y-98666195D01*
X99824738Y-98682151D01*
X99824733Y-98682154D01*
X99819751Y-98684477D01*
X99714889Y-98757902D01*
X99636711Y-98812643D01*
X99636708Y-98812645D01*
X99632200Y-98815802D01*
X99470302Y-98977700D01*
X99338977Y-99165251D01*
X99336654Y-99170233D01*
X99336651Y-99170238D01*
X99244539Y-99367775D01*
X99242216Y-99372757D01*
X99182957Y-99593913D01*
X99163002Y-99822000D01*
X99182957Y-100050087D01*
X99242216Y-100271243D01*
X99244539Y-100276224D01*
X99244539Y-100276225D01*
X99336651Y-100473762D01*
X99336654Y-100473767D01*
X99338977Y-100478749D01*
X99470302Y-100666300D01*
X99632200Y-100828198D01*
X99636708Y-100831355D01*
X99636711Y-100831357D01*
X99714889Y-100886098D01*
X99819751Y-100959523D01*
X99824733Y-100961846D01*
X99824738Y-100961849D01*
X99858957Y-100977805D01*
X99912242Y-101024722D01*
X99931703Y-101092999D01*
X99911161Y-101160959D01*
X99858957Y-101206195D01*
X99824738Y-101222151D01*
X99824733Y-101222154D01*
X99819751Y-101224477D01*
X99714889Y-101297902D01*
X99636711Y-101352643D01*
X99636708Y-101352645D01*
X99632200Y-101355802D01*
X99470302Y-101517700D01*
X99338977Y-101705251D01*
X99336654Y-101710233D01*
X99336651Y-101710238D01*
X99244539Y-101907775D01*
X99242216Y-101912757D01*
X99182957Y-102133913D01*
X99163002Y-102362000D01*
X99182957Y-102590087D01*
X99242216Y-102811243D01*
X99244539Y-102816224D01*
X99244539Y-102816225D01*
X99336651Y-103013762D01*
X99336654Y-103013767D01*
X99338977Y-103018749D01*
X99470302Y-103206300D01*
X99632200Y-103368198D01*
X99636708Y-103371355D01*
X99636711Y-103371357D01*
X99714889Y-103426098D01*
X99819751Y-103499523D01*
X99824733Y-103501846D01*
X99824738Y-103501849D01*
X99858957Y-103517805D01*
X99912242Y-103564722D01*
X99931703Y-103632999D01*
X99911161Y-103700959D01*
X99858957Y-103746195D01*
X99824738Y-103762151D01*
X99824733Y-103762154D01*
X99819751Y-103764477D01*
X99714889Y-103837902D01*
X99636711Y-103892643D01*
X99636708Y-103892645D01*
X99632200Y-103895802D01*
X99470302Y-104057700D01*
X99467145Y-104062208D01*
X99467143Y-104062211D01*
X99427073Y-104119437D01*
X99338977Y-104245251D01*
X99336654Y-104250233D01*
X99336651Y-104250238D01*
X99285400Y-104360148D01*
X99242216Y-104452757D01*
X99240794Y-104458065D01*
X99240793Y-104458067D01*
X99184381Y-104668598D01*
X99182957Y-104673913D01*
X99163002Y-104902000D01*
X98658500Y-104902000D01*
X98658500Y-67250940D01*
X102791793Y-67250940D01*
X102828442Y-67520232D01*
X102904493Y-67781150D01*
X103018274Y-68027960D01*
X103020837Y-68031869D01*
X103164720Y-68251328D01*
X103164724Y-68251333D01*
X103167286Y-68255241D01*
X103348256Y-68458001D01*
X103557207Y-68631784D01*
X103606120Y-68661465D01*
X103785554Y-68770349D01*
X103785559Y-68770351D01*
X103789551Y-68772774D01*
X104040182Y-68877872D01*
X104303594Y-68944770D01*
X104529322Y-68967500D01*
X104690991Y-68967500D01*
X104693316Y-68967327D01*
X104693322Y-68967327D01*
X104888375Y-68952832D01*
X104888379Y-68952831D01*
X104893027Y-68952486D01*
X105158101Y-68892506D01*
X105192773Y-68879023D01*
X105407044Y-68795698D01*
X105407046Y-68795697D01*
X105411397Y-68794005D01*
X105445379Y-68774583D01*
X105499141Y-68743855D01*
X105647351Y-68659146D01*
X105860780Y-68490892D01*
X106046996Y-68292939D01*
X106049662Y-68289096D01*
X106199244Y-68073474D01*
X106199247Y-68073469D01*
X106201906Y-68069636D01*
X106220531Y-68031869D01*
X106320044Y-67830077D01*
X106320045Y-67830074D01*
X106322109Y-67825889D01*
X106404964Y-67567052D01*
X106448649Y-67298811D01*
X106452207Y-67027060D01*
X106415558Y-66757768D01*
X106339507Y-66496850D01*
X106225726Y-66250040D01*
X106191726Y-66198181D01*
X106079280Y-66026672D01*
X106079276Y-66026667D01*
X106076714Y-66022759D01*
X105964587Y-65897131D01*
X105898861Y-65823491D01*
X105898859Y-65823489D01*
X105895744Y-65819999D01*
X105686793Y-65646216D01*
X105570621Y-65575721D01*
X105458446Y-65507651D01*
X105458441Y-65507649D01*
X105454449Y-65505226D01*
X105203818Y-65400128D01*
X104940406Y-65333230D01*
X104714678Y-65310500D01*
X104553009Y-65310500D01*
X104550684Y-65310673D01*
X104550678Y-65310673D01*
X104355625Y-65325168D01*
X104355621Y-65325169D01*
X104350973Y-65325514D01*
X104085899Y-65385494D01*
X104081547Y-65387186D01*
X104081545Y-65387187D01*
X103836956Y-65482302D01*
X103836954Y-65482303D01*
X103832603Y-65483995D01*
X103828549Y-65486312D01*
X103828547Y-65486313D01*
X103744859Y-65534145D01*
X103596649Y-65618854D01*
X103383220Y-65787108D01*
X103197004Y-65985061D01*
X103194338Y-65988904D01*
X103044756Y-66204526D01*
X103044753Y-66204531D01*
X103042094Y-66208364D01*
X103040028Y-66212553D01*
X103040027Y-66212555D01*
X103019448Y-66254286D01*
X102921891Y-66452111D01*
X102839036Y-66710948D01*
X102795351Y-66979189D01*
X102791793Y-67250940D01*
X98658500Y-67250940D01*
X98658500Y-50149402D01*
X99919291Y-50149402D01*
X99919345Y-50153895D01*
X99919345Y-50153902D01*
X99921822Y-50358497D01*
X99921396Y-50370482D01*
X99920493Y-50381314D01*
X99921387Y-50393835D01*
X99922475Y-50398571D01*
X99922475Y-50398573D01*
X99927636Y-50421042D01*
X99930394Y-50438732D01*
X99942970Y-50588953D01*
X99963872Y-50838612D01*
X99963876Y-50859587D01*
X99962209Y-50879592D01*
X99963104Y-50892113D01*
X99964194Y-50896859D01*
X99964195Y-50896865D01*
X99965116Y-50900875D01*
X99966803Y-50909631D01*
X99974469Y-50958706D01*
X100001769Y-51133485D01*
X100003090Y-51137789D01*
X100003090Y-51137790D01*
X100066639Y-51344880D01*
X100073461Y-51367112D01*
X100177671Y-51588158D01*
X100312279Y-51792123D01*
X100474543Y-51974856D01*
X100661161Y-52132637D01*
X100664978Y-52135025D01*
X100864515Y-52259865D01*
X100864519Y-52259867D01*
X100868334Y-52262254D01*
X101091844Y-52361069D01*
X101096167Y-52362282D01*
X101096171Y-52362283D01*
X101322812Y-52425855D01*
X101322819Y-52425856D01*
X101327142Y-52427069D01*
X101331595Y-52427654D01*
X101331599Y-52427655D01*
X101564975Y-52458325D01*
X101564980Y-52458325D01*
X101569437Y-52458911D01*
X101696748Y-52457367D01*
X101809295Y-52456003D01*
X101809301Y-52456003D01*
X101813798Y-52455948D01*
X101818247Y-52455253D01*
X101818249Y-52455253D01*
X102050803Y-52418934D01*
X102050810Y-52418932D01*
X102055250Y-52418239D01*
X102288879Y-52346552D01*
X102509927Y-52242346D01*
X102713895Y-52107743D01*
X102896632Y-51945482D01*
X103054417Y-51758868D01*
X103184038Y-51551698D01*
X103236206Y-51433706D01*
X103281035Y-51332311D01*
X103282857Y-51328190D01*
X103284093Y-51323787D01*
X103347647Y-51097224D01*
X103348862Y-51092893D01*
X103361585Y-50996100D01*
X103380123Y-50855058D01*
X103380123Y-50855055D01*
X103380709Y-50850598D01*
X103380450Y-50829158D01*
X103378178Y-50641503D01*
X103378604Y-50629512D01*
X103379507Y-50618686D01*
X103378613Y-50606165D01*
X103377502Y-50601325D01*
X103372364Y-50578958D01*
X103369606Y-50561265D01*
X103357867Y-50421042D01*
X103336128Y-50161388D01*
X103336124Y-50140413D01*
X103337387Y-50125262D01*
X103337387Y-50125256D01*
X103337791Y-50120408D01*
X103336896Y-50107887D01*
X103335805Y-50103135D01*
X103334884Y-50099125D01*
X103333197Y-50090369D01*
X103304571Y-49907107D01*
X103298231Y-49866515D01*
X103296904Y-49862190D01*
X103227858Y-49637185D01*
X103227856Y-49637180D01*
X103226539Y-49632888D01*
X103122329Y-49411842D01*
X102987721Y-49207877D01*
X102825457Y-49025144D01*
X102638839Y-48867363D01*
X102592971Y-48838666D01*
X102435485Y-48740135D01*
X102435481Y-48740133D01*
X102431666Y-48737746D01*
X102208156Y-48638931D01*
X102203833Y-48637718D01*
X102203829Y-48637717D01*
X101977188Y-48574145D01*
X101977181Y-48574144D01*
X101972858Y-48572931D01*
X101968405Y-48572346D01*
X101968401Y-48572345D01*
X101735025Y-48541675D01*
X101735020Y-48541675D01*
X101730563Y-48541089D01*
X101603252Y-48542633D01*
X101490705Y-48543997D01*
X101490699Y-48543997D01*
X101486202Y-48544052D01*
X101481753Y-48544747D01*
X101481751Y-48544747D01*
X101249197Y-48581066D01*
X101249190Y-48581068D01*
X101244750Y-48581761D01*
X101011121Y-48653448D01*
X100790073Y-48757654D01*
X100586105Y-48892257D01*
X100403368Y-49054518D01*
X100245583Y-49241132D01*
X100115962Y-49448302D01*
X100114143Y-49452416D01*
X100114141Y-49452420D01*
X100036164Y-49628789D01*
X100017143Y-49671810D01*
X100015929Y-49676139D01*
X100015926Y-49676147D01*
X99995747Y-49748082D01*
X99951138Y-49907107D01*
X99950553Y-49911559D01*
X99950552Y-49911563D01*
X99919907Y-50144714D01*
X99919291Y-50149402D01*
X98658500Y-50149402D01*
X98658500Y-35634500D01*
X98678502Y-35566379D01*
X98732158Y-35519886D01*
X98784500Y-35508500D01*
X122515500Y-35508500D01*
X122583621Y-35528502D01*
G37*
%TD.AperFunction*%
%TA.AperFunction,Conductor*%
G36*
X112926377Y-165624502D02*
G01*
X112947351Y-165641405D01*
X115099667Y-167793721D01*
X115133693Y-167856033D01*
X115128628Y-167926848D01*
X115093400Y-167977766D01*
X115069983Y-167998194D01*
X115065490Y-168002113D01*
X115061828Y-168006777D01*
X114954624Y-168143312D01*
X114896823Y-168184539D01*
X114855522Y-168191500D01*
X106444431Y-168191500D01*
X106376310Y-168171498D01*
X106345364Y-168143357D01*
X106237993Y-168006735D01*
X106237992Y-168006734D01*
X106234336Y-168002082D01*
X106207432Y-167978632D01*
X106169223Y-167918795D01*
X106169430Y-167847799D01*
X106201127Y-167794554D01*
X108354276Y-165641405D01*
X108416588Y-165607379D01*
X108443371Y-165604500D01*
X112858256Y-165604500D01*
X112926377Y-165624502D01*
G37*
%TD.AperFunction*%
%TD*%
M02*
