%TF.GenerationSoftware,KiCad,Pcbnew,(6.0.4-0)*%
%TF.CreationDate,2022-11-29T11:04:19+01:00*%
%TF.ProjectId,ControllerBoard,436f6e74-726f-46c6-9c65-72426f617264,rev?*%
%TF.SameCoordinates,Original*%
%TF.FileFunction,Copper,L2,Bot*%
%TF.FilePolarity,Positive*%
%FSLAX46Y46*%
G04 Gerber Fmt 4.6, Leading zero omitted, Abs format (unit mm)*
G04 Created by KiCad (PCBNEW (6.0.4-0)) date 2022-11-29 11:04:19*
%MOMM*%
%LPD*%
G01*
G04 APERTURE LIST*
G04 Aperture macros list*
%AMRoundRect*
0 Rectangle with rounded corners*
0 $1 Rounding radius*
0 $2 $3 $4 $5 $6 $7 $8 $9 X,Y pos of 4 corners*
0 Add a 4 corners polygon primitive as box body*
4,1,4,$2,$3,$4,$5,$6,$7,$8,$9,$2,$3,0*
0 Add four circle primitives for the rounded corners*
1,1,$1+$1,$2,$3*
1,1,$1+$1,$4,$5*
1,1,$1+$1,$6,$7*
1,1,$1+$1,$8,$9*
0 Add four rect primitives between the rounded corners*
20,1,$1+$1,$2,$3,$4,$5,0*
20,1,$1+$1,$4,$5,$6,$7,0*
20,1,$1+$1,$6,$7,$8,$9,0*
20,1,$1+$1,$8,$9,$2,$3,0*%
G04 Aperture macros list end*
%TA.AperFunction,ComponentPad*%
%ADD10RoundRect,0.250000X0.750000X-0.600000X0.750000X0.600000X-0.750000X0.600000X-0.750000X-0.600000X0*%
%TD*%
%TA.AperFunction,ComponentPad*%
%ADD11O,2.000000X1.700000*%
%TD*%
%TA.AperFunction,ComponentPad*%
%ADD12R,1.600000X1.600000*%
%TD*%
%TA.AperFunction,ComponentPad*%
%ADD13C,1.600000*%
%TD*%
%TA.AperFunction,ComponentPad*%
%ADD14O,0.900000X1.500000*%
%TD*%
%TA.AperFunction,ComponentPad*%
%ADD15R,2.000000X2.000000*%
%TD*%
%TA.AperFunction,ComponentPad*%
%ADD16C,2.000000*%
%TD*%
%TA.AperFunction,ViaPad*%
%ADD17C,0.800000*%
%TD*%
%TA.AperFunction,Conductor*%
%ADD18C,0.500000*%
%TD*%
G04 APERTURE END LIST*
D10*
%TO.P,X1,1,1*%
%TO.N,Net-(A1-Pad19)*%
X110650000Y-37050000D03*
D11*
%TO.P,X1,2,2*%
%TO.N,3.3V*%
X110650000Y-34550000D03*
%TD*%
D12*
%TO.P,A1,1,~{RESET}*%
%TO.N,unconnected-(A1-Pad1)*%
X100597500Y-75750000D03*
D13*
%TO.P,A1,2,3V3*%
%TO.N,3.3V*%
X100597500Y-78290000D03*
%TO.P,A1,3,NC*%
%TO.N,unconnected-(A1-Pad3)*%
X100597500Y-80830000D03*
%TO.P,A1,4,GND*%
%TO.N,GND*%
X100597500Y-83370000D03*
%TO.P,A1,5,DAC2/A0*%
%TO.N,unconnected-(A1-Pad5)*%
X100597500Y-85910000D03*
%TO.P,A1,6,DAC1/A1*%
%TO.N,unconnected-(A1-Pad6)*%
X100597500Y-88450000D03*
%TO.P,A1,7,I34/A2*%
%TO.N,unconnected-(A1-Pad7)*%
X100597500Y-90990000D03*
%TO.P,A1,8,I39/A3*%
%TO.N,unconnected-(A1-Pad8)*%
X100597500Y-93530000D03*
%TO.P,A1,9,IO36/A4*%
%TO.N,unconnected-(A1-Pad9)*%
X100597500Y-96070000D03*
%TO.P,A1,10,IO4/A5*%
%TO.N,unconnected-(A1-Pad10)*%
X100597500Y-98610000D03*
%TO.P,A1,11,SCK/IO5*%
%TO.N,Net-(A1-Pad11)*%
X100597500Y-101150000D03*
%TO.P,A1,12,MOSI/IO18*%
%TO.N,Net-(A1-Pad12)*%
X100597500Y-103690000D03*
%TO.P,A1,13,MISO/IO19*%
%TO.N,unconnected-(A1-Pad13)*%
X100597500Y-106230000D03*
%TO.P,A1,14,RX/IO16*%
%TO.N,unconnected-(A1-Pad14)*%
X100597500Y-108770000D03*
%TO.P,A1,15,TX/IO17*%
%TO.N,unconnected-(A1-Pad15)*%
X100597500Y-111310000D03*
%TO.P,A1,16,IO21*%
%TO.N,unconnected-(A1-Pad16)*%
X100597500Y-113850000D03*
%TO.P,A1,17,SDA/IO23*%
%TO.N,Net-(CONN1-Pad3)*%
X120917500Y-113850000D03*
%TO.P,A1,18,SCL/IO22*%
%TO.N,Net-(A1-Pad18)*%
X120917500Y-111310000D03*
%TO.P,A1,19,A6/IO14*%
%TO.N,Net-(A1-Pad19)*%
X120917500Y-108770000D03*
%TO.P,A1,20,A7/IO32*%
%TO.N,Net-(A1-Pad20)*%
X120917500Y-106230000D03*
%TO.P,A1,21,A8/IO15*%
%TO.N,Net-(A1-Pad21)*%
X120917500Y-103690000D03*
%TO.P,A1,22,A9/IO33*%
%TO.N,Net-(A1-Pad22)*%
X120917500Y-101150000D03*
%TO.P,A1,23,A10/IO27*%
%TO.N,Net-(A1-Pad23)*%
X120917500Y-98610000D03*
%TO.P,A1,24,A11/IO12*%
%TO.N,unconnected-(A1-Pad24)*%
X120917500Y-96070000D03*
%TO.P,A1,25,A12/IO13*%
%TO.N,unconnected-(A1-Pad25)*%
X120917500Y-93530000D03*
%TO.P,A1,26,USB*%
%TO.N,Net-(A1-Pad26)*%
X120917500Y-90990000D03*
%TO.P,A1,27,EN*%
%TO.N,unconnected-(A1-Pad27)*%
X120917500Y-88450000D03*
%TO.P,A1,28,VBAT*%
%TO.N,Net-(A1-Pad28)*%
X120917500Y-85910000D03*
%TD*%
D14*
%TO.P,J2,S1,SHIELD*%
%TO.N,Net-(J2-PadS1)*%
X104850000Y-174000000D03*
%TO.P,J2,S2,SHIELD*%
X116450000Y-174000000D03*
%TO.P,J2,S3,SHIELD*%
X104850000Y-171000000D03*
%TO.P,J2,S4,SHIELD*%
X116450000Y-171000000D03*
%TD*%
D15*
%TO.P,BT1,1,+*%
%TO.N,Net-(A1-Pad28)*%
X110800000Y-66750000D03*
D16*
%TO.P,BT1,2,-*%
%TO.N,GND*%
X110800000Y-118740000D03*
%TD*%
D17*
%TO.N,GND*%
X100838000Y-46863000D03*
X100711000Y-36195000D03*
X120396000Y-24892000D03*
X108350000Y-163200000D03*
X108585000Y-16637000D03*
X116050000Y-163200000D03*
X110998000Y-60833000D03*
X120650000Y-28448000D03*
X100457000Y-65659000D03*
X99822000Y-125984000D03*
X120523000Y-64262000D03*
X111379000Y-30480000D03*
X110998000Y-55499000D03*
X116570183Y-128000183D03*
X109220000Y-46101000D03*
X108458000Y-99568000D03*
X102616000Y-141478000D03*
X107442000Y-161163000D03*
X110490000Y-89281000D03*
X120396000Y-71882000D03*
X113538000Y-160528000D03*
X101346000Y-117094000D03*
X103200000Y-122750000D03*
X103886000Y-110109000D03*
X117602000Y-164338000D03*
X105664000Y-26797000D03*
X101473000Y-24511000D03*
X120142000Y-46101000D03*
X102235000Y-131953000D03*
X108966000Y-125095000D03*
X112268000Y-97028000D03*
X103124000Y-153162000D03*
X105918000Y-39878000D03*
X107315000Y-29337000D03*
X110617000Y-50800000D03*
X105537000Y-47752000D03*
X119380000Y-133604000D03*
X108204000Y-114808000D03*
X120777000Y-79248000D03*
X120650000Y-41148000D03*
X113411000Y-110490000D03*
X119888000Y-58166000D03*
X112268000Y-94615000D03*
X109220000Y-108712000D03*
X113792000Y-154559000D03*
X101219000Y-29210000D03*
X101727000Y-16383000D03*
X100711000Y-56134000D03*
X116586000Y-110744000D03*
X117348000Y-125603000D03*
X118110000Y-137922000D03*
X112395000Y-106934000D03*
X108839000Y-104775000D03*
X107315000Y-154305000D03*
X114808000Y-127254000D03*
X110871000Y-83947000D03*
X117348000Y-16510000D03*
X102870000Y-145669000D03*
X101092000Y-43180000D03*
X118999000Y-142113000D03*
X118491000Y-155194000D03*
X109220000Y-42037000D03*
X107696000Y-137160000D03*
X105791000Y-44069000D03*
X116459000Y-123063000D03*
X109474000Y-111633000D03*
X109982000Y-30099000D03*
X102997000Y-127508000D03*
X110871000Y-78994000D03*
X105918000Y-34290000D03*
X103886000Y-91948000D03*
X120142000Y-34544000D03*
X116459000Y-118999000D03*
X104775000Y-77724000D03*
X101600000Y-136271000D03*
X104902000Y-72644000D03*
X110744000Y-96393000D03*
X105283000Y-57658000D03*
%TO.N,Net-(A1-Pad11)*%
X109650000Y-27552500D03*
%TO.N,Net-(A1-Pad12)*%
X107650000Y-27552500D03*
%TO.N,Net-(A1-Pad20)*%
X111650000Y-27552500D03*
%TO.N,Net-(A1-Pad21)*%
X113650000Y-27552500D03*
%TO.N,Net-(A1-Pad22)*%
X115650000Y-27552500D03*
%TO.N,Net-(A1-Pad23)*%
X117650000Y-27552500D03*
%TD*%
D18*
%TO.N,GND*%
X109300000Y-122750000D02*
X110800000Y-121250000D01*
X103200000Y-122750000D02*
X109300000Y-122750000D01*
X108350000Y-163200000D02*
X116050000Y-163200000D01*
X110800000Y-121250000D02*
X110800000Y-118740000D01*
%TO.N,Net-(A1-Pad11)*%
X109650000Y-28800000D02*
X107900000Y-30550000D01*
X107061000Y-51286500D02*
X107061000Y-95250000D01*
X107900000Y-50447500D02*
X107061000Y-51286500D01*
X109650000Y-27552500D02*
X109650000Y-28800000D01*
X107900000Y-30550000D02*
X107900000Y-50447500D01*
X107061000Y-95250000D02*
X101161000Y-101150000D01*
X101161000Y-101150000D02*
X100597500Y-101150000D01*
%TO.N,Net-(A1-Pad12)*%
X110700000Y-27027195D02*
X110700000Y-28404000D01*
X110700000Y-28404000D02*
X112903000Y-30607000D01*
X108702500Y-26500000D02*
X110172805Y-26500000D01*
X112903000Y-30607000D02*
X112903000Y-91384500D01*
X112903000Y-91384500D02*
X100597500Y-103690000D01*
X107650000Y-27552500D02*
X108702500Y-26500000D01*
X110172805Y-26500000D02*
X110700000Y-27027195D01*
%TO.N,Net-(A1-Pad20)*%
X113792000Y-99104500D02*
X120917500Y-106230000D01*
X111650000Y-27552500D02*
X111650000Y-27754750D01*
X111650000Y-27754750D02*
X113792000Y-29896750D01*
X113792000Y-29896750D02*
X113792000Y-99104500D01*
%TO.N,Net-(A1-Pad21)*%
X113650000Y-27925000D02*
X114808000Y-29083000D01*
X113650000Y-27552500D02*
X113650000Y-27925000D01*
X114808000Y-97580500D02*
X120917500Y-103690000D01*
X114808000Y-29083000D02*
X114808000Y-97580500D01*
%TO.N,Net-(A1-Pad22)*%
X115697000Y-95929500D02*
X120917500Y-101150000D01*
X115650000Y-27552500D02*
X115697000Y-27599500D01*
X115697000Y-27599500D02*
X115697000Y-95929500D01*
%TO.N,Net-(A1-Pad23)*%
X116586000Y-30049125D02*
X116586000Y-94278500D01*
X117650000Y-27552500D02*
X117650000Y-28985125D01*
X117650000Y-28985125D02*
X116586000Y-30049125D01*
X116586000Y-94278500D02*
X120917500Y-98610000D01*
%TO.N,Net-(J2-PadS1)*%
X115316000Y-165862000D02*
X116967000Y-167513000D01*
X104850000Y-171000000D02*
X104140000Y-170290000D01*
X104140000Y-170290000D02*
X104140000Y-168069509D01*
X116967000Y-167513000D02*
X116967000Y-170483000D01*
X104850000Y-171000000D02*
X104850000Y-174000000D01*
X104140000Y-168069509D02*
X106347509Y-165862000D01*
X116967000Y-170483000D02*
X116450000Y-171000000D01*
X106347509Y-165862000D02*
X115316000Y-165862000D01*
X116450000Y-174000000D02*
X116450000Y-171000000D01*
%TD*%
%TA.AperFunction,Conductor*%
%TO.N,GND*%
G36*
X122583621Y-15528502D02*
G01*
X122630114Y-15582158D01*
X122641500Y-15634500D01*
X122641500Y-124968348D01*
X122640875Y-124980885D01*
X117701159Y-174378037D01*
X117674478Y-174443830D01*
X117616462Y-174484753D01*
X117575784Y-174491500D01*
X117534500Y-174491500D01*
X117466379Y-174471498D01*
X117419886Y-174417842D01*
X117408500Y-174365500D01*
X117408500Y-173651337D01*
X117393765Y-173506273D01*
X117376111Y-173449939D01*
X117337444Y-173326549D01*
X117337442Y-173326544D01*
X117335535Y-173320459D01*
X117241130Y-173150150D01*
X117236979Y-173145307D01*
X117233334Y-173140063D01*
X117234983Y-173138917D01*
X117209688Y-173082732D01*
X117208500Y-173065471D01*
X117208500Y-171927591D01*
X117231287Y-171855321D01*
X117287349Y-171775256D01*
X117287352Y-171775250D01*
X117291011Y-171770025D01*
X117368345Y-171591316D01*
X117387460Y-171499818D01*
X117407176Y-171405443D01*
X117407177Y-171405438D01*
X117408165Y-171400707D01*
X117408500Y-171394315D01*
X117408500Y-171166371D01*
X117428502Y-171098250D01*
X117445405Y-171077276D01*
X117455911Y-171066770D01*
X117470323Y-171054384D01*
X117481918Y-171045851D01*
X117481923Y-171045846D01*
X117487818Y-171041508D01*
X117492557Y-171035930D01*
X117492560Y-171035927D01*
X117522035Y-171001232D01*
X117528965Y-170993716D01*
X117534660Y-170988021D01*
X117552281Y-170965749D01*
X117555072Y-170962345D01*
X117597591Y-170912297D01*
X117597592Y-170912295D01*
X117602333Y-170906715D01*
X117605661Y-170900199D01*
X117609028Y-170895150D01*
X117612195Y-170890021D01*
X117616734Y-170884284D01*
X117647655Y-170818125D01*
X117649561Y-170814225D01*
X117682769Y-170749192D01*
X117684508Y-170742084D01*
X117686607Y-170736441D01*
X117688524Y-170730678D01*
X117691622Y-170724050D01*
X117706487Y-170652583D01*
X117707457Y-170648299D01*
X117723473Y-170582845D01*
X117724808Y-170577390D01*
X117725500Y-170566236D01*
X117725536Y-170566238D01*
X117725775Y-170562245D01*
X117726149Y-170558053D01*
X117727640Y-170550885D01*
X117725546Y-170473479D01*
X117725500Y-170470072D01*
X117725500Y-167580070D01*
X117726933Y-167561120D01*
X117729099Y-167546885D01*
X117729099Y-167546881D01*
X117730199Y-167539651D01*
X117729298Y-167528565D01*
X117725915Y-167486982D01*
X117725500Y-167476767D01*
X117725500Y-167468707D01*
X117722209Y-167440480D01*
X117721778Y-167436121D01*
X117716454Y-167370662D01*
X117716453Y-167370659D01*
X117715860Y-167363364D01*
X117713604Y-167356400D01*
X117712417Y-167350461D01*
X117711030Y-167344590D01*
X117710182Y-167337319D01*
X117707686Y-167330443D01*
X117707684Y-167330434D01*
X117685275Y-167268702D01*
X117683865Y-167264598D01*
X117661352Y-167195101D01*
X117657556Y-167188846D01*
X117655057Y-167183387D01*
X117652329Y-167177939D01*
X117649833Y-167171063D01*
X117609805Y-167110010D01*
X117607481Y-167106327D01*
X117572500Y-167048680D01*
X117572499Y-167048679D01*
X117569595Y-167043893D01*
X117562198Y-167035517D01*
X117562225Y-167035493D01*
X117559570Y-167032499D01*
X117556868Y-167029268D01*
X117552856Y-167023148D01*
X117496617Y-166969872D01*
X117494175Y-166967494D01*
X115899770Y-165373089D01*
X115887384Y-165358677D01*
X115878851Y-165347082D01*
X115878846Y-165347077D01*
X115874508Y-165341182D01*
X115868930Y-165336443D01*
X115868927Y-165336440D01*
X115834232Y-165306965D01*
X115826716Y-165300035D01*
X115821021Y-165294340D01*
X115804736Y-165281456D01*
X115798749Y-165276719D01*
X115795345Y-165273928D01*
X115745297Y-165231409D01*
X115745295Y-165231408D01*
X115739715Y-165226667D01*
X115733199Y-165223339D01*
X115728150Y-165219972D01*
X115723021Y-165216805D01*
X115717284Y-165212266D01*
X115651125Y-165181345D01*
X115647225Y-165179439D01*
X115582192Y-165146231D01*
X115575084Y-165144492D01*
X115569441Y-165142393D01*
X115563678Y-165140476D01*
X115557050Y-165137378D01*
X115485583Y-165122513D01*
X115481299Y-165121543D01*
X115446958Y-165113140D01*
X115410390Y-165104192D01*
X115404788Y-165103844D01*
X115404785Y-165103844D01*
X115399236Y-165103500D01*
X115399238Y-165103464D01*
X115395245Y-165103225D01*
X115391053Y-165102851D01*
X115383885Y-165101360D01*
X115320120Y-165103085D01*
X115306479Y-165103454D01*
X115303072Y-165103500D01*
X106414578Y-165103500D01*
X106395630Y-165102067D01*
X106388289Y-165100950D01*
X106381392Y-165099901D01*
X106381390Y-165099901D01*
X106374160Y-165098801D01*
X106366868Y-165099394D01*
X106366865Y-165099394D01*
X106321491Y-165103085D01*
X106311276Y-165103500D01*
X106303216Y-165103500D01*
X106289926Y-165105049D01*
X106275002Y-165106789D01*
X106270627Y-165107222D01*
X106205170Y-165112546D01*
X106205167Y-165112547D01*
X106197872Y-165113140D01*
X106190908Y-165115396D01*
X106184949Y-165116587D01*
X106179094Y-165117971D01*
X106171828Y-165118818D01*
X106103182Y-165143735D01*
X106099054Y-165145152D01*
X106036573Y-165165393D01*
X106036571Y-165165394D01*
X106029610Y-165167649D01*
X106023355Y-165171445D01*
X106017881Y-165173951D01*
X106012451Y-165176670D01*
X106005572Y-165179167D01*
X105999452Y-165183180D01*
X105999451Y-165183180D01*
X105944533Y-165219186D01*
X105940829Y-165221523D01*
X105878402Y-165259405D01*
X105870025Y-165266803D01*
X105870001Y-165266776D01*
X105867009Y-165269429D01*
X105863776Y-165272132D01*
X105857657Y-165276144D01*
X105828460Y-165306965D01*
X105804381Y-165332383D01*
X105802003Y-165334825D01*
X103651089Y-167485739D01*
X103636677Y-167498125D01*
X103625082Y-167506658D01*
X103625077Y-167506663D01*
X103619182Y-167511001D01*
X103614443Y-167516579D01*
X103614440Y-167516582D01*
X103584965Y-167551277D01*
X103578035Y-167558793D01*
X103572340Y-167564488D01*
X103570060Y-167567370D01*
X103554719Y-167586760D01*
X103551928Y-167590164D01*
X103537377Y-167607292D01*
X103504667Y-167645794D01*
X103501339Y-167652310D01*
X103497972Y-167657359D01*
X103494805Y-167662488D01*
X103490266Y-167668225D01*
X103459345Y-167734384D01*
X103457442Y-167738278D01*
X103424231Y-167803317D01*
X103422492Y-167810425D01*
X103420393Y-167816068D01*
X103418476Y-167821831D01*
X103415378Y-167828459D01*
X103413888Y-167835621D01*
X103413888Y-167835622D01*
X103400514Y-167899921D01*
X103399544Y-167904205D01*
X103382192Y-167975119D01*
X103381500Y-167986273D01*
X103381464Y-167986271D01*
X103381225Y-167990264D01*
X103380851Y-167994456D01*
X103379360Y-168001624D01*
X103379558Y-168008941D01*
X103381454Y-168079030D01*
X103381500Y-168082437D01*
X103381500Y-169678353D01*
X103361498Y-169746474D01*
X103307842Y-169792967D01*
X103237568Y-169803071D01*
X103172988Y-169773577D01*
X103134604Y-169713851D01*
X103130125Y-169690890D01*
X102130390Y-159693539D01*
X108986309Y-159693539D01*
X108987130Y-159699815D01*
X108986849Y-159699815D01*
X109005425Y-159947695D01*
X109060738Y-160190037D01*
X109151553Y-160421429D01*
X109275840Y-160636701D01*
X109430824Y-160831045D01*
X109613042Y-161000119D01*
X109818425Y-161140146D01*
X109822674Y-161142192D01*
X109822677Y-161142194D01*
X109943719Y-161200485D01*
X110042383Y-161247999D01*
X110046885Y-161249388D01*
X110046891Y-161249390D01*
X110182306Y-161291159D01*
X110279914Y-161321267D01*
X110284564Y-161321968D01*
X110284569Y-161321969D01*
X110389473Y-161337780D01*
X110525713Y-161358315D01*
X110774287Y-161358315D01*
X110910527Y-161337780D01*
X111015431Y-161321969D01*
X111015436Y-161321968D01*
X111020086Y-161321267D01*
X111257617Y-161247999D01*
X111481576Y-161140146D01*
X111485478Y-161137486D01*
X111683056Y-161002780D01*
X111683062Y-161002775D01*
X111686958Y-161000119D01*
X111869176Y-160831045D01*
X112024160Y-160636701D01*
X112148447Y-160421429D01*
X112239262Y-160190037D01*
X112294575Y-159947695D01*
X112310681Y-159732771D01*
X112312076Y-159721280D01*
X112312768Y-159717170D01*
X112312768Y-159717167D01*
X112313576Y-159712367D01*
X112313729Y-159699815D01*
X112309773Y-159672191D01*
X112308500Y-159654329D01*
X112308500Y-159253065D01*
X112310246Y-159232160D01*
X112312770Y-159217159D01*
X112312770Y-159217156D01*
X112313576Y-159212367D01*
X112313729Y-159199815D01*
X112313039Y-159194995D01*
X112313010Y-159194550D01*
X112312200Y-159187123D01*
X112311744Y-159181030D01*
X112294575Y-158951935D01*
X112239262Y-158709593D01*
X112148447Y-158478201D01*
X112024160Y-158262929D01*
X111869176Y-158068585D01*
X111686958Y-157899511D01*
X111683062Y-157896855D01*
X111683056Y-157896850D01*
X111485472Y-157762140D01*
X111485470Y-157762139D01*
X111481576Y-157759484D01*
X111257617Y-157651631D01*
X111020086Y-157578363D01*
X111015436Y-157577662D01*
X111015431Y-157577661D01*
X110910527Y-157561850D01*
X110774287Y-157541315D01*
X110525713Y-157541315D01*
X110389473Y-157561850D01*
X110284569Y-157577661D01*
X110284564Y-157577662D01*
X110279914Y-157578363D01*
X110182306Y-157608471D01*
X110046891Y-157650240D01*
X110046885Y-157650242D01*
X110042383Y-157651631D01*
X109943719Y-157699145D01*
X109822677Y-157757436D01*
X109822674Y-157757438D01*
X109818425Y-157759484D01*
X109613042Y-157899511D01*
X109430824Y-158068585D01*
X109275840Y-158262929D01*
X109151553Y-158478201D01*
X109060738Y-158709593D01*
X109005425Y-158951935D01*
X109005073Y-158956635D01*
X109005072Y-158956640D01*
X108988632Y-159176030D01*
X108987764Y-159183568D01*
X108987835Y-159183742D01*
X108986309Y-159193539D01*
X108986951Y-159198451D01*
X108986849Y-159199815D01*
X108987130Y-159199815D01*
X108988325Y-159208954D01*
X108988325Y-159208955D01*
X108990436Y-159225098D01*
X108991500Y-159241435D01*
X108991500Y-159650448D01*
X108990000Y-159669833D01*
X108987690Y-159684666D01*
X108987690Y-159684670D01*
X108986309Y-159693539D01*
X102130390Y-159693539D01*
X100918752Y-147577163D01*
X105636309Y-147577163D01*
X105637130Y-147583439D01*
X105636728Y-147583439D01*
X105637064Y-147591136D01*
X105653810Y-147974674D01*
X105655805Y-148020374D01*
X105712891Y-148453985D01*
X105807551Y-148880969D01*
X105939065Y-149298079D01*
X106106433Y-149702139D01*
X106308379Y-150090075D01*
X106543368Y-150458934D01*
X106545032Y-150461102D01*
X106545040Y-150461114D01*
X106807929Y-150803716D01*
X106809611Y-150805908D01*
X106811469Y-150807936D01*
X106811476Y-150807944D01*
X107082420Y-151103628D01*
X107105081Y-151128358D01*
X107107101Y-151130209D01*
X107425495Y-151421963D01*
X107425503Y-151421970D01*
X107427531Y-151423828D01*
X107429723Y-151425510D01*
X107772325Y-151688399D01*
X107772337Y-151688407D01*
X107774505Y-151690071D01*
X108143364Y-151925060D01*
X108531300Y-152127006D01*
X108935360Y-152294374D01*
X108937980Y-152295200D01*
X108937988Y-152295203D01*
X109349840Y-152425059D01*
X109349845Y-152425060D01*
X109352470Y-152425888D01*
X109779454Y-152520548D01*
X109782173Y-152520906D01*
X109782179Y-152520907D01*
X109944621Y-152542293D01*
X110213065Y-152577634D01*
X110215814Y-152577754D01*
X110215825Y-152577755D01*
X110647252Y-152596591D01*
X110650000Y-152596711D01*
X110652748Y-152596591D01*
X111084175Y-152577755D01*
X111084186Y-152577754D01*
X111086935Y-152577634D01*
X111355379Y-152542293D01*
X111517821Y-152520907D01*
X111517827Y-152520906D01*
X111520546Y-152520548D01*
X111947530Y-152425888D01*
X111950155Y-152425060D01*
X111950160Y-152425059D01*
X112362012Y-152295203D01*
X112362020Y-152295200D01*
X112364640Y-152294374D01*
X112768700Y-152127006D01*
X113156636Y-151925060D01*
X113525495Y-151690071D01*
X113527663Y-151688407D01*
X113527675Y-151688399D01*
X113870277Y-151425510D01*
X113872469Y-151423828D01*
X113874497Y-151421970D01*
X113874505Y-151421963D01*
X114192899Y-151130209D01*
X114194919Y-151128358D01*
X114217580Y-151103628D01*
X114488524Y-150807944D01*
X114488531Y-150807936D01*
X114490389Y-150805908D01*
X114492071Y-150803716D01*
X114754960Y-150461114D01*
X114754968Y-150461102D01*
X114756632Y-150458934D01*
X114991621Y-150090075D01*
X115193567Y-149702139D01*
X115360935Y-149298079D01*
X115492449Y-148880969D01*
X115587109Y-148453985D01*
X115644195Y-148020374D01*
X115646191Y-147974674D01*
X115662147Y-147609202D01*
X115662531Y-147603443D01*
X115662770Y-147600783D01*
X115663576Y-147595991D01*
X115663729Y-147583439D01*
X115659773Y-147555815D01*
X115658500Y-147537953D01*
X115658500Y-142636689D01*
X115660246Y-142615784D01*
X115662770Y-142600783D01*
X115662770Y-142600780D01*
X115663576Y-142595991D01*
X115663729Y-142583439D01*
X115663081Y-142578913D01*
X115663049Y-142578318D01*
X115644316Y-142149264D01*
X115644315Y-142149253D01*
X115644195Y-142146504D01*
X115587109Y-141712893D01*
X115492449Y-141285909D01*
X115360935Y-140868799D01*
X115193567Y-140464739D01*
X114991621Y-140076803D01*
X114756632Y-139707944D01*
X114754968Y-139705776D01*
X114754960Y-139705764D01*
X114492071Y-139363162D01*
X114490389Y-139360970D01*
X114488531Y-139358942D01*
X114488524Y-139358934D01*
X114196770Y-139040540D01*
X114194919Y-139038520D01*
X113895127Y-138763812D01*
X113874505Y-138744915D01*
X113874497Y-138744908D01*
X113872469Y-138743050D01*
X113675538Y-138591939D01*
X113527675Y-138478479D01*
X113527663Y-138478471D01*
X113525495Y-138476807D01*
X113156636Y-138241818D01*
X112768700Y-138039872D01*
X112364640Y-137872504D01*
X112362020Y-137871678D01*
X112362012Y-137871675D01*
X111950160Y-137741819D01*
X111950155Y-137741818D01*
X111947530Y-137740990D01*
X111520546Y-137646330D01*
X111517827Y-137645972D01*
X111517821Y-137645971D01*
X111355379Y-137624585D01*
X111086935Y-137589244D01*
X111084186Y-137589124D01*
X111084175Y-137589123D01*
X110652748Y-137570287D01*
X110650000Y-137570167D01*
X110647252Y-137570287D01*
X110215825Y-137589123D01*
X110215814Y-137589124D01*
X110213065Y-137589244D01*
X109944621Y-137624585D01*
X109782179Y-137645971D01*
X109782173Y-137645972D01*
X109779454Y-137646330D01*
X109352470Y-137740990D01*
X109349845Y-137741818D01*
X109349840Y-137741819D01*
X108937988Y-137871675D01*
X108937980Y-137871678D01*
X108935360Y-137872504D01*
X108531300Y-138039872D01*
X108143364Y-138241818D01*
X107774505Y-138476807D01*
X107772337Y-138478471D01*
X107772325Y-138478479D01*
X107624462Y-138591939D01*
X107427531Y-138743050D01*
X107425503Y-138744908D01*
X107425495Y-138744915D01*
X107404873Y-138763812D01*
X107105081Y-139038520D01*
X107103230Y-139040540D01*
X106811476Y-139358934D01*
X106811469Y-139358942D01*
X106809611Y-139360970D01*
X106807929Y-139363162D01*
X106545040Y-139705764D01*
X106545032Y-139705776D01*
X106543368Y-139707944D01*
X106308379Y-140076803D01*
X106106433Y-140464739D01*
X105939065Y-140868799D01*
X105807551Y-141285909D01*
X105712891Y-141712893D01*
X105655805Y-142146504D01*
X105655685Y-142149253D01*
X105655684Y-142149264D01*
X105642756Y-142445373D01*
X105637272Y-142570978D01*
X105636309Y-142577163D01*
X105636829Y-142581136D01*
X105636728Y-142583439D01*
X105637130Y-142583439D01*
X105637646Y-142587386D01*
X105637646Y-142587388D01*
X105640436Y-142608722D01*
X105641500Y-142625059D01*
X105641500Y-147534072D01*
X105640000Y-147553457D01*
X105636309Y-147577163D01*
X100918752Y-147577163D01*
X98659125Y-124980891D01*
X98658500Y-124968354D01*
X98658500Y-119972670D01*
X109932160Y-119972670D01*
X109937887Y-119980320D01*
X110109042Y-120085205D01*
X110117837Y-120089687D01*
X110327988Y-120176734D01*
X110337373Y-120179783D01*
X110558554Y-120232885D01*
X110568301Y-120234428D01*
X110795070Y-120252275D01*
X110804930Y-120252275D01*
X111031699Y-120234428D01*
X111041446Y-120232885D01*
X111262627Y-120179783D01*
X111272012Y-120176734D01*
X111482163Y-120089687D01*
X111490958Y-120085205D01*
X111658445Y-119982568D01*
X111667907Y-119972110D01*
X111664124Y-119963334D01*
X110812812Y-119112022D01*
X110798868Y-119104408D01*
X110797035Y-119104539D01*
X110790420Y-119108790D01*
X109938920Y-119960290D01*
X109932160Y-119972670D01*
X98658500Y-119972670D01*
X98658500Y-118744930D01*
X109287725Y-118744930D01*
X109305572Y-118971699D01*
X109307115Y-118981446D01*
X109360217Y-119202627D01*
X109363266Y-119212012D01*
X109450313Y-119422163D01*
X109454795Y-119430958D01*
X109557432Y-119598445D01*
X109567890Y-119607907D01*
X109576666Y-119604124D01*
X110427978Y-118752812D01*
X110434356Y-118741132D01*
X111164408Y-118741132D01*
X111164539Y-118742965D01*
X111168790Y-118749580D01*
X112020290Y-119601080D01*
X112032670Y-119607840D01*
X112040320Y-119602113D01*
X112145205Y-119430958D01*
X112149687Y-119422163D01*
X112236734Y-119212012D01*
X112239783Y-119202627D01*
X112292885Y-118981446D01*
X112294428Y-118971699D01*
X112312275Y-118744930D01*
X112312275Y-118735070D01*
X112294428Y-118508301D01*
X112292885Y-118498554D01*
X112239783Y-118277373D01*
X112236734Y-118267988D01*
X112149687Y-118057837D01*
X112145205Y-118049042D01*
X112042568Y-117881555D01*
X112032110Y-117872093D01*
X112023334Y-117875876D01*
X111172022Y-118727188D01*
X111164408Y-118741132D01*
X110434356Y-118741132D01*
X110435592Y-118738868D01*
X110435461Y-118737035D01*
X110431210Y-118730420D01*
X109579710Y-117878920D01*
X109567330Y-117872160D01*
X109559680Y-117877887D01*
X109454795Y-118049042D01*
X109450313Y-118057837D01*
X109363266Y-118267988D01*
X109360217Y-118277373D01*
X109307115Y-118498554D01*
X109305572Y-118508301D01*
X109287725Y-118735070D01*
X109287725Y-118744930D01*
X98658500Y-118744930D01*
X98658500Y-117507890D01*
X109932093Y-117507890D01*
X109935876Y-117516666D01*
X110787188Y-118367978D01*
X110801132Y-118375592D01*
X110802965Y-118375461D01*
X110809580Y-118371210D01*
X111661080Y-117519710D01*
X111667840Y-117507330D01*
X111662113Y-117499680D01*
X111490958Y-117394795D01*
X111482163Y-117390313D01*
X111272012Y-117303266D01*
X111262627Y-117300217D01*
X111041446Y-117247115D01*
X111031699Y-117245572D01*
X110804930Y-117227725D01*
X110795070Y-117227725D01*
X110568301Y-117245572D01*
X110558554Y-117247115D01*
X110337373Y-117300217D01*
X110327988Y-117303266D01*
X110117837Y-117390313D01*
X110109042Y-117394795D01*
X109941555Y-117497432D01*
X109932093Y-117507890D01*
X98658500Y-117507890D01*
X98658500Y-116091940D01*
X114964793Y-116091940D01*
X115001442Y-116361232D01*
X115077493Y-116622150D01*
X115191274Y-116868960D01*
X115193837Y-116872869D01*
X115337720Y-117092328D01*
X115337724Y-117092333D01*
X115340286Y-117096241D01*
X115521256Y-117299001D01*
X115730207Y-117472784D01*
X115779120Y-117502465D01*
X115958554Y-117611349D01*
X115958559Y-117611351D01*
X115962551Y-117613774D01*
X116213182Y-117718872D01*
X116476594Y-117785770D01*
X116702322Y-117808500D01*
X116863991Y-117808500D01*
X116866316Y-117808327D01*
X116866322Y-117808327D01*
X117061375Y-117793832D01*
X117061379Y-117793831D01*
X117066027Y-117793486D01*
X117331101Y-117733506D01*
X117365773Y-117720023D01*
X117580044Y-117636698D01*
X117580046Y-117636697D01*
X117584397Y-117635005D01*
X117618379Y-117615583D01*
X117791447Y-117516666D01*
X117820351Y-117500146D01*
X118033780Y-117331892D01*
X118219996Y-117133939D01*
X118222662Y-117130096D01*
X118372244Y-116914474D01*
X118372247Y-116914469D01*
X118374906Y-116910636D01*
X118393531Y-116872869D01*
X118493044Y-116671077D01*
X118493045Y-116671074D01*
X118495109Y-116666889D01*
X118577964Y-116408052D01*
X118621649Y-116139811D01*
X118625207Y-115868060D01*
X118588558Y-115598768D01*
X118512507Y-115337850D01*
X118398726Y-115091040D01*
X118330857Y-114987523D01*
X118252280Y-114867672D01*
X118252276Y-114867667D01*
X118249714Y-114863759D01*
X118159229Y-114762379D01*
X118071861Y-114664491D01*
X118071859Y-114664489D01*
X118068744Y-114660999D01*
X117859793Y-114487216D01*
X117743621Y-114416721D01*
X117631446Y-114348651D01*
X117631441Y-114348649D01*
X117627449Y-114346226D01*
X117376818Y-114241128D01*
X117113406Y-114174230D01*
X116887678Y-114151500D01*
X116726009Y-114151500D01*
X116723684Y-114151673D01*
X116723678Y-114151673D01*
X116528625Y-114166168D01*
X116528621Y-114166169D01*
X116523973Y-114166514D01*
X116258899Y-114226494D01*
X116254547Y-114228186D01*
X116254545Y-114228187D01*
X116009956Y-114323302D01*
X116009954Y-114323303D01*
X116005603Y-114324995D01*
X116001549Y-114327312D01*
X116001547Y-114327313D01*
X115917859Y-114375145D01*
X115769649Y-114459854D01*
X115556220Y-114628108D01*
X115370004Y-114826061D01*
X115367338Y-114829904D01*
X115217756Y-115045526D01*
X115217753Y-115045531D01*
X115215094Y-115049364D01*
X115213028Y-115053553D01*
X115213027Y-115053555D01*
X115168414Y-115144022D01*
X115094891Y-115293111D01*
X115012036Y-115551948D01*
X114968351Y-115820189D01*
X114964793Y-116091940D01*
X98658500Y-116091940D01*
X98658500Y-113850000D01*
X99284002Y-113850000D01*
X99303957Y-114078087D01*
X99305381Y-114083400D01*
X99305381Y-114083402D01*
X99347336Y-114239977D01*
X99363216Y-114299243D01*
X99365539Y-114304224D01*
X99365539Y-114304225D01*
X99457651Y-114501762D01*
X99457654Y-114501767D01*
X99459977Y-114506749D01*
X99463134Y-114511257D01*
X99565889Y-114658006D01*
X99591302Y-114694300D01*
X99753200Y-114856198D01*
X99757708Y-114859355D01*
X99757711Y-114859357D01*
X99835889Y-114914098D01*
X99940751Y-114987523D01*
X99945733Y-114989846D01*
X99945738Y-114989849D01*
X100143275Y-115081961D01*
X100148257Y-115084284D01*
X100153565Y-115085706D01*
X100153567Y-115085707D01*
X100364098Y-115142119D01*
X100364100Y-115142119D01*
X100369413Y-115143543D01*
X100597500Y-115163498D01*
X100825587Y-115143543D01*
X100830900Y-115142119D01*
X100830902Y-115142119D01*
X101041433Y-115085707D01*
X101041435Y-115085706D01*
X101046743Y-115084284D01*
X101051725Y-115081961D01*
X101249262Y-114989849D01*
X101249267Y-114989846D01*
X101254249Y-114987523D01*
X101359111Y-114914098D01*
X101437289Y-114859357D01*
X101437292Y-114859355D01*
X101441800Y-114856198D01*
X101603698Y-114694300D01*
X101629112Y-114658006D01*
X101731866Y-114511257D01*
X101735023Y-114506749D01*
X101737346Y-114501767D01*
X101737349Y-114501762D01*
X101829461Y-114304225D01*
X101829461Y-114304224D01*
X101831784Y-114299243D01*
X101847665Y-114239977D01*
X101889619Y-114083402D01*
X101889619Y-114083400D01*
X101891043Y-114078087D01*
X101910998Y-113850000D01*
X101891043Y-113621913D01*
X101831784Y-113400757D01*
X101829461Y-113395775D01*
X101737349Y-113198238D01*
X101737346Y-113198233D01*
X101735023Y-113193251D01*
X101603698Y-113005700D01*
X101441800Y-112843802D01*
X101437292Y-112840645D01*
X101437289Y-112840643D01*
X101359111Y-112785902D01*
X101254249Y-112712477D01*
X101249267Y-112710154D01*
X101249262Y-112710151D01*
X101215043Y-112694195D01*
X101161758Y-112647278D01*
X101142297Y-112579001D01*
X101162839Y-112511041D01*
X101215043Y-112465805D01*
X101249262Y-112449849D01*
X101249267Y-112449846D01*
X101254249Y-112447523D01*
X101359111Y-112374098D01*
X101437289Y-112319357D01*
X101437292Y-112319355D01*
X101441800Y-112316198D01*
X101603698Y-112154300D01*
X101735023Y-111966749D01*
X101737346Y-111961767D01*
X101737349Y-111961762D01*
X101829461Y-111764225D01*
X101829461Y-111764224D01*
X101831784Y-111759243D01*
X101891043Y-111538087D01*
X101910998Y-111310000D01*
X101891043Y-111081913D01*
X101831784Y-110860757D01*
X101829461Y-110855775D01*
X101737349Y-110658238D01*
X101737346Y-110658233D01*
X101735023Y-110653251D01*
X101603698Y-110465700D01*
X101441800Y-110303802D01*
X101437292Y-110300645D01*
X101437289Y-110300643D01*
X101359111Y-110245902D01*
X101254249Y-110172477D01*
X101249267Y-110170154D01*
X101249262Y-110170151D01*
X101215043Y-110154195D01*
X101161758Y-110107278D01*
X101142297Y-110039001D01*
X101162839Y-109971041D01*
X101215043Y-109925805D01*
X101249262Y-109909849D01*
X101249267Y-109909846D01*
X101254249Y-109907523D01*
X101359111Y-109834098D01*
X101437289Y-109779357D01*
X101437292Y-109779355D01*
X101441800Y-109776198D01*
X101603698Y-109614300D01*
X101735023Y-109426749D01*
X101737346Y-109421767D01*
X101737349Y-109421762D01*
X101829461Y-109224225D01*
X101829461Y-109224224D01*
X101831784Y-109219243D01*
X101891043Y-108998087D01*
X101910998Y-108770000D01*
X101891043Y-108541913D01*
X101831784Y-108320757D01*
X101829461Y-108315775D01*
X101737349Y-108118238D01*
X101737346Y-108118233D01*
X101735023Y-108113251D01*
X101603698Y-107925700D01*
X101441800Y-107763802D01*
X101437292Y-107760645D01*
X101437289Y-107760643D01*
X101359111Y-107705902D01*
X101254249Y-107632477D01*
X101249267Y-107630154D01*
X101249262Y-107630151D01*
X101215043Y-107614195D01*
X101161758Y-107567278D01*
X101142297Y-107499001D01*
X101162839Y-107431041D01*
X101215043Y-107385805D01*
X101249262Y-107369849D01*
X101249267Y-107369846D01*
X101254249Y-107367523D01*
X101359111Y-107294098D01*
X101437289Y-107239357D01*
X101437292Y-107239355D01*
X101441800Y-107236198D01*
X101603698Y-107074300D01*
X101735023Y-106886749D01*
X101737346Y-106881767D01*
X101737349Y-106881762D01*
X101829461Y-106684225D01*
X101829461Y-106684224D01*
X101831784Y-106679243D01*
X101891043Y-106458087D01*
X101910998Y-106230000D01*
X101891043Y-106001913D01*
X101831784Y-105780757D01*
X101829461Y-105775775D01*
X101737349Y-105578238D01*
X101737346Y-105578233D01*
X101735023Y-105573251D01*
X101603698Y-105385700D01*
X101441800Y-105223802D01*
X101437292Y-105220645D01*
X101437289Y-105220643D01*
X101359111Y-105165902D01*
X101254249Y-105092477D01*
X101249267Y-105090154D01*
X101249262Y-105090151D01*
X101215043Y-105074195D01*
X101161758Y-105027278D01*
X101142297Y-104959001D01*
X101162839Y-104891041D01*
X101215043Y-104845805D01*
X101249262Y-104829849D01*
X101249267Y-104829846D01*
X101254249Y-104827523D01*
X101359111Y-104754098D01*
X101437289Y-104699357D01*
X101437292Y-104699355D01*
X101441800Y-104696198D01*
X101603698Y-104534300D01*
X101735023Y-104346749D01*
X101737346Y-104341767D01*
X101737349Y-104341762D01*
X101829461Y-104144225D01*
X101829461Y-104144224D01*
X101831784Y-104139243D01*
X101891043Y-103918087D01*
X101910998Y-103690000D01*
X101896745Y-103527087D01*
X101910734Y-103457482D01*
X101933171Y-103427010D01*
X112818405Y-92541776D01*
X112880717Y-92507750D01*
X112951532Y-92512815D01*
X113008368Y-92555362D01*
X113033179Y-92621882D01*
X113033500Y-92630871D01*
X113033500Y-99037430D01*
X113032067Y-99056380D01*
X113030087Y-99069398D01*
X113028801Y-99077849D01*
X113029394Y-99085141D01*
X113029394Y-99085144D01*
X113033085Y-99130518D01*
X113033500Y-99140733D01*
X113033500Y-99148793D01*
X113033925Y-99152437D01*
X113036789Y-99177007D01*
X113037222Y-99181382D01*
X113043140Y-99254137D01*
X113045396Y-99261101D01*
X113046587Y-99267060D01*
X113047971Y-99272915D01*
X113048818Y-99280181D01*
X113073735Y-99348827D01*
X113075152Y-99352955D01*
X113097649Y-99422399D01*
X113101445Y-99428654D01*
X113103951Y-99434128D01*
X113106670Y-99439558D01*
X113109167Y-99446437D01*
X113113180Y-99452557D01*
X113113180Y-99452558D01*
X113149186Y-99507476D01*
X113151523Y-99511180D01*
X113189405Y-99573607D01*
X113193121Y-99577815D01*
X113193122Y-99577816D01*
X113196803Y-99581984D01*
X113196776Y-99582008D01*
X113199429Y-99585000D01*
X113202132Y-99588233D01*
X113206144Y-99594352D01*
X113211456Y-99599384D01*
X113262383Y-99647628D01*
X113264825Y-99650006D01*
X119581829Y-105967010D01*
X119615855Y-106029322D01*
X119618255Y-106067087D01*
X119604002Y-106230000D01*
X119623957Y-106458087D01*
X119683216Y-106679243D01*
X119685539Y-106684224D01*
X119685539Y-106684225D01*
X119777651Y-106881762D01*
X119777654Y-106881767D01*
X119779977Y-106886749D01*
X119911302Y-107074300D01*
X120073200Y-107236198D01*
X120077708Y-107239355D01*
X120077711Y-107239357D01*
X120155889Y-107294098D01*
X120260751Y-107367523D01*
X120265733Y-107369846D01*
X120265738Y-107369849D01*
X120299957Y-107385805D01*
X120353242Y-107432722D01*
X120372703Y-107500999D01*
X120352161Y-107568959D01*
X120299957Y-107614195D01*
X120265738Y-107630151D01*
X120265733Y-107630154D01*
X120260751Y-107632477D01*
X120155889Y-107705902D01*
X120077711Y-107760643D01*
X120077708Y-107760645D01*
X120073200Y-107763802D01*
X119911302Y-107925700D01*
X119779977Y-108113251D01*
X119777654Y-108118233D01*
X119777651Y-108118238D01*
X119685539Y-108315775D01*
X119683216Y-108320757D01*
X119623957Y-108541913D01*
X119604002Y-108770000D01*
X119623957Y-108998087D01*
X119683216Y-109219243D01*
X119685539Y-109224224D01*
X119685539Y-109224225D01*
X119777651Y-109421762D01*
X119777654Y-109421767D01*
X119779977Y-109426749D01*
X119911302Y-109614300D01*
X120073200Y-109776198D01*
X120077708Y-109779355D01*
X120077711Y-109779357D01*
X120155889Y-109834098D01*
X120260751Y-109907523D01*
X120265733Y-109909846D01*
X120265738Y-109909849D01*
X120299957Y-109925805D01*
X120353242Y-109972722D01*
X120372703Y-110040999D01*
X120352161Y-110108959D01*
X120299957Y-110154195D01*
X120265738Y-110170151D01*
X120265733Y-110170154D01*
X120260751Y-110172477D01*
X120155889Y-110245902D01*
X120077711Y-110300643D01*
X120077708Y-110300645D01*
X120073200Y-110303802D01*
X119911302Y-110465700D01*
X119779977Y-110653251D01*
X119777654Y-110658233D01*
X119777651Y-110658238D01*
X119685539Y-110855775D01*
X119683216Y-110860757D01*
X119623957Y-111081913D01*
X119604002Y-111310000D01*
X119623957Y-111538087D01*
X119683216Y-111759243D01*
X119685539Y-111764224D01*
X119685539Y-111764225D01*
X119777651Y-111961762D01*
X119777654Y-111961767D01*
X119779977Y-111966749D01*
X119911302Y-112154300D01*
X120073200Y-112316198D01*
X120077708Y-112319355D01*
X120077711Y-112319357D01*
X120155889Y-112374098D01*
X120260751Y-112447523D01*
X120265733Y-112449846D01*
X120265738Y-112449849D01*
X120299957Y-112465805D01*
X120353242Y-112512722D01*
X120372703Y-112580999D01*
X120352161Y-112648959D01*
X120299957Y-112694195D01*
X120265738Y-112710151D01*
X120265733Y-112710154D01*
X120260751Y-112712477D01*
X120155889Y-112785902D01*
X120077711Y-112840643D01*
X120077708Y-112840645D01*
X120073200Y-112843802D01*
X119911302Y-113005700D01*
X119779977Y-113193251D01*
X119777654Y-113198233D01*
X119777651Y-113198238D01*
X119685539Y-113395775D01*
X119683216Y-113400757D01*
X119623957Y-113621913D01*
X119604002Y-113850000D01*
X119623957Y-114078087D01*
X119625381Y-114083400D01*
X119625381Y-114083402D01*
X119667336Y-114239977D01*
X119683216Y-114299243D01*
X119685539Y-114304224D01*
X119685539Y-114304225D01*
X119777651Y-114501762D01*
X119777654Y-114501767D01*
X119779977Y-114506749D01*
X119783134Y-114511257D01*
X119885889Y-114658006D01*
X119911302Y-114694300D01*
X120073200Y-114856198D01*
X120077708Y-114859355D01*
X120077711Y-114859357D01*
X120155889Y-114914098D01*
X120260751Y-114987523D01*
X120265733Y-114989846D01*
X120265738Y-114989849D01*
X120463275Y-115081961D01*
X120468257Y-115084284D01*
X120473565Y-115085706D01*
X120473567Y-115085707D01*
X120684098Y-115142119D01*
X120684100Y-115142119D01*
X120689413Y-115143543D01*
X120917500Y-115163498D01*
X121145587Y-115143543D01*
X121150900Y-115142119D01*
X121150902Y-115142119D01*
X121361433Y-115085707D01*
X121361435Y-115085706D01*
X121366743Y-115084284D01*
X121371725Y-115081961D01*
X121569262Y-114989849D01*
X121569267Y-114989846D01*
X121574249Y-114987523D01*
X121679111Y-114914098D01*
X121757289Y-114859357D01*
X121757292Y-114859355D01*
X121761800Y-114856198D01*
X121923698Y-114694300D01*
X121949112Y-114658006D01*
X122051866Y-114511257D01*
X122055023Y-114506749D01*
X122057346Y-114501767D01*
X122057349Y-114501762D01*
X122149461Y-114304225D01*
X122149461Y-114304224D01*
X122151784Y-114299243D01*
X122167665Y-114239977D01*
X122209619Y-114083402D01*
X122209619Y-114083400D01*
X122211043Y-114078087D01*
X122230998Y-113850000D01*
X122211043Y-113621913D01*
X122151784Y-113400757D01*
X122149461Y-113395775D01*
X122057349Y-113198238D01*
X122057346Y-113198233D01*
X122055023Y-113193251D01*
X121923698Y-113005700D01*
X121761800Y-112843802D01*
X121757292Y-112840645D01*
X121757289Y-112840643D01*
X121679111Y-112785902D01*
X121574249Y-112712477D01*
X121569267Y-112710154D01*
X121569262Y-112710151D01*
X121535043Y-112694195D01*
X121481758Y-112647278D01*
X121462297Y-112579001D01*
X121482839Y-112511041D01*
X121535043Y-112465805D01*
X121569262Y-112449849D01*
X121569267Y-112449846D01*
X121574249Y-112447523D01*
X121679111Y-112374098D01*
X121757289Y-112319357D01*
X121757292Y-112319355D01*
X121761800Y-112316198D01*
X121923698Y-112154300D01*
X122055023Y-111966749D01*
X122057346Y-111961767D01*
X122057349Y-111961762D01*
X122149461Y-111764225D01*
X122149461Y-111764224D01*
X122151784Y-111759243D01*
X122211043Y-111538087D01*
X122230998Y-111310000D01*
X122211043Y-111081913D01*
X122151784Y-110860757D01*
X122149461Y-110855775D01*
X122057349Y-110658238D01*
X122057346Y-110658233D01*
X122055023Y-110653251D01*
X121923698Y-110465700D01*
X121761800Y-110303802D01*
X121757292Y-110300645D01*
X121757289Y-110300643D01*
X121679111Y-110245902D01*
X121574249Y-110172477D01*
X121569267Y-110170154D01*
X121569262Y-110170151D01*
X121535043Y-110154195D01*
X121481758Y-110107278D01*
X121462297Y-110039001D01*
X121482839Y-109971041D01*
X121535043Y-109925805D01*
X121569262Y-109909849D01*
X121569267Y-109909846D01*
X121574249Y-109907523D01*
X121679111Y-109834098D01*
X121757289Y-109779357D01*
X121757292Y-109779355D01*
X121761800Y-109776198D01*
X121923698Y-109614300D01*
X122055023Y-109426749D01*
X122057346Y-109421767D01*
X122057349Y-109421762D01*
X122149461Y-109224225D01*
X122149461Y-109224224D01*
X122151784Y-109219243D01*
X122211043Y-108998087D01*
X122230998Y-108770000D01*
X122211043Y-108541913D01*
X122151784Y-108320757D01*
X122149461Y-108315775D01*
X122057349Y-108118238D01*
X122057346Y-108118233D01*
X122055023Y-108113251D01*
X121923698Y-107925700D01*
X121761800Y-107763802D01*
X121757292Y-107760645D01*
X121757289Y-107760643D01*
X121679111Y-107705902D01*
X121574249Y-107632477D01*
X121569267Y-107630154D01*
X121569262Y-107630151D01*
X121535043Y-107614195D01*
X121481758Y-107567278D01*
X121462297Y-107499001D01*
X121482839Y-107431041D01*
X121535043Y-107385805D01*
X121569262Y-107369849D01*
X121569267Y-107369846D01*
X121574249Y-107367523D01*
X121679111Y-107294098D01*
X121757289Y-107239357D01*
X121757292Y-107239355D01*
X121761800Y-107236198D01*
X121923698Y-107074300D01*
X122055023Y-106886749D01*
X122057346Y-106881767D01*
X122057349Y-106881762D01*
X122149461Y-106684225D01*
X122149461Y-106684224D01*
X122151784Y-106679243D01*
X122211043Y-106458087D01*
X122230998Y-106230000D01*
X122211043Y-106001913D01*
X122151784Y-105780757D01*
X122149461Y-105775775D01*
X122057349Y-105578238D01*
X122057346Y-105578233D01*
X122055023Y-105573251D01*
X121923698Y-105385700D01*
X121761800Y-105223802D01*
X121757292Y-105220645D01*
X121757289Y-105220643D01*
X121679111Y-105165902D01*
X121574249Y-105092477D01*
X121569267Y-105090154D01*
X121569262Y-105090151D01*
X121535043Y-105074195D01*
X121481758Y-105027278D01*
X121462297Y-104959001D01*
X121482839Y-104891041D01*
X121535043Y-104845805D01*
X121569262Y-104829849D01*
X121569267Y-104829846D01*
X121574249Y-104827523D01*
X121679111Y-104754098D01*
X121757289Y-104699357D01*
X121757292Y-104699355D01*
X121761800Y-104696198D01*
X121923698Y-104534300D01*
X122055023Y-104346749D01*
X122057346Y-104341767D01*
X122057349Y-104341762D01*
X122149461Y-104144225D01*
X122149461Y-104144224D01*
X122151784Y-104139243D01*
X122211043Y-103918087D01*
X122230998Y-103690000D01*
X122211043Y-103461913D01*
X122151784Y-103240757D01*
X122149461Y-103235775D01*
X122057349Y-103038238D01*
X122057346Y-103038233D01*
X122055023Y-103033251D01*
X121923698Y-102845700D01*
X121761800Y-102683802D01*
X121757292Y-102680645D01*
X121757289Y-102680643D01*
X121679111Y-102625902D01*
X121574249Y-102552477D01*
X121569267Y-102550154D01*
X121569262Y-102550151D01*
X121535043Y-102534195D01*
X121481758Y-102487278D01*
X121462297Y-102419001D01*
X121482839Y-102351041D01*
X121535043Y-102305805D01*
X121569262Y-102289849D01*
X121569267Y-102289846D01*
X121574249Y-102287523D01*
X121679111Y-102214098D01*
X121757289Y-102159357D01*
X121757292Y-102159355D01*
X121761800Y-102156198D01*
X121923698Y-101994300D01*
X122055023Y-101806749D01*
X122057346Y-101801767D01*
X122057349Y-101801762D01*
X122149461Y-101604225D01*
X122149461Y-101604224D01*
X122151784Y-101599243D01*
X122211043Y-101378087D01*
X122230998Y-101150000D01*
X122211043Y-100921913D01*
X122151784Y-100700757D01*
X122149461Y-100695775D01*
X122057349Y-100498238D01*
X122057346Y-100498233D01*
X122055023Y-100493251D01*
X121923698Y-100305700D01*
X121761800Y-100143802D01*
X121757292Y-100140645D01*
X121757289Y-100140643D01*
X121679111Y-100085902D01*
X121574249Y-100012477D01*
X121569267Y-100010154D01*
X121569262Y-100010151D01*
X121535043Y-99994195D01*
X121481758Y-99947278D01*
X121462297Y-99879001D01*
X121482839Y-99811041D01*
X121535043Y-99765805D01*
X121569262Y-99749849D01*
X121569267Y-99749846D01*
X121574249Y-99747523D01*
X121679111Y-99674098D01*
X121757289Y-99619357D01*
X121757292Y-99619355D01*
X121761800Y-99616198D01*
X121923698Y-99454300D01*
X121946036Y-99422399D01*
X122040806Y-99287053D01*
X122055023Y-99266749D01*
X122057346Y-99261767D01*
X122057349Y-99261762D01*
X122149461Y-99064225D01*
X122149461Y-99064224D01*
X122151784Y-99059243D01*
X122211043Y-98838087D01*
X122230998Y-98610000D01*
X122211043Y-98381913D01*
X122151784Y-98160757D01*
X122149461Y-98155775D01*
X122057349Y-97958238D01*
X122057346Y-97958233D01*
X122055023Y-97953251D01*
X121923698Y-97765700D01*
X121761800Y-97603802D01*
X121757292Y-97600645D01*
X121757289Y-97600643D01*
X121679111Y-97545902D01*
X121574249Y-97472477D01*
X121569267Y-97470154D01*
X121569262Y-97470151D01*
X121535043Y-97454195D01*
X121481758Y-97407278D01*
X121462297Y-97339001D01*
X121482839Y-97271041D01*
X121535043Y-97225805D01*
X121569262Y-97209849D01*
X121569267Y-97209846D01*
X121574249Y-97207523D01*
X121716739Y-97107750D01*
X121757289Y-97079357D01*
X121757292Y-97079355D01*
X121761800Y-97076198D01*
X121923698Y-96914300D01*
X122055023Y-96726749D01*
X122057346Y-96721767D01*
X122057349Y-96721762D01*
X122149461Y-96524225D01*
X122149461Y-96524224D01*
X122151784Y-96519243D01*
X122211043Y-96298087D01*
X122230998Y-96070000D01*
X122211043Y-95841913D01*
X122151784Y-95620757D01*
X122062669Y-95429647D01*
X122057349Y-95418238D01*
X122057346Y-95418233D01*
X122055023Y-95413251D01*
X121923698Y-95225700D01*
X121761800Y-95063802D01*
X121757292Y-95060645D01*
X121757289Y-95060643D01*
X121679111Y-95005902D01*
X121574249Y-94932477D01*
X121569267Y-94930154D01*
X121569262Y-94930151D01*
X121535043Y-94914195D01*
X121481758Y-94867278D01*
X121462297Y-94799001D01*
X121482839Y-94731041D01*
X121535043Y-94685805D01*
X121569262Y-94669849D01*
X121569267Y-94669846D01*
X121574249Y-94667523D01*
X121679111Y-94594098D01*
X121757289Y-94539357D01*
X121757292Y-94539355D01*
X121761800Y-94536198D01*
X121923698Y-94374300D01*
X122055023Y-94186749D01*
X122057346Y-94181767D01*
X122057349Y-94181762D01*
X122149461Y-93984225D01*
X122149461Y-93984224D01*
X122151784Y-93979243D01*
X122211043Y-93758087D01*
X122230998Y-93530000D01*
X122211043Y-93301913D01*
X122151784Y-93080757D01*
X122149461Y-93075775D01*
X122057349Y-92878238D01*
X122057346Y-92878233D01*
X122055023Y-92873251D01*
X121923698Y-92685700D01*
X121761800Y-92523802D01*
X121757292Y-92520645D01*
X121757289Y-92520643D01*
X121679111Y-92465902D01*
X121574249Y-92392477D01*
X121569267Y-92390154D01*
X121569262Y-92390151D01*
X121535043Y-92374195D01*
X121481758Y-92327278D01*
X121462297Y-92259001D01*
X121482839Y-92191041D01*
X121535043Y-92145805D01*
X121569262Y-92129849D01*
X121569267Y-92129846D01*
X121574249Y-92127523D01*
X121679111Y-92054098D01*
X121757289Y-91999357D01*
X121757292Y-91999355D01*
X121761800Y-91996198D01*
X121923698Y-91834300D01*
X122055023Y-91646749D01*
X122057346Y-91641767D01*
X122057349Y-91641762D01*
X122149461Y-91444225D01*
X122149461Y-91444224D01*
X122151784Y-91439243D01*
X122211043Y-91218087D01*
X122230998Y-90990000D01*
X122211043Y-90761913D01*
X122151784Y-90540757D01*
X122149461Y-90535775D01*
X122057349Y-90338238D01*
X122057346Y-90338233D01*
X122055023Y-90333251D01*
X121923698Y-90145700D01*
X121761800Y-89983802D01*
X121757292Y-89980645D01*
X121757289Y-89980643D01*
X121679111Y-89925902D01*
X121574249Y-89852477D01*
X121569267Y-89850154D01*
X121569262Y-89850151D01*
X121535043Y-89834195D01*
X121481758Y-89787278D01*
X121462297Y-89719001D01*
X121482839Y-89651041D01*
X121535043Y-89605805D01*
X121569262Y-89589849D01*
X121569267Y-89589846D01*
X121574249Y-89587523D01*
X121679111Y-89514098D01*
X121757289Y-89459357D01*
X121757292Y-89459355D01*
X121761800Y-89456198D01*
X121923698Y-89294300D01*
X122055023Y-89106749D01*
X122057346Y-89101767D01*
X122057349Y-89101762D01*
X122149461Y-88904225D01*
X122149461Y-88904224D01*
X122151784Y-88899243D01*
X122211043Y-88678087D01*
X122230998Y-88450000D01*
X122211043Y-88221913D01*
X122151784Y-88000757D01*
X122149461Y-87995775D01*
X122057349Y-87798238D01*
X122057346Y-87798233D01*
X122055023Y-87793251D01*
X121923698Y-87605700D01*
X121761800Y-87443802D01*
X121757292Y-87440645D01*
X121757289Y-87440643D01*
X121679111Y-87385902D01*
X121574249Y-87312477D01*
X121569267Y-87310154D01*
X121569262Y-87310151D01*
X121535043Y-87294195D01*
X121481758Y-87247278D01*
X121462297Y-87179001D01*
X121482839Y-87111041D01*
X121535043Y-87065805D01*
X121569262Y-87049849D01*
X121569267Y-87049846D01*
X121574249Y-87047523D01*
X121679111Y-86974098D01*
X121757289Y-86919357D01*
X121757292Y-86919355D01*
X121761800Y-86916198D01*
X121923698Y-86754300D01*
X122055023Y-86566749D01*
X122057346Y-86561767D01*
X122057349Y-86561762D01*
X122149461Y-86364225D01*
X122149461Y-86364224D01*
X122151784Y-86359243D01*
X122211043Y-86138087D01*
X122230998Y-85910000D01*
X122211043Y-85681913D01*
X122151784Y-85460757D01*
X122149461Y-85455775D01*
X122057349Y-85258238D01*
X122057346Y-85258233D01*
X122055023Y-85253251D01*
X121923698Y-85065700D01*
X121761800Y-84903802D01*
X121757292Y-84900645D01*
X121757289Y-84900643D01*
X121679111Y-84845902D01*
X121574249Y-84772477D01*
X121569267Y-84770154D01*
X121569262Y-84770151D01*
X121371725Y-84678039D01*
X121371724Y-84678039D01*
X121366743Y-84675716D01*
X121361435Y-84674294D01*
X121361433Y-84674293D01*
X121150902Y-84617881D01*
X121150900Y-84617881D01*
X121145587Y-84616457D01*
X120917500Y-84596502D01*
X120689413Y-84616457D01*
X120684100Y-84617881D01*
X120684098Y-84617881D01*
X120473567Y-84674293D01*
X120473565Y-84674294D01*
X120468257Y-84675716D01*
X120463276Y-84678039D01*
X120463275Y-84678039D01*
X120265738Y-84770151D01*
X120265733Y-84770154D01*
X120260751Y-84772477D01*
X120155889Y-84845902D01*
X120077711Y-84900643D01*
X120077708Y-84900645D01*
X120073200Y-84903802D01*
X119911302Y-85065700D01*
X119779977Y-85253251D01*
X119777654Y-85258233D01*
X119777651Y-85258238D01*
X119685539Y-85455775D01*
X119683216Y-85460757D01*
X119623957Y-85681913D01*
X119604002Y-85910000D01*
X119623957Y-86138087D01*
X119683216Y-86359243D01*
X119685539Y-86364224D01*
X119685539Y-86364225D01*
X119777651Y-86561762D01*
X119777654Y-86561767D01*
X119779977Y-86566749D01*
X119911302Y-86754300D01*
X120073200Y-86916198D01*
X120077708Y-86919355D01*
X120077711Y-86919357D01*
X120155889Y-86974098D01*
X120260751Y-87047523D01*
X120265733Y-87049846D01*
X120265738Y-87049849D01*
X120299957Y-87065805D01*
X120353242Y-87112722D01*
X120372703Y-87180999D01*
X120352161Y-87248959D01*
X120299957Y-87294195D01*
X120265738Y-87310151D01*
X120265733Y-87310154D01*
X120260751Y-87312477D01*
X120155889Y-87385902D01*
X120077711Y-87440643D01*
X120077708Y-87440645D01*
X120073200Y-87443802D01*
X119911302Y-87605700D01*
X119779977Y-87793251D01*
X119777654Y-87798233D01*
X119777651Y-87798238D01*
X119685539Y-87995775D01*
X119683216Y-88000757D01*
X119623957Y-88221913D01*
X119604002Y-88450000D01*
X119623957Y-88678087D01*
X119683216Y-88899243D01*
X119685539Y-88904224D01*
X119685539Y-88904225D01*
X119777651Y-89101762D01*
X119777654Y-89101767D01*
X119779977Y-89106749D01*
X119911302Y-89294300D01*
X120073200Y-89456198D01*
X120077708Y-89459355D01*
X120077711Y-89459357D01*
X120155889Y-89514098D01*
X120260751Y-89587523D01*
X120265733Y-89589846D01*
X120265738Y-89589849D01*
X120299957Y-89605805D01*
X120353242Y-89652722D01*
X120372703Y-89720999D01*
X120352161Y-89788959D01*
X120299957Y-89834195D01*
X120265738Y-89850151D01*
X120265733Y-89850154D01*
X120260751Y-89852477D01*
X120155889Y-89925902D01*
X120077711Y-89980643D01*
X120077708Y-89980645D01*
X120073200Y-89983802D01*
X119911302Y-90145700D01*
X119779977Y-90333251D01*
X119777654Y-90338233D01*
X119777651Y-90338238D01*
X119685539Y-90535775D01*
X119683216Y-90540757D01*
X119623957Y-90761913D01*
X119604002Y-90990000D01*
X119623957Y-91218087D01*
X119683216Y-91439243D01*
X119685539Y-91444224D01*
X119685539Y-91444225D01*
X119777651Y-91641762D01*
X119777654Y-91641767D01*
X119779977Y-91646749D01*
X119911302Y-91834300D01*
X120073200Y-91996198D01*
X120077708Y-91999355D01*
X120077711Y-91999357D01*
X120155889Y-92054098D01*
X120260751Y-92127523D01*
X120265733Y-92129846D01*
X120265738Y-92129849D01*
X120299957Y-92145805D01*
X120353242Y-92192722D01*
X120372703Y-92260999D01*
X120352161Y-92328959D01*
X120299957Y-92374195D01*
X120265738Y-92390151D01*
X120265733Y-92390154D01*
X120260751Y-92392477D01*
X120155889Y-92465902D01*
X120077711Y-92520643D01*
X120077708Y-92520645D01*
X120073200Y-92523802D01*
X119911302Y-92685700D01*
X119779977Y-92873251D01*
X119777654Y-92878233D01*
X119777651Y-92878238D01*
X119685539Y-93075775D01*
X119683216Y-93080757D01*
X119623957Y-93301913D01*
X119604002Y-93530000D01*
X119623957Y-93758087D01*
X119683216Y-93979243D01*
X119685539Y-93984224D01*
X119685539Y-93984225D01*
X119777651Y-94181762D01*
X119777654Y-94181767D01*
X119779977Y-94186749D01*
X119911302Y-94374300D01*
X120073200Y-94536198D01*
X120077708Y-94539355D01*
X120077711Y-94539357D01*
X120155889Y-94594098D01*
X120260751Y-94667523D01*
X120265733Y-94669846D01*
X120265738Y-94669849D01*
X120299957Y-94685805D01*
X120353242Y-94732722D01*
X120372703Y-94800999D01*
X120352161Y-94868959D01*
X120299957Y-94914195D01*
X120265738Y-94930151D01*
X120265733Y-94930154D01*
X120260751Y-94932477D01*
X120155889Y-95005902D01*
X120077711Y-95060643D01*
X120077708Y-95060645D01*
X120073200Y-95063802D01*
X119911302Y-95225700D01*
X119779977Y-95413251D01*
X119777654Y-95418233D01*
X119777651Y-95418238D01*
X119772331Y-95429647D01*
X119683216Y-95620757D01*
X119623957Y-95841913D01*
X119623478Y-95847393D01*
X119615177Y-95942267D01*
X119589313Y-96008385D01*
X119531810Y-96050024D01*
X119460923Y-96053965D01*
X119400561Y-96020380D01*
X117381405Y-94001224D01*
X117347379Y-93938912D01*
X117344500Y-93912129D01*
X117344500Y-52068387D01*
X117737768Y-52068387D01*
X117754151Y-52316425D01*
X117755161Y-52321037D01*
X117805184Y-52549503D01*
X117807318Y-52559251D01*
X117896082Y-52791442D01*
X118018461Y-53007809D01*
X118171720Y-53203520D01*
X118352437Y-53374204D01*
X118556574Y-53516047D01*
X118560794Y-53518126D01*
X118560800Y-53518129D01*
X118775343Y-53623799D01*
X118775348Y-53623801D01*
X118779571Y-53625881D01*
X119016447Y-53701253D01*
X119229255Y-53735260D01*
X119240584Y-53737609D01*
X119249368Y-53739855D01*
X119254207Y-53740320D01*
X119254212Y-53740321D01*
X119257022Y-53740591D01*
X119257026Y-53740591D01*
X119261863Y-53741056D01*
X119289740Y-53739421D01*
X119307638Y-53739646D01*
X119496964Y-53755520D01*
X119707508Y-53773173D01*
X119728185Y-53776657D01*
X119747642Y-53781631D01*
X119752485Y-53782097D01*
X119752488Y-53782097D01*
X119753320Y-53782177D01*
X119760137Y-53782832D01*
X119764990Y-53782547D01*
X119765043Y-53782548D01*
X119773429Y-53782339D01*
X119898383Y-53783441D01*
X120008747Y-53784415D01*
X120161453Y-53762775D01*
X120250187Y-53750200D01*
X120250190Y-53750199D01*
X120254857Y-53749538D01*
X120367009Y-53716025D01*
X120488496Y-53679723D01*
X120488501Y-53679721D01*
X120493019Y-53678371D01*
X120717915Y-53572502D01*
X120806330Y-53513359D01*
X120920599Y-53436922D01*
X120920603Y-53436919D01*
X120924521Y-53434298D01*
X120960412Y-53401582D01*
X121104730Y-53270027D01*
X121108221Y-53266845D01*
X121264912Y-53073883D01*
X121391094Y-52859724D01*
X121407269Y-52819560D01*
X121482189Y-52633518D01*
X121483948Y-52629150D01*
X121541401Y-52387312D01*
X121556318Y-52209391D01*
X121561774Y-52144315D01*
X121561774Y-52144312D01*
X121562168Y-52139613D01*
X121545786Y-51891585D01*
X121492621Y-51648769D01*
X121490263Y-51642599D01*
X121432043Y-51490308D01*
X121403861Y-51416588D01*
X121362907Y-51344179D01*
X121291887Y-51218615D01*
X121281488Y-51200229D01*
X121139479Y-51018884D01*
X121131146Y-51008243D01*
X121131144Y-51008241D01*
X121128235Y-51004526D01*
X121076090Y-50955275D01*
X120992999Y-50876797D01*
X120947527Y-50833849D01*
X120943660Y-50831162D01*
X120943655Y-50831158D01*
X120756251Y-50700941D01*
X120743399Y-50692011D01*
X120615899Y-50629212D01*
X120524633Y-50584259D01*
X120524627Y-50584257D01*
X120520411Y-50582180D01*
X120515927Y-50580753D01*
X120515924Y-50580752D01*
X120342829Y-50525674D01*
X120283545Y-50506810D01*
X120070756Y-50472805D01*
X120059423Y-50470456D01*
X120055354Y-50469415D01*
X120055341Y-50469413D01*
X120050634Y-50468209D01*
X120044386Y-50467608D01*
X120042984Y-50467473D01*
X120042983Y-50467473D01*
X120038139Y-50467007D01*
X120010266Y-50468642D01*
X119992369Y-50468417D01*
X119592491Y-50434890D01*
X119571813Y-50431405D01*
X119552360Y-50426432D01*
X119545778Y-50425799D01*
X119544706Y-50425696D01*
X119544702Y-50425696D01*
X119539865Y-50425231D01*
X119535012Y-50425516D01*
X119533519Y-50425488D01*
X119528434Y-50425614D01*
X119408784Y-50424558D01*
X119291255Y-50423521D01*
X119141015Y-50444811D01*
X119049806Y-50457736D01*
X119049803Y-50457737D01*
X119045136Y-50458398D01*
X118806963Y-50529568D01*
X118582057Y-50635439D01*
X118578146Y-50638055D01*
X118578141Y-50638058D01*
X118379365Y-50771025D01*
X118379361Y-50771028D01*
X118375443Y-50773649D01*
X118371957Y-50776826D01*
X118371954Y-50776829D01*
X118314175Y-50829498D01*
X118191735Y-50941109D01*
X118035037Y-51134078D01*
X117908850Y-51348246D01*
X117907087Y-51352624D01*
X117907085Y-51352628D01*
X117827658Y-51549858D01*
X117815991Y-51578830D01*
X117814902Y-51583414D01*
X117814901Y-51583417D01*
X117780451Y-51728428D01*
X117758536Y-51820677D01*
X117737768Y-52068387D01*
X117344500Y-52068387D01*
X117344500Y-30415496D01*
X117364502Y-30347375D01*
X117381405Y-30326401D01*
X118138911Y-29568895D01*
X118153323Y-29556509D01*
X118164918Y-29547976D01*
X118164923Y-29547971D01*
X118170818Y-29543633D01*
X118175557Y-29538055D01*
X118175560Y-29538052D01*
X118205035Y-29503357D01*
X118211965Y-29495841D01*
X118217660Y-29490146D01*
X118235281Y-29467874D01*
X118238072Y-29464470D01*
X118280591Y-29414422D01*
X118280592Y-29414420D01*
X118285333Y-29408840D01*
X118288661Y-29402324D01*
X118292028Y-29397275D01*
X118295195Y-29392146D01*
X118299734Y-29386409D01*
X118330655Y-29320250D01*
X118332561Y-29316350D01*
X118337025Y-29307608D01*
X118365769Y-29251317D01*
X118367508Y-29244209D01*
X118369607Y-29238566D01*
X118371524Y-29232803D01*
X118374622Y-29226175D01*
X118389487Y-29154708D01*
X118390457Y-29150424D01*
X118406473Y-29084970D01*
X118407808Y-29079515D01*
X118408500Y-29068361D01*
X118408536Y-29068363D01*
X118408775Y-29064370D01*
X118409149Y-29060178D01*
X118410640Y-29053010D01*
X118408546Y-28975604D01*
X118408500Y-28972197D01*
X118408500Y-28089499D01*
X118425381Y-28026499D01*
X118481223Y-27929779D01*
X118481224Y-27929778D01*
X118484527Y-27924056D01*
X118543542Y-27742428D01*
X118547008Y-27709456D01*
X118562814Y-27559065D01*
X118563504Y-27552500D01*
X118548280Y-27407651D01*
X118544232Y-27369135D01*
X118544232Y-27369133D01*
X118543542Y-27362572D01*
X118484527Y-27180944D01*
X118389040Y-27015556D01*
X118261253Y-26873634D01*
X118106752Y-26761382D01*
X118100724Y-26758698D01*
X118100722Y-26758697D01*
X117938319Y-26686391D01*
X117938318Y-26686391D01*
X117932288Y-26683706D01*
X117834940Y-26663014D01*
X117751944Y-26645372D01*
X117751939Y-26645372D01*
X117745487Y-26644000D01*
X117554513Y-26644000D01*
X117548061Y-26645372D01*
X117548056Y-26645372D01*
X117465060Y-26663014D01*
X117367712Y-26683706D01*
X117361682Y-26686391D01*
X117361681Y-26686391D01*
X117199278Y-26758697D01*
X117199276Y-26758698D01*
X117193248Y-26761382D01*
X117038747Y-26873634D01*
X116910960Y-27015556D01*
X116815473Y-27180944D01*
X116813432Y-27187226D01*
X116769833Y-27321409D01*
X116729759Y-27380014D01*
X116664363Y-27407651D01*
X116594406Y-27395544D01*
X116542100Y-27347538D01*
X116530167Y-27321409D01*
X116486568Y-27187226D01*
X116484527Y-27180944D01*
X116389040Y-27015556D01*
X116261253Y-26873634D01*
X116106752Y-26761382D01*
X116100724Y-26758698D01*
X116100722Y-26758697D01*
X115938319Y-26686391D01*
X115938318Y-26686391D01*
X115932288Y-26683706D01*
X115834940Y-26663014D01*
X115751944Y-26645372D01*
X115751939Y-26645372D01*
X115745487Y-26644000D01*
X115554513Y-26644000D01*
X115548061Y-26645372D01*
X115548056Y-26645372D01*
X115465060Y-26663014D01*
X115367712Y-26683706D01*
X115361682Y-26686391D01*
X115361681Y-26686391D01*
X115199278Y-26758697D01*
X115199276Y-26758698D01*
X115193248Y-26761382D01*
X115038747Y-26873634D01*
X114910960Y-27015556D01*
X114815473Y-27180944D01*
X114813432Y-27187226D01*
X114769833Y-27321409D01*
X114729759Y-27380014D01*
X114664363Y-27407651D01*
X114594406Y-27395544D01*
X114542100Y-27347538D01*
X114530167Y-27321409D01*
X114486568Y-27187226D01*
X114484527Y-27180944D01*
X114389040Y-27015556D01*
X114261253Y-26873634D01*
X114106752Y-26761382D01*
X114100724Y-26758698D01*
X114100722Y-26758697D01*
X113938319Y-26686391D01*
X113938318Y-26686391D01*
X113932288Y-26683706D01*
X113834940Y-26663014D01*
X113751944Y-26645372D01*
X113751939Y-26645372D01*
X113745487Y-26644000D01*
X113554513Y-26644000D01*
X113548061Y-26645372D01*
X113548056Y-26645372D01*
X113465060Y-26663014D01*
X113367712Y-26683706D01*
X113361682Y-26686391D01*
X113361681Y-26686391D01*
X113199278Y-26758697D01*
X113199276Y-26758698D01*
X113193248Y-26761382D01*
X113038747Y-26873634D01*
X112910960Y-27015556D01*
X112815473Y-27180944D01*
X112813432Y-27187226D01*
X112769833Y-27321409D01*
X112729759Y-27380014D01*
X112664363Y-27407651D01*
X112594406Y-27395544D01*
X112542100Y-27347538D01*
X112530167Y-27321409D01*
X112486568Y-27187226D01*
X112484527Y-27180944D01*
X112389040Y-27015556D01*
X112261253Y-26873634D01*
X112106752Y-26761382D01*
X112100724Y-26758698D01*
X112100722Y-26758697D01*
X111938319Y-26686391D01*
X111938318Y-26686391D01*
X111932288Y-26683706D01*
X111834940Y-26663014D01*
X111751944Y-26645372D01*
X111751939Y-26645372D01*
X111745487Y-26644000D01*
X111554513Y-26644000D01*
X111548061Y-26645372D01*
X111548056Y-26645372D01*
X111465059Y-26663014D01*
X111394268Y-26657612D01*
X111337635Y-26614795D01*
X111331144Y-26605133D01*
X111305511Y-26562892D01*
X111305510Y-26562890D01*
X111302595Y-26558087D01*
X111295197Y-26549711D01*
X111295223Y-26549688D01*
X111292574Y-26546698D01*
X111289866Y-26543459D01*
X111285856Y-26537343D01*
X111280549Y-26532316D01*
X111280546Y-26532312D01*
X111229617Y-26484067D01*
X111227175Y-26481689D01*
X110756575Y-26011089D01*
X110744189Y-25996677D01*
X110735656Y-25985082D01*
X110735651Y-25985077D01*
X110731313Y-25979182D01*
X110725735Y-25974443D01*
X110725732Y-25974440D01*
X110691037Y-25944965D01*
X110683521Y-25938035D01*
X110677826Y-25932340D01*
X110661541Y-25919456D01*
X110655554Y-25914719D01*
X110652150Y-25911928D01*
X110602102Y-25869409D01*
X110602100Y-25869408D01*
X110596520Y-25864667D01*
X110590004Y-25861339D01*
X110584955Y-25857972D01*
X110579826Y-25854805D01*
X110574089Y-25850266D01*
X110507930Y-25819345D01*
X110504030Y-25817439D01*
X110438997Y-25784231D01*
X110431889Y-25782492D01*
X110426246Y-25780393D01*
X110420483Y-25778476D01*
X110413855Y-25775378D01*
X110342388Y-25760513D01*
X110338104Y-25759543D01*
X110267195Y-25742192D01*
X110261593Y-25741844D01*
X110261590Y-25741844D01*
X110256041Y-25741500D01*
X110256043Y-25741464D01*
X110252050Y-25741225D01*
X110247858Y-25740851D01*
X110240690Y-25739360D01*
X110176925Y-25741085D01*
X110163284Y-25741454D01*
X110159877Y-25741500D01*
X108769570Y-25741500D01*
X108750620Y-25740067D01*
X108736385Y-25737901D01*
X108736381Y-25737901D01*
X108729151Y-25736801D01*
X108721859Y-25737394D01*
X108721856Y-25737394D01*
X108676482Y-25741085D01*
X108666267Y-25741500D01*
X108658207Y-25741500D01*
X108654573Y-25741924D01*
X108654567Y-25741924D01*
X108641542Y-25743443D01*
X108629980Y-25744791D01*
X108625632Y-25745221D01*
X108552864Y-25751140D01*
X108545903Y-25753395D01*
X108539963Y-25754582D01*
X108534088Y-25755971D01*
X108526819Y-25756818D01*
X108458170Y-25781736D01*
X108454042Y-25783153D01*
X108391564Y-25803393D01*
X108391562Y-25803394D01*
X108384601Y-25805649D01*
X108378346Y-25809445D01*
X108372872Y-25811951D01*
X108367442Y-25814670D01*
X108360563Y-25817167D01*
X108354443Y-25821180D01*
X108354442Y-25821180D01*
X108299524Y-25857186D01*
X108295820Y-25859523D01*
X108233393Y-25897405D01*
X108225016Y-25904803D01*
X108224992Y-25904776D01*
X108222000Y-25907429D01*
X108218767Y-25910132D01*
X108212648Y-25914144D01*
X108183451Y-25944965D01*
X108159372Y-25970383D01*
X108156994Y-25972825D01*
X107493669Y-26636150D01*
X107430772Y-26670301D01*
X107374176Y-26682331D01*
X107374167Y-26682334D01*
X107367712Y-26683706D01*
X107361682Y-26686391D01*
X107361681Y-26686391D01*
X107199278Y-26758697D01*
X107199276Y-26758698D01*
X107193248Y-26761382D01*
X107038747Y-26873634D01*
X106910960Y-27015556D01*
X106815473Y-27180944D01*
X106756458Y-27362572D01*
X106755768Y-27369133D01*
X106755768Y-27369135D01*
X106751720Y-27407651D01*
X106736496Y-27552500D01*
X106737186Y-27559065D01*
X106752993Y-27709456D01*
X106756458Y-27742428D01*
X106815473Y-27924056D01*
X106910960Y-28089444D01*
X107038747Y-28231366D01*
X107193248Y-28343618D01*
X107199276Y-28346302D01*
X107199278Y-28346303D01*
X107361681Y-28418609D01*
X107367712Y-28421294D01*
X107461112Y-28441147D01*
X107548056Y-28459628D01*
X107548061Y-28459628D01*
X107554513Y-28461000D01*
X107745487Y-28461000D01*
X107751939Y-28459628D01*
X107751944Y-28459628D01*
X107838887Y-28441147D01*
X107932288Y-28421294D01*
X107938319Y-28418609D01*
X108100722Y-28346303D01*
X108100724Y-28346302D01*
X108106752Y-28343618D01*
X108261253Y-28231366D01*
X108389040Y-28089444D01*
X108484527Y-27924056D01*
X108530167Y-27783590D01*
X108570241Y-27724986D01*
X108635637Y-27697349D01*
X108705594Y-27709456D01*
X108757900Y-27757462D01*
X108769832Y-27783589D01*
X108815473Y-27924056D01*
X108818776Y-27929778D01*
X108818777Y-27929779D01*
X108874619Y-28026499D01*
X108891500Y-28089499D01*
X108891500Y-28433629D01*
X108871498Y-28501750D01*
X108854595Y-28522724D01*
X107411089Y-29966230D01*
X107396677Y-29978616D01*
X107385082Y-29987149D01*
X107385077Y-29987154D01*
X107379182Y-29991492D01*
X107374443Y-29997070D01*
X107374440Y-29997073D01*
X107344965Y-30031768D01*
X107338035Y-30039284D01*
X107332340Y-30044979D01*
X107330060Y-30047861D01*
X107314719Y-30067251D01*
X107311928Y-30070655D01*
X107269409Y-30120703D01*
X107264667Y-30126285D01*
X107261339Y-30132801D01*
X107257972Y-30137850D01*
X107254805Y-30142979D01*
X107250266Y-30148716D01*
X107219345Y-30214875D01*
X107217442Y-30218769D01*
X107184231Y-30283808D01*
X107182492Y-30290916D01*
X107180393Y-30296559D01*
X107178476Y-30302322D01*
X107175378Y-30308950D01*
X107173888Y-30316112D01*
X107173888Y-30316113D01*
X107160514Y-30380412D01*
X107159544Y-30384696D01*
X107142192Y-30455610D01*
X107141500Y-30466764D01*
X107141464Y-30466762D01*
X107141225Y-30470755D01*
X107140851Y-30474947D01*
X107139360Y-30482115D01*
X107139558Y-30489432D01*
X107141454Y-30559521D01*
X107141500Y-30562928D01*
X107141500Y-50081129D01*
X107121498Y-50149250D01*
X107104595Y-50170224D01*
X106572089Y-50702730D01*
X106557677Y-50715116D01*
X106546082Y-50723649D01*
X106546077Y-50723654D01*
X106540182Y-50727992D01*
X106535443Y-50733570D01*
X106535440Y-50733573D01*
X106505965Y-50768268D01*
X106499035Y-50775784D01*
X106493340Y-50781479D01*
X106491060Y-50784361D01*
X106475719Y-50803751D01*
X106472928Y-50807155D01*
X106430409Y-50857203D01*
X106425667Y-50862785D01*
X106422339Y-50869301D01*
X106418972Y-50874350D01*
X106415805Y-50879479D01*
X106411266Y-50885216D01*
X106380345Y-50951375D01*
X106378442Y-50955269D01*
X106345231Y-51020308D01*
X106343492Y-51027416D01*
X106341393Y-51033059D01*
X106339476Y-51038822D01*
X106336378Y-51045450D01*
X106334888Y-51052612D01*
X106334888Y-51052613D01*
X106321514Y-51116912D01*
X106320544Y-51121196D01*
X106303192Y-51192110D01*
X106302500Y-51203264D01*
X106302464Y-51203262D01*
X106302225Y-51207255D01*
X106301851Y-51211447D01*
X106300360Y-51218615D01*
X106300558Y-51225932D01*
X106302454Y-51296021D01*
X106302500Y-51299428D01*
X106302500Y-68101303D01*
X106282498Y-68169424D01*
X106228842Y-68215917D01*
X106158568Y-68226021D01*
X106093988Y-68196527D01*
X106082496Y-68185203D01*
X106078744Y-68180999D01*
X105869793Y-68007216D01*
X105753621Y-67936721D01*
X105641446Y-67868651D01*
X105641441Y-67868649D01*
X105637449Y-67866226D01*
X105386818Y-67761128D01*
X105123406Y-67694230D01*
X104897678Y-67671500D01*
X104736009Y-67671500D01*
X104733684Y-67671673D01*
X104733678Y-67671673D01*
X104538625Y-67686168D01*
X104538621Y-67686169D01*
X104533973Y-67686514D01*
X104268899Y-67746494D01*
X104264547Y-67748186D01*
X104264545Y-67748187D01*
X104019956Y-67843302D01*
X104019954Y-67843303D01*
X104015603Y-67844995D01*
X104011549Y-67847312D01*
X104011547Y-67847313D01*
X103927859Y-67895145D01*
X103779649Y-67979854D01*
X103566220Y-68148108D01*
X103380004Y-68346061D01*
X103377338Y-68349904D01*
X103227756Y-68565526D01*
X103227753Y-68565531D01*
X103225094Y-68569364D01*
X103104891Y-68813111D01*
X103022036Y-69071948D01*
X102978351Y-69340189D01*
X102974793Y-69611940D01*
X103011442Y-69881232D01*
X103087493Y-70142150D01*
X103201274Y-70388960D01*
X103203837Y-70392869D01*
X103347720Y-70612328D01*
X103347724Y-70612333D01*
X103350286Y-70616241D01*
X103353403Y-70619733D01*
X103492300Y-70775354D01*
X103531256Y-70819001D01*
X103740207Y-70992784D01*
X103789120Y-71022465D01*
X103968554Y-71131349D01*
X103968559Y-71131351D01*
X103972551Y-71133774D01*
X104223182Y-71238872D01*
X104486594Y-71305770D01*
X104712322Y-71328500D01*
X104873991Y-71328500D01*
X104876316Y-71328327D01*
X104876322Y-71328327D01*
X105071375Y-71313832D01*
X105071379Y-71313831D01*
X105076027Y-71313486D01*
X105341101Y-71253506D01*
X105375773Y-71240023D01*
X105590044Y-71156698D01*
X105590046Y-71156697D01*
X105594397Y-71155005D01*
X105628379Y-71135583D01*
X105682141Y-71104855D01*
X105830351Y-71020146D01*
X106043780Y-70851892D01*
X106084726Y-70808366D01*
X106145969Y-70772454D01*
X106216906Y-70775354D01*
X106275015Y-70816145D01*
X106301846Y-70881876D01*
X106302500Y-70894699D01*
X106302500Y-94883629D01*
X106282498Y-94951750D01*
X106265595Y-94972724D01*
X102033626Y-99204693D01*
X101971314Y-99238719D01*
X101900499Y-99233654D01*
X101843663Y-99191107D01*
X101818852Y-99124587D01*
X101828945Y-99069895D01*
X101827578Y-99069398D01*
X101829461Y-99064225D01*
X101831784Y-99059243D01*
X101891043Y-98838087D01*
X101910998Y-98610000D01*
X101891043Y-98381913D01*
X101831784Y-98160757D01*
X101829461Y-98155775D01*
X101737349Y-97958238D01*
X101737346Y-97958233D01*
X101735023Y-97953251D01*
X101603698Y-97765700D01*
X101441800Y-97603802D01*
X101437292Y-97600645D01*
X101437289Y-97600643D01*
X101359111Y-97545902D01*
X101254249Y-97472477D01*
X101249267Y-97470154D01*
X101249262Y-97470151D01*
X101215043Y-97454195D01*
X101161758Y-97407278D01*
X101142297Y-97339001D01*
X101162839Y-97271041D01*
X101215043Y-97225805D01*
X101249262Y-97209849D01*
X101249267Y-97209846D01*
X101254249Y-97207523D01*
X101396739Y-97107750D01*
X101437289Y-97079357D01*
X101437292Y-97079355D01*
X101441800Y-97076198D01*
X101603698Y-96914300D01*
X101735023Y-96726749D01*
X101737346Y-96721767D01*
X101737349Y-96721762D01*
X101829461Y-96524225D01*
X101829461Y-96524224D01*
X101831784Y-96519243D01*
X101891043Y-96298087D01*
X101910998Y-96070000D01*
X101891043Y-95841913D01*
X101831784Y-95620757D01*
X101742669Y-95429647D01*
X101737349Y-95418238D01*
X101737346Y-95418233D01*
X101735023Y-95413251D01*
X101603698Y-95225700D01*
X101441800Y-95063802D01*
X101437292Y-95060645D01*
X101437289Y-95060643D01*
X101359111Y-95005902D01*
X101254249Y-94932477D01*
X101249267Y-94930154D01*
X101249262Y-94930151D01*
X101215043Y-94914195D01*
X101161758Y-94867278D01*
X101142297Y-94799001D01*
X101162839Y-94731041D01*
X101215043Y-94685805D01*
X101249262Y-94669849D01*
X101249267Y-94669846D01*
X101254249Y-94667523D01*
X101359111Y-94594098D01*
X101437289Y-94539357D01*
X101437292Y-94539355D01*
X101441800Y-94536198D01*
X101603698Y-94374300D01*
X101735023Y-94186749D01*
X101737346Y-94181767D01*
X101737349Y-94181762D01*
X101829461Y-93984225D01*
X101829461Y-93984224D01*
X101831784Y-93979243D01*
X101891043Y-93758087D01*
X101910998Y-93530000D01*
X101891043Y-93301913D01*
X101831784Y-93080757D01*
X101829461Y-93075775D01*
X101737349Y-92878238D01*
X101737346Y-92878233D01*
X101735023Y-92873251D01*
X101603698Y-92685700D01*
X101441800Y-92523802D01*
X101437292Y-92520645D01*
X101437289Y-92520643D01*
X101359111Y-92465902D01*
X101254249Y-92392477D01*
X101249267Y-92390154D01*
X101249262Y-92390151D01*
X101215043Y-92374195D01*
X101161758Y-92327278D01*
X101142297Y-92259001D01*
X101162839Y-92191041D01*
X101215043Y-92145805D01*
X101249262Y-92129849D01*
X101249267Y-92129846D01*
X101254249Y-92127523D01*
X101359111Y-92054098D01*
X101437289Y-91999357D01*
X101437292Y-91999355D01*
X101441800Y-91996198D01*
X101603698Y-91834300D01*
X101735023Y-91646749D01*
X101737346Y-91641767D01*
X101737349Y-91641762D01*
X101829461Y-91444225D01*
X101829461Y-91444224D01*
X101831784Y-91439243D01*
X101891043Y-91218087D01*
X101910998Y-90990000D01*
X101891043Y-90761913D01*
X101831784Y-90540757D01*
X101829461Y-90535775D01*
X101737349Y-90338238D01*
X101737346Y-90338233D01*
X101735023Y-90333251D01*
X101603698Y-90145700D01*
X101441800Y-89983802D01*
X101437292Y-89980645D01*
X101437289Y-89980643D01*
X101359111Y-89925902D01*
X101254249Y-89852477D01*
X101249267Y-89850154D01*
X101249262Y-89850151D01*
X101215043Y-89834195D01*
X101161758Y-89787278D01*
X101142297Y-89719001D01*
X101162839Y-89651041D01*
X101215043Y-89605805D01*
X101249262Y-89589849D01*
X101249267Y-89589846D01*
X101254249Y-89587523D01*
X101359111Y-89514098D01*
X101437289Y-89459357D01*
X101437292Y-89459355D01*
X101441800Y-89456198D01*
X101603698Y-89294300D01*
X101735023Y-89106749D01*
X101737346Y-89101767D01*
X101737349Y-89101762D01*
X101829461Y-88904225D01*
X101829461Y-88904224D01*
X101831784Y-88899243D01*
X101891043Y-88678087D01*
X101910998Y-88450000D01*
X101891043Y-88221913D01*
X101831784Y-88000757D01*
X101829461Y-87995775D01*
X101737349Y-87798238D01*
X101737346Y-87798233D01*
X101735023Y-87793251D01*
X101603698Y-87605700D01*
X101441800Y-87443802D01*
X101437292Y-87440645D01*
X101437289Y-87440643D01*
X101359111Y-87385902D01*
X101254249Y-87312477D01*
X101249267Y-87310154D01*
X101249262Y-87310151D01*
X101215043Y-87294195D01*
X101161758Y-87247278D01*
X101142297Y-87179001D01*
X101162839Y-87111041D01*
X101215043Y-87065805D01*
X101249262Y-87049849D01*
X101249267Y-87049846D01*
X101254249Y-87047523D01*
X101359111Y-86974098D01*
X101437289Y-86919357D01*
X101437292Y-86919355D01*
X101441800Y-86916198D01*
X101603698Y-86754300D01*
X101735023Y-86566749D01*
X101737346Y-86561767D01*
X101737349Y-86561762D01*
X101829461Y-86364225D01*
X101829461Y-86364224D01*
X101831784Y-86359243D01*
X101891043Y-86138087D01*
X101910998Y-85910000D01*
X101891043Y-85681913D01*
X101831784Y-85460757D01*
X101829461Y-85455775D01*
X101737349Y-85258238D01*
X101737346Y-85258233D01*
X101735023Y-85253251D01*
X101603698Y-85065700D01*
X101441800Y-84903802D01*
X101437292Y-84900645D01*
X101437289Y-84900643D01*
X101359111Y-84845902D01*
X101254249Y-84772477D01*
X101249267Y-84770154D01*
X101249262Y-84770151D01*
X101214451Y-84753919D01*
X101161166Y-84707002D01*
X101141705Y-84638725D01*
X101162247Y-84570765D01*
X101214451Y-84525529D01*
X101249011Y-84509414D01*
X101258506Y-84503931D01*
X101310548Y-84467491D01*
X101318924Y-84457012D01*
X101311856Y-84443566D01*
X100610312Y-83742022D01*
X100596368Y-83734408D01*
X100594535Y-83734539D01*
X100587920Y-83738790D01*
X99882423Y-84444287D01*
X99875993Y-84456062D01*
X99885289Y-84468077D01*
X99936494Y-84503931D01*
X99945989Y-84509414D01*
X99980549Y-84525529D01*
X100033834Y-84572446D01*
X100053295Y-84640723D01*
X100032753Y-84708683D01*
X99980549Y-84753919D01*
X99945738Y-84770151D01*
X99945733Y-84770154D01*
X99940751Y-84772477D01*
X99835889Y-84845902D01*
X99757711Y-84900643D01*
X99757708Y-84900645D01*
X99753200Y-84903802D01*
X99591302Y-85065700D01*
X99459977Y-85253251D01*
X99457654Y-85258233D01*
X99457651Y-85258238D01*
X99365539Y-85455775D01*
X99363216Y-85460757D01*
X99303957Y-85681913D01*
X99284002Y-85910000D01*
X99303957Y-86138087D01*
X99363216Y-86359243D01*
X99365539Y-86364224D01*
X99365539Y-86364225D01*
X99457651Y-86561762D01*
X99457654Y-86561767D01*
X99459977Y-86566749D01*
X99591302Y-86754300D01*
X99753200Y-86916198D01*
X99757708Y-86919355D01*
X99757711Y-86919357D01*
X99835889Y-86974098D01*
X99940751Y-87047523D01*
X99945733Y-87049846D01*
X99945738Y-87049849D01*
X99979957Y-87065805D01*
X100033242Y-87112722D01*
X100052703Y-87180999D01*
X100032161Y-87248959D01*
X99979957Y-87294195D01*
X99945738Y-87310151D01*
X99945733Y-87310154D01*
X99940751Y-87312477D01*
X99835889Y-87385902D01*
X99757711Y-87440643D01*
X99757708Y-87440645D01*
X99753200Y-87443802D01*
X99591302Y-87605700D01*
X99459977Y-87793251D01*
X99457654Y-87798233D01*
X99457651Y-87798238D01*
X99365539Y-87995775D01*
X99363216Y-88000757D01*
X99303957Y-88221913D01*
X99284002Y-88450000D01*
X99303957Y-88678087D01*
X99363216Y-88899243D01*
X99365539Y-88904224D01*
X99365539Y-88904225D01*
X99457651Y-89101762D01*
X99457654Y-89101767D01*
X99459977Y-89106749D01*
X99591302Y-89294300D01*
X99753200Y-89456198D01*
X99757708Y-89459355D01*
X99757711Y-89459357D01*
X99835889Y-89514098D01*
X99940751Y-89587523D01*
X99945733Y-89589846D01*
X99945738Y-89589849D01*
X99979957Y-89605805D01*
X100033242Y-89652722D01*
X100052703Y-89720999D01*
X100032161Y-89788959D01*
X99979957Y-89834195D01*
X99945738Y-89850151D01*
X99945733Y-89850154D01*
X99940751Y-89852477D01*
X99835889Y-89925902D01*
X99757711Y-89980643D01*
X99757708Y-89980645D01*
X99753200Y-89983802D01*
X99591302Y-90145700D01*
X99459977Y-90333251D01*
X99457654Y-90338233D01*
X99457651Y-90338238D01*
X99365539Y-90535775D01*
X99363216Y-90540757D01*
X99303957Y-90761913D01*
X99284002Y-90990000D01*
X99303957Y-91218087D01*
X99363216Y-91439243D01*
X99365539Y-91444224D01*
X99365539Y-91444225D01*
X99457651Y-91641762D01*
X99457654Y-91641767D01*
X99459977Y-91646749D01*
X99591302Y-91834300D01*
X99753200Y-91996198D01*
X99757708Y-91999355D01*
X99757711Y-91999357D01*
X99835889Y-92054098D01*
X99940751Y-92127523D01*
X99945733Y-92129846D01*
X99945738Y-92129849D01*
X99979957Y-92145805D01*
X100033242Y-92192722D01*
X100052703Y-92260999D01*
X100032161Y-92328959D01*
X99979957Y-92374195D01*
X99945738Y-92390151D01*
X99945733Y-92390154D01*
X99940751Y-92392477D01*
X99835889Y-92465902D01*
X99757711Y-92520643D01*
X99757708Y-92520645D01*
X99753200Y-92523802D01*
X99591302Y-92685700D01*
X99459977Y-92873251D01*
X99457654Y-92878233D01*
X99457651Y-92878238D01*
X99365539Y-93075775D01*
X99363216Y-93080757D01*
X99303957Y-93301913D01*
X99284002Y-93530000D01*
X99303957Y-93758087D01*
X99363216Y-93979243D01*
X99365539Y-93984224D01*
X99365539Y-93984225D01*
X99457651Y-94181762D01*
X99457654Y-94181767D01*
X99459977Y-94186749D01*
X99591302Y-94374300D01*
X99753200Y-94536198D01*
X99757708Y-94539355D01*
X99757711Y-94539357D01*
X99835889Y-94594098D01*
X99940751Y-94667523D01*
X99945733Y-94669846D01*
X99945738Y-94669849D01*
X99979957Y-94685805D01*
X100033242Y-94732722D01*
X100052703Y-94800999D01*
X100032161Y-94868959D01*
X99979957Y-94914195D01*
X99945738Y-94930151D01*
X99945733Y-94930154D01*
X99940751Y-94932477D01*
X99835889Y-95005902D01*
X99757711Y-95060643D01*
X99757708Y-95060645D01*
X99753200Y-95063802D01*
X99591302Y-95225700D01*
X99459977Y-95413251D01*
X99457654Y-95418233D01*
X99457651Y-95418238D01*
X99452331Y-95429647D01*
X99363216Y-95620757D01*
X99303957Y-95841913D01*
X99284002Y-96070000D01*
X99303957Y-96298087D01*
X99363216Y-96519243D01*
X99365539Y-96524224D01*
X99365539Y-96524225D01*
X99457651Y-96721762D01*
X99457654Y-96721767D01*
X99459977Y-96726749D01*
X99591302Y-96914300D01*
X99753200Y-97076198D01*
X99757708Y-97079355D01*
X99757711Y-97079357D01*
X99798261Y-97107750D01*
X99940751Y-97207523D01*
X99945733Y-97209846D01*
X99945738Y-97209849D01*
X99979957Y-97225805D01*
X100033242Y-97272722D01*
X100052703Y-97340999D01*
X100032161Y-97408959D01*
X99979957Y-97454195D01*
X99945738Y-97470151D01*
X99945733Y-97470154D01*
X99940751Y-97472477D01*
X99835889Y-97545902D01*
X99757711Y-97600643D01*
X99757708Y-97600645D01*
X99753200Y-97603802D01*
X99591302Y-97765700D01*
X99459977Y-97953251D01*
X99457654Y-97958233D01*
X99457651Y-97958238D01*
X99365539Y-98155775D01*
X99363216Y-98160757D01*
X99303957Y-98381913D01*
X99284002Y-98610000D01*
X99303957Y-98838087D01*
X99363216Y-99059243D01*
X99365539Y-99064224D01*
X99365539Y-99064225D01*
X99457651Y-99261762D01*
X99457654Y-99261767D01*
X99459977Y-99266749D01*
X99474194Y-99287053D01*
X99568965Y-99422399D01*
X99591302Y-99454300D01*
X99753200Y-99616198D01*
X99757708Y-99619355D01*
X99757711Y-99619357D01*
X99835889Y-99674098D01*
X99940751Y-99747523D01*
X99945733Y-99749846D01*
X99945738Y-99749849D01*
X99979957Y-99765805D01*
X100033242Y-99812722D01*
X100052703Y-99880999D01*
X100032161Y-99948959D01*
X99979957Y-99994195D01*
X99945738Y-100010151D01*
X99945733Y-100010154D01*
X99940751Y-100012477D01*
X99835889Y-100085902D01*
X99757711Y-100140643D01*
X99757708Y-100140645D01*
X99753200Y-100143802D01*
X99591302Y-100305700D01*
X99459977Y-100493251D01*
X99457654Y-100498233D01*
X99457651Y-100498238D01*
X99365539Y-100695775D01*
X99363216Y-100700757D01*
X99303957Y-100921913D01*
X99284002Y-101150000D01*
X99303957Y-101378087D01*
X99363216Y-101599243D01*
X99365539Y-101604224D01*
X99365539Y-101604225D01*
X99457651Y-101801762D01*
X99457654Y-101801767D01*
X99459977Y-101806749D01*
X99591302Y-101994300D01*
X99753200Y-102156198D01*
X99757708Y-102159355D01*
X99757711Y-102159357D01*
X99835889Y-102214098D01*
X99940751Y-102287523D01*
X99945733Y-102289846D01*
X99945738Y-102289849D01*
X99979957Y-102305805D01*
X100033242Y-102352722D01*
X100052703Y-102420999D01*
X100032161Y-102488959D01*
X99979957Y-102534195D01*
X99945738Y-102550151D01*
X99945733Y-102550154D01*
X99940751Y-102552477D01*
X99835889Y-102625902D01*
X99757711Y-102680643D01*
X99757708Y-102680645D01*
X99753200Y-102683802D01*
X99591302Y-102845700D01*
X99459977Y-103033251D01*
X99457654Y-103038233D01*
X99457651Y-103038238D01*
X99365539Y-103235775D01*
X99363216Y-103240757D01*
X99303957Y-103461913D01*
X99284002Y-103690000D01*
X99303957Y-103918087D01*
X99363216Y-104139243D01*
X99365539Y-104144224D01*
X99365539Y-104144225D01*
X99457651Y-104341762D01*
X99457654Y-104341767D01*
X99459977Y-104346749D01*
X99591302Y-104534300D01*
X99753200Y-104696198D01*
X99757708Y-104699355D01*
X99757711Y-104699357D01*
X99835889Y-104754098D01*
X99940751Y-104827523D01*
X99945733Y-104829846D01*
X99945738Y-104829849D01*
X99979957Y-104845805D01*
X100033242Y-104892722D01*
X100052703Y-104960999D01*
X100032161Y-105028959D01*
X99979957Y-105074195D01*
X99945738Y-105090151D01*
X99945733Y-105090154D01*
X99940751Y-105092477D01*
X99835889Y-105165902D01*
X99757711Y-105220643D01*
X99757708Y-105220645D01*
X99753200Y-105223802D01*
X99591302Y-105385700D01*
X99459977Y-105573251D01*
X99457654Y-105578233D01*
X99457651Y-105578238D01*
X99365539Y-105775775D01*
X99363216Y-105780757D01*
X99303957Y-106001913D01*
X99284002Y-106230000D01*
X99303957Y-106458087D01*
X99363216Y-106679243D01*
X99365539Y-106684224D01*
X99365539Y-106684225D01*
X99457651Y-106881762D01*
X99457654Y-106881767D01*
X99459977Y-106886749D01*
X99591302Y-107074300D01*
X99753200Y-107236198D01*
X99757708Y-107239355D01*
X99757711Y-107239357D01*
X99835889Y-107294098D01*
X99940751Y-107367523D01*
X99945733Y-107369846D01*
X99945738Y-107369849D01*
X99979957Y-107385805D01*
X100033242Y-107432722D01*
X100052703Y-107500999D01*
X100032161Y-107568959D01*
X99979957Y-107614195D01*
X99945738Y-107630151D01*
X99945733Y-107630154D01*
X99940751Y-107632477D01*
X99835889Y-107705902D01*
X99757711Y-107760643D01*
X99757708Y-107760645D01*
X99753200Y-107763802D01*
X99591302Y-107925700D01*
X99459977Y-108113251D01*
X99457654Y-108118233D01*
X99457651Y-108118238D01*
X99365539Y-108315775D01*
X99363216Y-108320757D01*
X99303957Y-108541913D01*
X99284002Y-108770000D01*
X99303957Y-108998087D01*
X99363216Y-109219243D01*
X99365539Y-109224224D01*
X99365539Y-109224225D01*
X99457651Y-109421762D01*
X99457654Y-109421767D01*
X99459977Y-109426749D01*
X99591302Y-109614300D01*
X99753200Y-109776198D01*
X99757708Y-109779355D01*
X99757711Y-109779357D01*
X99835889Y-109834098D01*
X99940751Y-109907523D01*
X99945733Y-109909846D01*
X99945738Y-109909849D01*
X99979957Y-109925805D01*
X100033242Y-109972722D01*
X100052703Y-110040999D01*
X100032161Y-110108959D01*
X99979957Y-110154195D01*
X99945738Y-110170151D01*
X99945733Y-110170154D01*
X99940751Y-110172477D01*
X99835889Y-110245902D01*
X99757711Y-110300643D01*
X99757708Y-110300645D01*
X99753200Y-110303802D01*
X99591302Y-110465700D01*
X99459977Y-110653251D01*
X99457654Y-110658233D01*
X99457651Y-110658238D01*
X99365539Y-110855775D01*
X99363216Y-110860757D01*
X99303957Y-111081913D01*
X99284002Y-111310000D01*
X99303957Y-111538087D01*
X99363216Y-111759243D01*
X99365539Y-111764224D01*
X99365539Y-111764225D01*
X99457651Y-111961762D01*
X99457654Y-111961767D01*
X99459977Y-111966749D01*
X99591302Y-112154300D01*
X99753200Y-112316198D01*
X99757708Y-112319355D01*
X99757711Y-112319357D01*
X99835889Y-112374098D01*
X99940751Y-112447523D01*
X99945733Y-112449846D01*
X99945738Y-112449849D01*
X99979957Y-112465805D01*
X100033242Y-112512722D01*
X100052703Y-112580999D01*
X100032161Y-112648959D01*
X99979957Y-112694195D01*
X99945738Y-112710151D01*
X99945733Y-112710154D01*
X99940751Y-112712477D01*
X99835889Y-112785902D01*
X99757711Y-112840643D01*
X99757708Y-112840645D01*
X99753200Y-112843802D01*
X99591302Y-113005700D01*
X99459977Y-113193251D01*
X99457654Y-113198233D01*
X99457651Y-113198238D01*
X99365539Y-113395775D01*
X99363216Y-113400757D01*
X99303957Y-113621913D01*
X99284002Y-113850000D01*
X98658500Y-113850000D01*
X98658500Y-83375475D01*
X99284983Y-83375475D01*
X99303972Y-83592519D01*
X99305875Y-83603312D01*
X99362264Y-83813761D01*
X99366010Y-83824053D01*
X99458086Y-84021511D01*
X99463569Y-84031006D01*
X99500009Y-84083048D01*
X99510488Y-84091424D01*
X99523934Y-84084356D01*
X100225478Y-83382812D01*
X100231856Y-83371132D01*
X100961908Y-83371132D01*
X100962039Y-83372965D01*
X100966290Y-83379580D01*
X101671787Y-84085077D01*
X101683562Y-84091507D01*
X101695577Y-84082211D01*
X101731431Y-84031006D01*
X101736914Y-84021511D01*
X101828990Y-83824053D01*
X101832736Y-83813761D01*
X101889125Y-83603312D01*
X101891028Y-83592519D01*
X101910017Y-83375475D01*
X101910017Y-83364525D01*
X101891028Y-83147481D01*
X101889125Y-83136688D01*
X101832736Y-82926239D01*
X101828990Y-82915947D01*
X101736914Y-82718489D01*
X101731431Y-82708994D01*
X101694991Y-82656952D01*
X101684512Y-82648576D01*
X101671066Y-82655644D01*
X100969522Y-83357188D01*
X100961908Y-83371132D01*
X100231856Y-83371132D01*
X100233092Y-83368868D01*
X100232961Y-83367035D01*
X100228710Y-83360420D01*
X99523213Y-82654923D01*
X99511438Y-82648493D01*
X99499423Y-82657789D01*
X99463569Y-82708994D01*
X99458086Y-82718489D01*
X99366010Y-82915947D01*
X99362264Y-82926239D01*
X99305875Y-83136688D01*
X99303972Y-83147481D01*
X99284983Y-83364525D01*
X99284983Y-83375475D01*
X98658500Y-83375475D01*
X98658500Y-80830000D01*
X99284002Y-80830000D01*
X99303957Y-81058087D01*
X99363216Y-81279243D01*
X99365539Y-81284224D01*
X99365539Y-81284225D01*
X99457651Y-81481762D01*
X99457654Y-81481767D01*
X99459977Y-81486749D01*
X99591302Y-81674300D01*
X99753200Y-81836198D01*
X99757708Y-81839355D01*
X99757711Y-81839357D01*
X99835889Y-81894098D01*
X99940751Y-81967523D01*
X99945733Y-81969846D01*
X99945738Y-81969849D01*
X99980549Y-81986081D01*
X100033834Y-82032998D01*
X100053295Y-82101275D01*
X100032753Y-82169235D01*
X99980549Y-82214471D01*
X99945989Y-82230586D01*
X99936494Y-82236069D01*
X99884452Y-82272509D01*
X99876076Y-82282988D01*
X99883144Y-82296434D01*
X100584688Y-82997978D01*
X100598632Y-83005592D01*
X100600465Y-83005461D01*
X100607080Y-83001210D01*
X101312577Y-82295713D01*
X101319007Y-82283938D01*
X101309711Y-82271923D01*
X101258506Y-82236069D01*
X101249011Y-82230586D01*
X101214451Y-82214471D01*
X101161166Y-82167554D01*
X101141705Y-82099277D01*
X101162247Y-82031317D01*
X101214451Y-81986081D01*
X101249262Y-81969849D01*
X101249267Y-81969846D01*
X101254249Y-81967523D01*
X101359111Y-81894098D01*
X101437289Y-81839357D01*
X101437292Y-81839355D01*
X101441800Y-81836198D01*
X101603698Y-81674300D01*
X101735023Y-81486749D01*
X101737346Y-81481767D01*
X101737349Y-81481762D01*
X101829461Y-81284225D01*
X101829461Y-81284224D01*
X101831784Y-81279243D01*
X101891043Y-81058087D01*
X101910998Y-80830000D01*
X101891043Y-80601913D01*
X101831784Y-80380757D01*
X101829461Y-80375775D01*
X101737349Y-80178238D01*
X101737346Y-80178233D01*
X101735023Y-80173251D01*
X101603698Y-79985700D01*
X101441800Y-79823802D01*
X101437292Y-79820645D01*
X101437289Y-79820643D01*
X101359111Y-79765902D01*
X101254249Y-79692477D01*
X101249267Y-79690154D01*
X101249262Y-79690151D01*
X101215043Y-79674195D01*
X101161758Y-79627278D01*
X101142297Y-79559001D01*
X101162839Y-79491041D01*
X101215043Y-79445805D01*
X101249262Y-79429849D01*
X101249267Y-79429846D01*
X101254249Y-79427523D01*
X101359111Y-79354098D01*
X101437289Y-79299357D01*
X101437292Y-79299355D01*
X101441800Y-79296198D01*
X101603698Y-79134300D01*
X101735023Y-78946749D01*
X101737346Y-78941767D01*
X101737349Y-78941762D01*
X101829461Y-78744225D01*
X101829461Y-78744224D01*
X101831784Y-78739243D01*
X101891043Y-78518087D01*
X101910998Y-78290000D01*
X101891043Y-78061913D01*
X101831784Y-77840757D01*
X101829461Y-77835775D01*
X101737349Y-77638238D01*
X101737346Y-77638233D01*
X101735023Y-77633251D01*
X101603698Y-77445700D01*
X101441800Y-77283802D01*
X101437289Y-77280643D01*
X101433076Y-77277108D01*
X101434027Y-77275974D01*
X101394029Y-77225929D01*
X101386724Y-77155310D01*
X101418758Y-77091951D01*
X101479962Y-77055970D01*
X101497017Y-77052918D01*
X101507816Y-77051745D01*
X101644205Y-77000615D01*
X101760761Y-76913261D01*
X101848115Y-76796705D01*
X101899245Y-76660316D01*
X101906000Y-76598134D01*
X101906000Y-74901866D01*
X101899245Y-74839684D01*
X101848115Y-74703295D01*
X101760761Y-74586739D01*
X101644205Y-74499385D01*
X101507816Y-74448255D01*
X101445634Y-74441500D01*
X99749366Y-74441500D01*
X99687184Y-74448255D01*
X99550795Y-74499385D01*
X99434239Y-74586739D01*
X99346885Y-74703295D01*
X99295755Y-74839684D01*
X99289000Y-74901866D01*
X99289000Y-76598134D01*
X99295755Y-76660316D01*
X99346885Y-76796705D01*
X99434239Y-76913261D01*
X99550795Y-77000615D01*
X99687184Y-77051745D01*
X99697974Y-77052917D01*
X99700106Y-77053803D01*
X99702722Y-77054425D01*
X99702621Y-77054848D01*
X99763535Y-77080155D01*
X99803963Y-77138517D01*
X99806422Y-77209471D01*
X99770129Y-77270490D01*
X99761469Y-77277489D01*
X99757707Y-77280646D01*
X99753200Y-77283802D01*
X99591302Y-77445700D01*
X99459977Y-77633251D01*
X99457654Y-77638233D01*
X99457651Y-77638238D01*
X99365539Y-77835775D01*
X99363216Y-77840757D01*
X99303957Y-78061913D01*
X99284002Y-78290000D01*
X99303957Y-78518087D01*
X99363216Y-78739243D01*
X99365539Y-78744224D01*
X99365539Y-78744225D01*
X99457651Y-78941762D01*
X99457654Y-78941767D01*
X99459977Y-78946749D01*
X99591302Y-79134300D01*
X99753200Y-79296198D01*
X99757708Y-79299355D01*
X99757711Y-79299357D01*
X99835889Y-79354098D01*
X99940751Y-79427523D01*
X99945733Y-79429846D01*
X99945738Y-79429849D01*
X99979957Y-79445805D01*
X100033242Y-79492722D01*
X100052703Y-79560999D01*
X100032161Y-79628959D01*
X99979957Y-79674195D01*
X99945738Y-79690151D01*
X99945733Y-79690154D01*
X99940751Y-79692477D01*
X99835889Y-79765902D01*
X99757711Y-79820643D01*
X99757708Y-79820645D01*
X99753200Y-79823802D01*
X99591302Y-79985700D01*
X99459977Y-80173251D01*
X99457654Y-80178233D01*
X99457651Y-80178238D01*
X99365539Y-80375775D01*
X99363216Y-80380757D01*
X99303957Y-80601913D01*
X99284002Y-80830000D01*
X98658500Y-80830000D01*
X98658500Y-51745298D01*
X99969578Y-51745298D01*
X99971486Y-51960791D01*
X99971057Y-51972344D01*
X99970305Y-51981389D01*
X99971201Y-51993910D01*
X99972291Y-51998653D01*
X99972292Y-51998660D01*
X99977452Y-52021114D01*
X99980212Y-52038806D01*
X100013736Y-52438650D01*
X100013743Y-52459626D01*
X100012078Y-52479619D01*
X100012974Y-52492140D01*
X100014066Y-52496894D01*
X100014097Y-52497098D01*
X100015627Y-52504963D01*
X100052782Y-52737557D01*
X100128143Y-52974437D01*
X100130226Y-52978667D01*
X100130227Y-52978669D01*
X100142559Y-53003710D01*
X100237968Y-53197440D01*
X100240659Y-53201313D01*
X100377113Y-53397710D01*
X100377118Y-53397717D01*
X100379804Y-53401582D01*
X100410702Y-53434298D01*
X100541224Y-53572502D01*
X100550482Y-53582305D01*
X100554187Y-53585206D01*
X100554193Y-53585212D01*
X100699815Y-53699253D01*
X100746190Y-53735570D01*
X100962555Y-53857953D01*
X101194744Y-53946721D01*
X101437570Y-53999891D01*
X101442274Y-54000202D01*
X101442276Y-54000202D01*
X101561589Y-54008083D01*
X101685609Y-54016275D01*
X101690308Y-54015881D01*
X101690311Y-54015881D01*
X101928620Y-53995901D01*
X101933319Y-53995507D01*
X102175167Y-53938050D01*
X102374056Y-53857953D01*
X102401378Y-53846950D01*
X102401381Y-53846948D01*
X102405750Y-53845189D01*
X102619916Y-53718998D01*
X102812882Y-53562295D01*
X102853140Y-53518129D01*
X102977166Y-53382061D01*
X102977167Y-53382060D01*
X102980337Y-53378582D01*
X102983266Y-53374204D01*
X103115919Y-53175882D01*
X103115921Y-53175879D01*
X103118540Y-53171963D01*
X103224404Y-52947053D01*
X103251800Y-52855357D01*
X103294215Y-52713389D01*
X103294216Y-52713385D01*
X103295563Y-52708876D01*
X103330428Y-52462754D01*
X103328513Y-52247247D01*
X103328941Y-52235704D01*
X103329694Y-52226657D01*
X103328797Y-52214136D01*
X103327708Y-52209400D01*
X103327707Y-52209391D01*
X103322548Y-52186949D01*
X103319788Y-52169267D01*
X103286263Y-51769397D01*
X103286257Y-51748431D01*
X103287517Y-51733284D01*
X103287517Y-51733282D01*
X103287921Y-51728428D01*
X103287025Y-51715907D01*
X103285935Y-51711166D01*
X103285914Y-51711023D01*
X103284352Y-51702996D01*
X103263814Y-51574454D01*
X103247204Y-51470497D01*
X103221127Y-51388536D01*
X103173266Y-51238112D01*
X103173266Y-51238111D01*
X103171838Y-51233624D01*
X103165009Y-51219757D01*
X103064092Y-51014856D01*
X103064091Y-51014854D01*
X103062010Y-51010629D01*
X103059325Y-51006764D01*
X103059321Y-51006758D01*
X102922867Y-50810371D01*
X102922866Y-50810369D01*
X102920173Y-50806494D01*
X102916933Y-50803063D01*
X102752738Y-50629212D01*
X102752733Y-50629208D01*
X102749495Y-50625779D01*
X102553790Y-50472520D01*
X102548301Y-50469415D01*
X102492722Y-50437979D01*
X102337428Y-50350142D01*
X102333026Y-50348459D01*
X102109646Y-50263061D01*
X102109643Y-50263060D01*
X102105243Y-50261378D01*
X102100635Y-50260369D01*
X101867031Y-50209220D01*
X101867029Y-50209220D01*
X101862422Y-50208211D01*
X101614389Y-50191828D01*
X101609690Y-50192222D01*
X101609687Y-50192222D01*
X101490536Y-50202212D01*
X101366684Y-50212596D01*
X101362095Y-50213686D01*
X101362096Y-50213686D01*
X101129432Y-50268959D01*
X101129428Y-50268960D01*
X101124841Y-50270050D01*
X100894263Y-50362908D01*
X100890205Y-50365299D01*
X100890199Y-50365302D01*
X100787700Y-50425696D01*
X100680100Y-50489095D01*
X100487136Y-50645791D01*
X100483954Y-50649282D01*
X100337117Y-50810371D01*
X100319682Y-50829498D01*
X100317061Y-50833417D01*
X100317059Y-50833419D01*
X100184099Y-51032192D01*
X100184095Y-51032199D01*
X100181479Y-51036110D01*
X100075613Y-51261013D01*
X100004449Y-51499182D01*
X100003788Y-51503848D01*
X100003787Y-51503852D01*
X99974976Y-51707196D01*
X99969578Y-51745298D01*
X98658500Y-51745298D01*
X98658500Y-15634500D01*
X98678502Y-15566379D01*
X98732158Y-15519886D01*
X98784500Y-15508500D01*
X122515500Y-15508500D01*
X122583621Y-15528502D01*
G37*
%TD.AperFunction*%
%TA.AperFunction,Conductor*%
G36*
X110456244Y-29232925D02*
G01*
X112107595Y-30884276D01*
X112141621Y-30946588D01*
X112144500Y-30973371D01*
X112144500Y-33696409D01*
X112124498Y-33764530D01*
X112070842Y-33811023D01*
X112000568Y-33821127D01*
X111935988Y-33791633D01*
X111910781Y-33761774D01*
X111904394Y-33751248D01*
X111904389Y-33751241D01*
X111901623Y-33746683D01*
X111814755Y-33646576D01*
X111754023Y-33576588D01*
X111754021Y-33576586D01*
X111750523Y-33572555D01*
X111708970Y-33538484D01*
X111576373Y-33429760D01*
X111576367Y-33429756D01*
X111572245Y-33426376D01*
X111567609Y-33423737D01*
X111567606Y-33423735D01*
X111376529Y-33314968D01*
X111371886Y-33312325D01*
X111155175Y-33233663D01*
X111149926Y-33232714D01*
X111149923Y-33232713D01*
X110932392Y-33193377D01*
X110932385Y-33193376D01*
X110928308Y-33192639D01*
X110910586Y-33191803D01*
X110905644Y-33191570D01*
X110905637Y-33191570D01*
X110904156Y-33191500D01*
X110442110Y-33191500D01*
X110375191Y-33197178D01*
X110275591Y-33205629D01*
X110275587Y-33205630D01*
X110270280Y-33206080D01*
X110265125Y-33207418D01*
X110265119Y-33207419D01*
X110052297Y-33262657D01*
X110052293Y-33262658D01*
X110047128Y-33263999D01*
X110042262Y-33266191D01*
X110042259Y-33266192D01*
X109933980Y-33314968D01*
X109836925Y-33358688D01*
X109645681Y-33487441D01*
X109478865Y-33646576D01*
X109341246Y-33831542D01*
X109236760Y-34037051D01*
X109168393Y-34257227D01*
X109138102Y-34485774D01*
X109146751Y-34716158D01*
X109194093Y-34941791D01*
X109278776Y-35156221D01*
X109398377Y-35353317D01*
X109401874Y-35357347D01*
X109488438Y-35457103D01*
X109549477Y-35527445D01*
X109585120Y-35556670D01*
X109625114Y-35615329D01*
X109627046Y-35686299D01*
X109590302Y-35747048D01*
X109571532Y-35761248D01*
X109480464Y-35817603D01*
X109425652Y-35851522D01*
X109300695Y-35976697D01*
X109207885Y-36127262D01*
X109152203Y-36295139D01*
X109141500Y-36399600D01*
X109141500Y-37700400D01*
X109152474Y-37806166D01*
X109208450Y-37973946D01*
X109301522Y-38124348D01*
X109426697Y-38249305D01*
X109432927Y-38253145D01*
X109432928Y-38253146D01*
X109570090Y-38337694D01*
X109577262Y-38342115D01*
X109657005Y-38368564D01*
X109738611Y-38395632D01*
X109738613Y-38395632D01*
X109745139Y-38397797D01*
X109751975Y-38398497D01*
X109751978Y-38398498D01*
X109795031Y-38402909D01*
X109849600Y-38408500D01*
X111450400Y-38408500D01*
X111453646Y-38408163D01*
X111453650Y-38408163D01*
X111549308Y-38398238D01*
X111549312Y-38398237D01*
X111556166Y-38397526D01*
X111562702Y-38395345D01*
X111562704Y-38395345D01*
X111694806Y-38351272D01*
X111723946Y-38341550D01*
X111874348Y-38248478D01*
X111929327Y-38193403D01*
X111991609Y-38159324D01*
X112062429Y-38164327D01*
X112119302Y-38206824D01*
X112144171Y-38273323D01*
X112144500Y-38282421D01*
X112144500Y-65154248D01*
X112124498Y-65222369D01*
X112070842Y-65268862D01*
X112000568Y-65278966D01*
X111974271Y-65272230D01*
X111917718Y-65251029D01*
X111917712Y-65251027D01*
X111910316Y-65248255D01*
X111848134Y-65241500D01*
X109751866Y-65241500D01*
X109689684Y-65248255D01*
X109553295Y-65299385D01*
X109436739Y-65386739D01*
X109349385Y-65503295D01*
X109298255Y-65639684D01*
X109291500Y-65701866D01*
X109291500Y-67798134D01*
X109298255Y-67860316D01*
X109349385Y-67996705D01*
X109436739Y-68113261D01*
X109553295Y-68200615D01*
X109689684Y-68251745D01*
X109751866Y-68258500D01*
X111848134Y-68258500D01*
X111910316Y-68251745D01*
X111917712Y-68248973D01*
X111917718Y-68248971D01*
X111974271Y-68227770D01*
X112045078Y-68222587D01*
X112107447Y-68256508D01*
X112141576Y-68318764D01*
X112144500Y-68345752D01*
X112144500Y-91018129D01*
X112124498Y-91086250D01*
X112107595Y-91107224D01*
X108034595Y-95180224D01*
X107972283Y-95214250D01*
X107901468Y-95209185D01*
X107844632Y-95166638D01*
X107819821Y-95100118D01*
X107819500Y-95091129D01*
X107819500Y-51652871D01*
X107839502Y-51584750D01*
X107856405Y-51563776D01*
X108388911Y-51031270D01*
X108403323Y-51018884D01*
X108414918Y-51010351D01*
X108414923Y-51010346D01*
X108420818Y-51006008D01*
X108425557Y-51000430D01*
X108425560Y-51000427D01*
X108455035Y-50965732D01*
X108461965Y-50958216D01*
X108467660Y-50952521D01*
X108485281Y-50930249D01*
X108488072Y-50926845D01*
X108530591Y-50876797D01*
X108530592Y-50876795D01*
X108535333Y-50871215D01*
X108538661Y-50864699D01*
X108542028Y-50859650D01*
X108545195Y-50854521D01*
X108549734Y-50848784D01*
X108580655Y-50782625D01*
X108582561Y-50778725D01*
X108605617Y-50733573D01*
X108615769Y-50713692D01*
X108617508Y-50706584D01*
X108619607Y-50700941D01*
X108621524Y-50695178D01*
X108624622Y-50688550D01*
X108639487Y-50617083D01*
X108640457Y-50612799D01*
X108657808Y-50541890D01*
X108658500Y-50530736D01*
X108658536Y-50530738D01*
X108658775Y-50526745D01*
X108659149Y-50522553D01*
X108660640Y-50515385D01*
X108658546Y-50437979D01*
X108658500Y-50434572D01*
X108658500Y-30916371D01*
X108678502Y-30848250D01*
X108695405Y-30827276D01*
X110138911Y-29383770D01*
X110153323Y-29371384D01*
X110164918Y-29362851D01*
X110164923Y-29362846D01*
X110170818Y-29358508D01*
X110175557Y-29352930D01*
X110175560Y-29352927D01*
X110205035Y-29318232D01*
X110211965Y-29310716D01*
X110217661Y-29305020D01*
X110219924Y-29302159D01*
X110219929Y-29302154D01*
X110235293Y-29282734D01*
X110238083Y-29279332D01*
X110271125Y-29240440D01*
X110330474Y-29201476D01*
X110401467Y-29200784D01*
X110456244Y-29232925D01*
G37*
%TD.AperFunction*%
%TD*%
M02*
