%TF.GenerationSoftware,KiCad,Pcbnew,(6.0.4-0)*%
%TF.CreationDate,2022-12-23T17:02:00+01:00*%
%TF.ProjectId,ControllerBoard,436f6e74-726f-46c6-9c65-72426f617264,rev?*%
%TF.SameCoordinates,Original*%
%TF.FileFunction,Legend,Bot*%
%TF.FilePolarity,Positive*%
%FSLAX46Y46*%
G04 Gerber Fmt 4.6, Leading zero omitted, Abs format (unit mm)*
G04 Created by KiCad (PCBNEW (6.0.4-0)) date 2022-12-23 17:02:00*
%MOMM*%
%LPD*%
G01*
G04 APERTURE LIST*
G04 Aperture macros list*
%AMRoundRect*
0 Rectangle with rounded corners*
0 $1 Rounding radius*
0 $2 $3 $4 $5 $6 $7 $8 $9 X,Y pos of 4 corners*
0 Add a 4 corners polygon primitive as box body*
4,1,4,$2,$3,$4,$5,$6,$7,$8,$9,$2,$3,0*
0 Add four circle primitives for the rounded corners*
1,1,$1+$1,$2,$3*
1,1,$1+$1,$4,$5*
1,1,$1+$1,$6,$7*
1,1,$1+$1,$8,$9*
0 Add four rect primitives between the rounded corners*
20,1,$1+$1,$2,$3,$4,$5,0*
20,1,$1+$1,$4,$5,$6,$7,0*
20,1,$1+$1,$6,$7,$8,$9,0*
20,1,$1+$1,$8,$9,$2,$3,0*%
G04 Aperture macros list end*
%ADD10C,0.200000*%
%ADD11C,0.150000*%
%ADD12C,0.010000*%
%ADD13C,0.120000*%
%ADD14RoundRect,0.250000X-0.600000X-0.750000X0.600000X-0.750000X0.600000X0.750000X-0.600000X0.750000X0*%
%ADD15O,1.700000X2.000000*%
%ADD16R,1.600000X1.600000*%
%ADD17C,1.600000*%
%ADD18O,0.900000X1.500000*%
%ADD19RoundRect,0.150000X-0.150000X-0.625000X0.150000X-0.625000X0.150000X0.625000X-0.150000X0.625000X0*%
%ADD20RoundRect,0.250000X-0.350000X-0.650000X0.350000X-0.650000X0.350000X0.650000X-0.350000X0.650000X0*%
%ADD21C,2.640000*%
%ADD22R,2.000000X2.000000*%
%ADD23C,2.000000*%
G04 APERTURE END LIST*
D10*
X120267809Y-134183380D02*
X120267809Y-133183380D01*
X119934476Y-133897666D01*
X119601142Y-133183380D01*
X119601142Y-134183380D01*
X118553523Y-134088142D02*
X118601142Y-134135761D01*
X118744000Y-134183380D01*
X118839238Y-134183380D01*
X118982095Y-134135761D01*
X119077333Y-134040523D01*
X119124952Y-133945285D01*
X119172571Y-133754809D01*
X119172571Y-133611952D01*
X119124952Y-133421476D01*
X119077333Y-133326238D01*
X118982095Y-133231000D01*
X118839238Y-133183380D01*
X118744000Y-133183380D01*
X118601142Y-133231000D01*
X118553523Y-133278619D01*
X118124952Y-133183380D02*
X118124952Y-133992904D01*
X118077333Y-134088142D01*
X118029714Y-134135761D01*
X117934476Y-134183380D01*
X117744000Y-134183380D01*
X117648761Y-134135761D01*
X117601142Y-134088142D01*
X117553523Y-133992904D01*
X117553523Y-133183380D01*
X116315428Y-134183380D02*
X116315428Y-133183380D01*
X116315428Y-133564333D02*
X116220190Y-133516714D01*
X116029714Y-133516714D01*
X115934476Y-133564333D01*
X115886857Y-133611952D01*
X115839238Y-133707190D01*
X115839238Y-133992904D01*
X115886857Y-134088142D01*
X115934476Y-134135761D01*
X116029714Y-134183380D01*
X116220190Y-134183380D01*
X116315428Y-134135761D01*
X115267809Y-134183380D02*
X115363047Y-134135761D01*
X115410666Y-134088142D01*
X115458285Y-133992904D01*
X115458285Y-133707190D01*
X115410666Y-133611952D01*
X115363047Y-133564333D01*
X115267809Y-133516714D01*
X115124952Y-133516714D01*
X115029714Y-133564333D01*
X114982095Y-133611952D01*
X114934476Y-133707190D01*
X114934476Y-133992904D01*
X114982095Y-134088142D01*
X115029714Y-134135761D01*
X115124952Y-134183380D01*
X115267809Y-134183380D01*
X114077333Y-134183380D02*
X114077333Y-133659571D01*
X114124952Y-133564333D01*
X114220190Y-133516714D01*
X114410666Y-133516714D01*
X114505904Y-133564333D01*
X114077333Y-134135761D02*
X114172571Y-134183380D01*
X114410666Y-134183380D01*
X114505904Y-134135761D01*
X114553523Y-134040523D01*
X114553523Y-133945285D01*
X114505904Y-133850047D01*
X114410666Y-133802428D01*
X114172571Y-133802428D01*
X114077333Y-133754809D01*
X113601142Y-134183380D02*
X113601142Y-133516714D01*
X113601142Y-133707190D02*
X113553523Y-133611952D01*
X113505904Y-133564333D01*
X113410666Y-133516714D01*
X113315428Y-133516714D01*
X112553523Y-134183380D02*
X112553523Y-133183380D01*
X112553523Y-134135761D02*
X112648761Y-134183380D01*
X112839238Y-134183380D01*
X112934476Y-134135761D01*
X112982095Y-134088142D01*
X113029714Y-133992904D01*
X113029714Y-133707190D01*
X112982095Y-133611952D01*
X112934476Y-133564333D01*
X112839238Y-133516714D01*
X112648761Y-133516714D01*
X112553523Y-133564333D01*
X111315428Y-133802428D02*
X110553523Y-133802428D01*
X109458285Y-133183380D02*
X109124952Y-134183380D01*
X108791619Y-133183380D01*
X108077333Y-134135761D02*
X108172571Y-134183380D01*
X108363047Y-134183380D01*
X108458285Y-134135761D01*
X108505904Y-134040523D01*
X108505904Y-133659571D01*
X108458285Y-133564333D01*
X108363047Y-133516714D01*
X108172571Y-133516714D01*
X108077333Y-133564333D01*
X108029714Y-133659571D01*
X108029714Y-133754809D01*
X108505904Y-133850047D01*
X107601142Y-134183380D02*
X107601142Y-133516714D01*
X107601142Y-133707190D02*
X107553523Y-133611952D01*
X107505904Y-133564333D01*
X107410666Y-133516714D01*
X107315428Y-133516714D01*
X107029714Y-134135761D02*
X106934476Y-134183380D01*
X106744000Y-134183380D01*
X106648761Y-134135761D01*
X106601142Y-134040523D01*
X106601142Y-133992904D01*
X106648761Y-133897666D01*
X106744000Y-133850047D01*
X106886857Y-133850047D01*
X106982095Y-133802428D01*
X107029714Y-133707190D01*
X107029714Y-133659571D01*
X106982095Y-133564333D01*
X106886857Y-133516714D01*
X106744000Y-133516714D01*
X106648761Y-133564333D01*
X106172571Y-134183380D02*
X106172571Y-133516714D01*
X106172571Y-133183380D02*
X106220190Y-133231000D01*
X106172571Y-133278619D01*
X106124952Y-133231000D01*
X106172571Y-133183380D01*
X106172571Y-133278619D01*
X105553523Y-134183380D02*
X105648761Y-134135761D01*
X105696380Y-134088142D01*
X105744000Y-133992904D01*
X105744000Y-133707190D01*
X105696380Y-133611952D01*
X105648761Y-133564333D01*
X105553523Y-133516714D01*
X105410666Y-133516714D01*
X105315428Y-133564333D01*
X105267809Y-133611952D01*
X105220190Y-133707190D01*
X105220190Y-133992904D01*
X105267809Y-134088142D01*
X105315428Y-134135761D01*
X105410666Y-134183380D01*
X105553523Y-134183380D01*
X104791619Y-133516714D02*
X104791619Y-134183380D01*
X104791619Y-133611952D02*
X104744000Y-133564333D01*
X104648761Y-133516714D01*
X104505904Y-133516714D01*
X104410666Y-133564333D01*
X104363047Y-133659571D01*
X104363047Y-134183380D01*
X102601142Y-134183380D02*
X103172571Y-134183380D01*
X102886857Y-134183380D02*
X102886857Y-133183380D01*
X102982095Y-133326238D01*
X103077333Y-133421476D01*
X103172571Y-133469095D01*
X102172571Y-134088142D02*
X102124952Y-134135761D01*
X102172571Y-134183380D01*
X102220190Y-134135761D01*
X102172571Y-134088142D01*
X102172571Y-134183380D01*
X101505904Y-133183380D02*
X101410666Y-133183380D01*
X101315428Y-133231000D01*
X101267809Y-133278619D01*
X101220190Y-133373857D01*
X101172571Y-133564333D01*
X101172571Y-133802428D01*
X101220190Y-133992904D01*
X101267809Y-134088142D01*
X101315428Y-134135761D01*
X101410666Y-134183380D01*
X101505904Y-134183380D01*
X101601142Y-134135761D01*
X101648761Y-134088142D01*
X101696380Y-133992904D01*
X101744000Y-133802428D01*
X101744000Y-133564333D01*
X101696380Y-133373857D01*
X101648761Y-133278619D01*
X101601142Y-133231000D01*
X101505904Y-133183380D01*
D11*
%TO.C,CONN2*%
X111212095Y-51708142D02*
X111259714Y-51755761D01*
X111402571Y-51803380D01*
X111497809Y-51803380D01*
X111640666Y-51755761D01*
X111735904Y-51660523D01*
X111783523Y-51565285D01*
X111831142Y-51374809D01*
X111831142Y-51231952D01*
X111783523Y-51041476D01*
X111735904Y-50946238D01*
X111640666Y-50851000D01*
X111497809Y-50803380D01*
X111402571Y-50803380D01*
X111259714Y-50851000D01*
X111212095Y-50898619D01*
X110593047Y-50803380D02*
X110402571Y-50803380D01*
X110307333Y-50851000D01*
X110212095Y-50946238D01*
X110164476Y-51136714D01*
X110164476Y-51470047D01*
X110212095Y-51660523D01*
X110307333Y-51755761D01*
X110402571Y-51803380D01*
X110593047Y-51803380D01*
X110688285Y-51755761D01*
X110783523Y-51660523D01*
X110831142Y-51470047D01*
X110831142Y-51136714D01*
X110783523Y-50946238D01*
X110688285Y-50851000D01*
X110593047Y-50803380D01*
X109735904Y-51803380D02*
X109735904Y-50803380D01*
X109164476Y-51803380D01*
X109164476Y-50803380D01*
X108688285Y-51803380D02*
X108688285Y-50803380D01*
X108116857Y-51803380D01*
X108116857Y-50803380D01*
X107688285Y-50898619D02*
X107640666Y-50851000D01*
X107545428Y-50803380D01*
X107307333Y-50803380D01*
X107212095Y-50851000D01*
X107164476Y-50898619D01*
X107116857Y-50993857D01*
X107116857Y-51089095D01*
X107164476Y-51231952D01*
X107735904Y-51803380D01*
X107116857Y-51803380D01*
%TO.C,BT1*%
X104545571Y-62283285D02*
X104593190Y-62426142D01*
X104640809Y-62473761D01*
X104736047Y-62521380D01*
X104878904Y-62521380D01*
X104974142Y-62473761D01*
X105021761Y-62426142D01*
X105069380Y-62330904D01*
X105069380Y-61949952D01*
X104069380Y-61949952D01*
X104069380Y-62283285D01*
X104117000Y-62378523D01*
X104164619Y-62426142D01*
X104259857Y-62473761D01*
X104355095Y-62473761D01*
X104450333Y-62426142D01*
X104497952Y-62378523D01*
X104545571Y-62283285D01*
X104545571Y-61949952D01*
X104069380Y-62807095D02*
X104069380Y-63378523D01*
X105069380Y-63092809D02*
X104069380Y-63092809D01*
X105069380Y-64235666D02*
X105069380Y-63664238D01*
X105069380Y-63949952D02*
X104069380Y-63949952D01*
X104212238Y-63854714D01*
X104307476Y-63759476D01*
X104355095Y-63664238D01*
X110628428Y-59338047D02*
X110628428Y-60099952D01*
X111009380Y-59719000D02*
X110247476Y-59719000D01*
X110628428Y-118108047D02*
X110628428Y-118869952D01*
%TO.C,kibuzzard-639881D9*%
G36*
X119893747Y-129604063D02*
G01*
X119803260Y-129613588D01*
X119706422Y-129616763D01*
X119576247Y-129605650D01*
X119463535Y-129564375D01*
X119382572Y-129478650D01*
X119350822Y-129337363D01*
X119441310Y-129132575D01*
X119684197Y-129070663D01*
X119893747Y-129070663D01*
X119893747Y-129604063D01*
G37*
G36*
X116563172Y-129291325D02*
G01*
X116663185Y-129318313D01*
X116731447Y-129372288D01*
X116756847Y-129464363D01*
X116680647Y-129608825D01*
X116483797Y-129651688D01*
X116359972Y-129650100D01*
X116255197Y-129642163D01*
X116255197Y-129299263D01*
X116347272Y-129288150D01*
X116445697Y-129283388D01*
X116563172Y-129291325D01*
G37*
G36*
X113473897Y-128771419D02*
G01*
X113556447Y-128854763D01*
X113604072Y-128990494D01*
X113619947Y-129175438D01*
X113601294Y-129357206D01*
X113545335Y-129502463D01*
X113448101Y-129597713D01*
X113305622Y-129629463D01*
X113216722Y-129626288D01*
X113130997Y-129616763D01*
X113130997Y-128803962D01*
X113232597Y-128761100D01*
X113353247Y-128743637D01*
X113473897Y-128771419D01*
G37*
G36*
X118205044Y-128771022D02*
G01*
X118301485Y-128862700D01*
X118359826Y-129004384D01*
X118379272Y-129184963D01*
X118361413Y-129365938D01*
X118307835Y-129508813D01*
X118214569Y-129601681D01*
X118077647Y-129632638D01*
X117943901Y-129601681D01*
X117847460Y-129508813D01*
X117789119Y-129365938D01*
X117769672Y-129184963D01*
X117787532Y-129004384D01*
X117841110Y-128862700D01*
X117934376Y-128771022D01*
X118071297Y-128740462D01*
X118205044Y-128771022D01*
G37*
G36*
X108680044Y-128771022D02*
G01*
X108776485Y-128862700D01*
X108834826Y-129004384D01*
X108854272Y-129184963D01*
X108836413Y-129365938D01*
X108782835Y-129508813D01*
X108689569Y-129601681D01*
X108552647Y-129632638D01*
X108418901Y-129601681D01*
X108322460Y-129508813D01*
X108264119Y-129365938D01*
X108244672Y-129184963D01*
X108262532Y-129004384D01*
X108316110Y-128862700D01*
X108409376Y-128771022D01*
X108546297Y-128740462D01*
X108680044Y-128771022D01*
G37*
G36*
X119808022Y-128286437D02*
G01*
X119893747Y-128295962D01*
X119893747Y-128746812D01*
X119741347Y-128746812D01*
X119515922Y-128681725D01*
X119439722Y-128502337D01*
X119461947Y-128389625D01*
X119522272Y-128322950D01*
X119611172Y-128291200D01*
X119715947Y-128283262D01*
X119808022Y-128286437D01*
G37*
G36*
X100723097Y-127215007D02*
G01*
X121777898Y-127215007D01*
X120796903Y-130484993D01*
X99742102Y-130484993D01*
X99983521Y-129680263D01*
X106676222Y-129680263D01*
X106761947Y-129892988D01*
X106958797Y-129966013D01*
X107066747Y-129946963D01*
X107157235Y-129891400D01*
X107220735Y-129802500D01*
X107244547Y-129680263D01*
X107220735Y-129561200D01*
X107157235Y-129473888D01*
X107066747Y-129419913D01*
X106958797Y-129400863D01*
X106761947Y-129473888D01*
X106676222Y-129680263D01*
X99983521Y-129680263D01*
X100133063Y-129181788D01*
X107844622Y-129181788D01*
X107857322Y-129351253D01*
X107895422Y-129504050D01*
X107956541Y-129638591D01*
X108038297Y-129753288D01*
X108139501Y-129846156D01*
X108258960Y-129915213D01*
X108395088Y-129958075D01*
X108546297Y-129972363D01*
X108697507Y-129958075D01*
X108783217Y-129931088D01*
X109489272Y-129931088D01*
X109803597Y-129931088D01*
X109895143Y-129713247D01*
X109991981Y-129495760D01*
X110094110Y-129278625D01*
X110201531Y-129061490D01*
X110314243Y-128844003D01*
X110432247Y-128626162D01*
X110432247Y-129931088D01*
X110784672Y-129931088D01*
X110784672Y-127965762D01*
X110470347Y-127965762D01*
X110381447Y-128111416D01*
X110292547Y-128268975D01*
X110204838Y-128432091D01*
X110119510Y-128594412D01*
X110038547Y-128753956D01*
X109963935Y-128908738D01*
X109897657Y-129051613D01*
X109841697Y-129175438D01*
X109841697Y-127965762D01*
X109489272Y-127965762D01*
X109489272Y-129931088D01*
X108783217Y-129931088D01*
X108833635Y-129915213D01*
X108953491Y-129846156D01*
X109055885Y-129753288D01*
X109138832Y-129638591D01*
X109200347Y-129504050D01*
X109238447Y-129351253D01*
X109251147Y-129181788D01*
X109238051Y-129014703D01*
X109198760Y-128862700D01*
X109136054Y-128728556D01*
X109052710Y-128615050D01*
X108949919Y-128523769D01*
X108828872Y-128456300D01*
X108693141Y-128414628D01*
X108546297Y-128400737D01*
X108397469Y-128414628D01*
X108262135Y-128456300D01*
X108142279Y-128523769D01*
X108039885Y-128615050D01*
X107956938Y-128728556D01*
X107895422Y-128862700D01*
X107857322Y-129014703D01*
X107844622Y-129181788D01*
X100133063Y-129181788D01*
X100569308Y-127727637D01*
X112740472Y-127727637D01*
X112740472Y-129886638D01*
X112860329Y-129918388D01*
X113003997Y-129943788D01*
X113157985Y-129960456D01*
X113308797Y-129966013D01*
X113522757Y-129943082D01*
X113698970Y-129874290D01*
X113837435Y-129759638D01*
X113937095Y-129605121D01*
X113996890Y-129416738D01*
X114016822Y-129194488D01*
X114000065Y-128968181D01*
X113949795Y-128776093D01*
X113866010Y-128618225D01*
X113749417Y-128500926D01*
X113692025Y-128473762D01*
X114235897Y-128473762D01*
X114305747Y-128835712D01*
X114396235Y-128816662D01*
X114502597Y-128799200D01*
X114607372Y-128788087D01*
X114693097Y-128784912D01*
X114855022Y-128792850D01*
X115016947Y-128823012D01*
X115016947Y-129931088D01*
X115410647Y-129931088D01*
X115410647Y-129896163D01*
X115880547Y-129896163D01*
X116134547Y-129940613D01*
X116313141Y-129959663D01*
X116512372Y-129966013D01*
X116771135Y-129940613D01*
X116969572Y-129856475D01*
X117096572Y-129704075D01*
X117141022Y-129473888D01*
X117090222Y-129254813D01*
X117020443Y-129181788D01*
X117369622Y-129181788D01*
X117382322Y-129351253D01*
X117420422Y-129504050D01*
X117481541Y-129638591D01*
X117563297Y-129753288D01*
X117664501Y-129846156D01*
X117783960Y-129915213D01*
X117920088Y-129958075D01*
X118071297Y-129972363D01*
X118222507Y-129958075D01*
X118358635Y-129915213D01*
X118478491Y-129846156D01*
X118580885Y-129753288D01*
X118663832Y-129638591D01*
X118725347Y-129504050D01*
X118763447Y-129351253D01*
X118764488Y-129337363D01*
X118966647Y-129337363D01*
X118981729Y-129500478D01*
X119026972Y-129634225D01*
X119190485Y-129824725D01*
X119303197Y-129885844D01*
X119434960Y-129926325D01*
X119581407Y-129948947D01*
X119738172Y-129956488D01*
X119870729Y-129952916D01*
X120008047Y-129942200D01*
X120146954Y-129924341D01*
X120284272Y-129899338D01*
X120284272Y-127991162D01*
X120039797Y-127957825D01*
X119776272Y-127943537D01*
X119574660Y-127955047D01*
X119414322Y-127989575D01*
X119195247Y-128110225D01*
X119087297Y-128276912D01*
X119058722Y-128461062D01*
X119075788Y-128592825D01*
X119126985Y-128708712D01*
X119309547Y-128880163D01*
X119141669Y-128965888D01*
X119038085Y-129077013D01*
X118984507Y-129204013D01*
X118966647Y-129337363D01*
X118764488Y-129337363D01*
X118776147Y-129181788D01*
X118763051Y-129014703D01*
X118723760Y-128862700D01*
X118661054Y-128728556D01*
X118577710Y-128615050D01*
X118474919Y-128523769D01*
X118353872Y-128456300D01*
X118218141Y-128414628D01*
X118071297Y-128400737D01*
X117922469Y-128414628D01*
X117787135Y-128456300D01*
X117667279Y-128523769D01*
X117564885Y-128615050D01*
X117481938Y-128728556D01*
X117420422Y-128862700D01*
X117382322Y-129014703D01*
X117369622Y-129181788D01*
X117020443Y-129181788D01*
X116953697Y-129111938D01*
X116756847Y-129034150D01*
X116525072Y-129010338D01*
X116381404Y-129016688D01*
X116255197Y-129035738D01*
X116255197Y-128988113D01*
X116325047Y-128802375D01*
X116420297Y-128746416D01*
X116566347Y-128727762D01*
X116780660Y-128743637D01*
X116947347Y-128781737D01*
X117001322Y-128467412D01*
X116794947Y-128421375D01*
X116659216Y-128405897D01*
X116518722Y-128400737D01*
X116350051Y-128411453D01*
X116212335Y-128443600D01*
X116017072Y-128564250D01*
X115912297Y-128754750D01*
X115880547Y-129007163D01*
X115880547Y-129896163D01*
X115410647Y-129896163D01*
X115410647Y-128537262D01*
X115253088Y-128485669D01*
X115091560Y-128445187D01*
X114914157Y-128418994D01*
X114708972Y-128410262D01*
X114618485Y-128413437D01*
X114493072Y-128424550D01*
X114358135Y-128443600D01*
X114235897Y-128473762D01*
X113692025Y-128473762D01*
X113600721Y-128430547D01*
X113419922Y-128407087D01*
X113264347Y-128424550D01*
X113130997Y-128473762D01*
X113130997Y-127794312D01*
X112740472Y-127727637D01*
X100569308Y-127727637D01*
X100723097Y-127215007D01*
G37*
%TO.C,OSH logo*%
G36*
X107679574Y-123878643D02*
G01*
X107676066Y-123910021D01*
X107649927Y-124021705D01*
X107602694Y-124106642D01*
X107530862Y-124171741D01*
X107526802Y-124174428D01*
X107435487Y-124212634D01*
X107340144Y-124216034D01*
X107248274Y-124186939D01*
X107167379Y-124127660D01*
X107104962Y-124040510D01*
X107103914Y-124038409D01*
X107083173Y-123984289D01*
X107067980Y-123922781D01*
X107059921Y-123865039D01*
X107060582Y-123822215D01*
X107071548Y-123805462D01*
X107081290Y-123806480D01*
X107127877Y-123825009D01*
X107180682Y-123859081D01*
X107225603Y-123898522D01*
X107248535Y-123933155D01*
X107272373Y-123980133D01*
X107321230Y-124022862D01*
X107377963Y-124039923D01*
X107398758Y-124034990D01*
X107439804Y-124010157D01*
X107475557Y-123975685D01*
X107490846Y-123944411D01*
X107490842Y-123944295D01*
X107473495Y-123929933D01*
X107427247Y-123904025D01*
X107359067Y-123870210D01*
X107275923Y-123832129D01*
X107275466Y-123831927D01*
X107185138Y-123791709D01*
X107124592Y-123762733D01*
X107087888Y-123740474D01*
X107069086Y-123720407D01*
X107062246Y-123698009D01*
X107061429Y-123668756D01*
X107067113Y-123613363D01*
X107260000Y-123613363D01*
X107279911Y-123630777D01*
X107329521Y-123656872D01*
X107330976Y-123657610D01*
X107389506Y-123685483D01*
X107441868Y-123707719D01*
X107475086Y-123717126D01*
X107488410Y-123704552D01*
X107490846Y-123661468D01*
X107480724Y-123607847D01*
X107445631Y-123559119D01*
X107394823Y-123533856D01*
X107338181Y-123536406D01*
X107285584Y-123571120D01*
X107264910Y-123595107D01*
X107260000Y-123613363D01*
X107067113Y-123613363D01*
X107068622Y-123598654D01*
X107104184Y-123503412D01*
X107163714Y-123428567D01*
X107240746Y-123376745D01*
X107328815Y-123350573D01*
X107421454Y-123352676D01*
X107512198Y-123385681D01*
X107594579Y-123452215D01*
X107640222Y-123518055D01*
X107673008Y-123612036D01*
X107678339Y-123661468D01*
X107685787Y-123730536D01*
X107679574Y-123878643D01*
G37*
D12*
X107679574Y-123878643D02*
X107676066Y-123910021D01*
X107649927Y-124021705D01*
X107602694Y-124106642D01*
X107530862Y-124171741D01*
X107526802Y-124174428D01*
X107435487Y-124212634D01*
X107340144Y-124216034D01*
X107248274Y-124186939D01*
X107167379Y-124127660D01*
X107104962Y-124040510D01*
X107103914Y-124038409D01*
X107083173Y-123984289D01*
X107067980Y-123922781D01*
X107059921Y-123865039D01*
X107060582Y-123822215D01*
X107071548Y-123805462D01*
X107081290Y-123806480D01*
X107127877Y-123825009D01*
X107180682Y-123859081D01*
X107225603Y-123898522D01*
X107248535Y-123933155D01*
X107272373Y-123980133D01*
X107321230Y-124022862D01*
X107377963Y-124039923D01*
X107398758Y-124034990D01*
X107439804Y-124010157D01*
X107475557Y-123975685D01*
X107490846Y-123944411D01*
X107490842Y-123944295D01*
X107473495Y-123929933D01*
X107427247Y-123904025D01*
X107359067Y-123870210D01*
X107275923Y-123832129D01*
X107275466Y-123831927D01*
X107185138Y-123791709D01*
X107124592Y-123762733D01*
X107087888Y-123740474D01*
X107069086Y-123720407D01*
X107062246Y-123698009D01*
X107061429Y-123668756D01*
X107067113Y-123613363D01*
X107260000Y-123613363D01*
X107279911Y-123630777D01*
X107329521Y-123656872D01*
X107330976Y-123657610D01*
X107389506Y-123685483D01*
X107441868Y-123707719D01*
X107475086Y-123717126D01*
X107488410Y-123704552D01*
X107490846Y-123661468D01*
X107480724Y-123607847D01*
X107445631Y-123559119D01*
X107394823Y-123533856D01*
X107338181Y-123536406D01*
X107285584Y-123571120D01*
X107264910Y-123595107D01*
X107260000Y-123613363D01*
X107067113Y-123613363D01*
X107068622Y-123598654D01*
X107104184Y-123503412D01*
X107163714Y-123428567D01*
X107240746Y-123376745D01*
X107328815Y-123350573D01*
X107421454Y-123352676D01*
X107512198Y-123385681D01*
X107594579Y-123452215D01*
X107640222Y-123518055D01*
X107673008Y-123612036D01*
X107678339Y-123661468D01*
X107685787Y-123730536D01*
X107679574Y-123878643D01*
G36*
X104792575Y-117064693D02*
G01*
X104928371Y-117064807D01*
X105030576Y-117065472D01*
X105104122Y-117067182D01*
X105153942Y-117070429D01*
X105184967Y-117075706D01*
X105202129Y-117083507D01*
X105210361Y-117094325D01*
X105214594Y-117108654D01*
X105214716Y-117109168D01*
X105221672Y-117142851D01*
X105234320Y-117207917D01*
X105251360Y-117297542D01*
X105271496Y-117404904D01*
X105293429Y-117523178D01*
X105295218Y-117532856D01*
X105317083Y-117647650D01*
X105337430Y-117748480D01*
X105354934Y-117829217D01*
X105368271Y-117883734D01*
X105376116Y-117905901D01*
X105376158Y-117905936D01*
X105400884Y-117918200D01*
X105451631Y-117938576D01*
X105517462Y-117962674D01*
X105521169Y-117963983D01*
X105605331Y-117995791D01*
X105703230Y-118035685D01*
X105794435Y-118075353D01*
X105944407Y-118143420D01*
X106276499Y-117916639D01*
X106299889Y-117900688D01*
X106400080Y-117832890D01*
X106489480Y-117773208D01*
X106562745Y-117725156D01*
X106614527Y-117692250D01*
X106639480Y-117678004D01*
X106656577Y-117681270D01*
X106695395Y-117706571D01*
X106755385Y-117756675D01*
X106838210Y-117832989D01*
X106945535Y-117936922D01*
X106955139Y-117946382D01*
X107040302Y-118031145D01*
X107115949Y-118107937D01*
X107177449Y-118171947D01*
X107220173Y-118218361D01*
X107239489Y-118242369D01*
X107239552Y-118242485D01*
X107242006Y-118260763D01*
X107232956Y-118290411D01*
X107210119Y-118335486D01*
X107171213Y-118400044D01*
X107113954Y-118488140D01*
X107036059Y-118603830D01*
X107022785Y-118623357D01*
X106955652Y-118722278D01*
X106896410Y-118809848D01*
X106848588Y-118880831D01*
X106815715Y-118929991D01*
X106801318Y-118952095D01*
X106800232Y-118956777D01*
X106807044Y-118991710D01*
X106827450Y-119048753D01*
X106858123Y-119118172D01*
X106899808Y-119208959D01*
X106946352Y-119316686D01*
X106985877Y-119414192D01*
X106995676Y-119439430D01*
X107021340Y-119503870D01*
X107040193Y-119548763D01*
X107048710Y-119565616D01*
X107058111Y-119566875D01*
X107100363Y-119574159D01*
X107169521Y-119586739D01*
X107258387Y-119603246D01*
X107359768Y-119622312D01*
X107466467Y-119642569D01*
X107571288Y-119662647D01*
X107667036Y-119681179D01*
X107746516Y-119696795D01*
X107802530Y-119708127D01*
X107827885Y-119713807D01*
X107832088Y-119715408D01*
X107842334Y-119724045D01*
X107849957Y-119742433D01*
X107855338Y-119775460D01*
X107858859Y-119828013D01*
X107860901Y-119904979D01*
X107861847Y-120011246D01*
X107862077Y-120151701D01*
X107862077Y-120578845D01*
X107759500Y-120599091D01*
X107747092Y-120601518D01*
X107681199Y-120614088D01*
X107590084Y-120631170D01*
X107484104Y-120650829D01*
X107373615Y-120671132D01*
X107330105Y-120679299D01*
X107232882Y-120699167D01*
X107151858Y-120717954D01*
X107094477Y-120733859D01*
X107068187Y-120745079D01*
X107056273Y-120763411D01*
X107034583Y-120811916D01*
X107012395Y-120874692D01*
X107004585Y-120898200D01*
X106975835Y-120975366D01*
X106938752Y-121066694D01*
X106899375Y-121157093D01*
X106878315Y-121204310D01*
X106848311Y-121274837D01*
X106827692Y-121327655D01*
X106820026Y-121353912D01*
X106820452Y-121355894D01*
X106834993Y-121383751D01*
X106867783Y-121437510D01*
X106915493Y-121511963D01*
X106974798Y-121601897D01*
X107042369Y-121702104D01*
X107264713Y-122028416D01*
X106972601Y-122321016D01*
X106944349Y-122349171D01*
X106857961Y-122433449D01*
X106780756Y-122506128D01*
X106717258Y-122563112D01*
X106671990Y-122600307D01*
X106649474Y-122613616D01*
X106625023Y-122603490D01*
X106573819Y-122574421D01*
X106501747Y-122529896D01*
X106414460Y-122473411D01*
X106317612Y-122408462D01*
X106222486Y-122344314D01*
X106136669Y-122287827D01*
X106066652Y-122243184D01*
X106017876Y-122213855D01*
X105995783Y-122203308D01*
X105994488Y-122203404D01*
X105965139Y-122213802D01*
X105913093Y-122238012D01*
X105848708Y-122271249D01*
X105848032Y-122271613D01*
X105762521Y-122314441D01*
X105703926Y-122335365D01*
X105667571Y-122335423D01*
X105648775Y-122315654D01*
X105640819Y-122296195D01*
X105619347Y-122244080D01*
X105586273Y-122163964D01*
X105543356Y-122060107D01*
X105492356Y-121936767D01*
X105435033Y-121798201D01*
X105373146Y-121648670D01*
X105317052Y-121512636D01*
X105259977Y-121373050D01*
X105209479Y-121248315D01*
X105167254Y-121142672D01*
X105134995Y-121060365D01*
X105114397Y-121005635D01*
X105107154Y-120982726D01*
X105120986Y-120961718D01*
X105159412Y-120926642D01*
X105213807Y-120885887D01*
X105344395Y-120779267D01*
X105461260Y-120643025D01*
X105546780Y-120493118D01*
X105600431Y-120333971D01*
X105621684Y-120170012D01*
X105610014Y-120005667D01*
X105564894Y-119845361D01*
X105485797Y-119693520D01*
X105372197Y-119554572D01*
X105312965Y-119500460D01*
X105171054Y-119404782D01*
X105019206Y-119342405D01*
X104861861Y-119311844D01*
X104703456Y-119311615D01*
X104548429Y-119340232D01*
X104401220Y-119396210D01*
X104266266Y-119478064D01*
X104148005Y-119584309D01*
X104050877Y-119713459D01*
X103979318Y-119864031D01*
X103937769Y-120034539D01*
X103930143Y-120116722D01*
X103940634Y-120294775D01*
X103987882Y-120463704D01*
X104070489Y-120620522D01*
X104187059Y-120762245D01*
X104336193Y-120885887D01*
X104388561Y-120924982D01*
X104427832Y-120960443D01*
X104442846Y-120982692D01*
X104436859Y-121002088D01*
X104417432Y-121054059D01*
X104386194Y-121134002D01*
X104344839Y-121237673D01*
X104295061Y-121360832D01*
X104238553Y-121499234D01*
X104177009Y-121648637D01*
X104121008Y-121784020D01*
X104063184Y-121923852D01*
X104011500Y-122048872D01*
X103967718Y-122154822D01*
X103933597Y-122237441D01*
X103910898Y-122292472D01*
X103901380Y-122315654D01*
X103901269Y-122315928D01*
X103882228Y-122335503D01*
X103845694Y-122335279D01*
X103786954Y-122314210D01*
X103701292Y-122271249D01*
X103694549Y-122267631D01*
X103630938Y-122235087D01*
X103580707Y-122212050D01*
X103554218Y-122203308D01*
X103532506Y-122213639D01*
X103483984Y-122242788D01*
X103414163Y-122287287D01*
X103328484Y-122343668D01*
X103232388Y-122408462D01*
X103137706Y-122471984D01*
X103050132Y-122528705D01*
X102977642Y-122573547D01*
X102925889Y-122603016D01*
X102900526Y-122613616D01*
X102896206Y-122612270D01*
X102866092Y-122591056D01*
X102814640Y-122547237D01*
X102746375Y-122484909D01*
X102665820Y-122408170D01*
X102577500Y-122321116D01*
X102285488Y-122028617D01*
X102740360Y-121359525D01*
X102671208Y-121209916D01*
X102671003Y-121209473D01*
X102629477Y-121114101D01*
X102587044Y-121007896D01*
X102552858Y-120913769D01*
X102547684Y-120898588D01*
X102521601Y-120828109D01*
X102498081Y-120773342D01*
X102481677Y-120745079D01*
X102474996Y-120741088D01*
X102434892Y-120727697D01*
X102366795Y-120710373D01*
X102278145Y-120690917D01*
X102176385Y-120671132D01*
X102145904Y-120665551D01*
X102035628Y-120645233D01*
X101932731Y-120626095D01*
X101847569Y-120610070D01*
X101790500Y-120599091D01*
X101687923Y-120578845D01*
X101687923Y-120151701D01*
X101687946Y-120099180D01*
X101688379Y-119971047D01*
X101689659Y-119875420D01*
X101692168Y-119807411D01*
X101696286Y-119762133D01*
X101702395Y-119734697D01*
X101710878Y-119720218D01*
X101722115Y-119713807D01*
X101732994Y-119711209D01*
X101777347Y-119702022D01*
X101848106Y-119687991D01*
X101938074Y-119670486D01*
X102040056Y-119650874D01*
X102146857Y-119630525D01*
X102251281Y-119610807D01*
X102346132Y-119593089D01*
X102424214Y-119578738D01*
X102478332Y-119569124D01*
X102501291Y-119565616D01*
X102502842Y-119563497D01*
X102515325Y-119536006D01*
X102536927Y-119483406D01*
X102564123Y-119414192D01*
X102601866Y-119320937D01*
X102648328Y-119213159D01*
X102691878Y-119118172D01*
X102701858Y-119096851D01*
X102729862Y-119030086D01*
X102746641Y-118978590D01*
X102748854Y-118952095D01*
X102747713Y-118950218D01*
X102729584Y-118922565D01*
X102693644Y-118868849D01*
X102643418Y-118794303D01*
X102582430Y-118704162D01*
X102514205Y-118603657D01*
X102437330Y-118489470D01*
X102379663Y-118400770D01*
X102340426Y-118335721D01*
X102317350Y-118290295D01*
X102308166Y-118260463D01*
X102310604Y-118242195D01*
X102311424Y-118240825D01*
X102333477Y-118214205D01*
X102378436Y-118165697D01*
X102441673Y-118100108D01*
X102518559Y-118022247D01*
X102604465Y-117936922D01*
X102693579Y-117850334D01*
X102780872Y-117768947D01*
X102845018Y-117714035D01*
X102887679Y-117684190D01*
X102910521Y-117678004D01*
X102913505Y-117679394D01*
X102944936Y-117698127D01*
X103001997Y-117734733D01*
X103079343Y-117785697D01*
X103171626Y-117847504D01*
X103273502Y-117916639D01*
X103605593Y-118143420D01*
X103755566Y-118075353D01*
X103759923Y-118073381D01*
X103852000Y-118033491D01*
X103949683Y-117993818D01*
X104032539Y-117962674D01*
X104032905Y-117962545D01*
X104098685Y-117938456D01*
X104149323Y-117918110D01*
X104173884Y-117905901D01*
X104174282Y-117905458D01*
X104182619Y-117880456D01*
X104196341Y-117823598D01*
X104214123Y-117741014D01*
X104234641Y-117638831D01*
X104256571Y-117523178D01*
X104257336Y-117519033D01*
X104279229Y-117401019D01*
X104299281Y-117294151D01*
X104316192Y-117205252D01*
X104328667Y-117141145D01*
X104335406Y-117108654D01*
X104335837Y-117106853D01*
X104340273Y-117092944D01*
X104349263Y-117082489D01*
X104367737Y-117074996D01*
X104400628Y-117069972D01*
X104452868Y-117066922D01*
X104529388Y-117065355D01*
X104635122Y-117064776D01*
X104775000Y-117064692D01*
X104792575Y-117064693D01*
G37*
X104792575Y-117064693D02*
X104928371Y-117064807D01*
X105030576Y-117065472D01*
X105104122Y-117067182D01*
X105153942Y-117070429D01*
X105184967Y-117075706D01*
X105202129Y-117083507D01*
X105210361Y-117094325D01*
X105214594Y-117108654D01*
X105214716Y-117109168D01*
X105221672Y-117142851D01*
X105234320Y-117207917D01*
X105251360Y-117297542D01*
X105271496Y-117404904D01*
X105293429Y-117523178D01*
X105295218Y-117532856D01*
X105317083Y-117647650D01*
X105337430Y-117748480D01*
X105354934Y-117829217D01*
X105368271Y-117883734D01*
X105376116Y-117905901D01*
X105376158Y-117905936D01*
X105400884Y-117918200D01*
X105451631Y-117938576D01*
X105517462Y-117962674D01*
X105521169Y-117963983D01*
X105605331Y-117995791D01*
X105703230Y-118035685D01*
X105794435Y-118075353D01*
X105944407Y-118143420D01*
X106276499Y-117916639D01*
X106299889Y-117900688D01*
X106400080Y-117832890D01*
X106489480Y-117773208D01*
X106562745Y-117725156D01*
X106614527Y-117692250D01*
X106639480Y-117678004D01*
X106656577Y-117681270D01*
X106695395Y-117706571D01*
X106755385Y-117756675D01*
X106838210Y-117832989D01*
X106945535Y-117936922D01*
X106955139Y-117946382D01*
X107040302Y-118031145D01*
X107115949Y-118107937D01*
X107177449Y-118171947D01*
X107220173Y-118218361D01*
X107239489Y-118242369D01*
X107239552Y-118242485D01*
X107242006Y-118260763D01*
X107232956Y-118290411D01*
X107210119Y-118335486D01*
X107171213Y-118400044D01*
X107113954Y-118488140D01*
X107036059Y-118603830D01*
X107022785Y-118623357D01*
X106955652Y-118722278D01*
X106896410Y-118809848D01*
X106848588Y-118880831D01*
X106815715Y-118929991D01*
X106801318Y-118952095D01*
X106800232Y-118956777D01*
X106807044Y-118991710D01*
X106827450Y-119048753D01*
X106858123Y-119118172D01*
X106899808Y-119208959D01*
X106946352Y-119316686D01*
X106985877Y-119414192D01*
X106995676Y-119439430D01*
X107021340Y-119503870D01*
X107040193Y-119548763D01*
X107048710Y-119565616D01*
X107058111Y-119566875D01*
X107100363Y-119574159D01*
X107169521Y-119586739D01*
X107258387Y-119603246D01*
X107359768Y-119622312D01*
X107466467Y-119642569D01*
X107571288Y-119662647D01*
X107667036Y-119681179D01*
X107746516Y-119696795D01*
X107802530Y-119708127D01*
X107827885Y-119713807D01*
X107832088Y-119715408D01*
X107842334Y-119724045D01*
X107849957Y-119742433D01*
X107855338Y-119775460D01*
X107858859Y-119828013D01*
X107860901Y-119904979D01*
X107861847Y-120011246D01*
X107862077Y-120151701D01*
X107862077Y-120578845D01*
X107759500Y-120599091D01*
X107747092Y-120601518D01*
X107681199Y-120614088D01*
X107590084Y-120631170D01*
X107484104Y-120650829D01*
X107373615Y-120671132D01*
X107330105Y-120679299D01*
X107232882Y-120699167D01*
X107151858Y-120717954D01*
X107094477Y-120733859D01*
X107068187Y-120745079D01*
X107056273Y-120763411D01*
X107034583Y-120811916D01*
X107012395Y-120874692D01*
X107004585Y-120898200D01*
X106975835Y-120975366D01*
X106938752Y-121066694D01*
X106899375Y-121157093D01*
X106878315Y-121204310D01*
X106848311Y-121274837D01*
X106827692Y-121327655D01*
X106820026Y-121353912D01*
X106820452Y-121355894D01*
X106834993Y-121383751D01*
X106867783Y-121437510D01*
X106915493Y-121511963D01*
X106974798Y-121601897D01*
X107042369Y-121702104D01*
X107264713Y-122028416D01*
X106972601Y-122321016D01*
X106944349Y-122349171D01*
X106857961Y-122433449D01*
X106780756Y-122506128D01*
X106717258Y-122563112D01*
X106671990Y-122600307D01*
X106649474Y-122613616D01*
X106625023Y-122603490D01*
X106573819Y-122574421D01*
X106501747Y-122529896D01*
X106414460Y-122473411D01*
X106317612Y-122408462D01*
X106222486Y-122344314D01*
X106136669Y-122287827D01*
X106066652Y-122243184D01*
X106017876Y-122213855D01*
X105995783Y-122203308D01*
X105994488Y-122203404D01*
X105965139Y-122213802D01*
X105913093Y-122238012D01*
X105848708Y-122271249D01*
X105848032Y-122271613D01*
X105762521Y-122314441D01*
X105703926Y-122335365D01*
X105667571Y-122335423D01*
X105648775Y-122315654D01*
X105640819Y-122296195D01*
X105619347Y-122244080D01*
X105586273Y-122163964D01*
X105543356Y-122060107D01*
X105492356Y-121936767D01*
X105435033Y-121798201D01*
X105373146Y-121648670D01*
X105317052Y-121512636D01*
X105259977Y-121373050D01*
X105209479Y-121248315D01*
X105167254Y-121142672D01*
X105134995Y-121060365D01*
X105114397Y-121005635D01*
X105107154Y-120982726D01*
X105120986Y-120961718D01*
X105159412Y-120926642D01*
X105213807Y-120885887D01*
X105344395Y-120779267D01*
X105461260Y-120643025D01*
X105546780Y-120493118D01*
X105600431Y-120333971D01*
X105621684Y-120170012D01*
X105610014Y-120005667D01*
X105564894Y-119845361D01*
X105485797Y-119693520D01*
X105372197Y-119554572D01*
X105312965Y-119500460D01*
X105171054Y-119404782D01*
X105019206Y-119342405D01*
X104861861Y-119311844D01*
X104703456Y-119311615D01*
X104548429Y-119340232D01*
X104401220Y-119396210D01*
X104266266Y-119478064D01*
X104148005Y-119584309D01*
X104050877Y-119713459D01*
X103979318Y-119864031D01*
X103937769Y-120034539D01*
X103930143Y-120116722D01*
X103940634Y-120294775D01*
X103987882Y-120463704D01*
X104070489Y-120620522D01*
X104187059Y-120762245D01*
X104336193Y-120885887D01*
X104388561Y-120924982D01*
X104427832Y-120960443D01*
X104442846Y-120982692D01*
X104436859Y-121002088D01*
X104417432Y-121054059D01*
X104386194Y-121134002D01*
X104344839Y-121237673D01*
X104295061Y-121360832D01*
X104238553Y-121499234D01*
X104177009Y-121648637D01*
X104121008Y-121784020D01*
X104063184Y-121923852D01*
X104011500Y-122048872D01*
X103967718Y-122154822D01*
X103933597Y-122237441D01*
X103910898Y-122292472D01*
X103901380Y-122315654D01*
X103901269Y-122315928D01*
X103882228Y-122335503D01*
X103845694Y-122335279D01*
X103786954Y-122314210D01*
X103701292Y-122271249D01*
X103694549Y-122267631D01*
X103630938Y-122235087D01*
X103580707Y-122212050D01*
X103554218Y-122203308D01*
X103532506Y-122213639D01*
X103483984Y-122242788D01*
X103414163Y-122287287D01*
X103328484Y-122343668D01*
X103232388Y-122408462D01*
X103137706Y-122471984D01*
X103050132Y-122528705D01*
X102977642Y-122573547D01*
X102925889Y-122603016D01*
X102900526Y-122613616D01*
X102896206Y-122612270D01*
X102866092Y-122591056D01*
X102814640Y-122547237D01*
X102746375Y-122484909D01*
X102665820Y-122408170D01*
X102577500Y-122321116D01*
X102285488Y-122028617D01*
X102740360Y-121359525D01*
X102671208Y-121209916D01*
X102671003Y-121209473D01*
X102629477Y-121114101D01*
X102587044Y-121007896D01*
X102552858Y-120913769D01*
X102547684Y-120898588D01*
X102521601Y-120828109D01*
X102498081Y-120773342D01*
X102481677Y-120745079D01*
X102474996Y-120741088D01*
X102434892Y-120727697D01*
X102366795Y-120710373D01*
X102278145Y-120690917D01*
X102176385Y-120671132D01*
X102145904Y-120665551D01*
X102035628Y-120645233D01*
X101932731Y-120626095D01*
X101847569Y-120610070D01*
X101790500Y-120599091D01*
X101687923Y-120578845D01*
X101687923Y-120151701D01*
X101687946Y-120099180D01*
X101688379Y-119971047D01*
X101689659Y-119875420D01*
X101692168Y-119807411D01*
X101696286Y-119762133D01*
X101702395Y-119734697D01*
X101710878Y-119720218D01*
X101722115Y-119713807D01*
X101732994Y-119711209D01*
X101777347Y-119702022D01*
X101848106Y-119687991D01*
X101938074Y-119670486D01*
X102040056Y-119650874D01*
X102146857Y-119630525D01*
X102251281Y-119610807D01*
X102346132Y-119593089D01*
X102424214Y-119578738D01*
X102478332Y-119569124D01*
X102501291Y-119565616D01*
X102502842Y-119563497D01*
X102515325Y-119536006D01*
X102536927Y-119483406D01*
X102564123Y-119414192D01*
X102601866Y-119320937D01*
X102648328Y-119213159D01*
X102691878Y-119118172D01*
X102701858Y-119096851D01*
X102729862Y-119030086D01*
X102746641Y-118978590D01*
X102748854Y-118952095D01*
X102747713Y-118950218D01*
X102729584Y-118922565D01*
X102693644Y-118868849D01*
X102643418Y-118794303D01*
X102582430Y-118704162D01*
X102514205Y-118603657D01*
X102437330Y-118489470D01*
X102379663Y-118400770D01*
X102340426Y-118335721D01*
X102317350Y-118290295D01*
X102308166Y-118260463D01*
X102310604Y-118242195D01*
X102311424Y-118240825D01*
X102333477Y-118214205D01*
X102378436Y-118165697D01*
X102441673Y-118100108D01*
X102518559Y-118022247D01*
X102604465Y-117936922D01*
X102693579Y-117850334D01*
X102780872Y-117768947D01*
X102845018Y-117714035D01*
X102887679Y-117684190D01*
X102910521Y-117678004D01*
X102913505Y-117679394D01*
X102944936Y-117698127D01*
X103001997Y-117734733D01*
X103079343Y-117785697D01*
X103171626Y-117847504D01*
X103273502Y-117916639D01*
X103605593Y-118143420D01*
X103755566Y-118075353D01*
X103759923Y-118073381D01*
X103852000Y-118033491D01*
X103949683Y-117993818D01*
X104032539Y-117962674D01*
X104032905Y-117962545D01*
X104098685Y-117938456D01*
X104149323Y-117918110D01*
X104173884Y-117905901D01*
X104174282Y-117905458D01*
X104182619Y-117880456D01*
X104196341Y-117823598D01*
X104214123Y-117741014D01*
X104234641Y-117638831D01*
X104256571Y-117523178D01*
X104257336Y-117519033D01*
X104279229Y-117401019D01*
X104299281Y-117294151D01*
X104316192Y-117205252D01*
X104328667Y-117141145D01*
X104335406Y-117108654D01*
X104335837Y-117106853D01*
X104340273Y-117092944D01*
X104349263Y-117082489D01*
X104367737Y-117074996D01*
X104400628Y-117069972D01*
X104452868Y-117066922D01*
X104529388Y-117065355D01*
X104635122Y-117064776D01*
X104775000Y-117064692D01*
X104792575Y-117064693D01*
G36*
X109171135Y-123807105D02*
G01*
X109170076Y-123901584D01*
X109166436Y-123967414D01*
X109158892Y-124013394D01*
X109146122Y-124048321D01*
X109126803Y-124080995D01*
X109122050Y-124087775D01*
X109071759Y-124141231D01*
X109014457Y-124181547D01*
X108985032Y-124194629D01*
X108879299Y-124216450D01*
X108774734Y-124202336D01*
X108678368Y-124154105D01*
X108597235Y-124073579D01*
X108590385Y-124062791D01*
X108568097Y-124000153D01*
X108553079Y-123912935D01*
X108545792Y-123812210D01*
X108546611Y-123719037D01*
X108743796Y-123719037D01*
X108745349Y-123848114D01*
X108745974Y-123856420D01*
X108755077Y-123927643D01*
X108771288Y-123972809D01*
X108798660Y-124003752D01*
X108844553Y-124032737D01*
X108889942Y-124034261D01*
X108936692Y-124000846D01*
X108944824Y-123992053D01*
X108960754Y-123965741D01*
X108970159Y-123927520D01*
X108974632Y-123868349D01*
X108975769Y-123779182D01*
X108973822Y-123695664D01*
X108964105Y-123616095D01*
X108944047Y-123565808D01*
X108911240Y-123539513D01*
X108863280Y-123531923D01*
X108845016Y-123533432D01*
X108793848Y-123561107D01*
X108760035Y-123623172D01*
X108743796Y-123719037D01*
X108546611Y-123719037D01*
X108546699Y-123709052D01*
X108556262Y-123614533D01*
X108574943Y-123539727D01*
X108598951Y-123489905D01*
X108666536Y-123412409D01*
X108758114Y-123364256D01*
X108870213Y-123347703D01*
X108900151Y-123348599D01*
X108988315Y-123366929D01*
X109060733Y-123413104D01*
X109127192Y-123492648D01*
X109131147Y-123498548D01*
X109149040Y-123530288D01*
X109160678Y-123566163D01*
X109167371Y-123614906D01*
X109170426Y-123685249D01*
X109171106Y-123779182D01*
X109171154Y-123785923D01*
X109171135Y-123807105D01*
G37*
X109171135Y-123807105D02*
X109170076Y-123901584D01*
X109166436Y-123967414D01*
X109158892Y-124013394D01*
X109146122Y-124048321D01*
X109126803Y-124080995D01*
X109122050Y-124087775D01*
X109071759Y-124141231D01*
X109014457Y-124181547D01*
X108985032Y-124194629D01*
X108879299Y-124216450D01*
X108774734Y-124202336D01*
X108678368Y-124154105D01*
X108597235Y-124073579D01*
X108590385Y-124062791D01*
X108568097Y-124000153D01*
X108553079Y-123912935D01*
X108545792Y-123812210D01*
X108546611Y-123719037D01*
X108743796Y-123719037D01*
X108745349Y-123848114D01*
X108745974Y-123856420D01*
X108755077Y-123927643D01*
X108771288Y-123972809D01*
X108798660Y-124003752D01*
X108844553Y-124032737D01*
X108889942Y-124034261D01*
X108936692Y-124000846D01*
X108944824Y-123992053D01*
X108960754Y-123965741D01*
X108970159Y-123927520D01*
X108974632Y-123868349D01*
X108975769Y-123779182D01*
X108973822Y-123695664D01*
X108964105Y-123616095D01*
X108944047Y-123565808D01*
X108911240Y-123539513D01*
X108863280Y-123531923D01*
X108845016Y-123533432D01*
X108793848Y-123561107D01*
X108760035Y-123623172D01*
X108743796Y-123719037D01*
X108546611Y-123719037D01*
X108546699Y-123709052D01*
X108556262Y-123614533D01*
X108574943Y-123539727D01*
X108598951Y-123489905D01*
X108666536Y-123412409D01*
X108758114Y-123364256D01*
X108870213Y-123347703D01*
X108900151Y-123348599D01*
X108988315Y-123366929D01*
X109060733Y-123413104D01*
X109127192Y-123492648D01*
X109131147Y-123498548D01*
X109149040Y-123530288D01*
X109160678Y-123566163D01*
X109167371Y-123614906D01*
X109170426Y-123685249D01*
X109171106Y-123779182D01*
X109171154Y-123785923D01*
X109171135Y-123807105D01*
G36*
X101386501Y-123403476D02*
G01*
X101467167Y-123433440D01*
X101500714Y-123455954D01*
X101534687Y-123488212D01*
X101558919Y-123529246D01*
X101575001Y-123585108D01*
X101584521Y-123661851D01*
X101589068Y-123765525D01*
X101590231Y-123902184D01*
X101590003Y-123972805D01*
X101588860Y-124069308D01*
X101586919Y-124146323D01*
X101584365Y-124197319D01*
X101581381Y-124215769D01*
X101561962Y-124209667D01*
X101522766Y-124193095D01*
X101521589Y-124192558D01*
X101501235Y-124181903D01*
X101487546Y-124167282D01*
X101479199Y-124141673D01*
X101474874Y-124098054D01*
X101473248Y-124029403D01*
X101473000Y-123928698D01*
X101472500Y-123864813D01*
X101467164Y-123744751D01*
X101454945Y-123656809D01*
X101434552Y-123596375D01*
X101404695Y-123558836D01*
X101364082Y-123539581D01*
X101358448Y-123538239D01*
X101282378Y-123537191D01*
X101223052Y-123571271D01*
X101182077Y-123639598D01*
X101174770Y-123659351D01*
X101158114Y-123703066D01*
X101149679Y-123723155D01*
X101132356Y-123720387D01*
X101094525Y-123705365D01*
X101059240Y-123680556D01*
X101043154Y-123633670D01*
X101047952Y-123600087D01*
X101077431Y-123531967D01*
X101125098Y-123468134D01*
X101180839Y-123423988D01*
X101204193Y-123413782D01*
X101292619Y-123396718D01*
X101386501Y-123403476D01*
G37*
X101386501Y-123403476D02*
X101467167Y-123433440D01*
X101500714Y-123455954D01*
X101534687Y-123488212D01*
X101558919Y-123529246D01*
X101575001Y-123585108D01*
X101584521Y-123661851D01*
X101589068Y-123765525D01*
X101590231Y-123902184D01*
X101590003Y-123972805D01*
X101588860Y-124069308D01*
X101586919Y-124146323D01*
X101584365Y-124197319D01*
X101581381Y-124215769D01*
X101561962Y-124209667D01*
X101522766Y-124193095D01*
X101521589Y-124192558D01*
X101501235Y-124181903D01*
X101487546Y-124167282D01*
X101479199Y-124141673D01*
X101474874Y-124098054D01*
X101473248Y-124029403D01*
X101473000Y-123928698D01*
X101472500Y-123864813D01*
X101467164Y-123744751D01*
X101454945Y-123656809D01*
X101434552Y-123596375D01*
X101404695Y-123558836D01*
X101364082Y-123539581D01*
X101358448Y-123538239D01*
X101282378Y-123537191D01*
X101223052Y-123571271D01*
X101182077Y-123639598D01*
X101174770Y-123659351D01*
X101158114Y-123703066D01*
X101149679Y-123723155D01*
X101132356Y-123720387D01*
X101094525Y-123705365D01*
X101059240Y-123680556D01*
X101043154Y-123633670D01*
X101047952Y-123600087D01*
X101077431Y-123531967D01*
X101125098Y-123468134D01*
X101180839Y-123423988D01*
X101204193Y-123413782D01*
X101292619Y-123396718D01*
X101386501Y-123403476D01*
G36*
X102962998Y-123401034D02*
G01*
X103005850Y-123417829D01*
X103055615Y-123440503D01*
X103055615Y-124095533D01*
X102993785Y-124157363D01*
X102979662Y-124171228D01*
X102940536Y-124202046D01*
X102901078Y-124212028D01*
X102842362Y-124207433D01*
X102818456Y-124204462D01*
X102756801Y-124198176D01*
X102713692Y-124195672D01*
X102700905Y-124196055D01*
X102648446Y-124200200D01*
X102585022Y-124207433D01*
X102564730Y-124209918D01*
X102513610Y-124210895D01*
X102476207Y-124195462D01*
X102433599Y-124157363D01*
X102371769Y-124095533D01*
X102371769Y-123745343D01*
X102372251Y-123641857D01*
X102373753Y-123543192D01*
X102376089Y-123465068D01*
X102379071Y-123413662D01*
X102382509Y-123395154D01*
X102383230Y-123395204D01*
X102408203Y-123404413D01*
X102450399Y-123424707D01*
X102507549Y-123454261D01*
X102512928Y-123761746D01*
X102518308Y-124069231D01*
X102635539Y-124069231D01*
X102640885Y-123732192D01*
X102642579Y-123640574D01*
X102645005Y-123542649D01*
X102647634Y-123464906D01*
X102650246Y-123413642D01*
X102652623Y-123395154D01*
X102653306Y-123395219D01*
X102676996Y-123402020D01*
X102720546Y-123416604D01*
X102782077Y-123438054D01*
X102782376Y-123734104D01*
X102782676Y-123785532D01*
X102784754Y-123885466D01*
X102788470Y-123968925D01*
X102793430Y-124028377D01*
X102799240Y-124056287D01*
X102820024Y-124071214D01*
X102862440Y-124075825D01*
X102909077Y-124069231D01*
X102914423Y-123732192D01*
X102916336Y-123646546D01*
X102920303Y-123545172D01*
X102925491Y-123465655D01*
X102931499Y-123413736D01*
X102937927Y-123395154D01*
X102962998Y-123401034D01*
G37*
X102962998Y-123401034D02*
X103005850Y-123417829D01*
X103055615Y-123440503D01*
X103055615Y-124095533D01*
X102993785Y-124157363D01*
X102979662Y-124171228D01*
X102940536Y-124202046D01*
X102901078Y-124212028D01*
X102842362Y-124207433D01*
X102818456Y-124204462D01*
X102756801Y-124198176D01*
X102713692Y-124195672D01*
X102700905Y-124196055D01*
X102648446Y-124200200D01*
X102585022Y-124207433D01*
X102564730Y-124209918D01*
X102513610Y-124210895D01*
X102476207Y-124195462D01*
X102433599Y-124157363D01*
X102371769Y-124095533D01*
X102371769Y-123745343D01*
X102372251Y-123641857D01*
X102373753Y-123543192D01*
X102376089Y-123465068D01*
X102379071Y-123413662D01*
X102382509Y-123395154D01*
X102383230Y-123395204D01*
X102408203Y-123404413D01*
X102450399Y-123424707D01*
X102507549Y-123454261D01*
X102512928Y-123761746D01*
X102518308Y-124069231D01*
X102635539Y-124069231D01*
X102640885Y-123732192D01*
X102642579Y-123640574D01*
X102645005Y-123542649D01*
X102647634Y-123464906D01*
X102650246Y-123413642D01*
X102652623Y-123395154D01*
X102653306Y-123395219D01*
X102676996Y-123402020D01*
X102720546Y-123416604D01*
X102782077Y-123438054D01*
X102782376Y-123734104D01*
X102782676Y-123785532D01*
X102784754Y-123885466D01*
X102788470Y-123968925D01*
X102793430Y-124028377D01*
X102799240Y-124056287D01*
X102820024Y-124071214D01*
X102862440Y-124075825D01*
X102909077Y-124069231D01*
X102914423Y-123732192D01*
X102916336Y-123646546D01*
X102920303Y-123545172D01*
X102925491Y-123465655D01*
X102931499Y-123413736D01*
X102937927Y-123395154D01*
X102962998Y-123401034D01*
G36*
X108424763Y-124025269D02*
G01*
X108425300Y-124068802D01*
X108427019Y-124214344D01*
X108427365Y-124325711D01*
X108425277Y-124406804D01*
X108419698Y-124461522D01*
X108409567Y-124493761D01*
X108393826Y-124507422D01*
X108371417Y-124506403D01*
X108341280Y-124494603D01*
X108302355Y-124475920D01*
X108294038Y-124471933D01*
X108259402Y-124452419D01*
X108241314Y-124429202D01*
X108234392Y-124390492D01*
X108233256Y-124324497D01*
X108233205Y-124206000D01*
X108111141Y-124206000D01*
X108036055Y-124202712D01*
X107977015Y-124189377D01*
X107927986Y-124162423D01*
X107924330Y-124159788D01*
X107874581Y-124115286D01*
X107839959Y-124061523D01*
X107818123Y-123991154D01*
X107806737Y-123896830D01*
X107803959Y-123790271D01*
X107998846Y-123790271D01*
X107998880Y-123808131D01*
X108000735Y-123888748D01*
X108006693Y-123941447D01*
X108018506Y-123975668D01*
X108037923Y-124000846D01*
X108039133Y-124002049D01*
X108086858Y-124034628D01*
X108133110Y-124031417D01*
X108185350Y-123991965D01*
X108198128Y-123978482D01*
X108216949Y-123950837D01*
X108227562Y-123914880D01*
X108232252Y-123860364D01*
X108233308Y-123777042D01*
X108232394Y-123726598D01*
X108222477Y-123634857D01*
X108199842Y-123574752D01*
X108162238Y-123541900D01*
X108107416Y-123531923D01*
X108084317Y-123534050D01*
X108044350Y-123555147D01*
X108017926Y-123602161D01*
X108003330Y-123679175D01*
X107998846Y-123790271D01*
X107803959Y-123790271D01*
X107803462Y-123771206D01*
X107804187Y-123679536D01*
X107807490Y-123610098D01*
X107814828Y-123561945D01*
X107827655Y-123525866D01*
X107847423Y-123492648D01*
X107865569Y-123467261D01*
X107931461Y-123398727D01*
X108006114Y-123361505D01*
X108099904Y-123349722D01*
X108207240Y-123361467D01*
X108300031Y-123403595D01*
X108373421Y-123477898D01*
X108378954Y-123485764D01*
X108391857Y-123506668D01*
X108401742Y-123530555D01*
X108409093Y-123562582D01*
X108414394Y-123607905D01*
X108418127Y-123671679D01*
X108420778Y-123759060D01*
X108421096Y-123777042D01*
X108422828Y-123875205D01*
X108424763Y-124025269D01*
G37*
X108424763Y-124025269D02*
X108425300Y-124068802D01*
X108427019Y-124214344D01*
X108427365Y-124325711D01*
X108425277Y-124406804D01*
X108419698Y-124461522D01*
X108409567Y-124493761D01*
X108393826Y-124507422D01*
X108371417Y-124506403D01*
X108341280Y-124494603D01*
X108302355Y-124475920D01*
X108294038Y-124471933D01*
X108259402Y-124452419D01*
X108241314Y-124429202D01*
X108234392Y-124390492D01*
X108233256Y-124324497D01*
X108233205Y-124206000D01*
X108111141Y-124206000D01*
X108036055Y-124202712D01*
X107977015Y-124189377D01*
X107927986Y-124162423D01*
X107924330Y-124159788D01*
X107874581Y-124115286D01*
X107839959Y-124061523D01*
X107818123Y-123991154D01*
X107806737Y-123896830D01*
X107803959Y-123790271D01*
X107998846Y-123790271D01*
X107998880Y-123808131D01*
X108000735Y-123888748D01*
X108006693Y-123941447D01*
X108018506Y-123975668D01*
X108037923Y-124000846D01*
X108039133Y-124002049D01*
X108086858Y-124034628D01*
X108133110Y-124031417D01*
X108185350Y-123991965D01*
X108198128Y-123978482D01*
X108216949Y-123950837D01*
X108227562Y-123914880D01*
X108232252Y-123860364D01*
X108233308Y-123777042D01*
X108232394Y-123726598D01*
X108222477Y-123634857D01*
X108199842Y-123574752D01*
X108162238Y-123541900D01*
X108107416Y-123531923D01*
X108084317Y-123534050D01*
X108044350Y-123555147D01*
X108017926Y-123602161D01*
X108003330Y-123679175D01*
X107998846Y-123790271D01*
X107803959Y-123790271D01*
X107803462Y-123771206D01*
X107804187Y-123679536D01*
X107807490Y-123610098D01*
X107814828Y-123561945D01*
X107827655Y-123525866D01*
X107847423Y-123492648D01*
X107865569Y-123467261D01*
X107931461Y-123398727D01*
X108006114Y-123361505D01*
X108099904Y-123349722D01*
X108207240Y-123361467D01*
X108300031Y-123403595D01*
X108373421Y-123477898D01*
X108378954Y-123485764D01*
X108391857Y-123506668D01*
X108401742Y-123530555D01*
X108409093Y-123562582D01*
X108414394Y-123607905D01*
X108418127Y-123671679D01*
X108420778Y-123759060D01*
X108421096Y-123777042D01*
X108422828Y-123875205D01*
X108424763Y-124025269D01*
G36*
X106701372Y-123358684D02*
G01*
X106792629Y-123401569D01*
X106867416Y-123475729D01*
X106882917Y-123498944D01*
X106895774Y-123525256D01*
X106904893Y-123558420D01*
X106911102Y-123604881D01*
X106915233Y-123671082D01*
X106918116Y-123763468D01*
X106920579Y-123888485D01*
X106926697Y-124235278D01*
X106875303Y-124215738D01*
X106828246Y-124197787D01*
X106793015Y-124180511D01*
X106770017Y-124158242D01*
X106756655Y-124124165D01*
X106750328Y-124071463D01*
X106748437Y-123993323D01*
X106748385Y-123882928D01*
X106748117Y-123794935D01*
X106746521Y-123710502D01*
X106742712Y-123652834D01*
X106735820Y-123614988D01*
X106724975Y-123590024D01*
X106709308Y-123571000D01*
X106670792Y-123544153D01*
X106606091Y-123534034D01*
X106542081Y-123559606D01*
X106537856Y-123562880D01*
X106524689Y-123578007D01*
X106514975Y-123602268D01*
X106507903Y-123641650D01*
X106502656Y-123702141D01*
X106498421Y-123789729D01*
X106494385Y-123910402D01*
X106484615Y-124233515D01*
X106318539Y-124159065D01*
X106318539Y-123864062D01*
X106318883Y-123783919D01*
X106321847Y-123672431D01*
X106329351Y-123589421D01*
X106343190Y-123528199D01*
X106365155Y-123482075D01*
X106397039Y-123444358D01*
X106440633Y-123408358D01*
X106503336Y-123372089D01*
X106602117Y-123348412D01*
X106701372Y-123358684D01*
G37*
X106701372Y-123358684D02*
X106792629Y-123401569D01*
X106867416Y-123475729D01*
X106882917Y-123498944D01*
X106895774Y-123525256D01*
X106904893Y-123558420D01*
X106911102Y-123604881D01*
X106915233Y-123671082D01*
X106918116Y-123763468D01*
X106920579Y-123888485D01*
X106926697Y-124235278D01*
X106875303Y-124215738D01*
X106828246Y-124197787D01*
X106793015Y-124180511D01*
X106770017Y-124158242D01*
X106756655Y-124124165D01*
X106750328Y-124071463D01*
X106748437Y-123993323D01*
X106748385Y-123882928D01*
X106748117Y-123794935D01*
X106746521Y-123710502D01*
X106742712Y-123652834D01*
X106735820Y-123614988D01*
X106724975Y-123590024D01*
X106709308Y-123571000D01*
X106670792Y-123544153D01*
X106606091Y-123534034D01*
X106542081Y-123559606D01*
X106537856Y-123562880D01*
X106524689Y-123578007D01*
X106514975Y-123602268D01*
X106507903Y-123641650D01*
X106502656Y-123702141D01*
X106498421Y-123789729D01*
X106494385Y-123910402D01*
X106484615Y-124233515D01*
X106318539Y-124159065D01*
X106318539Y-123864062D01*
X106318883Y-123783919D01*
X106321847Y-123672431D01*
X106329351Y-123589421D01*
X106343190Y-123528199D01*
X106365155Y-123482075D01*
X106397039Y-123444358D01*
X106440633Y-123408358D01*
X106503336Y-123372089D01*
X106602117Y-123348412D01*
X106701372Y-123358684D01*
G36*
X104246892Y-123424167D02*
G01*
X104253060Y-123427581D01*
X104303447Y-123466692D01*
X104348498Y-123516975D01*
X104356355Y-123528339D01*
X104371376Y-123554860D01*
X104382107Y-123586336D01*
X104389486Y-123629591D01*
X104394452Y-123691449D01*
X104397942Y-123778733D01*
X104400893Y-123898269D01*
X104401311Y-123918478D01*
X104402654Y-124049499D01*
X104400761Y-124142296D01*
X104395605Y-124197507D01*
X104387158Y-124215769D01*
X104361594Y-124210301D01*
X104318166Y-124193733D01*
X104307940Y-124188888D01*
X104291967Y-124177920D01*
X104280954Y-124159890D01*
X104273750Y-124128396D01*
X104269208Y-124077036D01*
X104266180Y-123999410D01*
X104263516Y-123889115D01*
X104262785Y-123856875D01*
X104259965Y-123755050D01*
X104256304Y-123683788D01*
X104250694Y-123636332D01*
X104242029Y-123605925D01*
X104229202Y-123585810D01*
X104211105Y-123569229D01*
X104157525Y-123540161D01*
X104091612Y-123534564D01*
X104032635Y-123556807D01*
X103990203Y-123602859D01*
X103973923Y-123668692D01*
X103973470Y-123686587D01*
X103964578Y-123718982D01*
X103938325Y-123723925D01*
X103886919Y-123704633D01*
X103875013Y-123698446D01*
X103842835Y-123662058D01*
X103842198Y-123607954D01*
X103872856Y-123533128D01*
X103900978Y-123492350D01*
X103972883Y-123434421D01*
X104061638Y-123401670D01*
X104156542Y-123397212D01*
X104246892Y-123424167D01*
G37*
X104246892Y-123424167D02*
X104253060Y-123427581D01*
X104303447Y-123466692D01*
X104348498Y-123516975D01*
X104356355Y-123528339D01*
X104371376Y-123554860D01*
X104382107Y-123586336D01*
X104389486Y-123629591D01*
X104394452Y-123691449D01*
X104397942Y-123778733D01*
X104400893Y-123898269D01*
X104401311Y-123918478D01*
X104402654Y-124049499D01*
X104400761Y-124142296D01*
X104395605Y-124197507D01*
X104387158Y-124215769D01*
X104361594Y-124210301D01*
X104318166Y-124193733D01*
X104307940Y-124188888D01*
X104291967Y-124177920D01*
X104280954Y-124159890D01*
X104273750Y-124128396D01*
X104269208Y-124077036D01*
X104266180Y-123999410D01*
X104263516Y-123889115D01*
X104262785Y-123856875D01*
X104259965Y-123755050D01*
X104256304Y-123683788D01*
X104250694Y-123636332D01*
X104242029Y-123605925D01*
X104229202Y-123585810D01*
X104211105Y-123569229D01*
X104157525Y-123540161D01*
X104091612Y-123534564D01*
X104032635Y-123556807D01*
X103990203Y-123602859D01*
X103973923Y-123668692D01*
X103973470Y-123686587D01*
X103964578Y-123718982D01*
X103938325Y-123723925D01*
X103886919Y-123704633D01*
X103875013Y-123698446D01*
X103842835Y-123662058D01*
X103842198Y-123607954D01*
X103872856Y-123533128D01*
X103900978Y-123492350D01*
X103972883Y-123434421D01*
X104061638Y-123401670D01*
X104156542Y-123397212D01*
X104246892Y-123424167D01*
G36*
X104895458Y-123416228D02*
G01*
X104962622Y-123455389D01*
X104992169Y-123485902D01*
X105048948Y-123577110D01*
X105068077Y-123676548D01*
X105068077Y-123744960D01*
X105005191Y-123718518D01*
X104961700Y-123691837D01*
X104927426Y-123636446D01*
X104923907Y-123625024D01*
X104886028Y-123566838D01*
X104828936Y-123535407D01*
X104763383Y-123534058D01*
X104700117Y-123566116D01*
X104690672Y-123574383D01*
X104659087Y-123610311D01*
X104653871Y-123641635D01*
X104677765Y-123672391D01*
X104733510Y-123706617D01*
X104823846Y-123748350D01*
X104829956Y-123750993D01*
X104930241Y-123797755D01*
X104998735Y-123839181D01*
X105040899Y-123880542D01*
X105062193Y-123927111D01*
X105068077Y-123984160D01*
X105060366Y-124047408D01*
X105021430Y-124128364D01*
X104952932Y-124186522D01*
X104903388Y-124203983D01*
X104833469Y-124213537D01*
X104765575Y-124211496D01*
X104717093Y-124197082D01*
X104711943Y-124193493D01*
X104698267Y-124168416D01*
X104707757Y-124124218D01*
X104724246Y-124089527D01*
X104750687Y-124075084D01*
X104800834Y-124075803D01*
X104870453Y-124071660D01*
X104915943Y-124043054D01*
X104931308Y-123990104D01*
X104931294Y-123988582D01*
X104921983Y-123957845D01*
X104890311Y-123929643D01*
X104828731Y-123897136D01*
X104744986Y-123857998D01*
X104689518Y-123836706D01*
X104657497Y-123838079D01*
X104642534Y-123866203D01*
X104638242Y-123925170D01*
X104638231Y-124019068D01*
X104637752Y-124077031D01*
X104635556Y-124148612D01*
X104631986Y-124197606D01*
X104627491Y-124215769D01*
X104626290Y-124215646D01*
X104600319Y-124205802D01*
X104557305Y-124185028D01*
X104497859Y-124154287D01*
X104504923Y-123877298D01*
X104505414Y-123858928D01*
X104511025Y-123729992D01*
X104520938Y-123632814D01*
X104537175Y-123560925D01*
X104561759Y-123507852D01*
X104596715Y-123467127D01*
X104644064Y-123432279D01*
X104644940Y-123431733D01*
X104721499Y-123403303D01*
X104810044Y-123398500D01*
X104895458Y-123416228D01*
G37*
X104895458Y-123416228D02*
X104962622Y-123455389D01*
X104992169Y-123485902D01*
X105048948Y-123577110D01*
X105068077Y-123676548D01*
X105068077Y-123744960D01*
X105005191Y-123718518D01*
X104961700Y-123691837D01*
X104927426Y-123636446D01*
X104923907Y-123625024D01*
X104886028Y-123566838D01*
X104828936Y-123535407D01*
X104763383Y-123534058D01*
X104700117Y-123566116D01*
X104690672Y-123574383D01*
X104659087Y-123610311D01*
X104653871Y-123641635D01*
X104677765Y-123672391D01*
X104733510Y-123706617D01*
X104823846Y-123748350D01*
X104829956Y-123750993D01*
X104930241Y-123797755D01*
X104998735Y-123839181D01*
X105040899Y-123880542D01*
X105062193Y-123927111D01*
X105068077Y-123984160D01*
X105060366Y-124047408D01*
X105021430Y-124128364D01*
X104952932Y-124186522D01*
X104903388Y-124203983D01*
X104833469Y-124213537D01*
X104765575Y-124211496D01*
X104717093Y-124197082D01*
X104711943Y-124193493D01*
X104698267Y-124168416D01*
X104707757Y-124124218D01*
X104724246Y-124089527D01*
X104750687Y-124075084D01*
X104800834Y-124075803D01*
X104870453Y-124071660D01*
X104915943Y-124043054D01*
X104931308Y-123990104D01*
X104931294Y-123988582D01*
X104921983Y-123957845D01*
X104890311Y-123929643D01*
X104828731Y-123897136D01*
X104744986Y-123857998D01*
X104689518Y-123836706D01*
X104657497Y-123838079D01*
X104642534Y-123866203D01*
X104638242Y-123925170D01*
X104638231Y-124019068D01*
X104637752Y-124077031D01*
X104635556Y-124148612D01*
X104631986Y-124197606D01*
X104627491Y-124215769D01*
X104626290Y-124215646D01*
X104600319Y-124205802D01*
X104557305Y-124185028D01*
X104497859Y-124154287D01*
X104504923Y-123877298D01*
X104505414Y-123858928D01*
X104511025Y-123729992D01*
X104520938Y-123632814D01*
X104537175Y-123560925D01*
X104561759Y-123507852D01*
X104596715Y-123467127D01*
X104644064Y-123432279D01*
X104644940Y-123431733D01*
X104721499Y-123403303D01*
X104810044Y-123398500D01*
X104895458Y-123416228D01*
G36*
X105751923Y-123158806D02*
G01*
X105751923Y-123693455D01*
X105751660Y-123832094D01*
X105750958Y-123956805D01*
X105749883Y-124062557D01*
X105748500Y-124144322D01*
X105746874Y-124197069D01*
X105745070Y-124215769D01*
X105744364Y-124215706D01*
X105720387Y-124208912D01*
X105676685Y-124194320D01*
X105615154Y-124172870D01*
X105615154Y-123897617D01*
X105614763Y-123789466D01*
X105612946Y-123711026D01*
X105608767Y-123657647D01*
X105601286Y-123622256D01*
X105589567Y-123597779D01*
X105572671Y-123577144D01*
X105561152Y-123566170D01*
X105498864Y-123535775D01*
X105430211Y-123538466D01*
X105367298Y-123574406D01*
X105358139Y-123583325D01*
X105343471Y-123601844D01*
X105333433Y-123626326D01*
X105327151Y-123663393D01*
X105323748Y-123719667D01*
X105322349Y-123801771D01*
X105322077Y-123916329D01*
X105321947Y-123974430D01*
X105321099Y-124069993D01*
X105319594Y-124146526D01*
X105317585Y-124197345D01*
X105315223Y-124215769D01*
X105314518Y-124215706D01*
X105290541Y-124208912D01*
X105246839Y-124194320D01*
X105185308Y-124172870D01*
X105185338Y-123896358D01*
X105185384Y-123871742D01*
X105187970Y-123743419D01*
X105195913Y-123646384D01*
X105211155Y-123574057D01*
X105235636Y-123519855D01*
X105271298Y-123477198D01*
X105320082Y-123439505D01*
X105367661Y-123415910D01*
X105443732Y-123397672D01*
X105518556Y-123396636D01*
X105576077Y-123414378D01*
X105580402Y-123416829D01*
X105593738Y-123416566D01*
X105602851Y-123396039D01*
X105609428Y-123348980D01*
X105615154Y-123269120D01*
X105624923Y-123105236D01*
X105751923Y-123158806D01*
G37*
X105751923Y-123158806D02*
X105751923Y-123693455D01*
X105751660Y-123832094D01*
X105750958Y-123956805D01*
X105749883Y-124062557D01*
X105748500Y-124144322D01*
X105746874Y-124197069D01*
X105745070Y-124215769D01*
X105744364Y-124215706D01*
X105720387Y-124208912D01*
X105676685Y-124194320D01*
X105615154Y-124172870D01*
X105615154Y-123897617D01*
X105614763Y-123789466D01*
X105612946Y-123711026D01*
X105608767Y-123657647D01*
X105601286Y-123622256D01*
X105589567Y-123597779D01*
X105572671Y-123577144D01*
X105561152Y-123566170D01*
X105498864Y-123535775D01*
X105430211Y-123538466D01*
X105367298Y-123574406D01*
X105358139Y-123583325D01*
X105343471Y-123601844D01*
X105333433Y-123626326D01*
X105327151Y-123663393D01*
X105323748Y-123719667D01*
X105322349Y-123801771D01*
X105322077Y-123916329D01*
X105321947Y-123974430D01*
X105321099Y-124069993D01*
X105319594Y-124146526D01*
X105317585Y-124197345D01*
X105315223Y-124215769D01*
X105314518Y-124215706D01*
X105290541Y-124208912D01*
X105246839Y-124194320D01*
X105185308Y-124172870D01*
X105185338Y-123896358D01*
X105185384Y-123871742D01*
X105187970Y-123743419D01*
X105195913Y-123646384D01*
X105211155Y-123574057D01*
X105235636Y-123519855D01*
X105271298Y-123477198D01*
X105320082Y-123439505D01*
X105367661Y-123415910D01*
X105443732Y-123397672D01*
X105518556Y-123396636D01*
X105576077Y-123414378D01*
X105580402Y-123416829D01*
X105593738Y-123416566D01*
X105602851Y-123396039D01*
X105609428Y-123348980D01*
X105615154Y-123269120D01*
X105624923Y-123105236D01*
X105751923Y-123158806D01*
G36*
X100925413Y-123861449D02*
G01*
X100920641Y-123964047D01*
X100908150Y-124039126D01*
X100885121Y-124094748D01*
X100848732Y-124138975D01*
X100796162Y-124179869D01*
X100762714Y-124198466D01*
X100709098Y-124210991D01*
X100633780Y-124210003D01*
X100591672Y-124206035D01*
X100540879Y-124193920D01*
X100500280Y-124167585D01*
X100453049Y-124118514D01*
X100446738Y-124111346D01*
X100404277Y-124056189D01*
X100384018Y-124008150D01*
X100378846Y-123951184D01*
X100378846Y-123867471D01*
X100437346Y-123889552D01*
X100479994Y-123915364D01*
X100517064Y-123975928D01*
X100524803Y-123995320D01*
X100568074Y-124050235D01*
X100626976Y-124077879D01*
X100691111Y-124075393D01*
X100750077Y-124039923D01*
X100770342Y-124017805D01*
X100788720Y-123984436D01*
X100782971Y-123954117D01*
X100749887Y-123922913D01*
X100686261Y-123886887D01*
X100588885Y-123842103D01*
X100388615Y-123754445D01*
X100383301Y-123667607D01*
X100385299Y-123612296D01*
X100515783Y-123612296D01*
X100525688Y-123646538D01*
X100570756Y-123683096D01*
X100652557Y-123724692D01*
X100666092Y-123730718D01*
X100730818Y-123758753D01*
X100779247Y-123778472D01*
X100801751Y-123785923D01*
X100805161Y-123780438D01*
X100806529Y-123746948D01*
X100801651Y-123693116D01*
X100789364Y-123640473D01*
X100751041Y-123574151D01*
X100695720Y-123536780D01*
X100629640Y-123531721D01*
X100559040Y-123562339D01*
X100539474Y-123577648D01*
X100515783Y-123612296D01*
X100385299Y-123612296D01*
X100385647Y-123602663D01*
X100415186Y-123520590D01*
X100452472Y-123475361D01*
X100529776Y-123424838D01*
X100621478Y-123399316D01*
X100716274Y-123401336D01*
X100802859Y-123433440D01*
X100821920Y-123445767D01*
X100865640Y-123483912D01*
X100895540Y-123532167D01*
X100913968Y-123597710D01*
X100923270Y-123687720D01*
X100924499Y-123746948D01*
X100925794Y-123809376D01*
X100925413Y-123861449D01*
G37*
X100925413Y-123861449D02*
X100920641Y-123964047D01*
X100908150Y-124039126D01*
X100885121Y-124094748D01*
X100848732Y-124138975D01*
X100796162Y-124179869D01*
X100762714Y-124198466D01*
X100709098Y-124210991D01*
X100633780Y-124210003D01*
X100591672Y-124206035D01*
X100540879Y-124193920D01*
X100500280Y-124167585D01*
X100453049Y-124118514D01*
X100446738Y-124111346D01*
X100404277Y-124056189D01*
X100384018Y-124008150D01*
X100378846Y-123951184D01*
X100378846Y-123867471D01*
X100437346Y-123889552D01*
X100479994Y-123915364D01*
X100517064Y-123975928D01*
X100524803Y-123995320D01*
X100568074Y-124050235D01*
X100626976Y-124077879D01*
X100691111Y-124075393D01*
X100750077Y-124039923D01*
X100770342Y-124017805D01*
X100788720Y-123984436D01*
X100782971Y-123954117D01*
X100749887Y-123922913D01*
X100686261Y-123886887D01*
X100588885Y-123842103D01*
X100388615Y-123754445D01*
X100383301Y-123667607D01*
X100385299Y-123612296D01*
X100515783Y-123612296D01*
X100525688Y-123646538D01*
X100570756Y-123683096D01*
X100652557Y-123724692D01*
X100666092Y-123730718D01*
X100730818Y-123758753D01*
X100779247Y-123778472D01*
X100801751Y-123785923D01*
X100805161Y-123780438D01*
X100806529Y-123746948D01*
X100801651Y-123693116D01*
X100789364Y-123640473D01*
X100751041Y-123574151D01*
X100695720Y-123536780D01*
X100629640Y-123531721D01*
X100559040Y-123562339D01*
X100539474Y-123577648D01*
X100515783Y-123612296D01*
X100385299Y-123612296D01*
X100385647Y-123602663D01*
X100415186Y-123520590D01*
X100452472Y-123475361D01*
X100529776Y-123424838D01*
X100621478Y-123399316D01*
X100716274Y-123401336D01*
X100802859Y-123433440D01*
X100821920Y-123445767D01*
X100865640Y-123483912D01*
X100895540Y-123532167D01*
X100913968Y-123597710D01*
X100923270Y-123687720D01*
X100924499Y-123746948D01*
X100925794Y-123809376D01*
X100925413Y-123861449D01*
G36*
X103737839Y-123881652D02*
G01*
X103726810Y-123985507D01*
X103702814Y-124063333D01*
X103663043Y-124122760D01*
X103604688Y-124171418D01*
X103549100Y-124199546D01*
X103455751Y-124215199D01*
X103362530Y-124198084D01*
X103278272Y-124150388D01*
X103211818Y-124074294D01*
X103203793Y-124060262D01*
X103193196Y-124035679D01*
X103185335Y-124004309D01*
X103179807Y-123960769D01*
X103176206Y-123899678D01*
X103174128Y-123815655D01*
X103174064Y-123808200D01*
X103309615Y-123808200D01*
X103310077Y-123879316D01*
X103312999Y-123943641D01*
X103320221Y-123985166D01*
X103333561Y-124013067D01*
X103354836Y-124036517D01*
X103359821Y-124041025D01*
X103423863Y-124074295D01*
X103491625Y-124070890D01*
X103554734Y-124031042D01*
X103573526Y-124010398D01*
X103589254Y-123983029D01*
X103598039Y-123945192D01*
X103601859Y-123887355D01*
X103602692Y-123799986D01*
X103602281Y-123733319D01*
X103599434Y-123668245D01*
X103592256Y-123626251D01*
X103578889Y-123598063D01*
X103557472Y-123574406D01*
X103544890Y-123563753D01*
X103479699Y-123535057D01*
X103411400Y-123539575D01*
X103352098Y-123577144D01*
X103339333Y-123592040D01*
X103323764Y-123620089D01*
X103314762Y-123659258D01*
X103310617Y-123718858D01*
X103309615Y-123808200D01*
X103174064Y-123808200D01*
X103173167Y-123703320D01*
X103172919Y-123557289D01*
X103172846Y-123103963D01*
X103236346Y-123130564D01*
X103253136Y-123137845D01*
X103279859Y-123154287D01*
X103295156Y-123179187D01*
X103303563Y-123222732D01*
X103309615Y-123295106D01*
X103315144Y-123360089D01*
X103322450Y-123402750D01*
X103332918Y-123418670D01*
X103348692Y-123414400D01*
X103388890Y-123399397D01*
X103460728Y-123395678D01*
X103538010Y-123409572D01*
X103604688Y-123439505D01*
X103641371Y-123467211D01*
X103688472Y-123521269D01*
X103718638Y-123590577D01*
X103734678Y-123682765D01*
X103739191Y-123799986D01*
X103739401Y-123805462D01*
X103737839Y-123881652D01*
G37*
X103737839Y-123881652D02*
X103726810Y-123985507D01*
X103702814Y-124063333D01*
X103663043Y-124122760D01*
X103604688Y-124171418D01*
X103549100Y-124199546D01*
X103455751Y-124215199D01*
X103362530Y-124198084D01*
X103278272Y-124150388D01*
X103211818Y-124074294D01*
X103203793Y-124060262D01*
X103193196Y-124035679D01*
X103185335Y-124004309D01*
X103179807Y-123960769D01*
X103176206Y-123899678D01*
X103174128Y-123815655D01*
X103174064Y-123808200D01*
X103309615Y-123808200D01*
X103310077Y-123879316D01*
X103312999Y-123943641D01*
X103320221Y-123985166D01*
X103333561Y-124013067D01*
X103354836Y-124036517D01*
X103359821Y-124041025D01*
X103423863Y-124074295D01*
X103491625Y-124070890D01*
X103554734Y-124031042D01*
X103573526Y-124010398D01*
X103589254Y-123983029D01*
X103598039Y-123945192D01*
X103601859Y-123887355D01*
X103602692Y-123799986D01*
X103602281Y-123733319D01*
X103599434Y-123668245D01*
X103592256Y-123626251D01*
X103578889Y-123598063D01*
X103557472Y-123574406D01*
X103544890Y-123563753D01*
X103479699Y-123535057D01*
X103411400Y-123539575D01*
X103352098Y-123577144D01*
X103339333Y-123592040D01*
X103323764Y-123620089D01*
X103314762Y-123659258D01*
X103310617Y-123718858D01*
X103309615Y-123808200D01*
X103174064Y-123808200D01*
X103173167Y-123703320D01*
X103172919Y-123557289D01*
X103172846Y-123103963D01*
X103236346Y-123130564D01*
X103253136Y-123137845D01*
X103279859Y-123154287D01*
X103295156Y-123179187D01*
X103303563Y-123222732D01*
X103309615Y-123295106D01*
X103315144Y-123360089D01*
X103322450Y-123402750D01*
X103332918Y-123418670D01*
X103348692Y-123414400D01*
X103388890Y-123399397D01*
X103460728Y-123395678D01*
X103538010Y-123409572D01*
X103604688Y-123439505D01*
X103641371Y-123467211D01*
X103688472Y-123521269D01*
X103718638Y-123590577D01*
X103734678Y-123682765D01*
X103739191Y-123799986D01*
X103739401Y-123805462D01*
X103737839Y-123881652D01*
G36*
X102038936Y-123396911D02*
G01*
X102080807Y-123407547D01*
X102119791Y-123434062D01*
X102169965Y-123483420D01*
X102202232Y-123518279D01*
X102235844Y-123563534D01*
X102251003Y-123605951D01*
X102254539Y-123659768D01*
X102254539Y-123747850D01*
X102194470Y-123716787D01*
X102146867Y-123678936D01*
X102114261Y-123627950D01*
X102108661Y-123614088D01*
X102065992Y-123560358D01*
X102006707Y-123533417D01*
X101942061Y-123536039D01*
X101883308Y-123571000D01*
X101858450Y-123599394D01*
X101843970Y-123635718D01*
X101859470Y-123668046D01*
X101907667Y-123700565D01*
X101991274Y-123737461D01*
X102003962Y-123742557D01*
X102080078Y-123775907D01*
X102145396Y-123808793D01*
X102186953Y-123834769D01*
X102228576Y-123881167D01*
X102256247Y-123955211D01*
X102253310Y-124034670D01*
X102220571Y-124109868D01*
X102158841Y-124171131D01*
X102108858Y-124197210D01*
X102012303Y-124215470D01*
X101958647Y-124213007D01*
X101908976Y-124199687D01*
X101889919Y-124171739D01*
X101897045Y-124125710D01*
X101899118Y-124119624D01*
X101915556Y-124087349D01*
X101942926Y-124075133D01*
X101995068Y-124075950D01*
X102031884Y-124077061D01*
X102074961Y-124067528D01*
X102104475Y-124039026D01*
X102121286Y-124003935D01*
X102123161Y-123967175D01*
X102123074Y-123966961D01*
X102101279Y-123947098D01*
X102054632Y-123918192D01*
X101994278Y-123885886D01*
X101931360Y-123855823D01*
X101877023Y-123833646D01*
X101842410Y-123825000D01*
X101837260Y-123833467D01*
X101830778Y-123873309D01*
X101826339Y-123938371D01*
X101824692Y-124020385D01*
X101824309Y-124077153D01*
X101822505Y-124148648D01*
X101819558Y-124197610D01*
X101815843Y-124215769D01*
X101796424Y-124209667D01*
X101757227Y-124193095D01*
X101707462Y-124170420D01*
X101707462Y-123879509D01*
X101707780Y-123804940D01*
X101710789Y-123691701D01*
X101718454Y-123607692D01*
X101732562Y-123546520D01*
X101754899Y-123501795D01*
X101787253Y-123467124D01*
X101831410Y-123436117D01*
X101887667Y-123410528D01*
X101991540Y-123395154D01*
X102038936Y-123396911D01*
G37*
X102038936Y-123396911D02*
X102080807Y-123407547D01*
X102119791Y-123434062D01*
X102169965Y-123483420D01*
X102202232Y-123518279D01*
X102235844Y-123563534D01*
X102251003Y-123605951D01*
X102254539Y-123659768D01*
X102254539Y-123747850D01*
X102194470Y-123716787D01*
X102146867Y-123678936D01*
X102114261Y-123627950D01*
X102108661Y-123614088D01*
X102065992Y-123560358D01*
X102006707Y-123533417D01*
X101942061Y-123536039D01*
X101883308Y-123571000D01*
X101858450Y-123599394D01*
X101843970Y-123635718D01*
X101859470Y-123668046D01*
X101907667Y-123700565D01*
X101991274Y-123737461D01*
X102003962Y-123742557D01*
X102080078Y-123775907D01*
X102145396Y-123808793D01*
X102186953Y-123834769D01*
X102228576Y-123881167D01*
X102256247Y-123955211D01*
X102253310Y-124034670D01*
X102220571Y-124109868D01*
X102158841Y-124171131D01*
X102108858Y-124197210D01*
X102012303Y-124215470D01*
X101958647Y-124213007D01*
X101908976Y-124199687D01*
X101889919Y-124171739D01*
X101897045Y-124125710D01*
X101899118Y-124119624D01*
X101915556Y-124087349D01*
X101942926Y-124075133D01*
X101995068Y-124075950D01*
X102031884Y-124077061D01*
X102074961Y-124067528D01*
X102104475Y-124039026D01*
X102121286Y-124003935D01*
X102123161Y-123967175D01*
X102123074Y-123966961D01*
X102101279Y-123947098D01*
X102054632Y-123918192D01*
X101994278Y-123885886D01*
X101931360Y-123855823D01*
X101877023Y-123833646D01*
X101842410Y-123825000D01*
X101837260Y-123833467D01*
X101830778Y-123873309D01*
X101826339Y-123938371D01*
X101824692Y-124020385D01*
X101824309Y-124077153D01*
X101822505Y-124148648D01*
X101819558Y-124197610D01*
X101815843Y-124215769D01*
X101796424Y-124209667D01*
X101757227Y-124193095D01*
X101707462Y-124170420D01*
X101707462Y-123879509D01*
X101707780Y-123804940D01*
X101710789Y-123691701D01*
X101718454Y-123607692D01*
X101732562Y-123546520D01*
X101754899Y-123501795D01*
X101787253Y-123467124D01*
X101831410Y-123436117D01*
X101887667Y-123410528D01*
X101991540Y-123395154D01*
X102038936Y-123396911D01*
D13*
%TO.C,CONN2*%
X112584000Y-49156000D02*
X111534000Y-49156000D01*
X107534000Y-44686000D02*
X111414000Y-44686000D01*
X106364000Y-49156000D02*
X107414000Y-49156000D01*
X107414000Y-49156000D02*
X107414000Y-50146000D01*
X106364000Y-46656000D02*
X106364000Y-49156000D01*
X112584000Y-46656000D02*
X112584000Y-49156000D01*
%TO.C,PlasticScannerLogo*%
G36*
X114305409Y-118370100D02*
G01*
X114339075Y-118381988D01*
X114391049Y-118401091D01*
X114459392Y-118426659D01*
X114542165Y-118457940D01*
X114637430Y-118494181D01*
X114743249Y-118534631D01*
X114857682Y-118578538D01*
X114978792Y-118625151D01*
X115104639Y-118673718D01*
X115233286Y-118723487D01*
X115362793Y-118773706D01*
X115491223Y-118823624D01*
X115616637Y-118872488D01*
X115737096Y-118919548D01*
X115850661Y-118964052D01*
X115955395Y-119005247D01*
X116049359Y-119042382D01*
X116130613Y-119074705D01*
X116197221Y-119101465D01*
X116247242Y-119121909D01*
X116278739Y-119135287D01*
X116289773Y-119140846D01*
X116288878Y-119142313D01*
X116273349Y-119154428D01*
X116240479Y-119176601D01*
X116192801Y-119207221D01*
X116132849Y-119244680D01*
X116063157Y-119287365D01*
X115986261Y-119333669D01*
X115961490Y-119348503D01*
X115886659Y-119393818D01*
X115819881Y-119434998D01*
X115763680Y-119470437D01*
X115720579Y-119498529D01*
X115693101Y-119517668D01*
X115683769Y-119526246D01*
X115688604Y-119536731D01*
X115704830Y-119566481D01*
X115731190Y-119612800D01*
X115766393Y-119673530D01*
X115809153Y-119746508D01*
X115858179Y-119829576D01*
X115912184Y-119920571D01*
X115969879Y-120017335D01*
X116029975Y-120117706D01*
X116091183Y-120219524D01*
X116152214Y-120320629D01*
X116211781Y-120418860D01*
X116268594Y-120512057D01*
X116321365Y-120598059D01*
X116368805Y-120674705D01*
X116394043Y-120715143D01*
X116477837Y-120847865D01*
X116561202Y-120977682D01*
X116642444Y-121102066D01*
X116719871Y-121218488D01*
X116791790Y-121324420D01*
X116856507Y-121417335D01*
X116912331Y-121494703D01*
X116957567Y-121553996D01*
X117065037Y-121681346D01*
X117182965Y-121802620D01*
X117298222Y-121900745D01*
X117411419Y-121976001D01*
X117523162Y-122028668D01*
X117634063Y-122059025D01*
X117744728Y-122067354D01*
X117855767Y-122053935D01*
X117967788Y-122019048D01*
X118045884Y-121982796D01*
X118141300Y-121924723D01*
X118235908Y-121851007D01*
X118331226Y-121760176D01*
X118428772Y-121650758D01*
X118530064Y-121521279D01*
X118636620Y-121370267D01*
X118660182Y-121334992D01*
X118707361Y-121262831D01*
X118765085Y-121173121D01*
X118832218Y-121067704D01*
X118907621Y-120948420D01*
X118990157Y-120817111D01*
X119078688Y-120675617D01*
X119172078Y-120525779D01*
X119269188Y-120369437D01*
X119368881Y-120208432D01*
X119470020Y-120044606D01*
X119571467Y-119879799D01*
X119672085Y-119715851D01*
X119770736Y-119554605D01*
X119866283Y-119397899D01*
X119957588Y-119247576D01*
X120043515Y-119105475D01*
X120122924Y-118973439D01*
X120194680Y-118853307D01*
X120257644Y-118746920D01*
X120299119Y-118676944D01*
X120338749Y-118611135D01*
X120373060Y-118555238D01*
X120400371Y-118511961D01*
X120418998Y-118484010D01*
X120427260Y-118474092D01*
X120435030Y-118477732D01*
X120461799Y-118492210D01*
X120505511Y-118516598D01*
X120564044Y-118549689D01*
X120635280Y-118590280D01*
X120717098Y-118637165D01*
X120807378Y-118689140D01*
X120904000Y-118745000D01*
X120914140Y-118750874D01*
X121023157Y-118814100D01*
X121113259Y-118866583D01*
X121186174Y-118909453D01*
X121243627Y-118943839D01*
X121287345Y-118970870D01*
X121319054Y-118991674D01*
X121340480Y-119007381D01*
X121353351Y-119019120D01*
X121359391Y-119028018D01*
X121360328Y-119035207D01*
X121357888Y-119041813D01*
X121343510Y-119068204D01*
X121317172Y-119115491D01*
X121281425Y-119179038D01*
X121237638Y-119256453D01*
X121187178Y-119345343D01*
X121131413Y-119443315D01*
X121071711Y-119547975D01*
X121009439Y-119656932D01*
X120945965Y-119767792D01*
X120882658Y-119878162D01*
X120820884Y-119985650D01*
X120762011Y-120087862D01*
X120707408Y-120182406D01*
X120658442Y-120266889D01*
X120616480Y-120338917D01*
X120595044Y-120375553D01*
X120437164Y-120643381D01*
X120288083Y-120892520D01*
X120146243Y-121125485D01*
X120010084Y-121344791D01*
X119878048Y-121552953D01*
X119748574Y-121752486D01*
X119620103Y-121945905D01*
X119599675Y-121976220D01*
X119515490Y-122098940D01*
X119439835Y-122204930D01*
X119370011Y-122297561D01*
X119303320Y-122380204D01*
X119237064Y-122456232D01*
X119168545Y-122529014D01*
X119095065Y-122601923D01*
X119044013Y-122649745D01*
X118879976Y-122785086D01*
X118708985Y-122898476D01*
X118529171Y-122990785D01*
X118338669Y-123062881D01*
X118135610Y-123115635D01*
X117918129Y-123149914D01*
X117902901Y-123151502D01*
X117824705Y-123157037D01*
X117733349Y-123160250D01*
X117636242Y-123161143D01*
X117540787Y-123159714D01*
X117454393Y-123155965D01*
X117384465Y-123149896D01*
X117339652Y-123143882D01*
X117164974Y-123109105D01*
X116999271Y-123056815D01*
X116841128Y-122986089D01*
X116689127Y-122896006D01*
X116541851Y-122785644D01*
X116397882Y-122654082D01*
X116255803Y-122500396D01*
X116114197Y-122323667D01*
X116059659Y-122249641D01*
X115981039Y-122139004D01*
X115893498Y-122012202D01*
X115798695Y-121871846D01*
X115698291Y-121720546D01*
X115593946Y-121560913D01*
X115487319Y-121395558D01*
X115380071Y-121227092D01*
X115273860Y-121058125D01*
X115170347Y-120891268D01*
X115071192Y-120729133D01*
X114978055Y-120574329D01*
X114892595Y-120429468D01*
X114816472Y-120297160D01*
X114751347Y-120180017D01*
X114749658Y-120176930D01*
X114728088Y-120140660D01*
X114709726Y-120115033D01*
X114698387Y-120105425D01*
X114695887Y-120106265D01*
X114676021Y-120116378D01*
X114639172Y-120136747D01*
X114587975Y-120165865D01*
X114525069Y-120202222D01*
X114453089Y-120244310D01*
X114374673Y-120290620D01*
X114344106Y-120308741D01*
X114268619Y-120353335D01*
X114201078Y-120393015D01*
X114144013Y-120426310D01*
X114099957Y-120451745D01*
X114071441Y-120467847D01*
X114060996Y-120473144D01*
X114061712Y-120463140D01*
X114064730Y-120430898D01*
X114069918Y-120378061D01*
X114077100Y-120306333D01*
X114086104Y-120217419D01*
X114096754Y-120113024D01*
X114108877Y-119994854D01*
X114122298Y-119864612D01*
X114136845Y-119724005D01*
X114152343Y-119574736D01*
X114168617Y-119418511D01*
X114185350Y-119258904D01*
X114205553Y-119068639D01*
X114223596Y-118901777D01*
X114239510Y-118758047D01*
X114253329Y-118637175D01*
X114265083Y-118538891D01*
X114274805Y-118462921D01*
X114282527Y-118408993D01*
X114288280Y-118376835D01*
X114292097Y-118366174D01*
X114305409Y-118370100D01*
G37*
G36*
X121395938Y-123718788D02*
G01*
X121395825Y-123809995D01*
X121395393Y-123916117D01*
X121394671Y-124012844D01*
X121393694Y-124097743D01*
X121392498Y-124168384D01*
X121391117Y-124222335D01*
X121389587Y-124257164D01*
X121387943Y-124270440D01*
X121386559Y-124270644D01*
X121366719Y-124271283D01*
X121324106Y-124271908D01*
X121259638Y-124272517D01*
X121174237Y-124273107D01*
X121068824Y-124273677D01*
X120944320Y-124274225D01*
X120801644Y-124274749D01*
X120641718Y-124275246D01*
X120465463Y-124275715D01*
X120273800Y-124276154D01*
X120067648Y-124276560D01*
X119847930Y-124276932D01*
X119615565Y-124277268D01*
X119371475Y-124277566D01*
X119116580Y-124277823D01*
X118851801Y-124278038D01*
X118578058Y-124278209D01*
X118296273Y-124278333D01*
X118007366Y-124278410D01*
X117712259Y-124278435D01*
X114044569Y-124278435D01*
X114044569Y-123175130D01*
X121395938Y-123175130D01*
X121395938Y-123718788D01*
G37*
%TO.C,kibuzzard-63988507*%
G36*
X113421474Y-52452941D02*
G01*
X113569940Y-52474963D01*
X113715533Y-52511433D01*
X113856850Y-52561997D01*
X113992530Y-52626168D01*
X114121267Y-52703330D01*
X114241821Y-52792739D01*
X114353030Y-52893534D01*
X114453825Y-53004744D01*
X114543234Y-53125298D01*
X114620396Y-53254035D01*
X114684568Y-53389715D01*
X114735132Y-53531032D01*
X114771601Y-53676624D01*
X114793624Y-53825090D01*
X114800988Y-53975000D01*
X114793624Y-54124910D01*
X114771601Y-54273376D01*
X114735132Y-54418968D01*
X114684568Y-54560285D01*
X114620396Y-54695965D01*
X114543234Y-54824702D01*
X114453825Y-54945256D01*
X114353030Y-55056466D01*
X114241821Y-55157261D01*
X114121267Y-55246670D01*
X113992530Y-55323832D01*
X113856850Y-55388003D01*
X113715533Y-55438567D01*
X113569940Y-55475037D01*
X113421474Y-55497059D01*
X113271564Y-55504424D01*
X106438435Y-55504424D01*
X106288525Y-55497059D01*
X106140059Y-55475036D01*
X105994467Y-55438567D01*
X105853150Y-55388003D01*
X105717470Y-55323831D01*
X105588733Y-55246669D01*
X105468179Y-55157261D01*
X105356969Y-55056466D01*
X105256175Y-54945256D01*
X105166766Y-54824702D01*
X105089604Y-54695965D01*
X105025432Y-54560285D01*
X105024760Y-54558406D01*
X106951065Y-54558406D01*
X107101084Y-54597697D01*
X107196929Y-54609305D01*
X107308253Y-54613175D01*
X107467499Y-54601864D01*
X107602337Y-54567931D01*
X107661868Y-54539356D01*
X108139309Y-54539356D01*
X108309569Y-54597697D01*
X108456015Y-54613175D01*
X108561088Y-54604841D01*
X108647706Y-54579838D01*
X108699683Y-54539356D01*
X109329934Y-54539356D01*
X109500194Y-54597697D01*
X109646640Y-54613175D01*
X109751713Y-54604841D01*
X109838331Y-54579838D01*
X109962156Y-54483397D01*
X110027640Y-54329806D01*
X110041928Y-54232770D01*
X110046690Y-54122638D01*
X110046690Y-53710681D01*
X110356253Y-53710681D01*
X110356253Y-53467794D01*
X110468172Y-53467794D01*
X110482534Y-53628528D01*
X110499426Y-53784500D01*
X110518848Y-53935709D01*
X110540800Y-54082156D01*
X110572947Y-54266306D01*
X110607475Y-54434581D01*
X110644384Y-54586981D01*
X110865840Y-54586981D01*
X110914656Y-54451250D01*
X110957519Y-54330997D01*
X110998000Y-54209553D01*
X111039672Y-54070250D01*
X111082534Y-54207172D01*
X111121825Y-54327425D01*
X111163497Y-54448869D01*
X111215884Y-54586981D01*
X111437340Y-54586981D01*
X111465022Y-54476551D01*
X111490919Y-54354809D01*
X111515029Y-54223245D01*
X111537353Y-54083347D01*
X111557594Y-53936602D01*
X111567065Y-53855937D01*
X111696897Y-53855937D01*
X111708803Y-54062445D01*
X111744522Y-54237467D01*
X111804053Y-54381003D01*
X111886074Y-54491996D01*
X111989261Y-54569386D01*
X112113615Y-54613175D01*
X111986219Y-54711997D01*
X111866263Y-54749204D01*
X111708803Y-54782244D01*
X111770715Y-54991794D01*
X111941239Y-54960705D01*
X112081336Y-54918240D01*
X112191006Y-54864397D01*
X112303818Y-54755752D01*
X112358884Y-54608413D01*
X112477550Y-54560920D01*
X112576372Y-54481942D01*
X112655350Y-54371478D01*
X112712897Y-54230058D01*
X112747425Y-54058211D01*
X112758934Y-53855937D01*
X112750153Y-53677121D01*
X112723811Y-53521670D01*
X112679906Y-53389585D01*
X112618440Y-53280866D01*
X112512607Y-53173048D01*
X112382432Y-53108357D01*
X112227915Y-53086794D01*
X112068636Y-53108357D01*
X111936874Y-53173048D01*
X111832628Y-53280866D01*
X111773246Y-53389585D01*
X111730829Y-53521670D01*
X111705380Y-53677121D01*
X111696897Y-53855937D01*
X111567065Y-53855937D01*
X111575453Y-53784500D01*
X111591526Y-53627933D01*
X111606409Y-53467794D01*
X111356378Y-53467794D01*
X111349896Y-53604848D01*
X111343149Y-53739785D01*
X111336137Y-53872606D01*
X111327009Y-54005692D01*
X111313912Y-54141423D01*
X111296847Y-54279800D01*
X111243269Y-54111922D01*
X111202787Y-53964284D01*
X111169450Y-53828553D01*
X111137303Y-53694012D01*
X110925372Y-53694012D01*
X110895606Y-53828553D01*
X110862269Y-53964284D01*
X110824169Y-54111922D01*
X110775353Y-54279800D01*
X110762256Y-54172644D01*
X110751540Y-54070250D01*
X110742908Y-53970535D01*
X110736062Y-53871416D01*
X110726537Y-53673772D01*
X110722668Y-53572866D01*
X110718203Y-53467794D01*
X110468172Y-53467794D01*
X110356253Y-53467794D01*
X109753797Y-53467794D01*
X109753797Y-54160738D01*
X109716887Y-54309566D01*
X109594253Y-54358381D01*
X109496622Y-54347666D01*
X109368034Y-54303613D01*
X109329934Y-54539356D01*
X108699683Y-54539356D01*
X108771531Y-54483397D01*
X108837015Y-54329806D01*
X108851303Y-54232770D01*
X108856065Y-54122638D01*
X108856065Y-53710681D01*
X109165628Y-53710681D01*
X109165628Y-53467794D01*
X108563172Y-53467794D01*
X108563172Y-54160738D01*
X108526262Y-54309566D01*
X108403628Y-54358381D01*
X108305997Y-54347666D01*
X108177409Y-54303613D01*
X108139309Y-54539356D01*
X107661868Y-54539356D01*
X107713958Y-54514353D01*
X107803553Y-54444106D01*
X107871716Y-54358381D01*
X107919044Y-54258369D01*
X107946726Y-54147045D01*
X107955953Y-54027388D01*
X107946428Y-53909516D01*
X107917853Y-53798787D01*
X107869633Y-53698477D01*
X107801172Y-53611859D01*
X107712172Y-53540422D01*
X107602337Y-53485653D01*
X107470476Y-53450827D01*
X107315397Y-53439219D01*
X107134422Y-53453506D01*
X106970115Y-53501131D01*
X107034409Y-53736875D01*
X107140375Y-53707109D01*
X107289203Y-53694012D01*
X107464225Y-53719016D01*
X107577334Y-53788072D01*
X107639247Y-53894037D01*
X107658297Y-54027388D01*
X107636568Y-54165500D01*
X107571381Y-54270275D01*
X107453807Y-54336355D01*
X107274915Y-54358381D01*
X107130850Y-54348856D01*
X106993928Y-54317900D01*
X106951065Y-54558406D01*
X105024760Y-54558406D01*
X104974868Y-54418968D01*
X104938399Y-54273376D01*
X104916376Y-54124910D01*
X104909012Y-53975000D01*
X104916376Y-53825090D01*
X104938399Y-53676624D01*
X104974868Y-53531032D01*
X105025432Y-53389715D01*
X105089604Y-53254035D01*
X105154163Y-53146325D01*
X108575078Y-53146325D01*
X108629847Y-53282056D01*
X108760815Y-53332062D01*
X108890594Y-53282056D01*
X108944172Y-53146325D01*
X109765703Y-53146325D01*
X109820472Y-53282056D01*
X109951440Y-53332062D01*
X110081219Y-53282056D01*
X110134797Y-53146325D01*
X110081219Y-53008212D01*
X109951440Y-52958206D01*
X109820472Y-53008212D01*
X109765703Y-53146325D01*
X108944172Y-53146325D01*
X108890594Y-53008212D01*
X108760815Y-52958206D01*
X108629847Y-53008212D01*
X108575078Y-53146325D01*
X105154163Y-53146325D01*
X105166766Y-53125298D01*
X105256175Y-53004744D01*
X105356969Y-52893534D01*
X105468179Y-52792739D01*
X105588733Y-52703331D01*
X105717470Y-52626169D01*
X105853150Y-52561997D01*
X105994467Y-52511433D01*
X106140059Y-52474964D01*
X106288525Y-52452941D01*
X106438435Y-52445576D01*
X113271564Y-52445576D01*
X113421474Y-52452941D01*
G37*
G36*
X112349359Y-53382069D02*
G01*
X112419606Y-53492797D01*
X112452944Y-53655912D01*
X112459194Y-53752353D01*
X112461278Y-53855937D01*
X112459194Y-53959522D01*
X112452944Y-54055963D01*
X112419606Y-54219078D01*
X112349359Y-54329806D01*
X112227915Y-54370288D01*
X112107662Y-54329806D01*
X112036225Y-54219078D01*
X112002887Y-54055963D01*
X111996637Y-53959522D01*
X111994553Y-53855937D01*
X111996637Y-53752055D01*
X112002887Y-53654722D01*
X112036225Y-53491606D01*
X112106472Y-53382069D01*
X112227915Y-53341587D01*
X112349359Y-53382069D01*
G37*
%TO.C,BT1*%
X118217000Y-61219000D02*
X118217000Y-79219000D01*
X116217000Y-97019000D02*
X116217000Y-81219000D01*
X106557000Y-113429000D02*
X114557000Y-113429000D01*
X102052000Y-60499000D02*
X102052000Y-117739000D01*
X108557000Y-111429000D02*
X112557000Y-111429000D01*
X103017000Y-61219000D02*
X118217000Y-61219000D01*
X103017000Y-99019000D02*
X103017000Y-117019000D01*
X105017000Y-81219000D02*
X105017000Y-97019000D01*
X103017000Y-61219000D02*
X103017000Y-79219000D01*
X119182000Y-60499000D02*
X102052000Y-60499000D01*
X102052000Y-117739000D02*
X119182000Y-117739000D01*
X103017000Y-117019000D02*
X118217000Y-117019000D01*
X119182000Y-117739000D02*
X119182000Y-60499000D01*
X113557000Y-112429000D02*
X107557000Y-112429000D01*
X109557000Y-110429000D02*
X111557000Y-110429000D01*
X118217000Y-99019000D02*
X118217000Y-117019000D01*
X105017000Y-81219000D02*
G75*
G03*
X103017000Y-79219000I-2000000J0D01*
G01*
X103017000Y-99019000D02*
G75*
G03*
X105017000Y-97019000I0J2000000D01*
G01*
X116217000Y-97019000D02*
G75*
G03*
X118217000Y-99019000I2000000J0D01*
G01*
X118217000Y-79219000D02*
G75*
G03*
X116217000Y-81219000I0J-2000000D01*
G01*
%TD*%
%LPC*%
%TO.C,PlasticScannerLogo*%
G36*
X114307799Y-118372450D02*
G01*
X114341465Y-118384338D01*
X114393439Y-118403441D01*
X114461782Y-118429009D01*
X114544555Y-118460290D01*
X114639820Y-118496531D01*
X114745639Y-118536981D01*
X114860072Y-118580888D01*
X114981182Y-118627501D01*
X115107029Y-118676068D01*
X115235676Y-118725837D01*
X115365183Y-118776056D01*
X115493613Y-118825974D01*
X115619027Y-118874838D01*
X115739486Y-118921898D01*
X115853051Y-118966402D01*
X115957785Y-119007597D01*
X116051749Y-119044732D01*
X116133003Y-119077055D01*
X116199611Y-119103815D01*
X116249632Y-119124259D01*
X116281129Y-119137637D01*
X116292163Y-119143196D01*
X116291268Y-119144663D01*
X116275739Y-119156778D01*
X116242869Y-119178951D01*
X116195191Y-119209571D01*
X116135239Y-119247030D01*
X116065547Y-119289715D01*
X115988651Y-119336019D01*
X115963880Y-119350853D01*
X115889049Y-119396168D01*
X115822271Y-119437348D01*
X115766070Y-119472787D01*
X115722969Y-119500879D01*
X115695491Y-119520018D01*
X115686159Y-119528596D01*
X115690994Y-119539081D01*
X115707220Y-119568831D01*
X115733580Y-119615150D01*
X115768783Y-119675880D01*
X115811543Y-119748858D01*
X115860569Y-119831926D01*
X115914574Y-119922921D01*
X115972269Y-120019685D01*
X116032365Y-120120056D01*
X116093573Y-120221874D01*
X116154604Y-120322979D01*
X116214171Y-120421210D01*
X116270984Y-120514407D01*
X116323755Y-120600409D01*
X116371195Y-120677055D01*
X116396433Y-120717493D01*
X116480227Y-120850215D01*
X116563592Y-120980032D01*
X116644834Y-121104416D01*
X116722261Y-121220838D01*
X116794180Y-121326770D01*
X116858897Y-121419685D01*
X116914721Y-121497053D01*
X116959957Y-121556346D01*
X117067427Y-121683696D01*
X117185355Y-121804970D01*
X117300612Y-121903095D01*
X117413809Y-121978351D01*
X117525552Y-122031018D01*
X117636453Y-122061375D01*
X117747118Y-122069704D01*
X117858157Y-122056285D01*
X117970178Y-122021398D01*
X118048274Y-121985146D01*
X118143690Y-121927073D01*
X118238298Y-121853357D01*
X118333616Y-121762526D01*
X118431162Y-121653108D01*
X118532454Y-121523629D01*
X118639010Y-121372617D01*
X118662572Y-121337342D01*
X118709751Y-121265181D01*
X118767475Y-121175471D01*
X118834608Y-121070054D01*
X118910011Y-120950770D01*
X118992547Y-120819461D01*
X119081078Y-120677967D01*
X119174468Y-120528129D01*
X119271578Y-120371787D01*
X119371271Y-120210782D01*
X119472410Y-120046956D01*
X119573857Y-119882149D01*
X119674475Y-119718201D01*
X119773126Y-119556955D01*
X119868673Y-119400249D01*
X119959978Y-119249926D01*
X120045905Y-119107825D01*
X120125314Y-118975789D01*
X120197070Y-118855657D01*
X120260034Y-118749270D01*
X120301509Y-118679294D01*
X120341139Y-118613485D01*
X120375450Y-118557588D01*
X120402761Y-118514311D01*
X120421388Y-118486360D01*
X120429650Y-118476442D01*
X120437420Y-118480082D01*
X120464189Y-118494560D01*
X120507901Y-118518948D01*
X120566434Y-118552039D01*
X120637670Y-118592630D01*
X120719488Y-118639515D01*
X120809768Y-118691490D01*
X120906390Y-118747350D01*
X120916530Y-118753224D01*
X121025547Y-118816450D01*
X121115649Y-118868933D01*
X121188564Y-118911803D01*
X121246017Y-118946189D01*
X121289735Y-118973220D01*
X121321444Y-118994024D01*
X121342870Y-119009731D01*
X121355741Y-119021470D01*
X121361781Y-119030368D01*
X121362718Y-119037557D01*
X121360278Y-119044163D01*
X121345900Y-119070554D01*
X121319562Y-119117841D01*
X121283815Y-119181388D01*
X121240028Y-119258803D01*
X121189568Y-119347693D01*
X121133803Y-119445665D01*
X121074101Y-119550325D01*
X121011829Y-119659282D01*
X120948355Y-119770142D01*
X120885048Y-119880512D01*
X120823274Y-119988000D01*
X120764401Y-120090212D01*
X120709798Y-120184756D01*
X120660832Y-120269239D01*
X120618870Y-120341267D01*
X120597434Y-120377903D01*
X120439554Y-120645731D01*
X120290473Y-120894870D01*
X120148633Y-121127835D01*
X120012474Y-121347141D01*
X119880438Y-121555303D01*
X119750964Y-121754836D01*
X119622493Y-121948255D01*
X119602065Y-121978570D01*
X119517880Y-122101290D01*
X119442225Y-122207280D01*
X119372401Y-122299911D01*
X119305710Y-122382554D01*
X119239454Y-122458582D01*
X119170935Y-122531364D01*
X119097455Y-122604273D01*
X119046403Y-122652095D01*
X118882366Y-122787436D01*
X118711375Y-122900826D01*
X118531561Y-122993135D01*
X118341059Y-123065231D01*
X118138000Y-123117985D01*
X117920519Y-123152264D01*
X117905291Y-123153852D01*
X117827095Y-123159387D01*
X117735739Y-123162600D01*
X117638632Y-123163493D01*
X117543177Y-123162064D01*
X117456783Y-123158315D01*
X117386855Y-123152246D01*
X117342042Y-123146232D01*
X117167364Y-123111455D01*
X117001661Y-123059165D01*
X116843518Y-122988439D01*
X116691517Y-122898356D01*
X116544241Y-122787994D01*
X116400272Y-122656432D01*
X116258193Y-122502746D01*
X116116587Y-122326017D01*
X116062049Y-122251991D01*
X115983429Y-122141354D01*
X115895888Y-122014552D01*
X115801085Y-121874196D01*
X115700681Y-121722896D01*
X115596336Y-121563263D01*
X115489709Y-121397908D01*
X115382461Y-121229442D01*
X115276250Y-121060475D01*
X115172737Y-120893618D01*
X115073582Y-120731483D01*
X114980445Y-120576679D01*
X114894985Y-120431818D01*
X114818862Y-120299510D01*
X114753737Y-120182367D01*
X114752048Y-120179280D01*
X114730478Y-120143010D01*
X114712116Y-120117383D01*
X114700777Y-120107775D01*
X114698277Y-120108615D01*
X114678411Y-120118728D01*
X114641562Y-120139097D01*
X114590365Y-120168215D01*
X114527459Y-120204572D01*
X114455479Y-120246660D01*
X114377063Y-120292970D01*
X114346496Y-120311091D01*
X114271009Y-120355685D01*
X114203468Y-120395365D01*
X114146403Y-120428660D01*
X114102347Y-120454095D01*
X114073831Y-120470197D01*
X114063386Y-120475494D01*
X114064102Y-120465490D01*
X114067120Y-120433248D01*
X114072308Y-120380411D01*
X114079490Y-120308683D01*
X114088494Y-120219769D01*
X114099144Y-120115374D01*
X114111267Y-119997204D01*
X114124688Y-119866962D01*
X114139235Y-119726355D01*
X114154733Y-119577086D01*
X114171007Y-119420861D01*
X114187740Y-119261254D01*
X114207943Y-119070989D01*
X114225986Y-118904127D01*
X114241900Y-118760397D01*
X114255719Y-118639525D01*
X114267473Y-118541241D01*
X114277195Y-118465271D01*
X114284917Y-118411343D01*
X114290670Y-118379185D01*
X114294487Y-118368524D01*
X114307799Y-118372450D01*
G37*
%TD*%
D14*
%TO.C,X1*%
X103830000Y-131950000D03*
D15*
X106330000Y-131950000D03*
%TD*%
D16*
%TO.C,A1*%
X120796500Y-115062000D03*
D17*
X120796500Y-112522000D03*
X120796500Y-109982000D03*
X120796500Y-107442000D03*
X120796500Y-104902000D03*
X120796500Y-102362000D03*
X120796500Y-99822000D03*
X120796500Y-97282000D03*
X120796500Y-94742000D03*
X120796500Y-92202000D03*
X120796500Y-89662000D03*
X120796500Y-87122000D03*
X120796500Y-84582000D03*
X120796500Y-82042000D03*
X120796500Y-79502000D03*
X120796500Y-76962000D03*
X100476500Y-76962000D03*
X100476500Y-79502000D03*
X100476500Y-82042000D03*
X100476500Y-84582000D03*
X100476500Y-87122000D03*
X100476500Y-89662000D03*
X100476500Y-92202000D03*
X100476500Y-94742000D03*
X100476500Y-97282000D03*
X100476500Y-99822000D03*
X100476500Y-102362000D03*
X100476500Y-104902000D03*
%TD*%
D14*
%TO.C,X2*%
X103720000Y-125710000D03*
D15*
X106220000Y-125710000D03*
%TD*%
D18*
%TO.C,J2*%
X104850000Y-174000000D03*
X116450000Y-174000000D03*
X104850000Y-171000000D03*
X116450000Y-171000000D03*
%TD*%
D19*
%TO.C,CONN2*%
X107974000Y-49371000D03*
X108974000Y-49371000D03*
X109974000Y-49371000D03*
X110974000Y-49371000D03*
D20*
X106674000Y-45496000D03*
X112274000Y-45496000D03*
%TD*%
D21*
%TO.C,BT1*%
X104622000Y-65869000D03*
X116612000Y-112349000D03*
D22*
X110617000Y-63119000D03*
D23*
X110617000Y-115109000D03*
%TD*%
M02*
