%TF.GenerationSoftware,KiCad,Pcbnew,(6.0.4-0)*%
%TF.CreationDate,2022-11-29T11:04:19+01:00*%
%TF.ProjectId,ControllerBoard,436f6e74-726f-46c6-9c65-72426f617264,rev?*%
%TF.SameCoordinates,Original*%
%TF.FileFunction,Legend,Top*%
%TF.FilePolarity,Positive*%
%FSLAX46Y46*%
G04 Gerber Fmt 4.6, Leading zero omitted, Abs format (unit mm)*
G04 Created by KiCad (PCBNEW (6.0.4-0)) date 2022-11-29 11:04:19*
%MOMM*%
%LPD*%
G01*
G04 APERTURE LIST*
G04 Aperture macros list*
%AMRoundRect*
0 Rectangle with rounded corners*
0 $1 Rounding radius*
0 $2 $3 $4 $5 $6 $7 $8 $9 X,Y pos of 4 corners*
0 Add a 4 corners polygon primitive as box body*
4,1,4,$2,$3,$4,$5,$6,$7,$8,$9,$2,$3,0*
0 Add four circle primitives for the rounded corners*
1,1,$1+$1,$2,$3*
1,1,$1+$1,$4,$5*
1,1,$1+$1,$6,$7*
1,1,$1+$1,$8,$9*
0 Add four rect primitives between the rounded corners*
20,1,$1+$1,$2,$3,$4,$5,0*
20,1,$1+$1,$4,$5,$6,$7,0*
20,1,$1+$1,$6,$7,$8,$9,0*
20,1,$1+$1,$8,$9,$2,$3,0*%
G04 Aperture macros list end*
%ADD10C,0.150000*%
%ADD11C,0.120000*%
%ADD12C,0.200000*%
%ADD13RoundRect,0.250000X0.750000X-0.600000X0.750000X0.600000X-0.750000X0.600000X-0.750000X-0.600000X0*%
%ADD14O,2.000000X1.700000*%
%ADD15RoundRect,0.150000X-0.150000X-0.625000X0.150000X-0.625000X0.150000X0.625000X-0.150000X0.625000X0*%
%ADD16RoundRect,0.250000X-0.350000X-0.650000X0.350000X-0.650000X0.350000X0.650000X-0.350000X0.650000X0*%
%ADD17R,1.600000X1.600000*%
%ADD18C,1.600000*%
%ADD19R,0.700000X1.050000*%
%ADD20R,0.760000X1.050000*%
%ADD21R,0.800000X1.050000*%
%ADD22O,0.900000X1.500000*%
%ADD23RoundRect,0.250000X-0.250000X-2.500000X0.250000X-2.500000X0.250000X2.500000X-0.250000X2.500000X0*%
%ADD24RoundRect,0.250000X-0.550000X-1.250000X0.550000X-1.250000X0.550000X1.250000X-0.550000X1.250000X0*%
%ADD25C,2.640000*%
%ADD26R,2.000000X2.000000*%
%ADD27C,2.000000*%
G04 APERTURE END LIST*
D10*
%TO.C,X1*%
X107302380Y-36609523D02*
X108302380Y-35942857D01*
X107302380Y-35942857D02*
X108302380Y-36609523D01*
X108302380Y-35038095D02*
X108302380Y-35609523D01*
X108302380Y-35323809D02*
X107302380Y-35323809D01*
X107445238Y-35419047D01*
X107540476Y-35514285D01*
X107588095Y-35609523D01*
%TO.C,CONN1*%
X108911904Y-129607142D02*
X108864285Y-129654761D01*
X108721428Y-129702380D01*
X108626190Y-129702380D01*
X108483333Y-129654761D01*
X108388095Y-129559523D01*
X108340476Y-129464285D01*
X108292857Y-129273809D01*
X108292857Y-129130952D01*
X108340476Y-128940476D01*
X108388095Y-128845238D01*
X108483333Y-128750000D01*
X108626190Y-128702380D01*
X108721428Y-128702380D01*
X108864285Y-128750000D01*
X108911904Y-128797619D01*
X109530952Y-128702380D02*
X109721428Y-128702380D01*
X109816666Y-128750000D01*
X109911904Y-128845238D01*
X109959523Y-129035714D01*
X109959523Y-129369047D01*
X109911904Y-129559523D01*
X109816666Y-129654761D01*
X109721428Y-129702380D01*
X109530952Y-129702380D01*
X109435714Y-129654761D01*
X109340476Y-129559523D01*
X109292857Y-129369047D01*
X109292857Y-129035714D01*
X109340476Y-128845238D01*
X109435714Y-128750000D01*
X109530952Y-128702380D01*
X110388095Y-129702380D02*
X110388095Y-128702380D01*
X110959523Y-129702380D01*
X110959523Y-128702380D01*
X111435714Y-129702380D02*
X111435714Y-128702380D01*
X112007142Y-129702380D01*
X112007142Y-128702380D01*
X113007142Y-129702380D02*
X112435714Y-129702380D01*
X112721428Y-129702380D02*
X112721428Y-128702380D01*
X112626190Y-128845238D01*
X112530952Y-128940476D01*
X112435714Y-128988095D01*
%TO.C,A1*%
X110035714Y-68666666D02*
X110511904Y-68666666D01*
X109940476Y-68952380D02*
X110273809Y-67952380D01*
X110607142Y-68952380D01*
X111464285Y-68952380D02*
X110892857Y-68952380D01*
X111178571Y-68952380D02*
X111178571Y-67952380D01*
X111083333Y-68095238D01*
X110988095Y-68190476D01*
X110892857Y-68238095D01*
%TO.C,J2*%
X110316666Y-172452380D02*
X110316666Y-173166666D01*
X110269047Y-173309523D01*
X110173809Y-173404761D01*
X110030952Y-173452380D01*
X109935714Y-173452380D01*
X110745238Y-172547619D02*
X110792857Y-172500000D01*
X110888095Y-172452380D01*
X111126190Y-172452380D01*
X111221428Y-172500000D01*
X111269047Y-172547619D01*
X111316666Y-172642857D01*
X111316666Y-172738095D01*
X111269047Y-172880952D01*
X110697619Y-173452380D01*
X111316666Y-173452380D01*
%TO.C,J1*%
X110316666Y-16102380D02*
X110316666Y-16816666D01*
X110269047Y-16959523D01*
X110173809Y-17054761D01*
X110030952Y-17102380D01*
X109935714Y-17102380D01*
X111316666Y-17102380D02*
X110745238Y-17102380D01*
X111030952Y-17102380D02*
X111030952Y-16102380D01*
X110935714Y-16245238D01*
X110840476Y-16340476D01*
X110745238Y-16388095D01*
D11*
%TO.C,X1*%
X110760000Y-39960000D02*
X113260000Y-39960000D01*
X109440000Y-39160000D02*
X109440000Y-32440000D01*
X108940000Y-39660000D02*
X112960000Y-39660000D01*
X111460000Y-39660000D02*
X111460000Y-38660000D01*
X111460000Y-38660000D02*
X112960000Y-38660000D01*
X109440000Y-32440000D02*
X110650000Y-32440000D01*
X112960000Y-39660000D02*
X112960000Y-31940000D01*
X108940000Y-31940000D02*
X108940000Y-39660000D01*
X110650000Y-32440000D02*
X110650000Y-31940000D01*
X111460000Y-32940000D02*
X112960000Y-32940000D01*
X113260000Y-39960000D02*
X113260000Y-37460000D01*
X111460000Y-31940000D02*
X111460000Y-32940000D01*
X110650000Y-39160000D02*
X109440000Y-39160000D01*
X112960000Y-31940000D02*
X108940000Y-31940000D01*
X110650000Y-39660000D02*
X110650000Y-39160000D01*
%TO.C,CONN1*%
X108710000Y-130540000D02*
X112590000Y-130540000D01*
X108590000Y-133660000D02*
X108590000Y-134650000D01*
X113760000Y-133660000D02*
X112710000Y-133660000D01*
X107540000Y-133660000D02*
X108590000Y-133660000D01*
X113760000Y-132510000D02*
X113760000Y-133660000D01*
X107540000Y-132510000D02*
X107540000Y-133660000D01*
%TO.C,A1*%
X98897500Y-76750000D02*
X98897500Y-74750000D01*
X119647500Y-120310000D02*
X101867500Y-120310000D01*
X99217500Y-71940000D02*
X99217500Y-117660000D01*
X119647500Y-69290000D02*
X101867500Y-69290000D01*
X122297500Y-71940000D02*
X122297500Y-117660000D01*
X99217500Y-117660000D02*
G75*
G03*
X101867500Y-120310000I2650000J0D01*
G01*
X122297500Y-71940000D02*
G75*
G03*
X119647500Y-69290000I-2650000J0D01*
G01*
X101867500Y-69290000D02*
G75*
G03*
X99217500Y-71940000I0J-2650000D01*
G01*
X119647500Y-120310000D02*
G75*
G03*
X122297500Y-117660000I0J2650000D01*
G01*
D12*
%TO.C,J2*%
X105380000Y-174850000D02*
X105380000Y-175000000D01*
X115920000Y-172000000D02*
X115920000Y-173050000D01*
X105380000Y-175000000D02*
X115920000Y-175000000D01*
X105380000Y-169450000D02*
X105380000Y-169900000D01*
X105380000Y-172000000D02*
X105380000Y-173050000D01*
X115920000Y-175000000D02*
X115920000Y-174850000D01*
X115920000Y-169450000D02*
X115920000Y-169900000D01*
D11*
%TO.C,J1*%
X100565000Y-22110000D02*
X100565000Y-22960000D01*
X100565000Y-22960000D02*
X102890000Y-22960000D01*
X120735000Y-22110000D02*
X120735000Y-22960000D01*
X120735000Y-22960000D02*
X118410000Y-22960000D01*
X102890000Y-22960000D02*
X102890000Y-25350000D01*
X100565000Y-18590000D02*
X100565000Y-17740000D01*
X100565000Y-17740000D02*
X120735000Y-17740000D01*
X120735000Y-17740000D02*
X120735000Y-18590000D01*
%TD*%
%LPC*%
D13*
%TO.C,X1*%
X110650000Y-37050000D03*
D14*
X110650000Y-34550000D03*
%TD*%
D15*
%TO.C,CONN1*%
X109150000Y-133875000D03*
X110150000Y-133875000D03*
X111150000Y-133875000D03*
X112150000Y-133875000D03*
D16*
X113450000Y-131350000D03*
X107850000Y-131350000D03*
%TD*%
D17*
%TO.C,A1*%
X100597500Y-75750000D03*
D18*
X100597500Y-78290000D03*
X100597500Y-80830000D03*
X100597500Y-83370000D03*
X100597500Y-85910000D03*
X100597500Y-88450000D03*
X100597500Y-90990000D03*
X100597500Y-93530000D03*
X100597500Y-96070000D03*
X100597500Y-98610000D03*
X100597500Y-101150000D03*
X100597500Y-103690000D03*
X100597500Y-106230000D03*
X100597500Y-108770000D03*
X100597500Y-111310000D03*
X100597500Y-113850000D03*
X120917500Y-113850000D03*
X120917500Y-111310000D03*
X120917500Y-108770000D03*
X120917500Y-106230000D03*
X120917500Y-103690000D03*
X120917500Y-101150000D03*
X120917500Y-98610000D03*
X120917500Y-96070000D03*
X120917500Y-93530000D03*
X120917500Y-90990000D03*
X120917500Y-88450000D03*
X120917500Y-85910000D03*
%TD*%
D19*
%TO.C,J2*%
X110150000Y-168175000D03*
D20*
X112170000Y-168175000D03*
D21*
X113400000Y-168175000D03*
D19*
X111150000Y-168175000D03*
D20*
X109130000Y-168175000D03*
D21*
X107900000Y-168175000D03*
D22*
X104850000Y-174000000D03*
X116450000Y-174000000D03*
X104850000Y-171000000D03*
X116450000Y-171000000D03*
%TD*%
D23*
%TO.C,J1*%
X103650000Y-22600000D03*
X105650000Y-22600000D03*
X107650000Y-22600000D03*
X109650000Y-22600000D03*
X111650000Y-22600000D03*
X113650000Y-22600000D03*
X115650000Y-22600000D03*
X117650000Y-22600000D03*
D24*
X101250000Y-20350000D03*
X120050000Y-20350000D03*
%TD*%
D25*
%TO.C,BT1*%
X104805000Y-69500000D03*
X116795000Y-115980000D03*
D26*
X110800000Y-66750000D03*
D27*
X110800000Y-118740000D03*
%TD*%
M02*
