%TF.GenerationSoftware,KiCad,Pcbnew,(6.0.4-0)*%
%TF.CreationDate,2022-12-23T17:01:59+01:00*%
%TF.ProjectId,ControllerBoard,436f6e74-726f-46c6-9c65-72426f617264,rev?*%
%TF.SameCoordinates,Original*%
%TF.FileFunction,Copper,L1,Top*%
%TF.FilePolarity,Positive*%
%FSLAX46Y46*%
G04 Gerber Fmt 4.6, Leading zero omitted, Abs format (unit mm)*
G04 Created by KiCad (PCBNEW (6.0.4-0)) date 2022-12-23 17:01:59*
%MOMM*%
%LPD*%
G01*
G04 APERTURE LIST*
G04 Aperture macros list*
%AMRoundRect*
0 Rectangle with rounded corners*
0 $1 Rounding radius*
0 $2 $3 $4 $5 $6 $7 $8 $9 X,Y pos of 4 corners*
0 Add a 4 corners polygon primitive as box body*
4,1,4,$2,$3,$4,$5,$6,$7,$8,$9,$2,$3,0*
0 Add four circle primitives for the rounded corners*
1,1,$1+$1,$2,$3*
1,1,$1+$1,$4,$5*
1,1,$1+$1,$6,$7*
1,1,$1+$1,$8,$9*
0 Add four rect primitives between the rounded corners*
20,1,$1+$1,$2,$3,$4,$5,0*
20,1,$1+$1,$4,$5,$6,$7,0*
20,1,$1+$1,$6,$7,$8,$9,0*
20,1,$1+$1,$8,$9,$2,$3,0*%
G04 Aperture macros list end*
%ADD10C,0.300000*%
%TA.AperFunction,NonConductor*%
%ADD11C,0.300000*%
%TD*%
%TA.AperFunction,NonConductor*%
%ADD12C,0.200000*%
%TD*%
%TA.AperFunction,ComponentPad*%
%ADD13RoundRect,0.250000X-0.600000X-0.750000X0.600000X-0.750000X0.600000X0.750000X-0.600000X0.750000X0*%
%TD*%
%TA.AperFunction,ComponentPad*%
%ADD14O,1.700000X2.000000*%
%TD*%
%TA.AperFunction,SMDPad,CuDef*%
%ADD15RoundRect,0.237500X-0.237500X0.250000X-0.237500X-0.250000X0.237500X-0.250000X0.237500X0.250000X0*%
%TD*%
%TA.AperFunction,SMDPad,CuDef*%
%ADD16RoundRect,0.237500X0.250000X0.237500X-0.250000X0.237500X-0.250000X-0.237500X0.250000X-0.237500X0*%
%TD*%
%TA.AperFunction,SMDPad,CuDef*%
%ADD17R,1.000000X1.500000*%
%TD*%
%TA.AperFunction,SMDPad,CuDef*%
%ADD18R,0.600000X0.700000*%
%TD*%
%TA.AperFunction,SMDPad,CuDef*%
%ADD19RoundRect,0.237500X0.237500X-0.250000X0.237500X0.250000X-0.237500X0.250000X-0.237500X-0.250000X0*%
%TD*%
%TA.AperFunction,SMDPad,CuDef*%
%ADD20R,0.700000X0.600000*%
%TD*%
%TA.AperFunction,SMDPad,CuDef*%
%ADD21RoundRect,0.150000X0.150000X-0.587500X0.150000X0.587500X-0.150000X0.587500X-0.150000X-0.587500X0*%
%TD*%
%TA.AperFunction,SMDPad,CuDef*%
%ADD22RoundRect,0.150000X-0.150000X-0.625000X0.150000X-0.625000X0.150000X0.625000X-0.150000X0.625000X0*%
%TD*%
%TA.AperFunction,SMDPad,CuDef*%
%ADD23RoundRect,0.250000X-0.350000X-0.650000X0.350000X-0.650000X0.350000X0.650000X-0.350000X0.650000X0*%
%TD*%
%TA.AperFunction,ComponentPad*%
%ADD24R,1.600000X1.600000*%
%TD*%
%TA.AperFunction,ComponentPad*%
%ADD25C,1.600000*%
%TD*%
%TA.AperFunction,SMDPad,CuDef*%
%ADD26R,0.700000X1.050000*%
%TD*%
%TA.AperFunction,SMDPad,CuDef*%
%ADD27R,0.760000X1.050000*%
%TD*%
%TA.AperFunction,SMDPad,CuDef*%
%ADD28R,0.800000X1.050000*%
%TD*%
%TA.AperFunction,ComponentPad*%
%ADD29O,0.900000X1.500000*%
%TD*%
%TA.AperFunction,SMDPad,CuDef*%
%ADD30RoundRect,0.250000X-0.250000X-2.500000X0.250000X-2.500000X0.250000X2.500000X-0.250000X2.500000X0*%
%TD*%
%TA.AperFunction,SMDPad,CuDef*%
%ADD31RoundRect,0.250000X-0.550000X-1.250000X0.550000X-1.250000X0.550000X1.250000X-0.550000X1.250000X0*%
%TD*%
%TA.AperFunction,SMDPad,CuDef*%
%ADD32RoundRect,0.150000X0.587500X0.150000X-0.587500X0.150000X-0.587500X-0.150000X0.587500X-0.150000X0*%
%TD*%
%TA.AperFunction,ComponentPad*%
%ADD33R,2.000000X2.000000*%
%TD*%
%TA.AperFunction,ComponentPad*%
%ADD34C,2.000000*%
%TD*%
%TA.AperFunction,ViaPad*%
%ADD35C,0.800000*%
%TD*%
%TA.AperFunction,Conductor*%
%ADD36C,0.500000*%
%TD*%
G04 APERTURE END LIST*
D10*
D11*
X103721428Y-4521429D02*
X103792857Y-4450001D01*
X103935714Y-4378572D01*
X104292857Y-4378572D01*
X104435714Y-4450001D01*
X104507142Y-4521429D01*
X104578571Y-4664286D01*
X104578571Y-4807143D01*
X104507142Y-5021429D01*
X103650000Y-5878572D01*
X104578571Y-5878572D01*
X105935714Y-4378572D02*
X105221428Y-4378572D01*
X105150000Y-5092858D01*
X105221428Y-5021429D01*
X105364285Y-4950001D01*
X105721428Y-4950001D01*
X105864285Y-5021429D01*
X105935714Y-5092858D01*
X106007142Y-5235715D01*
X106007142Y-5592858D01*
X105935714Y-5735715D01*
X105864285Y-5807143D01*
X105721428Y-5878572D01*
X105364285Y-5878572D01*
X105221428Y-5807143D01*
X105150000Y-5735715D01*
X106650000Y-5735715D02*
X106721428Y-5807143D01*
X106650000Y-5878572D01*
X106578571Y-5807143D01*
X106650000Y-5735715D01*
X106650000Y-5878572D01*
X107650000Y-4378572D02*
X107792857Y-4378572D01*
X107935714Y-4450001D01*
X108007142Y-4521429D01*
X108078571Y-4664286D01*
X108150000Y-4950001D01*
X108150000Y-5307143D01*
X108078571Y-5592858D01*
X108007142Y-5735715D01*
X107935714Y-5807143D01*
X107792857Y-5878572D01*
X107650000Y-5878572D01*
X107507142Y-5807143D01*
X107435714Y-5735715D01*
X107364285Y-5592858D01*
X107292857Y-5307143D01*
X107292857Y-4950001D01*
X107364285Y-4664286D01*
X107435714Y-4521429D01*
X107507142Y-4450001D01*
X107650000Y-4378572D01*
X109078571Y-4378572D02*
X109221428Y-4378572D01*
X109364285Y-4450001D01*
X109435714Y-4521429D01*
X109507142Y-4664286D01*
X109578571Y-4950001D01*
X109578571Y-5307143D01*
X109507142Y-5592858D01*
X109435714Y-5735715D01*
X109364285Y-5807143D01*
X109221428Y-5878572D01*
X109078571Y-5878572D01*
X108935714Y-5807143D01*
X108864285Y-5735715D01*
X108792857Y-5592858D01*
X108721428Y-5307143D01*
X108721428Y-4950001D01*
X108792857Y-4664286D01*
X108864285Y-4521429D01*
X108935714Y-4450001D01*
X109078571Y-4378572D01*
X110507142Y-4378572D02*
X110650000Y-4378572D01*
X110792857Y-4450001D01*
X110864285Y-4521429D01*
X110935714Y-4664286D01*
X111007142Y-4950001D01*
X111007142Y-5307143D01*
X110935714Y-5592858D01*
X110864285Y-5735715D01*
X110792857Y-5807143D01*
X110650000Y-5878572D01*
X110507142Y-5878572D01*
X110364285Y-5807143D01*
X110292857Y-5735715D01*
X110221428Y-5592858D01*
X110150000Y-5307143D01*
X110150000Y-4950001D01*
X110221428Y-4664286D01*
X110292857Y-4521429D01*
X110364285Y-4450001D01*
X110507142Y-4378572D01*
X111935714Y-4378572D02*
X112078571Y-4378572D01*
X112221428Y-4450001D01*
X112292857Y-4521429D01*
X112364285Y-4664286D01*
X112435714Y-4950001D01*
X112435714Y-5307143D01*
X112364285Y-5592858D01*
X112292857Y-5735715D01*
X112221428Y-5807143D01*
X112078571Y-5878572D01*
X111935714Y-5878572D01*
X111792857Y-5807143D01*
X111721428Y-5735715D01*
X111650000Y-5592858D01*
X111578571Y-5307143D01*
X111578571Y-4950001D01*
X111650000Y-4664286D01*
X111721428Y-4521429D01*
X111792857Y-4450001D01*
X111935714Y-4378572D01*
X114221428Y-5878572D02*
X114221428Y-4878572D01*
X114221428Y-5021429D02*
X114292857Y-4950001D01*
X114435714Y-4878572D01*
X114650000Y-4878572D01*
X114792857Y-4950001D01*
X114864285Y-5092858D01*
X114864285Y-5878572D01*
X114864285Y-5092858D02*
X114935714Y-4950001D01*
X115078571Y-4878572D01*
X115292857Y-4878572D01*
X115435714Y-4950001D01*
X115507142Y-5092858D01*
X115507142Y-5878572D01*
X116221428Y-5878572D02*
X116221428Y-4878572D01*
X116221428Y-5021429D02*
X116292857Y-4950001D01*
X116435714Y-4878572D01*
X116650000Y-4878572D01*
X116792857Y-4950001D01*
X116864285Y-5092858D01*
X116864285Y-5878572D01*
X116864285Y-5092858D02*
X116935714Y-4950001D01*
X117078571Y-4878572D01*
X117292857Y-4878572D01*
X117435714Y-4950001D01*
X117507142Y-5092858D01*
X117507142Y-5878572D01*
D12*
X123150000Y-14500000D02*
X123150000Y-6413581D01*
X98150000Y-14500000D02*
X98150000Y-6413581D01*
X123150000Y-7000001D02*
X98150000Y-7000001D01*
X123150000Y-7000001D02*
X98150000Y-7000001D01*
X123150000Y-7000001D02*
X122023496Y-6413580D01*
X123150000Y-7000001D02*
X122023496Y-7586422D01*
X98150000Y-7000001D02*
X99276504Y-7586422D01*
X98150000Y-7000001D02*
X99276504Y-6413580D01*
%TO.C,JP2*%
G36*
X115040000Y-155720000D02*
G01*
X114540000Y-155720000D01*
X114540000Y-155120000D01*
X115040000Y-155120000D01*
X115040000Y-155720000D01*
G37*
%TD*%
D13*
%TO.P,X1,1,1*%
%TO.N,Net-(JP1-Pad2)*%
X103830000Y-131950000D03*
D14*
%TO.P,X1,2,2*%
%TO.N,Net-(BT1-Pad1)*%
X106330000Y-131950000D03*
%TD*%
D15*
%TO.P,R8,1*%
%TO.N,GND*%
X120780000Y-124177500D03*
%TO.P,R8,2*%
%TO.N,Net-(D3-Pad1)*%
X120780000Y-126002500D03*
%TD*%
D16*
%TO.P,R4,1*%
%TO.N,Net-(BT1-Pad1)*%
X117072500Y-133380000D03*
%TO.P,R4,2*%
%TO.N,Net-(Q2-Pad1)*%
X115247500Y-133380000D03*
%TD*%
D17*
%TO.P,JP2,1,A*%
%TO.N,Net-(D2-Pad1)*%
X114140000Y-155420000D03*
%TO.P,JP2,2,B*%
%TO.N,Net-(D1-Pad1)*%
X115440000Y-155420000D03*
%TD*%
D18*
%TO.P,D2,1,K*%
%TO.N,Net-(D2-Pad1)*%
X114330000Y-151910000D03*
%TO.P,D2,2,A*%
%TO.N,USB_pwr*%
X112930000Y-151910000D03*
%TD*%
D19*
%TO.P,R3,1*%
%TO.N,Net-(D1-Pad1)*%
X118560000Y-151905000D03*
%TO.P,R3,2*%
%TO.N,Net-(Q1-Pad1)*%
X118560000Y-150080000D03*
%TD*%
D20*
%TO.P,D1,1,K*%
%TO.N,Net-(D1-Pad1)*%
X117660000Y-154810000D03*
%TO.P,D1,2,A*%
%TO.N,Net-(D1-Pad2)*%
X117660000Y-156210000D03*
%TD*%
D15*
%TO.P,R7,1*%
%TO.N,Net-(D3-Pad2)*%
X119150000Y-135290000D03*
%TO.P,R7,2*%
%TO.N,Net-(Q1-Pad2)*%
X119150000Y-137115000D03*
%TD*%
D21*
%TO.P,Q1,1,B*%
%TO.N,Net-(Q1-Pad1)*%
X117030000Y-148190000D03*
%TO.P,Q1,2,E*%
%TO.N,Net-(Q1-Pad2)*%
X118930000Y-148190000D03*
%TO.P,Q1,3,C*%
%TO.N,Net-(Q1-Pad3)*%
X117980000Y-146315000D03*
%TD*%
D19*
%TO.P,R1,1*%
%TO.N,Net-(J2-PadA5)*%
X109790000Y-164662500D03*
%TO.P,R1,2*%
%TO.N,GND*%
X109790000Y-162837500D03*
%TD*%
D22*
%TO.P,CONN1,1,GND*%
%TO.N,GND*%
X107085000Y-51363000D03*
%TO.P,CONN1,2,V+*%
%TO.N,3.3V*%
X108085000Y-51363000D03*
%TO.P,CONN1,3,SDA*%
%TO.N,Net-(A1-Pad17)*%
X109085000Y-51363000D03*
%TO.P,CONN1,4,SCL*%
%TO.N,Net-(A1-Pad18)*%
X110085000Y-51363000D03*
D23*
%TO.P,CONN1,MP*%
%TO.N,N/C*%
X111385000Y-48838000D03*
X105785000Y-48838000D03*
%TD*%
D24*
%TO.P,A1,1,~{RESET}*%
%TO.N,unconnected-(A1-Pad1)*%
X120796500Y-115062000D03*
D25*
%TO.P,A1,2,3V3*%
%TO.N,3.3V*%
X120796500Y-112522000D03*
%TO.P,A1,3,NC*%
%TO.N,unconnected-(A1-Pad3)*%
X120796500Y-109982000D03*
%TO.P,A1,4,GND*%
%TO.N,GND*%
X120796500Y-107442000D03*
%TO.P,A1,5,DAC2/A0*%
%TO.N,unconnected-(A1-Pad5)*%
X120796500Y-104902000D03*
%TO.P,A1,6,DAC1/A1*%
%TO.N,unconnected-(A1-Pad6)*%
X120796500Y-102362000D03*
%TO.P,A1,7,I34/A2*%
%TO.N,unconnected-(A1-Pad7)*%
X120796500Y-99822000D03*
%TO.P,A1,8,I39/A3*%
%TO.N,unconnected-(A1-Pad8)*%
X120796500Y-97282000D03*
%TO.P,A1,9,IO36/A4*%
%TO.N,unconnected-(A1-Pad9)*%
X120796500Y-94742000D03*
%TO.P,A1,10,IO4/A5*%
%TO.N,unconnected-(A1-Pad10)*%
X120796500Y-92202000D03*
%TO.P,A1,11,SCK/IO5*%
%TO.N,Net-(A1-Pad11)*%
X120796500Y-89662000D03*
%TO.P,A1,12,MOSI/IO18*%
%TO.N,Net-(A1-Pad12)*%
X120796500Y-87122000D03*
%TO.P,A1,13,MISO/IO19*%
%TO.N,unconnected-(A1-Pad13)*%
X120796500Y-84582000D03*
%TO.P,A1,14,RX/IO16*%
%TO.N,unconnected-(A1-Pad14)*%
X120796500Y-82042000D03*
%TO.P,A1,15,TX/IO17*%
%TO.N,unconnected-(A1-Pad15)*%
X120796500Y-79502000D03*
%TO.P,A1,16,IO21*%
%TO.N,unconnected-(A1-Pad16)*%
X120796500Y-76962000D03*
%TO.P,A1,17,SDA/IO23*%
%TO.N,Net-(A1-Pad17)*%
X100476500Y-76962000D03*
%TO.P,A1,18,SCL/IO22*%
%TO.N,Net-(A1-Pad18)*%
X100476500Y-79502000D03*
%TO.P,A1,19,A6/IO14*%
%TO.N,unconnected-(A1-Pad19)*%
X100476500Y-82042000D03*
%TO.P,A1,20,A7/IO32*%
%TO.N,Net-(A1-Pad20)*%
X100476500Y-84582000D03*
%TO.P,A1,21,A8/IO15*%
%TO.N,Net-(A1-Pad21)*%
X100476500Y-87122000D03*
%TO.P,A1,22,A9/IO33*%
%TO.N,Net-(A1-Pad22)*%
X100476500Y-89662000D03*
%TO.P,A1,23,A10/IO27*%
%TO.N,Net-(A1-Pad23)*%
X100476500Y-92202000D03*
%TO.P,A1,24,A11/IO12*%
%TO.N,KeepAlive*%
X100476500Y-94742000D03*
%TO.P,A1,25,A12/IO13*%
%TO.N,Trigger*%
X100476500Y-97282000D03*
%TO.P,A1,26,USB*%
%TO.N,USB_pwr*%
X100476500Y-99822000D03*
%TO.P,A1,27,EN*%
%TO.N,unconnected-(A1-Pad27)*%
X100476500Y-102362000D03*
%TO.P,A1,28,VBAT*%
%TO.N,power for the esp32*%
X100476500Y-104902000D03*
%TD*%
D15*
%TO.P,R2,1*%
%TO.N,GND*%
X111330000Y-162827500D03*
%TO.P,R2,2*%
%TO.N,Net-(J2-PadB5)*%
X111330000Y-164652500D03*
%TD*%
D21*
%TO.P,Q2,1,G*%
%TO.N,Net-(Q2-Pad1)*%
X113790000Y-129797500D03*
%TO.P,Q2,2,S*%
%TO.N,Net-(BT1-Pad1)*%
X115690000Y-129797500D03*
%TO.P,Q2,3,D*%
%TO.N,power for the esp32*%
X114740000Y-127922500D03*
%TD*%
D19*
%TO.P,R5,1*%
%TO.N,Net-(Q1-Pad3)*%
X117530000Y-142325000D03*
%TO.P,R5,2*%
%TO.N,Net-(BT1-Pad1)*%
X117530000Y-140500000D03*
%TD*%
D15*
%TO.P,R9,1*%
%TO.N,Net-(D4-Pad1)*%
X118380000Y-127257500D03*
%TO.P,R9,2*%
%TO.N,Net-(D3-Pad1)*%
X118380000Y-129082500D03*
%TD*%
D20*
%TO.P,D3,1,K*%
%TO.N,Net-(D3-Pad1)*%
X120360000Y-130910000D03*
%TO.P,D3,2,A*%
%TO.N,Net-(D3-Pad2)*%
X120360000Y-132310000D03*
%TD*%
D15*
%TO.P,R6,1*%
%TO.N,GND*%
X119840000Y-140520000D03*
%TO.P,R6,2*%
%TO.N,Net-(Q1-Pad2)*%
X119840000Y-142345000D03*
%TD*%
D13*
%TO.P,X2,1,1*%
%TO.N,power for the esp32*%
X103720000Y-125710000D03*
D14*
%TO.P,X2,2,2*%
%TO.N,Net-(BT1-Pad1)*%
X106220000Y-125710000D03*
%TD*%
D26*
%TO.P,J2,A5,CC1*%
%TO.N,Net-(J2-PadA5)*%
X110150000Y-168175000D03*
D27*
%TO.P,J2,A9,VBUS*%
%TO.N,USB_pwr*%
X112170000Y-168175000D03*
D28*
%TO.P,J2,A12,GND*%
%TO.N,GND*%
X113400000Y-168175000D03*
D26*
%TO.P,J2,B5,CC2*%
%TO.N,Net-(J2-PadB5)*%
X111150000Y-168175000D03*
D27*
%TO.P,J2,B9,VBUS*%
%TO.N,USB_pwr*%
X109130000Y-168175000D03*
D28*
%TO.P,J2,B12,GND*%
%TO.N,GND*%
X107900000Y-168175000D03*
D29*
%TO.P,J2,S1,SHIELD*%
%TO.N,Net-(J2-PadS1)*%
X104850000Y-174000000D03*
%TO.P,J2,S2,SHIELD*%
X116450000Y-174000000D03*
%TO.P,J2,S3,SHIELD*%
X104850000Y-171000000D03*
%TO.P,J2,S4,SHIELD*%
X116450000Y-171000000D03*
%TD*%
D20*
%TO.P,D4,1,K*%
%TO.N,Net-(D4-Pad1)*%
X117900000Y-124410000D03*
%TO.P,D4,2,A*%
%TO.N,KeepAlive*%
X117900000Y-123010000D03*
%TD*%
D17*
%TO.P,JP1,1,A*%
%TO.N,Net-(D1-Pad2)*%
X114680000Y-160010000D03*
%TO.P,JP1,2,C*%
%TO.N,Net-(JP1-Pad2)*%
X115980000Y-160010000D03*
%TO.P,JP1,3,B*%
%TO.N,Trigger*%
X117280000Y-160010000D03*
%TD*%
D30*
%TO.P,J1,1,Pin_1*%
%TO.N,3.3V*%
X103744000Y-40370000D03*
%TO.P,J1,2,Pin_2*%
%TO.N,GND*%
X105744000Y-40370000D03*
%TO.P,J1,3,Pin_3*%
%TO.N,Net-(A1-Pad12)*%
X107744000Y-40370000D03*
%TO.P,J1,4,Pin_4*%
%TO.N,Net-(A1-Pad11)*%
X109744000Y-40370000D03*
%TO.P,J1,5,Pin_5*%
%TO.N,Net-(A1-Pad20)*%
X111744000Y-40370000D03*
%TO.P,J1,6,Pin_6*%
%TO.N,Net-(A1-Pad21)*%
X113744000Y-40370000D03*
%TO.P,J1,7,Pin_7*%
%TO.N,Net-(A1-Pad22)*%
X115744000Y-40370000D03*
%TO.P,J1,8,Pin_8*%
%TO.N,Net-(A1-Pad23)*%
X117744000Y-40370000D03*
D31*
%TO.P,J1,MP,MountPin*%
%TO.N,GND*%
X101344000Y-38120000D03*
X120144000Y-38120000D03*
%TD*%
D32*
%TO.P,Q3,1,B*%
%TO.N,Net-(D3-Pad1)*%
X115127500Y-124660000D03*
%TO.P,Q3,2,E*%
%TO.N,GND*%
X115127500Y-122760000D03*
%TO.P,Q3,3,C*%
%TO.N,Net-(Q2-Pad1)*%
X113252500Y-123710000D03*
%TD*%
D33*
%TO.P,BT1,1,+*%
%TO.N,Net-(BT1-Pad1)*%
X110617000Y-63119000D03*
D34*
%TO.P,BT1,2,-*%
%TO.N,GND*%
X110617000Y-115109000D03*
%TD*%
D35*
%TO.N,3.3V*%
X107620000Y-47710000D03*
%TO.N,GND*%
X100660000Y-129270000D03*
X116570000Y-144650000D03*
X114760000Y-165700000D03*
X106110000Y-166070000D03*
X111550000Y-155610000D03*
X99330000Y-111170000D03*
X113180000Y-100210000D03*
X116450000Y-116560000D03*
X120420000Y-44890000D03*
X112880000Y-59310000D03*
X101470000Y-138170000D03*
X117000000Y-36230000D03*
X104130000Y-162170000D03*
X116650000Y-123670000D03*
X103370000Y-53080000D03*
X110850000Y-134090000D03*
X106740000Y-96290000D03*
X116290000Y-151730000D03*
X110800000Y-160860000D03*
X117660000Y-90340000D03*
X106520000Y-153470000D03*
X120650000Y-55140000D03*
X104960000Y-36320000D03*
X119650000Y-122300000D03*
X100940000Y-45920000D03*
X113070000Y-77870000D03*
%TO.N,Net-(A1-Pad18)*%
X110500000Y-47010000D03*
%TO.N,Net-(A1-Pad17)*%
X108940000Y-47040000D03*
%TO.N,Trigger*%
X119010000Y-157590000D03*
%TO.N,USB_pwr*%
X108530000Y-151510000D03*
%TO.N,Net-(A1-Pad11)*%
X110060000Y-45110000D03*
%TO.N,Net-(A1-Pad12)*%
X108260000Y-44660000D03*
%TO.N,power for the esp32*%
X115960000Y-128170000D03*
X113350000Y-122310000D03*
%TO.N,Net-(BT1-Pad1)*%
X106210000Y-108500000D03*
%TO.N,Net-(JP1-Pad2)*%
X116080000Y-162720000D03*
%TD*%
D36*
%TO.N,3.3V*%
X108085000Y-48175000D02*
X107620000Y-47710000D01*
X108085000Y-51363000D02*
X108085000Y-48175000D01*
X103744000Y-43834000D02*
X107620000Y-47710000D01*
X103744000Y-40370000D02*
X103744000Y-43834000D01*
%TO.N,GND*%
X113400000Y-167060000D02*
X114760000Y-165700000D01*
X107900000Y-168175000D02*
X107900000Y-167860000D01*
X113400000Y-168175000D02*
X113400000Y-167060000D01*
X107900000Y-167860000D02*
X106110000Y-166070000D01*
%TO.N,Net-(A1-Pad18)*%
X110085000Y-47425000D02*
X110085000Y-51363000D01*
X101726010Y-60843990D02*
X101726010Y-78252490D01*
X101726010Y-78252490D02*
X100476500Y-79502000D01*
X110500000Y-47010000D02*
X110085000Y-47425000D01*
X110085000Y-51363000D02*
X110085000Y-52485000D01*
X110085000Y-52485000D02*
X101726010Y-60843990D01*
%TO.N,KeepAlive*%
X102750000Y-118710000D02*
X105420000Y-121380000D01*
X100476500Y-94742000D02*
X102750000Y-97015500D01*
X102750000Y-97015500D02*
X102750000Y-118710000D01*
X105420000Y-121380000D02*
X116730000Y-121380000D01*
X117900000Y-122550000D02*
X117900000Y-123010000D01*
X116730000Y-121380000D02*
X117900000Y-122550000D01*
%TO.N,Net-(A1-Pad17)*%
X100476500Y-60594349D02*
X100476500Y-76962000D01*
X109085000Y-47185000D02*
X109085000Y-51363000D01*
X109085000Y-51985849D02*
X100476500Y-60594349D01*
X108940000Y-47040000D02*
X109085000Y-47185000D01*
X109085000Y-51363000D02*
X109085000Y-51985849D01*
%TO.N,Trigger*%
X119010000Y-158280000D02*
X117280000Y-160010000D01*
X119010000Y-157590000D02*
X119010000Y-158280000D01*
%TO.N,USB_pwr*%
X112170000Y-168175000D02*
X112170000Y-167150000D01*
X108530000Y-151510000D02*
X110430000Y-153410000D01*
X107910000Y-166360978D02*
X107910000Y-156470000D01*
X110555480Y-153824520D02*
X112254520Y-153824520D01*
X107910000Y-156470000D02*
X110430000Y-153950000D01*
X112254520Y-152585480D02*
X112930000Y-151910000D01*
X109130000Y-168175000D02*
X109130000Y-167580978D01*
X112254520Y-153824520D02*
X112254520Y-152585480D01*
X112170000Y-167150000D02*
X113070000Y-166250000D01*
X110430000Y-153950000D02*
X110555480Y-153824520D01*
X109130000Y-167580978D02*
X107910000Y-166360978D01*
X113070000Y-166250000D02*
X113070000Y-154640000D01*
X113070000Y-154640000D02*
X112254520Y-153824520D01*
X110430000Y-153410000D02*
X110430000Y-153950000D01*
%TO.N,Net-(A1-Pad11)*%
X109744000Y-44794000D02*
X110060000Y-45110000D01*
X109744000Y-40370000D02*
X109744000Y-44794000D01*
%TO.N,Net-(A1-Pad12)*%
X107744000Y-40370000D02*
X107744000Y-44144000D01*
X107744000Y-44144000D02*
X108260000Y-44660000D01*
%TO.N,Net-(A1-Pad20)*%
X102790000Y-61160000D02*
X112434520Y-51515480D01*
X102790000Y-82268500D02*
X102790000Y-61160000D01*
X100476500Y-84582000D02*
X102790000Y-82268500D01*
X112434520Y-51515480D02*
X112434520Y-45484520D01*
X111744000Y-44794000D02*
X111744000Y-40370000D01*
X112434520Y-45484520D02*
X111744000Y-44794000D01*
%TO.N,Net-(A1-Pad21)*%
X106441521Y-58968479D02*
X113744000Y-51666000D01*
X100476500Y-87122000D02*
X106441521Y-81156979D01*
X106441521Y-81156979D02*
X106441521Y-58968479D01*
X113744000Y-51666000D02*
X113744000Y-40370000D01*
%TO.N,Net-(A1-Pad22)*%
X107400000Y-82738500D02*
X107400000Y-59480000D01*
X115744000Y-51136000D02*
X115744000Y-40370000D01*
X107400000Y-59480000D02*
X115744000Y-51136000D01*
X100476500Y-89662000D02*
X107400000Y-82738500D01*
%TO.N,Net-(A1-Pad23)*%
X108570000Y-84108500D02*
X108570000Y-59950000D01*
X100476500Y-92202000D02*
X108570000Y-84108500D01*
X108570000Y-59950000D02*
X117340000Y-51180000D01*
X117340000Y-51180000D02*
X117340000Y-40774000D01*
X117340000Y-40774000D02*
X117744000Y-40370000D01*
%TO.N,power for the esp32*%
X103720000Y-125710000D02*
X107120000Y-122310000D01*
X100476500Y-104902000D02*
X100476500Y-122466500D01*
X100476500Y-122466500D02*
X103720000Y-125710000D01*
X114987500Y-128170000D02*
X114740000Y-127922500D01*
X107120000Y-122310000D02*
X113350000Y-122310000D01*
X115960000Y-128170000D02*
X114987500Y-128170000D01*
%TO.N,Net-(BT1-Pad1)*%
X117530000Y-140500000D02*
X117530000Y-135400000D01*
X106210000Y-108500000D02*
X110617000Y-104093000D01*
X106220000Y-131840000D02*
X106330000Y-131950000D01*
X117530000Y-135400000D02*
X117530000Y-133837500D01*
X117530000Y-133837500D02*
X117072500Y-133380000D01*
X117072500Y-131180000D02*
X115690000Y-129797500D01*
X117072500Y-133380000D02*
X117072500Y-131180000D01*
X110617000Y-104093000D02*
X110617000Y-63119000D01*
X106220000Y-125710000D02*
X106220000Y-131840000D01*
X106330000Y-131950000D02*
X111630000Y-131950000D01*
X111630000Y-131950000D02*
X115080000Y-135400000D01*
X115080000Y-135400000D02*
X117530000Y-135400000D01*
%TO.N,Net-(D1-Pad1)*%
X117660000Y-152805000D02*
X118560000Y-151905000D01*
X117660000Y-154810000D02*
X117660000Y-152805000D01*
X116050000Y-154810000D02*
X115440000Y-155420000D01*
X117660000Y-154810000D02*
X116050000Y-154810000D01*
%TO.N,Net-(D1-Pad2)*%
X114680000Y-159190000D02*
X117660000Y-156210000D01*
X114680000Y-160010000D02*
X114680000Y-159190000D01*
%TO.N,Net-(D2-Pad1)*%
X114140000Y-155420000D02*
X114140000Y-152100000D01*
X114140000Y-152100000D02*
X114330000Y-151910000D01*
%TO.N,Net-(D3-Pad1)*%
X118380000Y-129082500D02*
X118532500Y-129082500D01*
X115127500Y-125830000D02*
X118380000Y-129082500D01*
X118380000Y-129082500D02*
X120780000Y-126682500D01*
X118532500Y-129082500D02*
X120360000Y-130910000D01*
X115127500Y-124660000D02*
X115127500Y-125830000D01*
X120780000Y-126682500D02*
X120780000Y-126002500D01*
%TO.N,Net-(D3-Pad2)*%
X119150000Y-135290000D02*
X120360000Y-134080000D01*
X120360000Y-134080000D02*
X120360000Y-132310000D01*
%TO.N,Net-(D4-Pad1)*%
X117900000Y-126777500D02*
X118380000Y-127257500D01*
X117900000Y-124410000D02*
X117900000Y-126777500D01*
%TO.N,Net-(J2-PadA5)*%
X110150000Y-168175000D02*
X110150000Y-165022500D01*
X110150000Y-165022500D02*
X109790000Y-164662500D01*
%TO.N,Net-(J2-PadB5)*%
X111330000Y-164652500D02*
X111330000Y-167995000D01*
X111330000Y-167995000D02*
X111150000Y-168175000D01*
%TO.N,Net-(JP1-Pad2)*%
X115980000Y-160010000D02*
X115980000Y-162620000D01*
X115980000Y-162620000D02*
X116080000Y-162720000D01*
%TO.N,Net-(Q1-Pad1)*%
X118560000Y-150080000D02*
X118560000Y-149720000D01*
X118560000Y-149720000D02*
X117030000Y-148190000D01*
%TO.N,Net-(Q1-Pad2)*%
X118915480Y-141420480D02*
X119840000Y-142345000D01*
X118915480Y-137349520D02*
X118915480Y-141420480D01*
X119150000Y-137115000D02*
X118915480Y-137349520D01*
X118930000Y-148190000D02*
X118930000Y-143255000D01*
X118930000Y-143255000D02*
X119840000Y-142345000D01*
%TO.N,Net-(Q1-Pad3)*%
X117980000Y-142775000D02*
X117530000Y-142325000D01*
X117980000Y-146315000D02*
X117980000Y-142775000D01*
%TO.N,Net-(Q2-Pad1)*%
X115247500Y-133380000D02*
X115247500Y-131255000D01*
X113252500Y-129260000D02*
X113790000Y-129797500D01*
X113252500Y-123710000D02*
X113252500Y-129260000D01*
X115247500Y-131255000D02*
X113790000Y-129797500D01*
%TD*%
%TA.AperFunction,Conductor*%
%TO.N,GND*%
G36*
X122583621Y-35528502D02*
G01*
X122630114Y-35582158D01*
X122641500Y-35634500D01*
X122641500Y-124968348D01*
X122640875Y-124980885D01*
X121088569Y-140503949D01*
X121063883Y-140750804D01*
X121037202Y-140816597D01*
X120979186Y-140857520D01*
X120908255Y-140860581D01*
X120846930Y-140824809D01*
X120820264Y-140778383D01*
X120817135Y-140775671D01*
X120809452Y-140774000D01*
X119799980Y-140774000D01*
X119731859Y-140753998D01*
X119685366Y-140700342D01*
X119673980Y-140648000D01*
X119673980Y-140247885D01*
X120094000Y-140247885D01*
X120098475Y-140263124D01*
X120099865Y-140264329D01*
X120107548Y-140266000D01*
X120804885Y-140266000D01*
X120820124Y-140261525D01*
X120821329Y-140260135D01*
X120823000Y-140252452D01*
X120823000Y-140223734D01*
X120822663Y-140217218D01*
X120812925Y-140123368D01*
X120810032Y-140109972D01*
X120759512Y-139958547D01*
X120753347Y-139945385D01*
X120669574Y-139810008D01*
X120660540Y-139798610D01*
X120547871Y-139686137D01*
X120536460Y-139677125D01*
X120400937Y-139593588D01*
X120387759Y-139587444D01*
X120236234Y-139537185D01*
X120222868Y-139534319D01*
X120130230Y-139524828D01*
X120123815Y-139524500D01*
X120112115Y-139524500D01*
X120096876Y-139528975D01*
X120095671Y-139530365D01*
X120094000Y-139538048D01*
X120094000Y-140247885D01*
X119673980Y-140247885D01*
X119673980Y-138135237D01*
X119693982Y-138067116D01*
X119733674Y-138028095D01*
X119854031Y-137953616D01*
X119859204Y-137948434D01*
X119971758Y-137835684D01*
X119971762Y-137835679D01*
X119976929Y-137830503D01*
X120068209Y-137682420D01*
X120122974Y-137517309D01*
X120133500Y-137414572D01*
X120133500Y-136815428D01*
X120122707Y-136711407D01*
X120105427Y-136659611D01*
X120069972Y-136553341D01*
X120067654Y-136546393D01*
X119976116Y-136398469D01*
X119970934Y-136393296D01*
X119869214Y-136291753D01*
X119835135Y-136229470D01*
X119840138Y-136158650D01*
X119869059Y-136113563D01*
X119971754Y-136010688D01*
X119971758Y-136010683D01*
X119976929Y-136005503D01*
X119980770Y-135999272D01*
X120064369Y-135863650D01*
X120064370Y-135863648D01*
X120068209Y-135857420D01*
X120122974Y-135692309D01*
X120133500Y-135589572D01*
X120133500Y-135431371D01*
X120153502Y-135363250D01*
X120170405Y-135342276D01*
X120848911Y-134663770D01*
X120863323Y-134651384D01*
X120874918Y-134642851D01*
X120874923Y-134642846D01*
X120880818Y-134638508D01*
X120885557Y-134632930D01*
X120885560Y-134632927D01*
X120915035Y-134598232D01*
X120921965Y-134590716D01*
X120927660Y-134585021D01*
X120945281Y-134562749D01*
X120948072Y-134559345D01*
X120990591Y-134509297D01*
X120990592Y-134509295D01*
X120995333Y-134503715D01*
X120998661Y-134497199D01*
X121002028Y-134492150D01*
X121005195Y-134487021D01*
X121009734Y-134481284D01*
X121040655Y-134415125D01*
X121042561Y-134411225D01*
X121066931Y-134363500D01*
X121075769Y-134346192D01*
X121077508Y-134339086D01*
X121079607Y-134333441D01*
X121081524Y-134327678D01*
X121084622Y-134321050D01*
X121088004Y-134304793D01*
X121099486Y-134249588D01*
X121100457Y-134245299D01*
X121116473Y-134179845D01*
X121117808Y-134174390D01*
X121118500Y-134163236D01*
X121118536Y-134163238D01*
X121118775Y-134159245D01*
X121119149Y-134155053D01*
X121120640Y-134147885D01*
X121118546Y-134070479D01*
X121118500Y-134067072D01*
X121118500Y-132954874D01*
X121138502Y-132886753D01*
X121143661Y-132879327D01*
X121160615Y-132856705D01*
X121211745Y-132720316D01*
X121218500Y-132658134D01*
X121218500Y-131961866D01*
X121211745Y-131899684D01*
X121160615Y-131763295D01*
X121102360Y-131685565D01*
X121077512Y-131619058D01*
X121092565Y-131549676D01*
X121102360Y-131534435D01*
X121155229Y-131463892D01*
X121155230Y-131463890D01*
X121160615Y-131456705D01*
X121211745Y-131320316D01*
X121218500Y-131258134D01*
X121218500Y-130561866D01*
X121211745Y-130499684D01*
X121160615Y-130363295D01*
X121073261Y-130246739D01*
X120956705Y-130159385D01*
X120820316Y-130108255D01*
X120758134Y-130101500D01*
X120676371Y-130101500D01*
X120608250Y-130081498D01*
X120587276Y-130064595D01*
X119618026Y-129095345D01*
X119584000Y-129033033D01*
X119589065Y-128962218D01*
X119618026Y-128917155D01*
X121268911Y-127266270D01*
X121283323Y-127253884D01*
X121294918Y-127245351D01*
X121294923Y-127245346D01*
X121300818Y-127241008D01*
X121305557Y-127235430D01*
X121305560Y-127235427D01*
X121335035Y-127200732D01*
X121341965Y-127193216D01*
X121347661Y-127187520D01*
X121349924Y-127184659D01*
X121349929Y-127184654D01*
X121365293Y-127165234D01*
X121368082Y-127161833D01*
X121410592Y-127111796D01*
X121410594Y-127111794D01*
X121415333Y-127106215D01*
X121418662Y-127099695D01*
X121422028Y-127094648D01*
X121425193Y-127089524D01*
X121429735Y-127083783D01*
X121441176Y-127059305D01*
X121456592Y-127026319D01*
X121460637Y-127017664D01*
X121462565Y-127013718D01*
X121492442Y-126955208D01*
X121492443Y-126955206D01*
X121495769Y-126948692D01*
X121497508Y-126941586D01*
X121499609Y-126935936D01*
X121501524Y-126930179D01*
X121504622Y-126923550D01*
X121519486Y-126852091D01*
X121520457Y-126847801D01*
X121526091Y-126824777D01*
X121559307Y-126765708D01*
X121601758Y-126723183D01*
X121606929Y-126718003D01*
X121620590Y-126695841D01*
X121694369Y-126576150D01*
X121694370Y-126576148D01*
X121698209Y-126569920D01*
X121752974Y-126404809D01*
X121763500Y-126302072D01*
X121763500Y-125702928D01*
X121752707Y-125598907D01*
X121721301Y-125504770D01*
X121699972Y-125440841D01*
X121697654Y-125433893D01*
X121606116Y-125285969D01*
X121498859Y-125178899D01*
X121464780Y-125116618D01*
X121469783Y-125045798D01*
X121498704Y-125000709D01*
X121601363Y-124897871D01*
X121610375Y-124886460D01*
X121693912Y-124750937D01*
X121700056Y-124737759D01*
X121750315Y-124586234D01*
X121753181Y-124572868D01*
X121762672Y-124480230D01*
X121763000Y-124473815D01*
X121763000Y-124449615D01*
X121758525Y-124434376D01*
X121757135Y-124433171D01*
X121749452Y-124431500D01*
X119815115Y-124431500D01*
X119799876Y-124435975D01*
X119798671Y-124437365D01*
X119797000Y-124445048D01*
X119797000Y-124473766D01*
X119797337Y-124480282D01*
X119807075Y-124574132D01*
X119809968Y-124587528D01*
X119860488Y-124738953D01*
X119866653Y-124752115D01*
X119950426Y-124887492D01*
X119959460Y-124898890D01*
X120061140Y-125000393D01*
X120095219Y-125062676D01*
X120090216Y-125133496D01*
X120061296Y-125178583D01*
X119953071Y-125286997D01*
X119949231Y-125293227D01*
X119949230Y-125293228D01*
X119866364Y-125427662D01*
X119861791Y-125435080D01*
X119807026Y-125600191D01*
X119796500Y-125702928D01*
X119796500Y-126302072D01*
X119796837Y-126305318D01*
X119796837Y-126305322D01*
X119803873Y-126373128D01*
X119807293Y-126406093D01*
X119809474Y-126412630D01*
X119809475Y-126412635D01*
X119826778Y-126464500D01*
X119829362Y-126535450D01*
X119796349Y-126593470D01*
X119542655Y-126847164D01*
X119480343Y-126881190D01*
X119409528Y-126876125D01*
X119352692Y-126833578D01*
X119334038Y-126797948D01*
X119297654Y-126688893D01*
X119206116Y-126540969D01*
X119132147Y-126467129D01*
X119088184Y-126423242D01*
X119088179Y-126423238D01*
X119083003Y-126418071D01*
X119061488Y-126404809D01*
X118941150Y-126330631D01*
X118941148Y-126330630D01*
X118934920Y-126326791D01*
X118836993Y-126294310D01*
X118776338Y-126274191D01*
X118776333Y-126274190D01*
X118769809Y-126272026D01*
X118762971Y-126271325D01*
X118758085Y-126270278D01*
X118695671Y-126236440D01*
X118661460Y-126174229D01*
X118658500Y-126147078D01*
X118658500Y-125054874D01*
X118678502Y-124986753D01*
X118683661Y-124979327D01*
X118700615Y-124956705D01*
X118751745Y-124820316D01*
X118758500Y-124758134D01*
X118758500Y-124061866D01*
X118751745Y-123999684D01*
X118716394Y-123905385D01*
X119797000Y-123905385D01*
X119801475Y-123920624D01*
X119802865Y-123921829D01*
X119810548Y-123923500D01*
X120507885Y-123923500D01*
X120523124Y-123919025D01*
X120524329Y-123917635D01*
X120526000Y-123909952D01*
X120526000Y-123905385D01*
X121034000Y-123905385D01*
X121038475Y-123920624D01*
X121039865Y-123921829D01*
X121047548Y-123923500D01*
X121744885Y-123923500D01*
X121760124Y-123919025D01*
X121761329Y-123917635D01*
X121763000Y-123909952D01*
X121763000Y-123881234D01*
X121762663Y-123874718D01*
X121752925Y-123780868D01*
X121750032Y-123767472D01*
X121699512Y-123616047D01*
X121693347Y-123602885D01*
X121609574Y-123467508D01*
X121600540Y-123456110D01*
X121487871Y-123343637D01*
X121476460Y-123334625D01*
X121340937Y-123251088D01*
X121327759Y-123244944D01*
X121176234Y-123194685D01*
X121162868Y-123191819D01*
X121070230Y-123182328D01*
X121063815Y-123182000D01*
X121052115Y-123182000D01*
X121036876Y-123186475D01*
X121035671Y-123187865D01*
X121034000Y-123195548D01*
X121034000Y-123905385D01*
X120526000Y-123905385D01*
X120526000Y-123200115D01*
X120521525Y-123184876D01*
X120520135Y-123183671D01*
X120512452Y-123182000D01*
X120496234Y-123182000D01*
X120489718Y-123182337D01*
X120395868Y-123192075D01*
X120382472Y-123194968D01*
X120231047Y-123245488D01*
X120217885Y-123251653D01*
X120082508Y-123335426D01*
X120071110Y-123344460D01*
X119958637Y-123457129D01*
X119949625Y-123468540D01*
X119866088Y-123604063D01*
X119859944Y-123617241D01*
X119809685Y-123768766D01*
X119806819Y-123782132D01*
X119797328Y-123874770D01*
X119797000Y-123881185D01*
X119797000Y-123905385D01*
X118716394Y-123905385D01*
X118700615Y-123863295D01*
X118691775Y-123851500D01*
X118642360Y-123785565D01*
X118617512Y-123719058D01*
X118632565Y-123649676D01*
X118642360Y-123634435D01*
X118695229Y-123563892D01*
X118695230Y-123563890D01*
X118700615Y-123556705D01*
X118751745Y-123420316D01*
X118758500Y-123358134D01*
X118758500Y-122661866D01*
X118751745Y-122599684D01*
X118700615Y-122463295D01*
X118661924Y-122411669D01*
X118644265Y-122373927D01*
X118643182Y-122374320D01*
X118643182Y-122374319D01*
X118618264Y-122305670D01*
X118616847Y-122301542D01*
X118596607Y-122239064D01*
X118596606Y-122239062D01*
X118594351Y-122232101D01*
X118590555Y-122225846D01*
X118588049Y-122220372D01*
X118585330Y-122214942D01*
X118582833Y-122208063D01*
X118550339Y-122158502D01*
X118542814Y-122147024D01*
X118540467Y-122143305D01*
X118538730Y-122140442D01*
X118502595Y-122080893D01*
X118495197Y-122072516D01*
X118495224Y-122072492D01*
X118492571Y-122069500D01*
X118489868Y-122066267D01*
X118485856Y-122060148D01*
X118429617Y-122006872D01*
X118427175Y-122004494D01*
X117313770Y-120891089D01*
X117301384Y-120876677D01*
X117292851Y-120865082D01*
X117292846Y-120865077D01*
X117288508Y-120859182D01*
X117282930Y-120854443D01*
X117282927Y-120854440D01*
X117248232Y-120824965D01*
X117240716Y-120818035D01*
X117235021Y-120812340D01*
X117228880Y-120807482D01*
X117212749Y-120794719D01*
X117209345Y-120791928D01*
X117159297Y-120749409D01*
X117159295Y-120749408D01*
X117153715Y-120744667D01*
X117147199Y-120741339D01*
X117142150Y-120737972D01*
X117137021Y-120734805D01*
X117131284Y-120730266D01*
X117065125Y-120699345D01*
X117061225Y-120697439D01*
X116996192Y-120664231D01*
X116989084Y-120662492D01*
X116983441Y-120660393D01*
X116977678Y-120658476D01*
X116971050Y-120655378D01*
X116899583Y-120640513D01*
X116895299Y-120639543D01*
X116824390Y-120622192D01*
X116818788Y-120621844D01*
X116818785Y-120621844D01*
X116813236Y-120621500D01*
X116813238Y-120621464D01*
X116809245Y-120621225D01*
X116805053Y-120620851D01*
X116797885Y-120619360D01*
X116731675Y-120621151D01*
X116720479Y-120621454D01*
X116717072Y-120621500D01*
X105786371Y-120621500D01*
X105718250Y-120601498D01*
X105697276Y-120584595D01*
X103545405Y-118432724D01*
X103511379Y-118370412D01*
X103508500Y-118343629D01*
X103508500Y-116341670D01*
X109749160Y-116341670D01*
X109754887Y-116349320D01*
X109926042Y-116454205D01*
X109934837Y-116458687D01*
X110144988Y-116545734D01*
X110154373Y-116548783D01*
X110375554Y-116601885D01*
X110385301Y-116603428D01*
X110612070Y-116621275D01*
X110621930Y-116621275D01*
X110848699Y-116603428D01*
X110858446Y-116601885D01*
X111079627Y-116548783D01*
X111089012Y-116545734D01*
X111299163Y-116458687D01*
X111307958Y-116454205D01*
X111475445Y-116351568D01*
X111484907Y-116341110D01*
X111481124Y-116332334D01*
X110629812Y-115481022D01*
X110615868Y-115473408D01*
X110614035Y-115473539D01*
X110607420Y-115477790D01*
X109755920Y-116329290D01*
X109749160Y-116341670D01*
X103508500Y-116341670D01*
X103508500Y-115113930D01*
X109104725Y-115113930D01*
X109122572Y-115340699D01*
X109124115Y-115350446D01*
X109177217Y-115571627D01*
X109180266Y-115581012D01*
X109267313Y-115791163D01*
X109271795Y-115799958D01*
X109374432Y-115967445D01*
X109384890Y-115976907D01*
X109393666Y-115973124D01*
X110244978Y-115121812D01*
X110251356Y-115110132D01*
X110981408Y-115110132D01*
X110981539Y-115111965D01*
X110985790Y-115118580D01*
X111837290Y-115970080D01*
X111849670Y-115976840D01*
X111857320Y-115971113D01*
X111962205Y-115799958D01*
X111966687Y-115791163D01*
X112053734Y-115581012D01*
X112056783Y-115571627D01*
X112109885Y-115350446D01*
X112111428Y-115340699D01*
X112129275Y-115113930D01*
X112129275Y-115104070D01*
X112111428Y-114877301D01*
X112109885Y-114867554D01*
X112056783Y-114646373D01*
X112053734Y-114636988D01*
X111966687Y-114426837D01*
X111962205Y-114418042D01*
X111859568Y-114250555D01*
X111849110Y-114241093D01*
X111840334Y-114244876D01*
X110989022Y-115096188D01*
X110981408Y-115110132D01*
X110251356Y-115110132D01*
X110252592Y-115107868D01*
X110252461Y-115106035D01*
X110248210Y-115099420D01*
X109396710Y-114247920D01*
X109384330Y-114241160D01*
X109376680Y-114246887D01*
X109271795Y-114418042D01*
X109267313Y-114426837D01*
X109180266Y-114636988D01*
X109177217Y-114646373D01*
X109124115Y-114867554D01*
X109122572Y-114877301D01*
X109104725Y-115104070D01*
X109104725Y-115113930D01*
X103508500Y-115113930D01*
X103508500Y-113876890D01*
X109749093Y-113876890D01*
X109752876Y-113885666D01*
X110604188Y-114736978D01*
X110618132Y-114744592D01*
X110619965Y-114744461D01*
X110626580Y-114740210D01*
X111478080Y-113888710D01*
X111484840Y-113876330D01*
X111479113Y-113868680D01*
X111307958Y-113763795D01*
X111299163Y-113759313D01*
X111089012Y-113672266D01*
X111079627Y-113669217D01*
X110858446Y-113616115D01*
X110848699Y-113614572D01*
X110621930Y-113596725D01*
X110612070Y-113596725D01*
X110385301Y-113614572D01*
X110375554Y-113616115D01*
X110154373Y-113669217D01*
X110144988Y-113672266D01*
X109934837Y-113759313D01*
X109926042Y-113763795D01*
X109758555Y-113866432D01*
X109749093Y-113876890D01*
X103508500Y-113876890D01*
X103508500Y-112460940D01*
X114781793Y-112460940D01*
X114818442Y-112730232D01*
X114894493Y-112991150D01*
X115008274Y-113237960D01*
X115010837Y-113241869D01*
X115154720Y-113461328D01*
X115154724Y-113461333D01*
X115157286Y-113465241D01*
X115160403Y-113468733D01*
X115328161Y-113656690D01*
X115338256Y-113668001D01*
X115547207Y-113841784D01*
X115596120Y-113871465D01*
X115775554Y-113980349D01*
X115775559Y-113980351D01*
X115779551Y-113982774D01*
X116030182Y-114087872D01*
X116293594Y-114154770D01*
X116519322Y-114177500D01*
X116680991Y-114177500D01*
X116683316Y-114177327D01*
X116683322Y-114177327D01*
X116878375Y-114162832D01*
X116878379Y-114162831D01*
X116883027Y-114162486D01*
X117148101Y-114102506D01*
X117182773Y-114089023D01*
X117397044Y-114005698D01*
X117397046Y-114005697D01*
X117401397Y-114004005D01*
X117435379Y-113984583D01*
X117489141Y-113953855D01*
X117637351Y-113869146D01*
X117850780Y-113700892D01*
X118036996Y-113502939D01*
X118039662Y-113499096D01*
X118189244Y-113283474D01*
X118189247Y-113283469D01*
X118191906Y-113279636D01*
X118210531Y-113241869D01*
X118310044Y-113040077D01*
X118310045Y-113040074D01*
X118312109Y-113035889D01*
X118394964Y-112777052D01*
X118409061Y-112690490D01*
X118436501Y-112522000D01*
X119483002Y-112522000D01*
X119502957Y-112750087D01*
X119562216Y-112971243D01*
X119564539Y-112976224D01*
X119564539Y-112976225D01*
X119656651Y-113173762D01*
X119656654Y-113173767D01*
X119658977Y-113178749D01*
X119790302Y-113366300D01*
X119952200Y-113528198D01*
X119956711Y-113531357D01*
X119960924Y-113534892D01*
X119959973Y-113536026D01*
X119999971Y-113586071D01*
X120007276Y-113656690D01*
X119975242Y-113720049D01*
X119914038Y-113756030D01*
X119896983Y-113759082D01*
X119886184Y-113760255D01*
X119749795Y-113811385D01*
X119633239Y-113898739D01*
X119545885Y-114015295D01*
X119494755Y-114151684D01*
X119488000Y-114213866D01*
X119488000Y-115910134D01*
X119494755Y-115972316D01*
X119545885Y-116108705D01*
X119633239Y-116225261D01*
X119749795Y-116312615D01*
X119886184Y-116363745D01*
X119948366Y-116370500D01*
X121644634Y-116370500D01*
X121706816Y-116363745D01*
X121843205Y-116312615D01*
X121959761Y-116225261D01*
X122047115Y-116108705D01*
X122098245Y-115972316D01*
X122105000Y-115910134D01*
X122105000Y-114213866D01*
X122098245Y-114151684D01*
X122047115Y-114015295D01*
X121959761Y-113898739D01*
X121843205Y-113811385D01*
X121706816Y-113760255D01*
X121696026Y-113759083D01*
X121693894Y-113758197D01*
X121691278Y-113757575D01*
X121691379Y-113757152D01*
X121630465Y-113731845D01*
X121590037Y-113673483D01*
X121587578Y-113602529D01*
X121623871Y-113541510D01*
X121632531Y-113534511D01*
X121636293Y-113531354D01*
X121640800Y-113528198D01*
X121802698Y-113366300D01*
X121934023Y-113178749D01*
X121936346Y-113173767D01*
X121936349Y-113173762D01*
X122028461Y-112976225D01*
X122028461Y-112976224D01*
X122030784Y-112971243D01*
X122090043Y-112750087D01*
X122109998Y-112522000D01*
X122090043Y-112293913D01*
X122088619Y-112288598D01*
X122032207Y-112078067D01*
X122032206Y-112078065D01*
X122030784Y-112072757D01*
X121957922Y-111916503D01*
X121936349Y-111870238D01*
X121936346Y-111870233D01*
X121934023Y-111865251D01*
X121802698Y-111677700D01*
X121640800Y-111515802D01*
X121636292Y-111512645D01*
X121636289Y-111512643D01*
X121507630Y-111422555D01*
X121453249Y-111384477D01*
X121448267Y-111382154D01*
X121448262Y-111382151D01*
X121414043Y-111366195D01*
X121360758Y-111319278D01*
X121341297Y-111251001D01*
X121361839Y-111183041D01*
X121414043Y-111137805D01*
X121448262Y-111121849D01*
X121448267Y-111121846D01*
X121453249Y-111119523D01*
X121623217Y-111000510D01*
X121636289Y-110991357D01*
X121636292Y-110991355D01*
X121640800Y-110988198D01*
X121802698Y-110826300D01*
X121934023Y-110638749D01*
X121936346Y-110633767D01*
X121936349Y-110633762D01*
X122028461Y-110436225D01*
X122028461Y-110436224D01*
X122030784Y-110431243D01*
X122090043Y-110210087D01*
X122109998Y-109982000D01*
X122090043Y-109753913D01*
X122030784Y-109532757D01*
X122028461Y-109527775D01*
X121936349Y-109330238D01*
X121936346Y-109330233D01*
X121934023Y-109325251D01*
X121802698Y-109137700D01*
X121640800Y-108975802D01*
X121636292Y-108972645D01*
X121636289Y-108972643D01*
X121500095Y-108877279D01*
X121453249Y-108844477D01*
X121448267Y-108842154D01*
X121448262Y-108842151D01*
X121413451Y-108825919D01*
X121360166Y-108779002D01*
X121340705Y-108710725D01*
X121361247Y-108642765D01*
X121413451Y-108597529D01*
X121448011Y-108581414D01*
X121457506Y-108575931D01*
X121509548Y-108539491D01*
X121517924Y-108529012D01*
X121510856Y-108515566D01*
X120809312Y-107814022D01*
X120795368Y-107806408D01*
X120793535Y-107806539D01*
X120786920Y-107810790D01*
X120081423Y-108516287D01*
X120074993Y-108528062D01*
X120084289Y-108540077D01*
X120135494Y-108575931D01*
X120144989Y-108581414D01*
X120179549Y-108597529D01*
X120232834Y-108644446D01*
X120252295Y-108712723D01*
X120231753Y-108780683D01*
X120179549Y-108825919D01*
X120144738Y-108842151D01*
X120144733Y-108842154D01*
X120139751Y-108844477D01*
X120092905Y-108877279D01*
X119956711Y-108972643D01*
X119956708Y-108972645D01*
X119952200Y-108975802D01*
X119790302Y-109137700D01*
X119658977Y-109325251D01*
X119656654Y-109330233D01*
X119656651Y-109330238D01*
X119564539Y-109527775D01*
X119562216Y-109532757D01*
X119502957Y-109753913D01*
X119483002Y-109982000D01*
X119502957Y-110210087D01*
X119562216Y-110431243D01*
X119564539Y-110436224D01*
X119564539Y-110436225D01*
X119656651Y-110633762D01*
X119656654Y-110633767D01*
X119658977Y-110638749D01*
X119790302Y-110826300D01*
X119952200Y-110988198D01*
X119956708Y-110991355D01*
X119956711Y-110991357D01*
X119969783Y-111000510D01*
X120139751Y-111119523D01*
X120144733Y-111121846D01*
X120144738Y-111121849D01*
X120178957Y-111137805D01*
X120232242Y-111184722D01*
X120251703Y-111252999D01*
X120231161Y-111320959D01*
X120178957Y-111366195D01*
X120144738Y-111382151D01*
X120144733Y-111382154D01*
X120139751Y-111384477D01*
X120085370Y-111422555D01*
X119956711Y-111512643D01*
X119956708Y-111512645D01*
X119952200Y-111515802D01*
X119790302Y-111677700D01*
X119658977Y-111865251D01*
X119656654Y-111870233D01*
X119656651Y-111870238D01*
X119635078Y-111916503D01*
X119562216Y-112072757D01*
X119560794Y-112078065D01*
X119560793Y-112078067D01*
X119504381Y-112288598D01*
X119502957Y-112293913D01*
X119483002Y-112522000D01*
X118436501Y-112522000D01*
X118437898Y-112513424D01*
X118437898Y-112513421D01*
X118438649Y-112508811D01*
X118442207Y-112237060D01*
X118405558Y-111967768D01*
X118377131Y-111870238D01*
X118371856Y-111852143D01*
X118329507Y-111706850D01*
X118215726Y-111460040D01*
X118154199Y-111366195D01*
X118069280Y-111236672D01*
X118069276Y-111236667D01*
X118066714Y-111232759D01*
X117885744Y-111029999D01*
X117676793Y-110856216D01*
X117560621Y-110785721D01*
X117448446Y-110717651D01*
X117448441Y-110717649D01*
X117444449Y-110715226D01*
X117193818Y-110610128D01*
X116930406Y-110543230D01*
X116704678Y-110520500D01*
X116543009Y-110520500D01*
X116540684Y-110520673D01*
X116540678Y-110520673D01*
X116345625Y-110535168D01*
X116345621Y-110535169D01*
X116340973Y-110535514D01*
X116075899Y-110595494D01*
X116071547Y-110597186D01*
X116071545Y-110597187D01*
X115826956Y-110692302D01*
X115826954Y-110692303D01*
X115822603Y-110693995D01*
X115818549Y-110696312D01*
X115818547Y-110696313D01*
X115734859Y-110744145D01*
X115586649Y-110828854D01*
X115373220Y-110997108D01*
X115187004Y-111195061D01*
X115184338Y-111198904D01*
X115034756Y-111414526D01*
X115034753Y-111414531D01*
X115032094Y-111418364D01*
X115030028Y-111422553D01*
X115030027Y-111422555D01*
X114985601Y-111512643D01*
X114911891Y-111662111D01*
X114829036Y-111920948D01*
X114785351Y-112189189D01*
X114781793Y-112460940D01*
X103508500Y-112460940D01*
X103508500Y-97082570D01*
X103509933Y-97063620D01*
X103512099Y-97049385D01*
X103512099Y-97049381D01*
X103513199Y-97042151D01*
X103508915Y-96989482D01*
X103508500Y-96979267D01*
X103508500Y-96971207D01*
X103505209Y-96942980D01*
X103504778Y-96938621D01*
X103499454Y-96873162D01*
X103499453Y-96873159D01*
X103498860Y-96865864D01*
X103496604Y-96858900D01*
X103495417Y-96852961D01*
X103494030Y-96847090D01*
X103493182Y-96839819D01*
X103490686Y-96832943D01*
X103490684Y-96832934D01*
X103468275Y-96771202D01*
X103466865Y-96767098D01*
X103444352Y-96697601D01*
X103440556Y-96691346D01*
X103438057Y-96685887D01*
X103435329Y-96680439D01*
X103432833Y-96673563D01*
X103392805Y-96612510D01*
X103390481Y-96608827D01*
X103355500Y-96551180D01*
X103355499Y-96551179D01*
X103352595Y-96546393D01*
X103345198Y-96538017D01*
X103345225Y-96537993D01*
X103342570Y-96534999D01*
X103339868Y-96531768D01*
X103335856Y-96525648D01*
X103279617Y-96472372D01*
X103277175Y-96469994D01*
X101812171Y-95004990D01*
X101778145Y-94942678D01*
X101775745Y-94904913D01*
X101789519Y-94747475D01*
X101789998Y-94742000D01*
X101770043Y-94513913D01*
X101710784Y-94292757D01*
X101708461Y-94287775D01*
X101616349Y-94090238D01*
X101616346Y-94090233D01*
X101614023Y-94085251D01*
X101482698Y-93897700D01*
X101320800Y-93735802D01*
X101316292Y-93732645D01*
X101316289Y-93732643D01*
X101238111Y-93677902D01*
X101133249Y-93604477D01*
X101128267Y-93602154D01*
X101128262Y-93602151D01*
X101094043Y-93586195D01*
X101040758Y-93539278D01*
X101021297Y-93471001D01*
X101041839Y-93403041D01*
X101094043Y-93357805D01*
X101128262Y-93341849D01*
X101128267Y-93341846D01*
X101133249Y-93339523D01*
X101238111Y-93266098D01*
X101316289Y-93211357D01*
X101316292Y-93211355D01*
X101320800Y-93208198D01*
X101482698Y-93046300D01*
X101614023Y-92858749D01*
X101616346Y-92853767D01*
X101616349Y-92853762D01*
X101708461Y-92656225D01*
X101708461Y-92656224D01*
X101710784Y-92651243D01*
X101770043Y-92430087D01*
X101789998Y-92202000D01*
X101775745Y-92039087D01*
X101789734Y-91969482D01*
X101812171Y-91939010D01*
X109058911Y-84692270D01*
X109073323Y-84679884D01*
X109084918Y-84671351D01*
X109084923Y-84671346D01*
X109090818Y-84667008D01*
X109095557Y-84661430D01*
X109095560Y-84661427D01*
X109125035Y-84626732D01*
X109131965Y-84619216D01*
X109137660Y-84613521D01*
X109155281Y-84591249D01*
X109158072Y-84587845D01*
X109200591Y-84537797D01*
X109200592Y-84537795D01*
X109205333Y-84532215D01*
X109208661Y-84525699D01*
X109212020Y-84520662D01*
X109215194Y-84515523D01*
X109219734Y-84509784D01*
X109250636Y-84443663D01*
X109252569Y-84439709D01*
X109263099Y-84419087D01*
X109285769Y-84374692D01*
X109287510Y-84367576D01*
X109289604Y-84361946D01*
X109291523Y-84356179D01*
X109294621Y-84349550D01*
X109300974Y-84319010D01*
X109309482Y-84278104D01*
X109310453Y-84273815D01*
X109326473Y-84208344D01*
X109327808Y-84202890D01*
X109328500Y-84191736D01*
X109328536Y-84191738D01*
X109328775Y-84187748D01*
X109329150Y-84183550D01*
X109330640Y-84176385D01*
X109328546Y-84098979D01*
X109328500Y-84095572D01*
X109328500Y-64735745D01*
X109348502Y-64667624D01*
X109402158Y-64621131D01*
X109472432Y-64611027D01*
X109498733Y-64617764D01*
X109506684Y-64620745D01*
X109568866Y-64627500D01*
X109732500Y-64627500D01*
X109800621Y-64647502D01*
X109847114Y-64701158D01*
X109858500Y-64753500D01*
X109858500Y-103726629D01*
X109838498Y-103794750D01*
X109821595Y-103815724D01*
X106053669Y-107583650D01*
X105990772Y-107617801D01*
X105934176Y-107629831D01*
X105934167Y-107629834D01*
X105927712Y-107631206D01*
X105921682Y-107633891D01*
X105921681Y-107633891D01*
X105759278Y-107706197D01*
X105759276Y-107706198D01*
X105753248Y-107708882D01*
X105598747Y-107821134D01*
X105470960Y-107963056D01*
X105375473Y-108128444D01*
X105316458Y-108310072D01*
X105296496Y-108500000D01*
X105297186Y-108506565D01*
X105306747Y-108597529D01*
X105316458Y-108689928D01*
X105375473Y-108871556D01*
X105470960Y-109036944D01*
X105598747Y-109178866D01*
X105753248Y-109291118D01*
X105759276Y-109293802D01*
X105759278Y-109293803D01*
X105819787Y-109320743D01*
X105927712Y-109368794D01*
X106021113Y-109388647D01*
X106108056Y-109407128D01*
X106108061Y-109407128D01*
X106114513Y-109408500D01*
X106305487Y-109408500D01*
X106311939Y-109407128D01*
X106311944Y-109407128D01*
X106398888Y-109388647D01*
X106492288Y-109368794D01*
X106600213Y-109320743D01*
X106660722Y-109293803D01*
X106660724Y-109293802D01*
X106666752Y-109291118D01*
X106821253Y-109178866D01*
X106949040Y-109036944D01*
X107044527Y-108871556D01*
X107099387Y-108702714D01*
X107130125Y-108652556D01*
X108335206Y-107447475D01*
X119483983Y-107447475D01*
X119502972Y-107664519D01*
X119504875Y-107675312D01*
X119561264Y-107885761D01*
X119565010Y-107896053D01*
X119657086Y-108093511D01*
X119662569Y-108103006D01*
X119699009Y-108155048D01*
X119709488Y-108163424D01*
X119722934Y-108156356D01*
X120424478Y-107454812D01*
X120430856Y-107443132D01*
X121160908Y-107443132D01*
X121161039Y-107444965D01*
X121165290Y-107451580D01*
X121870787Y-108157077D01*
X121882562Y-108163507D01*
X121894577Y-108154211D01*
X121930431Y-108103006D01*
X121935914Y-108093511D01*
X122027990Y-107896053D01*
X122031736Y-107885761D01*
X122088125Y-107675312D01*
X122090028Y-107664519D01*
X122109017Y-107447475D01*
X122109017Y-107436525D01*
X122090028Y-107219481D01*
X122088125Y-107208688D01*
X122031736Y-106998239D01*
X122027990Y-106987947D01*
X121935914Y-106790489D01*
X121930431Y-106780994D01*
X121893991Y-106728952D01*
X121883512Y-106720576D01*
X121870066Y-106727644D01*
X121168522Y-107429188D01*
X121160908Y-107443132D01*
X120430856Y-107443132D01*
X120432092Y-107440868D01*
X120431961Y-107439035D01*
X120427710Y-107432420D01*
X119722213Y-106726923D01*
X119710438Y-106720493D01*
X119698423Y-106729789D01*
X119662569Y-106780994D01*
X119657086Y-106790489D01*
X119565010Y-106987947D01*
X119561264Y-106998239D01*
X119504875Y-107208688D01*
X119502972Y-107219481D01*
X119483983Y-107436525D01*
X119483983Y-107447475D01*
X108335206Y-107447475D01*
X110880681Y-104902000D01*
X119483002Y-104902000D01*
X119502957Y-105130087D01*
X119562216Y-105351243D01*
X119564539Y-105356224D01*
X119564539Y-105356225D01*
X119656651Y-105553762D01*
X119656654Y-105553767D01*
X119658977Y-105558749D01*
X119790302Y-105746300D01*
X119952200Y-105908198D01*
X119956708Y-105911355D01*
X119956711Y-105911357D01*
X119984269Y-105930653D01*
X120139751Y-106039523D01*
X120144733Y-106041846D01*
X120144738Y-106041849D01*
X120179549Y-106058081D01*
X120232834Y-106104998D01*
X120252295Y-106173275D01*
X120231753Y-106241235D01*
X120179549Y-106286471D01*
X120144989Y-106302586D01*
X120135494Y-106308069D01*
X120083452Y-106344509D01*
X120075076Y-106354988D01*
X120082144Y-106368434D01*
X120783688Y-107069978D01*
X120797632Y-107077592D01*
X120799465Y-107077461D01*
X120806080Y-107073210D01*
X121511577Y-106367713D01*
X121518007Y-106355938D01*
X121508711Y-106343923D01*
X121457506Y-106308069D01*
X121448011Y-106302586D01*
X121413451Y-106286471D01*
X121360166Y-106239554D01*
X121340705Y-106171277D01*
X121361247Y-106103317D01*
X121413451Y-106058081D01*
X121448262Y-106041849D01*
X121448267Y-106041846D01*
X121453249Y-106039523D01*
X121608731Y-105930653D01*
X121636289Y-105911357D01*
X121636292Y-105911355D01*
X121640800Y-105908198D01*
X121802698Y-105746300D01*
X121934023Y-105558749D01*
X121936346Y-105553767D01*
X121936349Y-105553762D01*
X122028461Y-105356225D01*
X122028461Y-105356224D01*
X122030784Y-105351243D01*
X122090043Y-105130087D01*
X122109998Y-104902000D01*
X122090043Y-104673913D01*
X122069708Y-104598021D01*
X122032207Y-104458067D01*
X122032206Y-104458064D01*
X122030784Y-104452757D01*
X122019322Y-104428177D01*
X121936349Y-104250238D01*
X121936346Y-104250233D01*
X121934023Y-104245251D01*
X121820749Y-104083479D01*
X121805857Y-104062211D01*
X121805855Y-104062208D01*
X121802698Y-104057700D01*
X121640800Y-103895802D01*
X121636292Y-103892645D01*
X121636289Y-103892643D01*
X121473731Y-103778819D01*
X121453249Y-103764477D01*
X121448267Y-103762154D01*
X121448262Y-103762151D01*
X121414043Y-103746195D01*
X121360758Y-103699278D01*
X121341297Y-103631001D01*
X121361839Y-103563041D01*
X121414043Y-103517805D01*
X121448262Y-103501849D01*
X121448267Y-103501846D01*
X121453249Y-103499523D01*
X121558111Y-103426098D01*
X121636289Y-103371357D01*
X121636292Y-103371355D01*
X121640800Y-103368198D01*
X121802698Y-103206300D01*
X121934023Y-103018749D01*
X121936346Y-103013767D01*
X121936349Y-103013762D01*
X122028461Y-102816225D01*
X122028461Y-102816224D01*
X122030784Y-102811243D01*
X122090043Y-102590087D01*
X122109998Y-102362000D01*
X122090043Y-102133913D01*
X122030784Y-101912757D01*
X122028461Y-101907775D01*
X121936349Y-101710238D01*
X121936346Y-101710233D01*
X121934023Y-101705251D01*
X121802698Y-101517700D01*
X121640800Y-101355802D01*
X121636292Y-101352645D01*
X121636289Y-101352643D01*
X121558111Y-101297902D01*
X121453249Y-101224477D01*
X121448267Y-101222154D01*
X121448262Y-101222151D01*
X121414043Y-101206195D01*
X121360758Y-101159278D01*
X121341297Y-101091001D01*
X121361839Y-101023041D01*
X121414043Y-100977805D01*
X121448262Y-100961849D01*
X121448267Y-100961846D01*
X121453249Y-100959523D01*
X121558111Y-100886098D01*
X121636289Y-100831357D01*
X121636292Y-100831355D01*
X121640800Y-100828198D01*
X121802698Y-100666300D01*
X121934023Y-100478749D01*
X121936346Y-100473767D01*
X121936349Y-100473762D01*
X122028461Y-100276225D01*
X122028461Y-100276224D01*
X122030784Y-100271243D01*
X122090043Y-100050087D01*
X122109998Y-99822000D01*
X122090043Y-99593913D01*
X122030784Y-99372757D01*
X122028461Y-99367775D01*
X121936349Y-99170238D01*
X121936346Y-99170233D01*
X121934023Y-99165251D01*
X121802698Y-98977700D01*
X121640800Y-98815802D01*
X121636292Y-98812645D01*
X121636289Y-98812643D01*
X121558111Y-98757902D01*
X121453249Y-98684477D01*
X121448267Y-98682154D01*
X121448262Y-98682151D01*
X121414043Y-98666195D01*
X121360758Y-98619278D01*
X121341297Y-98551001D01*
X121361839Y-98483041D01*
X121414043Y-98437805D01*
X121448262Y-98421849D01*
X121448267Y-98421846D01*
X121453249Y-98419523D01*
X121558111Y-98346098D01*
X121636289Y-98291357D01*
X121636292Y-98291355D01*
X121640800Y-98288198D01*
X121802698Y-98126300D01*
X121934023Y-97938749D01*
X121936346Y-97933767D01*
X121936349Y-97933762D01*
X122028461Y-97736225D01*
X122028461Y-97736224D01*
X122030784Y-97731243D01*
X122090043Y-97510087D01*
X122109998Y-97282000D01*
X122090043Y-97053913D01*
X122088619Y-97048598D01*
X122032207Y-96838067D01*
X122032206Y-96838065D01*
X122030784Y-96832757D01*
X122001124Y-96769150D01*
X121936349Y-96630238D01*
X121936346Y-96630233D01*
X121934023Y-96625251D01*
X121802698Y-96437700D01*
X121640800Y-96275802D01*
X121636292Y-96272645D01*
X121636289Y-96272643D01*
X121558111Y-96217902D01*
X121453249Y-96144477D01*
X121448267Y-96142154D01*
X121448262Y-96142151D01*
X121414043Y-96126195D01*
X121360758Y-96079278D01*
X121341297Y-96011001D01*
X121361839Y-95943041D01*
X121414043Y-95897805D01*
X121448262Y-95881849D01*
X121448267Y-95881846D01*
X121453249Y-95879523D01*
X121558111Y-95806098D01*
X121636289Y-95751357D01*
X121636292Y-95751355D01*
X121640800Y-95748198D01*
X121802698Y-95586300D01*
X121934023Y-95398749D01*
X121936346Y-95393767D01*
X121936349Y-95393762D01*
X122028461Y-95196225D01*
X122028461Y-95196224D01*
X122030784Y-95191243D01*
X122090043Y-94970087D01*
X122109998Y-94742000D01*
X122090043Y-94513913D01*
X122030784Y-94292757D01*
X122028461Y-94287775D01*
X121936349Y-94090238D01*
X121936346Y-94090233D01*
X121934023Y-94085251D01*
X121802698Y-93897700D01*
X121640800Y-93735802D01*
X121636292Y-93732645D01*
X121636289Y-93732643D01*
X121558111Y-93677902D01*
X121453249Y-93604477D01*
X121448267Y-93602154D01*
X121448262Y-93602151D01*
X121414043Y-93586195D01*
X121360758Y-93539278D01*
X121341297Y-93471001D01*
X121361839Y-93403041D01*
X121414043Y-93357805D01*
X121448262Y-93341849D01*
X121448267Y-93341846D01*
X121453249Y-93339523D01*
X121558111Y-93266098D01*
X121636289Y-93211357D01*
X121636292Y-93211355D01*
X121640800Y-93208198D01*
X121802698Y-93046300D01*
X121934023Y-92858749D01*
X121936346Y-92853767D01*
X121936349Y-92853762D01*
X122028461Y-92656225D01*
X122028461Y-92656224D01*
X122030784Y-92651243D01*
X122090043Y-92430087D01*
X122109998Y-92202000D01*
X122090043Y-91973913D01*
X122030784Y-91752757D01*
X122028461Y-91747775D01*
X121936349Y-91550238D01*
X121936346Y-91550233D01*
X121934023Y-91545251D01*
X121802698Y-91357700D01*
X121640800Y-91195802D01*
X121636292Y-91192645D01*
X121636289Y-91192643D01*
X121558111Y-91137902D01*
X121453249Y-91064477D01*
X121448267Y-91062154D01*
X121448262Y-91062151D01*
X121414043Y-91046195D01*
X121360758Y-90999278D01*
X121341297Y-90931001D01*
X121361839Y-90863041D01*
X121414043Y-90817805D01*
X121448262Y-90801849D01*
X121448267Y-90801846D01*
X121453249Y-90799523D01*
X121558111Y-90726098D01*
X121636289Y-90671357D01*
X121636292Y-90671355D01*
X121640800Y-90668198D01*
X121802698Y-90506300D01*
X121934023Y-90318749D01*
X121936346Y-90313767D01*
X121936349Y-90313762D01*
X122028461Y-90116225D01*
X122028461Y-90116224D01*
X122030784Y-90111243D01*
X122090043Y-89890087D01*
X122109998Y-89662000D01*
X122090043Y-89433913D01*
X122030784Y-89212757D01*
X122028461Y-89207775D01*
X121936349Y-89010238D01*
X121936346Y-89010233D01*
X121934023Y-89005251D01*
X121802698Y-88817700D01*
X121640800Y-88655802D01*
X121636292Y-88652645D01*
X121636289Y-88652643D01*
X121558111Y-88597902D01*
X121453249Y-88524477D01*
X121448267Y-88522154D01*
X121448262Y-88522151D01*
X121414043Y-88506195D01*
X121360758Y-88459278D01*
X121341297Y-88391001D01*
X121361839Y-88323041D01*
X121414043Y-88277805D01*
X121448262Y-88261849D01*
X121448267Y-88261846D01*
X121453249Y-88259523D01*
X121558111Y-88186098D01*
X121636289Y-88131357D01*
X121636292Y-88131355D01*
X121640800Y-88128198D01*
X121802698Y-87966300D01*
X121934023Y-87778749D01*
X121936346Y-87773767D01*
X121936349Y-87773762D01*
X122028461Y-87576225D01*
X122028461Y-87576224D01*
X122030784Y-87571243D01*
X122090043Y-87350087D01*
X122109998Y-87122000D01*
X122090043Y-86893913D01*
X122030784Y-86672757D01*
X122028461Y-86667775D01*
X121936349Y-86470238D01*
X121936346Y-86470233D01*
X121934023Y-86465251D01*
X121802698Y-86277700D01*
X121640800Y-86115802D01*
X121636292Y-86112645D01*
X121636289Y-86112643D01*
X121558111Y-86057902D01*
X121453249Y-85984477D01*
X121448267Y-85982154D01*
X121448262Y-85982151D01*
X121414043Y-85966195D01*
X121360758Y-85919278D01*
X121341297Y-85851001D01*
X121361839Y-85783041D01*
X121414043Y-85737805D01*
X121448262Y-85721849D01*
X121448267Y-85721846D01*
X121453249Y-85719523D01*
X121558111Y-85646098D01*
X121636289Y-85591357D01*
X121636292Y-85591355D01*
X121640800Y-85588198D01*
X121802698Y-85426300D01*
X121934023Y-85238749D01*
X121936346Y-85233767D01*
X121936349Y-85233762D01*
X122028461Y-85036225D01*
X122028461Y-85036224D01*
X122030784Y-85031243D01*
X122090043Y-84810087D01*
X122109998Y-84582000D01*
X122090043Y-84353913D01*
X122049576Y-84202890D01*
X122032207Y-84138067D01*
X122032206Y-84138065D01*
X122030784Y-84132757D01*
X122015033Y-84098979D01*
X121936349Y-83930238D01*
X121936346Y-83930233D01*
X121934023Y-83925251D01*
X121802698Y-83737700D01*
X121640800Y-83575802D01*
X121636292Y-83572645D01*
X121636289Y-83572643D01*
X121558111Y-83517902D01*
X121453249Y-83444477D01*
X121448267Y-83442154D01*
X121448262Y-83442151D01*
X121414043Y-83426195D01*
X121360758Y-83379278D01*
X121341297Y-83311001D01*
X121361839Y-83243041D01*
X121414043Y-83197805D01*
X121448262Y-83181849D01*
X121448267Y-83181846D01*
X121453249Y-83179523D01*
X121558111Y-83106098D01*
X121636289Y-83051357D01*
X121636292Y-83051355D01*
X121640800Y-83048198D01*
X121802698Y-82886300D01*
X121831249Y-82845526D01*
X121898474Y-82749518D01*
X121934023Y-82698749D01*
X121936346Y-82693767D01*
X121936349Y-82693762D01*
X122028461Y-82496225D01*
X122028461Y-82496224D01*
X122030784Y-82491243D01*
X122048717Y-82424319D01*
X122088619Y-82275402D01*
X122088619Y-82275400D01*
X122090043Y-82270087D01*
X122109998Y-82042000D01*
X122090043Y-81813913D01*
X122030784Y-81592757D01*
X122028461Y-81587775D01*
X121936349Y-81390238D01*
X121936346Y-81390233D01*
X121934023Y-81385251D01*
X121802698Y-81197700D01*
X121640800Y-81035802D01*
X121636292Y-81032645D01*
X121636289Y-81032643D01*
X121558111Y-80977902D01*
X121453249Y-80904477D01*
X121448267Y-80902154D01*
X121448262Y-80902151D01*
X121414043Y-80886195D01*
X121360758Y-80839278D01*
X121341297Y-80771001D01*
X121361839Y-80703041D01*
X121414043Y-80657805D01*
X121448262Y-80641849D01*
X121448267Y-80641846D01*
X121453249Y-80639523D01*
X121558111Y-80566098D01*
X121636289Y-80511357D01*
X121636292Y-80511355D01*
X121640800Y-80508198D01*
X121802698Y-80346300D01*
X121934023Y-80158749D01*
X121936346Y-80153767D01*
X121936349Y-80153762D01*
X122028461Y-79956225D01*
X122028461Y-79956224D01*
X122030784Y-79951243D01*
X122090043Y-79730087D01*
X122109998Y-79502000D01*
X122090043Y-79273913D01*
X122030784Y-79052757D01*
X122015361Y-79019681D01*
X121936349Y-78850238D01*
X121936346Y-78850233D01*
X121934023Y-78845251D01*
X121802698Y-78657700D01*
X121640800Y-78495802D01*
X121636292Y-78492645D01*
X121636289Y-78492643D01*
X121558111Y-78437902D01*
X121453249Y-78364477D01*
X121448267Y-78362154D01*
X121448262Y-78362151D01*
X121414043Y-78346195D01*
X121360758Y-78299278D01*
X121341297Y-78231001D01*
X121361839Y-78163041D01*
X121414043Y-78117805D01*
X121448262Y-78101849D01*
X121448267Y-78101846D01*
X121453249Y-78099523D01*
X121558111Y-78026098D01*
X121636289Y-77971357D01*
X121636292Y-77971355D01*
X121640800Y-77968198D01*
X121802698Y-77806300D01*
X121934023Y-77618749D01*
X121936346Y-77613767D01*
X121936349Y-77613762D01*
X122028461Y-77416225D01*
X122028461Y-77416224D01*
X122030784Y-77411243D01*
X122090043Y-77190087D01*
X122109998Y-76962000D01*
X122090043Y-76733913D01*
X122030784Y-76512757D01*
X122028461Y-76507775D01*
X121936349Y-76310238D01*
X121936346Y-76310233D01*
X121934023Y-76305251D01*
X121802698Y-76117700D01*
X121640800Y-75955802D01*
X121636292Y-75952645D01*
X121636289Y-75952643D01*
X121555000Y-75895724D01*
X121453249Y-75824477D01*
X121448267Y-75822154D01*
X121448262Y-75822151D01*
X121250725Y-75730039D01*
X121250724Y-75730039D01*
X121245743Y-75727716D01*
X121240435Y-75726294D01*
X121240433Y-75726293D01*
X121029902Y-75669881D01*
X121029900Y-75669881D01*
X121024587Y-75668457D01*
X120796500Y-75648502D01*
X120568413Y-75668457D01*
X120563100Y-75669881D01*
X120563098Y-75669881D01*
X120352567Y-75726293D01*
X120352565Y-75726294D01*
X120347257Y-75727716D01*
X120342276Y-75730039D01*
X120342275Y-75730039D01*
X120144738Y-75822151D01*
X120144733Y-75822154D01*
X120139751Y-75824477D01*
X120038000Y-75895724D01*
X119956711Y-75952643D01*
X119956708Y-75952645D01*
X119952200Y-75955802D01*
X119790302Y-76117700D01*
X119658977Y-76305251D01*
X119656654Y-76310233D01*
X119656651Y-76310238D01*
X119564539Y-76507775D01*
X119562216Y-76512757D01*
X119502957Y-76733913D01*
X119483002Y-76962000D01*
X119502957Y-77190087D01*
X119562216Y-77411243D01*
X119564539Y-77416224D01*
X119564539Y-77416225D01*
X119656651Y-77613762D01*
X119656654Y-77613767D01*
X119658977Y-77618749D01*
X119790302Y-77806300D01*
X119952200Y-77968198D01*
X119956708Y-77971355D01*
X119956711Y-77971357D01*
X120034889Y-78026098D01*
X120139751Y-78099523D01*
X120144733Y-78101846D01*
X120144738Y-78101849D01*
X120178957Y-78117805D01*
X120232242Y-78164722D01*
X120251703Y-78232999D01*
X120231161Y-78300959D01*
X120178957Y-78346195D01*
X120144738Y-78362151D01*
X120144733Y-78362154D01*
X120139751Y-78364477D01*
X120034889Y-78437902D01*
X119956711Y-78492643D01*
X119956708Y-78492645D01*
X119952200Y-78495802D01*
X119790302Y-78657700D01*
X119658977Y-78845251D01*
X119656654Y-78850233D01*
X119656651Y-78850238D01*
X119577639Y-79019681D01*
X119562216Y-79052757D01*
X119502957Y-79273913D01*
X119483002Y-79502000D01*
X119502957Y-79730087D01*
X119562216Y-79951243D01*
X119564539Y-79956224D01*
X119564539Y-79956225D01*
X119656651Y-80153762D01*
X119656654Y-80153767D01*
X119658977Y-80158749D01*
X119790302Y-80346300D01*
X119952200Y-80508198D01*
X119956708Y-80511355D01*
X119956711Y-80511357D01*
X120034889Y-80566098D01*
X120139751Y-80639523D01*
X120144733Y-80641846D01*
X120144738Y-80641849D01*
X120178957Y-80657805D01*
X120232242Y-80704722D01*
X120251703Y-80772999D01*
X120231161Y-80840959D01*
X120178957Y-80886195D01*
X120144738Y-80902151D01*
X120144733Y-80902154D01*
X120139751Y-80904477D01*
X120034889Y-80977902D01*
X119956711Y-81032643D01*
X119956708Y-81032645D01*
X119952200Y-81035802D01*
X119790302Y-81197700D01*
X119658977Y-81385251D01*
X119656654Y-81390233D01*
X119656651Y-81390238D01*
X119564539Y-81587775D01*
X119562216Y-81592757D01*
X119502957Y-81813913D01*
X119483002Y-82042000D01*
X119502957Y-82270087D01*
X119504381Y-82275400D01*
X119504381Y-82275402D01*
X119544284Y-82424319D01*
X119562216Y-82491243D01*
X119564539Y-82496224D01*
X119564539Y-82496225D01*
X119656651Y-82693762D01*
X119656654Y-82693767D01*
X119658977Y-82698749D01*
X119694526Y-82749518D01*
X119761752Y-82845526D01*
X119790302Y-82886300D01*
X119952200Y-83048198D01*
X119956708Y-83051355D01*
X119956711Y-83051357D01*
X120034889Y-83106098D01*
X120139751Y-83179523D01*
X120144733Y-83181846D01*
X120144738Y-83181849D01*
X120178957Y-83197805D01*
X120232242Y-83244722D01*
X120251703Y-83312999D01*
X120231161Y-83380959D01*
X120178957Y-83426195D01*
X120144738Y-83442151D01*
X120144733Y-83442154D01*
X120139751Y-83444477D01*
X120034889Y-83517902D01*
X119956711Y-83572643D01*
X119956708Y-83572645D01*
X119952200Y-83575802D01*
X119790302Y-83737700D01*
X119658977Y-83925251D01*
X119656654Y-83930233D01*
X119656651Y-83930238D01*
X119577967Y-84098979D01*
X119562216Y-84132757D01*
X119560794Y-84138065D01*
X119560793Y-84138067D01*
X119543424Y-84202890D01*
X119502957Y-84353913D01*
X119483002Y-84582000D01*
X119502957Y-84810087D01*
X119562216Y-85031243D01*
X119564539Y-85036224D01*
X119564539Y-85036225D01*
X119656651Y-85233762D01*
X119656654Y-85233767D01*
X119658977Y-85238749D01*
X119790302Y-85426300D01*
X119952200Y-85588198D01*
X119956708Y-85591355D01*
X119956711Y-85591357D01*
X120034889Y-85646098D01*
X120139751Y-85719523D01*
X120144733Y-85721846D01*
X120144738Y-85721849D01*
X120178957Y-85737805D01*
X120232242Y-85784722D01*
X120251703Y-85852999D01*
X120231161Y-85920959D01*
X120178957Y-85966195D01*
X120144738Y-85982151D01*
X120144733Y-85982154D01*
X120139751Y-85984477D01*
X120034889Y-86057902D01*
X119956711Y-86112643D01*
X119956708Y-86112645D01*
X119952200Y-86115802D01*
X119790302Y-86277700D01*
X119658977Y-86465251D01*
X119656654Y-86470233D01*
X119656651Y-86470238D01*
X119564539Y-86667775D01*
X119562216Y-86672757D01*
X119502957Y-86893913D01*
X119483002Y-87122000D01*
X119502957Y-87350087D01*
X119562216Y-87571243D01*
X119564539Y-87576224D01*
X119564539Y-87576225D01*
X119656651Y-87773762D01*
X119656654Y-87773767D01*
X119658977Y-87778749D01*
X119790302Y-87966300D01*
X119952200Y-88128198D01*
X119956708Y-88131355D01*
X119956711Y-88131357D01*
X120034889Y-88186098D01*
X120139751Y-88259523D01*
X120144733Y-88261846D01*
X120144738Y-88261849D01*
X120178957Y-88277805D01*
X120232242Y-88324722D01*
X120251703Y-88392999D01*
X120231161Y-88460959D01*
X120178957Y-88506195D01*
X120144738Y-88522151D01*
X120144733Y-88522154D01*
X120139751Y-88524477D01*
X120034889Y-88597902D01*
X119956711Y-88652643D01*
X119956708Y-88652645D01*
X119952200Y-88655802D01*
X119790302Y-88817700D01*
X119658977Y-89005251D01*
X119656654Y-89010233D01*
X119656651Y-89010238D01*
X119564539Y-89207775D01*
X119562216Y-89212757D01*
X119502957Y-89433913D01*
X119483002Y-89662000D01*
X119502957Y-89890087D01*
X119562216Y-90111243D01*
X119564539Y-90116224D01*
X119564539Y-90116225D01*
X119656651Y-90313762D01*
X119656654Y-90313767D01*
X119658977Y-90318749D01*
X119790302Y-90506300D01*
X119952200Y-90668198D01*
X119956708Y-90671355D01*
X119956711Y-90671357D01*
X120034889Y-90726098D01*
X120139751Y-90799523D01*
X120144733Y-90801846D01*
X120144738Y-90801849D01*
X120178957Y-90817805D01*
X120232242Y-90864722D01*
X120251703Y-90932999D01*
X120231161Y-91000959D01*
X120178957Y-91046195D01*
X120144738Y-91062151D01*
X120144733Y-91062154D01*
X120139751Y-91064477D01*
X120034889Y-91137902D01*
X119956711Y-91192643D01*
X119956708Y-91192645D01*
X119952200Y-91195802D01*
X119790302Y-91357700D01*
X119658977Y-91545251D01*
X119656654Y-91550233D01*
X119656651Y-91550238D01*
X119564539Y-91747775D01*
X119562216Y-91752757D01*
X119502957Y-91973913D01*
X119483002Y-92202000D01*
X119502957Y-92430087D01*
X119562216Y-92651243D01*
X119564539Y-92656224D01*
X119564539Y-92656225D01*
X119656651Y-92853762D01*
X119656654Y-92853767D01*
X119658977Y-92858749D01*
X119790302Y-93046300D01*
X119952200Y-93208198D01*
X119956708Y-93211355D01*
X119956711Y-93211357D01*
X120034889Y-93266098D01*
X120139751Y-93339523D01*
X120144733Y-93341846D01*
X120144738Y-93341849D01*
X120178957Y-93357805D01*
X120232242Y-93404722D01*
X120251703Y-93472999D01*
X120231161Y-93540959D01*
X120178957Y-93586195D01*
X120144738Y-93602151D01*
X120144733Y-93602154D01*
X120139751Y-93604477D01*
X120034889Y-93677902D01*
X119956711Y-93732643D01*
X119956708Y-93732645D01*
X119952200Y-93735802D01*
X119790302Y-93897700D01*
X119658977Y-94085251D01*
X119656654Y-94090233D01*
X119656651Y-94090238D01*
X119564539Y-94287775D01*
X119562216Y-94292757D01*
X119502957Y-94513913D01*
X119483002Y-94742000D01*
X119502957Y-94970087D01*
X119562216Y-95191243D01*
X119564539Y-95196224D01*
X119564539Y-95196225D01*
X119656651Y-95393762D01*
X119656654Y-95393767D01*
X119658977Y-95398749D01*
X119790302Y-95586300D01*
X119952200Y-95748198D01*
X119956708Y-95751355D01*
X119956711Y-95751357D01*
X120034889Y-95806098D01*
X120139751Y-95879523D01*
X120144733Y-95881846D01*
X120144738Y-95881849D01*
X120178957Y-95897805D01*
X120232242Y-95944722D01*
X120251703Y-96012999D01*
X120231161Y-96080959D01*
X120178957Y-96126195D01*
X120144738Y-96142151D01*
X120144733Y-96142154D01*
X120139751Y-96144477D01*
X120034889Y-96217902D01*
X119956711Y-96272643D01*
X119956708Y-96272645D01*
X119952200Y-96275802D01*
X119790302Y-96437700D01*
X119658977Y-96625251D01*
X119656654Y-96630233D01*
X119656651Y-96630238D01*
X119591876Y-96769150D01*
X119562216Y-96832757D01*
X119560794Y-96838065D01*
X119560793Y-96838067D01*
X119504381Y-97048598D01*
X119502957Y-97053913D01*
X119483002Y-97282000D01*
X119502957Y-97510087D01*
X119562216Y-97731243D01*
X119564539Y-97736224D01*
X119564539Y-97736225D01*
X119656651Y-97933762D01*
X119656654Y-97933767D01*
X119658977Y-97938749D01*
X119790302Y-98126300D01*
X119952200Y-98288198D01*
X119956708Y-98291355D01*
X119956711Y-98291357D01*
X120034889Y-98346098D01*
X120139751Y-98419523D01*
X120144733Y-98421846D01*
X120144738Y-98421849D01*
X120178957Y-98437805D01*
X120232242Y-98484722D01*
X120251703Y-98552999D01*
X120231161Y-98620959D01*
X120178957Y-98666195D01*
X120144738Y-98682151D01*
X120144733Y-98682154D01*
X120139751Y-98684477D01*
X120034889Y-98757902D01*
X119956711Y-98812643D01*
X119956708Y-98812645D01*
X119952200Y-98815802D01*
X119790302Y-98977700D01*
X119658977Y-99165251D01*
X119656654Y-99170233D01*
X119656651Y-99170238D01*
X119564539Y-99367775D01*
X119562216Y-99372757D01*
X119502957Y-99593913D01*
X119483002Y-99822000D01*
X119502957Y-100050087D01*
X119562216Y-100271243D01*
X119564539Y-100276224D01*
X119564539Y-100276225D01*
X119656651Y-100473762D01*
X119656654Y-100473767D01*
X119658977Y-100478749D01*
X119790302Y-100666300D01*
X119952200Y-100828198D01*
X119956708Y-100831355D01*
X119956711Y-100831357D01*
X120034889Y-100886098D01*
X120139751Y-100959523D01*
X120144733Y-100961846D01*
X120144738Y-100961849D01*
X120178957Y-100977805D01*
X120232242Y-101024722D01*
X120251703Y-101092999D01*
X120231161Y-101160959D01*
X120178957Y-101206195D01*
X120144738Y-101222151D01*
X120144733Y-101222154D01*
X120139751Y-101224477D01*
X120034889Y-101297902D01*
X119956711Y-101352643D01*
X119956708Y-101352645D01*
X119952200Y-101355802D01*
X119790302Y-101517700D01*
X119658977Y-101705251D01*
X119656654Y-101710233D01*
X119656651Y-101710238D01*
X119564539Y-101907775D01*
X119562216Y-101912757D01*
X119502957Y-102133913D01*
X119483002Y-102362000D01*
X119502957Y-102590087D01*
X119562216Y-102811243D01*
X119564539Y-102816224D01*
X119564539Y-102816225D01*
X119656651Y-103013762D01*
X119656654Y-103013767D01*
X119658977Y-103018749D01*
X119790302Y-103206300D01*
X119952200Y-103368198D01*
X119956708Y-103371355D01*
X119956711Y-103371357D01*
X120034889Y-103426098D01*
X120139751Y-103499523D01*
X120144733Y-103501846D01*
X120144738Y-103501849D01*
X120178957Y-103517805D01*
X120232242Y-103564722D01*
X120251703Y-103632999D01*
X120231161Y-103700959D01*
X120178957Y-103746195D01*
X120144738Y-103762151D01*
X120144733Y-103762154D01*
X120139751Y-103764477D01*
X120119269Y-103778819D01*
X119956711Y-103892643D01*
X119956708Y-103892645D01*
X119952200Y-103895802D01*
X119790302Y-104057700D01*
X119787145Y-104062208D01*
X119787143Y-104062211D01*
X119772251Y-104083479D01*
X119658977Y-104245251D01*
X119656654Y-104250233D01*
X119656651Y-104250238D01*
X119573678Y-104428177D01*
X119562216Y-104452757D01*
X119560794Y-104458064D01*
X119560793Y-104458067D01*
X119523292Y-104598021D01*
X119502957Y-104673913D01*
X119483002Y-104902000D01*
X110880681Y-104902000D01*
X111105911Y-104676770D01*
X111120323Y-104664384D01*
X111131918Y-104655851D01*
X111131923Y-104655846D01*
X111137818Y-104651508D01*
X111142557Y-104645930D01*
X111142560Y-104645927D01*
X111172035Y-104611232D01*
X111178965Y-104603716D01*
X111184660Y-104598021D01*
X111189518Y-104591880D01*
X111202281Y-104575749D01*
X111205072Y-104572345D01*
X111247591Y-104522297D01*
X111247592Y-104522295D01*
X111252333Y-104516715D01*
X111255661Y-104510199D01*
X111259028Y-104505150D01*
X111262195Y-104500021D01*
X111266734Y-104494284D01*
X111297655Y-104428125D01*
X111299561Y-104424225D01*
X111332769Y-104359192D01*
X111334508Y-104352084D01*
X111336607Y-104346441D01*
X111338524Y-104340678D01*
X111341622Y-104334050D01*
X111356487Y-104262583D01*
X111357457Y-104258299D01*
X111374808Y-104187390D01*
X111375500Y-104176236D01*
X111375536Y-104176238D01*
X111375775Y-104172245D01*
X111376149Y-104168053D01*
X111377640Y-104160885D01*
X111375546Y-104083479D01*
X111375500Y-104080072D01*
X111375500Y-64753500D01*
X111395502Y-64685379D01*
X111449158Y-64638886D01*
X111501500Y-64627500D01*
X111665134Y-64627500D01*
X111727316Y-64620745D01*
X111863705Y-64569615D01*
X111980261Y-64482261D01*
X112067615Y-64365705D01*
X112118745Y-64229316D01*
X112125500Y-64167134D01*
X112125500Y-62070866D01*
X112118745Y-62008684D01*
X112067615Y-61872295D01*
X111980261Y-61755739D01*
X111863705Y-61668385D01*
X111727316Y-61617255D01*
X111665134Y-61610500D01*
X109568866Y-61610500D01*
X109506684Y-61617255D01*
X109498864Y-61620186D01*
X109498732Y-61620236D01*
X109498271Y-61620270D01*
X109491600Y-61621856D01*
X109491343Y-61620777D01*
X109427925Y-61625421D01*
X109365555Y-61591501D01*
X109331425Y-61529246D01*
X109328500Y-61502255D01*
X109328500Y-60316371D01*
X109348502Y-60248250D01*
X109365405Y-60227276D01*
X117828911Y-51763770D01*
X117843323Y-51751384D01*
X117854918Y-51742851D01*
X117854923Y-51742846D01*
X117860818Y-51738508D01*
X117865557Y-51732930D01*
X117865560Y-51732927D01*
X117895035Y-51698232D01*
X117901965Y-51690716D01*
X117907660Y-51685021D01*
X117925281Y-51662749D01*
X117928071Y-51659345D01*
X117952536Y-51630548D01*
X117963504Y-51617638D01*
X118022852Y-51578675D01*
X118093845Y-51577982D01*
X118153943Y-51615781D01*
X118166343Y-51632387D01*
X118243128Y-51755110D01*
X118245512Y-51758920D01*
X118248413Y-51762351D01*
X118400399Y-51942109D01*
X118400405Y-51942115D01*
X118403305Y-51945545D01*
X118586051Y-52107813D01*
X118790030Y-52242423D01*
X119011089Y-52346635D01*
X119244730Y-52418325D01*
X119486194Y-52456036D01*
X119490689Y-52456091D01*
X119490695Y-52456091D01*
X119606656Y-52457497D01*
X119730568Y-52459000D01*
X119735025Y-52458414D01*
X119735030Y-52458414D01*
X119968418Y-52427742D01*
X119968420Y-52427742D01*
X119972876Y-52427156D01*
X119977201Y-52425943D01*
X119977205Y-52425942D01*
X120203859Y-52362366D01*
X120203863Y-52362365D01*
X120208186Y-52361152D01*
X120431708Y-52262333D01*
X120638892Y-52132709D01*
X120825519Y-51974920D01*
X120851604Y-51945545D01*
X120984800Y-51795547D01*
X120984803Y-51795543D01*
X120987792Y-51792177D01*
X121094459Y-51630548D01*
X121119924Y-51591962D01*
X121119924Y-51591961D01*
X121122406Y-51588201D01*
X121124326Y-51584129D01*
X121224705Y-51371211D01*
X121224707Y-51371207D01*
X121226622Y-51367144D01*
X121227940Y-51362848D01*
X121227943Y-51362841D01*
X121296996Y-51137810D01*
X121296996Y-51137809D01*
X121298317Y-51133505D01*
X121330587Y-50926907D01*
X121333002Y-50915153D01*
X121334490Y-50909332D01*
X121334493Y-50909318D01*
X121335696Y-50904609D01*
X121336896Y-50892113D01*
X121336446Y-50884453D01*
X121335259Y-50864246D01*
X121335481Y-50846345D01*
X121354297Y-50621599D01*
X121368960Y-50446458D01*
X121372441Y-50425788D01*
X121377413Y-50406331D01*
X121378613Y-50393835D01*
X121378233Y-50387367D01*
X121378025Y-50378451D01*
X121380744Y-50153892D01*
X121380744Y-50153886D01*
X121380798Y-50149397D01*
X121348949Y-49907089D01*
X121347735Y-49902760D01*
X121284157Y-49676117D01*
X121284155Y-49676112D01*
X121282940Y-49671780D01*
X121253405Y-49604978D01*
X121185937Y-49452379D01*
X121185935Y-49452375D01*
X121184116Y-49448261D01*
X121093770Y-49303864D01*
X121056872Y-49244890D01*
X121056871Y-49244888D01*
X121054488Y-49241080D01*
X121020172Y-49200494D01*
X120899601Y-49057891D01*
X120899595Y-49057885D01*
X120896695Y-49054455D01*
X120713949Y-48892187D01*
X120509970Y-48757577D01*
X120288911Y-48653365D01*
X120055270Y-48581675D01*
X119813806Y-48543964D01*
X119809311Y-48543909D01*
X119809305Y-48543909D01*
X119693344Y-48542503D01*
X119569432Y-48541000D01*
X119564975Y-48541586D01*
X119564970Y-48541586D01*
X119331582Y-48572258D01*
X119331580Y-48572258D01*
X119327124Y-48572844D01*
X119322799Y-48574057D01*
X119322795Y-48574058D01*
X119096141Y-48637634D01*
X119096137Y-48637635D01*
X119091814Y-48638848D01*
X118868292Y-48737667D01*
X118661108Y-48867291D01*
X118474481Y-49025080D01*
X118471492Y-49028446D01*
X118318716Y-49200494D01*
X118258528Y-49238150D01*
X118187537Y-49237288D01*
X118128281Y-49198182D01*
X118099574Y-49133248D01*
X118098500Y-49116832D01*
X118098500Y-43725554D01*
X118118502Y-43657433D01*
X118172158Y-43610940D01*
X118184624Y-43606030D01*
X118310998Y-43563868D01*
X118317946Y-43561550D01*
X118468348Y-43468478D01*
X118593305Y-43343303D01*
X118597338Y-43336760D01*
X118682275Y-43198968D01*
X118682276Y-43198966D01*
X118686115Y-43192738D01*
X118741797Y-43024861D01*
X118744054Y-43002838D01*
X118752172Y-42923598D01*
X118752500Y-42920400D01*
X118752500Y-39893737D01*
X118772502Y-39825616D01*
X118826158Y-39779123D01*
X118896432Y-39769019D01*
X118961012Y-39798513D01*
X118985644Y-39827434D01*
X118992063Y-39837807D01*
X119001099Y-39849208D01*
X119115829Y-39963739D01*
X119127240Y-39972751D01*
X119265243Y-40057816D01*
X119278424Y-40063963D01*
X119432710Y-40115138D01*
X119446086Y-40118005D01*
X119540438Y-40127672D01*
X119546854Y-40128000D01*
X119871885Y-40128000D01*
X119887124Y-40123525D01*
X119888329Y-40122135D01*
X119890000Y-40114452D01*
X119890000Y-40109884D01*
X120398000Y-40109884D01*
X120402475Y-40125123D01*
X120403865Y-40126328D01*
X120411548Y-40127999D01*
X120741095Y-40127999D01*
X120747614Y-40127662D01*
X120843206Y-40117743D01*
X120856600Y-40114851D01*
X121010784Y-40063412D01*
X121023962Y-40057239D01*
X121161807Y-39971937D01*
X121173208Y-39962901D01*
X121287739Y-39848171D01*
X121296751Y-39836760D01*
X121381816Y-39698757D01*
X121387963Y-39685576D01*
X121439138Y-39531290D01*
X121442005Y-39517914D01*
X121451672Y-39423562D01*
X121452000Y-39417146D01*
X121452000Y-38392115D01*
X121447525Y-38376876D01*
X121446135Y-38375671D01*
X121438452Y-38374000D01*
X120416115Y-38374000D01*
X120400876Y-38378475D01*
X120399671Y-38379865D01*
X120398000Y-38387548D01*
X120398000Y-40109884D01*
X119890000Y-40109884D01*
X119890000Y-37847885D01*
X120398000Y-37847885D01*
X120402475Y-37863124D01*
X120403865Y-37864329D01*
X120411548Y-37866000D01*
X121433884Y-37866000D01*
X121449123Y-37861525D01*
X121450328Y-37860135D01*
X121451999Y-37852452D01*
X121451999Y-36822905D01*
X121451662Y-36816386D01*
X121441743Y-36720794D01*
X121438851Y-36707400D01*
X121387412Y-36553216D01*
X121381239Y-36540038D01*
X121295937Y-36402193D01*
X121286901Y-36390792D01*
X121172171Y-36276261D01*
X121160760Y-36267249D01*
X121022757Y-36182184D01*
X121009576Y-36176037D01*
X120855290Y-36124862D01*
X120841914Y-36121995D01*
X120747562Y-36112328D01*
X120741145Y-36112000D01*
X120416115Y-36112000D01*
X120400876Y-36116475D01*
X120399671Y-36117865D01*
X120398000Y-36125548D01*
X120398000Y-37847885D01*
X119890000Y-37847885D01*
X119890000Y-36130116D01*
X119885525Y-36114877D01*
X119884135Y-36113672D01*
X119876452Y-36112001D01*
X119546905Y-36112001D01*
X119540386Y-36112338D01*
X119444794Y-36122257D01*
X119431400Y-36125149D01*
X119277216Y-36176588D01*
X119264038Y-36182761D01*
X119126193Y-36268063D01*
X119114792Y-36277099D01*
X119000261Y-36391829D01*
X118991249Y-36403240D01*
X118906184Y-36541243D01*
X118900037Y-36554424D01*
X118848862Y-36708710D01*
X118845995Y-36722086D01*
X118836328Y-36816438D01*
X118836000Y-36822855D01*
X118836000Y-37346120D01*
X118815998Y-37414241D01*
X118762342Y-37460734D01*
X118692068Y-37470838D01*
X118627488Y-37441344D01*
X118602857Y-37412425D01*
X118592478Y-37395652D01*
X118467303Y-37270695D01*
X118461072Y-37266854D01*
X118322968Y-37181725D01*
X118322966Y-37181724D01*
X118316738Y-37177885D01*
X118236995Y-37151436D01*
X118155389Y-37124368D01*
X118155387Y-37124368D01*
X118148861Y-37122203D01*
X118142025Y-37121503D01*
X118142022Y-37121502D01*
X118098969Y-37117091D01*
X118044400Y-37111500D01*
X117443600Y-37111500D01*
X117440354Y-37111837D01*
X117440350Y-37111837D01*
X117344692Y-37121762D01*
X117344688Y-37121763D01*
X117337834Y-37122474D01*
X117331298Y-37124655D01*
X117331296Y-37124655D01*
X117314928Y-37130116D01*
X117170054Y-37178450D01*
X117019652Y-37271522D01*
X116894695Y-37396697D01*
X116890855Y-37402927D01*
X116890854Y-37402928D01*
X116851255Y-37467170D01*
X116798483Y-37514663D01*
X116728411Y-37526087D01*
X116663288Y-37497813D01*
X116636851Y-37467358D01*
X116620753Y-37441344D01*
X116592478Y-37395652D01*
X116467303Y-37270695D01*
X116461072Y-37266854D01*
X116322968Y-37181725D01*
X116322966Y-37181724D01*
X116316738Y-37177885D01*
X116236995Y-37151436D01*
X116155389Y-37124368D01*
X116155387Y-37124368D01*
X116148861Y-37122203D01*
X116142025Y-37121503D01*
X116142022Y-37121502D01*
X116098969Y-37117091D01*
X116044400Y-37111500D01*
X115443600Y-37111500D01*
X115440354Y-37111837D01*
X115440350Y-37111837D01*
X115344692Y-37121762D01*
X115344688Y-37121763D01*
X115337834Y-37122474D01*
X115331298Y-37124655D01*
X115331296Y-37124655D01*
X115314928Y-37130116D01*
X115170054Y-37178450D01*
X115019652Y-37271522D01*
X114894695Y-37396697D01*
X114890855Y-37402927D01*
X114890854Y-37402928D01*
X114851255Y-37467170D01*
X114798483Y-37514663D01*
X114728411Y-37526087D01*
X114663288Y-37497813D01*
X114636851Y-37467358D01*
X114620753Y-37441344D01*
X114592478Y-37395652D01*
X114467303Y-37270695D01*
X114461072Y-37266854D01*
X114322968Y-37181725D01*
X114322966Y-37181724D01*
X114316738Y-37177885D01*
X114236995Y-37151436D01*
X114155389Y-37124368D01*
X114155387Y-37124368D01*
X114148861Y-37122203D01*
X114142025Y-37121503D01*
X114142022Y-37121502D01*
X114098969Y-37117091D01*
X114044400Y-37111500D01*
X113443600Y-37111500D01*
X113440354Y-37111837D01*
X113440350Y-37111837D01*
X113344692Y-37121762D01*
X113344688Y-37121763D01*
X113337834Y-37122474D01*
X113331298Y-37124655D01*
X113331296Y-37124655D01*
X113314928Y-37130116D01*
X113170054Y-37178450D01*
X113019652Y-37271522D01*
X112894695Y-37396697D01*
X112890855Y-37402927D01*
X112890854Y-37402928D01*
X112851255Y-37467170D01*
X112798483Y-37514663D01*
X112728411Y-37526087D01*
X112663288Y-37497813D01*
X112636851Y-37467358D01*
X112620753Y-37441344D01*
X112592478Y-37395652D01*
X112467303Y-37270695D01*
X112461072Y-37266854D01*
X112322968Y-37181725D01*
X112322966Y-37181724D01*
X112316738Y-37177885D01*
X112236995Y-37151436D01*
X112155389Y-37124368D01*
X112155387Y-37124368D01*
X112148861Y-37122203D01*
X112142025Y-37121503D01*
X112142022Y-37121502D01*
X112098969Y-37117091D01*
X112044400Y-37111500D01*
X111443600Y-37111500D01*
X111440354Y-37111837D01*
X111440350Y-37111837D01*
X111344692Y-37121762D01*
X111344688Y-37121763D01*
X111337834Y-37122474D01*
X111331298Y-37124655D01*
X111331296Y-37124655D01*
X111314928Y-37130116D01*
X111170054Y-37178450D01*
X111019652Y-37271522D01*
X110894695Y-37396697D01*
X110890855Y-37402927D01*
X110890854Y-37402928D01*
X110851255Y-37467170D01*
X110798483Y-37514663D01*
X110728411Y-37526087D01*
X110663288Y-37497813D01*
X110636851Y-37467358D01*
X110620753Y-37441344D01*
X110592478Y-37395652D01*
X110467303Y-37270695D01*
X110461072Y-37266854D01*
X110322968Y-37181725D01*
X110322966Y-37181724D01*
X110316738Y-37177885D01*
X110236995Y-37151436D01*
X110155389Y-37124368D01*
X110155387Y-37124368D01*
X110148861Y-37122203D01*
X110142025Y-37121503D01*
X110142022Y-37121502D01*
X110098969Y-37117091D01*
X110044400Y-37111500D01*
X109443600Y-37111500D01*
X109440354Y-37111837D01*
X109440350Y-37111837D01*
X109344692Y-37121762D01*
X109344688Y-37121763D01*
X109337834Y-37122474D01*
X109331298Y-37124655D01*
X109331296Y-37124655D01*
X109314928Y-37130116D01*
X109170054Y-37178450D01*
X109019652Y-37271522D01*
X108894695Y-37396697D01*
X108890855Y-37402927D01*
X108890854Y-37402928D01*
X108851255Y-37467170D01*
X108798483Y-37514663D01*
X108728411Y-37526087D01*
X108663288Y-37497813D01*
X108636851Y-37467358D01*
X108620753Y-37441344D01*
X108592478Y-37395652D01*
X108467303Y-37270695D01*
X108461072Y-37266854D01*
X108322968Y-37181725D01*
X108322966Y-37181724D01*
X108316738Y-37177885D01*
X108236995Y-37151436D01*
X108155389Y-37124368D01*
X108155387Y-37124368D01*
X108148861Y-37122203D01*
X108142025Y-37121503D01*
X108142022Y-37121502D01*
X108098969Y-37117091D01*
X108044400Y-37111500D01*
X107443600Y-37111500D01*
X107440354Y-37111837D01*
X107440350Y-37111837D01*
X107344692Y-37121762D01*
X107344688Y-37121763D01*
X107337834Y-37122474D01*
X107331298Y-37124655D01*
X107331296Y-37124655D01*
X107314928Y-37130116D01*
X107170054Y-37178450D01*
X107019652Y-37271522D01*
X106894695Y-37396697D01*
X106850962Y-37467646D01*
X106850961Y-37467647D01*
X106798189Y-37515140D01*
X106728117Y-37526564D01*
X106662994Y-37498290D01*
X106636557Y-37467834D01*
X106595937Y-37402193D01*
X106586901Y-37390792D01*
X106472171Y-37276261D01*
X106460760Y-37267249D01*
X106322757Y-37182184D01*
X106309576Y-37176037D01*
X106155290Y-37124862D01*
X106141914Y-37121995D01*
X106047562Y-37112328D01*
X106041145Y-37112000D01*
X106016115Y-37112000D01*
X106000876Y-37116475D01*
X105999671Y-37117865D01*
X105998000Y-37125548D01*
X105998000Y-43609884D01*
X106002475Y-43625123D01*
X106003865Y-43626328D01*
X106011548Y-43627999D01*
X106041095Y-43627999D01*
X106047614Y-43627662D01*
X106143206Y-43617743D01*
X106156600Y-43614851D01*
X106310784Y-43563412D01*
X106323962Y-43557239D01*
X106461807Y-43471937D01*
X106473208Y-43462901D01*
X106587739Y-43348171D01*
X106596751Y-43336760D01*
X106636451Y-43272354D01*
X106689223Y-43224861D01*
X106759294Y-43213437D01*
X106824418Y-43241711D01*
X106850854Y-43272166D01*
X106895522Y-43344348D01*
X106900704Y-43349521D01*
X106948518Y-43397252D01*
X106982597Y-43459535D01*
X106985500Y-43486425D01*
X106985500Y-44076930D01*
X106984067Y-44095880D01*
X106980801Y-44117349D01*
X106981394Y-44124641D01*
X106981394Y-44124644D01*
X106985085Y-44170018D01*
X106985500Y-44180233D01*
X106985500Y-44188293D01*
X106985925Y-44191937D01*
X106988789Y-44216507D01*
X106989222Y-44220882D01*
X106990681Y-44238812D01*
X106995140Y-44293637D01*
X106997396Y-44300601D01*
X106998587Y-44306560D01*
X106999971Y-44312415D01*
X107000818Y-44319681D01*
X107025735Y-44388327D01*
X107027152Y-44392455D01*
X107047224Y-44454412D01*
X107049649Y-44461899D01*
X107053445Y-44468154D01*
X107055951Y-44473628D01*
X107058670Y-44479058D01*
X107061167Y-44485937D01*
X107065180Y-44492057D01*
X107065180Y-44492058D01*
X107101186Y-44546976D01*
X107103523Y-44550680D01*
X107141405Y-44613107D01*
X107145121Y-44617315D01*
X107145122Y-44617316D01*
X107148803Y-44621484D01*
X107148776Y-44621508D01*
X107151429Y-44624500D01*
X107154132Y-44627733D01*
X107158144Y-44633852D01*
X107163456Y-44638884D01*
X107214383Y-44687128D01*
X107216825Y-44689506D01*
X107339875Y-44812556D01*
X107370613Y-44862714D01*
X107425473Y-45031556D01*
X107520960Y-45196944D01*
X107648747Y-45338866D01*
X107803248Y-45451118D01*
X107809276Y-45453802D01*
X107809278Y-45453803D01*
X107871613Y-45481556D01*
X107977712Y-45528794D01*
X108071112Y-45548647D01*
X108158056Y-45567128D01*
X108158061Y-45567128D01*
X108164513Y-45568500D01*
X108355487Y-45568500D01*
X108361939Y-45567128D01*
X108361944Y-45567128D01*
X108448888Y-45548647D01*
X108542288Y-45528794D01*
X108648387Y-45481556D01*
X108710722Y-45453803D01*
X108710724Y-45453802D01*
X108716752Y-45451118D01*
X108871253Y-45338866D01*
X108947461Y-45254228D01*
X109007904Y-45216990D01*
X109078888Y-45218341D01*
X109137873Y-45257855D01*
X109139402Y-45259807D01*
X109141405Y-45263107D01*
X109145119Y-45267313D01*
X109148447Y-45271835D01*
X109147843Y-45272279D01*
X109170194Y-45311426D01*
X109225473Y-45481556D01*
X109320960Y-45646944D01*
X109448747Y-45788866D01*
X109534117Y-45850891D01*
X109569852Y-45876854D01*
X109603248Y-45901118D01*
X109609276Y-45903802D01*
X109609278Y-45903803D01*
X109680067Y-45935320D01*
X109777712Y-45978794D01*
X109961987Y-46017963D01*
X110024460Y-46051692D01*
X110058782Y-46113841D01*
X110054054Y-46184680D01*
X110009851Y-46243146D01*
X109996615Y-46252763D01*
X109888747Y-46331134D01*
X109800129Y-46429555D01*
X109739684Y-46466793D01*
X109668700Y-46465441D01*
X109612859Y-46429555D01*
X109551253Y-46361134D01*
X109396752Y-46248882D01*
X109390724Y-46246198D01*
X109390722Y-46246197D01*
X109228319Y-46173891D01*
X109228318Y-46173891D01*
X109222288Y-46171206D01*
X109128887Y-46151353D01*
X109041944Y-46132872D01*
X109041939Y-46132872D01*
X109035487Y-46131500D01*
X108844513Y-46131500D01*
X108838061Y-46132872D01*
X108838056Y-46132872D01*
X108751113Y-46151353D01*
X108657712Y-46171206D01*
X108651682Y-46173891D01*
X108651681Y-46173891D01*
X108489278Y-46246197D01*
X108489276Y-46246198D01*
X108483248Y-46248882D01*
X108328747Y-46361134D01*
X108324329Y-46366041D01*
X108324325Y-46366045D01*
X108222824Y-46478774D01*
X108200960Y-46503056D01*
X108197659Y-46508774D01*
X108122794Y-46638444D01*
X108105473Y-46668444D01*
X108103431Y-46674729D01*
X108073998Y-46765314D01*
X108033925Y-46823920D01*
X107968528Y-46851557D01*
X107915414Y-46843425D01*
X107914600Y-46845932D01*
X107908318Y-46843891D01*
X107902288Y-46841206D01*
X107895833Y-46839834D01*
X107895824Y-46839831D01*
X107839228Y-46827801D01*
X107776331Y-46793650D01*
X104548779Y-43566098D01*
X104514753Y-43503786D01*
X104519818Y-43432971D01*
X104548701Y-43387985D01*
X104588134Y-43348483D01*
X104593305Y-43343303D01*
X104637040Y-43272352D01*
X104689811Y-43224860D01*
X104759883Y-43213436D01*
X104825006Y-43241710D01*
X104851443Y-43272166D01*
X104892063Y-43337807D01*
X104901099Y-43349208D01*
X105015829Y-43463739D01*
X105027240Y-43472751D01*
X105165243Y-43557816D01*
X105178424Y-43563963D01*
X105332710Y-43615138D01*
X105346086Y-43618005D01*
X105440438Y-43627672D01*
X105446854Y-43628000D01*
X105471885Y-43628000D01*
X105487124Y-43623525D01*
X105488329Y-43622135D01*
X105490000Y-43614452D01*
X105490000Y-37130116D01*
X105485525Y-37114877D01*
X105484135Y-37113672D01*
X105476452Y-37112001D01*
X105446905Y-37112001D01*
X105440386Y-37112338D01*
X105344794Y-37122257D01*
X105331400Y-37125149D01*
X105177216Y-37176588D01*
X105164038Y-37182761D01*
X105026193Y-37268063D01*
X105014792Y-37277099D01*
X104900261Y-37391829D01*
X104891249Y-37403240D01*
X104851549Y-37467646D01*
X104798777Y-37515139D01*
X104728706Y-37526563D01*
X104663582Y-37498289D01*
X104637145Y-37467833D01*
X104596332Y-37401880D01*
X104596330Y-37401877D01*
X104592478Y-37395652D01*
X104467303Y-37270695D01*
X104461072Y-37266854D01*
X104322968Y-37181725D01*
X104322966Y-37181724D01*
X104316738Y-37177885D01*
X104236995Y-37151436D01*
X104155389Y-37124368D01*
X104155387Y-37124368D01*
X104148861Y-37122203D01*
X104142025Y-37121503D01*
X104142022Y-37121502D01*
X104098969Y-37117091D01*
X104044400Y-37111500D01*
X103443600Y-37111500D01*
X103440354Y-37111837D01*
X103440350Y-37111837D01*
X103344692Y-37121762D01*
X103344688Y-37121763D01*
X103337834Y-37122474D01*
X103331298Y-37124655D01*
X103331296Y-37124655D01*
X103314928Y-37130116D01*
X103170054Y-37178450D01*
X103019652Y-37271522D01*
X102894695Y-37396697D01*
X102890855Y-37402927D01*
X102890854Y-37402928D01*
X102885259Y-37412005D01*
X102832487Y-37459498D01*
X102762415Y-37470922D01*
X102697291Y-37442648D01*
X102657792Y-37383654D01*
X102651999Y-37345889D01*
X102651999Y-36822905D01*
X102651662Y-36816386D01*
X102641743Y-36720794D01*
X102638851Y-36707400D01*
X102587412Y-36553216D01*
X102581239Y-36540038D01*
X102495937Y-36402193D01*
X102486901Y-36390792D01*
X102372171Y-36276261D01*
X102360760Y-36267249D01*
X102222757Y-36182184D01*
X102209576Y-36176037D01*
X102055290Y-36124862D01*
X102041914Y-36121995D01*
X101947562Y-36112328D01*
X101941145Y-36112000D01*
X101616115Y-36112000D01*
X101600876Y-36116475D01*
X101599671Y-36117865D01*
X101598000Y-36125548D01*
X101598000Y-40109884D01*
X101602475Y-40125123D01*
X101603865Y-40126328D01*
X101611548Y-40127999D01*
X101941095Y-40127999D01*
X101947614Y-40127662D01*
X102043206Y-40117743D01*
X102056600Y-40114851D01*
X102210784Y-40063412D01*
X102223962Y-40057239D01*
X102361807Y-39971937D01*
X102373208Y-39962901D01*
X102487739Y-39848171D01*
X102496751Y-39836760D01*
X102502240Y-39827855D01*
X102555012Y-39780362D01*
X102625084Y-39768938D01*
X102690208Y-39797212D01*
X102729707Y-39856206D01*
X102735500Y-39893971D01*
X102735500Y-42920400D01*
X102735837Y-42923646D01*
X102735837Y-42923650D01*
X102744054Y-43002838D01*
X102746474Y-43026166D01*
X102802450Y-43193946D01*
X102895522Y-43344348D01*
X102900704Y-43349521D01*
X102948518Y-43397252D01*
X102982597Y-43459535D01*
X102985500Y-43486425D01*
X102985500Y-43766930D01*
X102984067Y-43785880D01*
X102980801Y-43807349D01*
X102981394Y-43814641D01*
X102981394Y-43814644D01*
X102985085Y-43860018D01*
X102985500Y-43870233D01*
X102985500Y-43878293D01*
X102985925Y-43881937D01*
X102988789Y-43906507D01*
X102989222Y-43910882D01*
X102995140Y-43983637D01*
X102997396Y-43990601D01*
X102998587Y-43996560D01*
X102999971Y-44002415D01*
X103000818Y-44009681D01*
X103025735Y-44078327D01*
X103027152Y-44082455D01*
X103040820Y-44124644D01*
X103049649Y-44151899D01*
X103053445Y-44158154D01*
X103055951Y-44163628D01*
X103058670Y-44169058D01*
X103061167Y-44175937D01*
X103065180Y-44182057D01*
X103065180Y-44182058D01*
X103101186Y-44236976D01*
X103103523Y-44240680D01*
X103141405Y-44303107D01*
X103145121Y-44307315D01*
X103145122Y-44307316D01*
X103148803Y-44311484D01*
X103148776Y-44311508D01*
X103151429Y-44314500D01*
X103154132Y-44317733D01*
X103158144Y-44323852D01*
X103214383Y-44377128D01*
X103216825Y-44379506D01*
X106051724Y-47214405D01*
X106085750Y-47276717D01*
X106080685Y-47347532D01*
X106038138Y-47404368D01*
X105971618Y-47429179D01*
X105962629Y-47429500D01*
X105384600Y-47429500D01*
X105381354Y-47429837D01*
X105381350Y-47429837D01*
X105285692Y-47439762D01*
X105285688Y-47439763D01*
X105278834Y-47440474D01*
X105272298Y-47442655D01*
X105272296Y-47442655D01*
X105140194Y-47486728D01*
X105111054Y-47496450D01*
X104960652Y-47589522D01*
X104835695Y-47714697D01*
X104742885Y-47865262D01*
X104687203Y-48033139D01*
X104676500Y-48137600D01*
X104676500Y-49538400D01*
X104676837Y-49541646D01*
X104676837Y-49541650D01*
X104686750Y-49637185D01*
X104687474Y-49644166D01*
X104689655Y-49650702D01*
X104689655Y-49650704D01*
X104695312Y-49667659D01*
X104743450Y-49811946D01*
X104836522Y-49962348D01*
X104961697Y-50087305D01*
X104967927Y-50091145D01*
X104967928Y-50091146D01*
X105069737Y-50153902D01*
X105112262Y-50180115D01*
X105171846Y-50199878D01*
X105273611Y-50233632D01*
X105273613Y-50233632D01*
X105280139Y-50235797D01*
X105286975Y-50236497D01*
X105286978Y-50236498D01*
X105330031Y-50240909D01*
X105384600Y-50246500D01*
X106185400Y-50246500D01*
X106188646Y-50246163D01*
X106188650Y-50246163D01*
X106208187Y-50244136D01*
X106230475Y-50241823D01*
X106300295Y-50254687D01*
X106352077Y-50303258D01*
X106369380Y-50372114D01*
X106351932Y-50431289D01*
X106330352Y-50467779D01*
X106324107Y-50482210D01*
X106281731Y-50628065D01*
X106279430Y-50640667D01*
X106277193Y-50669084D01*
X106277000Y-50674014D01*
X106277000Y-51090885D01*
X106281475Y-51106124D01*
X106282865Y-51107329D01*
X106290548Y-51109000D01*
X106812885Y-51109000D01*
X106828124Y-51104525D01*
X106829329Y-51103135D01*
X106831000Y-51095452D01*
X106831000Y-50101122D01*
X106826525Y-50085883D01*
X106804616Y-50066898D01*
X106795881Y-50062910D01*
X106757494Y-50003186D01*
X106757490Y-49932189D01*
X106771128Y-49901565D01*
X106823275Y-49816968D01*
X106823276Y-49816966D01*
X106827115Y-49810738D01*
X106878731Y-49655120D01*
X106880632Y-49649389D01*
X106880632Y-49649387D01*
X106882797Y-49642861D01*
X106886679Y-49604978D01*
X106893172Y-49541598D01*
X106893500Y-49538400D01*
X106893500Y-48552423D01*
X106913502Y-48484302D01*
X106967158Y-48437809D01*
X107037432Y-48427705D01*
X107093560Y-48450487D01*
X107163248Y-48501118D01*
X107169276Y-48503802D01*
X107169278Y-48503803D01*
X107251749Y-48540521D01*
X107305845Y-48586501D01*
X107326500Y-48655628D01*
X107326500Y-50454246D01*
X107321497Y-50489398D01*
X107282527Y-50623537D01*
X107279438Y-50634169D01*
X107278934Y-50640574D01*
X107278933Y-50640579D01*
X107276693Y-50669042D01*
X107276500Y-50671498D01*
X107276500Y-52054502D01*
X107276693Y-52056950D01*
X107276693Y-52056958D01*
X107278927Y-52085336D01*
X107279438Y-52091831D01*
X107300282Y-52163578D01*
X107323643Y-52243989D01*
X107323645Y-52243993D01*
X107325855Y-52251601D01*
X107328885Y-52256725D01*
X107339000Y-52305570D01*
X107339000Y-52606978D01*
X107318998Y-52675099D01*
X107302095Y-52696073D01*
X99987589Y-60010579D01*
X99973177Y-60022965D01*
X99961582Y-60031498D01*
X99961577Y-60031503D01*
X99955682Y-60035841D01*
X99950943Y-60041419D01*
X99950940Y-60041422D01*
X99921465Y-60076117D01*
X99914535Y-60083633D01*
X99908840Y-60089328D01*
X99906560Y-60092210D01*
X99891219Y-60111600D01*
X99888428Y-60115004D01*
X99845909Y-60165052D01*
X99841167Y-60170634D01*
X99837839Y-60177150D01*
X99834472Y-60182199D01*
X99831305Y-60187328D01*
X99826766Y-60193065D01*
X99795845Y-60259224D01*
X99793942Y-60263118D01*
X99760731Y-60328157D01*
X99758992Y-60335265D01*
X99756893Y-60340908D01*
X99754976Y-60346671D01*
X99751878Y-60353299D01*
X99750388Y-60360461D01*
X99750388Y-60360462D01*
X99737014Y-60424761D01*
X99736044Y-60429045D01*
X99718692Y-60499959D01*
X99718000Y-60511113D01*
X99717964Y-60511111D01*
X99717725Y-60515104D01*
X99717351Y-60519296D01*
X99715860Y-60526464D01*
X99716058Y-60533781D01*
X99717954Y-60603870D01*
X99718000Y-60607277D01*
X99718000Y-75830133D01*
X99697998Y-75898254D01*
X99664272Y-75933345D01*
X99632200Y-75955802D01*
X99470302Y-76117700D01*
X99338977Y-76305251D01*
X99336654Y-76310233D01*
X99336651Y-76310238D01*
X99244539Y-76507775D01*
X99242216Y-76512757D01*
X99182957Y-76733913D01*
X99163002Y-76962000D01*
X99182957Y-77190087D01*
X99242216Y-77411243D01*
X99244539Y-77416224D01*
X99244539Y-77416225D01*
X99336651Y-77613762D01*
X99336654Y-77613767D01*
X99338977Y-77618749D01*
X99470302Y-77806300D01*
X99632200Y-77968198D01*
X99636708Y-77971355D01*
X99636711Y-77971357D01*
X99714889Y-78026098D01*
X99819751Y-78099523D01*
X99824733Y-78101846D01*
X99824738Y-78101849D01*
X99858957Y-78117805D01*
X99912242Y-78164722D01*
X99931703Y-78232999D01*
X99911161Y-78300959D01*
X99858957Y-78346195D01*
X99824738Y-78362151D01*
X99824733Y-78362154D01*
X99819751Y-78364477D01*
X99714889Y-78437902D01*
X99636711Y-78492643D01*
X99636708Y-78492645D01*
X99632200Y-78495802D01*
X99470302Y-78657700D01*
X99338977Y-78845251D01*
X99336654Y-78850233D01*
X99336651Y-78850238D01*
X99257639Y-79019681D01*
X99242216Y-79052757D01*
X99182957Y-79273913D01*
X99163002Y-79502000D01*
X99182957Y-79730087D01*
X99242216Y-79951243D01*
X99244539Y-79956224D01*
X99244539Y-79956225D01*
X99336651Y-80153762D01*
X99336654Y-80153767D01*
X99338977Y-80158749D01*
X99470302Y-80346300D01*
X99632200Y-80508198D01*
X99636708Y-80511355D01*
X99636711Y-80511357D01*
X99714889Y-80566098D01*
X99819751Y-80639523D01*
X99824733Y-80641846D01*
X99824738Y-80641849D01*
X99858957Y-80657805D01*
X99912242Y-80704722D01*
X99931703Y-80772999D01*
X99911161Y-80840959D01*
X99858957Y-80886195D01*
X99824738Y-80902151D01*
X99824733Y-80902154D01*
X99819751Y-80904477D01*
X99714889Y-80977902D01*
X99636711Y-81032643D01*
X99636708Y-81032645D01*
X99632200Y-81035802D01*
X99470302Y-81197700D01*
X99338977Y-81385251D01*
X99336654Y-81390233D01*
X99336651Y-81390238D01*
X99244539Y-81587775D01*
X99242216Y-81592757D01*
X99182957Y-81813913D01*
X99163002Y-82042000D01*
X99182957Y-82270087D01*
X99184381Y-82275400D01*
X99184381Y-82275402D01*
X99224284Y-82424319D01*
X99242216Y-82491243D01*
X99244539Y-82496224D01*
X99244539Y-82496225D01*
X99336651Y-82693762D01*
X99336654Y-82693767D01*
X99338977Y-82698749D01*
X99374526Y-82749518D01*
X99441752Y-82845526D01*
X99470302Y-82886300D01*
X99632200Y-83048198D01*
X99636708Y-83051355D01*
X99636711Y-83051357D01*
X99714889Y-83106098D01*
X99819751Y-83179523D01*
X99824733Y-83181846D01*
X99824738Y-83181849D01*
X99858957Y-83197805D01*
X99912242Y-83244722D01*
X99931703Y-83312999D01*
X99911161Y-83380959D01*
X99858957Y-83426195D01*
X99824738Y-83442151D01*
X99824733Y-83442154D01*
X99819751Y-83444477D01*
X99714889Y-83517902D01*
X99636711Y-83572643D01*
X99636708Y-83572645D01*
X99632200Y-83575802D01*
X99470302Y-83737700D01*
X99338977Y-83925251D01*
X99336654Y-83930233D01*
X99336651Y-83930238D01*
X99257967Y-84098979D01*
X99242216Y-84132757D01*
X99240794Y-84138065D01*
X99240793Y-84138067D01*
X99223424Y-84202890D01*
X99182957Y-84353913D01*
X99163002Y-84582000D01*
X99182957Y-84810087D01*
X99242216Y-85031243D01*
X99244539Y-85036224D01*
X99244539Y-85036225D01*
X99336651Y-85233762D01*
X99336654Y-85233767D01*
X99338977Y-85238749D01*
X99470302Y-85426300D01*
X99632200Y-85588198D01*
X99636708Y-85591355D01*
X99636711Y-85591357D01*
X99714889Y-85646098D01*
X99819751Y-85719523D01*
X99824733Y-85721846D01*
X99824738Y-85721849D01*
X99858957Y-85737805D01*
X99912242Y-85784722D01*
X99931703Y-85852999D01*
X99911161Y-85920959D01*
X99858957Y-85966195D01*
X99824738Y-85982151D01*
X99824733Y-85982154D01*
X99819751Y-85984477D01*
X99714889Y-86057902D01*
X99636711Y-86112643D01*
X99636708Y-86112645D01*
X99632200Y-86115802D01*
X99470302Y-86277700D01*
X99338977Y-86465251D01*
X99336654Y-86470233D01*
X99336651Y-86470238D01*
X99244539Y-86667775D01*
X99242216Y-86672757D01*
X99182957Y-86893913D01*
X99163002Y-87122000D01*
X99182957Y-87350087D01*
X99242216Y-87571243D01*
X99244539Y-87576224D01*
X99244539Y-87576225D01*
X99336651Y-87773762D01*
X99336654Y-87773767D01*
X99338977Y-87778749D01*
X99470302Y-87966300D01*
X99632200Y-88128198D01*
X99636708Y-88131355D01*
X99636711Y-88131357D01*
X99714889Y-88186098D01*
X99819751Y-88259523D01*
X99824733Y-88261846D01*
X99824738Y-88261849D01*
X99858957Y-88277805D01*
X99912242Y-88324722D01*
X99931703Y-88392999D01*
X99911161Y-88460959D01*
X99858957Y-88506195D01*
X99824738Y-88522151D01*
X99824733Y-88522154D01*
X99819751Y-88524477D01*
X99714889Y-88597902D01*
X99636711Y-88652643D01*
X99636708Y-88652645D01*
X99632200Y-88655802D01*
X99470302Y-88817700D01*
X99338977Y-89005251D01*
X99336654Y-89010233D01*
X99336651Y-89010238D01*
X99244539Y-89207775D01*
X99242216Y-89212757D01*
X99182957Y-89433913D01*
X99163002Y-89662000D01*
X99182957Y-89890087D01*
X99242216Y-90111243D01*
X99244539Y-90116224D01*
X99244539Y-90116225D01*
X99336651Y-90313762D01*
X99336654Y-90313767D01*
X99338977Y-90318749D01*
X99470302Y-90506300D01*
X99632200Y-90668198D01*
X99636708Y-90671355D01*
X99636711Y-90671357D01*
X99714889Y-90726098D01*
X99819751Y-90799523D01*
X99824733Y-90801846D01*
X99824738Y-90801849D01*
X99858957Y-90817805D01*
X99912242Y-90864722D01*
X99931703Y-90932999D01*
X99911161Y-91000959D01*
X99858957Y-91046195D01*
X99824738Y-91062151D01*
X99824733Y-91062154D01*
X99819751Y-91064477D01*
X99714889Y-91137902D01*
X99636711Y-91192643D01*
X99636708Y-91192645D01*
X99632200Y-91195802D01*
X99470302Y-91357700D01*
X99338977Y-91545251D01*
X99336654Y-91550233D01*
X99336651Y-91550238D01*
X99244539Y-91747775D01*
X99242216Y-91752757D01*
X99182957Y-91973913D01*
X99163002Y-92202000D01*
X99182957Y-92430087D01*
X99242216Y-92651243D01*
X99244539Y-92656224D01*
X99244539Y-92656225D01*
X99336651Y-92853762D01*
X99336654Y-92853767D01*
X99338977Y-92858749D01*
X99470302Y-93046300D01*
X99632200Y-93208198D01*
X99636708Y-93211355D01*
X99636711Y-93211357D01*
X99714889Y-93266098D01*
X99819751Y-93339523D01*
X99824733Y-93341846D01*
X99824738Y-93341849D01*
X99858957Y-93357805D01*
X99912242Y-93404722D01*
X99931703Y-93472999D01*
X99911161Y-93540959D01*
X99858957Y-93586195D01*
X99824738Y-93602151D01*
X99824733Y-93602154D01*
X99819751Y-93604477D01*
X99714889Y-93677902D01*
X99636711Y-93732643D01*
X99636708Y-93732645D01*
X99632200Y-93735802D01*
X99470302Y-93897700D01*
X99338977Y-94085251D01*
X99336654Y-94090233D01*
X99336651Y-94090238D01*
X99244539Y-94287775D01*
X99242216Y-94292757D01*
X99182957Y-94513913D01*
X99163002Y-94742000D01*
X99182957Y-94970087D01*
X99242216Y-95191243D01*
X99244539Y-95196224D01*
X99244539Y-95196225D01*
X99336651Y-95393762D01*
X99336654Y-95393767D01*
X99338977Y-95398749D01*
X99470302Y-95586300D01*
X99632200Y-95748198D01*
X99636708Y-95751355D01*
X99636711Y-95751357D01*
X99714889Y-95806098D01*
X99819751Y-95879523D01*
X99824733Y-95881846D01*
X99824738Y-95881849D01*
X99858957Y-95897805D01*
X99912242Y-95944722D01*
X99931703Y-96012999D01*
X99911161Y-96080959D01*
X99858957Y-96126195D01*
X99824738Y-96142151D01*
X99824733Y-96142154D01*
X99819751Y-96144477D01*
X99714889Y-96217902D01*
X99636711Y-96272643D01*
X99636708Y-96272645D01*
X99632200Y-96275802D01*
X99470302Y-96437700D01*
X99338977Y-96625251D01*
X99336654Y-96630233D01*
X99336651Y-96630238D01*
X99271876Y-96769150D01*
X99242216Y-96832757D01*
X99240794Y-96838065D01*
X99240793Y-96838067D01*
X99184381Y-97048598D01*
X99182957Y-97053913D01*
X99163002Y-97282000D01*
X99182957Y-97510087D01*
X99242216Y-97731243D01*
X99244539Y-97736224D01*
X99244539Y-97736225D01*
X99336651Y-97933762D01*
X99336654Y-97933767D01*
X99338977Y-97938749D01*
X99470302Y-98126300D01*
X99632200Y-98288198D01*
X99636708Y-98291355D01*
X99636711Y-98291357D01*
X99714889Y-98346098D01*
X99819751Y-98419523D01*
X99824733Y-98421846D01*
X99824738Y-98421849D01*
X99858957Y-98437805D01*
X99912242Y-98484722D01*
X99931703Y-98552999D01*
X99911161Y-98620959D01*
X99858957Y-98666195D01*
X99824738Y-98682151D01*
X99824733Y-98682154D01*
X99819751Y-98684477D01*
X99714889Y-98757902D01*
X99636711Y-98812643D01*
X99636708Y-98812645D01*
X99632200Y-98815802D01*
X99470302Y-98977700D01*
X99338977Y-99165251D01*
X99336654Y-99170233D01*
X99336651Y-99170238D01*
X99244539Y-99367775D01*
X99242216Y-99372757D01*
X99182957Y-99593913D01*
X99163002Y-99822000D01*
X99182957Y-100050087D01*
X99242216Y-100271243D01*
X99244539Y-100276224D01*
X99244539Y-100276225D01*
X99336651Y-100473762D01*
X99336654Y-100473767D01*
X99338977Y-100478749D01*
X99470302Y-100666300D01*
X99632200Y-100828198D01*
X99636708Y-100831355D01*
X99636711Y-100831357D01*
X99714889Y-100886098D01*
X99819751Y-100959523D01*
X99824733Y-100961846D01*
X99824738Y-100961849D01*
X99858957Y-100977805D01*
X99912242Y-101024722D01*
X99931703Y-101092999D01*
X99911161Y-101160959D01*
X99858957Y-101206195D01*
X99824738Y-101222151D01*
X99824733Y-101222154D01*
X99819751Y-101224477D01*
X99714889Y-101297902D01*
X99636711Y-101352643D01*
X99636708Y-101352645D01*
X99632200Y-101355802D01*
X99470302Y-101517700D01*
X99338977Y-101705251D01*
X99336654Y-101710233D01*
X99336651Y-101710238D01*
X99244539Y-101907775D01*
X99242216Y-101912757D01*
X99182957Y-102133913D01*
X99163002Y-102362000D01*
X99182957Y-102590087D01*
X99242216Y-102811243D01*
X99244539Y-102816224D01*
X99244539Y-102816225D01*
X99336651Y-103013762D01*
X99336654Y-103013767D01*
X99338977Y-103018749D01*
X99470302Y-103206300D01*
X99632200Y-103368198D01*
X99636708Y-103371355D01*
X99636711Y-103371357D01*
X99714889Y-103426098D01*
X99819751Y-103499523D01*
X99824733Y-103501846D01*
X99824738Y-103501849D01*
X99858957Y-103517805D01*
X99912242Y-103564722D01*
X99931703Y-103632999D01*
X99911161Y-103700959D01*
X99858957Y-103746195D01*
X99824738Y-103762151D01*
X99824733Y-103762154D01*
X99819751Y-103764477D01*
X99799269Y-103778819D01*
X99636711Y-103892643D01*
X99636708Y-103892645D01*
X99632200Y-103895802D01*
X99470302Y-104057700D01*
X99467145Y-104062208D01*
X99467143Y-104062211D01*
X99452251Y-104083479D01*
X99338977Y-104245251D01*
X99336654Y-104250233D01*
X99336651Y-104250238D01*
X99253678Y-104428177D01*
X99242216Y-104452757D01*
X99240794Y-104458064D01*
X99240793Y-104458067D01*
X99203292Y-104598021D01*
X99182957Y-104673913D01*
X99163002Y-104902000D01*
X99182957Y-105130087D01*
X99242216Y-105351243D01*
X99244539Y-105356224D01*
X99244539Y-105356225D01*
X99336651Y-105553762D01*
X99336654Y-105553767D01*
X99338977Y-105558749D01*
X99470302Y-105746300D01*
X99632200Y-105908198D01*
X99664271Y-105930655D01*
X99708599Y-105986110D01*
X99718000Y-106033867D01*
X99718000Y-122399430D01*
X99716567Y-122418380D01*
X99713301Y-122439849D01*
X99713894Y-122447141D01*
X99713894Y-122447144D01*
X99717585Y-122492518D01*
X99718000Y-122502733D01*
X99718000Y-122510793D01*
X99718425Y-122514437D01*
X99721289Y-122539007D01*
X99721722Y-122543382D01*
X99726941Y-122607540D01*
X99727640Y-122616137D01*
X99729896Y-122623101D01*
X99731087Y-122629060D01*
X99732471Y-122634915D01*
X99733318Y-122642181D01*
X99758235Y-122710827D01*
X99759652Y-122714955D01*
X99763644Y-122727276D01*
X99782149Y-122784399D01*
X99785945Y-122790654D01*
X99788451Y-122796128D01*
X99791170Y-122801558D01*
X99793667Y-122808437D01*
X99797680Y-122814557D01*
X99797680Y-122814558D01*
X99833686Y-122869476D01*
X99836023Y-122873180D01*
X99873905Y-122935607D01*
X99877621Y-122939815D01*
X99877622Y-122939816D01*
X99881303Y-122943984D01*
X99881276Y-122944008D01*
X99883929Y-122947000D01*
X99886632Y-122950233D01*
X99890644Y-122956352D01*
X99895956Y-122961384D01*
X99946883Y-123009628D01*
X99949325Y-123012006D01*
X102324595Y-125387276D01*
X102358621Y-125449588D01*
X102361500Y-125476371D01*
X102361500Y-126510400D01*
X102361837Y-126513646D01*
X102361837Y-126513650D01*
X102369951Y-126591847D01*
X102372474Y-126616166D01*
X102374655Y-126622702D01*
X102374655Y-126622704D01*
X102408178Y-126723183D01*
X102428450Y-126783946D01*
X102521522Y-126934348D01*
X102646697Y-127059305D01*
X102652927Y-127063145D01*
X102652928Y-127063146D01*
X102790090Y-127147694D01*
X102797262Y-127152115D01*
X102836815Y-127165234D01*
X102958611Y-127205632D01*
X102958613Y-127205632D01*
X102965139Y-127207797D01*
X102971975Y-127208497D01*
X102971978Y-127208498D01*
X103015031Y-127212909D01*
X103069600Y-127218500D01*
X104370400Y-127218500D01*
X104373646Y-127218163D01*
X104373650Y-127218163D01*
X104469308Y-127208238D01*
X104469312Y-127208237D01*
X104476166Y-127207526D01*
X104482702Y-127205345D01*
X104482704Y-127205345D01*
X104614806Y-127161272D01*
X104643946Y-127151550D01*
X104794348Y-127058478D01*
X104919305Y-126933303D01*
X104929734Y-126916385D01*
X104954550Y-126876125D01*
X105009081Y-126787660D01*
X105061852Y-126740168D01*
X105131924Y-126728744D01*
X105197048Y-126757018D01*
X105207510Y-126766805D01*
X105249215Y-126810523D01*
X105316576Y-126881135D01*
X105407376Y-126948692D01*
X105410713Y-126951175D01*
X105453426Y-127007885D01*
X105461500Y-127052264D01*
X105461500Y-130697452D01*
X105441498Y-130765573D01*
X105418081Y-130792617D01*
X105390120Y-130816880D01*
X105365709Y-130838063D01*
X105352555Y-130849477D01*
X105323330Y-130885120D01*
X105264671Y-130925114D01*
X105193701Y-130927046D01*
X105132952Y-130890302D01*
X105118752Y-130871532D01*
X105032332Y-130731880D01*
X105028478Y-130725652D01*
X104903303Y-130600695D01*
X104889194Y-130591998D01*
X104758968Y-130511725D01*
X104758966Y-130511724D01*
X104752738Y-130507885D01*
X104592254Y-130454655D01*
X104591389Y-130454368D01*
X104591387Y-130454368D01*
X104584861Y-130452203D01*
X104578025Y-130451503D01*
X104578022Y-130451502D01*
X104534969Y-130447091D01*
X104480400Y-130441500D01*
X103179600Y-130441500D01*
X103176354Y-130441837D01*
X103176350Y-130441837D01*
X103080692Y-130451762D01*
X103080688Y-130451763D01*
X103073834Y-130452474D01*
X103067298Y-130454655D01*
X103067296Y-130454655D01*
X102984072Y-130482421D01*
X102906054Y-130508450D01*
X102755652Y-130601522D01*
X102630695Y-130726697D01*
X102626855Y-130732927D01*
X102626854Y-130732928D01*
X102562048Y-130838063D01*
X102537885Y-130877262D01*
X102482203Y-131045139D01*
X102481503Y-131051975D01*
X102481502Y-131051978D01*
X102479338Y-131073102D01*
X102471500Y-131149600D01*
X102471500Y-132750400D01*
X102471837Y-132753646D01*
X102471837Y-132753650D01*
X102481658Y-132848297D01*
X102482474Y-132856166D01*
X102484655Y-132862702D01*
X102484655Y-132862704D01*
X102515406Y-132954874D01*
X102538450Y-133023946D01*
X102631522Y-133174348D01*
X102756697Y-133299305D01*
X102762927Y-133303145D01*
X102762928Y-133303146D01*
X102900090Y-133387694D01*
X102907262Y-133392115D01*
X102942938Y-133403948D01*
X103068611Y-133445632D01*
X103068613Y-133445632D01*
X103075139Y-133447797D01*
X103081975Y-133448497D01*
X103081978Y-133448498D01*
X103117663Y-133452154D01*
X103179600Y-133458500D01*
X104480400Y-133458500D01*
X104483646Y-133458163D01*
X104483650Y-133458163D01*
X104579308Y-133448238D01*
X104579312Y-133448237D01*
X104586166Y-133447526D01*
X104592702Y-133445345D01*
X104592704Y-133445345D01*
X104724806Y-133401272D01*
X104753946Y-133391550D01*
X104904348Y-133298478D01*
X105029305Y-133173303D01*
X105119081Y-133027660D01*
X105171852Y-132980168D01*
X105241924Y-132968744D01*
X105307048Y-132997018D01*
X105317510Y-133006805D01*
X105359215Y-133050523D01*
X105426576Y-133121135D01*
X105611542Y-133258754D01*
X105616293Y-133261170D01*
X105616297Y-133261172D01*
X105698855Y-133303146D01*
X105817051Y-133363240D01*
X105822145Y-133364822D01*
X105822148Y-133364823D01*
X106022020Y-133426885D01*
X106037227Y-133431607D01*
X106042516Y-133432308D01*
X106260489Y-133461198D01*
X106260494Y-133461198D01*
X106265774Y-133461898D01*
X106271103Y-133461698D01*
X106271105Y-133461698D01*
X106380966Y-133457573D01*
X106496158Y-133453249D01*
X106518802Y-133448498D01*
X106716572Y-133407002D01*
X106721791Y-133405907D01*
X106726750Y-133403949D01*
X106726752Y-133403948D01*
X106931256Y-133323185D01*
X106931258Y-133323184D01*
X106936221Y-133321224D01*
X106966605Y-133302787D01*
X107128757Y-133204390D01*
X107128756Y-133204390D01*
X107133317Y-133201623D01*
X107173134Y-133167072D01*
X107303412Y-133054023D01*
X107303414Y-133054021D01*
X107307445Y-133050523D01*
X107374500Y-132968744D01*
X107450240Y-132876373D01*
X107450244Y-132876367D01*
X107453624Y-132872245D01*
X107510591Y-132772168D01*
X107561673Y-132722862D01*
X107620093Y-132708500D01*
X111263629Y-132708500D01*
X111331750Y-132728502D01*
X111352724Y-132745405D01*
X114496230Y-135888911D01*
X114508616Y-135903323D01*
X114517149Y-135914918D01*
X114517154Y-135914923D01*
X114521492Y-135920818D01*
X114527070Y-135925557D01*
X114527073Y-135925560D01*
X114561768Y-135955035D01*
X114569284Y-135961965D01*
X114574980Y-135967661D01*
X114577841Y-135969924D01*
X114577846Y-135969929D01*
X114597266Y-135985293D01*
X114600667Y-135988082D01*
X114656285Y-136035333D01*
X114662798Y-136038659D01*
X114667837Y-136042020D01*
X114672979Y-136045196D01*
X114678716Y-136049734D01*
X114744875Y-136080655D01*
X114748769Y-136082558D01*
X114813808Y-136115769D01*
X114820917Y-136117508D01*
X114826551Y-136119604D01*
X114832321Y-136121523D01*
X114838950Y-136124622D01*
X114846113Y-136126112D01*
X114846116Y-136126113D01*
X114896830Y-136136661D01*
X114910435Y-136139491D01*
X114914701Y-136140457D01*
X114985610Y-136157808D01*
X114991212Y-136158156D01*
X114991215Y-136158156D01*
X114996764Y-136158500D01*
X114996762Y-136158535D01*
X115000734Y-136158775D01*
X115004955Y-136159152D01*
X115012115Y-136160641D01*
X115089542Y-136158546D01*
X115092950Y-136158500D01*
X116645500Y-136158500D01*
X116713621Y-136178502D01*
X116760114Y-136232158D01*
X116771500Y-136284500D01*
X116771500Y-139663823D01*
X116751498Y-139731944D01*
X116734679Y-139752834D01*
X116703071Y-139784497D01*
X116611791Y-139932580D01*
X116557026Y-140097691D01*
X116556326Y-140104527D01*
X116556325Y-140104530D01*
X116554395Y-140123368D01*
X116546500Y-140200428D01*
X116546500Y-140799572D01*
X116546837Y-140802818D01*
X116546837Y-140802822D01*
X116552513Y-140857520D01*
X116557293Y-140903593D01*
X116612346Y-141068607D01*
X116703884Y-141216531D01*
X116709066Y-141221704D01*
X116810786Y-141323247D01*
X116844865Y-141385530D01*
X116839862Y-141456350D01*
X116810941Y-141501437D01*
X116708246Y-141604312D01*
X116708242Y-141604317D01*
X116703071Y-141609497D01*
X116611791Y-141757580D01*
X116557026Y-141922691D01*
X116546500Y-142025428D01*
X116546500Y-142624572D01*
X116557293Y-142728593D01*
X116612346Y-142893607D01*
X116703884Y-143041531D01*
X116709066Y-143046704D01*
X116821816Y-143159258D01*
X116821821Y-143159262D01*
X116826997Y-143164429D01*
X116833227Y-143168269D01*
X116833228Y-143168270D01*
X116929202Y-143227429D01*
X116975080Y-143255709D01*
X117120645Y-143303991D01*
X117135168Y-143308808D01*
X117193527Y-143349239D01*
X117220764Y-143414803D01*
X117221500Y-143428401D01*
X117221500Y-145443746D01*
X117216497Y-145478898D01*
X117203309Y-145524294D01*
X117174438Y-145623669D01*
X117171500Y-145660998D01*
X117171500Y-146818000D01*
X117151498Y-146886121D01*
X117097842Y-146932614D01*
X117045500Y-146944000D01*
X116813498Y-146944000D01*
X116811050Y-146944193D01*
X116811042Y-146944193D01*
X116782579Y-146946433D01*
X116782574Y-146946434D01*
X116776169Y-146946938D01*
X116676231Y-146975972D01*
X116624012Y-146991143D01*
X116624010Y-146991144D01*
X116616399Y-146993355D01*
X116609572Y-146997392D01*
X116609573Y-146997392D01*
X116480020Y-147074009D01*
X116480017Y-147074011D01*
X116473193Y-147078047D01*
X116355547Y-147195693D01*
X116351511Y-147202517D01*
X116351509Y-147202520D01*
X116342839Y-147217181D01*
X116270855Y-147338899D01*
X116224438Y-147498669D01*
X116221500Y-147535998D01*
X116221500Y-148844002D01*
X116224438Y-148881331D01*
X116226233Y-148887508D01*
X116264780Y-149020189D01*
X116270855Y-149041101D01*
X116274892Y-149047927D01*
X116351509Y-149177480D01*
X116351511Y-149177483D01*
X116355547Y-149184307D01*
X116473193Y-149301953D01*
X116480017Y-149305989D01*
X116480020Y-149305991D01*
X116575122Y-149362234D01*
X116616399Y-149386645D01*
X116624010Y-149388856D01*
X116624012Y-149388857D01*
X116668439Y-149401764D01*
X116776169Y-149433062D01*
X116782574Y-149433566D01*
X116782579Y-149433567D01*
X116811042Y-149435807D01*
X116811050Y-149435807D01*
X116813498Y-149436000D01*
X117151129Y-149436000D01*
X117219250Y-149456002D01*
X117240224Y-149472905D01*
X117539595Y-149772276D01*
X117573621Y-149834588D01*
X117576500Y-149861371D01*
X117576500Y-150379572D01*
X117587293Y-150483593D01*
X117589474Y-150490129D01*
X117589474Y-150490131D01*
X117626630Y-150601500D01*
X117642346Y-150648607D01*
X117733884Y-150796531D01*
X117739066Y-150801704D01*
X117840786Y-150903247D01*
X117874865Y-150965530D01*
X117869862Y-151036350D01*
X117840941Y-151081437D01*
X117738246Y-151184312D01*
X117738242Y-151184317D01*
X117733071Y-151189497D01*
X117729231Y-151195727D01*
X117729230Y-151195728D01*
X117646364Y-151330162D01*
X117641791Y-151337580D01*
X117587026Y-151502691D01*
X117586326Y-151509527D01*
X117586325Y-151509530D01*
X117581049Y-151561026D01*
X117576500Y-151605428D01*
X117576500Y-151763629D01*
X117556498Y-151831750D01*
X117539595Y-151852724D01*
X117171089Y-152221230D01*
X117156677Y-152233616D01*
X117145082Y-152242149D01*
X117145077Y-152242154D01*
X117139182Y-152246492D01*
X117134443Y-152252070D01*
X117134440Y-152252073D01*
X117104965Y-152286768D01*
X117098035Y-152294284D01*
X117092340Y-152299979D01*
X117090060Y-152302861D01*
X117074719Y-152322251D01*
X117071928Y-152325655D01*
X117049892Y-152351593D01*
X117024667Y-152381285D01*
X117021339Y-152387801D01*
X117017972Y-152392850D01*
X117014805Y-152397979D01*
X117010266Y-152403716D01*
X116979345Y-152469875D01*
X116977442Y-152473769D01*
X116944231Y-152538808D01*
X116942492Y-152545916D01*
X116940393Y-152551559D01*
X116938476Y-152557322D01*
X116935378Y-152563950D01*
X116921923Y-152628640D01*
X116920514Y-152635412D01*
X116919544Y-152639696D01*
X116902192Y-152710610D01*
X116901500Y-152721764D01*
X116901464Y-152721762D01*
X116901225Y-152725755D01*
X116900851Y-152729947D01*
X116899360Y-152737115D01*
X116899558Y-152744432D01*
X116901454Y-152814521D01*
X116901500Y-152817928D01*
X116901500Y-153925500D01*
X116881498Y-153993621D01*
X116827842Y-154040114D01*
X116775500Y-154051500D01*
X116117069Y-154051500D01*
X116098121Y-154050067D01*
X116090780Y-154048950D01*
X116083883Y-154047901D01*
X116083881Y-154047901D01*
X116076651Y-154046801D01*
X116069359Y-154047394D01*
X116069356Y-154047394D01*
X116023982Y-154051085D01*
X116013767Y-154051500D01*
X116005707Y-154051500D01*
X115992417Y-154053049D01*
X115977493Y-154054789D01*
X115973118Y-154055222D01*
X115907661Y-154060546D01*
X115907658Y-154060547D01*
X115900363Y-154061140D01*
X115893399Y-154063396D01*
X115887440Y-154064587D01*
X115881585Y-154065971D01*
X115874319Y-154066818D01*
X115805673Y-154091735D01*
X115801545Y-154093152D01*
X115739064Y-154113393D01*
X115739062Y-154113394D01*
X115732101Y-154115649D01*
X115725846Y-154119445D01*
X115720372Y-154121951D01*
X115714942Y-154124670D01*
X115708063Y-154127167D01*
X115701944Y-154131179D01*
X115687158Y-154140873D01*
X115618074Y-154161500D01*
X115024500Y-154161500D01*
X114956379Y-154141498D01*
X114909886Y-154087842D01*
X114898500Y-154035500D01*
X114898500Y-152757308D01*
X114918502Y-152689187D01*
X114948932Y-152656484D01*
X114993261Y-152623261D01*
X115080615Y-152506705D01*
X115131745Y-152370316D01*
X115138500Y-152308134D01*
X115138500Y-151511866D01*
X115131745Y-151449684D01*
X115080615Y-151313295D01*
X114993261Y-151196739D01*
X114876705Y-151109385D01*
X114740316Y-151058255D01*
X114678134Y-151051500D01*
X113981866Y-151051500D01*
X113919684Y-151058255D01*
X113783295Y-151109385D01*
X113776110Y-151114770D01*
X113776108Y-151114771D01*
X113705565Y-151167640D01*
X113639058Y-151192488D01*
X113569676Y-151177435D01*
X113554435Y-151167640D01*
X113483892Y-151114771D01*
X113483890Y-151114770D01*
X113476705Y-151109385D01*
X113340316Y-151058255D01*
X113278134Y-151051500D01*
X112581866Y-151051500D01*
X112519684Y-151058255D01*
X112383295Y-151109385D01*
X112266739Y-151196739D01*
X112179385Y-151313295D01*
X112128255Y-151449684D01*
X112121500Y-151511866D01*
X112121500Y-151593629D01*
X112101498Y-151661750D01*
X112084595Y-151682724D01*
X111765609Y-152001710D01*
X111751197Y-152014096D01*
X111739602Y-152022629D01*
X111739597Y-152022634D01*
X111733702Y-152026972D01*
X111728963Y-152032550D01*
X111728960Y-152032553D01*
X111699485Y-152067248D01*
X111692555Y-152074764D01*
X111686860Y-152080459D01*
X111684580Y-152083341D01*
X111669239Y-152102731D01*
X111666448Y-152106135D01*
X111623929Y-152156183D01*
X111619187Y-152161765D01*
X111615859Y-152168281D01*
X111612492Y-152173330D01*
X111609325Y-152178459D01*
X111604786Y-152184196D01*
X111573865Y-152250355D01*
X111571962Y-152254249D01*
X111538751Y-152319288D01*
X111537012Y-152326396D01*
X111534913Y-152332039D01*
X111532996Y-152337802D01*
X111529898Y-152344430D01*
X111528408Y-152351592D01*
X111528408Y-152351593D01*
X111515034Y-152415892D01*
X111514064Y-152420176D01*
X111496712Y-152491090D01*
X111496020Y-152502244D01*
X111495984Y-152502242D01*
X111495745Y-152506235D01*
X111495371Y-152510427D01*
X111493880Y-152517595D01*
X111494078Y-152524912D01*
X111495974Y-152595001D01*
X111496020Y-152598408D01*
X111496020Y-152940020D01*
X111476018Y-153008141D01*
X111422362Y-153054634D01*
X111370020Y-153066020D01*
X111179550Y-153066020D01*
X111111429Y-153046018D01*
X111074183Y-153009113D01*
X111073546Y-153008141D01*
X111072808Y-153007015D01*
X111070471Y-153003311D01*
X111035509Y-152945695D01*
X111035509Y-152945694D01*
X111032595Y-152940893D01*
X111025197Y-152932516D01*
X111025224Y-152932492D01*
X111022571Y-152929500D01*
X111019868Y-152926267D01*
X111015856Y-152920148D01*
X110959617Y-152866872D01*
X110957175Y-152864494D01*
X109450125Y-151357444D01*
X109419387Y-151307285D01*
X109379431Y-151184312D01*
X109364527Y-151138444D01*
X109269040Y-150973056D01*
X109141253Y-150831134D01*
X108986752Y-150718882D01*
X108980724Y-150716198D01*
X108980722Y-150716197D01*
X108818319Y-150643891D01*
X108818318Y-150643891D01*
X108812288Y-150641206D01*
X108718887Y-150621353D01*
X108631944Y-150602872D01*
X108631939Y-150602872D01*
X108625487Y-150601500D01*
X108434513Y-150601500D01*
X108428061Y-150602872D01*
X108428056Y-150602872D01*
X108341113Y-150621353D01*
X108247712Y-150641206D01*
X108241682Y-150643891D01*
X108241681Y-150643891D01*
X108079278Y-150716197D01*
X108079276Y-150716198D01*
X108073248Y-150718882D01*
X107918747Y-150831134D01*
X107790960Y-150973056D01*
X107695473Y-151138444D01*
X107636458Y-151320072D01*
X107635768Y-151326633D01*
X107635768Y-151326635D01*
X107632530Y-151357444D01*
X107616496Y-151510000D01*
X107617186Y-151516565D01*
X107626190Y-151602229D01*
X107636458Y-151699928D01*
X107695473Y-151881556D01*
X107790960Y-152046944D01*
X107795378Y-152051851D01*
X107795379Y-152051852D01*
X107821137Y-152080459D01*
X107918747Y-152188866D01*
X108073248Y-152301118D01*
X108079276Y-152303802D01*
X108079278Y-152303803D01*
X108186617Y-152351593D01*
X108247712Y-152378794D01*
X108254167Y-152380166D01*
X108254176Y-152380169D01*
X108310772Y-152392199D01*
X108373669Y-152426350D01*
X109538224Y-153590905D01*
X109572250Y-153653217D01*
X109567185Y-153724032D01*
X109538224Y-153769095D01*
X107421089Y-155886230D01*
X107406677Y-155898616D01*
X107395082Y-155907149D01*
X107395077Y-155907154D01*
X107389182Y-155911492D01*
X107384443Y-155917070D01*
X107384440Y-155917073D01*
X107354965Y-155951768D01*
X107348035Y-155959284D01*
X107342340Y-155964979D01*
X107340060Y-155967861D01*
X107324719Y-155987251D01*
X107321928Y-155990655D01*
X107286188Y-156032724D01*
X107274667Y-156046285D01*
X107271339Y-156052801D01*
X107267972Y-156057850D01*
X107264805Y-156062979D01*
X107260266Y-156068716D01*
X107229345Y-156134875D01*
X107227442Y-156138769D01*
X107194231Y-156203808D01*
X107192492Y-156210916D01*
X107190393Y-156216559D01*
X107188476Y-156222322D01*
X107185378Y-156228950D01*
X107183888Y-156236112D01*
X107183888Y-156236113D01*
X107170514Y-156300412D01*
X107169544Y-156304696D01*
X107152192Y-156375610D01*
X107151500Y-156386764D01*
X107151464Y-156386762D01*
X107151225Y-156390755D01*
X107150851Y-156394947D01*
X107149360Y-156402115D01*
X107149558Y-156409432D01*
X107151454Y-156479521D01*
X107151500Y-156482928D01*
X107151500Y-166293908D01*
X107150067Y-166312858D01*
X107146801Y-166334327D01*
X107147394Y-166341619D01*
X107147394Y-166341622D01*
X107151085Y-166386996D01*
X107151500Y-166397211D01*
X107151500Y-166405271D01*
X107151925Y-166408915D01*
X107154789Y-166433485D01*
X107155222Y-166437860D01*
X107159549Y-166491050D01*
X107161140Y-166510615D01*
X107163396Y-166517579D01*
X107164587Y-166523538D01*
X107165971Y-166529393D01*
X107166818Y-166536659D01*
X107191735Y-166605305D01*
X107193152Y-166609433D01*
X107215649Y-166678877D01*
X107219445Y-166685132D01*
X107221951Y-166690606D01*
X107224670Y-166696036D01*
X107227167Y-166702915D01*
X107231180Y-166709035D01*
X107231180Y-166709036D01*
X107267186Y-166763954D01*
X107269523Y-166767658D01*
X107307405Y-166830085D01*
X107311121Y-166834293D01*
X107311122Y-166834294D01*
X107314803Y-166838462D01*
X107314776Y-166838486D01*
X107317429Y-166841478D01*
X107320132Y-166844711D01*
X107324144Y-166850830D01*
X107329456Y-166855862D01*
X107380383Y-166904106D01*
X107382825Y-166906484D01*
X107422551Y-166946210D01*
X107456577Y-167008522D01*
X107451512Y-167079337D01*
X107408965Y-167136173D01*
X107377685Y-167153287D01*
X107261948Y-167196675D01*
X107246351Y-167205214D01*
X107144276Y-167281715D01*
X107131715Y-167294276D01*
X107055214Y-167396351D01*
X107046676Y-167411946D01*
X107001522Y-167532394D01*
X106997895Y-167547649D01*
X106992369Y-167598514D01*
X106992000Y-167605327D01*
X106992001Y-167957202D01*
X106971999Y-168025322D01*
X106918344Y-168071815D01*
X106848070Y-168081920D01*
X106783489Y-168052427D01*
X106749368Y-168004876D01*
X106708926Y-167905937D01*
X106706840Y-167900833D01*
X106648657Y-167808672D01*
X106592586Y-167719858D01*
X106592585Y-167719856D01*
X106589640Y-167715192D01*
X106514975Y-167633131D01*
X106445603Y-167556887D01*
X106445599Y-167556883D01*
X106441891Y-167552808D01*
X106268112Y-167418647D01*
X106166644Y-167365520D01*
X106078514Y-167319376D01*
X106078510Y-167319374D01*
X106073618Y-167316813D01*
X106068354Y-167315143D01*
X106068352Y-167315142D01*
X105869618Y-167252088D01*
X105869616Y-167252088D01*
X105864357Y-167250419D01*
X105755543Y-167235959D01*
X105652201Y-167222225D01*
X105652199Y-167222225D01*
X105646729Y-167221498D01*
X105641217Y-167221735D01*
X105641216Y-167221735D01*
X105573287Y-167224657D01*
X105427391Y-167230932D01*
X105422002Y-167232126D01*
X105421997Y-167232127D01*
X105331930Y-167252088D01*
X105213051Y-167278434D01*
X105010263Y-167362551D01*
X104825232Y-167480710D01*
X104821171Y-167484444D01*
X104667679Y-167625560D01*
X104667675Y-167625564D01*
X104663615Y-167629297D01*
X104660266Y-167633682D01*
X104660263Y-167633685D01*
X104594593Y-167719664D01*
X104530355Y-167803768D01*
X104527822Y-167808667D01*
X104527819Y-167808672D01*
X104482620Y-167896098D01*
X104429529Y-167998787D01*
X104427889Y-168004051D01*
X104427888Y-168004053D01*
X104403626Y-168081920D01*
X104364220Y-168208389D01*
X104336425Y-168426164D01*
X104339645Y-168492957D01*
X104346725Y-168639841D01*
X104346995Y-168645450D01*
X104348218Y-168650835D01*
X104348218Y-168650837D01*
X104360025Y-168702835D01*
X104395606Y-168859542D01*
X104480771Y-169061891D01*
X104483761Y-169066520D01*
X104483763Y-169066524D01*
X104526621Y-169132878D01*
X104599886Y-169246308D01*
X104749308Y-169407154D01*
X104753699Y-169410472D01*
X104753709Y-169410481D01*
X104887331Y-169511448D01*
X104929622Y-169568474D01*
X104934369Y-169639312D01*
X104900064Y-169701471D01*
X104837600Y-169735216D01*
X104815647Y-169736949D01*
X104815685Y-169737730D01*
X104809319Y-169738042D01*
X104802936Y-169737707D01*
X104647587Y-169761201D01*
X104616715Y-169765870D01*
X104616714Y-169765870D01*
X104610401Y-169766825D01*
X104604415Y-169769028D01*
X104604409Y-169769029D01*
X104433640Y-169831860D01*
X104433635Y-169831862D01*
X104427654Y-169834063D01*
X104262160Y-169936674D01*
X104257527Y-169941055D01*
X104257526Y-169941056D01*
X104125315Y-170066081D01*
X104120678Y-170070466D01*
X104008989Y-170229975D01*
X103931655Y-170408684D01*
X103930350Y-170414931D01*
X103930349Y-170414934D01*
X103911268Y-170506273D01*
X103891835Y-170599293D01*
X103891500Y-170605685D01*
X103891500Y-171348663D01*
X103906235Y-171493727D01*
X103908144Y-171499818D01*
X103962556Y-171673451D01*
X103962558Y-171673456D01*
X103964465Y-171679541D01*
X104058870Y-171849850D01*
X104063019Y-171854691D01*
X104063022Y-171854695D01*
X104122684Y-171924303D01*
X104185591Y-171997698D01*
X104339453Y-172117046D01*
X104345176Y-172119862D01*
X104345179Y-172119864D01*
X104508444Y-172200200D01*
X104514171Y-172203018D01*
X104520349Y-172204627D01*
X104520351Y-172204628D01*
X104696425Y-172250492D01*
X104696428Y-172250492D01*
X104702607Y-172252102D01*
X104872095Y-172260984D01*
X104939075Y-172284523D01*
X104982696Y-172340539D01*
X104991500Y-172386811D01*
X104991500Y-172614813D01*
X104971498Y-172682934D01*
X104917842Y-172729427D01*
X104858906Y-172740640D01*
X104809318Y-172738041D01*
X104809313Y-172738041D01*
X104802936Y-172737707D01*
X104647587Y-172761201D01*
X104616715Y-172765870D01*
X104616714Y-172765870D01*
X104610401Y-172766825D01*
X104604415Y-172769028D01*
X104604409Y-172769029D01*
X104433640Y-172831860D01*
X104433635Y-172831862D01*
X104427654Y-172834063D01*
X104262160Y-172936674D01*
X104257527Y-172941055D01*
X104257526Y-172941056D01*
X104125315Y-173066081D01*
X104120678Y-173070466D01*
X104008989Y-173229975D01*
X103931655Y-173408684D01*
X103930350Y-173414931D01*
X103930349Y-173414934D01*
X103911268Y-173506273D01*
X103891835Y-173599293D01*
X103891500Y-173605685D01*
X103891500Y-174348663D01*
X103891917Y-174352765D01*
X103891880Y-174352963D01*
X103891984Y-174355022D01*
X103891491Y-174355047D01*
X103878903Y-174422557D01*
X103830222Y-174474235D01*
X103766562Y-174491500D01*
X103724215Y-174491500D01*
X103656094Y-174471498D01*
X103609601Y-174417842D01*
X103598840Y-174378037D01*
X100710408Y-145493724D01*
X105636309Y-145493724D01*
X105637130Y-145500000D01*
X105636728Y-145500000D01*
X105637064Y-145507697D01*
X105653810Y-145891235D01*
X105655805Y-145936935D01*
X105712891Y-146370546D01*
X105807551Y-146797530D01*
X105808379Y-146800155D01*
X105808380Y-146800160D01*
X105935244Y-147202520D01*
X105939065Y-147214640D01*
X106106433Y-147618700D01*
X106308379Y-148006636D01*
X106543368Y-148375495D01*
X106545032Y-148377663D01*
X106545040Y-148377675D01*
X106807929Y-148720277D01*
X106809611Y-148722469D01*
X106811469Y-148724497D01*
X106811476Y-148724505D01*
X106960841Y-148887508D01*
X107105081Y-149044919D01*
X107107101Y-149046770D01*
X107425495Y-149338524D01*
X107425503Y-149338531D01*
X107427531Y-149340389D01*
X107429723Y-149342071D01*
X107772325Y-149604960D01*
X107772337Y-149604968D01*
X107774505Y-149606632D01*
X108143364Y-149841621D01*
X108531300Y-150043567D01*
X108935360Y-150210935D01*
X108937980Y-150211761D01*
X108937988Y-150211764D01*
X109349840Y-150341620D01*
X109349845Y-150341621D01*
X109352470Y-150342449D01*
X109779454Y-150437109D01*
X109782173Y-150437467D01*
X109782179Y-150437468D01*
X109944621Y-150458854D01*
X110213065Y-150494195D01*
X110215814Y-150494315D01*
X110215825Y-150494316D01*
X110647252Y-150513152D01*
X110650000Y-150513272D01*
X110652748Y-150513152D01*
X111084175Y-150494316D01*
X111084186Y-150494315D01*
X111086935Y-150494195D01*
X111355379Y-150458854D01*
X111517821Y-150437468D01*
X111517827Y-150437467D01*
X111520546Y-150437109D01*
X111947530Y-150342449D01*
X111950155Y-150341621D01*
X111950160Y-150341620D01*
X112362012Y-150211764D01*
X112362020Y-150211761D01*
X112364640Y-150210935D01*
X112768700Y-150043567D01*
X113156636Y-149841621D01*
X113525495Y-149606632D01*
X113527663Y-149604968D01*
X113527675Y-149604960D01*
X113870277Y-149342071D01*
X113872469Y-149340389D01*
X113874497Y-149338531D01*
X113874505Y-149338524D01*
X114192899Y-149046770D01*
X114194919Y-149044919D01*
X114339159Y-148887508D01*
X114488524Y-148724505D01*
X114488531Y-148724497D01*
X114490389Y-148722469D01*
X114492071Y-148720277D01*
X114754960Y-148377675D01*
X114754968Y-148377663D01*
X114756632Y-148375495D01*
X114991621Y-148006636D01*
X115193567Y-147618700D01*
X115360935Y-147214640D01*
X115364757Y-147202520D01*
X115491620Y-146800160D01*
X115491621Y-146800155D01*
X115492449Y-146797530D01*
X115587109Y-146370546D01*
X115644195Y-145936935D01*
X115646191Y-145891235D01*
X115662147Y-145525763D01*
X115662531Y-145520004D01*
X115662770Y-145517344D01*
X115663576Y-145512552D01*
X115663729Y-145500000D01*
X115659773Y-145472376D01*
X115658500Y-145454514D01*
X115658500Y-140553250D01*
X115660246Y-140532345D01*
X115662770Y-140517344D01*
X115662770Y-140517341D01*
X115663576Y-140512552D01*
X115663729Y-140500000D01*
X115663081Y-140495474D01*
X115663049Y-140494879D01*
X115644316Y-140065825D01*
X115644315Y-140065814D01*
X115644195Y-140063065D01*
X115598496Y-139715948D01*
X115587468Y-139632179D01*
X115587467Y-139632173D01*
X115587109Y-139629454D01*
X115492449Y-139202470D01*
X115360935Y-138785360D01*
X115193567Y-138381300D01*
X114991621Y-137993364D01*
X114756632Y-137624505D01*
X114754968Y-137622337D01*
X114754960Y-137622325D01*
X114492071Y-137279723D01*
X114490389Y-137277531D01*
X114488531Y-137275503D01*
X114488524Y-137275495D01*
X114196770Y-136957101D01*
X114194919Y-136955081D01*
X114192899Y-136953230D01*
X113874505Y-136661476D01*
X113874497Y-136661469D01*
X113872469Y-136659611D01*
X113775490Y-136585196D01*
X113527675Y-136395040D01*
X113527663Y-136395032D01*
X113525495Y-136393368D01*
X113156636Y-136158379D01*
X112768700Y-135956433D01*
X112364640Y-135789065D01*
X112362020Y-135788239D01*
X112362012Y-135788236D01*
X111950160Y-135658380D01*
X111950155Y-135658379D01*
X111947530Y-135657551D01*
X111520546Y-135562891D01*
X111517827Y-135562533D01*
X111517821Y-135562532D01*
X111355379Y-135541146D01*
X111086935Y-135505805D01*
X111084186Y-135505685D01*
X111084175Y-135505684D01*
X110652748Y-135486848D01*
X110650000Y-135486728D01*
X110647252Y-135486848D01*
X110215825Y-135505684D01*
X110215814Y-135505685D01*
X110213065Y-135505805D01*
X109944621Y-135541146D01*
X109782179Y-135562532D01*
X109782173Y-135562533D01*
X109779454Y-135562891D01*
X109352470Y-135657551D01*
X109349845Y-135658379D01*
X109349840Y-135658380D01*
X108937988Y-135788236D01*
X108937980Y-135788239D01*
X108935360Y-135789065D01*
X108531300Y-135956433D01*
X108143364Y-136158379D01*
X107774505Y-136393368D01*
X107772337Y-136395032D01*
X107772325Y-136395040D01*
X107524510Y-136585196D01*
X107427531Y-136659611D01*
X107425503Y-136661469D01*
X107425495Y-136661476D01*
X107107101Y-136953230D01*
X107105081Y-136955081D01*
X107103230Y-136957101D01*
X106811476Y-137275495D01*
X106811469Y-137275503D01*
X106809611Y-137277531D01*
X106807929Y-137279723D01*
X106545040Y-137622325D01*
X106545032Y-137622337D01*
X106543368Y-137624505D01*
X106308379Y-137993364D01*
X106106433Y-138381300D01*
X105939065Y-138785360D01*
X105807551Y-139202470D01*
X105712891Y-139629454D01*
X105712533Y-139632173D01*
X105712532Y-139632179D01*
X105701504Y-139715948D01*
X105655805Y-140063065D01*
X105655685Y-140065814D01*
X105655684Y-140065825D01*
X105642756Y-140361934D01*
X105637272Y-140487539D01*
X105636309Y-140493724D01*
X105636829Y-140497697D01*
X105636728Y-140500000D01*
X105637130Y-140500000D01*
X105637646Y-140503947D01*
X105637646Y-140503949D01*
X105640436Y-140525283D01*
X105641500Y-140541620D01*
X105641500Y-145450633D01*
X105640000Y-145470018D01*
X105636309Y-145493724D01*
X100710408Y-145493724D01*
X98659125Y-124980891D01*
X98658500Y-124968354D01*
X98658500Y-50149402D01*
X99919291Y-50149402D01*
X99919345Y-50153895D01*
X99919345Y-50153902D01*
X99921822Y-50358497D01*
X99921396Y-50370482D01*
X99920493Y-50381314D01*
X99921387Y-50393835D01*
X99922475Y-50398571D01*
X99922475Y-50398573D01*
X99927636Y-50421042D01*
X99930394Y-50438732D01*
X99947300Y-50640667D01*
X99963872Y-50838612D01*
X99963876Y-50859587D01*
X99963357Y-50865819D01*
X99962209Y-50879592D01*
X99963104Y-50892113D01*
X99964194Y-50896859D01*
X99964195Y-50896865D01*
X99965116Y-50900875D01*
X99966803Y-50909631D01*
X99974469Y-50958706D01*
X100001769Y-51133485D01*
X100003090Y-51137789D01*
X100003090Y-51137790D01*
X100066639Y-51344880D01*
X100073461Y-51367112D01*
X100177671Y-51588158D01*
X100180150Y-51591914D01*
X100180152Y-51591918D01*
X100250315Y-51698232D01*
X100312279Y-51792123D01*
X100474543Y-51974856D01*
X100661161Y-52132637D01*
X100664978Y-52135025D01*
X100864515Y-52259865D01*
X100864519Y-52259867D01*
X100868334Y-52262254D01*
X101091844Y-52361069D01*
X101096167Y-52362282D01*
X101096171Y-52362283D01*
X101322812Y-52425855D01*
X101322819Y-52425856D01*
X101327142Y-52427069D01*
X101331595Y-52427654D01*
X101331599Y-52427655D01*
X101564975Y-52458325D01*
X101564980Y-52458325D01*
X101569437Y-52458911D01*
X101696748Y-52457367D01*
X101809295Y-52456003D01*
X101809301Y-52456003D01*
X101813798Y-52455948D01*
X101818247Y-52455253D01*
X101818249Y-52455253D01*
X102050803Y-52418934D01*
X102050810Y-52418932D01*
X102055250Y-52418239D01*
X102288879Y-52346552D01*
X102509927Y-52242346D01*
X102713895Y-52107743D01*
X102776690Y-52051984D01*
X106277001Y-52051984D01*
X106277195Y-52056920D01*
X106279430Y-52085336D01*
X106281730Y-52097931D01*
X106324107Y-52243790D01*
X106330352Y-52258221D01*
X106406911Y-52387678D01*
X106416551Y-52400104D01*
X106522896Y-52506449D01*
X106535322Y-52516089D01*
X106664779Y-52592648D01*
X106679210Y-52598893D01*
X106813605Y-52637939D01*
X106827706Y-52637899D01*
X106831000Y-52630630D01*
X106831000Y-51635115D01*
X106826525Y-51619876D01*
X106825135Y-51618671D01*
X106817452Y-51617000D01*
X106295116Y-51617000D01*
X106279877Y-51621475D01*
X106278672Y-51622865D01*
X106277001Y-51630548D01*
X106277001Y-52051984D01*
X102776690Y-52051984D01*
X102896632Y-51945482D01*
X103054417Y-51758868D01*
X103064439Y-51742851D01*
X103133553Y-51632387D01*
X103184038Y-51551698D01*
X103236206Y-51433706D01*
X103281035Y-51332311D01*
X103282857Y-51328190D01*
X103284093Y-51323787D01*
X103347647Y-51097224D01*
X103348862Y-51092893D01*
X103351065Y-51076138D01*
X103380123Y-50855058D01*
X103380123Y-50855055D01*
X103380709Y-50850598D01*
X103380554Y-50837750D01*
X103378178Y-50641503D01*
X103378604Y-50629512D01*
X103378731Y-50627989D01*
X103379507Y-50618686D01*
X103378613Y-50606165D01*
X103372363Y-50578953D01*
X103369606Y-50561265D01*
X103362988Y-50482210D01*
X103336128Y-50161388D01*
X103336124Y-50140413D01*
X103337387Y-50125262D01*
X103337387Y-50125256D01*
X103337791Y-50120408D01*
X103336896Y-50107887D01*
X103335805Y-50103135D01*
X103334884Y-50099125D01*
X103333197Y-50090369D01*
X103304571Y-49907107D01*
X103298231Y-49866515D01*
X103296910Y-49862210D01*
X103227858Y-49637185D01*
X103227856Y-49637180D01*
X103226539Y-49632888D01*
X103122329Y-49411842D01*
X102987721Y-49207877D01*
X102825457Y-49025144D01*
X102638839Y-48867363D01*
X102592971Y-48838666D01*
X102435485Y-48740135D01*
X102435481Y-48740133D01*
X102431666Y-48737746D01*
X102208156Y-48638931D01*
X102203833Y-48637718D01*
X102203829Y-48637717D01*
X101977188Y-48574145D01*
X101977181Y-48574144D01*
X101972858Y-48572931D01*
X101968405Y-48572346D01*
X101968401Y-48572345D01*
X101735025Y-48541675D01*
X101735020Y-48541675D01*
X101730563Y-48541089D01*
X101603252Y-48542633D01*
X101490705Y-48543997D01*
X101490699Y-48543997D01*
X101486202Y-48544052D01*
X101481753Y-48544747D01*
X101481751Y-48544747D01*
X101249197Y-48581066D01*
X101249190Y-48581068D01*
X101244750Y-48581761D01*
X101011121Y-48653448D01*
X100790073Y-48757654D01*
X100586105Y-48892257D01*
X100403368Y-49054518D01*
X100245583Y-49241132D01*
X100115962Y-49448302D01*
X100114143Y-49452416D01*
X100114141Y-49452420D01*
X100036148Y-49628825D01*
X100017143Y-49671810D01*
X100015929Y-49676139D01*
X100015926Y-49676147D01*
X99976085Y-49818176D01*
X99951138Y-49907107D01*
X99950553Y-49911559D01*
X99950552Y-49911563D01*
X99919878Y-50144935D01*
X99919291Y-50149402D01*
X98658500Y-50149402D01*
X98658500Y-39417095D01*
X100036001Y-39417095D01*
X100036338Y-39423614D01*
X100046257Y-39519206D01*
X100049149Y-39532600D01*
X100100588Y-39686784D01*
X100106761Y-39699962D01*
X100192063Y-39837807D01*
X100201099Y-39849208D01*
X100315829Y-39963739D01*
X100327240Y-39972751D01*
X100465243Y-40057816D01*
X100478424Y-40063963D01*
X100632710Y-40115138D01*
X100646086Y-40118005D01*
X100740438Y-40127672D01*
X100746854Y-40128000D01*
X101071885Y-40128000D01*
X101087124Y-40123525D01*
X101088329Y-40122135D01*
X101090000Y-40114452D01*
X101090000Y-38392115D01*
X101085525Y-38376876D01*
X101084135Y-38375671D01*
X101076452Y-38374000D01*
X100054116Y-38374000D01*
X100038877Y-38378475D01*
X100037672Y-38379865D01*
X100036001Y-38387548D01*
X100036001Y-39417095D01*
X98658500Y-39417095D01*
X98658500Y-37847885D01*
X100036000Y-37847885D01*
X100040475Y-37863124D01*
X100041865Y-37864329D01*
X100049548Y-37866000D01*
X101071885Y-37866000D01*
X101087124Y-37861525D01*
X101088329Y-37860135D01*
X101090000Y-37852452D01*
X101090000Y-36130116D01*
X101085525Y-36114877D01*
X101084135Y-36113672D01*
X101076452Y-36112001D01*
X100746905Y-36112001D01*
X100740386Y-36112338D01*
X100644794Y-36122257D01*
X100631400Y-36125149D01*
X100477216Y-36176588D01*
X100464038Y-36182761D01*
X100326193Y-36268063D01*
X100314792Y-36277099D01*
X100200261Y-36391829D01*
X100191249Y-36403240D01*
X100106184Y-36541243D01*
X100100037Y-36554424D01*
X100048862Y-36708710D01*
X100045995Y-36722086D01*
X100036328Y-36816438D01*
X100036000Y-36822855D01*
X100036000Y-37847885D01*
X98658500Y-37847885D01*
X98658500Y-35634500D01*
X98678502Y-35566379D01*
X98732158Y-35519886D01*
X98784500Y-35508500D01*
X122515500Y-35508500D01*
X122583621Y-35528502D01*
G37*
%TD.AperFunction*%
%TA.AperFunction,Conductor*%
G36*
X119108752Y-159358095D02*
G01*
X119165588Y-159400642D01*
X119190399Y-159467162D01*
X119190095Y-159488683D01*
X118378430Y-167605332D01*
X117701159Y-174378037D01*
X117674478Y-174443830D01*
X117616462Y-174484753D01*
X117575784Y-174491500D01*
X117534500Y-174491500D01*
X117466379Y-174471498D01*
X117419886Y-174417842D01*
X117408500Y-174365500D01*
X117408500Y-173651337D01*
X117393765Y-173506273D01*
X117376111Y-173449939D01*
X117337444Y-173326549D01*
X117337442Y-173326544D01*
X117335535Y-173320459D01*
X117241130Y-173150150D01*
X117236981Y-173145309D01*
X117236978Y-173145305D01*
X117118560Y-173007145D01*
X117114409Y-173002302D01*
X116960547Y-172882954D01*
X116954824Y-172880138D01*
X116954821Y-172880136D01*
X116791556Y-172799800D01*
X116785829Y-172796982D01*
X116779651Y-172795373D01*
X116779649Y-172795372D01*
X116603575Y-172749508D01*
X116603572Y-172749508D01*
X116597393Y-172747898D01*
X116427905Y-172739016D01*
X116360925Y-172715477D01*
X116317304Y-172659461D01*
X116308500Y-172613189D01*
X116308500Y-172385187D01*
X116328502Y-172317066D01*
X116382158Y-172270573D01*
X116441094Y-172259360D01*
X116490682Y-172261959D01*
X116490687Y-172261959D01*
X116497064Y-172262293D01*
X116652413Y-172238799D01*
X116683285Y-172234130D01*
X116683286Y-172234130D01*
X116689599Y-172233175D01*
X116695585Y-172230972D01*
X116695591Y-172230971D01*
X116866360Y-172168140D01*
X116866365Y-172168138D01*
X116872346Y-172165937D01*
X117037840Y-172063326D01*
X117112362Y-171992855D01*
X117174685Y-171933919D01*
X117179322Y-171929534D01*
X117291011Y-171770025D01*
X117368345Y-171591316D01*
X117387460Y-171499818D01*
X117407176Y-171405443D01*
X117407177Y-171405438D01*
X117408165Y-171400707D01*
X117408500Y-171394315D01*
X117408500Y-170651337D01*
X117393765Y-170506273D01*
X117376111Y-170449939D01*
X117337444Y-170326549D01*
X117337442Y-170326544D01*
X117335535Y-170320459D01*
X117241130Y-170150150D01*
X117236981Y-170145309D01*
X117236978Y-170145305D01*
X117118560Y-170007145D01*
X117114409Y-170002302D01*
X116960547Y-169882954D01*
X116954824Y-169880138D01*
X116954821Y-169880136D01*
X116791556Y-169799800D01*
X116785829Y-169796982D01*
X116779651Y-169795373D01*
X116779649Y-169795372D01*
X116603575Y-169749508D01*
X116603572Y-169749508D01*
X116597393Y-169747898D01*
X116477081Y-169741593D01*
X116410101Y-169718054D01*
X116366480Y-169662038D01*
X116360068Y-169591332D01*
X116392900Y-169528383D01*
X116407754Y-169515208D01*
X116546317Y-169410592D01*
X116546322Y-169410588D01*
X116550720Y-169407267D01*
X116700265Y-169246405D01*
X116729131Y-169201745D01*
X116816493Y-169066582D01*
X116816493Y-169066581D01*
X116819490Y-169061945D01*
X116904749Y-168859531D01*
X116926448Y-168764071D01*
X116952208Y-168650745D01*
X116952209Y-168650739D01*
X116953432Y-168645358D01*
X116964050Y-168425979D01*
X116962352Y-168412654D01*
X116941216Y-168246848D01*
X116936278Y-168208105D01*
X116870966Y-167998404D01*
X116770112Y-167803292D01*
X116636802Y-167628740D01*
X116475115Y-167480087D01*
X116470473Y-167477123D01*
X116470468Y-167477119D01*
X116352186Y-167401592D01*
X116289999Y-167361883D01*
X116087117Y-167277745D01*
X116081729Y-167276551D01*
X116081724Y-167276550D01*
X115878069Y-167231440D01*
X115878068Y-167231440D01*
X115872678Y-167230246D01*
X115758312Y-167225344D01*
X115658760Y-167221077D01*
X115658755Y-167221077D01*
X115653243Y-167220841D01*
X115647773Y-167221569D01*
X115441002Y-167249088D01*
X115440998Y-167249089D01*
X115435527Y-167249817D01*
X115430265Y-167251488D01*
X115430260Y-167251489D01*
X115295512Y-167294276D01*
X115226190Y-167316288D01*
X115031639Y-167418219D01*
X115027268Y-167421596D01*
X115027266Y-167421597D01*
X114874406Y-167539684D01*
X114857826Y-167552492D01*
X114710069Y-167714998D01*
X114592890Y-167900765D01*
X114590805Y-167905872D01*
X114590801Y-167905880D01*
X114550653Y-168004224D01*
X114506388Y-168059732D01*
X114439140Y-168082496D01*
X114370260Y-168065290D01*
X114321617Y-168013575D01*
X114308000Y-167956601D01*
X114307999Y-167605332D01*
X114307629Y-167598510D01*
X114302105Y-167547648D01*
X114298479Y-167532396D01*
X114253324Y-167411946D01*
X114244786Y-167396351D01*
X114168285Y-167294276D01*
X114155724Y-167281715D01*
X114053649Y-167205214D01*
X114038054Y-167196676D01*
X113917606Y-167151522D01*
X113902351Y-167147895D01*
X113851486Y-167142369D01*
X113844672Y-167142000D01*
X113554871Y-167142000D01*
X113486750Y-167121998D01*
X113440257Y-167068342D01*
X113430153Y-166998068D01*
X113459647Y-166933488D01*
X113465776Y-166926905D01*
X113558911Y-166833770D01*
X113573323Y-166821384D01*
X113584918Y-166812851D01*
X113584923Y-166812846D01*
X113590818Y-166808508D01*
X113595557Y-166802930D01*
X113595560Y-166802927D01*
X113625035Y-166768232D01*
X113631965Y-166760716D01*
X113637660Y-166755021D01*
X113655281Y-166732749D01*
X113658072Y-166729345D01*
X113700591Y-166679297D01*
X113700592Y-166679295D01*
X113705333Y-166673715D01*
X113708661Y-166667199D01*
X113712028Y-166662150D01*
X113715195Y-166657021D01*
X113719734Y-166651284D01*
X113750655Y-166585125D01*
X113752561Y-166581225D01*
X113762975Y-166560831D01*
X113785769Y-166516192D01*
X113787508Y-166509084D01*
X113789607Y-166503441D01*
X113791524Y-166497678D01*
X113794622Y-166491050D01*
X113809487Y-166419583D01*
X113810457Y-166415299D01*
X113816134Y-166392098D01*
X113827808Y-166344390D01*
X113828500Y-166333236D01*
X113828536Y-166333238D01*
X113828775Y-166329245D01*
X113829149Y-166325053D01*
X113830640Y-166317885D01*
X113828546Y-166240479D01*
X113828500Y-166237072D01*
X113828500Y-161353128D01*
X113848502Y-161285007D01*
X113902158Y-161238514D01*
X113972432Y-161228410D01*
X113998729Y-161235146D01*
X114062282Y-161258971D01*
X114062288Y-161258973D01*
X114069684Y-161261745D01*
X114131866Y-161268500D01*
X115095500Y-161268500D01*
X115163621Y-161288502D01*
X115210114Y-161342158D01*
X115221500Y-161394500D01*
X115221500Y-162402268D01*
X115215333Y-162441205D01*
X115186458Y-162530072D01*
X115185768Y-162536635D01*
X115185767Y-162536642D01*
X115167186Y-162713435D01*
X115166496Y-162720000D01*
X115186458Y-162909928D01*
X115245473Y-163091556D01*
X115340960Y-163256944D01*
X115468747Y-163398866D01*
X115623248Y-163511118D01*
X115629276Y-163513802D01*
X115629278Y-163513803D01*
X115730546Y-163558890D01*
X115797712Y-163588794D01*
X115864560Y-163603003D01*
X115978056Y-163627128D01*
X115978061Y-163627128D01*
X115984513Y-163628500D01*
X116175487Y-163628500D01*
X116181939Y-163627128D01*
X116181944Y-163627128D01*
X116295440Y-163603003D01*
X116362288Y-163588794D01*
X116429454Y-163558890D01*
X116530722Y-163513803D01*
X116530724Y-163513802D01*
X116536752Y-163511118D01*
X116691253Y-163398866D01*
X116819040Y-163256944D01*
X116914527Y-163091556D01*
X116973542Y-162909928D01*
X116993504Y-162720000D01*
X116992814Y-162713435D01*
X116974232Y-162536635D01*
X116974232Y-162536633D01*
X116973542Y-162530072D01*
X116914527Y-162348444D01*
X116819040Y-162183056D01*
X116770864Y-162129551D01*
X116740146Y-162065544D01*
X116738500Y-162045241D01*
X116738500Y-161394500D01*
X116758502Y-161326379D01*
X116812158Y-161279886D01*
X116864500Y-161268500D01*
X117828134Y-161268500D01*
X117890316Y-161261745D01*
X118026705Y-161210615D01*
X118143261Y-161123261D01*
X118230615Y-161006705D01*
X118281745Y-160870316D01*
X118288500Y-160808134D01*
X118288500Y-160126371D01*
X118308502Y-160058250D01*
X118325405Y-160037276D01*
X118975625Y-159387056D01*
X119037937Y-159353030D01*
X119108752Y-159358095D01*
G37*
%TD.AperFunction*%
%TA.AperFunction,Conductor*%
G36*
X111956270Y-154603022D02*
G01*
X111977244Y-154619925D01*
X112274595Y-154917276D01*
X112308621Y-154979588D01*
X112311500Y-155006371D01*
X112311500Y-156840564D01*
X112291498Y-156908685D01*
X112237842Y-156955178D01*
X112167568Y-156965282D01*
X112102988Y-156935788D01*
X112076381Y-156903564D01*
X112024160Y-156813114D01*
X112012811Y-156798882D01*
X111872111Y-156622450D01*
X111872109Y-156622448D01*
X111869176Y-156618770D01*
X111803826Y-156558134D01*
X111690420Y-156452908D01*
X111690418Y-156452906D01*
X111686958Y-156449696D01*
X111683062Y-156447040D01*
X111683056Y-156447035D01*
X111485472Y-156312325D01*
X111485470Y-156312324D01*
X111481576Y-156309669D01*
X111369597Y-156255743D01*
X111261866Y-156203862D01*
X111261864Y-156203861D01*
X111257617Y-156201816D01*
X111020086Y-156128548D01*
X111015436Y-156127847D01*
X111015431Y-156127846D01*
X110910527Y-156112035D01*
X110774287Y-156091500D01*
X110525713Y-156091500D01*
X110389473Y-156112035D01*
X110284569Y-156127846D01*
X110284564Y-156127847D01*
X110279914Y-156128548D01*
X110246759Y-156138775D01*
X110046891Y-156200425D01*
X110046885Y-156200427D01*
X110042383Y-156201816D01*
X109986039Y-156228950D01*
X109822677Y-156307621D01*
X109822674Y-156307623D01*
X109818425Y-156309669D01*
X109613042Y-156449696D01*
X109609582Y-156452906D01*
X109609580Y-156452908D01*
X109496174Y-156558134D01*
X109430824Y-156618770D01*
X109427891Y-156622448D01*
X109427889Y-156622450D01*
X109287190Y-156798882D01*
X109275840Y-156813114D01*
X109273487Y-156817190D01*
X109273484Y-156817194D01*
X109241114Y-156873261D01*
X109151553Y-157028386D01*
X109060738Y-157259778D01*
X109005425Y-157502120D01*
X109005073Y-157506820D01*
X109005072Y-157506825D01*
X108988632Y-157726215D01*
X108987764Y-157733753D01*
X108987835Y-157733927D01*
X108986309Y-157743724D01*
X108986951Y-157748636D01*
X108986849Y-157750000D01*
X108987130Y-157750000D01*
X108988325Y-157759139D01*
X108988325Y-157759140D01*
X108990436Y-157775283D01*
X108991500Y-157791620D01*
X108991500Y-158200633D01*
X108990000Y-158220018D01*
X108987690Y-158234851D01*
X108987690Y-158234855D01*
X108986309Y-158243724D01*
X108987130Y-158250000D01*
X108986849Y-158250000D01*
X109005425Y-158497880D01*
X109006475Y-158502479D01*
X109006475Y-158502481D01*
X109054889Y-158714595D01*
X109060738Y-158740222D01*
X109151553Y-158971614D01*
X109153913Y-158975701D01*
X109259992Y-159159436D01*
X109275840Y-159186886D01*
X109430824Y-159381230D01*
X109613042Y-159550304D01*
X109818425Y-159690331D01*
X109822674Y-159692377D01*
X109822677Y-159692379D01*
X109943719Y-159750670D01*
X110042383Y-159798184D01*
X110046885Y-159799573D01*
X110046891Y-159799575D01*
X110182306Y-159841344D01*
X110279914Y-159871452D01*
X110284564Y-159872153D01*
X110284569Y-159872154D01*
X110389473Y-159887965D01*
X110525713Y-159908500D01*
X110774287Y-159908500D01*
X110910527Y-159887965D01*
X111015431Y-159872154D01*
X111015436Y-159872153D01*
X111020086Y-159871452D01*
X111257617Y-159798184D01*
X111481576Y-159690331D01*
X111485478Y-159687671D01*
X111683056Y-159552965D01*
X111683062Y-159552960D01*
X111686958Y-159550304D01*
X111869176Y-159381230D01*
X112024160Y-159186886D01*
X112076381Y-159096436D01*
X112127763Y-159047443D01*
X112197477Y-159034007D01*
X112263388Y-159060393D01*
X112304570Y-159118225D01*
X112311500Y-159159436D01*
X112311500Y-161962973D01*
X112291498Y-162031094D01*
X112237842Y-162077587D01*
X112167568Y-162087691D01*
X112102988Y-162058197D01*
X112096482Y-162052146D01*
X112037871Y-161993637D01*
X112026460Y-161984625D01*
X111890937Y-161901088D01*
X111877759Y-161894944D01*
X111726234Y-161844685D01*
X111712868Y-161841819D01*
X111620230Y-161832328D01*
X111613815Y-161832000D01*
X111602115Y-161832000D01*
X111586876Y-161836475D01*
X111585671Y-161837865D01*
X111584000Y-161845548D01*
X111584000Y-162955500D01*
X111563998Y-163023621D01*
X111510342Y-163070114D01*
X111458000Y-163081500D01*
X110831115Y-163081500D01*
X110814441Y-163086396D01*
X110778943Y-163091500D01*
X109662000Y-163091500D01*
X109593879Y-163071498D01*
X109547386Y-163017842D01*
X109536000Y-162965500D01*
X109536000Y-162565385D01*
X110044000Y-162565385D01*
X110048475Y-162580624D01*
X110049865Y-162581829D01*
X110057548Y-162583500D01*
X110288885Y-162583500D01*
X110305559Y-162578604D01*
X110341057Y-162573500D01*
X111057885Y-162573500D01*
X111073124Y-162569025D01*
X111074329Y-162567635D01*
X111076000Y-162559952D01*
X111076000Y-161850115D01*
X111071525Y-161834876D01*
X111070135Y-161833671D01*
X111062452Y-161832000D01*
X111046234Y-161832000D01*
X111039718Y-161832337D01*
X110945868Y-161842075D01*
X110932472Y-161844968D01*
X110781047Y-161895488D01*
X110767885Y-161901653D01*
X110632508Y-161985426D01*
X110631292Y-161986390D01*
X110630305Y-161986789D01*
X110626282Y-161989279D01*
X110625856Y-161988590D01*
X110565482Y-162013027D01*
X110495717Y-161999856D01*
X110486912Y-161994904D01*
X110350937Y-161911088D01*
X110337759Y-161904944D01*
X110186234Y-161854685D01*
X110172868Y-161851819D01*
X110080230Y-161842328D01*
X110073815Y-161842000D01*
X110062115Y-161842000D01*
X110046876Y-161846475D01*
X110045671Y-161847865D01*
X110044000Y-161855548D01*
X110044000Y-162565385D01*
X109536000Y-162565385D01*
X109536000Y-161860115D01*
X109531525Y-161844876D01*
X109530135Y-161843671D01*
X109522452Y-161842000D01*
X109506234Y-161842000D01*
X109499718Y-161842337D01*
X109405868Y-161852075D01*
X109392472Y-161854968D01*
X109241047Y-161905488D01*
X109227885Y-161911653D01*
X109092508Y-161995426D01*
X109081110Y-162004460D01*
X108968637Y-162117129D01*
X108959625Y-162128540D01*
X108901760Y-162222415D01*
X108848988Y-162269908D01*
X108778916Y-162281332D01*
X108713793Y-162253058D01*
X108674293Y-162194064D01*
X108668500Y-162156299D01*
X108668500Y-156836371D01*
X108688502Y-156768250D01*
X108705405Y-156747276D01*
X110832756Y-154619925D01*
X110895068Y-154585899D01*
X110921851Y-154583020D01*
X111888149Y-154583020D01*
X111956270Y-154603022D01*
G37*
%TD.AperFunction*%
%TA.AperFunction,Conductor*%
G36*
X116511314Y-122245052D02*
G01*
X116547740Y-122270421D01*
X117004595Y-122727276D01*
X117038621Y-122789588D01*
X117041500Y-122816371D01*
X117041500Y-123358134D01*
X117048255Y-123420316D01*
X117099385Y-123556705D01*
X117104770Y-123563890D01*
X117104771Y-123563892D01*
X117157640Y-123634435D01*
X117182488Y-123700942D01*
X117167435Y-123770324D01*
X117157640Y-123785565D01*
X117108225Y-123851500D01*
X117099385Y-123863295D01*
X117048255Y-123999684D01*
X117041500Y-124061866D01*
X117041500Y-124758134D01*
X117048255Y-124820316D01*
X117099385Y-124956705D01*
X117116327Y-124979311D01*
X117141174Y-125045815D01*
X117141500Y-125054874D01*
X117141500Y-126467129D01*
X117121498Y-126535250D01*
X117067842Y-126581743D01*
X116997568Y-126591847D01*
X116932988Y-126562353D01*
X116926405Y-126556224D01*
X115974525Y-125604344D01*
X115940499Y-125542032D01*
X115945564Y-125471217D01*
X115988111Y-125414381D01*
X115999460Y-125406809D01*
X116121807Y-125334453D01*
X116239453Y-125216807D01*
X116243489Y-125209983D01*
X116243491Y-125209980D01*
X116320108Y-125080427D01*
X116324145Y-125073601D01*
X116326589Y-125065191D01*
X116345414Y-125000393D01*
X116370562Y-124913831D01*
X116371510Y-124901798D01*
X116373307Y-124878958D01*
X116373307Y-124878950D01*
X116373500Y-124876502D01*
X116373500Y-124443498D01*
X116373307Y-124441042D01*
X116371067Y-124412579D01*
X116371066Y-124412574D01*
X116370562Y-124406169D01*
X116324145Y-124246399D01*
X116295889Y-124198621D01*
X116243491Y-124110020D01*
X116243489Y-124110017D01*
X116239453Y-124103193D01*
X116121807Y-123985547D01*
X116114983Y-123981511D01*
X116114980Y-123981509D01*
X115985427Y-123904892D01*
X115985428Y-123904892D01*
X115978601Y-123900855D01*
X115970990Y-123898644D01*
X115970988Y-123898643D01*
X115910896Y-123881185D01*
X115818831Y-123854438D01*
X115812426Y-123853934D01*
X115812421Y-123853933D01*
X115783958Y-123851693D01*
X115783950Y-123851693D01*
X115781502Y-123851500D01*
X114624500Y-123851500D01*
X114556379Y-123831498D01*
X114509886Y-123777842D01*
X114498500Y-123725500D01*
X114498500Y-123694000D01*
X114518502Y-123625879D01*
X114572158Y-123579386D01*
X114624500Y-123568000D01*
X114855385Y-123568000D01*
X114870624Y-123563525D01*
X114871829Y-123562135D01*
X114873500Y-123554452D01*
X114873500Y-123549884D01*
X115381500Y-123549884D01*
X115385975Y-123565123D01*
X115387365Y-123566328D01*
X115395048Y-123567999D01*
X115778984Y-123567999D01*
X115783920Y-123567805D01*
X115812336Y-123565570D01*
X115824931Y-123563270D01*
X115970790Y-123520893D01*
X115985221Y-123514648D01*
X116114678Y-123438089D01*
X116127104Y-123428449D01*
X116233449Y-123322104D01*
X116243089Y-123309678D01*
X116319648Y-123180221D01*
X116325893Y-123165790D01*
X116364939Y-123031395D01*
X116364899Y-123017294D01*
X116357630Y-123014000D01*
X115399615Y-123014000D01*
X115384376Y-123018475D01*
X115383171Y-123019865D01*
X115381500Y-123027548D01*
X115381500Y-123549884D01*
X114873500Y-123549884D01*
X114873500Y-122632000D01*
X114893502Y-122563879D01*
X114947158Y-122517386D01*
X114999500Y-122506000D01*
X116351878Y-122506000D01*
X116365409Y-122502027D01*
X116366544Y-122494129D01*
X116337648Y-122394670D01*
X116337851Y-122323673D01*
X116376404Y-122264057D01*
X116441069Y-122234748D01*
X116511314Y-122245052D01*
G37*
%TD.AperFunction*%
%TD*%
M02*
