M48
; DRILL file {KiCad (6.0.4-0)} date Friday, 23 December 2022 at 17.02.00
; FORMAT={-:-/ absolute / inch / decimal}
; #@! TF.CreationDate,2022-12-23T17:02:00+01:00
; #@! TF.GenerationSoftware,Kicad,Pcbnew,(6.0.4-0)
; #@! TF.FileFunction,Plated,1,2,PTH
FMAT,2
INCH
; #@! TA.AperFunction,Plated,PTH,ViaDrill
T1C0.0157
; #@! TA.AperFunction,Plated,PTH,ComponentDrill
T2C0.0197
; #@! TA.AperFunction,Plated,PTH,ComponentDrill
T3C0.0315
; #@! TA.AperFunction,Plated,PTH,ComponentDrill
T4C0.0394
; #@! TA.AperFunction,Plated,PTH,ComponentDrill
T5C0.0402
%
G90
G05
T1
X3.9106Y-4.3768
X3.963Y-5.0894
X3.974Y-1.8079
X3.9949Y-5.4398
X4.0697Y-2.0898
X4.0996Y-6.3846
X4.1323Y-1.4299
X4.1776Y-6.5382
X4.1815Y-4.2717
X4.1937Y-6.0421
X4.2024Y-3.7909
X4.237Y-1.8783
X4.2622Y-1.7583
X4.2728Y-5.965
X4.289Y-1.852
X4.3331Y-1.776
X4.3504Y-1.8508
X4.3622Y-6.3331
X4.3642Y-5.2791
X4.3917Y-6.1264
X4.4441Y-2.335
X4.4516Y-3.0657
X4.4559Y-3.9453
X4.4626Y-4.8154
X4.5181Y-6.5236
X4.5654Y-5.0461
X4.5701Y-6.4063
X4.5783Y-5.9736
X4.5846Y-4.589
X4.5894Y-5.6949
X4.5925Y-4.8689
X4.6063Y-1.4264
X4.6323Y-3.5567
X4.6854Y-6.2043
X4.7106Y-4.815
X4.7409Y-1.7673
X4.75Y-2.1709
T3
X3.9558Y-3.03
X3.9558Y-3.13
X3.9558Y-3.23
X3.9558Y-3.33
X3.9558Y-3.43
X3.9558Y-3.53
X3.9558Y-3.63
X3.9558Y-3.73
X3.9558Y-3.83
X3.9558Y-3.93
X3.9558Y-4.03
X3.9558Y-4.13
X4.7558Y-3.03
X4.7558Y-3.13
X4.7558Y-3.23
X4.7558Y-3.33
X4.7558Y-3.43
X4.7558Y-3.53
X4.7558Y-3.63
X4.7558Y-3.73
X4.7558Y-3.83
X4.7558Y-3.93
X4.7558Y-4.03
X4.7558Y-4.13
X4.7558Y-4.23
X4.7558Y-4.33
X4.7558Y-4.43
X4.7558Y-4.53
T4
X4.0835Y-4.9492
X4.0878Y-5.1949
X4.1819Y-4.9492
X4.1862Y-5.1949
T5
X4.355Y-2.485
X4.355Y-4.5319
T2
G00X4.128Y-6.7205
M15
G01X4.128Y-6.7441
M16
G05
G00X4.128Y-6.8386
M15
G01X4.128Y-6.8622
M16
G05
G00X4.5846Y-6.7205
M15
G01X4.5846Y-6.7441
M16
G05
G00X4.5846Y-6.8386
M15
G01X4.5846Y-6.8622
M16
G05
T0
M30
