%TF.GenerationSoftware,KiCad,Pcbnew,(6.0.4-0)*%
%TF.CreationDate,2022-12-23T17:02:00+01:00*%
%TF.ProjectId,ControllerBoard,436f6e74-726f-46c6-9c65-72426f617264,rev?*%
%TF.SameCoordinates,Original*%
%TF.FileFunction,Profile,NP*%
%FSLAX46Y46*%
G04 Gerber Fmt 4.6, Leading zero omitted, Abs format (unit mm)*
G04 Created by KiCad (PCBNEW (6.0.4-0)) date 2022-12-23 17:02:00*
%MOMM*%
%LPD*%
G01*
G04 APERTURE LIST*
%TA.AperFunction,Profile*%
%ADD10C,0.250000*%
%TD*%
%TA.AperFunction,Profile*%
%ADD11C,0.100000*%
%TD*%
%TA.AperFunction,Profile*%
%ADD12C,0.010000*%
%TD*%
G04 APERTURE END LIST*
D10*
X118475041Y-50150757D02*
X118433326Y-50649014D01*
X115150000Y-140500000D02*
X115150000Y-145500000D01*
X120866674Y-50350986D02*
X120824959Y-50849243D01*
D11*
X115800000Y-175000000D02*
X118150000Y-175000000D01*
X103150000Y-175000000D02*
X98150000Y-125000000D01*
D10*
X109500000Y-158250000D02*
G75*
G03*
X111800000Y-158250000I1150000J0D01*
G01*
D11*
X123150000Y-125000000D02*
X123150000Y-35000000D01*
D10*
X106150000Y-140500000D02*
X106150000Y-145500000D01*
D11*
X98150000Y-125000000D02*
X98150000Y-35000000D01*
D10*
X106150000Y-145500000D02*
G75*
G03*
X115150000Y-145500000I4500000J0D01*
G01*
X102824870Y-50150764D02*
G75*
G03*
X100433326Y-50350986I-1195770J-100136D01*
G01*
X102824959Y-50150757D02*
X102866674Y-50649014D01*
X100475130Y-50849236D02*
G75*
G03*
X102866674Y-50649014I1195770J100136D01*
G01*
D11*
X105500000Y-175000000D02*
X103150000Y-175000000D01*
X123150000Y-125000000D02*
X118150000Y-175000000D01*
D10*
X111800000Y-157750000D02*
G75*
G03*
X109500000Y-157750000I-1150000J0D01*
G01*
X109500000Y-157750000D02*
X109500000Y-158250000D01*
X115150000Y-140500000D02*
G75*
G03*
X106150000Y-140500000I-4500000J0D01*
G01*
X100433326Y-50350986D02*
X100475041Y-50849243D01*
D11*
X123150000Y-35000000D02*
X98150000Y-35000000D01*
D10*
X111800000Y-157750000D02*
X111800000Y-158250000D01*
X120866763Y-50350993D02*
G75*
G03*
X118475041Y-50150757I-1195863J100093D01*
G01*
X118433237Y-50649007D02*
G75*
G03*
X120824959Y-50849243I1195863J-100093D01*
G01*
D12*
%TO.C,J2*%
X106586000Y-168700000D02*
X114714000Y-168682000D01*
X115800000Y-175000000D02*
X115800000Y-169441620D01*
X105500000Y-169441620D02*
X105500000Y-175000000D01*
X106331999Y-168512501D02*
G75*
G03*
X105312500Y-169163510I-741189J36937D01*
G01*
X106332000Y-168512501D02*
G75*
G03*
X106586000Y-168700000I254003J78298D01*
G01*
X114714000Y-168682008D02*
G75*
G03*
X114968000Y-168512500I100J274908D01*
G01*
X105500000Y-169441620D02*
G75*
G03*
X105312500Y-169163510I-300004J0D01*
G01*
X115987490Y-169163486D02*
G75*
G03*
X115799990Y-169441620I112510J-278114D01*
G01*
X115987488Y-169163483D02*
G75*
G03*
X114968000Y-168512500I-278088J688283D01*
G01*
%TD*%
M02*
