%TF.GenerationSoftware,KiCad,Pcbnew,(6.0.4-0)*%
%TF.CreationDate,2022-12-23T17:02:00+01:00*%
%TF.ProjectId,ControllerBoard,436f6e74-726f-46c6-9c65-72426f617264,rev?*%
%TF.SameCoordinates,Original*%
%TF.FileFunction,Copper,L2,Bot*%
%TF.FilePolarity,Positive*%
%FSLAX46Y46*%
G04 Gerber Fmt 4.6, Leading zero omitted, Abs format (unit mm)*
G04 Created by KiCad (PCBNEW (6.0.4-0)) date 2022-12-23 17:02:00*
%MOMM*%
%LPD*%
G01*
G04 APERTURE LIST*
G04 Aperture macros list*
%AMRoundRect*
0 Rectangle with rounded corners*
0 $1 Rounding radius*
0 $2 $3 $4 $5 $6 $7 $8 $9 X,Y pos of 4 corners*
0 Add a 4 corners polygon primitive as box body*
4,1,4,$2,$3,$4,$5,$6,$7,$8,$9,$2,$3,0*
0 Add four circle primitives for the rounded corners*
1,1,$1+$1,$2,$3*
1,1,$1+$1,$4,$5*
1,1,$1+$1,$6,$7*
1,1,$1+$1,$8,$9*
0 Add four rect primitives between the rounded corners*
20,1,$1+$1,$2,$3,$4,$5,0*
20,1,$1+$1,$4,$5,$6,$7,0*
20,1,$1+$1,$6,$7,$8,$9,0*
20,1,$1+$1,$8,$9,$2,$3,0*%
G04 Aperture macros list end*
%TA.AperFunction,ComponentPad*%
%ADD10RoundRect,0.250000X-0.600000X-0.750000X0.600000X-0.750000X0.600000X0.750000X-0.600000X0.750000X0*%
%TD*%
%TA.AperFunction,ComponentPad*%
%ADD11O,1.700000X2.000000*%
%TD*%
%TA.AperFunction,ComponentPad*%
%ADD12R,1.600000X1.600000*%
%TD*%
%TA.AperFunction,ComponentPad*%
%ADD13C,1.600000*%
%TD*%
%TA.AperFunction,ComponentPad*%
%ADD14O,0.900000X1.500000*%
%TD*%
%TA.AperFunction,SMDPad,CuDef*%
%ADD15RoundRect,0.150000X-0.150000X-0.625000X0.150000X-0.625000X0.150000X0.625000X-0.150000X0.625000X0*%
%TD*%
%TA.AperFunction,SMDPad,CuDef*%
%ADD16RoundRect,0.250000X-0.350000X-0.650000X0.350000X-0.650000X0.350000X0.650000X-0.350000X0.650000X0*%
%TD*%
%TA.AperFunction,ComponentPad*%
%ADD17R,2.000000X2.000000*%
%TD*%
%TA.AperFunction,ComponentPad*%
%ADD18C,2.000000*%
%TD*%
%TA.AperFunction,ViaPad*%
%ADD19C,0.800000*%
%TD*%
%TA.AperFunction,Conductor*%
%ADD20C,0.500000*%
%TD*%
G04 APERTURE END LIST*
D10*
%TO.P,X1,1,1*%
%TO.N,Net-(JP1-Pad2)*%
X103830000Y-131950000D03*
D11*
%TO.P,X1,2,2*%
%TO.N,Net-(BT1-Pad1)*%
X106330000Y-131950000D03*
%TD*%
D12*
%TO.P,A1,1,~{RESET}*%
%TO.N,unconnected-(A1-Pad1)*%
X120796500Y-115062000D03*
D13*
%TO.P,A1,2,3V3*%
%TO.N,3.3V*%
X120796500Y-112522000D03*
%TO.P,A1,3,NC*%
%TO.N,unconnected-(A1-Pad3)*%
X120796500Y-109982000D03*
%TO.P,A1,4,GND*%
%TO.N,GND*%
X120796500Y-107442000D03*
%TO.P,A1,5,DAC2/A0*%
%TO.N,unconnected-(A1-Pad5)*%
X120796500Y-104902000D03*
%TO.P,A1,6,DAC1/A1*%
%TO.N,unconnected-(A1-Pad6)*%
X120796500Y-102362000D03*
%TO.P,A1,7,I34/A2*%
%TO.N,unconnected-(A1-Pad7)*%
X120796500Y-99822000D03*
%TO.P,A1,8,I39/A3*%
%TO.N,unconnected-(A1-Pad8)*%
X120796500Y-97282000D03*
%TO.P,A1,9,IO36/A4*%
%TO.N,unconnected-(A1-Pad9)*%
X120796500Y-94742000D03*
%TO.P,A1,10,IO4/A5*%
%TO.N,unconnected-(A1-Pad10)*%
X120796500Y-92202000D03*
%TO.P,A1,11,SCK/IO5*%
%TO.N,Net-(A1-Pad11)*%
X120796500Y-89662000D03*
%TO.P,A1,12,MOSI/IO18*%
%TO.N,Net-(A1-Pad12)*%
X120796500Y-87122000D03*
%TO.P,A1,13,MISO/IO19*%
%TO.N,unconnected-(A1-Pad13)*%
X120796500Y-84582000D03*
%TO.P,A1,14,RX/IO16*%
%TO.N,unconnected-(A1-Pad14)*%
X120796500Y-82042000D03*
%TO.P,A1,15,TX/IO17*%
%TO.N,unconnected-(A1-Pad15)*%
X120796500Y-79502000D03*
%TO.P,A1,16,IO21*%
%TO.N,unconnected-(A1-Pad16)*%
X120796500Y-76962000D03*
%TO.P,A1,17,SDA/IO23*%
%TO.N,Net-(A1-Pad17)*%
X100476500Y-76962000D03*
%TO.P,A1,18,SCL/IO22*%
%TO.N,Net-(A1-Pad18)*%
X100476500Y-79502000D03*
%TO.P,A1,19,A6/IO14*%
%TO.N,unconnected-(A1-Pad19)*%
X100476500Y-82042000D03*
%TO.P,A1,20,A7/IO32*%
%TO.N,Net-(A1-Pad20)*%
X100476500Y-84582000D03*
%TO.P,A1,21,A8/IO15*%
%TO.N,Net-(A1-Pad21)*%
X100476500Y-87122000D03*
%TO.P,A1,22,A9/IO33*%
%TO.N,Net-(A1-Pad22)*%
X100476500Y-89662000D03*
%TO.P,A1,23,A10/IO27*%
%TO.N,Net-(A1-Pad23)*%
X100476500Y-92202000D03*
%TO.P,A1,24,A11/IO12*%
%TO.N,KeepAlive*%
X100476500Y-94742000D03*
%TO.P,A1,25,A12/IO13*%
%TO.N,Trigger*%
X100476500Y-97282000D03*
%TO.P,A1,26,USB*%
%TO.N,USB_pwr*%
X100476500Y-99822000D03*
%TO.P,A1,27,EN*%
%TO.N,unconnected-(A1-Pad27)*%
X100476500Y-102362000D03*
%TO.P,A1,28,VBAT*%
%TO.N,power for the esp32*%
X100476500Y-104902000D03*
%TD*%
D10*
%TO.P,X2,1,1*%
%TO.N,power for the esp32*%
X103720000Y-125710000D03*
D11*
%TO.P,X2,2,2*%
%TO.N,Net-(BT1-Pad1)*%
X106220000Y-125710000D03*
%TD*%
D14*
%TO.P,J2,S1,SHIELD*%
%TO.N,Net-(J2-PadS1)*%
X104850000Y-174000000D03*
%TO.P,J2,S2,SHIELD*%
X116450000Y-174000000D03*
%TO.P,J2,S3,SHIELD*%
X104850000Y-171000000D03*
%TO.P,J2,S4,SHIELD*%
X116450000Y-171000000D03*
%TD*%
D15*
%TO.P,CONN2,1,GND*%
%TO.N,GND*%
X107974000Y-49371000D03*
%TO.P,CONN2,2,V+*%
%TO.N,3.3V*%
X108974000Y-49371000D03*
%TO.P,CONN2,3,SDA*%
%TO.N,Net-(A1-Pad17)*%
X109974000Y-49371000D03*
%TO.P,CONN2,4,SCL*%
%TO.N,Net-(A1-Pad18)*%
X110974000Y-49371000D03*
D16*
%TO.P,CONN2,MP*%
%TO.N,N/C*%
X106674000Y-45496000D03*
X112274000Y-45496000D03*
%TD*%
D17*
%TO.P,BT1,1,+*%
%TO.N,Net-(BT1-Pad1)*%
X110617000Y-63119000D03*
D18*
%TO.P,BT1,2,-*%
%TO.N,GND*%
X110617000Y-115109000D03*
%TD*%
D19*
%TO.N,3.3V*%
X107620000Y-47710000D03*
%TO.N,GND*%
X100660000Y-129270000D03*
X116570000Y-144650000D03*
X114760000Y-165700000D03*
X106110000Y-166070000D03*
X111550000Y-155610000D03*
X99330000Y-111170000D03*
X113180000Y-100210000D03*
X116450000Y-116560000D03*
X120420000Y-44890000D03*
X112880000Y-59310000D03*
X101470000Y-138170000D03*
X117000000Y-36230000D03*
X104130000Y-162170000D03*
X116650000Y-123670000D03*
X103370000Y-53080000D03*
X110850000Y-134090000D03*
X106740000Y-96290000D03*
X116290000Y-151730000D03*
X110800000Y-160860000D03*
X117660000Y-90340000D03*
X106520000Y-153470000D03*
X120650000Y-55140000D03*
X104960000Y-36320000D03*
X119650000Y-122300000D03*
X100940000Y-45920000D03*
X113070000Y-77870000D03*
%TO.N,Net-(A1-Pad18)*%
X110500000Y-47010000D03*
%TO.N,Net-(A1-Pad17)*%
X108940000Y-47040000D03*
%TO.N,Trigger*%
X119010000Y-157590000D03*
%TO.N,USB_pwr*%
X108530000Y-151510000D03*
%TO.N,Net-(A1-Pad11)*%
X110060000Y-45110000D03*
%TO.N,Net-(A1-Pad12)*%
X108260000Y-44660000D03*
%TO.N,power for the esp32*%
X115960000Y-128170000D03*
X113350000Y-122310000D03*
%TO.N,Net-(BT1-Pad1)*%
X106210000Y-108500000D03*
%TO.N,Net-(JP1-Pad2)*%
X116080000Y-162720000D03*
%TD*%
D20*
%TO.N,3.3V*%
X120796500Y-112522000D02*
X115800000Y-107525500D01*
X107935849Y-47710000D02*
X108974000Y-48748151D01*
X108974000Y-49993849D02*
X108974000Y-49371000D01*
X115800000Y-107525500D02*
X115800000Y-56819849D01*
X115800000Y-56819849D02*
X108974000Y-49993849D01*
X108974000Y-48748151D02*
X108974000Y-49371000D01*
X107620000Y-47710000D02*
X107935849Y-47710000D01*
%TO.N,Net-(A1-Pad18)*%
X110974000Y-49371000D02*
X110974000Y-47484000D01*
X110974000Y-47484000D02*
X110500000Y-47010000D01*
%TO.N,Net-(A1-Pad17)*%
X109974000Y-48074000D02*
X108940000Y-47040000D01*
X109974000Y-49371000D02*
X109974000Y-48074000D01*
%TO.N,Trigger*%
X119150000Y-157450000D02*
X119010000Y-157590000D01*
X100476500Y-97282000D02*
X112070000Y-108875500D01*
X112070000Y-112000000D02*
X112070000Y-128090000D01*
X112070000Y-108875500D02*
X112070000Y-112000000D01*
X119150000Y-135170000D02*
X119150000Y-157450000D01*
X112070000Y-128090000D02*
X119150000Y-135170000D01*
%TO.N,USB_pwr*%
X108610000Y-113950000D02*
X108610000Y-133840000D01*
X108610000Y-133840000D02*
X105180000Y-137270000D01*
X100476500Y-99822000D02*
X108610000Y-107955500D01*
X108610000Y-107955500D02*
X108610000Y-113950000D01*
X105180000Y-148160000D02*
X108530000Y-151510000D01*
X105180000Y-137270000D02*
X105180000Y-148160000D01*
%TO.N,Net-(A1-Pad11)*%
X114116480Y-44146480D02*
X116899511Y-46929511D01*
X110060000Y-45110000D02*
X111023520Y-44146480D01*
X116899511Y-85765011D02*
X120796500Y-89662000D01*
X116899511Y-46929511D02*
X116899511Y-85765011D01*
X111023520Y-44146480D02*
X114116480Y-44146480D01*
%TO.N,Net-(A1-Pad12)*%
X117599022Y-44819022D02*
X115640000Y-42860000D01*
X115640000Y-42860000D02*
X109380000Y-42860000D01*
X117599022Y-83924522D02*
X117599022Y-44819022D01*
X109380000Y-42860000D02*
X108260000Y-43980000D01*
X108260000Y-43980000D02*
X108260000Y-44660000D01*
X120796500Y-87122000D02*
X117599022Y-83924522D01*
%TO.N,power for the esp32*%
X113350000Y-122310000D02*
X113350000Y-125560000D01*
X113350000Y-125560000D02*
X115960000Y-128170000D01*
%TO.N,Net-(BT1-Pad1)*%
X106220000Y-125710000D02*
X106220000Y-108510000D01*
X106220000Y-108510000D02*
X106210000Y-108500000D01*
%TO.N,Net-(JP1-Pad2)*%
X103830000Y-156320000D02*
X103830000Y-131950000D01*
X116080000Y-162720000D02*
X110230000Y-162720000D01*
X110230000Y-162720000D02*
X103830000Y-156320000D01*
%TD*%
%TA.AperFunction,Conductor*%
%TO.N,GND*%
G36*
X122583621Y-35528502D02*
G01*
X122630114Y-35582158D01*
X122641500Y-35634500D01*
X122641500Y-124968348D01*
X122640875Y-124980885D01*
X120159875Y-149790884D01*
X120133194Y-149856677D01*
X120075178Y-149897600D01*
X120004247Y-149900661D01*
X119942922Y-149864889D01*
X119910672Y-149801640D01*
X119908500Y-149778347D01*
X119908500Y-135237070D01*
X119909933Y-135218120D01*
X119912099Y-135203885D01*
X119912099Y-135203881D01*
X119913199Y-135196651D01*
X119908915Y-135143982D01*
X119908500Y-135133767D01*
X119908500Y-135125707D01*
X119905211Y-135097493D01*
X119904778Y-135093118D01*
X119899454Y-135027661D01*
X119899453Y-135027658D01*
X119898860Y-135020363D01*
X119896604Y-135013399D01*
X119895413Y-135007440D01*
X119894029Y-135001585D01*
X119893182Y-134994319D01*
X119868265Y-134925673D01*
X119866848Y-134921545D01*
X119846607Y-134859064D01*
X119846606Y-134859062D01*
X119844351Y-134852101D01*
X119840555Y-134845846D01*
X119838049Y-134840372D01*
X119835330Y-134834942D01*
X119832833Y-134828063D01*
X119792814Y-134767024D01*
X119790467Y-134763305D01*
X119752595Y-134700893D01*
X119745197Y-134692516D01*
X119745224Y-134692492D01*
X119742571Y-134689500D01*
X119739868Y-134686267D01*
X119735856Y-134680148D01*
X119679617Y-134626872D01*
X119677175Y-134624494D01*
X112865405Y-127812724D01*
X112831379Y-127750412D01*
X112828500Y-127723629D01*
X112828500Y-126415371D01*
X112848502Y-126347250D01*
X112902158Y-126300757D01*
X112972432Y-126290653D01*
X113037012Y-126320147D01*
X113043595Y-126326276D01*
X115039875Y-128322556D01*
X115070613Y-128372714D01*
X115125473Y-128541556D01*
X115128776Y-128547278D01*
X115128777Y-128547279D01*
X115140456Y-128567508D01*
X115220960Y-128706944D01*
X115348747Y-128848866D01*
X115503248Y-128961118D01*
X115509276Y-128963802D01*
X115509278Y-128963803D01*
X115671681Y-129036109D01*
X115677712Y-129038794D01*
X115771113Y-129058647D01*
X115858056Y-129077128D01*
X115858061Y-129077128D01*
X115864513Y-129078500D01*
X116055487Y-129078500D01*
X116061939Y-129077128D01*
X116061944Y-129077128D01*
X116148887Y-129058647D01*
X116242288Y-129038794D01*
X116248319Y-129036109D01*
X116410722Y-128963803D01*
X116410724Y-128963802D01*
X116416752Y-128961118D01*
X116571253Y-128848866D01*
X116699040Y-128706944D01*
X116779544Y-128567508D01*
X116791223Y-128547279D01*
X116791224Y-128547278D01*
X116794527Y-128541556D01*
X116853542Y-128359928D01*
X116873504Y-128170000D01*
X116853542Y-127980072D01*
X116794527Y-127798444D01*
X116781465Y-127775819D01*
X116702341Y-127638774D01*
X116699040Y-127633056D01*
X116571253Y-127491134D01*
X116416752Y-127378882D01*
X116410724Y-127376198D01*
X116410722Y-127376197D01*
X116248319Y-127303891D01*
X116248318Y-127303891D01*
X116242288Y-127301206D01*
X116235833Y-127299834D01*
X116235824Y-127299831D01*
X116179228Y-127287801D01*
X116116331Y-127253650D01*
X114145405Y-125282724D01*
X114111379Y-125220412D01*
X114108500Y-125193629D01*
X114108500Y-122846999D01*
X114125381Y-122783999D01*
X114181223Y-122687279D01*
X114181224Y-122687278D01*
X114184527Y-122681556D01*
X114243542Y-122499928D01*
X114263504Y-122310000D01*
X114243542Y-122120072D01*
X114184527Y-121938444D01*
X114089040Y-121773056D01*
X113961253Y-121631134D01*
X113806752Y-121518882D01*
X113800724Y-121516198D01*
X113800722Y-121516197D01*
X113638319Y-121443891D01*
X113638318Y-121443891D01*
X113632288Y-121441206D01*
X113538888Y-121421353D01*
X113451944Y-121402872D01*
X113451939Y-121402872D01*
X113445487Y-121401500D01*
X113254513Y-121401500D01*
X113248061Y-121402872D01*
X113248056Y-121402872D01*
X113161112Y-121421353D01*
X113067712Y-121441206D01*
X113005748Y-121468794D01*
X112935382Y-121478228D01*
X112871085Y-121448122D01*
X112833272Y-121388033D01*
X112828500Y-121353687D01*
X112828500Y-112460940D01*
X114781793Y-112460940D01*
X114818442Y-112730232D01*
X114894493Y-112991150D01*
X115008274Y-113237960D01*
X115010837Y-113241869D01*
X115154720Y-113461328D01*
X115154724Y-113461333D01*
X115157286Y-113465241D01*
X115160403Y-113468733D01*
X115328161Y-113656690D01*
X115338256Y-113668001D01*
X115547207Y-113841784D01*
X115596120Y-113871465D01*
X115775554Y-113980349D01*
X115775559Y-113980351D01*
X115779551Y-113982774D01*
X116030182Y-114087872D01*
X116293594Y-114154770D01*
X116519322Y-114177500D01*
X116680991Y-114177500D01*
X116683316Y-114177327D01*
X116683322Y-114177327D01*
X116878375Y-114162832D01*
X116878379Y-114162831D01*
X116883027Y-114162486D01*
X117148101Y-114102506D01*
X117182773Y-114089023D01*
X117397044Y-114005698D01*
X117397046Y-114005697D01*
X117401397Y-114004005D01*
X117435379Y-113984583D01*
X117489141Y-113953855D01*
X117637351Y-113869146D01*
X117850780Y-113700892D01*
X118036996Y-113502939D01*
X118039662Y-113499096D01*
X118189244Y-113283474D01*
X118189247Y-113283469D01*
X118191906Y-113279636D01*
X118210531Y-113241869D01*
X118310044Y-113040077D01*
X118310045Y-113040074D01*
X118312109Y-113035889D01*
X118394964Y-112777052D01*
X118409061Y-112690490D01*
X118437898Y-112513424D01*
X118437898Y-112513421D01*
X118438649Y-112508811D01*
X118442207Y-112237060D01*
X118405558Y-111967768D01*
X118377131Y-111870238D01*
X118371856Y-111852143D01*
X118329507Y-111706850D01*
X118215726Y-111460040D01*
X118154199Y-111366195D01*
X118069280Y-111236672D01*
X118069276Y-111236667D01*
X118066714Y-111232759D01*
X117968962Y-111123237D01*
X117938524Y-111059096D01*
X117945967Y-111001326D01*
X117918507Y-111011568D01*
X117849133Y-110996477D01*
X117828949Y-110982763D01*
X117680388Y-110859206D01*
X117680389Y-110859206D01*
X117676793Y-110856216D01*
X117560621Y-110785721D01*
X117448446Y-110717651D01*
X117448441Y-110717649D01*
X117444449Y-110715226D01*
X117193818Y-110610128D01*
X116930406Y-110543230D01*
X116704678Y-110520500D01*
X116543009Y-110520500D01*
X116540684Y-110520673D01*
X116540678Y-110520673D01*
X116345625Y-110535168D01*
X116345621Y-110535169D01*
X116340973Y-110535514D01*
X116075899Y-110595494D01*
X116071547Y-110597186D01*
X116071545Y-110597187D01*
X115826956Y-110692302D01*
X115826954Y-110692303D01*
X115822603Y-110693995D01*
X115818549Y-110696312D01*
X115818547Y-110696313D01*
X115734859Y-110744145D01*
X115586649Y-110828854D01*
X115373220Y-110997108D01*
X115187004Y-111195061D01*
X115184338Y-111198904D01*
X115034756Y-111414526D01*
X115034753Y-111414531D01*
X115032094Y-111418364D01*
X115030028Y-111422553D01*
X115030027Y-111422555D01*
X114985601Y-111512643D01*
X114911891Y-111662111D01*
X114829036Y-111920948D01*
X114785351Y-112189189D01*
X114783980Y-112293913D01*
X114783127Y-112359087D01*
X114781793Y-112460940D01*
X112828500Y-112460940D01*
X112828500Y-108942570D01*
X112829933Y-108923620D01*
X112832099Y-108909385D01*
X112832099Y-108909381D01*
X112833199Y-108902151D01*
X112830711Y-108871556D01*
X112828915Y-108849482D01*
X112828500Y-108839267D01*
X112828500Y-108831207D01*
X112825209Y-108802980D01*
X112824778Y-108798621D01*
X112819453Y-108733160D01*
X112818860Y-108725864D01*
X112816605Y-108718903D01*
X112815418Y-108712963D01*
X112814029Y-108707088D01*
X112813182Y-108699819D01*
X112788264Y-108631170D01*
X112786847Y-108627042D01*
X112766607Y-108564564D01*
X112766606Y-108564562D01*
X112764351Y-108557601D01*
X112760555Y-108551346D01*
X112758049Y-108545872D01*
X112755330Y-108540442D01*
X112752833Y-108533563D01*
X112712814Y-108472524D01*
X112710467Y-108468805D01*
X112672595Y-108406393D01*
X112665197Y-108398016D01*
X112665224Y-108397992D01*
X112662571Y-108395000D01*
X112659868Y-108391767D01*
X112655856Y-108385648D01*
X112599617Y-108332372D01*
X112597175Y-108329994D01*
X101812171Y-97544990D01*
X101778145Y-97482678D01*
X101775745Y-97444913D01*
X101789519Y-97287475D01*
X101789998Y-97282000D01*
X101770043Y-97053913D01*
X101710784Y-96832757D01*
X101708461Y-96827775D01*
X101616349Y-96630238D01*
X101616346Y-96630233D01*
X101614023Y-96625251D01*
X101482698Y-96437700D01*
X101320800Y-96275802D01*
X101316292Y-96272645D01*
X101316289Y-96272643D01*
X101238111Y-96217902D01*
X101133249Y-96144477D01*
X101128267Y-96142154D01*
X101128262Y-96142151D01*
X101094043Y-96126195D01*
X101040758Y-96079278D01*
X101021297Y-96011001D01*
X101041839Y-95943041D01*
X101094043Y-95897805D01*
X101128262Y-95881849D01*
X101128267Y-95881846D01*
X101133249Y-95879523D01*
X101238111Y-95806098D01*
X101316289Y-95751357D01*
X101316292Y-95751355D01*
X101320800Y-95748198D01*
X101482698Y-95586300D01*
X101614023Y-95398749D01*
X101616346Y-95393767D01*
X101616349Y-95393762D01*
X101708461Y-95196225D01*
X101708461Y-95196224D01*
X101710784Y-95191243D01*
X101770043Y-94970087D01*
X101789998Y-94742000D01*
X101770043Y-94513913D01*
X101710784Y-94292757D01*
X101708461Y-94287775D01*
X101616349Y-94090238D01*
X101616346Y-94090233D01*
X101614023Y-94085251D01*
X101482698Y-93897700D01*
X101320800Y-93735802D01*
X101316292Y-93732645D01*
X101316289Y-93732643D01*
X101238111Y-93677902D01*
X101133249Y-93604477D01*
X101128267Y-93602154D01*
X101128262Y-93602151D01*
X101094043Y-93586195D01*
X101040758Y-93539278D01*
X101021297Y-93471001D01*
X101041839Y-93403041D01*
X101094043Y-93357805D01*
X101128262Y-93341849D01*
X101128267Y-93341846D01*
X101133249Y-93339523D01*
X101238111Y-93266098D01*
X101316289Y-93211357D01*
X101316292Y-93211355D01*
X101320800Y-93208198D01*
X101482698Y-93046300D01*
X101614023Y-92858749D01*
X101616346Y-92853767D01*
X101616349Y-92853762D01*
X101708461Y-92656225D01*
X101708461Y-92656224D01*
X101710784Y-92651243D01*
X101770043Y-92430087D01*
X101789998Y-92202000D01*
X101770043Y-91973913D01*
X101710784Y-91752757D01*
X101708461Y-91747775D01*
X101616349Y-91550238D01*
X101616346Y-91550233D01*
X101614023Y-91545251D01*
X101482698Y-91357700D01*
X101320800Y-91195802D01*
X101316292Y-91192645D01*
X101316289Y-91192643D01*
X101238111Y-91137902D01*
X101133249Y-91064477D01*
X101128267Y-91062154D01*
X101128262Y-91062151D01*
X101094043Y-91046195D01*
X101040758Y-90999278D01*
X101021297Y-90931001D01*
X101041839Y-90863041D01*
X101094043Y-90817805D01*
X101128262Y-90801849D01*
X101128267Y-90801846D01*
X101133249Y-90799523D01*
X101238111Y-90726098D01*
X101316289Y-90671357D01*
X101316292Y-90671355D01*
X101320800Y-90668198D01*
X101482698Y-90506300D01*
X101614023Y-90318749D01*
X101616346Y-90313767D01*
X101616349Y-90313762D01*
X101708461Y-90116225D01*
X101708461Y-90116224D01*
X101710784Y-90111243D01*
X101770043Y-89890087D01*
X101789998Y-89662000D01*
X101770043Y-89433913D01*
X101710784Y-89212757D01*
X101708461Y-89207775D01*
X101616349Y-89010238D01*
X101616346Y-89010233D01*
X101614023Y-89005251D01*
X101482698Y-88817700D01*
X101320800Y-88655802D01*
X101316292Y-88652645D01*
X101316289Y-88652643D01*
X101238111Y-88597902D01*
X101133249Y-88524477D01*
X101128267Y-88522154D01*
X101128262Y-88522151D01*
X101094043Y-88506195D01*
X101040758Y-88459278D01*
X101021297Y-88391001D01*
X101041839Y-88323041D01*
X101094043Y-88277805D01*
X101128262Y-88261849D01*
X101128267Y-88261846D01*
X101133249Y-88259523D01*
X101238111Y-88186098D01*
X101316289Y-88131357D01*
X101316292Y-88131355D01*
X101320800Y-88128198D01*
X101482698Y-87966300D01*
X101614023Y-87778749D01*
X101616346Y-87773767D01*
X101616349Y-87773762D01*
X101708461Y-87576225D01*
X101708461Y-87576224D01*
X101710784Y-87571243D01*
X101770043Y-87350087D01*
X101789998Y-87122000D01*
X101770043Y-86893913D01*
X101719597Y-86705647D01*
X101712207Y-86678067D01*
X101712206Y-86678065D01*
X101710784Y-86672757D01*
X101628679Y-86496681D01*
X101616349Y-86470238D01*
X101616346Y-86470233D01*
X101614023Y-86465251D01*
X101482698Y-86277700D01*
X101320800Y-86115802D01*
X101316292Y-86112645D01*
X101316289Y-86112643D01*
X101238111Y-86057902D01*
X101133249Y-85984477D01*
X101128267Y-85982154D01*
X101128262Y-85982151D01*
X101094043Y-85966195D01*
X101040758Y-85919278D01*
X101021297Y-85851001D01*
X101041839Y-85783041D01*
X101094043Y-85737805D01*
X101128262Y-85721849D01*
X101128267Y-85721846D01*
X101133249Y-85719523D01*
X101238111Y-85646098D01*
X101316289Y-85591357D01*
X101316292Y-85591355D01*
X101320800Y-85588198D01*
X101482698Y-85426300D01*
X101614023Y-85238749D01*
X101616346Y-85233767D01*
X101616349Y-85233762D01*
X101708461Y-85036225D01*
X101708461Y-85036224D01*
X101710784Y-85031243D01*
X101770043Y-84810087D01*
X101789998Y-84582000D01*
X101770043Y-84353913D01*
X101710784Y-84132757D01*
X101708461Y-84127775D01*
X101616349Y-83930238D01*
X101616346Y-83930233D01*
X101614023Y-83925251D01*
X101482698Y-83737700D01*
X101320800Y-83575802D01*
X101316292Y-83572645D01*
X101316289Y-83572643D01*
X101238111Y-83517902D01*
X101133249Y-83444477D01*
X101128267Y-83442154D01*
X101128262Y-83442151D01*
X101094043Y-83426195D01*
X101040758Y-83379278D01*
X101021297Y-83311001D01*
X101041839Y-83243041D01*
X101094043Y-83197805D01*
X101128262Y-83181849D01*
X101128267Y-83181846D01*
X101133249Y-83179523D01*
X101238111Y-83106098D01*
X101316289Y-83051357D01*
X101316292Y-83051355D01*
X101320800Y-83048198D01*
X101482698Y-82886300D01*
X101614023Y-82698749D01*
X101616346Y-82693767D01*
X101616349Y-82693762D01*
X101708461Y-82496225D01*
X101708461Y-82496224D01*
X101710784Y-82491243D01*
X101770043Y-82270087D01*
X101789998Y-82042000D01*
X101770043Y-81813913D01*
X101710784Y-81592757D01*
X101708461Y-81587775D01*
X101616349Y-81390238D01*
X101616346Y-81390233D01*
X101614023Y-81385251D01*
X101482698Y-81197700D01*
X101320800Y-81035802D01*
X101316292Y-81032645D01*
X101316289Y-81032643D01*
X101238111Y-80977902D01*
X101133249Y-80904477D01*
X101128267Y-80902154D01*
X101128262Y-80902151D01*
X101094043Y-80886195D01*
X101040758Y-80839278D01*
X101021297Y-80771001D01*
X101041839Y-80703041D01*
X101094043Y-80657805D01*
X101128262Y-80641849D01*
X101128267Y-80641846D01*
X101133249Y-80639523D01*
X101238111Y-80566098D01*
X101316289Y-80511357D01*
X101316292Y-80511355D01*
X101320800Y-80508198D01*
X101482698Y-80346300D01*
X101614023Y-80158749D01*
X101616346Y-80153767D01*
X101616349Y-80153762D01*
X101708461Y-79956225D01*
X101708461Y-79956224D01*
X101710784Y-79951243D01*
X101770043Y-79730087D01*
X101789998Y-79502000D01*
X101770043Y-79273913D01*
X101710784Y-79052757D01*
X101708461Y-79047775D01*
X101616349Y-78850238D01*
X101616346Y-78850233D01*
X101614023Y-78845251D01*
X101482698Y-78657700D01*
X101320800Y-78495802D01*
X101316292Y-78492645D01*
X101316289Y-78492643D01*
X101238111Y-78437902D01*
X101133249Y-78364477D01*
X101128267Y-78362154D01*
X101128262Y-78362151D01*
X101094043Y-78346195D01*
X101040758Y-78299278D01*
X101021297Y-78231001D01*
X101041839Y-78163041D01*
X101094043Y-78117805D01*
X101128262Y-78101849D01*
X101128267Y-78101846D01*
X101133249Y-78099523D01*
X101238111Y-78026098D01*
X101316289Y-77971357D01*
X101316292Y-77971355D01*
X101320800Y-77968198D01*
X101482698Y-77806300D01*
X101614023Y-77618749D01*
X101616346Y-77613767D01*
X101616349Y-77613762D01*
X101708461Y-77416225D01*
X101708461Y-77416224D01*
X101710784Y-77411243D01*
X101770043Y-77190087D01*
X101789998Y-76962000D01*
X101770043Y-76733913D01*
X101710784Y-76512757D01*
X101708461Y-76507775D01*
X101616349Y-76310238D01*
X101616346Y-76310233D01*
X101614023Y-76305251D01*
X101482698Y-76117700D01*
X101320800Y-75955802D01*
X101316292Y-75952645D01*
X101316289Y-75952643D01*
X101238111Y-75897902D01*
X101133249Y-75824477D01*
X101128267Y-75822154D01*
X101128262Y-75822151D01*
X100930725Y-75730039D01*
X100930724Y-75730039D01*
X100925743Y-75727716D01*
X100920435Y-75726294D01*
X100920433Y-75726293D01*
X100709902Y-75669881D01*
X100709900Y-75669881D01*
X100704587Y-75668457D01*
X100476500Y-75648502D01*
X100248413Y-75668457D01*
X100243100Y-75669881D01*
X100243098Y-75669881D01*
X100032567Y-75726293D01*
X100032565Y-75726294D01*
X100027257Y-75727716D01*
X100022276Y-75730039D01*
X100022275Y-75730039D01*
X99824738Y-75822151D01*
X99824733Y-75822154D01*
X99819751Y-75824477D01*
X99714889Y-75897902D01*
X99636711Y-75952643D01*
X99636708Y-75952645D01*
X99632200Y-75955802D01*
X99470302Y-76117700D01*
X99338977Y-76305251D01*
X99336654Y-76310233D01*
X99336651Y-76310238D01*
X99244539Y-76507775D01*
X99242216Y-76512757D01*
X99182957Y-76733913D01*
X99163002Y-76962000D01*
X99182957Y-77190087D01*
X99242216Y-77411243D01*
X99244539Y-77416224D01*
X99244539Y-77416225D01*
X99336651Y-77613762D01*
X99336654Y-77613767D01*
X99338977Y-77618749D01*
X99470302Y-77806300D01*
X99632200Y-77968198D01*
X99636708Y-77971355D01*
X99636711Y-77971357D01*
X99714889Y-78026098D01*
X99819751Y-78099523D01*
X99824733Y-78101846D01*
X99824738Y-78101849D01*
X99858957Y-78117805D01*
X99912242Y-78164722D01*
X99931703Y-78232999D01*
X99911161Y-78300959D01*
X99858957Y-78346195D01*
X99824738Y-78362151D01*
X99824733Y-78362154D01*
X99819751Y-78364477D01*
X99714889Y-78437902D01*
X99636711Y-78492643D01*
X99636708Y-78492645D01*
X99632200Y-78495802D01*
X99470302Y-78657700D01*
X99338977Y-78845251D01*
X99336654Y-78850233D01*
X99336651Y-78850238D01*
X99244539Y-79047775D01*
X99242216Y-79052757D01*
X99182957Y-79273913D01*
X99163002Y-79502000D01*
X99182957Y-79730087D01*
X99242216Y-79951243D01*
X99244539Y-79956224D01*
X99244539Y-79956225D01*
X99336651Y-80153762D01*
X99336654Y-80153767D01*
X99338977Y-80158749D01*
X99470302Y-80346300D01*
X99632200Y-80508198D01*
X99636708Y-80511355D01*
X99636711Y-80511357D01*
X99714889Y-80566098D01*
X99819751Y-80639523D01*
X99824733Y-80641846D01*
X99824738Y-80641849D01*
X99858957Y-80657805D01*
X99912242Y-80704722D01*
X99931703Y-80772999D01*
X99911161Y-80840959D01*
X99858957Y-80886195D01*
X99824738Y-80902151D01*
X99824733Y-80902154D01*
X99819751Y-80904477D01*
X99714889Y-80977902D01*
X99636711Y-81032643D01*
X99636708Y-81032645D01*
X99632200Y-81035802D01*
X99470302Y-81197700D01*
X99338977Y-81385251D01*
X99336654Y-81390233D01*
X99336651Y-81390238D01*
X99244539Y-81587775D01*
X99242216Y-81592757D01*
X99182957Y-81813913D01*
X99163002Y-82042000D01*
X99182957Y-82270087D01*
X99242216Y-82491243D01*
X99244539Y-82496224D01*
X99244539Y-82496225D01*
X99336651Y-82693762D01*
X99336654Y-82693767D01*
X99338977Y-82698749D01*
X99470302Y-82886300D01*
X99632200Y-83048198D01*
X99636708Y-83051355D01*
X99636711Y-83051357D01*
X99714889Y-83106098D01*
X99819751Y-83179523D01*
X99824733Y-83181846D01*
X99824738Y-83181849D01*
X99858957Y-83197805D01*
X99912242Y-83244722D01*
X99931703Y-83312999D01*
X99911161Y-83380959D01*
X99858957Y-83426195D01*
X99824738Y-83442151D01*
X99824733Y-83442154D01*
X99819751Y-83444477D01*
X99714889Y-83517902D01*
X99636711Y-83572643D01*
X99636708Y-83572645D01*
X99632200Y-83575802D01*
X99470302Y-83737700D01*
X99338977Y-83925251D01*
X99336654Y-83930233D01*
X99336651Y-83930238D01*
X99244539Y-84127775D01*
X99242216Y-84132757D01*
X99182957Y-84353913D01*
X99163002Y-84582000D01*
X99182957Y-84810087D01*
X99242216Y-85031243D01*
X99244539Y-85036224D01*
X99244539Y-85036225D01*
X99336651Y-85233762D01*
X99336654Y-85233767D01*
X99338977Y-85238749D01*
X99470302Y-85426300D01*
X99632200Y-85588198D01*
X99636708Y-85591355D01*
X99636711Y-85591357D01*
X99714889Y-85646098D01*
X99819751Y-85719523D01*
X99824733Y-85721846D01*
X99824738Y-85721849D01*
X99858957Y-85737805D01*
X99912242Y-85784722D01*
X99931703Y-85852999D01*
X99911161Y-85920959D01*
X99858957Y-85966195D01*
X99824738Y-85982151D01*
X99824733Y-85982154D01*
X99819751Y-85984477D01*
X99714889Y-86057902D01*
X99636711Y-86112643D01*
X99636708Y-86112645D01*
X99632200Y-86115802D01*
X99470302Y-86277700D01*
X99338977Y-86465251D01*
X99336654Y-86470233D01*
X99336651Y-86470238D01*
X99324321Y-86496681D01*
X99242216Y-86672757D01*
X99240794Y-86678065D01*
X99240793Y-86678067D01*
X99233403Y-86705647D01*
X99182957Y-86893913D01*
X99163002Y-87122000D01*
X99182957Y-87350087D01*
X99242216Y-87571243D01*
X99244539Y-87576224D01*
X99244539Y-87576225D01*
X99336651Y-87773762D01*
X99336654Y-87773767D01*
X99338977Y-87778749D01*
X99470302Y-87966300D01*
X99632200Y-88128198D01*
X99636708Y-88131355D01*
X99636711Y-88131357D01*
X99714889Y-88186098D01*
X99819751Y-88259523D01*
X99824733Y-88261846D01*
X99824738Y-88261849D01*
X99858957Y-88277805D01*
X99912242Y-88324722D01*
X99931703Y-88392999D01*
X99911161Y-88460959D01*
X99858957Y-88506195D01*
X99824738Y-88522151D01*
X99824733Y-88522154D01*
X99819751Y-88524477D01*
X99714889Y-88597902D01*
X99636711Y-88652643D01*
X99636708Y-88652645D01*
X99632200Y-88655802D01*
X99470302Y-88817700D01*
X99338977Y-89005251D01*
X99336654Y-89010233D01*
X99336651Y-89010238D01*
X99244539Y-89207775D01*
X99242216Y-89212757D01*
X99182957Y-89433913D01*
X99163002Y-89662000D01*
X99182957Y-89890087D01*
X99242216Y-90111243D01*
X99244539Y-90116224D01*
X99244539Y-90116225D01*
X99336651Y-90313762D01*
X99336654Y-90313767D01*
X99338977Y-90318749D01*
X99470302Y-90506300D01*
X99632200Y-90668198D01*
X99636708Y-90671355D01*
X99636711Y-90671357D01*
X99714889Y-90726098D01*
X99819751Y-90799523D01*
X99824733Y-90801846D01*
X99824738Y-90801849D01*
X99858957Y-90817805D01*
X99912242Y-90864722D01*
X99931703Y-90932999D01*
X99911161Y-91000959D01*
X99858957Y-91046195D01*
X99824738Y-91062151D01*
X99824733Y-91062154D01*
X99819751Y-91064477D01*
X99714889Y-91137902D01*
X99636711Y-91192643D01*
X99636708Y-91192645D01*
X99632200Y-91195802D01*
X99470302Y-91357700D01*
X99338977Y-91545251D01*
X99336654Y-91550233D01*
X99336651Y-91550238D01*
X99244539Y-91747775D01*
X99242216Y-91752757D01*
X99182957Y-91973913D01*
X99163002Y-92202000D01*
X99182957Y-92430087D01*
X99242216Y-92651243D01*
X99244539Y-92656224D01*
X99244539Y-92656225D01*
X99336651Y-92853762D01*
X99336654Y-92853767D01*
X99338977Y-92858749D01*
X99470302Y-93046300D01*
X99632200Y-93208198D01*
X99636708Y-93211355D01*
X99636711Y-93211357D01*
X99714889Y-93266098D01*
X99819751Y-93339523D01*
X99824733Y-93341846D01*
X99824738Y-93341849D01*
X99858957Y-93357805D01*
X99912242Y-93404722D01*
X99931703Y-93472999D01*
X99911161Y-93540959D01*
X99858957Y-93586195D01*
X99824738Y-93602151D01*
X99824733Y-93602154D01*
X99819751Y-93604477D01*
X99714889Y-93677902D01*
X99636711Y-93732643D01*
X99636708Y-93732645D01*
X99632200Y-93735802D01*
X99470302Y-93897700D01*
X99338977Y-94085251D01*
X99336654Y-94090233D01*
X99336651Y-94090238D01*
X99244539Y-94287775D01*
X99242216Y-94292757D01*
X99182957Y-94513913D01*
X99163002Y-94742000D01*
X99182957Y-94970087D01*
X99242216Y-95191243D01*
X99244539Y-95196224D01*
X99244539Y-95196225D01*
X99336651Y-95393762D01*
X99336654Y-95393767D01*
X99338977Y-95398749D01*
X99470302Y-95586300D01*
X99632200Y-95748198D01*
X99636708Y-95751355D01*
X99636711Y-95751357D01*
X99714889Y-95806098D01*
X99819751Y-95879523D01*
X99824733Y-95881846D01*
X99824738Y-95881849D01*
X99858957Y-95897805D01*
X99912242Y-95944722D01*
X99931703Y-96012999D01*
X99911161Y-96080959D01*
X99858957Y-96126195D01*
X99824738Y-96142151D01*
X99824733Y-96142154D01*
X99819751Y-96144477D01*
X99714889Y-96217902D01*
X99636711Y-96272643D01*
X99636708Y-96272645D01*
X99632200Y-96275802D01*
X99470302Y-96437700D01*
X99338977Y-96625251D01*
X99336654Y-96630233D01*
X99336651Y-96630238D01*
X99244539Y-96827775D01*
X99242216Y-96832757D01*
X99182957Y-97053913D01*
X99163002Y-97282000D01*
X99182957Y-97510087D01*
X99242216Y-97731243D01*
X99244539Y-97736224D01*
X99244539Y-97736225D01*
X99336651Y-97933762D01*
X99336654Y-97933767D01*
X99338977Y-97938749D01*
X99470302Y-98126300D01*
X99632200Y-98288198D01*
X99636708Y-98291355D01*
X99636711Y-98291357D01*
X99714889Y-98346098D01*
X99819751Y-98419523D01*
X99824733Y-98421846D01*
X99824738Y-98421849D01*
X99858957Y-98437805D01*
X99912242Y-98484722D01*
X99931703Y-98552999D01*
X99911161Y-98620959D01*
X99858957Y-98666195D01*
X99824738Y-98682151D01*
X99824733Y-98682154D01*
X99819751Y-98684477D01*
X99714889Y-98757902D01*
X99636711Y-98812643D01*
X99636708Y-98812645D01*
X99632200Y-98815802D01*
X99470302Y-98977700D01*
X99338977Y-99165251D01*
X99336654Y-99170233D01*
X99336651Y-99170238D01*
X99244539Y-99367775D01*
X99242216Y-99372757D01*
X99182957Y-99593913D01*
X99163002Y-99822000D01*
X99182957Y-100050087D01*
X99242216Y-100271243D01*
X99244539Y-100276224D01*
X99244539Y-100276225D01*
X99336651Y-100473762D01*
X99336654Y-100473767D01*
X99338977Y-100478749D01*
X99470302Y-100666300D01*
X99632200Y-100828198D01*
X99636708Y-100831355D01*
X99636711Y-100831357D01*
X99714889Y-100886098D01*
X99819751Y-100959523D01*
X99824733Y-100961846D01*
X99824738Y-100961849D01*
X99858957Y-100977805D01*
X99912242Y-101024722D01*
X99931703Y-101092999D01*
X99911161Y-101160959D01*
X99858957Y-101206195D01*
X99824738Y-101222151D01*
X99824733Y-101222154D01*
X99819751Y-101224477D01*
X99714889Y-101297902D01*
X99636711Y-101352643D01*
X99636708Y-101352645D01*
X99632200Y-101355802D01*
X99470302Y-101517700D01*
X99338977Y-101705251D01*
X99336654Y-101710233D01*
X99336651Y-101710238D01*
X99244539Y-101907775D01*
X99242216Y-101912757D01*
X99182957Y-102133913D01*
X99163002Y-102362000D01*
X99182957Y-102590087D01*
X99242216Y-102811243D01*
X99244539Y-102816224D01*
X99244539Y-102816225D01*
X99336651Y-103013762D01*
X99336654Y-103013767D01*
X99338977Y-103018749D01*
X99470302Y-103206300D01*
X99632200Y-103368198D01*
X99636708Y-103371355D01*
X99636711Y-103371357D01*
X99714889Y-103426098D01*
X99819751Y-103499523D01*
X99824733Y-103501846D01*
X99824738Y-103501849D01*
X99858957Y-103517805D01*
X99912242Y-103564722D01*
X99931703Y-103632999D01*
X99911161Y-103700959D01*
X99858957Y-103746195D01*
X99824738Y-103762151D01*
X99824733Y-103762154D01*
X99819751Y-103764477D01*
X99714889Y-103837902D01*
X99636711Y-103892643D01*
X99636708Y-103892645D01*
X99632200Y-103895802D01*
X99470302Y-104057700D01*
X99338977Y-104245251D01*
X99336654Y-104250233D01*
X99336651Y-104250238D01*
X99244539Y-104447775D01*
X99242216Y-104452757D01*
X99182957Y-104673913D01*
X99163002Y-104902000D01*
X99182957Y-105130087D01*
X99242216Y-105351243D01*
X99244539Y-105356224D01*
X99244539Y-105356225D01*
X99336651Y-105553762D01*
X99336654Y-105553767D01*
X99338977Y-105558749D01*
X99470302Y-105746300D01*
X99632200Y-105908198D01*
X99636708Y-105911355D01*
X99636711Y-105911357D01*
X99714889Y-105966098D01*
X99819751Y-106039523D01*
X99824733Y-106041846D01*
X99824738Y-106041849D01*
X100022275Y-106133961D01*
X100027257Y-106136284D01*
X100032565Y-106137706D01*
X100032567Y-106137707D01*
X100243098Y-106194119D01*
X100243100Y-106194119D01*
X100248413Y-106195543D01*
X100476500Y-106215498D01*
X100704587Y-106195543D01*
X100709900Y-106194119D01*
X100709902Y-106194119D01*
X100920433Y-106137707D01*
X100920435Y-106137706D01*
X100925743Y-106136284D01*
X100930725Y-106133961D01*
X101128262Y-106041849D01*
X101128267Y-106041846D01*
X101133249Y-106039523D01*
X101238111Y-105966098D01*
X101316289Y-105911357D01*
X101316292Y-105911355D01*
X101320800Y-105908198D01*
X101482698Y-105746300D01*
X101614023Y-105558749D01*
X101616346Y-105553767D01*
X101616349Y-105553762D01*
X101708461Y-105356225D01*
X101708461Y-105356224D01*
X101710784Y-105351243D01*
X101770043Y-105130087D01*
X101789998Y-104902000D01*
X101770043Y-104673913D01*
X101710784Y-104452757D01*
X101708461Y-104447775D01*
X101616349Y-104250238D01*
X101616346Y-104250233D01*
X101614023Y-104245251D01*
X101482698Y-104057700D01*
X101320800Y-103895802D01*
X101316292Y-103892645D01*
X101316289Y-103892643D01*
X101238111Y-103837902D01*
X101133249Y-103764477D01*
X101128267Y-103762154D01*
X101128262Y-103762151D01*
X101094043Y-103746195D01*
X101040758Y-103699278D01*
X101021297Y-103631001D01*
X101041839Y-103563041D01*
X101094043Y-103517805D01*
X101128262Y-103501849D01*
X101128267Y-103501846D01*
X101133249Y-103499523D01*
X101238111Y-103426098D01*
X101316289Y-103371357D01*
X101316292Y-103371355D01*
X101320800Y-103368198D01*
X101482698Y-103206300D01*
X101614023Y-103018749D01*
X101616346Y-103013767D01*
X101616349Y-103013762D01*
X101708461Y-102816225D01*
X101708461Y-102816224D01*
X101710784Y-102811243D01*
X101770043Y-102590087D01*
X101778823Y-102489733D01*
X101804687Y-102423615D01*
X101862190Y-102381976D01*
X101933077Y-102378035D01*
X101993439Y-102411620D01*
X107814595Y-108232776D01*
X107848621Y-108295088D01*
X107851500Y-108321871D01*
X107851500Y-131283428D01*
X107831498Y-131351549D01*
X107777842Y-131398042D01*
X107707568Y-131408146D01*
X107642988Y-131378652D01*
X107610618Y-131335178D01*
X107523507Y-131141798D01*
X107521312Y-131136925D01*
X107392559Y-130945681D01*
X107333918Y-130884209D01*
X107321347Y-130871032D01*
X107233424Y-130778865D01*
X107048458Y-130641246D01*
X107043707Y-130638830D01*
X107043703Y-130638828D01*
X106921731Y-130576815D01*
X106842949Y-130536760D01*
X106837855Y-130535178D01*
X106837852Y-130535177D01*
X106627871Y-130469976D01*
X106622773Y-130468393D01*
X106617484Y-130467692D01*
X106399511Y-130438802D01*
X106399506Y-130438802D01*
X106394226Y-130438102D01*
X106388897Y-130438302D01*
X106388895Y-130438302D01*
X106279034Y-130442426D01*
X106163842Y-130446751D01*
X106158623Y-130447846D01*
X106136566Y-130452474D01*
X105938209Y-130494093D01*
X105933250Y-130496051D01*
X105933248Y-130496052D01*
X105728744Y-130576815D01*
X105728742Y-130576816D01*
X105723779Y-130578776D01*
X105719220Y-130581543D01*
X105719217Y-130581544D01*
X105620832Y-130641246D01*
X105526683Y-130698377D01*
X105522653Y-130701874D01*
X105429484Y-130782722D01*
X105352555Y-130849477D01*
X105323330Y-130885120D01*
X105264671Y-130925114D01*
X105193701Y-130927046D01*
X105132952Y-130890302D01*
X105118752Y-130871532D01*
X105032332Y-130731880D01*
X105028478Y-130725652D01*
X104903303Y-130600695D01*
X104897072Y-130596854D01*
X104758968Y-130511725D01*
X104758966Y-130511724D01*
X104752738Y-130507885D01*
X104672995Y-130481436D01*
X104591389Y-130454368D01*
X104591387Y-130454368D01*
X104584861Y-130452203D01*
X104578025Y-130451503D01*
X104578022Y-130451502D01*
X104534969Y-130447091D01*
X104480400Y-130441500D01*
X103179600Y-130441500D01*
X103176354Y-130441837D01*
X103176350Y-130441837D01*
X103080692Y-130451762D01*
X103080688Y-130451763D01*
X103073834Y-130452474D01*
X103067298Y-130454655D01*
X103067296Y-130454655D01*
X103028220Y-130467692D01*
X102906054Y-130508450D01*
X102755652Y-130601522D01*
X102630695Y-130726697D01*
X102626855Y-130732927D01*
X102626854Y-130732928D01*
X102596161Y-130782722D01*
X102537885Y-130877262D01*
X102482203Y-131045139D01*
X102471500Y-131149600D01*
X102471500Y-132750400D01*
X102482474Y-132856166D01*
X102484655Y-132862702D01*
X102484655Y-132862704D01*
X102520033Y-132968744D01*
X102538450Y-133023946D01*
X102631522Y-133174348D01*
X102756697Y-133299305D01*
X102762927Y-133303145D01*
X102762928Y-133303146D01*
X102900090Y-133387694D01*
X102907262Y-133392115D01*
X102964949Y-133411249D01*
X102985167Y-133417955D01*
X103043527Y-133458386D01*
X103070764Y-133523950D01*
X103071500Y-133537548D01*
X103071500Y-156252930D01*
X103070067Y-156271880D01*
X103066801Y-156293349D01*
X103067394Y-156300641D01*
X103067394Y-156300644D01*
X103071085Y-156346018D01*
X103071500Y-156356233D01*
X103071500Y-156364293D01*
X103071925Y-156367937D01*
X103074789Y-156392507D01*
X103075222Y-156396882D01*
X103079302Y-156447036D01*
X103081140Y-156469637D01*
X103083396Y-156476601D01*
X103084587Y-156482560D01*
X103085971Y-156488415D01*
X103086818Y-156495681D01*
X103111735Y-156564327D01*
X103113152Y-156568455D01*
X103135649Y-156637899D01*
X103139445Y-156644154D01*
X103141951Y-156649628D01*
X103144670Y-156655058D01*
X103147167Y-156661937D01*
X103151180Y-156668057D01*
X103151180Y-156668058D01*
X103187186Y-156722976D01*
X103189523Y-156726680D01*
X103227405Y-156789107D01*
X103231121Y-156793315D01*
X103231122Y-156793316D01*
X103234803Y-156797484D01*
X103234776Y-156797508D01*
X103237429Y-156800500D01*
X103240132Y-156803733D01*
X103244144Y-156809852D01*
X103249456Y-156814884D01*
X103300383Y-156863128D01*
X103302825Y-156865506D01*
X109646230Y-163208911D01*
X109658616Y-163223323D01*
X109667149Y-163234918D01*
X109667154Y-163234923D01*
X109671492Y-163240818D01*
X109677070Y-163245557D01*
X109677073Y-163245560D01*
X109711768Y-163275035D01*
X109719284Y-163281965D01*
X109724980Y-163287661D01*
X109727841Y-163289924D01*
X109727846Y-163289929D01*
X109747266Y-163305293D01*
X109750667Y-163308082D01*
X109806285Y-163355333D01*
X109812798Y-163358659D01*
X109817837Y-163362020D01*
X109822979Y-163365196D01*
X109828716Y-163369734D01*
X109894875Y-163400655D01*
X109898769Y-163402558D01*
X109963808Y-163435769D01*
X109970917Y-163437508D01*
X109976551Y-163439604D01*
X109982321Y-163441523D01*
X109988950Y-163444622D01*
X109996113Y-163446112D01*
X109996116Y-163446113D01*
X110046830Y-163456661D01*
X110060435Y-163459491D01*
X110064701Y-163460457D01*
X110135610Y-163477808D01*
X110141212Y-163478156D01*
X110141215Y-163478156D01*
X110146764Y-163478500D01*
X110146762Y-163478535D01*
X110150734Y-163478775D01*
X110154955Y-163479152D01*
X110162115Y-163480641D01*
X110239542Y-163478546D01*
X110242950Y-163478500D01*
X115537413Y-163478500D01*
X115611472Y-163502563D01*
X115617902Y-163507235D01*
X115617909Y-163507239D01*
X115623248Y-163511118D01*
X115629276Y-163513802D01*
X115629278Y-163513803D01*
X115791681Y-163586109D01*
X115797712Y-163588794D01*
X115891113Y-163608647D01*
X115978056Y-163627128D01*
X115978061Y-163627128D01*
X115984513Y-163628500D01*
X116175487Y-163628500D01*
X116181939Y-163627128D01*
X116181944Y-163627128D01*
X116268887Y-163608647D01*
X116362288Y-163588794D01*
X116368319Y-163586109D01*
X116530722Y-163513803D01*
X116530724Y-163513802D01*
X116536752Y-163511118D01*
X116542097Y-163507235D01*
X116607200Y-163459934D01*
X116691253Y-163398866D01*
X116774282Y-163306653D01*
X116814621Y-163261852D01*
X116814622Y-163261851D01*
X116819040Y-163256944D01*
X116914527Y-163091556D01*
X116973542Y-162909928D01*
X116993504Y-162720000D01*
X116973542Y-162530072D01*
X116914527Y-162348444D01*
X116819040Y-162183056D01*
X116691253Y-162041134D01*
X116581647Y-161961500D01*
X116542094Y-161932763D01*
X116542093Y-161932762D01*
X116536752Y-161928882D01*
X116530724Y-161926198D01*
X116530722Y-161926197D01*
X116368319Y-161853891D01*
X116368318Y-161853891D01*
X116362288Y-161851206D01*
X116268888Y-161831353D01*
X116181944Y-161812872D01*
X116181939Y-161812872D01*
X116175487Y-161811500D01*
X115984513Y-161811500D01*
X115978061Y-161812872D01*
X115978056Y-161812872D01*
X115891112Y-161831353D01*
X115797712Y-161851206D01*
X115791682Y-161853891D01*
X115791681Y-161853891D01*
X115629278Y-161926197D01*
X115629276Y-161926198D01*
X115623248Y-161928882D01*
X115617909Y-161932761D01*
X115617902Y-161932765D01*
X115611472Y-161937437D01*
X115537413Y-161961500D01*
X110596371Y-161961500D01*
X110528250Y-161941498D01*
X110507276Y-161924595D01*
X106826405Y-158243724D01*
X108986309Y-158243724D01*
X108987130Y-158250000D01*
X108986849Y-158250000D01*
X108996202Y-158374804D01*
X109002599Y-158460166D01*
X109005425Y-158497880D01*
X109060738Y-158740222D01*
X109151553Y-158971614D01*
X109275840Y-159186886D01*
X109430824Y-159381230D01*
X109613042Y-159550304D01*
X109818425Y-159690331D01*
X109822674Y-159692377D01*
X109822677Y-159692379D01*
X109943719Y-159750670D01*
X110042383Y-159798184D01*
X110046885Y-159799573D01*
X110046891Y-159799575D01*
X110182306Y-159841344D01*
X110279914Y-159871452D01*
X110284564Y-159872153D01*
X110284569Y-159872154D01*
X110389473Y-159887965D01*
X110525713Y-159908500D01*
X110774287Y-159908500D01*
X110910527Y-159887965D01*
X111015431Y-159872154D01*
X111015436Y-159872153D01*
X111020086Y-159871452D01*
X111257617Y-159798184D01*
X111481576Y-159690331D01*
X111485478Y-159687671D01*
X111683056Y-159552965D01*
X111683062Y-159552960D01*
X111686958Y-159550304D01*
X111869176Y-159381230D01*
X112024160Y-159186886D01*
X112148447Y-158971614D01*
X112239262Y-158740222D01*
X112294575Y-158497880D01*
X112310681Y-158282956D01*
X112312076Y-158271465D01*
X112312768Y-158267355D01*
X112312768Y-158267352D01*
X112313576Y-158262552D01*
X112313729Y-158250000D01*
X112309773Y-158222376D01*
X112308500Y-158204514D01*
X112308500Y-157803250D01*
X112310246Y-157782345D01*
X112312770Y-157767344D01*
X112312770Y-157767341D01*
X112313576Y-157762552D01*
X112313729Y-157750000D01*
X112313039Y-157745180D01*
X112313010Y-157744735D01*
X112312200Y-157737308D01*
X112311744Y-157731215D01*
X112294575Y-157502120D01*
X112239262Y-157259778D01*
X112220794Y-157212721D01*
X112150171Y-157032779D01*
X112148447Y-157028386D01*
X112057474Y-156870816D01*
X112026516Y-156817194D01*
X112026513Y-156817190D01*
X112024160Y-156813114D01*
X112005016Y-156789107D01*
X111872111Y-156622450D01*
X111872109Y-156622448D01*
X111869176Y-156618770D01*
X111865723Y-156615566D01*
X111690420Y-156452908D01*
X111690418Y-156452906D01*
X111686958Y-156449696D01*
X111683062Y-156447040D01*
X111683056Y-156447035D01*
X111485472Y-156312325D01*
X111485470Y-156312324D01*
X111481576Y-156309669D01*
X111257617Y-156201816D01*
X111020086Y-156128548D01*
X111015436Y-156127847D01*
X111015431Y-156127846D01*
X110910527Y-156112035D01*
X110774287Y-156091500D01*
X110525713Y-156091500D01*
X110389473Y-156112035D01*
X110284569Y-156127846D01*
X110284564Y-156127847D01*
X110279914Y-156128548D01*
X110182306Y-156158656D01*
X110046891Y-156200425D01*
X110046885Y-156200427D01*
X110042383Y-156201816D01*
X109943719Y-156249330D01*
X109822677Y-156307621D01*
X109822674Y-156307623D01*
X109818425Y-156309669D01*
X109814526Y-156312327D01*
X109814523Y-156312329D01*
X109738306Y-156364293D01*
X109613042Y-156449696D01*
X109609582Y-156452906D01*
X109609580Y-156452908D01*
X109434277Y-156615566D01*
X109430824Y-156618770D01*
X109427891Y-156622448D01*
X109427889Y-156622450D01*
X109294985Y-156789107D01*
X109275840Y-156813114D01*
X109273487Y-156817190D01*
X109273484Y-156817194D01*
X109242526Y-156870816D01*
X109151553Y-157028386D01*
X109149829Y-157032779D01*
X109079207Y-157212721D01*
X109060738Y-157259778D01*
X109005425Y-157502120D01*
X109005073Y-157506820D01*
X109005072Y-157506825D01*
X108988632Y-157726215D01*
X108987764Y-157733753D01*
X108987835Y-157733927D01*
X108986309Y-157743724D01*
X108986951Y-157748636D01*
X108986849Y-157750000D01*
X108987130Y-157750000D01*
X108988325Y-157759139D01*
X108988325Y-157759140D01*
X108990436Y-157775283D01*
X108991500Y-157791620D01*
X108991500Y-158200633D01*
X108990000Y-158220018D01*
X108987690Y-158234851D01*
X108987690Y-158234855D01*
X108986309Y-158243724D01*
X106826405Y-158243724D01*
X104625405Y-156042724D01*
X104591379Y-155980412D01*
X104588500Y-155953629D01*
X104588500Y-148945371D01*
X104608502Y-148877250D01*
X104662158Y-148830757D01*
X104732432Y-148820653D01*
X104797012Y-148850147D01*
X104803595Y-148856276D01*
X107609875Y-151662556D01*
X107640613Y-151712714D01*
X107695473Y-151881556D01*
X107790960Y-152046944D01*
X107918747Y-152188866D01*
X108073248Y-152301118D01*
X108079276Y-152303802D01*
X108079278Y-152303803D01*
X108241681Y-152376109D01*
X108247712Y-152378794D01*
X108341113Y-152398647D01*
X108428056Y-152417128D01*
X108428061Y-152417128D01*
X108434513Y-152418500D01*
X108625487Y-152418500D01*
X108631939Y-152417128D01*
X108631944Y-152417128D01*
X108718887Y-152398647D01*
X108812288Y-152378794D01*
X108818319Y-152376109D01*
X108980722Y-152303803D01*
X108980724Y-152303802D01*
X108986752Y-152301118D01*
X109141253Y-152188866D01*
X109269040Y-152046944D01*
X109364527Y-151881556D01*
X109423542Y-151699928D01*
X109443504Y-151510000D01*
X109423542Y-151320072D01*
X109364527Y-151138444D01*
X109269040Y-150973056D01*
X109141253Y-150831134D01*
X108986752Y-150718882D01*
X108980724Y-150716198D01*
X108980722Y-150716197D01*
X108818319Y-150643891D01*
X108818318Y-150643891D01*
X108812288Y-150641206D01*
X108805833Y-150639834D01*
X108805824Y-150639831D01*
X108749228Y-150627801D01*
X108686331Y-150593650D01*
X108286162Y-150193481D01*
X108252136Y-150131169D01*
X108257201Y-150060354D01*
X108299748Y-150003518D01*
X108366268Y-149978707D01*
X108433437Y-149992623D01*
X108531300Y-150043567D01*
X108935360Y-150210935D01*
X108937980Y-150211761D01*
X108937988Y-150211764D01*
X109349840Y-150341620D01*
X109349845Y-150341621D01*
X109352470Y-150342449D01*
X109779454Y-150437109D01*
X109782173Y-150437467D01*
X109782179Y-150437468D01*
X109944621Y-150458854D01*
X110213065Y-150494195D01*
X110215814Y-150494315D01*
X110215825Y-150494316D01*
X110647252Y-150513152D01*
X110650000Y-150513272D01*
X110652748Y-150513152D01*
X111084175Y-150494316D01*
X111084186Y-150494315D01*
X111086935Y-150494195D01*
X111355379Y-150458854D01*
X111517821Y-150437468D01*
X111517827Y-150437467D01*
X111520546Y-150437109D01*
X111947530Y-150342449D01*
X111950155Y-150341621D01*
X111950160Y-150341620D01*
X112362012Y-150211764D01*
X112362020Y-150211761D01*
X112364640Y-150210935D01*
X112768700Y-150043567D01*
X113156636Y-149841621D01*
X113525495Y-149606632D01*
X113527663Y-149604968D01*
X113527675Y-149604960D01*
X113870277Y-149342071D01*
X113872469Y-149340389D01*
X113874497Y-149338531D01*
X113874505Y-149338524D01*
X114192899Y-149046770D01*
X114194919Y-149044919D01*
X114391162Y-148830757D01*
X114488524Y-148724505D01*
X114488531Y-148724497D01*
X114490389Y-148722469D01*
X114552716Y-148641243D01*
X114754960Y-148377675D01*
X114754968Y-148377663D01*
X114756632Y-148375495D01*
X114991621Y-148006636D01*
X115193567Y-147618700D01*
X115360935Y-147214640D01*
X115492449Y-146797530D01*
X115587109Y-146370546D01*
X115644195Y-145936935D01*
X115646191Y-145891235D01*
X115662147Y-145525763D01*
X115662531Y-145520004D01*
X115662770Y-145517344D01*
X115663576Y-145512552D01*
X115663729Y-145500000D01*
X115659773Y-145472376D01*
X115658500Y-145454514D01*
X115658500Y-140553250D01*
X115660246Y-140532345D01*
X115662770Y-140517344D01*
X115662770Y-140517341D01*
X115663576Y-140512552D01*
X115663729Y-140500000D01*
X115663081Y-140495474D01*
X115663049Y-140494879D01*
X115644316Y-140065825D01*
X115644315Y-140065814D01*
X115644195Y-140063065D01*
X115587109Y-139629454D01*
X115492449Y-139202470D01*
X115360935Y-138785360D01*
X115193567Y-138381300D01*
X114991621Y-137993364D01*
X114790446Y-137677583D01*
X114758107Y-137626820D01*
X114758105Y-137626817D01*
X114756632Y-137624505D01*
X114754968Y-137622337D01*
X114754960Y-137622325D01*
X114492071Y-137279723D01*
X114490389Y-137277531D01*
X114488531Y-137275503D01*
X114488524Y-137275495D01*
X114196770Y-136957101D01*
X114194919Y-136955081D01*
X114039139Y-136812335D01*
X113874505Y-136661476D01*
X113874497Y-136661469D01*
X113872469Y-136659611D01*
X113760539Y-136573724D01*
X113527675Y-136395040D01*
X113527663Y-136395032D01*
X113525495Y-136393368D01*
X113156636Y-136158379D01*
X112768700Y-135956433D01*
X112364640Y-135789065D01*
X112362020Y-135788239D01*
X112362012Y-135788236D01*
X111950160Y-135658380D01*
X111950155Y-135658379D01*
X111947530Y-135657551D01*
X111520546Y-135562891D01*
X111517827Y-135562533D01*
X111517821Y-135562532D01*
X111355379Y-135541146D01*
X111086935Y-135505805D01*
X111084186Y-135505685D01*
X111084175Y-135505684D01*
X110652748Y-135486848D01*
X110650000Y-135486728D01*
X110647252Y-135486848D01*
X110215825Y-135505684D01*
X110215814Y-135505685D01*
X110213065Y-135505805D01*
X109944621Y-135541146D01*
X109782179Y-135562532D01*
X109782173Y-135562533D01*
X109779454Y-135562891D01*
X109352470Y-135657551D01*
X109349845Y-135658379D01*
X109349840Y-135658380D01*
X108937988Y-135788236D01*
X108937980Y-135788239D01*
X108935360Y-135789065D01*
X108531300Y-135956433D01*
X108143364Y-136158379D01*
X107774505Y-136393368D01*
X107772337Y-136395032D01*
X107772325Y-136395040D01*
X107539461Y-136573724D01*
X107427531Y-136659611D01*
X107425503Y-136661469D01*
X107425495Y-136661476D01*
X107260861Y-136812335D01*
X107105081Y-136955081D01*
X107103230Y-136957101D01*
X106811476Y-137275495D01*
X106811469Y-137275503D01*
X106809611Y-137277531D01*
X106807929Y-137279723D01*
X106545040Y-137622325D01*
X106545032Y-137622337D01*
X106543368Y-137624505D01*
X106541895Y-137626817D01*
X106541893Y-137626820D01*
X106509554Y-137677583D01*
X106308379Y-137993364D01*
X106307105Y-137995812D01*
X106176263Y-138247157D01*
X106127067Y-138298345D01*
X106058006Y-138314810D01*
X105991006Y-138291323D01*
X105947341Y-138235342D01*
X105938500Y-138188977D01*
X105938500Y-137636371D01*
X105958502Y-137568250D01*
X105975405Y-137547276D01*
X109098911Y-134423770D01*
X109113323Y-134411384D01*
X109124918Y-134402851D01*
X109124923Y-134402846D01*
X109130818Y-134398508D01*
X109135557Y-134392930D01*
X109135560Y-134392927D01*
X109165035Y-134358232D01*
X109171965Y-134350716D01*
X109177661Y-134345020D01*
X109179924Y-134342159D01*
X109179929Y-134342154D01*
X109195293Y-134322734D01*
X109198082Y-134319333D01*
X109240592Y-134269296D01*
X109240594Y-134269294D01*
X109245333Y-134263715D01*
X109248662Y-134257195D01*
X109252028Y-134252148D01*
X109255193Y-134247024D01*
X109259735Y-134241283D01*
X109290637Y-134175164D01*
X109292565Y-134171218D01*
X109322442Y-134112708D01*
X109322443Y-134112706D01*
X109325769Y-134106192D01*
X109327508Y-134099086D01*
X109329609Y-134093436D01*
X109331524Y-134087679D01*
X109334622Y-134081050D01*
X109349491Y-134009565D01*
X109350461Y-134005282D01*
X109366473Y-133939844D01*
X109367808Y-133934390D01*
X109368500Y-133923236D01*
X109368535Y-133923238D01*
X109368775Y-133919266D01*
X109369152Y-133915045D01*
X109370641Y-133907885D01*
X109368546Y-133830458D01*
X109368500Y-133827050D01*
X109368500Y-116050480D01*
X109388502Y-115982359D01*
X109405405Y-115961385D01*
X110244978Y-115121812D01*
X110252592Y-115107868D01*
X110252461Y-115106035D01*
X110248210Y-115099420D01*
X109405405Y-114256615D01*
X109371379Y-114194303D01*
X109368500Y-114167520D01*
X109368500Y-108022570D01*
X109369933Y-108003620D01*
X109372099Y-107989385D01*
X109372099Y-107989381D01*
X109373199Y-107982151D01*
X109368983Y-107930312D01*
X109368915Y-107929482D01*
X109368500Y-107919267D01*
X109368500Y-107911207D01*
X109366733Y-107896053D01*
X109365211Y-107882993D01*
X109364778Y-107878618D01*
X109359454Y-107813161D01*
X109359453Y-107813158D01*
X109358860Y-107805863D01*
X109356604Y-107798899D01*
X109355413Y-107792940D01*
X109354029Y-107787085D01*
X109353182Y-107779819D01*
X109328265Y-107711173D01*
X109326848Y-107707045D01*
X109306607Y-107644564D01*
X109306606Y-107644562D01*
X109304351Y-107637601D01*
X109300555Y-107631346D01*
X109298049Y-107625872D01*
X109295330Y-107620442D01*
X109292833Y-107613563D01*
X109288820Y-107607442D01*
X109252814Y-107552524D01*
X109250467Y-107548805D01*
X109212595Y-107486393D01*
X109205197Y-107478016D01*
X109205224Y-107477992D01*
X109202571Y-107475000D01*
X109199868Y-107471767D01*
X109195856Y-107465648D01*
X109139617Y-107412372D01*
X109137175Y-107409994D01*
X101812171Y-100084990D01*
X101778145Y-100022678D01*
X101775746Y-99984913D01*
X101778824Y-99949733D01*
X101804687Y-99883615D01*
X101862191Y-99841975D01*
X101933078Y-99838035D01*
X101993439Y-99871620D01*
X111274595Y-109152776D01*
X111308621Y-109215088D01*
X111311500Y-109241871D01*
X111311500Y-113575851D01*
X111291498Y-113643972D01*
X111237842Y-113690465D01*
X111167568Y-113700569D01*
X111137282Y-113692260D01*
X111089013Y-113672266D01*
X111079627Y-113669217D01*
X110858446Y-113616115D01*
X110848699Y-113614572D01*
X110621930Y-113596725D01*
X110612070Y-113596725D01*
X110385301Y-113614572D01*
X110375554Y-113616115D01*
X110154373Y-113669217D01*
X110144988Y-113672266D01*
X109934837Y-113759313D01*
X109926042Y-113763795D01*
X109758555Y-113866432D01*
X109749093Y-113876890D01*
X109752876Y-113885666D01*
X110887115Y-115019905D01*
X110921141Y-115082217D01*
X110916076Y-115153032D01*
X110887115Y-115198095D01*
X109755920Y-116329290D01*
X109749160Y-116341670D01*
X109754887Y-116349320D01*
X109926042Y-116454205D01*
X109934837Y-116458687D01*
X110144988Y-116545734D01*
X110154373Y-116548783D01*
X110375554Y-116601885D01*
X110385301Y-116603428D01*
X110612070Y-116621275D01*
X110621930Y-116621275D01*
X110848699Y-116603428D01*
X110858446Y-116601885D01*
X111079627Y-116548783D01*
X111089013Y-116545734D01*
X111137282Y-116525740D01*
X111207872Y-116518151D01*
X111271359Y-116549931D01*
X111307586Y-116610989D01*
X111311500Y-116642149D01*
X111311500Y-128022930D01*
X111310067Y-128041880D01*
X111306801Y-128063349D01*
X111307394Y-128070641D01*
X111307394Y-128070644D01*
X111311085Y-128116018D01*
X111311500Y-128126233D01*
X111311500Y-128134293D01*
X111311925Y-128137937D01*
X111314789Y-128162507D01*
X111315222Y-128166882D01*
X111321140Y-128239637D01*
X111323396Y-128246601D01*
X111324587Y-128252560D01*
X111325971Y-128258415D01*
X111326818Y-128265681D01*
X111351735Y-128334327D01*
X111353152Y-128338455D01*
X111375649Y-128407899D01*
X111379445Y-128414154D01*
X111381951Y-128419628D01*
X111384670Y-128425058D01*
X111387167Y-128431937D01*
X111391180Y-128438057D01*
X111391180Y-128438058D01*
X111427186Y-128492976D01*
X111429523Y-128496680D01*
X111467405Y-128559107D01*
X111471121Y-128563315D01*
X111471122Y-128563316D01*
X111474803Y-128567484D01*
X111474776Y-128567508D01*
X111477429Y-128570500D01*
X111480132Y-128573733D01*
X111484144Y-128579852D01*
X111489456Y-128584884D01*
X111540383Y-128633128D01*
X111542825Y-128635506D01*
X118354595Y-135447276D01*
X118388621Y-135509588D01*
X118391500Y-135536371D01*
X118391500Y-156870816D01*
X118371498Y-156938937D01*
X118359136Y-156955127D01*
X118289218Y-157032779D01*
X118270960Y-157053056D01*
X118175473Y-157218444D01*
X118116458Y-157400072D01*
X118096496Y-157590000D01*
X118097186Y-157596565D01*
X118112204Y-157739449D01*
X118116458Y-157779928D01*
X118175473Y-157961556D01*
X118270960Y-158126944D01*
X118275378Y-158131851D01*
X118275379Y-158131852D01*
X118393062Y-158262552D01*
X118398747Y-158268866D01*
X118553248Y-158381118D01*
X118559276Y-158383802D01*
X118559278Y-158383803D01*
X118579367Y-158392747D01*
X118727712Y-158458794D01*
X118821112Y-158478647D01*
X118908056Y-158497128D01*
X118908061Y-158497128D01*
X118914513Y-158498500D01*
X119105487Y-158498500D01*
X119111942Y-158497128D01*
X119111951Y-158497127D01*
X119124367Y-158494488D01*
X119195157Y-158499891D01*
X119251789Y-158542709D01*
X119276282Y-158609347D01*
X119275936Y-158630272D01*
X117701159Y-174378037D01*
X117674478Y-174443830D01*
X117616462Y-174484753D01*
X117575784Y-174491500D01*
X117534500Y-174491500D01*
X117466379Y-174471498D01*
X117419886Y-174417842D01*
X117408500Y-174365500D01*
X117408500Y-173651337D01*
X117393765Y-173506273D01*
X117376111Y-173449939D01*
X117337444Y-173326549D01*
X117337442Y-173326544D01*
X117335535Y-173320459D01*
X117241130Y-173150150D01*
X117236981Y-173145309D01*
X117236978Y-173145305D01*
X117118560Y-173007145D01*
X117114409Y-173002302D01*
X116960547Y-172882954D01*
X116954824Y-172880138D01*
X116954821Y-172880136D01*
X116791556Y-172799800D01*
X116785829Y-172796982D01*
X116779651Y-172795373D01*
X116779649Y-172795372D01*
X116603575Y-172749508D01*
X116603572Y-172749508D01*
X116597393Y-172747898D01*
X116427905Y-172739016D01*
X116360925Y-172715477D01*
X116317304Y-172659461D01*
X116308500Y-172613189D01*
X116308500Y-172385187D01*
X116328502Y-172317066D01*
X116382158Y-172270573D01*
X116441094Y-172259360D01*
X116490682Y-172261959D01*
X116490687Y-172261959D01*
X116497064Y-172262293D01*
X116652413Y-172238799D01*
X116683285Y-172234130D01*
X116683286Y-172234130D01*
X116689599Y-172233175D01*
X116695585Y-172230972D01*
X116695591Y-172230971D01*
X116866360Y-172168140D01*
X116866365Y-172168138D01*
X116872346Y-172165937D01*
X117037840Y-172063326D01*
X117112362Y-171992855D01*
X117174685Y-171933919D01*
X117179322Y-171929534D01*
X117291011Y-171770025D01*
X117368345Y-171591316D01*
X117387460Y-171499818D01*
X117407176Y-171405443D01*
X117407177Y-171405438D01*
X117408165Y-171400707D01*
X117408500Y-171394315D01*
X117408500Y-170651337D01*
X117393765Y-170506273D01*
X117376111Y-170449939D01*
X117337444Y-170326549D01*
X117337442Y-170326544D01*
X117335535Y-170320459D01*
X117241130Y-170150150D01*
X117236981Y-170145309D01*
X117236978Y-170145305D01*
X117118560Y-170007145D01*
X117114409Y-170002302D01*
X116960547Y-169882954D01*
X116954824Y-169880138D01*
X116954821Y-169880136D01*
X116791556Y-169799800D01*
X116785829Y-169796982D01*
X116779651Y-169795373D01*
X116779649Y-169795372D01*
X116603575Y-169749508D01*
X116603572Y-169749508D01*
X116597393Y-169747898D01*
X116477081Y-169741593D01*
X116410101Y-169718054D01*
X116366480Y-169662038D01*
X116360068Y-169591332D01*
X116392900Y-169528383D01*
X116407754Y-169515208D01*
X116546317Y-169410592D01*
X116546322Y-169410588D01*
X116550720Y-169407267D01*
X116700265Y-169246405D01*
X116736338Y-169190595D01*
X116816493Y-169066582D01*
X116816493Y-169066581D01*
X116819490Y-169061945D01*
X116904749Y-168859531D01*
X116926448Y-168764071D01*
X116952208Y-168650745D01*
X116952209Y-168650739D01*
X116953432Y-168645358D01*
X116964050Y-168425979D01*
X116962352Y-168412654D01*
X116941216Y-168246848D01*
X116936278Y-168208105D01*
X116870966Y-167998404D01*
X116770112Y-167803292D01*
X116636802Y-167628740D01*
X116475115Y-167480087D01*
X116470473Y-167477123D01*
X116470468Y-167477119D01*
X116352186Y-167401592D01*
X116289999Y-167361883D01*
X116087117Y-167277745D01*
X116081729Y-167276551D01*
X116081724Y-167276550D01*
X115878069Y-167231440D01*
X115878068Y-167231440D01*
X115872678Y-167230246D01*
X115758312Y-167225344D01*
X115658760Y-167221077D01*
X115658755Y-167221077D01*
X115653243Y-167220841D01*
X115647773Y-167221569D01*
X115441002Y-167249088D01*
X115440998Y-167249089D01*
X115435527Y-167249817D01*
X115430265Y-167251488D01*
X115430260Y-167251489D01*
X115340909Y-167279861D01*
X115226190Y-167316288D01*
X115031639Y-167418219D01*
X114857826Y-167552492D01*
X114710069Y-167714998D01*
X114592890Y-167900765D01*
X114590805Y-167905872D01*
X114590801Y-167905880D01*
X114513257Y-168095825D01*
X114468992Y-168151333D01*
X114396884Y-168174202D01*
X106909422Y-168190782D01*
X106841257Y-168170931D01*
X106794646Y-168117378D01*
X106790374Y-168106219D01*
X106789906Y-168104053D01*
X106706840Y-167900833D01*
X106648657Y-167808672D01*
X106592586Y-167719858D01*
X106592585Y-167719856D01*
X106589640Y-167715192D01*
X106514975Y-167633131D01*
X106445603Y-167556887D01*
X106445599Y-167556883D01*
X106441891Y-167552808D01*
X106268112Y-167418647D01*
X106166644Y-167365520D01*
X106078514Y-167319376D01*
X106078510Y-167319374D01*
X106073618Y-167316813D01*
X106068354Y-167315143D01*
X106068352Y-167315142D01*
X105869618Y-167252088D01*
X105869616Y-167252088D01*
X105864357Y-167250419D01*
X105755543Y-167235959D01*
X105652201Y-167222225D01*
X105652199Y-167222225D01*
X105646729Y-167221498D01*
X105641217Y-167221735D01*
X105641216Y-167221735D01*
X105573287Y-167224657D01*
X105427391Y-167230932D01*
X105422002Y-167232126D01*
X105421997Y-167232127D01*
X105331930Y-167252088D01*
X105213051Y-167278434D01*
X105010263Y-167362551D01*
X104825232Y-167480710D01*
X104821171Y-167484444D01*
X104667679Y-167625560D01*
X104667675Y-167625564D01*
X104663615Y-167629297D01*
X104660266Y-167633682D01*
X104660263Y-167633685D01*
X104594593Y-167719664D01*
X104530355Y-167803768D01*
X104527822Y-167808667D01*
X104527819Y-167808672D01*
X104482620Y-167896098D01*
X104429529Y-167998787D01*
X104364220Y-168208389D01*
X104336425Y-168426164D01*
X104339645Y-168492957D01*
X104346725Y-168639841D01*
X104346995Y-168645450D01*
X104348218Y-168650835D01*
X104348218Y-168650837D01*
X104360025Y-168702835D01*
X104395606Y-168859542D01*
X104480771Y-169061891D01*
X104483761Y-169066520D01*
X104483763Y-169066524D01*
X104526621Y-169132878D01*
X104599886Y-169246308D01*
X104749308Y-169407154D01*
X104753699Y-169410472D01*
X104753709Y-169410481D01*
X104887331Y-169511448D01*
X104929622Y-169568474D01*
X104934369Y-169639312D01*
X104900064Y-169701471D01*
X104837600Y-169735216D01*
X104815647Y-169736949D01*
X104815685Y-169737730D01*
X104809319Y-169738042D01*
X104802936Y-169737707D01*
X104647587Y-169761201D01*
X104616715Y-169765870D01*
X104616714Y-169765870D01*
X104610401Y-169766825D01*
X104604415Y-169769028D01*
X104604409Y-169769029D01*
X104433640Y-169831860D01*
X104433635Y-169831862D01*
X104427654Y-169834063D01*
X104262160Y-169936674D01*
X104257527Y-169941055D01*
X104257526Y-169941056D01*
X104125315Y-170066081D01*
X104120678Y-170070466D01*
X104008989Y-170229975D01*
X103931655Y-170408684D01*
X103930350Y-170414931D01*
X103930349Y-170414934D01*
X103911268Y-170506273D01*
X103891835Y-170599293D01*
X103891500Y-170605685D01*
X103891500Y-171348663D01*
X103906235Y-171493727D01*
X103908144Y-171499818D01*
X103962556Y-171673451D01*
X103962558Y-171673456D01*
X103964465Y-171679541D01*
X104058870Y-171849850D01*
X104063019Y-171854691D01*
X104063022Y-171854695D01*
X104122684Y-171924303D01*
X104185591Y-171997698D01*
X104339453Y-172117046D01*
X104345176Y-172119862D01*
X104345179Y-172119864D01*
X104508444Y-172200200D01*
X104514171Y-172203018D01*
X104520349Y-172204627D01*
X104520351Y-172204628D01*
X104696425Y-172250492D01*
X104696428Y-172250492D01*
X104702607Y-172252102D01*
X104872095Y-172260984D01*
X104939075Y-172284523D01*
X104982696Y-172340539D01*
X104991500Y-172386811D01*
X104991500Y-172614813D01*
X104971498Y-172682934D01*
X104917842Y-172729427D01*
X104858906Y-172740640D01*
X104809318Y-172738041D01*
X104809313Y-172738041D01*
X104802936Y-172737707D01*
X104647587Y-172761201D01*
X104616715Y-172765870D01*
X104616714Y-172765870D01*
X104610401Y-172766825D01*
X104604415Y-172769028D01*
X104604409Y-172769029D01*
X104433640Y-172831860D01*
X104433635Y-172831862D01*
X104427654Y-172834063D01*
X104262160Y-172936674D01*
X104257527Y-172941055D01*
X104257526Y-172941056D01*
X104125315Y-173066081D01*
X104120678Y-173070466D01*
X104008989Y-173229975D01*
X103931655Y-173408684D01*
X103930350Y-173414931D01*
X103930349Y-173414934D01*
X103911268Y-173506273D01*
X103891835Y-173599293D01*
X103891500Y-173605685D01*
X103891500Y-174348663D01*
X103891917Y-174352765D01*
X103891880Y-174352963D01*
X103891984Y-174355022D01*
X103891491Y-174355047D01*
X103878903Y-174422557D01*
X103830222Y-174474235D01*
X103766562Y-174491500D01*
X103724215Y-174491500D01*
X103656094Y-174471498D01*
X103609601Y-174417842D01*
X103598840Y-174378037D01*
X98812076Y-126510400D01*
X102361500Y-126510400D01*
X102372474Y-126616166D01*
X102374655Y-126622702D01*
X102374655Y-126622704D01*
X102410033Y-126728744D01*
X102428450Y-126783946D01*
X102521522Y-126934348D01*
X102646697Y-127059305D01*
X102652927Y-127063145D01*
X102652928Y-127063146D01*
X102790090Y-127147694D01*
X102797262Y-127152115D01*
X102832938Y-127163948D01*
X102958611Y-127205632D01*
X102958613Y-127205632D01*
X102965139Y-127207797D01*
X102971975Y-127208497D01*
X102971978Y-127208498D01*
X103007663Y-127212154D01*
X103069600Y-127218500D01*
X104370400Y-127218500D01*
X104373646Y-127218163D01*
X104373650Y-127218163D01*
X104469308Y-127208238D01*
X104469312Y-127208237D01*
X104476166Y-127207526D01*
X104482702Y-127205345D01*
X104482704Y-127205345D01*
X104614806Y-127161272D01*
X104643946Y-127151550D01*
X104794348Y-127058478D01*
X104919305Y-126933303D01*
X105009081Y-126787660D01*
X105061852Y-126740168D01*
X105131924Y-126728744D01*
X105197048Y-126757018D01*
X105207510Y-126766805D01*
X105249215Y-126810523D01*
X105316576Y-126881135D01*
X105501542Y-127018754D01*
X105506293Y-127021170D01*
X105506297Y-127021172D01*
X105569481Y-127053296D01*
X105707051Y-127123240D01*
X105712145Y-127124822D01*
X105712148Y-127124823D01*
X105912020Y-127186885D01*
X105927227Y-127191607D01*
X105932516Y-127192308D01*
X106150489Y-127221198D01*
X106150494Y-127221198D01*
X106155774Y-127221898D01*
X106161103Y-127221698D01*
X106161105Y-127221698D01*
X106270966Y-127217574D01*
X106386158Y-127213249D01*
X106408802Y-127208498D01*
X106606572Y-127167002D01*
X106611791Y-127165907D01*
X106616750Y-127163949D01*
X106616752Y-127163948D01*
X106821256Y-127083185D01*
X106821258Y-127083184D01*
X106826221Y-127081224D01*
X106862343Y-127059305D01*
X107018757Y-126964390D01*
X107018756Y-126964390D01*
X107023317Y-126961623D01*
X107063134Y-126927072D01*
X107193412Y-126814023D01*
X107193414Y-126814021D01*
X107197445Y-126810523D01*
X107264500Y-126728744D01*
X107340240Y-126636373D01*
X107340244Y-126636367D01*
X107343624Y-126632245D01*
X107457675Y-126431886D01*
X107536337Y-126215175D01*
X107555142Y-126111181D01*
X107576623Y-125992392D01*
X107576624Y-125992385D01*
X107577361Y-125988308D01*
X107578500Y-125964156D01*
X107578500Y-125502110D01*
X107563920Y-125330280D01*
X107562582Y-125325125D01*
X107562581Y-125325119D01*
X107507343Y-125112297D01*
X107507342Y-125112293D01*
X107506001Y-125107128D01*
X107485819Y-125062324D01*
X107413507Y-124901798D01*
X107411312Y-124896925D01*
X107282559Y-124705681D01*
X107223918Y-124644209D01*
X107211347Y-124631032D01*
X107123424Y-124538865D01*
X107029287Y-124468824D01*
X106986574Y-124412115D01*
X106978500Y-124367736D01*
X106978500Y-109019679D01*
X106995381Y-108956679D01*
X107041223Y-108877279D01*
X107041224Y-108877278D01*
X107044527Y-108871556D01*
X107103542Y-108689928D01*
X107113254Y-108597529D01*
X107122814Y-108506565D01*
X107123504Y-108500000D01*
X107111485Y-108385648D01*
X107104232Y-108316635D01*
X107104232Y-108316633D01*
X107103542Y-108310072D01*
X107044527Y-108128444D01*
X106949040Y-107963056D01*
X106862945Y-107867437D01*
X106825675Y-107826045D01*
X106825674Y-107826044D01*
X106821253Y-107821134D01*
X106666752Y-107708882D01*
X106660724Y-107706198D01*
X106660722Y-107706197D01*
X106498319Y-107633891D01*
X106498318Y-107633891D01*
X106492288Y-107631206D01*
X106380488Y-107607442D01*
X106311944Y-107592872D01*
X106311939Y-107592872D01*
X106305487Y-107591500D01*
X106114513Y-107591500D01*
X106108061Y-107592872D01*
X106108056Y-107592872D01*
X106039512Y-107607442D01*
X105927712Y-107631206D01*
X105921682Y-107633891D01*
X105921681Y-107633891D01*
X105759278Y-107706197D01*
X105759276Y-107706198D01*
X105753248Y-107708882D01*
X105598747Y-107821134D01*
X105594326Y-107826044D01*
X105594325Y-107826045D01*
X105557056Y-107867437D01*
X105470960Y-107963056D01*
X105375473Y-108128444D01*
X105316458Y-108310072D01*
X105315768Y-108316633D01*
X105315768Y-108316635D01*
X105308515Y-108385648D01*
X105296496Y-108500000D01*
X105297186Y-108506565D01*
X105306747Y-108597529D01*
X105316458Y-108689928D01*
X105375473Y-108871556D01*
X105437910Y-108979699D01*
X105444619Y-108991320D01*
X105461500Y-109054320D01*
X105461500Y-124362192D01*
X105441498Y-124430313D01*
X105415897Y-124457471D01*
X105416683Y-124458377D01*
X105319484Y-124542722D01*
X105242555Y-124609477D01*
X105213330Y-124645120D01*
X105154671Y-124685114D01*
X105083701Y-124687046D01*
X105022952Y-124650302D01*
X105008752Y-124631532D01*
X104922332Y-124491880D01*
X104918478Y-124485652D01*
X104793303Y-124360695D01*
X104787072Y-124356854D01*
X104648968Y-124271725D01*
X104648966Y-124271724D01*
X104642738Y-124267885D01*
X104482254Y-124214655D01*
X104481389Y-124214368D01*
X104481387Y-124214368D01*
X104474861Y-124212203D01*
X104468025Y-124211503D01*
X104468022Y-124211502D01*
X104424969Y-124207091D01*
X104370400Y-124201500D01*
X103069600Y-124201500D01*
X103066354Y-124201837D01*
X103066350Y-124201837D01*
X102970692Y-124211762D01*
X102970688Y-124211763D01*
X102963834Y-124212474D01*
X102957298Y-124214655D01*
X102957296Y-124214655D01*
X102825194Y-124258728D01*
X102796054Y-124268450D01*
X102645652Y-124361522D01*
X102520695Y-124486697D01*
X102516855Y-124492927D01*
X102516854Y-124492928D01*
X102486161Y-124542722D01*
X102427885Y-124637262D01*
X102372203Y-124805139D01*
X102361500Y-124909600D01*
X102361500Y-126510400D01*
X98812076Y-126510400D01*
X98659125Y-124980891D01*
X98658500Y-124968354D01*
X98658500Y-65980940D01*
X102791793Y-65980940D01*
X102828442Y-66250232D01*
X102904493Y-66511150D01*
X103018274Y-66757960D01*
X103020837Y-66761869D01*
X103164720Y-66981328D01*
X103164724Y-66981333D01*
X103167286Y-66985241D01*
X103348256Y-67188001D01*
X103557207Y-67361784D01*
X103606120Y-67391465D01*
X103785554Y-67500349D01*
X103785559Y-67500351D01*
X103789551Y-67502774D01*
X104040182Y-67607872D01*
X104303594Y-67674770D01*
X104529322Y-67697500D01*
X104690991Y-67697500D01*
X104693316Y-67697327D01*
X104693322Y-67697327D01*
X104888375Y-67682832D01*
X104888379Y-67682831D01*
X104893027Y-67682486D01*
X105158101Y-67622506D01*
X105192773Y-67609023D01*
X105407044Y-67525698D01*
X105407046Y-67525697D01*
X105411397Y-67524005D01*
X105445379Y-67504583D01*
X105499141Y-67473855D01*
X105647351Y-67389146D01*
X105860780Y-67220892D01*
X106046996Y-67022939D01*
X106049662Y-67019096D01*
X106199244Y-66803474D01*
X106199247Y-66803469D01*
X106201906Y-66799636D01*
X106220531Y-66761869D01*
X106320044Y-66560077D01*
X106320045Y-66560074D01*
X106322109Y-66555889D01*
X106404964Y-66297052D01*
X106448649Y-66028811D01*
X106452207Y-65757060D01*
X106415558Y-65487768D01*
X106339507Y-65226850D01*
X106225726Y-64980040D01*
X106191726Y-64928181D01*
X106079280Y-64756672D01*
X106079276Y-64756667D01*
X106076714Y-64752759D01*
X105964587Y-64627131D01*
X105898861Y-64553491D01*
X105898859Y-64553489D01*
X105895744Y-64549999D01*
X105686793Y-64376216D01*
X105570621Y-64305721D01*
X105458446Y-64237651D01*
X105458441Y-64237649D01*
X105454449Y-64235226D01*
X105292068Y-64167134D01*
X109108500Y-64167134D01*
X109115255Y-64229316D01*
X109166385Y-64365705D01*
X109253739Y-64482261D01*
X109370295Y-64569615D01*
X109506684Y-64620745D01*
X109568866Y-64627500D01*
X111665134Y-64627500D01*
X111727316Y-64620745D01*
X111863705Y-64569615D01*
X111980261Y-64482261D01*
X112067615Y-64365705D01*
X112118745Y-64229316D01*
X112125500Y-64167134D01*
X112125500Y-62070866D01*
X112118745Y-62008684D01*
X112067615Y-61872295D01*
X111980261Y-61755739D01*
X111863705Y-61668385D01*
X111727316Y-61617255D01*
X111665134Y-61610500D01*
X109568866Y-61610500D01*
X109506684Y-61617255D01*
X109370295Y-61668385D01*
X109253739Y-61755739D01*
X109166385Y-61872295D01*
X109115255Y-62008684D01*
X109108500Y-62070866D01*
X109108500Y-64167134D01*
X105292068Y-64167134D01*
X105203818Y-64130128D01*
X104940406Y-64063230D01*
X104714678Y-64040500D01*
X104553009Y-64040500D01*
X104550684Y-64040673D01*
X104550678Y-64040673D01*
X104355625Y-64055168D01*
X104355621Y-64055169D01*
X104350973Y-64055514D01*
X104085899Y-64115494D01*
X104081547Y-64117186D01*
X104081545Y-64117187D01*
X103836956Y-64212302D01*
X103836954Y-64212303D01*
X103832603Y-64213995D01*
X103828549Y-64216312D01*
X103828547Y-64216313D01*
X103744859Y-64264145D01*
X103596649Y-64348854D01*
X103383220Y-64517108D01*
X103197004Y-64715061D01*
X103194338Y-64718904D01*
X103044756Y-64934526D01*
X103044753Y-64934531D01*
X103042094Y-64938364D01*
X103040028Y-64942553D01*
X103040027Y-64942555D01*
X103019448Y-64984286D01*
X102921891Y-65182111D01*
X102839036Y-65440948D01*
X102795351Y-65709189D01*
X102791793Y-65980940D01*
X98658500Y-65980940D01*
X98658500Y-50149402D01*
X99919291Y-50149402D01*
X99919345Y-50153895D01*
X99919345Y-50153902D01*
X99921822Y-50358497D01*
X99921396Y-50370482D01*
X99920493Y-50381314D01*
X99921387Y-50393835D01*
X99922475Y-50398571D01*
X99922475Y-50398573D01*
X99927636Y-50421042D01*
X99930394Y-50438732D01*
X99943949Y-50600648D01*
X99963872Y-50838612D01*
X99963876Y-50859587D01*
X99962209Y-50879592D01*
X99963104Y-50892113D01*
X99964194Y-50896859D01*
X99964195Y-50896865D01*
X99965116Y-50900875D01*
X99966803Y-50909631D01*
X99974469Y-50958706D01*
X100001769Y-51133485D01*
X100003090Y-51137789D01*
X100003090Y-51137790D01*
X100066639Y-51344880D01*
X100073461Y-51367112D01*
X100177671Y-51588158D01*
X100312279Y-51792123D01*
X100474543Y-51974856D01*
X100661161Y-52132637D01*
X100664978Y-52135025D01*
X100864515Y-52259865D01*
X100864519Y-52259867D01*
X100868334Y-52262254D01*
X101091844Y-52361069D01*
X101096167Y-52362282D01*
X101096171Y-52362283D01*
X101322812Y-52425855D01*
X101322819Y-52425856D01*
X101327142Y-52427069D01*
X101331595Y-52427654D01*
X101331599Y-52427655D01*
X101564975Y-52458325D01*
X101564980Y-52458325D01*
X101569437Y-52458911D01*
X101696748Y-52457367D01*
X101809295Y-52456003D01*
X101809301Y-52456003D01*
X101813798Y-52455948D01*
X101818247Y-52455253D01*
X101818249Y-52455253D01*
X102050803Y-52418934D01*
X102050810Y-52418932D01*
X102055250Y-52418239D01*
X102288879Y-52346552D01*
X102509927Y-52242346D01*
X102713895Y-52107743D01*
X102896632Y-51945482D01*
X103054417Y-51758868D01*
X103184038Y-51551698D01*
X103236206Y-51433706D01*
X103281035Y-51332311D01*
X103282857Y-51328190D01*
X103284093Y-51323787D01*
X103347647Y-51097224D01*
X103348862Y-51092893D01*
X103361585Y-50996100D01*
X103380123Y-50855058D01*
X103380123Y-50855055D01*
X103380709Y-50850598D01*
X103380450Y-50829158D01*
X103378178Y-50641503D01*
X103378604Y-50629512D01*
X103379507Y-50618686D01*
X103378613Y-50606165D01*
X103372363Y-50578953D01*
X103369606Y-50561265D01*
X103357867Y-50421042D01*
X103336128Y-50161388D01*
X103336124Y-50140413D01*
X103337387Y-50125262D01*
X103337387Y-50125256D01*
X103337791Y-50120408D01*
X103336896Y-50107887D01*
X103334884Y-50099125D01*
X103333197Y-50090369D01*
X103328451Y-50059984D01*
X107166001Y-50059984D01*
X107166195Y-50064920D01*
X107168430Y-50093336D01*
X107170730Y-50105931D01*
X107213107Y-50251790D01*
X107219352Y-50266221D01*
X107295911Y-50395678D01*
X107305551Y-50408104D01*
X107411896Y-50514449D01*
X107424322Y-50524089D01*
X107553779Y-50600648D01*
X107568210Y-50606893D01*
X107702605Y-50645939D01*
X107716706Y-50645899D01*
X107720000Y-50638630D01*
X107720000Y-49643115D01*
X107715525Y-49627876D01*
X107714135Y-49626671D01*
X107706452Y-49625000D01*
X107184116Y-49625000D01*
X107168877Y-49629475D01*
X107167672Y-49630865D01*
X107166001Y-49638548D01*
X107166001Y-50059984D01*
X103328451Y-50059984D01*
X103304571Y-49907107D01*
X103298231Y-49866515D01*
X103296910Y-49862210D01*
X103227858Y-49637185D01*
X103227856Y-49637180D01*
X103226539Y-49632888D01*
X103122329Y-49411842D01*
X102987721Y-49207877D01*
X102825457Y-49025144D01*
X102638839Y-48867363D01*
X102592971Y-48838666D01*
X102435485Y-48740135D01*
X102435481Y-48740133D01*
X102431666Y-48737746D01*
X102208156Y-48638931D01*
X102203833Y-48637718D01*
X102203829Y-48637717D01*
X101977188Y-48574145D01*
X101977181Y-48574144D01*
X101972858Y-48572931D01*
X101968405Y-48572346D01*
X101968401Y-48572345D01*
X101735025Y-48541675D01*
X101735020Y-48541675D01*
X101730563Y-48541089D01*
X101603252Y-48542633D01*
X101490705Y-48543997D01*
X101490699Y-48543997D01*
X101486202Y-48544052D01*
X101481753Y-48544747D01*
X101481751Y-48544747D01*
X101249197Y-48581066D01*
X101249190Y-48581068D01*
X101244750Y-48581761D01*
X101011121Y-48653448D01*
X100790073Y-48757654D01*
X100586105Y-48892257D01*
X100403368Y-49054518D01*
X100245583Y-49241132D01*
X100115962Y-49448302D01*
X100114143Y-49452416D01*
X100114141Y-49452420D01*
X100037839Y-49625000D01*
X100017143Y-49671810D01*
X100015929Y-49676139D01*
X100015926Y-49676147D01*
X99995747Y-49748082D01*
X99951138Y-49907107D01*
X99950553Y-49911559D01*
X99950552Y-49911563D01*
X99919878Y-50144935D01*
X99919291Y-50149402D01*
X98658500Y-50149402D01*
X98658500Y-46196400D01*
X105565500Y-46196400D01*
X105565837Y-46199646D01*
X105565837Y-46199650D01*
X105570667Y-46246197D01*
X105576474Y-46302166D01*
X105578655Y-46308702D01*
X105578655Y-46308704D01*
X105594852Y-46357251D01*
X105632450Y-46469946D01*
X105725522Y-46620348D01*
X105850697Y-46745305D01*
X105856927Y-46749145D01*
X105856928Y-46749146D01*
X105994090Y-46833694D01*
X106001262Y-46838115D01*
X106041789Y-46851557D01*
X106162611Y-46891632D01*
X106162613Y-46891632D01*
X106169139Y-46893797D01*
X106175975Y-46894497D01*
X106175978Y-46894498D01*
X106219031Y-46898909D01*
X106273600Y-46904500D01*
X106839769Y-46904500D01*
X106907890Y-46924502D01*
X106954383Y-46978158D01*
X106964487Y-47048432D01*
X106933406Y-47114809D01*
X106880960Y-47173056D01*
X106785473Y-47338444D01*
X106726458Y-47520072D01*
X106706496Y-47710000D01*
X106726458Y-47899928D01*
X106785473Y-48081556D01*
X106880960Y-48246944D01*
X107008747Y-48388866D01*
X107071843Y-48434708D01*
X107130158Y-48477077D01*
X107173512Y-48533300D01*
X107179587Y-48604036D01*
X107177094Y-48614168D01*
X107170731Y-48636070D01*
X107168430Y-48648667D01*
X107166193Y-48677084D01*
X107166000Y-48682014D01*
X107166000Y-49098885D01*
X107170475Y-49114124D01*
X107171865Y-49115329D01*
X107179548Y-49117000D01*
X108039500Y-49117000D01*
X108107621Y-49137002D01*
X108154114Y-49190658D01*
X108165500Y-49243000D01*
X108165500Y-50062502D01*
X108165693Y-50064950D01*
X108165693Y-50064958D01*
X108167927Y-50093336D01*
X108168438Y-50099831D01*
X108180228Y-50140413D01*
X108212643Y-50251989D01*
X108212645Y-50251993D01*
X108214855Y-50259601D01*
X108217885Y-50264725D01*
X108228000Y-50313570D01*
X108228000Y-50632878D01*
X108231973Y-50646409D01*
X108239871Y-50647544D01*
X108379786Y-50606894D01*
X108395127Y-50600255D01*
X108465589Y-50591556D01*
X108534266Y-50626796D01*
X115004595Y-57097125D01*
X115038621Y-57159437D01*
X115041500Y-57186220D01*
X115041500Y-107458430D01*
X115040067Y-107477380D01*
X115036801Y-107498849D01*
X115037394Y-107506141D01*
X115037394Y-107506144D01*
X115041085Y-107551518D01*
X115041500Y-107561733D01*
X115041500Y-107569793D01*
X115041925Y-107573437D01*
X115044789Y-107598007D01*
X115045222Y-107602382D01*
X115047567Y-107631206D01*
X115051140Y-107675137D01*
X115053396Y-107682101D01*
X115054587Y-107688060D01*
X115055971Y-107693915D01*
X115056818Y-107701181D01*
X115081735Y-107769827D01*
X115083152Y-107773955D01*
X115105649Y-107843399D01*
X115109445Y-107849654D01*
X115111951Y-107855128D01*
X115114670Y-107860558D01*
X115117167Y-107867437D01*
X115121180Y-107873557D01*
X115121180Y-107873558D01*
X115157186Y-107928476D01*
X115159523Y-107932180D01*
X115197405Y-107994607D01*
X115201121Y-107998815D01*
X115201122Y-107998816D01*
X115204803Y-108002984D01*
X115204776Y-108003008D01*
X115207429Y-108006000D01*
X115210132Y-108009233D01*
X115214144Y-108015352D01*
X115270383Y-108068628D01*
X115272825Y-108071006D01*
X117998613Y-110796794D01*
X118032639Y-110859106D01*
X118028026Y-110923595D01*
X118061116Y-110913350D01*
X118129523Y-110932350D01*
X118152060Y-110950241D01*
X119460829Y-112259010D01*
X119494855Y-112321322D01*
X119497255Y-112359087D01*
X119483002Y-112522000D01*
X119502957Y-112750087D01*
X119562216Y-112971243D01*
X119564539Y-112976224D01*
X119564539Y-112976225D01*
X119656651Y-113173762D01*
X119656654Y-113173767D01*
X119658977Y-113178749D01*
X119790302Y-113366300D01*
X119952200Y-113528198D01*
X119956711Y-113531357D01*
X119960924Y-113534892D01*
X119959973Y-113536026D01*
X119999971Y-113586071D01*
X120007276Y-113656690D01*
X119975242Y-113720049D01*
X119914038Y-113756030D01*
X119896983Y-113759082D01*
X119886184Y-113760255D01*
X119749795Y-113811385D01*
X119633239Y-113898739D01*
X119545885Y-114015295D01*
X119494755Y-114151684D01*
X119488000Y-114213866D01*
X119488000Y-115910134D01*
X119494755Y-115972316D01*
X119545885Y-116108705D01*
X119633239Y-116225261D01*
X119749795Y-116312615D01*
X119886184Y-116363745D01*
X119948366Y-116370500D01*
X121644634Y-116370500D01*
X121706816Y-116363745D01*
X121843205Y-116312615D01*
X121959761Y-116225261D01*
X122047115Y-116108705D01*
X122098245Y-115972316D01*
X122105000Y-115910134D01*
X122105000Y-114213866D01*
X122098245Y-114151684D01*
X122047115Y-114015295D01*
X121959761Y-113898739D01*
X121843205Y-113811385D01*
X121706816Y-113760255D01*
X121696026Y-113759083D01*
X121693894Y-113758197D01*
X121691278Y-113757575D01*
X121691379Y-113757152D01*
X121630465Y-113731845D01*
X121590037Y-113673483D01*
X121587578Y-113602529D01*
X121623871Y-113541510D01*
X121632531Y-113534511D01*
X121636293Y-113531354D01*
X121640800Y-113528198D01*
X121802698Y-113366300D01*
X121934023Y-113178749D01*
X121936346Y-113173767D01*
X121936349Y-113173762D01*
X122028461Y-112976225D01*
X122028461Y-112976224D01*
X122030784Y-112971243D01*
X122090043Y-112750087D01*
X122109998Y-112522000D01*
X122090043Y-112293913D01*
X122080691Y-112259010D01*
X122032207Y-112078067D01*
X122032206Y-112078065D01*
X122030784Y-112072757D01*
X121957922Y-111916503D01*
X121936349Y-111870238D01*
X121936346Y-111870233D01*
X121934023Y-111865251D01*
X121802698Y-111677700D01*
X121640800Y-111515802D01*
X121636292Y-111512645D01*
X121636289Y-111512643D01*
X121507630Y-111422555D01*
X121453249Y-111384477D01*
X121448267Y-111382154D01*
X121448262Y-111382151D01*
X121414043Y-111366195D01*
X121360758Y-111319278D01*
X121341297Y-111251001D01*
X121361839Y-111183041D01*
X121414043Y-111137805D01*
X121448262Y-111121849D01*
X121448267Y-111121846D01*
X121453249Y-111119523D01*
X121581102Y-111029999D01*
X121636289Y-110991357D01*
X121636292Y-110991355D01*
X121640800Y-110988198D01*
X121802698Y-110826300D01*
X121823359Y-110796794D01*
X121895339Y-110693995D01*
X121934023Y-110638749D01*
X121936346Y-110633767D01*
X121936349Y-110633762D01*
X122028461Y-110436225D01*
X122028461Y-110436224D01*
X122030784Y-110431243D01*
X122090043Y-110210087D01*
X122109998Y-109982000D01*
X122090043Y-109753913D01*
X122030784Y-109532757D01*
X122028461Y-109527775D01*
X121936349Y-109330238D01*
X121936346Y-109330233D01*
X121934023Y-109325251D01*
X121839096Y-109189681D01*
X121805857Y-109142211D01*
X121805855Y-109142208D01*
X121802698Y-109137700D01*
X121640800Y-108975802D01*
X121636292Y-108972645D01*
X121636289Y-108972643D01*
X121500095Y-108877279D01*
X121453249Y-108844477D01*
X121448267Y-108842154D01*
X121448262Y-108842151D01*
X121413451Y-108825919D01*
X121360166Y-108779002D01*
X121340705Y-108710725D01*
X121361247Y-108642765D01*
X121413451Y-108597529D01*
X121448011Y-108581414D01*
X121457506Y-108575931D01*
X121509548Y-108539491D01*
X121517924Y-108529012D01*
X121510856Y-108515566D01*
X120809312Y-107814022D01*
X120795368Y-107806408D01*
X120793535Y-107806539D01*
X120786920Y-107810790D01*
X120081423Y-108516287D01*
X120074993Y-108528062D01*
X120084289Y-108540077D01*
X120135494Y-108575931D01*
X120144989Y-108581414D01*
X120179549Y-108597529D01*
X120232834Y-108644446D01*
X120252295Y-108712723D01*
X120231753Y-108780683D01*
X120179549Y-108825919D01*
X120144738Y-108842151D01*
X120144733Y-108842154D01*
X120139751Y-108844477D01*
X120092905Y-108877279D01*
X119956711Y-108972643D01*
X119956708Y-108972645D01*
X119952200Y-108975802D01*
X119790302Y-109137700D01*
X119787145Y-109142208D01*
X119787143Y-109142211D01*
X119753904Y-109189681D01*
X119658977Y-109325251D01*
X119656654Y-109330233D01*
X119656651Y-109330238D01*
X119564539Y-109527775D01*
X119562216Y-109532757D01*
X119502957Y-109753913D01*
X119502478Y-109759393D01*
X119494177Y-109854267D01*
X119468313Y-109920385D01*
X119410810Y-109962024D01*
X119339923Y-109965965D01*
X119279561Y-109932380D01*
X116794656Y-107447475D01*
X119483983Y-107447475D01*
X119502972Y-107664519D01*
X119504875Y-107675312D01*
X119561264Y-107885761D01*
X119565010Y-107896053D01*
X119657086Y-108093511D01*
X119662569Y-108103006D01*
X119699009Y-108155048D01*
X119709488Y-108163424D01*
X119722934Y-108156356D01*
X120424478Y-107454812D01*
X120430856Y-107443132D01*
X121160908Y-107443132D01*
X121161039Y-107444965D01*
X121165290Y-107451580D01*
X121870787Y-108157077D01*
X121882562Y-108163507D01*
X121894577Y-108154211D01*
X121930431Y-108103006D01*
X121935914Y-108093511D01*
X122027990Y-107896053D01*
X122031736Y-107885761D01*
X122088125Y-107675312D01*
X122090028Y-107664519D01*
X122109017Y-107447475D01*
X122109017Y-107436525D01*
X122090028Y-107219481D01*
X122088125Y-107208688D01*
X122031736Y-106998239D01*
X122027990Y-106987947D01*
X121935914Y-106790489D01*
X121930431Y-106780994D01*
X121893991Y-106728952D01*
X121883512Y-106720576D01*
X121870066Y-106727644D01*
X121168522Y-107429188D01*
X121160908Y-107443132D01*
X120430856Y-107443132D01*
X120432092Y-107440868D01*
X120431961Y-107439035D01*
X120427710Y-107432420D01*
X119722213Y-106726923D01*
X119710438Y-106720493D01*
X119698423Y-106729789D01*
X119662569Y-106780994D01*
X119657086Y-106790489D01*
X119565010Y-106987947D01*
X119561264Y-106998239D01*
X119504875Y-107208688D01*
X119502972Y-107219481D01*
X119483983Y-107436525D01*
X119483983Y-107447475D01*
X116794656Y-107447475D01*
X116595405Y-107248224D01*
X116561379Y-107185912D01*
X116558500Y-107159129D01*
X116558500Y-86800871D01*
X116578502Y-86732750D01*
X116632158Y-86686257D01*
X116702432Y-86676153D01*
X116767012Y-86705647D01*
X116773595Y-86711776D01*
X119460829Y-89399010D01*
X119494855Y-89461322D01*
X119497255Y-89499087D01*
X119483002Y-89662000D01*
X119502957Y-89890087D01*
X119562216Y-90111243D01*
X119564539Y-90116224D01*
X119564539Y-90116225D01*
X119656651Y-90313762D01*
X119656654Y-90313767D01*
X119658977Y-90318749D01*
X119790302Y-90506300D01*
X119952200Y-90668198D01*
X119956708Y-90671355D01*
X119956711Y-90671357D01*
X120034889Y-90726098D01*
X120139751Y-90799523D01*
X120144733Y-90801846D01*
X120144738Y-90801849D01*
X120178957Y-90817805D01*
X120232242Y-90864722D01*
X120251703Y-90932999D01*
X120231161Y-91000959D01*
X120178957Y-91046195D01*
X120144738Y-91062151D01*
X120144733Y-91062154D01*
X120139751Y-91064477D01*
X120034889Y-91137902D01*
X119956711Y-91192643D01*
X119956708Y-91192645D01*
X119952200Y-91195802D01*
X119790302Y-91357700D01*
X119658977Y-91545251D01*
X119656654Y-91550233D01*
X119656651Y-91550238D01*
X119564539Y-91747775D01*
X119562216Y-91752757D01*
X119502957Y-91973913D01*
X119483002Y-92202000D01*
X119502957Y-92430087D01*
X119562216Y-92651243D01*
X119564539Y-92656224D01*
X119564539Y-92656225D01*
X119656651Y-92853762D01*
X119656654Y-92853767D01*
X119658977Y-92858749D01*
X119790302Y-93046300D01*
X119952200Y-93208198D01*
X119956708Y-93211355D01*
X119956711Y-93211357D01*
X120034889Y-93266098D01*
X120139751Y-93339523D01*
X120144733Y-93341846D01*
X120144738Y-93341849D01*
X120178957Y-93357805D01*
X120232242Y-93404722D01*
X120251703Y-93472999D01*
X120231161Y-93540959D01*
X120178957Y-93586195D01*
X120144738Y-93602151D01*
X120144733Y-93602154D01*
X120139751Y-93604477D01*
X120034889Y-93677902D01*
X119956711Y-93732643D01*
X119956708Y-93732645D01*
X119952200Y-93735802D01*
X119790302Y-93897700D01*
X119658977Y-94085251D01*
X119656654Y-94090233D01*
X119656651Y-94090238D01*
X119564539Y-94287775D01*
X119562216Y-94292757D01*
X119502957Y-94513913D01*
X119483002Y-94742000D01*
X119502957Y-94970087D01*
X119562216Y-95191243D01*
X119564539Y-95196224D01*
X119564539Y-95196225D01*
X119656651Y-95393762D01*
X119656654Y-95393767D01*
X119658977Y-95398749D01*
X119790302Y-95586300D01*
X119952200Y-95748198D01*
X119956708Y-95751355D01*
X119956711Y-95751357D01*
X120034889Y-95806098D01*
X120139751Y-95879523D01*
X120144733Y-95881846D01*
X120144738Y-95881849D01*
X120178957Y-95897805D01*
X120232242Y-95944722D01*
X120251703Y-96012999D01*
X120231161Y-96080959D01*
X120178957Y-96126195D01*
X120144738Y-96142151D01*
X120144733Y-96142154D01*
X120139751Y-96144477D01*
X120034889Y-96217902D01*
X119956711Y-96272643D01*
X119956708Y-96272645D01*
X119952200Y-96275802D01*
X119790302Y-96437700D01*
X119658977Y-96625251D01*
X119656654Y-96630233D01*
X119656651Y-96630238D01*
X119564539Y-96827775D01*
X119562216Y-96832757D01*
X119502957Y-97053913D01*
X119483002Y-97282000D01*
X119502957Y-97510087D01*
X119562216Y-97731243D01*
X119564539Y-97736224D01*
X119564539Y-97736225D01*
X119656651Y-97933762D01*
X119656654Y-97933767D01*
X119658977Y-97938749D01*
X119790302Y-98126300D01*
X119952200Y-98288198D01*
X119956708Y-98291355D01*
X119956711Y-98291357D01*
X120034889Y-98346098D01*
X120139751Y-98419523D01*
X120144733Y-98421846D01*
X120144738Y-98421849D01*
X120178957Y-98437805D01*
X120232242Y-98484722D01*
X120251703Y-98552999D01*
X120231161Y-98620959D01*
X120178957Y-98666195D01*
X120144738Y-98682151D01*
X120144733Y-98682154D01*
X120139751Y-98684477D01*
X120034889Y-98757902D01*
X119956711Y-98812643D01*
X119956708Y-98812645D01*
X119952200Y-98815802D01*
X119790302Y-98977700D01*
X119658977Y-99165251D01*
X119656654Y-99170233D01*
X119656651Y-99170238D01*
X119564539Y-99367775D01*
X119562216Y-99372757D01*
X119502957Y-99593913D01*
X119483002Y-99822000D01*
X119502957Y-100050087D01*
X119562216Y-100271243D01*
X119564539Y-100276224D01*
X119564539Y-100276225D01*
X119656651Y-100473762D01*
X119656654Y-100473767D01*
X119658977Y-100478749D01*
X119790302Y-100666300D01*
X119952200Y-100828198D01*
X119956708Y-100831355D01*
X119956711Y-100831357D01*
X120034889Y-100886098D01*
X120139751Y-100959523D01*
X120144733Y-100961846D01*
X120144738Y-100961849D01*
X120178957Y-100977805D01*
X120232242Y-101024722D01*
X120251703Y-101092999D01*
X120231161Y-101160959D01*
X120178957Y-101206195D01*
X120144738Y-101222151D01*
X120144733Y-101222154D01*
X120139751Y-101224477D01*
X120034889Y-101297902D01*
X119956711Y-101352643D01*
X119956708Y-101352645D01*
X119952200Y-101355802D01*
X119790302Y-101517700D01*
X119658977Y-101705251D01*
X119656654Y-101710233D01*
X119656651Y-101710238D01*
X119564539Y-101907775D01*
X119562216Y-101912757D01*
X119502957Y-102133913D01*
X119483002Y-102362000D01*
X119502957Y-102590087D01*
X119562216Y-102811243D01*
X119564539Y-102816224D01*
X119564539Y-102816225D01*
X119656651Y-103013762D01*
X119656654Y-103013767D01*
X119658977Y-103018749D01*
X119790302Y-103206300D01*
X119952200Y-103368198D01*
X119956708Y-103371355D01*
X119956711Y-103371357D01*
X120034889Y-103426098D01*
X120139751Y-103499523D01*
X120144733Y-103501846D01*
X120144738Y-103501849D01*
X120178957Y-103517805D01*
X120232242Y-103564722D01*
X120251703Y-103632999D01*
X120231161Y-103700959D01*
X120178957Y-103746195D01*
X120144738Y-103762151D01*
X120144733Y-103762154D01*
X120139751Y-103764477D01*
X120034889Y-103837902D01*
X119956711Y-103892643D01*
X119956708Y-103892645D01*
X119952200Y-103895802D01*
X119790302Y-104057700D01*
X119658977Y-104245251D01*
X119656654Y-104250233D01*
X119656651Y-104250238D01*
X119564539Y-104447775D01*
X119562216Y-104452757D01*
X119502957Y-104673913D01*
X119483002Y-104902000D01*
X119502957Y-105130087D01*
X119562216Y-105351243D01*
X119564539Y-105356224D01*
X119564539Y-105356225D01*
X119656651Y-105553762D01*
X119656654Y-105553767D01*
X119658977Y-105558749D01*
X119790302Y-105746300D01*
X119952200Y-105908198D01*
X119956708Y-105911355D01*
X119956711Y-105911357D01*
X120034889Y-105966098D01*
X120139751Y-106039523D01*
X120144733Y-106041846D01*
X120144738Y-106041849D01*
X120179549Y-106058081D01*
X120232834Y-106104998D01*
X120252295Y-106173275D01*
X120231753Y-106241235D01*
X120179549Y-106286471D01*
X120144989Y-106302586D01*
X120135494Y-106308069D01*
X120083452Y-106344509D01*
X120075076Y-106354988D01*
X120082144Y-106368434D01*
X120783688Y-107069978D01*
X120797632Y-107077592D01*
X120799465Y-107077461D01*
X120806080Y-107073210D01*
X121511577Y-106367713D01*
X121518007Y-106355938D01*
X121508711Y-106343923D01*
X121457506Y-106308069D01*
X121448011Y-106302586D01*
X121413451Y-106286471D01*
X121360166Y-106239554D01*
X121340705Y-106171277D01*
X121361247Y-106103317D01*
X121413451Y-106058081D01*
X121448262Y-106041849D01*
X121448267Y-106041846D01*
X121453249Y-106039523D01*
X121558111Y-105966098D01*
X121636289Y-105911357D01*
X121636292Y-105911355D01*
X121640800Y-105908198D01*
X121802698Y-105746300D01*
X121934023Y-105558749D01*
X121936346Y-105553767D01*
X121936349Y-105553762D01*
X122028461Y-105356225D01*
X122028461Y-105356224D01*
X122030784Y-105351243D01*
X122090043Y-105130087D01*
X122109998Y-104902000D01*
X122090043Y-104673913D01*
X122030784Y-104452757D01*
X122028461Y-104447775D01*
X121936349Y-104250238D01*
X121936346Y-104250233D01*
X121934023Y-104245251D01*
X121802698Y-104057700D01*
X121640800Y-103895802D01*
X121636292Y-103892645D01*
X121636289Y-103892643D01*
X121558111Y-103837902D01*
X121453249Y-103764477D01*
X121448267Y-103762154D01*
X121448262Y-103762151D01*
X121414043Y-103746195D01*
X121360758Y-103699278D01*
X121341297Y-103631001D01*
X121361839Y-103563041D01*
X121414043Y-103517805D01*
X121448262Y-103501849D01*
X121448267Y-103501846D01*
X121453249Y-103499523D01*
X121558111Y-103426098D01*
X121636289Y-103371357D01*
X121636292Y-103371355D01*
X121640800Y-103368198D01*
X121802698Y-103206300D01*
X121934023Y-103018749D01*
X121936346Y-103013767D01*
X121936349Y-103013762D01*
X122028461Y-102816225D01*
X122028461Y-102816224D01*
X122030784Y-102811243D01*
X122090043Y-102590087D01*
X122109998Y-102362000D01*
X122090043Y-102133913D01*
X122030784Y-101912757D01*
X122028461Y-101907775D01*
X121936349Y-101710238D01*
X121936346Y-101710233D01*
X121934023Y-101705251D01*
X121802698Y-101517700D01*
X121640800Y-101355802D01*
X121636292Y-101352645D01*
X121636289Y-101352643D01*
X121558111Y-101297902D01*
X121453249Y-101224477D01*
X121448267Y-101222154D01*
X121448262Y-101222151D01*
X121414043Y-101206195D01*
X121360758Y-101159278D01*
X121341297Y-101091001D01*
X121361839Y-101023041D01*
X121414043Y-100977805D01*
X121448262Y-100961849D01*
X121448267Y-100961846D01*
X121453249Y-100959523D01*
X121558111Y-100886098D01*
X121636289Y-100831357D01*
X121636292Y-100831355D01*
X121640800Y-100828198D01*
X121802698Y-100666300D01*
X121934023Y-100478749D01*
X121936346Y-100473767D01*
X121936349Y-100473762D01*
X122028461Y-100276225D01*
X122028461Y-100276224D01*
X122030784Y-100271243D01*
X122090043Y-100050087D01*
X122109998Y-99822000D01*
X122090043Y-99593913D01*
X122030784Y-99372757D01*
X122028461Y-99367775D01*
X121936349Y-99170238D01*
X121936346Y-99170233D01*
X121934023Y-99165251D01*
X121802698Y-98977700D01*
X121640800Y-98815802D01*
X121636292Y-98812645D01*
X121636289Y-98812643D01*
X121558111Y-98757902D01*
X121453249Y-98684477D01*
X121448267Y-98682154D01*
X121448262Y-98682151D01*
X121414043Y-98666195D01*
X121360758Y-98619278D01*
X121341297Y-98551001D01*
X121361839Y-98483041D01*
X121414043Y-98437805D01*
X121448262Y-98421849D01*
X121448267Y-98421846D01*
X121453249Y-98419523D01*
X121558111Y-98346098D01*
X121636289Y-98291357D01*
X121636292Y-98291355D01*
X121640800Y-98288198D01*
X121802698Y-98126300D01*
X121934023Y-97938749D01*
X121936346Y-97933767D01*
X121936349Y-97933762D01*
X122028461Y-97736225D01*
X122028461Y-97736224D01*
X122030784Y-97731243D01*
X122090043Y-97510087D01*
X122109998Y-97282000D01*
X122090043Y-97053913D01*
X122030784Y-96832757D01*
X122028461Y-96827775D01*
X121936349Y-96630238D01*
X121936346Y-96630233D01*
X121934023Y-96625251D01*
X121802698Y-96437700D01*
X121640800Y-96275802D01*
X121636292Y-96272645D01*
X121636289Y-96272643D01*
X121558111Y-96217902D01*
X121453249Y-96144477D01*
X121448267Y-96142154D01*
X121448262Y-96142151D01*
X121414043Y-96126195D01*
X121360758Y-96079278D01*
X121341297Y-96011001D01*
X121361839Y-95943041D01*
X121414043Y-95897805D01*
X121448262Y-95881849D01*
X121448267Y-95881846D01*
X121453249Y-95879523D01*
X121558111Y-95806098D01*
X121636289Y-95751357D01*
X121636292Y-95751355D01*
X121640800Y-95748198D01*
X121802698Y-95586300D01*
X121934023Y-95398749D01*
X121936346Y-95393767D01*
X121936349Y-95393762D01*
X122028461Y-95196225D01*
X122028461Y-95196224D01*
X122030784Y-95191243D01*
X122090043Y-94970087D01*
X122109998Y-94742000D01*
X122090043Y-94513913D01*
X122030784Y-94292757D01*
X122028461Y-94287775D01*
X121936349Y-94090238D01*
X121936346Y-94090233D01*
X121934023Y-94085251D01*
X121802698Y-93897700D01*
X121640800Y-93735802D01*
X121636292Y-93732645D01*
X121636289Y-93732643D01*
X121558111Y-93677902D01*
X121453249Y-93604477D01*
X121448267Y-93602154D01*
X121448262Y-93602151D01*
X121414043Y-93586195D01*
X121360758Y-93539278D01*
X121341297Y-93471001D01*
X121361839Y-93403041D01*
X121414043Y-93357805D01*
X121448262Y-93341849D01*
X121448267Y-93341846D01*
X121453249Y-93339523D01*
X121558111Y-93266098D01*
X121636289Y-93211357D01*
X121636292Y-93211355D01*
X121640800Y-93208198D01*
X121802698Y-93046300D01*
X121934023Y-92858749D01*
X121936346Y-92853767D01*
X121936349Y-92853762D01*
X122028461Y-92656225D01*
X122028461Y-92656224D01*
X122030784Y-92651243D01*
X122090043Y-92430087D01*
X122109998Y-92202000D01*
X122090043Y-91973913D01*
X122030784Y-91752757D01*
X122028461Y-91747775D01*
X121936349Y-91550238D01*
X121936346Y-91550233D01*
X121934023Y-91545251D01*
X121802698Y-91357700D01*
X121640800Y-91195802D01*
X121636292Y-91192645D01*
X121636289Y-91192643D01*
X121558111Y-91137902D01*
X121453249Y-91064477D01*
X121448267Y-91062154D01*
X121448262Y-91062151D01*
X121414043Y-91046195D01*
X121360758Y-90999278D01*
X121341297Y-90931001D01*
X121361839Y-90863041D01*
X121414043Y-90817805D01*
X121448262Y-90801849D01*
X121448267Y-90801846D01*
X121453249Y-90799523D01*
X121558111Y-90726098D01*
X121636289Y-90671357D01*
X121636292Y-90671355D01*
X121640800Y-90668198D01*
X121802698Y-90506300D01*
X121934023Y-90318749D01*
X121936346Y-90313767D01*
X121936349Y-90313762D01*
X122028461Y-90116225D01*
X122028461Y-90116224D01*
X122030784Y-90111243D01*
X122090043Y-89890087D01*
X122109998Y-89662000D01*
X122090043Y-89433913D01*
X122030784Y-89212757D01*
X122028461Y-89207775D01*
X121936349Y-89010238D01*
X121936346Y-89010233D01*
X121934023Y-89005251D01*
X121802698Y-88817700D01*
X121640800Y-88655802D01*
X121636292Y-88652645D01*
X121636289Y-88652643D01*
X121558111Y-88597902D01*
X121453249Y-88524477D01*
X121448267Y-88522154D01*
X121448262Y-88522151D01*
X121414043Y-88506195D01*
X121360758Y-88459278D01*
X121341297Y-88391001D01*
X121361839Y-88323041D01*
X121414043Y-88277805D01*
X121448262Y-88261849D01*
X121448267Y-88261846D01*
X121453249Y-88259523D01*
X121558111Y-88186098D01*
X121636289Y-88131357D01*
X121636292Y-88131355D01*
X121640800Y-88128198D01*
X121802698Y-87966300D01*
X121934023Y-87778749D01*
X121936346Y-87773767D01*
X121936349Y-87773762D01*
X122028461Y-87576225D01*
X122028461Y-87576224D01*
X122030784Y-87571243D01*
X122090043Y-87350087D01*
X122109998Y-87122000D01*
X122090043Y-86893913D01*
X122039597Y-86705647D01*
X122032207Y-86678067D01*
X122032206Y-86678065D01*
X122030784Y-86672757D01*
X121948679Y-86496681D01*
X121936349Y-86470238D01*
X121936346Y-86470233D01*
X121934023Y-86465251D01*
X121802698Y-86277700D01*
X121640800Y-86115802D01*
X121636292Y-86112645D01*
X121636289Y-86112643D01*
X121558111Y-86057902D01*
X121453249Y-85984477D01*
X121448267Y-85982154D01*
X121448262Y-85982151D01*
X121414043Y-85966195D01*
X121360758Y-85919278D01*
X121341297Y-85851001D01*
X121361839Y-85783041D01*
X121414043Y-85737805D01*
X121448262Y-85721849D01*
X121448267Y-85721846D01*
X121453249Y-85719523D01*
X121558111Y-85646098D01*
X121636289Y-85591357D01*
X121636292Y-85591355D01*
X121640800Y-85588198D01*
X121802698Y-85426300D01*
X121934023Y-85238749D01*
X121936346Y-85233767D01*
X121936349Y-85233762D01*
X122028461Y-85036225D01*
X122028461Y-85036224D01*
X122030784Y-85031243D01*
X122090043Y-84810087D01*
X122109998Y-84582000D01*
X122090043Y-84353913D01*
X122030784Y-84132757D01*
X122028461Y-84127775D01*
X121936349Y-83930238D01*
X121936346Y-83930233D01*
X121934023Y-83925251D01*
X121802698Y-83737700D01*
X121640800Y-83575802D01*
X121636292Y-83572645D01*
X121636289Y-83572643D01*
X121558111Y-83517902D01*
X121453249Y-83444477D01*
X121448267Y-83442154D01*
X121448262Y-83442151D01*
X121414043Y-83426195D01*
X121360758Y-83379278D01*
X121341297Y-83311001D01*
X121361839Y-83243041D01*
X121414043Y-83197805D01*
X121448262Y-83181849D01*
X121448267Y-83181846D01*
X121453249Y-83179523D01*
X121558111Y-83106098D01*
X121636289Y-83051357D01*
X121636292Y-83051355D01*
X121640800Y-83048198D01*
X121802698Y-82886300D01*
X121934023Y-82698749D01*
X121936346Y-82693767D01*
X121936349Y-82693762D01*
X122028461Y-82496225D01*
X122028461Y-82496224D01*
X122030784Y-82491243D01*
X122090043Y-82270087D01*
X122109998Y-82042000D01*
X122090043Y-81813913D01*
X122030784Y-81592757D01*
X122028461Y-81587775D01*
X121936349Y-81390238D01*
X121936346Y-81390233D01*
X121934023Y-81385251D01*
X121802698Y-81197700D01*
X121640800Y-81035802D01*
X121636292Y-81032645D01*
X121636289Y-81032643D01*
X121558111Y-80977902D01*
X121453249Y-80904477D01*
X121448267Y-80902154D01*
X121448262Y-80902151D01*
X121414043Y-80886195D01*
X121360758Y-80839278D01*
X121341297Y-80771001D01*
X121361839Y-80703041D01*
X121414043Y-80657805D01*
X121448262Y-80641849D01*
X121448267Y-80641846D01*
X121453249Y-80639523D01*
X121558111Y-80566098D01*
X121636289Y-80511357D01*
X121636292Y-80511355D01*
X121640800Y-80508198D01*
X121802698Y-80346300D01*
X121934023Y-80158749D01*
X121936346Y-80153767D01*
X121936349Y-80153762D01*
X122028461Y-79956225D01*
X122028461Y-79956224D01*
X122030784Y-79951243D01*
X122090043Y-79730087D01*
X122109998Y-79502000D01*
X122090043Y-79273913D01*
X122030784Y-79052757D01*
X122028461Y-79047775D01*
X121936349Y-78850238D01*
X121936346Y-78850233D01*
X121934023Y-78845251D01*
X121802698Y-78657700D01*
X121640800Y-78495802D01*
X121636292Y-78492645D01*
X121636289Y-78492643D01*
X121558111Y-78437902D01*
X121453249Y-78364477D01*
X121448267Y-78362154D01*
X121448262Y-78362151D01*
X121414043Y-78346195D01*
X121360758Y-78299278D01*
X121341297Y-78231001D01*
X121361839Y-78163041D01*
X121414043Y-78117805D01*
X121448262Y-78101849D01*
X121448267Y-78101846D01*
X121453249Y-78099523D01*
X121558111Y-78026098D01*
X121636289Y-77971357D01*
X121636292Y-77971355D01*
X121640800Y-77968198D01*
X121802698Y-77806300D01*
X121934023Y-77618749D01*
X121936346Y-77613767D01*
X121936349Y-77613762D01*
X122028461Y-77416225D01*
X122028461Y-77416224D01*
X122030784Y-77411243D01*
X122090043Y-77190087D01*
X122109998Y-76962000D01*
X122090043Y-76733913D01*
X122030784Y-76512757D01*
X122028461Y-76507775D01*
X121936349Y-76310238D01*
X121936346Y-76310233D01*
X121934023Y-76305251D01*
X121802698Y-76117700D01*
X121640800Y-75955802D01*
X121636292Y-75952645D01*
X121636289Y-75952643D01*
X121558111Y-75897902D01*
X121453249Y-75824477D01*
X121448267Y-75822154D01*
X121448262Y-75822151D01*
X121250725Y-75730039D01*
X121250724Y-75730039D01*
X121245743Y-75727716D01*
X121240435Y-75726294D01*
X121240433Y-75726293D01*
X121029902Y-75669881D01*
X121029900Y-75669881D01*
X121024587Y-75668457D01*
X120796500Y-75648502D01*
X120568413Y-75668457D01*
X120563100Y-75669881D01*
X120563098Y-75669881D01*
X120352567Y-75726293D01*
X120352565Y-75726294D01*
X120347257Y-75727716D01*
X120342276Y-75730039D01*
X120342275Y-75730039D01*
X120144738Y-75822151D01*
X120144733Y-75822154D01*
X120139751Y-75824477D01*
X120034889Y-75897902D01*
X119956711Y-75952643D01*
X119956708Y-75952645D01*
X119952200Y-75955802D01*
X119790302Y-76117700D01*
X119658977Y-76305251D01*
X119656654Y-76310233D01*
X119656651Y-76310238D01*
X119564539Y-76507775D01*
X119562216Y-76512757D01*
X119502957Y-76733913D01*
X119483002Y-76962000D01*
X119502957Y-77190087D01*
X119562216Y-77411243D01*
X119564539Y-77416224D01*
X119564539Y-77416225D01*
X119656651Y-77613762D01*
X119656654Y-77613767D01*
X119658977Y-77618749D01*
X119790302Y-77806300D01*
X119952200Y-77968198D01*
X119956708Y-77971355D01*
X119956711Y-77971357D01*
X120034889Y-78026098D01*
X120139751Y-78099523D01*
X120144733Y-78101846D01*
X120144738Y-78101849D01*
X120178957Y-78117805D01*
X120232242Y-78164722D01*
X120251703Y-78232999D01*
X120231161Y-78300959D01*
X120178957Y-78346195D01*
X120144738Y-78362151D01*
X120144733Y-78362154D01*
X120139751Y-78364477D01*
X120034889Y-78437902D01*
X119956711Y-78492643D01*
X119956708Y-78492645D01*
X119952200Y-78495802D01*
X119790302Y-78657700D01*
X119658977Y-78845251D01*
X119656654Y-78850233D01*
X119656651Y-78850238D01*
X119564539Y-79047775D01*
X119562216Y-79052757D01*
X119502957Y-79273913D01*
X119483002Y-79502000D01*
X119502957Y-79730087D01*
X119562216Y-79951243D01*
X119564539Y-79956224D01*
X119564539Y-79956225D01*
X119656651Y-80153762D01*
X119656654Y-80153767D01*
X119658977Y-80158749D01*
X119790302Y-80346300D01*
X119952200Y-80508198D01*
X119956708Y-80511355D01*
X119956711Y-80511357D01*
X120034889Y-80566098D01*
X120139751Y-80639523D01*
X120144733Y-80641846D01*
X120144738Y-80641849D01*
X120178957Y-80657805D01*
X120232242Y-80704722D01*
X120251703Y-80772999D01*
X120231161Y-80840959D01*
X120178957Y-80886195D01*
X120144738Y-80902151D01*
X120144733Y-80902154D01*
X120139751Y-80904477D01*
X120034889Y-80977902D01*
X119956711Y-81032643D01*
X119956708Y-81032645D01*
X119952200Y-81035802D01*
X119790302Y-81197700D01*
X119658977Y-81385251D01*
X119656654Y-81390233D01*
X119656651Y-81390238D01*
X119564539Y-81587775D01*
X119562216Y-81592757D01*
X119502957Y-81813913D01*
X119483002Y-82042000D01*
X119502957Y-82270087D01*
X119562216Y-82491243D01*
X119564539Y-82496224D01*
X119564539Y-82496225D01*
X119656651Y-82693762D01*
X119656654Y-82693767D01*
X119658977Y-82698749D01*
X119790302Y-82886300D01*
X119952200Y-83048198D01*
X119956708Y-83051355D01*
X119956711Y-83051357D01*
X120034889Y-83106098D01*
X120139751Y-83179523D01*
X120144733Y-83181846D01*
X120144738Y-83181849D01*
X120178957Y-83197805D01*
X120232242Y-83244722D01*
X120251703Y-83312999D01*
X120231161Y-83380959D01*
X120178957Y-83426195D01*
X120144738Y-83442151D01*
X120144733Y-83442154D01*
X120139751Y-83444477D01*
X120034889Y-83517902D01*
X119956711Y-83572643D01*
X119956708Y-83572645D01*
X119952200Y-83575802D01*
X119790302Y-83737700D01*
X119658977Y-83925251D01*
X119656654Y-83930233D01*
X119656651Y-83930238D01*
X119564539Y-84127775D01*
X119562216Y-84132757D01*
X119502957Y-84353913D01*
X119502478Y-84359393D01*
X119494177Y-84454267D01*
X119468313Y-84520385D01*
X119410810Y-84562024D01*
X119339923Y-84565965D01*
X119279561Y-84532380D01*
X118394427Y-83647246D01*
X118360401Y-83584934D01*
X118357522Y-83558151D01*
X118357522Y-52185276D01*
X118377524Y-52117155D01*
X118431180Y-52070662D01*
X118501454Y-52060558D01*
X118567182Y-52091059D01*
X118586051Y-52107813D01*
X118790030Y-52242423D01*
X119011089Y-52346635D01*
X119244730Y-52418325D01*
X119486194Y-52456036D01*
X119490689Y-52456091D01*
X119490695Y-52456091D01*
X119606656Y-52457497D01*
X119730568Y-52459000D01*
X119735025Y-52458414D01*
X119735030Y-52458414D01*
X119968418Y-52427742D01*
X119968420Y-52427742D01*
X119972876Y-52427156D01*
X119977201Y-52425943D01*
X119977205Y-52425942D01*
X120203859Y-52362366D01*
X120203863Y-52362365D01*
X120208186Y-52361152D01*
X120431708Y-52262333D01*
X120638892Y-52132709D01*
X120825519Y-51974920D01*
X120851604Y-51945545D01*
X120984800Y-51795547D01*
X120984803Y-51795543D01*
X120987792Y-51792177D01*
X121122406Y-51588201D01*
X121124326Y-51584129D01*
X121224705Y-51371211D01*
X121224707Y-51371207D01*
X121226622Y-51367144D01*
X121227940Y-51362848D01*
X121227943Y-51362841D01*
X121296996Y-51137810D01*
X121296996Y-51137809D01*
X121298317Y-51133505D01*
X121330587Y-50926907D01*
X121333002Y-50915153D01*
X121334490Y-50909332D01*
X121334493Y-50909318D01*
X121335696Y-50904609D01*
X121336896Y-50892113D01*
X121336446Y-50884453D01*
X121335259Y-50864246D01*
X121335481Y-50846345D01*
X121354297Y-50621599D01*
X121368960Y-50446458D01*
X121372441Y-50425788D01*
X121377413Y-50406331D01*
X121378613Y-50393835D01*
X121378233Y-50387367D01*
X121378025Y-50378451D01*
X121380744Y-50153892D01*
X121380744Y-50153886D01*
X121380798Y-50149397D01*
X121348949Y-49907089D01*
X121346934Y-49899906D01*
X121284157Y-49676117D01*
X121284155Y-49676112D01*
X121282940Y-49671780D01*
X121253405Y-49604978D01*
X121185937Y-49452379D01*
X121185935Y-49452375D01*
X121184116Y-49448261D01*
X121093770Y-49303864D01*
X121056872Y-49244890D01*
X121056871Y-49244888D01*
X121054488Y-49241080D01*
X120983223Y-49156793D01*
X120899601Y-49057891D01*
X120899595Y-49057885D01*
X120896695Y-49054455D01*
X120713949Y-48892187D01*
X120509970Y-48757577D01*
X120288911Y-48653365D01*
X120055270Y-48581675D01*
X119813806Y-48543964D01*
X119809311Y-48543909D01*
X119809305Y-48543909D01*
X119693344Y-48542503D01*
X119569432Y-48541000D01*
X119564975Y-48541586D01*
X119564970Y-48541586D01*
X119331582Y-48572258D01*
X119331580Y-48572258D01*
X119327124Y-48572844D01*
X119322799Y-48574057D01*
X119322795Y-48574058D01*
X119096141Y-48637634D01*
X119096137Y-48637635D01*
X119091814Y-48638848D01*
X118868292Y-48737667D01*
X118661108Y-48867291D01*
X118657685Y-48870185D01*
X118657681Y-48870188D01*
X118610426Y-48910142D01*
X118564872Y-48948656D01*
X118499939Y-48977363D01*
X118429793Y-48966407D01*
X118376705Y-48919267D01*
X118357522Y-48852437D01*
X118357522Y-44886085D01*
X118358955Y-44867136D01*
X118361119Y-44852908D01*
X118362220Y-44845673D01*
X118357937Y-44793012D01*
X118357522Y-44782799D01*
X118357522Y-44774729D01*
X118357100Y-44771109D01*
X118357099Y-44771091D01*
X118354230Y-44746483D01*
X118353797Y-44742108D01*
X118348476Y-44676683D01*
X118348475Y-44676680D01*
X118347882Y-44669385D01*
X118345626Y-44662421D01*
X118344435Y-44656462D01*
X118343051Y-44650607D01*
X118342204Y-44643341D01*
X118317287Y-44574695D01*
X118315870Y-44570567D01*
X118295629Y-44508086D01*
X118295628Y-44508084D01*
X118293373Y-44501123D01*
X118289577Y-44494868D01*
X118287071Y-44489394D01*
X118284352Y-44483964D01*
X118281855Y-44477085D01*
X118241831Y-44416038D01*
X118239494Y-44412334D01*
X118204531Y-44354715D01*
X118204527Y-44354710D01*
X118201617Y-44349914D01*
X118194219Y-44341538D01*
X118194245Y-44341515D01*
X118191596Y-44338525D01*
X118188888Y-44335286D01*
X118184878Y-44329170D01*
X118179571Y-44324143D01*
X118179568Y-44324139D01*
X118128639Y-44275894D01*
X118126197Y-44273516D01*
X116223770Y-42371089D01*
X116211384Y-42356677D01*
X116202851Y-42345082D01*
X116202846Y-42345077D01*
X116198508Y-42339182D01*
X116192930Y-42334443D01*
X116192927Y-42334440D01*
X116158232Y-42304965D01*
X116150716Y-42298035D01*
X116145021Y-42292340D01*
X116138880Y-42287482D01*
X116122749Y-42274719D01*
X116119345Y-42271928D01*
X116069297Y-42229409D01*
X116069295Y-42229408D01*
X116063715Y-42224667D01*
X116057199Y-42221339D01*
X116052150Y-42217972D01*
X116047021Y-42214805D01*
X116041284Y-42210266D01*
X115975125Y-42179345D01*
X115971225Y-42177439D01*
X115906192Y-42144231D01*
X115899084Y-42142492D01*
X115893441Y-42140393D01*
X115887678Y-42138476D01*
X115881050Y-42135378D01*
X115809583Y-42120513D01*
X115805299Y-42119543D01*
X115770958Y-42111140D01*
X115734390Y-42102192D01*
X115728788Y-42101844D01*
X115728785Y-42101844D01*
X115723236Y-42101500D01*
X115723238Y-42101464D01*
X115719245Y-42101225D01*
X115715053Y-42100851D01*
X115707885Y-42099360D01*
X115644120Y-42101085D01*
X115630479Y-42101454D01*
X115627072Y-42101500D01*
X109447069Y-42101500D01*
X109428121Y-42100067D01*
X109420780Y-42098950D01*
X109413883Y-42097901D01*
X109413881Y-42097901D01*
X109406651Y-42096801D01*
X109399359Y-42097394D01*
X109399356Y-42097394D01*
X109353982Y-42101085D01*
X109343767Y-42101500D01*
X109335707Y-42101500D01*
X109322417Y-42103049D01*
X109307493Y-42104789D01*
X109303118Y-42105222D01*
X109237661Y-42110546D01*
X109237658Y-42110547D01*
X109230363Y-42111140D01*
X109223399Y-42113396D01*
X109217440Y-42114587D01*
X109211585Y-42115971D01*
X109204319Y-42116818D01*
X109135673Y-42141735D01*
X109131545Y-42143152D01*
X109069064Y-42163393D01*
X109069062Y-42163394D01*
X109062101Y-42165649D01*
X109055846Y-42169445D01*
X109050372Y-42171951D01*
X109044942Y-42174670D01*
X109038063Y-42177167D01*
X108977016Y-42217191D01*
X108973327Y-42219518D01*
X108964843Y-42224667D01*
X108915693Y-42254491D01*
X108915688Y-42254495D01*
X108910892Y-42257405D01*
X108902516Y-42264803D01*
X108902493Y-42264777D01*
X108899503Y-42267426D01*
X108896264Y-42270134D01*
X108890148Y-42274144D01*
X108885121Y-42279451D01*
X108885117Y-42279454D01*
X108836872Y-42330383D01*
X108834494Y-42332825D01*
X107771089Y-43396230D01*
X107756677Y-43408616D01*
X107745082Y-43417149D01*
X107745077Y-43417154D01*
X107739182Y-43421492D01*
X107734443Y-43427070D01*
X107734440Y-43427073D01*
X107704965Y-43461768D01*
X107698035Y-43469284D01*
X107692340Y-43474979D01*
X107690060Y-43477861D01*
X107674719Y-43497251D01*
X107671928Y-43500655D01*
X107629409Y-43550703D01*
X107624667Y-43556285D01*
X107621339Y-43562801D01*
X107617972Y-43567850D01*
X107614805Y-43572979D01*
X107610266Y-43578716D01*
X107579345Y-43644875D01*
X107577442Y-43648769D01*
X107544231Y-43713808D01*
X107542492Y-43720916D01*
X107540393Y-43726559D01*
X107538476Y-43732322D01*
X107535378Y-43738950D01*
X107533888Y-43746112D01*
X107533888Y-43746113D01*
X107520514Y-43810412D01*
X107519544Y-43814696D01*
X107502192Y-43885610D01*
X107501500Y-43896764D01*
X107501464Y-43896762D01*
X107501225Y-43900755D01*
X107500851Y-43904947D01*
X107499360Y-43912115D01*
X107499558Y-43919432D01*
X107501454Y-43989521D01*
X107501500Y-43992928D01*
X107501500Y-44030675D01*
X107481498Y-44098796D01*
X107427842Y-44145289D01*
X107357568Y-44155393D01*
X107335833Y-44150268D01*
X107185389Y-44100368D01*
X107185387Y-44100368D01*
X107178861Y-44098203D01*
X107172025Y-44097503D01*
X107172022Y-44097502D01*
X107128969Y-44093091D01*
X107074400Y-44087500D01*
X106273600Y-44087500D01*
X106270354Y-44087837D01*
X106270350Y-44087837D01*
X106174692Y-44097762D01*
X106174688Y-44097763D01*
X106167834Y-44098474D01*
X106161298Y-44100655D01*
X106161296Y-44100655D01*
X106029194Y-44144728D01*
X106000054Y-44154450D01*
X105849652Y-44247522D01*
X105724695Y-44372697D01*
X105720855Y-44378927D01*
X105720854Y-44378928D01*
X105641240Y-44508086D01*
X105631885Y-44523262D01*
X105576203Y-44691139D01*
X105565500Y-44795600D01*
X105565500Y-46196400D01*
X98658500Y-46196400D01*
X98658500Y-35634500D01*
X98678502Y-35566379D01*
X98732158Y-35519886D01*
X98784500Y-35508500D01*
X122515500Y-35508500D01*
X122583621Y-35528502D01*
G37*
%TD.AperFunction*%
%TD*%
M02*
