%TF.GenerationSoftware,KiCad,Pcbnew,(6.0.4-0)*%
%TF.CreationDate,2022-11-29T11:04:19+01:00*%
%TF.ProjectId,ControllerBoard,436f6e74-726f-46c6-9c65-72426f617264,rev?*%
%TF.SameCoordinates,Original*%
%TF.FileFunction,Legend,Bot*%
%TF.FilePolarity,Positive*%
%FSLAX46Y46*%
G04 Gerber Fmt 4.6, Leading zero omitted, Abs format (unit mm)*
G04 Created by KiCad (PCBNEW (6.0.4-0)) date 2022-11-29 11:04:19*
%MOMM*%
%LPD*%
G01*
G04 APERTURE LIST*
G04 Aperture macros list*
%AMRoundRect*
0 Rectangle with rounded corners*
0 $1 Rounding radius*
0 $2 $3 $4 $5 $6 $7 $8 $9 X,Y pos of 4 corners*
0 Add a 4 corners polygon primitive as box body*
4,1,4,$2,$3,$4,$5,$6,$7,$8,$9,$2,$3,0*
0 Add four circle primitives for the rounded corners*
1,1,$1+$1,$2,$3*
1,1,$1+$1,$4,$5*
1,1,$1+$1,$6,$7*
1,1,$1+$1,$8,$9*
0 Add four rect primitives between the rounded corners*
20,1,$1+$1,$2,$3,$4,$5,0*
20,1,$1+$1,$4,$5,$6,$7,0*
20,1,$1+$1,$6,$7,$8,$9,0*
20,1,$1+$1,$8,$9,$2,$3,0*%
G04 Aperture macros list end*
%ADD10C,0.150000*%
%ADD11C,0.120000*%
%ADD12RoundRect,0.250000X0.750000X-0.600000X0.750000X0.600000X-0.750000X0.600000X-0.750000X-0.600000X0*%
%ADD13O,2.000000X1.700000*%
%ADD14R,1.600000X1.600000*%
%ADD15C,1.600000*%
%ADD16O,0.900000X1.500000*%
%ADD17C,2.640000*%
%ADD18R,2.000000X2.000000*%
%ADD19C,2.000000*%
G04 APERTURE END LIST*
D10*
%TO.C,BT1*%
X104728571Y-65914285D02*
X104776190Y-66057142D01*
X104823809Y-66104761D01*
X104919047Y-66152380D01*
X105061904Y-66152380D01*
X105157142Y-66104761D01*
X105204761Y-66057142D01*
X105252380Y-65961904D01*
X105252380Y-65580952D01*
X104252380Y-65580952D01*
X104252380Y-65914285D01*
X104300000Y-66009523D01*
X104347619Y-66057142D01*
X104442857Y-66104761D01*
X104538095Y-66104761D01*
X104633333Y-66057142D01*
X104680952Y-66009523D01*
X104728571Y-65914285D01*
X104728571Y-65580952D01*
X104252380Y-66438095D02*
X104252380Y-67009523D01*
X105252380Y-66723809D02*
X104252380Y-66723809D01*
X105252380Y-67866666D02*
X105252380Y-67295238D01*
X105252380Y-67580952D02*
X104252380Y-67580952D01*
X104395238Y-67485714D01*
X104490476Y-67390476D01*
X104538095Y-67295238D01*
X110811428Y-62969047D02*
X110811428Y-63730952D01*
X111192380Y-63350000D02*
X110430476Y-63350000D01*
X110811428Y-121739047D02*
X110811428Y-122500952D01*
D11*
X118400000Y-64850000D02*
X118400000Y-82850000D01*
X116400000Y-100650000D02*
X116400000Y-84850000D01*
X106740000Y-117060000D02*
X114740000Y-117060000D01*
X102235000Y-64130000D02*
X102235000Y-121370000D01*
X108740000Y-115060000D02*
X112740000Y-115060000D01*
X103200000Y-64850000D02*
X118400000Y-64850000D01*
X103200000Y-102650000D02*
X103200000Y-120650000D01*
X105200000Y-84850000D02*
X105200000Y-100650000D01*
X103200000Y-64850000D02*
X103200000Y-82850000D01*
X119365000Y-64130000D02*
X102235000Y-64130000D01*
X102235000Y-121370000D02*
X119365000Y-121370000D01*
X103200000Y-120650000D02*
X118400000Y-120650000D01*
X119365000Y-121370000D02*
X119365000Y-64130000D01*
X113740000Y-116060000D02*
X107740000Y-116060000D01*
X109740000Y-114060000D02*
X111740000Y-114060000D01*
X118400000Y-102650000D02*
X118400000Y-120650000D01*
X105200000Y-84850000D02*
G75*
G03*
X103200000Y-82850000I-2000000J0D01*
G01*
X103200000Y-102650000D02*
G75*
G03*
X105200000Y-100650000I0J2000000D01*
G01*
X116400000Y-100650000D02*
G75*
G03*
X118400000Y-102650000I2000000J0D01*
G01*
X118400000Y-82850000D02*
G75*
G03*
X116400000Y-84850000I0J-2000000D01*
G01*
%TD*%
%LPC*%
D12*
%TO.C,X1*%
X110650000Y-37050000D03*
D13*
X110650000Y-34550000D03*
%TD*%
D14*
%TO.C,A1*%
X100597500Y-75750000D03*
D15*
X100597500Y-78290000D03*
X100597500Y-80830000D03*
X100597500Y-83370000D03*
X100597500Y-85910000D03*
X100597500Y-88450000D03*
X100597500Y-90990000D03*
X100597500Y-93530000D03*
X100597500Y-96070000D03*
X100597500Y-98610000D03*
X100597500Y-101150000D03*
X100597500Y-103690000D03*
X100597500Y-106230000D03*
X100597500Y-108770000D03*
X100597500Y-111310000D03*
X100597500Y-113850000D03*
X120917500Y-113850000D03*
X120917500Y-111310000D03*
X120917500Y-108770000D03*
X120917500Y-106230000D03*
X120917500Y-103690000D03*
X120917500Y-101150000D03*
X120917500Y-98610000D03*
X120917500Y-96070000D03*
X120917500Y-93530000D03*
X120917500Y-90990000D03*
X120917500Y-88450000D03*
X120917500Y-85910000D03*
%TD*%
D16*
%TO.C,J2*%
X104850000Y-174000000D03*
X116450000Y-174000000D03*
X104850000Y-171000000D03*
X116450000Y-171000000D03*
%TD*%
D17*
%TO.C,BT1*%
X104805000Y-69500000D03*
X116795000Y-115980000D03*
D18*
X110800000Y-66750000D03*
D19*
X110800000Y-118740000D03*
%TD*%
M02*
