M48
; DRILL file {KiCad (6.0.4-0)} date Tuesday, 29 November 2022 at 11.04.19
; FORMAT={-:-/ absolute / inch / decimal}
; #@! TF.CreationDate,2022-11-29T11:04:19+01:00
; #@! TF.GenerationSoftware,Kicad,Pcbnew,(6.0.4-0)
; #@! TF.FileFunction,Plated,1,2,PTH
FMAT,2
INCH
; #@! TA.AperFunction,Plated,PTH,ViaDrill
T1C0.0157
; #@! TA.AperFunction,Plated,PTH,ComponentDrill
T2C0.0197
; #@! TA.AperFunction,Plated,PTH,ComponentDrill
T3C0.0315
; #@! TA.AperFunction,Plated,PTH,ComponentDrill
T4C0.0394
; #@! TA.AperFunction,Plated,PTH,ComponentDrill
T5C0.0402
%
G90
G05
T1
X3.93Y-4.96
X3.955Y-2.585
X3.965Y-1.425
X3.965Y-2.21
X3.97Y-1.845
X3.98Y-1.7
X3.985Y-1.15
X3.99Y-4.61
X3.995Y-0.965
X4.0Y-5.365
X4.005Y-0.645
X4.025Y-5.195
X4.04Y-5.57
X4.05Y-5.735
X4.055Y-5.02
X4.06Y-6.03
X4.063Y-4.8327
X4.09Y-3.62
X4.09Y-4.335
X4.125Y-3.06
X4.13Y-2.86
X4.145Y-2.27
X4.155Y-1.88
X4.16Y-1.055
X4.165Y-1.735
X4.17Y-1.35
X4.17Y-1.57
X4.225Y-1.155
X4.225Y-6.075
X4.23Y-6.345
X4.2382Y-1.0847
X4.24Y-5.4
X4.26Y-4.52
X4.2657Y-6.4252
X4.27Y-3.92
X4.275Y-0.655
X4.285Y-4.125
X4.29Y-4.925
X4.3Y-1.655
X4.3Y-1.815
X4.3Y-4.28
X4.31Y-4.395
X4.3169Y-1.0847
X4.33Y-1.185
X4.35Y-3.515
X4.355Y-2.0
X4.36Y-3.795
X4.365Y-3.11
X4.365Y-3.305
X4.37Y-2.185
X4.37Y-2.395
X4.385Y-1.2
X4.3957Y-1.0847
X4.42Y-3.725
X4.42Y-3.82
X4.425Y-4.21
X4.465Y-4.35
X4.47Y-6.32
X4.4744Y-1.0847
X4.48Y-6.085
X4.52Y-5.01
X4.5531Y-1.0847
X4.5689Y-6.4252
X4.585Y-4.685
X4.585Y-4.845
X4.5894Y-5.0394
X4.59Y-4.36
X4.62Y-0.65
X4.62Y-4.945
X4.63Y-6.47
X4.6319Y-1.0847
X4.65Y-5.43
X4.665Y-6.11
X4.685Y-5.595
X4.7Y-5.26
X4.72Y-2.29
X4.73Y-1.36
X4.73Y-1.815
X4.74Y-0.98
X4.74Y-2.83
X4.745Y-2.53
X4.75Y-1.12
X4.75Y-1.62
X4.755Y-3.12
T3
X3.9605Y-2.9823
X3.9605Y-3.0823
X3.9605Y-3.1823
X3.9605Y-3.2823
X3.9605Y-3.3823
X3.9605Y-3.4823
X3.9605Y-3.5823
X3.9605Y-3.6823
X3.9605Y-3.7823
X3.9605Y-3.8823
X3.9605Y-3.9823
X3.9605Y-4.0823
X3.9605Y-4.1823
X3.9605Y-4.2823
X3.9605Y-4.3823
X3.9605Y-4.4823
X4.7605Y-3.3823
X4.7605Y-3.4823
X4.7605Y-3.5823
X4.7605Y-3.6823
X4.7605Y-3.7823
X4.7605Y-3.8823
X4.7605Y-3.9823
X4.7605Y-4.0823
X4.7605Y-4.1823
X4.7605Y-4.2823
X4.7605Y-4.3823
X4.7605Y-4.4823
T4
X4.3563Y-1.3602
X4.3563Y-1.4587
T5
X4.3622Y-2.628
X4.3622Y-4.6748
T2
G00X4.128Y-6.7205
M15
G01X4.128Y-6.7441
M16
G05
G00X4.128Y-6.8386
M15
G01X4.128Y-6.8622
M16
G05
G00X4.5846Y-6.7205
M15
G01X4.5846Y-6.7441
M16
G05
G00X4.5846Y-6.8386
M15
G01X4.5846Y-6.8622
M16
G05
T0
M30
