%TF.GenerationSoftware,KiCad,Pcbnew,(6.0.4-0)*%
%TF.CreationDate,2022-12-23T17:02:00+01:00*%
%TF.ProjectId,ControllerBoard,436f6e74-726f-46c6-9c65-72426f617264,rev?*%
%TF.SameCoordinates,Original*%
%TF.FileFunction,Soldermask,Bot*%
%TF.FilePolarity,Negative*%
%FSLAX46Y46*%
G04 Gerber Fmt 4.6, Leading zero omitted, Abs format (unit mm)*
G04 Created by KiCad (PCBNEW (6.0.4-0)) date 2022-12-23 17:02:00*
%MOMM*%
%LPD*%
G01*
G04 APERTURE LIST*
G04 Aperture macros list*
%AMRoundRect*
0 Rectangle with rounded corners*
0 $1 Rounding radius*
0 $2 $3 $4 $5 $6 $7 $8 $9 X,Y pos of 4 corners*
0 Add a 4 corners polygon primitive as box body*
4,1,4,$2,$3,$4,$5,$6,$7,$8,$9,$2,$3,0*
0 Add four circle primitives for the rounded corners*
1,1,$1+$1,$2,$3*
1,1,$1+$1,$4,$5*
1,1,$1+$1,$6,$7*
1,1,$1+$1,$8,$9*
0 Add four rect primitives between the rounded corners*
20,1,$1+$1,$2,$3,$4,$5,0*
20,1,$1+$1,$4,$5,$6,$7,0*
20,1,$1+$1,$6,$7,$8,$9,0*
20,1,$1+$1,$8,$9,$2,$3,0*%
G04 Aperture macros list end*
%ADD10RoundRect,0.250000X-0.600000X-0.750000X0.600000X-0.750000X0.600000X0.750000X-0.600000X0.750000X0*%
%ADD11O,1.700000X2.000000*%
%ADD12R,1.600000X1.600000*%
%ADD13C,1.600000*%
%ADD14O,0.900000X1.500000*%
%ADD15RoundRect,0.150000X-0.150000X-0.625000X0.150000X-0.625000X0.150000X0.625000X-0.150000X0.625000X0*%
%ADD16RoundRect,0.250000X-0.350000X-0.650000X0.350000X-0.650000X0.350000X0.650000X-0.350000X0.650000X0*%
%ADD17C,2.640000*%
%ADD18R,2.000000X2.000000*%
%ADD19C,2.000000*%
G04 APERTURE END LIST*
%TO.C,PlasticScannerLogo*%
G36*
X114307799Y-118372450D02*
G01*
X114341465Y-118384338D01*
X114393439Y-118403441D01*
X114461782Y-118429009D01*
X114544555Y-118460290D01*
X114639820Y-118496531D01*
X114745639Y-118536981D01*
X114860072Y-118580888D01*
X114981182Y-118627501D01*
X115107029Y-118676068D01*
X115235676Y-118725837D01*
X115365183Y-118776056D01*
X115493613Y-118825974D01*
X115619027Y-118874838D01*
X115739486Y-118921898D01*
X115853051Y-118966402D01*
X115957785Y-119007597D01*
X116051749Y-119044732D01*
X116133003Y-119077055D01*
X116199611Y-119103815D01*
X116249632Y-119124259D01*
X116281129Y-119137637D01*
X116292163Y-119143196D01*
X116291268Y-119144663D01*
X116275739Y-119156778D01*
X116242869Y-119178951D01*
X116195191Y-119209571D01*
X116135239Y-119247030D01*
X116065547Y-119289715D01*
X115988651Y-119336019D01*
X115963880Y-119350853D01*
X115889049Y-119396168D01*
X115822271Y-119437348D01*
X115766070Y-119472787D01*
X115722969Y-119500879D01*
X115695491Y-119520018D01*
X115686159Y-119528596D01*
X115690994Y-119539081D01*
X115707220Y-119568831D01*
X115733580Y-119615150D01*
X115768783Y-119675880D01*
X115811543Y-119748858D01*
X115860569Y-119831926D01*
X115914574Y-119922921D01*
X115972269Y-120019685D01*
X116032365Y-120120056D01*
X116093573Y-120221874D01*
X116154604Y-120322979D01*
X116214171Y-120421210D01*
X116270984Y-120514407D01*
X116323755Y-120600409D01*
X116371195Y-120677055D01*
X116396433Y-120717493D01*
X116480227Y-120850215D01*
X116563592Y-120980032D01*
X116644834Y-121104416D01*
X116722261Y-121220838D01*
X116794180Y-121326770D01*
X116858897Y-121419685D01*
X116914721Y-121497053D01*
X116959957Y-121556346D01*
X117067427Y-121683696D01*
X117185355Y-121804970D01*
X117300612Y-121903095D01*
X117413809Y-121978351D01*
X117525552Y-122031018D01*
X117636453Y-122061375D01*
X117747118Y-122069704D01*
X117858157Y-122056285D01*
X117970178Y-122021398D01*
X118048274Y-121985146D01*
X118143690Y-121927073D01*
X118238298Y-121853357D01*
X118333616Y-121762526D01*
X118431162Y-121653108D01*
X118532454Y-121523629D01*
X118639010Y-121372617D01*
X118662572Y-121337342D01*
X118709751Y-121265181D01*
X118767475Y-121175471D01*
X118834608Y-121070054D01*
X118910011Y-120950770D01*
X118992547Y-120819461D01*
X119081078Y-120677967D01*
X119174468Y-120528129D01*
X119271578Y-120371787D01*
X119371271Y-120210782D01*
X119472410Y-120046956D01*
X119573857Y-119882149D01*
X119674475Y-119718201D01*
X119773126Y-119556955D01*
X119868673Y-119400249D01*
X119959978Y-119249926D01*
X120045905Y-119107825D01*
X120125314Y-118975789D01*
X120197070Y-118855657D01*
X120260034Y-118749270D01*
X120301509Y-118679294D01*
X120341139Y-118613485D01*
X120375450Y-118557588D01*
X120402761Y-118514311D01*
X120421388Y-118486360D01*
X120429650Y-118476442D01*
X120437420Y-118480082D01*
X120464189Y-118494560D01*
X120507901Y-118518948D01*
X120566434Y-118552039D01*
X120637670Y-118592630D01*
X120719488Y-118639515D01*
X120809768Y-118691490D01*
X120906390Y-118747350D01*
X120916530Y-118753224D01*
X121025547Y-118816450D01*
X121115649Y-118868933D01*
X121188564Y-118911803D01*
X121246017Y-118946189D01*
X121289735Y-118973220D01*
X121321444Y-118994024D01*
X121342870Y-119009731D01*
X121355741Y-119021470D01*
X121361781Y-119030368D01*
X121362718Y-119037557D01*
X121360278Y-119044163D01*
X121345900Y-119070554D01*
X121319562Y-119117841D01*
X121283815Y-119181388D01*
X121240028Y-119258803D01*
X121189568Y-119347693D01*
X121133803Y-119445665D01*
X121074101Y-119550325D01*
X121011829Y-119659282D01*
X120948355Y-119770142D01*
X120885048Y-119880512D01*
X120823274Y-119988000D01*
X120764401Y-120090212D01*
X120709798Y-120184756D01*
X120660832Y-120269239D01*
X120618870Y-120341267D01*
X120597434Y-120377903D01*
X120439554Y-120645731D01*
X120290473Y-120894870D01*
X120148633Y-121127835D01*
X120012474Y-121347141D01*
X119880438Y-121555303D01*
X119750964Y-121754836D01*
X119622493Y-121948255D01*
X119602065Y-121978570D01*
X119517880Y-122101290D01*
X119442225Y-122207280D01*
X119372401Y-122299911D01*
X119305710Y-122382554D01*
X119239454Y-122458582D01*
X119170935Y-122531364D01*
X119097455Y-122604273D01*
X119046403Y-122652095D01*
X118882366Y-122787436D01*
X118711375Y-122900826D01*
X118531561Y-122993135D01*
X118341059Y-123065231D01*
X118138000Y-123117985D01*
X117920519Y-123152264D01*
X117905291Y-123153852D01*
X117827095Y-123159387D01*
X117735739Y-123162600D01*
X117638632Y-123163493D01*
X117543177Y-123162064D01*
X117456783Y-123158315D01*
X117386855Y-123152246D01*
X117342042Y-123146232D01*
X117167364Y-123111455D01*
X117001661Y-123059165D01*
X116843518Y-122988439D01*
X116691517Y-122898356D01*
X116544241Y-122787994D01*
X116400272Y-122656432D01*
X116258193Y-122502746D01*
X116116587Y-122326017D01*
X116062049Y-122251991D01*
X115983429Y-122141354D01*
X115895888Y-122014552D01*
X115801085Y-121874196D01*
X115700681Y-121722896D01*
X115596336Y-121563263D01*
X115489709Y-121397908D01*
X115382461Y-121229442D01*
X115276250Y-121060475D01*
X115172737Y-120893618D01*
X115073582Y-120731483D01*
X114980445Y-120576679D01*
X114894985Y-120431818D01*
X114818862Y-120299510D01*
X114753737Y-120182367D01*
X114752048Y-120179280D01*
X114730478Y-120143010D01*
X114712116Y-120117383D01*
X114700777Y-120107775D01*
X114698277Y-120108615D01*
X114678411Y-120118728D01*
X114641562Y-120139097D01*
X114590365Y-120168215D01*
X114527459Y-120204572D01*
X114455479Y-120246660D01*
X114377063Y-120292970D01*
X114346496Y-120311091D01*
X114271009Y-120355685D01*
X114203468Y-120395365D01*
X114146403Y-120428660D01*
X114102347Y-120454095D01*
X114073831Y-120470197D01*
X114063386Y-120475494D01*
X114064102Y-120465490D01*
X114067120Y-120433248D01*
X114072308Y-120380411D01*
X114079490Y-120308683D01*
X114088494Y-120219769D01*
X114099144Y-120115374D01*
X114111267Y-119997204D01*
X114124688Y-119866962D01*
X114139235Y-119726355D01*
X114154733Y-119577086D01*
X114171007Y-119420861D01*
X114187740Y-119261254D01*
X114207943Y-119070989D01*
X114225986Y-118904127D01*
X114241900Y-118760397D01*
X114255719Y-118639525D01*
X114267473Y-118541241D01*
X114277195Y-118465271D01*
X114284917Y-118411343D01*
X114290670Y-118379185D01*
X114294487Y-118368524D01*
X114307799Y-118372450D01*
G37*
%TD*%
D10*
%TO.C,X1*%
X103830000Y-131950000D03*
D11*
X106330000Y-131950000D03*
%TD*%
D12*
%TO.C,A1*%
X120796500Y-115062000D03*
D13*
X120796500Y-112522000D03*
X120796500Y-109982000D03*
X120796500Y-107442000D03*
X120796500Y-104902000D03*
X120796500Y-102362000D03*
X120796500Y-99822000D03*
X120796500Y-97282000D03*
X120796500Y-94742000D03*
X120796500Y-92202000D03*
X120796500Y-89662000D03*
X120796500Y-87122000D03*
X120796500Y-84582000D03*
X120796500Y-82042000D03*
X120796500Y-79502000D03*
X120796500Y-76962000D03*
X100476500Y-76962000D03*
X100476500Y-79502000D03*
X100476500Y-82042000D03*
X100476500Y-84582000D03*
X100476500Y-87122000D03*
X100476500Y-89662000D03*
X100476500Y-92202000D03*
X100476500Y-94742000D03*
X100476500Y-97282000D03*
X100476500Y-99822000D03*
X100476500Y-102362000D03*
X100476500Y-104902000D03*
%TD*%
D10*
%TO.C,X2*%
X103720000Y-125710000D03*
D11*
X106220000Y-125710000D03*
%TD*%
D14*
%TO.C,J2*%
X104850000Y-174000000D03*
X116450000Y-174000000D03*
X104850000Y-171000000D03*
X116450000Y-171000000D03*
%TD*%
D15*
%TO.C,CONN2*%
X107974000Y-49371000D03*
X108974000Y-49371000D03*
X109974000Y-49371000D03*
X110974000Y-49371000D03*
D16*
X106674000Y-45496000D03*
X112274000Y-45496000D03*
%TD*%
D17*
%TO.C,BT1*%
X104622000Y-65869000D03*
X116612000Y-112349000D03*
D18*
X110617000Y-63119000D03*
D19*
X110617000Y-115109000D03*
%TD*%
M02*
