%TF.GenerationSoftware,KiCad,Pcbnew,(6.0.4-0)*%
%TF.CreationDate,2022-11-29T10:20:57+01:00*%
%TF.ProjectId,RoundScanner,526f756e-6453-4636-916e-6e65722e6b69,2*%
%TF.SameCoordinates,Original*%
%TF.FileFunction,Copper,L2,Inr*%
%TF.FilePolarity,Positive*%
%FSLAX46Y46*%
G04 Gerber Fmt 4.6, Leading zero omitted, Abs format (unit mm)*
G04 Created by KiCad (PCBNEW (6.0.4-0)) date 2022-11-29 10:20:57*
%MOMM*%
%LPD*%
G01*
G04 APERTURE LIST*
G04 Aperture macros list*
%AMHorizOval*
0 Thick line with rounded ends*
0 $1 width*
0 $2 $3 position (X,Y) of the first rounded end (center of the circle)*
0 $4 $5 position (X,Y) of the second rounded end (center of the circle)*
0 Add line between two ends*
20,1,$1,$2,$3,$4,$5,0*
0 Add two circle primitives to create the rounded ends*
1,1,$1,$2,$3*
1,1,$1,$4,$5*%
%AMRotRect*
0 Rectangle, with rotation*
0 The origin of the aperture is its center*
0 $1 length*
0 $2 width*
0 $3 Rotation angle, in degrees counterclockwise*
0 Add horizontal line*
21,1,$1,$2,0,0,$3*%
G04 Aperture macros list end*
%TA.AperFunction,ComponentPad*%
%ADD10C,3.500000*%
%TD*%
%TA.AperFunction,ComponentPad*%
%ADD11RotRect,1.700000X1.700000X45.000000*%
%TD*%
%TA.AperFunction,ComponentPad*%
%ADD12HorizOval,1.700000X0.000000X0.000000X0.000000X0.000000X0*%
%TD*%
%TA.AperFunction,ComponentPad*%
%ADD13RotRect,1.700000X1.700000X225.000000*%
%TD*%
%TA.AperFunction,ComponentPad*%
%ADD14HorizOval,1.700000X0.000000X0.000000X0.000000X0.000000X0*%
%TD*%
%TA.AperFunction,ViaPad*%
%ADD15C,0.800000*%
%TD*%
%TA.AperFunction,Conductor*%
%ADD16C,0.250000*%
%TD*%
%TA.AperFunction,Conductor*%
%ADD17C,0.200000*%
%TD*%
G04 APERTURE END LIST*
D10*
%TO.N,GND*%
%TO.C,H2*%
X72136000Y-97556000D03*
%TD*%
%TO.N,GND*%
%TO.C,H1*%
X103632000Y-115717000D03*
%TD*%
D11*
%TO.N,GND*%
%TO.C,J4*%
X106299000Y-96139000D03*
D12*
%TO.N,LED RESET*%
X104502949Y-94342949D03*
%TO.N,AS7341_INT*%
X102706898Y-92546898D03*
%TO.N,DRDY_INT*%
X100910846Y-90750846D03*
%TD*%
D13*
%TO.N,GND*%
%TO.C,J1*%
X77975672Y-121628317D03*
D14*
%TO.N,+3V3*%
X79771723Y-123424368D03*
%TO.N,SCL*%
X81567774Y-125220419D03*
%TO.N,SDA*%
X83363826Y-127016471D03*
%TD*%
D15*
%TO.N,+2V5*%
X78613000Y-107696000D03*
X84963000Y-97155000D03*
X88392000Y-122682000D03*
X83185000Y-116459000D03*
X91059000Y-92710000D03*
%TO.N,Net-(C2-Pad2)*%
X88048500Y-91816701D03*
X103251000Y-97155000D03*
%TO.N,+3V3*%
X98552000Y-125603000D03*
X90574204Y-96811500D03*
X89492676Y-125907922D03*
X76200000Y-105410000D03*
X103112663Y-122848000D03*
X106019557Y-104177500D03*
X74676000Y-118745000D03*
X93726000Y-116967000D03*
X86106000Y-109093000D03*
X82042000Y-120142000D03*
X70992059Y-114597111D03*
X105029000Y-110998000D03*
X91402051Y-100123252D03*
X91331250Y-112159250D03*
%TO.N,SDA*%
X74930000Y-109347000D03*
X102743000Y-110998000D03*
X91567000Y-124587000D03*
X80264000Y-111252000D03*
%TO.N,Net-(C8-Pad1)*%
X80645000Y-96012000D03*
X78867000Y-90424000D03*
%TO.N,LED RESET*%
X109601000Y-111633000D03*
%TO.N,Net-(R25-Pad1)*%
X98679000Y-115697000D03*
X108157333Y-108095500D03*
%TO.N,Net-(R26-Pad1)*%
X107061000Y-107315000D03*
X101061788Y-111146613D03*
%TO.N,Net-(R27-Pad1)*%
X106680000Y-105791000D03*
X84836000Y-99441000D03*
%TO.N,Net-(R28-Pad1)*%
X107569000Y-105283000D03*
X88646000Y-98933000D03*
%TO.N,DRDY_INT*%
X72390000Y-105410000D03*
%TO.N,SCL*%
X101981000Y-110109000D03*
X75311000Y-112649000D03*
X90447204Y-123862500D03*
%TO.N,+1V8*%
X80391000Y-110109000D03*
X77597000Y-109093000D03*
X81280000Y-114046000D03*
%TO.N,Net-(C12-Pad1)*%
X87947500Y-121475500D03*
X87884000Y-117094000D03*
%TO.N,/ADC/AIN2+*%
X75565000Y-92583000D03*
X101334663Y-118618000D03*
%TO.N,/ADC/AIN2-*%
X86995000Y-112903000D03*
X77597000Y-90678000D03*
%TO.N,GND*%
X87352950Y-125998450D03*
X84963000Y-116332000D03*
X90551000Y-104140000D03*
X85852000Y-92837000D03*
X108380648Y-109069736D03*
X99187000Y-101346000D03*
X68580000Y-105029000D03*
X97790000Y-89789000D03*
X95123000Y-94361000D03*
X84201000Y-109407502D03*
X70231000Y-100076000D03*
X90678000Y-90043000D03*
X98286663Y-122936000D03*
X77089000Y-124333000D03*
X85217000Y-107569000D03*
X105791000Y-119126000D03*
X76708000Y-97917000D03*
X80899000Y-103505000D03*
X79121000Y-102489000D03*
X104013000Y-99187000D03*
X79502000Y-118618000D03*
X97663000Y-99060000D03*
%TO.N,AS7341_INT*%
X83439000Y-106238498D03*
%TD*%
D16*
%TO.N,Net-(C2-Pad2)*%
X102997000Y-97409000D02*
X103251000Y-97155000D01*
X88048500Y-91816701D02*
X93640799Y-97409000D01*
X93640799Y-97409000D02*
X102997000Y-97409000D01*
%TO.N,Net-(C8-Pad1)*%
X78867000Y-94234000D02*
X80645000Y-96012000D01*
X78867000Y-90424000D02*
X78867000Y-94234000D01*
D17*
%TO.N,/ADC/AIN2+*%
X91440000Y-118618000D02*
X75565000Y-102743000D01*
X75755500Y-92773500D02*
X75565000Y-92583000D01*
X75565000Y-102743000D02*
X75565000Y-99187000D01*
X75755500Y-98996500D02*
X75755500Y-92773500D01*
X101334663Y-118618000D02*
X91440000Y-118618000D01*
X75565000Y-99187000D02*
X75755500Y-98996500D01*
%TO.N,/ADC/AIN2-*%
X86995000Y-104875245D02*
X77597000Y-95477245D01*
X77597000Y-95477245D02*
X77597000Y-90678000D01*
X86995000Y-112903000D02*
X86995000Y-104875245D01*
%TD*%
%TA.AperFunction,Conductor*%
%TO.N,GND*%
G36*
X99414045Y-88150756D02*
G01*
X100033095Y-88486703D01*
X100037732Y-88489350D01*
X100694653Y-88883003D01*
X100695766Y-88883670D01*
X100743917Y-88935842D01*
X100756218Y-89005765D01*
X100728763Y-89071238D01*
X100670269Y-89111474D01*
X100653682Y-89115481D01*
X100651852Y-89115625D01*
X100647043Y-89116779D01*
X100647040Y-89116780D01*
X100525544Y-89145949D01*
X100399236Y-89176273D01*
X100394665Y-89178166D01*
X100394663Y-89178167D01*
X100163792Y-89273797D01*
X100163788Y-89273799D01*
X100159218Y-89275692D01*
X99937706Y-89411434D01*
X99740157Y-89580157D01*
X99571434Y-89777706D01*
X99435692Y-89999218D01*
X99433799Y-90003788D01*
X99433797Y-90003792D01*
X99348364Y-90210046D01*
X99336273Y-90239236D01*
X99335118Y-90244048D01*
X99276780Y-90487039D01*
X99276779Y-90487045D01*
X99275625Y-90491852D01*
X99255242Y-90750846D01*
X99275625Y-91009840D01*
X99276779Y-91014647D01*
X99276780Y-91014653D01*
X99293836Y-91085695D01*
X99336273Y-91262456D01*
X99338166Y-91267027D01*
X99338167Y-91267029D01*
X99433738Y-91497756D01*
X99435692Y-91502474D01*
X99571434Y-91723986D01*
X99740157Y-91921535D01*
X99937706Y-92090258D01*
X100159218Y-92226000D01*
X100163788Y-92227893D01*
X100163792Y-92227895D01*
X100394663Y-92323525D01*
X100399236Y-92325419D01*
X100451931Y-92338070D01*
X100647039Y-92384912D01*
X100647045Y-92384913D01*
X100651852Y-92386067D01*
X100910846Y-92406450D01*
X100915776Y-92406062D01*
X100915784Y-92406062D01*
X100916216Y-92406028D01*
X100916378Y-92406062D01*
X100920732Y-92406062D01*
X100920732Y-92406977D01*
X100985696Y-92420622D01*
X101036257Y-92470463D01*
X101050734Y-92537012D01*
X101051682Y-92537012D01*
X101051682Y-92541372D01*
X101051716Y-92541528D01*
X101051682Y-92541960D01*
X101051682Y-92541968D01*
X101051294Y-92546898D01*
X101071677Y-92805892D01*
X101072831Y-92810699D01*
X101072832Y-92810705D01*
X101108929Y-92961056D01*
X101132325Y-93058508D01*
X101134218Y-93063079D01*
X101134219Y-93063081D01*
X101179443Y-93172260D01*
X101231744Y-93298526D01*
X101367486Y-93520038D01*
X101536209Y-93717587D01*
X101733758Y-93886310D01*
X101955270Y-94022052D01*
X101959840Y-94023945D01*
X101959844Y-94023947D01*
X102116628Y-94088889D01*
X102195288Y-94121471D01*
X102283622Y-94142678D01*
X102443091Y-94180964D01*
X102443097Y-94180965D01*
X102447904Y-94182119D01*
X102706898Y-94202502D01*
X102711828Y-94202114D01*
X102711835Y-94202114D01*
X102712267Y-94202080D01*
X102712429Y-94202114D01*
X102716783Y-94202114D01*
X102716783Y-94203029D01*
X102781747Y-94216674D01*
X102832308Y-94266515D01*
X102846785Y-94333064D01*
X102847733Y-94333064D01*
X102847733Y-94337424D01*
X102847767Y-94337580D01*
X102847733Y-94338012D01*
X102847733Y-94338019D01*
X102847345Y-94342949D01*
X102867728Y-94601943D01*
X102868882Y-94606750D01*
X102868883Y-94606756D01*
X102883591Y-94668018D01*
X102928376Y-94854559D01*
X102930269Y-94859130D01*
X102930270Y-94859132D01*
X103013232Y-95059418D01*
X103027795Y-95094577D01*
X103163537Y-95316089D01*
X103240961Y-95406741D01*
X103321318Y-95500826D01*
X103332260Y-95513638D01*
X103529809Y-95682361D01*
X103534023Y-95684943D01*
X103534028Y-95684947D01*
X103662683Y-95763786D01*
X103710315Y-95816433D01*
X103721922Y-95886475D01*
X103693819Y-95951672D01*
X103634929Y-95991327D01*
X103572268Y-95994798D01*
X103382691Y-95957089D01*
X103382688Y-95957089D01*
X103377024Y-95955962D01*
X103371249Y-95955886D01*
X103371245Y-95955886D01*
X103260504Y-95954437D01*
X103156406Y-95953074D01*
X103150709Y-95954053D01*
X103150708Y-95954053D01*
X102944654Y-95989459D01*
X102944653Y-95989459D01*
X102938957Y-95990438D01*
X102731957Y-96066804D01*
X102726996Y-96069756D01*
X102726995Y-96069756D01*
X102583949Y-96154860D01*
X102542341Y-96179614D01*
X102376457Y-96325090D01*
X102314968Y-96403090D01*
X102289414Y-96435505D01*
X102231534Y-96476619D01*
X102190464Y-96483500D01*
X94076344Y-96483500D01*
X94008223Y-96463498D01*
X93987249Y-96446595D01*
X91540595Y-93999941D01*
X91506569Y-93937629D01*
X91511634Y-93866814D01*
X91554181Y-93809978D01*
X91568110Y-93800920D01*
X91741884Y-93703602D01*
X91911518Y-93562518D01*
X92052602Y-93392884D01*
X92160410Y-93200379D01*
X92162266Y-93194912D01*
X92162268Y-93194907D01*
X92229475Y-92996921D01*
X92229476Y-92996916D01*
X92231331Y-92991452D01*
X92232159Y-92985743D01*
X92232160Y-92985738D01*
X92260256Y-92791961D01*
X92262991Y-92773098D01*
X92264643Y-92710000D01*
X92244454Y-92490289D01*
X92184565Y-92277936D01*
X92086980Y-92080053D01*
X92050138Y-92030715D01*
X91958420Y-91907891D01*
X91958420Y-91907890D01*
X91954967Y-91903267D01*
X91838137Y-91795270D01*
X91797189Y-91757418D01*
X91797186Y-91757416D01*
X91792949Y-91753499D01*
X91606350Y-91635764D01*
X91401421Y-91554006D01*
X91395761Y-91552880D01*
X91395757Y-91552879D01*
X91190691Y-91512089D01*
X91190688Y-91512089D01*
X91185024Y-91510962D01*
X91179249Y-91510886D01*
X91179245Y-91510886D01*
X91068504Y-91509437D01*
X90964406Y-91508074D01*
X90958709Y-91509053D01*
X90958708Y-91509053D01*
X90752654Y-91544459D01*
X90752653Y-91544459D01*
X90746957Y-91545438D01*
X90539957Y-91621804D01*
X90534996Y-91624756D01*
X90534995Y-91624756D01*
X90403404Y-91703045D01*
X90350341Y-91734614D01*
X90184457Y-91880090D01*
X90047863Y-92053360D01*
X90045174Y-92058471D01*
X90045172Y-92058474D01*
X89971047Y-92199362D01*
X89921628Y-92250335D01*
X89852495Y-92266498D01*
X89785599Y-92242719D01*
X89770444Y-92229790D01*
X89275907Y-91735253D01*
X89241881Y-91672941D01*
X89239531Y-91657687D01*
X89234483Y-91602746D01*
X89234483Y-91602745D01*
X89233954Y-91596990D01*
X89221832Y-91554006D01*
X89175634Y-91390201D01*
X89174065Y-91384637D01*
X89076480Y-91186754D01*
X89051833Y-91153747D01*
X88947920Y-91014592D01*
X88947920Y-91014591D01*
X88944467Y-91009968D01*
X88846515Y-90919422D01*
X88786689Y-90864119D01*
X88786686Y-90864117D01*
X88782449Y-90860200D01*
X88595850Y-90742465D01*
X88390921Y-90660707D01*
X88385261Y-90659581D01*
X88385257Y-90659580D01*
X88180191Y-90618790D01*
X88180188Y-90618790D01*
X88174524Y-90617663D01*
X88168749Y-90617587D01*
X88168745Y-90617587D01*
X88058004Y-90616138D01*
X87953906Y-90614775D01*
X87948209Y-90615754D01*
X87948208Y-90615754D01*
X87742154Y-90651160D01*
X87742153Y-90651160D01*
X87736457Y-90652139D01*
X87529457Y-90728505D01*
X87524496Y-90731457D01*
X87524495Y-90731457D01*
X87417893Y-90794879D01*
X87339841Y-90841315D01*
X87173957Y-90986791D01*
X87037363Y-91160061D01*
X86934631Y-91355321D01*
X86869203Y-91566034D01*
X86843270Y-91785141D01*
X86857700Y-92005305D01*
X86859121Y-92010901D01*
X86859122Y-92010906D01*
X86888642Y-92127138D01*
X86912011Y-92219153D01*
X86914428Y-92224395D01*
X86914428Y-92224396D01*
X86941487Y-92283091D01*
X87004383Y-92419522D01*
X87131722Y-92599703D01*
X87289764Y-92753662D01*
X87294560Y-92756867D01*
X87294563Y-92756869D01*
X87367932Y-92805892D01*
X87473217Y-92876241D01*
X87478520Y-92878519D01*
X87478523Y-92878521D01*
X87670629Y-92961056D01*
X87675936Y-92963336D01*
X87891132Y-93012030D01*
X87896905Y-93012257D01*
X87898607Y-93012481D01*
X87963533Y-93041206D01*
X87971252Y-93048308D01*
X90352694Y-95429750D01*
X90386720Y-95492062D01*
X90381655Y-95562877D01*
X90339108Y-95619713D01*
X90284938Y-95643024D01*
X90262161Y-95646938D01*
X90055161Y-95723304D01*
X90050200Y-95726256D01*
X90050199Y-95726256D01*
X89895819Y-95818103D01*
X89865545Y-95836114D01*
X89699661Y-95981590D01*
X89563067Y-96154860D01*
X89460335Y-96350120D01*
X89394907Y-96560833D01*
X89368974Y-96779940D01*
X89383404Y-97000104D01*
X89384825Y-97005700D01*
X89384826Y-97005705D01*
X89421852Y-97151492D01*
X89437715Y-97213952D01*
X89440132Y-97219194D01*
X89440132Y-97219195D01*
X89478250Y-97301879D01*
X89530087Y-97414321D01*
X89657426Y-97594502D01*
X89815468Y-97748461D01*
X89820264Y-97751666D01*
X89820267Y-97751668D01*
X89904465Y-97807927D01*
X89998921Y-97871040D01*
X90004224Y-97873318D01*
X90004227Y-97873320D01*
X90154779Y-97938002D01*
X90201640Y-97958135D01*
X90269177Y-97973417D01*
X90411199Y-98005554D01*
X90411205Y-98005555D01*
X90416836Y-98006829D01*
X90422607Y-98007056D01*
X90422609Y-98007056D01*
X90490415Y-98009720D01*
X90637302Y-98015491D01*
X90746479Y-97999661D01*
X90849942Y-97984660D01*
X90849947Y-97984659D01*
X90855656Y-97983831D01*
X90861120Y-97981976D01*
X90861125Y-97981975D01*
X91059111Y-97914768D01*
X91059116Y-97914766D01*
X91064583Y-97912910D01*
X91107553Y-97888846D01*
X91165089Y-97856624D01*
X91257088Y-97805102D01*
X91270798Y-97793700D01*
X91422290Y-97667704D01*
X91426722Y-97664018D01*
X91567806Y-97494384D01*
X91675614Y-97301879D01*
X91677470Y-97296412D01*
X91677472Y-97296407D01*
X91744677Y-97098426D01*
X91744677Y-97098424D01*
X91746535Y-97092952D01*
X91746593Y-97092555D01*
X91781077Y-97032501D01*
X91844105Y-96999820D01*
X91914796Y-97006403D01*
X91957336Y-97034392D01*
X92927853Y-98004909D01*
X92940692Y-98019941D01*
X92949230Y-98031692D01*
X92954132Y-98036105D01*
X92954133Y-98036107D01*
X93001070Y-98078369D01*
X93005854Y-98082910D01*
X93020669Y-98097725D01*
X93023233Y-98099801D01*
X93036963Y-98110920D01*
X93041978Y-98115204D01*
X93088894Y-98157447D01*
X93088898Y-98157450D01*
X93093807Y-98161870D01*
X93106387Y-98169133D01*
X93122672Y-98180326D01*
X93128825Y-98185308D01*
X93133959Y-98189465D01*
X93139843Y-98192463D01*
X93196082Y-98221118D01*
X93201880Y-98224266D01*
X93256573Y-98255843D01*
X93256575Y-98255844D01*
X93262291Y-98259144D01*
X93276098Y-98263630D01*
X93294362Y-98271195D01*
X93295597Y-98271824D01*
X93307302Y-98277788D01*
X93374684Y-98295843D01*
X93380995Y-98297713D01*
X93447317Y-98319262D01*
X93461750Y-98320779D01*
X93481192Y-98324382D01*
X93495221Y-98328141D01*
X93501813Y-98328486D01*
X93501816Y-98328487D01*
X93564861Y-98331791D01*
X93571435Y-98332308D01*
X93589021Y-98334156D01*
X93589023Y-98334156D01*
X93592295Y-98334500D01*
X93613263Y-98334500D01*
X93619857Y-98334673D01*
X93682910Y-98337978D01*
X93682915Y-98337978D01*
X93689502Y-98338323D01*
X93703848Y-98336051D01*
X93723557Y-98334500D01*
X102914242Y-98334500D01*
X102933951Y-98336051D01*
X102948297Y-98338323D01*
X102954885Y-98337978D01*
X102954890Y-98337978D01*
X103005817Y-98335309D01*
X103040217Y-98338243D01*
X103086268Y-98348663D01*
X103093632Y-98350329D01*
X103099403Y-98350556D01*
X103099405Y-98350556D01*
X103167211Y-98353220D01*
X103314098Y-98358991D01*
X103423275Y-98343161D01*
X103526738Y-98328160D01*
X103526743Y-98328159D01*
X103532452Y-98327331D01*
X103537916Y-98325476D01*
X103537921Y-98325475D01*
X103735907Y-98258268D01*
X103735912Y-98258266D01*
X103741379Y-98256410D01*
X103933884Y-98148602D01*
X103965448Y-98122351D01*
X104088577Y-98019944D01*
X104103518Y-98007518D01*
X104216628Y-97871519D01*
X104240908Y-97842326D01*
X104240910Y-97842323D01*
X104244602Y-97837884D01*
X104324007Y-97696097D01*
X104349586Y-97650422D01*
X104349587Y-97650420D01*
X104352410Y-97645379D01*
X104354266Y-97639912D01*
X104354268Y-97639907D01*
X104421475Y-97441921D01*
X104421476Y-97441916D01*
X104423331Y-97436452D01*
X104424159Y-97430743D01*
X104424160Y-97430738D01*
X104454458Y-97221772D01*
X104454991Y-97218098D01*
X104456370Y-97165436D01*
X105561737Y-97165436D01*
X105561868Y-97167269D01*
X105566119Y-97173884D01*
X106034910Y-97642675D01*
X106042427Y-97649096D01*
X106107117Y-97696097D01*
X106124574Y-97704992D01*
X106226213Y-97738017D01*
X106245565Y-97741082D01*
X106352435Y-97741082D01*
X106371787Y-97738017D01*
X106473426Y-97704992D01*
X106490884Y-97696097D01*
X106555574Y-97649097D01*
X106563087Y-97642680D01*
X107028650Y-97177117D01*
X107036264Y-97163173D01*
X107036133Y-97161340D01*
X107031882Y-97154725D01*
X106311812Y-96434655D01*
X106297868Y-96427041D01*
X106296035Y-96427172D01*
X106289420Y-96431423D01*
X105569351Y-97151492D01*
X105561737Y-97165436D01*
X104456370Y-97165436D01*
X104456643Y-97155000D01*
X104436454Y-96935289D01*
X104419808Y-96876264D01*
X104394268Y-96785706D01*
X104376565Y-96722936D01*
X104278980Y-96525053D01*
X104262049Y-96502379D01*
X104150420Y-96352891D01*
X104150420Y-96352890D01*
X104146967Y-96348267D01*
X103999324Y-96211787D01*
X103989189Y-96202418D01*
X103989186Y-96202416D01*
X103984949Y-96198499D01*
X103907618Y-96149707D01*
X103860679Y-96096440D01*
X103849990Y-96026253D01*
X103878944Y-95961429D01*
X103938349Y-95922549D01*
X104004267Y-95920626D01*
X104239142Y-95977015D01*
X104239148Y-95977016D01*
X104243955Y-95978170D01*
X104502949Y-95998553D01*
X104507879Y-95998165D01*
X104507880Y-95998165D01*
X104561033Y-95993982D01*
X104630513Y-96008578D01*
X104681072Y-96058421D01*
X104696918Y-96119594D01*
X104696918Y-96192435D01*
X104699983Y-96211787D01*
X104733008Y-96313426D01*
X104741903Y-96330884D01*
X104788903Y-96395574D01*
X104795320Y-96403087D01*
X105260883Y-96868650D01*
X105274827Y-96876264D01*
X105276660Y-96876133D01*
X105283275Y-96871882D01*
X106209905Y-95945252D01*
X106272217Y-95911226D01*
X106343032Y-95916291D01*
X106388095Y-95945252D01*
X107311492Y-96868649D01*
X107325436Y-96876263D01*
X107327269Y-96876132D01*
X107333884Y-96871881D01*
X107802675Y-96403090D01*
X107809095Y-96395574D01*
X107810671Y-96393405D01*
X107811482Y-96392780D01*
X107812311Y-96391809D01*
X107812515Y-96391983D01*
X107866894Y-96350052D01*
X107937630Y-96343978D01*
X108000422Y-96377111D01*
X108022006Y-96404957D01*
X108345663Y-96971391D01*
X108348229Y-96976113D01*
X108770212Y-97793700D01*
X108772573Y-97798524D01*
X108869390Y-98007518D01*
X109159308Y-98633354D01*
X109161463Y-98638277D01*
X109302239Y-98979620D01*
X109501214Y-99462076D01*
X109512266Y-99488875D01*
X109514206Y-99493882D01*
X109811415Y-100311856D01*
X109828407Y-100358622D01*
X109830130Y-100363699D01*
X110102586Y-101226520D01*
X110107188Y-101241093D01*
X110108693Y-101246241D01*
X110128248Y-101318808D01*
X110348074Y-102134599D01*
X110349358Y-102139799D01*
X110547525Y-103023646D01*
X110550659Y-103037626D01*
X110551720Y-103042883D01*
X110588408Y-103246920D01*
X110714546Y-103948429D01*
X110715384Y-103953736D01*
X110839451Y-104865399D01*
X110840062Y-104870738D01*
X110887750Y-105384206D01*
X110924363Y-105778422D01*
X110925146Y-105786858D01*
X110925528Y-105792211D01*
X110970427Y-106690234D01*
X110971472Y-106711142D01*
X110971625Y-106716496D01*
X110973874Y-107024345D01*
X110978346Y-107636576D01*
X110978270Y-107641949D01*
X110945756Y-108561419D01*
X110945452Y-108566784D01*
X110873760Y-109484068D01*
X110873227Y-109489415D01*
X110763324Y-110395921D01*
X110762492Y-110402781D01*
X110761734Y-110408087D01*
X110747428Y-110494910D01*
X110704981Y-110752527D01*
X110674170Y-110816489D01*
X110613669Y-110853640D01*
X110542688Y-110852185D01*
X110495128Y-110824567D01*
X110339189Y-110680418D01*
X110339186Y-110680416D01*
X110334949Y-110676499D01*
X110148350Y-110558764D01*
X109943421Y-110477006D01*
X109937761Y-110475880D01*
X109937757Y-110475879D01*
X109732691Y-110435089D01*
X109732688Y-110435089D01*
X109727024Y-110433962D01*
X109721249Y-110433886D01*
X109721245Y-110433886D01*
X109610504Y-110432437D01*
X109506406Y-110431074D01*
X109500709Y-110432053D01*
X109500708Y-110432053D01*
X109294654Y-110467459D01*
X109294653Y-110467459D01*
X109288957Y-110468438D01*
X109081957Y-110544804D01*
X109076996Y-110547756D01*
X109076995Y-110547756D01*
X108999423Y-110593907D01*
X108892341Y-110657614D01*
X108726457Y-110803090D01*
X108589863Y-110976360D01*
X108487131Y-111171620D01*
X108421703Y-111382333D01*
X108395770Y-111601440D01*
X108410200Y-111821604D01*
X108411621Y-111827200D01*
X108411622Y-111827205D01*
X108459171Y-112014426D01*
X108464511Y-112035452D01*
X108466928Y-112040694D01*
X108466928Y-112040695D01*
X108480125Y-112069322D01*
X108556883Y-112235821D01*
X108684222Y-112416002D01*
X108842264Y-112569961D01*
X108847060Y-112573166D01*
X108847063Y-112573168D01*
X108961496Y-112649629D01*
X109025717Y-112692540D01*
X109031020Y-112694818D01*
X109031023Y-112694820D01*
X109198531Y-112766787D01*
X109228436Y-112779635D01*
X109308088Y-112797658D01*
X109437995Y-112827054D01*
X109438001Y-112827055D01*
X109443632Y-112828329D01*
X109449403Y-112828556D01*
X109449405Y-112828556D01*
X109517211Y-112831220D01*
X109664098Y-112836991D01*
X109788283Y-112818985D01*
X109876738Y-112806160D01*
X109876743Y-112806159D01*
X109882452Y-112805331D01*
X109887916Y-112803476D01*
X109887921Y-112803475D01*
X110091379Y-112734410D01*
X110092179Y-112736765D01*
X110151984Y-112728763D01*
X110216273Y-112758887D01*
X110254071Y-112818985D01*
X110254959Y-112884301D01*
X110200351Y-113099418D01*
X110195416Y-113118857D01*
X110193988Y-113124018D01*
X110054199Y-113590324D01*
X109929781Y-114005352D01*
X109928129Y-114010465D01*
X109626586Y-114879727D01*
X109624717Y-114884765D01*
X109483722Y-115241329D01*
X109290563Y-115729812D01*
X109286390Y-115740364D01*
X109284312Y-115745309D01*
X108909796Y-116585738D01*
X108907506Y-116590594D01*
X108768347Y-116870160D01*
X108497524Y-117414234D01*
X108495028Y-117418993D01*
X108473832Y-117457379D01*
X108088171Y-118155820D01*
X108050271Y-118224457D01*
X108047578Y-118229097D01*
X107587147Y-118984879D01*
X107568904Y-119014825D01*
X107566015Y-119019348D01*
X107054239Y-119784007D01*
X107051177Y-119788376D01*
X106507295Y-120530475D01*
X106504038Y-120534727D01*
X105935166Y-121245268D01*
X105928986Y-121252987D01*
X105925541Y-121257107D01*
X105368214Y-121895418D01*
X105320408Y-121950170D01*
X105316792Y-121954137D01*
X104704951Y-122597333D01*
X104682642Y-122620785D01*
X104678867Y-122624587D01*
X104594000Y-122706506D01*
X104517773Y-122780085D01*
X104454869Y-122813004D01*
X104384154Y-122806688D01*
X104328079Y-122763143D01*
X104304795Y-122700959D01*
X104298646Y-122634045D01*
X104298646Y-122634044D01*
X104298117Y-122628289D01*
X104238228Y-122415936D01*
X104140643Y-122218053D01*
X104008630Y-122041267D01*
X103846612Y-121891499D01*
X103660013Y-121773764D01*
X103455084Y-121692006D01*
X103449424Y-121690880D01*
X103449420Y-121690879D01*
X103244354Y-121650089D01*
X103244351Y-121650089D01*
X103238687Y-121648962D01*
X103232912Y-121648886D01*
X103232908Y-121648886D01*
X103122167Y-121647437D01*
X103018069Y-121646074D01*
X103012372Y-121647053D01*
X103012371Y-121647053D01*
X102806317Y-121682459D01*
X102806316Y-121682459D01*
X102800620Y-121683438D01*
X102593620Y-121759804D01*
X102588659Y-121762756D01*
X102588658Y-121762756D01*
X102439176Y-121851689D01*
X102404004Y-121872614D01*
X102238120Y-122018090D01*
X102101526Y-122191360D01*
X101998794Y-122386620D01*
X101933366Y-122597333D01*
X101907433Y-122816440D01*
X101921863Y-123036604D01*
X101923284Y-123042200D01*
X101923285Y-123042205D01*
X101947719Y-123138413D01*
X101976174Y-123250452D01*
X101978591Y-123255694D01*
X101978591Y-123255695D01*
X102000886Y-123304057D01*
X102068546Y-123450821D01*
X102195885Y-123631002D01*
X102353927Y-123784961D01*
X102358723Y-123788166D01*
X102358726Y-123788168D01*
X102490258Y-123876054D01*
X102537380Y-123907540D01*
X102542683Y-123909818D01*
X102542686Y-123909820D01*
X102734792Y-123992355D01*
X102740099Y-123994635D01*
X102745731Y-123995909D01*
X102745733Y-123995910D01*
X102831574Y-124015334D01*
X102893600Y-124049877D01*
X102927104Y-124112471D01*
X102921450Y-124183242D01*
X102883230Y-124236009D01*
X102676657Y-124403886D01*
X102606188Y-124461154D01*
X102601949Y-124464451D01*
X101863847Y-125013737D01*
X101859493Y-125016835D01*
X101560069Y-125220419D01*
X101098613Y-125534170D01*
X101094106Y-125537096D01*
X100311876Y-126021508D01*
X100307253Y-126024236D01*
X99800287Y-126309021D01*
X99731101Y-126324945D01*
X99664288Y-126300935D01*
X99621061Y-126244615D01*
X99615146Y-126173865D01*
X99628644Y-126137602D01*
X99631683Y-126132176D01*
X99653410Y-126093379D01*
X99655266Y-126087912D01*
X99655268Y-126087907D01*
X99722475Y-125889921D01*
X99722476Y-125889916D01*
X99724331Y-125884452D01*
X99725159Y-125878743D01*
X99725160Y-125878738D01*
X99746014Y-125734910D01*
X99755991Y-125666098D01*
X99757643Y-125603000D01*
X99737454Y-125383289D01*
X99731250Y-125361289D01*
X99698945Y-125246746D01*
X99677565Y-125170936D01*
X99579980Y-124973053D01*
X99552570Y-124936346D01*
X99451420Y-124800891D01*
X99451420Y-124800890D01*
X99447967Y-124796267D01*
X99350312Y-124705996D01*
X99290189Y-124650418D01*
X99290186Y-124650416D01*
X99285949Y-124646499D01*
X99099350Y-124528764D01*
X98894421Y-124447006D01*
X98888761Y-124445880D01*
X98888757Y-124445879D01*
X98683691Y-124405089D01*
X98683688Y-124405089D01*
X98678024Y-124403962D01*
X98672249Y-124403886D01*
X98672245Y-124403886D01*
X98561504Y-124402437D01*
X98457406Y-124401074D01*
X98451709Y-124402053D01*
X98451708Y-124402053D01*
X98245654Y-124437459D01*
X98245653Y-124437459D01*
X98239957Y-124438438D01*
X98032957Y-124514804D01*
X98027996Y-124517756D01*
X98027995Y-124517756D01*
X97917818Y-124583305D01*
X97843341Y-124627614D01*
X97677457Y-124773090D01*
X97540863Y-124946360D01*
X97438131Y-125141620D01*
X97372703Y-125352333D01*
X97346770Y-125571440D01*
X97361200Y-125791604D01*
X97362621Y-125797200D01*
X97362622Y-125797205D01*
X97389803Y-125904227D01*
X97415511Y-126005452D01*
X97417928Y-126010694D01*
X97417928Y-126010695D01*
X97454838Y-126090759D01*
X97507883Y-126205821D01*
X97635222Y-126386002D01*
X97793264Y-126539961D01*
X97798060Y-126543166D01*
X97798063Y-126543168D01*
X97944226Y-126640830D01*
X97976717Y-126662540D01*
X97982020Y-126664818D01*
X97982023Y-126664820D01*
X98053603Y-126695573D01*
X98179436Y-126749635D01*
X98359461Y-126790371D01*
X98421486Y-126824913D01*
X98454991Y-126887506D01*
X98449337Y-126958277D01*
X98406318Y-127014757D01*
X98383778Y-127027975D01*
X97837205Y-127276342D01*
X97832267Y-127278460D01*
X96979157Y-127623030D01*
X96974132Y-127624936D01*
X96107110Y-127932815D01*
X96102009Y-127934505D01*
X95270620Y-128190373D01*
X95222647Y-128205137D01*
X95217482Y-128206607D01*
X94327340Y-128439508D01*
X94322156Y-128440747D01*
X93908508Y-128530322D01*
X93422912Y-128635477D01*
X93417637Y-128636502D01*
X92858119Y-128732896D01*
X92510907Y-128792714D01*
X92505625Y-128793509D01*
X91593057Y-128910916D01*
X91587738Y-128911486D01*
X90952698Y-128965788D01*
X90670988Y-128989877D01*
X90665626Y-128990220D01*
X89746417Y-129029450D01*
X89741044Y-129029565D01*
X88820956Y-129029565D01*
X88815583Y-129029450D01*
X87896374Y-128990220D01*
X87891012Y-128989877D01*
X87609302Y-128965788D01*
X86974262Y-128911486D01*
X86968943Y-128910916D01*
X86056375Y-128793509D01*
X86051093Y-128792714D01*
X85703881Y-128732896D01*
X85144363Y-128636502D01*
X85139088Y-128635477D01*
X84486575Y-128494176D01*
X84424231Y-128460209D01*
X84390147Y-128397929D01*
X84395145Y-128327109D01*
X84431412Y-128275219D01*
X84530754Y-128190373D01*
X84530759Y-128190368D01*
X84534515Y-128187160D01*
X84703238Y-127989611D01*
X84838980Y-127768099D01*
X84856633Y-127725483D01*
X84936505Y-127532654D01*
X84936506Y-127532652D01*
X84938399Y-127528081D01*
X84967719Y-127405956D01*
X84997892Y-127280278D01*
X84997893Y-127280272D01*
X84999047Y-127275465D01*
X85019430Y-127016471D01*
X84999047Y-126757477D01*
X84997893Y-126752670D01*
X84997892Y-126752664D01*
X84939554Y-126509673D01*
X84938399Y-126504861D01*
X84925969Y-126474853D01*
X84840875Y-126269417D01*
X84840873Y-126269413D01*
X84838980Y-126264843D01*
X84703238Y-126043331D01*
X84534515Y-125845782D01*
X84336966Y-125677059D01*
X84115454Y-125541317D01*
X84110884Y-125539424D01*
X84110880Y-125539422D01*
X83880009Y-125443792D01*
X83880007Y-125443791D01*
X83875436Y-125441898D01*
X83787102Y-125420691D01*
X83627633Y-125382405D01*
X83627627Y-125382404D01*
X83622820Y-125381250D01*
X83363826Y-125360867D01*
X83358896Y-125361255D01*
X83358888Y-125361255D01*
X83358456Y-125361289D01*
X83358294Y-125361255D01*
X83353940Y-125361255D01*
X83353940Y-125360340D01*
X83288976Y-125346695D01*
X83238415Y-125296854D01*
X83223938Y-125230305D01*
X83222990Y-125230305D01*
X83222990Y-125225945D01*
X83222956Y-125225789D01*
X83222990Y-125225357D01*
X83222990Y-125225349D01*
X83223378Y-125220419D01*
X83202995Y-124961425D01*
X83201841Y-124956618D01*
X83201840Y-124956612D01*
X83158870Y-124777632D01*
X83142347Y-124708809D01*
X83140453Y-124704236D01*
X83044823Y-124473365D01*
X83044821Y-124473361D01*
X83042928Y-124468791D01*
X82907186Y-124247279D01*
X82738463Y-124049730D01*
X82733320Y-124045337D01*
X82711967Y-124027100D01*
X82540914Y-123881007D01*
X82319402Y-123745265D01*
X82314832Y-123743372D01*
X82314828Y-123743370D01*
X82083957Y-123647740D01*
X82083955Y-123647739D01*
X82079384Y-123645846D01*
X81991050Y-123624639D01*
X81831581Y-123586353D01*
X81831575Y-123586352D01*
X81826768Y-123585198D01*
X81567774Y-123564815D01*
X81562844Y-123565203D01*
X81562837Y-123565203D01*
X81562405Y-123565237D01*
X81562243Y-123565203D01*
X81557889Y-123565203D01*
X81557889Y-123564288D01*
X81492925Y-123550643D01*
X81442364Y-123500802D01*
X81427887Y-123434253D01*
X81426939Y-123434253D01*
X81426939Y-123429893D01*
X81426905Y-123429737D01*
X81426939Y-123429305D01*
X81426939Y-123429298D01*
X81427327Y-123424368D01*
X81406944Y-123165374D01*
X81405790Y-123160567D01*
X81405789Y-123160561D01*
X81363517Y-122984489D01*
X81346296Y-122912758D01*
X81344402Y-122908185D01*
X81248772Y-122677314D01*
X81248770Y-122677310D01*
X81246877Y-122672740D01*
X81111135Y-122451228D01*
X80942412Y-122253679D01*
X80744863Y-122084956D01*
X80523351Y-121949214D01*
X80518781Y-121947321D01*
X80518777Y-121947319D01*
X80287906Y-121851689D01*
X80287904Y-121851688D01*
X80283333Y-121849795D01*
X80160066Y-121820201D01*
X80035530Y-121790302D01*
X80035524Y-121790301D01*
X80030717Y-121789147D01*
X79771723Y-121768764D01*
X79766793Y-121769152D01*
X79766792Y-121769152D01*
X79713639Y-121773335D01*
X79644159Y-121758739D01*
X79593600Y-121708896D01*
X79577754Y-121647723D01*
X79577754Y-121574882D01*
X79574689Y-121555530D01*
X79541664Y-121453891D01*
X79536594Y-121443940D01*
X86742270Y-121443940D01*
X86756700Y-121664104D01*
X86758121Y-121669700D01*
X86758122Y-121669705D01*
X86791910Y-121802743D01*
X86811011Y-121877952D01*
X86813428Y-121883194D01*
X86813428Y-121883195D01*
X86819063Y-121895418D01*
X86903383Y-122078321D01*
X87030722Y-122258502D01*
X87167724Y-122391964D01*
X87202560Y-122453825D01*
X87204928Y-122497025D01*
X87186770Y-122650440D01*
X87201200Y-122870604D01*
X87202621Y-122876200D01*
X87202622Y-122876205D01*
X87247231Y-123051851D01*
X87255511Y-123084452D01*
X87257928Y-123089694D01*
X87257928Y-123089695D01*
X87290598Y-123160561D01*
X87347883Y-123284821D01*
X87475222Y-123465002D01*
X87633264Y-123618961D01*
X87638060Y-123622166D01*
X87638063Y-123622168D01*
X87784226Y-123719830D01*
X87816717Y-123741540D01*
X87822020Y-123743818D01*
X87822023Y-123743820D01*
X88011441Y-123825200D01*
X88019436Y-123828635D01*
X88055105Y-123836706D01*
X88228995Y-123876054D01*
X88229001Y-123876055D01*
X88234632Y-123877329D01*
X88240403Y-123877556D01*
X88240405Y-123877556D01*
X88308211Y-123880220D01*
X88455098Y-123885991D01*
X88564275Y-123870161D01*
X88667738Y-123855160D01*
X88667743Y-123855159D01*
X88673452Y-123854331D01*
X88678916Y-123852476D01*
X88678921Y-123852475D01*
X88876907Y-123785268D01*
X88876912Y-123785266D01*
X88882379Y-123783410D01*
X88887992Y-123780267D01*
X89057767Y-123685188D01*
X89126975Y-123669354D01*
X89193757Y-123693451D01*
X89236910Y-123749828D01*
X89244460Y-123809929D01*
X89242653Y-123825200D01*
X89241974Y-123830940D01*
X89256404Y-124051104D01*
X89257825Y-124056700D01*
X89257826Y-124056705D01*
X89289963Y-124183242D01*
X89310715Y-124264952D01*
X89313132Y-124270194D01*
X89313132Y-124270195D01*
X89373920Y-124402053D01*
X89403087Y-124465321D01*
X89406420Y-124470037D01*
X89438964Y-124516086D01*
X89461945Y-124583260D01*
X89444960Y-124652195D01*
X89393403Y-124701005D01*
X89357406Y-124712985D01*
X89180633Y-124743360D01*
X88973633Y-124819726D01*
X88968672Y-124822678D01*
X88968671Y-124822678D01*
X88882540Y-124873921D01*
X88784017Y-124932536D01*
X88618133Y-125078012D01*
X88481539Y-125251282D01*
X88378807Y-125446542D01*
X88313379Y-125657255D01*
X88287446Y-125876362D01*
X88301876Y-126096526D01*
X88303297Y-126102122D01*
X88303298Y-126102127D01*
X88330831Y-126210537D01*
X88356187Y-126310374D01*
X88358604Y-126315616D01*
X88358604Y-126315617D01*
X88394885Y-126394316D01*
X88448559Y-126510743D01*
X88575898Y-126690924D01*
X88733940Y-126844883D01*
X88738736Y-126848088D01*
X88738739Y-126848090D01*
X88821592Y-126903450D01*
X88917393Y-126967462D01*
X88922696Y-126969740D01*
X88922699Y-126969742D01*
X89114805Y-127052277D01*
X89120112Y-127054557D01*
X89199764Y-127072580D01*
X89329671Y-127101976D01*
X89329677Y-127101977D01*
X89335308Y-127103251D01*
X89341079Y-127103478D01*
X89341081Y-127103478D01*
X89408887Y-127106142D01*
X89555774Y-127111913D01*
X89664951Y-127096083D01*
X89768414Y-127081082D01*
X89768419Y-127081081D01*
X89774128Y-127080253D01*
X89779592Y-127078398D01*
X89779597Y-127078397D01*
X89977583Y-127011190D01*
X89977588Y-127011188D01*
X89983055Y-127009332D01*
X90175560Y-126901524D01*
X90182550Y-126895711D01*
X90340762Y-126764126D01*
X90345194Y-126760440D01*
X90399661Y-126694951D01*
X90482584Y-126595248D01*
X90482586Y-126595245D01*
X90486278Y-126590806D01*
X90594086Y-126398301D01*
X90595942Y-126392834D01*
X90595944Y-126392829D01*
X90663151Y-126194843D01*
X90663152Y-126194838D01*
X90665007Y-126189374D01*
X90665835Y-126183665D01*
X90665836Y-126183660D01*
X90686727Y-126039572D01*
X90696667Y-125971020D01*
X90698319Y-125907922D01*
X90678130Y-125688211D01*
X90679484Y-125688087D01*
X90686058Y-125624106D01*
X90730345Y-125568616D01*
X90797602Y-125545879D01*
X90866475Y-125563113D01*
X90872679Y-125567002D01*
X90991717Y-125646540D01*
X90997020Y-125648818D01*
X90997023Y-125648820D01*
X91179498Y-125727217D01*
X91194436Y-125733635D01*
X91274088Y-125751658D01*
X91403995Y-125781054D01*
X91404001Y-125781055D01*
X91409632Y-125782329D01*
X91415403Y-125782556D01*
X91415405Y-125782556D01*
X91483211Y-125785220D01*
X91630098Y-125790991D01*
X91739275Y-125775161D01*
X91842738Y-125760160D01*
X91842743Y-125760159D01*
X91848452Y-125759331D01*
X91853916Y-125757476D01*
X91853921Y-125757475D01*
X92051907Y-125690268D01*
X92051912Y-125690266D01*
X92057379Y-125688410D01*
X92249884Y-125580602D01*
X92266226Y-125567011D01*
X92415086Y-125443204D01*
X92419518Y-125439518D01*
X92461495Y-125389046D01*
X92556908Y-125274326D01*
X92556910Y-125274323D01*
X92560602Y-125269884D01*
X92668410Y-125077379D01*
X92670266Y-125071912D01*
X92670268Y-125071907D01*
X92737475Y-124873921D01*
X92737476Y-124873916D01*
X92739331Y-124868452D01*
X92740159Y-124862743D01*
X92740160Y-124862738D01*
X92759346Y-124730413D01*
X92770991Y-124650098D01*
X92772643Y-124587000D01*
X92752454Y-124367289D01*
X92692565Y-124154936D01*
X92594980Y-123957053D01*
X92579243Y-123935978D01*
X92466420Y-123784891D01*
X92466420Y-123784890D01*
X92462967Y-123780267D01*
X92342982Y-123669354D01*
X92305189Y-123634418D01*
X92305186Y-123634416D01*
X92300949Y-123630499D01*
X92114350Y-123512764D01*
X91909421Y-123431006D01*
X91903761Y-123429880D01*
X91903757Y-123429879D01*
X91698691Y-123389089D01*
X91698688Y-123389089D01*
X91693024Y-123387962D01*
X91687249Y-123387886D01*
X91687245Y-123387886D01*
X91628111Y-123387112D01*
X91560258Y-123366220D01*
X91516755Y-123316851D01*
X91477739Y-123237734D01*
X91475184Y-123232553D01*
X91439984Y-123185414D01*
X91346624Y-123060391D01*
X91346624Y-123060390D01*
X91343171Y-123055767D01*
X91243305Y-122963452D01*
X91185393Y-122909918D01*
X91185390Y-122909916D01*
X91181153Y-122905999D01*
X90994554Y-122788264D01*
X90789625Y-122706506D01*
X90783965Y-122705380D01*
X90783961Y-122705379D01*
X90578895Y-122664589D01*
X90578892Y-122664589D01*
X90573228Y-122663462D01*
X90567453Y-122663386D01*
X90567449Y-122663386D01*
X90456708Y-122661937D01*
X90352610Y-122660574D01*
X90346913Y-122661553D01*
X90346912Y-122661553D01*
X90140858Y-122696959D01*
X90140857Y-122696959D01*
X90135161Y-122697938D01*
X89928161Y-122774304D01*
X89923200Y-122777256D01*
X89923199Y-122777256D01*
X89786193Y-122858766D01*
X89717423Y-122876406D01*
X89650033Y-122854065D01*
X89605419Y-122798838D01*
X89597061Y-122745126D01*
X89595991Y-122745098D01*
X89597546Y-122685704D01*
X89597643Y-122682000D01*
X89577454Y-122462289D01*
X89573275Y-122447469D01*
X89547510Y-122356113D01*
X89517565Y-122249936D01*
X89419980Y-122052053D01*
X89409002Y-122037351D01*
X89291420Y-121879891D01*
X89291420Y-121879890D01*
X89287967Y-121875267D01*
X89203767Y-121797434D01*
X89173255Y-121769228D01*
X89136810Y-121708299D01*
X89134088Y-121658623D01*
X89151491Y-121538598D01*
X89153143Y-121475500D01*
X89132954Y-121255789D01*
X89128667Y-121240586D01*
X89074634Y-121049000D01*
X89073065Y-121043436D01*
X88975480Y-120845553D01*
X88956279Y-120819839D01*
X88846920Y-120673391D01*
X88846920Y-120673390D01*
X88843467Y-120668767D01*
X88708984Y-120544452D01*
X88685689Y-120522918D01*
X88685686Y-120522916D01*
X88681449Y-120518999D01*
X88494850Y-120401264D01*
X88331778Y-120336205D01*
X88295285Y-120321646D01*
X88289921Y-120319506D01*
X88284261Y-120318380D01*
X88284257Y-120318379D01*
X88079191Y-120277589D01*
X88079188Y-120277589D01*
X88073524Y-120276462D01*
X88067749Y-120276386D01*
X88067745Y-120276386D01*
X87957004Y-120274937D01*
X87852906Y-120273574D01*
X87847209Y-120274553D01*
X87847208Y-120274553D01*
X87641154Y-120309959D01*
X87641153Y-120309959D01*
X87635457Y-120310938D01*
X87428457Y-120387304D01*
X87238841Y-120500114D01*
X87072957Y-120645590D01*
X86936363Y-120818860D01*
X86833631Y-121014120D01*
X86768203Y-121224833D01*
X86742270Y-121443940D01*
X79536594Y-121443940D01*
X79532769Y-121436433D01*
X79485769Y-121371743D01*
X79479352Y-121364230D01*
X79013789Y-120898667D01*
X78999845Y-120891053D01*
X78998012Y-120891184D01*
X78991397Y-120895435D01*
X77246023Y-122640809D01*
X77238409Y-122654753D01*
X77238540Y-122656586D01*
X77242791Y-122663201D01*
X77711582Y-123131992D01*
X77719099Y-123138413D01*
X77783789Y-123185414D01*
X77801246Y-123194309D01*
X77902885Y-123227334D01*
X77922237Y-123230399D01*
X77995078Y-123230399D01*
X78063199Y-123250401D01*
X78109692Y-123304057D01*
X78120690Y-123366284D01*
X78119051Y-123387112D01*
X78116119Y-123424368D01*
X78136502Y-123683362D01*
X78137656Y-123688169D01*
X78137657Y-123688175D01*
X78161664Y-123788168D01*
X78197150Y-123935978D01*
X78199043Y-123940549D01*
X78199044Y-123940551D01*
X78287846Y-124154936D01*
X78296569Y-124175996D01*
X78432311Y-124397508D01*
X78601034Y-124595057D01*
X78798583Y-124763780D01*
X79020095Y-124899522D01*
X79024665Y-124901415D01*
X79024669Y-124901417D01*
X79255540Y-124997047D01*
X79260113Y-124998941D01*
X79321705Y-125013728D01*
X79507916Y-125058434D01*
X79507922Y-125058435D01*
X79512729Y-125059589D01*
X79771723Y-125079972D01*
X79776653Y-125079584D01*
X79776660Y-125079584D01*
X79777092Y-125079550D01*
X79777254Y-125079584D01*
X79781608Y-125079584D01*
X79781608Y-125080499D01*
X79846572Y-125094144D01*
X79897133Y-125143985D01*
X79911610Y-125210534D01*
X79912558Y-125210534D01*
X79912558Y-125214894D01*
X79912592Y-125215050D01*
X79912558Y-125215482D01*
X79912558Y-125215489D01*
X79912170Y-125220419D01*
X79932553Y-125479413D01*
X79933707Y-125484220D01*
X79933708Y-125484226D01*
X79961337Y-125599305D01*
X79993201Y-125732029D01*
X79995094Y-125736600D01*
X79995095Y-125736602D01*
X80067593Y-125911626D01*
X80092620Y-125972047D01*
X80228362Y-126193559D01*
X80397085Y-126391108D01*
X80594634Y-126559831D01*
X80816146Y-126695573D01*
X80820716Y-126697466D01*
X80820720Y-126697468D01*
X81051591Y-126793098D01*
X81056164Y-126794992D01*
X81144498Y-126816199D01*
X81303967Y-126854485D01*
X81303973Y-126854486D01*
X81308780Y-126855640D01*
X81567774Y-126876023D01*
X81572704Y-126875635D01*
X81572712Y-126875635D01*
X81573144Y-126875601D01*
X81573306Y-126875635D01*
X81577660Y-126875635D01*
X81577660Y-126876550D01*
X81642624Y-126890195D01*
X81693185Y-126940036D01*
X81707662Y-127006585D01*
X81708610Y-127006585D01*
X81708610Y-127010945D01*
X81708644Y-127011101D01*
X81708610Y-127011533D01*
X81708610Y-127011541D01*
X81708222Y-127016471D01*
X81728605Y-127275465D01*
X81729759Y-127280272D01*
X81729760Y-127280278D01*
X81779211Y-127486254D01*
X81775664Y-127557162D01*
X81734344Y-127614896D01*
X81668371Y-127641126D01*
X81614528Y-127634403D01*
X81601989Y-127629951D01*
X81587865Y-127624935D01*
X81582843Y-127623030D01*
X80729733Y-127278460D01*
X80724795Y-127276342D01*
X79904183Y-126903450D01*
X79887150Y-126895710D01*
X79882308Y-126893384D01*
X79870713Y-126887506D01*
X79684473Y-126793098D01*
X79061662Y-126477384D01*
X79056922Y-126474853D01*
X78288739Y-126043331D01*
X78254747Y-126024236D01*
X78250124Y-126021508D01*
X77467894Y-125537096D01*
X77463387Y-125534170D01*
X77001931Y-125220419D01*
X76702507Y-125016835D01*
X76698153Y-125013737D01*
X75960051Y-124464451D01*
X75955812Y-124461154D01*
X75885437Y-124403962D01*
X75241784Y-123880882D01*
X75237691Y-123877408D01*
X75191757Y-123836706D01*
X74898451Y-123576812D01*
X74549060Y-123267222D01*
X74545115Y-123263573D01*
X74174672Y-122905999D01*
X73883133Y-122624587D01*
X73879358Y-122620785D01*
X73857050Y-122597333D01*
X73245208Y-121954137D01*
X73241592Y-121950170D01*
X73193787Y-121895418D01*
X73007229Y-121681752D01*
X76373590Y-121681752D01*
X76376655Y-121701104D01*
X76409680Y-121802743D01*
X76418575Y-121820201D01*
X76465575Y-121884891D01*
X76471992Y-121892404D01*
X76937555Y-122357967D01*
X76951499Y-122365581D01*
X76953332Y-122365450D01*
X76959947Y-122361199D01*
X77680017Y-121641129D01*
X77687631Y-121627185D01*
X77687500Y-121625352D01*
X77683249Y-121618737D01*
X76963180Y-120898668D01*
X76949236Y-120891054D01*
X76947403Y-120891185D01*
X76940788Y-120895436D01*
X76471997Y-121364227D01*
X76465576Y-121371744D01*
X76418575Y-121436434D01*
X76409680Y-121453891D01*
X76376655Y-121555530D01*
X76373590Y-121574882D01*
X76373590Y-121681752D01*
X73007229Y-121681752D01*
X72636459Y-121257107D01*
X72633014Y-121252987D01*
X72626834Y-121245268D01*
X72113539Y-120604144D01*
X77238408Y-120604144D01*
X77238539Y-120605977D01*
X77242790Y-120612592D01*
X77962860Y-121332662D01*
X77976804Y-121340276D01*
X77978637Y-121340145D01*
X77985252Y-121335894D01*
X78705321Y-120615825D01*
X78712935Y-120601881D01*
X78712804Y-120600048D01*
X78708553Y-120593433D01*
X78239762Y-120124642D01*
X78232245Y-120118221D01*
X78221536Y-120110440D01*
X80836770Y-120110440D01*
X80851200Y-120330604D01*
X80852621Y-120336200D01*
X80852622Y-120336205D01*
X80893500Y-120497160D01*
X80905511Y-120544452D01*
X80907928Y-120549694D01*
X80907928Y-120549695D01*
X80946046Y-120632379D01*
X80997883Y-120744821D01*
X81125222Y-120925002D01*
X81283264Y-121078961D01*
X81288060Y-121082166D01*
X81288063Y-121082168D01*
X81372261Y-121138427D01*
X81466717Y-121201540D01*
X81472020Y-121203818D01*
X81472023Y-121203820D01*
X81664129Y-121286355D01*
X81669436Y-121288635D01*
X81749088Y-121306658D01*
X81878995Y-121336054D01*
X81879001Y-121336055D01*
X81884632Y-121337329D01*
X81890403Y-121337556D01*
X81890405Y-121337556D01*
X81956305Y-121340145D01*
X82105098Y-121345991D01*
X82214275Y-121330161D01*
X82317738Y-121315160D01*
X82317743Y-121315159D01*
X82323452Y-121314331D01*
X82328916Y-121312476D01*
X82328921Y-121312475D01*
X82526907Y-121245268D01*
X82526912Y-121245266D01*
X82532379Y-121243410D01*
X82555307Y-121230570D01*
X82612875Y-121198330D01*
X82724884Y-121135602D01*
X82894518Y-120994518D01*
X82980569Y-120891054D01*
X83031908Y-120829326D01*
X83031910Y-120829323D01*
X83035602Y-120824884D01*
X83133468Y-120650132D01*
X83140586Y-120637422D01*
X83140587Y-120637420D01*
X83143410Y-120632379D01*
X83145266Y-120626912D01*
X83145268Y-120626907D01*
X83212475Y-120428921D01*
X83212476Y-120428916D01*
X83214331Y-120423452D01*
X83215159Y-120417743D01*
X83215160Y-120417738D01*
X83245458Y-120208772D01*
X83245991Y-120205098D01*
X83247643Y-120142000D01*
X83227454Y-119922289D01*
X83219169Y-119892910D01*
X83197509Y-119816112D01*
X83167565Y-119709936D01*
X83069980Y-119512053D01*
X83048087Y-119482734D01*
X82941420Y-119339891D01*
X82941420Y-119339890D01*
X82937967Y-119335267D01*
X82805325Y-119212654D01*
X82780189Y-119189418D01*
X82780186Y-119189416D01*
X82775949Y-119185499D01*
X82589350Y-119067764D01*
X82384421Y-118986006D01*
X82378761Y-118984880D01*
X82378757Y-118984879D01*
X82173691Y-118944089D01*
X82173688Y-118944089D01*
X82168024Y-118942962D01*
X82162249Y-118942886D01*
X82162245Y-118942886D01*
X82051504Y-118941437D01*
X81947406Y-118940074D01*
X81941709Y-118941053D01*
X81941708Y-118941053D01*
X81735654Y-118976459D01*
X81735653Y-118976459D01*
X81729957Y-118977438D01*
X81522957Y-119053804D01*
X81517996Y-119056756D01*
X81517995Y-119056756D01*
X81356737Y-119152695D01*
X81333341Y-119166614D01*
X81167457Y-119312090D01*
X81030863Y-119485360D01*
X80928131Y-119680620D01*
X80862703Y-119891333D01*
X80836770Y-120110440D01*
X78221536Y-120110440D01*
X78167555Y-120071220D01*
X78150098Y-120062325D01*
X78048459Y-120029300D01*
X78029107Y-120026235D01*
X77922237Y-120026235D01*
X77902885Y-120029300D01*
X77801246Y-120062325D01*
X77783788Y-120071220D01*
X77719098Y-120118220D01*
X77711585Y-120124637D01*
X77246022Y-120590200D01*
X77238408Y-120604144D01*
X72113539Y-120604144D01*
X72057962Y-120534727D01*
X72054705Y-120530475D01*
X71510823Y-119788376D01*
X71507761Y-119784007D01*
X70995985Y-119019348D01*
X70993096Y-119014825D01*
X70974853Y-118984879D01*
X70809489Y-118713440D01*
X73470770Y-118713440D01*
X73485200Y-118933604D01*
X73486621Y-118939200D01*
X73486622Y-118939205D01*
X73520055Y-119070845D01*
X73539511Y-119147452D01*
X73541928Y-119152694D01*
X73541928Y-119152695D01*
X73580046Y-119235379D01*
X73631883Y-119347821D01*
X73759222Y-119528002D01*
X73917264Y-119681961D01*
X73922060Y-119685166D01*
X73922063Y-119685168D01*
X74006261Y-119741427D01*
X74100717Y-119804540D01*
X74106020Y-119806818D01*
X74106023Y-119806820D01*
X74289892Y-119885816D01*
X74303436Y-119891635D01*
X74383088Y-119909658D01*
X74512995Y-119939054D01*
X74513001Y-119939055D01*
X74518632Y-119940329D01*
X74524403Y-119940556D01*
X74524405Y-119940556D01*
X74592211Y-119943220D01*
X74739098Y-119948991D01*
X74848275Y-119933161D01*
X74951738Y-119918160D01*
X74951743Y-119918159D01*
X74957452Y-119917331D01*
X74962916Y-119915476D01*
X74962921Y-119915475D01*
X75160907Y-119848268D01*
X75160912Y-119848266D01*
X75166379Y-119846410D01*
X75358884Y-119738602D01*
X75385356Y-119716586D01*
X75524086Y-119601204D01*
X75528518Y-119597518D01*
X75596004Y-119516375D01*
X75665908Y-119432326D01*
X75665910Y-119432323D01*
X75669602Y-119427884D01*
X75777410Y-119235379D01*
X75779266Y-119229912D01*
X75779268Y-119229907D01*
X75846475Y-119031921D01*
X75846476Y-119031916D01*
X75848331Y-119026452D01*
X75849159Y-119020743D01*
X75849160Y-119020738D01*
X75879458Y-118811772D01*
X75879991Y-118808098D01*
X75881643Y-118745000D01*
X75861454Y-118525289D01*
X75801565Y-118312936D01*
X75703980Y-118115053D01*
X75571967Y-117938267D01*
X75442843Y-117818906D01*
X75414189Y-117792418D01*
X75414186Y-117792416D01*
X75409949Y-117788499D01*
X75223350Y-117670764D01*
X75080936Y-117613947D01*
X75023785Y-117591146D01*
X75018421Y-117589006D01*
X75012761Y-117587880D01*
X75012757Y-117587879D01*
X74807691Y-117547089D01*
X74807688Y-117547089D01*
X74802024Y-117545962D01*
X74796249Y-117545886D01*
X74796245Y-117545886D01*
X74685504Y-117544437D01*
X74581406Y-117543074D01*
X74575709Y-117544053D01*
X74575708Y-117544053D01*
X74369654Y-117579459D01*
X74369653Y-117579459D01*
X74363957Y-117580438D01*
X74156957Y-117656804D01*
X74151996Y-117659756D01*
X74151995Y-117659756D01*
X74057275Y-117716109D01*
X73967341Y-117769614D01*
X73801457Y-117915090D01*
X73664863Y-118088360D01*
X73562131Y-118283620D01*
X73496703Y-118494333D01*
X73470770Y-118713440D01*
X70809489Y-118713440D01*
X70514422Y-118229097D01*
X70511729Y-118224457D01*
X70473830Y-118155820D01*
X70088168Y-117457379D01*
X70066972Y-117418993D01*
X70064476Y-117414234D01*
X69793653Y-116870160D01*
X69654494Y-116590594D01*
X69652204Y-116585738D01*
X69581662Y-116427440D01*
X81979770Y-116427440D01*
X81994200Y-116647604D01*
X81995621Y-116653200D01*
X81995622Y-116653205D01*
X82037356Y-116817531D01*
X82048511Y-116861452D01*
X82050928Y-116866694D01*
X82050928Y-116866695D01*
X82126258Y-117030098D01*
X82140883Y-117061821D01*
X82268222Y-117242002D01*
X82426264Y-117395961D01*
X82431060Y-117399166D01*
X82431063Y-117399168D01*
X82528310Y-117464146D01*
X82609717Y-117518540D01*
X82615020Y-117520818D01*
X82615023Y-117520820D01*
X82753788Y-117580438D01*
X82812436Y-117605635D01*
X82849170Y-117613947D01*
X83021995Y-117653054D01*
X83022001Y-117653055D01*
X83027632Y-117654329D01*
X83033403Y-117654556D01*
X83033405Y-117654556D01*
X83101211Y-117657220D01*
X83248098Y-117662991D01*
X83357275Y-117647161D01*
X83460738Y-117632160D01*
X83460743Y-117632159D01*
X83466452Y-117631331D01*
X83471916Y-117629476D01*
X83471921Y-117629475D01*
X83669907Y-117562268D01*
X83669912Y-117562266D01*
X83675379Y-117560410D01*
X83699166Y-117547089D01*
X83799575Y-117490857D01*
X83867884Y-117452602D01*
X83906977Y-117420089D01*
X84033086Y-117315204D01*
X84037518Y-117311518D01*
X84178602Y-117141884D01*
X84243606Y-117025812D01*
X84283586Y-116954422D01*
X84283587Y-116954420D01*
X84286410Y-116949379D01*
X84288266Y-116943912D01*
X84288268Y-116943907D01*
X84355475Y-116745921D01*
X84355476Y-116745916D01*
X84357331Y-116740452D01*
X84358159Y-116734743D01*
X84358160Y-116734738D01*
X84386323Y-116540500D01*
X84388991Y-116522098D01*
X84390643Y-116459000D01*
X84370454Y-116239289D01*
X84310565Y-116026936D01*
X84212980Y-115829053D01*
X84192375Y-115801459D01*
X84084420Y-115656891D01*
X84084420Y-115656890D01*
X84080967Y-115652267D01*
X83956574Y-115537279D01*
X83923189Y-115506418D01*
X83923186Y-115506416D01*
X83918949Y-115502499D01*
X83732350Y-115384764D01*
X83527421Y-115303006D01*
X83521761Y-115301880D01*
X83521757Y-115301879D01*
X83316691Y-115261089D01*
X83316688Y-115261089D01*
X83311024Y-115259962D01*
X83305249Y-115259886D01*
X83305245Y-115259886D01*
X83194504Y-115258437D01*
X83090406Y-115257074D01*
X83084709Y-115258053D01*
X83084708Y-115258053D01*
X82878654Y-115293459D01*
X82878653Y-115293459D01*
X82872957Y-115294438D01*
X82665957Y-115370804D01*
X82660996Y-115373756D01*
X82660995Y-115373756D01*
X82496325Y-115471725D01*
X82476341Y-115483614D01*
X82310457Y-115629090D01*
X82173863Y-115802360D01*
X82071131Y-115997620D01*
X82005703Y-116208333D01*
X81979770Y-116427440D01*
X69581662Y-116427440D01*
X69277688Y-115745309D01*
X69275610Y-115740364D01*
X69271438Y-115729812D01*
X69078278Y-115241329D01*
X68937283Y-114884765D01*
X68935414Y-114879727D01*
X68826428Y-114565551D01*
X69786829Y-114565551D01*
X69801259Y-114785715D01*
X69802680Y-114791311D01*
X69802681Y-114791316D01*
X69850331Y-114978934D01*
X69855570Y-114999563D01*
X69857987Y-115004805D01*
X69857987Y-115004806D01*
X69896105Y-115087490D01*
X69947942Y-115199932D01*
X70075281Y-115380113D01*
X70233323Y-115534072D01*
X70238119Y-115537277D01*
X70238122Y-115537279D01*
X70322320Y-115593538D01*
X70416776Y-115656651D01*
X70422079Y-115658929D01*
X70422082Y-115658931D01*
X70611623Y-115740364D01*
X70619495Y-115743746D01*
X70691760Y-115760098D01*
X70829054Y-115791165D01*
X70829060Y-115791166D01*
X70834691Y-115792440D01*
X70840462Y-115792667D01*
X70840464Y-115792667D01*
X70908270Y-115795331D01*
X71055157Y-115801102D01*
X71164334Y-115785272D01*
X71267797Y-115770271D01*
X71267802Y-115770270D01*
X71273511Y-115769442D01*
X71278975Y-115767587D01*
X71278980Y-115767586D01*
X71476966Y-115700379D01*
X71476971Y-115700377D01*
X71482438Y-115698521D01*
X71531213Y-115671206D01*
X71572023Y-115648351D01*
X71674943Y-115590713D01*
X71844577Y-115449629D01*
X71907680Y-115373756D01*
X71981967Y-115284437D01*
X71981969Y-115284434D01*
X71985661Y-115279995D01*
X72067740Y-115133433D01*
X72090645Y-115092533D01*
X72090646Y-115092531D01*
X72093469Y-115087490D01*
X72095325Y-115082023D01*
X72095327Y-115082018D01*
X72162534Y-114884032D01*
X72162535Y-114884027D01*
X72164390Y-114878563D01*
X72165218Y-114872854D01*
X72165219Y-114872849D01*
X72185448Y-114733326D01*
X72196050Y-114660209D01*
X72197702Y-114597111D01*
X72177513Y-114377400D01*
X72117624Y-114165047D01*
X72043353Y-114014440D01*
X80074770Y-114014440D01*
X80089200Y-114234604D01*
X80090621Y-114240200D01*
X80090622Y-114240205D01*
X80117861Y-114347456D01*
X80143511Y-114448452D01*
X80145928Y-114453694D01*
X80145928Y-114453695D01*
X80181778Y-114531459D01*
X80235883Y-114648821D01*
X80363222Y-114829002D01*
X80521264Y-114982961D01*
X80526060Y-114986166D01*
X80526063Y-114986168D01*
X80640192Y-115062426D01*
X80704717Y-115105540D01*
X80710020Y-115107818D01*
X80710023Y-115107820D01*
X80902129Y-115190355D01*
X80907436Y-115192635D01*
X80960526Y-115204648D01*
X81116995Y-115240054D01*
X81117001Y-115240055D01*
X81122632Y-115241329D01*
X81128403Y-115241556D01*
X81128405Y-115241556D01*
X81196211Y-115244220D01*
X81343098Y-115249991D01*
X81452275Y-115234161D01*
X81555738Y-115219160D01*
X81555743Y-115219159D01*
X81561452Y-115218331D01*
X81566916Y-115216476D01*
X81566921Y-115216475D01*
X81764907Y-115149268D01*
X81764912Y-115149266D01*
X81770379Y-115147410D01*
X81834080Y-115111736D01*
X81904615Y-115072234D01*
X81962884Y-115039602D01*
X82004722Y-115004806D01*
X82128086Y-114902204D01*
X82132518Y-114898518D01*
X82226336Y-114785715D01*
X82269908Y-114733326D01*
X82269910Y-114733323D01*
X82273602Y-114728884D01*
X82368285Y-114559816D01*
X82378586Y-114541422D01*
X82378587Y-114541420D01*
X82381410Y-114536379D01*
X82383266Y-114530912D01*
X82383268Y-114530907D01*
X82450475Y-114332921D01*
X82450476Y-114332916D01*
X82452331Y-114327452D01*
X82453159Y-114321743D01*
X82453160Y-114321738D01*
X82483458Y-114112772D01*
X82483991Y-114109098D01*
X82485643Y-114046000D01*
X82465454Y-113826289D01*
X82457169Y-113796910D01*
X82414193Y-113644529D01*
X82405565Y-113613936D01*
X82307980Y-113416053D01*
X82291049Y-113393379D01*
X82179420Y-113243891D01*
X82179420Y-113243890D01*
X82175967Y-113239267D01*
X82048532Y-113121467D01*
X82018189Y-113093418D01*
X82018186Y-113093416D01*
X82013949Y-113089499D01*
X81827350Y-112971764D01*
X81622421Y-112890006D01*
X81616761Y-112888880D01*
X81616757Y-112888879D01*
X81411691Y-112848089D01*
X81411688Y-112848089D01*
X81406024Y-112846962D01*
X81400249Y-112846886D01*
X81400245Y-112846886D01*
X81289504Y-112845437D01*
X81185406Y-112844074D01*
X81179709Y-112845053D01*
X81179708Y-112845053D01*
X80973654Y-112880459D01*
X80973653Y-112880459D01*
X80967957Y-112881438D01*
X80760957Y-112957804D01*
X80755996Y-112960756D01*
X80755995Y-112960756D01*
X80594737Y-113056695D01*
X80571341Y-113070614D01*
X80405457Y-113216090D01*
X80268863Y-113389360D01*
X80166131Y-113584620D01*
X80133067Y-113691103D01*
X80103458Y-113786462D01*
X80100703Y-113795333D01*
X80074770Y-114014440D01*
X72043353Y-114014440D01*
X72020039Y-113967164D01*
X71888026Y-113790378D01*
X71726008Y-113640610D01*
X71539409Y-113522875D01*
X71334480Y-113441117D01*
X71328820Y-113439991D01*
X71328816Y-113439990D01*
X71123750Y-113399200D01*
X71123747Y-113399200D01*
X71118083Y-113398073D01*
X71112308Y-113397997D01*
X71112304Y-113397997D01*
X71001563Y-113396548D01*
X70897465Y-113395185D01*
X70891768Y-113396164D01*
X70891767Y-113396164D01*
X70685713Y-113431570D01*
X70685712Y-113431570D01*
X70680016Y-113432549D01*
X70473016Y-113508915D01*
X70468055Y-113511867D01*
X70468054Y-113511867D01*
X70305690Y-113608464D01*
X70283400Y-113621725D01*
X70117516Y-113767201D01*
X69980922Y-113940471D01*
X69878190Y-114135731D01*
X69812762Y-114346444D01*
X69786829Y-114565551D01*
X68826428Y-114565551D01*
X68633871Y-114010465D01*
X68632219Y-114005352D01*
X68507801Y-113590324D01*
X68368012Y-113124018D01*
X68366584Y-113118857D01*
X68361650Y-113099418D01*
X68239297Y-112617440D01*
X74105770Y-112617440D01*
X74120200Y-112837604D01*
X74121621Y-112843200D01*
X74121622Y-112843205D01*
X74173090Y-113045857D01*
X74174511Y-113051452D01*
X74176928Y-113056694D01*
X74176928Y-113056695D01*
X74248653Y-113212278D01*
X74266883Y-113251821D01*
X74394222Y-113432002D01*
X74552264Y-113585961D01*
X74557060Y-113589166D01*
X74557063Y-113589168D01*
X74639917Y-113644529D01*
X74735717Y-113708540D01*
X74741020Y-113710818D01*
X74741023Y-113710820D01*
X74863381Y-113763389D01*
X74938436Y-113795635D01*
X74999507Y-113809454D01*
X75147995Y-113843054D01*
X75148001Y-113843055D01*
X75153632Y-113844329D01*
X75159403Y-113844556D01*
X75159405Y-113844556D01*
X75227211Y-113847220D01*
X75374098Y-113852991D01*
X75498924Y-113834892D01*
X75586738Y-113822160D01*
X75586743Y-113822159D01*
X75592452Y-113821331D01*
X75597916Y-113819476D01*
X75597921Y-113819475D01*
X75795907Y-113752268D01*
X75795912Y-113752266D01*
X75801379Y-113750410D01*
X75993884Y-113642602D01*
X76022538Y-113618771D01*
X76159086Y-113505204D01*
X76163518Y-113501518D01*
X76189402Y-113470397D01*
X76300908Y-113336326D01*
X76300910Y-113336323D01*
X76304602Y-113331884D01*
X76404865Y-113152852D01*
X76409586Y-113144422D01*
X76409587Y-113144420D01*
X76412410Y-113139379D01*
X76414266Y-113133912D01*
X76414268Y-113133907D01*
X76481475Y-112935921D01*
X76481476Y-112935916D01*
X76483331Y-112930452D01*
X76484159Y-112924743D01*
X76484160Y-112924738D01*
X76505014Y-112780910D01*
X76514991Y-112712098D01*
X76516643Y-112649000D01*
X76496454Y-112429289D01*
X76493843Y-112420029D01*
X76462340Y-112308330D01*
X76436565Y-112216936D01*
X76338980Y-112019053D01*
X76324104Y-111999131D01*
X76210420Y-111846891D01*
X76210420Y-111846890D01*
X76206967Y-111842267D01*
X76056729Y-111703388D01*
X76049189Y-111696418D01*
X76049186Y-111696416D01*
X76044949Y-111692499D01*
X75858350Y-111574764D01*
X75653421Y-111493006D01*
X75647761Y-111491880D01*
X75647757Y-111491879D01*
X75442691Y-111451089D01*
X75442688Y-111451089D01*
X75437024Y-111449962D01*
X75431249Y-111449886D01*
X75431245Y-111449886D01*
X75320504Y-111448437D01*
X75216406Y-111447074D01*
X75210709Y-111448053D01*
X75210708Y-111448053D01*
X75004654Y-111483459D01*
X75004653Y-111483459D01*
X74998957Y-111484438D01*
X74791957Y-111560804D01*
X74786996Y-111563756D01*
X74786995Y-111563756D01*
X74625737Y-111659695D01*
X74602341Y-111673614D01*
X74436457Y-111819090D01*
X74299863Y-111992360D01*
X74197131Y-112187620D01*
X74131703Y-112398333D01*
X74105770Y-112617440D01*
X68239297Y-112617440D01*
X68190486Y-112425160D01*
X68140204Y-112227086D01*
X68138993Y-112221851D01*
X68003807Y-111574764D01*
X67950839Y-111321226D01*
X67949853Y-111315951D01*
X67800266Y-110408086D01*
X67799508Y-110402781D01*
X67798677Y-110395921D01*
X67688773Y-109489415D01*
X67688240Y-109484068D01*
X67675061Y-109315440D01*
X73724770Y-109315440D01*
X73739200Y-109535604D01*
X73740621Y-109541200D01*
X73740622Y-109541205D01*
X73769050Y-109653138D01*
X73793511Y-109749452D01*
X73795928Y-109754694D01*
X73795928Y-109754695D01*
X73831778Y-109832459D01*
X73885883Y-109949821D01*
X74013222Y-110130002D01*
X74171264Y-110283961D01*
X74176060Y-110287166D01*
X74176063Y-110287168D01*
X74290192Y-110363426D01*
X74354717Y-110406540D01*
X74360020Y-110408818D01*
X74360023Y-110408820D01*
X74548912Y-110489973D01*
X74557436Y-110493635D01*
X74636176Y-110511452D01*
X74766995Y-110541054D01*
X74767001Y-110541055D01*
X74772632Y-110542329D01*
X74778403Y-110542556D01*
X74778405Y-110542556D01*
X74846211Y-110545220D01*
X74993098Y-110550991D01*
X75102275Y-110535161D01*
X75205738Y-110520160D01*
X75205743Y-110520159D01*
X75211452Y-110519331D01*
X75216916Y-110517476D01*
X75216921Y-110517475D01*
X75414907Y-110450268D01*
X75414912Y-110450266D01*
X75420379Y-110448410D01*
X75426865Y-110444778D01*
X75523870Y-110390452D01*
X75612884Y-110340602D01*
X75636159Y-110321245D01*
X75778086Y-110203204D01*
X75782518Y-110199518D01*
X75857802Y-110109000D01*
X75919908Y-110034326D01*
X75919910Y-110034323D01*
X75923602Y-110029884D01*
X76009780Y-109876002D01*
X76028586Y-109842422D01*
X76028587Y-109842420D01*
X76031410Y-109837379D01*
X76033266Y-109831912D01*
X76033268Y-109831907D01*
X76100475Y-109633921D01*
X76100476Y-109633916D01*
X76102331Y-109628452D01*
X76103159Y-109622743D01*
X76103160Y-109622738D01*
X76133458Y-109413772D01*
X76133991Y-109410098D01*
X76135643Y-109347000D01*
X76115454Y-109127289D01*
X76103643Y-109085408D01*
X76065984Y-108951879D01*
X76055565Y-108914936D01*
X75957980Y-108717053D01*
X75843775Y-108564114D01*
X75829420Y-108544891D01*
X75829420Y-108544890D01*
X75825967Y-108540267D01*
X75663949Y-108390499D01*
X75477350Y-108272764D01*
X75272421Y-108191006D01*
X75266761Y-108189880D01*
X75266757Y-108189879D01*
X75061691Y-108149089D01*
X75061688Y-108149089D01*
X75056024Y-108147962D01*
X75050249Y-108147886D01*
X75050245Y-108147886D01*
X74939504Y-108146437D01*
X74835406Y-108145074D01*
X74829709Y-108146053D01*
X74829708Y-108146053D01*
X74623654Y-108181459D01*
X74623653Y-108181459D01*
X74617957Y-108182438D01*
X74410957Y-108258804D01*
X74405996Y-108261756D01*
X74405995Y-108261756D01*
X74310643Y-108318485D01*
X74221341Y-108371614D01*
X74055457Y-108517090D01*
X73918863Y-108690360D01*
X73816131Y-108885620D01*
X73750703Y-109096333D01*
X73724770Y-109315440D01*
X67675061Y-109315440D01*
X67616548Y-108566784D01*
X67616244Y-108561419D01*
X67583730Y-107641949D01*
X67583654Y-107636576D01*
X67588126Y-107024345D01*
X67590375Y-106716496D01*
X67590528Y-106711142D01*
X67591574Y-106690234D01*
X67636472Y-105792211D01*
X67636854Y-105786858D01*
X67637638Y-105778422D01*
X67674250Y-105384206D01*
X67674786Y-105378440D01*
X71184770Y-105378440D01*
X71199200Y-105598604D01*
X71200621Y-105604200D01*
X71200622Y-105604205D01*
X71241512Y-105765206D01*
X71253511Y-105812452D01*
X71255928Y-105817694D01*
X71255928Y-105817695D01*
X71321919Y-105960839D01*
X71345883Y-106012821D01*
X71473222Y-106193002D01*
X71631264Y-106346961D01*
X71636060Y-106350166D01*
X71636063Y-106350168D01*
X71720261Y-106406427D01*
X71814717Y-106469540D01*
X71820020Y-106471818D01*
X71820023Y-106471820D01*
X71960813Y-106532308D01*
X72017436Y-106556635D01*
X72073350Y-106569287D01*
X72226995Y-106604054D01*
X72227001Y-106604055D01*
X72232632Y-106605329D01*
X72238403Y-106605556D01*
X72238405Y-106605556D01*
X72306211Y-106608220D01*
X72453098Y-106613991D01*
X72562275Y-106598161D01*
X72665738Y-106583160D01*
X72665743Y-106583159D01*
X72671452Y-106582331D01*
X72676916Y-106580476D01*
X72676921Y-106580475D01*
X72874907Y-106513268D01*
X72874912Y-106513266D01*
X72880379Y-106511410D01*
X72885992Y-106508267D01*
X73020920Y-106432703D01*
X73072884Y-106403602D01*
X73084645Y-106393821D01*
X73238086Y-106266204D01*
X73242518Y-106262518D01*
X73288744Y-106206938D01*
X73379908Y-106097326D01*
X73379910Y-106097323D01*
X73383602Y-106092884D01*
X73491410Y-105900379D01*
X73493266Y-105894912D01*
X73493268Y-105894907D01*
X73560475Y-105696921D01*
X73560476Y-105696916D01*
X73562331Y-105691452D01*
X73563159Y-105685743D01*
X73563160Y-105685738D01*
X73582346Y-105553413D01*
X73593991Y-105473098D01*
X73595643Y-105410000D01*
X73575454Y-105190289D01*
X73515565Y-104977936D01*
X73417980Y-104780053D01*
X73414264Y-104775076D01*
X73289420Y-104607891D01*
X73289420Y-104607890D01*
X73285967Y-104603267D01*
X73175600Y-104501245D01*
X73128189Y-104457418D01*
X73128186Y-104457416D01*
X73123949Y-104453499D01*
X72937350Y-104335764D01*
X72732421Y-104254006D01*
X72726761Y-104252880D01*
X72726757Y-104252879D01*
X72521691Y-104212089D01*
X72521688Y-104212089D01*
X72516024Y-104210962D01*
X72510249Y-104210886D01*
X72510245Y-104210886D01*
X72399504Y-104209437D01*
X72295406Y-104208074D01*
X72289709Y-104209053D01*
X72289708Y-104209053D01*
X72083654Y-104244459D01*
X72083653Y-104244459D01*
X72077957Y-104245438D01*
X71870957Y-104321804D01*
X71865996Y-104324756D01*
X71865995Y-104324756D01*
X71769616Y-104382096D01*
X71681341Y-104434614D01*
X71515457Y-104580090D01*
X71378863Y-104753360D01*
X71276131Y-104948620D01*
X71210703Y-105159333D01*
X71184770Y-105378440D01*
X67674786Y-105378440D01*
X67721938Y-104870738D01*
X67722549Y-104865399D01*
X67846616Y-103953736D01*
X67847454Y-103948429D01*
X67973592Y-103246920D01*
X68010280Y-103042883D01*
X68011341Y-103037626D01*
X68014476Y-103023646D01*
X68212642Y-102139799D01*
X68213926Y-102134599D01*
X68433753Y-101318808D01*
X68453307Y-101246241D01*
X68454812Y-101241093D01*
X68459414Y-101226520D01*
X68731870Y-100363699D01*
X68733593Y-100358622D01*
X68750586Y-100311856D01*
X69047794Y-99493882D01*
X69049734Y-99488875D01*
X69060787Y-99462076D01*
X69164052Y-99211688D01*
X70769217Y-99211688D01*
X70776272Y-99221661D01*
X70866013Y-99296695D01*
X70872950Y-99301735D01*
X71114002Y-99452947D01*
X71121553Y-99456996D01*
X71380907Y-99574099D01*
X71388938Y-99577085D01*
X71661783Y-99657906D01*
X71670135Y-99659773D01*
X71951431Y-99702817D01*
X71959964Y-99703533D01*
X72244494Y-99708004D01*
X72253045Y-99707555D01*
X72535553Y-99673368D01*
X72543954Y-99671766D01*
X72819222Y-99599551D01*
X72827324Y-99596824D01*
X73090239Y-99487920D01*
X73097901Y-99484117D01*
X73343595Y-99340545D01*
X73350682Y-99335728D01*
X73494602Y-99222881D01*
X73503073Y-99211021D01*
X73496557Y-99199400D01*
X72148812Y-97851655D01*
X72134868Y-97844041D01*
X72133035Y-97844172D01*
X72126420Y-97848423D01*
X70776509Y-99198334D01*
X70769217Y-99211688D01*
X69164052Y-99211688D01*
X69259761Y-98979620D01*
X69400537Y-98638277D01*
X69402692Y-98633354D01*
X69768910Y-97842814D01*
X69815693Y-97789411D01*
X69883921Y-97769779D01*
X69951932Y-97790150D01*
X69998134Y-97844057D01*
X70006881Y-97871519D01*
X70053582Y-98109554D01*
X70055795Y-98117816D01*
X70147974Y-98387049D01*
X70151290Y-98394936D01*
X70279153Y-98649165D01*
X70283509Y-98656531D01*
X70444691Y-98891051D01*
X70450010Y-98897762D01*
X70467063Y-98916503D01*
X70480629Y-98924763D01*
X70480882Y-98924757D01*
X70489900Y-98919257D01*
X71852025Y-97557132D01*
X72424041Y-97557132D01*
X72424172Y-97558965D01*
X72428423Y-97565580D01*
X73780969Y-98918126D01*
X73793179Y-98924793D01*
X73804678Y-98916104D01*
X73953009Y-98714175D01*
X73957593Y-98706952D01*
X74093378Y-98456868D01*
X74096944Y-98449077D01*
X74197531Y-98182880D01*
X74200002Y-98174695D01*
X74263535Y-97897300D01*
X74264873Y-97888846D01*
X74290331Y-97603597D01*
X74290577Y-97598657D01*
X74290998Y-97558484D01*
X74290855Y-97553520D01*
X74271377Y-97267807D01*
X74270216Y-97259333D01*
X74212507Y-96980668D01*
X74210208Y-96972433D01*
X74115214Y-96704178D01*
X74111816Y-96696325D01*
X73981299Y-96443453D01*
X73976865Y-96436131D01*
X73813235Y-96203309D01*
X73807849Y-96196658D01*
X73805892Y-96194552D01*
X73792241Y-96186435D01*
X73791634Y-96186456D01*
X73783154Y-96191689D01*
X72431655Y-97543188D01*
X72424041Y-97557132D01*
X71852025Y-97557132D01*
X73495508Y-95913649D01*
X73502699Y-95900480D01*
X73495376Y-95890242D01*
X73387685Y-95802098D01*
X73380713Y-95797142D01*
X73138076Y-95648454D01*
X73130478Y-95644482D01*
X72869916Y-95530103D01*
X72861862Y-95527204D01*
X72588183Y-95449244D01*
X72579808Y-95447464D01*
X72298082Y-95407368D01*
X72289534Y-95406741D01*
X72004971Y-95405250D01*
X71996437Y-95405787D01*
X71714300Y-95442932D01*
X71705902Y-95444625D01*
X71431423Y-95519714D01*
X71423336Y-95522530D01*
X71328022Y-95563185D01*
X71257515Y-95571514D01*
X71193699Y-95540401D01*
X71156834Y-95479726D01*
X71158625Y-95408752D01*
X71174910Y-95375684D01*
X71213474Y-95319848D01*
X71691498Y-94627712D01*
X71694645Y-94623357D01*
X72249310Y-93889283D01*
X72252640Y-93885066D01*
X72838098Y-93175313D01*
X72841605Y-93171241D01*
X73456802Y-92487087D01*
X73460480Y-92483169D01*
X74104296Y-91825861D01*
X74108137Y-91822103D01*
X74779385Y-91192852D01*
X74783358Y-91189283D01*
X75480878Y-90589181D01*
X75484958Y-90585820D01*
X76207415Y-90016017D01*
X76211642Y-90012825D01*
X76387120Y-89886178D01*
X76454060Y-89862532D01*
X76523161Y-89878831D01*
X76572480Y-89929901D01*
X76586359Y-89999528D01*
X76572364Y-90047017D01*
X76483131Y-90216620D01*
X76417703Y-90427333D01*
X76391770Y-90646440D01*
X76392148Y-90652206D01*
X76404543Y-90841315D01*
X76406200Y-90866604D01*
X76407621Y-90872200D01*
X76407622Y-90872205D01*
X76443800Y-91014653D01*
X76460511Y-91080452D01*
X76462928Y-91085694D01*
X76462928Y-91085695D01*
X76499238Y-91164457D01*
X76552883Y-91280821D01*
X76556216Y-91285537D01*
X76673397Y-91451345D01*
X76696500Y-91524065D01*
X76696500Y-91712361D01*
X76676498Y-91780482D01*
X76622842Y-91826975D01*
X76552568Y-91837079D01*
X76487988Y-91807585D01*
X76469543Y-91787751D01*
X76464422Y-91780893D01*
X76464419Y-91780889D01*
X76460967Y-91776267D01*
X76298949Y-91626499D01*
X76112350Y-91508764D01*
X75907421Y-91427006D01*
X75901761Y-91425880D01*
X75901757Y-91425879D01*
X75696691Y-91385089D01*
X75696688Y-91385089D01*
X75691024Y-91383962D01*
X75685249Y-91383886D01*
X75685245Y-91383886D01*
X75574504Y-91382437D01*
X75470406Y-91381074D01*
X75464709Y-91382053D01*
X75464708Y-91382053D01*
X75258654Y-91417459D01*
X75258653Y-91417459D01*
X75252957Y-91418438D01*
X75045957Y-91494804D01*
X75040996Y-91497756D01*
X75040995Y-91497756D01*
X74883551Y-91591426D01*
X74856341Y-91607614D01*
X74690457Y-91753090D01*
X74553863Y-91926360D01*
X74451131Y-92121620D01*
X74385703Y-92332333D01*
X74359770Y-92551440D01*
X74374200Y-92771604D01*
X74375621Y-92777200D01*
X74375622Y-92777205D01*
X74422315Y-92961056D01*
X74428511Y-92985452D01*
X74430928Y-92990694D01*
X74430928Y-92990695D01*
X74464299Y-93063081D01*
X74520883Y-93185821D01*
X74648222Y-93366002D01*
X74806264Y-93519961D01*
X74808799Y-93521655D01*
X74848647Y-93579342D01*
X74855000Y-93618846D01*
X74855000Y-98584005D01*
X74832076Y-98654557D01*
X74832468Y-98654783D01*
X74832467Y-98654784D01*
X74825534Y-98666791D01*
X74814339Y-98683080D01*
X74805617Y-98693851D01*
X74802621Y-98699731D01*
X74802619Y-98699734D01*
X74774849Y-98754234D01*
X74771703Y-98760029D01*
X74742245Y-98811053D01*
X74737821Y-98818716D01*
X74733977Y-98830547D01*
X74733536Y-98831903D01*
X74725973Y-98850160D01*
X74719680Y-98862512D01*
X74717972Y-98868885D01*
X74717970Y-98868891D01*
X74702138Y-98927975D01*
X74700265Y-98934299D01*
X74688861Y-98969398D01*
X74679326Y-98998744D01*
X74678636Y-99005305D01*
X74678636Y-99005307D01*
X74677878Y-99012521D01*
X74674275Y-99031963D01*
X74670687Y-99045354D01*
X74670342Y-99051943D01*
X74670341Y-99051948D01*
X74667142Y-99113017D01*
X74666624Y-99119600D01*
X74664844Y-99136530D01*
X74664843Y-99136541D01*
X74664500Y-99139808D01*
X74664500Y-99160126D01*
X74664327Y-99166720D01*
X74661166Y-99227046D01*
X74660781Y-99234388D01*
X74661813Y-99240904D01*
X74662949Y-99248076D01*
X74664500Y-99267787D01*
X74664500Y-102662213D01*
X74662949Y-102681923D01*
X74660781Y-102695612D01*
X74661126Y-102702200D01*
X74661126Y-102702204D01*
X74664327Y-102763280D01*
X74664500Y-102769874D01*
X74664500Y-102790192D01*
X74664843Y-102793459D01*
X74664844Y-102793470D01*
X74666624Y-102810400D01*
X74667141Y-102816966D01*
X74670687Y-102884646D01*
X74674274Y-102898031D01*
X74677878Y-102917479D01*
X74679326Y-102931256D01*
X74681366Y-102937533D01*
X74681366Y-102937535D01*
X74700265Y-102995701D01*
X74702138Y-103002025D01*
X74717970Y-103061109D01*
X74717972Y-103061115D01*
X74719680Y-103067488D01*
X74722676Y-103073367D01*
X74722677Y-103073371D01*
X74725973Y-103079840D01*
X74733536Y-103098097D01*
X74737821Y-103111284D01*
X74741121Y-103116999D01*
X74741121Y-103117000D01*
X74771703Y-103169971D01*
X74774849Y-103175766D01*
X74799894Y-103224918D01*
X74805617Y-103236149D01*
X74809771Y-103241278D01*
X74809771Y-103241279D01*
X74814339Y-103246920D01*
X74825534Y-103263209D01*
X74832467Y-103275216D01*
X74836888Y-103280126D01*
X74877815Y-103325580D01*
X74882099Y-103330596D01*
X74894881Y-103346380D01*
X74909230Y-103360729D01*
X74913771Y-103365513D01*
X74959129Y-103415888D01*
X74970351Y-103424041D01*
X74985379Y-103436878D01*
X75685124Y-104136623D01*
X75719150Y-104198935D01*
X75714085Y-104269750D01*
X75671538Y-104326586D01*
X75660452Y-104334003D01*
X75569727Y-104387979D01*
X75491341Y-104434614D01*
X75325457Y-104580090D01*
X75188863Y-104753360D01*
X75086131Y-104948620D01*
X75020703Y-105159333D01*
X74994770Y-105378440D01*
X75009200Y-105598604D01*
X75010621Y-105604200D01*
X75010622Y-105604205D01*
X75051512Y-105765206D01*
X75063511Y-105812452D01*
X75065928Y-105817694D01*
X75065928Y-105817695D01*
X75131919Y-105960839D01*
X75155883Y-106012821D01*
X75283222Y-106193002D01*
X75441264Y-106346961D01*
X75446060Y-106350166D01*
X75446063Y-106350168D01*
X75530261Y-106406427D01*
X75624717Y-106469540D01*
X75630020Y-106471818D01*
X75630023Y-106471820D01*
X75770813Y-106532308D01*
X75827436Y-106556635D01*
X75883350Y-106569287D01*
X76036995Y-106604054D01*
X76037001Y-106604055D01*
X76042632Y-106605329D01*
X76048403Y-106605556D01*
X76048405Y-106605556D01*
X76116211Y-106608220D01*
X76263098Y-106613991D01*
X76372275Y-106598161D01*
X76475738Y-106583160D01*
X76475743Y-106583159D01*
X76481452Y-106582331D01*
X76486916Y-106580476D01*
X76486921Y-106580475D01*
X76684907Y-106513268D01*
X76684912Y-106513266D01*
X76690379Y-106511410D01*
X76695992Y-106508267D01*
X76830920Y-106432703D01*
X76882884Y-106403602D01*
X76894645Y-106393821D01*
X77048086Y-106266204D01*
X77052518Y-106262518D01*
X77098744Y-106206938D01*
X77189908Y-106097326D01*
X77189910Y-106097323D01*
X77193602Y-106092884D01*
X77262238Y-105970326D01*
X77273019Y-105951075D01*
X77323756Y-105901414D01*
X77393288Y-105887067D01*
X77459538Y-105912589D01*
X77472048Y-105923547D01*
X78018497Y-106469996D01*
X78052523Y-106532308D01*
X78047458Y-106603123D01*
X78004911Y-106659959D01*
X77993825Y-106667376D01*
X77964113Y-106685053D01*
X77904341Y-106720614D01*
X77738457Y-106866090D01*
X77601863Y-107039360D01*
X77499131Y-107234620D01*
X77433703Y-107445333D01*
X77407770Y-107664440D01*
X77408148Y-107670206D01*
X77416093Y-107791422D01*
X77400589Y-107860705D01*
X77350089Y-107910608D01*
X77311699Y-107923843D01*
X77290657Y-107927458D01*
X77290651Y-107927460D01*
X77284957Y-107928438D01*
X77077957Y-108004804D01*
X76888341Y-108117614D01*
X76722457Y-108263090D01*
X76585863Y-108436360D01*
X76483131Y-108631620D01*
X76417703Y-108842333D01*
X76391770Y-109061440D01*
X76406200Y-109281604D01*
X76407621Y-109287200D01*
X76407622Y-109287205D01*
X76439767Y-109413772D01*
X76460511Y-109495452D01*
X76462928Y-109500694D01*
X76462928Y-109500695D01*
X76528303Y-109642504D01*
X76552883Y-109695821D01*
X76680222Y-109876002D01*
X76838264Y-110029961D01*
X76843060Y-110033166D01*
X76843063Y-110033168D01*
X76980930Y-110125287D01*
X77021717Y-110152540D01*
X77027020Y-110154818D01*
X77027023Y-110154820D01*
X77151646Y-110208362D01*
X77224436Y-110239635D01*
X77304088Y-110257658D01*
X77433995Y-110287054D01*
X77434001Y-110287055D01*
X77439632Y-110288329D01*
X77445403Y-110288556D01*
X77445405Y-110288556D01*
X77513211Y-110291220D01*
X77660098Y-110296991D01*
X77769275Y-110281161D01*
X77872738Y-110266160D01*
X77872743Y-110266159D01*
X77878452Y-110265331D01*
X77883916Y-110263476D01*
X77883921Y-110263475D01*
X78081907Y-110196268D01*
X78081912Y-110196266D01*
X78087379Y-110194410D01*
X78092992Y-110191267D01*
X78210807Y-110125287D01*
X78279884Y-110086602D01*
X78310224Y-110061369D01*
X78445086Y-109949204D01*
X78449518Y-109945518D01*
X78517261Y-109864067D01*
X78586908Y-109780326D01*
X78586910Y-109780323D01*
X78590602Y-109775884D01*
X78698410Y-109583379D01*
X78700266Y-109577912D01*
X78700268Y-109577907D01*
X78767475Y-109379921D01*
X78767476Y-109379916D01*
X78769331Y-109374452D01*
X78770159Y-109368743D01*
X78770160Y-109368738D01*
X78794804Y-109198768D01*
X78800991Y-109156098D01*
X78802643Y-109093000D01*
X78801946Y-109085408D01*
X78794355Y-109002806D01*
X78808039Y-108933140D01*
X78857216Y-108881933D01*
X78889777Y-108869009D01*
X78894452Y-108868331D01*
X78971040Y-108842333D01*
X79097907Y-108799268D01*
X79097912Y-108799266D01*
X79103379Y-108797410D01*
X79137353Y-108778384D01*
X79237615Y-108722234D01*
X79295884Y-108689602D01*
X79365600Y-108631620D01*
X79461086Y-108552204D01*
X79465518Y-108548518D01*
X79539675Y-108459355D01*
X79602908Y-108383326D01*
X79602910Y-108383323D01*
X79606602Y-108378884D01*
X79640428Y-108318483D01*
X79691163Y-108268823D01*
X79760694Y-108254474D01*
X79826945Y-108279996D01*
X79839456Y-108290955D01*
X80260169Y-108711668D01*
X80294195Y-108773980D01*
X80289130Y-108844795D01*
X80246583Y-108901631D01*
X80192412Y-108924943D01*
X80084654Y-108943459D01*
X80084653Y-108943459D01*
X80078957Y-108944438D01*
X79871957Y-109020804D01*
X79866996Y-109023756D01*
X79866995Y-109023756D01*
X79702325Y-109121725D01*
X79682341Y-109133614D01*
X79516457Y-109279090D01*
X79379863Y-109452360D01*
X79277131Y-109647620D01*
X79211703Y-109858333D01*
X79185770Y-110077440D01*
X79200200Y-110297604D01*
X79201621Y-110303200D01*
X79201622Y-110303205D01*
X79253088Y-110505851D01*
X79253090Y-110505856D01*
X79253579Y-110507782D01*
X79253579Y-110507784D01*
X79254511Y-110511452D01*
X79253791Y-110511635D01*
X79257432Y-110578027D01*
X79246281Y-110607870D01*
X79150131Y-110790620D01*
X79084703Y-111001333D01*
X79058770Y-111220440D01*
X79073200Y-111440604D01*
X79074621Y-111446200D01*
X79074622Y-111446205D01*
X79114520Y-111603300D01*
X79127511Y-111654452D01*
X79129928Y-111659694D01*
X79129928Y-111659695D01*
X79187708Y-111785029D01*
X79219883Y-111854821D01*
X79347222Y-112035002D01*
X79505264Y-112188961D01*
X79510060Y-112192166D01*
X79510063Y-112192168D01*
X79624192Y-112268426D01*
X79688717Y-112311540D01*
X79694020Y-112313818D01*
X79694023Y-112313820D01*
X79877892Y-112392816D01*
X79891436Y-112398635D01*
X79947350Y-112411287D01*
X80100995Y-112446054D01*
X80101001Y-112446055D01*
X80106632Y-112447329D01*
X80112403Y-112447556D01*
X80112405Y-112447556D01*
X80180211Y-112450220D01*
X80327098Y-112455991D01*
X80436275Y-112440161D01*
X80539738Y-112425160D01*
X80539743Y-112425159D01*
X80545452Y-112424331D01*
X80550916Y-112422476D01*
X80550921Y-112422475D01*
X80748907Y-112355268D01*
X80748912Y-112355266D01*
X80754379Y-112353410D01*
X80774452Y-112342169D01*
X80888615Y-112278234D01*
X80946884Y-112245602D01*
X80958645Y-112235821D01*
X81112086Y-112108204D01*
X81116518Y-112104518D01*
X81204276Y-111999001D01*
X81253908Y-111939326D01*
X81253910Y-111939323D01*
X81257602Y-111934884D01*
X81365410Y-111742379D01*
X81367266Y-111736912D01*
X81367268Y-111736907D01*
X81434475Y-111538921D01*
X81434476Y-111538916D01*
X81436331Y-111533452D01*
X81437159Y-111527743D01*
X81437160Y-111527738D01*
X81456346Y-111395413D01*
X81467991Y-111315098D01*
X81469643Y-111252000D01*
X81449454Y-111032289D01*
X81396807Y-110845615D01*
X81397568Y-110774623D01*
X81408140Y-110749855D01*
X81492410Y-110599379D01*
X81494266Y-110593912D01*
X81494268Y-110593907D01*
X81561475Y-110395921D01*
X81561476Y-110395916D01*
X81563331Y-110390452D01*
X81574831Y-110311135D01*
X81604401Y-110246591D01*
X81664172Y-110208278D01*
X81735169Y-110208362D01*
X81788622Y-110240121D01*
X87369124Y-115820623D01*
X87403150Y-115882935D01*
X87398085Y-115953750D01*
X87355538Y-116010586D01*
X87344452Y-116018003D01*
X87180306Y-116115660D01*
X87175341Y-116118614D01*
X87009457Y-116264090D01*
X86872863Y-116437360D01*
X86770131Y-116632620D01*
X86704703Y-116843333D01*
X86678770Y-117062440D01*
X86693200Y-117282604D01*
X86694621Y-117288200D01*
X86694622Y-117288205D01*
X86738763Y-117462006D01*
X86747511Y-117496452D01*
X86749928Y-117501694D01*
X86749928Y-117501695D01*
X86813530Y-117639658D01*
X86839883Y-117696821D01*
X86967222Y-117877002D01*
X87125264Y-118030961D01*
X87130060Y-118034166D01*
X87130063Y-118034168D01*
X87244192Y-118110426D01*
X87308717Y-118153540D01*
X87314020Y-118155818D01*
X87314023Y-118155820D01*
X87479234Y-118226800D01*
X87511436Y-118240635D01*
X87591088Y-118258658D01*
X87720995Y-118288054D01*
X87721001Y-118288055D01*
X87726632Y-118289329D01*
X87732403Y-118289556D01*
X87732405Y-118289556D01*
X87800211Y-118292220D01*
X87947098Y-118297991D01*
X88056275Y-118282161D01*
X88159738Y-118267160D01*
X88159743Y-118267159D01*
X88165452Y-118266331D01*
X88170916Y-118264476D01*
X88170921Y-118264475D01*
X88368907Y-118197268D01*
X88368912Y-118197266D01*
X88374379Y-118195410D01*
X88566884Y-118087602D01*
X88680349Y-117993234D01*
X88732086Y-117950204D01*
X88736518Y-117946518D01*
X88841100Y-117820773D01*
X88873908Y-117781326D01*
X88873910Y-117781323D01*
X88877602Y-117776884D01*
X88941512Y-117662764D01*
X88957019Y-117635075D01*
X89007756Y-117585414D01*
X89077288Y-117571067D01*
X89143538Y-117596589D01*
X89156048Y-117607547D01*
X90746122Y-119197621D01*
X90758959Y-119212649D01*
X90767112Y-119223871D01*
X90772014Y-119228284D01*
X90772015Y-119228286D01*
X90817487Y-119269229D01*
X90822271Y-119273770D01*
X90836620Y-119288119D01*
X90839184Y-119290195D01*
X90852404Y-119300901D01*
X90857420Y-119305185D01*
X90895965Y-119339891D01*
X90907784Y-119350533D01*
X90919791Y-119357466D01*
X90936080Y-119368661D01*
X90946851Y-119377383D01*
X90952731Y-119380379D01*
X90952734Y-119380381D01*
X91007234Y-119408151D01*
X91013029Y-119411297D01*
X91066000Y-119441879D01*
X91071716Y-119445179D01*
X91083547Y-119449023D01*
X91084903Y-119449464D01*
X91103160Y-119457027D01*
X91109629Y-119460323D01*
X91109633Y-119460324D01*
X91115512Y-119463320D01*
X91180980Y-119480862D01*
X91187281Y-119482729D01*
X91251744Y-119503674D01*
X91265087Y-119505076D01*
X91265533Y-119505123D01*
X91284971Y-119508726D01*
X91286540Y-119509146D01*
X91298354Y-119512312D01*
X91304954Y-119512658D01*
X91304955Y-119512658D01*
X91366011Y-119515858D01*
X91372585Y-119516375D01*
X91389534Y-119518156D01*
X91389536Y-119518156D01*
X91392808Y-119518500D01*
X91413133Y-119518500D01*
X91419727Y-119518673D01*
X91480796Y-119521874D01*
X91480801Y-119521874D01*
X91487388Y-119522219D01*
X91501077Y-119520051D01*
X91520787Y-119518500D01*
X100487271Y-119518500D01*
X100555392Y-119538502D01*
X100566966Y-119547704D01*
X100567298Y-119547294D01*
X100571794Y-119550935D01*
X100575927Y-119554961D01*
X100580723Y-119558166D01*
X100580726Y-119558168D01*
X100664924Y-119614427D01*
X100759380Y-119677540D01*
X100764683Y-119679818D01*
X100764686Y-119679820D01*
X100908081Y-119741427D01*
X100962099Y-119764635D01*
X101041751Y-119782658D01*
X101171658Y-119812054D01*
X101171664Y-119812055D01*
X101177295Y-119813329D01*
X101183066Y-119813556D01*
X101183068Y-119813556D01*
X101250874Y-119816220D01*
X101397761Y-119821991D01*
X101518118Y-119804540D01*
X101610401Y-119791160D01*
X101610406Y-119791159D01*
X101616115Y-119790331D01*
X101621579Y-119788476D01*
X101621584Y-119788475D01*
X101819570Y-119721268D01*
X101819575Y-119721266D01*
X101825042Y-119719410D01*
X101884454Y-119686138D01*
X101905538Y-119674330D01*
X102017547Y-119611602D01*
X102030050Y-119601204D01*
X102182749Y-119474204D01*
X102187181Y-119470518D01*
X102223067Y-119427370D01*
X102324571Y-119305326D01*
X102324573Y-119305323D01*
X102328265Y-119300884D01*
X102414191Y-119147452D01*
X102433249Y-119113422D01*
X102433250Y-119113420D01*
X102436073Y-119108379D01*
X102437929Y-119102912D01*
X102437931Y-119102907D01*
X102505138Y-118904921D01*
X102505139Y-118904916D01*
X102506994Y-118899452D01*
X102507822Y-118893743D01*
X102507823Y-118893738D01*
X102527009Y-118761413D01*
X102538654Y-118681098D01*
X102540306Y-118618000D01*
X102520117Y-118398289D01*
X102497615Y-118318500D01*
X102490173Y-118292113D01*
X102460228Y-118185936D01*
X102362643Y-117988053D01*
X102311551Y-117919632D01*
X102234083Y-117815891D01*
X102234083Y-117815890D01*
X102230630Y-117811267D01*
X102133249Y-117721249D01*
X102072852Y-117665418D01*
X102072849Y-117665416D01*
X102068612Y-117661499D01*
X101882013Y-117543764D01*
X101677084Y-117462006D01*
X101671424Y-117460880D01*
X101671420Y-117460879D01*
X101466354Y-117420089D01*
X101466351Y-117420089D01*
X101460687Y-117418962D01*
X101454912Y-117418886D01*
X101454908Y-117418886D01*
X101344167Y-117417437D01*
X101240069Y-117416074D01*
X101234372Y-117417053D01*
X101234371Y-117417053D01*
X101028317Y-117452459D01*
X101028316Y-117452459D01*
X101022620Y-117453438D01*
X100815620Y-117529804D01*
X100810659Y-117532756D01*
X100810658Y-117532756D01*
X100630972Y-117639658D01*
X100630969Y-117639660D01*
X100626004Y-117642614D01*
X100621660Y-117646424D01*
X100621654Y-117646428D01*
X100576266Y-117686232D01*
X100511862Y-117716109D01*
X100493189Y-117717500D01*
X94896711Y-117717500D01*
X94828590Y-117697498D01*
X94782097Y-117643842D01*
X94771993Y-117573568D01*
X94786776Y-117529937D01*
X94827410Y-117457379D01*
X94829266Y-117451912D01*
X94829268Y-117451907D01*
X94856159Y-117372688D01*
X102265217Y-117372688D01*
X102272272Y-117382661D01*
X102362013Y-117457695D01*
X102368950Y-117462735D01*
X102610002Y-117613947D01*
X102617553Y-117617996D01*
X102876907Y-117735099D01*
X102884938Y-117738085D01*
X103157783Y-117818906D01*
X103166135Y-117820773D01*
X103447431Y-117863817D01*
X103455964Y-117864533D01*
X103740494Y-117869004D01*
X103749045Y-117868555D01*
X104031553Y-117834368D01*
X104039954Y-117832766D01*
X104315222Y-117760551D01*
X104323324Y-117757824D01*
X104586239Y-117648920D01*
X104593901Y-117645117D01*
X104839595Y-117501545D01*
X104846682Y-117496728D01*
X104990602Y-117383881D01*
X104999073Y-117372021D01*
X104992557Y-117360400D01*
X103644812Y-116012655D01*
X103630868Y-116005041D01*
X103629035Y-116005172D01*
X103622420Y-116009423D01*
X102272509Y-117359334D01*
X102265217Y-117372688D01*
X94856159Y-117372688D01*
X94896475Y-117253921D01*
X94896476Y-117253916D01*
X94898331Y-117248452D01*
X94899159Y-117242743D01*
X94899160Y-117242738D01*
X94918346Y-117110413D01*
X94929991Y-117030098D01*
X94931643Y-116967000D01*
X94911454Y-116747289D01*
X94851565Y-116534936D01*
X94753980Y-116337053D01*
X94726178Y-116299821D01*
X94625420Y-116164891D01*
X94625420Y-116164890D01*
X94621967Y-116160267D01*
X94483750Y-116032500D01*
X94464189Y-116014418D01*
X94464186Y-116014416D01*
X94459949Y-116010499D01*
X94273350Y-115892764D01*
X94068421Y-115811006D01*
X94062761Y-115809880D01*
X94062757Y-115809879D01*
X93857691Y-115769089D01*
X93857688Y-115769089D01*
X93852024Y-115767962D01*
X93846249Y-115767886D01*
X93846245Y-115767886D01*
X93735504Y-115766437D01*
X93631406Y-115765074D01*
X93625709Y-115766053D01*
X93625708Y-115766053D01*
X93419654Y-115801459D01*
X93419653Y-115801459D01*
X93413957Y-115802438D01*
X93206957Y-115878804D01*
X93201996Y-115881756D01*
X93201995Y-115881756D01*
X93049069Y-115972738D01*
X93017341Y-115991614D01*
X92851457Y-116137090D01*
X92714863Y-116310360D01*
X92612131Y-116505620D01*
X92546703Y-116716333D01*
X92520770Y-116935440D01*
X92535200Y-117155604D01*
X92536621Y-117161200D01*
X92536622Y-117161205D01*
X92586941Y-117359334D01*
X92589511Y-117369452D01*
X92667559Y-117538751D01*
X92677914Y-117608986D01*
X92648652Y-117673672D01*
X92589063Y-117712268D01*
X92553133Y-117717500D01*
X91865189Y-117717500D01*
X91797068Y-117697498D01*
X91776094Y-117680595D01*
X89760939Y-115665440D01*
X97473770Y-115665440D01*
X97488200Y-115885604D01*
X97489621Y-115891200D01*
X97489622Y-115891205D01*
X97532060Y-116058300D01*
X97542511Y-116099452D01*
X97544928Y-116104694D01*
X97544928Y-116104695D01*
X97583046Y-116187379D01*
X97634883Y-116299821D01*
X97762222Y-116480002D01*
X97920264Y-116633961D01*
X97925060Y-116637166D01*
X97925063Y-116637168D01*
X98009261Y-116693427D01*
X98103717Y-116756540D01*
X98109020Y-116758818D01*
X98109023Y-116758820D01*
X98245677Y-116817531D01*
X98306436Y-116843635D01*
X98385176Y-116861452D01*
X98515995Y-116891054D01*
X98516001Y-116891055D01*
X98521632Y-116892329D01*
X98527403Y-116892556D01*
X98527405Y-116892556D01*
X98595211Y-116895220D01*
X98742098Y-116900991D01*
X98851275Y-116885161D01*
X98954738Y-116870160D01*
X98954743Y-116870159D01*
X98960452Y-116869331D01*
X98965916Y-116867476D01*
X98965921Y-116867475D01*
X99163907Y-116800268D01*
X99163912Y-116800266D01*
X99169379Y-116798410D01*
X99361884Y-116690602D01*
X99431600Y-116632620D01*
X99527086Y-116553204D01*
X99531518Y-116549518D01*
X99609875Y-116455305D01*
X99668908Y-116384326D01*
X99668910Y-116384323D01*
X99672602Y-116379884D01*
X99780410Y-116187379D01*
X99782266Y-116181912D01*
X99782268Y-116181907D01*
X99849475Y-115983921D01*
X99849476Y-115983916D01*
X99851331Y-115978452D01*
X99852159Y-115972743D01*
X99852160Y-115972738D01*
X99877046Y-115801102D01*
X99882991Y-115760098D01*
X99884598Y-115698713D01*
X101477341Y-115698713D01*
X101493722Y-115982809D01*
X101494795Y-115991308D01*
X101549582Y-116270554D01*
X101551795Y-116278816D01*
X101643974Y-116548049D01*
X101647290Y-116555936D01*
X101775153Y-116810165D01*
X101779509Y-116817531D01*
X101940691Y-117052051D01*
X101946010Y-117058762D01*
X101963063Y-117077503D01*
X101976629Y-117085763D01*
X101976882Y-117085757D01*
X101985900Y-117080257D01*
X103336345Y-115729812D01*
X103342723Y-115718132D01*
X103920041Y-115718132D01*
X103920172Y-115719965D01*
X103924423Y-115726580D01*
X105276969Y-117079126D01*
X105289179Y-117085793D01*
X105300678Y-117077104D01*
X105449009Y-116875175D01*
X105453593Y-116867952D01*
X105589378Y-116617868D01*
X105592944Y-116610077D01*
X105693531Y-116343880D01*
X105696002Y-116335695D01*
X105759535Y-116058300D01*
X105760873Y-116049846D01*
X105786331Y-115764597D01*
X105786577Y-115759657D01*
X105786998Y-115719484D01*
X105786855Y-115714520D01*
X105767377Y-115428807D01*
X105766216Y-115420333D01*
X105708507Y-115141668D01*
X105706208Y-115133433D01*
X105611214Y-114865178D01*
X105607816Y-114857325D01*
X105477299Y-114604453D01*
X105472865Y-114597131D01*
X105309235Y-114364309D01*
X105303849Y-114357658D01*
X105301892Y-114355552D01*
X105288241Y-114347435D01*
X105287634Y-114347456D01*
X105279154Y-114352689D01*
X103927655Y-115704188D01*
X103920041Y-115718132D01*
X103342723Y-115718132D01*
X103343959Y-115715868D01*
X103343828Y-115714035D01*
X103339577Y-115707420D01*
X101986269Y-114354112D01*
X101972325Y-114346498D01*
X101971370Y-114346566D01*
X101967243Y-114349295D01*
X101802969Y-114577908D01*
X101798447Y-114585202D01*
X101665299Y-114836675D01*
X101661813Y-114844505D01*
X101564019Y-115111736D01*
X101561630Y-115119959D01*
X101501007Y-115398002D01*
X101499758Y-115406458D01*
X101477430Y-115690162D01*
X101477341Y-115698713D01*
X99884598Y-115698713D01*
X99884643Y-115697000D01*
X99864454Y-115477289D01*
X99839229Y-115387845D01*
X99806134Y-115270500D01*
X99804565Y-115264936D01*
X99706980Y-115067053D01*
X99574967Y-114890267D01*
X99477586Y-114800249D01*
X99417189Y-114744418D01*
X99417186Y-114744416D01*
X99412949Y-114740499D01*
X99226350Y-114622764D01*
X99021421Y-114541006D01*
X99015761Y-114539880D01*
X99015757Y-114539879D01*
X98810691Y-114499089D01*
X98810688Y-114499089D01*
X98805024Y-114497962D01*
X98799249Y-114497886D01*
X98799245Y-114497886D01*
X98688504Y-114496437D01*
X98584406Y-114495074D01*
X98578709Y-114496053D01*
X98578708Y-114496053D01*
X98372654Y-114531459D01*
X98372653Y-114531459D01*
X98366957Y-114532438D01*
X98159957Y-114608804D01*
X98154996Y-114611756D01*
X98154995Y-114611756D01*
X98092695Y-114648821D01*
X97970341Y-114721614D01*
X97804457Y-114867090D01*
X97667863Y-115040360D01*
X97565131Y-115235620D01*
X97499703Y-115446333D01*
X97473770Y-115665440D01*
X89760939Y-115665440D01*
X88157946Y-114062447D01*
X102265164Y-114062447D01*
X102271560Y-114073717D01*
X103619188Y-115421345D01*
X103633132Y-115428959D01*
X103634965Y-115428828D01*
X103641580Y-115424577D01*
X104991508Y-114074649D01*
X104998699Y-114061480D01*
X104991376Y-114051242D01*
X104883685Y-113963098D01*
X104876713Y-113958142D01*
X104634076Y-113809454D01*
X104626478Y-113805482D01*
X104365916Y-113691103D01*
X104357862Y-113688204D01*
X104084183Y-113610244D01*
X104075808Y-113608464D01*
X103794082Y-113568368D01*
X103785534Y-113567741D01*
X103500971Y-113566250D01*
X103492437Y-113566787D01*
X103210300Y-113603932D01*
X103201902Y-113605625D01*
X102927423Y-113680714D01*
X102919336Y-113683530D01*
X102657593Y-113795174D01*
X102649953Y-113799067D01*
X102405783Y-113945199D01*
X102398751Y-113950086D01*
X102273633Y-114050324D01*
X102265164Y-114062447D01*
X88157946Y-114062447D01*
X87930391Y-113834892D01*
X87896365Y-113772580D01*
X87901430Y-113701765D01*
X87922610Y-113665231D01*
X87988602Y-113585884D01*
X88077421Y-113427287D01*
X88093586Y-113398422D01*
X88093587Y-113398420D01*
X88096410Y-113393379D01*
X88098266Y-113387912D01*
X88098268Y-113387907D01*
X88165475Y-113189921D01*
X88165476Y-113189916D01*
X88167331Y-113184452D01*
X88168159Y-113178743D01*
X88168160Y-113178738D01*
X88193012Y-113007336D01*
X88198991Y-112966098D01*
X88200643Y-112903000D01*
X88180454Y-112683289D01*
X88160266Y-112611705D01*
X88122134Y-112476500D01*
X88120565Y-112470936D01*
X88022980Y-112273053D01*
X88002481Y-112245602D01*
X87920542Y-112135872D01*
X87917501Y-112127690D01*
X90126020Y-112127690D01*
X90132465Y-112226022D01*
X90140063Y-112341942D01*
X90140450Y-112347854D01*
X90141871Y-112353450D01*
X90141872Y-112353455D01*
X90170393Y-112465753D01*
X90194761Y-112561702D01*
X90197178Y-112566944D01*
X90197178Y-112566945D01*
X90233303Y-112645305D01*
X90287133Y-112762071D01*
X90414472Y-112942252D01*
X90572514Y-113096211D01*
X90577310Y-113099416D01*
X90577313Y-113099418D01*
X90661511Y-113155677D01*
X90755967Y-113218790D01*
X90761270Y-113221068D01*
X90761273Y-113221070D01*
X90924913Y-113291375D01*
X90958686Y-113305885D01*
X91038338Y-113323908D01*
X91168245Y-113353304D01*
X91168251Y-113353305D01*
X91173882Y-113354579D01*
X91179653Y-113354806D01*
X91179655Y-113354806D01*
X91247461Y-113357470D01*
X91394348Y-113363241D01*
X91503525Y-113347411D01*
X91606988Y-113332410D01*
X91606993Y-113332409D01*
X91612702Y-113331581D01*
X91618166Y-113329726D01*
X91618171Y-113329725D01*
X91816157Y-113262518D01*
X91816162Y-113262516D01*
X91821629Y-113260660D01*
X91828992Y-113256537D01*
X91908021Y-113212278D01*
X92014134Y-113152852D01*
X92030334Y-113139379D01*
X92179336Y-113015454D01*
X92183768Y-113011768D01*
X92256151Y-112924738D01*
X92321158Y-112846576D01*
X92321160Y-112846573D01*
X92324852Y-112842134D01*
X92410426Y-112689330D01*
X92429836Y-112654672D01*
X92429837Y-112654670D01*
X92432660Y-112649629D01*
X92434516Y-112644162D01*
X92434518Y-112644157D01*
X92501725Y-112446171D01*
X92501726Y-112446166D01*
X92503581Y-112440702D01*
X92504409Y-112434993D01*
X92504410Y-112434988D01*
X92524961Y-112293248D01*
X92535241Y-112222348D01*
X92536893Y-112159250D01*
X92516704Y-111939539D01*
X92513969Y-111929839D01*
X92481659Y-111815278D01*
X92456815Y-111727186D01*
X92359230Y-111529303D01*
X92328671Y-111488379D01*
X92230670Y-111357141D01*
X92230670Y-111357140D01*
X92227217Y-111352517D01*
X92065199Y-111202749D01*
X91926209Y-111115053D01*
X99856558Y-111115053D01*
X99870988Y-111335217D01*
X99872409Y-111340813D01*
X99872410Y-111340818D01*
X99919105Y-111524676D01*
X99925299Y-111549065D01*
X99927716Y-111554307D01*
X99927716Y-111554308D01*
X99996443Y-111703388D01*
X100017671Y-111749434D01*
X100145010Y-111929615D01*
X100303052Y-112083574D01*
X100307848Y-112086779D01*
X100307851Y-112086781D01*
X100416309Y-112159250D01*
X100486505Y-112206153D01*
X100491808Y-112208431D01*
X100491811Y-112208433D01*
X100631449Y-112268426D01*
X100689224Y-112293248D01*
X100755877Y-112308330D01*
X100898783Y-112340667D01*
X100898789Y-112340668D01*
X100904420Y-112341942D01*
X100910191Y-112342169D01*
X100910193Y-112342169D01*
X100977999Y-112344833D01*
X101124886Y-112350604D01*
X101234063Y-112334774D01*
X101337526Y-112319773D01*
X101337531Y-112319772D01*
X101343240Y-112318944D01*
X101348704Y-112317089D01*
X101348709Y-112317088D01*
X101546695Y-112249881D01*
X101546700Y-112249879D01*
X101552167Y-112248023D01*
X101565535Y-112240537D01*
X101664820Y-112184934D01*
X101744672Y-112140215D01*
X101766628Y-112121955D01*
X101914306Y-111999131D01*
X101915717Y-112000828D01*
X101969540Y-111971437D01*
X102040355Y-111976502D01*
X102066324Y-111989792D01*
X102080301Y-111999131D01*
X102167717Y-112057540D01*
X102173020Y-112059818D01*
X102173023Y-112059820D01*
X102351550Y-112136521D01*
X102370436Y-112144635D01*
X102435025Y-112159250D01*
X102579995Y-112192054D01*
X102580001Y-112192055D01*
X102585632Y-112193329D01*
X102591403Y-112193556D01*
X102591405Y-112193556D01*
X102659211Y-112196220D01*
X102806098Y-112201991D01*
X102915275Y-112186161D01*
X103018738Y-112171160D01*
X103018743Y-112171159D01*
X103024452Y-112170331D01*
X103029916Y-112168476D01*
X103029921Y-112168475D01*
X103227907Y-112101268D01*
X103227912Y-112101266D01*
X103233379Y-112099410D01*
X103425884Y-111991602D01*
X103495173Y-111933975D01*
X103591086Y-111854204D01*
X103595518Y-111850518D01*
X103629695Y-111809425D01*
X103732908Y-111685326D01*
X103732910Y-111685323D01*
X103736602Y-111680884D01*
X103773807Y-111614451D01*
X103824540Y-111564792D01*
X103894071Y-111550444D01*
X103960322Y-111575966D01*
X103986635Y-111603300D01*
X104112222Y-111781002D01*
X104270264Y-111934961D01*
X104275060Y-111938166D01*
X104275063Y-111938168D01*
X104366107Y-111999001D01*
X104453717Y-112057540D01*
X104459020Y-112059818D01*
X104459023Y-112059820D01*
X104637550Y-112136521D01*
X104656436Y-112144635D01*
X104721025Y-112159250D01*
X104865995Y-112192054D01*
X104866001Y-112192055D01*
X104871632Y-112193329D01*
X104877403Y-112193556D01*
X104877405Y-112193556D01*
X104945211Y-112196220D01*
X105092098Y-112201991D01*
X105201275Y-112186161D01*
X105304738Y-112171160D01*
X105304743Y-112171159D01*
X105310452Y-112170331D01*
X105315916Y-112168476D01*
X105315921Y-112168475D01*
X105513907Y-112101268D01*
X105513912Y-112101266D01*
X105519379Y-112099410D01*
X105711884Y-111991602D01*
X105781173Y-111933975D01*
X105877086Y-111854204D01*
X105881518Y-111850518D01*
X105915695Y-111809425D01*
X106018908Y-111685326D01*
X106018910Y-111685323D01*
X106022602Y-111680884D01*
X106105168Y-111533452D01*
X106127586Y-111493422D01*
X106127587Y-111493420D01*
X106130410Y-111488379D01*
X106132266Y-111482912D01*
X106132268Y-111482907D01*
X106199475Y-111284921D01*
X106199476Y-111284916D01*
X106201331Y-111279452D01*
X106202159Y-111273743D01*
X106202160Y-111273738D01*
X106225999Y-111109318D01*
X106232991Y-111061098D01*
X106234643Y-110998000D01*
X106214454Y-110778289D01*
X106207189Y-110752527D01*
X106162863Y-110595360D01*
X106154565Y-110565936D01*
X106056980Y-110368053D01*
X106015789Y-110312891D01*
X105928420Y-110195891D01*
X105928420Y-110195890D01*
X105924967Y-110191267D01*
X105795626Y-110071705D01*
X105767189Y-110045418D01*
X105767186Y-110045416D01*
X105762949Y-110041499D01*
X105576350Y-109923764D01*
X105371421Y-109842006D01*
X105365761Y-109840880D01*
X105365757Y-109840879D01*
X105160691Y-109800089D01*
X105160688Y-109800089D01*
X105155024Y-109798962D01*
X105149249Y-109798886D01*
X105149245Y-109798886D01*
X105038504Y-109797437D01*
X104934406Y-109796074D01*
X104928709Y-109797053D01*
X104928708Y-109797053D01*
X104722654Y-109832459D01*
X104722653Y-109832459D01*
X104716957Y-109833438D01*
X104509957Y-109909804D01*
X104504996Y-109912756D01*
X104504995Y-109912756D01*
X104442695Y-109949821D01*
X104320341Y-110022614D01*
X104154457Y-110168090D01*
X104017863Y-110341360D01*
X104004160Y-110367405D01*
X103998773Y-110377644D01*
X103949352Y-110428616D01*
X103880220Y-110444778D01*
X103813324Y-110420998D01*
X103776964Y-110377907D01*
X103776553Y-110378159D01*
X103774899Y-110375460D01*
X103774258Y-110374701D01*
X103770980Y-110368053D01*
X103729789Y-110312891D01*
X103642420Y-110195891D01*
X103642420Y-110195890D01*
X103638967Y-110191267D01*
X103509626Y-110071705D01*
X103481189Y-110045418D01*
X103481186Y-110045416D01*
X103476949Y-110041499D01*
X103290350Y-109923764D01*
X103219415Y-109895464D01*
X103163556Y-109851643D01*
X103144836Y-109812635D01*
X103108134Y-109682500D01*
X103106565Y-109676936D01*
X103008980Y-109479053D01*
X102926604Y-109368738D01*
X102880420Y-109306891D01*
X102880420Y-109306890D01*
X102876967Y-109302267D01*
X102779586Y-109212249D01*
X102719189Y-109156418D01*
X102719186Y-109156416D01*
X102714949Y-109152499D01*
X102528350Y-109034764D01*
X102323421Y-108953006D01*
X102317761Y-108951880D01*
X102317757Y-108951879D01*
X102112691Y-108911089D01*
X102112688Y-108911089D01*
X102107024Y-108909962D01*
X102101249Y-108909886D01*
X102101245Y-108909886D01*
X101990504Y-108908437D01*
X101886406Y-108907074D01*
X101880709Y-108908053D01*
X101880708Y-108908053D01*
X101674654Y-108943459D01*
X101674653Y-108943459D01*
X101668957Y-108944438D01*
X101461957Y-109020804D01*
X101456996Y-109023756D01*
X101456995Y-109023756D01*
X101292325Y-109121725D01*
X101272341Y-109133614D01*
X101106457Y-109279090D01*
X100969863Y-109452360D01*
X100867131Y-109647620D01*
X100801703Y-109858333D01*
X100799612Y-109876002D01*
X100797839Y-109890980D01*
X100769968Y-109956277D01*
X100716323Y-109994381D01*
X100542745Y-110058417D01*
X100537784Y-110061369D01*
X100537783Y-110061369D01*
X100380707Y-110154820D01*
X100353129Y-110171227D01*
X100187245Y-110316703D01*
X100050651Y-110489973D01*
X99947919Y-110685233D01*
X99882491Y-110895946D01*
X99856558Y-111115053D01*
X91926209Y-111115053D01*
X91878600Y-111085014D01*
X91673671Y-111003256D01*
X91668011Y-111002130D01*
X91668007Y-111002129D01*
X91462941Y-110961339D01*
X91462938Y-110961339D01*
X91457274Y-110960212D01*
X91451499Y-110960136D01*
X91451495Y-110960136D01*
X91340754Y-110958687D01*
X91236656Y-110957324D01*
X91230959Y-110958303D01*
X91230958Y-110958303D01*
X91024904Y-110993709D01*
X91024903Y-110993709D01*
X91019207Y-110994688D01*
X90812207Y-111071054D01*
X90807246Y-111074006D01*
X90807245Y-111074006D01*
X90738252Y-111115053D01*
X90622591Y-111183864D01*
X90456707Y-111329340D01*
X90320113Y-111502610D01*
X90217381Y-111697870D01*
X90151953Y-111908583D01*
X90126020Y-112127690D01*
X87917501Y-112127690D01*
X87895810Y-112069322D01*
X87895500Y-112060483D01*
X87895500Y-104956032D01*
X87897051Y-104936321D01*
X87898187Y-104929149D01*
X87899219Y-104922633D01*
X87896360Y-104868064D01*
X87895673Y-104854965D01*
X87895500Y-104848371D01*
X87895500Y-104828053D01*
X87895157Y-104824786D01*
X87895156Y-104824775D01*
X87893376Y-104807845D01*
X87892858Y-104801262D01*
X87892019Y-104785234D01*
X87890616Y-104758470D01*
X87889659Y-104740193D01*
X87889658Y-104740188D01*
X87889313Y-104733599D01*
X87885725Y-104720208D01*
X87882122Y-104700766D01*
X87881364Y-104693552D01*
X87881364Y-104693550D01*
X87880674Y-104686989D01*
X87871331Y-104658234D01*
X87859735Y-104622544D01*
X87857862Y-104616220D01*
X87842030Y-104557136D01*
X87842028Y-104557130D01*
X87840320Y-104550757D01*
X87834027Y-104538405D01*
X87826464Y-104520148D01*
X87826023Y-104518792D01*
X87822179Y-104506961D01*
X87793576Y-104457418D01*
X87788297Y-104448274D01*
X87785151Y-104442479D01*
X87757381Y-104387979D01*
X87757379Y-104387976D01*
X87754383Y-104382096D01*
X87745661Y-104371325D01*
X87734466Y-104355036D01*
X87727533Y-104343029D01*
X87682185Y-104292665D01*
X87677901Y-104287649D01*
X87667195Y-104274429D01*
X87665119Y-104271865D01*
X87650770Y-104257516D01*
X87646229Y-104252732D01*
X87605286Y-104207260D01*
X87605284Y-104207259D01*
X87600871Y-104202357D01*
X87589649Y-104194204D01*
X87574621Y-104181367D01*
X87539194Y-104145940D01*
X104814327Y-104145940D01*
X104828757Y-104366104D01*
X104830178Y-104371700D01*
X104830179Y-104371705D01*
X104870273Y-104529572D01*
X104883068Y-104579952D01*
X104975440Y-104780321D01*
X105102779Y-104960502D01*
X105260821Y-105114461D01*
X105265617Y-105117666D01*
X105265620Y-105117668D01*
X105365979Y-105184725D01*
X105444274Y-105237040D01*
X105472912Y-105249344D01*
X105527605Y-105294610D01*
X105549144Y-105362261D01*
X105543508Y-105402476D01*
X105502418Y-105534806D01*
X105502415Y-105534818D01*
X105500703Y-105540333D01*
X105474770Y-105759440D01*
X105489200Y-105979604D01*
X105490621Y-105985200D01*
X105490622Y-105985205D01*
X105542090Y-106187857D01*
X105543511Y-106193452D01*
X105545928Y-106198694D01*
X105545928Y-106198695D01*
X105593366Y-106301596D01*
X105635883Y-106393821D01*
X105763222Y-106574002D01*
X105767356Y-106578029D01*
X105767361Y-106578035D01*
X105916023Y-106722857D01*
X105950861Y-106784718D01*
X105945199Y-106853020D01*
X105947131Y-106853620D01*
X105881703Y-107064333D01*
X105855770Y-107283440D01*
X105870200Y-107503604D01*
X105871621Y-107509200D01*
X105871622Y-107509205D01*
X105912206Y-107669000D01*
X105924511Y-107717452D01*
X106016883Y-107917821D01*
X106144222Y-108098002D01*
X106302264Y-108251961D01*
X106307060Y-108255166D01*
X106307063Y-108255168D01*
X106453226Y-108352830D01*
X106485717Y-108374540D01*
X106491020Y-108376818D01*
X106491023Y-108376820D01*
X106683129Y-108459355D01*
X106688436Y-108461635D01*
X106903632Y-108510329D01*
X106909401Y-108510556D01*
X106909404Y-108510556D01*
X106951663Y-108512216D01*
X107018946Y-108534877D01*
X107061143Y-108585367D01*
X107113216Y-108698321D01*
X107240555Y-108878502D01*
X107398597Y-109032461D01*
X107403393Y-109035666D01*
X107403396Y-109035668D01*
X107532190Y-109121725D01*
X107582050Y-109155040D01*
X107587353Y-109157318D01*
X107587356Y-109157320D01*
X107779462Y-109239855D01*
X107784769Y-109242135D01*
X107864421Y-109260158D01*
X107994328Y-109289554D01*
X107994334Y-109289555D01*
X107999965Y-109290829D01*
X108005736Y-109291056D01*
X108005738Y-109291056D01*
X108073544Y-109293720D01*
X108220431Y-109299491D01*
X108343795Y-109281604D01*
X108433071Y-109268660D01*
X108433076Y-109268659D01*
X108438785Y-109267831D01*
X108444249Y-109265976D01*
X108444254Y-109265975D01*
X108642240Y-109198768D01*
X108642245Y-109198766D01*
X108647712Y-109196910D01*
X108840217Y-109089102D01*
X108880373Y-109055705D01*
X108978730Y-108973902D01*
X109009851Y-108948018D01*
X109075771Y-108868758D01*
X109147241Y-108782826D01*
X109147243Y-108782823D01*
X109150935Y-108778384D01*
X109258743Y-108585879D01*
X109260599Y-108580412D01*
X109260601Y-108580407D01*
X109327808Y-108382421D01*
X109327809Y-108382416D01*
X109329664Y-108376952D01*
X109330492Y-108371243D01*
X109330493Y-108371238D01*
X109358009Y-108181459D01*
X109361324Y-108158598D01*
X109362976Y-108095500D01*
X109342787Y-107875789D01*
X109282898Y-107663436D01*
X109185313Y-107465553D01*
X109161792Y-107434054D01*
X109056753Y-107293391D01*
X109056753Y-107293390D01*
X109053300Y-107288767D01*
X108955919Y-107198749D01*
X108895522Y-107142918D01*
X108895519Y-107142916D01*
X108891282Y-107138999D01*
X108704683Y-107021264D01*
X108499754Y-106939506D01*
X108494094Y-106938380D01*
X108494090Y-106938379D01*
X108289025Y-106897589D01*
X108289020Y-106897589D01*
X108283357Y-106896462D01*
X108277580Y-106896386D01*
X108277577Y-106896386D01*
X108269853Y-106896285D01*
X108202001Y-106875392D01*
X108158499Y-106826024D01*
X108113079Y-106733920D01*
X108088980Y-106685053D01*
X108007138Y-106575454D01*
X107982406Y-106508905D01*
X107997580Y-106439548D01*
X108047842Y-106389406D01*
X108054831Y-106385954D01*
X108059379Y-106384410D01*
X108064422Y-106381586D01*
X108064426Y-106381584D01*
X108169447Y-106322769D01*
X108251884Y-106276602D01*
X108264387Y-106266204D01*
X108417086Y-106139204D01*
X108421518Y-106135518D01*
X108461169Y-106087843D01*
X108558908Y-105970326D01*
X108558910Y-105970323D01*
X108562602Y-105965884D01*
X108648782Y-105811998D01*
X108667586Y-105778422D01*
X108667587Y-105778420D01*
X108670410Y-105773379D01*
X108672266Y-105767912D01*
X108672268Y-105767907D01*
X108739475Y-105569921D01*
X108739476Y-105569916D01*
X108741331Y-105564452D01*
X108742159Y-105558743D01*
X108742160Y-105558738D01*
X108761346Y-105426413D01*
X108772991Y-105346098D01*
X108774643Y-105283000D01*
X108754454Y-105063289D01*
X108748052Y-105040587D01*
X108700150Y-104870738D01*
X108694565Y-104850936D01*
X108596980Y-104653053D01*
X108569476Y-104616220D01*
X108468420Y-104480891D01*
X108468420Y-104480890D01*
X108464967Y-104476267D01*
X108351853Y-104371705D01*
X108307189Y-104330418D01*
X108307186Y-104330416D01*
X108302949Y-104326499D01*
X108116350Y-104208764D01*
X107911421Y-104127006D01*
X107905761Y-104125880D01*
X107905757Y-104125879D01*
X107700691Y-104085089D01*
X107700688Y-104085089D01*
X107695024Y-104083962D01*
X107689249Y-104083886D01*
X107689245Y-104083886D01*
X107578504Y-104082437D01*
X107474406Y-104081074D01*
X107468709Y-104082053D01*
X107468708Y-104082053D01*
X107354687Y-104101645D01*
X107284162Y-104093468D01*
X107229255Y-104048461D01*
X107207879Y-103988998D01*
X107205011Y-103957789D01*
X107145122Y-103745436D01*
X107047537Y-103547553D01*
X106915524Y-103370767D01*
X106799174Y-103263214D01*
X106757746Y-103224918D01*
X106757743Y-103224916D01*
X106753506Y-103220999D01*
X106566907Y-103103264D01*
X106361978Y-103021506D01*
X106356318Y-103020380D01*
X106356314Y-103020379D01*
X106151248Y-102979589D01*
X106151245Y-102979589D01*
X106145581Y-102978462D01*
X106139806Y-102978386D01*
X106139802Y-102978386D01*
X106029061Y-102976937D01*
X105924963Y-102975574D01*
X105919266Y-102976553D01*
X105919265Y-102976553D01*
X105713211Y-103011959D01*
X105713210Y-103011959D01*
X105707514Y-103012938D01*
X105500514Y-103089304D01*
X105310898Y-103202114D01*
X105145014Y-103347590D01*
X105008420Y-103520860D01*
X104905688Y-103716120D01*
X104840260Y-103926833D01*
X104814327Y-104145940D01*
X87539194Y-104145940D01*
X84059531Y-100666277D01*
X84025505Y-100603965D01*
X84030570Y-100533150D01*
X84073117Y-100476314D01*
X84139637Y-100451503D01*
X84209011Y-100466594D01*
X84218626Y-100472416D01*
X84260717Y-100500540D01*
X84266020Y-100502818D01*
X84266023Y-100502820D01*
X84458129Y-100585355D01*
X84463436Y-100587635D01*
X84535604Y-100603965D01*
X84672995Y-100635054D01*
X84673001Y-100635055D01*
X84678632Y-100636329D01*
X84684403Y-100636556D01*
X84684405Y-100636556D01*
X84752211Y-100639220D01*
X84899098Y-100644991D01*
X85008275Y-100629161D01*
X85111738Y-100614160D01*
X85111743Y-100614159D01*
X85117452Y-100613331D01*
X85122916Y-100611476D01*
X85122921Y-100611475D01*
X85320907Y-100544268D01*
X85320912Y-100544266D01*
X85326379Y-100542410D01*
X85518884Y-100434602D01*
X85548257Y-100410173D01*
X85684086Y-100297204D01*
X85688518Y-100293518D01*
X85714402Y-100262397D01*
X85825908Y-100128326D01*
X85825910Y-100128323D01*
X85829602Y-100123884D01*
X85937410Y-99931379D01*
X85939266Y-99925912D01*
X85939268Y-99925907D01*
X86006475Y-99727921D01*
X86006476Y-99727916D01*
X86008331Y-99722452D01*
X86009159Y-99716743D01*
X86009160Y-99716738D01*
X86032793Y-99553741D01*
X86039991Y-99504098D01*
X86041643Y-99441000D01*
X86021454Y-99221289D01*
X86004205Y-99160126D01*
X85977068Y-99063905D01*
X85961565Y-99008936D01*
X85908554Y-98901440D01*
X87440770Y-98901440D01*
X87455200Y-99121604D01*
X87456621Y-99127200D01*
X87456622Y-99127205D01*
X87489807Y-99257869D01*
X87509511Y-99335452D01*
X87511928Y-99340694D01*
X87511928Y-99340695D01*
X87585561Y-99500417D01*
X87601883Y-99535821D01*
X87729222Y-99716002D01*
X87887264Y-99869961D01*
X87892060Y-99873166D01*
X87892063Y-99873168D01*
X87976261Y-99929427D01*
X88070717Y-99992540D01*
X88076020Y-99994818D01*
X88076023Y-99994820D01*
X88214553Y-100054337D01*
X88273436Y-100079635D01*
X88352202Y-100097458D01*
X88482995Y-100127054D01*
X88483001Y-100127055D01*
X88488632Y-100128329D01*
X88494403Y-100128556D01*
X88494405Y-100128556D01*
X88562211Y-100131220D01*
X88709098Y-100136991D01*
X88829338Y-100119557D01*
X88921738Y-100106160D01*
X88921743Y-100106159D01*
X88927452Y-100105331D01*
X88932916Y-100103476D01*
X88932921Y-100103475D01*
X88967633Y-100091692D01*
X90196821Y-100091692D01*
X90211251Y-100311856D01*
X90212672Y-100317452D01*
X90212673Y-100317457D01*
X90242425Y-100434602D01*
X90265562Y-100525704D01*
X90267979Y-100530946D01*
X90267979Y-100530947D01*
X90305103Y-100611475D01*
X90357934Y-100726073D01*
X90485273Y-100906254D01*
X90643315Y-101060213D01*
X90648111Y-101063418D01*
X90648114Y-101063420D01*
X90732312Y-101119679D01*
X90826768Y-101182792D01*
X90832071Y-101185070D01*
X90832074Y-101185072D01*
X91024180Y-101267607D01*
X91029487Y-101269887D01*
X91109139Y-101287910D01*
X91239046Y-101317306D01*
X91239052Y-101317307D01*
X91244683Y-101318581D01*
X91250454Y-101318808D01*
X91250456Y-101318808D01*
X91318262Y-101321472D01*
X91465149Y-101327243D01*
X91574326Y-101311413D01*
X91677789Y-101296412D01*
X91677794Y-101296411D01*
X91683503Y-101295583D01*
X91688967Y-101293728D01*
X91688972Y-101293727D01*
X91886958Y-101226520D01*
X91886963Y-101226518D01*
X91892430Y-101224662D01*
X92084935Y-101116854D01*
X92254569Y-100975770D01*
X92395653Y-100806136D01*
X92486363Y-100644162D01*
X92500637Y-100618674D01*
X92500638Y-100618672D01*
X92503461Y-100613631D01*
X92505317Y-100608164D01*
X92505319Y-100608159D01*
X92572526Y-100410173D01*
X92572527Y-100410168D01*
X92574382Y-100404704D01*
X92575210Y-100398995D01*
X92575211Y-100398990D01*
X92605509Y-100190024D01*
X92606042Y-100186350D01*
X92607694Y-100123252D01*
X92587505Y-99903541D01*
X92568981Y-99837857D01*
X92533284Y-99711287D01*
X92527616Y-99691188D01*
X92430031Y-99493305D01*
X92371712Y-99415206D01*
X92301471Y-99321143D01*
X92301471Y-99321142D01*
X92298018Y-99316519D01*
X92181421Y-99208738D01*
X92140240Y-99170670D01*
X92140237Y-99170668D01*
X92136000Y-99166751D01*
X91949401Y-99049016D01*
X91744472Y-98967258D01*
X91738812Y-98966132D01*
X91738808Y-98966131D01*
X91533742Y-98925341D01*
X91533739Y-98925341D01*
X91528075Y-98924214D01*
X91522300Y-98924138D01*
X91522296Y-98924138D01*
X91411555Y-98922689D01*
X91307457Y-98921326D01*
X91301760Y-98922305D01*
X91301759Y-98922305D01*
X91095705Y-98957711D01*
X91095704Y-98957711D01*
X91090008Y-98958690D01*
X90883008Y-99035056D01*
X90878047Y-99038008D01*
X90878046Y-99038008D01*
X90701410Y-99143096D01*
X90693392Y-99147866D01*
X90527508Y-99293342D01*
X90390914Y-99466612D01*
X90288182Y-99661872D01*
X90222754Y-99872585D01*
X90196821Y-100091692D01*
X88967633Y-100091692D01*
X89130907Y-100036268D01*
X89130912Y-100036266D01*
X89136379Y-100034410D01*
X89328884Y-99926602D01*
X89400466Y-99867068D01*
X89494086Y-99789204D01*
X89498518Y-99785518D01*
X89567300Y-99702817D01*
X89635908Y-99620326D01*
X89635910Y-99620323D01*
X89639602Y-99615884D01*
X89710297Y-99489649D01*
X89744586Y-99428422D01*
X89744587Y-99428420D01*
X89747410Y-99423379D01*
X89749266Y-99417912D01*
X89749268Y-99417907D01*
X89816475Y-99219921D01*
X89816476Y-99219916D01*
X89818331Y-99214452D01*
X89819159Y-99208743D01*
X89819160Y-99208738D01*
X89847610Y-99012521D01*
X89849991Y-98996098D01*
X89851643Y-98933000D01*
X89831454Y-98713289D01*
X89771565Y-98500936D01*
X89683233Y-98321816D01*
X89676535Y-98308234D01*
X89676534Y-98308233D01*
X89673980Y-98303053D01*
X89656306Y-98279384D01*
X89545420Y-98130891D01*
X89545420Y-98130890D01*
X89541967Y-98126267D01*
X89421885Y-98015264D01*
X89384189Y-97980418D01*
X89384186Y-97980416D01*
X89379949Y-97976499D01*
X89193350Y-97858764D01*
X88988421Y-97777006D01*
X88982761Y-97775880D01*
X88982757Y-97775879D01*
X88777691Y-97735089D01*
X88777688Y-97735089D01*
X88772024Y-97733962D01*
X88766249Y-97733886D01*
X88766245Y-97733886D01*
X88655504Y-97732437D01*
X88551406Y-97731074D01*
X88545709Y-97732053D01*
X88545708Y-97732053D01*
X88339654Y-97767459D01*
X88339653Y-97767459D01*
X88333957Y-97768438D01*
X88126957Y-97844804D01*
X88121996Y-97847756D01*
X88121995Y-97847756D01*
X88115442Y-97851655D01*
X87937341Y-97957614D01*
X87771457Y-98103090D01*
X87634863Y-98276360D01*
X87532131Y-98471620D01*
X87466703Y-98682333D01*
X87440770Y-98901440D01*
X85908554Y-98901440D01*
X85863980Y-98811053D01*
X85825879Y-98760029D01*
X85735420Y-98638891D01*
X85735420Y-98638890D01*
X85731967Y-98634267D01*
X85593750Y-98506500D01*
X85574189Y-98488418D01*
X85574186Y-98488416D01*
X85569949Y-98484499D01*
X85502733Y-98442089D01*
X85455796Y-98388823D01*
X85445107Y-98318636D01*
X85474062Y-98253811D01*
X85508398Y-98225598D01*
X85645884Y-98148602D01*
X85677448Y-98122351D01*
X85800577Y-98019944D01*
X85815518Y-98007518D01*
X85928628Y-97871519D01*
X85952908Y-97842326D01*
X85952910Y-97842323D01*
X85956602Y-97837884D01*
X86036007Y-97696097D01*
X86061586Y-97650422D01*
X86061587Y-97650420D01*
X86064410Y-97645379D01*
X86066266Y-97639912D01*
X86066268Y-97639907D01*
X86133475Y-97441921D01*
X86133476Y-97441916D01*
X86135331Y-97436452D01*
X86136159Y-97430743D01*
X86136160Y-97430738D01*
X86166458Y-97221772D01*
X86166991Y-97218098D01*
X86168643Y-97155000D01*
X86148454Y-96935289D01*
X86131808Y-96876264D01*
X86106268Y-96785706D01*
X86088565Y-96722936D01*
X85990980Y-96525053D01*
X85974049Y-96502379D01*
X85862420Y-96352891D01*
X85862420Y-96352890D01*
X85858967Y-96348267D01*
X85711324Y-96211787D01*
X85701189Y-96202418D01*
X85701186Y-96202416D01*
X85696949Y-96198499D01*
X85510350Y-96080764D01*
X85305421Y-95999006D01*
X85299761Y-95997880D01*
X85299757Y-95997879D01*
X85094691Y-95957089D01*
X85094688Y-95957089D01*
X85089024Y-95955962D01*
X85083249Y-95955886D01*
X85083245Y-95955886D01*
X84972504Y-95954437D01*
X84868406Y-95953074D01*
X84862709Y-95954053D01*
X84862708Y-95954053D01*
X84656654Y-95989459D01*
X84656653Y-95989459D01*
X84650957Y-95990438D01*
X84443957Y-96066804D01*
X84438996Y-96069756D01*
X84438995Y-96069756D01*
X84295949Y-96154860D01*
X84254341Y-96179614D01*
X84088457Y-96325090D01*
X83951863Y-96498360D01*
X83849131Y-96693620D01*
X83783703Y-96904333D01*
X83757770Y-97123440D01*
X83772200Y-97343604D01*
X83773621Y-97349200D01*
X83773622Y-97349205D01*
X83811622Y-97498826D01*
X83826511Y-97557452D01*
X83828928Y-97562694D01*
X83828928Y-97562695D01*
X83865800Y-97642675D01*
X83918883Y-97757821D01*
X84046222Y-97938002D01*
X84204264Y-98091961D01*
X84297810Y-98154466D01*
X84343336Y-98208941D01*
X84352185Y-98279384D01*
X84321544Y-98343428D01*
X84292230Y-98367515D01*
X84142042Y-98456868D01*
X84127341Y-98465614D01*
X83961457Y-98611090D01*
X83824863Y-98784360D01*
X83722131Y-98979620D01*
X83693918Y-99070480D01*
X83662809Y-99170670D01*
X83656703Y-99190333D01*
X83630770Y-99409440D01*
X83645200Y-99629604D01*
X83646621Y-99635200D01*
X83646622Y-99635205D01*
X83698090Y-99837857D01*
X83699511Y-99843452D01*
X83701928Y-99848694D01*
X83701928Y-99848695D01*
X83737844Y-99926602D01*
X83791883Y-100043821D01*
X83795216Y-100048537D01*
X83798105Y-100053541D01*
X83796726Y-100054337D01*
X83817276Y-100114410D01*
X83800291Y-100183345D01*
X83748733Y-100232153D01*
X83678972Y-100245340D01*
X83613156Y-100218717D01*
X83602303Y-100209049D01*
X80799488Y-97406234D01*
X80765462Y-97343922D01*
X80770527Y-97273107D01*
X80813074Y-97216271D01*
X80870502Y-97192443D01*
X80926452Y-97184331D01*
X80931916Y-97182476D01*
X80931921Y-97182475D01*
X81129907Y-97115268D01*
X81129912Y-97115266D01*
X81135379Y-97113410D01*
X81171910Y-97092952D01*
X81211812Y-97070606D01*
X81327884Y-97005602D01*
X81334837Y-96999820D01*
X81493086Y-96868204D01*
X81497518Y-96864518D01*
X81610644Y-96728500D01*
X81634908Y-96699326D01*
X81634910Y-96699323D01*
X81638602Y-96694884D01*
X81716764Y-96555316D01*
X81743586Y-96507422D01*
X81743587Y-96507420D01*
X81746410Y-96502379D01*
X81748266Y-96496912D01*
X81748268Y-96496907D01*
X81815475Y-96298921D01*
X81815476Y-96298916D01*
X81817331Y-96293452D01*
X81818159Y-96287743D01*
X81818160Y-96287738D01*
X81845769Y-96097318D01*
X81848991Y-96075098D01*
X81850643Y-96012000D01*
X81830454Y-95792289D01*
X81822416Y-95763786D01*
X81798546Y-95679150D01*
X81770565Y-95579936D01*
X81672980Y-95382053D01*
X81540967Y-95205267D01*
X81443586Y-95115249D01*
X81383189Y-95059418D01*
X81383186Y-95059416D01*
X81378949Y-95055499D01*
X81192350Y-94937764D01*
X80987421Y-94856006D01*
X80981761Y-94854880D01*
X80981757Y-94854879D01*
X80788279Y-94816394D01*
X80723765Y-94781910D01*
X79829405Y-93887550D01*
X79795379Y-93825238D01*
X79792500Y-93798455D01*
X79792500Y-91234317D01*
X79812502Y-91166196D01*
X79821626Y-91153747D01*
X79856908Y-91111326D01*
X79856910Y-91111323D01*
X79860602Y-91106884D01*
X79968410Y-90914379D01*
X79970266Y-90908912D01*
X79970268Y-90908907D01*
X80037475Y-90710921D01*
X80037476Y-90710916D01*
X80039331Y-90705452D01*
X80040159Y-90699743D01*
X80040160Y-90699738D01*
X80069586Y-90496786D01*
X80070991Y-90487098D01*
X80072643Y-90424000D01*
X80052454Y-90204289D01*
X79992565Y-89991936D01*
X79894980Y-89794053D01*
X79762967Y-89617267D01*
X79658695Y-89520879D01*
X79605189Y-89471418D01*
X79605186Y-89471416D01*
X79600949Y-89467499D01*
X79414350Y-89349764D01*
X79209421Y-89268006D01*
X79203761Y-89266880D01*
X79203757Y-89266879D01*
X78998691Y-89226089D01*
X78998688Y-89226089D01*
X78993024Y-89224962D01*
X78987249Y-89224886D01*
X78987245Y-89224886D01*
X78876504Y-89223437D01*
X78772406Y-89222074D01*
X78766709Y-89223053D01*
X78766708Y-89223053D01*
X78560654Y-89258459D01*
X78560653Y-89258459D01*
X78554957Y-89259438D01*
X78347957Y-89335804D01*
X78342996Y-89338756D01*
X78342995Y-89338756D01*
X78215438Y-89414645D01*
X78158341Y-89448614D01*
X78107561Y-89493147D01*
X78090420Y-89508179D01*
X78026016Y-89538056D01*
X77960652Y-89530476D01*
X77955248Y-89528320D01*
X77944786Y-89524146D01*
X77944782Y-89524145D01*
X77939421Y-89522006D01*
X77933761Y-89520880D01*
X77933757Y-89520879D01*
X77728691Y-89480089D01*
X77728688Y-89480089D01*
X77723024Y-89478962D01*
X77717249Y-89478886D01*
X77717245Y-89478886D01*
X77606504Y-89477437D01*
X77502406Y-89476074D01*
X77496709Y-89477053D01*
X77496708Y-89477053D01*
X77479040Y-89480089D01*
X77355458Y-89501324D01*
X77284935Y-89493147D01*
X77230027Y-89448140D01*
X77208168Y-89380592D01*
X77226299Y-89311949D01*
X77264806Y-89271923D01*
X77730513Y-88965133D01*
X77735062Y-88962274D01*
X78271535Y-88640798D01*
X78524268Y-88489350D01*
X78528906Y-88486703D01*
X79147954Y-88150756D01*
X79208053Y-88135500D01*
X99353946Y-88135500D01*
X99414045Y-88150756D01*
G37*
%TD.AperFunction*%
%TA.AperFunction,Conductor*%
G36*
X76864512Y-96010952D02*
G01*
X76875637Y-96021866D01*
X76909816Y-96059826D01*
X76914099Y-96064841D01*
X76919402Y-96071389D01*
X76926881Y-96080625D01*
X76941230Y-96094974D01*
X76945771Y-96099758D01*
X76991129Y-96150133D01*
X77002351Y-96158286D01*
X77017379Y-96171123D01*
X86057595Y-105211339D01*
X86091621Y-105273651D01*
X86094500Y-105300434D01*
X86094500Y-107770600D01*
X86074498Y-107838721D01*
X86020842Y-107885214D01*
X85989838Y-107894780D01*
X85799654Y-107927459D01*
X85799653Y-107927459D01*
X85793957Y-107928438D01*
X85586957Y-108004804D01*
X85397341Y-108117614D01*
X85231457Y-108263090D01*
X85094863Y-108436360D01*
X84992131Y-108631620D01*
X84926703Y-108842333D01*
X84900770Y-109061440D01*
X84915200Y-109281604D01*
X84916621Y-109287200D01*
X84916622Y-109287205D01*
X84948767Y-109413772D01*
X84969511Y-109495452D01*
X84971928Y-109500694D01*
X84971928Y-109500695D01*
X85037303Y-109642504D01*
X85061883Y-109695821D01*
X85189222Y-109876002D01*
X85347264Y-110029961D01*
X85352060Y-110033166D01*
X85352063Y-110033168D01*
X85489930Y-110125287D01*
X85530717Y-110152540D01*
X85536020Y-110154818D01*
X85536023Y-110154820D01*
X85660646Y-110208362D01*
X85733436Y-110239635D01*
X85813088Y-110257658D01*
X85942995Y-110287054D01*
X85943001Y-110287055D01*
X85948632Y-110288329D01*
X85954403Y-110288556D01*
X85954405Y-110288556D01*
X85973447Y-110289304D01*
X86040730Y-110311965D01*
X86085080Y-110367405D01*
X86094500Y-110415207D01*
X86094500Y-111694811D01*
X86074498Y-111762932D01*
X86020842Y-111809425D01*
X85950568Y-111819529D01*
X85885988Y-111790035D01*
X85879405Y-111783906D01*
X80302437Y-106206938D01*
X82233770Y-106206938D01*
X82248200Y-106427102D01*
X82249621Y-106432698D01*
X82249622Y-106432703D01*
X82295664Y-106613991D01*
X82302511Y-106640950D01*
X82304928Y-106646192D01*
X82304928Y-106646193D01*
X82340993Y-106724424D01*
X82394883Y-106841319D01*
X82522222Y-107021500D01*
X82680264Y-107175459D01*
X82685060Y-107178664D01*
X82685063Y-107178666D01*
X82768805Y-107234620D01*
X82863717Y-107298038D01*
X82869020Y-107300316D01*
X82869023Y-107300318D01*
X83061129Y-107382853D01*
X83066436Y-107385133D01*
X83146088Y-107403156D01*
X83275995Y-107432552D01*
X83276001Y-107432553D01*
X83281632Y-107433827D01*
X83287403Y-107434054D01*
X83287405Y-107434054D01*
X83355211Y-107436718D01*
X83502098Y-107442489D01*
X83611275Y-107426659D01*
X83714738Y-107411658D01*
X83714743Y-107411657D01*
X83720452Y-107410829D01*
X83725916Y-107408974D01*
X83725921Y-107408973D01*
X83923907Y-107341766D01*
X83923912Y-107341764D01*
X83929379Y-107339908D01*
X84121884Y-107232100D01*
X84291518Y-107091016D01*
X84349334Y-107021500D01*
X84428908Y-106925824D01*
X84428910Y-106925821D01*
X84432602Y-106921382D01*
X84540410Y-106728877D01*
X84542266Y-106723410D01*
X84542268Y-106723405D01*
X84609475Y-106525419D01*
X84609476Y-106525414D01*
X84611331Y-106519950D01*
X84612159Y-106514241D01*
X84612160Y-106514236D01*
X84642458Y-106305270D01*
X84642991Y-106301596D01*
X84644643Y-106238498D01*
X84624454Y-106018787D01*
X84622772Y-106012821D01*
X84566134Y-105811998D01*
X84564565Y-105806434D01*
X84466980Y-105608551D01*
X84438134Y-105569921D01*
X84338420Y-105436389D01*
X84338420Y-105436388D01*
X84334967Y-105431765D01*
X84172949Y-105281997D01*
X83986350Y-105164262D01*
X83781421Y-105082504D01*
X83775761Y-105081378D01*
X83775757Y-105081377D01*
X83570691Y-105040587D01*
X83570688Y-105040587D01*
X83565024Y-105039460D01*
X83559249Y-105039384D01*
X83559245Y-105039384D01*
X83448504Y-105037935D01*
X83344406Y-105036572D01*
X83338709Y-105037551D01*
X83338708Y-105037551D01*
X83132654Y-105072957D01*
X83132653Y-105072957D01*
X83126957Y-105073936D01*
X82919957Y-105150302D01*
X82914996Y-105153254D01*
X82914995Y-105153254D01*
X82753485Y-105249343D01*
X82730341Y-105263112D01*
X82564457Y-105408588D01*
X82427863Y-105581858D01*
X82325131Y-105777118D01*
X82314160Y-105812452D01*
X82262258Y-105979604D01*
X82259703Y-105987831D01*
X82233770Y-106206938D01*
X80302437Y-106206938D01*
X76502405Y-102406906D01*
X76468379Y-102344594D01*
X76465500Y-102317811D01*
X76465500Y-99599495D01*
X76485435Y-99531601D01*
X76488033Y-99528716D01*
X76494962Y-99516714D01*
X76506163Y-99500417D01*
X76510726Y-99494782D01*
X76514883Y-99489649D01*
X76526621Y-99466612D01*
X76545651Y-99429266D01*
X76548797Y-99423471D01*
X76579379Y-99370500D01*
X76579379Y-99370499D01*
X76582679Y-99364784D01*
X76586964Y-99351597D01*
X76594527Y-99333340D01*
X76597823Y-99326871D01*
X76597824Y-99326867D01*
X76600820Y-99320988D01*
X76607011Y-99297884D01*
X76618360Y-99255528D01*
X76620234Y-99249202D01*
X76632640Y-99211021D01*
X76641174Y-99184756D01*
X76642622Y-99170977D01*
X76646226Y-99151530D01*
X76647208Y-99147866D01*
X76649813Y-99138145D01*
X76653359Y-99070480D01*
X76653876Y-99063905D01*
X76655656Y-99046966D01*
X76655656Y-99046963D01*
X76656000Y-99043692D01*
X76656000Y-99023373D01*
X76656173Y-99016779D01*
X76659374Y-98955704D01*
X76659374Y-98955700D01*
X76659719Y-98949112D01*
X76657551Y-98935423D01*
X76656000Y-98915713D01*
X76656000Y-96106176D01*
X76676002Y-96038055D01*
X76729658Y-95991562D01*
X76799932Y-95981458D01*
X76864512Y-96010952D01*
G37*
%TD.AperFunction*%
%TD*%
M02*
