%TF.GenerationSoftware,KiCad,Pcbnew,(6.0.4-0)*%
%TF.CreationDate,2022-11-29T10:20:57+01:00*%
%TF.ProjectId,RoundScanner,526f756e-6453-4636-916e-6e65722e6b69,2*%
%TF.SameCoordinates,Original*%
%TF.FileFunction,Legend,Bot*%
%TF.FilePolarity,Positive*%
%FSLAX46Y46*%
G04 Gerber Fmt 4.6, Leading zero omitted, Abs format (unit mm)*
G04 Created by KiCad (PCBNEW (6.0.4-0)) date 2022-11-29 10:20:57*
%MOMM*%
%LPD*%
G01*
G04 APERTURE LIST*
G04 Aperture macros list*
%AMRoundRect*
0 Rectangle with rounded corners*
0 $1 Rounding radius*
0 $2 $3 $4 $5 $6 $7 $8 $9 X,Y pos of 4 corners*
0 Add a 4 corners polygon primitive as box body*
4,1,4,$2,$3,$4,$5,$6,$7,$8,$9,$2,$3,0*
0 Add four circle primitives for the rounded corners*
1,1,$1+$1,$2,$3*
1,1,$1+$1,$4,$5*
1,1,$1+$1,$6,$7*
1,1,$1+$1,$8,$9*
0 Add four rect primitives between the rounded corners*
20,1,$1+$1,$2,$3,$4,$5,0*
20,1,$1+$1,$4,$5,$6,$7,0*
20,1,$1+$1,$6,$7,$8,$9,0*
20,1,$1+$1,$8,$9,$2,$3,0*%
%AMHorizOval*
0 Thick line with rounded ends*
0 $1 width*
0 $2 $3 position (X,Y) of the first rounded end (center of the circle)*
0 $4 $5 position (X,Y) of the second rounded end (center of the circle)*
0 Add line between two ends*
20,1,$1,$2,$3,$4,$5,0*
0 Add two circle primitives to create the rounded ends*
1,1,$1,$2,$3*
1,1,$1,$4,$5*%
%AMRotRect*
0 Rectangle, with rotation*
0 The origin of the aperture is its center*
0 $1 length*
0 $2 width*
0 $3 Rotation angle, in degrees counterclockwise*
0 Add horizontal line*
21,1,$1,$2,0,0,$3*%
G04 Aperture macros list end*
%ADD10C,0.150000*%
%ADD11C,0.125000*%
%ADD12C,0.120000*%
%ADD13C,0.010000*%
%ADD14C,3.500000*%
%ADD15RotRect,1.700000X1.700000X45.000000*%
%ADD16HorizOval,1.700000X0.000000X0.000000X0.000000X0.000000X0*%
%ADD17RotRect,1.700000X1.700000X225.000000*%
%ADD18HorizOval,1.700000X0.000000X0.000000X0.000000X0.000000X0*%
%ADD19RoundRect,0.150000X-0.150000X-0.625000X0.150000X-0.625000X0.150000X0.625000X-0.150000X0.625000X0*%
%ADD20RoundRect,0.250000X-0.350000X-0.650000X0.350000X-0.650000X0.350000X0.650000X-0.350000X0.650000X0*%
G04 APERTURE END LIST*
D10*
X96837500Y-115570000D02*
X81724500Y-115570000D01*
X97471476Y-117376380D02*
X97471476Y-116376380D01*
X97471476Y-116852571D02*
X96900047Y-116852571D01*
X96900047Y-117376380D02*
X96900047Y-116376380D01*
X95995285Y-117376380D02*
X95995285Y-116852571D01*
X96042904Y-116757333D01*
X96138142Y-116709714D01*
X96328619Y-116709714D01*
X96423857Y-116757333D01*
X95995285Y-117328761D02*
X96090523Y-117376380D01*
X96328619Y-117376380D01*
X96423857Y-117328761D01*
X96471476Y-117233523D01*
X96471476Y-117138285D01*
X96423857Y-117043047D01*
X96328619Y-116995428D01*
X96090523Y-116995428D01*
X95995285Y-116947809D01*
X95519095Y-116709714D02*
X95519095Y-117376380D01*
X95519095Y-116804952D02*
X95471476Y-116757333D01*
X95376238Y-116709714D01*
X95233380Y-116709714D01*
X95138142Y-116757333D01*
X95090523Y-116852571D01*
X95090523Y-117376380D01*
X94185761Y-117376380D02*
X94185761Y-116376380D01*
X94185761Y-117328761D02*
X94281000Y-117376380D01*
X94471476Y-117376380D01*
X94566714Y-117328761D01*
X94614333Y-117281142D01*
X94661952Y-117185904D01*
X94661952Y-116900190D01*
X94614333Y-116804952D01*
X94566714Y-116757333D01*
X94471476Y-116709714D01*
X94281000Y-116709714D01*
X94185761Y-116757333D01*
X93709571Y-117376380D02*
X93709571Y-116376380D01*
X93281000Y-117376380D02*
X93281000Y-116852571D01*
X93328619Y-116757333D01*
X93423857Y-116709714D01*
X93566714Y-116709714D01*
X93661952Y-116757333D01*
X93709571Y-116804952D01*
X92423857Y-117328761D02*
X92519095Y-117376380D01*
X92709571Y-117376380D01*
X92804809Y-117328761D01*
X92852428Y-117233523D01*
X92852428Y-116852571D01*
X92804809Y-116757333D01*
X92709571Y-116709714D01*
X92519095Y-116709714D01*
X92423857Y-116757333D01*
X92376238Y-116852571D01*
X92376238Y-116947809D01*
X92852428Y-117043047D01*
X91804809Y-117376380D02*
X91900047Y-117328761D01*
X91947666Y-117233523D01*
X91947666Y-116376380D01*
X90995285Y-117376380D02*
X90995285Y-116376380D01*
X90995285Y-117328761D02*
X91090523Y-117376380D01*
X91281000Y-117376380D01*
X91376238Y-117328761D01*
X91423857Y-117281142D01*
X91471476Y-117185904D01*
X91471476Y-116900190D01*
X91423857Y-116804952D01*
X91376238Y-116757333D01*
X91281000Y-116709714D01*
X91090523Y-116709714D01*
X90995285Y-116757333D01*
X90566714Y-117328761D02*
X90423857Y-117376380D01*
X90185761Y-117376380D01*
X90090523Y-117328761D01*
X90042904Y-117281142D01*
X89995285Y-117185904D01*
X89995285Y-117090666D01*
X90042904Y-116995428D01*
X90090523Y-116947809D01*
X90185761Y-116900190D01*
X90376238Y-116852571D01*
X90471476Y-116804952D01*
X90519095Y-116757333D01*
X90566714Y-116662095D01*
X90566714Y-116566857D01*
X90519095Y-116471619D01*
X90471476Y-116424000D01*
X90376238Y-116376380D01*
X90138142Y-116376380D01*
X89995285Y-116424000D01*
X89138142Y-117328761D02*
X89233380Y-117376380D01*
X89423857Y-117376380D01*
X89519095Y-117328761D01*
X89566714Y-117281142D01*
X89614333Y-117185904D01*
X89614333Y-116900190D01*
X89566714Y-116804952D01*
X89519095Y-116757333D01*
X89423857Y-116709714D01*
X89233380Y-116709714D01*
X89138142Y-116757333D01*
X88281000Y-117376380D02*
X88281000Y-116852571D01*
X88328619Y-116757333D01*
X88423857Y-116709714D01*
X88614333Y-116709714D01*
X88709571Y-116757333D01*
X88281000Y-117328761D02*
X88376238Y-117376380D01*
X88614333Y-117376380D01*
X88709571Y-117328761D01*
X88757190Y-117233523D01*
X88757190Y-117138285D01*
X88709571Y-117043047D01*
X88614333Y-116995428D01*
X88376238Y-116995428D01*
X88281000Y-116947809D01*
X87804809Y-116709714D02*
X87804809Y-117376380D01*
X87804809Y-116804952D02*
X87757190Y-116757333D01*
X87661952Y-116709714D01*
X87519095Y-116709714D01*
X87423857Y-116757333D01*
X87376238Y-116852571D01*
X87376238Y-117376380D01*
X86900047Y-116709714D02*
X86900047Y-117376380D01*
X86900047Y-116804952D02*
X86852428Y-116757333D01*
X86757190Y-116709714D01*
X86614333Y-116709714D01*
X86519095Y-116757333D01*
X86471476Y-116852571D01*
X86471476Y-117376380D01*
X85614333Y-117328761D02*
X85709571Y-117376380D01*
X85900047Y-117376380D01*
X85995285Y-117328761D01*
X86042904Y-117233523D01*
X86042904Y-116852571D01*
X85995285Y-116757333D01*
X85900047Y-116709714D01*
X85709571Y-116709714D01*
X85614333Y-116757333D01*
X85566714Y-116852571D01*
X85566714Y-116947809D01*
X86042904Y-117043047D01*
X85138142Y-117376380D02*
X85138142Y-116709714D01*
X85138142Y-116900190D02*
X85090523Y-116804952D01*
X85042904Y-116757333D01*
X84947666Y-116709714D01*
X84852428Y-116709714D01*
X83852428Y-116709714D02*
X83614333Y-117376380D01*
X83376238Y-116709714D01*
X82804809Y-116376380D02*
X82709571Y-116376380D01*
X82614333Y-116424000D01*
X82566714Y-116471619D01*
X82519095Y-116566857D01*
X82471476Y-116757333D01*
X82471476Y-116995428D01*
X82519095Y-117185904D01*
X82566714Y-117281142D01*
X82614333Y-117328761D01*
X82709571Y-117376380D01*
X82804809Y-117376380D01*
X82900047Y-117328761D01*
X82947666Y-117281142D01*
X82995285Y-117185904D01*
X83042904Y-116995428D01*
X83042904Y-116757333D01*
X82995285Y-116566857D01*
X82947666Y-116471619D01*
X82900047Y-116424000D01*
X82804809Y-116376380D01*
X82042904Y-117281142D02*
X81995285Y-117328761D01*
X82042904Y-117376380D01*
X82090523Y-117328761D01*
X82042904Y-117281142D01*
X82042904Y-117376380D01*
X81661952Y-116376380D02*
X80995285Y-116376380D01*
X81423857Y-117376380D01*
X94138142Y-118081619D02*
X94090523Y-118034000D01*
X93995285Y-117986380D01*
X93757190Y-117986380D01*
X93661952Y-118034000D01*
X93614333Y-118081619D01*
X93566714Y-118176857D01*
X93566714Y-118272095D01*
X93614333Y-118414952D01*
X94185761Y-118986380D01*
X93566714Y-118986380D01*
X92947666Y-117986380D02*
X92852428Y-117986380D01*
X92757190Y-118034000D01*
X92709571Y-118081619D01*
X92661952Y-118176857D01*
X92614333Y-118367333D01*
X92614333Y-118605428D01*
X92661952Y-118795904D01*
X92709571Y-118891142D01*
X92757190Y-118938761D01*
X92852428Y-118986380D01*
X92947666Y-118986380D01*
X93042904Y-118938761D01*
X93090523Y-118891142D01*
X93138142Y-118795904D01*
X93185761Y-118605428D01*
X93185761Y-118367333D01*
X93138142Y-118176857D01*
X93090523Y-118081619D01*
X93042904Y-118034000D01*
X92947666Y-117986380D01*
X92233380Y-118081619D02*
X92185761Y-118034000D01*
X92090523Y-117986380D01*
X91852428Y-117986380D01*
X91757190Y-118034000D01*
X91709571Y-118081619D01*
X91661952Y-118176857D01*
X91661952Y-118272095D01*
X91709571Y-118414952D01*
X92281000Y-118986380D01*
X91661952Y-118986380D01*
X91281000Y-118081619D02*
X91233380Y-118034000D01*
X91138142Y-117986380D01*
X90900047Y-117986380D01*
X90804809Y-118034000D01*
X90757190Y-118081619D01*
X90709571Y-118176857D01*
X90709571Y-118272095D01*
X90757190Y-118414952D01*
X91328619Y-118986380D01*
X90709571Y-118986380D01*
X90281000Y-118605428D02*
X89519095Y-118605428D01*
X88519095Y-118986380D02*
X89090523Y-118986380D01*
X88804809Y-118986380D02*
X88804809Y-117986380D01*
X88900047Y-118129238D01*
X88995285Y-118224476D01*
X89090523Y-118272095D01*
X87566714Y-118986380D02*
X88138142Y-118986380D01*
X87852428Y-118986380D02*
X87852428Y-117986380D01*
X87947666Y-118129238D01*
X88042904Y-118224476D01*
X88138142Y-118272095D01*
X87138142Y-118605428D02*
X86376238Y-118605428D01*
X85947666Y-118081619D02*
X85900047Y-118034000D01*
X85804809Y-117986380D01*
X85566714Y-117986380D01*
X85471476Y-118034000D01*
X85423857Y-118081619D01*
X85376238Y-118176857D01*
X85376238Y-118272095D01*
X85423857Y-118414952D01*
X85995285Y-118986380D01*
X85376238Y-118986380D01*
X84900047Y-118986380D02*
X84709571Y-118986380D01*
X84614333Y-118938761D01*
X84566714Y-118891142D01*
X84471476Y-118748285D01*
X84423857Y-118557809D01*
X84423857Y-118176857D01*
X84471476Y-118081619D01*
X84519095Y-118034000D01*
X84614333Y-117986380D01*
X84804809Y-117986380D01*
X84900047Y-118034000D01*
X84947666Y-118081619D01*
X84995285Y-118176857D01*
X84995285Y-118414952D01*
X84947666Y-118510190D01*
X84900047Y-118557809D01*
X84804809Y-118605428D01*
X84614333Y-118605428D01*
X84519095Y-118557809D01*
X84471476Y-118510190D01*
X84423857Y-118414952D01*
D11*
%TO.C,J4*%
X108181924Y-97786222D02*
X108434462Y-98038760D01*
X108501806Y-98072432D01*
X108569149Y-98072432D01*
X108636493Y-98038760D01*
X108670164Y-98005088D01*
X107979894Y-98223955D02*
X108215596Y-98459657D01*
X107929386Y-98005088D02*
X108266103Y-98173447D01*
X108047237Y-98392313D01*
%TO.C,J1*%
X75941224Y-119358167D02*
X76193762Y-119610705D01*
X76261106Y-119644377D01*
X76328449Y-119644377D01*
X76395793Y-119610705D01*
X76429464Y-119577033D01*
X75941224Y-120065274D02*
X76143255Y-119863243D01*
X76042239Y-119964258D02*
X75688686Y-119610705D01*
X75772865Y-119627541D01*
X75840209Y-119627541D01*
X75890716Y-119610705D01*
%TO.C,J3*%
X90082666Y-128674190D02*
X90082666Y-129031333D01*
X90106476Y-129102761D01*
X90154095Y-129150380D01*
X90225523Y-129174190D01*
X90273142Y-129174190D01*
X89892190Y-128674190D02*
X89582666Y-128674190D01*
X89749333Y-128864666D01*
X89677904Y-128864666D01*
X89630285Y-128888476D01*
X89606476Y-128912285D01*
X89582666Y-128959904D01*
X89582666Y-129078952D01*
X89606476Y-129126571D01*
X89630285Y-129150380D01*
X89677904Y-129174190D01*
X89820761Y-129174190D01*
X89868380Y-129150380D01*
X89892190Y-129126571D01*
D12*
%TO.C,J4*%
X99029942Y-90750846D02*
X100910846Y-88869942D01*
X104460522Y-96181426D02*
X99029942Y-90750846D01*
X106341426Y-94300522D02*
X100910846Y-88869942D01*
X107239452Y-97079452D02*
X108179904Y-96139000D01*
X108179904Y-96139000D02*
X107239452Y-95198548D01*
X104460522Y-96181426D02*
X106341426Y-94300522D01*
%TO.C,kibuzzard-6346913B*%
G36*
X99855668Y-99385437D02*
G01*
X99941393Y-99394962D01*
X99941393Y-99845812D01*
X99788993Y-99845812D01*
X99563568Y-99780725D01*
X99487368Y-99601337D01*
X99509593Y-99488625D01*
X99569918Y-99421950D01*
X99658818Y-99390200D01*
X99763593Y-99382262D01*
X99855668Y-99385437D01*
G37*
G36*
X77463452Y-98314007D02*
G01*
X101825544Y-98314007D01*
X100844548Y-101583993D01*
X76482456Y-101583993D01*
X76723875Y-100779263D01*
X86723868Y-100779263D01*
X86809593Y-100991988D01*
X87006443Y-101065013D01*
X87114393Y-101045963D01*
X87204881Y-100990400D01*
X87268381Y-100901500D01*
X87292193Y-100779263D01*
X87268381Y-100660200D01*
X87204881Y-100572888D01*
X87114393Y-100518913D01*
X87006443Y-100499863D01*
X86809593Y-100572888D01*
X86723868Y-100779263D01*
X76723875Y-100779263D01*
X76873418Y-100280788D01*
X87892268Y-100280788D01*
X87904968Y-100450253D01*
X87943068Y-100603050D01*
X88004187Y-100737591D01*
X88085943Y-100852288D01*
X88187146Y-100945156D01*
X88306606Y-101014213D01*
X88442734Y-101057075D01*
X88593943Y-101071363D01*
X88745153Y-101057075D01*
X88830863Y-101030088D01*
X89536918Y-101030088D01*
X89851243Y-101030088D01*
X89942789Y-100812247D01*
X90039627Y-100594760D01*
X90141756Y-100377625D01*
X90249177Y-100160490D01*
X90361889Y-99943003D01*
X90479893Y-99725162D01*
X90479893Y-101030088D01*
X90832318Y-101030088D01*
X90832318Y-99064762D01*
X90517993Y-99064762D01*
X90429093Y-99210416D01*
X90340193Y-99367975D01*
X90252484Y-99531091D01*
X90167156Y-99693412D01*
X90086193Y-99852956D01*
X90011581Y-100007738D01*
X89945303Y-100150613D01*
X89889343Y-100274438D01*
X89889343Y-99064762D01*
X89536918Y-99064762D01*
X89536918Y-101030088D01*
X88830863Y-101030088D01*
X88881281Y-101014213D01*
X89001137Y-100945156D01*
X89103531Y-100852288D01*
X89186478Y-100737591D01*
X89247993Y-100603050D01*
X89286093Y-100450253D01*
X89298793Y-100280788D01*
X89285696Y-100113703D01*
X89246406Y-99961700D01*
X89183699Y-99827556D01*
X89100356Y-99714050D01*
X88997565Y-99622769D01*
X88876518Y-99555300D01*
X88740787Y-99513628D01*
X88593943Y-99499737D01*
X88445115Y-99513628D01*
X88309781Y-99555300D01*
X88189924Y-99622769D01*
X88087531Y-99714050D01*
X88004584Y-99827556D01*
X87943068Y-99961700D01*
X87904968Y-100113703D01*
X87892268Y-100280788D01*
X76873418Y-100280788D01*
X77309663Y-98826637D01*
X92788118Y-98826637D01*
X92788118Y-100985638D01*
X92907974Y-101017388D01*
X93051643Y-101042788D01*
X93205631Y-101059456D01*
X93356443Y-101065013D01*
X93570403Y-101042082D01*
X93746615Y-100973290D01*
X93885081Y-100858638D01*
X93984740Y-100704121D01*
X94044536Y-100515738D01*
X94064468Y-100293488D01*
X94047711Y-100067181D01*
X93997440Y-99875093D01*
X93913656Y-99717225D01*
X93797063Y-99599926D01*
X93739671Y-99572762D01*
X94283543Y-99572762D01*
X94353393Y-99934712D01*
X94443881Y-99915662D01*
X94550243Y-99898200D01*
X94655018Y-99887087D01*
X94740743Y-99883912D01*
X94902668Y-99891850D01*
X95064593Y-99922012D01*
X95064593Y-101030088D01*
X95458293Y-101030088D01*
X95458293Y-100995163D01*
X95928193Y-100995163D01*
X96182193Y-101039613D01*
X96360787Y-101058663D01*
X96560018Y-101065013D01*
X96818781Y-101039613D01*
X97017218Y-100955475D01*
X97144218Y-100803075D01*
X97188668Y-100572888D01*
X97137868Y-100353813D01*
X97068089Y-100280788D01*
X97417268Y-100280788D01*
X97429968Y-100450253D01*
X97468068Y-100603050D01*
X97529187Y-100737591D01*
X97610943Y-100852288D01*
X97712146Y-100945156D01*
X97831606Y-101014213D01*
X97967734Y-101057075D01*
X98118943Y-101071363D01*
X98270153Y-101057075D01*
X98406281Y-101014213D01*
X98526137Y-100945156D01*
X98628531Y-100852288D01*
X98711478Y-100737591D01*
X98772993Y-100603050D01*
X98811093Y-100450253D01*
X98812134Y-100436363D01*
X99014293Y-100436363D01*
X99029374Y-100599478D01*
X99074618Y-100733225D01*
X99238131Y-100923725D01*
X99350843Y-100984844D01*
X99482606Y-101025325D01*
X99629053Y-101047947D01*
X99785818Y-101055488D01*
X99918374Y-101051916D01*
X100055693Y-101041200D01*
X100194599Y-101023341D01*
X100331918Y-100998338D01*
X100331918Y-99090162D01*
X100087443Y-99056825D01*
X99823918Y-99042537D01*
X99622306Y-99054047D01*
X99461968Y-99088575D01*
X99242893Y-99209225D01*
X99134943Y-99375912D01*
X99106368Y-99560062D01*
X99123434Y-99691825D01*
X99174631Y-99807712D01*
X99357193Y-99979163D01*
X99189315Y-100064888D01*
X99085731Y-100176013D01*
X99032153Y-100303013D01*
X99014293Y-100436363D01*
X98812134Y-100436363D01*
X98823793Y-100280788D01*
X98810696Y-100113703D01*
X98771406Y-99961700D01*
X98708699Y-99827556D01*
X98625356Y-99714050D01*
X98522565Y-99622769D01*
X98401518Y-99555300D01*
X98265787Y-99513628D01*
X98118943Y-99499737D01*
X97970115Y-99513628D01*
X97834781Y-99555300D01*
X97714924Y-99622769D01*
X97612531Y-99714050D01*
X97529584Y-99827556D01*
X97468068Y-99961700D01*
X97429968Y-100113703D01*
X97417268Y-100280788D01*
X97068089Y-100280788D01*
X97001343Y-100210938D01*
X96804493Y-100133150D01*
X96572718Y-100109338D01*
X96429049Y-100115688D01*
X96302843Y-100134738D01*
X96302843Y-100087113D01*
X96372693Y-99901375D01*
X96467943Y-99845416D01*
X96613993Y-99826762D01*
X96828306Y-99842637D01*
X96994993Y-99880737D01*
X97048968Y-99566412D01*
X96842593Y-99520375D01*
X96706862Y-99504897D01*
X96566368Y-99499737D01*
X96397696Y-99510453D01*
X96259981Y-99542600D01*
X96064718Y-99663250D01*
X95959943Y-99853750D01*
X95928193Y-100106163D01*
X95928193Y-100995163D01*
X95458293Y-100995163D01*
X95458293Y-99636262D01*
X95300734Y-99584669D01*
X95139206Y-99544187D01*
X94961803Y-99517994D01*
X94756618Y-99509262D01*
X94666131Y-99512437D01*
X94540718Y-99523550D01*
X94405781Y-99542600D01*
X94283543Y-99572762D01*
X93739671Y-99572762D01*
X93648367Y-99529547D01*
X93467568Y-99506087D01*
X93311993Y-99523550D01*
X93178643Y-99572762D01*
X93178643Y-98893312D01*
X92788118Y-98826637D01*
X77309663Y-98826637D01*
X77463452Y-98314007D01*
G37*
G36*
X93521543Y-99870419D02*
G01*
X93604093Y-99953763D01*
X93651718Y-100089494D01*
X93667593Y-100274438D01*
X93648940Y-100456206D01*
X93592981Y-100601463D01*
X93495746Y-100696713D01*
X93353268Y-100728463D01*
X93264368Y-100725288D01*
X93178643Y-100715763D01*
X93178643Y-99902962D01*
X93280243Y-99860100D01*
X93400893Y-99842637D01*
X93521543Y-99870419D01*
G37*
G36*
X96610818Y-100390325D02*
G01*
X96710831Y-100417313D01*
X96779093Y-100471288D01*
X96804493Y-100563363D01*
X96728293Y-100707825D01*
X96531443Y-100750688D01*
X96407618Y-100749100D01*
X96302843Y-100741163D01*
X96302843Y-100398263D01*
X96394918Y-100387150D01*
X96493343Y-100382388D01*
X96610818Y-100390325D01*
G37*
G36*
X88727690Y-99870022D02*
G01*
X88824131Y-99961700D01*
X88882471Y-100103384D01*
X88901918Y-100283963D01*
X88884059Y-100464938D01*
X88830481Y-100607813D01*
X88737215Y-100700681D01*
X88600293Y-100731638D01*
X88466546Y-100700681D01*
X88370106Y-100607813D01*
X88311765Y-100464938D01*
X88292318Y-100283963D01*
X88310178Y-100103384D01*
X88363756Y-99961700D01*
X88457021Y-99870022D01*
X88593943Y-99839462D01*
X88727690Y-99870022D01*
G37*
G36*
X99941393Y-100703063D02*
G01*
X99850906Y-100712588D01*
X99754068Y-100715763D01*
X99623893Y-100704650D01*
X99511181Y-100663375D01*
X99430218Y-100577650D01*
X99398468Y-100436363D01*
X99488956Y-100231575D01*
X99731843Y-100169663D01*
X99941393Y-100169663D01*
X99941393Y-100703063D01*
G37*
G36*
X98252690Y-99870022D02*
G01*
X98349131Y-99961700D01*
X98407471Y-100103384D01*
X98426918Y-100283963D01*
X98409059Y-100464938D01*
X98355481Y-100607813D01*
X98262215Y-100700681D01*
X98125293Y-100731638D01*
X97991546Y-100700681D01*
X97895106Y-100607813D01*
X97836765Y-100464938D01*
X97817318Y-100283963D01*
X97835178Y-100103384D01*
X97888756Y-99961700D01*
X97982021Y-99870022D01*
X98118943Y-99839462D01*
X98252690Y-99870022D01*
G37*
%TO.C,J1*%
X79814150Y-121585891D02*
X85244730Y-127016471D01*
X77035220Y-120687865D02*
X76094768Y-121628317D01*
X79814150Y-121585891D02*
X77933246Y-123466795D01*
X77933246Y-123466795D02*
X83363826Y-128897375D01*
X76094768Y-121628317D02*
X77035220Y-122568769D01*
X85244730Y-127016471D02*
X83363826Y-128897375D01*
%TO.C,J3*%
X87856000Y-126753000D02*
X87856000Y-127743000D01*
X87976000Y-122283000D02*
X91856000Y-122283000D01*
X93026000Y-126753000D02*
X91976000Y-126753000D01*
X86806000Y-124253000D02*
X86806000Y-126753000D01*
X93026000Y-124253000D02*
X93026000Y-126753000D01*
X86806000Y-126753000D02*
X87856000Y-126753000D01*
%TO.C,REF\u002A\u002A*%
G36*
X78850938Y-116606788D02*
G01*
X78850825Y-116697995D01*
X78850393Y-116804117D01*
X78849671Y-116900844D01*
X78848694Y-116985743D01*
X78847498Y-117056384D01*
X78846117Y-117110335D01*
X78844587Y-117145164D01*
X78842943Y-117158440D01*
X78841559Y-117158644D01*
X78821719Y-117159283D01*
X78779106Y-117159908D01*
X78714638Y-117160517D01*
X78629237Y-117161107D01*
X78523824Y-117161677D01*
X78399320Y-117162225D01*
X78256644Y-117162749D01*
X78096718Y-117163246D01*
X77920463Y-117163715D01*
X77728800Y-117164154D01*
X77522648Y-117164560D01*
X77302930Y-117164932D01*
X77070565Y-117165268D01*
X76826475Y-117165566D01*
X76571580Y-117165823D01*
X76306801Y-117166038D01*
X76033058Y-117166209D01*
X75751273Y-117166333D01*
X75462366Y-117166410D01*
X75167259Y-117166435D01*
X71499569Y-117166435D01*
X71499569Y-116063130D01*
X78850938Y-116063130D01*
X78850938Y-116606788D01*
G37*
G36*
X88745005Y-112743982D02*
G01*
X88714299Y-112894438D01*
X88659376Y-113009246D01*
X88575780Y-113095966D01*
X88459058Y-113162155D01*
X88413739Y-113177908D01*
X88296373Y-113197562D01*
X88172866Y-113197027D01*
X88068651Y-113175439D01*
X88066603Y-113174655D01*
X87982618Y-113125251D01*
X87897770Y-113048770D01*
X87827366Y-112961311D01*
X87786714Y-112878969D01*
X87774663Y-112818779D01*
X87764346Y-112706084D01*
X87762617Y-112605632D01*
X88013502Y-112605632D01*
X88028500Y-112726119D01*
X88063735Y-112825123D01*
X88117117Y-112889815D01*
X88137350Y-112900922D01*
X88214506Y-112921111D01*
X88303749Y-112925265D01*
X88378828Y-112911235D01*
X88408132Y-112891116D01*
X88449264Y-112820760D01*
X88475146Y-112710645D01*
X88484138Y-112566145D01*
X88483994Y-112524549D01*
X88480870Y-112440264D01*
X88470482Y-112385281D01*
X88448688Y-112344655D01*
X88411347Y-112303437D01*
X88340293Y-112253481D01*
X88247791Y-112233057D01*
X88158418Y-112252509D01*
X88084210Y-112308771D01*
X88037201Y-112398775D01*
X88020828Y-112476494D01*
X88013502Y-112605632D01*
X87762617Y-112605632D01*
X87762137Y-112577738D01*
X87767672Y-112449993D01*
X87780588Y-112339101D01*
X87800522Y-112261315D01*
X87846953Y-112173245D01*
X87945498Y-112064959D01*
X88071453Y-111996364D01*
X88221074Y-111969213D01*
X88390615Y-111985259D01*
X88418825Y-111992094D01*
X88550201Y-112051040D01*
X88649198Y-112147814D01*
X88715820Y-112282423D01*
X88750070Y-112454874D01*
X88751067Y-112566145D01*
X88751953Y-112665173D01*
X88745005Y-112743982D01*
G37*
D13*
X88745005Y-112743982D02*
X88714299Y-112894438D01*
X88659376Y-113009246D01*
X88575780Y-113095966D01*
X88459058Y-113162155D01*
X88413739Y-113177908D01*
X88296373Y-113197562D01*
X88172866Y-113197027D01*
X88068651Y-113175439D01*
X88066603Y-113174655D01*
X87982618Y-113125251D01*
X87897770Y-113048770D01*
X87827366Y-112961311D01*
X87786714Y-112878969D01*
X87774663Y-112818779D01*
X87764346Y-112706084D01*
X87762617Y-112605632D01*
X88013502Y-112605632D01*
X88028500Y-112726119D01*
X88063735Y-112825123D01*
X88117117Y-112889815D01*
X88137350Y-112900922D01*
X88214506Y-112921111D01*
X88303749Y-112925265D01*
X88378828Y-112911235D01*
X88408132Y-112891116D01*
X88449264Y-112820760D01*
X88475146Y-112710645D01*
X88484138Y-112566145D01*
X88483994Y-112524549D01*
X88480870Y-112440264D01*
X88470482Y-112385281D01*
X88448688Y-112344655D01*
X88411347Y-112303437D01*
X88340293Y-112253481D01*
X88247791Y-112233057D01*
X88158418Y-112252509D01*
X88084210Y-112308771D01*
X88037201Y-112398775D01*
X88020828Y-112476494D01*
X88013502Y-112605632D01*
X87762617Y-112605632D01*
X87762137Y-112577738D01*
X87767672Y-112449993D01*
X87780588Y-112339101D01*
X87800522Y-112261315D01*
X87846953Y-112173245D01*
X87945498Y-112064959D01*
X88071453Y-111996364D01*
X88221074Y-111969213D01*
X88390615Y-111985259D01*
X88418825Y-111992094D01*
X88550201Y-112051040D01*
X88649198Y-112147814D01*
X88715820Y-112282423D01*
X88750070Y-112454874D01*
X88751067Y-112566145D01*
X88751953Y-112665173D01*
X88745005Y-112743982D01*
G36*
X85888842Y-111972381D02*
G01*
X85949889Y-111991439D01*
X86025069Y-112023115D01*
X86061469Y-112040138D01*
X86087740Y-112043215D01*
X86093549Y-112019620D01*
X86093555Y-112018952D01*
X86105856Y-111996426D01*
X86148281Y-111984879D01*
X86230510Y-111981628D01*
X86367471Y-111981628D01*
X86367471Y-113176922D01*
X86093549Y-113176922D01*
X86093549Y-112352779D01*
X86025454Y-112289670D01*
X86004180Y-112271735D01*
X85940811Y-112241091D01*
X85862776Y-112239863D01*
X85756520Y-112266903D01*
X85720701Y-112268615D01*
X85678683Y-112242383D01*
X85622757Y-112180035D01*
X85595628Y-112145547D01*
X85563543Y-112096852D01*
X85558599Y-112065855D01*
X85576563Y-112039707D01*
X85631710Y-112006641D01*
X85717363Y-111980472D01*
X85810292Y-111967496D01*
X85888842Y-111972381D01*
G37*
X85888842Y-111972381D02*
X85949889Y-111991439D01*
X86025069Y-112023115D01*
X86061469Y-112040138D01*
X86087740Y-112043215D01*
X86093549Y-112019620D01*
X86093555Y-112018952D01*
X86105856Y-111996426D01*
X86148281Y-111984879D01*
X86230510Y-111981628D01*
X86367471Y-111981628D01*
X86367471Y-113176922D01*
X86093549Y-113176922D01*
X86093549Y-112352779D01*
X86025454Y-112289670D01*
X86004180Y-112271735D01*
X85940811Y-112241091D01*
X85862776Y-112239863D01*
X85756520Y-112266903D01*
X85720701Y-112268615D01*
X85678683Y-112242383D01*
X85622757Y-112180035D01*
X85595628Y-112145547D01*
X85563543Y-112096852D01*
X85558599Y-112065855D01*
X85576563Y-112039707D01*
X85631710Y-112006641D01*
X85717363Y-111980472D01*
X85810292Y-111967496D01*
X85888842Y-111972381D01*
G36*
X87843719Y-114854789D02*
G01*
X87778432Y-114951505D01*
X87679398Y-115021077D01*
X87669679Y-115025305D01*
X87561320Y-115055767D01*
X87439223Y-115067642D01*
X87323138Y-115060382D01*
X87232814Y-115033441D01*
X87196734Y-115015865D01*
X87170256Y-115011674D01*
X87164334Y-115033594D01*
X87153116Y-115053866D01*
X87109713Y-115065938D01*
X87025469Y-115069471D01*
X86886604Y-115069471D01*
X86893995Y-114633686D01*
X87164334Y-114633686D01*
X87173713Y-114698829D01*
X87214138Y-114770647D01*
X87229059Y-114783848D01*
X87290218Y-114811620D01*
X87382226Y-114818766D01*
X87437435Y-114815974D01*
X87540741Y-114794952D01*
X87604771Y-114755782D01*
X87626367Y-114701122D01*
X87602369Y-114633628D01*
X87588367Y-114615964D01*
X87525827Y-114576345D01*
X87426847Y-114553722D01*
X87285731Y-114546530D01*
X87164334Y-114546530D01*
X87164334Y-114633686D01*
X86893995Y-114633686D01*
X86894734Y-114590108D01*
X86896943Y-114479258D01*
X86902761Y-114313305D01*
X86912567Y-114186409D01*
X86928299Y-114091654D01*
X86951894Y-114022120D01*
X86985291Y-113970890D01*
X87030427Y-113931046D01*
X87089239Y-113895669D01*
X87119580Y-113882163D01*
X87224541Y-113856669D01*
X87351134Y-113846129D01*
X87482017Y-113850350D01*
X87599845Y-113869140D01*
X87687275Y-113902305D01*
X87717687Y-113921562D01*
X87787705Y-113978636D01*
X87811403Y-114026427D01*
X87805648Y-114035662D01*
X87769782Y-114067919D01*
X87711881Y-114110950D01*
X87682279Y-114131091D01*
X87631868Y-114159629D01*
X87599110Y-114162354D01*
X87568695Y-114142657D01*
X87492892Y-114102766D01*
X87390895Y-114086361D01*
X87286661Y-114098920D01*
X87284689Y-114099489D01*
X87211171Y-114131431D01*
X87174781Y-114181428D01*
X87164715Y-114264116D01*
X87164334Y-114342780D01*
X87424230Y-114351273D01*
X87465636Y-114352670D01*
X87570027Y-114357528D01*
X87640010Y-114365161D01*
X87687313Y-114378425D01*
X87723668Y-114400181D01*
X87760804Y-114433285D01*
X87822120Y-114509855D01*
X87867059Y-114623157D01*
X87871465Y-114701122D01*
X87873760Y-114741738D01*
X87843719Y-114854789D01*
G37*
X87843719Y-114854789D02*
X87778432Y-114951505D01*
X87679398Y-115021077D01*
X87669679Y-115025305D01*
X87561320Y-115055767D01*
X87439223Y-115067642D01*
X87323138Y-115060382D01*
X87232814Y-115033441D01*
X87196734Y-115015865D01*
X87170256Y-115011674D01*
X87164334Y-115033594D01*
X87153116Y-115053866D01*
X87109713Y-115065938D01*
X87025469Y-115069471D01*
X86886604Y-115069471D01*
X86893995Y-114633686D01*
X87164334Y-114633686D01*
X87173713Y-114698829D01*
X87214138Y-114770647D01*
X87229059Y-114783848D01*
X87290218Y-114811620D01*
X87382226Y-114818766D01*
X87437435Y-114815974D01*
X87540741Y-114794952D01*
X87604771Y-114755782D01*
X87626367Y-114701122D01*
X87602369Y-114633628D01*
X87588367Y-114615964D01*
X87525827Y-114576345D01*
X87426847Y-114553722D01*
X87285731Y-114546530D01*
X87164334Y-114546530D01*
X87164334Y-114633686D01*
X86893995Y-114633686D01*
X86894734Y-114590108D01*
X86896943Y-114479258D01*
X86902761Y-114313305D01*
X86912567Y-114186409D01*
X86928299Y-114091654D01*
X86951894Y-114022120D01*
X86985291Y-113970890D01*
X87030427Y-113931046D01*
X87089239Y-113895669D01*
X87119580Y-113882163D01*
X87224541Y-113856669D01*
X87351134Y-113846129D01*
X87482017Y-113850350D01*
X87599845Y-113869140D01*
X87687275Y-113902305D01*
X87717687Y-113921562D01*
X87787705Y-113978636D01*
X87811403Y-114026427D01*
X87805648Y-114035662D01*
X87769782Y-114067919D01*
X87711881Y-114110950D01*
X87682279Y-114131091D01*
X87631868Y-114159629D01*
X87599110Y-114162354D01*
X87568695Y-114142657D01*
X87492892Y-114102766D01*
X87390895Y-114086361D01*
X87286661Y-114098920D01*
X87284689Y-114099489D01*
X87211171Y-114131431D01*
X87174781Y-114181428D01*
X87164715Y-114264116D01*
X87164334Y-114342780D01*
X87424230Y-114351273D01*
X87465636Y-114352670D01*
X87570027Y-114357528D01*
X87640010Y-114365161D01*
X87687313Y-114378425D01*
X87723668Y-114400181D01*
X87760804Y-114433285D01*
X87822120Y-114509855D01*
X87867059Y-114623157D01*
X87871465Y-114701122D01*
X87873760Y-114741738D01*
X87843719Y-114854789D01*
G36*
X91028906Y-111979271D02*
G01*
X91142422Y-112014937D01*
X91192473Y-112039177D01*
X91217646Y-112041681D01*
X91223353Y-112019620D01*
X91223359Y-112018952D01*
X91235660Y-111996426D01*
X91278084Y-111984879D01*
X91360314Y-111981628D01*
X91497275Y-111981628D01*
X91497275Y-113176922D01*
X91223353Y-113176922D01*
X91223353Y-112764907D01*
X91223166Y-112625779D01*
X91221885Y-112511493D01*
X91218458Y-112431519D01*
X91211832Y-112377708D01*
X91200954Y-112341912D01*
X91184771Y-112315982D01*
X91162230Y-112291770D01*
X91131527Y-112266017D01*
X91043239Y-112231416D01*
X90950565Y-112241571D01*
X90865671Y-112296298D01*
X90841406Y-112321768D01*
X90823987Y-112347545D01*
X90812304Y-112381848D01*
X90805212Y-112432933D01*
X90801564Y-112509056D01*
X90800215Y-112618471D01*
X90800020Y-112769435D01*
X90800020Y-113176922D01*
X90526098Y-113176922D01*
X90526645Y-112734912D01*
X90526682Y-112715223D01*
X90529058Y-112527209D01*
X90536353Y-112381159D01*
X90550445Y-112269971D01*
X90573207Y-112186544D01*
X90606514Y-112123775D01*
X90652241Y-112074561D01*
X90712264Y-112031802D01*
X90774240Y-112002199D01*
X90899055Y-111975305D01*
X91028906Y-111979271D01*
G37*
X91028906Y-111979271D02*
X91142422Y-112014937D01*
X91192473Y-112039177D01*
X91217646Y-112041681D01*
X91223353Y-112019620D01*
X91223359Y-112018952D01*
X91235660Y-111996426D01*
X91278084Y-111984879D01*
X91360314Y-111981628D01*
X91497275Y-111981628D01*
X91497275Y-113176922D01*
X91223353Y-113176922D01*
X91223353Y-112764907D01*
X91223166Y-112625779D01*
X91221885Y-112511493D01*
X91218458Y-112431519D01*
X91211832Y-112377708D01*
X91200954Y-112341912D01*
X91184771Y-112315982D01*
X91162230Y-112291770D01*
X91131527Y-112266017D01*
X91043239Y-112231416D01*
X90950565Y-112241571D01*
X90865671Y-112296298D01*
X90841406Y-112321768D01*
X90823987Y-112347545D01*
X90812304Y-112381848D01*
X90805212Y-112432933D01*
X90801564Y-112509056D01*
X90800215Y-112618471D01*
X90800020Y-112769435D01*
X90800020Y-113176922D01*
X90526098Y-113176922D01*
X90526645Y-112734912D01*
X90526682Y-112715223D01*
X90529058Y-112527209D01*
X90536353Y-112381159D01*
X90550445Y-112269971D01*
X90573207Y-112186544D01*
X90606514Y-112123775D01*
X90652241Y-112074561D01*
X90712264Y-112031802D01*
X90774240Y-112002199D01*
X90899055Y-111975305D01*
X91028906Y-111979271D01*
G36*
X88950270Y-114240297D02*
G01*
X88983936Y-114340741D01*
X89023761Y-114451935D01*
X89057017Y-114536172D01*
X89080954Y-114586587D01*
X89092824Y-114596318D01*
X89095688Y-114587856D01*
X89111191Y-114535953D01*
X89135883Y-114449265D01*
X89167023Y-114337497D01*
X89201870Y-114210353D01*
X89296674Y-113861726D01*
X89441426Y-113854163D01*
X89453645Y-113853557D01*
X89531703Y-113852755D01*
X89569212Y-113860768D01*
X89573989Y-113879065D01*
X89567955Y-113896934D01*
X89548103Y-113958095D01*
X89517023Y-114054960D01*
X89476930Y-114180602D01*
X89430037Y-114328091D01*
X89378561Y-114490500D01*
X89195321Y-115069471D01*
X88966105Y-115069471D01*
X88858101Y-114702167D01*
X88838158Y-114634720D01*
X88801300Y-114512101D01*
X88769805Y-114409930D01*
X88746510Y-114337336D01*
X88734250Y-114303446D01*
X88730757Y-114300918D01*
X88713758Y-114322778D01*
X88689489Y-114380586D01*
X88661982Y-114465309D01*
X88660528Y-114470285D01*
X88623700Y-114595322D01*
X88581562Y-114736896D01*
X88542950Y-114865316D01*
X88480339Y-115072044D01*
X88249411Y-115057020D01*
X88142470Y-114720843D01*
X88095519Y-114573128D01*
X88042926Y-114407458D01*
X87992565Y-114248638D01*
X87950878Y-114116971D01*
X87866227Y-113849275D01*
X88149429Y-113849275D01*
X88218072Y-114104520D01*
X88236321Y-114171963D01*
X88270833Y-114297697D01*
X88302793Y-114412083D01*
X88327089Y-114496726D01*
X88367463Y-114633686D01*
X88496224Y-114247706D01*
X88624986Y-113861726D01*
X88723472Y-113854332D01*
X88821959Y-113846939D01*
X88950270Y-114240297D01*
G37*
X88950270Y-114240297D02*
X88983936Y-114340741D01*
X89023761Y-114451935D01*
X89057017Y-114536172D01*
X89080954Y-114586587D01*
X89092824Y-114596318D01*
X89095688Y-114587856D01*
X89111191Y-114535953D01*
X89135883Y-114449265D01*
X89167023Y-114337497D01*
X89201870Y-114210353D01*
X89296674Y-113861726D01*
X89441426Y-113854163D01*
X89453645Y-113853557D01*
X89531703Y-113852755D01*
X89569212Y-113860768D01*
X89573989Y-113879065D01*
X89567955Y-113896934D01*
X89548103Y-113958095D01*
X89517023Y-114054960D01*
X89476930Y-114180602D01*
X89430037Y-114328091D01*
X89378561Y-114490500D01*
X89195321Y-115069471D01*
X88966105Y-115069471D01*
X88858101Y-114702167D01*
X88838158Y-114634720D01*
X88801300Y-114512101D01*
X88769805Y-114409930D01*
X88746510Y-114337336D01*
X88734250Y-114303446D01*
X88730757Y-114300918D01*
X88713758Y-114322778D01*
X88689489Y-114380586D01*
X88661982Y-114465309D01*
X88660528Y-114470285D01*
X88623700Y-114595322D01*
X88581562Y-114736896D01*
X88542950Y-114865316D01*
X88480339Y-115072044D01*
X88249411Y-115057020D01*
X88142470Y-114720843D01*
X88095519Y-114573128D01*
X88042926Y-114407458D01*
X87992565Y-114248638D01*
X87950878Y-114116971D01*
X87866227Y-113849275D01*
X88149429Y-113849275D01*
X88218072Y-114104520D01*
X88236321Y-114171963D01*
X88270833Y-114297697D01*
X88302793Y-114412083D01*
X88327089Y-114496726D01*
X88367463Y-114633686D01*
X88496224Y-114247706D01*
X88624986Y-113861726D01*
X88723472Y-113854332D01*
X88821959Y-113846939D01*
X88950270Y-114240297D01*
G36*
X92670286Y-112604108D02*
G01*
X92668109Y-112680224D01*
X92643559Y-112846570D01*
X92589460Y-112977728D01*
X92502982Y-113079101D01*
X92381295Y-113156096D01*
X92263249Y-113192039D01*
X92115161Y-113198915D01*
X91965748Y-113172468D01*
X91832472Y-113114037D01*
X91783083Y-113081532D01*
X91728668Y-113039868D01*
X91703840Y-113012452D01*
X91705247Y-113001140D01*
X91733039Y-112962597D01*
X91785272Y-112915901D01*
X91875791Y-112846858D01*
X91981858Y-112899831D01*
X92010540Y-112912943D01*
X92094971Y-112941441D01*
X92165737Y-112952804D01*
X92217919Y-112943441D01*
X92299806Y-112898351D01*
X92368637Y-112828355D01*
X92408007Y-112747363D01*
X92424047Y-112678882D01*
X91671589Y-112678882D01*
X91671728Y-112548147D01*
X91672867Y-112506713D01*
X91681182Y-112417805D01*
X91945510Y-112417805D01*
X91945995Y-112422899D01*
X91959687Y-112438760D01*
X91998378Y-112448505D01*
X92070317Y-112453413D01*
X92183757Y-112454765D01*
X92221042Y-112454749D01*
X92317873Y-112453854D01*
X92376083Y-112449988D01*
X92404306Y-112440968D01*
X92411173Y-112424611D01*
X92405317Y-112398735D01*
X92404423Y-112395802D01*
X92353973Y-112305759D01*
X92274442Y-112243766D01*
X92179603Y-112220686D01*
X92144547Y-112222532D01*
X92079481Y-112244611D01*
X92017061Y-112300766D01*
X92000247Y-112320621D01*
X91961137Y-112377326D01*
X91945510Y-112417805D01*
X91681182Y-112417805D01*
X91682251Y-112406376D01*
X91697988Y-112323349D01*
X91715236Y-112276868D01*
X91775879Y-112175769D01*
X91857094Y-112083951D01*
X91942981Y-112021037D01*
X91967796Y-112009354D01*
X92112290Y-111970600D01*
X92259842Y-111974686D01*
X92398567Y-112019882D01*
X92516579Y-112104461D01*
X92580410Y-112182461D01*
X92632601Y-112292343D01*
X92660503Y-112424611D01*
X92661573Y-112429685D01*
X92670286Y-112604108D01*
G37*
X92670286Y-112604108D02*
X92668109Y-112680224D01*
X92643559Y-112846570D01*
X92589460Y-112977728D01*
X92502982Y-113079101D01*
X92381295Y-113156096D01*
X92263249Y-113192039D01*
X92115161Y-113198915D01*
X91965748Y-113172468D01*
X91832472Y-113114037D01*
X91783083Y-113081532D01*
X91728668Y-113039868D01*
X91703840Y-113012452D01*
X91705247Y-113001140D01*
X91733039Y-112962597D01*
X91785272Y-112915901D01*
X91875791Y-112846858D01*
X91981858Y-112899831D01*
X92010540Y-112912943D01*
X92094971Y-112941441D01*
X92165737Y-112952804D01*
X92217919Y-112943441D01*
X92299806Y-112898351D01*
X92368637Y-112828355D01*
X92408007Y-112747363D01*
X92424047Y-112678882D01*
X91671589Y-112678882D01*
X91671728Y-112548147D01*
X91672867Y-112506713D01*
X91681182Y-112417805D01*
X91945510Y-112417805D01*
X91945995Y-112422899D01*
X91959687Y-112438760D01*
X91998378Y-112448505D01*
X92070317Y-112453413D01*
X92183757Y-112454765D01*
X92221042Y-112454749D01*
X92317873Y-112453854D01*
X92376083Y-112449988D01*
X92404306Y-112440968D01*
X92411173Y-112424611D01*
X92405317Y-112398735D01*
X92404423Y-112395802D01*
X92353973Y-112305759D01*
X92274442Y-112243766D01*
X92179603Y-112220686D01*
X92144547Y-112222532D01*
X92079481Y-112244611D01*
X92017061Y-112300766D01*
X92000247Y-112320621D01*
X91961137Y-112377326D01*
X91945510Y-112417805D01*
X91681182Y-112417805D01*
X91682251Y-112406376D01*
X91697988Y-112323349D01*
X91715236Y-112276868D01*
X91775879Y-112175769D01*
X91857094Y-112083951D01*
X91942981Y-112021037D01*
X91967796Y-112009354D01*
X92112290Y-111970600D01*
X92259842Y-111974686D01*
X92398567Y-112019882D01*
X92516579Y-112104461D01*
X92580410Y-112182461D01*
X92632601Y-112292343D01*
X92660503Y-112424611D01*
X92661573Y-112429685D01*
X92670286Y-112604108D01*
G36*
X91447471Y-115069471D02*
G01*
X91198451Y-115069471D01*
X91198451Y-114685111D01*
X91198176Y-114595706D01*
X91195344Y-114447629D01*
X91188176Y-114338003D01*
X91175116Y-114259252D01*
X91154608Y-114203798D01*
X91125098Y-114164061D01*
X91085031Y-114132465D01*
X91041290Y-114108921D01*
X90989496Y-114102246D01*
X90915831Y-114117090D01*
X90892159Y-114123271D01*
X90833069Y-114132572D01*
X90790818Y-114119245D01*
X90741848Y-114077996D01*
X90732555Y-114069026D01*
X90681179Y-114013534D01*
X90648047Y-113968415D01*
X90643502Y-113957545D01*
X90652508Y-113917409D01*
X90698174Y-113885320D01*
X90770246Y-113862799D01*
X90858471Y-113851367D01*
X90952594Y-113852544D01*
X91042362Y-113867850D01*
X91117520Y-113898806D01*
X91141343Y-113913260D01*
X91181449Y-113934417D01*
X91196296Y-113929572D01*
X91198451Y-113898712D01*
X91198957Y-113887633D01*
X91210970Y-113863091D01*
X91248236Y-113851921D01*
X91322961Y-113849275D01*
X91447471Y-113849275D01*
X91447471Y-115069471D01*
G37*
X91447471Y-115069471D02*
X91198451Y-115069471D01*
X91198451Y-114685111D01*
X91198176Y-114595706D01*
X91195344Y-114447629D01*
X91188176Y-114338003D01*
X91175116Y-114259252D01*
X91154608Y-114203798D01*
X91125098Y-114164061D01*
X91085031Y-114132465D01*
X91041290Y-114108921D01*
X90989496Y-114102246D01*
X90915831Y-114117090D01*
X90892159Y-114123271D01*
X90833069Y-114132572D01*
X90790818Y-114119245D01*
X90741848Y-114077996D01*
X90732555Y-114069026D01*
X90681179Y-114013534D01*
X90648047Y-113968415D01*
X90643502Y-113957545D01*
X90652508Y-113917409D01*
X90698174Y-113885320D01*
X90770246Y-113862799D01*
X90858471Y-113851367D01*
X90952594Y-113852544D01*
X91042362Y-113867850D01*
X91117520Y-113898806D01*
X91141343Y-113913260D01*
X91181449Y-113934417D01*
X91196296Y-113929572D01*
X91198451Y-113898712D01*
X91198957Y-113887633D01*
X91210970Y-113863091D01*
X91248236Y-113851921D01*
X91322961Y-113849275D01*
X91447471Y-113849275D01*
X91447471Y-115069471D01*
G36*
X86865510Y-112369245D02*
G01*
X86867611Y-112543624D01*
X86875833Y-112684460D01*
X86892491Y-112786825D01*
X86919891Y-112856458D01*
X86960343Y-112899093D01*
X87016152Y-112920468D01*
X87089628Y-112926318D01*
X87159783Y-112921097D01*
X87216443Y-112900659D01*
X87257626Y-112859254D01*
X87285640Y-112791147D01*
X87302793Y-112690600D01*
X87311392Y-112551879D01*
X87313746Y-112369245D01*
X87313746Y-111981628D01*
X87562765Y-111981628D01*
X87562765Y-112448928D01*
X87562338Y-112573659D01*
X87559018Y-112734955D01*
X87550687Y-112857965D01*
X87535326Y-112949729D01*
X87510919Y-113017291D01*
X87475447Y-113067691D01*
X87426892Y-113107971D01*
X87363235Y-113145174D01*
X87229562Y-113192270D01*
X87090055Y-113195342D01*
X86958524Y-113151971D01*
X86901135Y-113123857D01*
X86872664Y-113119654D01*
X86865510Y-113139520D01*
X86853632Y-113161826D01*
X86811116Y-113173576D01*
X86728549Y-113176922D01*
X86591589Y-113176922D01*
X86591589Y-111981628D01*
X86865510Y-111981628D01*
X86865510Y-112369245D01*
G37*
X86865510Y-112369245D02*
X86867611Y-112543624D01*
X86875833Y-112684460D01*
X86892491Y-112786825D01*
X86919891Y-112856458D01*
X86960343Y-112899093D01*
X87016152Y-112920468D01*
X87089628Y-112926318D01*
X87159783Y-112921097D01*
X87216443Y-112900659D01*
X87257626Y-112859254D01*
X87285640Y-112791147D01*
X87302793Y-112690600D01*
X87311392Y-112551879D01*
X87313746Y-112369245D01*
X87313746Y-111981628D01*
X87562765Y-111981628D01*
X87562765Y-112448928D01*
X87562338Y-112573659D01*
X87559018Y-112734955D01*
X87550687Y-112857965D01*
X87535326Y-112949729D01*
X87510919Y-113017291D01*
X87475447Y-113067691D01*
X87426892Y-113107971D01*
X87363235Y-113145174D01*
X87229562Y-113192270D01*
X87090055Y-113195342D01*
X86958524Y-113151971D01*
X86901135Y-113123857D01*
X86872664Y-113119654D01*
X86865510Y-113139520D01*
X86853632Y-113161826D01*
X86811116Y-113173576D01*
X86728549Y-113176922D01*
X86591589Y-113176922D01*
X86591589Y-111981628D01*
X86865510Y-111981628D01*
X86865510Y-112369245D01*
G36*
X90645822Y-114659032D02*
G01*
X90639474Y-114733192D01*
X90638386Y-114739989D01*
X90595660Y-114861555D01*
X90517634Y-114964619D01*
X90415274Y-115034444D01*
X90305354Y-115063346D01*
X90170151Y-115061103D01*
X90045776Y-115022351D01*
X90013379Y-115005998D01*
X89971720Y-114988475D01*
X89955867Y-114993927D01*
X89953353Y-115022351D01*
X89952199Y-115036525D01*
X89937292Y-115057488D01*
X89895889Y-115067140D01*
X89816393Y-115069471D01*
X89679432Y-115069471D01*
X89679432Y-114471607D01*
X89953353Y-114471607D01*
X89955316Y-114575181D01*
X89963283Y-114644138D01*
X89980292Y-114691379D01*
X90009383Y-114730968D01*
X90086196Y-114789831D01*
X90176086Y-114809564D01*
X90263254Y-114785162D01*
X90336669Y-114717090D01*
X90356075Y-114667278D01*
X90370410Y-114579070D01*
X90376711Y-114472052D01*
X90374726Y-114362284D01*
X90364199Y-114265827D01*
X90344876Y-114198743D01*
X90338703Y-114187742D01*
X90279193Y-114132453D01*
X90198546Y-114107959D01*
X90111933Y-114113656D01*
X90034522Y-114148940D01*
X89981486Y-114213208D01*
X89979294Y-114218613D01*
X89966143Y-114278921D01*
X89956866Y-114369039D01*
X89953353Y-114471607D01*
X89679432Y-114471607D01*
X89679432Y-113376137D01*
X89953353Y-113376137D01*
X89953353Y-113956601D01*
X90004090Y-113910685D01*
X90052942Y-113882146D01*
X90145402Y-113858290D01*
X90253485Y-113850603D01*
X90359036Y-113860040D01*
X90443900Y-113887557D01*
X90504641Y-113926699D01*
X90567207Y-113993379D01*
X90609315Y-114083053D01*
X90634627Y-114204355D01*
X90646806Y-114365918D01*
X90648596Y-114431225D01*
X90648725Y-114472052D01*
X90648979Y-114552570D01*
X90645822Y-114659032D01*
G37*
X90645822Y-114659032D02*
X90639474Y-114733192D01*
X90638386Y-114739989D01*
X90595660Y-114861555D01*
X90517634Y-114964619D01*
X90415274Y-115034444D01*
X90305354Y-115063346D01*
X90170151Y-115061103D01*
X90045776Y-115022351D01*
X90013379Y-115005998D01*
X89971720Y-114988475D01*
X89955867Y-114993927D01*
X89953353Y-115022351D01*
X89952199Y-115036525D01*
X89937292Y-115057488D01*
X89895889Y-115067140D01*
X89816393Y-115069471D01*
X89679432Y-115069471D01*
X89679432Y-114471607D01*
X89953353Y-114471607D01*
X89955316Y-114575181D01*
X89963283Y-114644138D01*
X89980292Y-114691379D01*
X90009383Y-114730968D01*
X90086196Y-114789831D01*
X90176086Y-114809564D01*
X90263254Y-114785162D01*
X90336669Y-114717090D01*
X90356075Y-114667278D01*
X90370410Y-114579070D01*
X90376711Y-114472052D01*
X90374726Y-114362284D01*
X90364199Y-114265827D01*
X90344876Y-114198743D01*
X90338703Y-114187742D01*
X90279193Y-114132453D01*
X90198546Y-114107959D01*
X90111933Y-114113656D01*
X90034522Y-114148940D01*
X89981486Y-114213208D01*
X89979294Y-114218613D01*
X89966143Y-114278921D01*
X89956866Y-114369039D01*
X89953353Y-114471607D01*
X89679432Y-114471607D01*
X89679432Y-113376137D01*
X89953353Y-113376137D01*
X89953353Y-113956601D01*
X90004090Y-113910685D01*
X90052942Y-113882146D01*
X90145402Y-113858290D01*
X90253485Y-113850603D01*
X90359036Y-113860040D01*
X90443900Y-113887557D01*
X90504641Y-113926699D01*
X90567207Y-113993379D01*
X90609315Y-114083053D01*
X90634627Y-114204355D01*
X90646806Y-114365918D01*
X90648596Y-114431225D01*
X90648725Y-114472052D01*
X90648979Y-114552570D01*
X90645822Y-114659032D01*
G36*
X86251525Y-113865675D02*
G01*
X86326760Y-113900886D01*
X86392373Y-113952497D01*
X86392373Y-113900886D01*
X86394008Y-113881290D01*
X86409221Y-113860513D01*
X86450362Y-113851337D01*
X86529334Y-113849275D01*
X86666295Y-113849275D01*
X86666295Y-115069471D01*
X86392373Y-115069471D01*
X86392373Y-114672211D01*
X86392340Y-114649405D01*
X86390003Y-114489089D01*
X86384268Y-114358500D01*
X86375544Y-114264314D01*
X86364241Y-114213208D01*
X86353862Y-114193915D01*
X86289968Y-114133406D01*
X86202937Y-114106622D01*
X86107904Y-114119117D01*
X86084594Y-114127586D01*
X86034937Y-114142555D01*
X86000999Y-114137907D01*
X85966850Y-114107479D01*
X85916559Y-114045111D01*
X85834992Y-113942123D01*
X85892323Y-113895699D01*
X85946823Y-113867755D01*
X86042554Y-113848883D01*
X86150456Y-113848265D01*
X86251525Y-113865675D01*
G37*
X86251525Y-113865675D02*
X86326760Y-113900886D01*
X86392373Y-113952497D01*
X86392373Y-113900886D01*
X86394008Y-113881290D01*
X86409221Y-113860513D01*
X86450362Y-113851337D01*
X86529334Y-113849275D01*
X86666295Y-113849275D01*
X86666295Y-115069471D01*
X86392373Y-115069471D01*
X86392373Y-114672211D01*
X86392340Y-114649405D01*
X86390003Y-114489089D01*
X86384268Y-114358500D01*
X86375544Y-114264314D01*
X86364241Y-114213208D01*
X86353862Y-114193915D01*
X86289968Y-114133406D01*
X86202937Y-114106622D01*
X86107904Y-114119117D01*
X86084594Y-114127586D01*
X86034937Y-114142555D01*
X86000999Y-114137907D01*
X85966850Y-114107479D01*
X85916559Y-114045111D01*
X85834992Y-113942123D01*
X85892323Y-113895699D01*
X85946823Y-113867755D01*
X86042554Y-113848883D01*
X86150456Y-113848265D01*
X86251525Y-113865675D01*
G36*
X89476810Y-111980820D02*
G01*
X89620629Y-112016866D01*
X89725691Y-112083677D01*
X89792594Y-112181702D01*
X89821940Y-112311387D01*
X89815999Y-112435544D01*
X89773114Y-112540266D01*
X89690876Y-112617693D01*
X89567635Y-112669337D01*
X89401744Y-112696710D01*
X89293952Y-112711057D01*
X89195566Y-112742099D01*
X89144771Y-112787053D01*
X89141704Y-112845838D01*
X89162146Y-112882493D01*
X89225454Y-112925935D01*
X89315449Y-112946483D01*
X89420913Y-112943673D01*
X89530626Y-112917042D01*
X89633368Y-112866128D01*
X89735804Y-112798339D01*
X89825902Y-112889508D01*
X89916000Y-112980676D01*
X89841295Y-113041655D01*
X89812246Y-113062842D01*
X89730517Y-113110978D01*
X89642079Y-113152457D01*
X89572087Y-113176262D01*
X89469602Y-113193504D01*
X89343255Y-113193732D01*
X89188318Y-113174748D01*
X89048745Y-113126630D01*
X88949950Y-113050195D01*
X88891701Y-112945254D01*
X88873762Y-112811617D01*
X88886747Y-112694054D01*
X88928431Y-112597803D01*
X89003477Y-112528873D01*
X89116635Y-112483030D01*
X89272654Y-112456042D01*
X89290574Y-112454088D01*
X89387714Y-112441630D01*
X89466514Y-112428592D01*
X89511344Y-112417499D01*
X89526304Y-112408567D01*
X89551596Y-112362509D01*
X89547488Y-112303553D01*
X89513688Y-112252373D01*
X89495939Y-112241210D01*
X89421981Y-112223326D01*
X89326451Y-112224529D01*
X89226836Y-112243561D01*
X89140621Y-112279168D01*
X89050031Y-112332618D01*
X88979763Y-112250505D01*
X88962712Y-112229644D01*
X88924298Y-112173761D01*
X88908483Y-112135887D01*
X88925090Y-112112664D01*
X88976469Y-112076412D01*
X89050657Y-112037402D01*
X89061110Y-112032633D01*
X89158941Y-111995229D01*
X89253241Y-111977345D01*
X89370262Y-111973754D01*
X89476810Y-111980820D01*
G37*
X89476810Y-111980820D02*
X89620629Y-112016866D01*
X89725691Y-112083677D01*
X89792594Y-112181702D01*
X89821940Y-112311387D01*
X89815999Y-112435544D01*
X89773114Y-112540266D01*
X89690876Y-112617693D01*
X89567635Y-112669337D01*
X89401744Y-112696710D01*
X89293952Y-112711057D01*
X89195566Y-112742099D01*
X89144771Y-112787053D01*
X89141704Y-112845838D01*
X89162146Y-112882493D01*
X89225454Y-112925935D01*
X89315449Y-112946483D01*
X89420913Y-112943673D01*
X89530626Y-112917042D01*
X89633368Y-112866128D01*
X89735804Y-112798339D01*
X89825902Y-112889508D01*
X89916000Y-112980676D01*
X89841295Y-113041655D01*
X89812246Y-113062842D01*
X89730517Y-113110978D01*
X89642079Y-113152457D01*
X89572087Y-113176262D01*
X89469602Y-113193504D01*
X89343255Y-113193732D01*
X89188318Y-113174748D01*
X89048745Y-113126630D01*
X88949950Y-113050195D01*
X88891701Y-112945254D01*
X88873762Y-112811617D01*
X88886747Y-112694054D01*
X88928431Y-112597803D01*
X89003477Y-112528873D01*
X89116635Y-112483030D01*
X89272654Y-112456042D01*
X89290574Y-112454088D01*
X89387714Y-112441630D01*
X89466514Y-112428592D01*
X89511344Y-112417499D01*
X89526304Y-112408567D01*
X89551596Y-112362509D01*
X89547488Y-112303553D01*
X89513688Y-112252373D01*
X89495939Y-112241210D01*
X89421981Y-112223326D01*
X89326451Y-112224529D01*
X89226836Y-112243561D01*
X89140621Y-112279168D01*
X89050031Y-112332618D01*
X88979763Y-112250505D01*
X88962712Y-112229644D01*
X88924298Y-112173761D01*
X88908483Y-112135887D01*
X88925090Y-112112664D01*
X88976469Y-112076412D01*
X89050657Y-112037402D01*
X89061110Y-112032633D01*
X89158941Y-111995229D01*
X89253241Y-111977345D01*
X89370262Y-111973754D01*
X89476810Y-111980820D01*
G36*
X93657520Y-115064547D02*
G01*
X93526785Y-115057020D01*
X93520569Y-114658588D01*
X93518730Y-114561704D01*
X93513510Y-114416146D01*
X93504550Y-114309334D01*
X93490203Y-114234087D01*
X93468821Y-114183227D01*
X93438759Y-114149574D01*
X93398367Y-114125947D01*
X93322578Y-114101818D01*
X93247207Y-114111194D01*
X93167617Y-114162763D01*
X93091000Y-114227231D01*
X93091000Y-115069471D01*
X92817079Y-115069471D01*
X92817079Y-114612701D01*
X92817342Y-114469531D01*
X92818799Y-114342309D01*
X92822301Y-114249184D01*
X92828697Y-114181713D01*
X92838835Y-114131454D01*
X92853563Y-114089966D01*
X92873729Y-114048805D01*
X92878510Y-114040066D01*
X92942101Y-113954954D01*
X93016527Y-113895476D01*
X93106255Y-113864245D01*
X93225072Y-113850342D01*
X93344059Y-113857872D01*
X93440865Y-113887267D01*
X93514334Y-113925259D01*
X93514334Y-113103015D01*
X93413667Y-113155486D01*
X93371616Y-113174549D01*
X93238886Y-113201506D01*
X93106979Y-113182874D01*
X92984705Y-113120929D01*
X92880872Y-113017943D01*
X92864606Y-112993738D01*
X92848973Y-112958256D01*
X92838776Y-112910015D01*
X92832888Y-112839757D01*
X92830182Y-112738221D01*
X92829696Y-112632428D01*
X93092759Y-112632428D01*
X93092981Y-112720779D01*
X93099735Y-112779700D01*
X93114916Y-112821752D01*
X93140417Y-112859499D01*
X93172811Y-112894594D01*
X93224614Y-112921154D01*
X93302667Y-112927902D01*
X93371618Y-112922029D01*
X93439865Y-112892641D01*
X93483818Y-112833107D01*
X93507350Y-112737423D01*
X93514334Y-112599582D01*
X93512528Y-112526254D01*
X93494501Y-112387833D01*
X93457308Y-112294233D01*
X93401159Y-112246116D01*
X93344449Y-112232579D01*
X93245686Y-112238925D01*
X93162240Y-112278223D01*
X93142268Y-112296244D01*
X93121105Y-112327422D01*
X93108021Y-112373833D01*
X93100251Y-112447000D01*
X93095032Y-112558448D01*
X93092759Y-112632428D01*
X92829696Y-112632428D01*
X92829530Y-112596149D01*
X92829753Y-112531324D01*
X92833570Y-112380538D01*
X92844203Y-112267896D01*
X92864335Y-112184885D01*
X92896653Y-112122991D01*
X92943842Y-112073700D01*
X93008588Y-112028499D01*
X93061091Y-112002560D01*
X93185571Y-111973953D01*
X93316781Y-111977851D01*
X93433402Y-112014935D01*
X93483453Y-112039176D01*
X93508626Y-112041681D01*
X93514334Y-112019620D01*
X93514339Y-112018952D01*
X93526640Y-111996426D01*
X93569065Y-111984879D01*
X93651295Y-111981628D01*
X93788255Y-111981628D01*
X93788255Y-115072073D01*
X93657520Y-115064547D01*
G37*
X93657520Y-115064547D02*
X93526785Y-115057020D01*
X93520569Y-114658588D01*
X93518730Y-114561704D01*
X93513510Y-114416146D01*
X93504550Y-114309334D01*
X93490203Y-114234087D01*
X93468821Y-114183227D01*
X93438759Y-114149574D01*
X93398367Y-114125947D01*
X93322578Y-114101818D01*
X93247207Y-114111194D01*
X93167617Y-114162763D01*
X93091000Y-114227231D01*
X93091000Y-115069471D01*
X92817079Y-115069471D01*
X92817079Y-114612701D01*
X92817342Y-114469531D01*
X92818799Y-114342309D01*
X92822301Y-114249184D01*
X92828697Y-114181713D01*
X92838835Y-114131454D01*
X92853563Y-114089966D01*
X92873729Y-114048805D01*
X92878510Y-114040066D01*
X92942101Y-113954954D01*
X93016527Y-113895476D01*
X93106255Y-113864245D01*
X93225072Y-113850342D01*
X93344059Y-113857872D01*
X93440865Y-113887267D01*
X93514334Y-113925259D01*
X93514334Y-113103015D01*
X93413667Y-113155486D01*
X93371616Y-113174549D01*
X93238886Y-113201506D01*
X93106979Y-113182874D01*
X92984705Y-113120929D01*
X92880872Y-113017943D01*
X92864606Y-112993738D01*
X92848973Y-112958256D01*
X92838776Y-112910015D01*
X92832888Y-112839757D01*
X92830182Y-112738221D01*
X92829696Y-112632428D01*
X93092759Y-112632428D01*
X93092981Y-112720779D01*
X93099735Y-112779700D01*
X93114916Y-112821752D01*
X93140417Y-112859499D01*
X93172811Y-112894594D01*
X93224614Y-112921154D01*
X93302667Y-112927902D01*
X93371618Y-112922029D01*
X93439865Y-112892641D01*
X93483818Y-112833107D01*
X93507350Y-112737423D01*
X93514334Y-112599582D01*
X93512528Y-112526254D01*
X93494501Y-112387833D01*
X93457308Y-112294233D01*
X93401159Y-112246116D01*
X93344449Y-112232579D01*
X93245686Y-112238925D01*
X93162240Y-112278223D01*
X93142268Y-112296244D01*
X93121105Y-112327422D01*
X93108021Y-112373833D01*
X93100251Y-112447000D01*
X93095032Y-112558448D01*
X93092759Y-112632428D01*
X92829696Y-112632428D01*
X92829530Y-112596149D01*
X92829753Y-112531324D01*
X92833570Y-112380538D01*
X92844203Y-112267896D01*
X92864335Y-112184885D01*
X92896653Y-112122991D01*
X92943842Y-112073700D01*
X93008588Y-112028499D01*
X93061091Y-112002560D01*
X93185571Y-111973953D01*
X93316781Y-111977851D01*
X93433402Y-112014935D01*
X93483453Y-112039176D01*
X93508626Y-112041681D01*
X93514334Y-112019620D01*
X93514339Y-112018952D01*
X93526640Y-111996426D01*
X93569065Y-111984879D01*
X93651295Y-111981628D01*
X93788255Y-111981628D01*
X93788255Y-115072073D01*
X93657520Y-115064547D01*
G36*
X84563360Y-112689632D02*
G01*
X84562943Y-112693380D01*
X84527139Y-112868271D01*
X84462449Y-113004247D01*
X84366859Y-113104296D01*
X84238353Y-113171405D01*
X84214764Y-113179079D01*
X84068551Y-113201696D01*
X83917334Y-113189084D01*
X83776750Y-113144017D01*
X83662437Y-113069269D01*
X83576812Y-112990157D01*
X83667827Y-112918191D01*
X83758842Y-112846224D01*
X83868528Y-112899514D01*
X83995445Y-112942695D01*
X84107488Y-112943987D01*
X84199157Y-112904314D01*
X84265123Y-112824683D01*
X84288771Y-112776968D01*
X84301972Y-112736189D01*
X84294334Y-112708641D01*
X84260063Y-112691731D01*
X84193368Y-112682864D01*
X84088454Y-112679445D01*
X83939530Y-112678882D01*
X83578451Y-112678882D01*
X83578451Y-112506190D01*
X83581149Y-112430376D01*
X83835385Y-112430376D01*
X83847595Y-112444321D01*
X83883748Y-112451578D01*
X83952463Y-112454332D01*
X84062362Y-112454765D01*
X84121294Y-112454073D01*
X84214290Y-112449500D01*
X84277373Y-112441491D01*
X84300608Y-112431035D01*
X84294663Y-112392456D01*
X84252762Y-112318634D01*
X84182938Y-112257990D01*
X84099699Y-112221362D01*
X84017554Y-112219589D01*
X83955721Y-112248960D01*
X83885656Y-112315800D01*
X83841106Y-112398735D01*
X83838496Y-112407562D01*
X83835385Y-112430376D01*
X83581149Y-112430376D01*
X83581702Y-112414853D01*
X83591246Y-112324484D01*
X83604881Y-112263396D01*
X83614820Y-112240074D01*
X83687166Y-112136202D01*
X83791700Y-112049569D01*
X83913949Y-111992845D01*
X83977713Y-111977355D01*
X84129645Y-111970304D01*
X84265022Y-112006174D01*
X84380122Y-112080974D01*
X84471227Y-112190711D01*
X84534615Y-112331395D01*
X84553607Y-112431035D01*
X84566566Y-112499032D01*
X84563360Y-112689632D01*
G37*
X84563360Y-112689632D02*
X84562943Y-112693380D01*
X84527139Y-112868271D01*
X84462449Y-113004247D01*
X84366859Y-113104296D01*
X84238353Y-113171405D01*
X84214764Y-113179079D01*
X84068551Y-113201696D01*
X83917334Y-113189084D01*
X83776750Y-113144017D01*
X83662437Y-113069269D01*
X83576812Y-112990157D01*
X83667827Y-112918191D01*
X83758842Y-112846224D01*
X83868528Y-112899514D01*
X83995445Y-112942695D01*
X84107488Y-112943987D01*
X84199157Y-112904314D01*
X84265123Y-112824683D01*
X84288771Y-112776968D01*
X84301972Y-112736189D01*
X84294334Y-112708641D01*
X84260063Y-112691731D01*
X84193368Y-112682864D01*
X84088454Y-112679445D01*
X83939530Y-112678882D01*
X83578451Y-112678882D01*
X83578451Y-112506190D01*
X83581149Y-112430376D01*
X83835385Y-112430376D01*
X83847595Y-112444321D01*
X83883748Y-112451578D01*
X83952463Y-112454332D01*
X84062362Y-112454765D01*
X84121294Y-112454073D01*
X84214290Y-112449500D01*
X84277373Y-112441491D01*
X84300608Y-112431035D01*
X84294663Y-112392456D01*
X84252762Y-112318634D01*
X84182938Y-112257990D01*
X84099699Y-112221362D01*
X84017554Y-112219589D01*
X83955721Y-112248960D01*
X83885656Y-112315800D01*
X83841106Y-112398735D01*
X83838496Y-112407562D01*
X83835385Y-112430376D01*
X83581149Y-112430376D01*
X83581702Y-112414853D01*
X83591246Y-112324484D01*
X83604881Y-112263396D01*
X83614820Y-112240074D01*
X83687166Y-112136202D01*
X83791700Y-112049569D01*
X83913949Y-111992845D01*
X83977713Y-111977355D01*
X84129645Y-111970304D01*
X84265022Y-112006174D01*
X84380122Y-112080974D01*
X84471227Y-112190711D01*
X84534615Y-112331395D01*
X84553607Y-112431035D01*
X84566566Y-112499032D01*
X84563360Y-112689632D01*
G36*
X90002634Y-103726172D02*
G01*
X90115216Y-104323363D01*
X90530629Y-104494610D01*
X90946043Y-104665857D01*
X91444400Y-104326978D01*
X91543036Y-104260170D01*
X91673797Y-104172479D01*
X91787008Y-104097580D01*
X91876789Y-104039320D01*
X91937261Y-104001545D01*
X91962544Y-103988098D01*
X91978072Y-103997661D01*
X92024487Y-104037730D01*
X92094730Y-104103487D01*
X92182848Y-104188895D01*
X92282889Y-104287915D01*
X92388902Y-104394509D01*
X92494935Y-104502640D01*
X92595035Y-104606268D01*
X92683251Y-104699358D01*
X92753632Y-104775869D01*
X92800225Y-104829765D01*
X92817079Y-104855007D01*
X92813158Y-104865852D01*
X92786012Y-104914228D01*
X92736439Y-104993842D01*
X92668459Y-105098454D01*
X92586091Y-105221822D01*
X92493353Y-105357706D01*
X92442460Y-105431815D01*
X92354912Y-105560835D01*
X92279853Y-105673434D01*
X92221285Y-105763505D01*
X92183209Y-105824942D01*
X92169628Y-105851640D01*
X92169851Y-105853119D01*
X92181831Y-105886962D01*
X92209316Y-105956071D01*
X92248474Y-106051416D01*
X92295474Y-106163972D01*
X92346485Y-106284710D01*
X92397676Y-106404602D01*
X92445215Y-106514622D01*
X92485271Y-106605740D01*
X92514013Y-106668931D01*
X92527610Y-106695165D01*
X92535655Y-106697492D01*
X92584535Y-106707988D01*
X92671652Y-106725376D01*
X92790033Y-106748295D01*
X92932704Y-106775389D01*
X93092692Y-106805296D01*
X93177015Y-106821153D01*
X93331783Y-106851407D01*
X93467104Y-106879347D01*
X93575582Y-106903369D01*
X93649820Y-106921868D01*
X93682422Y-106933238D01*
X93688278Y-106944511D01*
X93697992Y-106999586D01*
X93705624Y-107091317D01*
X93711180Y-107211073D01*
X93714666Y-107350221D01*
X93716087Y-107500131D01*
X93715450Y-107652172D01*
X93712760Y-107797712D01*
X93708024Y-107928121D01*
X93701247Y-108034766D01*
X93692436Y-108109018D01*
X93681595Y-108142245D01*
X93675017Y-108145993D01*
X93625955Y-108162069D01*
X93540847Y-108183338D01*
X93429529Y-108207472D01*
X93301840Y-108232143D01*
X93258757Y-108240000D01*
X93059773Y-108276542D01*
X92903388Y-108305910D01*
X92784183Y-108329321D01*
X92696737Y-108347994D01*
X92635628Y-108363146D01*
X92595435Y-108375995D01*
X92570738Y-108387758D01*
X92556116Y-108399653D01*
X92554416Y-108401649D01*
X92530504Y-108443271D01*
X92495119Y-108519430D01*
X92451692Y-108621193D01*
X92403651Y-108739624D01*
X92354425Y-108865789D01*
X92307445Y-108990754D01*
X92266140Y-109105584D01*
X92233939Y-109201344D01*
X92214271Y-109269100D01*
X92210565Y-109299917D01*
X92213043Y-109303915D01*
X92238689Y-109342584D01*
X92286920Y-109413907D01*
X92353262Y-109511314D01*
X92433245Y-109628234D01*
X92522397Y-109758098D01*
X92546865Y-109793828D01*
X92632903Y-109921990D01*
X92707258Y-110036608D01*
X92765688Y-110130887D01*
X92803947Y-110198029D01*
X92817792Y-110231235D01*
X92814809Y-110239965D01*
X92783711Y-110282982D01*
X92722355Y-110353230D01*
X92635137Y-110445979D01*
X92526449Y-110556502D01*
X92400685Y-110680071D01*
X92328800Y-110749235D01*
X92215139Y-110856957D01*
X92115657Y-110949225D01*
X92035695Y-111021181D01*
X91980595Y-111067968D01*
X91955698Y-111084727D01*
X91938593Y-111078515D01*
X91885929Y-111049126D01*
X91809449Y-111001063D01*
X91719129Y-110940412D01*
X91654911Y-110896153D01*
X91526705Y-110808261D01*
X91389894Y-110714915D01*
X91264932Y-110630091D01*
X91020137Y-110464515D01*
X90814649Y-110575620D01*
X90766263Y-110601265D01*
X90678270Y-110645130D01*
X90610223Y-110675414D01*
X90573856Y-110686706D01*
X90561954Y-110672205D01*
X90532400Y-110616992D01*
X90488748Y-110525962D01*
X90433426Y-110404892D01*
X90368863Y-110259559D01*
X90297489Y-110095741D01*
X90221732Y-109919213D01*
X90144022Y-109735753D01*
X90066786Y-109551138D01*
X89992456Y-109371146D01*
X89923458Y-109201552D01*
X89862223Y-109048135D01*
X89811179Y-108916670D01*
X89772755Y-108812936D01*
X89749380Y-108742709D01*
X89743483Y-108711766D01*
X89743883Y-108710862D01*
X89771349Y-108682257D01*
X89828799Y-108637457D01*
X89904373Y-108585751D01*
X89928227Y-108569962D01*
X90109734Y-108420174D01*
X90259953Y-108241767D01*
X90375327Y-108042165D01*
X90452299Y-107828797D01*
X90487314Y-107609087D01*
X90476813Y-107390462D01*
X90434277Y-107196011D01*
X90357903Y-106999657D01*
X90246565Y-106824484D01*
X90093774Y-106658082D01*
X90033739Y-106604924D01*
X89839658Y-106473951D01*
X89629999Y-106385744D01*
X89410837Y-106339512D01*
X89188247Y-106334467D01*
X88968307Y-106369820D01*
X88757090Y-106444779D01*
X88560673Y-106558557D01*
X88385132Y-106710363D01*
X88236542Y-106899409D01*
X88207974Y-106946224D01*
X88110873Y-107160204D01*
X88059303Y-107383026D01*
X88051914Y-107608922D01*
X88087355Y-107832119D01*
X88164276Y-108046847D01*
X88281326Y-108247336D01*
X88437155Y-108427814D01*
X88630413Y-108582510D01*
X88636689Y-108586679D01*
X88711461Y-108639370D01*
X88767504Y-108684169D01*
X88793100Y-108711766D01*
X88789870Y-108733402D01*
X88769790Y-108796399D01*
X88734184Y-108894038D01*
X88685480Y-109020542D01*
X88626108Y-109170132D01*
X88558494Y-109337030D01*
X88485066Y-109515457D01*
X88408254Y-109699636D01*
X88330484Y-109883787D01*
X88254185Y-110062133D01*
X88181784Y-110228895D01*
X88115710Y-110378294D01*
X88058391Y-110504554D01*
X88012255Y-110601894D01*
X87979730Y-110664538D01*
X87963243Y-110686706D01*
X87949533Y-110683703D01*
X87895670Y-110662126D01*
X87816064Y-110624293D01*
X87722449Y-110575620D01*
X87516962Y-110464515D01*
X87272167Y-110630091D01*
X87199845Y-110679120D01*
X87065326Y-110770729D01*
X86931215Y-110862485D01*
X86817970Y-110940412D01*
X86755470Y-110982881D01*
X86674239Y-111035644D01*
X86614009Y-111071765D01*
X86584591Y-111085157D01*
X86571953Y-111079471D01*
X86526267Y-111044645D01*
X86455838Y-110983329D01*
X86366796Y-110901554D01*
X86265272Y-110805351D01*
X86157394Y-110700751D01*
X86049295Y-110593786D01*
X85947103Y-110490485D01*
X85856950Y-110396882D01*
X85784964Y-110319006D01*
X85737278Y-110262889D01*
X85720020Y-110234562D01*
X85721015Y-110229172D01*
X85741555Y-110185304D01*
X85785434Y-110109407D01*
X85848412Y-110008336D01*
X85926247Y-109888948D01*
X86014701Y-109758098D01*
X86039509Y-109722005D01*
X86126618Y-109595000D01*
X86203347Y-109482718D01*
X86265224Y-109391730D01*
X86307777Y-109328606D01*
X86326534Y-109299917D01*
X86326995Y-109298687D01*
X86321459Y-109263588D01*
X86300320Y-109192484D01*
X86267005Y-109094310D01*
X86224945Y-108978002D01*
X86177570Y-108852493D01*
X86128308Y-108726718D01*
X86080589Y-108609612D01*
X86037842Y-108510110D01*
X86003497Y-108437145D01*
X85980983Y-108399653D01*
X85978728Y-108397325D01*
X85962608Y-108385549D01*
X85935383Y-108373673D01*
X85891633Y-108360481D01*
X85825935Y-108344754D01*
X85732870Y-108325274D01*
X85607016Y-108300824D01*
X85442953Y-108270186D01*
X85235259Y-108232143D01*
X85192181Y-108224136D01*
X85068777Y-108199384D01*
X84964972Y-108175933D01*
X84890601Y-108156110D01*
X84855504Y-108142245D01*
X84849632Y-108130677D01*
X84839842Y-108075110D01*
X84832085Y-107982990D01*
X84826365Y-107862951D01*
X84822689Y-107723622D01*
X84821062Y-107573635D01*
X84821491Y-107421621D01*
X84823982Y-107276212D01*
X84828540Y-107146037D01*
X84835171Y-107039730D01*
X84843881Y-106965919D01*
X84854677Y-106933238D01*
X84865699Y-106928410D01*
X84920531Y-106913191D01*
X85013213Y-106891666D01*
X85136351Y-106865439D01*
X85282548Y-106836114D01*
X85444406Y-106805296D01*
X85532784Y-106788831D01*
X85684259Y-106760279D01*
X85814640Y-106735277D01*
X85916954Y-106715185D01*
X85984228Y-106701362D01*
X86009489Y-106695165D01*
X86010438Y-106693888D01*
X86026526Y-106661437D01*
X86057194Y-106593452D01*
X86098611Y-106498954D01*
X86146941Y-106386964D01*
X86198354Y-106266500D01*
X86249014Y-106146584D01*
X86295089Y-106036235D01*
X86332746Y-105944473D01*
X86358151Y-105880319D01*
X86367471Y-105852792D01*
X86363360Y-105843106D01*
X86336000Y-105797018D01*
X86286370Y-105719440D01*
X86218460Y-105616461D01*
X86136255Y-105494167D01*
X86043746Y-105358646D01*
X85992991Y-105284429D01*
X85905403Y-105154309D01*
X85830306Y-105040112D01*
X85771707Y-104948066D01*
X85733609Y-104884398D01*
X85720020Y-104855337D01*
X85729462Y-104839573D01*
X85768960Y-104792471D01*
X85833758Y-104721186D01*
X85917909Y-104631760D01*
X86015464Y-104530232D01*
X86120474Y-104422643D01*
X86226993Y-104315034D01*
X86329071Y-104213445D01*
X86420760Y-104123917D01*
X86496112Y-104052489D01*
X86549180Y-104005203D01*
X86574014Y-103988098D01*
X86587799Y-103994749D01*
X86638418Y-104025592D01*
X86720105Y-104078083D01*
X86826972Y-104148375D01*
X86953132Y-104232622D01*
X87092698Y-104326978D01*
X87591056Y-104665857D01*
X88006469Y-104494610D01*
X88421883Y-104323363D01*
X88534465Y-103726172D01*
X88647048Y-103128980D01*
X89890051Y-103128980D01*
X90002634Y-103726172D01*
G37*
X90002634Y-103726172D02*
X90115216Y-104323363D01*
X90530629Y-104494610D01*
X90946043Y-104665857D01*
X91444400Y-104326978D01*
X91543036Y-104260170D01*
X91673797Y-104172479D01*
X91787008Y-104097580D01*
X91876789Y-104039320D01*
X91937261Y-104001545D01*
X91962544Y-103988098D01*
X91978072Y-103997661D01*
X92024487Y-104037730D01*
X92094730Y-104103487D01*
X92182848Y-104188895D01*
X92282889Y-104287915D01*
X92388902Y-104394509D01*
X92494935Y-104502640D01*
X92595035Y-104606268D01*
X92683251Y-104699358D01*
X92753632Y-104775869D01*
X92800225Y-104829765D01*
X92817079Y-104855007D01*
X92813158Y-104865852D01*
X92786012Y-104914228D01*
X92736439Y-104993842D01*
X92668459Y-105098454D01*
X92586091Y-105221822D01*
X92493353Y-105357706D01*
X92442460Y-105431815D01*
X92354912Y-105560835D01*
X92279853Y-105673434D01*
X92221285Y-105763505D01*
X92183209Y-105824942D01*
X92169628Y-105851640D01*
X92169851Y-105853119D01*
X92181831Y-105886962D01*
X92209316Y-105956071D01*
X92248474Y-106051416D01*
X92295474Y-106163972D01*
X92346485Y-106284710D01*
X92397676Y-106404602D01*
X92445215Y-106514622D01*
X92485271Y-106605740D01*
X92514013Y-106668931D01*
X92527610Y-106695165D01*
X92535655Y-106697492D01*
X92584535Y-106707988D01*
X92671652Y-106725376D01*
X92790033Y-106748295D01*
X92932704Y-106775389D01*
X93092692Y-106805296D01*
X93177015Y-106821153D01*
X93331783Y-106851407D01*
X93467104Y-106879347D01*
X93575582Y-106903369D01*
X93649820Y-106921868D01*
X93682422Y-106933238D01*
X93688278Y-106944511D01*
X93697992Y-106999586D01*
X93705624Y-107091317D01*
X93711180Y-107211073D01*
X93714666Y-107350221D01*
X93716087Y-107500131D01*
X93715450Y-107652172D01*
X93712760Y-107797712D01*
X93708024Y-107928121D01*
X93701247Y-108034766D01*
X93692436Y-108109018D01*
X93681595Y-108142245D01*
X93675017Y-108145993D01*
X93625955Y-108162069D01*
X93540847Y-108183338D01*
X93429529Y-108207472D01*
X93301840Y-108232143D01*
X93258757Y-108240000D01*
X93059773Y-108276542D01*
X92903388Y-108305910D01*
X92784183Y-108329321D01*
X92696737Y-108347994D01*
X92635628Y-108363146D01*
X92595435Y-108375995D01*
X92570738Y-108387758D01*
X92556116Y-108399653D01*
X92554416Y-108401649D01*
X92530504Y-108443271D01*
X92495119Y-108519430D01*
X92451692Y-108621193D01*
X92403651Y-108739624D01*
X92354425Y-108865789D01*
X92307445Y-108990754D01*
X92266140Y-109105584D01*
X92233939Y-109201344D01*
X92214271Y-109269100D01*
X92210565Y-109299917D01*
X92213043Y-109303915D01*
X92238689Y-109342584D01*
X92286920Y-109413907D01*
X92353262Y-109511314D01*
X92433245Y-109628234D01*
X92522397Y-109758098D01*
X92546865Y-109793828D01*
X92632903Y-109921990D01*
X92707258Y-110036608D01*
X92765688Y-110130887D01*
X92803947Y-110198029D01*
X92817792Y-110231235D01*
X92814809Y-110239965D01*
X92783711Y-110282982D01*
X92722355Y-110353230D01*
X92635137Y-110445979D01*
X92526449Y-110556502D01*
X92400685Y-110680071D01*
X92328800Y-110749235D01*
X92215139Y-110856957D01*
X92115657Y-110949225D01*
X92035695Y-111021181D01*
X91980595Y-111067968D01*
X91955698Y-111084727D01*
X91938593Y-111078515D01*
X91885929Y-111049126D01*
X91809449Y-111001063D01*
X91719129Y-110940412D01*
X91654911Y-110896153D01*
X91526705Y-110808261D01*
X91389894Y-110714915D01*
X91264932Y-110630091D01*
X91020137Y-110464515D01*
X90814649Y-110575620D01*
X90766263Y-110601265D01*
X90678270Y-110645130D01*
X90610223Y-110675414D01*
X90573856Y-110686706D01*
X90561954Y-110672205D01*
X90532400Y-110616992D01*
X90488748Y-110525962D01*
X90433426Y-110404892D01*
X90368863Y-110259559D01*
X90297489Y-110095741D01*
X90221732Y-109919213D01*
X90144022Y-109735753D01*
X90066786Y-109551138D01*
X89992456Y-109371146D01*
X89923458Y-109201552D01*
X89862223Y-109048135D01*
X89811179Y-108916670D01*
X89772755Y-108812936D01*
X89749380Y-108742709D01*
X89743483Y-108711766D01*
X89743883Y-108710862D01*
X89771349Y-108682257D01*
X89828799Y-108637457D01*
X89904373Y-108585751D01*
X89928227Y-108569962D01*
X90109734Y-108420174D01*
X90259953Y-108241767D01*
X90375327Y-108042165D01*
X90452299Y-107828797D01*
X90487314Y-107609087D01*
X90476813Y-107390462D01*
X90434277Y-107196011D01*
X90357903Y-106999657D01*
X90246565Y-106824484D01*
X90093774Y-106658082D01*
X90033739Y-106604924D01*
X89839658Y-106473951D01*
X89629999Y-106385744D01*
X89410837Y-106339512D01*
X89188247Y-106334467D01*
X88968307Y-106369820D01*
X88757090Y-106444779D01*
X88560673Y-106558557D01*
X88385132Y-106710363D01*
X88236542Y-106899409D01*
X88207974Y-106946224D01*
X88110873Y-107160204D01*
X88059303Y-107383026D01*
X88051914Y-107608922D01*
X88087355Y-107832119D01*
X88164276Y-108046847D01*
X88281326Y-108247336D01*
X88437155Y-108427814D01*
X88630413Y-108582510D01*
X88636689Y-108586679D01*
X88711461Y-108639370D01*
X88767504Y-108684169D01*
X88793100Y-108711766D01*
X88789870Y-108733402D01*
X88769790Y-108796399D01*
X88734184Y-108894038D01*
X88685480Y-109020542D01*
X88626108Y-109170132D01*
X88558494Y-109337030D01*
X88485066Y-109515457D01*
X88408254Y-109699636D01*
X88330484Y-109883787D01*
X88254185Y-110062133D01*
X88181784Y-110228895D01*
X88115710Y-110378294D01*
X88058391Y-110504554D01*
X88012255Y-110601894D01*
X87979730Y-110664538D01*
X87963243Y-110686706D01*
X87949533Y-110683703D01*
X87895670Y-110662126D01*
X87816064Y-110624293D01*
X87722449Y-110575620D01*
X87516962Y-110464515D01*
X87272167Y-110630091D01*
X87199845Y-110679120D01*
X87065326Y-110770729D01*
X86931215Y-110862485D01*
X86817970Y-110940412D01*
X86755470Y-110982881D01*
X86674239Y-111035644D01*
X86614009Y-111071765D01*
X86584591Y-111085157D01*
X86571953Y-111079471D01*
X86526267Y-111044645D01*
X86455838Y-110983329D01*
X86366796Y-110901554D01*
X86265272Y-110805351D01*
X86157394Y-110700751D01*
X86049295Y-110593786D01*
X85947103Y-110490485D01*
X85856950Y-110396882D01*
X85784964Y-110319006D01*
X85737278Y-110262889D01*
X85720020Y-110234562D01*
X85721015Y-110229172D01*
X85741555Y-110185304D01*
X85785434Y-110109407D01*
X85848412Y-110008336D01*
X85926247Y-109888948D01*
X86014701Y-109758098D01*
X86039509Y-109722005D01*
X86126618Y-109595000D01*
X86203347Y-109482718D01*
X86265224Y-109391730D01*
X86307777Y-109328606D01*
X86326534Y-109299917D01*
X86326995Y-109298687D01*
X86321459Y-109263588D01*
X86300320Y-109192484D01*
X86267005Y-109094310D01*
X86224945Y-108978002D01*
X86177570Y-108852493D01*
X86128308Y-108726718D01*
X86080589Y-108609612D01*
X86037842Y-108510110D01*
X86003497Y-108437145D01*
X85980983Y-108399653D01*
X85978728Y-108397325D01*
X85962608Y-108385549D01*
X85935383Y-108373673D01*
X85891633Y-108360481D01*
X85825935Y-108344754D01*
X85732870Y-108325274D01*
X85607016Y-108300824D01*
X85442953Y-108270186D01*
X85235259Y-108232143D01*
X85192181Y-108224136D01*
X85068777Y-108199384D01*
X84964972Y-108175933D01*
X84890601Y-108156110D01*
X84855504Y-108142245D01*
X84849632Y-108130677D01*
X84839842Y-108075110D01*
X84832085Y-107982990D01*
X84826365Y-107862951D01*
X84822689Y-107723622D01*
X84821062Y-107573635D01*
X84821491Y-107421621D01*
X84823982Y-107276212D01*
X84828540Y-107146037D01*
X84835171Y-107039730D01*
X84843881Y-106965919D01*
X84854677Y-106933238D01*
X84865699Y-106928410D01*
X84920531Y-106913191D01*
X85013213Y-106891666D01*
X85136351Y-106865439D01*
X85282548Y-106836114D01*
X85444406Y-106805296D01*
X85532784Y-106788831D01*
X85684259Y-106760279D01*
X85814640Y-106735277D01*
X85916954Y-106715185D01*
X85984228Y-106701362D01*
X86009489Y-106695165D01*
X86010438Y-106693888D01*
X86026526Y-106661437D01*
X86057194Y-106593452D01*
X86098611Y-106498954D01*
X86146941Y-106386964D01*
X86198354Y-106266500D01*
X86249014Y-106146584D01*
X86295089Y-106036235D01*
X86332746Y-105944473D01*
X86358151Y-105880319D01*
X86367471Y-105852792D01*
X86363360Y-105843106D01*
X86336000Y-105797018D01*
X86286370Y-105719440D01*
X86218460Y-105616461D01*
X86136255Y-105494167D01*
X86043746Y-105358646D01*
X85992991Y-105284429D01*
X85905403Y-105154309D01*
X85830306Y-105040112D01*
X85771707Y-104948066D01*
X85733609Y-104884398D01*
X85720020Y-104855337D01*
X85729462Y-104839573D01*
X85768960Y-104792471D01*
X85833758Y-104721186D01*
X85917909Y-104631760D01*
X86015464Y-104530232D01*
X86120474Y-104422643D01*
X86226993Y-104315034D01*
X86329071Y-104213445D01*
X86420760Y-104123917D01*
X86496112Y-104052489D01*
X86549180Y-104005203D01*
X86574014Y-103988098D01*
X86587799Y-103994749D01*
X86638418Y-104025592D01*
X86720105Y-104078083D01*
X86826972Y-104148375D01*
X86953132Y-104232622D01*
X87092698Y-104326978D01*
X87591056Y-104665857D01*
X88006469Y-104494610D01*
X88421883Y-104323363D01*
X88534465Y-103726172D01*
X88647048Y-103128980D01*
X89890051Y-103128980D01*
X90002634Y-103726172D01*
G36*
X92661841Y-114740844D02*
G01*
X92631497Y-114868772D01*
X92564002Y-114964986D01*
X92456000Y-115034318D01*
X92400189Y-115051186D01*
X92304593Y-115064333D01*
X92200055Y-115067472D01*
X92105738Y-115060237D01*
X92040808Y-115042262D01*
X92001370Y-115027864D01*
X91962758Y-115042262D01*
X91948634Y-115050604D01*
X91892261Y-115064131D01*
X91816020Y-115069471D01*
X91696491Y-115069471D01*
X91696491Y-114642278D01*
X91970412Y-114642278D01*
X91979619Y-114715143D01*
X92015951Y-114779239D01*
X92036744Y-114793110D01*
X92110958Y-114814731D01*
X92203610Y-114820129D01*
X92294468Y-114809162D01*
X92363303Y-114781686D01*
X92397595Y-114745358D01*
X92418647Y-114680808D01*
X92399977Y-114629639D01*
X92338259Y-114585148D01*
X92239047Y-114556605D01*
X92108173Y-114546530D01*
X91970412Y-114546530D01*
X91970412Y-114642278D01*
X91696491Y-114642278D01*
X91696491Y-114587565D01*
X91696500Y-114545890D01*
X91696954Y-114388810D01*
X91698658Y-114272029D01*
X91702385Y-114187788D01*
X91708911Y-114128329D01*
X91719008Y-114085891D01*
X91733452Y-114052716D01*
X91753016Y-114021045D01*
X91815949Y-113946837D01*
X91905130Y-113890180D01*
X92022280Y-113858922D01*
X92176653Y-113849313D01*
X92181671Y-113849323D01*
X92288980Y-113854170D01*
X92385028Y-113866252D01*
X92450575Y-113883191D01*
X92468545Y-113891679D01*
X92525740Y-113927627D01*
X92577499Y-113970352D01*
X92611553Y-114008800D01*
X92615635Y-114031916D01*
X92607669Y-114038164D01*
X92520875Y-114104855D01*
X92462839Y-114144188D01*
X92424465Y-114160057D01*
X92396659Y-114156359D01*
X92370327Y-114136990D01*
X92321730Y-114112809D01*
X92239833Y-114096687D01*
X92147273Y-114092505D01*
X92063519Y-114101015D01*
X92008035Y-114122972D01*
X92005116Y-114125644D01*
X91980183Y-114175836D01*
X91970412Y-114250755D01*
X91970412Y-114347314D01*
X92200755Y-114347407D01*
X92306565Y-114349082D01*
X92395632Y-114356368D01*
X92459345Y-114371357D01*
X92510821Y-114396110D01*
X92522800Y-114403712D01*
X92609466Y-114487282D01*
X92655564Y-114597790D01*
X92659460Y-114680808D01*
X92662123Y-114737559D01*
X92661841Y-114740844D01*
G37*
X92661841Y-114740844D02*
X92631497Y-114868772D01*
X92564002Y-114964986D01*
X92456000Y-115034318D01*
X92400189Y-115051186D01*
X92304593Y-115064333D01*
X92200055Y-115067472D01*
X92105738Y-115060237D01*
X92040808Y-115042262D01*
X92001370Y-115027864D01*
X91962758Y-115042262D01*
X91948634Y-115050604D01*
X91892261Y-115064131D01*
X91816020Y-115069471D01*
X91696491Y-115069471D01*
X91696491Y-114642278D01*
X91970412Y-114642278D01*
X91979619Y-114715143D01*
X92015951Y-114779239D01*
X92036744Y-114793110D01*
X92110958Y-114814731D01*
X92203610Y-114820129D01*
X92294468Y-114809162D01*
X92363303Y-114781686D01*
X92397595Y-114745358D01*
X92418647Y-114680808D01*
X92399977Y-114629639D01*
X92338259Y-114585148D01*
X92239047Y-114556605D01*
X92108173Y-114546530D01*
X91970412Y-114546530D01*
X91970412Y-114642278D01*
X91696491Y-114642278D01*
X91696491Y-114587565D01*
X91696500Y-114545890D01*
X91696954Y-114388810D01*
X91698658Y-114272029D01*
X91702385Y-114187788D01*
X91708911Y-114128329D01*
X91719008Y-114085891D01*
X91733452Y-114052716D01*
X91753016Y-114021045D01*
X91815949Y-113946837D01*
X91905130Y-113890180D01*
X92022280Y-113858922D01*
X92176653Y-113849313D01*
X92181671Y-113849323D01*
X92288980Y-113854170D01*
X92385028Y-113866252D01*
X92450575Y-113883191D01*
X92468545Y-113891679D01*
X92525740Y-113927627D01*
X92577499Y-113970352D01*
X92611553Y-114008800D01*
X92615635Y-114031916D01*
X92607669Y-114038164D01*
X92520875Y-114104855D01*
X92462839Y-114144188D01*
X92424465Y-114160057D01*
X92396659Y-114156359D01*
X92370327Y-114136990D01*
X92321730Y-114112809D01*
X92239833Y-114096687D01*
X92147273Y-114092505D01*
X92063519Y-114101015D01*
X92008035Y-114122972D01*
X92005116Y-114125644D01*
X91980183Y-114175836D01*
X91970412Y-114250755D01*
X91970412Y-114347314D01*
X92200755Y-114347407D01*
X92306565Y-114349082D01*
X92395632Y-114356368D01*
X92459345Y-114371357D01*
X92510821Y-114396110D01*
X92522800Y-114403712D01*
X92609466Y-114487282D01*
X92655564Y-114597790D01*
X92659460Y-114680808D01*
X92662123Y-114737559D01*
X92661841Y-114740844D01*
G36*
X85188341Y-111987329D02*
G01*
X85324218Y-112040267D01*
X85439135Y-112127655D01*
X85524013Y-112247680D01*
X85529745Y-112259918D01*
X85566135Y-112379281D01*
X85584316Y-112521864D01*
X85584173Y-112670318D01*
X85565590Y-112807297D01*
X85528452Y-112915451D01*
X85482599Y-112990831D01*
X85381669Y-113097620D01*
X85255469Y-113165500D01*
X85147497Y-113192950D01*
X84983088Y-113195947D01*
X84825764Y-113154549D01*
X84686251Y-113070546D01*
X84595954Y-112996116D01*
X84677284Y-112912205D01*
X84728665Y-112862496D01*
X84775141Y-112834820D01*
X84818235Y-112840914D01*
X84873353Y-112878098D01*
X84895331Y-112892655D01*
X84988178Y-112922449D01*
X85094895Y-112922431D01*
X85194808Y-112891723D01*
X85232429Y-112867064D01*
X85287613Y-112794245D01*
X85315278Y-112687290D01*
X85317058Y-112541517D01*
X85317053Y-112541435D01*
X85296470Y-112411014D01*
X85251128Y-112320587D01*
X85176518Y-112264652D01*
X85068128Y-112237704D01*
X84999871Y-112234079D01*
X84940231Y-112248921D01*
X84879065Y-112291918D01*
X84799912Y-112358520D01*
X84699672Y-112277965D01*
X84663050Y-112247105D01*
X84617307Y-112202889D01*
X84599432Y-112176832D01*
X84605762Y-112165089D01*
X84642221Y-112129036D01*
X84700301Y-112083185D01*
X84745744Y-112053348D01*
X84890024Y-111992056D01*
X85040583Y-111970654D01*
X85188341Y-111987329D01*
G37*
X85188341Y-111987329D02*
X85324218Y-112040267D01*
X85439135Y-112127655D01*
X85524013Y-112247680D01*
X85529745Y-112259918D01*
X85566135Y-112379281D01*
X85584316Y-112521864D01*
X85584173Y-112670318D01*
X85565590Y-112807297D01*
X85528452Y-112915451D01*
X85482599Y-112990831D01*
X85381669Y-113097620D01*
X85255469Y-113165500D01*
X85147497Y-113192950D01*
X84983088Y-113195947D01*
X84825764Y-113154549D01*
X84686251Y-113070546D01*
X84595954Y-112996116D01*
X84677284Y-112912205D01*
X84728665Y-112862496D01*
X84775141Y-112834820D01*
X84818235Y-112840914D01*
X84873353Y-112878098D01*
X84895331Y-112892655D01*
X84988178Y-112922449D01*
X85094895Y-112922431D01*
X85194808Y-112891723D01*
X85232429Y-112867064D01*
X85287613Y-112794245D01*
X85315278Y-112687290D01*
X85317058Y-112541517D01*
X85317053Y-112541435D01*
X85296470Y-112411014D01*
X85251128Y-112320587D01*
X85176518Y-112264652D01*
X85068128Y-112237704D01*
X84999871Y-112234079D01*
X84940231Y-112248921D01*
X84879065Y-112291918D01*
X84799912Y-112358520D01*
X84699672Y-112277965D01*
X84663050Y-112247105D01*
X84617307Y-112202889D01*
X84599432Y-112176832D01*
X84605762Y-112165089D01*
X84642221Y-112129036D01*
X84700301Y-112083185D01*
X84745744Y-112053348D01*
X84890024Y-111992056D01*
X85040583Y-111970654D01*
X85188341Y-111987329D01*
G36*
X94951603Y-112725653D02*
G01*
X94944305Y-112820754D01*
X94931873Y-112888160D01*
X94911343Y-112941570D01*
X94879751Y-112994685D01*
X94878406Y-112996699D01*
X94800616Y-113082755D01*
X94705438Y-113148391D01*
X94594760Y-113187339D01*
X94449163Y-113199985D01*
X94306463Y-113175119D01*
X94178909Y-113115198D01*
X94078753Y-113022681D01*
X94049999Y-112978967D01*
X93996301Y-112843073D01*
X93969670Y-112675408D01*
X93970125Y-112632997D01*
X94237763Y-112632997D01*
X94238267Y-112712314D01*
X94246677Y-112765267D01*
X94265838Y-112805956D01*
X94298598Y-112848479D01*
X94344058Y-112890676D01*
X94434980Y-112928333D01*
X94532608Y-112921338D01*
X94625914Y-112869002D01*
X94652234Y-112844006D01*
X94680336Y-112801214D01*
X94695920Y-112741068D01*
X94704753Y-112647348D01*
X94707186Y-112576944D01*
X94693856Y-112433168D01*
X94652947Y-112330231D01*
X94584281Y-112267567D01*
X94503789Y-112237560D01*
X94407794Y-112240086D01*
X94318811Y-112290746D01*
X94297538Y-112310031D01*
X94270693Y-112343774D01*
X94254766Y-112387920D01*
X94245929Y-112455601D01*
X94240355Y-112559950D01*
X94237763Y-112632997D01*
X93970125Y-112632997D01*
X93971724Y-112484126D01*
X93974345Y-112456996D01*
X94010918Y-112283229D01*
X94078581Y-112148334D01*
X94177478Y-112052163D01*
X94307753Y-111994568D01*
X94469550Y-111975402D01*
X94530679Y-111977201D01*
X94656039Y-111999211D01*
X94758546Y-112051746D01*
X94854115Y-112141686D01*
X94869400Y-112159737D01*
X94910624Y-112220530D01*
X94937717Y-112289367D01*
X94952740Y-112376600D01*
X94957754Y-112492582D01*
X94956156Y-112576944D01*
X94954818Y-112647666D01*
X94951603Y-112725653D01*
G37*
X94951603Y-112725653D02*
X94944305Y-112820754D01*
X94931873Y-112888160D01*
X94911343Y-112941570D01*
X94879751Y-112994685D01*
X94878406Y-112996699D01*
X94800616Y-113082755D01*
X94705438Y-113148391D01*
X94594760Y-113187339D01*
X94449163Y-113199985D01*
X94306463Y-113175119D01*
X94178909Y-113115198D01*
X94078753Y-113022681D01*
X94049999Y-112978967D01*
X93996301Y-112843073D01*
X93969670Y-112675408D01*
X93970125Y-112632997D01*
X94237763Y-112632997D01*
X94238267Y-112712314D01*
X94246677Y-112765267D01*
X94265838Y-112805956D01*
X94298598Y-112848479D01*
X94344058Y-112890676D01*
X94434980Y-112928333D01*
X94532608Y-112921338D01*
X94625914Y-112869002D01*
X94652234Y-112844006D01*
X94680336Y-112801214D01*
X94695920Y-112741068D01*
X94704753Y-112647348D01*
X94707186Y-112576944D01*
X94693856Y-112433168D01*
X94652947Y-112330231D01*
X94584281Y-112267567D01*
X94503789Y-112237560D01*
X94407794Y-112240086D01*
X94318811Y-112290746D01*
X94297538Y-112310031D01*
X94270693Y-112343774D01*
X94254766Y-112387920D01*
X94245929Y-112455601D01*
X94240355Y-112559950D01*
X94237763Y-112632997D01*
X93970125Y-112632997D01*
X93971724Y-112484126D01*
X93974345Y-112456996D01*
X94010918Y-112283229D01*
X94078581Y-112148334D01*
X94177478Y-112052163D01*
X94307753Y-111994568D01*
X94469550Y-111975402D01*
X94530679Y-111977201D01*
X94656039Y-111999211D01*
X94758546Y-112051746D01*
X94854115Y-112141686D01*
X94869400Y-112159737D01*
X94910624Y-112220530D01*
X94937717Y-112289367D01*
X94952740Y-112376600D01*
X94957754Y-112492582D01*
X94956156Y-112576944D01*
X94954818Y-112647666D01*
X94951603Y-112725653D01*
G36*
X85840502Y-114552330D02*
G01*
X85811010Y-114730105D01*
X85750329Y-114869892D01*
X85657922Y-114972689D01*
X85533255Y-115039496D01*
X85492976Y-115051300D01*
X85349153Y-115067786D01*
X85197289Y-115053873D01*
X85060118Y-115010935D01*
X85011794Y-114986565D01*
X84942507Y-114944819D01*
X84900517Y-114910468D01*
X84894317Y-114902620D01*
X84882719Y-114873917D01*
X84899430Y-114842714D01*
X84950321Y-114795459D01*
X84974880Y-114774887D01*
X85023260Y-114737242D01*
X85048627Y-114721855D01*
X85055894Y-114723440D01*
X85097544Y-114740574D01*
X85159726Y-114770647D01*
X85180000Y-114780540D01*
X85299600Y-114817275D01*
X85403506Y-114807805D01*
X85494621Y-114751971D01*
X85505222Y-114741654D01*
X85555909Y-114677031D01*
X85584870Y-114615010D01*
X85600909Y-114546530D01*
X84848451Y-114546530D01*
X84848590Y-114415794D01*
X84848670Y-114402792D01*
X84858829Y-114297903D01*
X85122373Y-114297903D01*
X85125485Y-114319657D01*
X85141462Y-114334649D01*
X85179543Y-114342970D01*
X85248960Y-114346549D01*
X85358942Y-114347314D01*
X85420086Y-114346521D01*
X85510338Y-114341888D01*
X85572416Y-114334038D01*
X85595510Y-114324033D01*
X85575814Y-114241677D01*
X85518151Y-114164811D01*
X85434984Y-114111484D01*
X85338911Y-114093038D01*
X85268178Y-114113832D01*
X85197471Y-114164664D01*
X85143722Y-114230892D01*
X85122373Y-114297903D01*
X84858829Y-114297903D01*
X84864248Y-114241950D01*
X84909592Y-114111106D01*
X84988712Y-113998313D01*
X85036979Y-113950600D01*
X85136663Y-113886731D01*
X85255693Y-113855784D01*
X85406043Y-113853607D01*
X85478668Y-113862139D01*
X85612727Y-113906440D01*
X85715365Y-113987069D01*
X85787480Y-114105271D01*
X85829972Y-114262291D01*
X85834286Y-114324033D01*
X85843740Y-114459373D01*
X85840502Y-114552330D01*
G37*
X85840502Y-114552330D02*
X85811010Y-114730105D01*
X85750329Y-114869892D01*
X85657922Y-114972689D01*
X85533255Y-115039496D01*
X85492976Y-115051300D01*
X85349153Y-115067786D01*
X85197289Y-115053873D01*
X85060118Y-115010935D01*
X85011794Y-114986565D01*
X84942507Y-114944819D01*
X84900517Y-114910468D01*
X84894317Y-114902620D01*
X84882719Y-114873917D01*
X84899430Y-114842714D01*
X84950321Y-114795459D01*
X84974880Y-114774887D01*
X85023260Y-114737242D01*
X85048627Y-114721855D01*
X85055894Y-114723440D01*
X85097544Y-114740574D01*
X85159726Y-114770647D01*
X85180000Y-114780540D01*
X85299600Y-114817275D01*
X85403506Y-114807805D01*
X85494621Y-114751971D01*
X85505222Y-114741654D01*
X85555909Y-114677031D01*
X85584870Y-114615010D01*
X85600909Y-114546530D01*
X84848451Y-114546530D01*
X84848590Y-114415794D01*
X84848670Y-114402792D01*
X84858829Y-114297903D01*
X85122373Y-114297903D01*
X85125485Y-114319657D01*
X85141462Y-114334649D01*
X85179543Y-114342970D01*
X85248960Y-114346549D01*
X85358942Y-114347314D01*
X85420086Y-114346521D01*
X85510338Y-114341888D01*
X85572416Y-114334038D01*
X85595510Y-114324033D01*
X85575814Y-114241677D01*
X85518151Y-114164811D01*
X85434984Y-114111484D01*
X85338911Y-114093038D01*
X85268178Y-114113832D01*
X85197471Y-114164664D01*
X85143722Y-114230892D01*
X85122373Y-114297903D01*
X84858829Y-114297903D01*
X84864248Y-114241950D01*
X84909592Y-114111106D01*
X84988712Y-113998313D01*
X85036979Y-113950600D01*
X85136663Y-113886731D01*
X85255693Y-113855784D01*
X85406043Y-113853607D01*
X85478668Y-113862139D01*
X85612727Y-113906440D01*
X85715365Y-113987069D01*
X85787480Y-114105271D01*
X85829972Y-114262291D01*
X85834286Y-114324033D01*
X85843740Y-114459373D01*
X85840502Y-114552330D01*
%TD*%
%LPC*%
%TO.C,REF\u002A\u002A*%
G36*
X71760409Y-111258100D02*
G01*
X71794075Y-111269988D01*
X71846049Y-111289091D01*
X71914392Y-111314659D01*
X71997165Y-111345940D01*
X72092430Y-111382181D01*
X72198249Y-111422631D01*
X72312682Y-111466538D01*
X72433792Y-111513151D01*
X72559639Y-111561718D01*
X72688286Y-111611487D01*
X72817793Y-111661706D01*
X72946223Y-111711624D01*
X73071637Y-111760488D01*
X73192096Y-111807548D01*
X73305661Y-111852052D01*
X73410395Y-111893247D01*
X73504359Y-111930382D01*
X73585613Y-111962705D01*
X73652221Y-111989465D01*
X73702242Y-112009909D01*
X73733739Y-112023287D01*
X73744773Y-112028846D01*
X73743878Y-112030313D01*
X73728349Y-112042428D01*
X73695479Y-112064601D01*
X73647801Y-112095221D01*
X73587849Y-112132680D01*
X73518157Y-112175365D01*
X73441261Y-112221669D01*
X73416490Y-112236503D01*
X73341659Y-112281818D01*
X73274881Y-112322998D01*
X73218680Y-112358437D01*
X73175579Y-112386529D01*
X73148101Y-112405668D01*
X73138769Y-112414246D01*
X73143604Y-112424731D01*
X73159830Y-112454481D01*
X73186190Y-112500800D01*
X73221393Y-112561530D01*
X73264153Y-112634508D01*
X73313179Y-112717576D01*
X73367184Y-112808571D01*
X73424879Y-112905335D01*
X73484975Y-113005706D01*
X73546183Y-113107524D01*
X73607214Y-113208629D01*
X73666781Y-113306860D01*
X73723594Y-113400057D01*
X73776365Y-113486059D01*
X73823805Y-113562705D01*
X73849043Y-113603143D01*
X73932837Y-113735865D01*
X74016202Y-113865682D01*
X74097444Y-113990066D01*
X74174871Y-114106488D01*
X74246790Y-114212420D01*
X74311507Y-114305335D01*
X74367331Y-114382703D01*
X74412567Y-114441996D01*
X74520037Y-114569346D01*
X74637965Y-114690620D01*
X74753222Y-114788745D01*
X74866419Y-114864001D01*
X74978162Y-114916668D01*
X75089063Y-114947025D01*
X75199728Y-114955354D01*
X75310767Y-114941935D01*
X75422788Y-114907048D01*
X75500884Y-114870796D01*
X75596300Y-114812723D01*
X75690908Y-114739007D01*
X75786226Y-114648176D01*
X75883772Y-114538758D01*
X75985064Y-114409279D01*
X76091620Y-114258267D01*
X76115182Y-114222992D01*
X76162361Y-114150831D01*
X76220085Y-114061121D01*
X76287218Y-113955704D01*
X76362621Y-113836420D01*
X76445157Y-113705111D01*
X76533688Y-113563617D01*
X76627078Y-113413779D01*
X76724188Y-113257437D01*
X76823881Y-113096432D01*
X76925020Y-112932606D01*
X77026467Y-112767799D01*
X77127085Y-112603851D01*
X77225736Y-112442605D01*
X77321283Y-112285899D01*
X77412588Y-112135576D01*
X77498515Y-111993475D01*
X77577924Y-111861439D01*
X77649680Y-111741307D01*
X77712644Y-111634920D01*
X77754119Y-111564944D01*
X77793749Y-111499135D01*
X77828060Y-111443238D01*
X77855371Y-111399961D01*
X77873998Y-111372010D01*
X77882260Y-111362092D01*
X77890030Y-111365732D01*
X77916799Y-111380210D01*
X77960511Y-111404598D01*
X78019044Y-111437689D01*
X78090280Y-111478280D01*
X78172098Y-111525165D01*
X78262378Y-111577140D01*
X78359000Y-111633000D01*
X78369140Y-111638874D01*
X78478157Y-111702100D01*
X78568259Y-111754583D01*
X78641174Y-111797453D01*
X78698627Y-111831839D01*
X78742345Y-111858870D01*
X78774054Y-111879674D01*
X78795480Y-111895381D01*
X78808351Y-111907120D01*
X78814391Y-111916018D01*
X78815328Y-111923207D01*
X78812888Y-111929813D01*
X78798510Y-111956204D01*
X78772172Y-112003491D01*
X78736425Y-112067038D01*
X78692638Y-112144453D01*
X78642178Y-112233343D01*
X78586413Y-112331315D01*
X78526711Y-112435975D01*
X78464439Y-112544932D01*
X78400965Y-112655792D01*
X78337658Y-112766162D01*
X78275884Y-112873650D01*
X78217011Y-112975862D01*
X78162408Y-113070406D01*
X78113442Y-113154889D01*
X78071480Y-113226917D01*
X78050044Y-113263553D01*
X77892164Y-113531381D01*
X77743083Y-113780520D01*
X77601243Y-114013485D01*
X77465084Y-114232791D01*
X77333048Y-114440953D01*
X77203574Y-114640486D01*
X77075103Y-114833905D01*
X77054675Y-114864220D01*
X76970490Y-114986940D01*
X76894835Y-115092930D01*
X76825011Y-115185561D01*
X76758320Y-115268204D01*
X76692064Y-115344232D01*
X76623545Y-115417014D01*
X76550065Y-115489923D01*
X76499013Y-115537745D01*
X76334976Y-115673086D01*
X76163985Y-115786476D01*
X75984171Y-115878785D01*
X75793669Y-115950881D01*
X75590610Y-116003635D01*
X75373129Y-116037914D01*
X75357901Y-116039502D01*
X75279705Y-116045037D01*
X75188349Y-116048250D01*
X75091242Y-116049143D01*
X74995787Y-116047714D01*
X74909393Y-116043965D01*
X74839465Y-116037896D01*
X74794652Y-116031882D01*
X74619974Y-115997105D01*
X74454271Y-115944815D01*
X74296128Y-115874089D01*
X74144127Y-115784006D01*
X73996851Y-115673644D01*
X73852882Y-115542082D01*
X73710803Y-115388396D01*
X73569197Y-115211667D01*
X73514659Y-115137641D01*
X73436039Y-115027004D01*
X73348498Y-114900202D01*
X73253695Y-114759846D01*
X73153291Y-114608546D01*
X73048946Y-114448913D01*
X72942319Y-114283558D01*
X72835071Y-114115092D01*
X72728860Y-113946125D01*
X72625347Y-113779268D01*
X72526192Y-113617133D01*
X72433055Y-113462329D01*
X72347595Y-113317468D01*
X72271472Y-113185160D01*
X72206347Y-113068017D01*
X72204658Y-113064930D01*
X72183088Y-113028660D01*
X72164726Y-113003033D01*
X72153387Y-112993425D01*
X72150887Y-112994265D01*
X72131021Y-113004378D01*
X72094172Y-113024747D01*
X72042975Y-113053865D01*
X71980069Y-113090222D01*
X71908089Y-113132310D01*
X71829673Y-113178620D01*
X71799106Y-113196741D01*
X71723619Y-113241335D01*
X71656078Y-113281015D01*
X71599013Y-113314310D01*
X71554957Y-113339745D01*
X71526441Y-113355847D01*
X71515996Y-113361144D01*
X71516712Y-113351140D01*
X71519730Y-113318898D01*
X71524918Y-113266061D01*
X71532100Y-113194333D01*
X71541104Y-113105419D01*
X71551754Y-113001024D01*
X71563877Y-112882854D01*
X71577298Y-112752612D01*
X71591845Y-112612005D01*
X71607343Y-112462736D01*
X71623617Y-112306511D01*
X71640350Y-112146904D01*
X71660553Y-111956639D01*
X71678596Y-111789777D01*
X71694510Y-111646047D01*
X71708329Y-111525175D01*
X71720083Y-111426891D01*
X71729805Y-111350921D01*
X71737527Y-111296993D01*
X71743280Y-111264835D01*
X71747097Y-111254174D01*
X71760409Y-111258100D01*
G37*
G36*
X71762799Y-111260450D02*
G01*
X71796465Y-111272338D01*
X71848439Y-111291441D01*
X71916782Y-111317009D01*
X71999555Y-111348290D01*
X72094820Y-111384531D01*
X72200639Y-111424981D01*
X72315072Y-111468888D01*
X72436182Y-111515501D01*
X72562029Y-111564068D01*
X72690676Y-111613837D01*
X72820183Y-111664056D01*
X72948613Y-111713974D01*
X73074027Y-111762838D01*
X73194486Y-111809898D01*
X73308051Y-111854402D01*
X73412785Y-111895597D01*
X73506749Y-111932732D01*
X73588003Y-111965055D01*
X73654611Y-111991815D01*
X73704632Y-112012259D01*
X73736129Y-112025637D01*
X73747163Y-112031196D01*
X73746268Y-112032663D01*
X73730739Y-112044778D01*
X73697869Y-112066951D01*
X73650191Y-112097571D01*
X73590239Y-112135030D01*
X73520547Y-112177715D01*
X73443651Y-112224019D01*
X73418880Y-112238853D01*
X73344049Y-112284168D01*
X73277271Y-112325348D01*
X73221070Y-112360787D01*
X73177969Y-112388879D01*
X73150491Y-112408018D01*
X73141159Y-112416596D01*
X73145994Y-112427081D01*
X73162220Y-112456831D01*
X73188580Y-112503150D01*
X73223783Y-112563880D01*
X73266543Y-112636858D01*
X73315569Y-112719926D01*
X73369574Y-112810921D01*
X73427269Y-112907685D01*
X73487365Y-113008056D01*
X73548573Y-113109874D01*
X73609604Y-113210979D01*
X73669171Y-113309210D01*
X73725984Y-113402407D01*
X73778755Y-113488409D01*
X73826195Y-113565055D01*
X73851433Y-113605493D01*
X73935227Y-113738215D01*
X74018592Y-113868032D01*
X74099834Y-113992416D01*
X74177261Y-114108838D01*
X74249180Y-114214770D01*
X74313897Y-114307685D01*
X74369721Y-114385053D01*
X74414957Y-114444346D01*
X74522427Y-114571696D01*
X74640355Y-114692970D01*
X74755612Y-114791095D01*
X74868809Y-114866351D01*
X74980552Y-114919018D01*
X75091453Y-114949375D01*
X75202118Y-114957704D01*
X75313157Y-114944285D01*
X75425178Y-114909398D01*
X75503274Y-114873146D01*
X75598690Y-114815073D01*
X75693298Y-114741357D01*
X75788616Y-114650526D01*
X75886162Y-114541108D01*
X75987454Y-114411629D01*
X76094010Y-114260617D01*
X76117572Y-114225342D01*
X76164751Y-114153181D01*
X76222475Y-114063471D01*
X76289608Y-113958054D01*
X76365011Y-113838770D01*
X76447547Y-113707461D01*
X76536078Y-113565967D01*
X76629468Y-113416129D01*
X76726578Y-113259787D01*
X76826271Y-113098782D01*
X76927410Y-112934956D01*
X77028857Y-112770149D01*
X77129475Y-112606201D01*
X77228126Y-112444955D01*
X77323673Y-112288249D01*
X77414978Y-112137926D01*
X77500905Y-111995825D01*
X77580314Y-111863789D01*
X77652070Y-111743657D01*
X77715034Y-111637270D01*
X77756509Y-111567294D01*
X77796139Y-111501485D01*
X77830450Y-111445588D01*
X77857761Y-111402311D01*
X77876388Y-111374360D01*
X77884650Y-111364442D01*
X77892420Y-111368082D01*
X77919189Y-111382560D01*
X77962901Y-111406948D01*
X78021434Y-111440039D01*
X78092670Y-111480630D01*
X78174488Y-111527515D01*
X78264768Y-111579490D01*
X78361390Y-111635350D01*
X78371530Y-111641224D01*
X78480547Y-111704450D01*
X78570649Y-111756933D01*
X78643564Y-111799803D01*
X78701017Y-111834189D01*
X78744735Y-111861220D01*
X78776444Y-111882024D01*
X78797870Y-111897731D01*
X78810741Y-111909470D01*
X78816781Y-111918368D01*
X78817718Y-111925557D01*
X78815278Y-111932163D01*
X78800900Y-111958554D01*
X78774562Y-112005841D01*
X78738815Y-112069388D01*
X78695028Y-112146803D01*
X78644568Y-112235693D01*
X78588803Y-112333665D01*
X78529101Y-112438325D01*
X78466829Y-112547282D01*
X78403355Y-112658142D01*
X78340048Y-112768512D01*
X78278274Y-112876000D01*
X78219401Y-112978212D01*
X78164798Y-113072756D01*
X78115832Y-113157239D01*
X78073870Y-113229267D01*
X78052434Y-113265903D01*
X77894554Y-113533731D01*
X77745473Y-113782870D01*
X77603633Y-114015835D01*
X77467474Y-114235141D01*
X77335438Y-114443303D01*
X77205964Y-114642836D01*
X77077493Y-114836255D01*
X77057065Y-114866570D01*
X76972880Y-114989290D01*
X76897225Y-115095280D01*
X76827401Y-115187911D01*
X76760710Y-115270554D01*
X76694454Y-115346582D01*
X76625935Y-115419364D01*
X76552455Y-115492273D01*
X76501403Y-115540095D01*
X76337366Y-115675436D01*
X76166375Y-115788826D01*
X75986561Y-115881135D01*
X75796059Y-115953231D01*
X75593000Y-116005985D01*
X75375519Y-116040264D01*
X75360291Y-116041852D01*
X75282095Y-116047387D01*
X75190739Y-116050600D01*
X75093632Y-116051493D01*
X74998177Y-116050064D01*
X74911783Y-116046315D01*
X74841855Y-116040246D01*
X74797042Y-116034232D01*
X74622364Y-115999455D01*
X74456661Y-115947165D01*
X74298518Y-115876439D01*
X74146517Y-115786356D01*
X73999241Y-115675994D01*
X73855272Y-115544432D01*
X73713193Y-115390746D01*
X73571587Y-115214017D01*
X73517049Y-115139991D01*
X73438429Y-115029354D01*
X73350888Y-114902552D01*
X73256085Y-114762196D01*
X73155681Y-114610896D01*
X73051336Y-114451263D01*
X72944709Y-114285908D01*
X72837461Y-114117442D01*
X72731250Y-113948475D01*
X72627737Y-113781618D01*
X72528582Y-113619483D01*
X72435445Y-113464679D01*
X72349985Y-113319818D01*
X72273862Y-113187510D01*
X72208737Y-113070367D01*
X72207048Y-113067280D01*
X72185478Y-113031010D01*
X72167116Y-113005383D01*
X72155777Y-112995775D01*
X72153277Y-112996615D01*
X72133411Y-113006728D01*
X72096562Y-113027097D01*
X72045365Y-113056215D01*
X71982459Y-113092572D01*
X71910479Y-113134660D01*
X71832063Y-113180970D01*
X71801496Y-113199091D01*
X71726009Y-113243685D01*
X71658468Y-113283365D01*
X71601403Y-113316660D01*
X71557347Y-113342095D01*
X71528831Y-113358197D01*
X71518386Y-113363494D01*
X71519102Y-113353490D01*
X71522120Y-113321248D01*
X71527308Y-113268411D01*
X71534490Y-113196683D01*
X71543494Y-113107769D01*
X71554144Y-113003374D01*
X71566267Y-112885204D01*
X71579688Y-112754962D01*
X71594235Y-112614355D01*
X71609733Y-112465086D01*
X71626007Y-112308861D01*
X71642740Y-112149254D01*
X71662943Y-111958989D01*
X71680986Y-111792127D01*
X71696900Y-111648397D01*
X71710719Y-111527525D01*
X71722473Y-111429241D01*
X71732195Y-111353271D01*
X71739917Y-111299343D01*
X71745670Y-111267185D01*
X71749487Y-111256524D01*
X71762799Y-111260450D01*
G37*
%TD*%
D14*
%TO.C,H2*%
X72136000Y-97556000D03*
%TD*%
%TO.C,H1*%
X103632000Y-115717000D03*
%TD*%
D15*
%TO.C,J4*%
X106299000Y-96139000D03*
D16*
X104502949Y-94342949D03*
X102706898Y-92546898D03*
X100910846Y-90750846D03*
%TD*%
D17*
%TO.C,J1*%
X77975672Y-121628317D03*
D18*
X79771723Y-123424368D03*
X81567774Y-125220419D03*
X83363826Y-127016471D03*
%TD*%
D19*
%TO.C,J3*%
X88416000Y-126968000D03*
X89416000Y-126968000D03*
X90416000Y-126968000D03*
X91416000Y-126968000D03*
D20*
X87116000Y-123093000D03*
X92716000Y-123093000D03*
%TD*%
M02*
