%TF.GenerationSoftware,KiCad,Pcbnew,(6.0.4-0)*%
%TF.CreationDate,2022-12-23T16:58:16+01:00*%
%TF.ProjectId,RoundScanner,526f756e-6453-4636-916e-6e65722e6b69,2*%
%TF.SameCoordinates,Original*%
%TF.FileFunction,Copper,L2,Inr*%
%TF.FilePolarity,Positive*%
%FSLAX46Y46*%
G04 Gerber Fmt 4.6, Leading zero omitted, Abs format (unit mm)*
G04 Created by KiCad (PCBNEW (6.0.4-0)) date 2022-12-23 16:58:16*
%MOMM*%
%LPD*%
G01*
G04 APERTURE LIST*
G04 Aperture macros list*
%AMHorizOval*
0 Thick line with rounded ends*
0 $1 width*
0 $2 $3 position (X,Y) of the first rounded end (center of the circle)*
0 $4 $5 position (X,Y) of the second rounded end (center of the circle)*
0 Add line between two ends*
20,1,$1,$2,$3,$4,$5,0*
0 Add two circle primitives to create the rounded ends*
1,1,$1,$2,$3*
1,1,$1,$4,$5*%
%AMRotRect*
0 Rectangle, with rotation*
0 The origin of the aperture is its center*
0 $1 length*
0 $2 width*
0 $3 Rotation angle, in degrees counterclockwise*
0 Add horizontal line*
21,1,$1,$2,0,0,$3*%
G04 Aperture macros list end*
%TA.AperFunction,ComponentPad*%
%ADD10C,3.500000*%
%TD*%
%TA.AperFunction,ComponentPad*%
%ADD11RotRect,1.700000X1.700000X45.000000*%
%TD*%
%TA.AperFunction,ComponentPad*%
%ADD12HorizOval,1.700000X0.000000X0.000000X0.000000X0.000000X0*%
%TD*%
%TA.AperFunction,ComponentPad*%
%ADD13RotRect,1.700000X1.700000X225.000000*%
%TD*%
%TA.AperFunction,ComponentPad*%
%ADD14HorizOval,1.700000X0.000000X0.000000X0.000000X0.000000X0*%
%TD*%
%TA.AperFunction,ViaPad*%
%ADD15C,0.800000*%
%TD*%
%TA.AperFunction,Conductor*%
%ADD16C,0.250000*%
%TD*%
%TA.AperFunction,Conductor*%
%ADD17C,0.200000*%
%TD*%
G04 APERTURE END LIST*
D10*
%TO.N,GND*%
%TO.C,H2*%
X72136000Y-97556000D03*
%TD*%
%TO.N,GND*%
%TO.C,H1*%
X103632000Y-115717000D03*
%TD*%
D11*
%TO.N,GND*%
%TO.C,J4*%
X106831000Y-96319000D03*
D12*
%TO.N,LED RESET*%
X105034949Y-94522949D03*
%TO.N,AS7341_INT*%
X103238898Y-92726898D03*
%TO.N,DRDY_INT*%
X101442846Y-90930846D03*
%TD*%
D13*
%TO.N,GND*%
%TO.C,J1*%
X77975672Y-121628317D03*
D14*
%TO.N,+3V3*%
X79771723Y-123424368D03*
%TO.N,SDA*%
X81567774Y-125220419D03*
%TO.N,SCL*%
X83363826Y-127016471D03*
%TD*%
D15*
%TO.N,+2V5*%
X78411285Y-107574192D03*
X84963000Y-97155000D03*
X88331000Y-121769000D03*
X83185000Y-116459000D03*
X91059000Y-92710000D03*
%TO.N,Net-(C2-Pad2)*%
X88048500Y-91816701D03*
X103251000Y-97155000D03*
%TO.N,+3V3*%
X90574204Y-96811500D03*
X89408000Y-125476000D03*
X76200000Y-105410000D03*
X106531000Y-104319000D03*
X74676000Y-118745000D03*
X93726000Y-116967000D03*
X85581500Y-108601386D03*
X70992059Y-114597111D03*
X105029000Y-110998000D03*
X91402051Y-100123252D03*
X91331250Y-112159250D03*
%TO.N,SDA*%
X75381000Y-109069000D03*
X102362000Y-109982000D03*
X90444044Y-124626500D03*
X83819942Y-123004567D03*
X80264000Y-111252000D03*
%TO.N,Net-(C8-Pad1)*%
X80645000Y-96012000D03*
X78867000Y-90424000D03*
%TO.N,LED RESET*%
X109601000Y-111633000D03*
%TO.N,Net-(R25-Pad1)*%
X103692257Y-111133368D03*
X108157333Y-108095500D03*
%TO.N,Net-(R26-Pad1)*%
X107061000Y-107315000D03*
X99441000Y-110871000D03*
%TO.N,Net-(R27-Pad1)*%
X106680000Y-105791000D03*
X86331000Y-98369000D03*
%TO.N,Net-(R28-Pad1)*%
X107569000Y-105283000D03*
X88646000Y-98933000D03*
%TO.N,DRDY_INT*%
X72390000Y-105410000D03*
%TO.N,SCL*%
X102487287Y-111476921D03*
X85059987Y-123220013D03*
X75315299Y-112644701D03*
X91440000Y-123825000D03*
%TO.N,Net-(D2-Pad2)*%
X95250000Y-124297497D03*
%TO.N,+1V8*%
X80455236Y-110119477D03*
X77597000Y-109093000D03*
X82231000Y-115369000D03*
%TO.N,/ADC/AIN2+*%
X75565000Y-92583000D03*
X98425000Y-117856000D03*
%TO.N,/ADC/AIN2-*%
X87080500Y-112919448D03*
X77597000Y-90678000D03*
%TO.N,GND*%
X105029000Y-119380000D03*
X87249000Y-127000000D03*
X99231000Y-89019000D03*
X102235000Y-117983000D03*
X78740000Y-125603000D03*
X84963000Y-116332000D03*
X89916000Y-89027000D03*
X107696000Y-98171000D03*
X85852000Y-92837000D03*
X108380648Y-109069736D03*
X98679000Y-102362000D03*
X99314000Y-116205000D03*
X95885000Y-89027000D03*
X104648000Y-100330000D03*
X76454000Y-123825000D03*
X101981000Y-122809000D03*
X98044000Y-111379000D03*
X98298000Y-101092000D03*
X69977000Y-99949000D03*
X84201000Y-109450886D03*
X105156000Y-99060000D03*
X95504000Y-113538000D03*
X80518000Y-103251000D03*
X95885000Y-99949000D03*
X106934000Y-115316000D03*
X85031000Y-107119000D03*
X78613000Y-102489000D03*
X106934000Y-117856000D03*
X108839000Y-99568000D03*
X99060000Y-107823000D03*
X103378000Y-98806000D03*
X97028000Y-102489000D03*
X84328000Y-88773000D03*
X100330000Y-93091000D03*
X76581000Y-119507000D03*
X97790000Y-98679000D03*
X73025000Y-94234000D03*
X100203000Y-123952000D03*
X79375000Y-104775000D03*
X79502000Y-118618000D03*
%TO.N,AS7341_INT*%
X83439000Y-106238498D03*
%TD*%
D16*
%TO.N,Net-(C2-Pad2)*%
X102997000Y-97409000D02*
X103251000Y-97155000D01*
X88048500Y-91816701D02*
X93640799Y-97409000D01*
X93640799Y-97409000D02*
X102997000Y-97409000D01*
%TO.N,Net-(C8-Pad1)*%
X78867000Y-94234000D02*
X80645000Y-96012000D01*
X78867000Y-90424000D02*
X78867000Y-94234000D01*
D17*
%TO.N,/ADC/AIN2+*%
X90618000Y-117856000D02*
X98425000Y-117856000D01*
X86281000Y-105169000D02*
X86281000Y-113519000D01*
X75565000Y-92583000D02*
X75565000Y-94453000D01*
X75565000Y-94453000D02*
X86281000Y-105169000D01*
X86281000Y-113519000D02*
X90618000Y-117856000D01*
%TO.N,/ADC/AIN2-*%
X77597000Y-95477245D02*
X87030500Y-104910745D01*
X87030500Y-104910745D02*
X87030500Y-112869448D01*
X87030500Y-112869448D02*
X87080500Y-112919448D01*
X77597000Y-90678000D02*
X77597000Y-95477245D01*
%TD*%
%TA.AperFunction,Conductor*%
%TO.N,GND*%
G36*
X99414045Y-88150756D02*
G01*
X100033095Y-88486703D01*
X100037732Y-88489350D01*
X100290465Y-88640798D01*
X100826938Y-88962274D01*
X100831487Y-88965133D01*
X101050578Y-89109461D01*
X101096461Y-89163639D01*
X101105770Y-89234023D01*
X101075548Y-89298266D01*
X101010677Y-89337201D01*
X100931236Y-89356273D01*
X100926665Y-89358166D01*
X100926663Y-89358167D01*
X100695792Y-89453797D01*
X100695788Y-89453799D01*
X100691218Y-89455692D01*
X100469706Y-89591434D01*
X100272157Y-89760157D01*
X100103434Y-89957706D01*
X99967692Y-90179218D01*
X99965799Y-90183788D01*
X99965797Y-90183792D01*
X99949914Y-90222138D01*
X99868273Y-90419236D01*
X99867118Y-90424048D01*
X99808780Y-90667039D01*
X99808779Y-90667045D01*
X99807625Y-90671852D01*
X99787242Y-90930846D01*
X99807625Y-91189840D01*
X99808779Y-91194647D01*
X99808780Y-91194653D01*
X99830600Y-91285537D01*
X99868273Y-91442456D01*
X99870166Y-91447027D01*
X99870167Y-91447029D01*
X99957425Y-91657687D01*
X99967692Y-91682474D01*
X100103434Y-91903986D01*
X100272157Y-92101535D01*
X100469706Y-92270258D01*
X100691218Y-92406000D01*
X100695788Y-92407893D01*
X100695792Y-92407895D01*
X100926663Y-92503525D01*
X100931236Y-92505419D01*
X101019570Y-92526626D01*
X101179039Y-92564912D01*
X101179045Y-92564913D01*
X101183852Y-92566067D01*
X101442846Y-92586450D01*
X101447776Y-92586062D01*
X101447784Y-92586062D01*
X101448216Y-92586028D01*
X101448378Y-92586062D01*
X101452732Y-92586062D01*
X101452732Y-92586977D01*
X101517696Y-92600622D01*
X101568257Y-92650463D01*
X101582734Y-92717012D01*
X101583682Y-92717012D01*
X101583682Y-92721372D01*
X101583716Y-92721528D01*
X101583682Y-92721960D01*
X101583682Y-92721968D01*
X101583294Y-92726898D01*
X101603677Y-92985892D01*
X101604830Y-92990695D01*
X101604832Y-92990705D01*
X101624681Y-93073379D01*
X101664325Y-93238508D01*
X101666218Y-93243079D01*
X101666219Y-93243081D01*
X101743257Y-93429065D01*
X101763744Y-93478526D01*
X101899486Y-93700038D01*
X102068209Y-93897587D01*
X102265758Y-94066310D01*
X102487270Y-94202052D01*
X102491840Y-94203945D01*
X102491844Y-94203947D01*
X102722715Y-94299577D01*
X102727288Y-94301471D01*
X102815622Y-94322678D01*
X102975091Y-94360964D01*
X102975097Y-94360965D01*
X102979904Y-94362119D01*
X103238898Y-94382502D01*
X103243828Y-94382114D01*
X103243835Y-94382114D01*
X103244267Y-94382080D01*
X103244429Y-94382114D01*
X103248783Y-94382114D01*
X103248783Y-94383029D01*
X103313747Y-94396674D01*
X103364308Y-94446515D01*
X103378785Y-94513064D01*
X103379733Y-94513064D01*
X103379733Y-94517424D01*
X103379767Y-94517580D01*
X103379733Y-94518012D01*
X103379733Y-94518019D01*
X103379345Y-94522949D01*
X103399728Y-94781943D01*
X103400882Y-94786750D01*
X103400883Y-94786756D01*
X103423948Y-94882828D01*
X103460376Y-95034559D01*
X103462269Y-95039130D01*
X103462270Y-95039132D01*
X103531086Y-95205267D01*
X103559795Y-95274577D01*
X103695537Y-95496089D01*
X103864260Y-95693638D01*
X104061809Y-95862361D01*
X104283321Y-95998103D01*
X104287891Y-95999996D01*
X104287895Y-95999998D01*
X104508139Y-96091226D01*
X104523339Y-96097522D01*
X104611673Y-96118729D01*
X104771142Y-96157015D01*
X104771148Y-96157016D01*
X104775955Y-96158170D01*
X105034949Y-96178553D01*
X105039879Y-96178165D01*
X105039880Y-96178165D01*
X105093033Y-96173982D01*
X105162513Y-96188578D01*
X105213072Y-96238421D01*
X105228918Y-96299594D01*
X105228918Y-96372435D01*
X105231983Y-96391787D01*
X105265008Y-96493426D01*
X105273903Y-96510884D01*
X105320903Y-96575574D01*
X105327320Y-96583087D01*
X105792883Y-97048650D01*
X105806827Y-97056264D01*
X105808660Y-97056133D01*
X105815275Y-97051882D01*
X106741905Y-96125252D01*
X106804217Y-96091226D01*
X106875032Y-96096291D01*
X106920095Y-96125252D01*
X107843492Y-97048649D01*
X107857436Y-97056263D01*
X107859269Y-97056132D01*
X107865884Y-97051881D01*
X108083822Y-96833943D01*
X108146134Y-96799917D01*
X108216949Y-96804982D01*
X108273785Y-96847529D01*
X108282310Y-96860516D01*
X108345681Y-96971423D01*
X108348212Y-96976080D01*
X108737889Y-97731074D01*
X108770212Y-97793700D01*
X108772573Y-97798524D01*
X108869390Y-98007518D01*
X109159308Y-98633354D01*
X109161463Y-98638277D01*
X109294433Y-98960691D01*
X109501214Y-99462076D01*
X109512266Y-99488875D01*
X109514206Y-99493882D01*
X109811415Y-100311856D01*
X109828407Y-100358622D01*
X109830130Y-100363699D01*
X110102586Y-101226520D01*
X110107188Y-101241093D01*
X110108693Y-101246241D01*
X110128248Y-101318808D01*
X110348074Y-102134599D01*
X110349362Y-102139816D01*
X110550659Y-103037626D01*
X110551720Y-103042883D01*
X110565782Y-103121089D01*
X110714546Y-103948429D01*
X110715384Y-103953736D01*
X110839451Y-104865399D01*
X110840062Y-104870738D01*
X110887750Y-105384206D01*
X110924363Y-105778422D01*
X110925146Y-105786858D01*
X110925528Y-105792211D01*
X110970427Y-106690234D01*
X110971472Y-106711142D01*
X110971625Y-106716496D01*
X110974561Y-107118330D01*
X110978346Y-107636576D01*
X110978270Y-107641949D01*
X110945756Y-108561419D01*
X110945452Y-108566784D01*
X110873760Y-109484068D01*
X110873227Y-109489415D01*
X110762717Y-110400929D01*
X110762492Y-110402781D01*
X110761734Y-110408087D01*
X110750026Y-110479146D01*
X110704981Y-110752527D01*
X110674170Y-110816489D01*
X110613669Y-110853640D01*
X110542688Y-110852185D01*
X110495128Y-110824567D01*
X110339189Y-110680418D01*
X110339186Y-110680416D01*
X110334949Y-110676499D01*
X110148350Y-110558764D01*
X109943421Y-110477006D01*
X109937761Y-110475880D01*
X109937757Y-110475879D01*
X109732691Y-110435089D01*
X109732688Y-110435089D01*
X109727024Y-110433962D01*
X109721249Y-110433886D01*
X109721245Y-110433886D01*
X109610504Y-110432437D01*
X109506406Y-110431074D01*
X109500709Y-110432053D01*
X109500708Y-110432053D01*
X109294654Y-110467459D01*
X109294653Y-110467459D01*
X109288957Y-110468438D01*
X109081957Y-110544804D01*
X109076996Y-110547756D01*
X109076995Y-110547756D01*
X108912325Y-110645725D01*
X108892341Y-110657614D01*
X108726457Y-110803090D01*
X108589863Y-110976360D01*
X108487131Y-111171620D01*
X108421703Y-111382333D01*
X108395770Y-111601440D01*
X108410200Y-111821604D01*
X108411621Y-111827200D01*
X108411622Y-111827205D01*
X108440098Y-111939326D01*
X108464511Y-112035452D01*
X108466928Y-112040694D01*
X108466928Y-112040695D01*
X108498323Y-112108795D01*
X108556883Y-112235821D01*
X108684222Y-112416002D01*
X108842264Y-112569961D01*
X108847060Y-112573166D01*
X108847063Y-112573168D01*
X108958154Y-112647396D01*
X109025717Y-112692540D01*
X109031020Y-112694818D01*
X109031023Y-112694820D01*
X109198531Y-112766787D01*
X109228436Y-112779635D01*
X109308088Y-112797658D01*
X109437995Y-112827054D01*
X109438001Y-112827055D01*
X109443632Y-112828329D01*
X109449403Y-112828556D01*
X109449405Y-112828556D01*
X109517211Y-112831220D01*
X109664098Y-112836991D01*
X109788283Y-112818985D01*
X109876738Y-112806160D01*
X109876743Y-112806159D01*
X109882452Y-112805331D01*
X109887916Y-112803476D01*
X109887921Y-112803475D01*
X110091379Y-112734410D01*
X110092179Y-112736765D01*
X110151984Y-112728763D01*
X110216273Y-112758887D01*
X110254071Y-112818985D01*
X110254959Y-112884301D01*
X110200351Y-113099418D01*
X110195416Y-113118857D01*
X110193988Y-113124018D01*
X110053402Y-113592983D01*
X109929781Y-114005352D01*
X109928129Y-114010465D01*
X109626586Y-114879727D01*
X109624717Y-114884765D01*
X109498227Y-115204648D01*
X109304053Y-115695697D01*
X109286390Y-115740364D01*
X109284312Y-115745309D01*
X108936518Y-116525772D01*
X108909796Y-116585738D01*
X108907504Y-116590598D01*
X108497524Y-117414234D01*
X108495028Y-117418993D01*
X108218883Y-117919098D01*
X108050271Y-118224457D01*
X108047578Y-118229097D01*
X107568904Y-119014825D01*
X107566015Y-119019348D01*
X107054239Y-119784007D01*
X107051177Y-119788376D01*
X106507295Y-120530475D01*
X106504038Y-120534727D01*
X105928986Y-121252987D01*
X105925541Y-121257107D01*
X105406395Y-121851689D01*
X105320408Y-121950170D01*
X105316792Y-121954137D01*
X104686161Y-122617086D01*
X104682642Y-122620785D01*
X104678867Y-122624587D01*
X104318784Y-122972162D01*
X104016885Y-123263573D01*
X104012940Y-123267222D01*
X103663549Y-123576812D01*
X103383455Y-123825000D01*
X103324309Y-123877408D01*
X103320216Y-123880882D01*
X102651901Y-124424004D01*
X102606188Y-124461154D01*
X102601949Y-124464451D01*
X101863847Y-125013737D01*
X101859493Y-125016835D01*
X101374346Y-125346695D01*
X101098613Y-125534170D01*
X101094106Y-125537096D01*
X100671456Y-125798831D01*
X100311876Y-126021508D01*
X100307253Y-126024236D01*
X100273261Y-126043331D01*
X99505078Y-126474853D01*
X99500338Y-126477384D01*
X98877527Y-126793098D01*
X98712901Y-126876550D01*
X98679692Y-126893384D01*
X98674848Y-126895711D01*
X97837205Y-127276342D01*
X97832267Y-127278460D01*
X96979157Y-127623030D01*
X96974132Y-127624936D01*
X96107110Y-127932815D01*
X96102009Y-127934505D01*
X95270620Y-128190373D01*
X95222647Y-128205137D01*
X95217482Y-128206607D01*
X94327340Y-128439508D01*
X94322156Y-128440747D01*
X93908508Y-128530322D01*
X93422912Y-128635477D01*
X93417637Y-128636502D01*
X92858119Y-128732896D01*
X92510907Y-128792714D01*
X92505625Y-128793509D01*
X91593057Y-128910916D01*
X91587738Y-128911486D01*
X90952698Y-128965788D01*
X90670988Y-128989877D01*
X90665626Y-128990220D01*
X89746417Y-129029450D01*
X89741044Y-129029565D01*
X88820956Y-129029565D01*
X88815583Y-129029450D01*
X87896374Y-128990220D01*
X87891012Y-128989877D01*
X87609302Y-128965788D01*
X86974262Y-128911486D01*
X86968943Y-128910916D01*
X86056375Y-128793509D01*
X86051093Y-128792714D01*
X85703881Y-128732896D01*
X85144363Y-128636502D01*
X85139088Y-128635477D01*
X84486575Y-128494176D01*
X84424231Y-128460209D01*
X84390147Y-128397929D01*
X84395145Y-128327109D01*
X84431412Y-128275219D01*
X84530754Y-128190373D01*
X84530759Y-128190368D01*
X84534515Y-128187160D01*
X84703238Y-127989611D01*
X84838980Y-127768099D01*
X84856633Y-127725483D01*
X84936505Y-127532654D01*
X84936506Y-127532652D01*
X84938399Y-127528081D01*
X84967719Y-127405956D01*
X84997892Y-127280278D01*
X84997893Y-127280272D01*
X84999047Y-127275465D01*
X85019430Y-127016471D01*
X84999047Y-126757477D01*
X84997893Y-126752670D01*
X84997892Y-126752664D01*
X84956263Y-126579268D01*
X84938399Y-126504861D01*
X84925969Y-126474853D01*
X84840875Y-126269417D01*
X84840873Y-126269413D01*
X84838980Y-126264843D01*
X84703238Y-126043331D01*
X84534515Y-125845782D01*
X84336966Y-125677059D01*
X84115454Y-125541317D01*
X84110884Y-125539424D01*
X84110880Y-125539422D01*
X83881573Y-125444440D01*
X88202770Y-125444440D01*
X88217200Y-125664604D01*
X88218621Y-125670200D01*
X88218622Y-125670205D01*
X88251500Y-125799660D01*
X88271511Y-125878452D01*
X88273928Y-125883694D01*
X88273928Y-125883695D01*
X88314371Y-125971422D01*
X88363883Y-126078821D01*
X88491222Y-126259002D01*
X88649264Y-126412961D01*
X88654060Y-126416166D01*
X88654063Y-126416168D01*
X88738261Y-126472427D01*
X88832717Y-126535540D01*
X88838020Y-126537818D01*
X88838023Y-126537820D01*
X89030129Y-126620355D01*
X89035436Y-126622635D01*
X89115088Y-126640658D01*
X89244995Y-126670054D01*
X89245001Y-126670055D01*
X89250632Y-126671329D01*
X89256403Y-126671556D01*
X89256405Y-126671556D01*
X89324211Y-126674220D01*
X89471098Y-126679991D01*
X89580275Y-126664161D01*
X89683738Y-126649160D01*
X89683743Y-126649159D01*
X89689452Y-126648331D01*
X89694916Y-126646476D01*
X89694921Y-126646475D01*
X89892907Y-126579268D01*
X89892912Y-126579266D01*
X89898379Y-126577410D01*
X90090884Y-126469602D01*
X90260518Y-126328518D01*
X90401602Y-126158884D01*
X90478536Y-126021508D01*
X90506586Y-125971422D01*
X90506587Y-125971420D01*
X90509410Y-125966379D01*
X90533224Y-125896225D01*
X90574061Y-125838149D01*
X90634456Y-125812031D01*
X90665530Y-125807526D01*
X90719782Y-125799660D01*
X90719787Y-125799659D01*
X90725496Y-125798831D01*
X90730960Y-125796976D01*
X90730965Y-125796975D01*
X90928951Y-125729768D01*
X90928956Y-125729766D01*
X90934423Y-125727910D01*
X91126928Y-125620102D01*
X91296562Y-125479018D01*
X91437646Y-125309384D01*
X91545454Y-125116879D01*
X91547312Y-125111406D01*
X91554207Y-125091095D01*
X91595045Y-125033020D01*
X91655438Y-125006903D01*
X91687449Y-125002261D01*
X91721452Y-124997331D01*
X91726916Y-124995476D01*
X91726921Y-124995475D01*
X91924907Y-124928268D01*
X91924912Y-124928266D01*
X91930379Y-124926410D01*
X92122884Y-124818602D01*
X92153765Y-124792919D01*
X92288086Y-124681204D01*
X92292518Y-124677518D01*
X92321827Y-124642278D01*
X92429908Y-124512326D01*
X92429910Y-124512323D01*
X92433602Y-124507884D01*
X92541410Y-124315379D01*
X92543266Y-124309912D01*
X92543268Y-124309907D01*
X92558194Y-124265937D01*
X94044770Y-124265937D01*
X94059200Y-124486101D01*
X94060621Y-124491697D01*
X94060622Y-124491702D01*
X94087686Y-124598265D01*
X94113511Y-124699949D01*
X94115928Y-124705191D01*
X94115928Y-124705192D01*
X94170916Y-124824470D01*
X94205883Y-124900318D01*
X94333222Y-125080499D01*
X94491264Y-125234458D01*
X94496060Y-125237663D01*
X94496063Y-125237665D01*
X94603399Y-125309384D01*
X94674717Y-125357037D01*
X94680020Y-125359315D01*
X94680023Y-125359317D01*
X94864804Y-125438705D01*
X94877436Y-125444132D01*
X94957088Y-125462155D01*
X95086995Y-125491551D01*
X95087001Y-125491552D01*
X95092632Y-125492826D01*
X95098403Y-125493053D01*
X95098405Y-125493053D01*
X95166211Y-125495717D01*
X95313098Y-125501488D01*
X95422275Y-125485658D01*
X95525738Y-125470657D01*
X95525743Y-125470656D01*
X95531452Y-125469828D01*
X95536916Y-125467973D01*
X95536921Y-125467972D01*
X95734907Y-125400765D01*
X95734912Y-125400763D01*
X95740379Y-125398907D01*
X95769846Y-125382405D01*
X95892302Y-125313826D01*
X95932884Y-125291099D01*
X96005981Y-125230305D01*
X96098086Y-125153701D01*
X96102518Y-125150015D01*
X96161095Y-125079584D01*
X96239908Y-124984823D01*
X96239910Y-124984820D01*
X96243602Y-124980381D01*
X96336271Y-124814908D01*
X96348586Y-124792919D01*
X96348587Y-124792917D01*
X96351410Y-124787876D01*
X96353266Y-124782409D01*
X96353268Y-124782404D01*
X96420475Y-124584418D01*
X96420476Y-124584413D01*
X96422331Y-124578949D01*
X96423159Y-124573240D01*
X96423160Y-124573235D01*
X96449267Y-124393173D01*
X96453991Y-124360595D01*
X96455643Y-124297497D01*
X96435454Y-124077786D01*
X96427542Y-124049730D01*
X96395890Y-123937501D01*
X96375565Y-123865433D01*
X96277980Y-123667550D01*
X96227333Y-123599725D01*
X96149420Y-123495388D01*
X96149420Y-123495387D01*
X96145967Y-123490764D01*
X96040137Y-123392936D01*
X95988189Y-123344915D01*
X95988186Y-123344913D01*
X95983949Y-123340996D01*
X95797350Y-123223261D01*
X95592421Y-123141503D01*
X95586761Y-123140377D01*
X95586757Y-123140376D01*
X95381691Y-123099586D01*
X95381688Y-123099586D01*
X95376024Y-123098459D01*
X95370249Y-123098383D01*
X95370245Y-123098383D01*
X95259504Y-123096934D01*
X95155406Y-123095571D01*
X95149709Y-123096550D01*
X95149708Y-123096550D01*
X94943654Y-123131956D01*
X94943653Y-123131956D01*
X94937957Y-123132935D01*
X94730957Y-123209301D01*
X94725996Y-123212253D01*
X94725995Y-123212253D01*
X94695495Y-123230399D01*
X94541341Y-123322111D01*
X94375457Y-123467587D01*
X94238863Y-123640857D01*
X94136131Y-123836117D01*
X94070703Y-124046830D01*
X94044770Y-124265937D01*
X92558194Y-124265937D01*
X92610475Y-124111921D01*
X92610476Y-124111916D01*
X92612331Y-124106452D01*
X92613159Y-124100743D01*
X92613160Y-124100738D01*
X92641845Y-123902897D01*
X92643991Y-123888098D01*
X92645643Y-123825000D01*
X92625454Y-123605289D01*
X92619679Y-123584810D01*
X92574478Y-123424540D01*
X92565565Y-123392936D01*
X92495275Y-123250401D01*
X92470535Y-123200234D01*
X92467980Y-123195053D01*
X92442224Y-123160561D01*
X92339420Y-123022891D01*
X92339420Y-123022890D01*
X92335967Y-123018267D01*
X92226320Y-122916910D01*
X92178189Y-122872418D01*
X92178186Y-122872416D01*
X92173949Y-122868499D01*
X91987350Y-122750764D01*
X91782421Y-122669006D01*
X91776761Y-122667880D01*
X91776757Y-122667879D01*
X91571691Y-122627089D01*
X91571688Y-122627089D01*
X91566024Y-122625962D01*
X91560249Y-122625886D01*
X91560245Y-122625886D01*
X91449504Y-122624437D01*
X91345406Y-122623074D01*
X91339709Y-122624053D01*
X91339708Y-122624053D01*
X91133654Y-122659459D01*
X91133653Y-122659459D01*
X91127957Y-122660438D01*
X90920957Y-122736804D01*
X90915996Y-122739756D01*
X90915995Y-122739756D01*
X90772159Y-122825330D01*
X90731341Y-122849614D01*
X90565457Y-122995090D01*
X90428863Y-123168360D01*
X90396053Y-123230721D01*
X90328819Y-123358510D01*
X90328817Y-123358515D01*
X90326131Y-123363620D01*
X90324419Y-123369133D01*
X90324367Y-123369259D01*
X90279819Y-123424540D01*
X90229297Y-123445220D01*
X90132001Y-123461938D01*
X89925001Y-123538304D01*
X89920040Y-123541256D01*
X89920039Y-123541256D01*
X89744240Y-123645846D01*
X89735385Y-123651114D01*
X89569501Y-123796590D01*
X89432907Y-123969860D01*
X89330175Y-124165120D01*
X89318279Y-124203432D01*
X89278976Y-124262557D01*
X89219285Y-124290247D01*
X89095957Y-124311438D01*
X88888957Y-124387804D01*
X88883996Y-124390756D01*
X88883995Y-124390756D01*
X88714321Y-124491702D01*
X88699341Y-124500614D01*
X88533457Y-124646090D01*
X88396863Y-124819360D01*
X88294131Y-125014620D01*
X88228703Y-125225333D01*
X88202770Y-125444440D01*
X83881573Y-125444440D01*
X83880009Y-125443792D01*
X83880007Y-125443791D01*
X83875436Y-125441898D01*
X83787102Y-125420691D01*
X83627633Y-125382405D01*
X83627627Y-125382404D01*
X83622820Y-125381250D01*
X83363826Y-125360867D01*
X83358896Y-125361255D01*
X83358888Y-125361255D01*
X83358456Y-125361289D01*
X83358294Y-125361255D01*
X83353940Y-125361255D01*
X83353940Y-125360340D01*
X83288976Y-125346695D01*
X83238415Y-125296854D01*
X83223938Y-125230305D01*
X83222990Y-125230305D01*
X83222990Y-125225945D01*
X83222956Y-125225789D01*
X83222990Y-125225357D01*
X83222990Y-125225349D01*
X83223378Y-125220419D01*
X83202995Y-124961425D01*
X83201841Y-124956618D01*
X83201840Y-124956612D01*
X83155544Y-124763780D01*
X83142347Y-124708809D01*
X83096558Y-124598265D01*
X83044823Y-124473365D01*
X83044821Y-124473361D01*
X83042928Y-124468791D01*
X82907186Y-124247279D01*
X82738463Y-124049730D01*
X82540914Y-123881007D01*
X82319402Y-123745265D01*
X82314832Y-123743372D01*
X82314828Y-123743370D01*
X82083957Y-123647740D01*
X82083955Y-123647739D01*
X82079384Y-123645846D01*
X81991050Y-123624639D01*
X81831581Y-123586353D01*
X81831575Y-123586352D01*
X81826768Y-123585198D01*
X81567774Y-123564815D01*
X81562844Y-123565203D01*
X81562837Y-123565203D01*
X81562405Y-123565237D01*
X81562243Y-123565203D01*
X81557889Y-123565203D01*
X81557889Y-123564288D01*
X81492925Y-123550643D01*
X81442364Y-123500802D01*
X81427887Y-123434253D01*
X81426939Y-123434253D01*
X81426939Y-123429893D01*
X81426905Y-123429737D01*
X81426939Y-123429305D01*
X81426939Y-123429298D01*
X81427327Y-123424368D01*
X81406944Y-123165374D01*
X81405790Y-123160567D01*
X81405789Y-123160561D01*
X81362145Y-122978773D01*
X81360761Y-122973007D01*
X82614712Y-122973007D01*
X82629142Y-123193171D01*
X82630563Y-123198767D01*
X82630564Y-123198772D01*
X82673863Y-123369259D01*
X82683453Y-123407019D01*
X82685870Y-123412261D01*
X82685870Y-123412262D01*
X82749665Y-123550643D01*
X82775825Y-123607388D01*
X82903164Y-123787569D01*
X83061206Y-123941528D01*
X83066002Y-123944733D01*
X83066005Y-123944735D01*
X83210545Y-124041313D01*
X83244659Y-124064107D01*
X83249962Y-124066385D01*
X83249965Y-124066387D01*
X83433343Y-124145172D01*
X83447378Y-124151202D01*
X83508887Y-124165120D01*
X83656937Y-124198621D01*
X83656943Y-124198622D01*
X83662574Y-124199896D01*
X83668345Y-124200123D01*
X83668347Y-124200123D01*
X83736153Y-124202787D01*
X83883040Y-124208558D01*
X84011690Y-124189905D01*
X84095672Y-124177728D01*
X84095676Y-124177727D01*
X84101394Y-124176898D01*
X84106867Y-124175040D01*
X84106872Y-124175039D01*
X84194857Y-124145172D01*
X84265792Y-124142216D01*
X84305360Y-124159720D01*
X84390248Y-124216440D01*
X84484704Y-124279553D01*
X84490007Y-124281831D01*
X84490010Y-124281833D01*
X84664701Y-124356886D01*
X84687423Y-124366648D01*
X84767075Y-124384671D01*
X84896982Y-124414067D01*
X84896988Y-124414068D01*
X84902619Y-124415342D01*
X84908390Y-124415569D01*
X84908392Y-124415569D01*
X84976198Y-124418233D01*
X85123085Y-124424004D01*
X85232262Y-124408174D01*
X85335725Y-124393173D01*
X85335730Y-124393172D01*
X85341439Y-124392344D01*
X85346903Y-124390489D01*
X85346908Y-124390488D01*
X85544894Y-124323281D01*
X85544899Y-124323279D01*
X85550366Y-124321423D01*
X85561159Y-124315379D01*
X85675235Y-124251493D01*
X85742871Y-124213615D01*
X85748952Y-124208558D01*
X85908073Y-124076217D01*
X85912505Y-124072531D01*
X86001669Y-123965324D01*
X86049895Y-123907339D01*
X86049897Y-123907336D01*
X86053589Y-123902897D01*
X86141867Y-123745265D01*
X86158573Y-123715435D01*
X86158574Y-123715433D01*
X86161397Y-123710392D01*
X86163253Y-123704925D01*
X86163255Y-123704920D01*
X86230462Y-123506934D01*
X86230463Y-123506929D01*
X86232318Y-123501465D01*
X86233146Y-123495756D01*
X86233147Y-123495751D01*
X86258323Y-123322111D01*
X86263978Y-123283111D01*
X86265630Y-123220013D01*
X86245441Y-123000302D01*
X86229044Y-122942160D01*
X86187121Y-122793513D01*
X86185552Y-122787949D01*
X86087967Y-122590066D01*
X85955954Y-122413280D01*
X85793936Y-122263512D01*
X85607337Y-122145777D01*
X85402408Y-122064019D01*
X85396748Y-122062893D01*
X85396744Y-122062892D01*
X85191678Y-122022102D01*
X85191675Y-122022102D01*
X85186011Y-122020975D01*
X85180236Y-122020899D01*
X85180232Y-122020899D01*
X85069491Y-122019450D01*
X84965393Y-122018087D01*
X84959696Y-122019066D01*
X84959695Y-122019066D01*
X84753641Y-122054472D01*
X84753640Y-122054472D01*
X84747944Y-122055451D01*
X84742518Y-122057453D01*
X84742517Y-122057453D01*
X84687395Y-122077788D01*
X84616562Y-122082600D01*
X84563304Y-122054741D01*
X84562718Y-122055505D01*
X84558333Y-122052140D01*
X84558256Y-122052100D01*
X84558137Y-122051990D01*
X84558131Y-122051985D01*
X84553891Y-122048066D01*
X84367292Y-121930331D01*
X84162363Y-121848573D01*
X84156703Y-121847447D01*
X84156699Y-121847446D01*
X83951633Y-121806656D01*
X83951630Y-121806656D01*
X83945966Y-121805529D01*
X83940191Y-121805453D01*
X83940187Y-121805453D01*
X83829446Y-121804004D01*
X83725348Y-121802641D01*
X83719651Y-121803620D01*
X83719650Y-121803620D01*
X83513596Y-121839026D01*
X83513595Y-121839026D01*
X83507899Y-121840005D01*
X83300899Y-121916371D01*
X83295938Y-121919323D01*
X83295937Y-121919323D01*
X83123182Y-122022102D01*
X83111283Y-122029181D01*
X82945399Y-122174657D01*
X82808805Y-122347927D01*
X82706073Y-122543187D01*
X82640645Y-122753900D01*
X82614712Y-122973007D01*
X81360761Y-122973007D01*
X81346296Y-122912758D01*
X81329587Y-122872418D01*
X81248772Y-122677314D01*
X81248770Y-122677310D01*
X81246877Y-122672740D01*
X81111135Y-122451228D01*
X80942412Y-122253679D01*
X80744863Y-122084956D01*
X80523351Y-121949214D01*
X80518781Y-121947321D01*
X80518777Y-121947319D01*
X80287906Y-121851689D01*
X80287904Y-121851688D01*
X80283333Y-121849795D01*
X80160066Y-121820201D01*
X80035530Y-121790302D01*
X80035524Y-121790301D01*
X80030717Y-121789147D01*
X79771723Y-121768764D01*
X79766793Y-121769152D01*
X79766792Y-121769152D01*
X79713639Y-121773335D01*
X79644159Y-121758739D01*
X79622554Y-121737440D01*
X87125770Y-121737440D01*
X87140200Y-121957604D01*
X87141621Y-121963200D01*
X87141622Y-121963205D01*
X87173359Y-122088167D01*
X87194511Y-122171452D01*
X87196928Y-122176694D01*
X87196928Y-122176695D01*
X87275868Y-122347927D01*
X87286883Y-122371821D01*
X87414222Y-122552002D01*
X87572264Y-122705961D01*
X87577060Y-122709166D01*
X87577063Y-122709168D01*
X87661261Y-122765427D01*
X87755717Y-122828540D01*
X87761020Y-122830818D01*
X87761023Y-122830820D01*
X87953129Y-122913355D01*
X87958436Y-122915635D01*
X88038088Y-122933658D01*
X88167995Y-122963054D01*
X88168001Y-122963055D01*
X88173632Y-122964329D01*
X88179403Y-122964556D01*
X88179405Y-122964556D01*
X88247211Y-122967220D01*
X88394098Y-122972991D01*
X88503275Y-122957161D01*
X88606738Y-122942160D01*
X88606743Y-122942159D01*
X88612452Y-122941331D01*
X88617916Y-122939476D01*
X88617921Y-122939475D01*
X88815907Y-122872268D01*
X88815912Y-122872266D01*
X88821379Y-122870410D01*
X89013884Y-122762602D01*
X89024414Y-122753845D01*
X89179086Y-122625204D01*
X89183518Y-122621518D01*
X89324602Y-122451884D01*
X89432410Y-122259379D01*
X89434266Y-122253912D01*
X89434268Y-122253907D01*
X89501475Y-122055921D01*
X89501476Y-122055916D01*
X89503331Y-122050452D01*
X89504159Y-122044743D01*
X89504160Y-122044738D01*
X89532425Y-121849795D01*
X89534991Y-121832098D01*
X89536643Y-121769000D01*
X89516454Y-121549289D01*
X89456565Y-121336936D01*
X89358980Y-121139053D01*
X89226967Y-120962267D01*
X89064949Y-120812499D01*
X88878350Y-120694764D01*
X88673421Y-120613006D01*
X88667761Y-120611880D01*
X88667757Y-120611879D01*
X88462691Y-120571089D01*
X88462688Y-120571089D01*
X88457024Y-120569962D01*
X88451249Y-120569886D01*
X88451245Y-120569886D01*
X88340504Y-120568437D01*
X88236406Y-120567074D01*
X88230709Y-120568053D01*
X88230708Y-120568053D01*
X88024654Y-120603459D01*
X88024653Y-120603459D01*
X88018957Y-120604438D01*
X87811957Y-120680804D01*
X87622341Y-120793614D01*
X87456457Y-120939090D01*
X87319863Y-121112360D01*
X87217131Y-121307620D01*
X87151703Y-121518333D01*
X87125770Y-121737440D01*
X79622554Y-121737440D01*
X79593600Y-121708896D01*
X79577754Y-121647723D01*
X79577754Y-121574882D01*
X79574689Y-121555530D01*
X79541664Y-121453891D01*
X79532769Y-121436433D01*
X79485769Y-121371743D01*
X79479352Y-121364230D01*
X79013789Y-120898667D01*
X78999845Y-120891053D01*
X78998012Y-120891184D01*
X78991397Y-120895435D01*
X77246023Y-122640809D01*
X77238409Y-122654753D01*
X77238540Y-122656586D01*
X77242791Y-122663201D01*
X77711582Y-123131992D01*
X77719099Y-123138413D01*
X77783789Y-123185414D01*
X77801246Y-123194309D01*
X77902885Y-123227334D01*
X77922237Y-123230399D01*
X77995078Y-123230399D01*
X78063199Y-123250401D01*
X78109692Y-123304057D01*
X78120690Y-123366284D01*
X78118593Y-123392936D01*
X78116119Y-123424368D01*
X78136502Y-123683362D01*
X78137656Y-123688169D01*
X78137657Y-123688175D01*
X78163686Y-123796590D01*
X78197150Y-123935978D01*
X78199043Y-123940549D01*
X78199044Y-123940551D01*
X78288690Y-124156974D01*
X78296569Y-124175996D01*
X78432311Y-124397508D01*
X78601034Y-124595057D01*
X78798583Y-124763780D01*
X79020095Y-124899522D01*
X79024665Y-124901415D01*
X79024669Y-124901417D01*
X79215305Y-124980381D01*
X79260113Y-124998941D01*
X79328424Y-125015341D01*
X79507916Y-125058434D01*
X79507922Y-125058435D01*
X79512729Y-125059589D01*
X79771723Y-125079972D01*
X79776653Y-125079584D01*
X79776660Y-125079584D01*
X79777092Y-125079550D01*
X79777254Y-125079584D01*
X79781608Y-125079584D01*
X79781608Y-125080499D01*
X79846572Y-125094144D01*
X79897133Y-125143985D01*
X79911610Y-125210534D01*
X79912558Y-125210534D01*
X79912558Y-125214894D01*
X79912592Y-125215050D01*
X79912558Y-125215482D01*
X79912558Y-125215489D01*
X79912170Y-125220419D01*
X79932553Y-125479413D01*
X79933707Y-125484220D01*
X79933708Y-125484226D01*
X79965443Y-125616408D01*
X79993201Y-125732029D01*
X79995094Y-125736600D01*
X79995095Y-125736602D01*
X80053852Y-125878452D01*
X80092620Y-125972047D01*
X80228362Y-126193559D01*
X80397085Y-126391108D01*
X80594634Y-126559831D01*
X80816146Y-126695573D01*
X80820716Y-126697466D01*
X80820720Y-126697468D01*
X81051591Y-126793098D01*
X81056164Y-126794992D01*
X81144498Y-126816199D01*
X81303967Y-126854485D01*
X81303973Y-126854486D01*
X81308780Y-126855640D01*
X81567774Y-126876023D01*
X81572704Y-126875635D01*
X81572712Y-126875635D01*
X81573144Y-126875601D01*
X81573306Y-126875635D01*
X81577660Y-126875635D01*
X81577660Y-126876550D01*
X81642624Y-126890195D01*
X81693185Y-126940036D01*
X81707662Y-127006585D01*
X81708610Y-127006585D01*
X81708610Y-127010945D01*
X81708644Y-127011101D01*
X81708610Y-127011533D01*
X81708610Y-127011541D01*
X81708222Y-127016471D01*
X81728605Y-127275465D01*
X81729759Y-127280272D01*
X81729760Y-127280278D01*
X81779211Y-127486254D01*
X81775664Y-127557162D01*
X81734344Y-127614896D01*
X81668371Y-127641126D01*
X81614528Y-127634403D01*
X81601989Y-127629951D01*
X81587865Y-127624935D01*
X81582843Y-127623030D01*
X80729733Y-127278460D01*
X80724795Y-127276342D01*
X79887152Y-126895711D01*
X79882308Y-126893384D01*
X79849100Y-126876550D01*
X79684473Y-126793098D01*
X79061662Y-126477384D01*
X79056922Y-126474853D01*
X78288739Y-126043331D01*
X78254747Y-126024236D01*
X78250124Y-126021508D01*
X77890545Y-125798831D01*
X77467894Y-125537096D01*
X77463387Y-125534170D01*
X77187654Y-125346695D01*
X76702507Y-125016835D01*
X76698153Y-125013737D01*
X75960051Y-124464451D01*
X75955812Y-124461154D01*
X75910099Y-124424004D01*
X75241784Y-123880882D01*
X75237691Y-123877408D01*
X75178546Y-123825000D01*
X74898451Y-123576812D01*
X74549060Y-123267222D01*
X74545115Y-123263573D01*
X74243216Y-122972162D01*
X73883133Y-122624587D01*
X73879358Y-122620785D01*
X73875840Y-122617086D01*
X73245208Y-121954137D01*
X73241592Y-121950170D01*
X73155606Y-121851689D01*
X73007229Y-121681752D01*
X76373590Y-121681752D01*
X76376655Y-121701104D01*
X76409680Y-121802743D01*
X76418575Y-121820201D01*
X76465575Y-121884891D01*
X76471992Y-121892404D01*
X76937555Y-122357967D01*
X76951499Y-122365581D01*
X76953332Y-122365450D01*
X76959947Y-122361199D01*
X77680017Y-121641129D01*
X77687631Y-121627185D01*
X77687500Y-121625352D01*
X77683249Y-121618737D01*
X76963180Y-120898668D01*
X76949236Y-120891054D01*
X76947403Y-120891185D01*
X76940788Y-120895436D01*
X76471997Y-121364227D01*
X76465576Y-121371744D01*
X76418575Y-121436434D01*
X76409680Y-121453891D01*
X76376655Y-121555530D01*
X76373590Y-121574882D01*
X76373590Y-121681752D01*
X73007229Y-121681752D01*
X72636459Y-121257107D01*
X72633014Y-121252987D01*
X72113539Y-120604144D01*
X77238408Y-120604144D01*
X77238539Y-120605977D01*
X77242790Y-120612592D01*
X77962860Y-121332662D01*
X77976804Y-121340276D01*
X77978637Y-121340145D01*
X77985252Y-121335894D01*
X78705321Y-120615825D01*
X78712935Y-120601881D01*
X78712804Y-120600048D01*
X78708553Y-120593433D01*
X78239762Y-120124642D01*
X78232245Y-120118221D01*
X78167555Y-120071220D01*
X78150098Y-120062325D01*
X78048459Y-120029300D01*
X78029107Y-120026235D01*
X77922237Y-120026235D01*
X77902885Y-120029300D01*
X77801246Y-120062325D01*
X77783788Y-120071220D01*
X77719098Y-120118220D01*
X77711585Y-120124637D01*
X77246022Y-120590200D01*
X77238408Y-120604144D01*
X72113539Y-120604144D01*
X72057962Y-120534727D01*
X72054705Y-120530475D01*
X71510823Y-119788376D01*
X71507761Y-119784007D01*
X70995985Y-119019348D01*
X70993096Y-119014825D01*
X70809489Y-118713440D01*
X73470770Y-118713440D01*
X73485200Y-118933604D01*
X73486621Y-118939200D01*
X73486622Y-118939205D01*
X73538090Y-119141857D01*
X73539511Y-119147452D01*
X73541928Y-119152694D01*
X73541928Y-119152695D01*
X73580046Y-119235379D01*
X73631883Y-119347821D01*
X73759222Y-119528002D01*
X73917264Y-119681961D01*
X73922060Y-119685166D01*
X73922063Y-119685168D01*
X74006261Y-119741427D01*
X74100717Y-119804540D01*
X74106020Y-119806818D01*
X74106023Y-119806820D01*
X74298129Y-119889355D01*
X74303436Y-119891635D01*
X74383088Y-119909658D01*
X74512995Y-119939054D01*
X74513001Y-119939055D01*
X74518632Y-119940329D01*
X74524403Y-119940556D01*
X74524405Y-119940556D01*
X74592211Y-119943220D01*
X74739098Y-119948991D01*
X74848275Y-119933161D01*
X74951738Y-119918160D01*
X74951743Y-119918159D01*
X74957452Y-119917331D01*
X74962916Y-119915476D01*
X74962921Y-119915475D01*
X75160907Y-119848268D01*
X75160912Y-119848266D01*
X75166379Y-119846410D01*
X75358884Y-119738602D01*
X75528518Y-119597518D01*
X75669602Y-119427884D01*
X75777410Y-119235379D01*
X75779266Y-119229912D01*
X75779268Y-119229907D01*
X75846475Y-119031921D01*
X75846476Y-119031916D01*
X75848331Y-119026452D01*
X75849159Y-119020743D01*
X75849160Y-119020738D01*
X75868346Y-118888413D01*
X75879991Y-118808098D01*
X75881643Y-118745000D01*
X75861454Y-118525289D01*
X75843569Y-118461871D01*
X75810997Y-118346379D01*
X75801565Y-118312936D01*
X75703980Y-118115053D01*
X75571967Y-117938267D01*
X75409949Y-117788499D01*
X75223350Y-117670764D01*
X75018421Y-117589006D01*
X75012761Y-117587880D01*
X75012757Y-117587879D01*
X74807691Y-117547089D01*
X74807688Y-117547089D01*
X74802024Y-117545962D01*
X74796249Y-117545886D01*
X74796245Y-117545886D01*
X74685504Y-117544437D01*
X74581406Y-117543074D01*
X74575709Y-117544053D01*
X74575708Y-117544053D01*
X74369654Y-117579459D01*
X74369653Y-117579459D01*
X74363957Y-117580438D01*
X74156957Y-117656804D01*
X74151996Y-117659756D01*
X74151995Y-117659756D01*
X74146558Y-117662991D01*
X73967341Y-117769614D01*
X73801457Y-117915090D01*
X73664863Y-118088360D01*
X73562131Y-118283620D01*
X73496703Y-118494333D01*
X73470770Y-118713440D01*
X70809489Y-118713440D01*
X70514422Y-118229097D01*
X70511729Y-118224457D01*
X70343118Y-117919098D01*
X70066972Y-117418993D01*
X70064476Y-117414234D01*
X69654496Y-116590598D01*
X69652204Y-116585738D01*
X69625482Y-116525772D01*
X69277688Y-115745309D01*
X69275610Y-115740364D01*
X69257948Y-115695697D01*
X69063773Y-115204648D01*
X68937283Y-114884765D01*
X68935414Y-114879727D01*
X68826428Y-114565551D01*
X69786829Y-114565551D01*
X69801259Y-114785715D01*
X69802680Y-114791311D01*
X69802681Y-114791316D01*
X69841078Y-114942500D01*
X69855570Y-114999563D01*
X69857987Y-115004805D01*
X69857987Y-115004806D01*
X69896105Y-115087490D01*
X69947942Y-115199932D01*
X70075281Y-115380113D01*
X70233323Y-115534072D01*
X70238119Y-115537277D01*
X70238122Y-115537279D01*
X70322320Y-115593538D01*
X70416776Y-115656651D01*
X70422079Y-115658929D01*
X70422082Y-115658931D01*
X70611623Y-115740364D01*
X70619495Y-115743746D01*
X70699147Y-115761769D01*
X70829054Y-115791165D01*
X70829060Y-115791166D01*
X70834691Y-115792440D01*
X70840462Y-115792667D01*
X70840464Y-115792667D01*
X70908270Y-115795331D01*
X71055157Y-115801102D01*
X71164334Y-115785272D01*
X71267797Y-115770271D01*
X71267802Y-115770270D01*
X71273511Y-115769442D01*
X71278975Y-115767587D01*
X71278980Y-115767586D01*
X71476966Y-115700379D01*
X71476971Y-115700377D01*
X71482438Y-115698521D01*
X71674943Y-115590713D01*
X71844577Y-115449629D01*
X71937884Y-115337440D01*
X81025770Y-115337440D01*
X81040200Y-115557604D01*
X81041621Y-115563200D01*
X81041622Y-115563205D01*
X81087798Y-115745021D01*
X81094511Y-115771452D01*
X81096928Y-115776694D01*
X81096928Y-115776695D01*
X81121066Y-115829053D01*
X81186883Y-115971821D01*
X81314222Y-116152002D01*
X81472264Y-116305961D01*
X81477060Y-116309166D01*
X81477063Y-116309168D01*
X81623226Y-116406830D01*
X81655717Y-116428540D01*
X81661020Y-116430818D01*
X81661023Y-116430820D01*
X81835125Y-116505620D01*
X81858436Y-116515635D01*
X81895696Y-116524066D01*
X81957722Y-116558609D01*
X81991227Y-116621202D01*
X81993617Y-116638710D01*
X81994200Y-116647604D01*
X81995621Y-116653200D01*
X81995622Y-116653205D01*
X82029055Y-116784845D01*
X82048511Y-116861452D01*
X82050928Y-116866694D01*
X82050928Y-116866695D01*
X82089046Y-116949379D01*
X82140883Y-117061821D01*
X82268222Y-117242002D01*
X82426264Y-117395961D01*
X82431060Y-117399166D01*
X82431063Y-117399168D01*
X82515261Y-117455427D01*
X82609717Y-117518540D01*
X82615020Y-117520818D01*
X82615023Y-117520820D01*
X82753788Y-117580438D01*
X82812436Y-117605635D01*
X82892088Y-117623658D01*
X83021995Y-117653054D01*
X83022001Y-117653055D01*
X83027632Y-117654329D01*
X83033403Y-117654556D01*
X83033405Y-117654556D01*
X83101211Y-117657220D01*
X83248098Y-117662991D01*
X83357275Y-117647161D01*
X83460738Y-117632160D01*
X83460743Y-117632159D01*
X83466452Y-117631331D01*
X83471916Y-117629476D01*
X83471921Y-117629475D01*
X83669907Y-117562268D01*
X83669912Y-117562266D01*
X83675379Y-117560410D01*
X83699166Y-117547089D01*
X83755875Y-117515330D01*
X83867884Y-117452602D01*
X83908295Y-117418993D01*
X84033086Y-117315204D01*
X84037518Y-117311518D01*
X84178602Y-117141884D01*
X84286410Y-116949379D01*
X84288266Y-116943912D01*
X84288268Y-116943907D01*
X84355475Y-116745921D01*
X84355476Y-116745916D01*
X84357331Y-116740452D01*
X84358159Y-116734743D01*
X84358160Y-116734738D01*
X84386323Y-116540500D01*
X84388991Y-116522098D01*
X84390643Y-116459000D01*
X84370454Y-116239289D01*
X84310565Y-116026936D01*
X84212980Y-115829053D01*
X84192375Y-115801459D01*
X84084420Y-115656891D01*
X84084420Y-115656890D01*
X84080967Y-115652267D01*
X83956574Y-115537279D01*
X83923189Y-115506418D01*
X83923186Y-115506416D01*
X83918949Y-115502499D01*
X83732350Y-115384764D01*
X83527421Y-115303006D01*
X83521654Y-115301859D01*
X83521058Y-115301740D01*
X83520761Y-115301585D01*
X83516215Y-115300238D01*
X83516479Y-115299345D01*
X83458148Y-115268834D01*
X83423016Y-115207139D01*
X83420167Y-115189692D01*
X83416983Y-115155046D01*
X83416454Y-115149289D01*
X83356565Y-114936936D01*
X83258980Y-114739053D01*
X83197335Y-114656500D01*
X83130420Y-114566891D01*
X83130420Y-114566890D01*
X83126967Y-114562267D01*
X82964949Y-114412499D01*
X82778350Y-114294764D01*
X82573421Y-114213006D01*
X82567761Y-114211880D01*
X82567757Y-114211879D01*
X82362691Y-114171089D01*
X82362688Y-114171089D01*
X82357024Y-114169962D01*
X82351249Y-114169886D01*
X82351245Y-114169886D01*
X82240504Y-114168437D01*
X82136406Y-114167074D01*
X82130709Y-114168053D01*
X82130708Y-114168053D01*
X81924654Y-114203459D01*
X81924653Y-114203459D01*
X81918957Y-114204438D01*
X81711957Y-114280804D01*
X81706996Y-114283756D01*
X81706995Y-114283756D01*
X81539918Y-114383157D01*
X81522341Y-114393614D01*
X81356457Y-114539090D01*
X81219863Y-114712360D01*
X81117131Y-114907620D01*
X81051703Y-115118333D01*
X81025770Y-115337440D01*
X71937884Y-115337440D01*
X71942654Y-115331705D01*
X71981967Y-115284437D01*
X71981969Y-115284434D01*
X71985661Y-115279995D01*
X72093469Y-115087490D01*
X72095325Y-115082023D01*
X72095327Y-115082018D01*
X72162534Y-114884032D01*
X72162535Y-114884027D01*
X72164390Y-114878563D01*
X72165218Y-114872854D01*
X72165219Y-114872849D01*
X72185289Y-114734426D01*
X72196050Y-114660209D01*
X72197702Y-114597111D01*
X72177513Y-114377400D01*
X72117624Y-114165047D01*
X72020039Y-113967164D01*
X72004214Y-113945971D01*
X71891479Y-113795002D01*
X71891479Y-113795001D01*
X71888026Y-113790378D01*
X71747683Y-113660646D01*
X71730248Y-113644529D01*
X71730245Y-113644527D01*
X71726008Y-113640610D01*
X71539409Y-113522875D01*
X71334480Y-113441117D01*
X71328820Y-113439991D01*
X71328816Y-113439990D01*
X71123750Y-113399200D01*
X71123747Y-113399200D01*
X71118083Y-113398073D01*
X71112308Y-113397997D01*
X71112304Y-113397997D01*
X71001563Y-113396548D01*
X70897465Y-113395185D01*
X70891768Y-113396164D01*
X70891767Y-113396164D01*
X70685713Y-113431570D01*
X70685712Y-113431570D01*
X70680016Y-113432549D01*
X70473016Y-113508915D01*
X70468055Y-113511867D01*
X70468054Y-113511867D01*
X70315997Y-113602332D01*
X70283400Y-113621725D01*
X70117516Y-113767201D01*
X69980922Y-113940471D01*
X69878190Y-114135731D01*
X69812762Y-114346444D01*
X69786829Y-114565551D01*
X68826428Y-114565551D01*
X68633871Y-114010465D01*
X68632219Y-114005352D01*
X68508598Y-113592983D01*
X68368012Y-113124018D01*
X68366584Y-113118857D01*
X68361650Y-113099418D01*
X68238206Y-112613141D01*
X74110069Y-112613141D01*
X74124499Y-112833305D01*
X74125920Y-112838901D01*
X74125921Y-112838906D01*
X74150971Y-112937537D01*
X74178810Y-113047153D01*
X74181227Y-113052395D01*
X74181227Y-113052396D01*
X74219345Y-113135080D01*
X74271182Y-113247522D01*
X74398521Y-113427703D01*
X74556563Y-113581662D01*
X74561359Y-113584867D01*
X74561362Y-113584869D01*
X74674771Y-113660646D01*
X74740016Y-113704241D01*
X74745319Y-113706519D01*
X74745322Y-113706521D01*
X74886559Y-113767201D01*
X74942735Y-113791336D01*
X75022387Y-113809359D01*
X75152294Y-113838755D01*
X75152300Y-113838756D01*
X75157931Y-113840030D01*
X75163702Y-113840257D01*
X75163704Y-113840257D01*
X75231510Y-113842921D01*
X75378397Y-113848692D01*
X75487574Y-113832862D01*
X75591037Y-113817861D01*
X75591042Y-113817860D01*
X75596751Y-113817032D01*
X75602215Y-113815177D01*
X75602220Y-113815176D01*
X75800206Y-113747969D01*
X75800211Y-113747967D01*
X75805678Y-113746111D01*
X75998183Y-113638303D01*
X76036093Y-113606774D01*
X76163385Y-113500905D01*
X76167817Y-113497219D01*
X76229555Y-113422988D01*
X76305207Y-113332027D01*
X76305209Y-113332024D01*
X76308901Y-113327585D01*
X76416709Y-113135080D01*
X76418565Y-113129613D01*
X76418567Y-113129608D01*
X76485774Y-112931622D01*
X76485775Y-112931617D01*
X76487630Y-112926153D01*
X76488458Y-112920444D01*
X76488459Y-112920439D01*
X76511421Y-112762071D01*
X76519290Y-112707799D01*
X76520942Y-112644701D01*
X76500753Y-112424990D01*
X76496889Y-112411287D01*
X76461237Y-112284874D01*
X76440864Y-112212637D01*
X76343279Y-112014754D01*
X76325991Y-111991602D01*
X76214719Y-111842592D01*
X76214719Y-111842591D01*
X76211266Y-111837968D01*
X76113314Y-111747422D01*
X76053488Y-111692119D01*
X76053485Y-111692117D01*
X76049248Y-111688200D01*
X75862649Y-111570465D01*
X75657720Y-111488707D01*
X75652060Y-111487581D01*
X75652056Y-111487580D01*
X75446990Y-111446790D01*
X75446987Y-111446790D01*
X75441323Y-111445663D01*
X75435548Y-111445587D01*
X75435544Y-111445587D01*
X75324803Y-111444138D01*
X75220705Y-111442775D01*
X75215008Y-111443754D01*
X75215007Y-111443754D01*
X75008953Y-111479160D01*
X75008952Y-111479160D01*
X75003256Y-111480139D01*
X74796256Y-111556505D01*
X74791295Y-111559457D01*
X74791294Y-111559457D01*
X74711036Y-111607206D01*
X74606640Y-111669315D01*
X74440756Y-111814791D01*
X74304162Y-111988061D01*
X74201430Y-112183321D01*
X74136002Y-112394034D01*
X74110069Y-112613141D01*
X68238206Y-112613141D01*
X68190443Y-112424990D01*
X68140204Y-112227086D01*
X68138993Y-112221851D01*
X67996318Y-111538921D01*
X67950839Y-111321226D01*
X67949853Y-111315951D01*
X67934116Y-111220440D01*
X79058770Y-111220440D01*
X79073200Y-111440604D01*
X79074621Y-111446200D01*
X79074622Y-111446205D01*
X79115512Y-111607206D01*
X79127511Y-111654452D01*
X79129928Y-111659694D01*
X79129928Y-111659695D01*
X79168046Y-111742379D01*
X79219883Y-111854821D01*
X79347222Y-112035002D01*
X79505264Y-112188961D01*
X79510060Y-112192166D01*
X79510063Y-112192168D01*
X79594261Y-112248427D01*
X79688717Y-112311540D01*
X79694020Y-112313818D01*
X79694023Y-112313820D01*
X79867886Y-112388517D01*
X79891436Y-112398635D01*
X79947350Y-112411287D01*
X80100995Y-112446054D01*
X80101001Y-112446055D01*
X80106632Y-112447329D01*
X80112403Y-112447556D01*
X80112405Y-112447556D01*
X80180211Y-112450220D01*
X80327098Y-112455991D01*
X80436275Y-112440161D01*
X80539738Y-112425160D01*
X80539743Y-112425159D01*
X80545452Y-112424331D01*
X80550916Y-112422476D01*
X80550921Y-112422475D01*
X80748907Y-112355268D01*
X80748912Y-112355266D01*
X80754379Y-112353410D01*
X80783446Y-112337132D01*
X80929731Y-112255208D01*
X80946884Y-112245602D01*
X80957665Y-112236636D01*
X81095552Y-112121955D01*
X81116518Y-112104518D01*
X81154434Y-112058929D01*
X81253908Y-111939326D01*
X81253910Y-111939323D01*
X81257602Y-111934884D01*
X81365410Y-111742379D01*
X81367266Y-111736912D01*
X81367268Y-111736907D01*
X81434475Y-111538921D01*
X81434476Y-111538916D01*
X81436331Y-111533452D01*
X81437159Y-111527743D01*
X81437160Y-111527738D01*
X81456346Y-111395413D01*
X81467991Y-111315098D01*
X81469643Y-111252000D01*
X81449454Y-111032289D01*
X81418867Y-110923835D01*
X81419627Y-110852844D01*
X81441900Y-110811589D01*
X81441869Y-110811568D01*
X81442068Y-110811279D01*
X81443264Y-110809063D01*
X81445143Y-110806804D01*
X81445144Y-110806802D01*
X81448838Y-110802361D01*
X81531555Y-110654660D01*
X81553822Y-110614899D01*
X81553823Y-110614897D01*
X81556646Y-110609856D01*
X81558502Y-110604389D01*
X81558504Y-110604384D01*
X81625711Y-110406398D01*
X81625712Y-110406393D01*
X81627567Y-110400929D01*
X81628395Y-110395220D01*
X81628396Y-110395215D01*
X81649997Y-110246234D01*
X81659227Y-110182575D01*
X81660879Y-110119477D01*
X81640690Y-109899766D01*
X81580801Y-109687413D01*
X81483216Y-109489530D01*
X81469717Y-109471452D01*
X81354656Y-109317368D01*
X81354656Y-109317367D01*
X81351203Y-109312744D01*
X81238890Y-109208923D01*
X81193425Y-109166895D01*
X81193422Y-109166893D01*
X81189185Y-109162976D01*
X81002586Y-109045241D01*
X80797657Y-108963483D01*
X80791997Y-108962357D01*
X80791993Y-108962356D01*
X80586927Y-108921566D01*
X80586924Y-108921566D01*
X80581260Y-108920439D01*
X80575485Y-108920363D01*
X80575481Y-108920363D01*
X80464740Y-108918914D01*
X80360642Y-108917551D01*
X80354945Y-108918530D01*
X80354944Y-108918530D01*
X80148890Y-108953936D01*
X80148889Y-108953936D01*
X80143193Y-108954915D01*
X79936193Y-109031281D01*
X79931232Y-109034233D01*
X79931231Y-109034233D01*
X79834257Y-109091927D01*
X79746577Y-109144091D01*
X79580693Y-109289567D01*
X79444099Y-109462837D01*
X79341367Y-109658097D01*
X79275939Y-109868810D01*
X79250006Y-110087917D01*
X79264436Y-110308081D01*
X79295922Y-110432053D01*
X79301504Y-110454033D01*
X79298886Y-110524981D01*
X79278333Y-110563051D01*
X79252863Y-110595360D01*
X79150131Y-110790620D01*
X79084703Y-111001333D01*
X79058770Y-111220440D01*
X67934116Y-111220440D01*
X67800266Y-110408086D01*
X67799508Y-110402781D01*
X67799284Y-110400929D01*
X67688773Y-109489415D01*
X67688240Y-109484068D01*
X67653333Y-109037440D01*
X74175770Y-109037440D01*
X74190200Y-109257604D01*
X74191621Y-109263200D01*
X74191622Y-109263205D01*
X74219876Y-109374452D01*
X74244511Y-109471452D01*
X74336883Y-109671821D01*
X74464222Y-109852002D01*
X74622264Y-110005961D01*
X74627060Y-110009166D01*
X74627063Y-110009168D01*
X74723309Y-110073477D01*
X74805717Y-110128540D01*
X74811020Y-110130818D01*
X74811023Y-110130820D01*
X75003129Y-110213355D01*
X75008436Y-110215635D01*
X75088088Y-110233658D01*
X75217995Y-110263054D01*
X75218001Y-110263055D01*
X75223632Y-110264329D01*
X75229403Y-110264556D01*
X75229405Y-110264556D01*
X75297211Y-110267220D01*
X75444098Y-110272991D01*
X75553275Y-110257161D01*
X75656738Y-110242160D01*
X75656743Y-110242159D01*
X75662452Y-110241331D01*
X75667916Y-110239476D01*
X75667921Y-110239475D01*
X75865907Y-110172268D01*
X75865912Y-110172266D01*
X75871379Y-110170410D01*
X75881331Y-110164837D01*
X76008385Y-110093683D01*
X76063884Y-110062602D01*
X76084546Y-110045418D01*
X76229086Y-109925204D01*
X76233518Y-109921518D01*
X76374602Y-109751884D01*
X76377426Y-109746842D01*
X76379308Y-109744103D01*
X76434374Y-109699291D01*
X76504927Y-109691363D01*
X76568566Y-109722838D01*
X76586047Y-109742747D01*
X76680222Y-109876002D01*
X76838264Y-110029961D01*
X76843060Y-110033166D01*
X76843063Y-110033168D01*
X76977778Y-110123181D01*
X77021717Y-110152540D01*
X77027020Y-110154818D01*
X77027023Y-110154820D01*
X77216967Y-110236426D01*
X77224436Y-110239635D01*
X77304088Y-110257658D01*
X77433995Y-110287054D01*
X77434001Y-110287055D01*
X77439632Y-110288329D01*
X77445403Y-110288556D01*
X77445405Y-110288556D01*
X77513211Y-110291220D01*
X77660098Y-110296991D01*
X77769275Y-110281161D01*
X77872738Y-110266160D01*
X77872743Y-110266159D01*
X77878452Y-110265331D01*
X77883916Y-110263476D01*
X77883921Y-110263475D01*
X78081907Y-110196268D01*
X78081912Y-110196266D01*
X78087379Y-110194410D01*
X78092992Y-110191267D01*
X78210730Y-110125330D01*
X78279884Y-110086602D01*
X78285199Y-110082182D01*
X78445086Y-109949204D01*
X78449518Y-109945518D01*
X78527295Y-109852002D01*
X78586908Y-109780326D01*
X78586910Y-109780323D01*
X78590602Y-109775884D01*
X78698410Y-109583379D01*
X78700266Y-109577912D01*
X78700268Y-109577907D01*
X78767475Y-109379921D01*
X78767476Y-109379916D01*
X78769331Y-109374452D01*
X78770159Y-109368743D01*
X78770160Y-109368738D01*
X78794804Y-109198768D01*
X78800991Y-109156098D01*
X78802643Y-109093000D01*
X78789865Y-108953936D01*
X78782983Y-108879042D01*
X78782982Y-108879038D01*
X78782454Y-108873289D01*
X78780887Y-108867733D01*
X78780886Y-108867727D01*
X78774444Y-108844886D01*
X78775204Y-108773894D01*
X78814224Y-108714582D01*
X78855211Y-108691371D01*
X78896196Y-108677458D01*
X78901664Y-108675602D01*
X79094169Y-108567794D01*
X79098622Y-108564091D01*
X79259371Y-108430396D01*
X79263803Y-108426710D01*
X79322233Y-108356456D01*
X79401193Y-108261518D01*
X79401195Y-108261515D01*
X79404887Y-108257076D01*
X79480856Y-108121424D01*
X79509871Y-108069614D01*
X79509872Y-108069612D01*
X79512695Y-108064571D01*
X79514551Y-108059104D01*
X79514553Y-108059099D01*
X79581760Y-107861113D01*
X79581761Y-107861108D01*
X79583616Y-107855644D01*
X79584444Y-107849935D01*
X79584445Y-107849930D01*
X79614743Y-107640964D01*
X79615276Y-107637290D01*
X79616928Y-107574192D01*
X79596739Y-107354481D01*
X79536850Y-107142128D01*
X79439265Y-106944245D01*
X79403452Y-106896285D01*
X79310705Y-106772083D01*
X79310705Y-106772082D01*
X79307252Y-106767459D01*
X79199505Y-106667859D01*
X79149474Y-106621610D01*
X79149471Y-106621608D01*
X79145234Y-106617691D01*
X78958635Y-106499956D01*
X78753706Y-106418198D01*
X78748046Y-106417072D01*
X78748042Y-106417071D01*
X78542976Y-106376281D01*
X78542973Y-106376281D01*
X78537309Y-106375154D01*
X78531534Y-106375078D01*
X78531530Y-106375078D01*
X78420789Y-106373629D01*
X78316691Y-106372266D01*
X78310994Y-106373245D01*
X78310993Y-106373245D01*
X78104939Y-106408651D01*
X78104938Y-106408651D01*
X78099242Y-106409630D01*
X77892242Y-106485996D01*
X77887281Y-106488948D01*
X77887280Y-106488948D01*
X77733438Y-106580475D01*
X77702626Y-106598806D01*
X77536742Y-106744282D01*
X77400148Y-106917552D01*
X77297416Y-107112812D01*
X77231988Y-107323525D01*
X77206055Y-107542632D01*
X77220485Y-107762796D01*
X77236546Y-107826036D01*
X77233928Y-107896982D01*
X77193368Y-107955252D01*
X77158034Y-107975262D01*
X77077957Y-108004804D01*
X77072996Y-108007756D01*
X77072995Y-108007756D01*
X76896939Y-108112499D01*
X76888341Y-108117614D01*
X76722457Y-108263090D01*
X76648854Y-108356456D01*
X76595651Y-108423944D01*
X76537770Y-108465057D01*
X76466850Y-108468351D01*
X76405407Y-108432779D01*
X76395743Y-108421327D01*
X76366691Y-108382421D01*
X76276967Y-108262267D01*
X76144706Y-108140006D01*
X76119189Y-108116418D01*
X76119186Y-108116416D01*
X76114949Y-108112499D01*
X75928350Y-107994764D01*
X75723421Y-107913006D01*
X75717761Y-107911880D01*
X75717757Y-107911879D01*
X75512691Y-107871089D01*
X75512688Y-107871089D01*
X75507024Y-107869962D01*
X75501249Y-107869886D01*
X75501245Y-107869886D01*
X75390504Y-107868437D01*
X75286406Y-107867074D01*
X75280709Y-107868053D01*
X75280708Y-107868053D01*
X75074654Y-107903459D01*
X75074653Y-107903459D01*
X75068957Y-107904438D01*
X74861957Y-107980804D01*
X74672341Y-108093614D01*
X74506457Y-108239090D01*
X74369863Y-108412360D01*
X74267131Y-108607620D01*
X74201703Y-108818333D01*
X74175770Y-109037440D01*
X67653333Y-109037440D01*
X67616548Y-108566784D01*
X67616244Y-108561419D01*
X67583730Y-107641949D01*
X67583654Y-107636576D01*
X67587439Y-107118330D01*
X67590375Y-106716496D01*
X67590528Y-106711142D01*
X67591574Y-106690234D01*
X67636472Y-105792211D01*
X67636854Y-105786858D01*
X67637638Y-105778422D01*
X67674250Y-105384206D01*
X67674786Y-105378440D01*
X71184770Y-105378440D01*
X71199200Y-105598604D01*
X71200621Y-105604200D01*
X71200622Y-105604205D01*
X71241512Y-105765206D01*
X71253511Y-105812452D01*
X71255928Y-105817694D01*
X71255928Y-105817695D01*
X71294046Y-105900379D01*
X71345883Y-106012821D01*
X71473222Y-106193002D01*
X71631264Y-106346961D01*
X71636060Y-106350166D01*
X71636063Y-106350168D01*
X71720261Y-106406427D01*
X71814717Y-106469540D01*
X71820020Y-106471818D01*
X71820023Y-106471820D01*
X72012129Y-106554355D01*
X72017436Y-106556635D01*
X72073350Y-106569287D01*
X72226995Y-106604054D01*
X72227001Y-106604055D01*
X72232632Y-106605329D01*
X72238403Y-106605556D01*
X72238405Y-106605556D01*
X72306211Y-106608220D01*
X72453098Y-106613991D01*
X72578200Y-106595852D01*
X72665738Y-106583160D01*
X72665743Y-106583159D01*
X72671452Y-106582331D01*
X72676916Y-106580476D01*
X72676921Y-106580475D01*
X72874907Y-106513268D01*
X72874912Y-106513266D01*
X72880379Y-106511410D01*
X72885992Y-106508267D01*
X73020920Y-106432703D01*
X73072884Y-106403602D01*
X73084645Y-106393821D01*
X73238086Y-106266204D01*
X73242518Y-106262518D01*
X73288744Y-106206938D01*
X73379908Y-106097326D01*
X73379910Y-106097323D01*
X73383602Y-106092884D01*
X73491410Y-105900379D01*
X73493266Y-105894912D01*
X73493268Y-105894907D01*
X73560475Y-105696921D01*
X73560476Y-105696916D01*
X73562331Y-105691452D01*
X73563159Y-105685743D01*
X73563160Y-105685738D01*
X73582346Y-105553413D01*
X73593991Y-105473098D01*
X73595643Y-105410000D01*
X73592743Y-105378440D01*
X74994770Y-105378440D01*
X75009200Y-105598604D01*
X75010621Y-105604200D01*
X75010622Y-105604205D01*
X75051512Y-105765206D01*
X75063511Y-105812452D01*
X75065928Y-105817694D01*
X75065928Y-105817695D01*
X75104046Y-105900379D01*
X75155883Y-106012821D01*
X75283222Y-106193002D01*
X75441264Y-106346961D01*
X75446060Y-106350166D01*
X75446063Y-106350168D01*
X75530261Y-106406427D01*
X75624717Y-106469540D01*
X75630020Y-106471818D01*
X75630023Y-106471820D01*
X75822129Y-106554355D01*
X75827436Y-106556635D01*
X75883350Y-106569287D01*
X76036995Y-106604054D01*
X76037001Y-106604055D01*
X76042632Y-106605329D01*
X76048403Y-106605556D01*
X76048405Y-106605556D01*
X76116211Y-106608220D01*
X76263098Y-106613991D01*
X76388200Y-106595852D01*
X76475738Y-106583160D01*
X76475743Y-106583159D01*
X76481452Y-106582331D01*
X76486916Y-106580476D01*
X76486921Y-106580475D01*
X76684907Y-106513268D01*
X76684912Y-106513266D01*
X76690379Y-106511410D01*
X76695992Y-106508267D01*
X76830920Y-106432703D01*
X76882884Y-106403602D01*
X76894645Y-106393821D01*
X77048086Y-106266204D01*
X77052518Y-106262518D01*
X77098744Y-106206938D01*
X82233770Y-106206938D01*
X82248200Y-106427102D01*
X82249621Y-106432698D01*
X82249622Y-106432703D01*
X82295664Y-106613991D01*
X82302511Y-106640950D01*
X82304928Y-106646192D01*
X82304928Y-106646193D01*
X82360833Y-106767459D01*
X82394883Y-106841319D01*
X82522222Y-107021500D01*
X82680264Y-107175459D01*
X82685060Y-107178664D01*
X82685063Y-107178666D01*
X82769261Y-107234925D01*
X82863717Y-107298038D01*
X82869020Y-107300316D01*
X82869023Y-107300318D01*
X83008491Y-107360238D01*
X83066436Y-107385133D01*
X83146088Y-107403156D01*
X83275995Y-107432552D01*
X83276001Y-107432553D01*
X83281632Y-107433827D01*
X83287403Y-107434054D01*
X83287405Y-107434054D01*
X83355211Y-107436718D01*
X83502098Y-107442489D01*
X83614703Y-107426162D01*
X83714738Y-107411658D01*
X83714743Y-107411657D01*
X83720452Y-107410829D01*
X83725916Y-107408974D01*
X83725921Y-107408973D01*
X83923907Y-107341766D01*
X83923912Y-107341764D01*
X83929379Y-107339908D01*
X83980020Y-107311548D01*
X84040450Y-107277705D01*
X84121884Y-107232100D01*
X84291518Y-107091016D01*
X84349334Y-107021500D01*
X84428908Y-106925824D01*
X84428910Y-106925821D01*
X84432602Y-106921382D01*
X84515457Y-106773434D01*
X84537586Y-106733920D01*
X84537587Y-106733918D01*
X84540410Y-106728877D01*
X84542266Y-106723410D01*
X84542268Y-106723405D01*
X84609475Y-106525419D01*
X84609476Y-106525414D01*
X84611331Y-106519950D01*
X84612159Y-106514241D01*
X84612160Y-106514236D01*
X84642458Y-106305270D01*
X84642991Y-106301596D01*
X84644643Y-106238498D01*
X84624454Y-106018787D01*
X84622772Y-106012821D01*
X84566134Y-105811998D01*
X84564565Y-105806434D01*
X84466980Y-105608551D01*
X84438134Y-105569921D01*
X84338420Y-105436389D01*
X84338420Y-105436388D01*
X84334967Y-105431765D01*
X84172949Y-105281997D01*
X83986350Y-105164262D01*
X83781421Y-105082504D01*
X83775761Y-105081378D01*
X83775757Y-105081377D01*
X83570691Y-105040587D01*
X83570688Y-105040587D01*
X83565024Y-105039460D01*
X83559249Y-105039384D01*
X83559245Y-105039384D01*
X83448504Y-105037935D01*
X83344406Y-105036572D01*
X83338709Y-105037551D01*
X83338708Y-105037551D01*
X83132654Y-105072957D01*
X83132653Y-105072957D01*
X83126957Y-105073936D01*
X82919957Y-105150302D01*
X82914996Y-105153254D01*
X82914995Y-105153254D01*
X82896513Y-105164250D01*
X82730341Y-105263112D01*
X82564457Y-105408588D01*
X82427863Y-105581858D01*
X82325131Y-105777118D01*
X82314160Y-105812452D01*
X82262258Y-105979604D01*
X82259703Y-105987831D01*
X82233770Y-106206938D01*
X77098744Y-106206938D01*
X77189908Y-106097326D01*
X77189910Y-106097323D01*
X77193602Y-106092884D01*
X77301410Y-105900379D01*
X77303266Y-105894912D01*
X77303268Y-105894907D01*
X77370475Y-105696921D01*
X77370476Y-105696916D01*
X77372331Y-105691452D01*
X77373159Y-105685743D01*
X77373160Y-105685738D01*
X77392346Y-105553413D01*
X77403991Y-105473098D01*
X77405643Y-105410000D01*
X77385454Y-105190289D01*
X77325565Y-104977936D01*
X77227980Y-104780053D01*
X77095967Y-104603267D01*
X76986241Y-104501837D01*
X76938189Y-104457418D01*
X76938186Y-104457416D01*
X76933949Y-104453499D01*
X76747350Y-104335764D01*
X76542421Y-104254006D01*
X76536761Y-104252880D01*
X76536757Y-104252879D01*
X76331691Y-104212089D01*
X76331688Y-104212089D01*
X76326024Y-104210962D01*
X76320249Y-104210886D01*
X76320245Y-104210886D01*
X76209504Y-104209437D01*
X76105406Y-104208074D01*
X76099709Y-104209053D01*
X76099708Y-104209053D01*
X75893654Y-104244459D01*
X75893653Y-104244459D01*
X75887957Y-104245438D01*
X75680957Y-104321804D01*
X75675996Y-104324756D01*
X75675995Y-104324756D01*
X75519946Y-104417596D01*
X75491341Y-104434614D01*
X75325457Y-104580090D01*
X75188863Y-104753360D01*
X75086131Y-104948620D01*
X75020703Y-105159333D01*
X74994770Y-105378440D01*
X73592743Y-105378440D01*
X73575454Y-105190289D01*
X73515565Y-104977936D01*
X73417980Y-104780053D01*
X73285967Y-104603267D01*
X73176241Y-104501837D01*
X73128189Y-104457418D01*
X73128186Y-104457416D01*
X73123949Y-104453499D01*
X72937350Y-104335764D01*
X72732421Y-104254006D01*
X72726761Y-104252880D01*
X72726757Y-104252879D01*
X72521691Y-104212089D01*
X72521688Y-104212089D01*
X72516024Y-104210962D01*
X72510249Y-104210886D01*
X72510245Y-104210886D01*
X72399504Y-104209437D01*
X72295406Y-104208074D01*
X72289709Y-104209053D01*
X72289708Y-104209053D01*
X72083654Y-104244459D01*
X72083653Y-104244459D01*
X72077957Y-104245438D01*
X71870957Y-104321804D01*
X71865996Y-104324756D01*
X71865995Y-104324756D01*
X71709946Y-104417596D01*
X71681341Y-104434614D01*
X71515457Y-104580090D01*
X71378863Y-104753360D01*
X71276131Y-104948620D01*
X71210703Y-105159333D01*
X71184770Y-105378440D01*
X67674786Y-105378440D01*
X67721938Y-104870738D01*
X67722549Y-104865399D01*
X67846616Y-103953736D01*
X67847454Y-103948429D01*
X67996218Y-103121089D01*
X68010280Y-103042883D01*
X68011341Y-103037626D01*
X68212638Y-102139816D01*
X68213926Y-102134599D01*
X68433753Y-101318808D01*
X68453307Y-101246241D01*
X68454812Y-101241093D01*
X68459414Y-101226520D01*
X68731870Y-100363699D01*
X68733593Y-100358622D01*
X68750586Y-100311856D01*
X69047794Y-99493882D01*
X69049734Y-99488875D01*
X69060787Y-99462076D01*
X69267567Y-98960691D01*
X69400537Y-98638277D01*
X69402692Y-98633354D01*
X69692610Y-98007518D01*
X69789427Y-97798524D01*
X69791788Y-97793700D01*
X70213771Y-96976113D01*
X70216337Y-96971391D01*
X70672799Y-96172534D01*
X70675564Y-96167926D01*
X70808979Y-95955962D01*
X71165681Y-95389248D01*
X71168615Y-95384799D01*
X71691498Y-94627712D01*
X71694645Y-94623357D01*
X71774244Y-94518012D01*
X72249310Y-93889283D01*
X72252640Y-93885066D01*
X72838098Y-93175313D01*
X72841605Y-93171241D01*
X73456802Y-92487087D01*
X73460480Y-92483169D01*
X74104296Y-91825861D01*
X74108137Y-91822103D01*
X74779385Y-91192852D01*
X74783358Y-91189283D01*
X75480878Y-90589181D01*
X75484958Y-90585820D01*
X76207415Y-90016017D01*
X76211642Y-90012825D01*
X76387120Y-89886178D01*
X76454060Y-89862532D01*
X76523161Y-89878831D01*
X76572480Y-89929901D01*
X76586359Y-89999528D01*
X76572364Y-90047017D01*
X76483131Y-90216620D01*
X76417703Y-90427333D01*
X76391770Y-90646440D01*
X76392148Y-90652206D01*
X76404543Y-90841315D01*
X76406200Y-90866604D01*
X76407621Y-90872200D01*
X76407622Y-90872205D01*
X76451571Y-91045250D01*
X76460511Y-91080452D01*
X76462928Y-91085694D01*
X76462928Y-91085695D01*
X76499238Y-91164457D01*
X76552883Y-91280821D01*
X76556216Y-91285537D01*
X76673397Y-91451345D01*
X76696500Y-91524065D01*
X76696500Y-91712361D01*
X76676498Y-91780482D01*
X76622842Y-91826975D01*
X76552568Y-91837079D01*
X76487988Y-91807585D01*
X76469543Y-91787751D01*
X76464422Y-91780893D01*
X76464419Y-91780889D01*
X76460967Y-91776267D01*
X76298949Y-91626499D01*
X76112350Y-91508764D01*
X75907421Y-91427006D01*
X75901761Y-91425880D01*
X75901757Y-91425879D01*
X75696691Y-91385089D01*
X75696688Y-91385089D01*
X75691024Y-91383962D01*
X75685249Y-91383886D01*
X75685245Y-91383886D01*
X75574504Y-91382437D01*
X75470406Y-91381074D01*
X75464709Y-91382053D01*
X75464708Y-91382053D01*
X75258654Y-91417459D01*
X75258653Y-91417459D01*
X75252957Y-91418438D01*
X75045957Y-91494804D01*
X75040996Y-91497756D01*
X75040995Y-91497756D01*
X74883551Y-91591426D01*
X74856341Y-91607614D01*
X74690457Y-91753090D01*
X74553863Y-91926360D01*
X74451131Y-92121620D01*
X74385703Y-92332333D01*
X74359770Y-92551440D01*
X74374200Y-92771604D01*
X74375621Y-92777200D01*
X74375622Y-92777205D01*
X74401562Y-92879342D01*
X74428511Y-92985452D01*
X74520883Y-93185821D01*
X74524216Y-93190537D01*
X74641397Y-93356345D01*
X74664500Y-93429065D01*
X74664500Y-94372213D01*
X74662949Y-94391923D01*
X74660781Y-94405612D01*
X74661126Y-94412200D01*
X74661126Y-94412204D01*
X74664327Y-94473280D01*
X74664500Y-94479874D01*
X74664500Y-94500192D01*
X74664843Y-94503459D01*
X74664844Y-94503470D01*
X74666624Y-94520400D01*
X74667141Y-94526966D01*
X74670687Y-94594646D01*
X74674274Y-94608031D01*
X74677878Y-94627479D01*
X74679326Y-94641256D01*
X74681366Y-94647533D01*
X74681366Y-94647535D01*
X74700265Y-94705701D01*
X74702138Y-94712025D01*
X74717970Y-94771109D01*
X74717972Y-94771115D01*
X74719680Y-94777488D01*
X74722676Y-94783367D01*
X74722677Y-94783371D01*
X74725973Y-94789840D01*
X74733536Y-94808097D01*
X74737821Y-94821284D01*
X74741121Y-94826999D01*
X74741121Y-94827000D01*
X74771703Y-94879971D01*
X74774849Y-94885766D01*
X74802619Y-94940266D01*
X74805617Y-94946149D01*
X74809771Y-94951278D01*
X74809771Y-94951279D01*
X74814339Y-94956920D01*
X74825534Y-94973209D01*
X74832467Y-94985216D01*
X74836888Y-94990126D01*
X74877815Y-95035580D01*
X74882099Y-95040596D01*
X74894881Y-95056380D01*
X74909230Y-95070729D01*
X74913771Y-95075513D01*
X74959129Y-95125888D01*
X74970351Y-95134041D01*
X74985379Y-95146878D01*
X85343595Y-105505095D01*
X85377621Y-105567407D01*
X85380500Y-105594190D01*
X85380500Y-107311548D01*
X85360498Y-107379669D01*
X85306842Y-107426162D01*
X85280697Y-107434228D01*
X85280730Y-107434351D01*
X85277457Y-107435228D01*
X85275837Y-107435728D01*
X85269457Y-107436824D01*
X85062457Y-107513190D01*
X85057496Y-107516142D01*
X85057495Y-107516142D01*
X85012970Y-107542632D01*
X84872841Y-107626000D01*
X84706957Y-107771476D01*
X84570363Y-107944746D01*
X84467631Y-108140006D01*
X84402203Y-108350719D01*
X84376270Y-108569826D01*
X84390700Y-108789990D01*
X84392121Y-108795586D01*
X84392122Y-108795591D01*
X84443590Y-108998243D01*
X84445011Y-109003838D01*
X84447428Y-109009080D01*
X84447428Y-109009081D01*
X84487823Y-109096704D01*
X84537383Y-109204207D01*
X84664722Y-109384388D01*
X84822764Y-109538347D01*
X84827560Y-109541552D01*
X84827563Y-109541554D01*
X84973726Y-109639216D01*
X85006217Y-109660926D01*
X85011520Y-109663204D01*
X85011523Y-109663206D01*
X85203629Y-109745741D01*
X85208936Y-109748021D01*
X85214571Y-109749296D01*
X85214574Y-109749297D01*
X85247402Y-109756725D01*
X85282308Y-109764623D01*
X85344334Y-109799165D01*
X85377839Y-109861759D01*
X85380500Y-109887516D01*
X85380500Y-113438213D01*
X85378949Y-113457923D01*
X85376781Y-113471612D01*
X85377126Y-113478200D01*
X85377126Y-113478204D01*
X85380327Y-113539280D01*
X85380500Y-113545874D01*
X85380500Y-113566192D01*
X85380843Y-113569459D01*
X85380844Y-113569470D01*
X85382624Y-113586400D01*
X85383141Y-113592966D01*
X85383864Y-113606774D01*
X85385476Y-113637528D01*
X85386687Y-113660646D01*
X85390274Y-113674031D01*
X85393878Y-113693479D01*
X85395326Y-113707256D01*
X85397366Y-113713533D01*
X85397366Y-113713535D01*
X85416265Y-113771701D01*
X85418138Y-113778025D01*
X85433970Y-113837109D01*
X85433972Y-113837115D01*
X85435680Y-113843488D01*
X85438676Y-113849367D01*
X85438677Y-113849371D01*
X85441973Y-113855840D01*
X85449536Y-113874097D01*
X85453821Y-113887284D01*
X85457121Y-113892999D01*
X85457121Y-113893000D01*
X85487703Y-113945971D01*
X85490849Y-113951766D01*
X85518619Y-114006266D01*
X85521617Y-114012149D01*
X85525771Y-114017278D01*
X85525771Y-114017279D01*
X85530339Y-114022920D01*
X85541534Y-114039209D01*
X85548467Y-114051216D01*
X85552888Y-114056126D01*
X85593815Y-114101580D01*
X85598099Y-114106596D01*
X85610881Y-114122380D01*
X85625230Y-114136729D01*
X85629771Y-114141513D01*
X85655387Y-114169962D01*
X85675129Y-114191888D01*
X85686351Y-114200041D01*
X85701379Y-114212878D01*
X89924122Y-118435621D01*
X89936959Y-118450649D01*
X89945112Y-118461871D01*
X89950014Y-118466284D01*
X89950015Y-118466286D01*
X89995487Y-118507229D01*
X90000271Y-118511770D01*
X90014620Y-118526119D01*
X90017184Y-118528195D01*
X90030404Y-118538901D01*
X90035420Y-118543185D01*
X90085784Y-118588533D01*
X90097791Y-118595466D01*
X90114080Y-118606661D01*
X90124851Y-118615383D01*
X90130731Y-118618379D01*
X90130734Y-118618381D01*
X90185234Y-118646151D01*
X90191029Y-118649297D01*
X90244000Y-118679879D01*
X90249716Y-118683179D01*
X90261547Y-118687023D01*
X90262903Y-118687464D01*
X90281160Y-118695027D01*
X90287629Y-118698323D01*
X90287633Y-118698324D01*
X90293512Y-118701320D01*
X90358980Y-118718862D01*
X90365281Y-118720729D01*
X90429744Y-118741674D01*
X90443087Y-118743076D01*
X90443533Y-118743123D01*
X90462971Y-118746726D01*
X90464540Y-118747146D01*
X90476354Y-118750312D01*
X90482954Y-118750658D01*
X90482955Y-118750658D01*
X90544011Y-118753858D01*
X90550585Y-118754375D01*
X90567534Y-118756156D01*
X90567536Y-118756156D01*
X90570808Y-118756500D01*
X90591133Y-118756500D01*
X90597727Y-118756673D01*
X90658796Y-118759874D01*
X90658801Y-118759874D01*
X90665388Y-118760219D01*
X90679077Y-118758051D01*
X90698787Y-118756500D01*
X97577608Y-118756500D01*
X97645729Y-118776502D01*
X97657303Y-118785704D01*
X97657635Y-118785294D01*
X97662131Y-118788935D01*
X97666264Y-118792961D01*
X97671060Y-118796166D01*
X97671063Y-118796168D01*
X97755261Y-118852427D01*
X97849717Y-118915540D01*
X97855020Y-118917818D01*
X97855023Y-118917820D01*
X98047129Y-119000355D01*
X98052436Y-119002635D01*
X98106308Y-119014825D01*
X98261995Y-119050054D01*
X98262001Y-119050055D01*
X98267632Y-119051329D01*
X98273403Y-119051556D01*
X98273405Y-119051556D01*
X98341211Y-119054220D01*
X98488098Y-119059991D01*
X98597275Y-119044161D01*
X98700738Y-119029160D01*
X98700743Y-119029159D01*
X98706452Y-119028331D01*
X98711916Y-119026476D01*
X98711921Y-119026475D01*
X98909907Y-118959268D01*
X98909912Y-118959266D01*
X98915379Y-118957410D01*
X98947887Y-118939205D01*
X98995875Y-118912330D01*
X99107884Y-118849602D01*
X99153370Y-118811772D01*
X99273086Y-118712204D01*
X99277518Y-118708518D01*
X99328144Y-118647647D01*
X99414908Y-118543326D01*
X99414910Y-118543323D01*
X99418602Y-118538884D01*
X99526410Y-118346379D01*
X99528266Y-118340912D01*
X99528268Y-118340907D01*
X99595475Y-118142921D01*
X99595476Y-118142916D01*
X99597331Y-118137452D01*
X99598159Y-118131743D01*
X99598160Y-118131738D01*
X99625541Y-117942891D01*
X99628991Y-117919098D01*
X99630643Y-117856000D01*
X99610454Y-117636289D01*
X99602169Y-117606910D01*
X99559446Y-117455427D01*
X99550565Y-117423936D01*
X99452980Y-117226053D01*
X99386361Y-117136839D01*
X99324420Y-117053891D01*
X99324420Y-117053890D01*
X99320967Y-117049267D01*
X99223586Y-116959249D01*
X99163189Y-116903418D01*
X99163186Y-116903416D01*
X99158949Y-116899499D01*
X98972350Y-116781764D01*
X98767421Y-116700006D01*
X98761761Y-116698880D01*
X98761757Y-116698879D01*
X98556691Y-116658089D01*
X98556688Y-116658089D01*
X98551024Y-116656962D01*
X98545249Y-116656886D01*
X98545245Y-116656886D01*
X98434504Y-116655437D01*
X98330406Y-116654074D01*
X98324709Y-116655053D01*
X98324708Y-116655053D01*
X98118654Y-116690459D01*
X98118653Y-116690459D01*
X98112957Y-116691438D01*
X97905957Y-116767804D01*
X97900996Y-116770756D01*
X97900995Y-116770756D01*
X97721309Y-116877658D01*
X97721306Y-116877660D01*
X97716341Y-116880614D01*
X97711997Y-116884424D01*
X97711991Y-116884428D01*
X97666603Y-116924232D01*
X97602199Y-116954109D01*
X97583526Y-116955500D01*
X95045539Y-116955500D01*
X94977418Y-116935498D01*
X94930925Y-116881842D01*
X94920068Y-116841030D01*
X94911983Y-116753045D01*
X94911983Y-116753044D01*
X94911454Y-116747289D01*
X94895427Y-116690459D01*
X94858241Y-116558609D01*
X94851565Y-116534936D01*
X94753980Y-116337053D01*
X94730763Y-116305961D01*
X94625420Y-116164891D01*
X94625420Y-116164890D01*
X94621967Y-116160267D01*
X94483750Y-116032500D01*
X94464189Y-116014418D01*
X94464186Y-116014416D01*
X94459949Y-116010499D01*
X94273350Y-115892764D01*
X94068421Y-115811006D01*
X94062761Y-115809880D01*
X94062757Y-115809879D01*
X93857691Y-115769089D01*
X93857688Y-115769089D01*
X93852024Y-115767962D01*
X93846249Y-115767886D01*
X93846245Y-115767886D01*
X93735504Y-115766437D01*
X93631406Y-115765074D01*
X93625709Y-115766053D01*
X93625708Y-115766053D01*
X93419654Y-115801459D01*
X93419653Y-115801459D01*
X93413957Y-115802438D01*
X93206957Y-115878804D01*
X93017341Y-115991614D01*
X92851457Y-116137090D01*
X92714863Y-116310360D01*
X92612131Y-116505620D01*
X92546703Y-116716333D01*
X92540848Y-116765806D01*
X92531556Y-116844310D01*
X92503686Y-116909607D01*
X92444937Y-116949471D01*
X92406429Y-116955500D01*
X91043189Y-116955500D01*
X90975068Y-116935498D01*
X90954094Y-116918595D01*
X87957294Y-113921795D01*
X87923268Y-113859483D01*
X87928333Y-113788668D01*
X87949514Y-113752132D01*
X88020303Y-113667018D01*
X88070408Y-113606774D01*
X88070410Y-113606771D01*
X88074102Y-113602332D01*
X88166013Y-113438213D01*
X88179086Y-113414870D01*
X88179087Y-113414868D01*
X88181910Y-113409827D01*
X88183766Y-113404360D01*
X88183768Y-113404355D01*
X88250975Y-113206369D01*
X88250976Y-113206364D01*
X88252831Y-113200900D01*
X88253659Y-113195191D01*
X88253660Y-113195186D01*
X88275935Y-113041558D01*
X88284491Y-112982546D01*
X88286143Y-112919448D01*
X88265954Y-112699737D01*
X88257843Y-112670975D01*
X88207634Y-112492948D01*
X88206065Y-112487384D01*
X88108480Y-112289501D01*
X88077809Y-112248427D01*
X87987650Y-112127690D01*
X90126020Y-112127690D01*
X90132465Y-112226022D01*
X90139535Y-112333886D01*
X90140450Y-112347854D01*
X90141871Y-112353450D01*
X90141872Y-112353455D01*
X90188930Y-112538741D01*
X90194761Y-112561702D01*
X90197178Y-112566944D01*
X90197178Y-112566945D01*
X90233024Y-112644701D01*
X90287133Y-112762071D01*
X90414472Y-112942252D01*
X90572514Y-113096211D01*
X90577310Y-113099416D01*
X90577313Y-113099418D01*
X90661511Y-113155677D01*
X90755967Y-113218790D01*
X90761270Y-113221068D01*
X90761273Y-113221070D01*
X90924913Y-113291375D01*
X90958686Y-113305885D01*
X91032290Y-113322540D01*
X91168245Y-113353304D01*
X91168251Y-113353305D01*
X91173882Y-113354579D01*
X91179653Y-113354806D01*
X91179655Y-113354806D01*
X91247461Y-113357470D01*
X91394348Y-113363241D01*
X91503525Y-113347411D01*
X91606988Y-113332410D01*
X91606993Y-113332409D01*
X91612702Y-113331581D01*
X91618166Y-113329726D01*
X91618171Y-113329725D01*
X91816157Y-113262518D01*
X91816162Y-113262516D01*
X91821629Y-113260660D01*
X92014134Y-113152852D01*
X92035503Y-113135080D01*
X92179336Y-113015454D01*
X92183768Y-113011768D01*
X92260550Y-112919448D01*
X92321158Y-112846576D01*
X92321160Y-112846573D01*
X92324852Y-112842134D01*
X92432660Y-112649629D01*
X92434516Y-112644162D01*
X92434518Y-112644157D01*
X92501725Y-112446171D01*
X92501726Y-112446166D01*
X92503581Y-112440702D01*
X92504409Y-112434993D01*
X92504410Y-112434988D01*
X92529793Y-112259923D01*
X92535241Y-112222348D01*
X92536893Y-112159250D01*
X92516704Y-111939539D01*
X92513969Y-111929839D01*
X92461100Y-111742379D01*
X92456815Y-111727186D01*
X92359230Y-111529303D01*
X92330514Y-111490847D01*
X92230670Y-111357141D01*
X92230670Y-111357140D01*
X92227217Y-111352517D01*
X92090575Y-111226206D01*
X92069439Y-111206668D01*
X92069436Y-111206666D01*
X92065199Y-111202749D01*
X91878600Y-111085014D01*
X91673671Y-111003256D01*
X91668011Y-111002130D01*
X91668007Y-111002129D01*
X91462941Y-110961339D01*
X91462938Y-110961339D01*
X91457274Y-110960212D01*
X91451499Y-110960136D01*
X91451495Y-110960136D01*
X91340754Y-110958687D01*
X91236656Y-110957324D01*
X91230959Y-110958303D01*
X91230958Y-110958303D01*
X91024904Y-110993709D01*
X91024903Y-110993709D01*
X91019207Y-110994688D01*
X90812207Y-111071054D01*
X90807246Y-111074006D01*
X90807245Y-111074006D01*
X90675390Y-111152452D01*
X90622591Y-111183864D01*
X90456707Y-111329340D01*
X90320113Y-111502610D01*
X90217381Y-111697870D01*
X90151953Y-111908583D01*
X90126020Y-112127690D01*
X87987650Y-112127690D01*
X87979920Y-112117339D01*
X87979920Y-112117338D01*
X87976467Y-112112715D01*
X87972230Y-112108799D01*
X87972227Y-112108795D01*
X87971474Y-112108099D01*
X87971224Y-112107681D01*
X87968359Y-112104499D01*
X87968984Y-112103936D01*
X87935027Y-112047172D01*
X87931000Y-112015572D01*
X87931000Y-110839440D01*
X98235770Y-110839440D01*
X98250200Y-111059604D01*
X98251621Y-111065200D01*
X98251622Y-111065205D01*
X98303090Y-111267857D01*
X98304511Y-111273452D01*
X98306928Y-111278694D01*
X98306928Y-111278695D01*
X98382606Y-111442851D01*
X98396883Y-111473821D01*
X98524222Y-111654002D01*
X98682264Y-111807961D01*
X98687060Y-111811166D01*
X98687063Y-111811168D01*
X98771261Y-111867427D01*
X98865717Y-111930540D01*
X98871020Y-111932818D01*
X98871023Y-111932820D01*
X99061730Y-112014754D01*
X99068436Y-112017635D01*
X99124350Y-112030287D01*
X99277995Y-112065054D01*
X99278001Y-112065055D01*
X99283632Y-112066329D01*
X99289403Y-112066556D01*
X99289405Y-112066556D01*
X99357211Y-112069220D01*
X99504098Y-112074991D01*
X99614875Y-112058929D01*
X99716738Y-112044160D01*
X99716743Y-112044159D01*
X99722452Y-112043331D01*
X99727916Y-112041476D01*
X99727921Y-112041475D01*
X99925907Y-111974268D01*
X99925912Y-111974266D01*
X99931379Y-111972410D01*
X99998387Y-111934884D01*
X100045350Y-111908583D01*
X100123884Y-111864602D01*
X100135645Y-111854821D01*
X100289086Y-111727204D01*
X100293518Y-111723518D01*
X100328977Y-111680884D01*
X100430908Y-111558326D01*
X100430910Y-111558323D01*
X100434602Y-111553884D01*
X100542410Y-111361379D01*
X100544266Y-111355912D01*
X100544268Y-111355907D01*
X100611475Y-111157921D01*
X100611476Y-111157916D01*
X100613331Y-111152452D01*
X100614159Y-111146743D01*
X100614160Y-111146738D01*
X100633924Y-111010425D01*
X100644991Y-110934098D01*
X100646643Y-110871000D01*
X100626454Y-110651289D01*
X100603952Y-110571500D01*
X100568134Y-110444500D01*
X100566565Y-110438936D01*
X100468980Y-110241053D01*
X100450952Y-110216910D01*
X100340420Y-110068891D01*
X100340420Y-110068890D01*
X100336967Y-110064267D01*
X100213830Y-109950440D01*
X101156770Y-109950440D01*
X101171200Y-110170604D01*
X101172621Y-110176200D01*
X101172622Y-110176205D01*
X101220171Y-110363426D01*
X101225511Y-110384452D01*
X101227928Y-110389694D01*
X101227928Y-110389695D01*
X101248336Y-110433962D01*
X101317883Y-110584821D01*
X101382675Y-110676499D01*
X101435061Y-110750624D01*
X101458042Y-110817798D01*
X101443672Y-110882010D01*
X101373418Y-111015541D01*
X101307990Y-111226254D01*
X101282057Y-111445361D01*
X101296487Y-111665525D01*
X101297908Y-111671121D01*
X101297909Y-111671126D01*
X101345760Y-111859537D01*
X101350798Y-111879373D01*
X101443170Y-112079742D01*
X101570509Y-112259923D01*
X101728551Y-112413882D01*
X101733347Y-112417087D01*
X101733350Y-112417089D01*
X101817548Y-112473348D01*
X101912004Y-112536461D01*
X101917307Y-112538739D01*
X101917310Y-112538741D01*
X102032262Y-112588128D01*
X102114723Y-112623556D01*
X102191841Y-112641006D01*
X102324282Y-112670975D01*
X102324288Y-112670976D01*
X102329919Y-112672250D01*
X102335690Y-112672477D01*
X102335692Y-112672477D01*
X102403498Y-112675141D01*
X102550385Y-112680912D01*
X102659562Y-112665082D01*
X102763025Y-112650081D01*
X102763030Y-112650080D01*
X102768739Y-112649252D01*
X102774203Y-112647397D01*
X102774208Y-112647396D01*
X102972194Y-112580189D01*
X102972199Y-112580187D01*
X102977666Y-112578331D01*
X102986886Y-112573168D01*
X103130128Y-112492948D01*
X103170171Y-112470523D01*
X103188641Y-112455162D01*
X103314379Y-112350586D01*
X103334458Y-112333886D01*
X103399622Y-112305705D01*
X103442833Y-112307867D01*
X103534889Y-112328697D01*
X103540660Y-112328924D01*
X103540662Y-112328924D01*
X103608468Y-112331588D01*
X103755355Y-112337359D01*
X103864532Y-112321529D01*
X103967995Y-112306528D01*
X103968000Y-112306527D01*
X103973709Y-112305699D01*
X103979173Y-112303844D01*
X103979178Y-112303843D01*
X104177164Y-112236636D01*
X104177169Y-112236634D01*
X104182636Y-112234778D01*
X104190140Y-112230576D01*
X104297714Y-112170331D01*
X104375141Y-112126970D01*
X104397586Y-112108302D01*
X104462752Y-112080122D01*
X104527894Y-112089409D01*
X104621895Y-112129795D01*
X104656436Y-112144635D01*
X104721025Y-112159250D01*
X104865995Y-112192054D01*
X104866001Y-112192055D01*
X104871632Y-112193329D01*
X104877403Y-112193556D01*
X104877405Y-112193556D01*
X104945211Y-112196220D01*
X105092098Y-112201991D01*
X105201275Y-112186161D01*
X105304738Y-112171160D01*
X105304743Y-112171159D01*
X105310452Y-112170331D01*
X105315916Y-112168476D01*
X105315921Y-112168475D01*
X105513907Y-112101268D01*
X105513912Y-112101266D01*
X105519379Y-112099410D01*
X105563865Y-112074497D01*
X105643575Y-112029857D01*
X105711884Y-111991602D01*
X105721596Y-111983525D01*
X105877086Y-111854204D01*
X105881518Y-111850518D01*
X105984093Y-111727186D01*
X106018908Y-111685326D01*
X106018910Y-111685323D01*
X106022602Y-111680884D01*
X106105168Y-111533452D01*
X106127586Y-111493422D01*
X106127587Y-111493420D01*
X106130410Y-111488379D01*
X106132266Y-111482912D01*
X106132268Y-111482907D01*
X106199475Y-111284921D01*
X106199476Y-111284916D01*
X106201331Y-111279452D01*
X106202159Y-111273743D01*
X106202160Y-111273738D01*
X106221346Y-111141413D01*
X106232991Y-111061098D01*
X106234643Y-110998000D01*
X106214454Y-110778289D01*
X106207189Y-110752527D01*
X106178637Y-110651289D01*
X106154565Y-110565936D01*
X106056980Y-110368053D01*
X105997617Y-110288556D01*
X105928420Y-110195891D01*
X105928420Y-110195890D01*
X105924967Y-110191267D01*
X105797543Y-110073477D01*
X105767189Y-110045418D01*
X105767186Y-110045416D01*
X105762949Y-110041499D01*
X105576350Y-109923764D01*
X105371421Y-109842006D01*
X105365761Y-109840880D01*
X105365757Y-109840879D01*
X105160691Y-109800089D01*
X105160688Y-109800089D01*
X105155024Y-109798962D01*
X105149249Y-109798886D01*
X105149245Y-109798886D01*
X105038504Y-109797437D01*
X104934406Y-109796074D01*
X104928709Y-109797053D01*
X104928708Y-109797053D01*
X104722654Y-109832459D01*
X104722653Y-109832459D01*
X104716957Y-109833438D01*
X104509957Y-109909804D01*
X104504996Y-109912756D01*
X104504995Y-109912756D01*
X104490089Y-109921624D01*
X104320341Y-110022614D01*
X104316048Y-110026379D01*
X104249199Y-110050228D01*
X104195320Y-110041463D01*
X104040042Y-109979514D01*
X104034678Y-109977374D01*
X104029018Y-109976248D01*
X104029014Y-109976247D01*
X103823948Y-109935457D01*
X103823945Y-109935457D01*
X103818281Y-109934330D01*
X103812506Y-109934254D01*
X103812502Y-109934254D01*
X103744022Y-109933358D01*
X103676395Y-109932473D01*
X103608543Y-109911581D01*
X103562756Y-109857322D01*
X103552574Y-109818012D01*
X103547983Y-109768046D01*
X103547454Y-109762289D01*
X103545772Y-109756323D01*
X103496997Y-109583379D01*
X103487565Y-109549936D01*
X103389980Y-109352053D01*
X103364080Y-109317368D01*
X103261420Y-109179891D01*
X103261420Y-109179890D01*
X103257967Y-109175267D01*
X103117306Y-109045241D01*
X103100189Y-109029418D01*
X103100186Y-109029416D01*
X103095949Y-109025499D01*
X102909350Y-108907764D01*
X102704421Y-108826006D01*
X102698761Y-108824880D01*
X102698757Y-108824879D01*
X102493691Y-108784089D01*
X102493688Y-108784089D01*
X102488024Y-108782962D01*
X102482249Y-108782886D01*
X102482245Y-108782886D01*
X102371504Y-108781437D01*
X102267406Y-108780074D01*
X102261709Y-108781053D01*
X102261708Y-108781053D01*
X102055654Y-108816459D01*
X102055653Y-108816459D01*
X102049957Y-108817438D01*
X101842957Y-108893804D01*
X101837996Y-108896756D01*
X101837995Y-108896756D01*
X101736876Y-108956916D01*
X101653341Y-109006614D01*
X101487457Y-109152090D01*
X101350863Y-109325360D01*
X101248131Y-109520620D01*
X101182703Y-109731333D01*
X101156770Y-109950440D01*
X100213830Y-109950440D01*
X100203711Y-109941086D01*
X100179189Y-109918418D01*
X100179186Y-109918416D01*
X100174949Y-109914499D01*
X99988350Y-109796764D01*
X99783421Y-109715006D01*
X99777761Y-109713880D01*
X99777757Y-109713879D01*
X99572691Y-109673089D01*
X99572688Y-109673089D01*
X99567024Y-109671962D01*
X99561249Y-109671886D01*
X99561245Y-109671886D01*
X99450504Y-109670437D01*
X99346406Y-109669074D01*
X99340709Y-109670053D01*
X99340708Y-109670053D01*
X99134654Y-109705459D01*
X99134653Y-109705459D01*
X99128957Y-109706438D01*
X98921957Y-109782804D01*
X98916996Y-109785756D01*
X98916995Y-109785756D01*
X98786668Y-109863293D01*
X98732341Y-109895614D01*
X98566457Y-110041090D01*
X98429863Y-110214360D01*
X98327131Y-110409620D01*
X98261703Y-110620333D01*
X98235770Y-110839440D01*
X87931000Y-110839440D01*
X87931000Y-104991532D01*
X87932551Y-104971821D01*
X87933687Y-104964649D01*
X87934719Y-104958133D01*
X87934221Y-104948620D01*
X87931173Y-104890466D01*
X87931000Y-104883872D01*
X87931000Y-104863553D01*
X87929674Y-104850936D01*
X87928876Y-104843340D01*
X87928359Y-104836765D01*
X87925658Y-104785234D01*
X87924813Y-104769100D01*
X87921225Y-104755709D01*
X87917622Y-104736267D01*
X87916865Y-104729060D01*
X87916864Y-104729056D01*
X87916174Y-104722489D01*
X87895234Y-104658043D01*
X87893360Y-104651717D01*
X87877528Y-104592630D01*
X87877527Y-104592627D01*
X87875820Y-104586257D01*
X87869527Y-104573905D01*
X87861964Y-104555648D01*
X87861523Y-104554292D01*
X87857679Y-104542461D01*
X87854379Y-104536745D01*
X87823797Y-104483774D01*
X87820651Y-104477979D01*
X87792883Y-104423484D01*
X87789883Y-104417596D01*
X87781163Y-104406828D01*
X87769962Y-104390531D01*
X87766333Y-104384245D01*
X87763033Y-104378529D01*
X87758617Y-104373624D01*
X87758613Y-104373619D01*
X87717688Y-104328166D01*
X87713408Y-104323156D01*
X87702694Y-104309926D01*
X87702693Y-104309925D01*
X87700620Y-104307365D01*
X87686261Y-104293006D01*
X87681720Y-104288222D01*
X87681016Y-104287440D01*
X105325770Y-104287440D01*
X105340200Y-104507604D01*
X105341621Y-104513200D01*
X105341622Y-104513205D01*
X105393090Y-104715857D01*
X105394511Y-104721452D01*
X105396928Y-104726694D01*
X105396928Y-104726695D01*
X105463333Y-104870738D01*
X105486883Y-104921821D01*
X105600443Y-105082504D01*
X105610741Y-105097076D01*
X105633722Y-105164250D01*
X105619352Y-105228464D01*
X105566131Y-105329620D01*
X105500703Y-105540333D01*
X105474770Y-105759440D01*
X105489200Y-105979604D01*
X105490621Y-105985200D01*
X105490622Y-105985205D01*
X105542090Y-106187857D01*
X105543511Y-106193452D01*
X105545928Y-106198694D01*
X105545928Y-106198695D01*
X105593366Y-106301596D01*
X105635883Y-106393821D01*
X105763222Y-106574002D01*
X105767356Y-106578029D01*
X105767361Y-106578035D01*
X105916023Y-106722857D01*
X105950861Y-106784718D01*
X105945199Y-106853020D01*
X105947131Y-106853620D01*
X105917383Y-106949426D01*
X105881703Y-107064333D01*
X105855770Y-107283440D01*
X105870200Y-107503604D01*
X105871621Y-107509200D01*
X105871622Y-107509205D01*
X105912206Y-107669000D01*
X105924511Y-107717452D01*
X105926928Y-107722694D01*
X105926928Y-107722695D01*
X105994820Y-107869962D01*
X106016883Y-107917821D01*
X106144222Y-108098002D01*
X106302264Y-108251961D01*
X106307060Y-108255166D01*
X106307063Y-108255168D01*
X106441809Y-108345202D01*
X106485717Y-108374540D01*
X106491020Y-108376818D01*
X106491023Y-108376820D01*
X106629607Y-108436360D01*
X106688436Y-108461635D01*
X106903632Y-108510329D01*
X106909401Y-108510556D01*
X106909404Y-108510556D01*
X106951663Y-108512216D01*
X107018946Y-108534877D01*
X107061143Y-108585367D01*
X107113216Y-108698321D01*
X107240555Y-108878502D01*
X107398597Y-109032461D01*
X107403393Y-109035666D01*
X107403396Y-109035668D01*
X107483670Y-109089305D01*
X107582050Y-109155040D01*
X107587353Y-109157318D01*
X107587356Y-109157320D01*
X107684281Y-109198962D01*
X107784769Y-109242135D01*
X107827646Y-109251837D01*
X107994328Y-109289554D01*
X107994334Y-109289555D01*
X107999965Y-109290829D01*
X108005736Y-109291056D01*
X108005738Y-109291056D01*
X108073544Y-109293720D01*
X108220431Y-109299491D01*
X108329608Y-109283661D01*
X108433071Y-109268660D01*
X108433076Y-109268659D01*
X108438785Y-109267831D01*
X108444249Y-109265976D01*
X108444254Y-109265975D01*
X108642240Y-109198768D01*
X108642245Y-109198766D01*
X108647712Y-109196910D01*
X108686359Y-109175267D01*
X108747302Y-109141137D01*
X108840217Y-109089102D01*
X108889250Y-109048322D01*
X108991256Y-108963483D01*
X109009851Y-108948018D01*
X109111328Y-108826006D01*
X109147241Y-108782826D01*
X109147243Y-108782823D01*
X109150935Y-108778384D01*
X109244562Y-108611201D01*
X109255919Y-108590922D01*
X109255920Y-108590920D01*
X109258743Y-108585879D01*
X109260599Y-108580412D01*
X109260601Y-108580407D01*
X109327808Y-108382421D01*
X109327809Y-108382416D01*
X109329664Y-108376952D01*
X109330492Y-108371243D01*
X109330493Y-108371238D01*
X109360791Y-108162272D01*
X109361324Y-108158598D01*
X109362976Y-108095500D01*
X109342787Y-107875789D01*
X109282898Y-107663436D01*
X109185313Y-107465553D01*
X109165354Y-107438824D01*
X109056753Y-107293391D01*
X109056753Y-107293390D01*
X109053300Y-107288767D01*
X108955919Y-107198749D01*
X108895522Y-107142918D01*
X108895519Y-107142916D01*
X108891282Y-107138999D01*
X108704683Y-107021264D01*
X108499754Y-106939506D01*
X108494094Y-106938380D01*
X108494090Y-106938379D01*
X108289025Y-106897589D01*
X108289020Y-106897589D01*
X108283357Y-106896462D01*
X108277580Y-106896386D01*
X108277577Y-106896386D01*
X108269853Y-106896285D01*
X108202001Y-106875392D01*
X108158499Y-106826024D01*
X108113079Y-106733920D01*
X108088980Y-106685053D01*
X108007138Y-106575454D01*
X107982406Y-106508905D01*
X107997580Y-106439548D01*
X108047842Y-106389406D01*
X108054831Y-106385954D01*
X108059379Y-106384410D01*
X108064422Y-106381586D01*
X108064426Y-106381584D01*
X108169447Y-106322769D01*
X108251884Y-106276602D01*
X108264387Y-106266204D01*
X108417086Y-106139204D01*
X108421518Y-106135518D01*
X108456977Y-106092884D01*
X108558908Y-105970326D01*
X108558910Y-105970323D01*
X108562602Y-105965884D01*
X108648782Y-105811998D01*
X108667586Y-105778422D01*
X108667587Y-105778420D01*
X108670410Y-105773379D01*
X108672266Y-105767912D01*
X108672268Y-105767907D01*
X108739475Y-105569921D01*
X108739476Y-105569916D01*
X108741331Y-105564452D01*
X108742159Y-105558743D01*
X108742160Y-105558738D01*
X108761346Y-105426413D01*
X108772991Y-105346098D01*
X108774643Y-105283000D01*
X108754454Y-105063289D01*
X108748052Y-105040587D01*
X108705713Y-104890466D01*
X108694565Y-104850936D01*
X108596980Y-104653053D01*
X108545888Y-104584632D01*
X108468420Y-104480891D01*
X108468420Y-104480890D01*
X108464967Y-104476267D01*
X108302949Y-104326499D01*
X108116350Y-104208764D01*
X107911421Y-104127006D01*
X107788875Y-104102630D01*
X107725967Y-104069724D01*
X107692191Y-104013258D01*
X107656565Y-103886936D01*
X107558980Y-103689053D01*
X107426967Y-103512267D01*
X107264949Y-103362499D01*
X107078350Y-103244764D01*
X106873421Y-103163006D01*
X106867761Y-103161880D01*
X106867757Y-103161879D01*
X106662691Y-103121089D01*
X106662688Y-103121089D01*
X106657024Y-103119962D01*
X106651249Y-103119886D01*
X106651245Y-103119886D01*
X106540504Y-103118437D01*
X106436406Y-103117074D01*
X106430709Y-103118053D01*
X106430708Y-103118053D01*
X106224654Y-103153459D01*
X106224653Y-103153459D01*
X106218957Y-103154438D01*
X106011957Y-103230804D01*
X105822341Y-103343614D01*
X105656457Y-103489090D01*
X105519863Y-103662360D01*
X105417131Y-103857620D01*
X105351703Y-104068333D01*
X105325770Y-104287440D01*
X87681016Y-104287440D01*
X87640788Y-104242762D01*
X87640785Y-104242760D01*
X87636371Y-104237857D01*
X87625155Y-104229708D01*
X87610128Y-104216873D01*
X80799489Y-97406234D01*
X80765463Y-97343922D01*
X80770528Y-97273107D01*
X80813075Y-97216271D01*
X80870504Y-97192443D01*
X80880101Y-97191052D01*
X80920738Y-97185160D01*
X80920743Y-97185159D01*
X80926452Y-97184331D01*
X80931916Y-97182476D01*
X80931921Y-97182475D01*
X81105833Y-97123440D01*
X83757770Y-97123440D01*
X83772200Y-97343604D01*
X83773621Y-97349200D01*
X83773622Y-97349205D01*
X83811622Y-97498826D01*
X83826511Y-97557452D01*
X83828928Y-97562694D01*
X83828928Y-97562695D01*
X83867046Y-97645379D01*
X83918883Y-97757821D01*
X84046222Y-97938002D01*
X84204264Y-98091961D01*
X84209060Y-98095166D01*
X84209063Y-98095168D01*
X84336512Y-98180326D01*
X84387717Y-98214540D01*
X84393020Y-98216818D01*
X84393023Y-98216820D01*
X84538906Y-98279496D01*
X84590436Y-98301635D01*
X84668336Y-98319262D01*
X84799995Y-98349054D01*
X84800001Y-98349055D01*
X84805632Y-98350329D01*
X84811403Y-98350556D01*
X84811405Y-98350556D01*
X85014080Y-98358519D01*
X85081363Y-98381180D01*
X85125713Y-98436620D01*
X85134863Y-98476181D01*
X85139346Y-98544578D01*
X85140200Y-98557604D01*
X85141621Y-98563200D01*
X85141622Y-98563205D01*
X85178326Y-98707725D01*
X85194511Y-98771452D01*
X85286883Y-98971821D01*
X85414222Y-99152002D01*
X85572264Y-99305961D01*
X85577060Y-99309166D01*
X85577063Y-99309168D01*
X85661261Y-99365427D01*
X85755717Y-99428540D01*
X85761020Y-99430818D01*
X85761023Y-99430820D01*
X85953129Y-99513355D01*
X85958436Y-99515635D01*
X86024466Y-99530576D01*
X86167995Y-99563054D01*
X86168001Y-99563055D01*
X86173632Y-99564329D01*
X86179403Y-99564556D01*
X86179405Y-99564556D01*
X86247211Y-99567220D01*
X86394098Y-99572991D01*
X86503275Y-99557161D01*
X86606738Y-99542160D01*
X86606743Y-99542159D01*
X86612452Y-99541331D01*
X86617916Y-99539476D01*
X86617921Y-99539475D01*
X86815907Y-99472268D01*
X86815912Y-99472266D01*
X86821379Y-99470410D01*
X86836261Y-99462076D01*
X86915130Y-99417907D01*
X87013884Y-99362602D01*
X87040225Y-99340695D01*
X87179086Y-99225204D01*
X87183518Y-99221518D01*
X87252959Y-99138025D01*
X87311897Y-99098442D01*
X87382879Y-99097006D01*
X87443369Y-99134174D01*
X87471956Y-99187580D01*
X87508089Y-99329855D01*
X87508091Y-99329860D01*
X87509511Y-99335452D01*
X87511928Y-99340694D01*
X87511928Y-99340695D01*
X87550046Y-99423379D01*
X87601883Y-99535821D01*
X87729222Y-99716002D01*
X87887264Y-99869961D01*
X87892060Y-99873166D01*
X87892063Y-99873168D01*
X87976261Y-99929427D01*
X88070717Y-99992540D01*
X88076020Y-99994818D01*
X88076023Y-99994820D01*
X88268129Y-100077355D01*
X88273436Y-100079635D01*
X88352202Y-100097458D01*
X88482995Y-100127054D01*
X88483001Y-100127055D01*
X88488632Y-100128329D01*
X88494403Y-100128556D01*
X88494405Y-100128556D01*
X88562211Y-100131220D01*
X88709098Y-100136991D01*
X88829338Y-100119557D01*
X88921738Y-100106160D01*
X88921743Y-100106159D01*
X88927452Y-100105331D01*
X88932916Y-100103476D01*
X88932921Y-100103475D01*
X88967633Y-100091692D01*
X90196821Y-100091692D01*
X90211251Y-100311856D01*
X90212672Y-100317452D01*
X90212673Y-100317457D01*
X90264141Y-100520109D01*
X90265562Y-100525704D01*
X90267979Y-100530946D01*
X90267979Y-100530947D01*
X90306097Y-100613631D01*
X90357934Y-100726073D01*
X90485273Y-100906254D01*
X90643315Y-101060213D01*
X90648111Y-101063418D01*
X90648114Y-101063420D01*
X90732312Y-101119679D01*
X90826768Y-101182792D01*
X90832071Y-101185070D01*
X90832074Y-101185072D01*
X91024180Y-101267607D01*
X91029487Y-101269887D01*
X91109139Y-101287910D01*
X91239046Y-101317306D01*
X91239052Y-101317307D01*
X91244683Y-101318581D01*
X91250454Y-101318808D01*
X91250456Y-101318808D01*
X91318262Y-101321472D01*
X91465149Y-101327243D01*
X91574326Y-101311413D01*
X91677789Y-101296412D01*
X91677794Y-101296411D01*
X91683503Y-101295583D01*
X91688967Y-101293728D01*
X91688972Y-101293727D01*
X91886958Y-101226520D01*
X91886963Y-101226518D01*
X91892430Y-101224662D01*
X92084935Y-101116854D01*
X92254569Y-100975770D01*
X92395653Y-100806136D01*
X92503461Y-100613631D01*
X92505317Y-100608164D01*
X92505319Y-100608159D01*
X92572526Y-100410173D01*
X92572527Y-100410168D01*
X92574382Y-100404704D01*
X92575210Y-100398995D01*
X92575211Y-100398990D01*
X92605509Y-100190024D01*
X92606042Y-100186350D01*
X92607694Y-100123252D01*
X92587505Y-99903541D01*
X92527616Y-99691188D01*
X92430031Y-99493305D01*
X92412935Y-99470410D01*
X92301471Y-99321143D01*
X92301471Y-99321142D01*
X92298018Y-99316519D01*
X92181421Y-99208738D01*
X92140240Y-99170670D01*
X92140237Y-99170668D01*
X92136000Y-99166751D01*
X91949401Y-99049016D01*
X91744472Y-98967258D01*
X91738812Y-98966132D01*
X91738808Y-98966131D01*
X91533742Y-98925341D01*
X91533739Y-98925341D01*
X91528075Y-98924214D01*
X91522300Y-98924138D01*
X91522296Y-98924138D01*
X91411555Y-98922689D01*
X91307457Y-98921326D01*
X91301760Y-98922305D01*
X91301759Y-98922305D01*
X91095705Y-98957711D01*
X91095704Y-98957711D01*
X91090008Y-98958690D01*
X90883008Y-99035056D01*
X90693392Y-99147866D01*
X90527508Y-99293342D01*
X90390914Y-99466612D01*
X90288182Y-99661872D01*
X90222754Y-99872585D01*
X90196821Y-100091692D01*
X88967633Y-100091692D01*
X89130907Y-100036268D01*
X89130912Y-100036266D01*
X89136379Y-100034410D01*
X89328884Y-99926602D01*
X89400466Y-99867068D01*
X89494086Y-99789204D01*
X89498518Y-99785518D01*
X89560256Y-99711287D01*
X89635908Y-99620326D01*
X89635910Y-99620323D01*
X89639602Y-99615884D01*
X89709347Y-99491346D01*
X89744586Y-99428422D01*
X89744587Y-99428420D01*
X89747410Y-99423379D01*
X89749266Y-99417912D01*
X89749268Y-99417907D01*
X89816475Y-99219921D01*
X89816476Y-99219916D01*
X89818331Y-99214452D01*
X89819159Y-99208743D01*
X89819160Y-99208738D01*
X89849458Y-98999772D01*
X89849991Y-98996098D01*
X89851643Y-98933000D01*
X89831454Y-98713289D01*
X89771565Y-98500936D01*
X89683233Y-98321816D01*
X89676535Y-98308234D01*
X89676534Y-98308233D01*
X89673980Y-98303053D01*
X89652877Y-98274792D01*
X89545420Y-98130891D01*
X89545420Y-98130890D01*
X89541967Y-98126267D01*
X89421885Y-98015264D01*
X89384189Y-97980418D01*
X89384186Y-97980416D01*
X89379949Y-97976499D01*
X89193350Y-97858764D01*
X88988421Y-97777006D01*
X88982761Y-97775880D01*
X88982757Y-97775879D01*
X88777691Y-97735089D01*
X88777688Y-97735089D01*
X88772024Y-97733962D01*
X88766249Y-97733886D01*
X88766245Y-97733886D01*
X88655504Y-97732437D01*
X88551406Y-97731074D01*
X88545709Y-97732053D01*
X88545708Y-97732053D01*
X88339654Y-97767459D01*
X88339653Y-97767459D01*
X88333957Y-97768438D01*
X88126957Y-97844804D01*
X88121996Y-97847756D01*
X88121995Y-97847756D01*
X87998746Y-97921082D01*
X87937341Y-97957614D01*
X87771457Y-98103090D01*
X87728606Y-98157447D01*
X87727143Y-98159303D01*
X87669262Y-98200416D01*
X87598342Y-98203710D01*
X87536899Y-98168138D01*
X87506924Y-98115498D01*
X87484534Y-98036107D01*
X87456565Y-97936936D01*
X87358980Y-97739053D01*
X87355179Y-97733962D01*
X87230420Y-97566891D01*
X87230420Y-97566890D01*
X87226967Y-97562267D01*
X87064949Y-97412499D01*
X86878350Y-97294764D01*
X86673421Y-97213006D01*
X86667761Y-97211880D01*
X86667757Y-97211879D01*
X86462691Y-97171089D01*
X86462688Y-97171089D01*
X86457024Y-97169962D01*
X86451249Y-97169886D01*
X86451245Y-97169886D01*
X86283112Y-97167685D01*
X86215259Y-97146793D01*
X86169473Y-97092533D01*
X86159291Y-97053225D01*
X86148983Y-96941046D01*
X86148454Y-96935289D01*
X86088565Y-96722936D01*
X85990980Y-96525053D01*
X85980400Y-96510884D01*
X85862420Y-96352891D01*
X85862420Y-96352890D01*
X85858967Y-96348267D01*
X85761586Y-96258249D01*
X85701189Y-96202418D01*
X85701186Y-96202416D01*
X85696949Y-96198499D01*
X85510350Y-96080764D01*
X85305421Y-95999006D01*
X85299761Y-95997880D01*
X85299757Y-95997879D01*
X85094691Y-95957089D01*
X85094688Y-95957089D01*
X85089024Y-95955962D01*
X85083249Y-95955886D01*
X85083245Y-95955886D01*
X84972504Y-95954437D01*
X84868406Y-95953074D01*
X84862709Y-95954053D01*
X84862708Y-95954053D01*
X84656654Y-95989459D01*
X84656653Y-95989459D01*
X84650957Y-95990438D01*
X84443957Y-96066804D01*
X84438996Y-96069756D01*
X84438995Y-96069756D01*
X84263808Y-96173982D01*
X84254341Y-96179614D01*
X84088457Y-96325090D01*
X83951863Y-96498360D01*
X83849131Y-96693620D01*
X83783703Y-96904333D01*
X83757770Y-97123440D01*
X81105833Y-97123440D01*
X81129907Y-97115268D01*
X81129912Y-97115266D01*
X81135379Y-97113410D01*
X81171910Y-97092952D01*
X81211812Y-97070606D01*
X81327884Y-97005602D01*
X81334837Y-96999820D01*
X81493086Y-96868204D01*
X81497518Y-96864518D01*
X81547034Y-96804982D01*
X81634908Y-96699326D01*
X81634910Y-96699323D01*
X81638602Y-96694884D01*
X81716764Y-96555316D01*
X81743586Y-96507422D01*
X81743587Y-96507420D01*
X81746410Y-96502379D01*
X81748266Y-96496912D01*
X81748268Y-96496907D01*
X81815475Y-96298921D01*
X81815476Y-96298916D01*
X81817331Y-96293452D01*
X81818159Y-96287743D01*
X81818160Y-96287738D01*
X81845572Y-96098677D01*
X81848991Y-96075098D01*
X81850643Y-96012000D01*
X81830454Y-95792289D01*
X81810999Y-95723304D01*
X81772134Y-95585500D01*
X81770565Y-95579936D01*
X81672980Y-95382053D01*
X81592724Y-95274577D01*
X81544420Y-95209891D01*
X81544420Y-95209890D01*
X81540967Y-95205267D01*
X81400600Y-95075513D01*
X81383189Y-95059418D01*
X81383186Y-95059416D01*
X81378949Y-95055499D01*
X81192350Y-94937764D01*
X80987421Y-94856006D01*
X80981761Y-94854880D01*
X80981757Y-94854879D01*
X80788279Y-94816394D01*
X80723765Y-94781910D01*
X79829405Y-93887550D01*
X79795379Y-93825238D01*
X79792500Y-93798455D01*
X79792500Y-91785141D01*
X86843270Y-91785141D01*
X86857700Y-92005305D01*
X86859121Y-92010901D01*
X86859122Y-92010906D01*
X86888642Y-92127138D01*
X86912011Y-92219153D01*
X86914428Y-92224395D01*
X86914428Y-92224396D01*
X86941676Y-92283500D01*
X87004383Y-92419522D01*
X87131722Y-92599703D01*
X87289764Y-92753662D01*
X87294560Y-92756867D01*
X87294563Y-92756869D01*
X87438693Y-92853173D01*
X87473217Y-92876241D01*
X87478520Y-92878519D01*
X87478523Y-92878521D01*
X87622183Y-92940242D01*
X87675936Y-92963336D01*
X87891132Y-93012030D01*
X87896905Y-93012257D01*
X87898607Y-93012481D01*
X87963533Y-93041206D01*
X87971252Y-93048308D01*
X90352694Y-95429750D01*
X90386720Y-95492062D01*
X90381655Y-95562877D01*
X90339108Y-95619713D01*
X90284938Y-95643024D01*
X90262161Y-95646938D01*
X90055161Y-95723304D01*
X89865545Y-95836114D01*
X89699661Y-95981590D01*
X89563067Y-96154860D01*
X89460335Y-96350120D01*
X89394907Y-96560833D01*
X89368974Y-96779940D01*
X89383404Y-97000104D01*
X89384825Y-97005700D01*
X89384826Y-97005705D01*
X89426543Y-97169962D01*
X89437715Y-97213952D01*
X89440132Y-97219194D01*
X89440132Y-97219195D01*
X89476390Y-97297845D01*
X89530087Y-97414321D01*
X89657426Y-97594502D01*
X89815468Y-97748461D01*
X89820264Y-97751666D01*
X89820267Y-97751668D01*
X89904465Y-97807927D01*
X89998921Y-97871040D01*
X90004224Y-97873318D01*
X90004227Y-97873320D01*
X90193552Y-97954660D01*
X90201640Y-97958135D01*
X90269177Y-97973417D01*
X90411199Y-98005554D01*
X90411205Y-98005555D01*
X90416836Y-98006829D01*
X90422607Y-98007056D01*
X90422609Y-98007056D01*
X90490415Y-98009720D01*
X90637302Y-98015491D01*
X90746479Y-97999661D01*
X90849942Y-97984660D01*
X90849947Y-97984659D01*
X90855656Y-97983831D01*
X90861120Y-97981976D01*
X90861125Y-97981975D01*
X91059111Y-97914768D01*
X91059116Y-97914766D01*
X91064583Y-97912910D01*
X91257088Y-97805102D01*
X91270798Y-97793700D01*
X91422290Y-97667704D01*
X91426722Y-97664018D01*
X91567806Y-97494384D01*
X91675614Y-97301879D01*
X91677470Y-97296412D01*
X91677472Y-97296407D01*
X91744677Y-97098426D01*
X91744677Y-97098424D01*
X91746535Y-97092952D01*
X91746593Y-97092555D01*
X91781077Y-97032501D01*
X91844105Y-96999820D01*
X91914796Y-97006403D01*
X91957336Y-97034392D01*
X92927853Y-98004909D01*
X92940692Y-98019941D01*
X92949230Y-98031692D01*
X92954132Y-98036105D01*
X92954133Y-98036107D01*
X93001070Y-98078369D01*
X93005854Y-98082910D01*
X93020669Y-98097725D01*
X93023233Y-98099801D01*
X93036963Y-98110920D01*
X93041978Y-98115204D01*
X93088894Y-98157447D01*
X93088898Y-98157450D01*
X93093807Y-98161870D01*
X93106387Y-98169133D01*
X93122672Y-98180326D01*
X93128825Y-98185308D01*
X93133959Y-98189465D01*
X93139843Y-98192463D01*
X93196082Y-98221118D01*
X93201880Y-98224266D01*
X93256573Y-98255843D01*
X93256575Y-98255844D01*
X93262291Y-98259144D01*
X93276098Y-98263630D01*
X93294362Y-98271195D01*
X93301422Y-98274792D01*
X93307302Y-98277788D01*
X93374684Y-98295843D01*
X93380995Y-98297713D01*
X93447317Y-98319262D01*
X93461750Y-98320779D01*
X93481192Y-98324382D01*
X93495221Y-98328141D01*
X93501813Y-98328486D01*
X93501816Y-98328487D01*
X93564861Y-98331791D01*
X93571435Y-98332308D01*
X93589021Y-98334156D01*
X93589023Y-98334156D01*
X93592295Y-98334500D01*
X93613263Y-98334500D01*
X93619857Y-98334673D01*
X93682910Y-98337978D01*
X93682915Y-98337978D01*
X93689502Y-98338323D01*
X93703848Y-98336051D01*
X93723557Y-98334500D01*
X102914242Y-98334500D01*
X102933951Y-98336051D01*
X102948297Y-98338323D01*
X102954885Y-98337978D01*
X102954890Y-98337978D01*
X103005817Y-98335309D01*
X103040217Y-98338243D01*
X103086268Y-98348663D01*
X103093632Y-98350329D01*
X103099403Y-98350556D01*
X103099405Y-98350556D01*
X103167211Y-98353220D01*
X103314098Y-98358991D01*
X103423275Y-98343161D01*
X103526738Y-98328160D01*
X103526743Y-98328159D01*
X103532452Y-98327331D01*
X103537916Y-98325476D01*
X103537921Y-98325475D01*
X103735907Y-98258268D01*
X103735912Y-98258266D01*
X103741379Y-98256410D01*
X103933884Y-98148602D01*
X103965448Y-98122351D01*
X104088577Y-98019944D01*
X104103518Y-98007518D01*
X104165256Y-97933287D01*
X104240908Y-97842326D01*
X104240910Y-97842323D01*
X104244602Y-97837884D01*
X104309606Y-97721812D01*
X104349586Y-97650422D01*
X104349587Y-97650420D01*
X104352410Y-97645379D01*
X104354266Y-97639912D01*
X104354268Y-97639907D01*
X104421475Y-97441921D01*
X104421476Y-97441916D01*
X104423331Y-97436452D01*
X104424159Y-97430743D01*
X104424160Y-97430738D01*
X104436528Y-97345436D01*
X106093737Y-97345436D01*
X106093868Y-97347269D01*
X106098119Y-97353884D01*
X106566910Y-97822675D01*
X106574427Y-97829096D01*
X106639117Y-97876097D01*
X106656574Y-97884992D01*
X106758213Y-97918017D01*
X106777565Y-97921082D01*
X106884435Y-97921082D01*
X106903787Y-97918017D01*
X107005426Y-97884992D01*
X107022884Y-97876097D01*
X107087574Y-97829097D01*
X107095087Y-97822680D01*
X107560650Y-97357117D01*
X107568264Y-97343173D01*
X107568133Y-97341340D01*
X107563882Y-97334725D01*
X106843812Y-96614655D01*
X106829868Y-96607041D01*
X106828035Y-96607172D01*
X106821420Y-96611423D01*
X106101351Y-97331492D01*
X106093737Y-97345436D01*
X104436528Y-97345436D01*
X104454458Y-97221772D01*
X104454991Y-97218098D01*
X104456643Y-97155000D01*
X104436454Y-96935289D01*
X104376565Y-96722936D01*
X104278980Y-96525053D01*
X104268400Y-96510884D01*
X104150420Y-96352891D01*
X104150420Y-96352890D01*
X104146967Y-96348267D01*
X104049586Y-96258249D01*
X103989189Y-96202418D01*
X103989186Y-96202416D01*
X103984949Y-96198499D01*
X103798350Y-96080764D01*
X103593421Y-95999006D01*
X103587761Y-95997880D01*
X103587757Y-95997879D01*
X103382691Y-95957089D01*
X103382688Y-95957089D01*
X103377024Y-95955962D01*
X103371249Y-95955886D01*
X103371245Y-95955886D01*
X103260504Y-95954437D01*
X103156406Y-95953074D01*
X103150709Y-95954053D01*
X103150708Y-95954053D01*
X102944654Y-95989459D01*
X102944653Y-95989459D01*
X102938957Y-95990438D01*
X102731957Y-96066804D01*
X102726996Y-96069756D01*
X102726995Y-96069756D01*
X102551808Y-96173982D01*
X102542341Y-96179614D01*
X102376457Y-96325090D01*
X102372878Y-96329630D01*
X102372877Y-96329631D01*
X102289414Y-96435505D01*
X102231534Y-96476619D01*
X102190464Y-96483500D01*
X94076344Y-96483500D01*
X94008223Y-96463498D01*
X93987249Y-96446595D01*
X91540595Y-93999941D01*
X91506569Y-93937629D01*
X91511634Y-93866814D01*
X91554181Y-93809978D01*
X91568110Y-93800920D01*
X91741884Y-93703602D01*
X91911518Y-93562518D01*
X91985178Y-93473952D01*
X92048908Y-93397326D01*
X92048910Y-93397323D01*
X92052602Y-93392884D01*
X92160410Y-93200379D01*
X92162266Y-93194912D01*
X92162268Y-93194907D01*
X92229475Y-92996921D01*
X92229476Y-92996916D01*
X92231331Y-92991452D01*
X92232159Y-92985743D01*
X92232160Y-92985738D01*
X92258784Y-92802114D01*
X92262991Y-92773098D01*
X92264643Y-92710000D01*
X92244454Y-92490289D01*
X92235351Y-92458010D01*
X92186134Y-92283500D01*
X92184565Y-92277936D01*
X92097574Y-92101535D01*
X92089535Y-92085234D01*
X92086980Y-92080053D01*
X91972212Y-91926360D01*
X91958420Y-91907891D01*
X91958420Y-91907890D01*
X91954967Y-91903267D01*
X91820975Y-91779406D01*
X91797189Y-91757418D01*
X91797186Y-91757416D01*
X91792949Y-91753499D01*
X91606350Y-91635764D01*
X91401421Y-91554006D01*
X91395761Y-91552880D01*
X91395757Y-91552879D01*
X91190691Y-91512089D01*
X91190688Y-91512089D01*
X91185024Y-91510962D01*
X91179249Y-91510886D01*
X91179245Y-91510886D01*
X91068504Y-91509437D01*
X90964406Y-91508074D01*
X90958709Y-91509053D01*
X90958708Y-91509053D01*
X90752654Y-91544459D01*
X90752653Y-91544459D01*
X90746957Y-91545438D01*
X90539957Y-91621804D01*
X90534996Y-91624756D01*
X90534995Y-91624756D01*
X90403404Y-91703045D01*
X90350341Y-91734614D01*
X90184457Y-91880090D01*
X90047863Y-92053360D01*
X90045174Y-92058471D01*
X90045172Y-92058474D01*
X89971047Y-92199362D01*
X89921628Y-92250335D01*
X89852495Y-92266498D01*
X89785599Y-92242719D01*
X89770444Y-92229790D01*
X89275907Y-91735253D01*
X89241881Y-91672941D01*
X89239531Y-91657687D01*
X89234483Y-91602746D01*
X89234483Y-91602745D01*
X89233954Y-91596990D01*
X89221832Y-91554006D01*
X89175634Y-91390201D01*
X89174065Y-91384637D01*
X89076480Y-91186754D01*
X89051833Y-91153747D01*
X88947920Y-91014592D01*
X88947920Y-91014591D01*
X88944467Y-91009968D01*
X88841074Y-90914392D01*
X88786689Y-90864119D01*
X88786686Y-90864117D01*
X88782449Y-90860200D01*
X88595850Y-90742465D01*
X88390921Y-90660707D01*
X88385261Y-90659581D01*
X88385257Y-90659580D01*
X88180191Y-90618790D01*
X88180188Y-90618790D01*
X88174524Y-90617663D01*
X88168749Y-90617587D01*
X88168745Y-90617587D01*
X88058004Y-90616138D01*
X87953906Y-90614775D01*
X87948209Y-90615754D01*
X87948208Y-90615754D01*
X87742154Y-90651160D01*
X87742153Y-90651160D01*
X87736457Y-90652139D01*
X87529457Y-90728505D01*
X87339841Y-90841315D01*
X87173957Y-90986791D01*
X87037363Y-91160061D01*
X86934631Y-91355321D01*
X86869203Y-91566034D01*
X86843270Y-91785141D01*
X79792500Y-91785141D01*
X79792500Y-91234317D01*
X79812502Y-91166196D01*
X79821626Y-91153747D01*
X79856908Y-91111326D01*
X79856910Y-91111323D01*
X79860602Y-91106884D01*
X79968410Y-90914379D01*
X79970266Y-90908912D01*
X79970268Y-90908907D01*
X80037475Y-90710921D01*
X80037476Y-90710916D01*
X80039331Y-90705452D01*
X80040159Y-90699743D01*
X80040160Y-90699738D01*
X80070458Y-90490772D01*
X80070991Y-90487098D01*
X80072643Y-90424000D01*
X80052454Y-90204289D01*
X79992565Y-89991936D01*
X79894980Y-89794053D01*
X79762967Y-89617267D01*
X79658695Y-89520879D01*
X79605189Y-89471418D01*
X79605186Y-89471416D01*
X79600949Y-89467499D01*
X79414350Y-89349764D01*
X79209421Y-89268006D01*
X79203761Y-89266880D01*
X79203757Y-89266879D01*
X78998691Y-89226089D01*
X78998688Y-89226089D01*
X78993024Y-89224962D01*
X78987249Y-89224886D01*
X78987245Y-89224886D01*
X78876504Y-89223437D01*
X78772406Y-89222074D01*
X78766709Y-89223053D01*
X78766708Y-89223053D01*
X78560654Y-89258459D01*
X78560653Y-89258459D01*
X78554957Y-89259438D01*
X78347957Y-89335804D01*
X78158341Y-89448614D01*
X78107561Y-89493147D01*
X78090420Y-89508179D01*
X78026016Y-89538056D01*
X77960652Y-89530476D01*
X77955248Y-89528320D01*
X77944786Y-89524146D01*
X77944782Y-89524145D01*
X77939421Y-89522006D01*
X77933761Y-89520880D01*
X77933757Y-89520879D01*
X77728691Y-89480089D01*
X77728688Y-89480089D01*
X77723024Y-89478962D01*
X77717249Y-89478886D01*
X77717245Y-89478886D01*
X77606504Y-89477437D01*
X77502406Y-89476074D01*
X77496709Y-89477053D01*
X77496708Y-89477053D01*
X77479040Y-89480089D01*
X77355458Y-89501324D01*
X77284935Y-89493147D01*
X77230027Y-89448140D01*
X77208168Y-89380592D01*
X77226299Y-89311949D01*
X77264806Y-89271923D01*
X77730513Y-88965133D01*
X77735062Y-88962274D01*
X78271535Y-88640798D01*
X78524268Y-88489350D01*
X78528906Y-88486703D01*
X79147954Y-88150756D01*
X79208053Y-88135500D01*
X99353946Y-88135500D01*
X99414045Y-88150756D01*
G37*
%TD.AperFunction*%
%TD*%
M02*
