%TF.GenerationSoftware,KiCad,Pcbnew,(6.0.4-0)*%
%TF.CreationDate,2022-12-23T16:58:16+01:00*%
%TF.ProjectId,RoundScanner,526f756e-6453-4636-916e-6e65722e6b69,2*%
%TF.SameCoordinates,Original*%
%TF.FileFunction,Legend,Top*%
%TF.FilePolarity,Positive*%
%FSLAX46Y46*%
G04 Gerber Fmt 4.6, Leading zero omitted, Abs format (unit mm)*
G04 Created by KiCad (PCBNEW (6.0.4-0)) date 2022-12-23 16:58:16*
%MOMM*%
%LPD*%
G01*
G04 APERTURE LIST*
G04 Aperture macros list*
%AMRoundRect*
0 Rectangle with rounded corners*
0 $1 Rounding radius*
0 $2 $3 $4 $5 $6 $7 $8 $9 X,Y pos of 4 corners*
0 Add a 4 corners polygon primitive as box body*
4,1,4,$2,$3,$4,$5,$6,$7,$8,$9,$2,$3,0*
0 Add four circle primitives for the rounded corners*
1,1,$1+$1,$2,$3*
1,1,$1+$1,$4,$5*
1,1,$1+$1,$6,$7*
1,1,$1+$1,$8,$9*
0 Add four rect primitives between the rounded corners*
20,1,$1+$1,$2,$3,$4,$5,0*
20,1,$1+$1,$4,$5,$6,$7,0*
20,1,$1+$1,$6,$7,$8,$9,0*
20,1,$1+$1,$8,$9,$2,$3,0*%
%AMHorizOval*
0 Thick line with rounded ends*
0 $1 width*
0 $2 $3 position (X,Y) of the first rounded end (center of the circle)*
0 $4 $5 position (X,Y) of the second rounded end (center of the circle)*
0 Add line between two ends*
20,1,$1,$2,$3,$4,$5,0*
0 Add two circle primitives to create the rounded ends*
1,1,$1,$2,$3*
1,1,$1,$4,$5*%
%AMRotRect*
0 Rectangle, with rotation*
0 The origin of the aperture is its center*
0 $1 length*
0 $2 width*
0 $3 Rotation angle, in degrees counterclockwise*
0 Add horizontal line*
21,1,$1,$2,0,0,$3*%
G04 Aperture macros list end*
%ADD10C,0.125000*%
%ADD11C,0.150000*%
%ADD12C,0.120000*%
%ADD13C,0.250000*%
%ADD14C,0.500000*%
%ADD15C,0.127000*%
%ADD16C,0.200000*%
%ADD17RoundRect,0.250001X0.462499X0.624999X-0.462499X0.624999X-0.462499X-0.624999X0.462499X-0.624999X0*%
%ADD18RoundRect,0.237500X-0.237500X0.300000X-0.237500X-0.300000X0.237500X-0.300000X0.237500X0.300000X0*%
%ADD19RoundRect,0.237500X0.237500X-0.300000X0.237500X0.300000X-0.237500X0.300000X-0.237500X-0.300000X0*%
%ADD20RoundRect,0.237500X0.344715X-0.008839X-0.008839X0.344715X-0.344715X0.008839X0.008839X-0.344715X0*%
%ADD21RoundRect,0.237500X-0.237500X0.250000X-0.237500X-0.250000X0.237500X-0.250000X0.237500X0.250000X0*%
%ADD22R,1.510292X0.412132*%
%ADD23RoundRect,0.206066X0.549080X0.000000X-0.549080X0.000000X-0.549080X0.000000X0.549080X0.000000X0*%
%ADD24RoundRect,0.237500X0.237500X-0.250000X0.237500X0.250000X-0.237500X0.250000X-0.237500X-0.250000X0*%
%ADD25RoundRect,0.237500X0.250000X0.237500X-0.250000X0.237500X-0.250000X-0.237500X0.250000X-0.237500X0*%
%ADD26C,1.500000*%
%ADD27C,3.500000*%
%ADD28RoundRect,0.237500X0.300000X0.237500X-0.300000X0.237500X-0.300000X-0.237500X0.300000X-0.237500X0*%
%ADD29R,0.543390X1.874066*%
%ADD30RoundRect,0.271695X0.000000X0.665338X0.000000X-0.665338X0.000000X-0.665338X0.000000X0.665338X0*%
%ADD31RoundRect,0.042000X-0.943000X-0.258000X0.943000X-0.258000X0.943000X0.258000X-0.943000X0.258000X0*%
%ADD32RoundRect,0.237500X-0.250000X-0.237500X0.250000X-0.237500X0.250000X0.237500X-0.250000X0.237500X0*%
%ADD33RoundRect,0.237500X0.008839X0.344715X-0.344715X-0.008839X-0.008839X-0.344715X0.344715X0.008839X0*%
%ADD34RoundRect,0.200000X0.200000X0.250000X-0.200000X0.250000X-0.200000X-0.250000X0.200000X-0.250000X0*%
%ADD35R,0.550000X0.800000*%
%ADD36O,0.550000X0.800000*%
%ADD37RoundRect,0.042000X0.943000X0.258000X-0.943000X0.258000X-0.943000X-0.258000X0.943000X-0.258000X0*%
%ADD38RoundRect,0.250001X-0.462499X-0.624999X0.462499X-0.624999X0.462499X0.624999X-0.462499X0.624999X0*%
%ADD39RoundRect,0.237500X-0.300000X-0.237500X0.300000X-0.237500X0.300000X0.237500X-0.300000X0.237500X0*%
%ADD40R,2.100000X2.100000*%
%ADD41R,1.000000X2.100000*%
%ADD42R,1.475000X0.450000*%
%ADD43R,0.590000X0.690000*%
%ADD44RotRect,1.700000X1.700000X45.000000*%
%ADD45HorizOval,1.700000X0.000000X0.000000X0.000000X0.000000X0*%
%ADD46RotRect,1.700000X1.700000X225.000000*%
%ADD47HorizOval,1.700000X0.000000X0.000000X0.000000X0.000000X0*%
G04 APERTURE END LIST*
D10*
%TO.C,D8*%
X95476190Y-102223047D02*
X94976190Y-102223047D01*
X94976190Y-102104000D01*
X95000000Y-102032571D01*
X95047619Y-101984952D01*
X95095238Y-101961142D01*
X95190476Y-101937333D01*
X95261904Y-101937333D01*
X95357142Y-101961142D01*
X95404761Y-101984952D01*
X95452380Y-102032571D01*
X95476190Y-102104000D01*
X95476190Y-102223047D01*
X95190476Y-101651619D02*
X95166666Y-101699238D01*
X95142857Y-101723047D01*
X95095238Y-101746857D01*
X95071428Y-101746857D01*
X95023809Y-101723047D01*
X95000000Y-101699238D01*
X94976190Y-101651619D01*
X94976190Y-101556380D01*
X95000000Y-101508761D01*
X95023809Y-101484952D01*
X95071428Y-101461142D01*
X95095238Y-101461142D01*
X95142857Y-101484952D01*
X95166666Y-101508761D01*
X95190476Y-101556380D01*
X95190476Y-101651619D01*
X95214285Y-101699238D01*
X95238095Y-101723047D01*
X95285714Y-101746857D01*
X95380952Y-101746857D01*
X95428571Y-101723047D01*
X95452380Y-101699238D01*
X95476190Y-101651619D01*
X95476190Y-101556380D01*
X95452380Y-101508761D01*
X95428571Y-101484952D01*
X95380952Y-101461142D01*
X95285714Y-101461142D01*
X95238095Y-101484952D01*
X95214285Y-101508761D01*
X95190476Y-101556380D01*
%TO.C,C7*%
X86530666Y-97206571D02*
X86506857Y-97230380D01*
X86435428Y-97254190D01*
X86387809Y-97254190D01*
X86316380Y-97230380D01*
X86268761Y-97182761D01*
X86244952Y-97135142D01*
X86221142Y-97039904D01*
X86221142Y-96968476D01*
X86244952Y-96873238D01*
X86268761Y-96825619D01*
X86316380Y-96778000D01*
X86387809Y-96754190D01*
X86435428Y-96754190D01*
X86506857Y-96778000D01*
X86530666Y-96801809D01*
X86697333Y-96754190D02*
X87030666Y-96754190D01*
X86816380Y-97254190D01*
%TO.C,C13*%
X68766571Y-109144571D02*
X68742761Y-109168380D01*
X68671333Y-109192190D01*
X68623714Y-109192190D01*
X68552285Y-109168380D01*
X68504666Y-109120761D01*
X68480857Y-109073142D01*
X68457047Y-108977904D01*
X68457047Y-108906476D01*
X68480857Y-108811238D01*
X68504666Y-108763619D01*
X68552285Y-108716000D01*
X68623714Y-108692190D01*
X68671333Y-108692190D01*
X68742761Y-108716000D01*
X68766571Y-108739809D01*
X69242761Y-109192190D02*
X68957047Y-109192190D01*
X69099904Y-109192190D02*
X69099904Y-108692190D01*
X69052285Y-108763619D01*
X69004666Y-108811238D01*
X68957047Y-108835047D01*
X69409428Y-108692190D02*
X69718952Y-108692190D01*
X69552285Y-108882666D01*
X69623714Y-108882666D01*
X69671333Y-108906476D01*
X69695142Y-108930285D01*
X69718952Y-108977904D01*
X69718952Y-109096952D01*
X69695142Y-109144571D01*
X69671333Y-109168380D01*
X69623714Y-109192190D01*
X69480857Y-109192190D01*
X69433238Y-109168380D01*
X69409428Y-109144571D01*
%TO.C,R29*%
X104326656Y-103384225D02*
X104040446Y-103333717D01*
X104124625Y-103586255D02*
X103771072Y-103232702D01*
X103905759Y-103098015D01*
X103956267Y-103081179D01*
X103989938Y-103081179D01*
X104040446Y-103098015D01*
X104090954Y-103148522D01*
X104107790Y-103199030D01*
X104107790Y-103232702D01*
X104090954Y-103283209D01*
X103956267Y-103417896D01*
X104141461Y-102929656D02*
X104141461Y-102895984D01*
X104158297Y-102845477D01*
X104242477Y-102761297D01*
X104292984Y-102744461D01*
X104326656Y-102744461D01*
X104377164Y-102761297D01*
X104410835Y-102794969D01*
X104444507Y-102862312D01*
X104444507Y-103266374D01*
X104663374Y-103047507D01*
X104831732Y-102879148D02*
X104899076Y-102811805D01*
X104915912Y-102761297D01*
X104915912Y-102727625D01*
X104899076Y-102643446D01*
X104848568Y-102559267D01*
X104713881Y-102424580D01*
X104663374Y-102407744D01*
X104629702Y-102407744D01*
X104579194Y-102424580D01*
X104511851Y-102491923D01*
X104495015Y-102542431D01*
X104495015Y-102576103D01*
X104511851Y-102626610D01*
X104596030Y-102710790D01*
X104646538Y-102727625D01*
X104680209Y-102727625D01*
X104730717Y-102710790D01*
X104798061Y-102643446D01*
X104814896Y-102592938D01*
X104814896Y-102559267D01*
X104798061Y-102508759D01*
%TO.C,R1*%
X101770666Y-98270190D02*
X101604000Y-98032095D01*
X101484952Y-98270190D02*
X101484952Y-97770190D01*
X101675428Y-97770190D01*
X101723047Y-97794000D01*
X101746857Y-97817809D01*
X101770666Y-97865428D01*
X101770666Y-97936857D01*
X101746857Y-97984476D01*
X101723047Y-98008285D01*
X101675428Y-98032095D01*
X101484952Y-98032095D01*
X102246857Y-98270190D02*
X101961142Y-98270190D01*
X102104000Y-98270190D02*
X102104000Y-97770190D01*
X102056380Y-97841619D01*
X102008761Y-97889238D01*
X101961142Y-97913047D01*
%TO.C,C3*%
X90213666Y-97079571D02*
X90189857Y-97103380D01*
X90118428Y-97127190D01*
X90070809Y-97127190D01*
X89999380Y-97103380D01*
X89951761Y-97055761D01*
X89927952Y-97008142D01*
X89904142Y-96912904D01*
X89904142Y-96841476D01*
X89927952Y-96746238D01*
X89951761Y-96698619D01*
X89999380Y-96651000D01*
X90070809Y-96627190D01*
X90118428Y-96627190D01*
X90189857Y-96651000D01*
X90213666Y-96674809D01*
X90380333Y-96627190D02*
X90689857Y-96627190D01*
X90523190Y-96817666D01*
X90594619Y-96817666D01*
X90642238Y-96841476D01*
X90666047Y-96865285D01*
X90689857Y-96912904D01*
X90689857Y-97031952D01*
X90666047Y-97079571D01*
X90642238Y-97103380D01*
X90594619Y-97127190D01*
X90451761Y-97127190D01*
X90404142Y-97103380D01*
X90380333Y-97079571D01*
%TO.C,C5*%
X81577666Y-88951571D02*
X81553857Y-88975380D01*
X81482428Y-88999190D01*
X81434809Y-88999190D01*
X81363380Y-88975380D01*
X81315761Y-88927761D01*
X81291952Y-88880142D01*
X81268142Y-88784904D01*
X81268142Y-88713476D01*
X81291952Y-88618238D01*
X81315761Y-88570619D01*
X81363380Y-88523000D01*
X81434809Y-88499190D01*
X81482428Y-88499190D01*
X81553857Y-88523000D01*
X81577666Y-88546809D01*
X82030047Y-88499190D02*
X81791952Y-88499190D01*
X81768142Y-88737285D01*
X81791952Y-88713476D01*
X81839571Y-88689666D01*
X81958619Y-88689666D01*
X82006238Y-88713476D01*
X82030047Y-88737285D01*
X82053857Y-88784904D01*
X82053857Y-88903952D01*
X82030047Y-88951571D01*
X82006238Y-88975380D01*
X81958619Y-88999190D01*
X81839571Y-88999190D01*
X81791952Y-88975380D01*
X81768142Y-88951571D01*
%TO.C,Q1*%
X75711809Y-112896869D02*
X75688000Y-112944488D01*
X75640380Y-112992107D01*
X75568952Y-113063535D01*
X75545142Y-113111154D01*
X75545142Y-113158773D01*
X75664190Y-113134964D02*
X75640380Y-113182583D01*
X75592761Y-113230202D01*
X75497523Y-113254011D01*
X75330857Y-113254011D01*
X75235619Y-113230202D01*
X75188000Y-113182583D01*
X75164190Y-113134964D01*
X75164190Y-113039726D01*
X75188000Y-112992107D01*
X75235619Y-112944488D01*
X75330857Y-112920678D01*
X75497523Y-112920678D01*
X75592761Y-112944488D01*
X75640380Y-112992107D01*
X75664190Y-113039726D01*
X75664190Y-113134964D01*
X75664190Y-112444488D02*
X75664190Y-112730202D01*
X75664190Y-112587345D02*
X75164190Y-112587345D01*
X75235619Y-112634964D01*
X75283238Y-112682583D01*
X75307047Y-112730202D01*
%TO.C,R16*%
X93531571Y-127480190D02*
X93364904Y-127242095D01*
X93245857Y-127480190D02*
X93245857Y-126980190D01*
X93436333Y-126980190D01*
X93483952Y-127004000D01*
X93507761Y-127027809D01*
X93531571Y-127075428D01*
X93531571Y-127146857D01*
X93507761Y-127194476D01*
X93483952Y-127218285D01*
X93436333Y-127242095D01*
X93245857Y-127242095D01*
X94007761Y-127480190D02*
X93722047Y-127480190D01*
X93864904Y-127480190D02*
X93864904Y-126980190D01*
X93817285Y-127051619D01*
X93769666Y-127099238D01*
X93722047Y-127123047D01*
X94436333Y-126980190D02*
X94341095Y-126980190D01*
X94293476Y-127004000D01*
X94269666Y-127027809D01*
X94222047Y-127099238D01*
X94198238Y-127194476D01*
X94198238Y-127384952D01*
X94222047Y-127432571D01*
X94245857Y-127456380D01*
X94293476Y-127480190D01*
X94388714Y-127480190D01*
X94436333Y-127456380D01*
X94460142Y-127432571D01*
X94483952Y-127384952D01*
X94483952Y-127265904D01*
X94460142Y-127218285D01*
X94436333Y-127194476D01*
X94388714Y-127170666D01*
X94293476Y-127170666D01*
X94245857Y-127194476D01*
X94222047Y-127218285D01*
X94198238Y-127265904D01*
%TO.C,R4*%
X88181666Y-90015190D02*
X88015000Y-89777095D01*
X87895952Y-90015190D02*
X87895952Y-89515190D01*
X88086428Y-89515190D01*
X88134047Y-89539000D01*
X88157857Y-89562809D01*
X88181666Y-89610428D01*
X88181666Y-89681857D01*
X88157857Y-89729476D01*
X88134047Y-89753285D01*
X88086428Y-89777095D01*
X87895952Y-89777095D01*
X88610238Y-89681857D02*
X88610238Y-90015190D01*
X88491190Y-89491380D02*
X88372142Y-89848523D01*
X88681666Y-89848523D01*
%TO.C,R13*%
X85857190Y-115540428D02*
X85619095Y-115707095D01*
X85857190Y-115826142D02*
X85357190Y-115826142D01*
X85357190Y-115635666D01*
X85381000Y-115588047D01*
X85404809Y-115564238D01*
X85452428Y-115540428D01*
X85523857Y-115540428D01*
X85571476Y-115564238D01*
X85595285Y-115588047D01*
X85619095Y-115635666D01*
X85619095Y-115826142D01*
X85857190Y-115064238D02*
X85857190Y-115349952D01*
X85857190Y-115207095D02*
X85357190Y-115207095D01*
X85428619Y-115254714D01*
X85476238Y-115302333D01*
X85500047Y-115349952D01*
X85357190Y-114897571D02*
X85357190Y-114588047D01*
X85547666Y-114754714D01*
X85547666Y-114683285D01*
X85571476Y-114635666D01*
X85595285Y-114611857D01*
X85642904Y-114588047D01*
X85761952Y-114588047D01*
X85809571Y-114611857D01*
X85833380Y-114635666D01*
X85857190Y-114683285D01*
X85857190Y-114826142D01*
X85833380Y-114873761D01*
X85809571Y-114897571D01*
%TO.C,C20*%
X77402571Y-118669571D02*
X77378761Y-118693380D01*
X77307333Y-118717190D01*
X77259714Y-118717190D01*
X77188285Y-118693380D01*
X77140666Y-118645761D01*
X77116857Y-118598142D01*
X77093047Y-118502904D01*
X77093047Y-118431476D01*
X77116857Y-118336238D01*
X77140666Y-118288619D01*
X77188285Y-118241000D01*
X77259714Y-118217190D01*
X77307333Y-118217190D01*
X77378761Y-118241000D01*
X77402571Y-118264809D01*
X77593047Y-118264809D02*
X77616857Y-118241000D01*
X77664476Y-118217190D01*
X77783523Y-118217190D01*
X77831142Y-118241000D01*
X77854952Y-118264809D01*
X77878761Y-118312428D01*
X77878761Y-118360047D01*
X77854952Y-118431476D01*
X77569238Y-118717190D01*
X77878761Y-118717190D01*
X78188285Y-118217190D02*
X78235904Y-118217190D01*
X78283523Y-118241000D01*
X78307333Y-118264809D01*
X78331142Y-118312428D01*
X78354952Y-118407666D01*
X78354952Y-118526714D01*
X78331142Y-118621952D01*
X78307333Y-118669571D01*
X78283523Y-118693380D01*
X78235904Y-118717190D01*
X78188285Y-118717190D01*
X78140666Y-118693380D01*
X78116857Y-118669571D01*
X78093047Y-118621952D01*
X78069238Y-118526714D01*
X78069238Y-118407666D01*
X78093047Y-118312428D01*
X78116857Y-118264809D01*
X78140666Y-118241000D01*
X78188285Y-118217190D01*
%TO.C,TP1*%
X75569047Y-123297190D02*
X75854761Y-123297190D01*
X75711904Y-123797190D02*
X75711904Y-123297190D01*
X76021428Y-123797190D02*
X76021428Y-123297190D01*
X76211904Y-123297190D01*
X76259523Y-123321000D01*
X76283333Y-123344809D01*
X76307142Y-123392428D01*
X76307142Y-123463857D01*
X76283333Y-123511476D01*
X76259523Y-123535285D01*
X76211904Y-123559095D01*
X76021428Y-123559095D01*
X76783333Y-123797190D02*
X76497619Y-123797190D01*
X76640476Y-123797190D02*
X76640476Y-123297190D01*
X76592857Y-123368619D01*
X76545238Y-123416238D01*
X76497619Y-123440047D01*
%TO.C,R7*%
X82649190Y-115653333D02*
X82411095Y-115820000D01*
X82649190Y-115939047D02*
X82149190Y-115939047D01*
X82149190Y-115748571D01*
X82173000Y-115700952D01*
X82196809Y-115677142D01*
X82244428Y-115653333D01*
X82315857Y-115653333D01*
X82363476Y-115677142D01*
X82387285Y-115700952D01*
X82411095Y-115748571D01*
X82411095Y-115939047D01*
X82149190Y-115486666D02*
X82149190Y-115153333D01*
X82649190Y-115367619D01*
%TO.C,R6*%
X84554190Y-93047333D02*
X84316095Y-93214000D01*
X84554190Y-93333047D02*
X84054190Y-93333047D01*
X84054190Y-93142571D01*
X84078000Y-93094952D01*
X84101809Y-93071142D01*
X84149428Y-93047333D01*
X84220857Y-93047333D01*
X84268476Y-93071142D01*
X84292285Y-93094952D01*
X84316095Y-93142571D01*
X84316095Y-93333047D01*
X84054190Y-92618761D02*
X84054190Y-92714000D01*
X84078000Y-92761619D01*
X84101809Y-92785428D01*
X84173238Y-92833047D01*
X84268476Y-92856857D01*
X84458952Y-92856857D01*
X84506571Y-92833047D01*
X84530380Y-92809238D01*
X84554190Y-92761619D01*
X84554190Y-92666380D01*
X84530380Y-92618761D01*
X84506571Y-92594952D01*
X84458952Y-92571142D01*
X84339904Y-92571142D01*
X84292285Y-92594952D01*
X84268476Y-92618761D01*
X84244666Y-92666380D01*
X84244666Y-92761619D01*
X84268476Y-92809238D01*
X84292285Y-92833047D01*
X84339904Y-92856857D01*
%TO.C,H2*%
X71755047Y-95032190D02*
X71755047Y-94532190D01*
X71755047Y-94770285D02*
X72040761Y-94770285D01*
X72040761Y-95032190D02*
X72040761Y-94532190D01*
X72255047Y-94579809D02*
X72278857Y-94556000D01*
X72326476Y-94532190D01*
X72445523Y-94532190D01*
X72493142Y-94556000D01*
X72516952Y-94579809D01*
X72540761Y-94627428D01*
X72540761Y-94675047D01*
X72516952Y-94746476D01*
X72231238Y-95032190D01*
X72540761Y-95032190D01*
%TO.C,C2*%
X99865666Y-98222571D02*
X99841857Y-98246380D01*
X99770428Y-98270190D01*
X99722809Y-98270190D01*
X99651380Y-98246380D01*
X99603761Y-98198761D01*
X99579952Y-98151142D01*
X99556142Y-98055904D01*
X99556142Y-97984476D01*
X99579952Y-97889238D01*
X99603761Y-97841619D01*
X99651380Y-97794000D01*
X99722809Y-97770190D01*
X99770428Y-97770190D01*
X99841857Y-97794000D01*
X99865666Y-97817809D01*
X100056142Y-97817809D02*
X100079952Y-97794000D01*
X100127571Y-97770190D01*
X100246619Y-97770190D01*
X100294238Y-97794000D01*
X100318047Y-97817809D01*
X100341857Y-97865428D01*
X100341857Y-97913047D01*
X100318047Y-97984476D01*
X100032333Y-98270190D01*
X100341857Y-98270190D01*
%TO.C,C14*%
X108609571Y-100797571D02*
X108585761Y-100821380D01*
X108514333Y-100845190D01*
X108466714Y-100845190D01*
X108395285Y-100821380D01*
X108347666Y-100773761D01*
X108323857Y-100726142D01*
X108300047Y-100630904D01*
X108300047Y-100559476D01*
X108323857Y-100464238D01*
X108347666Y-100416619D01*
X108395285Y-100369000D01*
X108466714Y-100345190D01*
X108514333Y-100345190D01*
X108585761Y-100369000D01*
X108609571Y-100392809D01*
X109085761Y-100845190D02*
X108800047Y-100845190D01*
X108942904Y-100845190D02*
X108942904Y-100345190D01*
X108895285Y-100416619D01*
X108847666Y-100464238D01*
X108800047Y-100488047D01*
X109514333Y-100511857D02*
X109514333Y-100845190D01*
X109395285Y-100321380D02*
X109276238Y-100678523D01*
X109585761Y-100678523D01*
%TO.C,D12*%
X88673857Y-110709190D02*
X88673857Y-110209190D01*
X88792904Y-110209190D01*
X88864333Y-110233000D01*
X88911952Y-110280619D01*
X88935761Y-110328238D01*
X88959571Y-110423476D01*
X88959571Y-110494904D01*
X88935761Y-110590142D01*
X88911952Y-110637761D01*
X88864333Y-110685380D01*
X88792904Y-110709190D01*
X88673857Y-110709190D01*
X89435761Y-110709190D02*
X89150047Y-110709190D01*
X89292904Y-110709190D02*
X89292904Y-110209190D01*
X89245285Y-110280619D01*
X89197666Y-110328238D01*
X89150047Y-110352047D01*
X89626238Y-110256809D02*
X89650047Y-110233000D01*
X89697666Y-110209190D01*
X89816714Y-110209190D01*
X89864333Y-110233000D01*
X89888142Y-110256809D01*
X89911952Y-110304428D01*
X89911952Y-110352047D01*
X89888142Y-110423476D01*
X89602428Y-110709190D01*
X89911952Y-110709190D01*
%TO.C,D10*%
X98651190Y-107287142D02*
X98151190Y-107287142D01*
X98151190Y-107168095D01*
X98175000Y-107096666D01*
X98222619Y-107049047D01*
X98270238Y-107025238D01*
X98365476Y-107001428D01*
X98436904Y-107001428D01*
X98532142Y-107025238D01*
X98579761Y-107049047D01*
X98627380Y-107096666D01*
X98651190Y-107168095D01*
X98651190Y-107287142D01*
X98651190Y-106525238D02*
X98651190Y-106810952D01*
X98651190Y-106668095D02*
X98151190Y-106668095D01*
X98222619Y-106715714D01*
X98270238Y-106763333D01*
X98294047Y-106810952D01*
X98151190Y-106215714D02*
X98151190Y-106168095D01*
X98175000Y-106120476D01*
X98198809Y-106096666D01*
X98246428Y-106072857D01*
X98341666Y-106049047D01*
X98460714Y-106049047D01*
X98555952Y-106072857D01*
X98603571Y-106096666D01*
X98627380Y-106120476D01*
X98651190Y-106168095D01*
X98651190Y-106215714D01*
X98627380Y-106263333D01*
X98603571Y-106287142D01*
X98555952Y-106310952D01*
X98460714Y-106334761D01*
X98341666Y-106334761D01*
X98246428Y-106310952D01*
X98198809Y-106287142D01*
X98175000Y-106263333D01*
X98151190Y-106215714D01*
%TO.C,D5*%
X97635190Y-111875047D02*
X97135190Y-111875047D01*
X97135190Y-111756000D01*
X97159000Y-111684571D01*
X97206619Y-111636952D01*
X97254238Y-111613142D01*
X97349476Y-111589333D01*
X97420904Y-111589333D01*
X97516142Y-111613142D01*
X97563761Y-111636952D01*
X97611380Y-111684571D01*
X97635190Y-111756000D01*
X97635190Y-111875047D01*
X97135190Y-111136952D02*
X97135190Y-111375047D01*
X97373285Y-111398857D01*
X97349476Y-111375047D01*
X97325666Y-111327428D01*
X97325666Y-111208380D01*
X97349476Y-111160761D01*
X97373285Y-111136952D01*
X97420904Y-111113142D01*
X97539952Y-111113142D01*
X97587571Y-111136952D01*
X97611380Y-111160761D01*
X97635190Y-111208380D01*
X97635190Y-111327428D01*
X97611380Y-111375047D01*
X97587571Y-111398857D01*
%TO.C,C16*%
X95690571Y-127559571D02*
X95666761Y-127583380D01*
X95595333Y-127607190D01*
X95547714Y-127607190D01*
X95476285Y-127583380D01*
X95428666Y-127535761D01*
X95404857Y-127488142D01*
X95381047Y-127392904D01*
X95381047Y-127321476D01*
X95404857Y-127226238D01*
X95428666Y-127178619D01*
X95476285Y-127131000D01*
X95547714Y-127107190D01*
X95595333Y-127107190D01*
X95666761Y-127131000D01*
X95690571Y-127154809D01*
X96166761Y-127607190D02*
X95881047Y-127607190D01*
X96023904Y-127607190D02*
X96023904Y-127107190D01*
X95976285Y-127178619D01*
X95928666Y-127226238D01*
X95881047Y-127250047D01*
X96595333Y-127107190D02*
X96500095Y-127107190D01*
X96452476Y-127131000D01*
X96428666Y-127154809D01*
X96381047Y-127226238D01*
X96357238Y-127321476D01*
X96357238Y-127511952D01*
X96381047Y-127559571D01*
X96404857Y-127583380D01*
X96452476Y-127607190D01*
X96547714Y-127607190D01*
X96595333Y-127583380D01*
X96619142Y-127559571D01*
X96642952Y-127511952D01*
X96642952Y-127392904D01*
X96619142Y-127345285D01*
X96595333Y-127321476D01*
X96547714Y-127297666D01*
X96452476Y-127297666D01*
X96404857Y-127321476D01*
X96381047Y-127345285D01*
X96357238Y-127392904D01*
%TO.C,D9*%
X98016190Y-104636047D02*
X97516190Y-104636047D01*
X97516190Y-104517000D01*
X97540000Y-104445571D01*
X97587619Y-104397952D01*
X97635238Y-104374142D01*
X97730476Y-104350333D01*
X97801904Y-104350333D01*
X97897142Y-104374142D01*
X97944761Y-104397952D01*
X97992380Y-104445571D01*
X98016190Y-104517000D01*
X98016190Y-104636047D01*
X98016190Y-104112238D02*
X98016190Y-104017000D01*
X97992380Y-103969380D01*
X97968571Y-103945571D01*
X97897142Y-103897952D01*
X97801904Y-103874142D01*
X97611428Y-103874142D01*
X97563809Y-103897952D01*
X97540000Y-103921761D01*
X97516190Y-103969380D01*
X97516190Y-104064619D01*
X97540000Y-104112238D01*
X97563809Y-104136047D01*
X97611428Y-104159857D01*
X97730476Y-104159857D01*
X97778095Y-104136047D01*
X97801904Y-104112238D01*
X97825714Y-104064619D01*
X97825714Y-103969380D01*
X97801904Y-103921761D01*
X97778095Y-103897952D01*
X97730476Y-103874142D01*
%TO.C,C17*%
X105309571Y-100797571D02*
X105285761Y-100821380D01*
X105214333Y-100845190D01*
X105166714Y-100845190D01*
X105095285Y-100821380D01*
X105047666Y-100773761D01*
X105023857Y-100726142D01*
X105000047Y-100630904D01*
X105000047Y-100559476D01*
X105023857Y-100464238D01*
X105047666Y-100416619D01*
X105095285Y-100369000D01*
X105166714Y-100345190D01*
X105214333Y-100345190D01*
X105285761Y-100369000D01*
X105309571Y-100392809D01*
X105785761Y-100845190D02*
X105500047Y-100845190D01*
X105642904Y-100845190D02*
X105642904Y-100345190D01*
X105595285Y-100416619D01*
X105547666Y-100464238D01*
X105500047Y-100488047D01*
X105952428Y-100345190D02*
X106285761Y-100345190D01*
X106071476Y-100845190D01*
%TO.C,U2*%
X78305297Y-101707190D02*
X78305297Y-102111952D01*
X78329107Y-102159571D01*
X78352916Y-102183380D01*
X78400535Y-102207190D01*
X78495773Y-102207190D01*
X78543392Y-102183380D01*
X78567202Y-102159571D01*
X78591011Y-102111952D01*
X78591011Y-101707190D01*
X78805297Y-101754809D02*
X78829107Y-101731000D01*
X78876726Y-101707190D01*
X78995773Y-101707190D01*
X79043392Y-101731000D01*
X79067202Y-101754809D01*
X79091011Y-101802428D01*
X79091011Y-101850047D01*
X79067202Y-101921476D01*
X78781488Y-102207190D01*
X79091011Y-102207190D01*
X70846428Y-105236690D02*
X70846428Y-104736690D01*
X71132142Y-105236690D01*
X71132142Y-104736690D01*
X71346428Y-105093833D02*
X71584523Y-105093833D01*
X71298809Y-105236690D02*
X71465476Y-104736690D01*
X71632142Y-105236690D01*
X71798809Y-104736690D02*
X71798809Y-105141452D01*
X71822619Y-105189071D01*
X71846428Y-105212880D01*
X71894047Y-105236690D01*
X71989285Y-105236690D01*
X72036904Y-105212880D01*
X72060714Y-105189071D01*
X72084523Y-105141452D01*
X72084523Y-104736690D01*
X72275000Y-104736690D02*
X72608333Y-104736690D01*
X72394047Y-105236690D01*
X72870238Y-104950976D02*
X72822619Y-104927166D01*
X72798809Y-104903357D01*
X72775000Y-104855738D01*
X72775000Y-104831928D01*
X72798809Y-104784309D01*
X72822619Y-104760500D01*
X72870238Y-104736690D01*
X72965476Y-104736690D01*
X73013095Y-104760500D01*
X73036904Y-104784309D01*
X73060714Y-104831928D01*
X73060714Y-104855738D01*
X73036904Y-104903357D01*
X73013095Y-104927166D01*
X72965476Y-104950976D01*
X72870238Y-104950976D01*
X72822619Y-104974785D01*
X72798809Y-104998595D01*
X72775000Y-105046214D01*
X72775000Y-105141452D01*
X72798809Y-105189071D01*
X72822619Y-105212880D01*
X72870238Y-105236690D01*
X72965476Y-105236690D01*
X73013095Y-105212880D01*
X73036904Y-105189071D01*
X73060714Y-105141452D01*
X73060714Y-105046214D01*
X73036904Y-104998595D01*
X73013095Y-104974785D01*
X72965476Y-104950976D01*
X73370238Y-104736690D02*
X73417857Y-104736690D01*
X73465476Y-104760500D01*
X73489285Y-104784309D01*
X73513095Y-104831928D01*
X73536904Y-104927166D01*
X73536904Y-105046214D01*
X73513095Y-105141452D01*
X73489285Y-105189071D01*
X73465476Y-105212880D01*
X73417857Y-105236690D01*
X73370238Y-105236690D01*
X73322619Y-105212880D01*
X73298809Y-105189071D01*
X73275000Y-105141452D01*
X73251190Y-105046214D01*
X73251190Y-104927166D01*
X73275000Y-104831928D01*
X73298809Y-104784309D01*
X73322619Y-104760500D01*
X73370238Y-104736690D01*
X73727380Y-104784309D02*
X73751190Y-104760500D01*
X73798809Y-104736690D01*
X73917857Y-104736690D01*
X73965476Y-104760500D01*
X73989285Y-104784309D01*
X74013095Y-104831928D01*
X74013095Y-104879547D01*
X73989285Y-104950976D01*
X73703571Y-105236690D01*
X74013095Y-105236690D01*
X74203571Y-105212880D02*
X74275000Y-105236690D01*
X74394047Y-105236690D01*
X74441666Y-105212880D01*
X74465476Y-105189071D01*
X74489285Y-105141452D01*
X74489285Y-105093833D01*
X74465476Y-105046214D01*
X74441666Y-105022404D01*
X74394047Y-104998595D01*
X74298809Y-104974785D01*
X74251190Y-104950976D01*
X74227380Y-104927166D01*
X74203571Y-104879547D01*
X74203571Y-104831928D01*
X74227380Y-104784309D01*
X74251190Y-104760500D01*
X74298809Y-104736690D01*
X74417857Y-104736690D01*
X74489285Y-104760500D01*
X74965476Y-104760500D02*
X74917857Y-104736690D01*
X74846428Y-104736690D01*
X74775000Y-104760500D01*
X74727380Y-104808119D01*
X74703571Y-104855738D01*
X74679761Y-104950976D01*
X74679761Y-105022404D01*
X74703571Y-105117642D01*
X74727380Y-105165261D01*
X74775000Y-105212880D01*
X74846428Y-105236690D01*
X74894047Y-105236690D01*
X74965476Y-105212880D01*
X74989285Y-105189071D01*
X74989285Y-105022404D01*
X74894047Y-105022404D01*
X75203571Y-105236690D02*
X75203571Y-104736690D01*
%TO.C,R2*%
X88562666Y-97000190D02*
X88396000Y-96762095D01*
X88276952Y-97000190D02*
X88276952Y-96500190D01*
X88467428Y-96500190D01*
X88515047Y-96524000D01*
X88538857Y-96547809D01*
X88562666Y-96595428D01*
X88562666Y-96666857D01*
X88538857Y-96714476D01*
X88515047Y-96738285D01*
X88467428Y-96762095D01*
X88276952Y-96762095D01*
X88753142Y-96547809D02*
X88776952Y-96524000D01*
X88824571Y-96500190D01*
X88943619Y-96500190D01*
X88991238Y-96524000D01*
X89015047Y-96547809D01*
X89038857Y-96595428D01*
X89038857Y-96643047D01*
X89015047Y-96714476D01*
X88729333Y-97000190D01*
X89038857Y-97000190D01*
%TO.C,U4*%
X92440710Y-116839190D02*
X92440710Y-117243952D01*
X92464520Y-117291571D01*
X92488329Y-117315380D01*
X92535948Y-117339190D01*
X92631186Y-117339190D01*
X92678805Y-117315380D01*
X92702615Y-117291571D01*
X92726424Y-117243952D01*
X92726424Y-116839190D01*
X93178805Y-117005857D02*
X93178805Y-117339190D01*
X93059758Y-116815380D02*
X92940710Y-117172523D01*
X93250234Y-117172523D01*
%TO.C,D4*%
X94841190Y-114161047D02*
X94341190Y-114161047D01*
X94341190Y-114042000D01*
X94365000Y-113970571D01*
X94412619Y-113922952D01*
X94460238Y-113899142D01*
X94555476Y-113875333D01*
X94626904Y-113875333D01*
X94722142Y-113899142D01*
X94769761Y-113922952D01*
X94817380Y-113970571D01*
X94841190Y-114042000D01*
X94841190Y-114161047D01*
X94507857Y-113446761D02*
X94841190Y-113446761D01*
X94317380Y-113565809D02*
X94674523Y-113684857D01*
X94674523Y-113375333D01*
%TO.C,R12*%
X82863571Y-122757690D02*
X82696904Y-122519595D01*
X82577857Y-122757690D02*
X82577857Y-122257690D01*
X82768333Y-122257690D01*
X82815952Y-122281500D01*
X82839761Y-122305309D01*
X82863571Y-122352928D01*
X82863571Y-122424357D01*
X82839761Y-122471976D01*
X82815952Y-122495785D01*
X82768333Y-122519595D01*
X82577857Y-122519595D01*
X83339761Y-122757690D02*
X83054047Y-122757690D01*
X83196904Y-122757690D02*
X83196904Y-122257690D01*
X83149285Y-122329119D01*
X83101666Y-122376738D01*
X83054047Y-122400547D01*
X83530238Y-122305309D02*
X83554047Y-122281500D01*
X83601666Y-122257690D01*
X83720714Y-122257690D01*
X83768333Y-122281500D01*
X83792142Y-122305309D01*
X83815952Y-122352928D01*
X83815952Y-122400547D01*
X83792142Y-122471976D01*
X83506428Y-122757690D01*
X83815952Y-122757690D01*
%TO.C,C11*%
X83759571Y-116597571D02*
X83735761Y-116621380D01*
X83664333Y-116645190D01*
X83616714Y-116645190D01*
X83545285Y-116621380D01*
X83497666Y-116573761D01*
X83473857Y-116526142D01*
X83450047Y-116430904D01*
X83450047Y-116359476D01*
X83473857Y-116264238D01*
X83497666Y-116216619D01*
X83545285Y-116169000D01*
X83616714Y-116145190D01*
X83664333Y-116145190D01*
X83735761Y-116169000D01*
X83759571Y-116192809D01*
X84235761Y-116645190D02*
X83950047Y-116645190D01*
X84092904Y-116645190D02*
X84092904Y-116145190D01*
X84045285Y-116216619D01*
X83997666Y-116264238D01*
X83950047Y-116288047D01*
X84711952Y-116645190D02*
X84426238Y-116645190D01*
X84569095Y-116645190D02*
X84569095Y-116145190D01*
X84521476Y-116216619D01*
X84473857Y-116264238D01*
X84426238Y-116288047D01*
%TO.C,C6*%
X84879666Y-97206571D02*
X84855857Y-97230380D01*
X84784428Y-97254190D01*
X84736809Y-97254190D01*
X84665380Y-97230380D01*
X84617761Y-97182761D01*
X84593952Y-97135142D01*
X84570142Y-97039904D01*
X84570142Y-96968476D01*
X84593952Y-96873238D01*
X84617761Y-96825619D01*
X84665380Y-96778000D01*
X84736809Y-96754190D01*
X84784428Y-96754190D01*
X84855857Y-96778000D01*
X84879666Y-96801809D01*
X85308238Y-96754190D02*
X85213000Y-96754190D01*
X85165380Y-96778000D01*
X85141571Y-96801809D01*
X85093952Y-96873238D01*
X85070142Y-96968476D01*
X85070142Y-97158952D01*
X85093952Y-97206571D01*
X85117761Y-97230380D01*
X85165380Y-97254190D01*
X85260619Y-97254190D01*
X85308238Y-97230380D01*
X85332047Y-97206571D01*
X85355857Y-97158952D01*
X85355857Y-97039904D01*
X85332047Y-96992285D01*
X85308238Y-96968476D01*
X85260619Y-96944666D01*
X85165380Y-96944666D01*
X85117761Y-96968476D01*
X85093952Y-96992285D01*
X85070142Y-97039904D01*
%TO.C,R28*%
X83371571Y-101064190D02*
X83204904Y-100826095D01*
X83085857Y-101064190D02*
X83085857Y-100564190D01*
X83276333Y-100564190D01*
X83323952Y-100588000D01*
X83347761Y-100611809D01*
X83371571Y-100659428D01*
X83371571Y-100730857D01*
X83347761Y-100778476D01*
X83323952Y-100802285D01*
X83276333Y-100826095D01*
X83085857Y-100826095D01*
X83562047Y-100611809D02*
X83585857Y-100588000D01*
X83633476Y-100564190D01*
X83752523Y-100564190D01*
X83800142Y-100588000D01*
X83823952Y-100611809D01*
X83847761Y-100659428D01*
X83847761Y-100707047D01*
X83823952Y-100778476D01*
X83538238Y-101064190D01*
X83847761Y-101064190D01*
X84133476Y-100778476D02*
X84085857Y-100754666D01*
X84062047Y-100730857D01*
X84038238Y-100683238D01*
X84038238Y-100659428D01*
X84062047Y-100611809D01*
X84085857Y-100588000D01*
X84133476Y-100564190D01*
X84228714Y-100564190D01*
X84276333Y-100588000D01*
X84300142Y-100611809D01*
X84323952Y-100659428D01*
X84323952Y-100683238D01*
X84300142Y-100730857D01*
X84276333Y-100754666D01*
X84228714Y-100778476D01*
X84133476Y-100778476D01*
X84085857Y-100802285D01*
X84062047Y-100826095D01*
X84038238Y-100873714D01*
X84038238Y-100968952D01*
X84062047Y-101016571D01*
X84085857Y-101040380D01*
X84133476Y-101064190D01*
X84228714Y-101064190D01*
X84276333Y-101040380D01*
X84300142Y-101016571D01*
X84323952Y-100968952D01*
X84323952Y-100873714D01*
X84300142Y-100826095D01*
X84276333Y-100802285D01*
X84228714Y-100778476D01*
%TO.C,R14*%
X101532571Y-119733190D02*
X101365904Y-119495095D01*
X101246857Y-119733190D02*
X101246857Y-119233190D01*
X101437333Y-119233190D01*
X101484952Y-119257000D01*
X101508761Y-119280809D01*
X101532571Y-119328428D01*
X101532571Y-119399857D01*
X101508761Y-119447476D01*
X101484952Y-119471285D01*
X101437333Y-119495095D01*
X101246857Y-119495095D01*
X102008761Y-119733190D02*
X101723047Y-119733190D01*
X101865904Y-119733190D02*
X101865904Y-119233190D01*
X101818285Y-119304619D01*
X101770666Y-119352238D01*
X101723047Y-119376047D01*
X102437333Y-119399857D02*
X102437333Y-119733190D01*
X102318285Y-119209380D02*
X102199238Y-119566523D01*
X102508761Y-119566523D01*
%TO.C,R8*%
X75664190Y-110319333D02*
X75426095Y-110486000D01*
X75664190Y-110605047D02*
X75164190Y-110605047D01*
X75164190Y-110414571D01*
X75188000Y-110366952D01*
X75211809Y-110343142D01*
X75259428Y-110319333D01*
X75330857Y-110319333D01*
X75378476Y-110343142D01*
X75402285Y-110366952D01*
X75426095Y-110414571D01*
X75426095Y-110605047D01*
X75378476Y-110033619D02*
X75354666Y-110081238D01*
X75330857Y-110105047D01*
X75283238Y-110128857D01*
X75259428Y-110128857D01*
X75211809Y-110105047D01*
X75188000Y-110081238D01*
X75164190Y-110033619D01*
X75164190Y-109938380D01*
X75188000Y-109890761D01*
X75211809Y-109866952D01*
X75259428Y-109843142D01*
X75283238Y-109843142D01*
X75330857Y-109866952D01*
X75354666Y-109890761D01*
X75378476Y-109938380D01*
X75378476Y-110033619D01*
X75402285Y-110081238D01*
X75426095Y-110105047D01*
X75473714Y-110128857D01*
X75568952Y-110128857D01*
X75616571Y-110105047D01*
X75640380Y-110081238D01*
X75664190Y-110033619D01*
X75664190Y-109938380D01*
X75640380Y-109890761D01*
X75616571Y-109866952D01*
X75568952Y-109843142D01*
X75473714Y-109843142D01*
X75426095Y-109866952D01*
X75402285Y-109890761D01*
X75378476Y-109938380D01*
%TO.C,R26*%
X101733225Y-111827343D02*
X101682717Y-112113553D01*
X101935255Y-112029374D02*
X101581702Y-112382927D01*
X101447015Y-112248240D01*
X101430179Y-112197732D01*
X101430179Y-112164061D01*
X101447015Y-112113553D01*
X101497522Y-112063045D01*
X101548030Y-112046209D01*
X101581702Y-112046209D01*
X101632209Y-112063045D01*
X101766896Y-112197732D01*
X101278656Y-112012538D02*
X101244984Y-112012538D01*
X101194477Y-111995702D01*
X101110297Y-111911522D01*
X101093461Y-111861015D01*
X101093461Y-111827343D01*
X101110297Y-111776835D01*
X101143969Y-111743164D01*
X101211312Y-111709492D01*
X101615374Y-111709492D01*
X101396507Y-111490625D01*
X100739908Y-111541133D02*
X100807251Y-111608477D01*
X100857759Y-111625312D01*
X100891431Y-111625312D01*
X100975610Y-111608477D01*
X101059790Y-111557969D01*
X101194477Y-111423282D01*
X101211312Y-111372774D01*
X101211312Y-111339103D01*
X101194477Y-111288595D01*
X101127133Y-111221251D01*
X101076625Y-111204416D01*
X101042954Y-111204416D01*
X100992446Y-111221251D01*
X100908267Y-111305431D01*
X100891431Y-111355938D01*
X100891431Y-111389610D01*
X100908267Y-111440118D01*
X100975610Y-111507461D01*
X101026118Y-111524297D01*
X101059790Y-111524297D01*
X101110297Y-111507461D01*
%TO.C,C10*%
X73838571Y-94301428D02*
X73862380Y-94325238D01*
X73886190Y-94396666D01*
X73886190Y-94444285D01*
X73862380Y-94515714D01*
X73814761Y-94563333D01*
X73767142Y-94587142D01*
X73671904Y-94610952D01*
X73600476Y-94610952D01*
X73505238Y-94587142D01*
X73457619Y-94563333D01*
X73410000Y-94515714D01*
X73386190Y-94444285D01*
X73386190Y-94396666D01*
X73410000Y-94325238D01*
X73433809Y-94301428D01*
X73886190Y-93825238D02*
X73886190Y-94110952D01*
X73886190Y-93968095D02*
X73386190Y-93968095D01*
X73457619Y-94015714D01*
X73505238Y-94063333D01*
X73529047Y-94110952D01*
X73386190Y-93515714D02*
X73386190Y-93468095D01*
X73410000Y-93420476D01*
X73433809Y-93396666D01*
X73481428Y-93372857D01*
X73576666Y-93349047D01*
X73695714Y-93349047D01*
X73790952Y-93372857D01*
X73838571Y-93396666D01*
X73862380Y-93420476D01*
X73886190Y-93468095D01*
X73886190Y-93515714D01*
X73862380Y-93563333D01*
X73838571Y-93587142D01*
X73790952Y-93610952D01*
X73695714Y-93634761D01*
X73576666Y-93634761D01*
X73481428Y-93610952D01*
X73433809Y-93587142D01*
X73410000Y-93563333D01*
X73386190Y-93515714D01*
%TO.C,H1*%
X103251047Y-113193190D02*
X103251047Y-112693190D01*
X103251047Y-112931285D02*
X103536761Y-112931285D01*
X103536761Y-113193190D02*
X103536761Y-112693190D01*
X104036761Y-113193190D02*
X103751047Y-113193190D01*
X103893904Y-113193190D02*
X103893904Y-112693190D01*
X103846285Y-112764619D01*
X103798666Y-112812238D01*
X103751047Y-112836047D01*
%TO.C,TP4*%
X93476047Y-88626190D02*
X93761761Y-88626190D01*
X93618904Y-89126190D02*
X93618904Y-88626190D01*
X93928428Y-89126190D02*
X93928428Y-88626190D01*
X94118904Y-88626190D01*
X94166523Y-88650000D01*
X94190333Y-88673809D01*
X94214142Y-88721428D01*
X94214142Y-88792857D01*
X94190333Y-88840476D01*
X94166523Y-88864285D01*
X94118904Y-88888095D01*
X93928428Y-88888095D01*
X94642714Y-88792857D02*
X94642714Y-89126190D01*
X94523666Y-88602380D02*
X94404619Y-88959523D01*
X94714142Y-88959523D01*
D11*
%TO.C,X1*%
X70818476Y-113204380D02*
X71485142Y-114204380D01*
X71485142Y-113204380D02*
X70818476Y-114204380D01*
X72389904Y-114204380D02*
X71818476Y-114204380D01*
X72104190Y-114204380D02*
X72104190Y-113204380D01*
X72008952Y-113347238D01*
X71913714Y-113442476D01*
X71818476Y-113490095D01*
D10*
%TO.C,R18*%
X69655656Y-115195225D02*
X69369446Y-115144717D01*
X69453625Y-115397255D02*
X69100072Y-115043702D01*
X69234759Y-114909015D01*
X69285267Y-114892179D01*
X69318938Y-114892179D01*
X69369446Y-114909015D01*
X69419954Y-114959522D01*
X69436790Y-115010030D01*
X69436790Y-115043702D01*
X69419954Y-115094209D01*
X69285267Y-115228896D01*
X69992374Y-114858507D02*
X69790343Y-115060538D01*
X69891358Y-114959522D02*
X69537805Y-114605969D01*
X69554641Y-114690148D01*
X69554641Y-114757492D01*
X69537805Y-114808000D01*
X69992374Y-114454446D02*
X69941866Y-114471282D01*
X69908194Y-114471282D01*
X69857687Y-114454446D01*
X69840851Y-114437610D01*
X69824015Y-114387103D01*
X69824015Y-114353431D01*
X69840851Y-114302923D01*
X69908194Y-114235580D01*
X69958702Y-114218744D01*
X69992374Y-114218744D01*
X70042881Y-114235580D01*
X70059717Y-114252416D01*
X70076553Y-114302923D01*
X70076553Y-114336595D01*
X70059717Y-114387103D01*
X69992374Y-114454446D01*
X69975538Y-114504954D01*
X69975538Y-114538625D01*
X69992374Y-114589133D01*
X70059717Y-114656477D01*
X70110225Y-114673312D01*
X70143896Y-114673312D01*
X70194404Y-114656477D01*
X70261748Y-114589133D01*
X70278583Y-114538625D01*
X70278583Y-114504954D01*
X70261748Y-114454446D01*
X70194404Y-114387103D01*
X70143896Y-114370267D01*
X70110225Y-114370267D01*
X70059717Y-114387103D01*
%TO.C,C15*%
X106959571Y-100797571D02*
X106935761Y-100821380D01*
X106864333Y-100845190D01*
X106816714Y-100845190D01*
X106745285Y-100821380D01*
X106697666Y-100773761D01*
X106673857Y-100726142D01*
X106650047Y-100630904D01*
X106650047Y-100559476D01*
X106673857Y-100464238D01*
X106697666Y-100416619D01*
X106745285Y-100369000D01*
X106816714Y-100345190D01*
X106864333Y-100345190D01*
X106935761Y-100369000D01*
X106959571Y-100392809D01*
X107435761Y-100845190D02*
X107150047Y-100845190D01*
X107292904Y-100845190D02*
X107292904Y-100345190D01*
X107245285Y-100416619D01*
X107197666Y-100464238D01*
X107150047Y-100488047D01*
X107888142Y-100345190D02*
X107650047Y-100345190D01*
X107626238Y-100583285D01*
X107650047Y-100559476D01*
X107697666Y-100535666D01*
X107816714Y-100535666D01*
X107864333Y-100559476D01*
X107888142Y-100583285D01*
X107911952Y-100630904D01*
X107911952Y-100749952D01*
X107888142Y-100797571D01*
X107864333Y-100821380D01*
X107816714Y-100845190D01*
X107697666Y-100845190D01*
X107650047Y-100821380D01*
X107626238Y-100797571D01*
%TO.C,R31*%
X100135571Y-103985190D02*
X99968904Y-103747095D01*
X99849857Y-103985190D02*
X99849857Y-103485190D01*
X100040333Y-103485190D01*
X100087952Y-103509000D01*
X100111761Y-103532809D01*
X100135571Y-103580428D01*
X100135571Y-103651857D01*
X100111761Y-103699476D01*
X100087952Y-103723285D01*
X100040333Y-103747095D01*
X99849857Y-103747095D01*
X100302238Y-103485190D02*
X100611761Y-103485190D01*
X100445095Y-103675666D01*
X100516523Y-103675666D01*
X100564142Y-103699476D01*
X100587952Y-103723285D01*
X100611761Y-103770904D01*
X100611761Y-103889952D01*
X100587952Y-103937571D01*
X100564142Y-103961380D01*
X100516523Y-103985190D01*
X100373666Y-103985190D01*
X100326047Y-103961380D01*
X100302238Y-103937571D01*
X101087952Y-103985190D02*
X100802238Y-103985190D01*
X100945095Y-103985190D02*
X100945095Y-103485190D01*
X100897476Y-103556619D01*
X100849857Y-103604238D01*
X100802238Y-103628047D01*
%TO.C,U7*%
X74168047Y-113645190D02*
X74168047Y-114049952D01*
X74191857Y-114097571D01*
X74215666Y-114121380D01*
X74263285Y-114145190D01*
X74358523Y-114145190D01*
X74406142Y-114121380D01*
X74429952Y-114097571D01*
X74453761Y-114049952D01*
X74453761Y-113645190D01*
X74644238Y-113645190D02*
X74977571Y-113645190D01*
X74763285Y-114145190D01*
D11*
X74064880Y-116341500D02*
X74302976Y-116341500D01*
X74207738Y-116579595D02*
X74302976Y-116341500D01*
X74207738Y-116103404D01*
X74493452Y-116484357D02*
X74302976Y-116341500D01*
X74493452Y-116198642D01*
D10*
%TO.C,U1*%
X95184047Y-98005190D02*
X95184047Y-98409952D01*
X95207857Y-98457571D01*
X95231666Y-98481380D01*
X95279285Y-98505190D01*
X95374523Y-98505190D01*
X95422142Y-98481380D01*
X95445952Y-98457571D01*
X95469761Y-98409952D01*
X95469761Y-98005190D01*
X95969761Y-98505190D02*
X95684047Y-98505190D01*
X95826904Y-98505190D02*
X95826904Y-98005190D01*
X95779285Y-98076619D01*
X95731666Y-98124238D01*
X95684047Y-98148047D01*
%TO.C,R11*%
X84532623Y-122781190D02*
X84365956Y-122543095D01*
X84246909Y-122781190D02*
X84246909Y-122281190D01*
X84437385Y-122281190D01*
X84485004Y-122305000D01*
X84508813Y-122328809D01*
X84532623Y-122376428D01*
X84532623Y-122447857D01*
X84508813Y-122495476D01*
X84485004Y-122519285D01*
X84437385Y-122543095D01*
X84246909Y-122543095D01*
X85008813Y-122781190D02*
X84723099Y-122781190D01*
X84865956Y-122781190D02*
X84865956Y-122281190D01*
X84818337Y-122352619D01*
X84770718Y-122400238D01*
X84723099Y-122424047D01*
X85485004Y-122781190D02*
X85199290Y-122781190D01*
X85342147Y-122781190D02*
X85342147Y-122281190D01*
X85294528Y-122352619D01*
X85246909Y-122400238D01*
X85199290Y-122424047D01*
%TO.C,D1*%
X88784952Y-104978190D02*
X88784952Y-104478190D01*
X88904000Y-104478190D01*
X88975428Y-104502000D01*
X89023047Y-104549619D01*
X89046857Y-104597238D01*
X89070666Y-104692476D01*
X89070666Y-104763904D01*
X89046857Y-104859142D01*
X89023047Y-104906761D01*
X88975428Y-104954380D01*
X88904000Y-104978190D01*
X88784952Y-104978190D01*
X89546857Y-104978190D02*
X89261142Y-104978190D01*
X89404000Y-104978190D02*
X89404000Y-104478190D01*
X89356380Y-104549619D01*
X89308761Y-104597238D01*
X89261142Y-104621047D01*
%TO.C,C8*%
X82339666Y-98222571D02*
X82315857Y-98246380D01*
X82244428Y-98270190D01*
X82196809Y-98270190D01*
X82125380Y-98246380D01*
X82077761Y-98198761D01*
X82053952Y-98151142D01*
X82030142Y-98055904D01*
X82030142Y-97984476D01*
X82053952Y-97889238D01*
X82077761Y-97841619D01*
X82125380Y-97794000D01*
X82196809Y-97770190D01*
X82244428Y-97770190D01*
X82315857Y-97794000D01*
X82339666Y-97817809D01*
X82625380Y-97984476D02*
X82577761Y-97960666D01*
X82553952Y-97936857D01*
X82530142Y-97889238D01*
X82530142Y-97865428D01*
X82553952Y-97817809D01*
X82577761Y-97794000D01*
X82625380Y-97770190D01*
X82720619Y-97770190D01*
X82768238Y-97794000D01*
X82792047Y-97817809D01*
X82815857Y-97865428D01*
X82815857Y-97889238D01*
X82792047Y-97936857D01*
X82768238Y-97960666D01*
X82720619Y-97984476D01*
X82625380Y-97984476D01*
X82577761Y-98008285D01*
X82553952Y-98032095D01*
X82530142Y-98079714D01*
X82530142Y-98174952D01*
X82553952Y-98222571D01*
X82577761Y-98246380D01*
X82625380Y-98270190D01*
X82720619Y-98270190D01*
X82768238Y-98246380D01*
X82792047Y-98222571D01*
X82815857Y-98174952D01*
X82815857Y-98079714D01*
X82792047Y-98032095D01*
X82768238Y-98008285D01*
X82720619Y-97984476D01*
%TO.C,C9*%
X71417666Y-101016571D02*
X71393857Y-101040380D01*
X71322428Y-101064190D01*
X71274809Y-101064190D01*
X71203380Y-101040380D01*
X71155761Y-100992761D01*
X71131952Y-100945142D01*
X71108142Y-100849904D01*
X71108142Y-100778476D01*
X71131952Y-100683238D01*
X71155761Y-100635619D01*
X71203380Y-100588000D01*
X71274809Y-100564190D01*
X71322428Y-100564190D01*
X71393857Y-100588000D01*
X71417666Y-100611809D01*
X71655761Y-101064190D02*
X71751000Y-101064190D01*
X71798619Y-101040380D01*
X71822428Y-101016571D01*
X71870047Y-100945142D01*
X71893857Y-100849904D01*
X71893857Y-100659428D01*
X71870047Y-100611809D01*
X71846238Y-100588000D01*
X71798619Y-100564190D01*
X71703380Y-100564190D01*
X71655761Y-100588000D01*
X71631952Y-100611809D01*
X71608142Y-100659428D01*
X71608142Y-100778476D01*
X71631952Y-100826095D01*
X71655761Y-100849904D01*
X71703380Y-100873714D01*
X71798619Y-100873714D01*
X71846238Y-100849904D01*
X71870047Y-100826095D01*
X71893857Y-100778476D01*
D11*
%TO.C,R19*%
X79003380Y-108311857D02*
X78527190Y-108645190D01*
X79003380Y-108883285D02*
X78003380Y-108883285D01*
X78003380Y-108502333D01*
X78051000Y-108407095D01*
X78098619Y-108359476D01*
X78193857Y-108311857D01*
X78336714Y-108311857D01*
X78431952Y-108359476D01*
X78479571Y-108407095D01*
X78527190Y-108502333D01*
X78527190Y-108883285D01*
X79003380Y-107359476D02*
X79003380Y-107930904D01*
X79003380Y-107645190D02*
X78003380Y-107645190D01*
X78146238Y-107740428D01*
X78241476Y-107835666D01*
X78289095Y-107930904D01*
X79003380Y-106883285D02*
X79003380Y-106692809D01*
X78955761Y-106597571D01*
X78908142Y-106549952D01*
X78765285Y-106454714D01*
X78574809Y-106407095D01*
X78193857Y-106407095D01*
X78098619Y-106454714D01*
X78051000Y-106502333D01*
X78003380Y-106597571D01*
X78003380Y-106788047D01*
X78051000Y-106883285D01*
X78098619Y-106930904D01*
X78193857Y-106978523D01*
X78431952Y-106978523D01*
X78527190Y-106930904D01*
X78574809Y-106883285D01*
X78622428Y-106788047D01*
X78622428Y-106597571D01*
X78574809Y-106502333D01*
X78527190Y-106454714D01*
X78431952Y-106407095D01*
D10*
%TO.C,D3*%
X86310607Y-111351190D02*
X86310607Y-110851190D01*
X86429654Y-110851190D01*
X86501083Y-110875000D01*
X86548702Y-110922619D01*
X86572511Y-110970238D01*
X86596321Y-111065476D01*
X86596321Y-111136904D01*
X86572511Y-111232142D01*
X86548702Y-111279761D01*
X86501083Y-111327380D01*
X86429654Y-111351190D01*
X86310607Y-111351190D01*
X86762988Y-110851190D02*
X87072511Y-110851190D01*
X86905845Y-111041666D01*
X86977273Y-111041666D01*
X87024892Y-111065476D01*
X87048702Y-111089285D01*
X87072511Y-111136904D01*
X87072511Y-111255952D01*
X87048702Y-111303571D01*
X87024892Y-111327380D01*
X86977273Y-111351190D01*
X86834416Y-111351190D01*
X86786797Y-111327380D01*
X86762988Y-111303571D01*
%TO.C,C22*%
X80188571Y-95317428D02*
X80212380Y-95341238D01*
X80236190Y-95412666D01*
X80236190Y-95460285D01*
X80212380Y-95531714D01*
X80164761Y-95579333D01*
X80117142Y-95603142D01*
X80021904Y-95626952D01*
X79950476Y-95626952D01*
X79855238Y-95603142D01*
X79807619Y-95579333D01*
X79760000Y-95531714D01*
X79736190Y-95460285D01*
X79736190Y-95412666D01*
X79760000Y-95341238D01*
X79783809Y-95317428D01*
X79783809Y-95126952D02*
X79760000Y-95103142D01*
X79736190Y-95055523D01*
X79736190Y-94936476D01*
X79760000Y-94888857D01*
X79783809Y-94865047D01*
X79831428Y-94841238D01*
X79879047Y-94841238D01*
X79950476Y-94865047D01*
X80236190Y-95150761D01*
X80236190Y-94841238D01*
X79783809Y-94650761D02*
X79760000Y-94626952D01*
X79736190Y-94579333D01*
X79736190Y-94460285D01*
X79760000Y-94412666D01*
X79783809Y-94388857D01*
X79831428Y-94365047D01*
X79879047Y-94365047D01*
X79950476Y-94388857D01*
X80236190Y-94674571D01*
X80236190Y-94365047D01*
%TO.C,R27*%
X81588819Y-101728388D02*
X81302609Y-101677880D01*
X81386788Y-101930418D02*
X81033235Y-101576865D01*
X81167922Y-101442178D01*
X81218430Y-101425342D01*
X81252101Y-101425342D01*
X81302609Y-101442178D01*
X81353117Y-101492685D01*
X81369953Y-101543193D01*
X81369953Y-101576865D01*
X81353117Y-101627372D01*
X81218430Y-101762059D01*
X81403624Y-101273819D02*
X81403624Y-101240147D01*
X81420460Y-101189640D01*
X81504640Y-101105460D01*
X81555147Y-101088624D01*
X81588819Y-101088624D01*
X81639327Y-101105460D01*
X81672998Y-101139132D01*
X81706670Y-101206475D01*
X81706670Y-101610537D01*
X81925537Y-101391670D01*
X81689834Y-100920266D02*
X81925537Y-100684563D01*
X82127567Y-101189640D01*
%TO.C,D11*%
X98651190Y-109827142D02*
X98151190Y-109827142D01*
X98151190Y-109708095D01*
X98175000Y-109636666D01*
X98222619Y-109589047D01*
X98270238Y-109565238D01*
X98365476Y-109541428D01*
X98436904Y-109541428D01*
X98532142Y-109565238D01*
X98579761Y-109589047D01*
X98627380Y-109636666D01*
X98651190Y-109708095D01*
X98651190Y-109827142D01*
X98651190Y-109065238D02*
X98651190Y-109350952D01*
X98651190Y-109208095D02*
X98151190Y-109208095D01*
X98222619Y-109255714D01*
X98270238Y-109303333D01*
X98294047Y-109350952D01*
X98651190Y-108589047D02*
X98651190Y-108874761D01*
X98651190Y-108731904D02*
X98151190Y-108731904D01*
X98222619Y-108779523D01*
X98270238Y-108827142D01*
X98294047Y-108874761D01*
%TO.C,C23*%
X76767571Y-92507571D02*
X76743761Y-92531380D01*
X76672333Y-92555190D01*
X76624714Y-92555190D01*
X76553285Y-92531380D01*
X76505666Y-92483761D01*
X76481857Y-92436142D01*
X76458047Y-92340904D01*
X76458047Y-92269476D01*
X76481857Y-92174238D01*
X76505666Y-92126619D01*
X76553285Y-92079000D01*
X76624714Y-92055190D01*
X76672333Y-92055190D01*
X76743761Y-92079000D01*
X76767571Y-92102809D01*
X76958047Y-92102809D02*
X76981857Y-92079000D01*
X77029476Y-92055190D01*
X77148523Y-92055190D01*
X77196142Y-92079000D01*
X77219952Y-92102809D01*
X77243761Y-92150428D01*
X77243761Y-92198047D01*
X77219952Y-92269476D01*
X76934238Y-92555190D01*
X77243761Y-92555190D01*
X77410428Y-92055190D02*
X77719952Y-92055190D01*
X77553285Y-92245666D01*
X77624714Y-92245666D01*
X77672333Y-92269476D01*
X77696142Y-92293285D01*
X77719952Y-92340904D01*
X77719952Y-92459952D01*
X77696142Y-92507571D01*
X77672333Y-92531380D01*
X77624714Y-92555190D01*
X77481857Y-92555190D01*
X77434238Y-92531380D01*
X77410428Y-92507571D01*
%TO.C,R10*%
X98992571Y-118463190D02*
X98825904Y-118225095D01*
X98706857Y-118463190D02*
X98706857Y-117963190D01*
X98897333Y-117963190D01*
X98944952Y-117987000D01*
X98968761Y-118010809D01*
X98992571Y-118058428D01*
X98992571Y-118129857D01*
X98968761Y-118177476D01*
X98944952Y-118201285D01*
X98897333Y-118225095D01*
X98706857Y-118225095D01*
X99468761Y-118463190D02*
X99183047Y-118463190D01*
X99325904Y-118463190D02*
X99325904Y-117963190D01*
X99278285Y-118034619D01*
X99230666Y-118082238D01*
X99183047Y-118106047D01*
X99778285Y-117963190D02*
X99825904Y-117963190D01*
X99873523Y-117987000D01*
X99897333Y-118010809D01*
X99921142Y-118058428D01*
X99944952Y-118153666D01*
X99944952Y-118272714D01*
X99921142Y-118367952D01*
X99897333Y-118415571D01*
X99873523Y-118439380D01*
X99825904Y-118463190D01*
X99778285Y-118463190D01*
X99730666Y-118439380D01*
X99706857Y-118415571D01*
X99683047Y-118367952D01*
X99659238Y-118272714D01*
X99659238Y-118153666D01*
X99683047Y-118058428D01*
X99706857Y-118010809D01*
X99730666Y-117987000D01*
X99778285Y-117963190D01*
%TO.C,C1*%
X92626666Y-91364571D02*
X92602857Y-91388380D01*
X92531428Y-91412190D01*
X92483809Y-91412190D01*
X92412380Y-91388380D01*
X92364761Y-91340761D01*
X92340952Y-91293142D01*
X92317142Y-91197904D01*
X92317142Y-91126476D01*
X92340952Y-91031238D01*
X92364761Y-90983619D01*
X92412380Y-90936000D01*
X92483809Y-90912190D01*
X92531428Y-90912190D01*
X92602857Y-90936000D01*
X92626666Y-90959809D01*
X93102857Y-91412190D02*
X92817142Y-91412190D01*
X92960000Y-91412190D02*
X92960000Y-90912190D01*
X92912380Y-90983619D01*
X92864761Y-91031238D01*
X92817142Y-91055047D01*
%TO.C,U5*%
X106553047Y-107422190D02*
X106553047Y-107826952D01*
X106576857Y-107874571D01*
X106600666Y-107898380D01*
X106648285Y-107922190D01*
X106743523Y-107922190D01*
X106791142Y-107898380D01*
X106814952Y-107874571D01*
X106838761Y-107826952D01*
X106838761Y-107422190D01*
X107314952Y-107422190D02*
X107076857Y-107422190D01*
X107053047Y-107660285D01*
X107076857Y-107636476D01*
X107124476Y-107612666D01*
X107243523Y-107612666D01*
X107291142Y-107636476D01*
X107314952Y-107660285D01*
X107338761Y-107707904D01*
X107338761Y-107826952D01*
X107314952Y-107874571D01*
X107291142Y-107898380D01*
X107243523Y-107922190D01*
X107124476Y-107922190D01*
X107076857Y-107898380D01*
X107053047Y-107874571D01*
%TO.C,C18*%
X106096571Y-113986428D02*
X106120380Y-114010238D01*
X106144190Y-114081666D01*
X106144190Y-114129285D01*
X106120380Y-114200714D01*
X106072761Y-114248333D01*
X106025142Y-114272142D01*
X105929904Y-114295952D01*
X105858476Y-114295952D01*
X105763238Y-114272142D01*
X105715619Y-114248333D01*
X105668000Y-114200714D01*
X105644190Y-114129285D01*
X105644190Y-114081666D01*
X105668000Y-114010238D01*
X105691809Y-113986428D01*
X106144190Y-113510238D02*
X106144190Y-113795952D01*
X106144190Y-113653095D02*
X105644190Y-113653095D01*
X105715619Y-113700714D01*
X105763238Y-113748333D01*
X105787047Y-113795952D01*
X105858476Y-113224523D02*
X105834666Y-113272142D01*
X105810857Y-113295952D01*
X105763238Y-113319761D01*
X105739428Y-113319761D01*
X105691809Y-113295952D01*
X105668000Y-113272142D01*
X105644190Y-113224523D01*
X105644190Y-113129285D01*
X105668000Y-113081666D01*
X105691809Y-113057857D01*
X105739428Y-113034047D01*
X105763238Y-113034047D01*
X105810857Y-113057857D01*
X105834666Y-113081666D01*
X105858476Y-113129285D01*
X105858476Y-113224523D01*
X105882285Y-113272142D01*
X105906095Y-113295952D01*
X105953714Y-113319761D01*
X106048952Y-113319761D01*
X106096571Y-113295952D01*
X106120380Y-113272142D01*
X106144190Y-113224523D01*
X106144190Y-113129285D01*
X106120380Y-113081666D01*
X106096571Y-113057857D01*
X106048952Y-113034047D01*
X105953714Y-113034047D01*
X105906095Y-113057857D01*
X105882285Y-113081666D01*
X105858476Y-113129285D01*
%TO.C,R17*%
X80744190Y-93666428D02*
X80506095Y-93833095D01*
X80744190Y-93952142D02*
X80244190Y-93952142D01*
X80244190Y-93761666D01*
X80268000Y-93714047D01*
X80291809Y-93690238D01*
X80339428Y-93666428D01*
X80410857Y-93666428D01*
X80458476Y-93690238D01*
X80482285Y-93714047D01*
X80506095Y-93761666D01*
X80506095Y-93952142D01*
X80744190Y-93190238D02*
X80744190Y-93475952D01*
X80744190Y-93333095D02*
X80244190Y-93333095D01*
X80315619Y-93380714D01*
X80363238Y-93428333D01*
X80387047Y-93475952D01*
X80244190Y-93023571D02*
X80244190Y-92690238D01*
X80744190Y-92904523D01*
%TO.C,C4*%
X83228666Y-88824571D02*
X83204857Y-88848380D01*
X83133428Y-88872190D01*
X83085809Y-88872190D01*
X83014380Y-88848380D01*
X82966761Y-88800761D01*
X82942952Y-88753142D01*
X82919142Y-88657904D01*
X82919142Y-88586476D01*
X82942952Y-88491238D01*
X82966761Y-88443619D01*
X83014380Y-88396000D01*
X83085809Y-88372190D01*
X83133428Y-88372190D01*
X83204857Y-88396000D01*
X83228666Y-88419809D01*
X83657238Y-88538857D02*
X83657238Y-88872190D01*
X83538190Y-88348380D02*
X83419142Y-88705523D01*
X83728666Y-88705523D01*
%TO.C,D7*%
X81672952Y-103223190D02*
X81672952Y-102723190D01*
X81792000Y-102723190D01*
X81863428Y-102747000D01*
X81911047Y-102794619D01*
X81934857Y-102842238D01*
X81958666Y-102937476D01*
X81958666Y-103008904D01*
X81934857Y-103104142D01*
X81911047Y-103151761D01*
X81863428Y-103199380D01*
X81792000Y-103223190D01*
X81672952Y-103223190D01*
X82125333Y-102723190D02*
X82458666Y-102723190D01*
X82244380Y-103223190D01*
%TO.C,R30*%
X103056656Y-104654225D02*
X102770446Y-104603717D01*
X102854625Y-104856255D02*
X102501072Y-104502702D01*
X102635759Y-104368015D01*
X102686267Y-104351179D01*
X102719938Y-104351179D01*
X102770446Y-104368015D01*
X102820954Y-104418522D01*
X102837790Y-104469030D01*
X102837790Y-104502702D01*
X102820954Y-104553209D01*
X102686267Y-104687896D01*
X102820954Y-104182820D02*
X103039820Y-103963954D01*
X103056656Y-104216492D01*
X103107164Y-104165984D01*
X103157671Y-104149148D01*
X103191343Y-104149148D01*
X103241851Y-104165984D01*
X103326030Y-104250164D01*
X103342866Y-104300671D01*
X103342866Y-104334343D01*
X103326030Y-104384851D01*
X103225015Y-104485866D01*
X103174507Y-104502702D01*
X103140835Y-104502702D01*
X103258687Y-103745087D02*
X103292358Y-103711416D01*
X103342866Y-103694580D01*
X103376538Y-103694580D01*
X103427045Y-103711416D01*
X103511225Y-103761923D01*
X103595404Y-103846103D01*
X103645912Y-103930282D01*
X103662748Y-103980790D01*
X103662748Y-104014461D01*
X103645912Y-104064969D01*
X103612240Y-104098641D01*
X103561732Y-104115477D01*
X103528061Y-104115477D01*
X103477553Y-104098641D01*
X103393374Y-104048133D01*
X103309194Y-103963954D01*
X103258687Y-103879774D01*
X103241851Y-103829267D01*
X103241851Y-103795595D01*
X103258687Y-103745087D01*
%TO.C,TP3*%
X71632047Y-118471190D02*
X71917761Y-118471190D01*
X71774904Y-118971190D02*
X71774904Y-118471190D01*
X72084428Y-118971190D02*
X72084428Y-118471190D01*
X72274904Y-118471190D01*
X72322523Y-118495000D01*
X72346333Y-118518809D01*
X72370142Y-118566428D01*
X72370142Y-118637857D01*
X72346333Y-118685476D01*
X72322523Y-118709285D01*
X72274904Y-118733095D01*
X72084428Y-118733095D01*
X72536809Y-118471190D02*
X72846333Y-118471190D01*
X72679666Y-118661666D01*
X72751095Y-118661666D01*
X72798714Y-118685476D01*
X72822523Y-118709285D01*
X72846333Y-118756904D01*
X72846333Y-118875952D01*
X72822523Y-118923571D01*
X72798714Y-118947380D01*
X72751095Y-118971190D01*
X72608238Y-118971190D01*
X72560619Y-118947380D01*
X72536809Y-118923571D01*
%TO.C,U6*%
X80752190Y-108203952D02*
X81156952Y-108203952D01*
X81204571Y-108180142D01*
X81228380Y-108156333D01*
X81252190Y-108108714D01*
X81252190Y-108013476D01*
X81228380Y-107965857D01*
X81204571Y-107942047D01*
X81156952Y-107918238D01*
X80752190Y-107918238D01*
X80752190Y-107465857D02*
X80752190Y-107561095D01*
X80776000Y-107608714D01*
X80799809Y-107632523D01*
X80871238Y-107680142D01*
X80966476Y-107703952D01*
X81156952Y-107703952D01*
X81204571Y-107680142D01*
X81228380Y-107656333D01*
X81252190Y-107608714D01*
X81252190Y-107513476D01*
X81228380Y-107465857D01*
X81204571Y-107442047D01*
X81156952Y-107418238D01*
X81037904Y-107418238D01*
X80990285Y-107442047D01*
X80966476Y-107465857D01*
X80942666Y-107513476D01*
X80942666Y-107608714D01*
X80966476Y-107656333D01*
X80990285Y-107680142D01*
X81037904Y-107703952D01*
%TO.C,C21*%
X97468571Y-118415571D02*
X97444761Y-118439380D01*
X97373333Y-118463190D01*
X97325714Y-118463190D01*
X97254285Y-118439380D01*
X97206666Y-118391761D01*
X97182857Y-118344142D01*
X97159047Y-118248904D01*
X97159047Y-118177476D01*
X97182857Y-118082238D01*
X97206666Y-118034619D01*
X97254285Y-117987000D01*
X97325714Y-117963190D01*
X97373333Y-117963190D01*
X97444761Y-117987000D01*
X97468571Y-118010809D01*
X97659047Y-118010809D02*
X97682857Y-117987000D01*
X97730476Y-117963190D01*
X97849523Y-117963190D01*
X97897142Y-117987000D01*
X97920952Y-118010809D01*
X97944761Y-118058428D01*
X97944761Y-118106047D01*
X97920952Y-118177476D01*
X97635238Y-118463190D01*
X97944761Y-118463190D01*
X98420952Y-118463190D02*
X98135238Y-118463190D01*
X98278095Y-118463190D02*
X98278095Y-117963190D01*
X98230476Y-118034619D01*
X98182857Y-118082238D01*
X98135238Y-118106047D01*
%TO.C,R3*%
X88308666Y-91666190D02*
X88142000Y-91428095D01*
X88022952Y-91666190D02*
X88022952Y-91166190D01*
X88213428Y-91166190D01*
X88261047Y-91190000D01*
X88284857Y-91213809D01*
X88308666Y-91261428D01*
X88308666Y-91332857D01*
X88284857Y-91380476D01*
X88261047Y-91404285D01*
X88213428Y-91428095D01*
X88022952Y-91428095D01*
X88475333Y-91166190D02*
X88784857Y-91166190D01*
X88618190Y-91356666D01*
X88689619Y-91356666D01*
X88737238Y-91380476D01*
X88761047Y-91404285D01*
X88784857Y-91451904D01*
X88784857Y-91570952D01*
X88761047Y-91618571D01*
X88737238Y-91642380D01*
X88689619Y-91666190D01*
X88546761Y-91666190D01*
X88499142Y-91642380D01*
X88475333Y-91618571D01*
%TO.C,R5*%
X79926666Y-88872190D02*
X79760000Y-88634095D01*
X79640952Y-88872190D02*
X79640952Y-88372190D01*
X79831428Y-88372190D01*
X79879047Y-88396000D01*
X79902857Y-88419809D01*
X79926666Y-88467428D01*
X79926666Y-88538857D01*
X79902857Y-88586476D01*
X79879047Y-88610285D01*
X79831428Y-88634095D01*
X79640952Y-88634095D01*
X80379047Y-88372190D02*
X80140952Y-88372190D01*
X80117142Y-88610285D01*
X80140952Y-88586476D01*
X80188571Y-88562666D01*
X80307619Y-88562666D01*
X80355238Y-88586476D01*
X80379047Y-88610285D01*
X80402857Y-88657904D01*
X80402857Y-88776952D01*
X80379047Y-88824571D01*
X80355238Y-88848380D01*
X80307619Y-88872190D01*
X80188571Y-88872190D01*
X80140952Y-88848380D01*
X80117142Y-88824571D01*
%TO.C,R24*%
X105128190Y-112208428D02*
X104890095Y-112375095D01*
X105128190Y-112494142D02*
X104628190Y-112494142D01*
X104628190Y-112303666D01*
X104652000Y-112256047D01*
X104675809Y-112232238D01*
X104723428Y-112208428D01*
X104794857Y-112208428D01*
X104842476Y-112232238D01*
X104866285Y-112256047D01*
X104890095Y-112303666D01*
X104890095Y-112494142D01*
X104675809Y-112017952D02*
X104652000Y-111994142D01*
X104628190Y-111946523D01*
X104628190Y-111827476D01*
X104652000Y-111779857D01*
X104675809Y-111756047D01*
X104723428Y-111732238D01*
X104771047Y-111732238D01*
X104842476Y-111756047D01*
X105128190Y-112041761D01*
X105128190Y-111732238D01*
X104794857Y-111303666D02*
X105128190Y-111303666D01*
X104604380Y-111422714D02*
X104961523Y-111541761D01*
X104961523Y-111232238D01*
%TO.C,C12*%
X88081908Y-121971571D02*
X88058098Y-121995380D01*
X87986670Y-122019190D01*
X87939051Y-122019190D01*
X87867622Y-121995380D01*
X87820003Y-121947761D01*
X87796194Y-121900142D01*
X87772384Y-121804904D01*
X87772384Y-121733476D01*
X87796194Y-121638238D01*
X87820003Y-121590619D01*
X87867622Y-121543000D01*
X87939051Y-121519190D01*
X87986670Y-121519190D01*
X88058098Y-121543000D01*
X88081908Y-121566809D01*
X88558098Y-122019190D02*
X88272384Y-122019190D01*
X88415241Y-122019190D02*
X88415241Y-121519190D01*
X88367622Y-121590619D01*
X88320003Y-121638238D01*
X88272384Y-121662047D01*
X88748575Y-121566809D02*
X88772384Y-121543000D01*
X88820003Y-121519190D01*
X88939051Y-121519190D01*
X88986670Y-121543000D01*
X89010479Y-121566809D01*
X89034289Y-121614428D01*
X89034289Y-121662047D01*
X89010479Y-121733476D01*
X88724765Y-122019190D01*
X89034289Y-122019190D01*
%TO.C,R25*%
X95891225Y-117034343D02*
X95840717Y-117320553D01*
X96093255Y-117236374D02*
X95739702Y-117589927D01*
X95605015Y-117455240D01*
X95588179Y-117404732D01*
X95588179Y-117371061D01*
X95605015Y-117320553D01*
X95655522Y-117270045D01*
X95706030Y-117253209D01*
X95739702Y-117253209D01*
X95790209Y-117270045D01*
X95924896Y-117404732D01*
X95436656Y-117219538D02*
X95402984Y-117219538D01*
X95352477Y-117202702D01*
X95268297Y-117118522D01*
X95251461Y-117068015D01*
X95251461Y-117034343D01*
X95268297Y-116983835D01*
X95301969Y-116950164D01*
X95369312Y-116916492D01*
X95773374Y-116916492D01*
X95554507Y-116697625D01*
X94881072Y-116731297D02*
X95049431Y-116899656D01*
X95234625Y-116748133D01*
X95200954Y-116748133D01*
X95150446Y-116731297D01*
X95066267Y-116647118D01*
X95049431Y-116596610D01*
X95049431Y-116562938D01*
X95066267Y-116512431D01*
X95150446Y-116428251D01*
X95200954Y-116411416D01*
X95234625Y-116411416D01*
X95285133Y-116428251D01*
X95369312Y-116512431D01*
X95386148Y-116562938D01*
X95386148Y-116596610D01*
%TO.C,C19*%
X80069571Y-118669571D02*
X80045761Y-118693380D01*
X79974333Y-118717190D01*
X79926714Y-118717190D01*
X79855285Y-118693380D01*
X79807666Y-118645761D01*
X79783857Y-118598142D01*
X79760047Y-118502904D01*
X79760047Y-118431476D01*
X79783857Y-118336238D01*
X79807666Y-118288619D01*
X79855285Y-118241000D01*
X79926714Y-118217190D01*
X79974333Y-118217190D01*
X80045761Y-118241000D01*
X80069571Y-118264809D01*
X80545761Y-118717190D02*
X80260047Y-118717190D01*
X80402904Y-118717190D02*
X80402904Y-118217190D01*
X80355285Y-118288619D01*
X80307666Y-118336238D01*
X80260047Y-118360047D01*
X80783857Y-118717190D02*
X80879095Y-118717190D01*
X80926714Y-118693380D01*
X80950523Y-118669571D01*
X80998142Y-118598142D01*
X81021952Y-118502904D01*
X81021952Y-118312428D01*
X80998142Y-118264809D01*
X80974333Y-118241000D01*
X80926714Y-118217190D01*
X80831476Y-118217190D01*
X80783857Y-118241000D01*
X80760047Y-118264809D01*
X80736238Y-118312428D01*
X80736238Y-118431476D01*
X80760047Y-118479095D01*
X80783857Y-118502904D01*
X80831476Y-118526714D01*
X80926714Y-118526714D01*
X80974333Y-118502904D01*
X80998142Y-118479095D01*
X81021952Y-118431476D01*
%TO.C,R15*%
X77656571Y-98016190D02*
X77489904Y-97778095D01*
X77370857Y-98016190D02*
X77370857Y-97516190D01*
X77561333Y-97516190D01*
X77608952Y-97540000D01*
X77632761Y-97563809D01*
X77656571Y-97611428D01*
X77656571Y-97682857D01*
X77632761Y-97730476D01*
X77608952Y-97754285D01*
X77561333Y-97778095D01*
X77370857Y-97778095D01*
X78132761Y-98016190D02*
X77847047Y-98016190D01*
X77989904Y-98016190D02*
X77989904Y-97516190D01*
X77942285Y-97587619D01*
X77894666Y-97635238D01*
X77847047Y-97659047D01*
X78585142Y-97516190D02*
X78347047Y-97516190D01*
X78323238Y-97754285D01*
X78347047Y-97730476D01*
X78394666Y-97706666D01*
X78513714Y-97706666D01*
X78561333Y-97730476D01*
X78585142Y-97754285D01*
X78608952Y-97801904D01*
X78608952Y-97920952D01*
X78585142Y-97968571D01*
X78561333Y-97992380D01*
X78513714Y-98016190D01*
X78394666Y-98016190D01*
X78347047Y-97992380D01*
X78323238Y-97968571D01*
%TO.C,D6*%
X80617190Y-105652047D02*
X80117190Y-105652047D01*
X80117190Y-105533000D01*
X80141000Y-105461571D01*
X80188619Y-105413952D01*
X80236238Y-105390142D01*
X80331476Y-105366333D01*
X80402904Y-105366333D01*
X80498142Y-105390142D01*
X80545761Y-105413952D01*
X80593380Y-105461571D01*
X80617190Y-105533000D01*
X80617190Y-105652047D01*
X80117190Y-104937761D02*
X80117190Y-105033000D01*
X80141000Y-105080619D01*
X80164809Y-105104428D01*
X80236238Y-105152047D01*
X80331476Y-105175857D01*
X80521952Y-105175857D01*
X80569571Y-105152047D01*
X80593380Y-105128238D01*
X80617190Y-105080619D01*
X80617190Y-104985380D01*
X80593380Y-104937761D01*
X80569571Y-104913952D01*
X80521952Y-104890142D01*
X80402904Y-104890142D01*
X80355285Y-104913952D01*
X80331476Y-104937761D01*
X80307666Y-104985380D01*
X80307666Y-105080619D01*
X80331476Y-105128238D01*
X80355285Y-105152047D01*
X80402904Y-105175857D01*
%TO.C,R9*%
X86784666Y-122019190D02*
X86618000Y-121781095D01*
X86498952Y-122019190D02*
X86498952Y-121519190D01*
X86689428Y-121519190D01*
X86737047Y-121543000D01*
X86760857Y-121566809D01*
X86784666Y-121614428D01*
X86784666Y-121685857D01*
X86760857Y-121733476D01*
X86737047Y-121757285D01*
X86689428Y-121781095D01*
X86498952Y-121781095D01*
X87022761Y-122019190D02*
X87118000Y-122019190D01*
X87165619Y-121995380D01*
X87189428Y-121971571D01*
X87237047Y-121900142D01*
X87260857Y-121804904D01*
X87260857Y-121614428D01*
X87237047Y-121566809D01*
X87213238Y-121543000D01*
X87165619Y-121519190D01*
X87070380Y-121519190D01*
X87022761Y-121543000D01*
X86998952Y-121566809D01*
X86975142Y-121614428D01*
X86975142Y-121733476D01*
X86998952Y-121781095D01*
X87022761Y-121804904D01*
X87070380Y-121828714D01*
X87165619Y-121828714D01*
X87213238Y-121804904D01*
X87237047Y-121781095D01*
X87260857Y-121733476D01*
%TO.C,R32*%
X102113190Y-109541428D02*
X101875095Y-109708095D01*
X102113190Y-109827142D02*
X101613190Y-109827142D01*
X101613190Y-109636666D01*
X101637000Y-109589047D01*
X101660809Y-109565238D01*
X101708428Y-109541428D01*
X101779857Y-109541428D01*
X101827476Y-109565238D01*
X101851285Y-109589047D01*
X101875095Y-109636666D01*
X101875095Y-109827142D01*
X101613190Y-109374761D02*
X101613190Y-109065238D01*
X101803666Y-109231904D01*
X101803666Y-109160476D01*
X101827476Y-109112857D01*
X101851285Y-109089047D01*
X101898904Y-109065238D01*
X102017952Y-109065238D01*
X102065571Y-109089047D01*
X102089380Y-109112857D01*
X102113190Y-109160476D01*
X102113190Y-109303333D01*
X102089380Y-109350952D01*
X102065571Y-109374761D01*
X101660809Y-108874761D02*
X101637000Y-108850952D01*
X101613190Y-108803333D01*
X101613190Y-108684285D01*
X101637000Y-108636666D01*
X101660809Y-108612857D01*
X101708428Y-108589047D01*
X101756047Y-108589047D01*
X101827476Y-108612857D01*
X102113190Y-108898571D01*
X102113190Y-108589047D01*
D12*
%TO.C,D8*%
X90475000Y-102862000D02*
X94535000Y-102862000D01*
X94535000Y-102862000D02*
X94535000Y-100592000D01*
X94535000Y-100592000D02*
X90475000Y-100592000D01*
%TO.C,C7*%
X87124000Y-94722733D02*
X87124000Y-95015267D01*
X86104000Y-94722733D02*
X86104000Y-95015267D01*
%TO.C,C13*%
X68578000Y-111144267D02*
X68578000Y-110851733D01*
X69598000Y-111144267D02*
X69598000Y-110851733D01*
%TO.C,R29*%
X102680654Y-102022580D02*
X102320420Y-101662346D01*
X103419580Y-101283654D02*
X103059346Y-100923420D01*
%TO.C,R1*%
X102306500Y-95630276D02*
X102306500Y-96139724D01*
X101261500Y-95630276D02*
X101261500Y-96139724D01*
%TO.C,C3*%
X89844000Y-94595733D02*
X89844000Y-94888267D01*
X90864000Y-94595733D02*
X90864000Y-94888267D01*
%TO.C,C5*%
X82171000Y-90951267D02*
X82171000Y-90658733D01*
X81151000Y-90951267D02*
X81151000Y-90658733D01*
D11*
%TO.C,Q1*%
X78774000Y-114101000D02*
X76674000Y-114101000D01*
X78774000Y-111451000D02*
X76674000Y-111451000D01*
D13*
X80505065Y-113426000D02*
G75*
G03*
X80505065Y-113426000I-125000J0D01*
G01*
D12*
%TO.C,R16*%
X94419499Y-125464721D02*
X94419499Y-124955273D01*
X93374499Y-125464721D02*
X93374499Y-124955273D01*
%TO.C,R4*%
X86233724Y-89393500D02*
X85724276Y-89393500D01*
X86233724Y-90438500D02*
X85724276Y-90438500D01*
%TO.C,R13*%
X87303500Y-115673724D02*
X87303500Y-115164276D01*
X86258500Y-115673724D02*
X86258500Y-115164276D01*
%TO.C,C20*%
X77087000Y-116312733D02*
X77087000Y-116605267D01*
X78107000Y-116312733D02*
X78107000Y-116605267D01*
%TO.C,TP1*%
X76261000Y-122174000D02*
G75*
G03*
X76261000Y-122174000I-950000J0D01*
G01*
%TO.C,R7*%
X80645724Y-116092500D02*
X80136276Y-116092500D01*
X80645724Y-115047500D02*
X80136276Y-115047500D01*
%TO.C,R6*%
X83834500Y-93979276D02*
X83834500Y-94488724D01*
X82789500Y-93979276D02*
X82789500Y-94488724D01*
%TO.C,C2*%
X100516000Y-95738733D02*
X100516000Y-96031267D01*
X99496000Y-95738733D02*
X99496000Y-96031267D01*
%TO.C,C14*%
X109349000Y-102596733D02*
X109349000Y-102889267D01*
X108329000Y-102596733D02*
X108329000Y-102889267D01*
%TO.C,D12*%
X91738500Y-109974000D02*
X91738500Y-107704000D01*
X91738500Y-107704000D02*
X87678500Y-107704000D01*
X87678500Y-109974000D02*
X91738500Y-109974000D01*
%TO.C,D10*%
X97837000Y-107688000D02*
X97837000Y-105418000D01*
X93777000Y-107688000D02*
X97837000Y-107688000D01*
X97837000Y-105418000D02*
X93777000Y-105418000D01*
%TO.C,D5*%
X96821000Y-110244000D02*
X92761000Y-110244000D01*
X92761000Y-112514000D02*
X96821000Y-112514000D01*
X96821000Y-112514000D02*
X96821000Y-110244000D01*
%TO.C,C16*%
X96993267Y-126769999D02*
X96700733Y-126769999D01*
X96993267Y-125749999D02*
X96700733Y-125749999D01*
%TO.C,D9*%
X93015000Y-105275000D02*
X97075000Y-105275000D01*
X97075000Y-105275000D02*
X97075000Y-103005000D01*
X97075000Y-103005000D02*
X93015000Y-103005000D01*
%TO.C,C17*%
X105221000Y-102915267D02*
X105221000Y-102622733D01*
X106241000Y-102915267D02*
X106241000Y-102622733D01*
D11*
%TO.C,U2*%
X68025000Y-104131466D02*
X78025000Y-104131466D01*
X78025000Y-104131466D02*
X78025000Y-105889534D01*
X68025000Y-105889534D02*
X68025000Y-104131466D01*
X78025000Y-105889534D02*
X68025000Y-105889534D01*
D14*
X77575000Y-104835500D02*
G75*
G03*
X77575000Y-104835500I-250000J0D01*
G01*
D13*
X77595000Y-101182401D02*
G75*
G03*
X77595000Y-101182401I-125000J0D01*
G01*
D12*
%TO.C,R2*%
X88053500Y-94996724D02*
X88053500Y-94487276D01*
X89098500Y-94996724D02*
X89098500Y-94487276D01*
D15*
%TO.C,U4*%
X91256663Y-123175000D02*
X95156663Y-123175000D01*
X91256663Y-118125000D02*
X95156663Y-118125000D01*
D16*
X89266663Y-118345000D02*
G75*
G03*
X89266663Y-118345000I-100000J0D01*
G01*
D12*
%TO.C,D4*%
X89713000Y-114927000D02*
X93773000Y-114927000D01*
X93773000Y-112657000D02*
X89713000Y-112657000D01*
X93773000Y-114927000D02*
X93773000Y-112657000D01*
%TO.C,R12*%
X83707500Y-120650724D02*
X83707500Y-120141276D01*
X82662500Y-120650724D02*
X82662500Y-120141276D01*
%TO.C,C11*%
X84211241Y-117215423D02*
X83918707Y-117215423D01*
X84211241Y-118235423D02*
X83918707Y-118235423D01*
%TO.C,C6*%
X84453000Y-94722733D02*
X84453000Y-95015267D01*
X85473000Y-94722733D02*
X85473000Y-95015267D01*
%TO.C,R28*%
X86365724Y-100366500D02*
X85856276Y-100366500D01*
X86365724Y-101411500D02*
X85856276Y-101411500D01*
%TO.C,R14*%
X101587939Y-120127500D02*
X102097387Y-120127500D01*
X101587939Y-121172500D02*
X102097387Y-121172500D01*
%TO.C,R8*%
X77215276Y-109586500D02*
X77724724Y-109586500D01*
X77215276Y-110631500D02*
X77724724Y-110631500D01*
%TO.C,R26*%
X99378654Y-112353420D02*
X99018420Y-112713654D01*
X100117580Y-113092346D02*
X99757346Y-113452580D01*
%TO.C,C10*%
X75313000Y-94722733D02*
X75313000Y-95015267D01*
X74293000Y-94722733D02*
X74293000Y-95015267D01*
%TO.C,TP4*%
X93279000Y-89408000D02*
G75*
G03*
X93279000Y-89408000I-950000J0D01*
G01*
%TO.C,X1*%
X71788000Y-112612000D02*
X71458000Y-112612000D01*
X70518000Y-110932000D02*
X70518000Y-111572000D01*
X71798000Y-109892000D02*
X71458000Y-109892000D01*
X72008000Y-112812000D02*
X72698000Y-112812000D01*
X72738000Y-110932000D02*
X72738000Y-111572000D01*
X71787999Y-112612000D02*
G75*
G03*
X72008000Y-112812000I310002J120002D01*
G01*
%TO.C,R18*%
X71542580Y-116269654D02*
X71182346Y-115909420D01*
X70803654Y-117008580D02*
X70443420Y-116648346D01*
%TO.C,C15*%
X107825000Y-102596733D02*
X107825000Y-102889267D01*
X106805000Y-102596733D02*
X106805000Y-102889267D01*
%TO.C,R31*%
X99934500Y-106045724D02*
X99934500Y-105536276D01*
X100979500Y-106045724D02*
X100979500Y-105536276D01*
%TO.C,U7*%
X76289499Y-117318500D02*
X76289499Y-115364500D01*
X72935501Y-115364500D02*
X72935501Y-117318500D01*
X75681105Y-114055500D02*
G75*
G03*
X75681105Y-114055500I-179605J0D01*
G01*
D15*
%TO.C,U1*%
X97130000Y-92217000D02*
X93230000Y-92217000D01*
X97130000Y-97267000D02*
X93230000Y-97267000D01*
D16*
X99320000Y-97047000D02*
G75*
G03*
X99320000Y-97047000I-100000J0D01*
G01*
D12*
%TO.C,R11*%
X84313500Y-120164776D02*
X84313500Y-120674224D01*
X85358500Y-120164776D02*
X85358500Y-120674224D01*
%TO.C,D1*%
X90881000Y-105164000D02*
X86821000Y-105164000D01*
X86821000Y-107434000D02*
X90881000Y-107434000D01*
X86821000Y-105164000D02*
X86821000Y-107434000D01*
%TO.C,C8*%
X82276733Y-97411000D02*
X82569267Y-97411000D01*
X82276733Y-96391000D02*
X82569267Y-96391000D01*
%TO.C,C9*%
X73640733Y-100328000D02*
X73933267Y-100328000D01*
X73640733Y-101348000D02*
X73933267Y-101348000D01*
%TO.C,R19*%
X80503500Y-107923724D02*
X80503500Y-107414276D01*
X79458500Y-107923724D02*
X79458500Y-107414276D01*
D11*
%TO.C,D3*%
X82376000Y-109650000D02*
X82376000Y-109700000D01*
X82376000Y-112550000D02*
X82376000Y-112599999D01*
X86026000Y-112599999D02*
X82376000Y-112599999D01*
X86026000Y-109650000D02*
X86026000Y-109700000D01*
X86026000Y-109650000D02*
X82376000Y-109650000D01*
X86026000Y-112550000D02*
X86026000Y-112599999D01*
D13*
X81926000Y-111125000D02*
G75*
G03*
X81926000Y-111125000I-125000J0D01*
G01*
D12*
%TO.C,C22*%
X77704733Y-95506000D02*
X77997267Y-95506000D01*
X77704733Y-94486000D02*
X77997267Y-94486000D01*
%TO.C,R27*%
X80455654Y-99780420D02*
X80095420Y-100140654D01*
X81194580Y-100519346D02*
X80834346Y-100879580D01*
%TO.C,D11*%
X93777000Y-110101000D02*
X97837000Y-110101000D01*
X97837000Y-107831000D02*
X93777000Y-107831000D01*
X97837000Y-110101000D02*
X97837000Y-107831000D01*
%TO.C,C23*%
X77997267Y-92887300D02*
X77704733Y-92887300D01*
X77997267Y-93907300D02*
X77704733Y-93907300D01*
%TO.C,R10*%
X99825163Y-120141276D02*
X99825163Y-120650724D01*
X98780163Y-120141276D02*
X98780163Y-120650724D01*
%TO.C,C1*%
X94945267Y-90676000D02*
X94652733Y-90676000D01*
X94945267Y-91696000D02*
X94652733Y-91696000D01*
D16*
%TO.C,U5*%
X108784000Y-105196000D02*
X108784000Y-110196000D01*
X110609000Y-110546000D02*
X109134000Y-110546000D01*
X105084000Y-105196000D02*
X108784000Y-105196000D01*
X105084000Y-110196000D02*
X105084000Y-105196000D01*
X108784000Y-110196000D02*
X105084000Y-110196000D01*
D12*
%TO.C,C18*%
X107930733Y-114175000D02*
X108223267Y-114175000D01*
X107930733Y-113155000D02*
X108223267Y-113155000D01*
%TO.C,R17*%
X82183500Y-93979276D02*
X82183500Y-94488724D01*
X81138500Y-93979276D02*
X81138500Y-94488724D01*
%TO.C,C4*%
X82802000Y-90658733D02*
X82802000Y-90951267D01*
X83822000Y-90658733D02*
X83822000Y-90951267D01*
%TO.C,D7*%
X87423000Y-101735000D02*
X83363000Y-101735000D01*
X83363000Y-104005000D02*
X87423000Y-104005000D01*
X87423000Y-104005000D02*
X87423000Y-101735000D01*
%TO.C,R30*%
X101410654Y-103292580D02*
X101050420Y-102932346D01*
X102149580Y-102553654D02*
X101789346Y-102193420D01*
%TO.C,TP3*%
X74483000Y-120142000D02*
G75*
G03*
X74483000Y-120142000I-950000J0D01*
G01*
D16*
%TO.C,U6*%
X81831000Y-109367500D02*
G75*
G03*
X81831000Y-109367500I-100000J0D01*
G01*
D12*
%TO.C,C21*%
X98288663Y-120542267D02*
X98288663Y-120249733D01*
X97268663Y-120542267D02*
X97268663Y-120249733D01*
%TO.C,R3*%
X86233724Y-92089500D02*
X85724276Y-92089500D01*
X86233724Y-91044500D02*
X85724276Y-91044500D01*
%TO.C,R5*%
X80532500Y-90550276D02*
X80532500Y-91059724D01*
X79487500Y-90550276D02*
X79487500Y-91059724D01*
%TO.C,R24*%
X107315724Y-112409500D02*
X106806276Y-112409500D01*
X107315724Y-111364500D02*
X106806276Y-111364500D01*
%TO.C,C12*%
X88902000Y-119780267D02*
X88902000Y-119487733D01*
X87882000Y-119780267D02*
X87882000Y-119487733D01*
%TO.C,R25*%
X97577580Y-115632346D02*
X97217346Y-115992580D01*
X96838654Y-114893420D02*
X96478420Y-115253654D01*
%TO.C,C19*%
X80244733Y-117858000D02*
X80537267Y-117858000D01*
X80244733Y-116838000D02*
X80537267Y-116838000D01*
%TO.C,R15*%
X77596276Y-96075200D02*
X78105724Y-96075200D01*
X77596276Y-97120200D02*
X78105724Y-97120200D01*
%TO.C,D6*%
X80979000Y-106418000D02*
X85039000Y-106418000D01*
X80979000Y-104148000D02*
X80979000Y-106418000D01*
X85039000Y-104148000D02*
X80979000Y-104148000D01*
%TO.C,R9*%
X86345500Y-119888724D02*
X86345500Y-119379276D01*
X87390500Y-119888724D02*
X87390500Y-119379276D01*
%TO.C,R32*%
X100979500Y-108965276D02*
X100979500Y-109474724D01*
X99934500Y-108965276D02*
X99934500Y-109474724D01*
%TD*%
%LPC*%
D17*
%TO.C,D8*%
X93562500Y-101727000D03*
X90587500Y-101727000D03*
%TD*%
D18*
%TO.C,C7*%
X86614000Y-94006500D03*
X86614000Y-95731500D03*
%TD*%
D19*
%TO.C,C13*%
X69088000Y-111860500D03*
X69088000Y-110135500D03*
%TD*%
D20*
%TO.C,R29*%
X103515235Y-102118235D03*
X102224765Y-100827765D03*
%TD*%
D21*
%TO.C,R1*%
X101784000Y-94972500D03*
X101784000Y-96797500D03*
%TD*%
D18*
%TO.C,C3*%
X90354000Y-93879500D03*
X90354000Y-95604500D03*
%TD*%
D19*
%TO.C,C5*%
X81661000Y-91667500D03*
X81661000Y-89942500D03*
%TD*%
D22*
%TO.C,Q1*%
X78624919Y-113426000D03*
D23*
X78624919Y-112776000D03*
X78624919Y-112126000D03*
X76823081Y-112126000D03*
X76823081Y-112776000D03*
X76823081Y-113426000D03*
%TD*%
D24*
%TO.C,R16*%
X93896999Y-126122497D03*
X93896999Y-124297497D03*
%TD*%
D25*
%TO.C,R4*%
X86891500Y-89916000D03*
X85066500Y-89916000D03*
%TD*%
D24*
%TO.C,R13*%
X86781000Y-116331500D03*
X86781000Y-114506500D03*
%TD*%
D18*
%TO.C,C20*%
X77597000Y-115596500D03*
X77597000Y-117321500D03*
%TD*%
D26*
%TO.C,TP1*%
X75311000Y-122174000D03*
%TD*%
D25*
%TO.C,R7*%
X81303500Y-115570000D03*
X79478500Y-115570000D03*
%TD*%
D21*
%TO.C,R6*%
X83312000Y-93321500D03*
X83312000Y-95146500D03*
%TD*%
D27*
%TO.C,H2*%
X72136000Y-97556000D03*
%TD*%
D18*
%TO.C,C2*%
X100006000Y-95022500D03*
X100006000Y-96747500D03*
%TD*%
%TO.C,C14*%
X108839000Y-101880500D03*
X108839000Y-103605500D03*
%TD*%
D17*
%TO.C,D12*%
X90766000Y-108839000D03*
X87791000Y-108839000D03*
%TD*%
%TO.C,D10*%
X96864500Y-106553000D03*
X93889500Y-106553000D03*
%TD*%
%TO.C,D5*%
X95848500Y-111379000D03*
X92873500Y-111379000D03*
%TD*%
D28*
%TO.C,C16*%
X97709500Y-126259999D03*
X95984500Y-126259999D03*
%TD*%
D17*
%TO.C,D9*%
X96102500Y-104140000D03*
X93127500Y-104140000D03*
%TD*%
D19*
%TO.C,C17*%
X105731000Y-103631500D03*
X105731000Y-101906500D03*
%TD*%
D29*
%TO.C,U2*%
X77470000Y-102694433D03*
D30*
X76200000Y-102694433D03*
X74930000Y-102694433D03*
X73660000Y-102694433D03*
X72390000Y-102694433D03*
X71120000Y-102694433D03*
X69850000Y-102694433D03*
X68580000Y-102694433D03*
X68580000Y-107326567D03*
X69850000Y-107326567D03*
X71120000Y-107326567D03*
X72390000Y-107326567D03*
X73660000Y-107326567D03*
X74930000Y-107326567D03*
X76200000Y-107326567D03*
X77470000Y-107326567D03*
%TD*%
D24*
%TO.C,R2*%
X88576000Y-95654500D03*
X88576000Y-93829500D03*
%TD*%
D31*
%TO.C,U4*%
X90736663Y-118745000D03*
X90736663Y-120015000D03*
X90736663Y-121285000D03*
X90736663Y-122555000D03*
X95676663Y-122555000D03*
X95676663Y-121285000D03*
X95676663Y-120015000D03*
X95676663Y-118745000D03*
%TD*%
D17*
%TO.C,D4*%
X92800500Y-113792000D03*
X89825500Y-113792000D03*
%TD*%
D24*
%TO.C,R12*%
X83185000Y-121308500D03*
X83185000Y-119483500D03*
%TD*%
D28*
%TO.C,C11*%
X84927474Y-117725423D03*
X83202474Y-117725423D03*
%TD*%
D18*
%TO.C,C6*%
X84963000Y-94006500D03*
X84963000Y-95731500D03*
%TD*%
D25*
%TO.C,R28*%
X87023500Y-100889000D03*
X85198500Y-100889000D03*
%TD*%
D32*
%TO.C,R14*%
X100930163Y-120650000D03*
X102755163Y-120650000D03*
%TD*%
%TO.C,R8*%
X76557500Y-110109000D03*
X78382500Y-110109000D03*
%TD*%
D33*
%TO.C,R26*%
X100213235Y-112257765D03*
X98922765Y-113548235D03*
%TD*%
D18*
%TO.C,C10*%
X74803000Y-94006500D03*
X74803000Y-95731500D03*
%TD*%
D27*
%TO.C,H1*%
X103632000Y-115717000D03*
%TD*%
D26*
%TO.C,TP4*%
X92329000Y-89408000D03*
%TD*%
D34*
%TO.C,X1*%
X72353000Y-112177000D03*
X72353000Y-110327000D03*
X70903000Y-110327000D03*
X70903000Y-112177000D03*
%TD*%
D20*
%TO.C,R18*%
X71638235Y-117104235D03*
X70347765Y-115813765D03*
%TD*%
D18*
%TO.C,C15*%
X107315000Y-101880500D03*
X107315000Y-103605500D03*
%TD*%
D24*
%TO.C,R31*%
X100457000Y-106703500D03*
X100457000Y-104878500D03*
%TD*%
D35*
%TO.C,U7*%
X75562501Y-115141500D03*
D36*
X74612500Y-115141500D03*
X73662499Y-115141500D03*
X73662499Y-117541500D03*
X74612500Y-117541500D03*
X75562501Y-117541500D03*
%TD*%
D37*
%TO.C,U1*%
X97650000Y-96647000D03*
X97650000Y-95377000D03*
X97650000Y-94107000D03*
X97650000Y-92837000D03*
X92710000Y-92837000D03*
X92710000Y-94107000D03*
X92710000Y-95377000D03*
X92710000Y-96647000D03*
%TD*%
D21*
%TO.C,R11*%
X84836000Y-119507000D03*
X84836000Y-121332000D03*
%TD*%
D38*
%TO.C,D1*%
X87793500Y-106299000D03*
X90768500Y-106299000D03*
%TD*%
D39*
%TO.C,C8*%
X81560500Y-96901000D03*
X83285500Y-96901000D03*
%TD*%
%TO.C,C9*%
X72924500Y-100838000D03*
X74649500Y-100838000D03*
%TD*%
D24*
%TO.C,R19*%
X79981000Y-108581500D03*
X79981000Y-106756500D03*
%TD*%
D40*
%TO.C,D3*%
X83391000Y-111125000D03*
D41*
X85561000Y-111125000D03*
%TD*%
D39*
%TO.C,C22*%
X76988500Y-94996000D03*
X78713500Y-94996000D03*
%TD*%
D33*
%TO.C,R27*%
X81290235Y-99684765D03*
X79999765Y-100975235D03*
%TD*%
D17*
%TO.C,D11*%
X96864500Y-108966000D03*
X93889500Y-108966000D03*
%TD*%
D28*
%TO.C,C23*%
X78713500Y-93397300D03*
X76988500Y-93397300D03*
%TD*%
D21*
%TO.C,R10*%
X99302663Y-119483500D03*
X99302663Y-121308500D03*
%TD*%
D28*
%TO.C,C1*%
X95661500Y-91186000D03*
X93936500Y-91186000D03*
%TD*%
D42*
%TO.C,U5*%
X109872000Y-109971000D03*
X109872000Y-109321000D03*
X109872000Y-108671000D03*
X109872000Y-108021000D03*
X109872000Y-107371000D03*
X109872000Y-106721000D03*
X109872000Y-106071000D03*
X109872000Y-105421000D03*
X103996000Y-105421000D03*
X103996000Y-106071000D03*
X103996000Y-106721000D03*
X103996000Y-107371000D03*
X103996000Y-108021000D03*
X103996000Y-108671000D03*
X103996000Y-109321000D03*
X103996000Y-109971000D03*
%TD*%
D39*
%TO.C,C18*%
X107214500Y-113665000D03*
X108939500Y-113665000D03*
%TD*%
D21*
%TO.C,R17*%
X81661000Y-93321500D03*
X81661000Y-95146500D03*
%TD*%
D18*
%TO.C,C4*%
X83312000Y-89942500D03*
X83312000Y-91667500D03*
%TD*%
D17*
%TO.C,D7*%
X86450500Y-102870000D03*
X83475500Y-102870000D03*
%TD*%
D20*
%TO.C,R30*%
X102245235Y-103388235D03*
X100954765Y-102097765D03*
%TD*%
D26*
%TO.C,TP3*%
X73533000Y-120142000D03*
%TD*%
D43*
%TO.C,U6*%
X81731000Y-108463000D03*
X82531000Y-108463000D03*
X83331000Y-108463000D03*
X84131000Y-108463000D03*
X84131000Y-107183000D03*
X83331000Y-107183000D03*
X82531000Y-107183000D03*
X81731000Y-107183000D03*
%TD*%
D19*
%TO.C,C21*%
X97778663Y-121258500D03*
X97778663Y-119533500D03*
%TD*%
D25*
%TO.C,R3*%
X86891500Y-91567000D03*
X85066500Y-91567000D03*
%TD*%
D21*
%TO.C,R5*%
X80010000Y-89892500D03*
X80010000Y-91717500D03*
%TD*%
D25*
%TO.C,R24*%
X107973500Y-111887000D03*
X106148500Y-111887000D03*
%TD*%
D19*
%TO.C,C12*%
X88392000Y-120496500D03*
X88392000Y-118771500D03*
%TD*%
D33*
%TO.C,R25*%
X97673235Y-114797765D03*
X96382765Y-116088235D03*
%TD*%
D39*
%TO.C,C19*%
X79528500Y-117348000D03*
X81253500Y-117348000D03*
%TD*%
D32*
%TO.C,R15*%
X76938500Y-96597700D03*
X78763500Y-96597700D03*
%TD*%
D38*
%TO.C,D6*%
X81951500Y-105283000D03*
X84926500Y-105283000D03*
%TD*%
D24*
%TO.C,R9*%
X86868000Y-120546500D03*
X86868000Y-118721500D03*
%TD*%
D21*
%TO.C,R32*%
X100457000Y-108307500D03*
X100457000Y-110132500D03*
%TD*%
D44*
%TO.C,J4*%
X106831000Y-96319000D03*
D45*
X105034949Y-94522949D03*
X103238898Y-92726898D03*
X101442846Y-90930846D03*
%TD*%
D46*
%TO.C,J1*%
X77975672Y-121628317D03*
D47*
X79771723Y-123424368D03*
X81567774Y-125220419D03*
X83363826Y-127016471D03*
%TD*%
M02*
