%TF.GenerationSoftware,KiCad,Pcbnew,(6.0.4-0)*%
%TF.CreationDate,2022-12-23T16:58:16+01:00*%
%TF.ProjectId,RoundScanner,526f756e-6453-4636-916e-6e65722e6b69,2*%
%TF.SameCoordinates,Original*%
%TF.FileFunction,Copper,L4,Bot*%
%TF.FilePolarity,Positive*%
%FSLAX46Y46*%
G04 Gerber Fmt 4.6, Leading zero omitted, Abs format (unit mm)*
G04 Created by KiCad (PCBNEW (6.0.4-0)) date 2022-12-23 16:58:16*
%MOMM*%
%LPD*%
G01*
G04 APERTURE LIST*
G04 Aperture macros list*
%AMRoundRect*
0 Rectangle with rounded corners*
0 $1 Rounding radius*
0 $2 $3 $4 $5 $6 $7 $8 $9 X,Y pos of 4 corners*
0 Add a 4 corners polygon primitive as box body*
4,1,4,$2,$3,$4,$5,$6,$7,$8,$9,$2,$3,0*
0 Add four circle primitives for the rounded corners*
1,1,$1+$1,$2,$3*
1,1,$1+$1,$4,$5*
1,1,$1+$1,$6,$7*
1,1,$1+$1,$8,$9*
0 Add four rect primitives between the rounded corners*
20,1,$1+$1,$2,$3,$4,$5,0*
20,1,$1+$1,$4,$5,$6,$7,0*
20,1,$1+$1,$6,$7,$8,$9,0*
20,1,$1+$1,$8,$9,$2,$3,0*%
%AMHorizOval*
0 Thick line with rounded ends*
0 $1 width*
0 $2 $3 position (X,Y) of the first rounded end (center of the circle)*
0 $4 $5 position (X,Y) of the second rounded end (center of the circle)*
0 Add line between two ends*
20,1,$1,$2,$3,$4,$5,0*
0 Add two circle primitives to create the rounded ends*
1,1,$1,$2,$3*
1,1,$1,$4,$5*%
%AMRotRect*
0 Rectangle, with rotation*
0 The origin of the aperture is its center*
0 $1 length*
0 $2 width*
0 $3 Rotation angle, in degrees counterclockwise*
0 Add horizontal line*
21,1,$1,$2,0,0,$3*%
G04 Aperture macros list end*
%TA.AperFunction,ComponentPad*%
%ADD10C,3.500000*%
%TD*%
%TA.AperFunction,ComponentPad*%
%ADD11RotRect,1.700000X1.700000X45.000000*%
%TD*%
%TA.AperFunction,ComponentPad*%
%ADD12HorizOval,1.700000X0.000000X0.000000X0.000000X0.000000X0*%
%TD*%
%TA.AperFunction,ComponentPad*%
%ADD13RotRect,1.700000X1.700000X225.000000*%
%TD*%
%TA.AperFunction,ComponentPad*%
%ADD14HorizOval,1.700000X0.000000X0.000000X0.000000X0.000000X0*%
%TD*%
%TA.AperFunction,SMDPad,CuDef*%
%ADD15RoundRect,0.150000X-0.150000X-0.625000X0.150000X-0.625000X0.150000X0.625000X-0.150000X0.625000X0*%
%TD*%
%TA.AperFunction,SMDPad,CuDef*%
%ADD16RoundRect,0.250000X-0.350000X-0.650000X0.350000X-0.650000X0.350000X0.650000X-0.350000X0.650000X0*%
%TD*%
%TA.AperFunction,SMDPad,CuDef*%
%ADD17RoundRect,0.250000X0.325000X0.450000X-0.325000X0.450000X-0.325000X-0.450000X0.325000X-0.450000X0*%
%TD*%
%TA.AperFunction,ViaPad*%
%ADD18C,0.800000*%
%TD*%
%TA.AperFunction,Conductor*%
%ADD19C,0.500000*%
%TD*%
%TA.AperFunction,Conductor*%
%ADD20C,0.250000*%
%TD*%
G04 APERTURE END LIST*
D10*
%TO.P,H2,1,1*%
%TO.N,GND*%
X72136000Y-97556000D03*
%TD*%
%TO.P,H1,1,1*%
%TO.N,GND*%
X103632000Y-115717000D03*
%TD*%
D11*
%TO.P,J4,1,Pin_1*%
%TO.N,GND*%
X106831000Y-96319000D03*
D12*
%TO.P,J4,2,Pin_2*%
%TO.N,LED RESET*%
X105034949Y-94522949D03*
%TO.P,J4,3,Pin_3*%
%TO.N,AS7341_INT*%
X103238898Y-92726898D03*
%TO.P,J4,4,Pin_4*%
%TO.N,DRDY_INT*%
X101442846Y-90930846D03*
%TD*%
D13*
%TO.P,J1,1,Pin_1*%
%TO.N,GND*%
X77975672Y-121628317D03*
D14*
%TO.P,J1,2,Pin_2*%
%TO.N,+3V3*%
X79771723Y-123424368D03*
%TO.P,J1,3,Pin_3*%
%TO.N,SDA*%
X81567774Y-125220419D03*
%TO.P,J1,4,Pin_4*%
%TO.N,SCL*%
X83363826Y-127016471D03*
%TD*%
D15*
%TO.P,J3,1,Pin_1*%
%TO.N,GND*%
X88416000Y-126968000D03*
%TO.P,J3,2,Pin_2*%
%TO.N,+3V3*%
X89416000Y-126968000D03*
%TO.P,J3,3,Pin_3*%
%TO.N,SDA*%
X90416000Y-126968000D03*
%TO.P,J3,4,Pin_4*%
%TO.N,SCL*%
X91416000Y-126968000D03*
D16*
%TO.P,J3,MP*%
%TO.N,N/C*%
X87116000Y-123093000D03*
X92716000Y-123093000D03*
%TD*%
D17*
%TO.P,D2,1,K*%
%TO.N,GND*%
X98561000Y-124460000D03*
%TO.P,D2,2,A*%
%TO.N,Net-(D2-Pad2)*%
X96511000Y-124460000D03*
%TD*%
D18*
%TO.N,+2V5*%
X78411285Y-107574192D03*
X84963000Y-97155000D03*
X88331000Y-121769000D03*
X83185000Y-116459000D03*
X91059000Y-92710000D03*
%TO.N,Net-(C2-Pad2)*%
X88048500Y-91816701D03*
X103251000Y-97155000D03*
%TO.N,+3V3*%
X90574204Y-96811500D03*
X89408000Y-125476000D03*
X76200000Y-105410000D03*
X106531000Y-104319000D03*
X74676000Y-118745000D03*
X93726000Y-116967000D03*
X85581500Y-108601386D03*
X70992059Y-114597111D03*
X105029000Y-110998000D03*
X91402051Y-100123252D03*
X91331250Y-112159250D03*
%TO.N,SDA*%
X75381000Y-109069000D03*
X102362000Y-109982000D03*
X90444044Y-124626500D03*
X83819942Y-123004567D03*
X80264000Y-111252000D03*
%TO.N,Net-(C8-Pad1)*%
X80645000Y-96012000D03*
X78867000Y-90424000D03*
%TO.N,LED RESET*%
X109601000Y-111633000D03*
%TO.N,Net-(R25-Pad1)*%
X103692257Y-111133368D03*
X108157333Y-108095500D03*
%TO.N,Net-(R26-Pad1)*%
X107061000Y-107315000D03*
X99441000Y-110871000D03*
%TO.N,Net-(R27-Pad1)*%
X106680000Y-105791000D03*
X86331000Y-98369000D03*
%TO.N,Net-(R28-Pad1)*%
X107569000Y-105283000D03*
X88646000Y-98933000D03*
%TO.N,DRDY_INT*%
X72390000Y-105410000D03*
%TO.N,SCL*%
X102487287Y-111476921D03*
X85059987Y-123220013D03*
X75315299Y-112644701D03*
X91440000Y-123825000D03*
%TO.N,Net-(D2-Pad2)*%
X95250000Y-124297497D03*
%TO.N,+1V8*%
X80455236Y-110119477D03*
X77597000Y-109093000D03*
X82231000Y-115369000D03*
%TO.N,/ADC/AIN2+*%
X75565000Y-92583000D03*
X98425000Y-117856000D03*
%TO.N,/ADC/AIN2-*%
X87080500Y-112919448D03*
X77597000Y-90678000D03*
%TO.N,GND*%
X105029000Y-119380000D03*
X87249000Y-127000000D03*
X99231000Y-89019000D03*
X102235000Y-117983000D03*
X78740000Y-125603000D03*
X84963000Y-116332000D03*
X89916000Y-89027000D03*
X107696000Y-98171000D03*
X85852000Y-92837000D03*
X108380648Y-109069736D03*
X98679000Y-102362000D03*
X99314000Y-116205000D03*
X95885000Y-89027000D03*
X104648000Y-100330000D03*
X76454000Y-123825000D03*
X101981000Y-122809000D03*
X98044000Y-111379000D03*
X98298000Y-101092000D03*
X69977000Y-99949000D03*
X84201000Y-109450886D03*
X105156000Y-99060000D03*
X95504000Y-113538000D03*
X80518000Y-103251000D03*
X95885000Y-99949000D03*
X106934000Y-115316000D03*
X85031000Y-107119000D03*
X78613000Y-102489000D03*
X106934000Y-117856000D03*
X108839000Y-99568000D03*
X99060000Y-107823000D03*
X103378000Y-98806000D03*
X97028000Y-102489000D03*
X84328000Y-88773000D03*
X100330000Y-93091000D03*
X76581000Y-119507000D03*
X97790000Y-98679000D03*
X73025000Y-94234000D03*
X100203000Y-123952000D03*
X79375000Y-104775000D03*
X79502000Y-118618000D03*
%TO.N,AS7341_INT*%
X83439000Y-106238498D03*
%TD*%
D19*
%TO.N,+2V5*%
X84963000Y-97155000D02*
X85979000Y-97155000D01*
X85979000Y-97155000D02*
X90424000Y-92710000D01*
X83185000Y-116459000D02*
X88331000Y-121605000D01*
X79126192Y-107574192D02*
X78411285Y-107574192D01*
X83185000Y-116459000D02*
X83181000Y-116455000D01*
X83181000Y-111629000D02*
X79126192Y-107574192D01*
X83181000Y-116455000D02*
X83181000Y-111629000D01*
X88331000Y-121605000D02*
X88331000Y-121769000D01*
X90424000Y-92710000D02*
X91059000Y-92710000D01*
%TO.N,+3V3*%
X89408000Y-126960000D02*
X89416000Y-126968000D01*
X89408000Y-125476000D02*
X89408000Y-126960000D01*
D20*
%TO.N,SDA*%
X90416000Y-126968000D02*
X90444044Y-126939956D01*
X90444044Y-122915956D02*
X90444044Y-124626500D01*
X90444044Y-126939956D02*
X90444044Y-124626500D01*
X101316589Y-111027411D02*
X101316589Y-112043411D01*
X102362000Y-109982000D02*
X101316589Y-111027411D01*
X101316589Y-112043411D02*
X90444044Y-122915956D01*
%TO.N,LED RESET*%
X109601000Y-111633000D02*
X109601000Y-102031439D01*
X104251278Y-96681717D02*
X104251278Y-94253633D01*
X109601000Y-102031439D02*
X104251278Y-96681717D01*
%TO.N,Net-(R25-Pad1)*%
X108157333Y-108095500D02*
X106854500Y-108095500D01*
X103816632Y-111133368D02*
X103692257Y-111133368D01*
X106854500Y-108095500D02*
X103816632Y-111133368D01*
%TO.N,Net-(R26-Pad1)*%
X102870000Y-107315000D02*
X99441000Y-110744000D01*
X107061000Y-107315000D02*
X102870000Y-107315000D01*
X99441000Y-110744000D02*
X99441000Y-110871000D01*
%TO.N,Net-(R27-Pad1)*%
X106680000Y-105791000D02*
X93753000Y-105791000D01*
X93753000Y-105791000D02*
X86331000Y-98369000D01*
%TO.N,Net-(R28-Pad1)*%
X94756501Y-105043501D02*
X88646000Y-98933000D01*
X107329501Y-105043501D02*
X94756501Y-105043501D01*
X107569000Y-105283000D02*
X107329501Y-105043501D01*
%TO.N,DRDY_INT*%
X85431000Y-95919000D02*
X81881000Y-95919000D01*
X100592846Y-90080846D02*
X91269154Y-90080846D01*
X101442846Y-90930846D02*
X100592846Y-90080846D01*
X81881000Y-95919000D02*
X72390000Y-105410000D01*
X91269154Y-90080846D02*
X85431000Y-95919000D01*
%TO.N,SCL*%
X91440000Y-123825000D02*
X91440000Y-126944000D01*
X91440000Y-122555704D02*
X91440000Y-123825000D01*
X102487287Y-111508417D02*
X91440000Y-122555704D01*
X91440000Y-126944000D02*
X91416000Y-126968000D01*
%TO.N,Net-(D2-Pad2)*%
X96348497Y-124297497D02*
X95250000Y-124297497D01*
X96511000Y-124460000D02*
X96348497Y-124297497D01*
%TO.N,+1V8*%
X80381477Y-110119477D02*
X80455236Y-110119477D01*
X82231000Y-115369000D02*
X82231000Y-111895241D01*
X77597000Y-109093000D02*
X79355000Y-109093000D01*
X79355000Y-109093000D02*
X80381477Y-110119477D01*
X82231000Y-111895241D02*
X80455236Y-110119477D01*
%TO.N,GND*%
X104293384Y-113157000D02*
X104293384Y-114336210D01*
X77975672Y-121628317D02*
X77975672Y-120144328D01*
X98561000Y-124460000D02*
X99695000Y-124460000D01*
X99695000Y-124460000D02*
X100203000Y-123952000D01*
X77975672Y-120144328D02*
X79502000Y-118618000D01*
X104293384Y-113157000D02*
X108380648Y-109069736D01*
%TO.N,AS7341_INT*%
X101055898Y-92546898D02*
X102706898Y-92546898D01*
X91135518Y-91186000D02*
X99695000Y-91186000D01*
X83439000Y-96393000D02*
X85928518Y-96393000D01*
X99695000Y-91186000D02*
X101055898Y-92546898D01*
X85928518Y-96393000D02*
X91135518Y-91186000D01*
X83439000Y-106238498D02*
X83439000Y-96393000D01*
%TD*%
%TA.AperFunction,Conductor*%
%TO.N,GND*%
G36*
X99414045Y-88150756D02*
G01*
X100033095Y-88486703D01*
X100037732Y-88489350D01*
X100624188Y-88840777D01*
X100765536Y-88925479D01*
X100813687Y-88977651D01*
X100825988Y-89047574D01*
X100798533Y-89113047D01*
X100740039Y-89153283D01*
X100694174Y-89159386D01*
X100687061Y-89159013D01*
X100668783Y-89158055D01*
X100662210Y-89157538D01*
X100644624Y-89155690D01*
X100644622Y-89155690D01*
X100641350Y-89155346D01*
X100620382Y-89155346D01*
X100613788Y-89155173D01*
X100550735Y-89151868D01*
X100550730Y-89151868D01*
X100544143Y-89151523D01*
X100529797Y-89153795D01*
X100510088Y-89155346D01*
X91351913Y-89155346D01*
X91332204Y-89153795D01*
X91317858Y-89151523D01*
X91311270Y-89151868D01*
X91311266Y-89151868D01*
X91248206Y-89155173D01*
X91241612Y-89155346D01*
X91220650Y-89155346D01*
X91217379Y-89155690D01*
X91217376Y-89155690D01*
X91199799Y-89157537D01*
X91193224Y-89158054D01*
X91130172Y-89161358D01*
X91130168Y-89161359D01*
X91123577Y-89161704D01*
X91109534Y-89165467D01*
X91090116Y-89169066D01*
X91075672Y-89170584D01*
X91009324Y-89192141D01*
X91003086Y-89193990D01*
X90935657Y-89212058D01*
X90929774Y-89215056D01*
X90929773Y-89215056D01*
X90922717Y-89218651D01*
X90904454Y-89226216D01*
X90890646Y-89230702D01*
X90884930Y-89234002D01*
X90884928Y-89234003D01*
X90830235Y-89265580D01*
X90824437Y-89268728D01*
X90792252Y-89285127D01*
X90762314Y-89300381D01*
X90757182Y-89304536D01*
X90757180Y-89304538D01*
X90751027Y-89309520D01*
X90734742Y-89320713D01*
X90722162Y-89327976D01*
X90717253Y-89332396D01*
X90717249Y-89332399D01*
X90670333Y-89374642D01*
X90665318Y-89378926D01*
X90663261Y-89380592D01*
X90649024Y-89392121D01*
X90634209Y-89406936D01*
X90629425Y-89411477D01*
X90583949Y-89452424D01*
X90577585Y-89458154D01*
X90569045Y-89469909D01*
X90556214Y-89484931D01*
X89075189Y-90965956D01*
X89012877Y-90999982D01*
X88942061Y-90994917D01*
X88900565Y-90969385D01*
X88786695Y-90864124D01*
X88786689Y-90864119D01*
X88782449Y-90860200D01*
X88595850Y-90742465D01*
X88390921Y-90660707D01*
X88385261Y-90659581D01*
X88385257Y-90659580D01*
X88180191Y-90618790D01*
X88180188Y-90618790D01*
X88174524Y-90617663D01*
X88168749Y-90617587D01*
X88168745Y-90617587D01*
X88058004Y-90616138D01*
X87953906Y-90614775D01*
X87948209Y-90615754D01*
X87948208Y-90615754D01*
X87742154Y-90651160D01*
X87742153Y-90651160D01*
X87736457Y-90652139D01*
X87529457Y-90728505D01*
X87339841Y-90841315D01*
X87173957Y-90986791D01*
X87037363Y-91160061D01*
X86934631Y-91355321D01*
X86869203Y-91566034D01*
X86843270Y-91785141D01*
X86857700Y-92005305D01*
X86859121Y-92010901D01*
X86859122Y-92010906D01*
X86894043Y-92148405D01*
X86912011Y-92219153D01*
X86914428Y-92224395D01*
X86914428Y-92224396D01*
X86941084Y-92282216D01*
X87004383Y-92419522D01*
X87131722Y-92599703D01*
X87197167Y-92663457D01*
X87232004Y-92725317D01*
X87227867Y-92796193D01*
X87198340Y-92842805D01*
X85084550Y-94956595D01*
X85022238Y-94990621D01*
X84995455Y-94993500D01*
X81963758Y-94993500D01*
X81944049Y-94991949D01*
X81929703Y-94989677D01*
X81923116Y-94990022D01*
X81923111Y-94990022D01*
X81860058Y-94993327D01*
X81853464Y-94993500D01*
X81832496Y-94993500D01*
X81829224Y-94993844D01*
X81829222Y-94993844D01*
X81811636Y-94995692D01*
X81805062Y-94996209D01*
X81742017Y-94999513D01*
X81742014Y-94999514D01*
X81735422Y-94999859D01*
X81721393Y-95003618D01*
X81701951Y-95007221D01*
X81687518Y-95008738D01*
X81621196Y-95030287D01*
X81614885Y-95032157D01*
X81547503Y-95050212D01*
X81541623Y-95053208D01*
X81534563Y-95056805D01*
X81516300Y-95064370D01*
X81502492Y-95068856D01*
X81501764Y-95069276D01*
X81433518Y-95078427D01*
X81379129Y-95055214D01*
X81378949Y-95055499D01*
X81377177Y-95054381D01*
X81192350Y-94937764D01*
X80987421Y-94856006D01*
X80981761Y-94854880D01*
X80981757Y-94854879D01*
X80776691Y-94814089D01*
X80776688Y-94814089D01*
X80771024Y-94812962D01*
X80765249Y-94812886D01*
X80765245Y-94812886D01*
X80654504Y-94811437D01*
X80550406Y-94810074D01*
X80544709Y-94811053D01*
X80544708Y-94811053D01*
X80338654Y-94846459D01*
X80338653Y-94846459D01*
X80332957Y-94847438D01*
X80125957Y-94923804D01*
X80120996Y-94926756D01*
X80120995Y-94926756D01*
X79995250Y-95001567D01*
X79936341Y-95036614D01*
X79770457Y-95182090D01*
X79633863Y-95355360D01*
X79531131Y-95550620D01*
X79465703Y-95761333D01*
X79439770Y-95980440D01*
X79454200Y-96200604D01*
X79455621Y-96206200D01*
X79455622Y-96206205D01*
X79507090Y-96408857D01*
X79508511Y-96414452D01*
X79600883Y-96614821D01*
X79604216Y-96619537D01*
X79653649Y-96689483D01*
X79676630Y-96756657D01*
X79659646Y-96825592D01*
X79639847Y-96851298D01*
X72308818Y-104182327D01*
X72241061Y-104217412D01*
X72077957Y-104245438D01*
X71870957Y-104321804D01*
X71681341Y-104434614D01*
X71515457Y-104580090D01*
X71378863Y-104753360D01*
X71276131Y-104948620D01*
X71210703Y-105159333D01*
X71184770Y-105378440D01*
X71199200Y-105598604D01*
X71200621Y-105604200D01*
X71200622Y-105604205D01*
X71228330Y-105713303D01*
X71253511Y-105812452D01*
X71255928Y-105817694D01*
X71255928Y-105817695D01*
X71294046Y-105900379D01*
X71345883Y-106012821D01*
X71473222Y-106193002D01*
X71631264Y-106346961D01*
X71636060Y-106350166D01*
X71636063Y-106350168D01*
X71720261Y-106406427D01*
X71814717Y-106469540D01*
X71820020Y-106471818D01*
X71820023Y-106471820D01*
X72004625Y-106551131D01*
X72017436Y-106556635D01*
X72081601Y-106571154D01*
X72226995Y-106604054D01*
X72227001Y-106604055D01*
X72232632Y-106605329D01*
X72238403Y-106605556D01*
X72238405Y-106605556D01*
X72306211Y-106608220D01*
X72453098Y-106613991D01*
X72578200Y-106595852D01*
X72665738Y-106583160D01*
X72665743Y-106583159D01*
X72671452Y-106582331D01*
X72676916Y-106580476D01*
X72676921Y-106580475D01*
X72874907Y-106513268D01*
X72874912Y-106513266D01*
X72880379Y-106511410D01*
X72885992Y-106508267D01*
X73020920Y-106432703D01*
X73072884Y-106403602D01*
X73107181Y-106375078D01*
X73238086Y-106266204D01*
X73242518Y-106262518D01*
X73288744Y-106206938D01*
X73379908Y-106097326D01*
X73379910Y-106097323D01*
X73383602Y-106092884D01*
X73491410Y-105900379D01*
X73493266Y-105894912D01*
X73493268Y-105894907D01*
X73560475Y-105696921D01*
X73560476Y-105696916D01*
X73562331Y-105691452D01*
X73580903Y-105563366D01*
X73610472Y-105498822D01*
X73616503Y-105492352D01*
X73730415Y-105378440D01*
X74994770Y-105378440D01*
X75009200Y-105598604D01*
X75010621Y-105604200D01*
X75010622Y-105604205D01*
X75038330Y-105713303D01*
X75063511Y-105812452D01*
X75065928Y-105817694D01*
X75065928Y-105817695D01*
X75104046Y-105900379D01*
X75155883Y-106012821D01*
X75283222Y-106193002D01*
X75441264Y-106346961D01*
X75446060Y-106350166D01*
X75446063Y-106350168D01*
X75530261Y-106406427D01*
X75624717Y-106469540D01*
X75630020Y-106471818D01*
X75630023Y-106471820D01*
X75814625Y-106551131D01*
X75827436Y-106556635D01*
X75891601Y-106571154D01*
X76036995Y-106604054D01*
X76037001Y-106604055D01*
X76042632Y-106605329D01*
X76048403Y-106605556D01*
X76048405Y-106605556D01*
X76116211Y-106608220D01*
X76263098Y-106613991D01*
X76388200Y-106595852D01*
X76475738Y-106583160D01*
X76475743Y-106583159D01*
X76481452Y-106582331D01*
X76486916Y-106580476D01*
X76486921Y-106580475D01*
X76684907Y-106513268D01*
X76684912Y-106513266D01*
X76690379Y-106511410D01*
X76695992Y-106508267D01*
X76830920Y-106432703D01*
X76882884Y-106403602D01*
X76917181Y-106375078D01*
X77048086Y-106266204D01*
X77052518Y-106262518D01*
X77098744Y-106206938D01*
X77189908Y-106097326D01*
X77189910Y-106097323D01*
X77193602Y-106092884D01*
X77301410Y-105900379D01*
X77303266Y-105894912D01*
X77303268Y-105894907D01*
X77370475Y-105696921D01*
X77370476Y-105696916D01*
X77372331Y-105691452D01*
X77373159Y-105685743D01*
X77373160Y-105685738D01*
X77403458Y-105476772D01*
X77403991Y-105473098D01*
X77405643Y-105410000D01*
X77385454Y-105190289D01*
X77325565Y-104977936D01*
X77227980Y-104780053D01*
X77095967Y-104603267D01*
X76981479Y-104497435D01*
X76938189Y-104457418D01*
X76938186Y-104457416D01*
X76933949Y-104453499D01*
X76747350Y-104335764D01*
X76542421Y-104254006D01*
X76536761Y-104252880D01*
X76536757Y-104252879D01*
X76331691Y-104212089D01*
X76331688Y-104212089D01*
X76326024Y-104210962D01*
X76320249Y-104210886D01*
X76320245Y-104210886D01*
X76209504Y-104209437D01*
X76105406Y-104208074D01*
X76099709Y-104209053D01*
X76099708Y-104209053D01*
X75893654Y-104244459D01*
X75893653Y-104244459D01*
X75887957Y-104245438D01*
X75680957Y-104321804D01*
X75491341Y-104434614D01*
X75325457Y-104580090D01*
X75188863Y-104753360D01*
X75086131Y-104948620D01*
X75020703Y-105159333D01*
X74994770Y-105378440D01*
X73730415Y-105378440D01*
X82227450Y-96881405D01*
X82289762Y-96847379D01*
X82316545Y-96844500D01*
X82387500Y-96844500D01*
X82455621Y-96864502D01*
X82502114Y-96918158D01*
X82513500Y-96970500D01*
X82513500Y-105429535D01*
X82493498Y-105497656D01*
X82486450Y-105507540D01*
X82427863Y-105581858D01*
X82325131Y-105777118D01*
X82259703Y-105987831D01*
X82233770Y-106206938D01*
X82248200Y-106427102D01*
X82249621Y-106432698D01*
X82249622Y-106432703D01*
X82295664Y-106613991D01*
X82302511Y-106640950D01*
X82304928Y-106646192D01*
X82304928Y-106646193D01*
X82343046Y-106728877D01*
X82394883Y-106841319D01*
X82522222Y-107021500D01*
X82680264Y-107175459D01*
X82685060Y-107178664D01*
X82685063Y-107178666D01*
X82769261Y-107234925D01*
X82863717Y-107298038D01*
X82869020Y-107300316D01*
X82869023Y-107300318D01*
X83061129Y-107382853D01*
X83066436Y-107385133D01*
X83129752Y-107399460D01*
X83275995Y-107432552D01*
X83276001Y-107432553D01*
X83281632Y-107433827D01*
X83287403Y-107434054D01*
X83287405Y-107434054D01*
X83355211Y-107436718D01*
X83502098Y-107442489D01*
X83611275Y-107426659D01*
X83714738Y-107411658D01*
X83714743Y-107411657D01*
X83720452Y-107410829D01*
X83725916Y-107408974D01*
X83725921Y-107408973D01*
X83923907Y-107341766D01*
X83923912Y-107341764D01*
X83929379Y-107339908D01*
X84121884Y-107232100D01*
X84291518Y-107091016D01*
X84359214Y-107009621D01*
X84428908Y-106925824D01*
X84428910Y-106925821D01*
X84432602Y-106921382D01*
X84540410Y-106728877D01*
X84542266Y-106723410D01*
X84542268Y-106723405D01*
X84609475Y-106525419D01*
X84609476Y-106525414D01*
X84611331Y-106519950D01*
X84612159Y-106514241D01*
X84612160Y-106514236D01*
X84642458Y-106305270D01*
X84642991Y-106301596D01*
X84644643Y-106238498D01*
X84624454Y-106018787D01*
X84622772Y-106012821D01*
X84566134Y-105811998D01*
X84564565Y-105806434D01*
X84466980Y-105608551D01*
X84443660Y-105577322D01*
X84389542Y-105504849D01*
X84364810Y-105438299D01*
X84364500Y-105429460D01*
X84364500Y-98395836D01*
X84384502Y-98327715D01*
X84438158Y-98281222D01*
X84508432Y-98271118D01*
X84540238Y-98280069D01*
X84585120Y-98299352D01*
X84585129Y-98299355D01*
X84590436Y-98301635D01*
X84670088Y-98319658D01*
X84799995Y-98349054D01*
X84800001Y-98349055D01*
X84805632Y-98350329D01*
X84811403Y-98350556D01*
X84811405Y-98350556D01*
X85014080Y-98358519D01*
X85081363Y-98381180D01*
X85125713Y-98436620D01*
X85134863Y-98476181D01*
X85139346Y-98544578D01*
X85140200Y-98557604D01*
X85141621Y-98563200D01*
X85141622Y-98563205D01*
X85178326Y-98707725D01*
X85194511Y-98771452D01*
X85286883Y-98971821D01*
X85414222Y-99152002D01*
X85572264Y-99305961D01*
X85577060Y-99309166D01*
X85577063Y-99309168D01*
X85625938Y-99341825D01*
X85755717Y-99428540D01*
X85761020Y-99430818D01*
X85761023Y-99430820D01*
X85953129Y-99513355D01*
X85958436Y-99515635D01*
X86173632Y-99564329D01*
X86179405Y-99564556D01*
X86181107Y-99564780D01*
X86246033Y-99593505D01*
X86253752Y-99600607D01*
X93040054Y-106386909D01*
X93052893Y-106401941D01*
X93061431Y-106413692D01*
X93066333Y-106418105D01*
X93066334Y-106418107D01*
X93113271Y-106460369D01*
X93118055Y-106464910D01*
X93132870Y-106479725D01*
X93135434Y-106481801D01*
X93149164Y-106492920D01*
X93154179Y-106497204D01*
X93201095Y-106539447D01*
X93201099Y-106539450D01*
X93206008Y-106543870D01*
X93218588Y-106551133D01*
X93234873Y-106562326D01*
X93241026Y-106567308D01*
X93246160Y-106571465D01*
X93252044Y-106574463D01*
X93308283Y-106603118D01*
X93314081Y-106606266D01*
X93368774Y-106637843D01*
X93368776Y-106637844D01*
X93374492Y-106641144D01*
X93388299Y-106645630D01*
X93406563Y-106653195D01*
X93413623Y-106656792D01*
X93419503Y-106659788D01*
X93486885Y-106677843D01*
X93493196Y-106679713D01*
X93525577Y-106690234D01*
X93546872Y-106697153D01*
X93559518Y-106701262D01*
X93573951Y-106702779D01*
X93593393Y-106706382D01*
X93607422Y-106710141D01*
X93614014Y-106710486D01*
X93614017Y-106710487D01*
X93677062Y-106713791D01*
X93683636Y-106714308D01*
X93701222Y-106716156D01*
X93701224Y-106716156D01*
X93704496Y-106716500D01*
X93725464Y-106716500D01*
X93732058Y-106716673D01*
X93795111Y-106719978D01*
X93795116Y-106719978D01*
X93801703Y-106720323D01*
X93816049Y-106718051D01*
X93835758Y-106716500D01*
X101855455Y-106716500D01*
X101923576Y-106736502D01*
X101970069Y-106790158D01*
X101980173Y-106860432D01*
X101950679Y-106925012D01*
X101944550Y-106931595D01*
X99206468Y-109669677D01*
X99138710Y-109704762D01*
X99137458Y-109704977D01*
X99128957Y-109706438D01*
X98921957Y-109782804D01*
X98916996Y-109785756D01*
X98916995Y-109785756D01*
X98765612Y-109875820D01*
X98732341Y-109895614D01*
X98566457Y-110041090D01*
X98429863Y-110214360D01*
X98327131Y-110409620D01*
X98261703Y-110620333D01*
X98235770Y-110839440D01*
X98250200Y-111059604D01*
X98251621Y-111065200D01*
X98251622Y-111065205D01*
X98291266Y-111221300D01*
X98304511Y-111273452D01*
X98306928Y-111278694D01*
X98306928Y-111278695D01*
X98382606Y-111442851D01*
X98396883Y-111473821D01*
X98524222Y-111654002D01*
X98682264Y-111807961D01*
X98687060Y-111811166D01*
X98687063Y-111811168D01*
X98824599Y-111903066D01*
X98865717Y-111930540D01*
X98871020Y-111932818D01*
X98871023Y-111932820D01*
X99061730Y-112014754D01*
X99068436Y-112017635D01*
X99124350Y-112030287D01*
X99277995Y-112065054D01*
X99278001Y-112065055D01*
X99283632Y-112066329D01*
X99289403Y-112066556D01*
X99289405Y-112066556D01*
X99357211Y-112069220D01*
X99504098Y-112074991D01*
X99638948Y-112055439D01*
X99680810Y-112049369D01*
X99751096Y-112059389D01*
X99804807Y-112105818D01*
X99824890Y-112173915D01*
X99804969Y-112242060D01*
X99787985Y-112263160D01*
X95134458Y-116916687D01*
X95072146Y-116950713D01*
X95001331Y-116945648D01*
X94944495Y-116903101D01*
X94919892Y-116839121D01*
X94911983Y-116753046D01*
X94911454Y-116747289D01*
X94851565Y-116534936D01*
X94753980Y-116337053D01*
X94730763Y-116305961D01*
X94625420Y-116164891D01*
X94625420Y-116164890D01*
X94621967Y-116160267D01*
X94483739Y-116032490D01*
X94464189Y-116014418D01*
X94464186Y-116014416D01*
X94459949Y-116010499D01*
X94273350Y-115892764D01*
X94068421Y-115811006D01*
X94062761Y-115809880D01*
X94062757Y-115809879D01*
X93857691Y-115769089D01*
X93857688Y-115769089D01*
X93852024Y-115767962D01*
X93846249Y-115767886D01*
X93846245Y-115767886D01*
X93735504Y-115766437D01*
X93631406Y-115765074D01*
X93625709Y-115766053D01*
X93625708Y-115766053D01*
X93419654Y-115801459D01*
X93419653Y-115801459D01*
X93413957Y-115802438D01*
X93206957Y-115878804D01*
X93017341Y-115991614D01*
X92851457Y-116137090D01*
X92714863Y-116310360D01*
X92612131Y-116505620D01*
X92546703Y-116716333D01*
X92520770Y-116935440D01*
X92535200Y-117155604D01*
X92536621Y-117161200D01*
X92536622Y-117161205D01*
X92558165Y-117246029D01*
X92589511Y-117369452D01*
X92681883Y-117569821D01*
X92809222Y-117750002D01*
X92967264Y-117903961D01*
X92972060Y-117907166D01*
X92972063Y-117907168D01*
X93025527Y-117942891D01*
X93150717Y-118026540D01*
X93156020Y-118028818D01*
X93156023Y-118028820D01*
X93345967Y-118110426D01*
X93353436Y-118113635D01*
X93433088Y-118131658D01*
X93562995Y-118161054D01*
X93563001Y-118161055D01*
X93568632Y-118162329D01*
X93574403Y-118162556D01*
X93574405Y-118162556D01*
X93580372Y-118162790D01*
X93588874Y-118163124D01*
X93656156Y-118185784D01*
X93700507Y-118241223D01*
X93707846Y-118311839D01*
X93673023Y-118378122D01*
X89848129Y-122203016D01*
X89833107Y-122215847D01*
X89821352Y-122224387D01*
X89816939Y-122229289D01*
X89816937Y-122229290D01*
X89774675Y-122276227D01*
X89770134Y-122281011D01*
X89755319Y-122295826D01*
X89753243Y-122298390D01*
X89742124Y-122312120D01*
X89737840Y-122317135D01*
X89695597Y-122364051D01*
X89695594Y-122364055D01*
X89691174Y-122368964D01*
X89683913Y-122381541D01*
X89672718Y-122397829D01*
X89667736Y-122403982D01*
X89663579Y-122409116D01*
X89660581Y-122415000D01*
X89631926Y-122471239D01*
X89628778Y-122477037D01*
X89597201Y-122531730D01*
X89593900Y-122537448D01*
X89589414Y-122551255D01*
X89581849Y-122569519D01*
X89575256Y-122582459D01*
X89563803Y-122625204D01*
X89557203Y-122649834D01*
X89555331Y-122656152D01*
X89533782Y-122722474D01*
X89533092Y-122729040D01*
X89532265Y-122736907D01*
X89528662Y-122756349D01*
X89524903Y-122770378D01*
X89524558Y-122776970D01*
X89524557Y-122776973D01*
X89521253Y-122840018D01*
X89520736Y-122846592D01*
X89518888Y-122864178D01*
X89518544Y-122867452D01*
X89518544Y-122888420D01*
X89518371Y-122895014D01*
X89515566Y-122948540D01*
X89514721Y-122964659D01*
X89516957Y-122978773D01*
X89516993Y-122979003D01*
X89518544Y-122998714D01*
X89518544Y-123817537D01*
X89498542Y-123885658D01*
X89491494Y-123895542D01*
X89432907Y-123969860D01*
X89330175Y-124165120D01*
X89318279Y-124203432D01*
X89278976Y-124262557D01*
X89219285Y-124290247D01*
X89095957Y-124311438D01*
X88888957Y-124387804D01*
X88883996Y-124390756D01*
X88883995Y-124390756D01*
X88759924Y-124464571D01*
X88699341Y-124500614D01*
X88533457Y-124646090D01*
X88396863Y-124819360D01*
X88294131Y-125014620D01*
X88277564Y-125067975D01*
X88230787Y-125218623D01*
X88228703Y-125225333D01*
X88202770Y-125444440D01*
X88203148Y-125450206D01*
X88211656Y-125580011D01*
X88217200Y-125664604D01*
X88217709Y-125666607D01*
X88208762Y-125735824D01*
X88163039Y-125790137D01*
X88133350Y-125803292D01*
X88133573Y-125803854D01*
X88001451Y-125856165D01*
X87986620Y-125864522D01*
X87880275Y-125945243D01*
X87868243Y-125957275D01*
X87787522Y-126063620D01*
X87779165Y-126078451D01*
X87729834Y-126203047D01*
X87725881Y-126218612D01*
X87716456Y-126296502D01*
X87716000Y-126304057D01*
X87716000Y-126749885D01*
X87720475Y-126765124D01*
X87721865Y-126766329D01*
X87729548Y-126768000D01*
X88189500Y-126768000D01*
X88257621Y-126788002D01*
X88304114Y-126841658D01*
X88315500Y-126894000D01*
X88315500Y-127042000D01*
X88295498Y-127110121D01*
X88241842Y-127156614D01*
X88189500Y-127168000D01*
X87734115Y-127168000D01*
X87718876Y-127172475D01*
X87717671Y-127173865D01*
X87716000Y-127181548D01*
X87716000Y-127631943D01*
X87716456Y-127639498D01*
X87725881Y-127717388D01*
X87729834Y-127732953D01*
X87779165Y-127857549D01*
X87787522Y-127872380D01*
X87868243Y-127978725D01*
X87880275Y-127990757D01*
X87986620Y-128071478D01*
X88001451Y-128079835D01*
X88126051Y-128129168D01*
X88141603Y-128133118D01*
X88198017Y-128139944D01*
X88212390Y-128137548D01*
X88219429Y-128112542D01*
X88257142Y-128052390D01*
X88321389Y-128022176D01*
X88391771Y-128031493D01*
X88445944Y-128077382D01*
X88452377Y-128088310D01*
X88465429Y-128113277D01*
X88465431Y-128113280D01*
X88468385Y-128118930D01*
X88472414Y-128123870D01*
X88472416Y-128123873D01*
X88539340Y-128205930D01*
X88590429Y-128268571D01*
X88740070Y-128390615D01*
X88911194Y-128480077D01*
X88917322Y-128481834D01*
X88917324Y-128481835D01*
X88950731Y-128491414D01*
X89096813Y-128533302D01*
X89129096Y-128536183D01*
X89208283Y-128543251D01*
X89208289Y-128543251D01*
X89211076Y-128543500D01*
X89620924Y-128543500D01*
X89623711Y-128543251D01*
X89623717Y-128543251D01*
X89702904Y-128536183D01*
X89735187Y-128533302D01*
X89789975Y-128517592D01*
X89881270Y-128491414D01*
X89950730Y-128491414D01*
X90042025Y-128517592D01*
X90096813Y-128533302D01*
X90129096Y-128536183D01*
X90208283Y-128543251D01*
X90208289Y-128543251D01*
X90211076Y-128543500D01*
X90620924Y-128543500D01*
X90623711Y-128543251D01*
X90623717Y-128543251D01*
X90702904Y-128536183D01*
X90735187Y-128533302D01*
X90789975Y-128517592D01*
X90881270Y-128491414D01*
X90950730Y-128491414D01*
X91042025Y-128517592D01*
X91096813Y-128533302D01*
X91129096Y-128536183D01*
X91208283Y-128543251D01*
X91208289Y-128543251D01*
X91211076Y-128543500D01*
X91620924Y-128543500D01*
X91623711Y-128543251D01*
X91623717Y-128543251D01*
X91702904Y-128536183D01*
X91735187Y-128533302D01*
X91881269Y-128491414D01*
X91914676Y-128481835D01*
X91914678Y-128481834D01*
X91920806Y-128480077D01*
X92091930Y-128390615D01*
X92241571Y-128268571D01*
X92292660Y-128205930D01*
X92359584Y-128123873D01*
X92359586Y-128123870D01*
X92363615Y-128118930D01*
X92366571Y-128113277D01*
X92414197Y-128022176D01*
X92453077Y-127947806D01*
X92506302Y-127762187D01*
X92516500Y-127647924D01*
X92516500Y-126288076D01*
X92514427Y-126264843D01*
X92506835Y-126179786D01*
X92506302Y-126173813D01*
X92453077Y-125988194D01*
X92444636Y-125972047D01*
X92379839Y-125848104D01*
X92365500Y-125789728D01*
X92365500Y-124919500D01*
X92385502Y-124851379D01*
X92439158Y-124804886D01*
X92491500Y-124793500D01*
X93156406Y-124793499D01*
X93166336Y-124793499D01*
X93167892Y-124793420D01*
X93167909Y-124793420D01*
X93168003Y-124793415D01*
X93168005Y-124793415D01*
X93172673Y-124793179D01*
X93374623Y-124752459D01*
X93564817Y-124673289D01*
X93736011Y-124558684D01*
X93851768Y-124442927D01*
X93914080Y-124408901D01*
X93984895Y-124413966D01*
X94041731Y-124456513D01*
X94062985Y-124501006D01*
X94076527Y-124554325D01*
X94112089Y-124694352D01*
X94112091Y-124694357D01*
X94113511Y-124699949D01*
X94115928Y-124705191D01*
X94115928Y-124705192D01*
X94119814Y-124713621D01*
X94205883Y-124900318D01*
X94333222Y-125080499D01*
X94491264Y-125234458D01*
X94496060Y-125237663D01*
X94496063Y-125237665D01*
X94584646Y-125296854D01*
X94674717Y-125357037D01*
X94680020Y-125359315D01*
X94680023Y-125359317D01*
X94863638Y-125438204D01*
X94877436Y-125444132D01*
X94957088Y-125462155D01*
X95086995Y-125491551D01*
X95087001Y-125491552D01*
X95092632Y-125492826D01*
X95098403Y-125493053D01*
X95098405Y-125493053D01*
X95253794Y-125499158D01*
X95321077Y-125521819D01*
X95353550Y-125554966D01*
X95370316Y-125580011D01*
X95515989Y-125725684D01*
X95687183Y-125840289D01*
X95877377Y-125919459D01*
X96041776Y-125952607D01*
X96064925Y-125957275D01*
X96079327Y-125960179D01*
X96083993Y-125960415D01*
X96083998Y-125960416D01*
X96084075Y-125960420D01*
X96084093Y-125960420D01*
X96085663Y-125960500D01*
X96087260Y-125960500D01*
X96513006Y-125960499D01*
X96936336Y-125960499D01*
X96937892Y-125960420D01*
X96937909Y-125960420D01*
X96938003Y-125960415D01*
X96938005Y-125960415D01*
X96942673Y-125960179D01*
X96957076Y-125957275D01*
X96980224Y-125952607D01*
X97144623Y-125919459D01*
X97334817Y-125840289D01*
X97506011Y-125725684D01*
X97651684Y-125580011D01*
X97693244Y-125517930D01*
X97710288Y-125492470D01*
X97764805Y-125446990D01*
X97835256Y-125438204D01*
X97879131Y-125454110D01*
X97968983Y-125507248D01*
X97983415Y-125513494D01*
X98127332Y-125555305D01*
X98139919Y-125557604D01*
X98167901Y-125559807D01*
X98172827Y-125560000D01*
X98342885Y-125560000D01*
X98358124Y-125555525D01*
X98359329Y-125554135D01*
X98361000Y-125546452D01*
X98361000Y-125541885D01*
X98761000Y-125541885D01*
X98765475Y-125557124D01*
X98766865Y-125558329D01*
X98774548Y-125560000D01*
X98949173Y-125560000D01*
X98954099Y-125559807D01*
X98982081Y-125557604D01*
X98994668Y-125555305D01*
X99138585Y-125513494D01*
X99153024Y-125507245D01*
X99280729Y-125431721D01*
X99293165Y-125422074D01*
X99398074Y-125317165D01*
X99407721Y-125304729D01*
X99483245Y-125177024D01*
X99489494Y-125162585D01*
X99531305Y-125018668D01*
X99533604Y-125006081D01*
X99535807Y-124978099D01*
X99536000Y-124973173D01*
X99536000Y-124678115D01*
X99531525Y-124662876D01*
X99530135Y-124661671D01*
X99522452Y-124660000D01*
X98779115Y-124660000D01*
X98763876Y-124664475D01*
X98762671Y-124665865D01*
X98761000Y-124673548D01*
X98761000Y-125541885D01*
X98361000Y-125541885D01*
X98361000Y-124241885D01*
X98761000Y-124241885D01*
X98765475Y-124257124D01*
X98766865Y-124258329D01*
X98774548Y-124260000D01*
X99517885Y-124260000D01*
X99533124Y-124255525D01*
X99534329Y-124254135D01*
X99536000Y-124246452D01*
X99536000Y-123946828D01*
X99535807Y-123941901D01*
X99533604Y-123913919D01*
X99531305Y-123901332D01*
X99489494Y-123757415D01*
X99483245Y-123742976D01*
X99407721Y-123615271D01*
X99398074Y-123602835D01*
X99293165Y-123497926D01*
X99280729Y-123488279D01*
X99153024Y-123412755D01*
X99138585Y-123406506D01*
X98994668Y-123364695D01*
X98982081Y-123362396D01*
X98954099Y-123360193D01*
X98949172Y-123360000D01*
X98779115Y-123360000D01*
X98763876Y-123364475D01*
X98762671Y-123365865D01*
X98761000Y-123373548D01*
X98761000Y-124241885D01*
X98361000Y-124241885D01*
X98361000Y-123378115D01*
X98356525Y-123362876D01*
X98355135Y-123361671D01*
X98347452Y-123360000D01*
X98172828Y-123360000D01*
X98167901Y-123360193D01*
X98139919Y-123362396D01*
X98127332Y-123364695D01*
X97983415Y-123406506D01*
X97968983Y-123412752D01*
X97879131Y-123465890D01*
X97810315Y-123483349D01*
X97742984Y-123460832D01*
X97710288Y-123427530D01*
X97669287Y-123366284D01*
X97651684Y-123339989D01*
X97506011Y-123194316D01*
X97334817Y-123079711D01*
X97144623Y-123000541D01*
X96942673Y-122959821D01*
X96938007Y-122959585D01*
X96938002Y-122959584D01*
X96937925Y-122959580D01*
X96937907Y-122959580D01*
X96936337Y-122959500D01*
X96934740Y-122959500D01*
X96508994Y-122959501D01*
X96085664Y-122959501D01*
X96084108Y-122959580D01*
X96084091Y-122959580D01*
X96083997Y-122959585D01*
X96083995Y-122959585D01*
X96079327Y-122959821D01*
X95877377Y-123000541D01*
X95687183Y-123079711D01*
X95682069Y-123083135D01*
X95682057Y-123083141D01*
X95637740Y-123112810D01*
X95570006Y-123134085D01*
X95543070Y-123131687D01*
X95376024Y-123098459D01*
X95370249Y-123098383D01*
X95370245Y-123098383D01*
X95259504Y-123096934D01*
X95155406Y-123095571D01*
X95149709Y-123096550D01*
X95149708Y-123096550D01*
X94943654Y-123131956D01*
X94943653Y-123131956D01*
X94937957Y-123132935D01*
X94730957Y-123209301D01*
X94725996Y-123212253D01*
X94725995Y-123212253D01*
X94695495Y-123230399D01*
X94541341Y-123322111D01*
X94375457Y-123467587D01*
X94359145Y-123488279D01*
X94341450Y-123510725D01*
X94283569Y-123551839D01*
X94212649Y-123555133D01*
X94151206Y-123519562D01*
X94118749Y-123456419D01*
X94116500Y-123432720D01*
X94116499Y-122344246D01*
X94116499Y-122342664D01*
X94116179Y-122336327D01*
X94075459Y-122134377D01*
X93996289Y-121944183D01*
X93881684Y-121772989D01*
X93795722Y-121687027D01*
X93761696Y-121624715D01*
X93766761Y-121553900D01*
X93795722Y-121508837D01*
X97084326Y-118220233D01*
X97146638Y-118186207D01*
X97217453Y-118191272D01*
X97274289Y-118233819D01*
X97287680Y-118258835D01*
X97288511Y-118258452D01*
X97380883Y-118458821D01*
X97508222Y-118639002D01*
X97666264Y-118792961D01*
X97671060Y-118796166D01*
X97671063Y-118796168D01*
X97755261Y-118852427D01*
X97849717Y-118915540D01*
X97855020Y-118917818D01*
X97855023Y-118917820D01*
X98047129Y-119000355D01*
X98052436Y-119002635D01*
X98106308Y-119014825D01*
X98261995Y-119050054D01*
X98262001Y-119050055D01*
X98267632Y-119051329D01*
X98273403Y-119051556D01*
X98273405Y-119051556D01*
X98341211Y-119054220D01*
X98488098Y-119059991D01*
X98597275Y-119044161D01*
X98700738Y-119029160D01*
X98700743Y-119029159D01*
X98706452Y-119028331D01*
X98711916Y-119026476D01*
X98711921Y-119026475D01*
X98909907Y-118959268D01*
X98909912Y-118959266D01*
X98915379Y-118957410D01*
X98947887Y-118939205D01*
X98995875Y-118912330D01*
X99107884Y-118849602D01*
X99153370Y-118811772D01*
X99273086Y-118712204D01*
X99277518Y-118708518D01*
X99418602Y-118538884D01*
X99526410Y-118346379D01*
X99528266Y-118340912D01*
X99528268Y-118340907D01*
X99595475Y-118142921D01*
X99595476Y-118142916D01*
X99597331Y-118137452D01*
X99598159Y-118131743D01*
X99598160Y-118131738D01*
X99625541Y-117942891D01*
X99628991Y-117919098D01*
X99630643Y-117856000D01*
X99610454Y-117636289D01*
X99604578Y-117615452D01*
X99552134Y-117429500D01*
X99550565Y-117423936D01*
X99452980Y-117226053D01*
X99404556Y-117161205D01*
X99324420Y-117053891D01*
X99324420Y-117053890D01*
X99320967Y-117049267D01*
X99158949Y-116899499D01*
X98972350Y-116781764D01*
X98963740Y-116778329D01*
X98828654Y-116724435D01*
X98772794Y-116680614D01*
X98749494Y-116613550D01*
X98766150Y-116544535D01*
X98786249Y-116518310D01*
X102606476Y-112698083D01*
X102668788Y-112664057D01*
X102677481Y-112662484D01*
X102768739Y-112649252D01*
X102774203Y-112647397D01*
X102774208Y-112647396D01*
X102972194Y-112580189D01*
X102972199Y-112580187D01*
X102977666Y-112578331D01*
X102986886Y-112573168D01*
X103130128Y-112492948D01*
X103170171Y-112470523D01*
X103185147Y-112458068D01*
X103314379Y-112350586D01*
X103334458Y-112333886D01*
X103399622Y-112305705D01*
X103442833Y-112307867D01*
X103534889Y-112328697D01*
X103540660Y-112328924D01*
X103540662Y-112328924D01*
X103608468Y-112331588D01*
X103755355Y-112337359D01*
X103864532Y-112321529D01*
X103967995Y-112306528D01*
X103968000Y-112306527D01*
X103973709Y-112305699D01*
X103979173Y-112303844D01*
X103979178Y-112303843D01*
X104177164Y-112236636D01*
X104177169Y-112236634D01*
X104182636Y-112234778D01*
X104190140Y-112230576D01*
X104291315Y-112173915D01*
X104375141Y-112126970D01*
X104397586Y-112108302D01*
X104462752Y-112080122D01*
X104527894Y-112089409D01*
X104621895Y-112129795D01*
X104656436Y-112144635D01*
X104721025Y-112159250D01*
X104865995Y-112192054D01*
X104866001Y-112192055D01*
X104871632Y-112193329D01*
X104877403Y-112193556D01*
X104877405Y-112193556D01*
X104945211Y-112196220D01*
X105092098Y-112201991D01*
X105201275Y-112186161D01*
X105304738Y-112171160D01*
X105304743Y-112171159D01*
X105310452Y-112170331D01*
X105315916Y-112168476D01*
X105315921Y-112168475D01*
X105513907Y-112101268D01*
X105513912Y-112101266D01*
X105519379Y-112099410D01*
X105528897Y-112094080D01*
X105643575Y-112029857D01*
X105711884Y-111991602D01*
X105721596Y-111983525D01*
X105877086Y-111854204D01*
X105881518Y-111850518D01*
X105984093Y-111727186D01*
X106018908Y-111685326D01*
X106018910Y-111685323D01*
X106022602Y-111680884D01*
X106106376Y-111531295D01*
X106127586Y-111493422D01*
X106127587Y-111493420D01*
X106130410Y-111488379D01*
X106132266Y-111482912D01*
X106132268Y-111482907D01*
X106199475Y-111284921D01*
X106199476Y-111284916D01*
X106201331Y-111279452D01*
X106202159Y-111273743D01*
X106202160Y-111273738D01*
X106221549Y-111140011D01*
X106232991Y-111061098D01*
X106234643Y-110998000D01*
X106214454Y-110778289D01*
X106154565Y-110565936D01*
X106056980Y-110368053D01*
X106051188Y-110360296D01*
X106050541Y-110358558D01*
X106050505Y-110358498D01*
X106050517Y-110358491D01*
X106026453Y-110293748D01*
X106041623Y-110224391D01*
X106063047Y-110195808D01*
X107200950Y-109057905D01*
X107263262Y-109023879D01*
X107290045Y-109021000D01*
X107343223Y-109021000D01*
X107413225Y-109042235D01*
X107582050Y-109155040D01*
X107587353Y-109157318D01*
X107587356Y-109157320D01*
X107639892Y-109179891D01*
X107784769Y-109242135D01*
X107827646Y-109251837D01*
X107994328Y-109289554D01*
X107994334Y-109289555D01*
X107999965Y-109290829D01*
X108005736Y-109291056D01*
X108005738Y-109291056D01*
X108073544Y-109293720D01*
X108220431Y-109299491D01*
X108329608Y-109283661D01*
X108433071Y-109268660D01*
X108433076Y-109268659D01*
X108438785Y-109267831D01*
X108444249Y-109265976D01*
X108444254Y-109265975D01*
X108508999Y-109243997D01*
X108579934Y-109241041D01*
X108641207Y-109276905D01*
X108673363Y-109340202D01*
X108675500Y-109363310D01*
X108675500Y-110824037D01*
X108655498Y-110892158D01*
X108648450Y-110902042D01*
X108589863Y-110976360D01*
X108487131Y-111171620D01*
X108421703Y-111382333D01*
X108395770Y-111601440D01*
X108410200Y-111821604D01*
X108411621Y-111827200D01*
X108411622Y-111827205D01*
X108441614Y-111945296D01*
X108464511Y-112035452D01*
X108466928Y-112040694D01*
X108466928Y-112040695D01*
X108498325Y-112108799D01*
X108556883Y-112235821D01*
X108684222Y-112416002D01*
X108842264Y-112569961D01*
X108847060Y-112573166D01*
X108847063Y-112573168D01*
X108958154Y-112647396D01*
X109025717Y-112692540D01*
X109031020Y-112694818D01*
X109031023Y-112694820D01*
X109198531Y-112766787D01*
X109228436Y-112779635D01*
X109308088Y-112797658D01*
X109437995Y-112827054D01*
X109438001Y-112827055D01*
X109443632Y-112828329D01*
X109449403Y-112828556D01*
X109449405Y-112828556D01*
X109517211Y-112831220D01*
X109664098Y-112836991D01*
X109788283Y-112818985D01*
X109876738Y-112806160D01*
X109876743Y-112806159D01*
X109882452Y-112805331D01*
X109887916Y-112803476D01*
X109887921Y-112803475D01*
X110091379Y-112734410D01*
X110092179Y-112736765D01*
X110151984Y-112728763D01*
X110216273Y-112758887D01*
X110254071Y-112818985D01*
X110254959Y-112884301D01*
X110198159Y-113108052D01*
X110195416Y-113118857D01*
X110193988Y-113124018D01*
X110082110Y-113497219D01*
X109929781Y-114005352D01*
X109928129Y-114010465D01*
X109626586Y-114879727D01*
X109624717Y-114884765D01*
X109498227Y-115204648D01*
X109304053Y-115695697D01*
X109286390Y-115740364D01*
X109284312Y-115745309D01*
X108934744Y-116529753D01*
X108909796Y-116585738D01*
X108907506Y-116590594D01*
X108813413Y-116779624D01*
X108497524Y-117414234D01*
X108495028Y-117418993D01*
X108071392Y-118186207D01*
X108050271Y-118224457D01*
X108047578Y-118229097D01*
X107568904Y-119014825D01*
X107566015Y-119019348D01*
X107054239Y-119784007D01*
X107051177Y-119788376D01*
X106507295Y-120530475D01*
X106504038Y-120534727D01*
X105928986Y-121252987D01*
X105925541Y-121257107D01*
X105406395Y-121851689D01*
X105320408Y-121950170D01*
X105316792Y-121954137D01*
X104686161Y-122617086D01*
X104682642Y-122620785D01*
X104678867Y-122624587D01*
X104319806Y-122971175D01*
X104016885Y-123263573D01*
X104012940Y-123267222D01*
X103663549Y-123576812D01*
X103355610Y-123849673D01*
X103324309Y-123877408D01*
X103320216Y-123880882D01*
X102651901Y-124424004D01*
X102606188Y-124461154D01*
X102601949Y-124464451D01*
X101863847Y-125013737D01*
X101859493Y-125016835D01*
X101534704Y-125237665D01*
X101098613Y-125534170D01*
X101094106Y-125537096D01*
X100789574Y-125725684D01*
X100365672Y-125988194D01*
X100311876Y-126021508D01*
X100307253Y-126024236D01*
X100210741Y-126078451D01*
X99505078Y-126474853D01*
X99500338Y-126477384D01*
X98927038Y-126768000D01*
X98712901Y-126876550D01*
X98679692Y-126893384D01*
X98674848Y-126895711D01*
X97837205Y-127276342D01*
X97832267Y-127278460D01*
X96979157Y-127623030D01*
X96974132Y-127624936D01*
X96107110Y-127932815D01*
X96102009Y-127934505D01*
X95786867Y-128031493D01*
X95270620Y-128190373D01*
X95222647Y-128205137D01*
X95217482Y-128206607D01*
X94327340Y-128439508D01*
X94322156Y-128440747D01*
X93908508Y-128530322D01*
X93422912Y-128635477D01*
X93417637Y-128636502D01*
X92858119Y-128732896D01*
X92510907Y-128792714D01*
X92505625Y-128793509D01*
X91593057Y-128910916D01*
X91587738Y-128911486D01*
X90952698Y-128965788D01*
X90670988Y-128989877D01*
X90665626Y-128990220D01*
X89746417Y-129029450D01*
X89741044Y-129029565D01*
X88820956Y-129029565D01*
X88815583Y-129029450D01*
X87896374Y-128990220D01*
X87891012Y-128989877D01*
X87609302Y-128965788D01*
X86974262Y-128911486D01*
X86968943Y-128910916D01*
X86056375Y-128793509D01*
X86051093Y-128792714D01*
X85703881Y-128732896D01*
X85144363Y-128636502D01*
X85139088Y-128635477D01*
X84486575Y-128494176D01*
X84424231Y-128460209D01*
X84390147Y-128397929D01*
X84395145Y-128327109D01*
X84431412Y-128275219D01*
X84530754Y-128190373D01*
X84530759Y-128190368D01*
X84534515Y-128187160D01*
X84703238Y-127989611D01*
X84838980Y-127768099D01*
X84856633Y-127725483D01*
X84936505Y-127532654D01*
X84936506Y-127532652D01*
X84938399Y-127528081D01*
X84967719Y-127405956D01*
X84997892Y-127280278D01*
X84997893Y-127280272D01*
X84999047Y-127275465D01*
X85019430Y-127016471D01*
X84999047Y-126757477D01*
X84997893Y-126752670D01*
X84997892Y-126752664D01*
X84939554Y-126509673D01*
X84938399Y-126504861D01*
X84889725Y-126387352D01*
X84840875Y-126269417D01*
X84840873Y-126269413D01*
X84838980Y-126264843D01*
X84703238Y-126043331D01*
X84557145Y-125872278D01*
X84537723Y-125849538D01*
X84534515Y-125845782D01*
X84336966Y-125677059D01*
X84115454Y-125541317D01*
X84110884Y-125539424D01*
X84110880Y-125539422D01*
X83880009Y-125443792D01*
X83880007Y-125443791D01*
X83875436Y-125441898D01*
X83787102Y-125420691D01*
X83627633Y-125382405D01*
X83627627Y-125382404D01*
X83622820Y-125381250D01*
X83363826Y-125360867D01*
X83358896Y-125361255D01*
X83358888Y-125361255D01*
X83358456Y-125361289D01*
X83358294Y-125361255D01*
X83353940Y-125361255D01*
X83353940Y-125360340D01*
X83288976Y-125346695D01*
X83238415Y-125296854D01*
X83223938Y-125230305D01*
X83222990Y-125230305D01*
X83222990Y-125225945D01*
X83222956Y-125225789D01*
X83222990Y-125225357D01*
X83222990Y-125225349D01*
X83223378Y-125220419D01*
X83202995Y-124961425D01*
X83201841Y-124956618D01*
X83201840Y-124956612D01*
X83155544Y-124763780D01*
X83142347Y-124708809D01*
X83128615Y-124675656D01*
X83044823Y-124473365D01*
X83044821Y-124473361D01*
X83042928Y-124468791D01*
X82907186Y-124247279D01*
X82738463Y-124049730D01*
X82540914Y-123881007D01*
X82319402Y-123745265D01*
X82314832Y-123743372D01*
X82314828Y-123743370D01*
X82083957Y-123647740D01*
X82083955Y-123647739D01*
X82079384Y-123645846D01*
X81952031Y-123615271D01*
X81831581Y-123586353D01*
X81831575Y-123586352D01*
X81826768Y-123585198D01*
X81567774Y-123564815D01*
X81562844Y-123565203D01*
X81562837Y-123565203D01*
X81562405Y-123565237D01*
X81562243Y-123565203D01*
X81557889Y-123565203D01*
X81557889Y-123564288D01*
X81492925Y-123550643D01*
X81442364Y-123500802D01*
X81427887Y-123434253D01*
X81426939Y-123434253D01*
X81426939Y-123429893D01*
X81426905Y-123429737D01*
X81426939Y-123429305D01*
X81426939Y-123429298D01*
X81427327Y-123424368D01*
X81406944Y-123165374D01*
X81405790Y-123160567D01*
X81405789Y-123160561D01*
X81362145Y-122978773D01*
X81346296Y-122912758D01*
X81336215Y-122888420D01*
X81248772Y-122677314D01*
X81248770Y-122677310D01*
X81246877Y-122672740D01*
X81111135Y-122451228D01*
X80942412Y-122253679D01*
X80744863Y-122084956D01*
X80523351Y-121949214D01*
X80518781Y-121947321D01*
X80518777Y-121947319D01*
X80287906Y-121851689D01*
X80287904Y-121851688D01*
X80283333Y-121849795D01*
X80160066Y-121820201D01*
X80035530Y-121790302D01*
X80035524Y-121790301D01*
X80030717Y-121789147D01*
X79771723Y-121768764D01*
X79766793Y-121769152D01*
X79766792Y-121769152D01*
X79713639Y-121773335D01*
X79644159Y-121758739D01*
X79593600Y-121708896D01*
X79577754Y-121647723D01*
X79577754Y-121574882D01*
X79574689Y-121555530D01*
X79541664Y-121453891D01*
X79532769Y-121436433D01*
X79485769Y-121371743D01*
X79479352Y-121364230D01*
X79013789Y-120898667D01*
X78999845Y-120891053D01*
X78998012Y-120891184D01*
X78991397Y-120895435D01*
X77246023Y-122640809D01*
X77238409Y-122654753D01*
X77238540Y-122656586D01*
X77242791Y-122663201D01*
X77711582Y-123131992D01*
X77719099Y-123138413D01*
X77783789Y-123185414D01*
X77801246Y-123194309D01*
X77902885Y-123227334D01*
X77922237Y-123230399D01*
X77995078Y-123230399D01*
X78063199Y-123250401D01*
X78109692Y-123304057D01*
X78120690Y-123366284D01*
X78119759Y-123378115D01*
X78116119Y-123424368D01*
X78136502Y-123683362D01*
X78137656Y-123688169D01*
X78137657Y-123688175D01*
X78160388Y-123782854D01*
X78197150Y-123935978D01*
X78199043Y-123940549D01*
X78199044Y-123940551D01*
X78288690Y-124156974D01*
X78296569Y-124175996D01*
X78432311Y-124397508D01*
X78601034Y-124595057D01*
X78798583Y-124763780D01*
X79020095Y-124899522D01*
X79024665Y-124901415D01*
X79024669Y-124901417D01*
X79209796Y-124978099D01*
X79260113Y-124998941D01*
X79328424Y-125015341D01*
X79507916Y-125058434D01*
X79507922Y-125058435D01*
X79512729Y-125059589D01*
X79771723Y-125079972D01*
X79776653Y-125079584D01*
X79776660Y-125079584D01*
X79777092Y-125079550D01*
X79777254Y-125079584D01*
X79781608Y-125079584D01*
X79781608Y-125080499D01*
X79846572Y-125094144D01*
X79897133Y-125143985D01*
X79911610Y-125210534D01*
X79912558Y-125210534D01*
X79912558Y-125214894D01*
X79912592Y-125215050D01*
X79912558Y-125215482D01*
X79912558Y-125215489D01*
X79912170Y-125220419D01*
X79932553Y-125479413D01*
X79933707Y-125484220D01*
X79933708Y-125484226D01*
X79957751Y-125584370D01*
X79993201Y-125732029D01*
X79995094Y-125736600D01*
X79995095Y-125736602D01*
X80087837Y-125960499D01*
X80092620Y-125972047D01*
X80228362Y-126193559D01*
X80397085Y-126391108D01*
X80594634Y-126559831D01*
X80816146Y-126695573D01*
X80820716Y-126697466D01*
X80820720Y-126697468D01*
X81051591Y-126793098D01*
X81056164Y-126794992D01*
X81144498Y-126816199D01*
X81303967Y-126854485D01*
X81303973Y-126854486D01*
X81308780Y-126855640D01*
X81567774Y-126876023D01*
X81572704Y-126875635D01*
X81572712Y-126875635D01*
X81573144Y-126875601D01*
X81573306Y-126875635D01*
X81577660Y-126875635D01*
X81577660Y-126876550D01*
X81642624Y-126890195D01*
X81693185Y-126940036D01*
X81707662Y-127006585D01*
X81708610Y-127006585D01*
X81708610Y-127010945D01*
X81708644Y-127011101D01*
X81708610Y-127011533D01*
X81708610Y-127011541D01*
X81708222Y-127016471D01*
X81728605Y-127275465D01*
X81729759Y-127280272D01*
X81729760Y-127280278D01*
X81779211Y-127486254D01*
X81775664Y-127557162D01*
X81734344Y-127614896D01*
X81668371Y-127641126D01*
X81614528Y-127634403D01*
X81601989Y-127629951D01*
X81587865Y-127624935D01*
X81582843Y-127623030D01*
X80729733Y-127278460D01*
X80724795Y-127276342D01*
X79887152Y-126895711D01*
X79882308Y-126893384D01*
X79849100Y-126876550D01*
X79634962Y-126768000D01*
X79061662Y-126477384D01*
X79056922Y-126474853D01*
X78351259Y-126078451D01*
X78254747Y-126024236D01*
X78250124Y-126021508D01*
X78196329Y-125988194D01*
X77772426Y-125725684D01*
X77467894Y-125537096D01*
X77463387Y-125534170D01*
X77027296Y-125237665D01*
X76702507Y-125016835D01*
X76698153Y-125013737D01*
X75960051Y-124464451D01*
X75955812Y-124461154D01*
X75910099Y-124424004D01*
X75241784Y-123880882D01*
X75237691Y-123877408D01*
X75206391Y-123849673D01*
X74898451Y-123576812D01*
X74549060Y-123267222D01*
X74545115Y-123263573D01*
X74242194Y-122971175D01*
X73883133Y-122624587D01*
X73879358Y-122620785D01*
X73875840Y-122617086D01*
X73245208Y-121954137D01*
X73241592Y-121950170D01*
X73155606Y-121851689D01*
X73007229Y-121681752D01*
X76373590Y-121681752D01*
X76376655Y-121701104D01*
X76409680Y-121802743D01*
X76418575Y-121820201D01*
X76465575Y-121884891D01*
X76471992Y-121892404D01*
X76937555Y-122357967D01*
X76951499Y-122365581D01*
X76953332Y-122365450D01*
X76959947Y-122361199D01*
X77680017Y-121641129D01*
X77687631Y-121627185D01*
X77687500Y-121625352D01*
X77683249Y-121618737D01*
X76963180Y-120898668D01*
X76949236Y-120891054D01*
X76947403Y-120891185D01*
X76940788Y-120895436D01*
X76471997Y-121364227D01*
X76465576Y-121371744D01*
X76418575Y-121436434D01*
X76409680Y-121453891D01*
X76376655Y-121555530D01*
X76373590Y-121574882D01*
X76373590Y-121681752D01*
X73007229Y-121681752D01*
X72636459Y-121257107D01*
X72633014Y-121252987D01*
X72113539Y-120604144D01*
X77238408Y-120604144D01*
X77238539Y-120605977D01*
X77242790Y-120612592D01*
X77962860Y-121332662D01*
X77976804Y-121340276D01*
X77978637Y-121340145D01*
X77985252Y-121335894D01*
X78705321Y-120615825D01*
X78712935Y-120601881D01*
X78712804Y-120600048D01*
X78708553Y-120593433D01*
X78239762Y-120124642D01*
X78232245Y-120118221D01*
X78167555Y-120071220D01*
X78150098Y-120062325D01*
X78048459Y-120029300D01*
X78029107Y-120026235D01*
X77922237Y-120026235D01*
X77902885Y-120029300D01*
X77801246Y-120062325D01*
X77783788Y-120071220D01*
X77719098Y-120118220D01*
X77711585Y-120124637D01*
X77246022Y-120590200D01*
X77238408Y-120604144D01*
X72113539Y-120604144D01*
X72057962Y-120534727D01*
X72054705Y-120530475D01*
X71510823Y-119788376D01*
X71507761Y-119784007D01*
X70995985Y-119019348D01*
X70993096Y-119014825D01*
X70809489Y-118713440D01*
X73470770Y-118713440D01*
X73485200Y-118933604D01*
X73486621Y-118939200D01*
X73486622Y-118939205D01*
X73538090Y-119141857D01*
X73539511Y-119147452D01*
X73541928Y-119152694D01*
X73541928Y-119152695D01*
X73580046Y-119235379D01*
X73631883Y-119347821D01*
X73759222Y-119528002D01*
X73917264Y-119681961D01*
X73922060Y-119685166D01*
X73922063Y-119685168D01*
X74006261Y-119741427D01*
X74100717Y-119804540D01*
X74106020Y-119806818D01*
X74106023Y-119806820D01*
X74298129Y-119889355D01*
X74303436Y-119891635D01*
X74383088Y-119909658D01*
X74512995Y-119939054D01*
X74513001Y-119939055D01*
X74518632Y-119940329D01*
X74524403Y-119940556D01*
X74524405Y-119940556D01*
X74592211Y-119943220D01*
X74739098Y-119948991D01*
X74848275Y-119933161D01*
X74951738Y-119918160D01*
X74951743Y-119918159D01*
X74957452Y-119917331D01*
X74962916Y-119915476D01*
X74962921Y-119915475D01*
X75160907Y-119848268D01*
X75160912Y-119848266D01*
X75166379Y-119846410D01*
X75358884Y-119738602D01*
X75528518Y-119597518D01*
X75669602Y-119427884D01*
X75777410Y-119235379D01*
X75779266Y-119229912D01*
X75779268Y-119229907D01*
X75846475Y-119031921D01*
X75846476Y-119031916D01*
X75848331Y-119026452D01*
X75849159Y-119020743D01*
X75849160Y-119020738D01*
X75868346Y-118888413D01*
X75879991Y-118808098D01*
X75881643Y-118745000D01*
X75861454Y-118525289D01*
X75801565Y-118312936D01*
X75703980Y-118115053D01*
X75639587Y-118028820D01*
X75575420Y-117942891D01*
X75575420Y-117942890D01*
X75571967Y-117938267D01*
X75409949Y-117788499D01*
X75223350Y-117670764D01*
X75018421Y-117589006D01*
X75012761Y-117587880D01*
X75012757Y-117587879D01*
X74807691Y-117547089D01*
X74807688Y-117547089D01*
X74802024Y-117545962D01*
X74796249Y-117545886D01*
X74796245Y-117545886D01*
X74685504Y-117544437D01*
X74581406Y-117543074D01*
X74575709Y-117544053D01*
X74575708Y-117544053D01*
X74369654Y-117579459D01*
X74369653Y-117579459D01*
X74363957Y-117580438D01*
X74156957Y-117656804D01*
X73967341Y-117769614D01*
X73801457Y-117915090D01*
X73664863Y-118088360D01*
X73562131Y-118283620D01*
X73496703Y-118494333D01*
X73470770Y-118713440D01*
X70809489Y-118713440D01*
X70514422Y-118229097D01*
X70511729Y-118224457D01*
X70490609Y-118186207D01*
X70066972Y-117418993D01*
X70064476Y-117414234D01*
X69748587Y-116779624D01*
X69654494Y-116590594D01*
X69652204Y-116585738D01*
X69627256Y-116529753D01*
X69277688Y-115745309D01*
X69275610Y-115740364D01*
X69257948Y-115695697D01*
X69063773Y-115204648D01*
X68937283Y-114884765D01*
X68935414Y-114879727D01*
X68826428Y-114565551D01*
X69786829Y-114565551D01*
X69801259Y-114785715D01*
X69802680Y-114791311D01*
X69802681Y-114791316D01*
X69854149Y-114993968D01*
X69855570Y-114999563D01*
X69857987Y-115004805D01*
X69857987Y-115004806D01*
X69896105Y-115087490D01*
X69947942Y-115199932D01*
X70075281Y-115380113D01*
X70233323Y-115534072D01*
X70238119Y-115537277D01*
X70238122Y-115537279D01*
X70322320Y-115593538D01*
X70416776Y-115656651D01*
X70422079Y-115658929D01*
X70422082Y-115658931D01*
X70611623Y-115740364D01*
X70619495Y-115743746D01*
X70699147Y-115761769D01*
X70829054Y-115791165D01*
X70829060Y-115791166D01*
X70834691Y-115792440D01*
X70840462Y-115792667D01*
X70840464Y-115792667D01*
X70908270Y-115795331D01*
X71055157Y-115801102D01*
X71164334Y-115785272D01*
X71267797Y-115770271D01*
X71267802Y-115770270D01*
X71273511Y-115769442D01*
X71278975Y-115767587D01*
X71278980Y-115767586D01*
X71476966Y-115700379D01*
X71476971Y-115700377D01*
X71482438Y-115698521D01*
X71674943Y-115590713D01*
X71844577Y-115449629D01*
X71985661Y-115279995D01*
X72093469Y-115087490D01*
X72095325Y-115082023D01*
X72095327Y-115082018D01*
X72162534Y-114884032D01*
X72162535Y-114884027D01*
X72164390Y-114878563D01*
X72165218Y-114872854D01*
X72165219Y-114872849D01*
X72184405Y-114740524D01*
X72196050Y-114660209D01*
X72197702Y-114597111D01*
X72177513Y-114377400D01*
X72117624Y-114165047D01*
X72020039Y-113967164D01*
X71888026Y-113790378D01*
X71726008Y-113640610D01*
X71539409Y-113522875D01*
X71334480Y-113441117D01*
X71328820Y-113439991D01*
X71328816Y-113439990D01*
X71123750Y-113399200D01*
X71123747Y-113399200D01*
X71118083Y-113398073D01*
X71112308Y-113397997D01*
X71112304Y-113397997D01*
X71001563Y-113396548D01*
X70897465Y-113395185D01*
X70891768Y-113396164D01*
X70891767Y-113396164D01*
X70685713Y-113431570D01*
X70685712Y-113431570D01*
X70680016Y-113432549D01*
X70473016Y-113508915D01*
X70468055Y-113511867D01*
X70468054Y-113511867D01*
X70315997Y-113602332D01*
X70283400Y-113621725D01*
X70117516Y-113767201D01*
X69980922Y-113940471D01*
X69878190Y-114135731D01*
X69812762Y-114346444D01*
X69786829Y-114565551D01*
X68826428Y-114565551D01*
X68633871Y-114010465D01*
X68632219Y-114005352D01*
X68479890Y-113497219D01*
X68368012Y-113124018D01*
X68366584Y-113118857D01*
X68363842Y-113108052D01*
X68238206Y-112613141D01*
X74110069Y-112613141D01*
X74124499Y-112833305D01*
X74125920Y-112838901D01*
X74125921Y-112838906D01*
X74150971Y-112937537D01*
X74178810Y-113047153D01*
X74181227Y-113052395D01*
X74181227Y-113052396D01*
X74219345Y-113135080D01*
X74271182Y-113247522D01*
X74398521Y-113427703D01*
X74556563Y-113581662D01*
X74561359Y-113584867D01*
X74561362Y-113584869D01*
X74644785Y-113640610D01*
X74740016Y-113704241D01*
X74745319Y-113706519D01*
X74745322Y-113706521D01*
X74931390Y-113786462D01*
X74942735Y-113791336D01*
X75022387Y-113809359D01*
X75152294Y-113838755D01*
X75152300Y-113838756D01*
X75157931Y-113840030D01*
X75163702Y-113840257D01*
X75163704Y-113840257D01*
X75231510Y-113842921D01*
X75378397Y-113848692D01*
X75487574Y-113832862D01*
X75591037Y-113817861D01*
X75591042Y-113817860D01*
X75596751Y-113817032D01*
X75602215Y-113815177D01*
X75602220Y-113815176D01*
X75800206Y-113747969D01*
X75800211Y-113747967D01*
X75805678Y-113746111D01*
X75998183Y-113638303D01*
X76036093Y-113606774D01*
X76163385Y-113500905D01*
X76167817Y-113497219D01*
X76229555Y-113422988D01*
X76305207Y-113332027D01*
X76305209Y-113332024D01*
X76308901Y-113327585D01*
X76416709Y-113135080D01*
X76418565Y-113129613D01*
X76418567Y-113129608D01*
X76485774Y-112931622D01*
X76485775Y-112931617D01*
X76487630Y-112926153D01*
X76488458Y-112920444D01*
X76488459Y-112920439D01*
X76511421Y-112762071D01*
X76519290Y-112707799D01*
X76520942Y-112644701D01*
X76500753Y-112424990D01*
X76496889Y-112411287D01*
X76455113Y-112263160D01*
X76440864Y-112212637D01*
X76343279Y-112014754D01*
X76325991Y-111991602D01*
X76214719Y-111842592D01*
X76214719Y-111842591D01*
X76211266Y-111837968D01*
X76084093Y-111720410D01*
X76053488Y-111692119D01*
X76053485Y-111692117D01*
X76049248Y-111688200D01*
X75862649Y-111570465D01*
X75657720Y-111488707D01*
X75652060Y-111487581D01*
X75652056Y-111487580D01*
X75446990Y-111446790D01*
X75446987Y-111446790D01*
X75441323Y-111445663D01*
X75435548Y-111445587D01*
X75435544Y-111445587D01*
X75324803Y-111444138D01*
X75220705Y-111442775D01*
X75215008Y-111443754D01*
X75215007Y-111443754D01*
X75008953Y-111479160D01*
X75008952Y-111479160D01*
X75003256Y-111480139D01*
X74796256Y-111556505D01*
X74791295Y-111559457D01*
X74791294Y-111559457D01*
X74645530Y-111646178D01*
X74606640Y-111669315D01*
X74440756Y-111814791D01*
X74304162Y-111988061D01*
X74201430Y-112183321D01*
X74136002Y-112394034D01*
X74110069Y-112613141D01*
X68238206Y-112613141D01*
X68190443Y-112424990D01*
X68140204Y-112227086D01*
X68138993Y-112221851D01*
X67999575Y-111554507D01*
X67950839Y-111321226D01*
X67949853Y-111315951D01*
X67943839Y-111279452D01*
X67800266Y-110408086D01*
X67799508Y-110402781D01*
X67797327Y-110384785D01*
X67688773Y-109489415D01*
X67688240Y-109484068D01*
X67653333Y-109037440D01*
X74175770Y-109037440D01*
X74190200Y-109257604D01*
X74191621Y-109263200D01*
X74191622Y-109263205D01*
X74200780Y-109299264D01*
X74244511Y-109471452D01*
X74336883Y-109671821D01*
X74464222Y-109852002D01*
X74622264Y-110005961D01*
X74627060Y-110009166D01*
X74627063Y-110009168D01*
X74711261Y-110065427D01*
X74805717Y-110128540D01*
X74811020Y-110130818D01*
X74811023Y-110130820D01*
X75003129Y-110213355D01*
X75008436Y-110215635D01*
X75088088Y-110233658D01*
X75217995Y-110263054D01*
X75218001Y-110263055D01*
X75223632Y-110264329D01*
X75229403Y-110264556D01*
X75229405Y-110264556D01*
X75297211Y-110267220D01*
X75444098Y-110272991D01*
X75553275Y-110257161D01*
X75656738Y-110242160D01*
X75656743Y-110242159D01*
X75662452Y-110241331D01*
X75667916Y-110239476D01*
X75667921Y-110239475D01*
X75865907Y-110172268D01*
X75865912Y-110172266D01*
X75871379Y-110170410D01*
X76063884Y-110062602D01*
X76072538Y-110055405D01*
X76229086Y-109925204D01*
X76233518Y-109921518D01*
X76374602Y-109751884D01*
X76377426Y-109746842D01*
X76379308Y-109744103D01*
X76434374Y-109699291D01*
X76504927Y-109691363D01*
X76568566Y-109722838D01*
X76586047Y-109742747D01*
X76680222Y-109876002D01*
X76838264Y-110029961D01*
X76843060Y-110033166D01*
X76843063Y-110033168D01*
X76927261Y-110089427D01*
X77021717Y-110152540D01*
X77027020Y-110154818D01*
X77027023Y-110154820D01*
X77219129Y-110237355D01*
X77224436Y-110239635D01*
X77304088Y-110257658D01*
X77433995Y-110287054D01*
X77434001Y-110287055D01*
X77439632Y-110288329D01*
X77445403Y-110288556D01*
X77445405Y-110288556D01*
X77513211Y-110291220D01*
X77660098Y-110296991D01*
X77789028Y-110278297D01*
X77872738Y-110266160D01*
X77872743Y-110266159D01*
X77878452Y-110265331D01*
X77883916Y-110263476D01*
X77883921Y-110263475D01*
X78081907Y-110196268D01*
X78081912Y-110196266D01*
X78087379Y-110194410D01*
X78126917Y-110172268D01*
X78210730Y-110125330D01*
X78279884Y-110086602D01*
X78326747Y-110047626D01*
X78391911Y-110019445D01*
X78407317Y-110018500D01*
X78919455Y-110018500D01*
X78987576Y-110038502D01*
X79008550Y-110055405D01*
X79241029Y-110287884D01*
X79274057Y-110345963D01*
X79301504Y-110454033D01*
X79298886Y-110524981D01*
X79278333Y-110563051D01*
X79252863Y-110595360D01*
X79150131Y-110790620D01*
X79084703Y-111001333D01*
X79058770Y-111220440D01*
X79073200Y-111440604D01*
X79074621Y-111446200D01*
X79074622Y-111446205D01*
X79115257Y-111606202D01*
X79127511Y-111654452D01*
X79129928Y-111659694D01*
X79129928Y-111659695D01*
X79196424Y-111803934D01*
X79219883Y-111854821D01*
X79347222Y-112035002D01*
X79505264Y-112188961D01*
X79510060Y-112192166D01*
X79510063Y-112192168D01*
X79615784Y-112262808D01*
X79688717Y-112311540D01*
X79694020Y-112313818D01*
X79694023Y-112313820D01*
X79867886Y-112388517D01*
X79891436Y-112398635D01*
X79947350Y-112411287D01*
X80100995Y-112446054D01*
X80101001Y-112446055D01*
X80106632Y-112447329D01*
X80112403Y-112447556D01*
X80112405Y-112447556D01*
X80180211Y-112450220D01*
X80327098Y-112455991D01*
X80436275Y-112440161D01*
X80539738Y-112425160D01*
X80539743Y-112425159D01*
X80545452Y-112424331D01*
X80550916Y-112422476D01*
X80550921Y-112422475D01*
X80748907Y-112355268D01*
X80748912Y-112355266D01*
X80754379Y-112353410D01*
X80783446Y-112337132D01*
X80876759Y-112284874D01*
X80946884Y-112245602D01*
X80957665Y-112236636D01*
X81036275Y-112171256D01*
X81101440Y-112143075D01*
X81171495Y-112154599D01*
X81205940Y-112179035D01*
X81268595Y-112241690D01*
X81302621Y-112304002D01*
X81305500Y-112330785D01*
X81305500Y-114560037D01*
X81285498Y-114628158D01*
X81278450Y-114638042D01*
X81219863Y-114712360D01*
X81117131Y-114907620D01*
X81051703Y-115118333D01*
X81025770Y-115337440D01*
X81040200Y-115557604D01*
X81041621Y-115563200D01*
X81041622Y-115563205D01*
X81087798Y-115745021D01*
X81094511Y-115771452D01*
X81096928Y-115776694D01*
X81096928Y-115776695D01*
X81108796Y-115802438D01*
X81186883Y-115971821D01*
X81314222Y-116152002D01*
X81472264Y-116305961D01*
X81477060Y-116309166D01*
X81477063Y-116309168D01*
X81623226Y-116406830D01*
X81655717Y-116428540D01*
X81661020Y-116430818D01*
X81661023Y-116430820D01*
X81835125Y-116505620D01*
X81858436Y-116515635D01*
X81895696Y-116524066D01*
X81957722Y-116558609D01*
X81991227Y-116621202D01*
X81993617Y-116638710D01*
X81994200Y-116647604D01*
X81995621Y-116653200D01*
X81995622Y-116653205D01*
X82029055Y-116784845D01*
X82048511Y-116861452D01*
X82140883Y-117061821D01*
X82268222Y-117242002D01*
X82426264Y-117395961D01*
X82431060Y-117399166D01*
X82431063Y-117399168D01*
X82577226Y-117496830D01*
X82609717Y-117518540D01*
X82615020Y-117520818D01*
X82615023Y-117520820D01*
X82753788Y-117580438D01*
X82812436Y-117605635D01*
X82820296Y-117607414D01*
X82821264Y-117607947D01*
X82823562Y-117608694D01*
X82823419Y-117609136D01*
X82881580Y-117641211D01*
X86477178Y-121236810D01*
X86511204Y-121299122D01*
X86506139Y-121369938D01*
X86463592Y-121426773D01*
X86436507Y-121442228D01*
X86267183Y-121512711D01*
X86095989Y-121627316D01*
X85950316Y-121772989D01*
X85835711Y-121944183D01*
X85833345Y-121949866D01*
X85833339Y-121949878D01*
X85778603Y-122081373D01*
X85733959Y-122136576D01*
X85666556Y-122158879D01*
X85607358Y-122145725D01*
X85607337Y-122145777D01*
X85607016Y-122145649D01*
X85402408Y-122064019D01*
X85396748Y-122062893D01*
X85396744Y-122062892D01*
X85191678Y-122022102D01*
X85191675Y-122022102D01*
X85186011Y-122020975D01*
X85180236Y-122020899D01*
X85180232Y-122020899D01*
X85069491Y-122019450D01*
X84965393Y-122018087D01*
X84959696Y-122019066D01*
X84959695Y-122019066D01*
X84753641Y-122054472D01*
X84753640Y-122054472D01*
X84747944Y-122055451D01*
X84742518Y-122057453D01*
X84742517Y-122057453D01*
X84687395Y-122077788D01*
X84616562Y-122082600D01*
X84563304Y-122054741D01*
X84562718Y-122055505D01*
X84558333Y-122052140D01*
X84558256Y-122052100D01*
X84558137Y-122051990D01*
X84558131Y-122051985D01*
X84553891Y-122048066D01*
X84367292Y-121930331D01*
X84162363Y-121848573D01*
X84156703Y-121847447D01*
X84156699Y-121847446D01*
X83951633Y-121806656D01*
X83951630Y-121806656D01*
X83945966Y-121805529D01*
X83940191Y-121805453D01*
X83940187Y-121805453D01*
X83829446Y-121804004D01*
X83725348Y-121802641D01*
X83719651Y-121803620D01*
X83719650Y-121803620D01*
X83513596Y-121839026D01*
X83513595Y-121839026D01*
X83507899Y-121840005D01*
X83300899Y-121916371D01*
X83295938Y-121919323D01*
X83295937Y-121919323D01*
X83123182Y-122022102D01*
X83111283Y-122029181D01*
X82945399Y-122174657D01*
X82808805Y-122347927D01*
X82706073Y-122543187D01*
X82640645Y-122753900D01*
X82614712Y-122973007D01*
X82629142Y-123193171D01*
X82630563Y-123198767D01*
X82630564Y-123198772D01*
X82674952Y-123373548D01*
X82683453Y-123407019D01*
X82775825Y-123607388D01*
X82903164Y-123787569D01*
X83061206Y-123941528D01*
X83066002Y-123944733D01*
X83066005Y-123944735D01*
X83140140Y-123994270D01*
X83244659Y-124064107D01*
X83249962Y-124066385D01*
X83249965Y-124066387D01*
X83433343Y-124145172D01*
X83447378Y-124151202D01*
X83508887Y-124165120D01*
X83656937Y-124198621D01*
X83656943Y-124198622D01*
X83662574Y-124199896D01*
X83668345Y-124200123D01*
X83668347Y-124200123D01*
X83736153Y-124202787D01*
X83883040Y-124208558D01*
X84011690Y-124189905D01*
X84095672Y-124177728D01*
X84095676Y-124177727D01*
X84101394Y-124176898D01*
X84106867Y-124175040D01*
X84106872Y-124175039D01*
X84194857Y-124145172D01*
X84265792Y-124142216D01*
X84305360Y-124159720D01*
X84419717Y-124236130D01*
X84484704Y-124279553D01*
X84490007Y-124281831D01*
X84490010Y-124281833D01*
X84682116Y-124364368D01*
X84687423Y-124366648D01*
X84767075Y-124384671D01*
X84896982Y-124414067D01*
X84896988Y-124414068D01*
X84902619Y-124415342D01*
X84908390Y-124415569D01*
X84908392Y-124415569D01*
X84976198Y-124418233D01*
X85123085Y-124424004D01*
X85234200Y-124407893D01*
X85335725Y-124393173D01*
X85335730Y-124393172D01*
X85341439Y-124392344D01*
X85346903Y-124390489D01*
X85346908Y-124390488D01*
X85544894Y-124323281D01*
X85544899Y-124323279D01*
X85550366Y-124321423D01*
X85564623Y-124313439D01*
X85655479Y-124262557D01*
X85695131Y-124240351D01*
X85764338Y-124224517D01*
X85831120Y-124248614D01*
X85861400Y-124280191D01*
X85946889Y-124407893D01*
X85946893Y-124407898D01*
X85950316Y-124413011D01*
X86095989Y-124558684D01*
X86267183Y-124673289D01*
X86457377Y-124752459D01*
X86659327Y-124793179D01*
X86663993Y-124793415D01*
X86663998Y-124793416D01*
X86664075Y-124793420D01*
X86664093Y-124793420D01*
X86665663Y-124793500D01*
X86667260Y-124793500D01*
X87118124Y-124793499D01*
X87566336Y-124793499D01*
X87567892Y-124793420D01*
X87567909Y-124793420D01*
X87568003Y-124793415D01*
X87568005Y-124793415D01*
X87572673Y-124793179D01*
X87774623Y-124752459D01*
X87964817Y-124673289D01*
X88136011Y-124558684D01*
X88281684Y-124413011D01*
X88396289Y-124241817D01*
X88475459Y-124051623D01*
X88516179Y-123849673D01*
X88516500Y-123843337D01*
X88516499Y-123063154D01*
X88536501Y-122995033D01*
X88590157Y-122948540D01*
X88610060Y-122941678D01*
X88612452Y-122941331D01*
X88696626Y-122912758D01*
X88815907Y-122872268D01*
X88815912Y-122872266D01*
X88821379Y-122870410D01*
X89013884Y-122762602D01*
X89021396Y-122756355D01*
X89179086Y-122625204D01*
X89183518Y-122621518D01*
X89234110Y-122560688D01*
X89320908Y-122456326D01*
X89320910Y-122456323D01*
X89324602Y-122451884D01*
X89413307Y-122293490D01*
X89429586Y-122264422D01*
X89429587Y-122264420D01*
X89432410Y-122259379D01*
X89434266Y-122253912D01*
X89434268Y-122253907D01*
X89501475Y-122055921D01*
X89501476Y-122055916D01*
X89503331Y-122050452D01*
X89504159Y-122044743D01*
X89504160Y-122044738D01*
X89532425Y-121849795D01*
X89534991Y-121832098D01*
X89536643Y-121769000D01*
X89516454Y-121549289D01*
X89505046Y-121508837D01*
X89465872Y-121369938D01*
X89456565Y-121336936D01*
X89358980Y-121139053D01*
X89226967Y-120962267D01*
X89064949Y-120812499D01*
X88966246Y-120750222D01*
X88944387Y-120732756D01*
X84362095Y-116150463D01*
X84329922Y-116095573D01*
X84310565Y-116026936D01*
X84244494Y-115892957D01*
X84231500Y-115837229D01*
X84231500Y-112887888D01*
X85875270Y-112887888D01*
X85889700Y-113108052D01*
X85891121Y-113113648D01*
X85891122Y-113113653D01*
X85939365Y-113303605D01*
X85944011Y-113321900D01*
X85946428Y-113327142D01*
X85946428Y-113327143D01*
X85992787Y-113427703D01*
X86036383Y-113522269D01*
X86163722Y-113702450D01*
X86321764Y-113856409D01*
X86326560Y-113859614D01*
X86326563Y-113859616D01*
X86410761Y-113915875D01*
X86505217Y-113978988D01*
X86510520Y-113981266D01*
X86510523Y-113981268D01*
X86702629Y-114063803D01*
X86707936Y-114066083D01*
X86787588Y-114084106D01*
X86917495Y-114113502D01*
X86917501Y-114113503D01*
X86923132Y-114114777D01*
X86928903Y-114115004D01*
X86928905Y-114115004D01*
X86996711Y-114117668D01*
X87143598Y-114123439D01*
X87252775Y-114107609D01*
X87356238Y-114092608D01*
X87356243Y-114092607D01*
X87361952Y-114091779D01*
X87367416Y-114089924D01*
X87367421Y-114089923D01*
X87565407Y-114022716D01*
X87565412Y-114022714D01*
X87570879Y-114020858D01*
X87763384Y-113913050D01*
X87841763Y-113847863D01*
X87928586Y-113775652D01*
X87933018Y-113771966D01*
X87990834Y-113702450D01*
X88070408Y-113606774D01*
X88070410Y-113606771D01*
X88074102Y-113602332D01*
X88165018Y-113439990D01*
X88179086Y-113414870D01*
X88179087Y-113414868D01*
X88181910Y-113409827D01*
X88183766Y-113404360D01*
X88183768Y-113404355D01*
X88250975Y-113206369D01*
X88250976Y-113206364D01*
X88252831Y-113200900D01*
X88253659Y-113195191D01*
X88253660Y-113195186D01*
X88275935Y-113041558D01*
X88284491Y-112982546D01*
X88286143Y-112919448D01*
X88265954Y-112699737D01*
X88251950Y-112650080D01*
X88207634Y-112492948D01*
X88206065Y-112487384D01*
X88108480Y-112289501D01*
X88077809Y-112248427D01*
X87987650Y-112127690D01*
X90126020Y-112127690D01*
X90132465Y-112226022D01*
X90139535Y-112333886D01*
X90140450Y-112347854D01*
X90141871Y-112353450D01*
X90141872Y-112353455D01*
X90193340Y-112556107D01*
X90194761Y-112561702D01*
X90197178Y-112566944D01*
X90197178Y-112566945D01*
X90241582Y-112663264D01*
X90287133Y-112762071D01*
X90414472Y-112942252D01*
X90572514Y-113096211D01*
X90577310Y-113099416D01*
X90577313Y-113099418D01*
X90661511Y-113155677D01*
X90755967Y-113218790D01*
X90761270Y-113221068D01*
X90761273Y-113221070D01*
X90924913Y-113291375D01*
X90958686Y-113305885D01*
X91004736Y-113316305D01*
X91168245Y-113353304D01*
X91168251Y-113353305D01*
X91173882Y-113354579D01*
X91179653Y-113354806D01*
X91179655Y-113354806D01*
X91247461Y-113357470D01*
X91394348Y-113363241D01*
X91503525Y-113347411D01*
X91606988Y-113332410D01*
X91606993Y-113332409D01*
X91612702Y-113331581D01*
X91618166Y-113329726D01*
X91618171Y-113329725D01*
X91816157Y-113262518D01*
X91816162Y-113262516D01*
X91821629Y-113260660D01*
X92014134Y-113152852D01*
X92035503Y-113135080D01*
X92179336Y-113015454D01*
X92183768Y-113011768D01*
X92260550Y-112919448D01*
X92321158Y-112846576D01*
X92321160Y-112846573D01*
X92324852Y-112842134D01*
X92404598Y-112699737D01*
X92429836Y-112654672D01*
X92429837Y-112654670D01*
X92432660Y-112649629D01*
X92434516Y-112644162D01*
X92434518Y-112644157D01*
X92501725Y-112446171D01*
X92501726Y-112446166D01*
X92503581Y-112440702D01*
X92504409Y-112434993D01*
X92504410Y-112434988D01*
X92526175Y-112284874D01*
X92535241Y-112222348D01*
X92536893Y-112159250D01*
X92516704Y-111939539D01*
X92456815Y-111727186D01*
X92359230Y-111529303D01*
X92330514Y-111490847D01*
X92230670Y-111357141D01*
X92230670Y-111357140D01*
X92227217Y-111352517D01*
X92101951Y-111236722D01*
X92069439Y-111206668D01*
X92069436Y-111206666D01*
X92065199Y-111202749D01*
X91878600Y-111085014D01*
X91673671Y-111003256D01*
X91668011Y-111002130D01*
X91668007Y-111002129D01*
X91462941Y-110961339D01*
X91462938Y-110961339D01*
X91457274Y-110960212D01*
X91451499Y-110960136D01*
X91451495Y-110960136D01*
X91340754Y-110958687D01*
X91236656Y-110957324D01*
X91230959Y-110958303D01*
X91230958Y-110958303D01*
X91024904Y-110993709D01*
X91024903Y-110993709D01*
X91019207Y-110994688D01*
X90812207Y-111071054D01*
X90622591Y-111183864D01*
X90456707Y-111329340D01*
X90320113Y-111502610D01*
X90217381Y-111697870D01*
X90151953Y-111908583D01*
X90126020Y-112127690D01*
X87987650Y-112127690D01*
X87979920Y-112117339D01*
X87979920Y-112117338D01*
X87976467Y-112112715D01*
X87871144Y-112015355D01*
X87818689Y-111966866D01*
X87818686Y-111966864D01*
X87814449Y-111962947D01*
X87627850Y-111845212D01*
X87422921Y-111763454D01*
X87417261Y-111762328D01*
X87417257Y-111762327D01*
X87212191Y-111721537D01*
X87212188Y-111721537D01*
X87206524Y-111720410D01*
X87200749Y-111720334D01*
X87200745Y-111720334D01*
X87090004Y-111718885D01*
X86985906Y-111717522D01*
X86980209Y-111718501D01*
X86980208Y-111718501D01*
X86774154Y-111753907D01*
X86774153Y-111753907D01*
X86768457Y-111754886D01*
X86561457Y-111831252D01*
X86556496Y-111834204D01*
X86556495Y-111834204D01*
X86388796Y-111933975D01*
X86371841Y-111944062D01*
X86205957Y-112089538D01*
X86069363Y-112262808D01*
X85966631Y-112458068D01*
X85901203Y-112668781D01*
X85875270Y-112887888D01*
X84231500Y-112887888D01*
X84231500Y-111693132D01*
X84232237Y-111679524D01*
X84235860Y-111646178D01*
X84235860Y-111646174D01*
X84236525Y-111640053D01*
X84234960Y-111622168D01*
X84231974Y-111588028D01*
X84231645Y-111583204D01*
X84231500Y-111580241D01*
X84231500Y-111577159D01*
X84229279Y-111554507D01*
X84227132Y-111532608D01*
X84227010Y-111531295D01*
X84219617Y-111446790D01*
X84218570Y-111434824D01*
X84217022Y-111429495D01*
X84216480Y-111423970D01*
X84188467Y-111331187D01*
X84188125Y-111330032D01*
X84187924Y-111329340D01*
X84161094Y-111236990D01*
X84158538Y-111232060D01*
X84156935Y-111226749D01*
X84154038Y-111221300D01*
X84111437Y-111141177D01*
X84110825Y-111140011D01*
X84083914Y-111088095D01*
X84066286Y-111054088D01*
X84062826Y-111049753D01*
X84060218Y-111044849D01*
X84056331Y-111040083D01*
X84056327Y-111040077D01*
X84004359Y-110976360D01*
X83998920Y-110969690D01*
X83998229Y-110968834D01*
X83965631Y-110927999D01*
X83963129Y-110925497D01*
X83962158Y-110924411D01*
X83958443Y-110920061D01*
X83933900Y-110889968D01*
X83933898Y-110889966D01*
X83930011Y-110885200D01*
X83893016Y-110854595D01*
X83884237Y-110846605D01*
X81607458Y-108569826D01*
X84376270Y-108569826D01*
X84390700Y-108789990D01*
X84392121Y-108795586D01*
X84392122Y-108795591D01*
X84443590Y-108998243D01*
X84445011Y-109003838D01*
X84447428Y-109009080D01*
X84447428Y-109009081D01*
X84485546Y-109091765D01*
X84537383Y-109204207D01*
X84664722Y-109384388D01*
X84822764Y-109538347D01*
X84827560Y-109541552D01*
X84827563Y-109541554D01*
X84911761Y-109597813D01*
X85006217Y-109660926D01*
X85011520Y-109663204D01*
X85011523Y-109663206D01*
X85203629Y-109745741D01*
X85208936Y-109748021D01*
X85288588Y-109766044D01*
X85418495Y-109795440D01*
X85418501Y-109795441D01*
X85424132Y-109796715D01*
X85429903Y-109796942D01*
X85429905Y-109796942D01*
X85497711Y-109799606D01*
X85644598Y-109805377D01*
X85753775Y-109789547D01*
X85857238Y-109774546D01*
X85857243Y-109774545D01*
X85862952Y-109773717D01*
X85868416Y-109771862D01*
X85868421Y-109771861D01*
X86066407Y-109704654D01*
X86066412Y-109704652D01*
X86071879Y-109702796D01*
X86080474Y-109697983D01*
X86152375Y-109657716D01*
X86264384Y-109594988D01*
X86434018Y-109453904D01*
X86518727Y-109352053D01*
X86571408Y-109288712D01*
X86571410Y-109288709D01*
X86575102Y-109284270D01*
X86682910Y-109091765D01*
X86684766Y-109086298D01*
X86684768Y-109086293D01*
X86751975Y-108888307D01*
X86751976Y-108888302D01*
X86753831Y-108882838D01*
X86754659Y-108877129D01*
X86754660Y-108877124D01*
X86779391Y-108706554D01*
X86785491Y-108664484D01*
X86787143Y-108601386D01*
X86766954Y-108381675D01*
X86747913Y-108314158D01*
X86708634Y-108174886D01*
X86707065Y-108169322D01*
X86609480Y-107971439D01*
X86533647Y-107869886D01*
X86480920Y-107799277D01*
X86480920Y-107799276D01*
X86477467Y-107794653D01*
X86315449Y-107644885D01*
X86128850Y-107527150D01*
X85923921Y-107445392D01*
X85918261Y-107444266D01*
X85918257Y-107444265D01*
X85713191Y-107403475D01*
X85713188Y-107403475D01*
X85707524Y-107402348D01*
X85701749Y-107402272D01*
X85701745Y-107402272D01*
X85591004Y-107400823D01*
X85486906Y-107399460D01*
X85481209Y-107400439D01*
X85481208Y-107400439D01*
X85275154Y-107435845D01*
X85275153Y-107435845D01*
X85269457Y-107436824D01*
X85062457Y-107513190D01*
X85057496Y-107516142D01*
X85057495Y-107516142D01*
X85012970Y-107542632D01*
X84872841Y-107626000D01*
X84706957Y-107771476D01*
X84570363Y-107944746D01*
X84467631Y-108140006D01*
X84402203Y-108350719D01*
X84376270Y-108569826D01*
X81607458Y-108569826D01*
X79914360Y-106876728D01*
X79905258Y-106866585D01*
X79884242Y-106840446D01*
X79884241Y-106840445D01*
X79880377Y-106835639D01*
X79840372Y-106802071D01*
X79836740Y-106798902D01*
X79834530Y-106796898D01*
X79832351Y-106794719D01*
X79797694Y-106766252D01*
X79796806Y-106765515D01*
X79722562Y-106703216D01*
X79717698Y-106700542D01*
X79713409Y-106697019D01*
X79627962Y-106651203D01*
X79626960Y-106650658D01*
X79547443Y-106606943D01*
X79547436Y-106606940D01*
X79542030Y-106603968D01*
X79536739Y-106602290D01*
X79531848Y-106599667D01*
X79525956Y-106597865D01*
X79525952Y-106597864D01*
X79439229Y-106571350D01*
X79437970Y-106570958D01*
X79391096Y-106556089D01*
X79345660Y-106541676D01*
X79340146Y-106541058D01*
X79334836Y-106539434D01*
X79238365Y-106529634D01*
X79237230Y-106529513D01*
X79206558Y-106526073D01*
X79188826Y-106524084D01*
X79188820Y-106524084D01*
X79185328Y-106523692D01*
X79181802Y-106523692D01*
X79180333Y-106523610D01*
X79174647Y-106523163D01*
X79150108Y-106520670D01*
X79136003Y-106519237D01*
X79136000Y-106519237D01*
X79129877Y-106518615D01*
X79086038Y-106522759D01*
X79082082Y-106523133D01*
X79070224Y-106523692D01*
X79032681Y-106523692D01*
X78968879Y-106505245D01*
X78968667Y-106505661D01*
X78966504Y-106504559D01*
X78965444Y-106504252D01*
X78958635Y-106499956D01*
X78953275Y-106497818D01*
X78953270Y-106497815D01*
X78759070Y-106420338D01*
X78753706Y-106418198D01*
X78748046Y-106417072D01*
X78748042Y-106417071D01*
X78542976Y-106376281D01*
X78542973Y-106376281D01*
X78537309Y-106375154D01*
X78531534Y-106375078D01*
X78531530Y-106375078D01*
X78420789Y-106373629D01*
X78316691Y-106372266D01*
X78310994Y-106373245D01*
X78310993Y-106373245D01*
X78104939Y-106408651D01*
X78104938Y-106408651D01*
X78099242Y-106409630D01*
X77892242Y-106485996D01*
X77887281Y-106488948D01*
X77887280Y-106488948D01*
X77733438Y-106580475D01*
X77702626Y-106598806D01*
X77536742Y-106744282D01*
X77400148Y-106917552D01*
X77297416Y-107112812D01*
X77231988Y-107323525D01*
X77206055Y-107542632D01*
X77220485Y-107762796D01*
X77236546Y-107826036D01*
X77233928Y-107896982D01*
X77193368Y-107955252D01*
X77158034Y-107975262D01*
X77077957Y-108004804D01*
X77072996Y-108007756D01*
X77072995Y-108007756D01*
X76896939Y-108112499D01*
X76888341Y-108117614D01*
X76722457Y-108263090D01*
X76608359Y-108407824D01*
X76595651Y-108423944D01*
X76537770Y-108465057D01*
X76466850Y-108468351D01*
X76405407Y-108432779D01*
X76395743Y-108421327D01*
X76370433Y-108387432D01*
X76276967Y-108262267D01*
X76144706Y-108140006D01*
X76119189Y-108116418D01*
X76119186Y-108116416D01*
X76114949Y-108112499D01*
X75928350Y-107994764D01*
X75723421Y-107913006D01*
X75717761Y-107911880D01*
X75717757Y-107911879D01*
X75512691Y-107871089D01*
X75512688Y-107871089D01*
X75507024Y-107869962D01*
X75501249Y-107869886D01*
X75501245Y-107869886D01*
X75390504Y-107868437D01*
X75286406Y-107867074D01*
X75280709Y-107868053D01*
X75280708Y-107868053D01*
X75074654Y-107903459D01*
X75074653Y-107903459D01*
X75068957Y-107904438D01*
X74861957Y-107980804D01*
X74672341Y-108093614D01*
X74506457Y-108239090D01*
X74369863Y-108412360D01*
X74267131Y-108607620D01*
X74201703Y-108818333D01*
X74175770Y-109037440D01*
X67653333Y-109037440D01*
X67616548Y-108566784D01*
X67616244Y-108561419D01*
X67583730Y-107641949D01*
X67583654Y-107636576D01*
X67587439Y-107118330D01*
X67590375Y-106716496D01*
X67590528Y-106711142D01*
X67590664Y-106708433D01*
X67636472Y-105792211D01*
X67636854Y-105786858D01*
X67643686Y-105713303D01*
X67674250Y-105384206D01*
X67721938Y-104870738D01*
X67722549Y-104865399D01*
X67846616Y-103953736D01*
X67847454Y-103948429D01*
X67996218Y-103121089D01*
X68010280Y-103042883D01*
X68011341Y-103037626D01*
X68150986Y-102414794D01*
X68212642Y-102139799D01*
X68213926Y-102134599D01*
X68453304Y-101246251D01*
X68454812Y-101241093D01*
X68731870Y-100363699D01*
X68733593Y-100358622D01*
X68796188Y-100186350D01*
X69047794Y-99493882D01*
X69049734Y-99488875D01*
X69400537Y-98638277D01*
X69402692Y-98633354D01*
X69692610Y-98007518D01*
X69789427Y-97798524D01*
X69791788Y-97793700D01*
X70213771Y-96976113D01*
X70216337Y-96971391D01*
X70672799Y-96172534D01*
X70675564Y-96167926D01*
X70874467Y-95851917D01*
X71165681Y-95389248D01*
X71168615Y-95384799D01*
X71691498Y-94627712D01*
X71694645Y-94623357D01*
X72249310Y-93889283D01*
X72252640Y-93885066D01*
X72838098Y-93175313D01*
X72841605Y-93171241D01*
X73398935Y-92551440D01*
X74359770Y-92551440D01*
X74374200Y-92771604D01*
X74375621Y-92777200D01*
X74375622Y-92777205D01*
X74401094Y-92877499D01*
X74428511Y-92985452D01*
X74430928Y-92990694D01*
X74430928Y-92990695D01*
X74469046Y-93073379D01*
X74520883Y-93185821D01*
X74648222Y-93366002D01*
X74806264Y-93519961D01*
X74811060Y-93523166D01*
X74811063Y-93523168D01*
X74895261Y-93579427D01*
X74989717Y-93642540D01*
X74995020Y-93644818D01*
X74995023Y-93644820D01*
X75132296Y-93703797D01*
X75192436Y-93729635D01*
X75272088Y-93747658D01*
X75401995Y-93777054D01*
X75402001Y-93777055D01*
X75407632Y-93778329D01*
X75413403Y-93778556D01*
X75413405Y-93778556D01*
X75481211Y-93781220D01*
X75628098Y-93786991D01*
X75737275Y-93771161D01*
X75840738Y-93756160D01*
X75840743Y-93756159D01*
X75846452Y-93755331D01*
X75851916Y-93753476D01*
X75851921Y-93753475D01*
X76049907Y-93686268D01*
X76049912Y-93686266D01*
X76055379Y-93684410D01*
X76247884Y-93576602D01*
X76260387Y-93566204D01*
X76388426Y-93459714D01*
X76417518Y-93435518D01*
X76452977Y-93392884D01*
X76554908Y-93270326D01*
X76554910Y-93270323D01*
X76558602Y-93265884D01*
X76666410Y-93073379D01*
X76668266Y-93067912D01*
X76668268Y-93067907D01*
X76735475Y-92869921D01*
X76735476Y-92869916D01*
X76737331Y-92864452D01*
X76738159Y-92858743D01*
X76738160Y-92858738D01*
X76757990Y-92721968D01*
X76768991Y-92646098D01*
X76770643Y-92583000D01*
X76750454Y-92363289D01*
X76690565Y-92150936D01*
X76592980Y-91953053D01*
X76533617Y-91873556D01*
X76464420Y-91780891D01*
X76464420Y-91780890D01*
X76460967Y-91776267D01*
X76298949Y-91626499D01*
X76112350Y-91508764D01*
X75907421Y-91427006D01*
X75901761Y-91425880D01*
X75901757Y-91425879D01*
X75696691Y-91385089D01*
X75696688Y-91385089D01*
X75691024Y-91383962D01*
X75685249Y-91383886D01*
X75685245Y-91383886D01*
X75574504Y-91382437D01*
X75470406Y-91381074D01*
X75464709Y-91382053D01*
X75464708Y-91382053D01*
X75258654Y-91417459D01*
X75258653Y-91417459D01*
X75252957Y-91418438D01*
X75045957Y-91494804D01*
X75040996Y-91497756D01*
X75040995Y-91497756D01*
X74873913Y-91597160D01*
X74856341Y-91607614D01*
X74690457Y-91753090D01*
X74553863Y-91926360D01*
X74451131Y-92121620D01*
X74385703Y-92332333D01*
X74359770Y-92551440D01*
X73398935Y-92551440D01*
X73456802Y-92487087D01*
X73460480Y-92483169D01*
X74104296Y-91825861D01*
X74108137Y-91822103D01*
X74779385Y-91192852D01*
X74783358Y-91189283D01*
X75480878Y-90589181D01*
X75484958Y-90585820D01*
X76207415Y-90016017D01*
X76211642Y-90012825D01*
X76387120Y-89886178D01*
X76454060Y-89862532D01*
X76523161Y-89878831D01*
X76572480Y-89929901D01*
X76586359Y-89999528D01*
X76572364Y-90047017D01*
X76483131Y-90216620D01*
X76417703Y-90427333D01*
X76391770Y-90646440D01*
X76392148Y-90652206D01*
X76404543Y-90841315D01*
X76406200Y-90866604D01*
X76407621Y-90872200D01*
X76407622Y-90872205D01*
X76458051Y-91070767D01*
X76460511Y-91080452D01*
X76462928Y-91085694D01*
X76462928Y-91085695D01*
X76499238Y-91164457D01*
X76552883Y-91280821D01*
X76680222Y-91461002D01*
X76838264Y-91614961D01*
X76843060Y-91618166D01*
X76843063Y-91618168D01*
X76927261Y-91674427D01*
X77021717Y-91737540D01*
X77027020Y-91739818D01*
X77027023Y-91739820D01*
X77219129Y-91822355D01*
X77224436Y-91824635D01*
X77304088Y-91842658D01*
X77433995Y-91872054D01*
X77434001Y-91872055D01*
X77439632Y-91873329D01*
X77445403Y-91873556D01*
X77445405Y-91873556D01*
X77513211Y-91876220D01*
X77660098Y-91881991D01*
X77769482Y-91866131D01*
X77872738Y-91851160D01*
X77872743Y-91851159D01*
X77878452Y-91850331D01*
X77883916Y-91848476D01*
X77883921Y-91848475D01*
X78081907Y-91781268D01*
X78081912Y-91781266D01*
X78087379Y-91779410D01*
X78092992Y-91776267D01*
X78167875Y-91734330D01*
X78279884Y-91671602D01*
X78360373Y-91604660D01*
X78374510Y-91592902D01*
X78439675Y-91564721D01*
X78492480Y-91569794D01*
X78494436Y-91570635D01*
X78557220Y-91584842D01*
X78703995Y-91618054D01*
X78704001Y-91618055D01*
X78709632Y-91619329D01*
X78715403Y-91619556D01*
X78715405Y-91619556D01*
X78783211Y-91622220D01*
X78930098Y-91627991D01*
X79044358Y-91611424D01*
X79142738Y-91597160D01*
X79142743Y-91597159D01*
X79148452Y-91596331D01*
X79153916Y-91594476D01*
X79153921Y-91594475D01*
X79351907Y-91527268D01*
X79351912Y-91527266D01*
X79357379Y-91525410D01*
X79549884Y-91417602D01*
X79588977Y-91385089D01*
X79715086Y-91280204D01*
X79719518Y-91276518D01*
X79816375Y-91160061D01*
X79856908Y-91111326D01*
X79856910Y-91111323D01*
X79860602Y-91106884D01*
X79937605Y-90969385D01*
X79965586Y-90919422D01*
X79965587Y-90919420D01*
X79968410Y-90914379D01*
X79970266Y-90908912D01*
X79970268Y-90908907D01*
X80037475Y-90710921D01*
X80037476Y-90710916D01*
X80039331Y-90705452D01*
X80040159Y-90699743D01*
X80040160Y-90699738D01*
X80070458Y-90490772D01*
X80070991Y-90487098D01*
X80072643Y-90424000D01*
X80052454Y-90204289D01*
X79992565Y-89991936D01*
X79894980Y-89794053D01*
X79762967Y-89617267D01*
X79658695Y-89520879D01*
X79605189Y-89471418D01*
X79605186Y-89471416D01*
X79600949Y-89467499D01*
X79414350Y-89349764D01*
X79209421Y-89268006D01*
X79203761Y-89266880D01*
X79203757Y-89266879D01*
X78998691Y-89226089D01*
X78998688Y-89226089D01*
X78993024Y-89224962D01*
X78987249Y-89224886D01*
X78987245Y-89224886D01*
X78876504Y-89223437D01*
X78772406Y-89222074D01*
X78766709Y-89223053D01*
X78766708Y-89223053D01*
X78560654Y-89258459D01*
X78560653Y-89258459D01*
X78554957Y-89259438D01*
X78347957Y-89335804D01*
X78342996Y-89338756D01*
X78342995Y-89338756D01*
X78275476Y-89378926D01*
X78158341Y-89448614D01*
X78107561Y-89493147D01*
X78090420Y-89508179D01*
X78026016Y-89538056D01*
X77960652Y-89530476D01*
X77955248Y-89528320D01*
X77944786Y-89524146D01*
X77944782Y-89524145D01*
X77939421Y-89522006D01*
X77933761Y-89520880D01*
X77933757Y-89520879D01*
X77728691Y-89480089D01*
X77728688Y-89480089D01*
X77723024Y-89478962D01*
X77717249Y-89478886D01*
X77717245Y-89478886D01*
X77606504Y-89477437D01*
X77502406Y-89476074D01*
X77496709Y-89477053D01*
X77496708Y-89477053D01*
X77479040Y-89480089D01*
X77355458Y-89501324D01*
X77284935Y-89493147D01*
X77230027Y-89448140D01*
X77208168Y-89380592D01*
X77226299Y-89311949D01*
X77264806Y-89271923D01*
X77730513Y-88965133D01*
X77735062Y-88962274D01*
X78271535Y-88640798D01*
X78524268Y-88489350D01*
X78528906Y-88486703D01*
X79147954Y-88150756D01*
X79208053Y-88135500D01*
X99353946Y-88135500D01*
X99414045Y-88150756D01*
G37*
%TD.AperFunction*%
%TA.AperFunction,Conductor*%
G36*
X99327576Y-92131502D02*
G01*
X99348550Y-92148405D01*
X100342952Y-93142807D01*
X100355791Y-93157839D01*
X100364329Y-93169590D01*
X100369231Y-93174003D01*
X100369232Y-93174005D01*
X100416169Y-93216267D01*
X100420953Y-93220808D01*
X100435768Y-93235623D01*
X100438332Y-93237699D01*
X100452062Y-93248818D01*
X100457077Y-93253102D01*
X100503993Y-93295345D01*
X100503997Y-93295348D01*
X100508906Y-93299768D01*
X100521486Y-93307031D01*
X100537771Y-93318224D01*
X100543924Y-93323206D01*
X100549058Y-93327363D01*
X100554942Y-93330361D01*
X100611181Y-93359016D01*
X100616979Y-93362164D01*
X100671672Y-93393741D01*
X100671674Y-93393742D01*
X100677390Y-93397042D01*
X100691197Y-93401528D01*
X100709461Y-93409093D01*
X100716521Y-93412690D01*
X100722401Y-93415686D01*
X100789783Y-93433741D01*
X100796094Y-93435611D01*
X100862416Y-93457160D01*
X100876849Y-93458677D01*
X100896291Y-93462280D01*
X100910320Y-93466039D01*
X100916912Y-93466384D01*
X100916915Y-93466385D01*
X100979960Y-93469689D01*
X100986534Y-93470206D01*
X101004120Y-93472054D01*
X101004122Y-93472054D01*
X101007394Y-93472398D01*
X101028362Y-93472398D01*
X101034956Y-93472571D01*
X101098009Y-93475876D01*
X101098014Y-93475876D01*
X101104601Y-93476221D01*
X101118947Y-93473949D01*
X101138656Y-93472398D01*
X101689425Y-93472398D01*
X101757546Y-93492400D01*
X101796858Y-93532564D01*
X101896900Y-93695819D01*
X101896904Y-93695824D01*
X101899486Y-93700038D01*
X102068209Y-93897587D01*
X102265758Y-94066310D01*
X102487270Y-94202052D01*
X102491840Y-94203945D01*
X102491844Y-94203947D01*
X102722715Y-94299577D01*
X102727288Y-94301471D01*
X102815622Y-94322678D01*
X102975091Y-94360964D01*
X102975097Y-94360965D01*
X102979904Y-94362119D01*
X103209665Y-94380201D01*
X103276005Y-94405486D01*
X103318145Y-94462624D01*
X103325778Y-94505813D01*
X103325778Y-95827631D01*
X103305776Y-95895752D01*
X103252120Y-95942245D01*
X103198129Y-95953620D01*
X103187407Y-95953480D01*
X103156406Y-95953074D01*
X103150709Y-95954053D01*
X103150708Y-95954053D01*
X102944654Y-95989459D01*
X102944653Y-95989459D01*
X102938957Y-95990438D01*
X102731957Y-96066804D01*
X102726996Y-96069756D01*
X102726995Y-96069756D01*
X102561987Y-96167926D01*
X102542341Y-96179614D01*
X102376457Y-96325090D01*
X102239863Y-96498360D01*
X102137131Y-96693620D01*
X102071703Y-96904333D01*
X102045770Y-97123440D01*
X102060200Y-97343604D01*
X102061621Y-97349200D01*
X102061622Y-97349205D01*
X102099474Y-97498245D01*
X102114511Y-97557452D01*
X102206883Y-97757821D01*
X102334222Y-97938002D01*
X102492264Y-98091961D01*
X102497060Y-98095166D01*
X102497063Y-98095168D01*
X102581261Y-98151427D01*
X102675717Y-98214540D01*
X102681020Y-98216818D01*
X102681023Y-98216820D01*
X102830923Y-98281222D01*
X102878436Y-98301635D01*
X102958088Y-98319658D01*
X103087995Y-98349054D01*
X103088001Y-98349055D01*
X103093632Y-98350329D01*
X103099403Y-98350556D01*
X103099405Y-98350556D01*
X103167211Y-98353220D01*
X103314098Y-98358991D01*
X103423275Y-98343161D01*
X103526738Y-98328160D01*
X103526743Y-98328159D01*
X103532452Y-98327331D01*
X103537916Y-98325476D01*
X103537921Y-98325475D01*
X103735907Y-98258268D01*
X103735912Y-98258266D01*
X103741379Y-98256410D01*
X103933884Y-98148602D01*
X103965448Y-98122351D01*
X104103518Y-98007518D01*
X104104939Y-98009226D01*
X104158715Y-97979861D01*
X104229530Y-97984926D01*
X104274593Y-98013887D01*
X108638595Y-102377889D01*
X108672621Y-102440201D01*
X108675500Y-102466984D01*
X108675500Y-104382821D01*
X108655498Y-104450942D01*
X108601842Y-104497435D01*
X108531568Y-104507539D01*
X108463971Y-104475346D01*
X108307189Y-104330418D01*
X108307186Y-104330416D01*
X108302949Y-104326499D01*
X108116350Y-104208764D01*
X107911421Y-104127006D01*
X107788875Y-104102630D01*
X107725967Y-104069724D01*
X107692191Y-104013258D01*
X107656565Y-103886936D01*
X107558980Y-103689053D01*
X107426967Y-103512267D01*
X107264949Y-103362499D01*
X107078350Y-103244764D01*
X106873421Y-103163006D01*
X106867761Y-103161880D01*
X106867757Y-103161879D01*
X106662691Y-103121089D01*
X106662688Y-103121089D01*
X106657024Y-103119962D01*
X106651249Y-103119886D01*
X106651245Y-103119886D01*
X106540504Y-103118437D01*
X106436406Y-103117074D01*
X106430709Y-103118053D01*
X106430708Y-103118053D01*
X106224654Y-103153459D01*
X106224653Y-103153459D01*
X106218957Y-103154438D01*
X106011957Y-103230804D01*
X105822341Y-103343614D01*
X105656457Y-103489090D01*
X105519863Y-103662360D01*
X105417131Y-103857620D01*
X105406304Y-103892489D01*
X105363803Y-104029365D01*
X105324500Y-104088490D01*
X105259470Y-104116981D01*
X105243470Y-104118001D01*
X95192046Y-104118001D01*
X95123925Y-104097999D01*
X95102951Y-104081096D01*
X92211949Y-101190094D01*
X92177923Y-101127782D01*
X92182988Y-101056967D01*
X92220475Y-101004126D01*
X92254569Y-100975770D01*
X92322680Y-100893876D01*
X92391959Y-100810578D01*
X92391961Y-100810575D01*
X92395653Y-100806136D01*
X92503461Y-100613631D01*
X92505317Y-100608164D01*
X92505319Y-100608159D01*
X92572526Y-100410173D01*
X92572527Y-100410168D01*
X92574382Y-100404704D01*
X92575210Y-100398995D01*
X92575211Y-100398990D01*
X92605509Y-100190024D01*
X92606042Y-100186350D01*
X92607694Y-100123252D01*
X92587505Y-99903541D01*
X92527616Y-99691188D01*
X92430031Y-99493305D01*
X92381669Y-99428540D01*
X92301471Y-99321143D01*
X92301471Y-99321142D01*
X92298018Y-99316519D01*
X92200637Y-99226501D01*
X92140240Y-99170670D01*
X92140237Y-99170668D01*
X92136000Y-99166751D01*
X91949401Y-99049016D01*
X91744472Y-98967258D01*
X91738812Y-98966132D01*
X91738808Y-98966131D01*
X91533742Y-98925341D01*
X91533739Y-98925341D01*
X91528075Y-98924214D01*
X91522300Y-98924138D01*
X91522296Y-98924138D01*
X91411555Y-98922689D01*
X91307457Y-98921326D01*
X91301760Y-98922305D01*
X91301759Y-98922305D01*
X91095705Y-98957711D01*
X91095704Y-98957711D01*
X91090008Y-98958690D01*
X90883008Y-99035056D01*
X90693392Y-99147866D01*
X90527508Y-99293342D01*
X90523933Y-99297877D01*
X90523930Y-99297880D01*
X90521695Y-99300714D01*
X90520299Y-99301706D01*
X90519953Y-99302070D01*
X90519881Y-99302002D01*
X90463812Y-99341825D01*
X90392892Y-99345115D01*
X90333654Y-99311799D01*
X89873407Y-98851552D01*
X89839381Y-98789240D01*
X89837031Y-98773986D01*
X89831983Y-98719045D01*
X89831983Y-98719044D01*
X89831454Y-98713289D01*
X89771565Y-98500936D01*
X89673980Y-98303053D01*
X89609587Y-98216820D01*
X89545420Y-98130891D01*
X89545420Y-98130890D01*
X89541967Y-98126267D01*
X89421885Y-98015264D01*
X89384189Y-97980418D01*
X89384186Y-97980416D01*
X89379949Y-97976499D01*
X89193350Y-97858764D01*
X88988421Y-97777006D01*
X88982761Y-97775880D01*
X88982757Y-97775879D01*
X88777691Y-97735089D01*
X88777688Y-97735089D01*
X88772024Y-97733962D01*
X88766249Y-97733886D01*
X88766245Y-97733886D01*
X88655504Y-97732437D01*
X88551406Y-97731074D01*
X88545709Y-97732053D01*
X88545708Y-97732053D01*
X88339654Y-97767459D01*
X88339653Y-97767459D01*
X88333957Y-97768438D01*
X88126957Y-97844804D01*
X88121996Y-97847756D01*
X88121995Y-97847756D01*
X88004602Y-97917598D01*
X87937341Y-97957614D01*
X87771457Y-98103090D01*
X87727143Y-98159303D01*
X87669262Y-98200416D01*
X87598342Y-98203710D01*
X87536899Y-98168138D01*
X87506924Y-98115498D01*
X87481965Y-98027000D01*
X87456565Y-97936936D01*
X87358980Y-97739053D01*
X87355179Y-97733962D01*
X87230420Y-97566891D01*
X87230420Y-97566890D01*
X87226967Y-97562267D01*
X87225679Y-97561076D01*
X87195525Y-97498245D01*
X87204290Y-97427791D01*
X87230784Y-97388847D01*
X87839691Y-96779940D01*
X89368974Y-96779940D01*
X89383404Y-97000104D01*
X89384825Y-97005700D01*
X89384826Y-97005705D01*
X89416192Y-97129206D01*
X89437715Y-97213952D01*
X89440132Y-97219194D01*
X89440132Y-97219195D01*
X89478250Y-97301879D01*
X89530087Y-97414321D01*
X89657426Y-97594502D01*
X89815468Y-97748461D01*
X89820264Y-97751666D01*
X89820267Y-97751668D01*
X89904465Y-97807927D01*
X89998921Y-97871040D01*
X90004224Y-97873318D01*
X90004227Y-97873320D01*
X90193552Y-97954660D01*
X90201640Y-97958135D01*
X90269177Y-97973417D01*
X90411199Y-98005554D01*
X90411205Y-98005555D01*
X90416836Y-98006829D01*
X90422607Y-98007056D01*
X90422609Y-98007056D01*
X90490415Y-98009720D01*
X90637302Y-98015491D01*
X90746479Y-97999661D01*
X90849942Y-97984660D01*
X90849947Y-97984659D01*
X90855656Y-97983831D01*
X90861120Y-97981976D01*
X90861125Y-97981975D01*
X91059111Y-97914768D01*
X91059116Y-97914766D01*
X91064583Y-97912910D01*
X91257088Y-97805102D01*
X91270798Y-97793700D01*
X91422290Y-97667704D01*
X91426722Y-97664018D01*
X91511348Y-97562267D01*
X91564112Y-97498826D01*
X91564114Y-97498823D01*
X91567806Y-97494384D01*
X91675614Y-97301879D01*
X91677470Y-97296412D01*
X91677472Y-97296407D01*
X91744679Y-97098421D01*
X91744680Y-97098416D01*
X91746535Y-97092952D01*
X91747363Y-97087243D01*
X91747364Y-97087238D01*
X91773052Y-96910070D01*
X91778195Y-96874598D01*
X91779847Y-96811500D01*
X91759658Y-96591789D01*
X91699769Y-96379436D01*
X91602184Y-96181553D01*
X91516497Y-96066804D01*
X91473624Y-96009391D01*
X91473624Y-96009390D01*
X91470171Y-96004767D01*
X91352239Y-95895752D01*
X91312393Y-95858918D01*
X91312390Y-95858916D01*
X91308153Y-95854999D01*
X91121554Y-95737264D01*
X90916625Y-95655506D01*
X90910965Y-95654380D01*
X90910961Y-95654379D01*
X90705895Y-95613589D01*
X90705892Y-95613589D01*
X90700228Y-95612462D01*
X90694453Y-95612386D01*
X90694449Y-95612386D01*
X90583708Y-95610937D01*
X90479610Y-95609574D01*
X90473913Y-95610553D01*
X90473912Y-95610553D01*
X90267858Y-95645959D01*
X90267857Y-95645959D01*
X90262161Y-95646938D01*
X90055161Y-95723304D01*
X90050200Y-95726256D01*
X90050199Y-95726256D01*
X89879804Y-95827631D01*
X89865545Y-95836114D01*
X89699661Y-95981590D01*
X89563067Y-96154860D01*
X89460335Y-96350120D01*
X89394907Y-96560833D01*
X89368974Y-96779940D01*
X87839691Y-96779940D01*
X88961986Y-95657646D01*
X90699737Y-93919895D01*
X90762049Y-93885869D01*
X90816640Y-93886097D01*
X90895996Y-93904054D01*
X90895999Y-93904054D01*
X90901632Y-93905329D01*
X90907403Y-93905556D01*
X90907405Y-93905556D01*
X90975211Y-93908220D01*
X91122098Y-93913991D01*
X91235234Y-93897587D01*
X91334738Y-93883160D01*
X91334743Y-93883159D01*
X91340452Y-93882331D01*
X91345916Y-93880476D01*
X91345921Y-93880475D01*
X91543907Y-93813268D01*
X91543912Y-93813266D01*
X91549379Y-93811410D01*
X91741884Y-93703602D01*
X91768356Y-93681586D01*
X91907086Y-93566204D01*
X91911518Y-93562518D01*
X91986327Y-93472571D01*
X92048908Y-93397326D01*
X92048910Y-93397323D01*
X92052602Y-93392884D01*
X92139510Y-93237699D01*
X92157586Y-93205422D01*
X92157587Y-93205420D01*
X92160410Y-93200379D01*
X92162266Y-93194912D01*
X92162268Y-93194907D01*
X92229475Y-92996921D01*
X92229476Y-92996916D01*
X92231331Y-92991452D01*
X92232159Y-92985743D01*
X92232160Y-92985738D01*
X92259642Y-92796193D01*
X92262991Y-92773098D01*
X92264643Y-92710000D01*
X92244454Y-92490289D01*
X92237818Y-92466758D01*
X92186135Y-92283502D01*
X92186134Y-92283500D01*
X92184565Y-92277936D01*
X92185406Y-92277699D01*
X92180073Y-92211883D01*
X92213506Y-92149252D01*
X92275494Y-92114639D01*
X92303441Y-92111500D01*
X99259455Y-92111500D01*
X99327576Y-92131502D01*
G37*
%TD.AperFunction*%
%TA.AperFunction,Conductor*%
G36*
X106875032Y-96096291D02*
G01*
X106920095Y-96125252D01*
X107843492Y-97048649D01*
X107857436Y-97056263D01*
X107859269Y-97056132D01*
X107865884Y-97051881D01*
X108083822Y-96833943D01*
X108146134Y-96799917D01*
X108216949Y-96804982D01*
X108273785Y-96847529D01*
X108282310Y-96860516D01*
X108345681Y-96971423D01*
X108348212Y-96976080D01*
X108737889Y-97731074D01*
X108770212Y-97793700D01*
X108772573Y-97798524D01*
X108869390Y-98007518D01*
X109159308Y-98633354D01*
X109161463Y-98638277D01*
X109512266Y-99488875D01*
X109514206Y-99493882D01*
X109765813Y-100186350D01*
X109828407Y-100358622D01*
X109830130Y-100363699D01*
X109883474Y-100532629D01*
X109946305Y-100731606D01*
X109947744Y-100802588D01*
X109910578Y-100863080D01*
X109846608Y-100893876D01*
X109776144Y-100885198D01*
X109737058Y-100858642D01*
X106967728Y-98089312D01*
X106933702Y-98027000D01*
X106938767Y-97956185D01*
X106981314Y-97899349D01*
X106999622Y-97887949D01*
X107022885Y-97876096D01*
X107087574Y-97829097D01*
X107095087Y-97822680D01*
X107560650Y-97357117D01*
X107568264Y-97343173D01*
X107568133Y-97341340D01*
X107563882Y-97334725D01*
X106637252Y-96408095D01*
X106603226Y-96345783D01*
X106608291Y-96274968D01*
X106637252Y-96229905D01*
X106741905Y-96125252D01*
X106804217Y-96091226D01*
X106875032Y-96096291D01*
G37*
%TD.AperFunction*%
%TD*%
M02*
