M48
; DRILL file {KiCad (6.0.4-0)} date Friday, 23 December 2022 at 16.58.16
; FORMAT={-:-/ absolute / inch / decimal}
; #@! TF.CreationDate,2022-12-23T16:58:16+01:00
; #@! TF.GenerationSoftware,Kicad,Pcbnew,(6.0.4-0)
; #@! TF.FileFunction,Plated,1,4,PTH
FMAT,2
INCH
; #@! TA.AperFunction,Plated,PTH,ViaDrill
T1C0.0157
; #@! TA.AperFunction,Plated,PTH,ComponentDrill
T2C0.0394
; #@! TA.AperFunction,Plated,PTH,ComponentDrill
T3C0.0866
%
G90
G05
T1
X2.755Y-3.935
X2.795Y-4.5117
X2.85Y-4.15
X2.875Y-3.71
X2.94Y-4.675
X2.9652Y-4.4348
X2.9678Y-4.2941
X2.975Y-3.645
X3.0Y-4.15
X3.01Y-4.875
X3.015Y-4.705
X3.055Y-3.57
X3.055Y-4.295
X3.0871Y-4.2352
X3.095Y-4.035
X3.1Y-4.945
X3.105Y-3.56
X3.125Y-4.125
X3.13Y-4.67
X3.16Y-4.38
X3.1675Y-4.3354
X3.17Y-4.065
X3.175Y-3.78
X3.2374Y-4.5421
X3.275Y-4.585
X3.285Y-4.1826
X3.3Y-4.8427
X3.315Y-4.3091
X3.32Y-3.495
X3.345Y-3.825
X3.345Y-4.58
X3.3477Y-4.2173
X3.3488Y-4.8512
X3.3694Y-4.2756
X3.38Y-3.655
X3.3989Y-3.8728
X3.4284Y-4.4456
X3.435Y-5.0
X3.4665Y-3.6148
X3.4776Y-4.7941
X3.49Y-3.895
X3.52Y-4.94
X3.54Y-3.505
X3.5608Y-4.9066
X3.5659Y-3.8115
X3.585Y-3.65
X3.5957Y-4.4157
X3.5985Y-3.9419
X3.6Y-4.875
X3.69Y-4.605
X3.75Y-4.8936
X3.76Y-4.47
X3.775Y-3.505
X3.775Y-3.935
X3.82Y-4.035
X3.85Y-3.885
X3.86Y-4.385
X3.87Y-3.98
X3.875Y-4.64
X3.885Y-4.03
X3.9Y-4.245
X3.9067Y-3.5047
X3.91Y-4.575
X3.915Y-4.365
X3.945Y-4.88
X3.95Y-3.665
X4.015Y-4.835
X4.025Y-4.645
X4.03Y-4.33
X4.0349Y-4.3889
X4.065Y-3.825
X4.07Y-3.89
X4.0824Y-4.3753
X4.12Y-3.95
X4.135Y-4.37
X4.135Y-4.7
X4.14Y-3.9
X4.1941Y-4.107
X4.2Y-4.165
X4.21Y-4.54
X4.21Y-4.64
X4.215Y-4.225
X4.235Y-4.145
X4.24Y-3.865
X4.2582Y-4.2557
X4.267Y-4.2941
X4.285Y-3.92
X4.315Y-4.395
T2
X3.0699Y-4.7885
X3.1406Y-4.8592
X3.2113Y-4.9299
X3.282Y-5.0006
X3.9938Y-3.58
X4.0645Y-3.6507
X4.1352Y-3.7214
X4.2059Y-3.7921
T3
X2.84Y-3.8408
X4.08Y-4.5558
T0
M30
