%TF.GenerationSoftware,KiCad,Pcbnew,(6.0.4-0)*%
%TF.CreationDate,2022-11-29T10:20:57+01:00*%
%TF.ProjectId,RoundScanner,526f756e-6453-4636-916e-6e65722e6b69,2*%
%TF.SameCoordinates,Original*%
%TF.FileFunction,Copper,L4,Bot*%
%TF.FilePolarity,Positive*%
%FSLAX46Y46*%
G04 Gerber Fmt 4.6, Leading zero omitted, Abs format (unit mm)*
G04 Created by KiCad (PCBNEW (6.0.4-0)) date 2022-11-29 10:20:57*
%MOMM*%
%LPD*%
G01*
G04 APERTURE LIST*
G04 Aperture macros list*
%AMRoundRect*
0 Rectangle with rounded corners*
0 $1 Rounding radius*
0 $2 $3 $4 $5 $6 $7 $8 $9 X,Y pos of 4 corners*
0 Add a 4 corners polygon primitive as box body*
4,1,4,$2,$3,$4,$5,$6,$7,$8,$9,$2,$3,0*
0 Add four circle primitives for the rounded corners*
1,1,$1+$1,$2,$3*
1,1,$1+$1,$4,$5*
1,1,$1+$1,$6,$7*
1,1,$1+$1,$8,$9*
0 Add four rect primitives between the rounded corners*
20,1,$1+$1,$2,$3,$4,$5,0*
20,1,$1+$1,$4,$5,$6,$7,0*
20,1,$1+$1,$6,$7,$8,$9,0*
20,1,$1+$1,$8,$9,$2,$3,0*%
%AMHorizOval*
0 Thick line with rounded ends*
0 $1 width*
0 $2 $3 position (X,Y) of the first rounded end (center of the circle)*
0 $4 $5 position (X,Y) of the second rounded end (center of the circle)*
0 Add line between two ends*
20,1,$1,$2,$3,$4,$5,0*
0 Add two circle primitives to create the rounded ends*
1,1,$1,$2,$3*
1,1,$1,$4,$5*%
%AMRotRect*
0 Rectangle, with rotation*
0 The origin of the aperture is its center*
0 $1 length*
0 $2 width*
0 $3 Rotation angle, in degrees counterclockwise*
0 Add horizontal line*
21,1,$1,$2,0,0,$3*%
G04 Aperture macros list end*
%TA.AperFunction,ComponentPad*%
%ADD10C,3.500000*%
%TD*%
%TA.AperFunction,ComponentPad*%
%ADD11RotRect,1.700000X1.700000X45.000000*%
%TD*%
%TA.AperFunction,ComponentPad*%
%ADD12HorizOval,1.700000X0.000000X0.000000X0.000000X0.000000X0*%
%TD*%
%TA.AperFunction,ComponentPad*%
%ADD13RotRect,1.700000X1.700000X225.000000*%
%TD*%
%TA.AperFunction,ComponentPad*%
%ADD14HorizOval,1.700000X0.000000X0.000000X0.000000X0.000000X0*%
%TD*%
%TA.AperFunction,SMDPad,CuDef*%
%ADD15RoundRect,0.150000X-0.150000X-0.625000X0.150000X-0.625000X0.150000X0.625000X-0.150000X0.625000X0*%
%TD*%
%TA.AperFunction,SMDPad,CuDef*%
%ADD16RoundRect,0.250000X-0.350000X-0.650000X0.350000X-0.650000X0.350000X0.650000X-0.350000X0.650000X0*%
%TD*%
%TA.AperFunction,ViaPad*%
%ADD17C,0.800000*%
%TD*%
%TA.AperFunction,Conductor*%
%ADD18C,0.500000*%
%TD*%
%TA.AperFunction,Conductor*%
%ADD19C,0.250000*%
%TD*%
G04 APERTURE END LIST*
D10*
%TO.P,H2,1,1*%
%TO.N,GND*%
X72136000Y-97556000D03*
%TD*%
%TO.P,H1,1,1*%
%TO.N,GND*%
X103632000Y-115717000D03*
%TD*%
D11*
%TO.P,J4,1,Pin_1*%
%TO.N,GND*%
X106299000Y-96139000D03*
D12*
%TO.P,J4,2,Pin_2*%
%TO.N,LED RESET*%
X104502949Y-94342949D03*
%TO.P,J4,3,Pin_3*%
%TO.N,AS7341_INT*%
X102706898Y-92546898D03*
%TO.P,J4,4,Pin_4*%
%TO.N,DRDY_INT*%
X100910846Y-90750846D03*
%TD*%
D13*
%TO.P,J1,1,Pin_1*%
%TO.N,GND*%
X77975672Y-121628317D03*
D14*
%TO.P,J1,2,Pin_2*%
%TO.N,+3V3*%
X79771723Y-123424368D03*
%TO.P,J1,3,Pin_3*%
%TO.N,SCL*%
X81567774Y-125220419D03*
%TO.P,J1,4,Pin_4*%
%TO.N,SDA*%
X83363826Y-127016471D03*
%TD*%
D15*
%TO.P,J3,1,Pin_1*%
%TO.N,GND*%
X88416000Y-126968000D03*
%TO.P,J3,2,Pin_2*%
%TO.N,+3V3*%
X89416000Y-126968000D03*
%TO.P,J3,3,Pin_3*%
%TO.N,SCL*%
X90416000Y-126968000D03*
%TO.P,J3,4,Pin_4*%
%TO.N,SDA*%
X91416000Y-126968000D03*
D16*
%TO.P,J3,MP*%
%TO.N,N/C*%
X87116000Y-123093000D03*
X92716000Y-123093000D03*
%TD*%
D17*
%TO.N,+2V5*%
X78613000Y-107696000D03*
X84963000Y-97155000D03*
X88392000Y-122682000D03*
X83185000Y-116459000D03*
X91059000Y-92710000D03*
%TO.N,Net-(C2-Pad2)*%
X88048500Y-91816701D03*
X103251000Y-97155000D03*
%TO.N,+3V3*%
X98552000Y-125603000D03*
X90574204Y-96811500D03*
X89492676Y-125907922D03*
X76200000Y-105410000D03*
X103112663Y-122848000D03*
X106019557Y-104177500D03*
X74676000Y-118745000D03*
X93726000Y-116967000D03*
X86106000Y-109093000D03*
X82042000Y-120142000D03*
X70992059Y-114597111D03*
X105029000Y-110998000D03*
X91402051Y-100123252D03*
X91331250Y-112159250D03*
%TO.N,SDA*%
X74930000Y-109347000D03*
X102743000Y-110998000D03*
X91567000Y-124587000D03*
X80264000Y-111252000D03*
%TO.N,Net-(C8-Pad1)*%
X80645000Y-96012000D03*
X78867000Y-90424000D03*
%TO.N,LED RESET*%
X109601000Y-111633000D03*
%TO.N,Net-(R25-Pad1)*%
X98679000Y-115697000D03*
X108157333Y-108095500D03*
%TO.N,Net-(R26-Pad1)*%
X107061000Y-107315000D03*
X101061788Y-111146613D03*
%TO.N,Net-(R27-Pad1)*%
X106680000Y-105791000D03*
X84836000Y-99441000D03*
%TO.N,Net-(R28-Pad1)*%
X107569000Y-105283000D03*
X88646000Y-98933000D03*
%TO.N,DRDY_INT*%
X72390000Y-105410000D03*
%TO.N,SCL*%
X101981000Y-110109000D03*
X75311000Y-112649000D03*
X90447204Y-123862500D03*
%TO.N,+1V8*%
X80391000Y-110109000D03*
X77597000Y-109093000D03*
X81280000Y-114046000D03*
%TO.N,Net-(C12-Pad1)*%
X87947500Y-121475500D03*
X87884000Y-117094000D03*
%TO.N,/ADC/AIN2+*%
X75565000Y-92583000D03*
X101334663Y-118618000D03*
%TO.N,/ADC/AIN2-*%
X86995000Y-112903000D03*
X77597000Y-90678000D03*
%TO.N,GND*%
X87352950Y-125998450D03*
X84963000Y-116332000D03*
X90551000Y-104140000D03*
X85852000Y-92837000D03*
X108380648Y-109069736D03*
X99187000Y-101346000D03*
X68580000Y-105029000D03*
X97790000Y-89789000D03*
X95123000Y-94361000D03*
X84201000Y-109407502D03*
X70231000Y-100076000D03*
X90678000Y-90043000D03*
X98286663Y-122936000D03*
X77089000Y-124333000D03*
X85217000Y-107569000D03*
X105791000Y-119126000D03*
X76708000Y-97917000D03*
X80899000Y-103505000D03*
X79121000Y-102489000D03*
X104013000Y-99187000D03*
X79502000Y-118618000D03*
X97663000Y-99060000D03*
%TO.N,AS7341_INT*%
X83439000Y-106238498D03*
%TD*%
D18*
%TO.N,+2V5*%
X83185000Y-116459000D02*
X82423000Y-115697000D01*
X87755750Y-124442520D02*
X86476250Y-124442520D01*
X84963000Y-97155000D02*
X85979000Y-97155000D01*
X85979000Y-97155000D02*
X90424000Y-92710000D01*
X86476250Y-124442520D02*
X83185000Y-121151270D01*
X83185000Y-121151270D02*
X83185000Y-116459000D01*
X88392000Y-123806270D02*
X87755750Y-124442520D01*
X88392000Y-122682000D02*
X88392000Y-123806270D01*
X79248000Y-107696000D02*
X82423000Y-110871000D01*
X79248000Y-107696000D02*
X78613000Y-107696000D01*
X82423000Y-115697000D02*
X82423000Y-110871000D01*
X90424000Y-92710000D02*
X91059000Y-92710000D01*
%TO.N,+3V3*%
X91402051Y-100123252D02*
X91402051Y-97639347D01*
X89416000Y-125984598D02*
X89492676Y-125907922D01*
X89416000Y-126968000D02*
X89416000Y-125984598D01*
X91402051Y-97639347D02*
X90574204Y-96811500D01*
D19*
%TO.N,SDA*%
X91416000Y-124738000D02*
X91567000Y-124587000D01*
X91416000Y-126968000D02*
X91416000Y-124738000D01*
%TO.N,LED RESET*%
X109601000Y-111633000D02*
X109601000Y-102031439D01*
X104251278Y-96681717D02*
X104251278Y-94253633D01*
X109601000Y-102031439D02*
X104251278Y-96681717D01*
%TO.N,Net-(R25-Pad1)*%
X98679000Y-115697000D02*
X99322602Y-115697000D01*
X104304499Y-110697901D02*
X106906900Y-108095500D01*
X104304499Y-110715103D02*
X104304499Y-110697901D01*
X99322602Y-115697000D02*
X104304499Y-110715103D01*
X106906900Y-108095500D02*
X108157333Y-108095500D01*
%TO.N,Net-(R26-Pad1)*%
X101061788Y-109123212D02*
X101061788Y-111146613D01*
X102870000Y-107315000D02*
X101061788Y-109123212D01*
X107061000Y-107315000D02*
X102870000Y-107315000D01*
%TO.N,Net-(R27-Pad1)*%
X94107000Y-106045000D02*
X106426000Y-106045000D01*
X87503000Y-99441000D02*
X84836000Y-99441000D01*
X106426000Y-106045000D02*
X106680000Y-105791000D01*
X87503000Y-99441000D02*
X94107000Y-106045000D01*
%TO.N,Net-(R28-Pad1)*%
X107569000Y-105283000D02*
X107188000Y-104902000D01*
X107188000Y-104902000D02*
X94615000Y-104902000D01*
X94615000Y-104902000D02*
X88646000Y-98933000D01*
%TO.N,SCL*%
X90416000Y-126968000D02*
X90416000Y-123893704D01*
X90416000Y-123893704D02*
X90447204Y-123862500D01*
%TO.N,+1V8*%
X81280000Y-114046000D02*
X81280000Y-110998000D01*
X77597000Y-109093000D02*
X78613000Y-110109000D01*
X78613000Y-110109000D02*
X80391000Y-110109000D01*
X81280000Y-110998000D02*
X80391000Y-110109000D01*
%TO.N,GND*%
X104293384Y-113157000D02*
X104293384Y-114336210D01*
X88322500Y-126968000D02*
X87352950Y-125998450D01*
X77975672Y-121628317D02*
X77975672Y-120144328D01*
X77975672Y-120144328D02*
X79502000Y-118618000D01*
X104293384Y-113157000D02*
X108380648Y-109069736D01*
%TO.N,AS7341_INT*%
X100157635Y-91821000D02*
X100883533Y-92546898D01*
X100883533Y-92546898D02*
X102706898Y-92546898D01*
X90500518Y-91821000D02*
X85928518Y-96393000D01*
X100157635Y-91821000D02*
X90500518Y-91821000D01*
X85928518Y-96393000D02*
X83439000Y-96393000D01*
X83439000Y-96393000D02*
X83439000Y-106238498D01*
%TD*%
%TA.AperFunction,Conductor*%
%TO.N,GND*%
G36*
X99414045Y-88150756D02*
G01*
X100033095Y-88486703D01*
X100037732Y-88489350D01*
X100694653Y-88883003D01*
X100695766Y-88883670D01*
X100743917Y-88935842D01*
X100756218Y-89005765D01*
X100728763Y-89071238D01*
X100670269Y-89111474D01*
X100653682Y-89115481D01*
X100651852Y-89115625D01*
X100647043Y-89116779D01*
X100647040Y-89116780D01*
X100525544Y-89145949D01*
X100399236Y-89176273D01*
X100394665Y-89178166D01*
X100394663Y-89178167D01*
X100163792Y-89273797D01*
X100163788Y-89273799D01*
X100159218Y-89275692D01*
X99937706Y-89411434D01*
X99740157Y-89580157D01*
X99571434Y-89777706D01*
X99435692Y-89999218D01*
X99433799Y-90003788D01*
X99433797Y-90003792D01*
X99348364Y-90210046D01*
X99336273Y-90239236D01*
X99335118Y-90244048D01*
X99276780Y-90487039D01*
X99276779Y-90487045D01*
X99275625Y-90491852D01*
X99255242Y-90750846D01*
X99255630Y-90755776D01*
X99255630Y-90755778D01*
X99255932Y-90759616D01*
X99241335Y-90829096D01*
X99191492Y-90879655D01*
X99130320Y-90895500D01*
X90583276Y-90895500D01*
X90563567Y-90893949D01*
X90549221Y-90891677D01*
X90542634Y-90892022D01*
X90542629Y-90892022D01*
X90479576Y-90895327D01*
X90472982Y-90895500D01*
X90452014Y-90895500D01*
X90448742Y-90895844D01*
X90448740Y-90895844D01*
X90431154Y-90897692D01*
X90424580Y-90898209D01*
X90361535Y-90901513D01*
X90361532Y-90901514D01*
X90354940Y-90901859D01*
X90340911Y-90905618D01*
X90321469Y-90909221D01*
X90307036Y-90910738D01*
X90240714Y-90932287D01*
X90234403Y-90934157D01*
X90167021Y-90952212D01*
X90161141Y-90955208D01*
X90154081Y-90958805D01*
X90135818Y-90966370D01*
X90122010Y-90970856D01*
X90116294Y-90974156D01*
X90116292Y-90974157D01*
X90061599Y-91005734D01*
X90055801Y-91008882D01*
X90008604Y-91032930D01*
X89993678Y-91040535D01*
X89988546Y-91044690D01*
X89988544Y-91044692D01*
X89982391Y-91049674D01*
X89966106Y-91060867D01*
X89953526Y-91068130D01*
X89948617Y-91072550D01*
X89948613Y-91072553D01*
X89901697Y-91114796D01*
X89896682Y-91119080D01*
X89888043Y-91126076D01*
X89880388Y-91132275D01*
X89865573Y-91147090D01*
X89860789Y-91151631D01*
X89817039Y-91191024D01*
X89808949Y-91198308D01*
X89802281Y-91207486D01*
X89800414Y-91210056D01*
X89787572Y-91225091D01*
X89425941Y-91586722D01*
X89363629Y-91620748D01*
X89292814Y-91615683D01*
X89235978Y-91573136D01*
X89215577Y-91531828D01*
X89175634Y-91390201D01*
X89174065Y-91384637D01*
X89076480Y-91186754D01*
X89035799Y-91132275D01*
X88947920Y-91014592D01*
X88947920Y-91014591D01*
X88944467Y-91009968D01*
X88846515Y-90919422D01*
X88786689Y-90864119D01*
X88786686Y-90864117D01*
X88782449Y-90860200D01*
X88595850Y-90742465D01*
X88390921Y-90660707D01*
X88385261Y-90659581D01*
X88385257Y-90659580D01*
X88180191Y-90618790D01*
X88180188Y-90618790D01*
X88174524Y-90617663D01*
X88168749Y-90617587D01*
X88168745Y-90617587D01*
X88058004Y-90616138D01*
X87953906Y-90614775D01*
X87948209Y-90615754D01*
X87948208Y-90615754D01*
X87742154Y-90651160D01*
X87742153Y-90651160D01*
X87736457Y-90652139D01*
X87529457Y-90728505D01*
X87524496Y-90731457D01*
X87524495Y-90731457D01*
X87417893Y-90794879D01*
X87339841Y-90841315D01*
X87173957Y-90986791D01*
X87037363Y-91160061D01*
X86934631Y-91355321D01*
X86869203Y-91566034D01*
X86843270Y-91785141D01*
X86857700Y-92005305D01*
X86859121Y-92010901D01*
X86859122Y-92010906D01*
X86894686Y-92150936D01*
X86912011Y-92219153D01*
X87004383Y-92419522D01*
X87131722Y-92599703D01*
X87289764Y-92753662D01*
X87294560Y-92756867D01*
X87294563Y-92756869D01*
X87440559Y-92854420D01*
X87473217Y-92876241D01*
X87478520Y-92878519D01*
X87478523Y-92878521D01*
X87670629Y-92961056D01*
X87675936Y-92963336D01*
X87722470Y-92973866D01*
X87757578Y-92981810D01*
X87819605Y-93016353D01*
X87853109Y-93078947D01*
X87847455Y-93149718D01*
X87818865Y-93193798D01*
X85582068Y-95430595D01*
X85519756Y-95464621D01*
X85492973Y-95467500D01*
X83341726Y-95467500D01*
X83335266Y-95468873D01*
X83335267Y-95468873D01*
X83300478Y-95476267D01*
X83287454Y-95478330D01*
X83252082Y-95482048D01*
X83252081Y-95482048D01*
X83245518Y-95482738D01*
X83239240Y-95484778D01*
X83239239Y-95484778D01*
X83205419Y-95495767D01*
X83192679Y-95499181D01*
X83157891Y-95506575D01*
X83157887Y-95506576D01*
X83151429Y-95507949D01*
X83112899Y-95525104D01*
X83100594Y-95529826D01*
X83066779Y-95540813D01*
X83066777Y-95540814D01*
X83060492Y-95542856D01*
X83025281Y-95563185D01*
X83023966Y-95563944D01*
X83012235Y-95569921D01*
X82973701Y-95587078D01*
X82968358Y-95590960D01*
X82939588Y-95611862D01*
X82928529Y-95619043D01*
X82897733Y-95636824D01*
X82897729Y-95636827D01*
X82892008Y-95640130D01*
X82887098Y-95644551D01*
X82860673Y-95668344D01*
X82850423Y-95676644D01*
X82816308Y-95701431D01*
X82788078Y-95732783D01*
X82778783Y-95742078D01*
X82747431Y-95770308D01*
X82743548Y-95775653D01*
X82722644Y-95804424D01*
X82714344Y-95814673D01*
X82686130Y-95846008D01*
X82682827Y-95851729D01*
X82682824Y-95851733D01*
X82665043Y-95882529D01*
X82657862Y-95893588D01*
X82633078Y-95927701D01*
X82615921Y-95966235D01*
X82609945Y-95977963D01*
X82588856Y-96014492D01*
X82586814Y-96020777D01*
X82586813Y-96020779D01*
X82575826Y-96054594D01*
X82571104Y-96066899D01*
X82553949Y-96105429D01*
X82552576Y-96111887D01*
X82552575Y-96111891D01*
X82545181Y-96146679D01*
X82541768Y-96159417D01*
X82528738Y-96199518D01*
X82528048Y-96206081D01*
X82528048Y-96206082D01*
X82524330Y-96241454D01*
X82522267Y-96254478D01*
X82516045Y-96283754D01*
X82513500Y-96295726D01*
X82513500Y-105429535D01*
X82493498Y-105497656D01*
X82486450Y-105507540D01*
X82427863Y-105581858D01*
X82325131Y-105777118D01*
X82259703Y-105987831D01*
X82233770Y-106206938D01*
X82248200Y-106427102D01*
X82249621Y-106432698D01*
X82249622Y-106432703D01*
X82295664Y-106613991D01*
X82302511Y-106640950D01*
X82304928Y-106646192D01*
X82304928Y-106646193D01*
X82363432Y-106773097D01*
X82394883Y-106841319D01*
X82522222Y-107021500D01*
X82680264Y-107175459D01*
X82685060Y-107178664D01*
X82685063Y-107178666D01*
X82768805Y-107234620D01*
X82863717Y-107298038D01*
X82869020Y-107300316D01*
X82869023Y-107300318D01*
X83061129Y-107382853D01*
X83066436Y-107385133D01*
X83146088Y-107403156D01*
X83275995Y-107432552D01*
X83276001Y-107432553D01*
X83281632Y-107433827D01*
X83287403Y-107434054D01*
X83287405Y-107434054D01*
X83355211Y-107436718D01*
X83502098Y-107442489D01*
X83611275Y-107426659D01*
X83714738Y-107411658D01*
X83714743Y-107411657D01*
X83720452Y-107410829D01*
X83725916Y-107408974D01*
X83725921Y-107408973D01*
X83923907Y-107341766D01*
X83923912Y-107341764D01*
X83929379Y-107339908D01*
X84121884Y-107232100D01*
X84291518Y-107091016D01*
X84388858Y-106973978D01*
X84428908Y-106925824D01*
X84428910Y-106925821D01*
X84432602Y-106921382D01*
X84527906Y-106751204D01*
X84537586Y-106733920D01*
X84537587Y-106733918D01*
X84540410Y-106728877D01*
X84542266Y-106723410D01*
X84542268Y-106723405D01*
X84609475Y-106525419D01*
X84609476Y-106525414D01*
X84611331Y-106519950D01*
X84612159Y-106514241D01*
X84612160Y-106514236D01*
X84642458Y-106305270D01*
X84642991Y-106301596D01*
X84644643Y-106238498D01*
X84624454Y-106018787D01*
X84622772Y-106012821D01*
X84566134Y-105811998D01*
X84564565Y-105806434D01*
X84466980Y-105608551D01*
X84389542Y-105504849D01*
X84364810Y-105438299D01*
X84364500Y-105429460D01*
X84364500Y-100722944D01*
X84384502Y-100654823D01*
X84438158Y-100608330D01*
X84508432Y-100598226D01*
X84518301Y-100600050D01*
X84595138Y-100617436D01*
X84672996Y-100635054D01*
X84672999Y-100635054D01*
X84678632Y-100636329D01*
X84684403Y-100636556D01*
X84684405Y-100636556D01*
X84752211Y-100639220D01*
X84899098Y-100644991D01*
X85008275Y-100629161D01*
X85111738Y-100614160D01*
X85111743Y-100614159D01*
X85117452Y-100613331D01*
X85122916Y-100611476D01*
X85122921Y-100611475D01*
X85320907Y-100544268D01*
X85320912Y-100544266D01*
X85326379Y-100542410D01*
X85518884Y-100434602D01*
X85548257Y-100410173D01*
X85565747Y-100395626D01*
X85630911Y-100367445D01*
X85646317Y-100366500D01*
X87067455Y-100366500D01*
X87135576Y-100386502D01*
X87156550Y-100403405D01*
X93394054Y-106640909D01*
X93406893Y-106655941D01*
X93415431Y-106667692D01*
X93420333Y-106672105D01*
X93420334Y-106672107D01*
X93467271Y-106714369D01*
X93472055Y-106718910D01*
X93486870Y-106733725D01*
X93489434Y-106735801D01*
X93503164Y-106746920D01*
X93508179Y-106751204D01*
X93555095Y-106793447D01*
X93555099Y-106793450D01*
X93560008Y-106797870D01*
X93572588Y-106805133D01*
X93588873Y-106816326D01*
X93592902Y-106819588D01*
X93600160Y-106825465D01*
X93606044Y-106828463D01*
X93662283Y-106857118D01*
X93668081Y-106860266D01*
X93722774Y-106891843D01*
X93722776Y-106891844D01*
X93728492Y-106895144D01*
X93742299Y-106899630D01*
X93760563Y-106907195D01*
X93767623Y-106910792D01*
X93773503Y-106913788D01*
X93840885Y-106931843D01*
X93847196Y-106933713D01*
X93913518Y-106955262D01*
X93927951Y-106956779D01*
X93947393Y-106960382D01*
X93961422Y-106964141D01*
X93968014Y-106964486D01*
X93968017Y-106964487D01*
X94031062Y-106967791D01*
X94037636Y-106968308D01*
X94055222Y-106970156D01*
X94055224Y-106970156D01*
X94058496Y-106970500D01*
X94079464Y-106970500D01*
X94086058Y-106970673D01*
X94149111Y-106973978D01*
X94149116Y-106973978D01*
X94155703Y-106974323D01*
X94170049Y-106972051D01*
X94189758Y-106970500D01*
X101601455Y-106970500D01*
X101669576Y-106990502D01*
X101716069Y-107044158D01*
X101726173Y-107114432D01*
X101696679Y-107179012D01*
X101690550Y-107185595D01*
X100465880Y-108410265D01*
X100450852Y-108423102D01*
X100439096Y-108431643D01*
X100434683Y-108436545D01*
X100434681Y-108436546D01*
X100392419Y-108483483D01*
X100387878Y-108488267D01*
X100373063Y-108503082D01*
X100370987Y-108505646D01*
X100359868Y-108519376D01*
X100355584Y-108524391D01*
X100313341Y-108571307D01*
X100313338Y-108571311D01*
X100308918Y-108576220D01*
X100301657Y-108588797D01*
X100290462Y-108605085D01*
X100285480Y-108611238D01*
X100281323Y-108616372D01*
X100278325Y-108622256D01*
X100249670Y-108678495D01*
X100246522Y-108684293D01*
X100227608Y-108717053D01*
X100211644Y-108744704D01*
X100207158Y-108758511D01*
X100199593Y-108776775D01*
X100193000Y-108789715D01*
X100191292Y-108796088D01*
X100191292Y-108796089D01*
X100174947Y-108857090D01*
X100173075Y-108863408D01*
X100151526Y-108929730D01*
X100150836Y-108936296D01*
X100150009Y-108944163D01*
X100146406Y-108963605D01*
X100142647Y-108977634D01*
X100142302Y-108984226D01*
X100142301Y-108984229D01*
X100138997Y-109047274D01*
X100138480Y-109053848D01*
X100136632Y-109071434D01*
X100136288Y-109074708D01*
X100136288Y-109095676D01*
X100136115Y-109102270D01*
X100133230Y-109157320D01*
X100132465Y-109171915D01*
X100133497Y-109178431D01*
X100134737Y-109186259D01*
X100136288Y-109205970D01*
X100136288Y-110337650D01*
X100116286Y-110405771D01*
X100109238Y-110415655D01*
X100050651Y-110489973D01*
X99947919Y-110685233D01*
X99882491Y-110895946D01*
X99856558Y-111115053D01*
X99870988Y-111335217D01*
X99872409Y-111340813D01*
X99872410Y-111340818D01*
X99919105Y-111524676D01*
X99925299Y-111549065D01*
X99927716Y-111554307D01*
X99927716Y-111554308D01*
X99995377Y-111701074D01*
X100017671Y-111749434D01*
X100145010Y-111929615D01*
X100303052Y-112083574D01*
X100307848Y-112086779D01*
X100307851Y-112086781D01*
X100416309Y-112159250D01*
X100486505Y-112206153D01*
X100491808Y-112208431D01*
X100491811Y-112208433D01*
X100569531Y-112241824D01*
X100689224Y-112293248D01*
X100755877Y-112308330D01*
X100898783Y-112340667D01*
X100898789Y-112340668D01*
X100904420Y-112341942D01*
X100910191Y-112342169D01*
X100910193Y-112342169D01*
X101063412Y-112348189D01*
X101130695Y-112370850D01*
X101175045Y-112426290D01*
X101182382Y-112496906D01*
X101147560Y-112563187D01*
X99186135Y-114524612D01*
X99123823Y-114558638D01*
X99050352Y-114552548D01*
X99046333Y-114550945D01*
X99021421Y-114541006D01*
X99015761Y-114539880D01*
X99015757Y-114539879D01*
X98810691Y-114499089D01*
X98810688Y-114499089D01*
X98805024Y-114497962D01*
X98799249Y-114497886D01*
X98799245Y-114497886D01*
X98688504Y-114496437D01*
X98584406Y-114495074D01*
X98578709Y-114496053D01*
X98578708Y-114496053D01*
X98372654Y-114531459D01*
X98372653Y-114531459D01*
X98366957Y-114532438D01*
X98159957Y-114608804D01*
X98154996Y-114611756D01*
X98154995Y-114611756D01*
X98092695Y-114648821D01*
X97970341Y-114721614D01*
X97804457Y-114867090D01*
X97667863Y-115040360D01*
X97565131Y-115235620D01*
X97499703Y-115446333D01*
X97473770Y-115665440D01*
X97488200Y-115885604D01*
X97489621Y-115891200D01*
X97489622Y-115891205D01*
X97532060Y-116058300D01*
X97542511Y-116099452D01*
X97634883Y-116299821D01*
X97762222Y-116480002D01*
X97920264Y-116633961D01*
X97925060Y-116637166D01*
X97925063Y-116637168D01*
X98009261Y-116693427D01*
X98103717Y-116756540D01*
X98109020Y-116758818D01*
X98109023Y-116758820D01*
X98245677Y-116817531D01*
X98306436Y-116843635D01*
X98385176Y-116861452D01*
X98515995Y-116891054D01*
X98516001Y-116891055D01*
X98521632Y-116892329D01*
X98527403Y-116892556D01*
X98527405Y-116892556D01*
X98595211Y-116895220D01*
X98742098Y-116900991D01*
X98851275Y-116885161D01*
X98954738Y-116870160D01*
X98954743Y-116870159D01*
X98960452Y-116869331D01*
X98965916Y-116867476D01*
X98965921Y-116867475D01*
X99163907Y-116800268D01*
X99163912Y-116800266D01*
X99169379Y-116798410D01*
X99361884Y-116690602D01*
X99366322Y-116686911D01*
X99366332Y-116686904D01*
X99422190Y-116640447D01*
X99470140Y-116615616D01*
X99473041Y-116614838D01*
X99482206Y-116612383D01*
X99501651Y-116608779D01*
X99516084Y-116607262D01*
X99582406Y-116585713D01*
X99588717Y-116583843D01*
X99656099Y-116565788D01*
X99661979Y-116562792D01*
X99669039Y-116559195D01*
X99687303Y-116551630D01*
X99701110Y-116547144D01*
X99706826Y-116543844D01*
X99706828Y-116543843D01*
X99761521Y-116512266D01*
X99767319Y-116509118D01*
X99823558Y-116480463D01*
X99829442Y-116477465D01*
X99834576Y-116473308D01*
X99840729Y-116468326D01*
X99857014Y-116457133D01*
X99869594Y-116449870D01*
X99874503Y-116445450D01*
X99874507Y-116445447D01*
X99921423Y-116403204D01*
X99926438Y-116398920D01*
X99940168Y-116387801D01*
X99942732Y-116385725D01*
X99957547Y-116370910D01*
X99962331Y-116366369D01*
X100009268Y-116324107D01*
X100009269Y-116324105D01*
X100014171Y-116319692D01*
X100022712Y-116307936D01*
X100035549Y-116292908D01*
X101360916Y-114967541D01*
X101423228Y-114933515D01*
X101494043Y-114938580D01*
X101550879Y-114981127D01*
X101575690Y-115047647D01*
X101568337Y-115099937D01*
X101564019Y-115111736D01*
X101561630Y-115119959D01*
X101501007Y-115398002D01*
X101499758Y-115406458D01*
X101477430Y-115690162D01*
X101477341Y-115698713D01*
X101493722Y-115982809D01*
X101494795Y-115991308D01*
X101549582Y-116270554D01*
X101551795Y-116278816D01*
X101643974Y-116548049D01*
X101647290Y-116555936D01*
X101775153Y-116810165D01*
X101779509Y-116817531D01*
X101940691Y-117052051D01*
X101946010Y-117058762D01*
X101963063Y-117077503D01*
X101976629Y-117085763D01*
X101976882Y-117085757D01*
X101985900Y-117080257D01*
X103348025Y-115718132D01*
X103920041Y-115718132D01*
X103920172Y-115719965D01*
X103924423Y-115726580D01*
X105276969Y-117079126D01*
X105289179Y-117085793D01*
X105300678Y-117077104D01*
X105449009Y-116875175D01*
X105453593Y-116867952D01*
X105589378Y-116617868D01*
X105592944Y-116610077D01*
X105693531Y-116343880D01*
X105696002Y-116335695D01*
X105759535Y-116058300D01*
X105760873Y-116049846D01*
X105786331Y-115764597D01*
X105786577Y-115759657D01*
X105786998Y-115719484D01*
X105786855Y-115714520D01*
X105767377Y-115428807D01*
X105766216Y-115420333D01*
X105708507Y-115141668D01*
X105706208Y-115133433D01*
X105611214Y-114865178D01*
X105607816Y-114857325D01*
X105477299Y-114604453D01*
X105472865Y-114597131D01*
X105309235Y-114364309D01*
X105303849Y-114357658D01*
X105301892Y-114355552D01*
X105288241Y-114347435D01*
X105287634Y-114347456D01*
X105279154Y-114352689D01*
X103927655Y-115704188D01*
X103920041Y-115718132D01*
X103348025Y-115718132D01*
X104991508Y-114074649D01*
X104998699Y-114061480D01*
X104991376Y-114051242D01*
X104883685Y-113963098D01*
X104876713Y-113958142D01*
X104634076Y-113809454D01*
X104626478Y-113805482D01*
X104365916Y-113691103D01*
X104357862Y-113688204D01*
X104084183Y-113610244D01*
X104075808Y-113608464D01*
X103794082Y-113568368D01*
X103785534Y-113567741D01*
X103500971Y-113566250D01*
X103492437Y-113566787D01*
X103210300Y-113603932D01*
X103201902Y-113605625D01*
X103000785Y-113660644D01*
X102929800Y-113659326D01*
X102870797Y-113619840D01*
X102842508Y-113554723D01*
X102853915Y-113484649D01*
X102878442Y-113450015D01*
X104271018Y-112057439D01*
X104333330Y-112023413D01*
X104404145Y-112028478D01*
X104430110Y-112041766D01*
X104453717Y-112057540D01*
X104459019Y-112059818D01*
X104459021Y-112059819D01*
X104603647Y-112121955D01*
X104656436Y-112144635D01*
X104721025Y-112159250D01*
X104865995Y-112192054D01*
X104866001Y-112192055D01*
X104871632Y-112193329D01*
X104877403Y-112193556D01*
X104877405Y-112193556D01*
X104945211Y-112196220D01*
X105092098Y-112201991D01*
X105201275Y-112186161D01*
X105304738Y-112171160D01*
X105304743Y-112171159D01*
X105310452Y-112170331D01*
X105315916Y-112168476D01*
X105315921Y-112168475D01*
X105513907Y-112101268D01*
X105513912Y-112101266D01*
X105519379Y-112099410D01*
X105524992Y-112096267D01*
X105655081Y-112023413D01*
X105711884Y-111991602D01*
X105720639Y-111984321D01*
X105877086Y-111854204D01*
X105881518Y-111850518D01*
X105968546Y-111745879D01*
X106018908Y-111685326D01*
X106018910Y-111685323D01*
X106022602Y-111680884D01*
X106104590Y-111534484D01*
X106127586Y-111493422D01*
X106127587Y-111493420D01*
X106130410Y-111488379D01*
X106132266Y-111482912D01*
X106132268Y-111482907D01*
X106199475Y-111284921D01*
X106199476Y-111284916D01*
X106201331Y-111279452D01*
X106202159Y-111273743D01*
X106202160Y-111273738D01*
X106225999Y-111109318D01*
X106232991Y-111061098D01*
X106234643Y-110998000D01*
X106214454Y-110778289D01*
X106201313Y-110731692D01*
X106181115Y-110660075D01*
X106154565Y-110565936D01*
X106059336Y-110372830D01*
X106047146Y-110302889D01*
X106074705Y-110237460D01*
X106083247Y-110228008D01*
X107253350Y-109057905D01*
X107315662Y-109023879D01*
X107342445Y-109021000D01*
X107343223Y-109021000D01*
X107413225Y-109042235D01*
X107582050Y-109155040D01*
X107587353Y-109157318D01*
X107587356Y-109157320D01*
X107779462Y-109239855D01*
X107784769Y-109242135D01*
X107864421Y-109260158D01*
X107994328Y-109289554D01*
X107994334Y-109289555D01*
X107999965Y-109290829D01*
X108005736Y-109291056D01*
X108005738Y-109291056D01*
X108073544Y-109293720D01*
X108220431Y-109299491D01*
X108343795Y-109281604D01*
X108433071Y-109268660D01*
X108433076Y-109268659D01*
X108438785Y-109267831D01*
X108444249Y-109265976D01*
X108444254Y-109265975D01*
X108508999Y-109243997D01*
X108579934Y-109241041D01*
X108641207Y-109276905D01*
X108673363Y-109340202D01*
X108675500Y-109363310D01*
X108675500Y-110824037D01*
X108655498Y-110892158D01*
X108648450Y-110902042D01*
X108589863Y-110976360D01*
X108487131Y-111171620D01*
X108421703Y-111382333D01*
X108395770Y-111601440D01*
X108410200Y-111821604D01*
X108411621Y-111827200D01*
X108411622Y-111827205D01*
X108442915Y-111950418D01*
X108464511Y-112035452D01*
X108556883Y-112235821D01*
X108684222Y-112416002D01*
X108842264Y-112569961D01*
X108847060Y-112573166D01*
X108847063Y-112573168D01*
X108961496Y-112649629D01*
X109025717Y-112692540D01*
X109031020Y-112694818D01*
X109031023Y-112694820D01*
X109198531Y-112766787D01*
X109228436Y-112779635D01*
X109308088Y-112797658D01*
X109437995Y-112827054D01*
X109438001Y-112827055D01*
X109443632Y-112828329D01*
X109449403Y-112828556D01*
X109449405Y-112828556D01*
X109517211Y-112831220D01*
X109664098Y-112836991D01*
X109788283Y-112818985D01*
X109876738Y-112806160D01*
X109876743Y-112806159D01*
X109882452Y-112805331D01*
X109887916Y-112803476D01*
X109887921Y-112803475D01*
X110091379Y-112734410D01*
X110092179Y-112736765D01*
X110151984Y-112728763D01*
X110216273Y-112758887D01*
X110254071Y-112818985D01*
X110254959Y-112884301D01*
X110200351Y-113099418D01*
X110195416Y-113118857D01*
X110193988Y-113124018D01*
X110054198Y-113590326D01*
X109929781Y-114005352D01*
X109928129Y-114010465D01*
X109626586Y-114879727D01*
X109624717Y-114884765D01*
X109431935Y-115372293D01*
X109291841Y-115726580D01*
X109286390Y-115740364D01*
X109284312Y-115745309D01*
X108921624Y-116559195D01*
X108909796Y-116585738D01*
X108907506Y-116590594D01*
X108768347Y-116870160D01*
X108497524Y-117414234D01*
X108495028Y-117418993D01*
X108473832Y-117457379D01*
X108079794Y-118170991D01*
X108050271Y-118224457D01*
X108047578Y-118229097D01*
X107568904Y-119014825D01*
X107566015Y-119019348D01*
X107054239Y-119784007D01*
X107051177Y-119788376D01*
X106507295Y-120530475D01*
X106504038Y-120534727D01*
X105946933Y-121230571D01*
X105928986Y-121252987D01*
X105925541Y-121257107D01*
X105368214Y-121895418D01*
X105320408Y-121950170D01*
X105316792Y-121954137D01*
X104704951Y-122597333D01*
X104682642Y-122620785D01*
X104678867Y-122624587D01*
X104594000Y-122706506D01*
X104517773Y-122780085D01*
X104454869Y-122813004D01*
X104384154Y-122806688D01*
X104328079Y-122763143D01*
X104304795Y-122700959D01*
X104298646Y-122634045D01*
X104298646Y-122634044D01*
X104298117Y-122628289D01*
X104238228Y-122415936D01*
X104140643Y-122218053D01*
X104073915Y-122128693D01*
X104012083Y-122045891D01*
X104012083Y-122045890D01*
X104008630Y-122041267D01*
X103903605Y-121944183D01*
X103850852Y-121895418D01*
X103850849Y-121895416D01*
X103846612Y-121891499D01*
X103660013Y-121773764D01*
X103455084Y-121692006D01*
X103449424Y-121690880D01*
X103449420Y-121690879D01*
X103244354Y-121650089D01*
X103244351Y-121650089D01*
X103238687Y-121648962D01*
X103232912Y-121648886D01*
X103232908Y-121648886D01*
X103122167Y-121647437D01*
X103018069Y-121646074D01*
X103012372Y-121647053D01*
X103012371Y-121647053D01*
X102806317Y-121682459D01*
X102806316Y-121682459D01*
X102800620Y-121683438D01*
X102593620Y-121759804D01*
X102588659Y-121762756D01*
X102588658Y-121762756D01*
X102439176Y-121851689D01*
X102404004Y-121872614D01*
X102238120Y-122018090D01*
X102101526Y-122191360D01*
X101998794Y-122386620D01*
X101933366Y-122597333D01*
X101907433Y-122816440D01*
X101921863Y-123036604D01*
X101923284Y-123042200D01*
X101923285Y-123042205D01*
X101947719Y-123138413D01*
X101976174Y-123250452D01*
X102068546Y-123450821D01*
X102195885Y-123631002D01*
X102353927Y-123784961D01*
X102358723Y-123788166D01*
X102358726Y-123788168D01*
X102457642Y-123854261D01*
X102537380Y-123907540D01*
X102542683Y-123909818D01*
X102542686Y-123909820D01*
X102603571Y-123935978D01*
X102740099Y-123994635D01*
X102745731Y-123995909D01*
X102745733Y-123995910D01*
X102831574Y-124015334D01*
X102893600Y-124049877D01*
X102927104Y-124112471D01*
X102921450Y-124183242D01*
X102883230Y-124236009D01*
X102676657Y-124403886D01*
X102606188Y-124461154D01*
X102601949Y-124464451D01*
X101863847Y-125013737D01*
X101859493Y-125016835D01*
X101411052Y-125321738D01*
X101098613Y-125534170D01*
X101094106Y-125537096D01*
X100872263Y-125674477D01*
X100365672Y-125988194D01*
X100311876Y-126021508D01*
X100307253Y-126024236D01*
X99800287Y-126309021D01*
X99731101Y-126324945D01*
X99664288Y-126300935D01*
X99621061Y-126244615D01*
X99615146Y-126173865D01*
X99628644Y-126137602D01*
X99650587Y-126098419D01*
X99653410Y-126093379D01*
X99655266Y-126087912D01*
X99655268Y-126087907D01*
X99722475Y-125889921D01*
X99722476Y-125889916D01*
X99724331Y-125884452D01*
X99725159Y-125878743D01*
X99725160Y-125878738D01*
X99753936Y-125680270D01*
X99755991Y-125666098D01*
X99757643Y-125603000D01*
X99737454Y-125383289D01*
X99731250Y-125361289D01*
X99699975Y-125250397D01*
X99677565Y-125170936D01*
X99579980Y-124973053D01*
X99549725Y-124932536D01*
X99451420Y-124800891D01*
X99451420Y-124800890D01*
X99447967Y-124796267D01*
X99350312Y-124705996D01*
X99290189Y-124650418D01*
X99290186Y-124650416D01*
X99285949Y-124646499D01*
X99099350Y-124528764D01*
X98894421Y-124447006D01*
X98888761Y-124445880D01*
X98888757Y-124445879D01*
X98683691Y-124405089D01*
X98683688Y-124405089D01*
X98678024Y-124403962D01*
X98672249Y-124403886D01*
X98672245Y-124403886D01*
X98561504Y-124402437D01*
X98457406Y-124401074D01*
X98451709Y-124402053D01*
X98451708Y-124402053D01*
X98245654Y-124437459D01*
X98245653Y-124437459D01*
X98239957Y-124438438D01*
X98032957Y-124514804D01*
X98027996Y-124517756D01*
X98027995Y-124517756D01*
X97908232Y-124589008D01*
X97843341Y-124627614D01*
X97677457Y-124773090D01*
X97540863Y-124946360D01*
X97438131Y-125141620D01*
X97372703Y-125352333D01*
X97346770Y-125571440D01*
X97361200Y-125791604D01*
X97362621Y-125797200D01*
X97362622Y-125797205D01*
X97411128Y-125988194D01*
X97415511Y-126005452D01*
X97417928Y-126010694D01*
X97417928Y-126010695D01*
X97456046Y-126093379D01*
X97507883Y-126205821D01*
X97635222Y-126386002D01*
X97793264Y-126539961D01*
X97798060Y-126543166D01*
X97798063Y-126543168D01*
X97944226Y-126640830D01*
X97976717Y-126662540D01*
X97982020Y-126664818D01*
X97982023Y-126664820D01*
X98047584Y-126692987D01*
X98179436Y-126749635D01*
X98359461Y-126790371D01*
X98421486Y-126824913D01*
X98454991Y-126887506D01*
X98449337Y-126958277D01*
X98406318Y-127014757D01*
X98383778Y-127027975D01*
X97837205Y-127276342D01*
X97832267Y-127278460D01*
X96979157Y-127623030D01*
X96974132Y-127624936D01*
X96107110Y-127932815D01*
X96102009Y-127934505D01*
X95786867Y-128031493D01*
X95270620Y-128190373D01*
X95222647Y-128205137D01*
X95217482Y-128206607D01*
X94327340Y-128439508D01*
X94322156Y-128440747D01*
X93908508Y-128530322D01*
X93422912Y-128635477D01*
X93417637Y-128636502D01*
X92858119Y-128732896D01*
X92510907Y-128792714D01*
X92505625Y-128793509D01*
X91593057Y-128910916D01*
X91587738Y-128911486D01*
X90952698Y-128965788D01*
X90670988Y-128989877D01*
X90665626Y-128990220D01*
X89746417Y-129029450D01*
X89741044Y-129029565D01*
X88820956Y-129029565D01*
X88815583Y-129029450D01*
X87896374Y-128990220D01*
X87891012Y-128989877D01*
X87609302Y-128965788D01*
X86974262Y-128911486D01*
X86968943Y-128910916D01*
X86056375Y-128793509D01*
X86051093Y-128792714D01*
X85703881Y-128732896D01*
X85144363Y-128636502D01*
X85139088Y-128635477D01*
X84486575Y-128494176D01*
X84424231Y-128460209D01*
X84390147Y-128397929D01*
X84395145Y-128327109D01*
X84431412Y-128275219D01*
X84530754Y-128190373D01*
X84530759Y-128190368D01*
X84534515Y-128187160D01*
X84703238Y-127989611D01*
X84838980Y-127768099D01*
X84856633Y-127725483D01*
X84936505Y-127532654D01*
X84936506Y-127532652D01*
X84938399Y-127528081D01*
X84967719Y-127405956D01*
X84997892Y-127280278D01*
X84997893Y-127280272D01*
X84999047Y-127275465D01*
X85019430Y-127016471D01*
X84999047Y-126757477D01*
X84997893Y-126752670D01*
X84997892Y-126752664D01*
X84939554Y-126509673D01*
X84938399Y-126504861D01*
X84925969Y-126474853D01*
X84840875Y-126269417D01*
X84840873Y-126269413D01*
X84838980Y-126264843D01*
X84703238Y-126043331D01*
X84557145Y-125872278D01*
X84537723Y-125849538D01*
X84534515Y-125845782D01*
X84336966Y-125677059D01*
X84115454Y-125541317D01*
X84110884Y-125539424D01*
X84110880Y-125539422D01*
X83880009Y-125443792D01*
X83880007Y-125443791D01*
X83875436Y-125441898D01*
X83776527Y-125418152D01*
X83627633Y-125382405D01*
X83627627Y-125382404D01*
X83622820Y-125381250D01*
X83363826Y-125360867D01*
X83358896Y-125361255D01*
X83358888Y-125361255D01*
X83358456Y-125361289D01*
X83358294Y-125361255D01*
X83353940Y-125361255D01*
X83353940Y-125360340D01*
X83288976Y-125346695D01*
X83238415Y-125296854D01*
X83223938Y-125230305D01*
X83222990Y-125230305D01*
X83222990Y-125225945D01*
X83222956Y-125225789D01*
X83222990Y-125225357D01*
X83222990Y-125225349D01*
X83223378Y-125220419D01*
X83202995Y-124961425D01*
X83201841Y-124956618D01*
X83201840Y-124956612D01*
X83158870Y-124777632D01*
X83142347Y-124708809D01*
X83140453Y-124704236D01*
X83044823Y-124473365D01*
X83044821Y-124473361D01*
X83042928Y-124468791D01*
X82907186Y-124247279D01*
X82738463Y-124049730D01*
X82540914Y-123881007D01*
X82319402Y-123745265D01*
X82314832Y-123743372D01*
X82314828Y-123743370D01*
X82083957Y-123647740D01*
X82083955Y-123647739D01*
X82079384Y-123645846D01*
X81991050Y-123624639D01*
X81831581Y-123586353D01*
X81831575Y-123586352D01*
X81826768Y-123585198D01*
X81567774Y-123564815D01*
X81562844Y-123565203D01*
X81562837Y-123565203D01*
X81562405Y-123565237D01*
X81562243Y-123565203D01*
X81557889Y-123565203D01*
X81557889Y-123564288D01*
X81492925Y-123550643D01*
X81442364Y-123500802D01*
X81427887Y-123434253D01*
X81426939Y-123434253D01*
X81426939Y-123429893D01*
X81426905Y-123429737D01*
X81426939Y-123429305D01*
X81426939Y-123429298D01*
X81427327Y-123424368D01*
X81406944Y-123165374D01*
X81405790Y-123160567D01*
X81405789Y-123160561D01*
X81363517Y-122984489D01*
X81346296Y-122912758D01*
X81344402Y-122908185D01*
X81248772Y-122677314D01*
X81248770Y-122677310D01*
X81246877Y-122672740D01*
X81111135Y-122451228D01*
X80942412Y-122253679D01*
X80744863Y-122084956D01*
X80523351Y-121949214D01*
X80518781Y-121947321D01*
X80518777Y-121947319D01*
X80287906Y-121851689D01*
X80287904Y-121851688D01*
X80283333Y-121849795D01*
X80160066Y-121820201D01*
X80035530Y-121790302D01*
X80035524Y-121790301D01*
X80030717Y-121789147D01*
X79771723Y-121768764D01*
X79766793Y-121769152D01*
X79766792Y-121769152D01*
X79713639Y-121773335D01*
X79644159Y-121758739D01*
X79593600Y-121708896D01*
X79577754Y-121647723D01*
X79577754Y-121574882D01*
X79574689Y-121555530D01*
X79541664Y-121453891D01*
X79532769Y-121436433D01*
X79485769Y-121371743D01*
X79479352Y-121364230D01*
X79013789Y-120898667D01*
X78999845Y-120891053D01*
X78998012Y-120891184D01*
X78991397Y-120895435D01*
X77246023Y-122640809D01*
X77238409Y-122654753D01*
X77238540Y-122656586D01*
X77242791Y-122663201D01*
X77711582Y-123131992D01*
X77719099Y-123138413D01*
X77783789Y-123185414D01*
X77801246Y-123194309D01*
X77902885Y-123227334D01*
X77922237Y-123230399D01*
X77995078Y-123230399D01*
X78063199Y-123250401D01*
X78109692Y-123304057D01*
X78120690Y-123366284D01*
X78116119Y-123424368D01*
X78136502Y-123683362D01*
X78137656Y-123688169D01*
X78137657Y-123688175D01*
X78159927Y-123780934D01*
X78197150Y-123935978D01*
X78199043Y-123940549D01*
X78199044Y-123940551D01*
X78245824Y-124053486D01*
X78296569Y-124175996D01*
X78432311Y-124397508D01*
X78601034Y-124595057D01*
X78798583Y-124763780D01*
X79020095Y-124899522D01*
X79024665Y-124901415D01*
X79024669Y-124901417D01*
X79255540Y-124997047D01*
X79260113Y-124998941D01*
X79321705Y-125013728D01*
X79507916Y-125058434D01*
X79507922Y-125058435D01*
X79512729Y-125059589D01*
X79771723Y-125079972D01*
X79776653Y-125079584D01*
X79776660Y-125079584D01*
X79777092Y-125079550D01*
X79777254Y-125079584D01*
X79781608Y-125079584D01*
X79781608Y-125080499D01*
X79846572Y-125094144D01*
X79897133Y-125143985D01*
X79911610Y-125210534D01*
X79912558Y-125210534D01*
X79912558Y-125214894D01*
X79912592Y-125215050D01*
X79912558Y-125215482D01*
X79912558Y-125215489D01*
X79912170Y-125220419D01*
X79932553Y-125479413D01*
X79933707Y-125484220D01*
X79933708Y-125484226D01*
X79953270Y-125565705D01*
X79993201Y-125732029D01*
X79995094Y-125736600D01*
X79995095Y-125736602D01*
X80048082Y-125864522D01*
X80092620Y-125972047D01*
X80228362Y-126193559D01*
X80397085Y-126391108D01*
X80594634Y-126559831D01*
X80816146Y-126695573D01*
X80820716Y-126697466D01*
X80820720Y-126697468D01*
X81051591Y-126793098D01*
X81056164Y-126794992D01*
X81144498Y-126816199D01*
X81303967Y-126854485D01*
X81303973Y-126854486D01*
X81308780Y-126855640D01*
X81567774Y-126876023D01*
X81572704Y-126875635D01*
X81572712Y-126875635D01*
X81573144Y-126875601D01*
X81573306Y-126875635D01*
X81577660Y-126875635D01*
X81577660Y-126876550D01*
X81642624Y-126890195D01*
X81693185Y-126940036D01*
X81707662Y-127006585D01*
X81708610Y-127006585D01*
X81708610Y-127010945D01*
X81708644Y-127011101D01*
X81708610Y-127011533D01*
X81708610Y-127011541D01*
X81708222Y-127016471D01*
X81728605Y-127275465D01*
X81729759Y-127280272D01*
X81729760Y-127280278D01*
X81779211Y-127486254D01*
X81775664Y-127557162D01*
X81734344Y-127614896D01*
X81668371Y-127641126D01*
X81614528Y-127634403D01*
X81601989Y-127629951D01*
X81587865Y-127624935D01*
X81582843Y-127623030D01*
X80729733Y-127278460D01*
X80724795Y-127276342D01*
X79887152Y-126895711D01*
X79882308Y-126893384D01*
X79870713Y-126887506D01*
X79684473Y-126793098D01*
X79061662Y-126477384D01*
X79056922Y-126474853D01*
X78288739Y-126043331D01*
X78254747Y-126024236D01*
X78250124Y-126021508D01*
X78196329Y-125988194D01*
X77689737Y-125674477D01*
X77467894Y-125537096D01*
X77463387Y-125534170D01*
X77150948Y-125321738D01*
X76702507Y-125016835D01*
X76698153Y-125013737D01*
X75960051Y-124464451D01*
X75955812Y-124461154D01*
X75885437Y-124403962D01*
X75241784Y-123880882D01*
X75237691Y-123877408D01*
X75206391Y-123849673D01*
X74898451Y-123576812D01*
X74549060Y-123267222D01*
X74545115Y-123263573D01*
X74136180Y-122868844D01*
X73883133Y-122624587D01*
X73879358Y-122620785D01*
X73857050Y-122597333D01*
X73245208Y-121954137D01*
X73241592Y-121950170D01*
X73193787Y-121895418D01*
X73007229Y-121681752D01*
X76373590Y-121681752D01*
X76376655Y-121701104D01*
X76409680Y-121802743D01*
X76418575Y-121820201D01*
X76465575Y-121884891D01*
X76471992Y-121892404D01*
X76937555Y-122357967D01*
X76951499Y-122365581D01*
X76953332Y-122365450D01*
X76959947Y-122361199D01*
X77680017Y-121641129D01*
X77687631Y-121627185D01*
X77687500Y-121625352D01*
X77683249Y-121618737D01*
X76963180Y-120898668D01*
X76949236Y-120891054D01*
X76947403Y-120891185D01*
X76940788Y-120895436D01*
X76471997Y-121364227D01*
X76465576Y-121371744D01*
X76418575Y-121436434D01*
X76409680Y-121453891D01*
X76376655Y-121555530D01*
X76373590Y-121574882D01*
X76373590Y-121681752D01*
X73007229Y-121681752D01*
X72636459Y-121257107D01*
X72633014Y-121252987D01*
X72615067Y-121230571D01*
X72113538Y-120604144D01*
X77238408Y-120604144D01*
X77238539Y-120605977D01*
X77242790Y-120612592D01*
X77962860Y-121332662D01*
X77976804Y-121340276D01*
X77978637Y-121340145D01*
X77985252Y-121335894D01*
X78705321Y-120615825D01*
X78712935Y-120601881D01*
X78712804Y-120600048D01*
X78708553Y-120593433D01*
X78239762Y-120124642D01*
X78232245Y-120118221D01*
X78167555Y-120071220D01*
X78150098Y-120062325D01*
X78048459Y-120029300D01*
X78029107Y-120026235D01*
X77922237Y-120026235D01*
X77902885Y-120029300D01*
X77801246Y-120062325D01*
X77783788Y-120071220D01*
X77719098Y-120118220D01*
X77711585Y-120124637D01*
X77246022Y-120590200D01*
X77238408Y-120604144D01*
X72113538Y-120604144D01*
X72057962Y-120534727D01*
X72054705Y-120530475D01*
X71510823Y-119788376D01*
X71507761Y-119784007D01*
X70995985Y-119019348D01*
X70993096Y-119014825D01*
X70809489Y-118713440D01*
X73470770Y-118713440D01*
X73485200Y-118933604D01*
X73486621Y-118939200D01*
X73486622Y-118939205D01*
X73515220Y-119051806D01*
X73539511Y-119147452D01*
X73541928Y-119152694D01*
X73541928Y-119152695D01*
X73580046Y-119235379D01*
X73631883Y-119347821D01*
X73759222Y-119528002D01*
X73917264Y-119681961D01*
X73922060Y-119685166D01*
X73922063Y-119685168D01*
X74006261Y-119741427D01*
X74100717Y-119804540D01*
X74106020Y-119806818D01*
X74106023Y-119806820D01*
X74289892Y-119885816D01*
X74303436Y-119891635D01*
X74383088Y-119909658D01*
X74512995Y-119939054D01*
X74513001Y-119939055D01*
X74518632Y-119940329D01*
X74524403Y-119940556D01*
X74524405Y-119940556D01*
X74592211Y-119943220D01*
X74739098Y-119948991D01*
X74848275Y-119933161D01*
X74951738Y-119918160D01*
X74951743Y-119918159D01*
X74957452Y-119917331D01*
X74962916Y-119915476D01*
X74962921Y-119915475D01*
X75160907Y-119848268D01*
X75160912Y-119848266D01*
X75166379Y-119846410D01*
X75358884Y-119738602D01*
X75385356Y-119716586D01*
X75524086Y-119601204D01*
X75528518Y-119597518D01*
X75590256Y-119523287D01*
X75665908Y-119432326D01*
X75665910Y-119432323D01*
X75669602Y-119427884D01*
X75777410Y-119235379D01*
X75779266Y-119229912D01*
X75779268Y-119229907D01*
X75846475Y-119031921D01*
X75846476Y-119031916D01*
X75848331Y-119026452D01*
X75849159Y-119020743D01*
X75849160Y-119020738D01*
X75879010Y-118814863D01*
X75879991Y-118808098D01*
X75881643Y-118745000D01*
X75861454Y-118525289D01*
X75801565Y-118312936D01*
X75703980Y-118115053D01*
X75639587Y-118028820D01*
X75575420Y-117942891D01*
X75575420Y-117942890D01*
X75571967Y-117938267D01*
X75442843Y-117818906D01*
X75414189Y-117792418D01*
X75414186Y-117792416D01*
X75409949Y-117788499D01*
X75223350Y-117670764D01*
X75018421Y-117589006D01*
X75012761Y-117587880D01*
X75012757Y-117587879D01*
X74807691Y-117547089D01*
X74807688Y-117547089D01*
X74802024Y-117545962D01*
X74796249Y-117545886D01*
X74796245Y-117545886D01*
X74685504Y-117544437D01*
X74581406Y-117543074D01*
X74575709Y-117544053D01*
X74575708Y-117544053D01*
X74369654Y-117579459D01*
X74369653Y-117579459D01*
X74363957Y-117580438D01*
X74156957Y-117656804D01*
X74151996Y-117659756D01*
X74151995Y-117659756D01*
X74089695Y-117696821D01*
X73967341Y-117769614D01*
X73801457Y-117915090D01*
X73664863Y-118088360D01*
X73562131Y-118283620D01*
X73496703Y-118494333D01*
X73470770Y-118713440D01*
X70809489Y-118713440D01*
X70514422Y-118229097D01*
X70511729Y-118224457D01*
X70482207Y-118170991D01*
X70088168Y-117457379D01*
X70066972Y-117418993D01*
X70064476Y-117414234D01*
X69793653Y-116870160D01*
X69654494Y-116590594D01*
X69652204Y-116585738D01*
X69640376Y-116559195D01*
X69277688Y-115745309D01*
X69275610Y-115740364D01*
X69270160Y-115726580D01*
X69130065Y-115372293D01*
X68937283Y-114884765D01*
X68935414Y-114879727D01*
X68826428Y-114565551D01*
X69786829Y-114565551D01*
X69801259Y-114785715D01*
X69802680Y-114791311D01*
X69802681Y-114791316D01*
X69838796Y-114933515D01*
X69855570Y-114999563D01*
X69857987Y-115004805D01*
X69857987Y-115004806D01*
X69896105Y-115087490D01*
X69947942Y-115199932D01*
X70075281Y-115380113D01*
X70233323Y-115534072D01*
X70238119Y-115537277D01*
X70238122Y-115537279D01*
X70322320Y-115593538D01*
X70416776Y-115656651D01*
X70422079Y-115658929D01*
X70422082Y-115658931D01*
X70611623Y-115740364D01*
X70619495Y-115743746D01*
X70699147Y-115761769D01*
X70829054Y-115791165D01*
X70829060Y-115791166D01*
X70834691Y-115792440D01*
X70840462Y-115792667D01*
X70840464Y-115792667D01*
X70908270Y-115795331D01*
X71055157Y-115801102D01*
X71164334Y-115785272D01*
X71267797Y-115770271D01*
X71267802Y-115770270D01*
X71273511Y-115769442D01*
X71278975Y-115767587D01*
X71278980Y-115767586D01*
X71476966Y-115700379D01*
X71476971Y-115700377D01*
X71482438Y-115698521D01*
X71504891Y-115685947D01*
X71599670Y-115632868D01*
X71674943Y-115590713D01*
X71844577Y-115449629D01*
X71985661Y-115279995D01*
X72067740Y-115133433D01*
X72090645Y-115092533D01*
X72090646Y-115092531D01*
X72093469Y-115087490D01*
X72095325Y-115082023D01*
X72095327Y-115082018D01*
X72162534Y-114884032D01*
X72162535Y-114884027D01*
X72164390Y-114878563D01*
X72165218Y-114872854D01*
X72165219Y-114872849D01*
X72195517Y-114663883D01*
X72196050Y-114660209D01*
X72197702Y-114597111D01*
X72177513Y-114377400D01*
X72117624Y-114165047D01*
X72020039Y-113967164D01*
X71922045Y-113835934D01*
X71891479Y-113795002D01*
X71891479Y-113795001D01*
X71888026Y-113790378D01*
X71726008Y-113640610D01*
X71539409Y-113522875D01*
X71334480Y-113441117D01*
X71328820Y-113439991D01*
X71328816Y-113439990D01*
X71123750Y-113399200D01*
X71123747Y-113399200D01*
X71118083Y-113398073D01*
X71112308Y-113397997D01*
X71112304Y-113397997D01*
X71001563Y-113396548D01*
X70897465Y-113395185D01*
X70891768Y-113396164D01*
X70891767Y-113396164D01*
X70685713Y-113431570D01*
X70685712Y-113431570D01*
X70680016Y-113432549D01*
X70473016Y-113508915D01*
X70468055Y-113511867D01*
X70468054Y-113511867D01*
X70305690Y-113608464D01*
X70283400Y-113621725D01*
X70117516Y-113767201D01*
X69980922Y-113940471D01*
X69878190Y-114135731D01*
X69812762Y-114346444D01*
X69786829Y-114565551D01*
X68826428Y-114565551D01*
X68633871Y-114010465D01*
X68632219Y-114005352D01*
X68507802Y-113590326D01*
X68368012Y-113124018D01*
X68366584Y-113118857D01*
X68361650Y-113099418D01*
X68239297Y-112617440D01*
X74105770Y-112617440D01*
X74120200Y-112837604D01*
X74121621Y-112843200D01*
X74121622Y-112843205D01*
X74173090Y-113045857D01*
X74174511Y-113051452D01*
X74176928Y-113056694D01*
X74176928Y-113056695D01*
X74250176Y-113215580D01*
X74266883Y-113251821D01*
X74394222Y-113432002D01*
X74552264Y-113585961D01*
X74557060Y-113589166D01*
X74557063Y-113589168D01*
X74639917Y-113644529D01*
X74735717Y-113708540D01*
X74741020Y-113710818D01*
X74741023Y-113710820D01*
X74863381Y-113763389D01*
X74938436Y-113795635D01*
X74999507Y-113809454D01*
X75147995Y-113843054D01*
X75148001Y-113843055D01*
X75153632Y-113844329D01*
X75159403Y-113844556D01*
X75159405Y-113844556D01*
X75227211Y-113847220D01*
X75374098Y-113852991D01*
X75483275Y-113837161D01*
X75586738Y-113822160D01*
X75586743Y-113822159D01*
X75592452Y-113821331D01*
X75597916Y-113819476D01*
X75597921Y-113819475D01*
X75795907Y-113752268D01*
X75795912Y-113752266D01*
X75801379Y-113750410D01*
X75993884Y-113642602D01*
X76021253Y-113619840D01*
X76159086Y-113505204D01*
X76163518Y-113501518D01*
X76206353Y-113450015D01*
X76300908Y-113336326D01*
X76300910Y-113336323D01*
X76304602Y-113331884D01*
X76404865Y-113152852D01*
X76409586Y-113144422D01*
X76409587Y-113144420D01*
X76412410Y-113139379D01*
X76414266Y-113133912D01*
X76414268Y-113133907D01*
X76481475Y-112935921D01*
X76481476Y-112935916D01*
X76483331Y-112930452D01*
X76484159Y-112924743D01*
X76484160Y-112924738D01*
X76505014Y-112780910D01*
X76514991Y-112712098D01*
X76516643Y-112649000D01*
X76496454Y-112429289D01*
X76493843Y-112420029D01*
X76462340Y-112308330D01*
X76436565Y-112216936D01*
X76338980Y-112019053D01*
X76206967Y-111842267D01*
X76096810Y-111740439D01*
X76049189Y-111696418D01*
X76049186Y-111696416D01*
X76044949Y-111692499D01*
X75858350Y-111574764D01*
X75653421Y-111493006D01*
X75647761Y-111491880D01*
X75647757Y-111491879D01*
X75442691Y-111451089D01*
X75442688Y-111451089D01*
X75437024Y-111449962D01*
X75431249Y-111449886D01*
X75431245Y-111449886D01*
X75320504Y-111448437D01*
X75216406Y-111447074D01*
X75210709Y-111448053D01*
X75210708Y-111448053D01*
X75004654Y-111483459D01*
X75004653Y-111483459D01*
X74998957Y-111484438D01*
X74791957Y-111560804D01*
X74786996Y-111563756D01*
X74786995Y-111563756D01*
X74625737Y-111659695D01*
X74602341Y-111673614D01*
X74436457Y-111819090D01*
X74299863Y-111992360D01*
X74197131Y-112187620D01*
X74131703Y-112398333D01*
X74105770Y-112617440D01*
X68239297Y-112617440D01*
X68172283Y-112353455D01*
X68140204Y-112227086D01*
X68138993Y-112221851D01*
X68003807Y-111574764D01*
X67950839Y-111321226D01*
X67949853Y-111315951D01*
X67934116Y-111220440D01*
X67800266Y-110408086D01*
X67799508Y-110402781D01*
X67797327Y-110384785D01*
X67688773Y-109489415D01*
X67688240Y-109484068D01*
X67675061Y-109315440D01*
X73724770Y-109315440D01*
X73739200Y-109535604D01*
X73740621Y-109541200D01*
X73740622Y-109541205D01*
X73773778Y-109671753D01*
X73793511Y-109749452D01*
X73795928Y-109754694D01*
X73795928Y-109754695D01*
X73834046Y-109837379D01*
X73885883Y-109949821D01*
X74013222Y-110130002D01*
X74171264Y-110283961D01*
X74176060Y-110287166D01*
X74176063Y-110287168D01*
X74260261Y-110343427D01*
X74354717Y-110406540D01*
X74360020Y-110408818D01*
X74360023Y-110408820D01*
X74548912Y-110489973D01*
X74557436Y-110493635D01*
X74637088Y-110511658D01*
X74766995Y-110541054D01*
X74767001Y-110541055D01*
X74772632Y-110542329D01*
X74778403Y-110542556D01*
X74778405Y-110542556D01*
X74846211Y-110545220D01*
X74993098Y-110550991D01*
X75102275Y-110535161D01*
X75205738Y-110520160D01*
X75205743Y-110520159D01*
X75211452Y-110519331D01*
X75216916Y-110517476D01*
X75216921Y-110517475D01*
X75414907Y-110450268D01*
X75414912Y-110450266D01*
X75420379Y-110448410D01*
X75612884Y-110340602D01*
X75658197Y-110302916D01*
X75778086Y-110203204D01*
X75782518Y-110199518D01*
X75871265Y-110092812D01*
X75919908Y-110034326D01*
X75919910Y-110034323D01*
X75923602Y-110029884D01*
X76009780Y-109876002D01*
X76028586Y-109842422D01*
X76028587Y-109842420D01*
X76031410Y-109837379D01*
X76033266Y-109831912D01*
X76033268Y-109831907D01*
X76100475Y-109633921D01*
X76100476Y-109633916D01*
X76102331Y-109628452D01*
X76103159Y-109622743D01*
X76103160Y-109622738D01*
X76133458Y-109413772D01*
X76133991Y-109410098D01*
X76135643Y-109347000D01*
X76115454Y-109127289D01*
X76099702Y-109071434D01*
X76096883Y-109061440D01*
X76391770Y-109061440D01*
X76406200Y-109281604D01*
X76407621Y-109287200D01*
X76407622Y-109287205D01*
X76439767Y-109413772D01*
X76460511Y-109495452D01*
X76462928Y-109500694D01*
X76462928Y-109500695D01*
X76541787Y-109671753D01*
X76552883Y-109695821D01*
X76680222Y-109876002D01*
X76838264Y-110029961D01*
X76843060Y-110033166D01*
X76843063Y-110033168D01*
X76977913Y-110123271D01*
X77021717Y-110152540D01*
X77027020Y-110154818D01*
X77027023Y-110154820D01*
X77197373Y-110228008D01*
X77224436Y-110239635D01*
X77439632Y-110288329D01*
X77445405Y-110288556D01*
X77447107Y-110288780D01*
X77512033Y-110317505D01*
X77519752Y-110324607D01*
X77900053Y-110704908D01*
X77912890Y-110719936D01*
X77921431Y-110731692D01*
X77926333Y-110736105D01*
X77926334Y-110736107D01*
X77973271Y-110778369D01*
X77978055Y-110782910D01*
X77992870Y-110797725D01*
X77995434Y-110799801D01*
X78009164Y-110810920D01*
X78014179Y-110815204D01*
X78061095Y-110857447D01*
X78061099Y-110857450D01*
X78066008Y-110861870D01*
X78078588Y-110869133D01*
X78094873Y-110880326D01*
X78101026Y-110885308D01*
X78106160Y-110889465D01*
X78112044Y-110892463D01*
X78168283Y-110921118D01*
X78174081Y-110924266D01*
X78228774Y-110955843D01*
X78228776Y-110955844D01*
X78234492Y-110959144D01*
X78248299Y-110963630D01*
X78266563Y-110971195D01*
X78267798Y-110971824D01*
X78279503Y-110977788D01*
X78346885Y-110995843D01*
X78353196Y-110997713D01*
X78419518Y-111019262D01*
X78433951Y-111020779D01*
X78453393Y-111024382D01*
X78467422Y-111028141D01*
X78474014Y-111028486D01*
X78474017Y-111028487D01*
X78537062Y-111031791D01*
X78543636Y-111032308D01*
X78561222Y-111034156D01*
X78561224Y-111034156D01*
X78564496Y-111034500D01*
X78585464Y-111034500D01*
X78592058Y-111034673D01*
X78655111Y-111037978D01*
X78655116Y-111037978D01*
X78661703Y-111038323D01*
X78676049Y-111036051D01*
X78695758Y-111034500D01*
X78938984Y-111034500D01*
X79007105Y-111054502D01*
X79053598Y-111108158D01*
X79064111Y-111175308D01*
X79060864Y-111202749D01*
X79058770Y-111220440D01*
X79073200Y-111440604D01*
X79074621Y-111446200D01*
X79074622Y-111446205D01*
X79115512Y-111607206D01*
X79127511Y-111654452D01*
X79129928Y-111659694D01*
X79129928Y-111659695D01*
X79150336Y-111703962D01*
X79219883Y-111854821D01*
X79347222Y-112035002D01*
X79505264Y-112188961D01*
X79510060Y-112192166D01*
X79510063Y-112192168D01*
X79624192Y-112268426D01*
X79688717Y-112311540D01*
X79694020Y-112313818D01*
X79694023Y-112313820D01*
X79877892Y-112392816D01*
X79891436Y-112398635D01*
X79947350Y-112411287D01*
X80100995Y-112446054D01*
X80101001Y-112446055D01*
X80106632Y-112447329D01*
X80112403Y-112447556D01*
X80112405Y-112447556D01*
X80146715Y-112448904D01*
X80233448Y-112452312D01*
X80300729Y-112474972D01*
X80345080Y-112530411D01*
X80354500Y-112578214D01*
X80354500Y-113237037D01*
X80334498Y-113305158D01*
X80327450Y-113315042D01*
X80268863Y-113389360D01*
X80166131Y-113584620D01*
X80133401Y-113690029D01*
X80103458Y-113786462D01*
X80100703Y-113795333D01*
X80074770Y-114014440D01*
X80089200Y-114234604D01*
X80090621Y-114240200D01*
X80090622Y-114240205D01*
X80117861Y-114347456D01*
X80143511Y-114448452D01*
X80145928Y-114453694D01*
X80145928Y-114453695D01*
X80166336Y-114497962D01*
X80235883Y-114648821D01*
X80363222Y-114829002D01*
X80521264Y-114982961D01*
X80526060Y-114986166D01*
X80526063Y-114986168D01*
X80618074Y-115047647D01*
X80704717Y-115105540D01*
X80710020Y-115107818D01*
X80710023Y-115107820D01*
X80788807Y-115141668D01*
X80907436Y-115192635D01*
X80960526Y-115204648D01*
X81116995Y-115240054D01*
X81117001Y-115240055D01*
X81122632Y-115241329D01*
X81128403Y-115241556D01*
X81128405Y-115241556D01*
X81214629Y-115244944D01*
X81251447Y-115246390D01*
X81318730Y-115269051D01*
X81363080Y-115324491D01*
X81372500Y-115372293D01*
X81372500Y-115632868D01*
X81371763Y-115646476D01*
X81370632Y-115656891D01*
X81367475Y-115685947D01*
X81368012Y-115692083D01*
X81372026Y-115737972D01*
X81372355Y-115742796D01*
X81372500Y-115745759D01*
X81372500Y-115748841D01*
X81372801Y-115751910D01*
X81376868Y-115793392D01*
X81376990Y-115794705D01*
X81381092Y-115841586D01*
X81385430Y-115891176D01*
X81386978Y-115896505D01*
X81387520Y-115902030D01*
X81415533Y-115994813D01*
X81415871Y-115995955D01*
X81442906Y-116089010D01*
X81445462Y-116093940D01*
X81447065Y-116099251D01*
X81449960Y-116104695D01*
X81449962Y-116104700D01*
X81492563Y-116184823D01*
X81493175Y-116185989D01*
X81537714Y-116271912D01*
X81541174Y-116276247D01*
X81543782Y-116281151D01*
X81547672Y-116285921D01*
X81547673Y-116285922D01*
X81605064Y-116356290D01*
X81605892Y-116357317D01*
X81638369Y-116398000D01*
X81640861Y-116400492D01*
X81641833Y-116401579D01*
X81645548Y-116405928D01*
X81670094Y-116436025D01*
X81670097Y-116436028D01*
X81673989Y-116440800D01*
X81678736Y-116444727D01*
X81678738Y-116444729D01*
X81710983Y-116471404D01*
X81719763Y-116479394D01*
X82005863Y-116765494D01*
X82038891Y-116823573D01*
X82048511Y-116861452D01*
X82122927Y-117022870D01*
X82134500Y-117075620D01*
X82134500Y-118814863D01*
X82114498Y-118882984D01*
X82060842Y-118929477D01*
X82006851Y-118940852D01*
X81992439Y-118940663D01*
X81947406Y-118940074D01*
X81941709Y-118941053D01*
X81941708Y-118941053D01*
X81735654Y-118976459D01*
X81735653Y-118976459D01*
X81729957Y-118977438D01*
X81522957Y-119053804D01*
X81517996Y-119056756D01*
X81517995Y-119056756D01*
X81356737Y-119152695D01*
X81333341Y-119166614D01*
X81167457Y-119312090D01*
X81030863Y-119485360D01*
X80928131Y-119680620D01*
X80862703Y-119891333D01*
X80836770Y-120110440D01*
X80851200Y-120330604D01*
X80852621Y-120336200D01*
X80852622Y-120336205D01*
X80869928Y-120404345D01*
X80905511Y-120544452D01*
X80997883Y-120744821D01*
X81125222Y-120925002D01*
X81283264Y-121078961D01*
X81288060Y-121082166D01*
X81288063Y-121082168D01*
X81434226Y-121179830D01*
X81466717Y-121201540D01*
X81472020Y-121203818D01*
X81472023Y-121203820D01*
X81664129Y-121286355D01*
X81669436Y-121288635D01*
X81749088Y-121306658D01*
X81878995Y-121336054D01*
X81879001Y-121336055D01*
X81884632Y-121337329D01*
X81890403Y-121337556D01*
X81890405Y-121337556D01*
X81945853Y-121339734D01*
X82057182Y-121344108D01*
X82124464Y-121366769D01*
X82168815Y-121422208D01*
X82172849Y-121433569D01*
X82177551Y-121449142D01*
X82177871Y-121450224D01*
X82204906Y-121543280D01*
X82207462Y-121548210D01*
X82209065Y-121553521D01*
X82211961Y-121558968D01*
X82211962Y-121558970D01*
X82254563Y-121639093D01*
X82255175Y-121640259D01*
X82299714Y-121726182D01*
X82303174Y-121730517D01*
X82305782Y-121735421D01*
X82309672Y-121740191D01*
X82309673Y-121740192D01*
X82367064Y-121810560D01*
X82367892Y-121811587D01*
X82374769Y-121820201D01*
X82400369Y-121852270D01*
X82402861Y-121854762D01*
X82403833Y-121855849D01*
X82407548Y-121860198D01*
X82432094Y-121890295D01*
X82432097Y-121890298D01*
X82435989Y-121895070D01*
X82440736Y-121898997D01*
X82440738Y-121898999D01*
X82472983Y-121925674D01*
X82481763Y-121933664D01*
X85688082Y-125139984D01*
X85697183Y-125150126D01*
X85722065Y-125181073D01*
X85762070Y-125214641D01*
X85765702Y-125217810D01*
X85767912Y-125219814D01*
X85770091Y-125221993D01*
X85804748Y-125250460D01*
X85805636Y-125251197D01*
X85879880Y-125313496D01*
X85884744Y-125316170D01*
X85889033Y-125319693D01*
X85894464Y-125322605D01*
X85894473Y-125322611D01*
X85974361Y-125365446D01*
X85975521Y-125366075D01*
X86060412Y-125412744D01*
X86065707Y-125414424D01*
X86070594Y-125417044D01*
X86076484Y-125418845D01*
X86076487Y-125418846D01*
X86129580Y-125435078D01*
X86163168Y-125445347D01*
X86164373Y-125445722D01*
X86176740Y-125449645D01*
X86250905Y-125473172D01*
X86250908Y-125473173D01*
X86256782Y-125475036D01*
X86262296Y-125475654D01*
X86267606Y-125477278D01*
X86364077Y-125487078D01*
X86365212Y-125487199D01*
X86395884Y-125490639D01*
X86413616Y-125492628D01*
X86413622Y-125492628D01*
X86417114Y-125493020D01*
X86420640Y-125493020D01*
X86422109Y-125493102D01*
X86427795Y-125493549D01*
X86452334Y-125496042D01*
X86466439Y-125497475D01*
X86466442Y-125497475D01*
X86472565Y-125498097D01*
X86520359Y-125493579D01*
X86532218Y-125493020D01*
X87691618Y-125493020D01*
X87705226Y-125493757D01*
X87738572Y-125497380D01*
X87738576Y-125497380D01*
X87744697Y-125498045D01*
X87762582Y-125496480D01*
X87796722Y-125493494D01*
X87801546Y-125493165D01*
X87804509Y-125493020D01*
X87807591Y-125493020D01*
X87814598Y-125492333D01*
X87852142Y-125488652D01*
X87853455Y-125488530D01*
X87902648Y-125484226D01*
X87949926Y-125480090D01*
X87955255Y-125478542D01*
X87960780Y-125478000D01*
X88053563Y-125449987D01*
X88054718Y-125449645D01*
X88076878Y-125443207D01*
X88147760Y-125422614D01*
X88152690Y-125420058D01*
X88158001Y-125418455D01*
X88163445Y-125415560D01*
X88169146Y-125413211D01*
X88169688Y-125414527D01*
X88232212Y-125401656D01*
X88298451Y-125427209D01*
X88340359Y-125484517D01*
X88344632Y-125555385D01*
X88342151Y-125564591D01*
X88315094Y-125651730D01*
X88315093Y-125651736D01*
X88313379Y-125657255D01*
X88312700Y-125662988D01*
X88312700Y-125662990D01*
X88310032Y-125685534D01*
X88282161Y-125750832D01*
X88223413Y-125790695D01*
X88200041Y-125795812D01*
X88141605Y-125802883D01*
X88126047Y-125806834D01*
X88001451Y-125856165D01*
X87986620Y-125864522D01*
X87880275Y-125945243D01*
X87868243Y-125957275D01*
X87787522Y-126063620D01*
X87779165Y-126078451D01*
X87729834Y-126203047D01*
X87725881Y-126218612D01*
X87716456Y-126296502D01*
X87716000Y-126304057D01*
X87716000Y-126749885D01*
X87720475Y-126765124D01*
X87721865Y-126766329D01*
X87729548Y-126768000D01*
X88189500Y-126768000D01*
X88257621Y-126788002D01*
X88304114Y-126841658D01*
X88315500Y-126894000D01*
X88315500Y-127042000D01*
X88295498Y-127110121D01*
X88241842Y-127156614D01*
X88189500Y-127168000D01*
X87734115Y-127168000D01*
X87718876Y-127172475D01*
X87717671Y-127173865D01*
X87716000Y-127181548D01*
X87716000Y-127631943D01*
X87716456Y-127639498D01*
X87725881Y-127717388D01*
X87729834Y-127732953D01*
X87779165Y-127857549D01*
X87787522Y-127872380D01*
X87868243Y-127978725D01*
X87880275Y-127990757D01*
X87986620Y-128071478D01*
X88001451Y-128079835D01*
X88126051Y-128129168D01*
X88141603Y-128133118D01*
X88198017Y-128139944D01*
X88212390Y-128137548D01*
X88219429Y-128112542D01*
X88257142Y-128052390D01*
X88321389Y-128022176D01*
X88391771Y-128031493D01*
X88445944Y-128077382D01*
X88452377Y-128088310D01*
X88465429Y-128113277D01*
X88465431Y-128113280D01*
X88468385Y-128118930D01*
X88472414Y-128123870D01*
X88472416Y-128123873D01*
X88539340Y-128205930D01*
X88590429Y-128268571D01*
X88740070Y-128390615D01*
X88911194Y-128480077D01*
X88917322Y-128481834D01*
X88917324Y-128481835D01*
X88950731Y-128491414D01*
X89096813Y-128533302D01*
X89129096Y-128536183D01*
X89208283Y-128543251D01*
X89208289Y-128543251D01*
X89211076Y-128543500D01*
X89620924Y-128543500D01*
X89623711Y-128543251D01*
X89623717Y-128543251D01*
X89702904Y-128536183D01*
X89735187Y-128533302D01*
X89789975Y-128517592D01*
X89881270Y-128491414D01*
X89950730Y-128491414D01*
X90042025Y-128517592D01*
X90096813Y-128533302D01*
X90129096Y-128536183D01*
X90208283Y-128543251D01*
X90208289Y-128543251D01*
X90211076Y-128543500D01*
X90620924Y-128543500D01*
X90623711Y-128543251D01*
X90623717Y-128543251D01*
X90702904Y-128536183D01*
X90735187Y-128533302D01*
X90789975Y-128517592D01*
X90881270Y-128491414D01*
X90950730Y-128491414D01*
X91042025Y-128517592D01*
X91096813Y-128533302D01*
X91129096Y-128536183D01*
X91208283Y-128543251D01*
X91208289Y-128543251D01*
X91211076Y-128543500D01*
X91620924Y-128543500D01*
X91623711Y-128543251D01*
X91623717Y-128543251D01*
X91702904Y-128536183D01*
X91735187Y-128533302D01*
X91881269Y-128491414D01*
X91914676Y-128481835D01*
X91914678Y-128481834D01*
X91920806Y-128480077D01*
X92091930Y-128390615D01*
X92241571Y-128268571D01*
X92292660Y-128205930D01*
X92359584Y-128123873D01*
X92359586Y-128123870D01*
X92363615Y-128118930D01*
X92366571Y-128113277D01*
X92414197Y-128022176D01*
X92453077Y-127947806D01*
X92506302Y-127762187D01*
X92516500Y-127647924D01*
X92516500Y-126288076D01*
X92514427Y-126264843D01*
X92506835Y-126179786D01*
X92506302Y-126173813D01*
X92458026Y-126005452D01*
X92454835Y-125994324D01*
X92454834Y-125994322D01*
X92453077Y-125988194D01*
X92394612Y-125876362D01*
X92366570Y-125822722D01*
X92366569Y-125822721D01*
X92363615Y-125817070D01*
X92361936Y-125815012D01*
X92341500Y-125746901D01*
X92341500Y-125563494D01*
X92361502Y-125495373D01*
X92386926Y-125466624D01*
X92419518Y-125439518D01*
X92423211Y-125435078D01*
X92556908Y-125274326D01*
X92556910Y-125274323D01*
X92560602Y-125269884D01*
X92668410Y-125077379D01*
X92670266Y-125071912D01*
X92670268Y-125071907D01*
X92735751Y-124878998D01*
X92776588Y-124820922D01*
X92842341Y-124794143D01*
X92855064Y-124793499D01*
X93166336Y-124793499D01*
X93167892Y-124793420D01*
X93167909Y-124793420D01*
X93168003Y-124793415D01*
X93168005Y-124793415D01*
X93172673Y-124793179D01*
X93374623Y-124752459D01*
X93564817Y-124673289D01*
X93736011Y-124558684D01*
X93881684Y-124413011D01*
X93996289Y-124241817D01*
X94075459Y-124051623D01*
X94116179Y-123849673D01*
X94116500Y-123843337D01*
X94116499Y-122342664D01*
X94116179Y-122336327D01*
X94075459Y-122134377D01*
X93996289Y-121944183D01*
X93881684Y-121772989D01*
X93736011Y-121627316D01*
X93564817Y-121512711D01*
X93374623Y-121433541D01*
X93172673Y-121392821D01*
X93168007Y-121392585D01*
X93168002Y-121392584D01*
X93167925Y-121392580D01*
X93167907Y-121392580D01*
X93166337Y-121392500D01*
X93164740Y-121392500D01*
X92713876Y-121392501D01*
X92265664Y-121392501D01*
X92264108Y-121392580D01*
X92264091Y-121392580D01*
X92263997Y-121392585D01*
X92263995Y-121392585D01*
X92259327Y-121392821D01*
X92057377Y-121433541D01*
X91867183Y-121512711D01*
X91695989Y-121627316D01*
X91550316Y-121772989D01*
X91435711Y-121944183D01*
X91356541Y-122134377D01*
X91315821Y-122336327D01*
X91315500Y-122342663D01*
X91315500Y-122762282D01*
X91295498Y-122830403D01*
X91241842Y-122876896D01*
X91171568Y-122887000D01*
X91122268Y-122868846D01*
X90994554Y-122788264D01*
X90789625Y-122706506D01*
X90783965Y-122705380D01*
X90783961Y-122705379D01*
X90578895Y-122664589D01*
X90578892Y-122664589D01*
X90573228Y-122663462D01*
X90567453Y-122663386D01*
X90567449Y-122663386D01*
X90456708Y-122661937D01*
X90352610Y-122660574D01*
X90346913Y-122661553D01*
X90346912Y-122661553D01*
X90140858Y-122696959D01*
X90140857Y-122696959D01*
X90135161Y-122697938D01*
X89928161Y-122774304D01*
X89923200Y-122777256D01*
X89923199Y-122777256D01*
X89786193Y-122858766D01*
X89717423Y-122876406D01*
X89650033Y-122854065D01*
X89605419Y-122798838D01*
X89597061Y-122745126D01*
X89595991Y-122745098D01*
X89597546Y-122685704D01*
X89597643Y-122682000D01*
X89577454Y-122462289D01*
X89573275Y-122447469D01*
X89519134Y-122255500D01*
X89517565Y-122249936D01*
X89419980Y-122052053D01*
X89409002Y-122037351D01*
X89291420Y-121879891D01*
X89291420Y-121879890D01*
X89287967Y-121875267D01*
X89203767Y-121797434D01*
X89173255Y-121769228D01*
X89136810Y-121708299D01*
X89134088Y-121658623D01*
X89135500Y-121648886D01*
X89151491Y-121538598D01*
X89153143Y-121475500D01*
X89132954Y-121255789D01*
X89118298Y-121203820D01*
X89074634Y-121049000D01*
X89073065Y-121043436D01*
X88975480Y-120845553D01*
X88900260Y-120744821D01*
X88846920Y-120673391D01*
X88846920Y-120673390D01*
X88843467Y-120668767D01*
X88708984Y-120544452D01*
X88685689Y-120522918D01*
X88685686Y-120522916D01*
X88681449Y-120518999D01*
X88494850Y-120401264D01*
X88331778Y-120336205D01*
X88295285Y-120321646D01*
X88289921Y-120319506D01*
X88284261Y-120318380D01*
X88284257Y-120318379D01*
X88079191Y-120277589D01*
X88079188Y-120277589D01*
X88073524Y-120276462D01*
X88067749Y-120276386D01*
X88067745Y-120276386D01*
X87957004Y-120274937D01*
X87852906Y-120273574D01*
X87847209Y-120274553D01*
X87847208Y-120274553D01*
X87641154Y-120309959D01*
X87641153Y-120309959D01*
X87635457Y-120310938D01*
X87428457Y-120387304D01*
X87238841Y-120500114D01*
X87072957Y-120645590D01*
X86936363Y-120818860D01*
X86833631Y-121014120D01*
X86768203Y-121224833D01*
X86767524Y-121230571D01*
X86761211Y-121283908D01*
X86733341Y-121349206D01*
X86674592Y-121389070D01*
X86659254Y-121392461D01*
X86659327Y-121392821D01*
X86457377Y-121433541D01*
X86267183Y-121512711D01*
X86095989Y-121627316D01*
X85950316Y-121772989D01*
X85835711Y-121944183D01*
X85798656Y-122033202D01*
X85754013Y-122088404D01*
X85686610Y-122110707D01*
X85617850Y-122093030D01*
X85593237Y-122073875D01*
X84272405Y-120753043D01*
X84238379Y-120690731D01*
X84235500Y-120663948D01*
X84235500Y-118586440D01*
X100129433Y-118586440D01*
X100143863Y-118806604D01*
X100145284Y-118812200D01*
X100145285Y-118812205D01*
X100177958Y-118940852D01*
X100198174Y-119020452D01*
X100200591Y-119025694D01*
X100200591Y-119025695D01*
X100288128Y-119215576D01*
X100290546Y-119220821D01*
X100417885Y-119401002D01*
X100575927Y-119554961D01*
X100580723Y-119558166D01*
X100580726Y-119558168D01*
X100664924Y-119614427D01*
X100759380Y-119677540D01*
X100764683Y-119679818D01*
X100764686Y-119679820D01*
X100908081Y-119741427D01*
X100962099Y-119764635D01*
X101041751Y-119782658D01*
X101171658Y-119812054D01*
X101171664Y-119812055D01*
X101177295Y-119813329D01*
X101183066Y-119813556D01*
X101183068Y-119813556D01*
X101250874Y-119816220D01*
X101397761Y-119821991D01*
X101518118Y-119804540D01*
X101610401Y-119791160D01*
X101610406Y-119791159D01*
X101616115Y-119790331D01*
X101621579Y-119788476D01*
X101621584Y-119788475D01*
X101819570Y-119721268D01*
X101819575Y-119721266D01*
X101825042Y-119719410D01*
X101884454Y-119686138D01*
X101905538Y-119674330D01*
X102017547Y-119611602D01*
X102030050Y-119601204D01*
X102182749Y-119474204D01*
X102187181Y-119470518D01*
X102223067Y-119427370D01*
X102324571Y-119305326D01*
X102324573Y-119305323D01*
X102328265Y-119300884D01*
X102414191Y-119147452D01*
X102433249Y-119113422D01*
X102433250Y-119113420D01*
X102436073Y-119108379D01*
X102437929Y-119102912D01*
X102437931Y-119102907D01*
X102505138Y-118904921D01*
X102505139Y-118904916D01*
X102506994Y-118899452D01*
X102507822Y-118893743D01*
X102507823Y-118893738D01*
X102527009Y-118761413D01*
X102538654Y-118681098D01*
X102540306Y-118618000D01*
X102520117Y-118398289D01*
X102497615Y-118318500D01*
X102490173Y-118292113D01*
X102460228Y-118185936D01*
X102362643Y-117988053D01*
X102311551Y-117919632D01*
X102234083Y-117815891D01*
X102234083Y-117815890D01*
X102230630Y-117811267D01*
X102068612Y-117661499D01*
X101882013Y-117543764D01*
X101677084Y-117462006D01*
X101671424Y-117460880D01*
X101671420Y-117460879D01*
X101466354Y-117420089D01*
X101466351Y-117420089D01*
X101460687Y-117418962D01*
X101454912Y-117418886D01*
X101454908Y-117418886D01*
X101344167Y-117417437D01*
X101240069Y-117416074D01*
X101234372Y-117417053D01*
X101234371Y-117417053D01*
X101028317Y-117452459D01*
X101028316Y-117452459D01*
X101022620Y-117453438D01*
X100815620Y-117529804D01*
X100810659Y-117532756D01*
X100810658Y-117532756D01*
X100712514Y-117591146D01*
X100626004Y-117642614D01*
X100460120Y-117788090D01*
X100323526Y-117961360D01*
X100220794Y-118156620D01*
X100155366Y-118367333D01*
X100129433Y-118586440D01*
X84235500Y-118586440D01*
X84235500Y-117073163D01*
X84238298Y-117062440D01*
X86678770Y-117062440D01*
X86693200Y-117282604D01*
X86694621Y-117288200D01*
X86694622Y-117288205D01*
X86738763Y-117462006D01*
X86747511Y-117496452D01*
X86749928Y-117501694D01*
X86749928Y-117501695D01*
X86817800Y-117648920D01*
X86839883Y-117696821D01*
X86967222Y-117877002D01*
X87125264Y-118030961D01*
X87130060Y-118034166D01*
X87130063Y-118034168D01*
X87244192Y-118110426D01*
X87308717Y-118153540D01*
X87314020Y-118155818D01*
X87314023Y-118155820D01*
X87479234Y-118226800D01*
X87511436Y-118240635D01*
X87591088Y-118258658D01*
X87720995Y-118288054D01*
X87721001Y-118288055D01*
X87726632Y-118289329D01*
X87732403Y-118289556D01*
X87732405Y-118289556D01*
X87800211Y-118292220D01*
X87947098Y-118297991D01*
X88056275Y-118282161D01*
X88159738Y-118267160D01*
X88159743Y-118267159D01*
X88165452Y-118266331D01*
X88170916Y-118264476D01*
X88170921Y-118264475D01*
X88368907Y-118197268D01*
X88368912Y-118197266D01*
X88374379Y-118195410D01*
X88433791Y-118162138D01*
X88508615Y-118120234D01*
X88566884Y-118087602D01*
X88593356Y-118065586D01*
X88732086Y-117950204D01*
X88736518Y-117946518D01*
X88841100Y-117820773D01*
X88873908Y-117781326D01*
X88873910Y-117781323D01*
X88877602Y-117776884D01*
X88968851Y-117613947D01*
X88982586Y-117589422D01*
X88982587Y-117589420D01*
X88985410Y-117584379D01*
X88987266Y-117578912D01*
X88987268Y-117578907D01*
X89054475Y-117380921D01*
X89054476Y-117380916D01*
X89056331Y-117375452D01*
X89057159Y-117369743D01*
X89057160Y-117369738D01*
X89076346Y-117237413D01*
X89087991Y-117157098D01*
X89089643Y-117094000D01*
X89075073Y-116935440D01*
X92520770Y-116935440D01*
X92535200Y-117155604D01*
X92536621Y-117161200D01*
X92536622Y-117161205D01*
X92586941Y-117359334D01*
X92589511Y-117369452D01*
X92591928Y-117374694D01*
X92591928Y-117374695D01*
X92627778Y-117452459D01*
X92681883Y-117569821D01*
X92809222Y-117750002D01*
X92967264Y-117903961D01*
X92972060Y-117907166D01*
X92972063Y-117907168D01*
X93086192Y-117983426D01*
X93150717Y-118026540D01*
X93156020Y-118028818D01*
X93156023Y-118028820D01*
X93345967Y-118110426D01*
X93353436Y-118113635D01*
X93433088Y-118131658D01*
X93562995Y-118161054D01*
X93563001Y-118161055D01*
X93568632Y-118162329D01*
X93574403Y-118162556D01*
X93574405Y-118162556D01*
X93642211Y-118165220D01*
X93789098Y-118170991D01*
X93909455Y-118153540D01*
X94001738Y-118140160D01*
X94001743Y-118140159D01*
X94007452Y-118139331D01*
X94012916Y-118137476D01*
X94012921Y-118137475D01*
X94210907Y-118070268D01*
X94210912Y-118070266D01*
X94216379Y-118068410D01*
X94277523Y-118034168D01*
X94350615Y-117993234D01*
X94408884Y-117960602D01*
X94421387Y-117950204D01*
X94574086Y-117823204D01*
X94578518Y-117819518D01*
X94616854Y-117773424D01*
X94715908Y-117654326D01*
X94715910Y-117654323D01*
X94719602Y-117649884D01*
X94802676Y-117501545D01*
X94824586Y-117462422D01*
X94824587Y-117462420D01*
X94827410Y-117457379D01*
X94829266Y-117451912D01*
X94829268Y-117451907D01*
X94856159Y-117372688D01*
X102265217Y-117372688D01*
X102272272Y-117382661D01*
X102362013Y-117457695D01*
X102368950Y-117462735D01*
X102610002Y-117613947D01*
X102617553Y-117617996D01*
X102876907Y-117735099D01*
X102884938Y-117738085D01*
X103157783Y-117818906D01*
X103166135Y-117820773D01*
X103447431Y-117863817D01*
X103455964Y-117864533D01*
X103740494Y-117869004D01*
X103749045Y-117868555D01*
X104031553Y-117834368D01*
X104039954Y-117832766D01*
X104315222Y-117760551D01*
X104323324Y-117757824D01*
X104586239Y-117648920D01*
X104593901Y-117645117D01*
X104839595Y-117501545D01*
X104846682Y-117496728D01*
X104990602Y-117383881D01*
X104999073Y-117372021D01*
X104992557Y-117360400D01*
X103644812Y-116012655D01*
X103630868Y-116005041D01*
X103629035Y-116005172D01*
X103622420Y-116009423D01*
X102272509Y-117359334D01*
X102265217Y-117372688D01*
X94856159Y-117372688D01*
X94896475Y-117253921D01*
X94896476Y-117253916D01*
X94898331Y-117248452D01*
X94899159Y-117242743D01*
X94899160Y-117242738D01*
X94918346Y-117110413D01*
X94929991Y-117030098D01*
X94931643Y-116967000D01*
X94911454Y-116747289D01*
X94888952Y-116667500D01*
X94858407Y-116559195D01*
X94851565Y-116534936D01*
X94753980Y-116337053D01*
X94726178Y-116299821D01*
X94625420Y-116164891D01*
X94625420Y-116164890D01*
X94621967Y-116160267D01*
X94483750Y-116032500D01*
X94464189Y-116014418D01*
X94464186Y-116014416D01*
X94459949Y-116010499D01*
X94273350Y-115892764D01*
X94068421Y-115811006D01*
X94062761Y-115809880D01*
X94062757Y-115809879D01*
X93857691Y-115769089D01*
X93857688Y-115769089D01*
X93852024Y-115767962D01*
X93846249Y-115767886D01*
X93846245Y-115767886D01*
X93735504Y-115766437D01*
X93631406Y-115765074D01*
X93625709Y-115766053D01*
X93625708Y-115766053D01*
X93419654Y-115801459D01*
X93419653Y-115801459D01*
X93413957Y-115802438D01*
X93206957Y-115878804D01*
X93201996Y-115881756D01*
X93201995Y-115881756D01*
X93103851Y-115940146D01*
X93017341Y-115991614D01*
X92851457Y-116137090D01*
X92714863Y-116310360D01*
X92612131Y-116505620D01*
X92546703Y-116716333D01*
X92520770Y-116935440D01*
X89075073Y-116935440D01*
X89069454Y-116874289D01*
X89061169Y-116844910D01*
X89033251Y-116745921D01*
X89009565Y-116661936D01*
X88911980Y-116464053D01*
X88891051Y-116436025D01*
X88783420Y-116291891D01*
X88783420Y-116291890D01*
X88779967Y-116287267D01*
X88669144Y-116184823D01*
X88622189Y-116141418D01*
X88622186Y-116141416D01*
X88617949Y-116137499D01*
X88431350Y-116019764D01*
X88226421Y-115938006D01*
X88220761Y-115936880D01*
X88220757Y-115936879D01*
X88015691Y-115896089D01*
X88015688Y-115896089D01*
X88010024Y-115894962D01*
X88004249Y-115894886D01*
X88004245Y-115894886D01*
X87893504Y-115893437D01*
X87789406Y-115892074D01*
X87783709Y-115893053D01*
X87783708Y-115893053D01*
X87577654Y-115928459D01*
X87577653Y-115928459D01*
X87571957Y-115929438D01*
X87364957Y-116005804D01*
X87359996Y-116008756D01*
X87359995Y-116008756D01*
X87198737Y-116104695D01*
X87175341Y-116118614D01*
X87009457Y-116264090D01*
X86872863Y-116437360D01*
X86770131Y-116632620D01*
X86704703Y-116843333D01*
X86678770Y-117062440D01*
X84238298Y-117062440D01*
X84251565Y-117011598D01*
X84286410Y-116949379D01*
X84288266Y-116943912D01*
X84288268Y-116943907D01*
X84355475Y-116745921D01*
X84355476Y-116745916D01*
X84357331Y-116740452D01*
X84358159Y-116734743D01*
X84358160Y-116734738D01*
X84380039Y-116583841D01*
X84388991Y-116522098D01*
X84390643Y-116459000D01*
X84370454Y-116239289D01*
X84310565Y-116026936D01*
X84212980Y-115829053D01*
X84192375Y-115801459D01*
X84084420Y-115656891D01*
X84084420Y-115656890D01*
X84080967Y-115652267D01*
X83956574Y-115537279D01*
X83923189Y-115506418D01*
X83923186Y-115506416D01*
X83918949Y-115502499D01*
X83732350Y-115384764D01*
X83552810Y-115313135D01*
X83496951Y-115269314D01*
X83473500Y-115196105D01*
X83473500Y-112871440D01*
X85789770Y-112871440D01*
X85804200Y-113091604D01*
X85805621Y-113097200D01*
X85805622Y-113097205D01*
X85843558Y-113246576D01*
X85858511Y-113305452D01*
X85860928Y-113310694D01*
X85860928Y-113310695D01*
X85946856Y-113497086D01*
X85950883Y-113505821D01*
X86078222Y-113686002D01*
X86236264Y-113839961D01*
X86241060Y-113843166D01*
X86241063Y-113843168D01*
X86325261Y-113899427D01*
X86419717Y-113962540D01*
X86425020Y-113964818D01*
X86425023Y-113964820D01*
X86531265Y-114010465D01*
X86622436Y-114049635D01*
X86702088Y-114067658D01*
X86831995Y-114097054D01*
X86832001Y-114097055D01*
X86837632Y-114098329D01*
X86843403Y-114098556D01*
X86843405Y-114098556D01*
X86911211Y-114101220D01*
X87058098Y-114106991D01*
X87167275Y-114091161D01*
X87270738Y-114076160D01*
X87270743Y-114076159D01*
X87276452Y-114075331D01*
X87281916Y-114073476D01*
X87281921Y-114073475D01*
X87479907Y-114006268D01*
X87479912Y-114006266D01*
X87485379Y-114004410D01*
X87677884Y-113896602D01*
X87730321Y-113852991D01*
X87843086Y-113759204D01*
X87847518Y-113755518D01*
X87909256Y-113681287D01*
X87984908Y-113590326D01*
X87984910Y-113590323D01*
X87988602Y-113585884D01*
X88068477Y-113443257D01*
X88093586Y-113398422D01*
X88093587Y-113398420D01*
X88096410Y-113393379D01*
X88098266Y-113387912D01*
X88098268Y-113387907D01*
X88165475Y-113189921D01*
X88165476Y-113189916D01*
X88167331Y-113184452D01*
X88168159Y-113178743D01*
X88168160Y-113178738D01*
X88198458Y-112969772D01*
X88198991Y-112966098D01*
X88200643Y-112903000D01*
X88180454Y-112683289D01*
X88160266Y-112611705D01*
X88122134Y-112476500D01*
X88120565Y-112470936D01*
X88022980Y-112273053D01*
X87995178Y-112235821D01*
X87914432Y-112127690D01*
X90126020Y-112127690D01*
X90132465Y-112226022D01*
X90140063Y-112341942D01*
X90140450Y-112347854D01*
X90141871Y-112353450D01*
X90141872Y-112353455D01*
X90170393Y-112465753D01*
X90194761Y-112561702D01*
X90197178Y-112566944D01*
X90197178Y-112566945D01*
X90233303Y-112645305D01*
X90287133Y-112762071D01*
X90414472Y-112942252D01*
X90572514Y-113096211D01*
X90577310Y-113099416D01*
X90577313Y-113099418D01*
X90661511Y-113155677D01*
X90755967Y-113218790D01*
X90761270Y-113221068D01*
X90761273Y-113221070D01*
X90900134Y-113280729D01*
X90958686Y-113305885D01*
X91038338Y-113323908D01*
X91168245Y-113353304D01*
X91168251Y-113353305D01*
X91173882Y-113354579D01*
X91179653Y-113354806D01*
X91179655Y-113354806D01*
X91247461Y-113357470D01*
X91394348Y-113363241D01*
X91503525Y-113347411D01*
X91606988Y-113332410D01*
X91606993Y-113332409D01*
X91612702Y-113331581D01*
X91618166Y-113329726D01*
X91618171Y-113329725D01*
X91816157Y-113262518D01*
X91816162Y-113262516D01*
X91821629Y-113260660D01*
X91828992Y-113256537D01*
X91902125Y-113215580D01*
X92014134Y-113152852D01*
X92030334Y-113139379D01*
X92179336Y-113015454D01*
X92183768Y-113011768D01*
X92256151Y-112924738D01*
X92321158Y-112846576D01*
X92321160Y-112846573D01*
X92324852Y-112842134D01*
X92410426Y-112689330D01*
X92429836Y-112654672D01*
X92429837Y-112654670D01*
X92432660Y-112649629D01*
X92434516Y-112644162D01*
X92434518Y-112644157D01*
X92501725Y-112446171D01*
X92501726Y-112446166D01*
X92503581Y-112440702D01*
X92504409Y-112434993D01*
X92504410Y-112434988D01*
X92524961Y-112293248D01*
X92535241Y-112222348D01*
X92536893Y-112159250D01*
X92516704Y-111939539D01*
X92514416Y-111931424D01*
X92481659Y-111815278D01*
X92456815Y-111727186D01*
X92359230Y-111529303D01*
X92328671Y-111488379D01*
X92230670Y-111357141D01*
X92230670Y-111357140D01*
X92227217Y-111352517D01*
X92065199Y-111202749D01*
X91878600Y-111085014D01*
X91731765Y-111026433D01*
X91679035Y-111005396D01*
X91673671Y-111003256D01*
X91668011Y-111002130D01*
X91668007Y-111002129D01*
X91462941Y-110961339D01*
X91462938Y-110961339D01*
X91457274Y-110960212D01*
X91451499Y-110960136D01*
X91451495Y-110960136D01*
X91340754Y-110958687D01*
X91236656Y-110957324D01*
X91230959Y-110958303D01*
X91230958Y-110958303D01*
X91024904Y-110993709D01*
X91024903Y-110993709D01*
X91019207Y-110994688D01*
X90812207Y-111071054D01*
X90807246Y-111074006D01*
X90807245Y-111074006D01*
X90738252Y-111115053D01*
X90622591Y-111183864D01*
X90456707Y-111329340D01*
X90320113Y-111502610D01*
X90217381Y-111697870D01*
X90151953Y-111908583D01*
X90126020Y-112127690D01*
X87914432Y-112127690D01*
X87894420Y-112100891D01*
X87894420Y-112100890D01*
X87890967Y-112096267D01*
X87728949Y-111946499D01*
X87542350Y-111828764D01*
X87337421Y-111747006D01*
X87331761Y-111745880D01*
X87331757Y-111745879D01*
X87126691Y-111705089D01*
X87126688Y-111705089D01*
X87121024Y-111703962D01*
X87115249Y-111703886D01*
X87115245Y-111703886D01*
X87004504Y-111702437D01*
X86900406Y-111701074D01*
X86894709Y-111702053D01*
X86894708Y-111702053D01*
X86688654Y-111737459D01*
X86688653Y-111737459D01*
X86682957Y-111738438D01*
X86475957Y-111814804D01*
X86470996Y-111817756D01*
X86470995Y-111817756D01*
X86408695Y-111854821D01*
X86286341Y-111927614D01*
X86120457Y-112073090D01*
X85983863Y-112246360D01*
X85881131Y-112441620D01*
X85815703Y-112652333D01*
X85789770Y-112871440D01*
X83473500Y-112871440D01*
X83473500Y-110935132D01*
X83474237Y-110921524D01*
X83477860Y-110888178D01*
X83477860Y-110888174D01*
X83478525Y-110882053D01*
X83476372Y-110857447D01*
X83473974Y-110830028D01*
X83473645Y-110825204D01*
X83473500Y-110822241D01*
X83473500Y-110819159D01*
X83469716Y-110780566D01*
X83469132Y-110774608D01*
X83469010Y-110773295D01*
X83464342Y-110719941D01*
X83460570Y-110676824D01*
X83459022Y-110671495D01*
X83458480Y-110665970D01*
X83430467Y-110573187D01*
X83430125Y-110572032D01*
X83403094Y-110478990D01*
X83400538Y-110474060D01*
X83398935Y-110468749D01*
X83388121Y-110448410D01*
X83353437Y-110383177D01*
X83352825Y-110382011D01*
X83339538Y-110356379D01*
X83308286Y-110296088D01*
X83304826Y-110291753D01*
X83302218Y-110286849D01*
X83285345Y-110266160D01*
X83240936Y-110211710D01*
X83240108Y-110210683D01*
X83209829Y-110172753D01*
X83209826Y-110172750D01*
X83207631Y-110170000D01*
X83205139Y-110167508D01*
X83204167Y-110166421D01*
X83200452Y-110162072D01*
X83175906Y-110131975D01*
X83175903Y-110131972D01*
X83172011Y-110127200D01*
X83135016Y-110096595D01*
X83126237Y-110088606D01*
X82099071Y-109061440D01*
X84900770Y-109061440D01*
X84915200Y-109281604D01*
X84916621Y-109287200D01*
X84916622Y-109287205D01*
X84948767Y-109413772D01*
X84969511Y-109495452D01*
X84971928Y-109500694D01*
X84971928Y-109500695D01*
X85050787Y-109671753D01*
X85061883Y-109695821D01*
X85189222Y-109876002D01*
X85347264Y-110029961D01*
X85352060Y-110033166D01*
X85352063Y-110033168D01*
X85486913Y-110123271D01*
X85530717Y-110152540D01*
X85536020Y-110154818D01*
X85536023Y-110154820D01*
X85706373Y-110228008D01*
X85733436Y-110239635D01*
X85813088Y-110257658D01*
X85942995Y-110287054D01*
X85943001Y-110287055D01*
X85948632Y-110288329D01*
X85954403Y-110288556D01*
X85954405Y-110288556D01*
X86020789Y-110291164D01*
X86169098Y-110296991D01*
X86278275Y-110281161D01*
X86381738Y-110266160D01*
X86381743Y-110266159D01*
X86387452Y-110265331D01*
X86392916Y-110263476D01*
X86392921Y-110263475D01*
X86590907Y-110196268D01*
X86590912Y-110196266D01*
X86596379Y-110194410D01*
X86635051Y-110172753D01*
X86711388Y-110130002D01*
X86788884Y-110086602D01*
X86799503Y-110077771D01*
X86954086Y-109949204D01*
X86958518Y-109945518D01*
X87053008Y-109831907D01*
X87095908Y-109780326D01*
X87095910Y-109780323D01*
X87099602Y-109775884D01*
X87207410Y-109583379D01*
X87209266Y-109577912D01*
X87209268Y-109577907D01*
X87276475Y-109379921D01*
X87276476Y-109379916D01*
X87278331Y-109374452D01*
X87279159Y-109368743D01*
X87279160Y-109368738D01*
X87302760Y-109205970D01*
X87309991Y-109156098D01*
X87311643Y-109093000D01*
X87291454Y-108873289D01*
X87286886Y-108857090D01*
X87247391Y-108717053D01*
X87231565Y-108660936D01*
X87133980Y-108463053D01*
X87001967Y-108286267D01*
X86891810Y-108184439D01*
X86844189Y-108140418D01*
X86844186Y-108140416D01*
X86839949Y-108136499D01*
X86653350Y-108018764D01*
X86448421Y-107937006D01*
X86442761Y-107935880D01*
X86442757Y-107935879D01*
X86237691Y-107895089D01*
X86237688Y-107895089D01*
X86232024Y-107893962D01*
X86226249Y-107893886D01*
X86226245Y-107893886D01*
X86115504Y-107892437D01*
X86011406Y-107891074D01*
X86005709Y-107892053D01*
X86005708Y-107892053D01*
X85799654Y-107927459D01*
X85799653Y-107927459D01*
X85793957Y-107928438D01*
X85586957Y-108004804D01*
X85397341Y-108117614D01*
X85231457Y-108263090D01*
X85094863Y-108436360D01*
X84992131Y-108631620D01*
X84926703Y-108842333D01*
X84900770Y-109061440D01*
X82099071Y-109061440D01*
X80036168Y-106998536D01*
X80027066Y-106988393D01*
X80006050Y-106962254D01*
X80006049Y-106962253D01*
X80002185Y-106957447D01*
X79962180Y-106923879D01*
X79958548Y-106920710D01*
X79956338Y-106918706D01*
X79954159Y-106916527D01*
X79919502Y-106888060D01*
X79918614Y-106887323D01*
X79844370Y-106825024D01*
X79839506Y-106822350D01*
X79835217Y-106818827D01*
X79749770Y-106773011D01*
X79748768Y-106772466D01*
X79669251Y-106728751D01*
X79669244Y-106728748D01*
X79663838Y-106725776D01*
X79658547Y-106724098D01*
X79653656Y-106721475D01*
X79647764Y-106719673D01*
X79647760Y-106719672D01*
X79561037Y-106693158D01*
X79559778Y-106692766D01*
X79494651Y-106672107D01*
X79467468Y-106663484D01*
X79461954Y-106662866D01*
X79456644Y-106661242D01*
X79360173Y-106651442D01*
X79359038Y-106651321D01*
X79328366Y-106647881D01*
X79310634Y-106645892D01*
X79310628Y-106645892D01*
X79307136Y-106645500D01*
X79303610Y-106645500D01*
X79302141Y-106645418D01*
X79296455Y-106644971D01*
X79271916Y-106642478D01*
X79257811Y-106641045D01*
X79257808Y-106641045D01*
X79251685Y-106640423D01*
X79244164Y-106641134D01*
X79240732Y-106641458D01*
X79171031Y-106627954D01*
X79168577Y-106626550D01*
X79165240Y-106624849D01*
X79160350Y-106621764D01*
X79154990Y-106619626D01*
X79154985Y-106619623D01*
X78960785Y-106542146D01*
X78955421Y-106540006D01*
X78949761Y-106538880D01*
X78949757Y-106538879D01*
X78744691Y-106498089D01*
X78744688Y-106498089D01*
X78739024Y-106496962D01*
X78733249Y-106496886D01*
X78733245Y-106496886D01*
X78622504Y-106495437D01*
X78518406Y-106494074D01*
X78512709Y-106495053D01*
X78512708Y-106495053D01*
X78306654Y-106530459D01*
X78306653Y-106530459D01*
X78300957Y-106531438D01*
X78093957Y-106607804D01*
X78088996Y-106610756D01*
X78088995Y-106610756D01*
X77950820Y-106692962D01*
X77904341Y-106720614D01*
X77738457Y-106866090D01*
X77601863Y-107039360D01*
X77499131Y-107234620D01*
X77433703Y-107445333D01*
X77407770Y-107664440D01*
X77408148Y-107670206D01*
X77416093Y-107791422D01*
X77400589Y-107860705D01*
X77350089Y-107910608D01*
X77311699Y-107923843D01*
X77290657Y-107927458D01*
X77290651Y-107927460D01*
X77284957Y-107928438D01*
X77077957Y-108004804D01*
X76888341Y-108117614D01*
X76722457Y-108263090D01*
X76585863Y-108436360D01*
X76483131Y-108631620D01*
X76417703Y-108842333D01*
X76391770Y-109061440D01*
X76096883Y-109061440D01*
X76070718Y-108968665D01*
X76055565Y-108914936D01*
X75957980Y-108717053D01*
X75887192Y-108622256D01*
X75829420Y-108544891D01*
X75829420Y-108544890D01*
X75825967Y-108540267D01*
X75663949Y-108390499D01*
X75477350Y-108272764D01*
X75272421Y-108191006D01*
X75266761Y-108189880D01*
X75266757Y-108189879D01*
X75061691Y-108149089D01*
X75061688Y-108149089D01*
X75056024Y-108147962D01*
X75050249Y-108147886D01*
X75050245Y-108147886D01*
X74939504Y-108146437D01*
X74835406Y-108145074D01*
X74829709Y-108146053D01*
X74829708Y-108146053D01*
X74623654Y-108181459D01*
X74623653Y-108181459D01*
X74617957Y-108182438D01*
X74410957Y-108258804D01*
X74405996Y-108261756D01*
X74405995Y-108261756D01*
X74317916Y-108314158D01*
X74221341Y-108371614D01*
X74055457Y-108517090D01*
X73918863Y-108690360D01*
X73816131Y-108885620D01*
X73750703Y-109096333D01*
X73724770Y-109315440D01*
X67675061Y-109315440D01*
X67616548Y-108566784D01*
X67616244Y-108561419D01*
X67583730Y-107641949D01*
X67583654Y-107636576D01*
X67588117Y-107025527D01*
X67590375Y-106716496D01*
X67590528Y-106711142D01*
X67591428Y-106693158D01*
X67636472Y-105792211D01*
X67636854Y-105786858D01*
X67643686Y-105713303D01*
X67674250Y-105384206D01*
X67674786Y-105378440D01*
X71184770Y-105378440D01*
X71199200Y-105598604D01*
X71200621Y-105604200D01*
X71200622Y-105604205D01*
X71228330Y-105713303D01*
X71253511Y-105812452D01*
X71255928Y-105817694D01*
X71255928Y-105817695D01*
X71294046Y-105900379D01*
X71345883Y-106012821D01*
X71473222Y-106193002D01*
X71631264Y-106346961D01*
X71636060Y-106350166D01*
X71636063Y-106350168D01*
X71720261Y-106406427D01*
X71814717Y-106469540D01*
X71820020Y-106471818D01*
X71820023Y-106471820D01*
X71958788Y-106531438D01*
X72017436Y-106556635D01*
X72097088Y-106574658D01*
X72226995Y-106604054D01*
X72227001Y-106604055D01*
X72232632Y-106605329D01*
X72238403Y-106605556D01*
X72238405Y-106605556D01*
X72306211Y-106608220D01*
X72453098Y-106613991D01*
X72562275Y-106598161D01*
X72665738Y-106583160D01*
X72665743Y-106583159D01*
X72671452Y-106582331D01*
X72676916Y-106580476D01*
X72676921Y-106580475D01*
X72874907Y-106513268D01*
X72874912Y-106513266D01*
X72880379Y-106511410D01*
X72885992Y-106508267D01*
X73020920Y-106432703D01*
X73072884Y-106403602D01*
X73242518Y-106262518D01*
X73288744Y-106206938D01*
X73379908Y-106097326D01*
X73379910Y-106097323D01*
X73383602Y-106092884D01*
X73491410Y-105900379D01*
X73493266Y-105894912D01*
X73493268Y-105894907D01*
X73560475Y-105696921D01*
X73560476Y-105696916D01*
X73562331Y-105691452D01*
X73563159Y-105685743D01*
X73563160Y-105685738D01*
X73593458Y-105476772D01*
X73593991Y-105473098D01*
X73595643Y-105410000D01*
X73592743Y-105378440D01*
X74994770Y-105378440D01*
X75009200Y-105598604D01*
X75010621Y-105604200D01*
X75010622Y-105604205D01*
X75038330Y-105713303D01*
X75063511Y-105812452D01*
X75065928Y-105817694D01*
X75065928Y-105817695D01*
X75104046Y-105900379D01*
X75155883Y-106012821D01*
X75283222Y-106193002D01*
X75441264Y-106346961D01*
X75446060Y-106350166D01*
X75446063Y-106350168D01*
X75530261Y-106406427D01*
X75624717Y-106469540D01*
X75630020Y-106471818D01*
X75630023Y-106471820D01*
X75768788Y-106531438D01*
X75827436Y-106556635D01*
X75907088Y-106574658D01*
X76036995Y-106604054D01*
X76037001Y-106604055D01*
X76042632Y-106605329D01*
X76048403Y-106605556D01*
X76048405Y-106605556D01*
X76116211Y-106608220D01*
X76263098Y-106613991D01*
X76372275Y-106598161D01*
X76475738Y-106583160D01*
X76475743Y-106583159D01*
X76481452Y-106582331D01*
X76486916Y-106580476D01*
X76486921Y-106580475D01*
X76684907Y-106513268D01*
X76684912Y-106513266D01*
X76690379Y-106511410D01*
X76695992Y-106508267D01*
X76830920Y-106432703D01*
X76882884Y-106403602D01*
X77052518Y-106262518D01*
X77098744Y-106206938D01*
X77189908Y-106097326D01*
X77189910Y-106097323D01*
X77193602Y-106092884D01*
X77301410Y-105900379D01*
X77303266Y-105894912D01*
X77303268Y-105894907D01*
X77370475Y-105696921D01*
X77370476Y-105696916D01*
X77372331Y-105691452D01*
X77373159Y-105685743D01*
X77373160Y-105685738D01*
X77403458Y-105476772D01*
X77403991Y-105473098D01*
X77405643Y-105410000D01*
X77385454Y-105190289D01*
X77325565Y-104977936D01*
X77227980Y-104780053D01*
X77095967Y-104603267D01*
X76981479Y-104497435D01*
X76938189Y-104457418D01*
X76938186Y-104457416D01*
X76933949Y-104453499D01*
X76747350Y-104335764D01*
X76542421Y-104254006D01*
X76536761Y-104252880D01*
X76536757Y-104252879D01*
X76331691Y-104212089D01*
X76331688Y-104212089D01*
X76326024Y-104210962D01*
X76320249Y-104210886D01*
X76320245Y-104210886D01*
X76209504Y-104209437D01*
X76105406Y-104208074D01*
X76099709Y-104209053D01*
X76099708Y-104209053D01*
X75893654Y-104244459D01*
X75893653Y-104244459D01*
X75887957Y-104245438D01*
X75680957Y-104321804D01*
X75491341Y-104434614D01*
X75325457Y-104580090D01*
X75188863Y-104753360D01*
X75086131Y-104948620D01*
X75020703Y-105159333D01*
X74994770Y-105378440D01*
X73592743Y-105378440D01*
X73575454Y-105190289D01*
X73515565Y-104977936D01*
X73417980Y-104780053D01*
X73285967Y-104603267D01*
X73171479Y-104497435D01*
X73128189Y-104457418D01*
X73128186Y-104457416D01*
X73123949Y-104453499D01*
X72937350Y-104335764D01*
X72732421Y-104254006D01*
X72726761Y-104252880D01*
X72726757Y-104252879D01*
X72521691Y-104212089D01*
X72521688Y-104212089D01*
X72516024Y-104210962D01*
X72510249Y-104210886D01*
X72510245Y-104210886D01*
X72399504Y-104209437D01*
X72295406Y-104208074D01*
X72289709Y-104209053D01*
X72289708Y-104209053D01*
X72083654Y-104244459D01*
X72083653Y-104244459D01*
X72077957Y-104245438D01*
X71870957Y-104321804D01*
X71681341Y-104434614D01*
X71515457Y-104580090D01*
X71378863Y-104753360D01*
X71276131Y-104948620D01*
X71210703Y-105159333D01*
X71184770Y-105378440D01*
X67674786Y-105378440D01*
X67721938Y-104870738D01*
X67722549Y-104865399D01*
X67846616Y-103953736D01*
X67847454Y-103948429D01*
X68010278Y-103042894D01*
X68011341Y-103037626D01*
X68014476Y-103023646D01*
X68212642Y-102139799D01*
X68213926Y-102134599D01*
X68453304Y-101246251D01*
X68454812Y-101241093D01*
X68731870Y-100363699D01*
X68733593Y-100358622D01*
X68796188Y-100186350D01*
X69047794Y-99493882D01*
X69049734Y-99488875D01*
X69115383Y-99329696D01*
X69164052Y-99211688D01*
X70769217Y-99211688D01*
X70776272Y-99221661D01*
X70866013Y-99296695D01*
X70872950Y-99301735D01*
X71114002Y-99452947D01*
X71121553Y-99456996D01*
X71380907Y-99574099D01*
X71388938Y-99577085D01*
X71661783Y-99657906D01*
X71670135Y-99659773D01*
X71951431Y-99702817D01*
X71959964Y-99703533D01*
X72244494Y-99708004D01*
X72253045Y-99707555D01*
X72535553Y-99673368D01*
X72543954Y-99671766D01*
X72819222Y-99599551D01*
X72827324Y-99596824D01*
X73090239Y-99487920D01*
X73097901Y-99484117D01*
X73343595Y-99340545D01*
X73350682Y-99335728D01*
X73494602Y-99222881D01*
X73503073Y-99211021D01*
X73496557Y-99199400D01*
X72148812Y-97851655D01*
X72134868Y-97844041D01*
X72133035Y-97844172D01*
X72126420Y-97848423D01*
X70776509Y-99198334D01*
X70769217Y-99211688D01*
X69164052Y-99211688D01*
X69393009Y-98656531D01*
X69400537Y-98638277D01*
X69402692Y-98633354D01*
X69768910Y-97842814D01*
X69815693Y-97789411D01*
X69883921Y-97769779D01*
X69951932Y-97790150D01*
X69998134Y-97844057D01*
X70006881Y-97871519D01*
X70053582Y-98109554D01*
X70055795Y-98117816D01*
X70147974Y-98387049D01*
X70151290Y-98394936D01*
X70279153Y-98649165D01*
X70283509Y-98656531D01*
X70444691Y-98891051D01*
X70450010Y-98897762D01*
X70467063Y-98916503D01*
X70480629Y-98924763D01*
X70480882Y-98924757D01*
X70489900Y-98919257D01*
X71852025Y-97557132D01*
X72424041Y-97557132D01*
X72424172Y-97558965D01*
X72428423Y-97565580D01*
X73780969Y-98918126D01*
X73793179Y-98924793D01*
X73804678Y-98916104D01*
X73953009Y-98714175D01*
X73957593Y-98706952D01*
X74093378Y-98456868D01*
X74096944Y-98449077D01*
X74197531Y-98182880D01*
X74200002Y-98174695D01*
X74263535Y-97897300D01*
X74264873Y-97888846D01*
X74290331Y-97603597D01*
X74290577Y-97598657D01*
X74290998Y-97558484D01*
X74290855Y-97553520D01*
X74271377Y-97267807D01*
X74270216Y-97259333D01*
X74212507Y-96980668D01*
X74210208Y-96972433D01*
X74115214Y-96704178D01*
X74111816Y-96696325D01*
X73981299Y-96443453D01*
X73976865Y-96436131D01*
X73813235Y-96203309D01*
X73807849Y-96196658D01*
X73805892Y-96194552D01*
X73792241Y-96186435D01*
X73791634Y-96186456D01*
X73783154Y-96191689D01*
X72431655Y-97543188D01*
X72424041Y-97557132D01*
X71852025Y-97557132D01*
X73428717Y-95980440D01*
X79439770Y-95980440D01*
X79454200Y-96200604D01*
X79455621Y-96206200D01*
X79455622Y-96206205D01*
X79505625Y-96403090D01*
X79508511Y-96414452D01*
X79510928Y-96419694D01*
X79510928Y-96419695D01*
X79547193Y-96498360D01*
X79600883Y-96614821D01*
X79728222Y-96795002D01*
X79886264Y-96948961D01*
X79891060Y-96952166D01*
X79891063Y-96952168D01*
X79975261Y-97008427D01*
X80069717Y-97071540D01*
X80075020Y-97073818D01*
X80075023Y-97073820D01*
X80190517Y-97123440D01*
X80272436Y-97158635D01*
X80352088Y-97176658D01*
X80481995Y-97206054D01*
X80482001Y-97206055D01*
X80487632Y-97207329D01*
X80493403Y-97207556D01*
X80493405Y-97207556D01*
X80561211Y-97210220D01*
X80708098Y-97215991D01*
X80817275Y-97200161D01*
X80920738Y-97185160D01*
X80920743Y-97185159D01*
X80926452Y-97184331D01*
X80931916Y-97182476D01*
X80931921Y-97182475D01*
X81129907Y-97115268D01*
X81129912Y-97115266D01*
X81135379Y-97113410D01*
X81327884Y-97005602D01*
X81358546Y-96980101D01*
X81493086Y-96868204D01*
X81497518Y-96864518D01*
X81572631Y-96774205D01*
X81634908Y-96699326D01*
X81634910Y-96699323D01*
X81638602Y-96694884D01*
X81746410Y-96502379D01*
X81748266Y-96496912D01*
X81748268Y-96496907D01*
X81815475Y-96298921D01*
X81815476Y-96298916D01*
X81817331Y-96293452D01*
X81818159Y-96287743D01*
X81818160Y-96287738D01*
X81848458Y-96078772D01*
X81848991Y-96075098D01*
X81850643Y-96012000D01*
X81830454Y-95792289D01*
X81823010Y-95765892D01*
X81772134Y-95585500D01*
X81770565Y-95579936D01*
X81672980Y-95382053D01*
X81540967Y-95205267D01*
X81443586Y-95115249D01*
X81383189Y-95059418D01*
X81383186Y-95059416D01*
X81378949Y-95055499D01*
X81192350Y-94937764D01*
X80987421Y-94856006D01*
X80981761Y-94854880D01*
X80981757Y-94854879D01*
X80776691Y-94814089D01*
X80776688Y-94814089D01*
X80771024Y-94812962D01*
X80765249Y-94812886D01*
X80765245Y-94812886D01*
X80654504Y-94811437D01*
X80550406Y-94810074D01*
X80544709Y-94811053D01*
X80544708Y-94811053D01*
X80338654Y-94846459D01*
X80338653Y-94846459D01*
X80332957Y-94847438D01*
X80125957Y-94923804D01*
X79936341Y-95036614D01*
X79770457Y-95182090D01*
X79633863Y-95355360D01*
X79531131Y-95550620D01*
X79465703Y-95761333D01*
X79439770Y-95980440D01*
X73428717Y-95980440D01*
X73495508Y-95913649D01*
X73502699Y-95900480D01*
X73495376Y-95890242D01*
X73387685Y-95802098D01*
X73380713Y-95797142D01*
X73138076Y-95648454D01*
X73130478Y-95644482D01*
X72869916Y-95530103D01*
X72861862Y-95527204D01*
X72588183Y-95449244D01*
X72579808Y-95447464D01*
X72298082Y-95407368D01*
X72289534Y-95406741D01*
X72004971Y-95405250D01*
X71996437Y-95405787D01*
X71714300Y-95442932D01*
X71705902Y-95444625D01*
X71431423Y-95519714D01*
X71423336Y-95522530D01*
X71328022Y-95563185D01*
X71257515Y-95571514D01*
X71193699Y-95540401D01*
X71156834Y-95479726D01*
X71158625Y-95408752D01*
X71174910Y-95375684D01*
X71216070Y-95316089D01*
X71691498Y-94627712D01*
X71694645Y-94623357D01*
X72249310Y-93889283D01*
X72252640Y-93885066D01*
X72838098Y-93175313D01*
X72841605Y-93171241D01*
X73398935Y-92551440D01*
X74359770Y-92551440D01*
X74374200Y-92771604D01*
X74375621Y-92777200D01*
X74375622Y-92777205D01*
X74422315Y-92961056D01*
X74428511Y-92985452D01*
X74430928Y-92990694D01*
X74430928Y-92990695D01*
X74469046Y-93073379D01*
X74520883Y-93185821D01*
X74648222Y-93366002D01*
X74806264Y-93519961D01*
X74811060Y-93523166D01*
X74811063Y-93523168D01*
X74895261Y-93579427D01*
X74989717Y-93642540D01*
X74995020Y-93644818D01*
X74995023Y-93644820D01*
X75171860Y-93720795D01*
X75192436Y-93729635D01*
X75272088Y-93747658D01*
X75401995Y-93777054D01*
X75402001Y-93777055D01*
X75407632Y-93778329D01*
X75413403Y-93778556D01*
X75413405Y-93778556D01*
X75481211Y-93781220D01*
X75628098Y-93786991D01*
X75737275Y-93771161D01*
X75840738Y-93756160D01*
X75840743Y-93756159D01*
X75846452Y-93755331D01*
X75851916Y-93753476D01*
X75851921Y-93753475D01*
X76049907Y-93686268D01*
X76049912Y-93686266D01*
X76055379Y-93684410D01*
X76247884Y-93576602D01*
X76260387Y-93566204D01*
X76388426Y-93459714D01*
X76417518Y-93435518D01*
X76452977Y-93392884D01*
X76554908Y-93270326D01*
X76554910Y-93270323D01*
X76558602Y-93265884D01*
X76666410Y-93073379D01*
X76668266Y-93067912D01*
X76668268Y-93067907D01*
X76735475Y-92869921D01*
X76735476Y-92869916D01*
X76737331Y-92864452D01*
X76738159Y-92858743D01*
X76738160Y-92858738D01*
X76758825Y-92716209D01*
X76768991Y-92646098D01*
X76770643Y-92583000D01*
X76750454Y-92363289D01*
X76729194Y-92287904D01*
X76692134Y-92156500D01*
X76690565Y-92150936D01*
X76592980Y-91953053D01*
X76533617Y-91873556D01*
X76464420Y-91780891D01*
X76464420Y-91780890D01*
X76460967Y-91776267D01*
X76298949Y-91626499D01*
X76112350Y-91508764D01*
X75907421Y-91427006D01*
X75901761Y-91425880D01*
X75901757Y-91425879D01*
X75696691Y-91385089D01*
X75696688Y-91385089D01*
X75691024Y-91383962D01*
X75685249Y-91383886D01*
X75685245Y-91383886D01*
X75574504Y-91382437D01*
X75470406Y-91381074D01*
X75464709Y-91382053D01*
X75464708Y-91382053D01*
X75258654Y-91417459D01*
X75258653Y-91417459D01*
X75252957Y-91418438D01*
X75045957Y-91494804D01*
X75040996Y-91497756D01*
X75040995Y-91497756D01*
X74873913Y-91597160D01*
X74856341Y-91607614D01*
X74690457Y-91753090D01*
X74553863Y-91926360D01*
X74451131Y-92121620D01*
X74385703Y-92332333D01*
X74359770Y-92551440D01*
X73398935Y-92551440D01*
X73456802Y-92487087D01*
X73460480Y-92483169D01*
X74104296Y-91825861D01*
X74108137Y-91822103D01*
X74779385Y-91192852D01*
X74783358Y-91189283D01*
X75480878Y-90589181D01*
X75484958Y-90585820D01*
X76207415Y-90016017D01*
X76211642Y-90012825D01*
X76387120Y-89886178D01*
X76454060Y-89862532D01*
X76523161Y-89878831D01*
X76572480Y-89929901D01*
X76586359Y-89999528D01*
X76572364Y-90047017D01*
X76483131Y-90216620D01*
X76417703Y-90427333D01*
X76391770Y-90646440D01*
X76392148Y-90652206D01*
X76404543Y-90841315D01*
X76406200Y-90866604D01*
X76407621Y-90872200D01*
X76407622Y-90872205D01*
X76456543Y-91064830D01*
X76460511Y-91080452D01*
X76462928Y-91085694D01*
X76462928Y-91085695D01*
X76499238Y-91164457D01*
X76552883Y-91280821D01*
X76680222Y-91461002D01*
X76838264Y-91614961D01*
X76843060Y-91618166D01*
X76843063Y-91618168D01*
X76927261Y-91674427D01*
X77021717Y-91737540D01*
X77027020Y-91739818D01*
X77027023Y-91739820D01*
X77219001Y-91822300D01*
X77224436Y-91824635D01*
X77304088Y-91842658D01*
X77433995Y-91872054D01*
X77434001Y-91872055D01*
X77439632Y-91873329D01*
X77445403Y-91873556D01*
X77445405Y-91873556D01*
X77513211Y-91876220D01*
X77660098Y-91881991D01*
X77769482Y-91866131D01*
X77872738Y-91851160D01*
X77872743Y-91851159D01*
X77878452Y-91850331D01*
X77883916Y-91848476D01*
X77883921Y-91848475D01*
X78081907Y-91781268D01*
X78081912Y-91781266D01*
X78087379Y-91779410D01*
X78092992Y-91776267D01*
X78167875Y-91734330D01*
X78279884Y-91671602D01*
X78360373Y-91604660D01*
X78374510Y-91592902D01*
X78439675Y-91564721D01*
X78492480Y-91569794D01*
X78494436Y-91570635D01*
X78508238Y-91573758D01*
X78703995Y-91618054D01*
X78704001Y-91618055D01*
X78709632Y-91619329D01*
X78715403Y-91619556D01*
X78715405Y-91619556D01*
X78783211Y-91622220D01*
X78930098Y-91627991D01*
X79044358Y-91611424D01*
X79142738Y-91597160D01*
X79142743Y-91597159D01*
X79148452Y-91596331D01*
X79153916Y-91594476D01*
X79153921Y-91594475D01*
X79351907Y-91527268D01*
X79351912Y-91527266D01*
X79357379Y-91525410D01*
X79549884Y-91417602D01*
X79588977Y-91385089D01*
X79715086Y-91280204D01*
X79719518Y-91276518D01*
X79789103Y-91192852D01*
X79856908Y-91111326D01*
X79856910Y-91111323D01*
X79860602Y-91106884D01*
X79946600Y-90953323D01*
X79965586Y-90919422D01*
X79965587Y-90919420D01*
X79968410Y-90914379D01*
X79970266Y-90908912D01*
X79970268Y-90908907D01*
X80037475Y-90710921D01*
X80037476Y-90710916D01*
X80039331Y-90705452D01*
X80040159Y-90699743D01*
X80040160Y-90699738D01*
X80069586Y-90496786D01*
X80070991Y-90487098D01*
X80072643Y-90424000D01*
X80052454Y-90204289D01*
X79992565Y-89991936D01*
X79894980Y-89794053D01*
X79762967Y-89617267D01*
X79658695Y-89520879D01*
X79605189Y-89471418D01*
X79605186Y-89471416D01*
X79600949Y-89467499D01*
X79414350Y-89349764D01*
X79209421Y-89268006D01*
X79203761Y-89266880D01*
X79203757Y-89266879D01*
X78998691Y-89226089D01*
X78998688Y-89226089D01*
X78993024Y-89224962D01*
X78987249Y-89224886D01*
X78987245Y-89224886D01*
X78876504Y-89223437D01*
X78772406Y-89222074D01*
X78766709Y-89223053D01*
X78766708Y-89223053D01*
X78560654Y-89258459D01*
X78560653Y-89258459D01*
X78554957Y-89259438D01*
X78347957Y-89335804D01*
X78342996Y-89338756D01*
X78342995Y-89338756D01*
X78215438Y-89414645D01*
X78158341Y-89448614D01*
X78107561Y-89493147D01*
X78090420Y-89508179D01*
X78026016Y-89538056D01*
X77960652Y-89530476D01*
X77955248Y-89528320D01*
X77944786Y-89524146D01*
X77944782Y-89524145D01*
X77939421Y-89522006D01*
X77933761Y-89520880D01*
X77933757Y-89520879D01*
X77728691Y-89480089D01*
X77728688Y-89480089D01*
X77723024Y-89478962D01*
X77717249Y-89478886D01*
X77717245Y-89478886D01*
X77606504Y-89477437D01*
X77502406Y-89476074D01*
X77496709Y-89477053D01*
X77496708Y-89477053D01*
X77479040Y-89480089D01*
X77355458Y-89501324D01*
X77284935Y-89493147D01*
X77230027Y-89448140D01*
X77208168Y-89380592D01*
X77226299Y-89311949D01*
X77264806Y-89271923D01*
X77730513Y-88965133D01*
X77735062Y-88962274D01*
X78271535Y-88640798D01*
X78524268Y-88489350D01*
X78528906Y-88486703D01*
X79147954Y-88150756D01*
X79208053Y-88135500D01*
X99353946Y-88135500D01*
X99414045Y-88150756D01*
G37*
%TD.AperFunction*%
%TA.AperFunction,Conductor*%
G36*
X99790211Y-92766502D02*
G01*
X99811185Y-92783405D01*
X100170587Y-93142807D01*
X100183426Y-93157839D01*
X100191964Y-93169590D01*
X100196866Y-93174003D01*
X100196867Y-93174005D01*
X100243804Y-93216267D01*
X100248588Y-93220808D01*
X100263403Y-93235623D01*
X100265967Y-93237699D01*
X100279697Y-93248818D01*
X100284712Y-93253102D01*
X100331628Y-93295345D01*
X100331632Y-93295348D01*
X100336541Y-93299768D01*
X100349121Y-93307031D01*
X100365406Y-93318224D01*
X100371559Y-93323206D01*
X100376693Y-93327363D01*
X100382577Y-93330361D01*
X100438816Y-93359016D01*
X100444614Y-93362164D01*
X100499307Y-93393741D01*
X100499309Y-93393742D01*
X100505025Y-93397042D01*
X100518832Y-93401528D01*
X100537096Y-93409093D01*
X100544156Y-93412690D01*
X100550036Y-93415686D01*
X100617418Y-93433741D01*
X100623729Y-93435611D01*
X100690051Y-93457160D01*
X100704484Y-93458677D01*
X100723926Y-93462280D01*
X100737955Y-93466039D01*
X100744545Y-93466384D01*
X100744549Y-93466385D01*
X100807597Y-93469689D01*
X100814172Y-93470206D01*
X100818610Y-93470672D01*
X100835029Y-93472398D01*
X100855998Y-93472398D01*
X100862592Y-93472571D01*
X100925645Y-93475876D01*
X100925650Y-93475876D01*
X100932237Y-93476221D01*
X100946583Y-93473949D01*
X100966292Y-93472398D01*
X101269153Y-93472398D01*
X101337274Y-93492400D01*
X101366988Y-93520463D01*
X101367486Y-93520038D01*
X101428368Y-93591321D01*
X101536209Y-93717587D01*
X101733758Y-93886310D01*
X101955270Y-94022052D01*
X101959840Y-94023945D01*
X101959844Y-94023947D01*
X102116628Y-94088889D01*
X102195288Y-94121471D01*
X102283622Y-94142678D01*
X102443091Y-94180964D01*
X102443097Y-94180965D01*
X102447904Y-94182119D01*
X102706898Y-94202502D01*
X102711828Y-94202114D01*
X102711835Y-94202114D01*
X102712267Y-94202080D01*
X102712429Y-94202114D01*
X102716783Y-94202114D01*
X102716783Y-94203029D01*
X102781747Y-94216674D01*
X102832308Y-94266515D01*
X102846785Y-94333064D01*
X102847733Y-94333064D01*
X102847733Y-94337424D01*
X102847767Y-94337580D01*
X102847733Y-94338012D01*
X102847733Y-94338019D01*
X102847345Y-94342949D01*
X102867728Y-94601943D01*
X102868882Y-94606750D01*
X102868883Y-94606756D01*
X102883591Y-94668018D01*
X102928376Y-94854559D01*
X102930269Y-94859130D01*
X102930270Y-94859132D01*
X103013232Y-95059418D01*
X103027795Y-95094577D01*
X103163537Y-95316089D01*
X103166749Y-95319849D01*
X103166752Y-95319854D01*
X103295589Y-95470702D01*
X103324620Y-95535491D01*
X103325778Y-95552532D01*
X103325778Y-95827631D01*
X103305776Y-95895752D01*
X103252120Y-95942245D01*
X103198129Y-95953620D01*
X103187407Y-95953480D01*
X103156406Y-95953074D01*
X103150709Y-95954053D01*
X103150708Y-95954053D01*
X102944654Y-95989459D01*
X102944653Y-95989459D01*
X102938957Y-95990438D01*
X102731957Y-96066804D01*
X102726996Y-96069756D01*
X102726995Y-96069756D01*
X102576286Y-96159419D01*
X102542341Y-96179614D01*
X102376457Y-96325090D01*
X102239863Y-96498360D01*
X102137131Y-96693620D01*
X102071703Y-96904333D01*
X102045770Y-97123440D01*
X102060200Y-97343604D01*
X102061621Y-97349200D01*
X102061622Y-97349205D01*
X102085995Y-97445171D01*
X102114511Y-97557452D01*
X102206883Y-97757821D01*
X102334222Y-97938002D01*
X102492264Y-98091961D01*
X102497060Y-98095166D01*
X102497063Y-98095168D01*
X102628334Y-98182880D01*
X102675717Y-98214540D01*
X102681020Y-98216818D01*
X102681023Y-98216820D01*
X102870967Y-98298426D01*
X102878436Y-98301635D01*
X102958088Y-98319658D01*
X103087995Y-98349054D01*
X103088001Y-98349055D01*
X103093632Y-98350329D01*
X103099403Y-98350556D01*
X103099405Y-98350556D01*
X103167211Y-98353220D01*
X103314098Y-98358991D01*
X103423275Y-98343161D01*
X103526738Y-98328160D01*
X103526743Y-98328159D01*
X103532452Y-98327331D01*
X103537916Y-98325476D01*
X103537921Y-98325475D01*
X103735907Y-98258268D01*
X103735912Y-98258266D01*
X103741379Y-98256410D01*
X103796409Y-98225592D01*
X103854416Y-98193106D01*
X103933884Y-98148602D01*
X103948058Y-98136814D01*
X104103518Y-98007518D01*
X104104939Y-98009226D01*
X104158715Y-97979861D01*
X104229530Y-97984926D01*
X104274593Y-98013887D01*
X108638595Y-102377889D01*
X108672621Y-102440201D01*
X108675500Y-102466984D01*
X108675500Y-104382821D01*
X108655498Y-104450942D01*
X108601842Y-104497435D01*
X108531568Y-104507539D01*
X108463971Y-104475346D01*
X108307189Y-104330418D01*
X108307186Y-104330416D01*
X108302949Y-104326499D01*
X108116350Y-104208764D01*
X107911421Y-104127006D01*
X107905761Y-104125880D01*
X107905757Y-104125879D01*
X107700692Y-104085089D01*
X107700687Y-104085089D01*
X107695024Y-104083962D01*
X107689248Y-104083886D01*
X107689245Y-104083886D01*
X107673772Y-104083684D01*
X107653301Y-104083416D01*
X107591953Y-104066547D01*
X107566508Y-104051856D01*
X107552700Y-104047370D01*
X107534437Y-104039805D01*
X107527377Y-104036208D01*
X107521497Y-104033212D01*
X107454115Y-104015157D01*
X107447804Y-104013287D01*
X107381482Y-103991738D01*
X107367049Y-103990221D01*
X107347607Y-103986618D01*
X107333578Y-103982859D01*
X107326988Y-103982514D01*
X107326984Y-103982513D01*
X107314216Y-103981844D01*
X107300424Y-103981121D01*
X107233446Y-103957584D01*
X107189824Y-103901569D01*
X107185759Y-103889525D01*
X107145122Y-103745436D01*
X107047537Y-103547553D01*
X106915524Y-103370767D01*
X106753506Y-103220999D01*
X106566907Y-103103264D01*
X106361978Y-103021506D01*
X106356318Y-103020380D01*
X106356314Y-103020379D01*
X106151248Y-102979589D01*
X106151245Y-102979589D01*
X106145581Y-102978462D01*
X106139806Y-102978386D01*
X106139802Y-102978386D01*
X106029061Y-102976937D01*
X105924963Y-102975574D01*
X105919266Y-102976553D01*
X105919265Y-102976553D01*
X105713211Y-103011959D01*
X105713210Y-103011959D01*
X105707514Y-103012938D01*
X105500514Y-103089304D01*
X105310898Y-103202114D01*
X105145014Y-103347590D01*
X105008420Y-103520860D01*
X104905688Y-103716120D01*
X104903973Y-103721643D01*
X104903971Y-103721648D01*
X104852359Y-103887864D01*
X104813056Y-103946989D01*
X104748027Y-103975480D01*
X104732027Y-103976500D01*
X95050545Y-103976500D01*
X94982424Y-103956498D01*
X94961450Y-103939595D01*
X92211949Y-101190094D01*
X92177923Y-101127782D01*
X92182988Y-101056967D01*
X92220475Y-101004126D01*
X92254569Y-100975770D01*
X92322680Y-100893876D01*
X92391959Y-100810578D01*
X92391961Y-100810575D01*
X92395653Y-100806136D01*
X92486363Y-100644162D01*
X92500637Y-100618674D01*
X92500638Y-100618672D01*
X92503461Y-100613631D01*
X92505317Y-100608164D01*
X92505319Y-100608159D01*
X92572526Y-100410173D01*
X92572527Y-100410168D01*
X92574382Y-100404704D01*
X92575210Y-100398995D01*
X92575211Y-100398990D01*
X92605509Y-100190024D01*
X92606042Y-100186350D01*
X92607694Y-100123252D01*
X92587505Y-99903541D01*
X92527616Y-99691188D01*
X92465545Y-99565320D01*
X92452551Y-99509592D01*
X92452551Y-97703479D01*
X92453288Y-97689871D01*
X92456911Y-97656525D01*
X92456911Y-97656521D01*
X92457576Y-97650400D01*
X92457039Y-97644258D01*
X92453025Y-97598375D01*
X92452696Y-97593551D01*
X92452551Y-97590588D01*
X92452551Y-97587506D01*
X92450118Y-97562695D01*
X92448183Y-97542955D01*
X92448061Y-97541642D01*
X92440157Y-97451302D01*
X92439621Y-97445171D01*
X92438073Y-97439842D01*
X92437531Y-97434317D01*
X92409518Y-97341534D01*
X92409176Y-97340379D01*
X92382145Y-97247337D01*
X92379589Y-97242407D01*
X92377986Y-97237096D01*
X92368468Y-97219195D01*
X92332488Y-97151524D01*
X92331876Y-97150358D01*
X92313687Y-97115268D01*
X92287337Y-97064435D01*
X92283877Y-97060100D01*
X92281269Y-97055196D01*
X92277382Y-97050430D01*
X92277378Y-97050424D01*
X92231633Y-96994337D01*
X92219971Y-96980037D01*
X92219280Y-96979181D01*
X92186682Y-96938346D01*
X92184180Y-96935844D01*
X92183209Y-96934758D01*
X92179494Y-96930408D01*
X92154951Y-96900315D01*
X92154949Y-96900313D01*
X92151062Y-96895547D01*
X92114067Y-96864942D01*
X92105288Y-96856952D01*
X91751299Y-96502963D01*
X91719126Y-96448073D01*
X91699769Y-96379436D01*
X91602184Y-96181553D01*
X91580963Y-96153134D01*
X91473624Y-96009391D01*
X91473624Y-96009390D01*
X91470171Y-96004767D01*
X91346279Y-95890242D01*
X91312393Y-95858918D01*
X91312390Y-95858916D01*
X91308153Y-95854999D01*
X91121554Y-95737264D01*
X90916625Y-95655506D01*
X90910965Y-95654380D01*
X90910961Y-95654379D01*
X90705895Y-95613589D01*
X90705892Y-95613589D01*
X90700228Y-95612462D01*
X90694453Y-95612386D01*
X90694449Y-95612386D01*
X90583708Y-95610937D01*
X90479610Y-95609574D01*
X90473913Y-95610553D01*
X90473912Y-95610553D01*
X90267858Y-95645959D01*
X90267857Y-95645959D01*
X90262161Y-95646938D01*
X90055161Y-95723304D01*
X90050200Y-95726256D01*
X90050199Y-95726256D01*
X89879804Y-95827631D01*
X89865545Y-95836114D01*
X89699661Y-95981590D01*
X89563067Y-96154860D01*
X89460335Y-96350120D01*
X89394907Y-96560833D01*
X89368974Y-96779940D01*
X89383404Y-97000104D01*
X89384825Y-97005700D01*
X89384826Y-97005705D01*
X89429721Y-97182475D01*
X89437715Y-97213952D01*
X89440132Y-97219194D01*
X89440132Y-97219195D01*
X89448200Y-97236696D01*
X89530087Y-97414321D01*
X89657426Y-97594502D01*
X89815468Y-97748461D01*
X89820264Y-97751666D01*
X89820267Y-97751668D01*
X89956666Y-97842806D01*
X89998921Y-97871040D01*
X90004224Y-97873318D01*
X90004227Y-97873320D01*
X90149570Y-97935764D01*
X90201640Y-97958135D01*
X90209500Y-97959914D01*
X90210468Y-97960447D01*
X90212766Y-97961194D01*
X90212623Y-97961636D01*
X90270784Y-97993711D01*
X90314646Y-98037573D01*
X90348672Y-98099885D01*
X90351551Y-98126668D01*
X90351551Y-99025506D01*
X90331549Y-99093627D01*
X90277893Y-99140120D01*
X90207619Y-99150224D01*
X90143039Y-99120730D01*
X90136456Y-99114601D01*
X89873407Y-98851552D01*
X89839381Y-98789240D01*
X89837031Y-98773986D01*
X89831983Y-98719045D01*
X89831983Y-98719044D01*
X89831454Y-98713289D01*
X89771565Y-98500936D01*
X89673980Y-98303053D01*
X89609587Y-98216820D01*
X89545420Y-98130891D01*
X89545420Y-98130890D01*
X89541967Y-98126267D01*
X89398569Y-97993711D01*
X89384189Y-97980418D01*
X89384186Y-97980416D01*
X89379949Y-97976499D01*
X89193350Y-97858764D01*
X88988421Y-97777006D01*
X88982761Y-97775880D01*
X88982757Y-97775879D01*
X88777691Y-97735089D01*
X88777688Y-97735089D01*
X88772024Y-97733962D01*
X88766249Y-97733886D01*
X88766245Y-97733886D01*
X88655504Y-97732437D01*
X88551406Y-97731074D01*
X88545709Y-97732053D01*
X88545708Y-97732053D01*
X88339654Y-97767459D01*
X88339653Y-97767459D01*
X88333957Y-97768438D01*
X88126957Y-97844804D01*
X88121996Y-97847756D01*
X88121995Y-97847756D01*
X87967568Y-97939631D01*
X87937341Y-97957614D01*
X87771457Y-98103090D01*
X87634863Y-98276360D01*
X87587299Y-98366764D01*
X87545626Y-98445970D01*
X87496206Y-98496942D01*
X87453831Y-98511750D01*
X87439955Y-98513948D01*
X87420242Y-98515500D01*
X85652253Y-98515500D01*
X85584132Y-98495498D01*
X85575548Y-98489462D01*
X85574194Y-98488423D01*
X85569949Y-98484499D01*
X85502733Y-98442089D01*
X85455796Y-98388823D01*
X85445107Y-98318636D01*
X85474062Y-98253811D01*
X85508404Y-98225594D01*
X85515601Y-98221564D01*
X85577163Y-98205500D01*
X85914868Y-98205500D01*
X85928476Y-98206237D01*
X85961822Y-98209860D01*
X85961826Y-98209860D01*
X85967947Y-98210525D01*
X85985832Y-98208960D01*
X86019972Y-98205974D01*
X86024796Y-98205645D01*
X86027759Y-98205500D01*
X86030841Y-98205500D01*
X86037848Y-98204813D01*
X86075392Y-98201132D01*
X86076705Y-98201010D01*
X86123586Y-98196908D01*
X86173176Y-98192570D01*
X86178505Y-98191022D01*
X86184030Y-98190480D01*
X86276813Y-98162467D01*
X86277968Y-98162125D01*
X86314791Y-98151427D01*
X86371010Y-98135094D01*
X86375940Y-98132538D01*
X86381251Y-98130935D01*
X86386700Y-98128038D01*
X86466823Y-98085437D01*
X86467989Y-98084825D01*
X86493621Y-98071538D01*
X86553912Y-98040286D01*
X86558247Y-98036826D01*
X86563151Y-98034218D01*
X86638290Y-97972936D01*
X86639317Y-97972108D01*
X86677247Y-97941829D01*
X86677250Y-97941826D01*
X86680000Y-97939631D01*
X86682492Y-97937139D01*
X86683579Y-97936167D01*
X86687928Y-97932452D01*
X86718025Y-97907906D01*
X86718028Y-97907903D01*
X86722800Y-97904011D01*
X86753405Y-97867016D01*
X86761394Y-97858237D01*
X90699737Y-93919895D01*
X90762049Y-93885869D01*
X90816640Y-93886097D01*
X90895996Y-93904054D01*
X90895999Y-93904054D01*
X90901632Y-93905329D01*
X90907403Y-93905556D01*
X90907405Y-93905556D01*
X90975211Y-93908220D01*
X91122098Y-93913991D01*
X91231275Y-93898161D01*
X91334738Y-93883160D01*
X91334743Y-93883159D01*
X91340452Y-93882331D01*
X91345916Y-93880476D01*
X91345921Y-93880475D01*
X91543907Y-93813268D01*
X91543912Y-93813266D01*
X91549379Y-93811410D01*
X91741884Y-93703602D01*
X91768356Y-93681586D01*
X91907086Y-93566204D01*
X91911518Y-93562518D01*
X91986327Y-93472571D01*
X92048908Y-93397326D01*
X92048910Y-93397323D01*
X92052602Y-93392884D01*
X92139510Y-93237699D01*
X92157586Y-93205422D01*
X92157587Y-93205420D01*
X92160410Y-93200379D01*
X92162266Y-93194912D01*
X92162268Y-93194907D01*
X92229475Y-92996921D01*
X92229476Y-92996916D01*
X92231331Y-92991452D01*
X92232159Y-92985743D01*
X92232160Y-92985738D01*
X92251200Y-92854420D01*
X92280770Y-92789874D01*
X92340542Y-92751562D01*
X92375896Y-92746500D01*
X99722090Y-92746500D01*
X99790211Y-92766502D01*
G37*
%TD.AperFunction*%
%TA.AperFunction,Conductor*%
G36*
X106343032Y-95916291D02*
G01*
X106388095Y-95945252D01*
X107311492Y-96868649D01*
X107325436Y-96876263D01*
X107327269Y-96876132D01*
X107333884Y-96871881D01*
X107802675Y-96403090D01*
X107809095Y-96395574D01*
X107810671Y-96393405D01*
X107811482Y-96392780D01*
X107812311Y-96391809D01*
X107812515Y-96391983D01*
X107866894Y-96350052D01*
X107937630Y-96343978D01*
X108000422Y-96377111D01*
X108022006Y-96404957D01*
X108345663Y-96971391D01*
X108348229Y-96976113D01*
X108494408Y-97259333D01*
X108716623Y-97689871D01*
X108770212Y-97793700D01*
X108772573Y-97798524D01*
X108884214Y-98039518D01*
X109159308Y-98633354D01*
X109161463Y-98638277D01*
X109168991Y-98656531D01*
X109446618Y-99329696D01*
X109512266Y-99488875D01*
X109514206Y-99493882D01*
X109765813Y-100186350D01*
X109828407Y-100358622D01*
X109830130Y-100363699D01*
X109851353Y-100430908D01*
X109946305Y-100731606D01*
X109947744Y-100802588D01*
X109910578Y-100863080D01*
X109846608Y-100893876D01*
X109776144Y-100885198D01*
X109737058Y-100858642D01*
X106631187Y-97752771D01*
X106597161Y-97690459D01*
X106602226Y-97619644D01*
X106631186Y-97574581D01*
X107028651Y-97177115D01*
X107036264Y-97163173D01*
X107036133Y-97161340D01*
X107031882Y-97154725D01*
X106105252Y-96228095D01*
X106071226Y-96165783D01*
X106076291Y-96094968D01*
X106105252Y-96049905D01*
X106209905Y-95945252D01*
X106272217Y-95911226D01*
X106343032Y-95916291D01*
G37*
%TD.AperFunction*%
%TD*%
M02*
