%TF.GenerationSoftware,KiCad,Pcbnew,(6.0.4-0)*%
%TF.CreationDate,2022-12-23T16:58:16+01:00*%
%TF.ProjectId,RoundScanner,526f756e-6453-4636-916e-6e65722e6b69,2*%
%TF.SameCoordinates,Original*%
%TF.FileFunction,Soldermask,Bot*%
%TF.FilePolarity,Negative*%
%FSLAX46Y46*%
G04 Gerber Fmt 4.6, Leading zero omitted, Abs format (unit mm)*
G04 Created by KiCad (PCBNEW (6.0.4-0)) date 2022-12-23 16:58:16*
%MOMM*%
%LPD*%
G01*
G04 APERTURE LIST*
G04 Aperture macros list*
%AMRoundRect*
0 Rectangle with rounded corners*
0 $1 Rounding radius*
0 $2 $3 $4 $5 $6 $7 $8 $9 X,Y pos of 4 corners*
0 Add a 4 corners polygon primitive as box body*
4,1,4,$2,$3,$4,$5,$6,$7,$8,$9,$2,$3,0*
0 Add four circle primitives for the rounded corners*
1,1,$1+$1,$2,$3*
1,1,$1+$1,$4,$5*
1,1,$1+$1,$6,$7*
1,1,$1+$1,$8,$9*
0 Add four rect primitives between the rounded corners*
20,1,$1+$1,$2,$3,$4,$5,0*
20,1,$1+$1,$4,$5,$6,$7,0*
20,1,$1+$1,$6,$7,$8,$9,0*
20,1,$1+$1,$8,$9,$2,$3,0*%
%AMHorizOval*
0 Thick line with rounded ends*
0 $1 width*
0 $2 $3 position (X,Y) of the first rounded end (center of the circle)*
0 $4 $5 position (X,Y) of the second rounded end (center of the circle)*
0 Add line between two ends*
20,1,$1,$2,$3,$4,$5,0*
0 Add two circle primitives to create the rounded ends*
1,1,$1,$2,$3*
1,1,$1,$4,$5*%
%AMRotRect*
0 Rectangle, with rotation*
0 The origin of the aperture is its center*
0 $1 length*
0 $2 width*
0 $3 Rotation angle, in degrees counterclockwise*
0 Add horizontal line*
21,1,$1,$2,0,0,$3*%
G04 Aperture macros list end*
%ADD10C,3.500000*%
%ADD11RotRect,1.700000X1.700000X45.000000*%
%ADD12HorizOval,1.700000X0.000000X0.000000X0.000000X0.000000X0*%
%ADD13RotRect,1.700000X1.700000X225.000000*%
%ADD14HorizOval,1.700000X0.000000X0.000000X0.000000X0.000000X0*%
%ADD15RoundRect,0.150000X-0.150000X-0.625000X0.150000X-0.625000X0.150000X0.625000X-0.150000X0.625000X0*%
%ADD16RoundRect,0.250000X-0.350000X-0.650000X0.350000X-0.650000X0.350000X0.650000X-0.350000X0.650000X0*%
%ADD17RoundRect,0.250000X0.325000X0.450000X-0.325000X0.450000X-0.325000X-0.450000X0.325000X-0.450000X0*%
G04 APERTURE END LIST*
%TO.C,LOGO2*%
G36*
X93223409Y-91954100D02*
G01*
X93257075Y-91965988D01*
X93309049Y-91985091D01*
X93377392Y-92010659D01*
X93460165Y-92041940D01*
X93555430Y-92078181D01*
X93661249Y-92118631D01*
X93775682Y-92162538D01*
X93896792Y-92209151D01*
X94022639Y-92257718D01*
X94151286Y-92307487D01*
X94280793Y-92357706D01*
X94409223Y-92407624D01*
X94534637Y-92456488D01*
X94655096Y-92503548D01*
X94768661Y-92548052D01*
X94873395Y-92589247D01*
X94967359Y-92626382D01*
X95048613Y-92658705D01*
X95115221Y-92685465D01*
X95165242Y-92705909D01*
X95196739Y-92719287D01*
X95207773Y-92724846D01*
X95206878Y-92726313D01*
X95191349Y-92738428D01*
X95158479Y-92760601D01*
X95110801Y-92791221D01*
X95050849Y-92828680D01*
X94981157Y-92871365D01*
X94904261Y-92917669D01*
X94879490Y-92932503D01*
X94804659Y-92977818D01*
X94737881Y-93018998D01*
X94681680Y-93054437D01*
X94638579Y-93082529D01*
X94611101Y-93101668D01*
X94601769Y-93110246D01*
X94606604Y-93120731D01*
X94622830Y-93150481D01*
X94649190Y-93196800D01*
X94684393Y-93257530D01*
X94727153Y-93330508D01*
X94776179Y-93413576D01*
X94830184Y-93504571D01*
X94887879Y-93601335D01*
X94947975Y-93701706D01*
X95009183Y-93803524D01*
X95070214Y-93904629D01*
X95129781Y-94002860D01*
X95186594Y-94096057D01*
X95239365Y-94182059D01*
X95286805Y-94258705D01*
X95312043Y-94299143D01*
X95395837Y-94431865D01*
X95479202Y-94561682D01*
X95560444Y-94686066D01*
X95637871Y-94802488D01*
X95709790Y-94908420D01*
X95774507Y-95001335D01*
X95830331Y-95078703D01*
X95875567Y-95137996D01*
X95983037Y-95265346D01*
X96100965Y-95386620D01*
X96216222Y-95484745D01*
X96329419Y-95560001D01*
X96441162Y-95612668D01*
X96552063Y-95643025D01*
X96662728Y-95651354D01*
X96773767Y-95637935D01*
X96885788Y-95603048D01*
X96963884Y-95566796D01*
X97059300Y-95508723D01*
X97153908Y-95435007D01*
X97249226Y-95344176D01*
X97346772Y-95234758D01*
X97448064Y-95105279D01*
X97554620Y-94954267D01*
X97578182Y-94918992D01*
X97625361Y-94846831D01*
X97683085Y-94757121D01*
X97750218Y-94651704D01*
X97825621Y-94532420D01*
X97908157Y-94401111D01*
X97996688Y-94259617D01*
X98090078Y-94109779D01*
X98187188Y-93953437D01*
X98286881Y-93792432D01*
X98388020Y-93628606D01*
X98489467Y-93463799D01*
X98590085Y-93299851D01*
X98688736Y-93138605D01*
X98784283Y-92981899D01*
X98875588Y-92831576D01*
X98961515Y-92689475D01*
X99040924Y-92557439D01*
X99112680Y-92437307D01*
X99175644Y-92330920D01*
X99217119Y-92260944D01*
X99256749Y-92195135D01*
X99291060Y-92139238D01*
X99318371Y-92095961D01*
X99336998Y-92068010D01*
X99345260Y-92058092D01*
X99353030Y-92061732D01*
X99379799Y-92076210D01*
X99423511Y-92100598D01*
X99482044Y-92133689D01*
X99553280Y-92174280D01*
X99635098Y-92221165D01*
X99725378Y-92273140D01*
X99822000Y-92329000D01*
X99832140Y-92334874D01*
X99941157Y-92398100D01*
X100031259Y-92450583D01*
X100104174Y-92493453D01*
X100161627Y-92527839D01*
X100205345Y-92554870D01*
X100237054Y-92575674D01*
X100258480Y-92591381D01*
X100271351Y-92603120D01*
X100277391Y-92612018D01*
X100278328Y-92619207D01*
X100275888Y-92625813D01*
X100261510Y-92652204D01*
X100235172Y-92699491D01*
X100199425Y-92763038D01*
X100155638Y-92840453D01*
X100105178Y-92929343D01*
X100049413Y-93027315D01*
X99989711Y-93131975D01*
X99927439Y-93240932D01*
X99863965Y-93351792D01*
X99800658Y-93462162D01*
X99738884Y-93569650D01*
X99680011Y-93671862D01*
X99625408Y-93766406D01*
X99576442Y-93850889D01*
X99534480Y-93922917D01*
X99513044Y-93959553D01*
X99355164Y-94227381D01*
X99206083Y-94476520D01*
X99064243Y-94709485D01*
X98928084Y-94928791D01*
X98796048Y-95136953D01*
X98666574Y-95336486D01*
X98538103Y-95529905D01*
X98517675Y-95560220D01*
X98433490Y-95682940D01*
X98357835Y-95788930D01*
X98288011Y-95881561D01*
X98221320Y-95964204D01*
X98155064Y-96040232D01*
X98086545Y-96113014D01*
X98013065Y-96185923D01*
X97962013Y-96233745D01*
X97797976Y-96369086D01*
X97626985Y-96482476D01*
X97447171Y-96574785D01*
X97256669Y-96646881D01*
X97053610Y-96699635D01*
X96836129Y-96733914D01*
X96820901Y-96735502D01*
X96742705Y-96741037D01*
X96651349Y-96744250D01*
X96554242Y-96745143D01*
X96458787Y-96743714D01*
X96372393Y-96739965D01*
X96302465Y-96733896D01*
X96257652Y-96727882D01*
X96082974Y-96693105D01*
X95917271Y-96640815D01*
X95759128Y-96570089D01*
X95607127Y-96480006D01*
X95459851Y-96369644D01*
X95315882Y-96238082D01*
X95173803Y-96084396D01*
X95032197Y-95907667D01*
X94977659Y-95833641D01*
X94899039Y-95723004D01*
X94811498Y-95596202D01*
X94716695Y-95455846D01*
X94616291Y-95304546D01*
X94511946Y-95144913D01*
X94405319Y-94979558D01*
X94298071Y-94811092D01*
X94191860Y-94642125D01*
X94088347Y-94475268D01*
X93989192Y-94313133D01*
X93896055Y-94158329D01*
X93810595Y-94013468D01*
X93734472Y-93881160D01*
X93669347Y-93764017D01*
X93667658Y-93760930D01*
X93646088Y-93724660D01*
X93627726Y-93699033D01*
X93616387Y-93689425D01*
X93613887Y-93690265D01*
X93594021Y-93700378D01*
X93557172Y-93720747D01*
X93505975Y-93749865D01*
X93443069Y-93786222D01*
X93371089Y-93828310D01*
X93292673Y-93874620D01*
X93262106Y-93892741D01*
X93186619Y-93937335D01*
X93119078Y-93977015D01*
X93062013Y-94010310D01*
X93017957Y-94035745D01*
X92989441Y-94051847D01*
X92978996Y-94057144D01*
X92979712Y-94047140D01*
X92982730Y-94014898D01*
X92987918Y-93962061D01*
X92995100Y-93890333D01*
X93004104Y-93801419D01*
X93014754Y-93697024D01*
X93026877Y-93578854D01*
X93040298Y-93448612D01*
X93054845Y-93308005D01*
X93070343Y-93158736D01*
X93086617Y-93002511D01*
X93103350Y-92842904D01*
X93123553Y-92652639D01*
X93141596Y-92485777D01*
X93157510Y-92342047D01*
X93171329Y-92221175D01*
X93183083Y-92122891D01*
X93192805Y-92046921D01*
X93200527Y-91992993D01*
X93206280Y-91960835D01*
X93210097Y-91950174D01*
X93223409Y-91954100D01*
G37*
G36*
X93225799Y-91956450D02*
G01*
X93259465Y-91968338D01*
X93311439Y-91987441D01*
X93379782Y-92013009D01*
X93462555Y-92044290D01*
X93557820Y-92080531D01*
X93663639Y-92120981D01*
X93778072Y-92164888D01*
X93899182Y-92211501D01*
X94025029Y-92260068D01*
X94153676Y-92309837D01*
X94283183Y-92360056D01*
X94411613Y-92409974D01*
X94537027Y-92458838D01*
X94657486Y-92505898D01*
X94771051Y-92550402D01*
X94875785Y-92591597D01*
X94969749Y-92628732D01*
X95051003Y-92661055D01*
X95117611Y-92687815D01*
X95167632Y-92708259D01*
X95199129Y-92721637D01*
X95210163Y-92727196D01*
X95209268Y-92728663D01*
X95193739Y-92740778D01*
X95160869Y-92762951D01*
X95113191Y-92793571D01*
X95053239Y-92831030D01*
X94983547Y-92873715D01*
X94906651Y-92920019D01*
X94881880Y-92934853D01*
X94807049Y-92980168D01*
X94740271Y-93021348D01*
X94684070Y-93056787D01*
X94640969Y-93084879D01*
X94613491Y-93104018D01*
X94604159Y-93112596D01*
X94608994Y-93123081D01*
X94625220Y-93152831D01*
X94651580Y-93199150D01*
X94686783Y-93259880D01*
X94729543Y-93332858D01*
X94778569Y-93415926D01*
X94832574Y-93506921D01*
X94890269Y-93603685D01*
X94950365Y-93704056D01*
X95011573Y-93805874D01*
X95072604Y-93906979D01*
X95132171Y-94005210D01*
X95188984Y-94098407D01*
X95241755Y-94184409D01*
X95289195Y-94261055D01*
X95314433Y-94301493D01*
X95398227Y-94434215D01*
X95481592Y-94564032D01*
X95562834Y-94688416D01*
X95640261Y-94804838D01*
X95712180Y-94910770D01*
X95776897Y-95003685D01*
X95832721Y-95081053D01*
X95877957Y-95140346D01*
X95985427Y-95267696D01*
X96103355Y-95388970D01*
X96218612Y-95487095D01*
X96331809Y-95562351D01*
X96443552Y-95615018D01*
X96554453Y-95645375D01*
X96665118Y-95653704D01*
X96776157Y-95640285D01*
X96888178Y-95605398D01*
X96966274Y-95569146D01*
X97061690Y-95511073D01*
X97156298Y-95437357D01*
X97251616Y-95346526D01*
X97349162Y-95237108D01*
X97450454Y-95107629D01*
X97557010Y-94956617D01*
X97580572Y-94921342D01*
X97627751Y-94849181D01*
X97685475Y-94759471D01*
X97752608Y-94654054D01*
X97828011Y-94534770D01*
X97910547Y-94403461D01*
X97999078Y-94261967D01*
X98092468Y-94112129D01*
X98189578Y-93955787D01*
X98289271Y-93794782D01*
X98390410Y-93630956D01*
X98491857Y-93466149D01*
X98592475Y-93302201D01*
X98691126Y-93140955D01*
X98786673Y-92984249D01*
X98877978Y-92833926D01*
X98963905Y-92691825D01*
X99043314Y-92559789D01*
X99115070Y-92439657D01*
X99178034Y-92333270D01*
X99219509Y-92263294D01*
X99259139Y-92197485D01*
X99293450Y-92141588D01*
X99320761Y-92098311D01*
X99339388Y-92070360D01*
X99347650Y-92060442D01*
X99355420Y-92064082D01*
X99382189Y-92078560D01*
X99425901Y-92102948D01*
X99484434Y-92136039D01*
X99555670Y-92176630D01*
X99637488Y-92223515D01*
X99727768Y-92275490D01*
X99824390Y-92331350D01*
X99834530Y-92337224D01*
X99943547Y-92400450D01*
X100033649Y-92452933D01*
X100106564Y-92495803D01*
X100164017Y-92530189D01*
X100207735Y-92557220D01*
X100239444Y-92578024D01*
X100260870Y-92593731D01*
X100273741Y-92605470D01*
X100279781Y-92614368D01*
X100280718Y-92621557D01*
X100278278Y-92628163D01*
X100263900Y-92654554D01*
X100237562Y-92701841D01*
X100201815Y-92765388D01*
X100158028Y-92842803D01*
X100107568Y-92931693D01*
X100051803Y-93029665D01*
X99992101Y-93134325D01*
X99929829Y-93243282D01*
X99866355Y-93354142D01*
X99803048Y-93464512D01*
X99741274Y-93572000D01*
X99682401Y-93674212D01*
X99627798Y-93768756D01*
X99578832Y-93853239D01*
X99536870Y-93925267D01*
X99515434Y-93961903D01*
X99357554Y-94229731D01*
X99208473Y-94478870D01*
X99066633Y-94711835D01*
X98930474Y-94931141D01*
X98798438Y-95139303D01*
X98668964Y-95338836D01*
X98540493Y-95532255D01*
X98520065Y-95562570D01*
X98435880Y-95685290D01*
X98360225Y-95791280D01*
X98290401Y-95883911D01*
X98223710Y-95966554D01*
X98157454Y-96042582D01*
X98088935Y-96115364D01*
X98015455Y-96188273D01*
X97964403Y-96236095D01*
X97800366Y-96371436D01*
X97629375Y-96484826D01*
X97449561Y-96577135D01*
X97259059Y-96649231D01*
X97056000Y-96701985D01*
X96838519Y-96736264D01*
X96823291Y-96737852D01*
X96745095Y-96743387D01*
X96653739Y-96746600D01*
X96556632Y-96747493D01*
X96461177Y-96746064D01*
X96374783Y-96742315D01*
X96304855Y-96736246D01*
X96260042Y-96730232D01*
X96085364Y-96695455D01*
X95919661Y-96643165D01*
X95761518Y-96572439D01*
X95609517Y-96482356D01*
X95462241Y-96371994D01*
X95318272Y-96240432D01*
X95176193Y-96086746D01*
X95034587Y-95910017D01*
X94980049Y-95835991D01*
X94901429Y-95725354D01*
X94813888Y-95598552D01*
X94719085Y-95458196D01*
X94618681Y-95306896D01*
X94514336Y-95147263D01*
X94407709Y-94981908D01*
X94300461Y-94813442D01*
X94194250Y-94644475D01*
X94090737Y-94477618D01*
X93991582Y-94315483D01*
X93898445Y-94160679D01*
X93812985Y-94015818D01*
X93736862Y-93883510D01*
X93671737Y-93766367D01*
X93670048Y-93763280D01*
X93648478Y-93727010D01*
X93630116Y-93701383D01*
X93618777Y-93691775D01*
X93616277Y-93692615D01*
X93596411Y-93702728D01*
X93559562Y-93723097D01*
X93508365Y-93752215D01*
X93445459Y-93788572D01*
X93373479Y-93830660D01*
X93295063Y-93876970D01*
X93264496Y-93895091D01*
X93189009Y-93939685D01*
X93121468Y-93979365D01*
X93064403Y-94012660D01*
X93020347Y-94038095D01*
X92991831Y-94054197D01*
X92981386Y-94059494D01*
X92982102Y-94049490D01*
X92985120Y-94017248D01*
X92990308Y-93964411D01*
X92997490Y-93892683D01*
X93006494Y-93803769D01*
X93017144Y-93699374D01*
X93029267Y-93581204D01*
X93042688Y-93450962D01*
X93057235Y-93310355D01*
X93072733Y-93161086D01*
X93089007Y-93004861D01*
X93105740Y-92845254D01*
X93125943Y-92654989D01*
X93143986Y-92488127D01*
X93159900Y-92344397D01*
X93173719Y-92223525D01*
X93185473Y-92125241D01*
X93195195Y-92049271D01*
X93202917Y-91995343D01*
X93208670Y-91963185D01*
X93212487Y-91952524D01*
X93225799Y-91956450D01*
G37*
%TD*%
D10*
%TO.C,H2*%
X72136000Y-97556000D03*
%TD*%
%TO.C,H1*%
X103632000Y-115717000D03*
%TD*%
D11*
%TO.C,J4*%
X106831000Y-96319000D03*
D12*
X105034949Y-94522949D03*
X103238898Y-92726898D03*
X101442846Y-90930846D03*
%TD*%
D13*
%TO.C,J1*%
X77975672Y-121628317D03*
D14*
X79771723Y-123424368D03*
X81567774Y-125220419D03*
X83363826Y-127016471D03*
%TD*%
D15*
%TO.C,J3*%
X88416000Y-126968000D03*
X89416000Y-126968000D03*
X90416000Y-126968000D03*
X91416000Y-126968000D03*
D16*
X87116000Y-123093000D03*
X92716000Y-123093000D03*
%TD*%
D17*
%TO.C,D2*%
X98561000Y-124460000D03*
X96511000Y-124460000D03*
%TD*%
M02*
