%TF.GenerationSoftware,KiCad,Pcbnew,(6.0.4-0)*%
%TF.CreationDate,2022-12-23T16:58:16+01:00*%
%TF.ProjectId,RoundScanner,526f756e-6453-4636-916e-6e65722e6b69,2*%
%TF.SameCoordinates,Original*%
%TF.FileFunction,Copper,L1,Top*%
%TF.FilePolarity,Positive*%
%FSLAX46Y46*%
G04 Gerber Fmt 4.6, Leading zero omitted, Abs format (unit mm)*
G04 Created by KiCad (PCBNEW (6.0.4-0)) date 2022-12-23 16:58:16*
%MOMM*%
%LPD*%
G01*
G04 APERTURE LIST*
G04 Aperture macros list*
%AMRoundRect*
0 Rectangle with rounded corners*
0 $1 Rounding radius*
0 $2 $3 $4 $5 $6 $7 $8 $9 X,Y pos of 4 corners*
0 Add a 4 corners polygon primitive as box body*
4,1,4,$2,$3,$4,$5,$6,$7,$8,$9,$2,$3,0*
0 Add four circle primitives for the rounded corners*
1,1,$1+$1,$2,$3*
1,1,$1+$1,$4,$5*
1,1,$1+$1,$6,$7*
1,1,$1+$1,$8,$9*
0 Add four rect primitives between the rounded corners*
20,1,$1+$1,$2,$3,$4,$5,0*
20,1,$1+$1,$4,$5,$6,$7,0*
20,1,$1+$1,$6,$7,$8,$9,0*
20,1,$1+$1,$8,$9,$2,$3,0*%
%AMHorizOval*
0 Thick line with rounded ends*
0 $1 width*
0 $2 $3 position (X,Y) of the first rounded end (center of the circle)*
0 $4 $5 position (X,Y) of the second rounded end (center of the circle)*
0 Add line between two ends*
20,1,$1,$2,$3,$4,$5,0*
0 Add two circle primitives to create the rounded ends*
1,1,$1,$2,$3*
1,1,$1,$4,$5*%
%AMRotRect*
0 Rectangle, with rotation*
0 The origin of the aperture is its center*
0 $1 length*
0 $2 width*
0 $3 Rotation angle, in degrees counterclockwise*
0 Add horizontal line*
21,1,$1,$2,0,0,$3*%
G04 Aperture macros list end*
%TA.AperFunction,SMDPad,CuDef*%
%ADD10RoundRect,0.250001X0.462499X0.624999X-0.462499X0.624999X-0.462499X-0.624999X0.462499X-0.624999X0*%
%TD*%
%TA.AperFunction,SMDPad,CuDef*%
%ADD11RoundRect,0.237500X-0.237500X0.300000X-0.237500X-0.300000X0.237500X-0.300000X0.237500X0.300000X0*%
%TD*%
%TA.AperFunction,SMDPad,CuDef*%
%ADD12RoundRect,0.237500X0.237500X-0.300000X0.237500X0.300000X-0.237500X0.300000X-0.237500X-0.300000X0*%
%TD*%
%TA.AperFunction,SMDPad,CuDef*%
%ADD13RoundRect,0.237500X0.344715X-0.008839X-0.008839X0.344715X-0.344715X0.008839X0.008839X-0.344715X0*%
%TD*%
%TA.AperFunction,SMDPad,CuDef*%
%ADD14RoundRect,0.237500X-0.237500X0.250000X-0.237500X-0.250000X0.237500X-0.250000X0.237500X0.250000X0*%
%TD*%
%TA.AperFunction,SMDPad,CuDef*%
%ADD15R,1.510292X0.412132*%
%TD*%
%TA.AperFunction,SMDPad,CuDef*%
%ADD16RoundRect,0.206066X0.549080X0.000000X-0.549080X0.000000X-0.549080X0.000000X0.549080X0.000000X0*%
%TD*%
%TA.AperFunction,SMDPad,CuDef*%
%ADD17RoundRect,0.237500X0.237500X-0.250000X0.237500X0.250000X-0.237500X0.250000X-0.237500X-0.250000X0*%
%TD*%
%TA.AperFunction,SMDPad,CuDef*%
%ADD18RoundRect,0.237500X0.250000X0.237500X-0.250000X0.237500X-0.250000X-0.237500X0.250000X-0.237500X0*%
%TD*%
%TA.AperFunction,SMDPad,CuDef*%
%ADD19C,1.500000*%
%TD*%
%TA.AperFunction,ComponentPad*%
%ADD20C,3.500000*%
%TD*%
%TA.AperFunction,SMDPad,CuDef*%
%ADD21RoundRect,0.237500X0.300000X0.237500X-0.300000X0.237500X-0.300000X-0.237500X0.300000X-0.237500X0*%
%TD*%
%TA.AperFunction,SMDPad,CuDef*%
%ADD22R,0.543390X1.874066*%
%TD*%
%TA.AperFunction,SMDPad,CuDef*%
%ADD23RoundRect,0.271695X0.000000X0.665338X0.000000X-0.665338X0.000000X-0.665338X0.000000X0.665338X0*%
%TD*%
%TA.AperFunction,SMDPad,CuDef*%
%ADD24RoundRect,0.042000X-0.943000X-0.258000X0.943000X-0.258000X0.943000X0.258000X-0.943000X0.258000X0*%
%TD*%
%TA.AperFunction,SMDPad,CuDef*%
%ADD25RoundRect,0.237500X-0.250000X-0.237500X0.250000X-0.237500X0.250000X0.237500X-0.250000X0.237500X0*%
%TD*%
%TA.AperFunction,SMDPad,CuDef*%
%ADD26RoundRect,0.237500X0.008839X0.344715X-0.344715X-0.008839X-0.008839X-0.344715X0.344715X0.008839X0*%
%TD*%
%TA.AperFunction,SMDPad,CuDef*%
%ADD27RoundRect,0.200000X0.200000X0.250000X-0.200000X0.250000X-0.200000X-0.250000X0.200000X-0.250000X0*%
%TD*%
%TA.AperFunction,SMDPad,CuDef*%
%ADD28R,0.550000X0.800000*%
%TD*%
%TA.AperFunction,SMDPad,CuDef*%
%ADD29O,0.550000X0.800000*%
%TD*%
%TA.AperFunction,SMDPad,CuDef*%
%ADD30RoundRect,0.042000X0.943000X0.258000X-0.943000X0.258000X-0.943000X-0.258000X0.943000X-0.258000X0*%
%TD*%
%TA.AperFunction,SMDPad,CuDef*%
%ADD31RoundRect,0.250001X-0.462499X-0.624999X0.462499X-0.624999X0.462499X0.624999X-0.462499X0.624999X0*%
%TD*%
%TA.AperFunction,SMDPad,CuDef*%
%ADD32RoundRect,0.237500X-0.300000X-0.237500X0.300000X-0.237500X0.300000X0.237500X-0.300000X0.237500X0*%
%TD*%
%TA.AperFunction,SMDPad,CuDef*%
%ADD33R,2.100000X2.100000*%
%TD*%
%TA.AperFunction,SMDPad,CuDef*%
%ADD34R,1.000000X2.100000*%
%TD*%
%TA.AperFunction,SMDPad,CuDef*%
%ADD35R,1.475000X0.450000*%
%TD*%
%TA.AperFunction,SMDPad,CuDef*%
%ADD36R,0.590000X0.690000*%
%TD*%
%TA.AperFunction,ComponentPad*%
%ADD37RotRect,1.700000X1.700000X45.000000*%
%TD*%
%TA.AperFunction,ComponentPad*%
%ADD38HorizOval,1.700000X0.000000X0.000000X0.000000X0.000000X0*%
%TD*%
%TA.AperFunction,ComponentPad*%
%ADD39RotRect,1.700000X1.700000X225.000000*%
%TD*%
%TA.AperFunction,ComponentPad*%
%ADD40HorizOval,1.700000X0.000000X0.000000X0.000000X0.000000X0*%
%TD*%
%TA.AperFunction,ViaPad*%
%ADD41C,0.800000*%
%TD*%
%TA.AperFunction,Conductor*%
%ADD42C,0.500000*%
%TD*%
%TA.AperFunction,Conductor*%
%ADD43C,0.250000*%
%TD*%
%TA.AperFunction,Conductor*%
%ADD44C,0.200000*%
%TD*%
G04 APERTURE END LIST*
D10*
%TO.P,D8,1,K*%
%TO.N,Net-(D8-Pad1)*%
X93562500Y-101727000D03*
%TO.P,D8,2,A*%
%TO.N,+3V3*%
X90587500Y-101727000D03*
%TD*%
D11*
%TO.P,C7,1*%
%TO.N,GND*%
X86614000Y-94006500D03*
%TO.P,C7,2*%
%TO.N,+2V5*%
X86614000Y-95731500D03*
%TD*%
D12*
%TO.P,C13,1*%
%TO.N,+3V3*%
X69088000Y-111860500D03*
%TO.P,C13,2*%
%TO.N,GND*%
X69088000Y-110135500D03*
%TD*%
D13*
%TO.P,R29,1*%
%TO.N,Net-(R29-Pad1)*%
X103515235Y-102118235D03*
%TO.P,R29,2*%
%TO.N,Net-(D8-Pad1)*%
X102224765Y-100827765D03*
%TD*%
D14*
%TO.P,R1,1*%
%TO.N,Net-(C2-Pad1)*%
X101784000Y-94972500D03*
%TO.P,R1,2*%
%TO.N,Net-(C2-Pad2)*%
X101784000Y-96797500D03*
%TD*%
D11*
%TO.P,C3,1*%
%TO.N,Net-(C3-Pad1)*%
X90354000Y-93879500D03*
%TO.P,C3,2*%
%TO.N,Net-(C3-Pad2)*%
X90354000Y-95604500D03*
%TD*%
D12*
%TO.P,C5,1*%
%TO.N,/ADC/AIN-*%
X81661000Y-91667500D03*
%TO.P,C5,2*%
%TO.N,/ADC/AIN+*%
X81661000Y-89942500D03*
%TD*%
D15*
%TO.P,Q1,1,S2*%
%TO.N,SCL_2v*%
X78624919Y-113426000D03*
D16*
%TO.P,Q1,2,G2*%
%TO.N,+1V8*%
X78624919Y-112776000D03*
%TO.P,Q1,3,D1*%
%TO.N,SDA*%
X78624919Y-112126000D03*
%TO.P,Q1,4,S1*%
%TO.N,SDA_2v*%
X76823081Y-112126000D03*
%TO.P,Q1,5,G1*%
%TO.N,+1V8*%
X76823081Y-112776000D03*
%TO.P,Q1,6,D2*%
%TO.N,SCL*%
X76823081Y-113426000D03*
%TD*%
D17*
%TO.P,R16,1*%
%TO.N,+3V3*%
X93896999Y-126122497D03*
%TO.P,R16,2*%
%TO.N,Net-(D2-Pad2)*%
X93896999Y-124297497D03*
%TD*%
D18*
%TO.P,R4,1*%
%TO.N,Net-(C3-Pad2)*%
X86891500Y-89916000D03*
%TO.P,R4,2*%
%TO.N,/ADC/AIN+*%
X85066500Y-89916000D03*
%TD*%
D17*
%TO.P,R13,1*%
%TO.N,Net-(C12-Pad2)*%
X86781000Y-116331500D03*
%TO.P,R13,2*%
%TO.N,/ADC/AIN2-*%
X86781000Y-114506500D03*
%TD*%
D11*
%TO.P,C20,1*%
%TO.N,GND*%
X77597000Y-115596500D03*
%TO.P,C20,2*%
%TO.N,+1V8*%
X77597000Y-117321500D03*
%TD*%
D19*
%TO.P,TP1,1,1*%
%TO.N,+1V8*%
X75311000Y-122174000D03*
%TD*%
D18*
%TO.P,R7,1*%
%TO.N,+1V8*%
X81303500Y-115570000D03*
%TO.P,R7,2*%
%TO.N,SCL_2v*%
X79478500Y-115570000D03*
%TD*%
D14*
%TO.P,R6,1*%
%TO.N,/ADC/AIN-*%
X83312000Y-93321500D03*
%TO.P,R6,2*%
%TO.N,Net-(C8-Pad2)*%
X83312000Y-95146500D03*
%TD*%
D20*
%TO.P,H2,1,1*%
%TO.N,GND*%
X72136000Y-97556000D03*
%TD*%
D11*
%TO.P,C2,1*%
%TO.N,Net-(C2-Pad1)*%
X100006000Y-95022500D03*
%TO.P,C2,2*%
%TO.N,Net-(C2-Pad2)*%
X100006000Y-96747500D03*
%TD*%
%TO.P,C14,1*%
%TO.N,GND*%
X108839000Y-101880500D03*
%TO.P,C14,2*%
%TO.N,+3V3*%
X108839000Y-103605500D03*
%TD*%
D10*
%TO.P,D12,1,K*%
%TO.N,Net-(C21-Pad1)*%
X90766000Y-108839000D03*
%TO.P,D12,2,A*%
%TO.N,Net-(C12-Pad1)*%
X87791000Y-108839000D03*
%TD*%
%TO.P,D10,1,K*%
%TO.N,Net-(D10-Pad1)*%
X96864500Y-106553000D03*
%TO.P,D10,2,A*%
%TO.N,+3V3*%
X93889500Y-106553000D03*
%TD*%
%TO.P,D5,1,K*%
%TO.N,Net-(D5-Pad1)*%
X95848500Y-111379000D03*
%TO.P,D5,2,A*%
%TO.N,+3V3*%
X92873500Y-111379000D03*
%TD*%
D21*
%TO.P,C16,1*%
%TO.N,GND*%
X97709500Y-126259999D03*
%TO.P,C16,2*%
%TO.N,+3V3*%
X95984500Y-126259999D03*
%TD*%
D10*
%TO.P,D9,1,K*%
%TO.N,Net-(D9-Pad1)*%
X96102500Y-104140000D03*
%TO.P,D9,2,A*%
%TO.N,+3V3*%
X93127500Y-104140000D03*
%TD*%
D12*
%TO.P,C17,1*%
%TO.N,+3V3*%
X105731000Y-103631500D03*
%TO.P,C17,2*%
%TO.N,GND*%
X105731000Y-101906500D03*
%TD*%
D22*
%TO.P,U2,1,REFP*%
%TO.N,+2V5*%
X77470000Y-102694433D03*
D23*
%TO.P,U2,2,VIN1N*%
%TO.N,Net-(C8-Pad2)*%
X76200000Y-102694433D03*
%TO.P,U2,3,VIN1P*%
%TO.N,Net-(C8-Pad1)*%
X74930000Y-102694433D03*
%TO.P,U2,4,VIN2N*%
%TO.N,Net-(C9-Pad2)*%
X73660000Y-102694433D03*
%TO.P,U2,5,VIN2P*%
%TO.N,Net-(C9-Pad1)*%
X72390000Y-102694433D03*
%TO.P,U2,6,VBG*%
%TO.N,Net-(C10-Pad2)*%
X71120000Y-102694433D03*
%TO.P,U2,7,REFN*%
%TO.N,GND*%
X69850000Y-102694433D03*
%TO.P,U2,8,AVSS*%
X68580000Y-102694433D03*
%TO.P,U2,9,DVSS*%
X68580000Y-107326567D03*
%TO.P,U2,10,XIN*%
%TO.N,Net-(U2-Pad10)*%
X69850000Y-107326567D03*
%TO.P,U2,11,XOUT*%
%TO.N,unconnected-(U2-Pad11)*%
X71120000Y-107326567D03*
%TO.P,U2,12,DRDY*%
%TO.N,DRDY_INT*%
X72390000Y-107326567D03*
%TO.P,U2,13,SCLK*%
%TO.N,SCL*%
X73660000Y-107326567D03*
%TO.P,U2,14,SDIO*%
%TO.N,SDA*%
X74930000Y-107326567D03*
%TO.P,U2,15,DVDD*%
%TO.N,+3V3*%
X76200000Y-107326567D03*
%TO.P,U2,16,AVDD/LDO*%
%TO.N,+2V5*%
X77470000Y-107326567D03*
%TD*%
D17*
%TO.P,R2,1*%
%TO.N,Net-(C3-Pad2)*%
X88576000Y-95654500D03*
%TO.P,R2,2*%
%TO.N,Net-(C3-Pad1)*%
X88576000Y-93829500D03*
%TD*%
D24*
%TO.P,U4,1*%
%TO.N,Net-(C12-Pad2)*%
X90736663Y-118745000D03*
%TO.P,U4,2,-*%
%TO.N,Net-(C12-Pad1)*%
X90736663Y-120015000D03*
%TO.P,U4,3,+*%
%TO.N,+2V5*%
X90736663Y-121285000D03*
%TO.P,U4,4,V-*%
%TO.N,GND*%
X90736663Y-122555000D03*
%TO.P,U4,5,+*%
%TO.N,+2V5*%
X95676663Y-122555000D03*
%TO.P,U4,6,-*%
%TO.N,Net-(C21-Pad1)*%
X95676663Y-121285000D03*
%TO.P,U4,7*%
%TO.N,Net-(C21-Pad2)*%
X95676663Y-120015000D03*
%TO.P,U4,8,V+*%
%TO.N,+3V3*%
X95676663Y-118745000D03*
%TD*%
D10*
%TO.P,D4,1,K*%
%TO.N,Net-(D4-Pad1)*%
X92800500Y-113792000D03*
%TO.P,D4,2,A*%
%TO.N,+3V3*%
X89825500Y-113792000D03*
%TD*%
D17*
%TO.P,R12,1*%
%TO.N,SDA*%
X83185000Y-121308500D03*
%TO.P,R12,2*%
%TO.N,+3V3*%
X83185000Y-119483500D03*
%TD*%
D21*
%TO.P,C11,1*%
%TO.N,GND*%
X84927474Y-117725423D03*
%TO.P,C11,2*%
%TO.N,+2V5*%
X83202474Y-117725423D03*
%TD*%
D11*
%TO.P,C6,1*%
%TO.N,GND*%
X84963000Y-94006500D03*
%TO.P,C6,2*%
%TO.N,+2V5*%
X84963000Y-95731500D03*
%TD*%
D18*
%TO.P,R28,1*%
%TO.N,Net-(R28-Pad1)*%
X87023500Y-100889000D03*
%TO.P,R28,2*%
%TO.N,Net-(D7-Pad1)*%
X85198500Y-100889000D03*
%TD*%
D25*
%TO.P,R14,1*%
%TO.N,Net-(C21-Pad2)*%
X100930163Y-120650000D03*
%TO.P,R14,2*%
%TO.N,/ADC/AIN2+*%
X102755163Y-120650000D03*
%TD*%
%TO.P,R8,1*%
%TO.N,+1V8*%
X76557500Y-110109000D03*
%TO.P,R8,2*%
%TO.N,SDA_2v*%
X78382500Y-110109000D03*
%TD*%
D26*
%TO.P,R26,1*%
%TO.N,Net-(R26-Pad1)*%
X100213235Y-112257765D03*
%TO.P,R26,2*%
%TO.N,Net-(D5-Pad1)*%
X98922765Y-113548235D03*
%TD*%
D11*
%TO.P,C10,1*%
%TO.N,GND*%
X74803000Y-94006500D03*
%TO.P,C10,2*%
%TO.N,Net-(C10-Pad2)*%
X74803000Y-95731500D03*
%TD*%
D20*
%TO.P,H1,1,1*%
%TO.N,GND*%
X103632000Y-115717000D03*
%TD*%
D19*
%TO.P,TP4,1,1*%
%TO.N,+2V5*%
X92329000Y-89408000D03*
%TD*%
D27*
%TO.P,X1,1,Tri-State*%
%TO.N,Net-(R18-Pad1)*%
X72353000Y-112177000D03*
%TO.P,X1,2,GND*%
%TO.N,GND*%
X72353000Y-110327000D03*
%TO.P,X1,3,OUT*%
%TO.N,Net-(U2-Pad10)*%
X70903000Y-110327000D03*
%TO.P,X1,4,VDD*%
%TO.N,+3V3*%
X70903000Y-112177000D03*
%TD*%
D13*
%TO.P,R18,1*%
%TO.N,Net-(R18-Pad1)*%
X71638235Y-117104235D03*
%TO.P,R18,2*%
%TO.N,+3V3*%
X70347765Y-115813765D03*
%TD*%
D11*
%TO.P,C15,1*%
%TO.N,GND*%
X107315000Y-101880500D03*
%TO.P,C15,2*%
%TO.N,+3V3*%
X107315000Y-103605500D03*
%TD*%
D17*
%TO.P,R31,1*%
%TO.N,Net-(R31-Pad1)*%
X100457000Y-106703500D03*
%TO.P,R31,2*%
%TO.N,Net-(D10-Pad1)*%
X100457000Y-104878500D03*
%TD*%
D28*
%TO.P,U7,1,OUT2*%
%TO.N,+3V3*%
X75562501Y-115141500D03*
D29*
%TO.P,U7,2,GND*%
%TO.N,GND*%
X74612500Y-115141500D03*
%TO.P,U7,3,EN2*%
%TO.N,+3V3*%
X73662499Y-115141500D03*
%TO.P,U7,4,EN1*%
X73662499Y-117541500D03*
%TO.P,U7,5,IN*%
X74612500Y-117541500D03*
%TO.P,U7,6,OUT1*%
%TO.N,+1V8*%
X75562501Y-117541500D03*
%TD*%
D30*
%TO.P,U1,1*%
%TO.N,Net-(C2-Pad2)*%
X97650000Y-96647000D03*
%TO.P,U1,2,-*%
%TO.N,Net-(C2-Pad1)*%
X97650000Y-95377000D03*
%TO.P,U1,3,+*%
%TO.N,+2V5*%
X97650000Y-94107000D03*
%TO.P,U1,4,V-*%
%TO.N,GND*%
X97650000Y-92837000D03*
%TO.P,U1,5,+*%
%TO.N,+2V5*%
X92710000Y-92837000D03*
%TO.P,U1,6,-*%
%TO.N,Net-(C3-Pad1)*%
X92710000Y-94107000D03*
%TO.P,U1,7*%
%TO.N,Net-(C3-Pad2)*%
X92710000Y-95377000D03*
%TO.P,U1,8,V+*%
%TO.N,+3V3*%
X92710000Y-96647000D03*
%TD*%
D14*
%TO.P,R11,1*%
%TO.N,+3V3*%
X84836000Y-119507000D03*
%TO.P,R11,2*%
%TO.N,SCL*%
X84836000Y-121332000D03*
%TD*%
D31*
%TO.P,D1,1,K*%
%TO.N,Net-(C3-Pad1)*%
X87793500Y-106299000D03*
%TO.P,D1,2,A*%
%TO.N,Net-(C2-Pad1)*%
X90768500Y-106299000D03*
%TD*%
D32*
%TO.P,C8,1*%
%TO.N,Net-(C8-Pad1)*%
X81560500Y-96901000D03*
%TO.P,C8,2*%
%TO.N,Net-(C8-Pad2)*%
X83285500Y-96901000D03*
%TD*%
%TO.P,C9,1*%
%TO.N,Net-(C9-Pad1)*%
X72924500Y-100838000D03*
%TO.P,C9,2*%
%TO.N,Net-(C9-Pad2)*%
X74649500Y-100838000D03*
%TD*%
D17*
%TO.P,R19,1*%
%TO.N,+1V8*%
X79981000Y-108581500D03*
%TO.P,R19,2*%
%TO.N,AS7341_INT*%
X79981000Y-106756500D03*
%TD*%
D33*
%TO.P,D3,1,CATHODE*%
%TO.N,Net-(D3-Pad1)*%
X83391000Y-111125000D03*
D34*
%TO.P,D3,2,ANODE*%
%TO.N,+3V3*%
X85561000Y-111125000D03*
%TD*%
D32*
%TO.P,C22,1*%
%TO.N,/ADC/AIN2+*%
X76988500Y-94996000D03*
%TO.P,C22,2*%
%TO.N,/ADC/AIN2-*%
X78713500Y-94996000D03*
%TD*%
D26*
%TO.P,R27,1*%
%TO.N,Net-(R27-Pad1)*%
X81290235Y-99684765D03*
%TO.P,R27,2*%
%TO.N,Net-(D6-Pad1)*%
X79999765Y-100975235D03*
%TD*%
D10*
%TO.P,D11,1,K*%
%TO.N,Net-(D11-Pad1)*%
X96864500Y-108966000D03*
%TO.P,D11,2,A*%
%TO.N,+3V3*%
X93889500Y-108966000D03*
%TD*%
D21*
%TO.P,C23,1*%
%TO.N,/ADC/AIN2-*%
X78713500Y-93397300D03*
%TO.P,C23,2*%
%TO.N,/ADC/AIN2+*%
X76988500Y-93397300D03*
%TD*%
D14*
%TO.P,R10,1*%
%TO.N,Net-(C21-Pad2)*%
X99302663Y-119483500D03*
%TO.P,R10,2*%
%TO.N,Net-(C21-Pad1)*%
X99302663Y-121308500D03*
%TD*%
D21*
%TO.P,C1,1*%
%TO.N,GND*%
X95661500Y-91186000D03*
%TO.P,C1,2*%
%TO.N,+2V5*%
X93936500Y-91186000D03*
%TD*%
D35*
%TO.P,U5,1,A0*%
%TO.N,GND*%
X109872000Y-109971000D03*
%TO.P,U5,2,A1*%
X109872000Y-109321000D03*
%TO.P,U5,3,A2*%
X109872000Y-108671000D03*
%TO.P,U5,4,~{OUT0}*%
%TO.N,Net-(R25-Pad1)*%
X109872000Y-108021000D03*
%TO.P,U5,5,~{OUT1}*%
%TO.N,Net-(R26-Pad1)*%
X109872000Y-107371000D03*
%TO.P,U5,6,~{OUT2}*%
%TO.N,Net-(R27-Pad1)*%
X109872000Y-106721000D03*
%TO.P,U5,7,~{OUT3}*%
%TO.N,Net-(R28-Pad1)*%
X109872000Y-106071000D03*
%TO.P,U5,8,GND*%
%TO.N,GND*%
X109872000Y-105421000D03*
%TO.P,U5,9,~{OUT4}*%
%TO.N,Net-(R29-Pad1)*%
X103996000Y-105421000D03*
%TO.P,U5,10,~{OUT5}*%
%TO.N,Net-(R30-Pad1)*%
X103996000Y-106071000D03*
%TO.P,U5,11,~{OUT6}*%
%TO.N,Net-(R31-Pad1)*%
X103996000Y-106721000D03*
%TO.P,U5,12,~{OUT7}*%
%TO.N,Net-(R32-Pad1)*%
X103996000Y-107371000D03*
%TO.P,U5,13,~{RESET}*%
%TO.N,LED RESET*%
X103996000Y-108021000D03*
%TO.P,U5,14,SCL*%
%TO.N,SCL*%
X103996000Y-108671000D03*
%TO.P,U5,15,SDA*%
%TO.N,SDA*%
X103996000Y-109321000D03*
%TO.P,U5,16,VCC*%
%TO.N,+3V3*%
X103996000Y-109971000D03*
%TD*%
D32*
%TO.P,C18,1*%
%TO.N,+3V3*%
X107214500Y-113665000D03*
%TO.P,C18,2*%
%TO.N,GND*%
X108939500Y-113665000D03*
%TD*%
D14*
%TO.P,R17,1*%
%TO.N,/ADC/AIN2-*%
X81661000Y-93321500D03*
%TO.P,R17,2*%
%TO.N,Net-(C9-Pad2)*%
X81661000Y-95146500D03*
%TD*%
D11*
%TO.P,C4,1*%
%TO.N,/ADC/AIN+*%
X83312000Y-89942500D03*
%TO.P,C4,2*%
%TO.N,/ADC/AIN-*%
X83312000Y-91667500D03*
%TD*%
D10*
%TO.P,D7,1,K*%
%TO.N,Net-(D7-Pad1)*%
X86450500Y-102870000D03*
%TO.P,D7,2,A*%
%TO.N,+3V3*%
X83475500Y-102870000D03*
%TD*%
D13*
%TO.P,R30,1*%
%TO.N,Net-(R30-Pad1)*%
X102245235Y-103388235D03*
%TO.P,R30,2*%
%TO.N,Net-(D9-Pad1)*%
X100954765Y-102097765D03*
%TD*%
D19*
%TO.P,TP3,1,1*%
%TO.N,+3V3*%
X73533000Y-120142000D03*
%TD*%
D36*
%TO.P,U6,1,VDD*%
%TO.N,+1V8*%
X81731000Y-108463000D03*
%TO.P,U6,2,SCL*%
%TO.N,SCL_2v*%
X82531000Y-108463000D03*
%TO.P,U6,3,GND*%
%TO.N,GND*%
X83331000Y-108463000D03*
%TO.P,U6,4,LDR*%
%TO.N,Net-(D3-Pad1)*%
X84131000Y-108463000D03*
%TO.P,U6,5,PGND*%
%TO.N,GND*%
X84131000Y-107183000D03*
%TO.P,U6,6,GPIO*%
%TO.N,unconnected-(U6-Pad6)*%
X83331000Y-107183000D03*
%TO.P,U6,7,INT*%
%TO.N,AS7341_INT*%
X82531000Y-107183000D03*
%TO.P,U6,8,SDA*%
%TO.N,SDA_2v*%
X81731000Y-107183000D03*
%TD*%
D12*
%TO.P,C21,1*%
%TO.N,Net-(C21-Pad1)*%
X97778663Y-121258500D03*
%TO.P,C21,2*%
%TO.N,Net-(C21-Pad2)*%
X97778663Y-119533500D03*
%TD*%
D18*
%TO.P,R3,1*%
%TO.N,Net-(C2-Pad2)*%
X86891500Y-91567000D03*
%TO.P,R3,2*%
%TO.N,/ADC/AIN-*%
X85066500Y-91567000D03*
%TD*%
D14*
%TO.P,R5,1*%
%TO.N,/ADC/AIN+*%
X80010000Y-89892500D03*
%TO.P,R5,2*%
%TO.N,Net-(C8-Pad1)*%
X80010000Y-91717500D03*
%TD*%
D18*
%TO.P,R24,1*%
%TO.N,LED RESET*%
X107973500Y-111887000D03*
%TO.P,R24,2*%
%TO.N,+3V3*%
X106148500Y-111887000D03*
%TD*%
D12*
%TO.P,C12,1*%
%TO.N,Net-(C12-Pad1)*%
X88392000Y-120496500D03*
%TO.P,C12,2*%
%TO.N,Net-(C12-Pad2)*%
X88392000Y-118771500D03*
%TD*%
D26*
%TO.P,R25,1*%
%TO.N,Net-(R25-Pad1)*%
X97673235Y-114797765D03*
%TO.P,R25,2*%
%TO.N,Net-(D4-Pad1)*%
X96382765Y-116088235D03*
%TD*%
D32*
%TO.P,C19,1*%
%TO.N,GND*%
X79528500Y-117348000D03*
%TO.P,C19,2*%
%TO.N,+1V8*%
X81253500Y-117348000D03*
%TD*%
D25*
%TO.P,R15,1*%
%TO.N,/ADC/AIN2+*%
X76938500Y-96597700D03*
%TO.P,R15,2*%
%TO.N,Net-(C9-Pad1)*%
X78763500Y-96597700D03*
%TD*%
D31*
%TO.P,D6,1,K*%
%TO.N,Net-(D6-Pad1)*%
X81951500Y-105283000D03*
%TO.P,D6,2,A*%
%TO.N,+3V3*%
X84926500Y-105283000D03*
%TD*%
D17*
%TO.P,R9,1*%
%TO.N,Net-(C12-Pad1)*%
X86868000Y-120546500D03*
%TO.P,R9,2*%
%TO.N,Net-(C12-Pad2)*%
X86868000Y-118721500D03*
%TD*%
D14*
%TO.P,R32,1*%
%TO.N,Net-(R32-Pad1)*%
X100457000Y-108307500D03*
%TO.P,R32,2*%
%TO.N,Net-(D11-Pad1)*%
X100457000Y-110132500D03*
%TD*%
D37*
%TO.P,J4,1,Pin_1*%
%TO.N,GND*%
X106831000Y-96319000D03*
D38*
%TO.P,J4,2,Pin_2*%
%TO.N,LED RESET*%
X105034949Y-94522949D03*
%TO.P,J4,3,Pin_3*%
%TO.N,AS7341_INT*%
X103238898Y-92726898D03*
%TO.P,J4,4,Pin_4*%
%TO.N,DRDY_INT*%
X101442846Y-90930846D03*
%TD*%
D39*
%TO.P,J1,1,Pin_1*%
%TO.N,GND*%
X77975672Y-121628317D03*
D40*
%TO.P,J1,2,Pin_2*%
%TO.N,+3V3*%
X79771723Y-123424368D03*
%TO.P,J1,3,Pin_3*%
%TO.N,SDA*%
X81567774Y-125220419D03*
%TO.P,J1,4,Pin_4*%
%TO.N,SCL*%
X83363826Y-127016471D03*
%TD*%
D41*
%TO.N,+2V5*%
X78411285Y-107574192D03*
X84963000Y-97155000D03*
X88331000Y-121769000D03*
X83185000Y-116459000D03*
X91059000Y-92710000D03*
%TO.N,Net-(C2-Pad2)*%
X88048500Y-91816701D03*
X103251000Y-97155000D03*
%TO.N,+3V3*%
X90574204Y-96811500D03*
X89408000Y-125476000D03*
X76200000Y-105410000D03*
X106531000Y-104319000D03*
X74676000Y-118745000D03*
X93726000Y-116967000D03*
X85581500Y-108601386D03*
X70992059Y-114597111D03*
X105029000Y-110998000D03*
X91402051Y-100123252D03*
X91331250Y-112159250D03*
%TO.N,SDA*%
X75381000Y-109069000D03*
X102362000Y-109982000D03*
X90444044Y-124626500D03*
X83819942Y-123004567D03*
X80264000Y-111252000D03*
%TO.N,Net-(C8-Pad1)*%
X80645000Y-96012000D03*
X78867000Y-90424000D03*
%TO.N,LED RESET*%
X109601000Y-111633000D03*
%TO.N,Net-(R25-Pad1)*%
X103692257Y-111133368D03*
X108157333Y-108095500D03*
%TO.N,Net-(R26-Pad1)*%
X107061000Y-107315000D03*
X99441000Y-110871000D03*
%TO.N,Net-(R27-Pad1)*%
X106680000Y-105791000D03*
X86331000Y-98369000D03*
%TO.N,Net-(R28-Pad1)*%
X107569000Y-105283000D03*
X88646000Y-98933000D03*
%TO.N,DRDY_INT*%
X72390000Y-105410000D03*
%TO.N,SCL*%
X102487287Y-111476921D03*
X85059987Y-123220013D03*
X75315299Y-112644701D03*
X91440000Y-123825000D03*
%TO.N,Net-(D2-Pad2)*%
X95250000Y-124297497D03*
%TO.N,+1V8*%
X80455236Y-110119477D03*
X77597000Y-109093000D03*
X82231000Y-115369000D03*
%TO.N,/ADC/AIN2+*%
X75565000Y-92583000D03*
X98425000Y-117856000D03*
%TO.N,/ADC/AIN2-*%
X87080500Y-112919448D03*
X77597000Y-90678000D03*
%TO.N,GND*%
X105029000Y-119380000D03*
X87249000Y-127000000D03*
X99231000Y-89019000D03*
X102235000Y-117983000D03*
X78740000Y-125603000D03*
X84963000Y-116332000D03*
X89916000Y-89027000D03*
X107696000Y-98171000D03*
X85852000Y-92837000D03*
X108380648Y-109069736D03*
X98679000Y-102362000D03*
X99314000Y-116205000D03*
X95885000Y-89027000D03*
X104648000Y-100330000D03*
X76454000Y-123825000D03*
X101981000Y-122809000D03*
X98044000Y-111379000D03*
X98298000Y-101092000D03*
X69977000Y-99949000D03*
X84201000Y-109450886D03*
X105156000Y-99060000D03*
X95504000Y-113538000D03*
X80518000Y-103251000D03*
X95885000Y-99949000D03*
X106934000Y-115316000D03*
X85031000Y-107119000D03*
X78613000Y-102489000D03*
X106934000Y-117856000D03*
X108839000Y-99568000D03*
X99060000Y-107823000D03*
X103378000Y-98806000D03*
X97028000Y-102489000D03*
X84328000Y-88773000D03*
X100330000Y-93091000D03*
X76581000Y-119507000D03*
X97790000Y-98679000D03*
X73025000Y-94234000D03*
X100203000Y-123952000D03*
X79375000Y-104775000D03*
X79502000Y-118618000D03*
%TO.N,AS7341_INT*%
X83439000Y-106238498D03*
%TD*%
D42*
%TO.N,+2V5*%
X93499808Y-121285000D02*
X90736663Y-121285000D01*
X83185000Y-116459000D02*
X83185000Y-117707949D01*
X89281000Y-121269000D02*
X88781000Y-121769000D01*
X90720663Y-121269000D02*
X89281000Y-121269000D01*
X77470000Y-107326567D02*
X77470000Y-102694433D01*
X91059000Y-92710000D02*
X92583000Y-92710000D01*
X92329000Y-89578500D02*
X93936500Y-91186000D01*
X94769808Y-122555000D02*
X93499808Y-121285000D01*
X84963000Y-95731500D02*
X86614000Y-95731500D01*
X97650000Y-94107000D02*
X96857500Y-94107000D01*
X77470000Y-101854000D02*
X80670970Y-98653030D01*
X84963000Y-97155000D02*
X84963000Y-95731500D01*
X80670970Y-98653030D02*
X83464970Y-98653030D01*
X83464970Y-98653030D02*
X84963000Y-97155000D01*
X77717625Y-107574192D02*
X78411285Y-107574192D01*
X96857500Y-94107000D02*
X93936500Y-91186000D01*
X92710000Y-92412500D02*
X93936500Y-91186000D01*
X77470000Y-107326567D02*
X77717625Y-107574192D01*
X90736663Y-121285000D02*
X90720663Y-121269000D01*
X77470000Y-102694433D02*
X77470000Y-101854000D01*
X95676663Y-122555000D02*
X94769808Y-122555000D01*
X88781000Y-121769000D02*
X88331000Y-121769000D01*
X92710000Y-92837000D02*
X92710000Y-92412500D01*
X92583000Y-92710000D02*
X92710000Y-92837000D01*
D43*
%TO.N,Net-(C2-Pad1)*%
X90768500Y-106476800D02*
X89080480Y-104788780D01*
X94800489Y-99001511D02*
X95826511Y-97975489D01*
X97650000Y-95377000D02*
X99651500Y-95377000D01*
X89080480Y-100784520D02*
X90863489Y-99001511D01*
X95826511Y-96751152D02*
X97200663Y-95377000D01*
X95826511Y-97975489D02*
X95826511Y-96751152D01*
X89080480Y-104788780D02*
X89080480Y-100784520D01*
X100006000Y-95022500D02*
X101734000Y-95022500D01*
X90863489Y-99001511D02*
X94800489Y-99001511D01*
X99651500Y-95377000D02*
X100006000Y-95022500D01*
%TO.N,Net-(C2-Pad2)*%
X86891500Y-91567000D02*
X87798799Y-91567000D01*
X102893500Y-96797500D02*
X103251000Y-97155000D01*
X100006000Y-96747500D02*
X101734000Y-96747500D01*
X97650000Y-96647000D02*
X99905500Y-96647000D01*
X87798799Y-91567000D02*
X88048500Y-91816701D01*
X101784000Y-96797500D02*
X102893500Y-96797500D01*
%TO.N,Net-(C3-Pad1)*%
X88519000Y-100584000D02*
X90551000Y-98552000D01*
X88519000Y-105751300D02*
X88519000Y-100584000D01*
X88576000Y-93829500D02*
X90304000Y-93829500D01*
X90551000Y-98552000D02*
X94488000Y-98552000D01*
X92710000Y-94107000D02*
X90581500Y-94107000D01*
X88120520Y-106149780D02*
X88519000Y-105751300D01*
X95377000Y-96324663D02*
X93159337Y-94107000D01*
X94488000Y-98552000D02*
X95377000Y-97663000D01*
X95377000Y-97663000D02*
X95377000Y-96324663D01*
%TO.N,Net-(C3-Pad2)*%
X87757000Y-93366184D02*
X88413184Y-92710000D01*
X87757000Y-94835500D02*
X87757000Y-93366184D01*
X88773000Y-90424000D02*
X88265000Y-89916000D01*
X88773000Y-92710000D02*
X88773000Y-90424000D01*
X88413184Y-92710000D02*
X88773000Y-92710000D01*
X88576000Y-95654500D02*
X90304000Y-95654500D01*
X92710000Y-95377000D02*
X90581500Y-95377000D01*
X88265000Y-89916000D02*
X86891500Y-89916000D01*
X88576000Y-95654500D02*
X87757000Y-94835500D01*
D44*
%TO.N,/ADC/AIN+*%
X81661000Y-89942500D02*
X83312000Y-89942500D01*
X80010000Y-89892500D02*
X81611000Y-89892500D01*
X83312000Y-89942500D02*
X85040000Y-89942500D01*
%TO.N,/ADC/AIN-*%
X83312000Y-93321500D02*
X83312000Y-91667500D01*
X81661000Y-91667500D02*
X83312000Y-91667500D01*
X85066500Y-91567000D02*
X83412500Y-91567000D01*
D42*
%TO.N,+3V3*%
X76200000Y-107326567D02*
X76200000Y-105410000D01*
X107161500Y-103759000D02*
X106601500Y-104319000D01*
X92873500Y-104267000D02*
X90587500Y-101981000D01*
X85880501Y-108302385D02*
X85581500Y-108601386D01*
X85880501Y-106237001D02*
X85880501Y-108302385D01*
X73662499Y-115141500D02*
X73662499Y-117541500D01*
X84926500Y-105283000D02*
X85880501Y-106237001D01*
X74612500Y-117341875D02*
X74612500Y-117541500D01*
X75562501Y-116391874D02*
X74612500Y-117341875D01*
X95676663Y-118745000D02*
X95676663Y-118536663D01*
X91331250Y-112159250D02*
X91331250Y-112286250D01*
X79771723Y-122902225D02*
X79771723Y-123424368D01*
X73662499Y-117731499D02*
X74676000Y-118745000D01*
X94107000Y-116967000D02*
X93726000Y-116967000D01*
X74676000Y-118999000D02*
X73533000Y-120142000D01*
X106389500Y-104177500D02*
X106531000Y-104319000D01*
X84963000Y-119507000D02*
X83166948Y-119507000D01*
X70586500Y-111860500D02*
X70992059Y-112266059D01*
X74612500Y-118681500D02*
X74676000Y-118745000D01*
X91331250Y-112286250D02*
X89825500Y-113792000D01*
X83475500Y-103832000D02*
X84926500Y-105283000D01*
X95676663Y-118536663D02*
X94107000Y-116967000D01*
X106019557Y-104177500D02*
X106389500Y-104177500D01*
X92545500Y-96811500D02*
X90574204Y-96811500D01*
X69088000Y-111860500D02*
X70586500Y-111860500D01*
X90587500Y-101981000D02*
X90587500Y-100937803D01*
X93127500Y-104267000D02*
X94118100Y-105257600D01*
X105912000Y-111887000D02*
X104020511Y-109995511D01*
X92873500Y-111379000D02*
X92111500Y-111379000D01*
X92710000Y-96647000D02*
X92545500Y-96811500D01*
X83475500Y-102997000D02*
X83475500Y-103832000D01*
X70347765Y-115813765D02*
X70347765Y-115241405D01*
X90587500Y-100937803D02*
X91402051Y-100123252D01*
X93896999Y-126122497D02*
X95846998Y-126122497D01*
X106148500Y-111887000D02*
X106148500Y-112599000D01*
X83166948Y-119507000D02*
X79771723Y-122902225D01*
X105791000Y-103948943D02*
X106019557Y-104177500D01*
X85561000Y-111125000D02*
X85561000Y-108621886D01*
X93889500Y-108839000D02*
X93889500Y-110363000D01*
X106148500Y-112599000D02*
X107214500Y-113665000D01*
X95846998Y-126122497D02*
X95984500Y-126259999D01*
X73662499Y-117541500D02*
X73662499Y-117731499D01*
X89408000Y-125476000D02*
X93250502Y-125476000D01*
X70992059Y-112266059D02*
X70992059Y-114597111D01*
X85561000Y-108621886D02*
X85581500Y-108601386D01*
X92111500Y-111379000D02*
X91331250Y-112159250D01*
X74676000Y-118745000D02*
X74676000Y-118999000D01*
X93250502Y-125476000D02*
X93896999Y-126122497D01*
X70347765Y-115241405D02*
X70992059Y-114597111D01*
X74612500Y-117541500D02*
X74612500Y-118681500D01*
X94118100Y-105257600D02*
X94118100Y-109220000D01*
X75562501Y-115141500D02*
X75562501Y-116391874D01*
X108839000Y-103605500D02*
X107315000Y-103605500D01*
X106601500Y-104319000D02*
X106531000Y-104319000D01*
X93889500Y-110363000D02*
X92873500Y-111379000D01*
D43*
%TO.N,Net-(D4-Pad1)*%
X92800500Y-113665000D02*
X93959530Y-113665000D01*
X93959530Y-113665000D02*
X96382765Y-116088235D01*
%TO.N,Net-(D5-Pad1)*%
X98922765Y-113548235D02*
X96753530Y-111379000D01*
X96753530Y-111379000D02*
X95848500Y-111379000D01*
%TO.N,Net-(D6-Pad1)*%
X81951500Y-105283000D02*
X81951500Y-102926970D01*
X81951500Y-102926970D02*
X79999765Y-100975235D01*
%TO.N,Net-(D7-Pad1)*%
X85198500Y-101745000D02*
X85198500Y-100889000D01*
X86450500Y-102997000D02*
X85198500Y-101745000D01*
%TO.N,Net-(D8-Pad1)*%
X95966500Y-101981000D02*
X93562500Y-101981000D01*
X101346000Y-99949000D02*
X97998500Y-99949000D01*
X97998500Y-99949000D02*
X95966500Y-101981000D01*
X102224765Y-100827765D02*
X101346000Y-99949000D01*
%TO.N,Net-(D9-Pad1)*%
X100954765Y-102097765D02*
X100275735Y-102097765D01*
X96102500Y-104267000D02*
X98106500Y-104267000D01*
X100275735Y-102097765D02*
X98106500Y-104267000D01*
%TO.N,Net-(D10-Pad1)*%
X100457000Y-105132500D02*
X99036500Y-106553000D01*
X96864500Y-106553000D02*
X99036500Y-106553000D01*
%TO.N,Net-(D11-Pad1)*%
X100076000Y-110132500D02*
X98782500Y-108839000D01*
X100457000Y-110132500D02*
X100076000Y-110132500D01*
X96864500Y-108839000D02*
X98782500Y-108839000D01*
%TO.N,SDA*%
X74930000Y-108618000D02*
X75381000Y-109069000D01*
X74930000Y-107326567D02*
X74930000Y-108618000D01*
X79498919Y-111252000D02*
X78624919Y-112126000D01*
X80264000Y-111252000D02*
X79498919Y-111252000D01*
X83185000Y-121308500D02*
X83185000Y-122369625D01*
X103023000Y-109321000D02*
X102362000Y-109982000D01*
X83185000Y-122369625D02*
X83819942Y-123004567D01*
X83783626Y-123004567D02*
X83819942Y-123004567D01*
X103996000Y-109321000D02*
X103023000Y-109321000D01*
X81567774Y-125220419D02*
X83783626Y-123004567D01*
%TO.N,Net-(C8-Pad1)*%
X78960917Y-98425000D02*
X79248000Y-98425000D01*
X78867000Y-90424000D02*
X78867000Y-90574500D01*
X78867000Y-90574500D02*
X80010000Y-91717500D01*
X74930000Y-102455917D02*
X78960917Y-98425000D01*
X80772000Y-96901000D02*
X81560500Y-96901000D01*
X79248000Y-98425000D02*
X80772000Y-96901000D01*
X81534000Y-96901000D02*
X80645000Y-96012000D01*
%TO.N,Net-(C8-Pad2)*%
X80391704Y-97917000D02*
X82269500Y-97917000D01*
X76200000Y-102108704D02*
X80391704Y-97917000D01*
X82269500Y-97917000D02*
X83285500Y-96901000D01*
X83285500Y-96901000D02*
X83285500Y-95173000D01*
%TO.N,LED RESET*%
X103996000Y-108021000D02*
X104983500Y-108021000D01*
X104983500Y-108021000D02*
X107973500Y-111011000D01*
X107973500Y-111887000D02*
X109347000Y-111887000D01*
X107973500Y-111011000D02*
X107973500Y-111887000D01*
X109347000Y-111887000D02*
X109601000Y-111633000D01*
%TO.N,Net-(R25-Pad1)*%
X100502235Y-114797765D02*
X103692257Y-111607743D01*
X108231833Y-108021000D02*
X108157333Y-108095500D01*
X97779765Y-114797765D02*
X100502235Y-114797765D01*
X103692257Y-111607743D02*
X103692257Y-111133368D01*
X109872000Y-108021000D02*
X108231833Y-108021000D01*
%TO.N,Net-(R26-Pad1)*%
X107117000Y-107371000D02*
X107061000Y-107315000D01*
X100213235Y-112257765D02*
X100213235Y-111643235D01*
X100213235Y-111643235D02*
X99441000Y-110871000D01*
X109872000Y-107371000D02*
X107117000Y-107371000D01*
%TO.N,Net-(R27-Pad1)*%
X107610000Y-106721000D02*
X106680000Y-105791000D01*
X109872000Y-106721000D02*
X107610000Y-106721000D01*
X85259000Y-99441000D02*
X86331000Y-98369000D01*
X81534000Y-99441000D02*
X85259000Y-99441000D01*
%TO.N,Net-(R28-Pad1)*%
X88646000Y-98933000D02*
X88011000Y-98933000D01*
X109872000Y-106071000D02*
X108357000Y-106071000D01*
X88011000Y-98933000D02*
X87023500Y-99920500D01*
X108357000Y-106071000D02*
X107569000Y-105283000D01*
X87023500Y-100889000D02*
X87023500Y-99920500D01*
%TO.N,Net-(R29-Pad1)*%
X103996000Y-105421000D02*
X103996000Y-102599000D01*
X103996000Y-102599000D02*
X103515235Y-102118235D01*
%TO.N,Net-(R30-Pad1)*%
X102245235Y-105307735D02*
X102245235Y-103388235D01*
X103996000Y-106071000D02*
X103008500Y-106071000D01*
X103008500Y-106071000D02*
X102245235Y-105307735D01*
%TO.N,Net-(R31-Pad1)*%
X103996000Y-106721000D02*
X100474500Y-106721000D01*
%TO.N,Net-(R32-Pad1)*%
X103996000Y-107371000D02*
X101393500Y-107371000D01*
X101393500Y-107371000D02*
X100457000Y-108307500D01*
%TO.N,DRDY_INT*%
X72390000Y-107326567D02*
X72390000Y-105410000D01*
%TO.N,SCL*%
X102521400Y-108671000D02*
X101637499Y-109554901D01*
X73660000Y-107326567D02*
X73660000Y-110363000D01*
X73660000Y-110363000D02*
X75315299Y-112018299D01*
X85059987Y-125320310D02*
X85059987Y-123220013D01*
X76442081Y-113348919D02*
X76019517Y-113348919D01*
X101637499Y-109554901D02*
X101637499Y-110627133D01*
X101637499Y-110627133D02*
X102487287Y-111476921D01*
X103996000Y-108671000D02*
X102521400Y-108671000D01*
X76019517Y-113348919D02*
X75315299Y-112644701D01*
X84836000Y-121332000D02*
X84836000Y-122996026D01*
X75315299Y-112018299D02*
X75315299Y-112644701D01*
X84836000Y-122996026D02*
X85059987Y-123220013D01*
X83363826Y-127016471D02*
X85059987Y-125320310D01*
%TO.N,Net-(D2-Pad2)*%
X93896999Y-124297497D02*
X95250000Y-124297497D01*
%TO.N,Net-(C10-Pad2)*%
X74803000Y-98933000D02*
X74803000Y-95731500D01*
X74147031Y-99588969D02*
X74803000Y-98933000D01*
X71120000Y-102694433D02*
X71120000Y-101219000D01*
X71120000Y-101219000D02*
X72750031Y-99588969D01*
X72750031Y-99588969D02*
X74147031Y-99588969D01*
%TO.N,+1V8*%
X81698499Y-108876214D02*
X80455236Y-110119477D01*
X76557500Y-109370500D02*
X76557500Y-110109000D01*
X77597000Y-109093000D02*
X76835000Y-109093000D01*
X77597000Y-117321500D02*
X75782501Y-117321500D01*
X77597000Y-117983000D02*
X79121000Y-119507000D01*
X77597000Y-117321500D02*
X77597000Y-117983000D01*
X81216667Y-112077333D02*
X81216667Y-110880908D01*
X76835000Y-109093000D02*
X76557500Y-109370500D01*
X81253500Y-117348000D02*
X81253500Y-115620000D01*
X78624919Y-112776000D02*
X76823081Y-112776000D01*
X79981000Y-108581500D02*
X79981000Y-109645241D01*
X79883000Y-119507000D02*
X81253500Y-118136500D01*
X78624919Y-112776000D02*
X80518000Y-112776000D01*
X79121000Y-119507000D02*
X79883000Y-119507000D01*
X79981000Y-109645241D02*
X80455236Y-110119477D01*
X75782501Y-117321500D02*
X75562501Y-117541500D01*
X80518000Y-112776000D02*
X81216667Y-112077333D01*
X81698499Y-108495501D02*
X81698499Y-108876214D01*
X81216667Y-110880908D02*
X80455236Y-110119477D01*
X81303500Y-115570000D02*
X81504500Y-115369000D01*
X75562501Y-117541500D02*
X75562501Y-121922499D01*
X81504500Y-115369000D02*
X82231000Y-115369000D01*
X81253500Y-118136500D02*
X81253500Y-117348000D01*
%TO.N,SCL_2v*%
X82531000Y-108463000D02*
X82531000Y-109235978D01*
X78624919Y-113426000D02*
X78624919Y-114716419D01*
X78624919Y-114716419D02*
X79478500Y-115570000D01*
X81841000Y-112278500D02*
X80693500Y-113426000D01*
X80693500Y-113426000D02*
X78624919Y-113426000D01*
X81841000Y-109925978D02*
X81841000Y-112278500D01*
X82531000Y-109235978D02*
X81841000Y-109925978D01*
%TO.N,SDA_2v*%
X81294520Y-107619480D02*
X79360704Y-107619480D01*
X78382500Y-110109000D02*
X78382500Y-110566581D01*
X79360704Y-107619480D02*
X79031480Y-107948704D01*
X79031480Y-109460020D02*
X78382500Y-110109000D01*
X81731000Y-107183000D02*
X81294520Y-107619480D01*
X78382500Y-110566581D02*
X76823081Y-112126000D01*
X79031480Y-107948704D02*
X79031480Y-109460020D01*
%TO.N,Net-(C9-Pad1)*%
X73724020Y-100038480D02*
X75677220Y-100038480D01*
X72924500Y-100838000D02*
X73724020Y-100038480D01*
X72390000Y-101372500D02*
X72924500Y-100838000D01*
X75677220Y-100038480D02*
X78763500Y-96952200D01*
X78763500Y-96952200D02*
X78763500Y-96597700D01*
X72390000Y-102694433D02*
X72390000Y-101372500D01*
%TO.N,Net-(C9-Pad2)*%
X79883000Y-95631000D02*
X80367500Y-95146500D01*
X80367500Y-95146500D02*
X81661000Y-95146500D01*
X73660000Y-102694433D02*
X73660000Y-101827500D01*
X79883000Y-96867213D02*
X79883000Y-95631000D01*
X75912213Y-100838000D02*
X79883000Y-96867213D01*
X74649500Y-100838000D02*
X75912213Y-100838000D01*
X73660000Y-101827500D02*
X74649500Y-100838000D01*
%TO.N,Net-(C12-Pad1)*%
X92181000Y-119269000D02*
X91435000Y-120015000D01*
X87805001Y-115993001D02*
X89381000Y-117569000D01*
X92181000Y-118319000D02*
X92181000Y-119269000D01*
X89116163Y-120015000D02*
X88634663Y-120496500D01*
X88634663Y-120496500D02*
X87045000Y-120496500D01*
X89381000Y-117569000D02*
X91431000Y-117569000D01*
X91431000Y-117569000D02*
X92181000Y-118319000D01*
X88634663Y-120788337D02*
X89181000Y-120242000D01*
X87791000Y-108839000D02*
X87805001Y-108853001D01*
X91435000Y-120015000D02*
X90736663Y-120015000D01*
X87805001Y-108853001D02*
X87805001Y-115993001D01*
X89181000Y-120242000D02*
X89181000Y-119969000D01*
X90736663Y-120015000D02*
X89116163Y-120015000D01*
%TO.N,Net-(C12-Pad2)*%
X86995000Y-118721500D02*
X88584663Y-118721500D01*
X86781000Y-118507500D02*
X86995000Y-118721500D01*
X88634663Y-118771500D02*
X90710163Y-118771500D01*
X86781000Y-116331500D02*
X86781000Y-118507500D01*
%TO.N,Net-(C21-Pad1)*%
X88580510Y-110899990D02*
X88580510Y-115868510D01*
X89831489Y-117119489D02*
X91617194Y-117119490D01*
X97778663Y-121258500D02*
X99252663Y-121258500D01*
X92630511Y-118688185D02*
X95227326Y-121285000D01*
X91617194Y-117119490D02*
X92630511Y-118132807D01*
X95676663Y-121285000D02*
X97752163Y-121285000D01*
X90743100Y-108737400D02*
X88580510Y-110899990D01*
X92630511Y-118132807D02*
X92630511Y-118688185D01*
X88580510Y-115868510D02*
X89831489Y-117119489D01*
%TO.N,Net-(C21-Pad2)*%
X95676663Y-120015000D02*
X97297163Y-120015000D01*
X100930163Y-120650000D02*
X99763663Y-119483500D01*
X99763663Y-119483500D02*
X99302663Y-119483500D01*
X97297163Y-120015000D02*
X97778663Y-119533500D01*
X99302663Y-119483500D02*
X97828663Y-119483500D01*
D44*
%TO.N,/ADC/AIN2+*%
X102858663Y-120246663D02*
X100468000Y-117856000D01*
X77369500Y-93397300D02*
X76379300Y-93397300D01*
X102858663Y-120546500D02*
X102858663Y-120246663D01*
X76938500Y-93828300D02*
X77369500Y-93397300D01*
X100468000Y-117856000D02*
X98425000Y-117856000D01*
X76379300Y-93397300D02*
X75565000Y-92583000D01*
X76938500Y-96597700D02*
X76938500Y-93828300D01*
%TO.N,/ADC/AIN2-*%
X86781000Y-113218948D02*
X87080500Y-112919448D01*
X79094500Y-93397300D02*
X81585200Y-93397300D01*
X86781000Y-114506500D02*
X86781000Y-113218948D01*
X79094500Y-92175500D02*
X77597000Y-90678000D01*
X78713500Y-94996000D02*
X78713500Y-93397300D01*
X79094500Y-93397300D02*
X79094500Y-92175500D01*
D43*
%TO.N,Net-(D3-Pad1)*%
X84418514Y-108463000D02*
X84925501Y-108969987D01*
X84457715Y-110175387D02*
X83508102Y-111125000D01*
X84925501Y-109750985D02*
X84501099Y-110175387D01*
X84925501Y-108969987D02*
X84925501Y-109750985D01*
X84131000Y-108463000D02*
X84418514Y-108463000D01*
X84501099Y-110175387D02*
X84457715Y-110175387D01*
%TO.N,Net-(R18-Pad1)*%
X72353000Y-112177000D02*
X72353000Y-114210000D01*
X71638235Y-114924765D02*
X71638235Y-117104235D01*
X72353000Y-114210000D02*
X71638235Y-114924765D01*
%TO.N,GND*%
X96647480Y-123435480D02*
X97672000Y-124460000D01*
X74586499Y-115115499D02*
X74586499Y-112560499D01*
X97709500Y-124497500D02*
X97672000Y-124460000D01*
X84131000Y-107183000D02*
X84967000Y-107183000D01*
X97709500Y-126259999D02*
X97709500Y-124497500D01*
X79348500Y-117348000D02*
X77597000Y-115596500D01*
X74931000Y-114173000D02*
X74612500Y-114491500D01*
X84967000Y-107183000D02*
X85031000Y-107119000D01*
X83331000Y-108463000D02*
X83331000Y-109058000D01*
X87249000Y-126042663D02*
X87249000Y-127000000D01*
X86614000Y-94006500D02*
X84963000Y-94006500D01*
X93957326Y-122555000D02*
X94837806Y-123435480D01*
X68580000Y-107326567D02*
X68580000Y-105029000D01*
X105757000Y-101880500D02*
X105731000Y-101906500D01*
X68580000Y-105029000D02*
X68580000Y-102694433D01*
X68580000Y-102694433D02*
X69850000Y-102694433D01*
X76454000Y-114173000D02*
X74931000Y-114173000D01*
X109872000Y-109321000D02*
X108631912Y-109321000D01*
X90736663Y-122555000D02*
X93957326Y-122555000D01*
X84927474Y-116367526D02*
X84963000Y-116332000D01*
X108939500Y-113665000D02*
X108939500Y-114834500D01*
X74612500Y-114491500D02*
X74612500Y-115141500D01*
X107188000Y-116586000D02*
X104899263Y-116586000D01*
X108631912Y-109321000D02*
X108380648Y-109069736D01*
X68580000Y-109627500D02*
X69088000Y-110135500D01*
X74586499Y-112560499D02*
X72353000Y-110327000D01*
X109872000Y-108671000D02*
X109872000Y-109321000D01*
X83331000Y-109058000D02*
X83723886Y-109450886D01*
X84927474Y-117725423D02*
X84927474Y-116367526D01*
X68580000Y-107326567D02*
X68580000Y-109627500D01*
X109872000Y-109321000D02*
X109872000Y-109971000D01*
X107315000Y-101880500D02*
X108839000Y-101880500D01*
X90736663Y-122555000D02*
X87249000Y-126042663D01*
X77597000Y-115316000D02*
X76454000Y-114173000D01*
X107315000Y-101880500D02*
X105757000Y-101880500D01*
X86614000Y-93599000D02*
X85852000Y-92837000D01*
X94837806Y-123435480D02*
X96647480Y-123435480D01*
X83723886Y-109450886D02*
X84201000Y-109450886D01*
X109872000Y-102913500D02*
X109872000Y-105421000D01*
X79502000Y-118618000D02*
X79502000Y-117374500D01*
X108839000Y-101880500D02*
X109872000Y-102913500D01*
X108939500Y-114834500D02*
X107188000Y-116586000D01*
%TO.N,AS7341_INT*%
X82711489Y-106513489D02*
X82986480Y-106238498D01*
X82531000Y-106693978D02*
X82986480Y-106238498D01*
X79981000Y-106756500D02*
X80224011Y-106513489D01*
X82531000Y-107183000D02*
X82531000Y-106693978D01*
X82986480Y-106238498D02*
X83439000Y-106238498D01*
X80224011Y-106513489D02*
X82711489Y-106513489D01*
%TO.N,Net-(U2-Pad10)*%
X69850000Y-109274000D02*
X70903000Y-110327000D01*
X69850000Y-107326567D02*
X69850000Y-109274000D01*
%TD*%
%TA.AperFunction,Conductor*%
%TO.N,GND*%
G36*
X86249578Y-121762323D02*
G01*
X86325550Y-121793947D01*
X86525096Y-121834182D01*
X86529760Y-121834418D01*
X86529766Y-121834419D01*
X86529785Y-121834420D01*
X86529803Y-121834420D01*
X86531373Y-121834500D01*
X86539394Y-121834500D01*
X87014121Y-121834499D01*
X87082241Y-121854501D01*
X87128734Y-121908156D01*
X87138329Y-121946228D01*
X87138919Y-121946135D01*
X87139822Y-121951838D01*
X87140200Y-121957604D01*
X87141621Y-121963200D01*
X87141622Y-121963205D01*
X87176174Y-122099252D01*
X87194511Y-122171452D01*
X87286883Y-122371821D01*
X87414222Y-122552002D01*
X87572264Y-122705961D01*
X87577060Y-122709166D01*
X87577063Y-122709168D01*
X87687211Y-122782766D01*
X87755717Y-122828540D01*
X87761020Y-122830818D01*
X87761023Y-122830820D01*
X87953129Y-122913355D01*
X87958436Y-122915635D01*
X87988625Y-122922466D01*
X88167995Y-122963054D01*
X88168001Y-122963055D01*
X88173632Y-122964329D01*
X88179403Y-122964556D01*
X88179405Y-122964556D01*
X88247211Y-122967220D01*
X88394098Y-122972991D01*
X88503275Y-122957161D01*
X88606738Y-122942160D01*
X88606743Y-122942159D01*
X88612452Y-122941331D01*
X88617916Y-122939476D01*
X88617921Y-122939475D01*
X88815907Y-122872268D01*
X88815912Y-122872266D01*
X88821379Y-122870410D01*
X88904387Y-122823923D01*
X88954968Y-122808338D01*
X88956446Y-122808209D01*
X88975176Y-122806570D01*
X88980505Y-122805022D01*
X88986030Y-122804480D01*
X89078813Y-122776467D01*
X89079968Y-122776125D01*
X89094545Y-122771890D01*
X89173010Y-122749094D01*
X89177940Y-122746538D01*
X89179551Y-122746052D01*
X89180113Y-122745998D01*
X89182503Y-122745161D01*
X89183196Y-122744952D01*
X89183417Y-122745682D01*
X89249494Y-122739365D01*
X89312602Y-122771890D01*
X89348108Y-122833371D01*
X89351281Y-122859901D01*
X89351523Y-122859890D01*
X89351942Y-122868774D01*
X89353864Y-122889113D01*
X89357132Y-122904005D01*
X89395504Y-123013271D01*
X89404222Y-123029738D01*
X89471999Y-123121501D01*
X89485162Y-123134664D01*
X89576925Y-123202441D01*
X89593392Y-123211159D01*
X89702658Y-123249531D01*
X89717550Y-123252799D01*
X89737889Y-123254721D01*
X89743803Y-123255000D01*
X89987354Y-123255000D01*
X90055475Y-123275002D01*
X90101968Y-123328658D01*
X90112072Y-123398932D01*
X90082578Y-123463512D01*
X90030965Y-123499212D01*
X89925001Y-123538304D01*
X89920040Y-123541256D01*
X89920039Y-123541256D01*
X89812410Y-123605289D01*
X89735385Y-123651114D01*
X89569501Y-123796590D01*
X89432907Y-123969860D01*
X89330175Y-124165120D01*
X89326798Y-124175996D01*
X89318279Y-124203432D01*
X89278976Y-124262557D01*
X89219285Y-124290247D01*
X89095957Y-124311438D01*
X88888957Y-124387804D01*
X88883996Y-124390756D01*
X88883995Y-124390756D01*
X88762832Y-124462841D01*
X88699341Y-124500614D01*
X88533457Y-124646090D01*
X88396863Y-124819360D01*
X88294131Y-125014620D01*
X88265537Y-125106709D01*
X88232505Y-125213090D01*
X88228703Y-125225333D01*
X88202770Y-125444440D01*
X88217200Y-125664604D01*
X88218621Y-125670200D01*
X88218622Y-125670205D01*
X88234324Y-125732029D01*
X88271511Y-125878452D01*
X88273928Y-125883694D01*
X88273928Y-125883695D01*
X88314659Y-125972047D01*
X88363883Y-126078821D01*
X88491222Y-126259002D01*
X88649264Y-126412961D01*
X88654060Y-126416166D01*
X88654063Y-126416168D01*
X88800226Y-126513830D01*
X88832717Y-126535540D01*
X88838020Y-126537818D01*
X88838023Y-126537820D01*
X88992518Y-126604196D01*
X89035436Y-126622635D01*
X89115088Y-126640658D01*
X89244995Y-126670054D01*
X89245001Y-126670055D01*
X89250632Y-126671329D01*
X89256403Y-126671556D01*
X89256405Y-126671556D01*
X89324211Y-126674220D01*
X89471098Y-126679991D01*
X89580275Y-126664161D01*
X89683738Y-126649160D01*
X89683743Y-126649159D01*
X89689452Y-126648331D01*
X89694916Y-126646476D01*
X89694921Y-126646475D01*
X89892907Y-126579268D01*
X89892912Y-126579266D01*
X89898379Y-126577410D01*
X89960598Y-126542565D01*
X90022163Y-126526500D01*
X92528486Y-126526500D01*
X92596607Y-126546502D01*
X92643100Y-126600158D01*
X92652000Y-126627595D01*
X92660834Y-126671409D01*
X92660836Y-126671414D01*
X92662052Y-126677447D01*
X92664418Y-126683131D01*
X92735746Y-126854485D01*
X92740280Y-126865378D01*
X92759842Y-126894599D01*
X92844729Y-127021401D01*
X92853521Y-127034535D01*
X92997461Y-127178475D01*
X93166618Y-127291716D01*
X93172303Y-127294083D01*
X93172306Y-127294084D01*
X93348865Y-127367578D01*
X93354549Y-127369944D01*
X93554095Y-127410179D01*
X93558759Y-127410415D01*
X93558765Y-127410416D01*
X93558784Y-127410417D01*
X93558802Y-127410417D01*
X93560372Y-127410497D01*
X93561969Y-127410497D01*
X93898374Y-127410496D01*
X94233625Y-127410496D01*
X94235225Y-127410415D01*
X94235234Y-127410415D01*
X94239903Y-127410179D01*
X94439449Y-127369944D01*
X94445133Y-127367578D01*
X94621692Y-127294084D01*
X94621695Y-127294083D01*
X94627380Y-127291716D01*
X94770986Y-127195580D01*
X94838720Y-127174306D01*
X94907203Y-127193029D01*
X94930174Y-127211189D01*
X95022462Y-127303477D01*
X95191619Y-127416718D01*
X95197304Y-127419085D01*
X95197307Y-127419086D01*
X95358669Y-127486254D01*
X95379550Y-127494946D01*
X95579096Y-127535181D01*
X95583760Y-127535417D01*
X95583766Y-127535418D01*
X95583785Y-127535419D01*
X95583803Y-127535419D01*
X95585373Y-127535499D01*
X95586970Y-127535499D01*
X95986131Y-127535498D01*
X96383626Y-127535498D01*
X96385226Y-127535417D01*
X96385235Y-127535417D01*
X96389904Y-127535181D01*
X96425117Y-127528081D01*
X96583412Y-127496164D01*
X96583417Y-127496162D01*
X96589450Y-127494946D01*
X96590051Y-127494696D01*
X96592622Y-127494667D01*
X96599859Y-127490613D01*
X96771693Y-127419086D01*
X96771696Y-127419085D01*
X96777381Y-127416718D01*
X96946538Y-127303477D01*
X97090478Y-127159537D01*
X97093906Y-127154417D01*
X97097372Y-127150197D01*
X97156067Y-127110254D01*
X97229887Y-127109177D01*
X97302800Y-127130360D01*
X97315390Y-127132659D01*
X97342660Y-127134806D01*
X97347586Y-127134999D01*
X97539056Y-127134999D01*
X97607177Y-127155001D01*
X97653670Y-127208657D01*
X97663774Y-127278931D01*
X97634280Y-127343511D01*
X97586244Y-127377829D01*
X97505362Y-127410497D01*
X96979157Y-127623030D01*
X96974132Y-127624936D01*
X96690443Y-127725674D01*
X96682930Y-127726092D01*
X96667145Y-127733947D01*
X96107110Y-127932815D01*
X96102009Y-127934505D01*
X95270620Y-128190373D01*
X95222647Y-128205137D01*
X95217482Y-128206607D01*
X94327340Y-128439508D01*
X94322156Y-128440747D01*
X93908508Y-128530322D01*
X93422912Y-128635477D01*
X93417637Y-128636502D01*
X92858119Y-128732896D01*
X92510907Y-128792714D01*
X92505625Y-128793509D01*
X91593057Y-128910916D01*
X91587738Y-128911486D01*
X90952698Y-128965788D01*
X90670988Y-128989877D01*
X90665626Y-128990220D01*
X89746417Y-129029450D01*
X89741044Y-129029565D01*
X88820956Y-129029565D01*
X88815583Y-129029450D01*
X87896374Y-128990220D01*
X87891012Y-128989877D01*
X87609302Y-128965788D01*
X86974262Y-128911486D01*
X86968943Y-128910916D01*
X86056375Y-128793509D01*
X86051093Y-128792714D01*
X85703881Y-128732896D01*
X85144363Y-128636502D01*
X85139088Y-128635477D01*
X84486575Y-128494176D01*
X84424231Y-128460209D01*
X84390147Y-128397929D01*
X84395145Y-128327109D01*
X84431412Y-128275219D01*
X84530754Y-128190373D01*
X84530759Y-128190368D01*
X84534515Y-128187160D01*
X84703238Y-127989611D01*
X84838980Y-127768099D01*
X84853127Y-127733947D01*
X84936505Y-127532654D01*
X84936506Y-127532652D01*
X84938399Y-127528081D01*
X84959606Y-127439747D01*
X84997892Y-127280278D01*
X84997893Y-127280272D01*
X84999047Y-127275465D01*
X85019430Y-127016471D01*
X84999047Y-126757477D01*
X85000273Y-126757380D01*
X85008640Y-126692652D01*
X85034891Y-126654261D01*
X85655896Y-126033256D01*
X85670925Y-126020419D01*
X85677341Y-126015757D01*
X85682679Y-126011879D01*
X85729356Y-125960039D01*
X85733897Y-125955255D01*
X85748712Y-125940440D01*
X85761907Y-125924146D01*
X85766191Y-125919131D01*
X85808434Y-125872215D01*
X85808437Y-125872211D01*
X85812857Y-125867302D01*
X85820120Y-125854722D01*
X85831313Y-125838437D01*
X85836295Y-125832284D01*
X85836297Y-125832282D01*
X85840452Y-125827150D01*
X85872105Y-125765027D01*
X85875253Y-125759229D01*
X85906830Y-125704536D01*
X85906831Y-125704534D01*
X85910131Y-125698818D01*
X85914617Y-125685010D01*
X85922182Y-125666747D01*
X85925779Y-125659687D01*
X85928775Y-125653807D01*
X85946830Y-125586425D01*
X85948702Y-125580107D01*
X85968209Y-125520071D01*
X85968209Y-125520070D01*
X85970249Y-125513792D01*
X85971766Y-125499359D01*
X85975369Y-125479917D01*
X85979128Y-125465888D01*
X85982658Y-125398547D01*
X85982778Y-125396248D01*
X85983295Y-125389674D01*
X85985143Y-125372088D01*
X85985143Y-125372086D01*
X85985487Y-125368814D01*
X85985487Y-125347846D01*
X85985660Y-125341252D01*
X85988965Y-125278199D01*
X85988965Y-125278194D01*
X85989310Y-125271607D01*
X85987038Y-125257261D01*
X85985487Y-125237552D01*
X85985487Y-124030330D01*
X86005489Y-123962209D01*
X86014613Y-123949760D01*
X86049895Y-123907339D01*
X86049897Y-123907336D01*
X86053589Y-123902897D01*
X86143389Y-123742547D01*
X86158573Y-123715435D01*
X86158574Y-123715433D01*
X86161397Y-123710392D01*
X86163253Y-123704925D01*
X86163255Y-123704920D01*
X86230462Y-123506934D01*
X86230463Y-123506929D01*
X86232318Y-123501465D01*
X86233146Y-123495756D01*
X86233147Y-123495751D01*
X86263445Y-123286785D01*
X86263978Y-123283111D01*
X86265630Y-123220013D01*
X86245441Y-123000302D01*
X86229044Y-122942160D01*
X86195698Y-122823924D01*
X86185552Y-122787949D01*
X86087967Y-122590066D01*
X86072525Y-122569386D01*
X85959407Y-122417904D01*
X85959407Y-122417903D01*
X85955954Y-122413280D01*
X85951716Y-122409363D01*
X85951713Y-122409359D01*
X85917819Y-122378028D01*
X85881373Y-122317100D01*
X85883653Y-122246140D01*
X85898643Y-122215410D01*
X85989290Y-122080003D01*
X85992719Y-122074881D01*
X86052737Y-121930698D01*
X86068581Y-121892634D01*
X86070947Y-121886950D01*
X86077643Y-121853742D01*
X86110716Y-121790919D01*
X86172503Y-121755949D01*
X86249578Y-121762323D01*
G37*
%TD.AperFunction*%
%TA.AperFunction,Conductor*%
G36*
X76693698Y-118423714D02*
G01*
X76697462Y-118427478D01*
X76702586Y-118430908D01*
X76702587Y-118430909D01*
X76710739Y-118436366D01*
X76820265Y-118509687D01*
X76821276Y-118510364D01*
X76844820Y-118530758D01*
X76890797Y-118581821D01*
X76895080Y-118586836D01*
X76908275Y-118603130D01*
X76923090Y-118617945D01*
X76927631Y-118622729D01*
X76974308Y-118674569D01*
X76986059Y-118683107D01*
X77001091Y-118695946D01*
X78116285Y-119811140D01*
X78150311Y-119873452D01*
X78145246Y-119944267D01*
X78102699Y-120001103D01*
X78036179Y-120025914D01*
X78027190Y-120026235D01*
X77922237Y-120026235D01*
X77902885Y-120029300D01*
X77801246Y-120062325D01*
X77783788Y-120071220D01*
X77719098Y-120118220D01*
X77711585Y-120124637D01*
X77246022Y-120590200D01*
X77238408Y-120604144D01*
X77238539Y-120605977D01*
X77242790Y-120612592D01*
X77962860Y-121332662D01*
X77976804Y-121340276D01*
X77978637Y-121340145D01*
X77985252Y-121335894D01*
X78705321Y-120615825D01*
X78712935Y-120601881D01*
X78712804Y-120600048D01*
X78701231Y-120582040D01*
X78704163Y-120580155D01*
X78680829Y-120537423D01*
X78685894Y-120466608D01*
X78728441Y-120409772D01*
X78794961Y-120384961D01*
X78836560Y-120388933D01*
X78854885Y-120393843D01*
X78861196Y-120395713D01*
X78927518Y-120417262D01*
X78941951Y-120418779D01*
X78961393Y-120422382D01*
X78975422Y-120426141D01*
X78982014Y-120426486D01*
X78982017Y-120426487D01*
X79045062Y-120429791D01*
X79051636Y-120430308D01*
X79069222Y-120432156D01*
X79069224Y-120432156D01*
X79072496Y-120432500D01*
X79093464Y-120432500D01*
X79100058Y-120432673D01*
X79163111Y-120435978D01*
X79163116Y-120435978D01*
X79169703Y-120436323D01*
X79184049Y-120434051D01*
X79203758Y-120432500D01*
X79800242Y-120432500D01*
X79819951Y-120434051D01*
X79834297Y-120436323D01*
X79840884Y-120435978D01*
X79840889Y-120435978D01*
X79903942Y-120432673D01*
X79910536Y-120432500D01*
X79931504Y-120432500D01*
X79934776Y-120432156D01*
X79934778Y-120432156D01*
X79952364Y-120430308D01*
X79958938Y-120429791D01*
X80021983Y-120426487D01*
X80021986Y-120426486D01*
X80028578Y-120426141D01*
X80042607Y-120422382D01*
X80062049Y-120418779D01*
X80076482Y-120417262D01*
X80142804Y-120395713D01*
X80149115Y-120393843D01*
X80216497Y-120375788D01*
X80222377Y-120372792D01*
X80229437Y-120369195D01*
X80247701Y-120361630D01*
X80261508Y-120357144D01*
X80267224Y-120353844D01*
X80267226Y-120353843D01*
X80321919Y-120322266D01*
X80327717Y-120319118D01*
X80383956Y-120290463D01*
X80389840Y-120287465D01*
X80394974Y-120283308D01*
X80401127Y-120278326D01*
X80417412Y-120267133D01*
X80429992Y-120259870D01*
X80434901Y-120255450D01*
X80434905Y-120255447D01*
X80481821Y-120213204D01*
X80486836Y-120208920D01*
X80500566Y-120197801D01*
X80503130Y-120195725D01*
X80517945Y-120180910D01*
X80522729Y-120176369D01*
X80569666Y-120134107D01*
X80569667Y-120134105D01*
X80574569Y-120129692D01*
X80583107Y-120117941D01*
X80595946Y-120102909D01*
X81700353Y-118998502D01*
X81762665Y-118964476D01*
X81833480Y-118969541D01*
X81890316Y-119012088D01*
X81915127Y-119078608D01*
X81912963Y-119112498D01*
X81909818Y-119128096D01*
X81909500Y-119134373D01*
X81909500Y-119226627D01*
X81889498Y-119294748D01*
X81872595Y-119315722D01*
X79729291Y-121459025D01*
X79666979Y-121493051D01*
X79596163Y-121487986D01*
X79538260Y-121443991D01*
X79485769Y-121371742D01*
X79479352Y-121364230D01*
X79013789Y-120898667D01*
X78999845Y-120891053D01*
X78998012Y-120891184D01*
X78991397Y-120895435D01*
X77246023Y-122640809D01*
X77238409Y-122654753D01*
X77238540Y-122656586D01*
X77242791Y-122663201D01*
X77711582Y-123131992D01*
X77719099Y-123138413D01*
X77783789Y-123185414D01*
X77801246Y-123194309D01*
X77902885Y-123227334D01*
X77922237Y-123230399D01*
X77995078Y-123230399D01*
X78063199Y-123250401D01*
X78109692Y-123304057D01*
X78120690Y-123366284D01*
X78116507Y-123419437D01*
X78116119Y-123424368D01*
X78136502Y-123683362D01*
X78137656Y-123688169D01*
X78137657Y-123688175D01*
X78163686Y-123796590D01*
X78197150Y-123935978D01*
X78199043Y-123940549D01*
X78199044Y-123940551D01*
X78258274Y-124083543D01*
X78296569Y-124175996D01*
X78432311Y-124397508D01*
X78601034Y-124595057D01*
X78798583Y-124763780D01*
X79020095Y-124899522D01*
X79024665Y-124901415D01*
X79024669Y-124901417D01*
X79255540Y-124997047D01*
X79260113Y-124998941D01*
X79328424Y-125015341D01*
X79507916Y-125058434D01*
X79507922Y-125058435D01*
X79512729Y-125059589D01*
X79771723Y-125079972D01*
X79776653Y-125079584D01*
X79776660Y-125079584D01*
X79777092Y-125079550D01*
X79777254Y-125079584D01*
X79781608Y-125079584D01*
X79781608Y-125080499D01*
X79846572Y-125094144D01*
X79897133Y-125143985D01*
X79911610Y-125210534D01*
X79912558Y-125210534D01*
X79912558Y-125214894D01*
X79912592Y-125215050D01*
X79912558Y-125215482D01*
X79912558Y-125215489D01*
X79912170Y-125220419D01*
X79932553Y-125479413D01*
X79933707Y-125484220D01*
X79933708Y-125484226D01*
X79970023Y-125635486D01*
X79993201Y-125732029D01*
X79995094Y-125736600D01*
X79995095Y-125736602D01*
X80085830Y-125955654D01*
X80092620Y-125972047D01*
X80228362Y-126193559D01*
X80397085Y-126391108D01*
X80594634Y-126559831D01*
X80816146Y-126695573D01*
X80820716Y-126697466D01*
X80820720Y-126697468D01*
X81051591Y-126793098D01*
X81056164Y-126794992D01*
X81087225Y-126802449D01*
X81303967Y-126854485D01*
X81303973Y-126854486D01*
X81308780Y-126855640D01*
X81567774Y-126876023D01*
X81572704Y-126875635D01*
X81572712Y-126875635D01*
X81573144Y-126875601D01*
X81573306Y-126875635D01*
X81577660Y-126875635D01*
X81577660Y-126876550D01*
X81642624Y-126890195D01*
X81693185Y-126940036D01*
X81707662Y-127006585D01*
X81708610Y-127006585D01*
X81708610Y-127010945D01*
X81708644Y-127011101D01*
X81708610Y-127011533D01*
X81708610Y-127011541D01*
X81708222Y-127016471D01*
X81728605Y-127275465D01*
X81729759Y-127280272D01*
X81729760Y-127280278D01*
X81779211Y-127486254D01*
X81775664Y-127557162D01*
X81734344Y-127614896D01*
X81668371Y-127641126D01*
X81614528Y-127634403D01*
X81601989Y-127629951D01*
X81587865Y-127624935D01*
X81582843Y-127623030D01*
X80729733Y-127278460D01*
X80724795Y-127276342D01*
X79887152Y-126895711D01*
X79882308Y-126893384D01*
X79849100Y-126876550D01*
X79495823Y-126697468D01*
X79061662Y-126477384D01*
X79056922Y-126474853D01*
X78254752Y-126024239D01*
X78250124Y-126021508D01*
X78248366Y-126020419D01*
X77718912Y-125692544D01*
X77467894Y-125537096D01*
X77463387Y-125534170D01*
X77187654Y-125346695D01*
X76702507Y-125016835D01*
X76698153Y-125013737D01*
X75960051Y-124464451D01*
X75955812Y-124461154D01*
X75322309Y-123946322D01*
X75282059Y-123887837D01*
X75279817Y-123816876D01*
X75316296Y-123755968D01*
X75379914Y-123724451D01*
X75391887Y-123722928D01*
X75554302Y-123710146D01*
X75686415Y-123678428D01*
X75786807Y-123654326D01*
X75786812Y-123654324D01*
X75791612Y-123653172D01*
X75796175Y-123651282D01*
X75796181Y-123651280D01*
X76012515Y-123561672D01*
X76012519Y-123561670D01*
X76017089Y-123559777D01*
X76225179Y-123432259D01*
X76410759Y-123273759D01*
X76569259Y-123088179D01*
X76696777Y-122880089D01*
X76698672Y-122875515D01*
X76788280Y-122659181D01*
X76788282Y-122659175D01*
X76790172Y-122654612D01*
X76791324Y-122649812D01*
X76791327Y-122649804D01*
X76836425Y-122461957D01*
X76871777Y-122400388D01*
X76934804Y-122367705D01*
X76949955Y-122365692D01*
X76953332Y-122365450D01*
X76959947Y-122361199D01*
X77680017Y-121641129D01*
X77687631Y-121627185D01*
X77687500Y-121625352D01*
X77683249Y-121618737D01*
X76963180Y-120898668D01*
X76949236Y-120891054D01*
X76947401Y-120891185D01*
X76940791Y-120895433D01*
X76703096Y-121133127D01*
X76640784Y-121167152D01*
X76569968Y-121162087D01*
X76513133Y-121119540D01*
X76488322Y-121053019D01*
X76488001Y-121044031D01*
X76488001Y-118521201D01*
X76508003Y-118453080D01*
X76561659Y-118406587D01*
X76631933Y-118396483D01*
X76693698Y-118423714D01*
G37*
%TD.AperFunction*%
%TA.AperFunction,Conductor*%
G36*
X104592838Y-112117311D02*
G01*
X104651124Y-112142353D01*
X104651126Y-112142354D01*
X104656436Y-112144635D01*
X104662073Y-112145911D01*
X104667562Y-112147694D01*
X104666736Y-112150236D01*
X104717824Y-112178456D01*
X104857038Y-112317670D01*
X104891457Y-112381860D01*
X104899835Y-112423412D01*
X104899837Y-112423417D01*
X104901053Y-112429450D01*
X104903419Y-112435134D01*
X104974164Y-112605087D01*
X104979281Y-112617381D01*
X105092522Y-112786538D01*
X105096880Y-112790896D01*
X105100149Y-112794876D01*
X105123406Y-112838430D01*
X105141046Y-112896856D01*
X105141371Y-112897955D01*
X105168406Y-112991010D01*
X105170962Y-112995940D01*
X105172565Y-113001251D01*
X105175461Y-113006698D01*
X105175462Y-113006700D01*
X105218063Y-113086823D01*
X105218675Y-113087989D01*
X105263214Y-113173912D01*
X105266674Y-113178247D01*
X105269282Y-113183151D01*
X105273172Y-113187921D01*
X105273173Y-113187922D01*
X105330564Y-113258290D01*
X105331392Y-113259317D01*
X105356984Y-113291375D01*
X105363869Y-113300000D01*
X105366361Y-113302492D01*
X105367333Y-113303579D01*
X105371048Y-113307928D01*
X105395594Y-113338025D01*
X105395597Y-113338028D01*
X105399489Y-113342800D01*
X105404236Y-113346727D01*
X105404238Y-113346729D01*
X105436483Y-113373404D01*
X105445263Y-113381394D01*
X105839596Y-113775727D01*
X105873622Y-113838039D01*
X105876501Y-113864822D01*
X105876501Y-114001626D01*
X105876818Y-114007904D01*
X105917053Y-114207450D01*
X105919419Y-114213134D01*
X105964996Y-114322625D01*
X105995281Y-114395381D01*
X105998710Y-114400503D01*
X106092095Y-114539999D01*
X106108522Y-114564538D01*
X106252462Y-114708478D01*
X106257586Y-114711908D01*
X106257587Y-114711909D01*
X106333974Y-114763046D01*
X106421619Y-114821719D01*
X106427304Y-114824086D01*
X106427307Y-114824087D01*
X106574274Y-114885263D01*
X106609550Y-114899947D01*
X106809096Y-114940182D01*
X106813760Y-114940418D01*
X106813766Y-114940419D01*
X106813785Y-114940420D01*
X106813803Y-114940420D01*
X106815373Y-114940500D01*
X106816970Y-114940500D01*
X107216131Y-114940499D01*
X107613626Y-114940499D01*
X107615226Y-114940418D01*
X107615235Y-114940418D01*
X107619904Y-114940182D01*
X107819450Y-114899947D01*
X107854726Y-114885263D01*
X108001693Y-114824087D01*
X108001696Y-114824086D01*
X108007381Y-114821719D01*
X108095026Y-114763046D01*
X108171413Y-114711909D01*
X108171414Y-114711908D01*
X108176538Y-114708478D01*
X108320478Y-114564538D01*
X108323906Y-114559418D01*
X108327372Y-114555198D01*
X108386067Y-114515255D01*
X108459887Y-114514178D01*
X108532800Y-114535361D01*
X108545390Y-114537660D01*
X108572660Y-114539807D01*
X108577586Y-114540000D01*
X108721385Y-114540000D01*
X108736624Y-114535525D01*
X108737829Y-114534135D01*
X108739500Y-114526452D01*
X108739500Y-113591000D01*
X108759502Y-113522879D01*
X108813158Y-113476386D01*
X108865500Y-113465000D01*
X109013500Y-113465000D01*
X109081621Y-113485002D01*
X109128114Y-113538658D01*
X109139500Y-113591000D01*
X109139500Y-114521884D01*
X109143975Y-114537123D01*
X109145365Y-114538328D01*
X109153048Y-114539999D01*
X109301410Y-114539999D01*
X109306345Y-114539805D01*
X109333602Y-114537661D01*
X109346203Y-114535360D01*
X109487081Y-114494431D01*
X109501521Y-114488182D01*
X109533935Y-114469013D01*
X109602751Y-114451554D01*
X109670082Y-114474071D01*
X109714551Y-114529416D01*
X109722039Y-114600017D01*
X109717114Y-114618762D01*
X109626586Y-114879727D01*
X109624717Y-114884765D01*
X109441183Y-115348907D01*
X109291640Y-115727088D01*
X109286390Y-115740364D01*
X109284312Y-115745309D01*
X108917226Y-116569065D01*
X108909796Y-116585738D01*
X108907506Y-116590594D01*
X108727547Y-116952126D01*
X108497524Y-117414234D01*
X108495028Y-117418993D01*
X108422526Y-117550295D01*
X108052463Y-118220488D01*
X108050271Y-118224457D01*
X108047578Y-118229097D01*
X107599577Y-118964476D01*
X107568904Y-119014825D01*
X107566015Y-119019348D01*
X107054239Y-119784007D01*
X107051177Y-119788376D01*
X106541497Y-120483808D01*
X106507295Y-120530475D01*
X106504038Y-120534727D01*
X106140967Y-120988215D01*
X105928986Y-121252987D01*
X105925541Y-121257107D01*
X105337410Y-121930698D01*
X105320408Y-121950170D01*
X105316792Y-121954137D01*
X104700350Y-122602170D01*
X104682642Y-122620785D01*
X104678867Y-122624587D01*
X104376024Y-122916910D01*
X104016885Y-123263573D01*
X104012940Y-123267222D01*
X103631411Y-123605289D01*
X103369655Y-123837228D01*
X103324309Y-123877408D01*
X103320216Y-123880882D01*
X102692813Y-124390756D01*
X102606188Y-124461154D01*
X102601949Y-124464451D01*
X101863847Y-125013737D01*
X101859493Y-125016835D01*
X101374346Y-125346695D01*
X101098613Y-125534170D01*
X101094106Y-125537096D01*
X100843088Y-125692544D01*
X100313635Y-126020419D01*
X100311876Y-126021508D01*
X100307248Y-126024239D01*
X99505078Y-126474853D01*
X99500338Y-126477384D01*
X99250176Y-126604196D01*
X98796355Y-126834245D01*
X98726553Y-126847205D01*
X98660824Y-126820368D01*
X98620038Y-126762256D01*
X98618390Y-126686707D01*
X98642361Y-126604196D01*
X98644660Y-126591609D01*
X98646807Y-126564339D01*
X98647000Y-126559413D01*
X98647000Y-126478114D01*
X98642525Y-126462875D01*
X98641135Y-126461670D01*
X98633452Y-126459999D01*
X97635500Y-126459999D01*
X97567379Y-126439997D01*
X97520886Y-126386341D01*
X97509500Y-126333999D01*
X97509500Y-126041884D01*
X97909500Y-126041884D01*
X97913975Y-126057123D01*
X97915365Y-126058328D01*
X97923048Y-126059999D01*
X98628884Y-126059999D01*
X98644123Y-126055524D01*
X98645328Y-126054134D01*
X98646999Y-126046451D01*
X98646999Y-125960590D01*
X98646805Y-125955654D01*
X98644661Y-125928397D01*
X98642360Y-125915796D01*
X98601431Y-125774918D01*
X98595184Y-125760482D01*
X98521262Y-125635486D01*
X98511622Y-125623059D01*
X98408940Y-125520377D01*
X98396513Y-125510737D01*
X98271517Y-125436815D01*
X98257081Y-125430568D01*
X98116197Y-125389637D01*
X98103610Y-125387339D01*
X98076340Y-125385192D01*
X98071413Y-125384999D01*
X97927615Y-125384999D01*
X97912376Y-125389474D01*
X97911171Y-125390864D01*
X97909500Y-125398547D01*
X97909500Y-126041884D01*
X97509500Y-126041884D01*
X97509500Y-125403115D01*
X97505025Y-125387876D01*
X97503635Y-125386671D01*
X97495952Y-125385000D01*
X97347591Y-125385000D01*
X97342655Y-125385194D01*
X97315398Y-125387338D01*
X97302794Y-125389640D01*
X97229887Y-125410821D01*
X97158891Y-125410618D01*
X97097372Y-125369801D01*
X97093906Y-125365581D01*
X97090478Y-125360461D01*
X96946538Y-125216521D01*
X96925061Y-125202143D01*
X96782503Y-125106709D01*
X96782504Y-125106709D01*
X96777381Y-125103280D01*
X96771696Y-125100913D01*
X96771693Y-125100912D01*
X96595134Y-125027418D01*
X96589450Y-125025052D01*
X96583411Y-125023834D01*
X96583410Y-125023834D01*
X96465680Y-125000096D01*
X96425749Y-124992045D01*
X96362926Y-124958974D01*
X96327956Y-124897187D01*
X96331941Y-124826302D01*
X96340719Y-124806966D01*
X96348587Y-124792916D01*
X96351410Y-124787876D01*
X96353266Y-124782409D01*
X96353268Y-124782404D01*
X96420475Y-124584418D01*
X96420476Y-124584413D01*
X96422331Y-124578949D01*
X96423159Y-124573240D01*
X96423160Y-124573235D01*
X96450046Y-124387804D01*
X96453991Y-124360595D01*
X96455643Y-124297497D01*
X96435454Y-124077786D01*
X96375565Y-123865433D01*
X96373011Y-123860255D01*
X96373008Y-123860246D01*
X96361656Y-123837228D01*
X96349465Y-123767286D01*
X96377024Y-123701857D01*
X96435581Y-123661713D01*
X96474661Y-123655499D01*
X96692535Y-123655499D01*
X96726681Y-123653172D01*
X96729132Y-123653005D01*
X96729133Y-123653005D01*
X96734678Y-123652627D01*
X96912292Y-123608343D01*
X97076254Y-123526951D01*
X97218913Y-123412250D01*
X97333614Y-123269591D01*
X97415006Y-123105629D01*
X97459290Y-122928015D01*
X97462163Y-122885873D01*
X97462163Y-122722500D01*
X97482165Y-122654379D01*
X97535821Y-122607886D01*
X97588163Y-122596500D01*
X98107180Y-122596499D01*
X98115289Y-122596499D01*
X98116889Y-122596418D01*
X98116898Y-122596418D01*
X98121567Y-122596182D01*
X98126205Y-122595247D01*
X98174847Y-122585439D01*
X98321113Y-122555947D01*
X98492242Y-122484713D01*
X98562818Y-122477001D01*
X98589084Y-122484713D01*
X98760213Y-122555947D01*
X98906479Y-122585439D01*
X98955122Y-122595247D01*
X98959759Y-122596182D01*
X98964423Y-122596418D01*
X98964429Y-122596419D01*
X98964448Y-122596420D01*
X98964466Y-122596420D01*
X98966036Y-122596500D01*
X98967633Y-122596500D01*
X99304038Y-122596499D01*
X99639289Y-122596499D01*
X99640889Y-122596418D01*
X99640898Y-122596418D01*
X99645567Y-122596182D01*
X99650205Y-122595247D01*
X99698847Y-122585439D01*
X99845113Y-122555947D01*
X99909306Y-122529226D01*
X100027356Y-122480087D01*
X100027359Y-122480086D01*
X100033044Y-122477719D01*
X100171020Y-122385352D01*
X100197076Y-122367909D01*
X100197077Y-122367908D01*
X100202201Y-122364478D01*
X100346141Y-122220538D01*
X100377847Y-122173177D01*
X100455953Y-122056503D01*
X100459382Y-122051381D01*
X100479488Y-122003079D01*
X100524133Y-121947876D01*
X100595813Y-121925500D01*
X101211687Y-121925499D01*
X101279289Y-121925499D01*
X101280889Y-121925418D01*
X101280898Y-121925418D01*
X101285567Y-121925182D01*
X101485113Y-121884947D01*
X101558255Y-121854501D01*
X101667356Y-121809087D01*
X101667359Y-121809086D01*
X101673044Y-121806719D01*
X101772570Y-121740092D01*
X101840304Y-121718818D01*
X101912756Y-121740092D01*
X102012282Y-121806719D01*
X102017967Y-121809086D01*
X102017970Y-121809087D01*
X102127071Y-121854501D01*
X102200213Y-121884947D01*
X102399759Y-121925182D01*
X102404423Y-121925418D01*
X102404429Y-121925419D01*
X102404448Y-121925420D01*
X102404466Y-121925420D01*
X102406036Y-121925500D01*
X102407633Y-121925500D01*
X102756589Y-121925499D01*
X103104289Y-121925499D01*
X103105889Y-121925418D01*
X103105898Y-121925418D01*
X103110567Y-121925182D01*
X103310113Y-121884947D01*
X103383255Y-121854501D01*
X103492356Y-121809087D01*
X103492359Y-121809086D01*
X103498044Y-121806719D01*
X103667201Y-121693478D01*
X103811141Y-121549538D01*
X103924382Y-121380381D01*
X103944246Y-121332662D01*
X104000244Y-121198134D01*
X104002610Y-121192450D01*
X104042845Y-120992904D01*
X104043163Y-120986627D01*
X104043162Y-120313374D01*
X104042845Y-120307096D01*
X104002610Y-120107550D01*
X103987487Y-120071220D01*
X103926750Y-119925307D01*
X103926749Y-119925304D01*
X103924382Y-119919619D01*
X103865709Y-119831974D01*
X103814572Y-119755587D01*
X103814571Y-119755586D01*
X103811141Y-119750462D01*
X103667201Y-119606522D01*
X103498044Y-119493281D01*
X103492359Y-119490914D01*
X103492356Y-119490913D01*
X103316765Y-119417822D01*
X103276091Y-119390592D01*
X101161878Y-117276379D01*
X101149041Y-117261351D01*
X101140888Y-117250129D01*
X101125058Y-117235875D01*
X101090513Y-117204771D01*
X101085729Y-117200230D01*
X101071380Y-117185881D01*
X101063922Y-117179842D01*
X101055596Y-117173099D01*
X101050580Y-117168815D01*
X101005126Y-117127888D01*
X101000216Y-117123467D01*
X100988209Y-117116534D01*
X100971920Y-117105339D01*
X100966279Y-117100771D01*
X100966278Y-117100771D01*
X100961149Y-117096617D01*
X100955269Y-117093621D01*
X100955266Y-117093619D01*
X100900766Y-117065849D01*
X100894971Y-117062703D01*
X100842000Y-117032121D01*
X100841999Y-117032121D01*
X100836284Y-117028821D01*
X100823097Y-117024536D01*
X100804840Y-117016973D01*
X100798371Y-117013677D01*
X100798367Y-117013676D01*
X100792488Y-117010680D01*
X100786115Y-117008972D01*
X100786109Y-117008970D01*
X100727025Y-116993138D01*
X100720701Y-116991265D01*
X100662535Y-116972366D01*
X100662533Y-116972366D01*
X100656256Y-116970326D01*
X100649695Y-116969636D01*
X100649693Y-116969636D01*
X100642479Y-116968878D01*
X100623037Y-116965275D01*
X100609646Y-116961687D01*
X100603057Y-116961342D01*
X100603052Y-116961341D01*
X100571627Y-116959695D01*
X100541966Y-116958141D01*
X100535400Y-116957624D01*
X100518470Y-116955844D01*
X100518459Y-116955843D01*
X100515192Y-116955500D01*
X100494874Y-116955500D01*
X100488280Y-116955327D01*
X100427204Y-116952126D01*
X100427200Y-116952126D01*
X100420612Y-116951781D01*
X100414096Y-116952813D01*
X100406924Y-116953949D01*
X100387213Y-116955500D01*
X99268845Y-116955500D01*
X99200724Y-116935498D01*
X99183322Y-116922030D01*
X99158949Y-116899499D01*
X99154066Y-116896418D01*
X99154062Y-116896415D01*
X98977233Y-116784845D01*
X98977234Y-116784845D01*
X98972350Y-116781764D01*
X98767421Y-116700006D01*
X98761761Y-116698880D01*
X98761757Y-116698879D01*
X98556691Y-116658089D01*
X98556688Y-116658089D01*
X98551024Y-116656962D01*
X98545249Y-116656886D01*
X98545245Y-116656886D01*
X98434504Y-116655437D01*
X98330406Y-116654074D01*
X98324709Y-116655053D01*
X98324708Y-116655053D01*
X98118654Y-116690459D01*
X98118653Y-116690459D01*
X98112957Y-116691438D01*
X97905957Y-116767804D01*
X97900996Y-116770756D01*
X97900995Y-116770756D01*
X97737378Y-116868098D01*
X97668608Y-116885738D01*
X97601218Y-116863397D01*
X97556604Y-116808170D01*
X97548930Y-116737589D01*
X97568007Y-116690085D01*
X97648413Y-116569065D01*
X97725985Y-116380863D01*
X97727930Y-116371043D01*
X97748066Y-116269346D01*
X97749249Y-116263374D01*
X97782100Y-116200436D01*
X97848374Y-116164248D01*
X97909034Y-116152238D01*
X97959814Y-116142183D01*
X97959817Y-116142182D01*
X97965863Y-116140985D01*
X97984562Y-116133278D01*
X98065340Y-116099983D01*
X98154065Y-116063413D01*
X98249884Y-115999751D01*
X98319731Y-115953345D01*
X98319738Y-115953339D01*
X98323616Y-115950763D01*
X98327082Y-115947632D01*
X98327094Y-115947622D01*
X98327108Y-115947608D01*
X98328280Y-115946550D01*
X98514659Y-115760170D01*
X98576971Y-115726145D01*
X98603755Y-115723265D01*
X100419477Y-115723265D01*
X100439186Y-115724816D01*
X100453532Y-115727088D01*
X100460119Y-115726743D01*
X100460124Y-115726743D01*
X100523177Y-115723438D01*
X100529771Y-115723265D01*
X100550739Y-115723265D01*
X100554011Y-115722921D01*
X100554013Y-115722921D01*
X100571599Y-115721073D01*
X100578173Y-115720556D01*
X100641218Y-115717252D01*
X100641221Y-115717251D01*
X100647813Y-115716906D01*
X100661842Y-115713147D01*
X100681284Y-115709544D01*
X100695717Y-115708027D01*
X100762039Y-115686478D01*
X100768350Y-115684608D01*
X100835732Y-115666553D01*
X100841612Y-115663557D01*
X100848672Y-115659960D01*
X100866936Y-115652395D01*
X100867330Y-115652267D01*
X100880743Y-115647909D01*
X100886459Y-115644609D01*
X100886461Y-115644608D01*
X100941154Y-115613031D01*
X100946952Y-115609883D01*
X101003191Y-115581228D01*
X101009075Y-115578230D01*
X101014209Y-115574073D01*
X101020362Y-115569091D01*
X101036647Y-115557898D01*
X101049227Y-115550635D01*
X101054136Y-115546215D01*
X101054140Y-115546212D01*
X101101056Y-115503969D01*
X101106071Y-115499685D01*
X101114780Y-115492632D01*
X101122365Y-115486490D01*
X101137180Y-115471675D01*
X101141964Y-115467134D01*
X101188901Y-115424872D01*
X101188902Y-115424870D01*
X101193804Y-115420457D01*
X101202342Y-115408706D01*
X101215181Y-115393674D01*
X104288165Y-112320690D01*
X104303193Y-112307853D01*
X104314949Y-112299312D01*
X104361626Y-112247472D01*
X104366167Y-112242688D01*
X104380982Y-112227873D01*
X104394177Y-112211579D01*
X104398461Y-112206564D01*
X104440706Y-112159646D01*
X104440710Y-112159641D01*
X104441518Y-112158744D01*
X104441521Y-112158741D01*
X104445127Y-112154736D01*
X104445859Y-112155395D01*
X104497385Y-112115663D01*
X104568121Y-112109588D01*
X104592838Y-112117311D01*
G37*
%TD.AperFunction*%
%TA.AperFunction,Conductor*%
G36*
X93080607Y-122355502D02*
G01*
X93101581Y-122372405D01*
X93541803Y-122812627D01*
X93575829Y-122874939D01*
X93570764Y-122945754D01*
X93528217Y-123002590D01*
X93477613Y-123025236D01*
X93433961Y-123034038D01*
X93354549Y-123050050D01*
X93348865Y-123052416D01*
X93172306Y-123125910D01*
X93172303Y-123125911D01*
X93166618Y-123128278D01*
X92997461Y-123241519D01*
X92853521Y-123385459D01*
X92801304Y-123463460D01*
X92746789Y-123508939D01*
X92676338Y-123517726D01*
X92612321Y-123487029D01*
X92575332Y-123427568D01*
X92565565Y-123392936D01*
X92489202Y-123238088D01*
X92470535Y-123200234D01*
X92467980Y-123195053D01*
X92442224Y-123160561D01*
X92339420Y-123022891D01*
X92339420Y-123022890D01*
X92335967Y-123018267D01*
X92173949Y-122868499D01*
X92170610Y-122866392D01*
X92129092Y-122809532D01*
X92124325Y-122782181D01*
X92117188Y-122757876D01*
X92115798Y-122756671D01*
X92108115Y-122755000D01*
X92022174Y-122755000D01*
X91975484Y-122746030D01*
X91972780Y-122744951D01*
X91782421Y-122669006D01*
X91776761Y-122667880D01*
X91776757Y-122667879D01*
X91611854Y-122635078D01*
X91548944Y-122602170D01*
X91513812Y-122540475D01*
X91517612Y-122469581D01*
X91559138Y-122411995D01*
X91625205Y-122386000D01*
X91636434Y-122385499D01*
X91752535Y-122385499D01*
X91785664Y-122383241D01*
X91789132Y-122383005D01*
X91789133Y-122383005D01*
X91794678Y-122382627D01*
X91890472Y-122358743D01*
X91920954Y-122355000D01*
X92103548Y-122355000D01*
X92152576Y-122340604D01*
X92188074Y-122335500D01*
X93012486Y-122335500D01*
X93080607Y-122355502D01*
G37*
%TD.AperFunction*%
%TA.AperFunction,Conductor*%
G36*
X91318829Y-122405501D02*
G01*
X91365322Y-122459157D01*
X91375426Y-122529430D01*
X91345933Y-122594011D01*
X91286207Y-122632395D01*
X91272046Y-122635679D01*
X91133654Y-122659459D01*
X91133653Y-122659459D01*
X91127957Y-122660438D01*
X90920957Y-122736804D01*
X90915995Y-122739756D01*
X90910779Y-122742244D01*
X90909771Y-122740131D01*
X90855726Y-122755000D01*
X90662663Y-122755000D01*
X90594542Y-122734998D01*
X90548049Y-122681342D01*
X90536663Y-122629000D01*
X90536663Y-122511500D01*
X90556665Y-122443379D01*
X90610321Y-122396886D01*
X90662663Y-122385500D01*
X91046305Y-122385499D01*
X91250709Y-122385499D01*
X91318829Y-122405501D01*
G37*
%TD.AperFunction*%
%TA.AperFunction,Conductor*%
G36*
X79670621Y-117168002D02*
G01*
X79717114Y-117221658D01*
X79728500Y-117274000D01*
X79728500Y-118204883D01*
X79740977Y-118247375D01*
X79740977Y-118318372D01*
X79709176Y-118371969D01*
X79591095Y-118490050D01*
X79528783Y-118524076D01*
X79457968Y-118519011D01*
X79412905Y-118490050D01*
X79323042Y-118400187D01*
X79289016Y-118337875D01*
X79294081Y-118267060D01*
X79316912Y-118228580D01*
X79326829Y-118217135D01*
X79328500Y-118209452D01*
X79328500Y-117274000D01*
X79348502Y-117205879D01*
X79402158Y-117159386D01*
X79454500Y-117148000D01*
X79602500Y-117148000D01*
X79670621Y-117168002D01*
G37*
%TD.AperFunction*%
%TA.AperFunction,Conductor*%
G36*
X84788863Y-112932622D02*
G01*
X84793423Y-112934827D01*
X84800278Y-112936410D01*
X84800282Y-112936411D01*
X84963212Y-112974026D01*
X84963215Y-112974026D01*
X84968411Y-112975226D01*
X84973163Y-112975500D01*
X84986562Y-112975500D01*
X85759247Y-112975499D01*
X85827368Y-112995501D01*
X85873861Y-113049157D01*
X85885074Y-113108091D01*
X85883140Y-113144985D01*
X85882624Y-113151548D01*
X85880844Y-113168478D01*
X85880843Y-113168489D01*
X85880500Y-113171756D01*
X85880500Y-113192074D01*
X85880327Y-113198668D01*
X85877149Y-113259317D01*
X85876781Y-113266336D01*
X85877813Y-113272852D01*
X85878949Y-113280024D01*
X85880500Y-113299735D01*
X85880500Y-113399294D01*
X85860498Y-113467415D01*
X85843595Y-113488389D01*
X85737522Y-113594462D01*
X85734092Y-113599586D01*
X85734091Y-113599587D01*
X85682954Y-113675974D01*
X85624281Y-113763619D01*
X85621914Y-113769304D01*
X85621913Y-113769307D01*
X85550444Y-113941001D01*
X85546053Y-113951550D01*
X85521189Y-114074864D01*
X85507268Y-114143907D01*
X85505818Y-114151096D01*
X85505500Y-114157373D01*
X85505501Y-114855626D01*
X85505818Y-114861904D01*
X85506743Y-114866491D01*
X85506743Y-114866492D01*
X85510528Y-114885263D01*
X85546053Y-115061450D01*
X85548419Y-115067134D01*
X85618756Y-115236107D01*
X85624281Y-115249381D01*
X85652341Y-115291296D01*
X85690908Y-115348907D01*
X85712182Y-115416641D01*
X85690908Y-115489093D01*
X85624281Y-115588619D01*
X85621914Y-115594304D01*
X85621913Y-115594307D01*
X85566786Y-115726743D01*
X85546053Y-115776550D01*
X85505818Y-115976096D01*
X85505500Y-115982373D01*
X85505501Y-116680626D01*
X85505818Y-116686904D01*
X85511393Y-116714552D01*
X85505249Y-116785282D01*
X85461840Y-116841463D01*
X85394950Y-116865256D01*
X85352725Y-116860452D01*
X85334171Y-116855062D01*
X85321584Y-116852763D01*
X85294314Y-116850616D01*
X85289387Y-116850423D01*
X85145589Y-116850423D01*
X85130350Y-116854898D01*
X85129145Y-116856288D01*
X85127474Y-116863971D01*
X85127474Y-117799423D01*
X85107472Y-117867544D01*
X85053816Y-117914037D01*
X85001474Y-117925423D01*
X84853474Y-117925423D01*
X84785353Y-117905421D01*
X84738860Y-117851765D01*
X84727474Y-117799423D01*
X84727474Y-116868539D01*
X84722999Y-116853300D01*
X84721609Y-116852095D01*
X84713926Y-116850424D01*
X84565565Y-116850424D01*
X84560629Y-116850618D01*
X84533372Y-116852762D01*
X84520769Y-116855064D01*
X84520730Y-116855075D01*
X84520707Y-116855075D01*
X84514437Y-116856220D01*
X84514225Y-116855057D01*
X84449734Y-116854876D01*
X84390116Y-116816325D01*
X84360805Y-116751661D01*
X84360876Y-116716000D01*
X84363359Y-116698879D01*
X84388991Y-116522098D01*
X84390643Y-116459000D01*
X84370454Y-116239289D01*
X84368342Y-116231798D01*
X84312134Y-116032500D01*
X84310565Y-116026936D01*
X84212980Y-115829053D01*
X84192375Y-115801459D01*
X84084420Y-115656891D01*
X84084420Y-115656890D01*
X84080967Y-115652267D01*
X83969760Y-115549468D01*
X83923189Y-115506418D01*
X83923186Y-115506416D01*
X83918949Y-115502499D01*
X83732350Y-115384764D01*
X83527421Y-115303006D01*
X83521654Y-115301859D01*
X83521058Y-115301740D01*
X83520761Y-115301585D01*
X83516215Y-115300238D01*
X83516479Y-115299345D01*
X83458148Y-115268834D01*
X83423016Y-115207139D01*
X83420167Y-115189692D01*
X83416983Y-115155046D01*
X83416454Y-115149289D01*
X83356565Y-114936936D01*
X83258980Y-114739053D01*
X83236149Y-114708478D01*
X83130420Y-114566891D01*
X83130420Y-114566890D01*
X83126967Y-114562267D01*
X83026085Y-114469013D01*
X82969189Y-114416418D01*
X82969186Y-114416416D01*
X82964949Y-114412499D01*
X82778350Y-114294764D01*
X82573421Y-114213006D01*
X82567761Y-114211880D01*
X82567757Y-114211879D01*
X82362691Y-114171089D01*
X82362688Y-114171089D01*
X82357024Y-114169962D01*
X82351249Y-114169886D01*
X82351245Y-114169886D01*
X82240504Y-114168437D01*
X82136406Y-114167074D01*
X82130709Y-114168053D01*
X82130708Y-114168053D01*
X81924654Y-114203459D01*
X81924653Y-114203459D01*
X81918957Y-114204438D01*
X81711957Y-114280804D01*
X81709095Y-114282507D01*
X81652763Y-114294507D01*
X81652627Y-114294500D01*
X81440313Y-114294500D01*
X81372192Y-114274498D01*
X81325699Y-114220842D01*
X81315595Y-114150568D01*
X81345089Y-114085988D01*
X81356003Y-114074864D01*
X81380162Y-114053112D01*
X81380170Y-114053103D01*
X81385069Y-114048692D01*
X81393610Y-114036936D01*
X81406447Y-114021908D01*
X82415950Y-113012405D01*
X82478262Y-112978379D01*
X82505045Y-112975500D01*
X84455424Y-112975499D01*
X84528836Y-112975499D01*
X84533589Y-112975226D01*
X84614086Y-112956642D01*
X84701718Y-112936411D01*
X84701722Y-112936410D01*
X84708577Y-112934827D01*
X84710907Y-112933701D01*
X84780045Y-112930033D01*
X84788863Y-112932622D01*
G37*
%TD.AperFunction*%
%TA.AperFunction,Conductor*%
G36*
X96973929Y-112913064D02*
G01*
X96996899Y-112931224D01*
X97345878Y-113280203D01*
X97379904Y-113342515D01*
X97374839Y-113413330D01*
X97332292Y-113470166D01*
X97304799Y-113485790D01*
X97198100Y-113529769D01*
X97198094Y-113529772D01*
X97192405Y-113532117D01*
X97187279Y-113535523D01*
X97026739Y-113642185D01*
X97026732Y-113642191D01*
X97022854Y-113644767D01*
X97019389Y-113647897D01*
X97019376Y-113647908D01*
X97019362Y-113647922D01*
X97018190Y-113648980D01*
X96524452Y-114142720D01*
X96520237Y-114147384D01*
X96407587Y-114316935D01*
X96342881Y-114473923D01*
X96337363Y-114487310D01*
X96292911Y-114542669D01*
X96225587Y-114565207D01*
X96156765Y-114547769D01*
X96131775Y-114528390D01*
X94735494Y-113132109D01*
X94701468Y-113069797D01*
X94706533Y-112998982D01*
X94749080Y-112942146D01*
X94815600Y-112917335D01*
X94883528Y-112931841D01*
X94887184Y-112934289D01*
X95077378Y-113013459D01*
X95279328Y-113054179D01*
X95283994Y-113054415D01*
X95283999Y-113054416D01*
X95284076Y-113054420D01*
X95284094Y-113054420D01*
X95285664Y-113054500D01*
X96411336Y-113054500D01*
X96412906Y-113054420D01*
X96412924Y-113054420D01*
X96413001Y-113054416D01*
X96413006Y-113054415D01*
X96417672Y-113054179D01*
X96619622Y-113013459D01*
X96625306Y-113011093D01*
X96804128Y-112936657D01*
X96804134Y-112936654D01*
X96809816Y-112934289D01*
X96824858Y-112924220D01*
X96837711Y-112915615D01*
X96905445Y-112894341D01*
X96973929Y-112913064D01*
G37*
%TD.AperFunction*%
%TA.AperFunction,Conductor*%
G36*
X98249556Y-110258304D02*
G01*
X98306392Y-110300851D01*
X98331203Y-110367371D01*
X98325856Y-110413724D01*
X98263418Y-110614806D01*
X98263415Y-110614818D01*
X98261703Y-110620333D01*
X98235770Y-110839440D01*
X98250200Y-111059604D01*
X98251621Y-111065200D01*
X98251622Y-111065205D01*
X98303090Y-111267857D01*
X98304511Y-111273452D01*
X98306928Y-111278695D01*
X98308857Y-111284142D01*
X98307500Y-111284622D01*
X98316838Y-111347972D01*
X98287575Y-111412657D01*
X98227985Y-111451252D01*
X98156989Y-111451504D01*
X98102963Y-111419578D01*
X97509034Y-110825649D01*
X97475008Y-110763337D01*
X97480073Y-110692522D01*
X97522620Y-110635686D01*
X97573224Y-110613041D01*
X97602586Y-110607120D01*
X97629583Y-110601677D01*
X97629586Y-110601676D01*
X97635622Y-110600459D01*
X97646337Y-110595999D01*
X97741270Y-110556482D01*
X97825816Y-110521289D01*
X97997010Y-110406684D01*
X98116429Y-110287265D01*
X98178741Y-110253239D01*
X98249556Y-110258304D01*
G37*
%TD.AperFunction*%
%TA.AperFunction,Conductor*%
G36*
X76523161Y-89878831D02*
G01*
X76572480Y-89929901D01*
X76586359Y-89999528D01*
X76572364Y-90047017D01*
X76565902Y-90059299D01*
X76483131Y-90216620D01*
X76417703Y-90427333D01*
X76391770Y-90646440D01*
X76406200Y-90866604D01*
X76407621Y-90872200D01*
X76407622Y-90872205D01*
X76441928Y-91007281D01*
X76460511Y-91080452D01*
X76552883Y-91280821D01*
X76680222Y-91461002D01*
X76838264Y-91614961D01*
X76843060Y-91618166D01*
X76843063Y-91618168D01*
X76943859Y-91685517D01*
X77021717Y-91737540D01*
X77027020Y-91739818D01*
X77027023Y-91739820D01*
X77219129Y-91822355D01*
X77224436Y-91824635D01*
X77304088Y-91842658D01*
X77433995Y-91872054D01*
X77434001Y-91872055D01*
X77439632Y-91873329D01*
X77445403Y-91873556D01*
X77445405Y-91873556D01*
X77472792Y-91874632D01*
X77540075Y-91897293D01*
X77556940Y-91911440D01*
X77566906Y-91921406D01*
X77600932Y-91983718D01*
X77595867Y-92054533D01*
X77553320Y-92111369D01*
X77486800Y-92136180D01*
X77452908Y-92134015D01*
X77393904Y-92122118D01*
X77389240Y-92121882D01*
X77389234Y-92121881D01*
X77389215Y-92121880D01*
X77389197Y-92121880D01*
X77387627Y-92121800D01*
X77373416Y-92121800D01*
X76754549Y-92121801D01*
X76686428Y-92101799D01*
X76641543Y-92051529D01*
X76595535Y-91958234D01*
X76592980Y-91953053D01*
X76576683Y-91931228D01*
X76464420Y-91780891D01*
X76464420Y-91780890D01*
X76460967Y-91776267D01*
X76334649Y-91659500D01*
X76303189Y-91630418D01*
X76303186Y-91630416D01*
X76298949Y-91626499D01*
X76112350Y-91508764D01*
X75907421Y-91427006D01*
X75901761Y-91425880D01*
X75901757Y-91425879D01*
X75696691Y-91385089D01*
X75696688Y-91385089D01*
X75691024Y-91383962D01*
X75685249Y-91383886D01*
X75685245Y-91383886D01*
X75574504Y-91382437D01*
X75470406Y-91381074D01*
X75464709Y-91382053D01*
X75464708Y-91382053D01*
X75258654Y-91417459D01*
X75258653Y-91417459D01*
X75252957Y-91418438D01*
X75045957Y-91494804D01*
X75040996Y-91497756D01*
X75040995Y-91497756D01*
X74942851Y-91556146D01*
X74856341Y-91607614D01*
X74690457Y-91753090D01*
X74553863Y-91926360D01*
X74451131Y-92121620D01*
X74385703Y-92332333D01*
X74359770Y-92551440D01*
X74374200Y-92771604D01*
X74375621Y-92777200D01*
X74375622Y-92777205D01*
X74386361Y-92819487D01*
X74421473Y-92957740D01*
X74418855Y-93028686D01*
X74378295Y-93086956D01*
X74334503Y-93109751D01*
X74317919Y-93114569D01*
X74303483Y-93120816D01*
X74178487Y-93194738D01*
X74166060Y-93204378D01*
X74063378Y-93307060D01*
X74053738Y-93319487D01*
X73979816Y-93444483D01*
X73973569Y-93458919D01*
X73932638Y-93599803D01*
X73930340Y-93612390D01*
X73928193Y-93639660D01*
X73928000Y-93644587D01*
X73928000Y-93788385D01*
X73932475Y-93803624D01*
X73933865Y-93804829D01*
X73941548Y-93806500D01*
X74877000Y-93806500D01*
X74945121Y-93826502D01*
X74991614Y-93880158D01*
X75003000Y-93932500D01*
X75003000Y-94080500D01*
X74982998Y-94148621D01*
X74929342Y-94195114D01*
X74877000Y-94206500D01*
X73946116Y-94206500D01*
X73930877Y-94210975D01*
X73929672Y-94212365D01*
X73928001Y-94220048D01*
X73928001Y-94368410D01*
X73928195Y-94373345D01*
X73930339Y-94400602D01*
X73932641Y-94413206D01*
X73953822Y-94486113D01*
X73953619Y-94557109D01*
X73912802Y-94618628D01*
X73908582Y-94622094D01*
X73903462Y-94625522D01*
X73759522Y-94769462D01*
X73646281Y-94938619D01*
X73643914Y-94944304D01*
X73643913Y-94944307D01*
X73601530Y-95046127D01*
X73568053Y-95126550D01*
X73527818Y-95326096D01*
X73527500Y-95332373D01*
X73527501Y-96130626D01*
X73527818Y-96136904D01*
X73568053Y-96336450D01*
X73570419Y-96342134D01*
X73640663Y-96510884D01*
X73646281Y-96524381D01*
X73759522Y-96693538D01*
X73840595Y-96774611D01*
X73874621Y-96836923D01*
X73877500Y-96863706D01*
X73877500Y-98497455D01*
X73857498Y-98565576D01*
X73840595Y-98586550D01*
X73800581Y-98626564D01*
X73738269Y-98660590D01*
X73711486Y-98663469D01*
X72832789Y-98663469D01*
X72813080Y-98661918D01*
X72798734Y-98659646D01*
X72792147Y-98659991D01*
X72792142Y-98659991D01*
X72729089Y-98663296D01*
X72722495Y-98663469D01*
X72701527Y-98663469D01*
X72698255Y-98663813D01*
X72698253Y-98663813D01*
X72680667Y-98665661D01*
X72674093Y-98666178D01*
X72611048Y-98669482D01*
X72611045Y-98669483D01*
X72604453Y-98669828D01*
X72590424Y-98673587D01*
X72570982Y-98677190D01*
X72556549Y-98678707D01*
X72490227Y-98700256D01*
X72483916Y-98702126D01*
X72416534Y-98720181D01*
X72410654Y-98723177D01*
X72403594Y-98726774D01*
X72385331Y-98734339D01*
X72371523Y-98738825D01*
X72365807Y-98742125D01*
X72365805Y-98742126D01*
X72311112Y-98773703D01*
X72305314Y-98776851D01*
X72243191Y-98808504D01*
X72238059Y-98812659D01*
X72238057Y-98812661D01*
X72231904Y-98817643D01*
X72215619Y-98828836D01*
X72203039Y-98836099D01*
X72198130Y-98840519D01*
X72198126Y-98840522D01*
X72151210Y-98882765D01*
X72146195Y-98887049D01*
X72137556Y-98894045D01*
X72129901Y-98900244D01*
X72115086Y-98915059D01*
X72110302Y-98919600D01*
X72058462Y-98966277D01*
X72049922Y-98978032D01*
X72037091Y-98993054D01*
X70524091Y-100506054D01*
X70509059Y-100518893D01*
X70497308Y-100527431D01*
X70492895Y-100532333D01*
X70492893Y-100532334D01*
X70450631Y-100579271D01*
X70446090Y-100584055D01*
X70431275Y-100598870D01*
X70429199Y-100601434D01*
X70418080Y-100615164D01*
X70413796Y-100620179D01*
X70371553Y-100667095D01*
X70371550Y-100667099D01*
X70367130Y-100672008D01*
X70359869Y-100684585D01*
X70348674Y-100700873D01*
X70343692Y-100707026D01*
X70339535Y-100712160D01*
X70336537Y-100718044D01*
X70307882Y-100774283D01*
X70304734Y-100780081D01*
X70273157Y-100834774D01*
X70269856Y-100840492D01*
X70266688Y-100850242D01*
X70265370Y-100854299D01*
X70257805Y-100872563D01*
X70251212Y-100885503D01*
X70234563Y-100947640D01*
X70233159Y-100952878D01*
X70231287Y-100959196D01*
X70228102Y-100969000D01*
X70213296Y-101014569D01*
X70209738Y-101025518D01*
X70209048Y-101032084D01*
X70208221Y-101039951D01*
X70204618Y-101059393D01*
X70200859Y-101073422D01*
X70200514Y-101080014D01*
X70200513Y-101080017D01*
X70197209Y-101143062D01*
X70196692Y-101149636D01*
X70195882Y-101157343D01*
X70194500Y-101170496D01*
X70194500Y-101191464D01*
X70194327Y-101198058D01*
X70190677Y-101267703D01*
X70189324Y-101267632D01*
X70174589Y-101329666D01*
X70123443Y-101378906D01*
X70062890Y-101393170D01*
X70053186Y-101392994D01*
X70050000Y-101399651D01*
X70050000Y-101906328D01*
X70049778Y-101913801D01*
X70047805Y-101947009D01*
X70047806Y-103441856D01*
X70047926Y-103443794D01*
X70047926Y-103443803D01*
X70049760Y-103473483D01*
X70050000Y-103481253D01*
X70050000Y-103982919D01*
X70053973Y-103996450D01*
X70061277Y-103997500D01*
X70128442Y-103976452D01*
X70129047Y-103978382D01*
X70189093Y-103970010D01*
X70253548Y-103999778D01*
X70274904Y-104023918D01*
X70290102Y-104046323D01*
X70434898Y-104190866D01*
X70514431Y-104244613D01*
X70599441Y-104302062D01*
X70599446Y-104302065D01*
X70604414Y-104305422D01*
X70609936Y-104307783D01*
X70787017Y-104383497D01*
X70787020Y-104383498D01*
X70792535Y-104385856D01*
X70798398Y-104387129D01*
X70987707Y-104428232D01*
X70987709Y-104428232D01*
X70992470Y-104429266D01*
X71003150Y-104429901D01*
X71036058Y-104431856D01*
X71036067Y-104431856D01*
X71037914Y-104431966D01*
X71118014Y-104431966D01*
X71202085Y-104431965D01*
X71204022Y-104431845D01*
X71204033Y-104431845D01*
X71236322Y-104429850D01*
X71249396Y-104429042D01*
X71254129Y-104428006D01*
X71254134Y-104428005D01*
X71371119Y-104402391D01*
X71441941Y-104407360D01*
X71498834Y-104449830D01*
X71523735Y-104516317D01*
X71508737Y-104585711D01*
X71497018Y-104603480D01*
X71378863Y-104753360D01*
X71276131Y-104948620D01*
X71234633Y-105082266D01*
X71212973Y-105152024D01*
X71210703Y-105159333D01*
X71184770Y-105378440D01*
X71185148Y-105384207D01*
X71189774Y-105454795D01*
X71174270Y-105524078D01*
X71123770Y-105573980D01*
X71064045Y-105589035D01*
X71037915Y-105589035D01*
X71035978Y-105589155D01*
X71035967Y-105589155D01*
X71003678Y-105591150D01*
X70990604Y-105591958D01*
X70985871Y-105592994D01*
X70985866Y-105592995D01*
X70828273Y-105627500D01*
X70790744Y-105635717D01*
X70602765Y-105716479D01*
X70597804Y-105719844D01*
X70597797Y-105719848D01*
X70555663Y-105748429D01*
X70488060Y-105770117D01*
X70414381Y-105748553D01*
X70370558Y-105718938D01*
X70365586Y-105715578D01*
X70322348Y-105697091D01*
X70182983Y-105637503D01*
X70182980Y-105637502D01*
X70177465Y-105635144D01*
X69983338Y-105592995D01*
X69982293Y-105592768D01*
X69982291Y-105592768D01*
X69977530Y-105591734D01*
X69966850Y-105591099D01*
X69933942Y-105589144D01*
X69933933Y-105589144D01*
X69932086Y-105589034D01*
X69851986Y-105589034D01*
X69767915Y-105589035D01*
X69765978Y-105589155D01*
X69765967Y-105589155D01*
X69733678Y-105591150D01*
X69720604Y-105591958D01*
X69715871Y-105592994D01*
X69715866Y-105592995D01*
X69558273Y-105627500D01*
X69520744Y-105635717D01*
X69332765Y-105716479D01*
X69327805Y-105719843D01*
X69327804Y-105719844D01*
X69178195Y-105821328D01*
X69163448Y-105831331D01*
X69018905Y-105976127D01*
X69015552Y-105981088D01*
X69015550Y-105981091D01*
X69004904Y-105996845D01*
X68950189Y-106042087D01*
X68879700Y-106050565D01*
X68858569Y-106044142D01*
X68858442Y-106044548D01*
X68797287Y-106025383D01*
X68783187Y-106025128D01*
X68780000Y-106031785D01*
X68780000Y-106538462D01*
X68779778Y-106545935D01*
X68778652Y-106564893D01*
X68777805Y-106579143D01*
X68777806Y-108073990D01*
X68777926Y-108075928D01*
X68777926Y-108075937D01*
X68779760Y-108105617D01*
X68780000Y-108113387D01*
X68780000Y-108615053D01*
X68783973Y-108628584D01*
X68815864Y-108633169D01*
X68815217Y-108637668D01*
X68841453Y-108639304D01*
X68898675Y-108681331D01*
X68924092Y-108747622D01*
X68924500Y-108757757D01*
X68924500Y-109072001D01*
X68904498Y-109140122D01*
X68850842Y-109186615D01*
X68798500Y-109198001D01*
X68788591Y-109198001D01*
X68783655Y-109198195D01*
X68756398Y-109200339D01*
X68743797Y-109202640D01*
X68602919Y-109243569D01*
X68588483Y-109249816D01*
X68463487Y-109323738D01*
X68451060Y-109333378D01*
X68348378Y-109436060D01*
X68338738Y-109448487D01*
X68264816Y-109573483D01*
X68258569Y-109587919D01*
X68217638Y-109728803D01*
X68215340Y-109741390D01*
X68213193Y-109768660D01*
X68213000Y-109773587D01*
X68213000Y-109917385D01*
X68217475Y-109932624D01*
X68218865Y-109933829D01*
X68226548Y-109935500D01*
X69146578Y-109935500D01*
X69214699Y-109955502D01*
X69226043Y-109964164D01*
X69227308Y-109965569D01*
X69236060Y-109971928D01*
X69237555Y-109973867D01*
X69237559Y-109973870D01*
X69237558Y-109973871D01*
X69279413Y-110028146D01*
X69288000Y-110073864D01*
X69288000Y-110209500D01*
X69267998Y-110277621D01*
X69214342Y-110324114D01*
X69162000Y-110335500D01*
X68231116Y-110335500D01*
X68215877Y-110339975D01*
X68214672Y-110341365D01*
X68213001Y-110349048D01*
X68213001Y-110497410D01*
X68213195Y-110502345D01*
X68215339Y-110529602D01*
X68217641Y-110542206D01*
X68238822Y-110615113D01*
X68238619Y-110686109D01*
X68197802Y-110747628D01*
X68193582Y-110751094D01*
X68188462Y-110754522D01*
X68077710Y-110865274D01*
X68015398Y-110899300D01*
X67944583Y-110894235D01*
X67887747Y-110851688D01*
X67864291Y-110796664D01*
X67858066Y-110758880D01*
X67800266Y-110408086D01*
X67799508Y-110402781D01*
X67797625Y-110387243D01*
X67688773Y-109489415D01*
X67688240Y-109484068D01*
X67616548Y-108566784D01*
X67616244Y-108561419D01*
X67597901Y-108042694D01*
X67908305Y-108042694D01*
X67908571Y-108048483D01*
X67914090Y-108108548D01*
X67916703Y-108121595D01*
X67961047Y-108263098D01*
X67967254Y-108276844D01*
X68043601Y-108402908D01*
X68052914Y-108414785D01*
X68157120Y-108518991D01*
X68168997Y-108528304D01*
X68295061Y-108604651D01*
X68308807Y-108610858D01*
X68362713Y-108627751D01*
X68376813Y-108628006D01*
X68380000Y-108621349D01*
X68380000Y-107544682D01*
X68375525Y-107529443D01*
X68374135Y-107528238D01*
X68366452Y-107526567D01*
X67926420Y-107526567D01*
X67911181Y-107531042D01*
X67909976Y-107532432D01*
X67908305Y-107540115D01*
X67908305Y-108042694D01*
X67597901Y-108042694D01*
X67583730Y-107641949D01*
X67583654Y-107636576D01*
X67587512Y-107108452D01*
X67908305Y-107108452D01*
X67912780Y-107123691D01*
X67914170Y-107124896D01*
X67921853Y-107126567D01*
X68361885Y-107126567D01*
X68377124Y-107122092D01*
X68378329Y-107120702D01*
X68380000Y-107113019D01*
X68380000Y-106038081D01*
X68376027Y-106024550D01*
X68368723Y-106023500D01*
X68308807Y-106042276D01*
X68295061Y-106048483D01*
X68168997Y-106124830D01*
X68157120Y-106134143D01*
X68052914Y-106238349D01*
X68043601Y-106250226D01*
X67967254Y-106376290D01*
X67961047Y-106390036D01*
X67916703Y-106531539D01*
X67914090Y-106544586D01*
X67908571Y-106604651D01*
X67908305Y-106610440D01*
X67908305Y-107108452D01*
X67587512Y-107108452D01*
X67587914Y-107053349D01*
X67590375Y-106716496D01*
X67590528Y-106711142D01*
X67595853Y-106604651D01*
X67636472Y-105792211D01*
X67636854Y-105786858D01*
X67640901Y-105743290D01*
X67674250Y-105384207D01*
X67721938Y-104870738D01*
X67722549Y-104865399D01*
X67846616Y-103953736D01*
X67847454Y-103948429D01*
X67861374Y-103871014D01*
X67893116Y-103807508D01*
X67954152Y-103771244D01*
X68025105Y-103773736D01*
X68074480Y-103804217D01*
X68157120Y-103886857D01*
X68168997Y-103896170D01*
X68295061Y-103972517D01*
X68308807Y-103978724D01*
X68362713Y-103995617D01*
X68376813Y-103995872D01*
X68380000Y-103989215D01*
X68380000Y-103982919D01*
X68780000Y-103982919D01*
X68783973Y-103996450D01*
X68791277Y-103997500D01*
X68851193Y-103978724D01*
X68864939Y-103972517D01*
X68991003Y-103896170D01*
X69002880Y-103886857D01*
X69107086Y-103782651D01*
X69115847Y-103771478D01*
X69173621Y-103730214D01*
X69244532Y-103726736D01*
X69306067Y-103762147D01*
X69314153Y-103771478D01*
X69322914Y-103782651D01*
X69427120Y-103886857D01*
X69438997Y-103896170D01*
X69565061Y-103972517D01*
X69578807Y-103978724D01*
X69632713Y-103995617D01*
X69646813Y-103995872D01*
X69650000Y-103989215D01*
X69650000Y-102912548D01*
X69645525Y-102897309D01*
X69644135Y-102896104D01*
X69636452Y-102894433D01*
X68798115Y-102894433D01*
X68782876Y-102898908D01*
X68781671Y-102900298D01*
X68780000Y-102907981D01*
X68780000Y-103982919D01*
X68380000Y-103982919D01*
X68380000Y-102476318D01*
X68780000Y-102476318D01*
X68784475Y-102491557D01*
X68785865Y-102492762D01*
X68793548Y-102494433D01*
X69631885Y-102494433D01*
X69647124Y-102489958D01*
X69648329Y-102488568D01*
X69650000Y-102480885D01*
X69650000Y-101405947D01*
X69646027Y-101392416D01*
X69638723Y-101391366D01*
X69578807Y-101410142D01*
X69565061Y-101416349D01*
X69438997Y-101492696D01*
X69427120Y-101502009D01*
X69322914Y-101606215D01*
X69314153Y-101617388D01*
X69256379Y-101658652D01*
X69185468Y-101662130D01*
X69123933Y-101626719D01*
X69115847Y-101617388D01*
X69107086Y-101606215D01*
X69002880Y-101502009D01*
X68991003Y-101492696D01*
X68864939Y-101416349D01*
X68851193Y-101410142D01*
X68797287Y-101393249D01*
X68783187Y-101392994D01*
X68780000Y-101399651D01*
X68780000Y-102476318D01*
X68380000Y-102476318D01*
X68380000Y-101534965D01*
X68384340Y-101502182D01*
X68384428Y-101501856D01*
X68453307Y-101246241D01*
X68454812Y-101241093D01*
X68456565Y-101235541D01*
X68731870Y-100363699D01*
X68733593Y-100358622D01*
X68737840Y-100346935D01*
X69047794Y-99493882D01*
X69049734Y-99488875D01*
X69050552Y-99486893D01*
X69330332Y-98808504D01*
X69400537Y-98638277D01*
X69402692Y-98633354D01*
X69675105Y-98045307D01*
X69789427Y-97798524D01*
X69791788Y-97793700D01*
X69902455Y-97579285D01*
X70023151Y-97345436D01*
X70213771Y-96976113D01*
X70216337Y-96971391D01*
X70672799Y-96172534D01*
X70675564Y-96167926D01*
X70808979Y-95955962D01*
X71165681Y-95389248D01*
X71168615Y-95384799D01*
X71691498Y-94627712D01*
X71694645Y-94623357D01*
X71702843Y-94612508D01*
X72249310Y-93889283D01*
X72252640Y-93885066D01*
X72838098Y-93175313D01*
X72841605Y-93171241D01*
X73456802Y-92487087D01*
X73460480Y-92483169D01*
X74104296Y-91825861D01*
X74108137Y-91822103D01*
X74779385Y-91192852D01*
X74783358Y-91189283D01*
X75480878Y-90589181D01*
X75484958Y-90585820D01*
X76207415Y-90016017D01*
X76211642Y-90012825D01*
X76387120Y-89886178D01*
X76454060Y-89862532D01*
X76523161Y-89878831D01*
G37*
%TD.AperFunction*%
%TA.AperFunction,Conductor*%
G36*
X71825618Y-108904581D02*
G01*
X71874414Y-108937556D01*
X71879936Y-108939917D01*
X72057017Y-109015631D01*
X72057020Y-109015632D01*
X72062535Y-109017990D01*
X72068398Y-109019263D01*
X72257707Y-109060366D01*
X72257709Y-109060366D01*
X72262470Y-109061400D01*
X72273150Y-109062035D01*
X72306058Y-109063990D01*
X72306067Y-109063990D01*
X72307914Y-109064100D01*
X72388014Y-109064100D01*
X72472085Y-109064099D01*
X72474022Y-109063979D01*
X72474033Y-109063979D01*
X72506322Y-109061984D01*
X72519396Y-109061176D01*
X72581552Y-109047567D01*
X72652373Y-109052536D01*
X72709266Y-109095006D01*
X72734167Y-109161492D01*
X72734500Y-109170651D01*
X72734500Y-109352060D01*
X72714498Y-109420181D01*
X72660842Y-109466674D01*
X72600262Y-109477790D01*
X72588206Y-109477000D01*
X72571115Y-109477000D01*
X72555876Y-109481475D01*
X72554671Y-109482865D01*
X72553000Y-109490548D01*
X72553000Y-110401000D01*
X72532998Y-110469121D01*
X72479342Y-110515614D01*
X72427000Y-110527000D01*
X72279000Y-110527000D01*
X72210879Y-110506998D01*
X72164386Y-110453342D01*
X72153000Y-110401000D01*
X72153000Y-109495116D01*
X72148525Y-109479877D01*
X72147135Y-109478672D01*
X72139452Y-109477001D01*
X72117801Y-109477001D01*
X72109589Y-109477539D01*
X71996369Y-109492444D01*
X71995954Y-109489292D01*
X71939976Y-109487946D01*
X71880729Y-109447575D01*
X71814109Y-109365891D01*
X71679612Y-109256198D01*
X71661540Y-109241459D01*
X71661539Y-109241458D01*
X71656596Y-109237427D01*
X71566960Y-109190566D01*
X71515859Y-109141281D01*
X71499515Y-109072191D01*
X71523119Y-109005233D01*
X71575597Y-108963138D01*
X71631723Y-108939024D01*
X71631730Y-108939020D01*
X71637235Y-108936655D01*
X71642196Y-108933290D01*
X71642203Y-108933286D01*
X71684337Y-108904705D01*
X71751940Y-108883017D01*
X71825618Y-108904581D01*
G37*
%TD.AperFunction*%
%TA.AperFunction,Conductor*%
G36*
X110014120Y-109066501D02*
G01*
X110060613Y-109120156D01*
X110072000Y-109172499D01*
X110072000Y-110045000D01*
X110051998Y-110113121D01*
X109998342Y-110159614D01*
X109946000Y-110171000D01*
X108752616Y-110171000D01*
X108737377Y-110175475D01*
X108736172Y-110176865D01*
X108733774Y-110187890D01*
X108699749Y-110250203D01*
X108637437Y-110284228D01*
X108566622Y-110279164D01*
X108521558Y-110250203D01*
X108024240Y-109752885D01*
X108734500Y-109752885D01*
X108738975Y-109768124D01*
X108740365Y-109769329D01*
X108748048Y-109771000D01*
X109653885Y-109771000D01*
X109669124Y-109766525D01*
X109670329Y-109765135D01*
X109672000Y-109757452D01*
X109672000Y-109539115D01*
X109667525Y-109523876D01*
X109666135Y-109522671D01*
X109658452Y-109521000D01*
X108752616Y-109521000D01*
X108737377Y-109525475D01*
X108736172Y-109526865D01*
X108734501Y-109534548D01*
X108734501Y-109572524D01*
X108735276Y-109582373D01*
X108742231Y-109626288D01*
X108742231Y-109665708D01*
X108735275Y-109709629D01*
X108734500Y-109719473D01*
X108734500Y-109752885D01*
X108024240Y-109752885D01*
X107742327Y-109470972D01*
X107708301Y-109408660D01*
X107713366Y-109337845D01*
X107755913Y-109281009D01*
X107822433Y-109256198D01*
X107859230Y-109258984D01*
X107994328Y-109289554D01*
X107994334Y-109289555D01*
X107999965Y-109290829D01*
X108005736Y-109291056D01*
X108005738Y-109291056D01*
X108073544Y-109293720D01*
X108220431Y-109299491D01*
X108329608Y-109283661D01*
X108433071Y-109268660D01*
X108433076Y-109268659D01*
X108438785Y-109267831D01*
X108444249Y-109265976D01*
X108444254Y-109265975D01*
X108642240Y-109198768D01*
X108642245Y-109198766D01*
X108647712Y-109196910D01*
X108659039Y-109190567D01*
X108754571Y-109137066D01*
X108816137Y-109121000D01*
X109653885Y-109121000D01*
X109669124Y-109116525D01*
X109691389Y-109090830D01*
X109692918Y-109092155D01*
X109697685Y-109083421D01*
X109759991Y-109049385D01*
X109786796Y-109046500D01*
X109865800Y-109046500D01*
X109946001Y-109046499D01*
X110014120Y-109066501D01*
G37*
%TD.AperFunction*%
%TA.AperFunction,Conductor*%
G36*
X99211531Y-107490625D02*
G01*
X99260770Y-107541773D01*
X99274539Y-107611421D01*
X99265379Y-107648465D01*
X99253578Y-107676816D01*
X99222053Y-107752550D01*
X99220836Y-107758588D01*
X99201534Y-107854313D01*
X99168462Y-107917136D01*
X99106675Y-107952106D01*
X99039084Y-107949241D01*
X98982261Y-107930778D01*
X98982260Y-107930778D01*
X98975982Y-107928738D01*
X98961549Y-107927221D01*
X98942107Y-107923618D01*
X98928078Y-107919859D01*
X98921486Y-107919514D01*
X98921483Y-107919513D01*
X98858438Y-107916209D01*
X98851864Y-107915692D01*
X98834278Y-107913844D01*
X98834276Y-107913844D01*
X98831004Y-107913500D01*
X98810036Y-107913500D01*
X98803442Y-107913327D01*
X98740389Y-107910022D01*
X98740384Y-107910022D01*
X98733797Y-107909677D01*
X98719451Y-107911949D01*
X98699742Y-107913500D01*
X98370255Y-107913500D01*
X98302134Y-107893498D01*
X98259393Y-107847238D01*
X98257289Y-107842184D01*
X98248859Y-107829592D01*
X98227586Y-107761859D01*
X98248859Y-107689408D01*
X98257289Y-107676816D01*
X98259658Y-107671124D01*
X98259661Y-107671119D01*
X98307548Y-107556079D01*
X98352192Y-107500876D01*
X98423872Y-107478500D01*
X98953742Y-107478500D01*
X98973451Y-107480051D01*
X98987797Y-107482323D01*
X98994384Y-107481978D01*
X98994389Y-107481978D01*
X99057442Y-107478673D01*
X99064036Y-107478500D01*
X99085004Y-107478500D01*
X99088276Y-107478156D01*
X99088278Y-107478156D01*
X99105864Y-107476308D01*
X99112436Y-107475791D01*
X99119847Y-107475402D01*
X99142459Y-107474217D01*
X99211531Y-107490625D01*
G37*
%TD.AperFunction*%
%TA.AperFunction,Conductor*%
G36*
X79050359Y-101863438D02*
G01*
X79095421Y-101892397D01*
X79327043Y-102124018D01*
X79331706Y-102128233D01*
X79501257Y-102240883D01*
X79689460Y-102318455D01*
X79768235Y-102334053D01*
X79883093Y-102356796D01*
X79883096Y-102356796D01*
X79889145Y-102357994D01*
X80021479Y-102357994D01*
X80089600Y-102377996D01*
X80110574Y-102394899D01*
X80989095Y-103273420D01*
X81023121Y-103335732D01*
X81026000Y-103362515D01*
X81026000Y-103636456D01*
X81005998Y-103704577D01*
X80970094Y-103741160D01*
X80924806Y-103771478D01*
X80818990Y-103842316D01*
X80673316Y-103987990D01*
X80558711Y-104159184D01*
X80479541Y-104349378D01*
X80438821Y-104551328D01*
X80438500Y-104557664D01*
X80438500Y-105342500D01*
X80418498Y-105410621D01*
X80364842Y-105457114D01*
X80312500Y-105468500D01*
X79803282Y-105468501D01*
X79644374Y-105468501D01*
X79642774Y-105468582D01*
X79642765Y-105468582D01*
X79638096Y-105468818D01*
X79438550Y-105509053D01*
X79432866Y-105511419D01*
X79256307Y-105584913D01*
X79256304Y-105584914D01*
X79250619Y-105587281D01*
X79081462Y-105700522D01*
X78937522Y-105844462D01*
X78824281Y-106013619D01*
X78821914Y-106019304D01*
X78821913Y-106019307D01*
X78762825Y-106161258D01*
X78718180Y-106216461D01*
X78650778Y-106238764D01*
X78582017Y-106221086D01*
X78533729Y-106169040D01*
X78520500Y-106112837D01*
X78520500Y-103831198D01*
X78523729Y-103802854D01*
X78540721Y-103729254D01*
X78540721Y-103729251D01*
X78541921Y-103724055D01*
X78542195Y-103719303D01*
X78542194Y-102319627D01*
X78562196Y-102251506D01*
X78579099Y-102230532D01*
X78917232Y-101892399D01*
X78979544Y-101858373D01*
X79050359Y-101863438D01*
G37*
%TD.AperFunction*%
%TA.AperFunction,Conductor*%
G36*
X103174604Y-94377442D02*
G01*
X103238898Y-94382502D01*
X103243828Y-94382114D01*
X103243835Y-94382114D01*
X103244267Y-94382080D01*
X103244429Y-94382114D01*
X103248783Y-94382114D01*
X103248783Y-94383029D01*
X103313747Y-94396674D01*
X103364308Y-94446515D01*
X103378785Y-94513064D01*
X103379733Y-94513064D01*
X103379733Y-94517424D01*
X103379767Y-94517580D01*
X103379733Y-94518012D01*
X103379733Y-94518019D01*
X103379345Y-94522949D01*
X103399728Y-94781943D01*
X103400882Y-94786750D01*
X103400883Y-94786756D01*
X103408926Y-94820257D01*
X103460376Y-95034559D01*
X103462269Y-95039130D01*
X103462270Y-95039132D01*
X103528539Y-95199118D01*
X103559795Y-95274577D01*
X103695537Y-95496089D01*
X103864260Y-95693638D01*
X104061809Y-95862361D01*
X104283321Y-95998103D01*
X104287891Y-95999996D01*
X104287895Y-95999998D01*
X104508139Y-96091226D01*
X104523339Y-96097522D01*
X104611673Y-96118729D01*
X104771142Y-96157015D01*
X104771148Y-96157016D01*
X104775955Y-96158170D01*
X105034949Y-96178553D01*
X105039879Y-96178165D01*
X105039880Y-96178165D01*
X105093033Y-96173982D01*
X105162513Y-96188578D01*
X105213072Y-96238421D01*
X105228918Y-96299594D01*
X105228918Y-96372435D01*
X105231983Y-96391787D01*
X105265008Y-96493426D01*
X105273903Y-96510884D01*
X105320903Y-96575574D01*
X105327320Y-96583087D01*
X105792883Y-97048650D01*
X105806827Y-97056264D01*
X105808660Y-97056133D01*
X105815275Y-97051882D01*
X106741905Y-96125252D01*
X106804217Y-96091226D01*
X106875032Y-96096291D01*
X106920095Y-96125252D01*
X107843492Y-97048649D01*
X107857436Y-97056263D01*
X107859269Y-97056132D01*
X107865884Y-97051881D01*
X108083822Y-96833943D01*
X108146134Y-96799917D01*
X108216949Y-96804982D01*
X108273785Y-96847529D01*
X108282310Y-96860516D01*
X108345681Y-96971423D01*
X108348212Y-96976080D01*
X108726773Y-97709538D01*
X108770212Y-97793700D01*
X108772573Y-97798524D01*
X108886895Y-98045307D01*
X109159308Y-98633354D01*
X109161463Y-98638277D01*
X109231668Y-98808504D01*
X109511449Y-99486893D01*
X109512266Y-99488875D01*
X109514206Y-99493882D01*
X109824161Y-100346935D01*
X109828407Y-100358622D01*
X109830130Y-100363699D01*
X110105435Y-101235541D01*
X110107188Y-101241093D01*
X110108693Y-101246241D01*
X110346359Y-102128233D01*
X110348074Y-102134599D01*
X110349358Y-102139799D01*
X110547127Y-103021871D01*
X110550659Y-103037626D01*
X110551720Y-103042883D01*
X110583263Y-103218309D01*
X110714546Y-103948429D01*
X110715384Y-103953736D01*
X110811314Y-104658642D01*
X110800681Y-104728838D01*
X110753784Y-104782142D01*
X110685515Y-104801629D01*
X110666755Y-104800082D01*
X110645873Y-104796775D01*
X110636027Y-104796000D01*
X110090115Y-104796000D01*
X110074876Y-104800475D01*
X110073671Y-104801865D01*
X110072000Y-104809548D01*
X110072000Y-104919500D01*
X110051998Y-104987621D01*
X109998342Y-105034114D01*
X109946001Y-105045500D01*
X109872001Y-105045500D01*
X109797999Y-105045501D01*
X109729880Y-105025499D01*
X109683387Y-104971844D01*
X109672000Y-104919501D01*
X109672000Y-104823300D01*
X109692002Y-104755179D01*
X109727903Y-104718598D01*
X109733418Y-104714906D01*
X109733421Y-104714904D01*
X109738538Y-104711478D01*
X109882478Y-104567538D01*
X109995719Y-104398381D01*
X110014512Y-104353235D01*
X110071581Y-104216134D01*
X110073947Y-104210450D01*
X110114182Y-104010904D01*
X110114500Y-104004627D01*
X110114499Y-103206374D01*
X110114182Y-103200096D01*
X110073947Y-103000550D01*
X110071581Y-102994866D01*
X109998087Y-102818307D01*
X109998086Y-102818304D01*
X109995719Y-102812619D01*
X109882478Y-102643462D01*
X109738538Y-102499522D01*
X109733418Y-102496094D01*
X109729198Y-102492628D01*
X109689255Y-102433933D01*
X109688178Y-102360113D01*
X109709361Y-102287200D01*
X109711660Y-102274610D01*
X109713807Y-102247340D01*
X109714000Y-102242414D01*
X109714000Y-102098615D01*
X109709525Y-102083376D01*
X109708135Y-102082171D01*
X109700452Y-102080500D01*
X106664115Y-102080500D01*
X106620996Y-102093161D01*
X106608184Y-102101395D01*
X106572682Y-102106500D01*
X105657000Y-102106500D01*
X105588879Y-102086498D01*
X105542386Y-102032842D01*
X105531000Y-101980500D01*
X105531000Y-101688385D01*
X105931000Y-101688385D01*
X105935475Y-101703624D01*
X105936865Y-101704829D01*
X105944548Y-101706500D01*
X106381885Y-101706500D01*
X106425004Y-101693839D01*
X106437816Y-101685605D01*
X106473318Y-101680500D01*
X107096885Y-101680500D01*
X107112124Y-101676025D01*
X107113329Y-101674635D01*
X107115000Y-101666952D01*
X107115000Y-101662385D01*
X107515000Y-101662385D01*
X107519475Y-101677624D01*
X107520865Y-101678829D01*
X107528548Y-101680500D01*
X108620885Y-101680500D01*
X108636124Y-101676025D01*
X108637329Y-101674635D01*
X108639000Y-101666952D01*
X108639000Y-101662385D01*
X109039000Y-101662385D01*
X109043475Y-101677624D01*
X109044865Y-101678829D01*
X109052548Y-101680500D01*
X109695884Y-101680500D01*
X109711123Y-101676025D01*
X109712328Y-101674635D01*
X109713999Y-101666952D01*
X109713999Y-101518591D01*
X109713805Y-101513655D01*
X109711661Y-101486398D01*
X109709360Y-101473797D01*
X109668431Y-101332919D01*
X109662184Y-101318483D01*
X109588262Y-101193487D01*
X109578622Y-101181060D01*
X109475940Y-101078378D01*
X109463513Y-101068738D01*
X109338517Y-100994816D01*
X109324081Y-100988569D01*
X109183197Y-100947638D01*
X109170610Y-100945340D01*
X109143340Y-100943193D01*
X109138413Y-100943000D01*
X109057115Y-100943000D01*
X109041876Y-100947475D01*
X109040671Y-100948865D01*
X109039000Y-100956548D01*
X109039000Y-101662385D01*
X108639000Y-101662385D01*
X108639000Y-100961116D01*
X108634525Y-100945877D01*
X108633135Y-100944672D01*
X108625452Y-100943001D01*
X108539591Y-100943001D01*
X108534655Y-100943195D01*
X108507398Y-100945339D01*
X108494797Y-100947640D01*
X108353919Y-100988569D01*
X108339483Y-100994816D01*
X108214487Y-101068738D01*
X108202060Y-101078378D01*
X108166095Y-101114343D01*
X108103783Y-101148369D01*
X108032968Y-101143304D01*
X107987905Y-101114343D01*
X107951940Y-101078378D01*
X107939513Y-101068738D01*
X107814517Y-100994816D01*
X107800081Y-100988569D01*
X107659197Y-100947638D01*
X107646610Y-100945340D01*
X107619340Y-100943193D01*
X107614413Y-100943000D01*
X107533115Y-100943000D01*
X107517876Y-100947475D01*
X107516671Y-100948865D01*
X107515000Y-100956548D01*
X107515000Y-101662385D01*
X107115000Y-101662385D01*
X107115000Y-100961116D01*
X107110525Y-100945877D01*
X107109135Y-100944672D01*
X107101452Y-100943001D01*
X107015591Y-100943001D01*
X107010655Y-100943195D01*
X106983398Y-100945339D01*
X106970797Y-100947640D01*
X106829919Y-100988569D01*
X106815483Y-100994816D01*
X106690487Y-101068738D01*
X106678060Y-101078378D01*
X106599095Y-101157343D01*
X106536783Y-101191369D01*
X106465968Y-101186304D01*
X106420905Y-101157343D01*
X106367940Y-101104378D01*
X106355513Y-101094738D01*
X106230517Y-101020816D01*
X106216081Y-101014569D01*
X106075197Y-100973638D01*
X106062610Y-100971340D01*
X106035340Y-100969193D01*
X106030413Y-100969000D01*
X105949115Y-100969000D01*
X105933876Y-100973475D01*
X105932671Y-100974865D01*
X105931000Y-100982548D01*
X105931000Y-101688385D01*
X105531000Y-101688385D01*
X105531000Y-100987116D01*
X105526525Y-100971877D01*
X105525135Y-100970672D01*
X105517452Y-100969001D01*
X105431591Y-100969001D01*
X105426655Y-100969195D01*
X105399398Y-100971339D01*
X105386797Y-100973640D01*
X105245919Y-101014569D01*
X105231483Y-101020816D01*
X105106487Y-101094738D01*
X105094060Y-101104378D01*
X104991378Y-101207060D01*
X104981738Y-101219487D01*
X104907816Y-101344483D01*
X104901570Y-101358917D01*
X104883833Y-101419967D01*
X104845620Y-101479802D01*
X104781123Y-101509479D01*
X104710821Y-101499575D01*
X104669345Y-101466850D01*
X104668233Y-101467854D01*
X104665092Y-101464376D01*
X104665078Y-101464362D01*
X104664020Y-101463190D01*
X104170280Y-100969452D01*
X104165616Y-100965237D01*
X103996065Y-100852587D01*
X103852415Y-100793378D01*
X103813560Y-100777363D01*
X103813559Y-100777363D01*
X103807863Y-100775015D01*
X103801817Y-100773818D01*
X103801814Y-100773817D01*
X103751034Y-100763762D01*
X103690374Y-100751751D01*
X103627436Y-100718900D01*
X103591248Y-100652625D01*
X103580605Y-100598870D01*
X103571398Y-100552373D01*
X103569183Y-100541186D01*
X103569182Y-100541183D01*
X103567985Y-100535137D01*
X103490413Y-100346935D01*
X103450138Y-100286316D01*
X103380345Y-100181269D01*
X103380339Y-100181262D01*
X103377763Y-100177384D01*
X103374632Y-100173918D01*
X103374622Y-100173906D01*
X103374608Y-100173892D01*
X103373550Y-100172720D01*
X102879810Y-99678982D01*
X102875146Y-99674767D01*
X102705595Y-99562117D01*
X102540056Y-99493886D01*
X102523090Y-99486893D01*
X102523089Y-99486893D01*
X102517393Y-99484545D01*
X102416163Y-99464501D01*
X102323759Y-99446204D01*
X102323756Y-99446204D01*
X102317707Y-99445006D01*
X102203051Y-99445006D01*
X102134930Y-99425004D01*
X102113956Y-99408101D01*
X102058946Y-99353091D01*
X102046104Y-99338056D01*
X102037569Y-99326308D01*
X101985729Y-99279631D01*
X101980945Y-99275090D01*
X101966130Y-99260275D01*
X101958475Y-99254076D01*
X101949836Y-99247080D01*
X101944821Y-99242796D01*
X101897905Y-99200553D01*
X101897901Y-99200550D01*
X101892992Y-99196130D01*
X101880412Y-99188867D01*
X101864127Y-99177674D01*
X101857974Y-99172692D01*
X101857972Y-99172690D01*
X101852840Y-99168535D01*
X101790717Y-99136882D01*
X101784919Y-99133734D01*
X101730226Y-99102157D01*
X101730224Y-99102156D01*
X101724508Y-99098856D01*
X101710700Y-99094370D01*
X101692437Y-99086805D01*
X101685377Y-99083208D01*
X101679497Y-99080212D01*
X101612115Y-99062157D01*
X101605804Y-99060287D01*
X101539482Y-99038738D01*
X101525049Y-99037221D01*
X101505607Y-99033618D01*
X101491578Y-99029859D01*
X101484986Y-99029514D01*
X101484983Y-99029513D01*
X101421938Y-99026209D01*
X101415364Y-99025692D01*
X101397778Y-99023844D01*
X101397776Y-99023844D01*
X101394504Y-99023500D01*
X101373536Y-99023500D01*
X101366942Y-99023327D01*
X101303889Y-99020022D01*
X101303884Y-99020022D01*
X101297297Y-99019677D01*
X101282951Y-99021949D01*
X101263242Y-99023500D01*
X98081258Y-99023500D01*
X98061549Y-99021949D01*
X98047203Y-99019677D01*
X98040616Y-99020022D01*
X98040611Y-99020022D01*
X97977558Y-99023327D01*
X97970964Y-99023500D01*
X97949996Y-99023500D01*
X97946724Y-99023844D01*
X97946722Y-99023844D01*
X97929136Y-99025692D01*
X97922562Y-99026209D01*
X97859517Y-99029513D01*
X97859514Y-99029514D01*
X97852922Y-99029859D01*
X97838893Y-99033618D01*
X97819451Y-99037221D01*
X97805018Y-99038738D01*
X97738696Y-99060287D01*
X97732385Y-99062157D01*
X97665003Y-99080212D01*
X97659123Y-99083208D01*
X97652063Y-99086805D01*
X97633800Y-99094370D01*
X97619992Y-99098856D01*
X97614276Y-99102156D01*
X97614274Y-99102157D01*
X97559581Y-99133734D01*
X97553783Y-99136882D01*
X97491660Y-99168535D01*
X97486528Y-99172690D01*
X97486526Y-99172692D01*
X97480373Y-99177674D01*
X97464088Y-99188867D01*
X97451508Y-99196130D01*
X97446599Y-99200550D01*
X97446595Y-99200553D01*
X97399679Y-99242796D01*
X97394664Y-99247080D01*
X97386025Y-99254076D01*
X97378370Y-99260275D01*
X97363555Y-99275090D01*
X97358771Y-99279631D01*
X97306931Y-99326308D01*
X97298396Y-99338056D01*
X97285554Y-99353091D01*
X95620050Y-101018595D01*
X95557738Y-101052621D01*
X95530955Y-101055500D01*
X95190442Y-101055500D01*
X95122321Y-101035498D01*
X95075828Y-100981842D01*
X95066928Y-100954405D01*
X95035677Y-100799416D01*
X95035675Y-100799411D01*
X95034459Y-100793378D01*
X94955289Y-100603184D01*
X94840684Y-100431990D01*
X94695010Y-100286316D01*
X94523816Y-100171711D01*
X94518113Y-100169337D01*
X94518106Y-100169331D01*
X94512695Y-100166430D01*
X94513246Y-100165401D01*
X94462909Y-100124694D01*
X94440604Y-100057292D01*
X94458280Y-99988531D01*
X94510325Y-99940242D01*
X94566531Y-99927011D01*
X94717731Y-99927011D01*
X94737440Y-99928562D01*
X94751786Y-99930834D01*
X94758373Y-99930489D01*
X94758378Y-99930489D01*
X94821431Y-99927184D01*
X94828025Y-99927011D01*
X94848993Y-99927011D01*
X94852265Y-99926667D01*
X94852267Y-99926667D01*
X94869853Y-99924819D01*
X94876427Y-99924302D01*
X94939472Y-99920998D01*
X94939475Y-99920997D01*
X94946067Y-99920652D01*
X94960096Y-99916893D01*
X94979538Y-99913290D01*
X94993971Y-99911773D01*
X95060293Y-99890224D01*
X95066604Y-99888354D01*
X95133986Y-99870299D01*
X95139866Y-99867303D01*
X95146926Y-99863706D01*
X95165190Y-99856141D01*
X95178997Y-99851655D01*
X95184713Y-99848355D01*
X95184715Y-99848354D01*
X95239408Y-99816777D01*
X95245206Y-99813629D01*
X95301445Y-99784974D01*
X95307329Y-99781976D01*
X95312463Y-99777819D01*
X95318616Y-99772837D01*
X95334901Y-99761644D01*
X95347481Y-99754381D01*
X95352390Y-99749961D01*
X95352394Y-99749958D01*
X95399310Y-99707715D01*
X95404325Y-99703431D01*
X95418055Y-99692312D01*
X95420619Y-99690236D01*
X95435434Y-99675421D01*
X95440218Y-99670880D01*
X95487155Y-99628618D01*
X95487156Y-99628616D01*
X95492058Y-99624203D01*
X95500598Y-99612449D01*
X95513435Y-99597420D01*
X96422425Y-98688430D01*
X96437447Y-98675599D01*
X96449203Y-98667058D01*
X96477343Y-98635806D01*
X96495880Y-98615218D01*
X96500421Y-98610434D01*
X96515236Y-98595619D01*
X96528431Y-98579325D01*
X96532715Y-98574310D01*
X96574958Y-98527394D01*
X96574961Y-98527390D01*
X96579381Y-98522481D01*
X96586644Y-98509901D01*
X96597837Y-98493616D01*
X96602819Y-98487463D01*
X96602821Y-98487461D01*
X96606976Y-98482329D01*
X96616697Y-98463250D01*
X96638629Y-98420206D01*
X96641777Y-98414408D01*
X96673354Y-98359715D01*
X96673355Y-98359713D01*
X96676655Y-98353997D01*
X96681141Y-98340189D01*
X96688706Y-98321926D01*
X96692303Y-98314866D01*
X96695299Y-98308986D01*
X96713354Y-98241604D01*
X96715226Y-98235286D01*
X96734733Y-98175250D01*
X96734733Y-98175249D01*
X96736773Y-98168971D01*
X96738290Y-98154538D01*
X96741893Y-98135096D01*
X96745652Y-98121067D01*
X96746520Y-98104515D01*
X96749302Y-98051427D01*
X96749819Y-98044853D01*
X96751667Y-98027267D01*
X96751667Y-98027265D01*
X96752011Y-98023993D01*
X96752011Y-98003025D01*
X96752184Y-97996431D01*
X96755489Y-97933378D01*
X96755489Y-97933373D01*
X96755834Y-97926786D01*
X96753562Y-97912440D01*
X96752011Y-97892731D01*
X96752011Y-97873500D01*
X96772013Y-97805379D01*
X96825669Y-97758886D01*
X96878011Y-97747500D01*
X98633763Y-97747499D01*
X98665872Y-97747499D01*
X98699001Y-97745241D01*
X98702469Y-97745005D01*
X98702470Y-97745005D01*
X98708015Y-97744627D01*
X98870648Y-97704078D01*
X98941583Y-97707006D01*
X98990224Y-97737240D01*
X99106462Y-97853478D01*
X99111586Y-97856908D01*
X99111587Y-97856909D01*
X99165097Y-97892731D01*
X99275619Y-97966719D01*
X99281304Y-97969086D01*
X99281307Y-97969087D01*
X99410196Y-98022738D01*
X99463550Y-98044947D01*
X99614111Y-98075305D01*
X99649666Y-98082474D01*
X99663096Y-98085182D01*
X99667760Y-98085418D01*
X99667766Y-98085419D01*
X99667785Y-98085420D01*
X99667803Y-98085420D01*
X99669373Y-98085500D01*
X99670970Y-98085500D01*
X100007375Y-98085499D01*
X100342626Y-98085499D01*
X100344226Y-98085418D01*
X100344235Y-98085418D01*
X100348904Y-98085182D01*
X100362335Y-98082474D01*
X100397889Y-98075305D01*
X100548450Y-98044947D01*
X100601804Y-98022738D01*
X100730693Y-97969087D01*
X100730696Y-97969086D01*
X100736381Y-97966719D01*
X100824907Y-97907456D01*
X100892641Y-97886182D01*
X100965093Y-97907456D01*
X101053619Y-97966719D01*
X101059304Y-97969086D01*
X101059307Y-97969087D01*
X101188196Y-98022738D01*
X101241550Y-98044947D01*
X101392111Y-98075305D01*
X101427666Y-98082474D01*
X101441096Y-98085182D01*
X101445760Y-98085418D01*
X101445766Y-98085419D01*
X101445785Y-98085420D01*
X101445803Y-98085420D01*
X101447373Y-98085500D01*
X101448970Y-98085500D01*
X101785375Y-98085499D01*
X102120626Y-98085499D01*
X102122226Y-98085418D01*
X102122235Y-98085418D01*
X102126904Y-98085182D01*
X102140335Y-98082474D01*
X102175889Y-98075305D01*
X102326450Y-98044947D01*
X102332136Y-98042580D01*
X102338035Y-98040777D01*
X102338387Y-98041928D01*
X102402617Y-98034911D01*
X102468379Y-98068693D01*
X102492264Y-98091961D01*
X102497060Y-98095166D01*
X102497063Y-98095168D01*
X102581261Y-98151427D01*
X102675717Y-98214540D01*
X102681020Y-98216818D01*
X102681023Y-98216820D01*
X102873129Y-98299355D01*
X102878436Y-98301635D01*
X102958088Y-98319658D01*
X103087995Y-98349054D01*
X103088001Y-98349055D01*
X103093632Y-98350329D01*
X103099403Y-98350556D01*
X103099405Y-98350556D01*
X103167211Y-98353220D01*
X103314098Y-98358991D01*
X103443766Y-98340190D01*
X103526738Y-98328160D01*
X103526743Y-98328159D01*
X103532452Y-98327331D01*
X103537916Y-98325476D01*
X103537921Y-98325475D01*
X103735907Y-98258268D01*
X103735912Y-98258266D01*
X103741379Y-98256410D01*
X103933884Y-98148602D01*
X103938610Y-98144672D01*
X104099086Y-98011204D01*
X104103518Y-98007518D01*
X104165199Y-97933355D01*
X104240908Y-97842326D01*
X104240910Y-97842323D01*
X104244602Y-97837884D01*
X104352410Y-97645379D01*
X104354266Y-97639912D01*
X104354268Y-97639907D01*
X104421475Y-97441921D01*
X104421476Y-97441916D01*
X104423331Y-97436452D01*
X104424159Y-97430743D01*
X104424160Y-97430738D01*
X104436528Y-97345436D01*
X106093737Y-97345436D01*
X106093868Y-97347269D01*
X106098119Y-97353884D01*
X106566910Y-97822675D01*
X106574427Y-97829096D01*
X106639117Y-97876097D01*
X106656574Y-97884992D01*
X106758213Y-97918017D01*
X106777565Y-97921082D01*
X106884435Y-97921082D01*
X106903787Y-97918017D01*
X107005426Y-97884992D01*
X107022884Y-97876097D01*
X107087574Y-97829097D01*
X107095087Y-97822680D01*
X107560650Y-97357117D01*
X107568264Y-97343173D01*
X107568133Y-97341340D01*
X107563882Y-97334725D01*
X106843812Y-96614655D01*
X106829868Y-96607041D01*
X106828035Y-96607172D01*
X106821420Y-96611423D01*
X106101351Y-97331492D01*
X106093737Y-97345436D01*
X104436528Y-97345436D01*
X104454458Y-97221772D01*
X104454991Y-97218098D01*
X104456643Y-97155000D01*
X104436454Y-96935289D01*
X104426384Y-96899581D01*
X104378134Y-96728500D01*
X104376565Y-96722936D01*
X104278980Y-96525053D01*
X104268400Y-96510884D01*
X104150420Y-96352891D01*
X104150420Y-96352890D01*
X104146967Y-96348267D01*
X104049586Y-96258249D01*
X103989189Y-96202418D01*
X103989186Y-96202416D01*
X103984949Y-96198499D01*
X103798350Y-96080764D01*
X103593421Y-95999006D01*
X103587761Y-95997880D01*
X103587757Y-95997879D01*
X103382691Y-95957089D01*
X103382688Y-95957089D01*
X103377024Y-95955962D01*
X103371249Y-95955886D01*
X103371245Y-95955886D01*
X103339184Y-95955467D01*
X103312912Y-95955123D01*
X103272374Y-95946228D01*
X103272007Y-95947356D01*
X103258200Y-95942870D01*
X103239937Y-95935305D01*
X103232877Y-95931708D01*
X103226997Y-95928712D01*
X103159615Y-95910657D01*
X103153304Y-95908787D01*
X103086982Y-95887238D01*
X103072549Y-95885721D01*
X103053107Y-95882118D01*
X103039078Y-95878359D01*
X103038883Y-95878349D01*
X102976877Y-95848953D01*
X102939351Y-95788685D01*
X102940366Y-95717695D01*
X102944417Y-95706497D01*
X103016581Y-95533134D01*
X103018947Y-95527450D01*
X103059182Y-95327904D01*
X103059500Y-95321627D01*
X103059499Y-94623374D01*
X103059182Y-94617096D01*
X103041209Y-94527959D01*
X103047352Y-94457228D01*
X103090759Y-94401047D01*
X103157650Y-94377253D01*
X103174604Y-94377442D01*
G37*
%TD.AperFunction*%
%TA.AperFunction,Conductor*%
G36*
X100120454Y-100894502D02*
G01*
X100166947Y-100948158D01*
X100177051Y-101018432D01*
X100147557Y-101083012D01*
X100141428Y-101089595D01*
X100047811Y-101183212D01*
X99991329Y-101215823D01*
X99979236Y-101219063D01*
X99948618Y-101227267D01*
X99948614Y-101227268D01*
X99942238Y-101228977D01*
X99936355Y-101231975D01*
X99936354Y-101231975D01*
X99929298Y-101235570D01*
X99911035Y-101243135D01*
X99897227Y-101247621D01*
X99891511Y-101250921D01*
X99891509Y-101250922D01*
X99836816Y-101282499D01*
X99831018Y-101285647D01*
X99768895Y-101317300D01*
X99763763Y-101321455D01*
X99763761Y-101321457D01*
X99757608Y-101326439D01*
X99741323Y-101337632D01*
X99728743Y-101344895D01*
X99723834Y-101349315D01*
X99723830Y-101349318D01*
X99676914Y-101391561D01*
X99671899Y-101395845D01*
X99663260Y-101402841D01*
X99655605Y-101409040D01*
X99640790Y-101423855D01*
X99636006Y-101428396D01*
X99592184Y-101467854D01*
X99584166Y-101475073D01*
X99575938Y-101486398D01*
X99575631Y-101486821D01*
X99562789Y-101501856D01*
X97788244Y-103276401D01*
X97725932Y-103310427D01*
X97655117Y-103305362D01*
X97598281Y-103262815D01*
X97578257Y-103218071D01*
X97577477Y-103218309D01*
X97575678Y-103212425D01*
X97574459Y-103206378D01*
X97495289Y-103016184D01*
X97380684Y-102844990D01*
X97235010Y-102699316D01*
X97063816Y-102584711D01*
X96960670Y-102541776D01*
X96905469Y-102497133D01*
X96883166Y-102429730D01*
X96900843Y-102360970D01*
X96919998Y-102336357D01*
X98344950Y-100911405D01*
X98407262Y-100877379D01*
X98434045Y-100874500D01*
X100052333Y-100874500D01*
X100120454Y-100894502D01*
G37*
%TD.AperFunction*%
%TA.AperFunction,Conductor*%
G36*
X86756121Y-93826502D02*
G01*
X86802614Y-93880158D01*
X86814000Y-93932500D01*
X86814000Y-94080500D01*
X86793998Y-94148621D01*
X86740342Y-94195114D01*
X86688000Y-94206500D01*
X84889000Y-94206500D01*
X84820879Y-94186498D01*
X84774386Y-94132842D01*
X84763000Y-94080500D01*
X84763000Y-93932500D01*
X84783002Y-93864379D01*
X84836658Y-93817886D01*
X84889000Y-93806500D01*
X86688000Y-93806500D01*
X86756121Y-93826502D01*
G37*
%TD.AperFunction*%
%TA.AperFunction,Conductor*%
G36*
X99414045Y-88150756D02*
G01*
X99520157Y-88208341D01*
X100033095Y-88486703D01*
X100037732Y-88489350D01*
X100290103Y-88640581D01*
X100826938Y-88962274D01*
X100831487Y-88965133D01*
X101050578Y-89109461D01*
X101096461Y-89163639D01*
X101105770Y-89234023D01*
X101075548Y-89298266D01*
X101010677Y-89337201D01*
X100931236Y-89356273D01*
X100926665Y-89358166D01*
X100926663Y-89358167D01*
X100695792Y-89453797D01*
X100695788Y-89453799D01*
X100691218Y-89455692D01*
X100469706Y-89591434D01*
X100272157Y-89760157D01*
X100103434Y-89957706D01*
X99967692Y-90179218D01*
X99965799Y-90183788D01*
X99965797Y-90183792D01*
X99891643Y-90362816D01*
X99868273Y-90419236D01*
X99867118Y-90424048D01*
X99808780Y-90667039D01*
X99808779Y-90667045D01*
X99807625Y-90671852D01*
X99787242Y-90930846D01*
X99807625Y-91189840D01*
X99808779Y-91194647D01*
X99808780Y-91194653D01*
X99830600Y-91285537D01*
X99868273Y-91442456D01*
X99870166Y-91447027D01*
X99870167Y-91447029D01*
X99962973Y-91671081D01*
X99967692Y-91682474D01*
X100103434Y-91903986D01*
X100272157Y-92101535D01*
X100469706Y-92270258D01*
X100691218Y-92406000D01*
X100695788Y-92407893D01*
X100695792Y-92407895D01*
X100925123Y-92502887D01*
X100931236Y-92505419D01*
X101005407Y-92523226D01*
X101179039Y-92564912D01*
X101179045Y-92564913D01*
X101183852Y-92566067D01*
X101442846Y-92586450D01*
X101447776Y-92586062D01*
X101447784Y-92586062D01*
X101448216Y-92586028D01*
X101448378Y-92586062D01*
X101452732Y-92586062D01*
X101452732Y-92586977D01*
X101517696Y-92600622D01*
X101568257Y-92650463D01*
X101582734Y-92717012D01*
X101583682Y-92717012D01*
X101583682Y-92721372D01*
X101583716Y-92721528D01*
X101583682Y-92721960D01*
X101583682Y-92721968D01*
X101583294Y-92726898D01*
X101603677Y-92985892D01*
X101604831Y-92990699D01*
X101604832Y-92990705D01*
X101639487Y-93135049D01*
X101664325Y-93238508D01*
X101666218Y-93243079D01*
X101666219Y-93243081D01*
X101761041Y-93472000D01*
X101763744Y-93478526D01*
X101766330Y-93482746D01*
X101772409Y-93492666D01*
X101790947Y-93561200D01*
X101769491Y-93628876D01*
X101714851Y-93674209D01*
X101664978Y-93684501D01*
X101447374Y-93684501D01*
X101445774Y-93684582D01*
X101445765Y-93684582D01*
X101441096Y-93684818D01*
X101241550Y-93725053D01*
X101235866Y-93727419D01*
X101059307Y-93800913D01*
X101059304Y-93800914D01*
X101053619Y-93803281D01*
X101048497Y-93806710D01*
X100965093Y-93862544D01*
X100897359Y-93883818D01*
X100824907Y-93862544D01*
X100741503Y-93806710D01*
X100736381Y-93803281D01*
X100730696Y-93800914D01*
X100730693Y-93800913D01*
X100554134Y-93727419D01*
X100548450Y-93725053D01*
X100348904Y-93684818D01*
X100344240Y-93684582D01*
X100344234Y-93684581D01*
X100344215Y-93684580D01*
X100344197Y-93684580D01*
X100342627Y-93684500D01*
X100341030Y-93684500D01*
X100004625Y-93684501D01*
X99669374Y-93684501D01*
X99667774Y-93684582D01*
X99667765Y-93684582D01*
X99663096Y-93684818D01*
X99550019Y-93707618D01*
X99479289Y-93701475D01*
X99423108Y-93658068D01*
X99402858Y-93614587D01*
X99399172Y-93599803D01*
X99388343Y-93556371D01*
X99306951Y-93392409D01*
X99192250Y-93249750D01*
X99186938Y-93245479D01*
X99186933Y-93245474D01*
X99082048Y-93161144D01*
X99041492Y-93102871D01*
X99035000Y-93062948D01*
X99035000Y-93055115D01*
X99030525Y-93039876D01*
X99029135Y-93038671D01*
X99021452Y-93037000D01*
X98834291Y-93037000D01*
X98803809Y-93033257D01*
X98785475Y-93028686D01*
X98708015Y-93009373D01*
X98687074Y-93007945D01*
X98668020Y-93006646D01*
X98668009Y-93006646D01*
X98665873Y-93006500D01*
X98656761Y-93006500D01*
X97575999Y-93006501D01*
X97507879Y-92986499D01*
X97461386Y-92932843D01*
X97450000Y-92880501D01*
X97450000Y-92618885D01*
X97850000Y-92618885D01*
X97854475Y-92634124D01*
X97855865Y-92635329D01*
X97863548Y-92637000D01*
X99016885Y-92637000D01*
X99032124Y-92632525D01*
X99033329Y-92631135D01*
X99035000Y-92623452D01*
X99035000Y-92529140D01*
X99034721Y-92523226D01*
X99032799Y-92502887D01*
X99029531Y-92487995D01*
X98991159Y-92378729D01*
X98982441Y-92362262D01*
X98914664Y-92270499D01*
X98901501Y-92257336D01*
X98809738Y-92189559D01*
X98793271Y-92180841D01*
X98684005Y-92142469D01*
X98669113Y-92139201D01*
X98648774Y-92137279D01*
X98642860Y-92137000D01*
X97868115Y-92137000D01*
X97852876Y-92141475D01*
X97851671Y-92142865D01*
X97850000Y-92150548D01*
X97850000Y-92618885D01*
X97450000Y-92618885D01*
X97450000Y-92155115D01*
X97445525Y-92139876D01*
X97444135Y-92138671D01*
X97436452Y-92137000D01*
X96657140Y-92137000D01*
X96651226Y-92137279D01*
X96630887Y-92139201D01*
X96615995Y-92142469D01*
X96515093Y-92177904D01*
X96444193Y-92181604D01*
X96384249Y-92148117D01*
X96349824Y-92113692D01*
X96315798Y-92051380D01*
X96320863Y-91980565D01*
X96356376Y-91932270D01*
X96355334Y-91931228D01*
X96463622Y-91822940D01*
X96473262Y-91810513D01*
X96547184Y-91685517D01*
X96553431Y-91671081D01*
X96594362Y-91530197D01*
X96596660Y-91517610D01*
X96598808Y-91490317D01*
X96599000Y-91485414D01*
X96599000Y-91404115D01*
X96594525Y-91388876D01*
X96593135Y-91387671D01*
X96585452Y-91386000D01*
X95674322Y-91386000D01*
X95606201Y-91365998D01*
X95585227Y-91349095D01*
X95498405Y-91262273D01*
X95464379Y-91199961D01*
X95461500Y-91173178D01*
X95461500Y-90967885D01*
X95861500Y-90967885D01*
X95865975Y-90983124D01*
X95867365Y-90984329D01*
X95875048Y-90986000D01*
X96580884Y-90986000D01*
X96596123Y-90981525D01*
X96597328Y-90980135D01*
X96598999Y-90972452D01*
X96598999Y-90886591D01*
X96598805Y-90881655D01*
X96596661Y-90854398D01*
X96594360Y-90841797D01*
X96553431Y-90700919D01*
X96547184Y-90686483D01*
X96473262Y-90561487D01*
X96463622Y-90549060D01*
X96360940Y-90446378D01*
X96348513Y-90436738D01*
X96223517Y-90362816D01*
X96209081Y-90356569D01*
X96068197Y-90315638D01*
X96055610Y-90313340D01*
X96028340Y-90311193D01*
X96023413Y-90311000D01*
X95879615Y-90311000D01*
X95864376Y-90315475D01*
X95863171Y-90316865D01*
X95861500Y-90324548D01*
X95861500Y-90967885D01*
X95461500Y-90967885D01*
X95461500Y-90329116D01*
X95457025Y-90313877D01*
X95455635Y-90312672D01*
X95447952Y-90311001D01*
X95299591Y-90311001D01*
X95294655Y-90311195D01*
X95267398Y-90313339D01*
X95254794Y-90315641D01*
X95181887Y-90336822D01*
X95110891Y-90336619D01*
X95049372Y-90295802D01*
X95045906Y-90291582D01*
X95042478Y-90286462D01*
X94898538Y-90142522D01*
X94729381Y-90029281D01*
X94723696Y-90026914D01*
X94723693Y-90026913D01*
X94547134Y-89953419D01*
X94541450Y-89951053D01*
X94373357Y-89917160D01*
X94346492Y-89911743D01*
X94346491Y-89911743D01*
X94341904Y-89910818D01*
X94337240Y-89910582D01*
X94337234Y-89910581D01*
X94337215Y-89910580D01*
X94337197Y-89910580D01*
X94335627Y-89910500D01*
X94198823Y-89910500D01*
X94130702Y-89890498D01*
X94109728Y-89873596D01*
X93907846Y-89671715D01*
X93873821Y-89609403D01*
X93871329Y-89572733D01*
X93874059Y-89538056D01*
X93884294Y-89408000D01*
X93865146Y-89164698D01*
X93827472Y-89007778D01*
X93809326Y-88932193D01*
X93809324Y-88932188D01*
X93808172Y-88927388D01*
X93806282Y-88922825D01*
X93806280Y-88922819D01*
X93716672Y-88706485D01*
X93716670Y-88706481D01*
X93714777Y-88701911D01*
X93587259Y-88493821D01*
X93458728Y-88343330D01*
X93429697Y-88278541D01*
X93440302Y-88208341D01*
X93487177Y-88155018D01*
X93554539Y-88135500D01*
X99353946Y-88135500D01*
X99414045Y-88150756D01*
G37*
%TD.AperFunction*%
%TA.AperFunction,Conductor*%
G36*
X86049093Y-92657092D02*
G01*
X86148619Y-92723719D01*
X86154304Y-92726086D01*
X86154307Y-92726087D01*
X86277111Y-92777205D01*
X86336550Y-92801947D01*
X86401400Y-92815023D01*
X86423539Y-92819487D01*
X86486362Y-92852559D01*
X86521332Y-92914346D01*
X86517347Y-92985230D01*
X86475671Y-93042707D01*
X86409536Y-93068528D01*
X86398634Y-93069001D01*
X86314591Y-93069001D01*
X86309655Y-93069195D01*
X86282398Y-93071339D01*
X86269797Y-93073640D01*
X86128919Y-93114569D01*
X86114483Y-93120816D01*
X85989487Y-93194738D01*
X85977060Y-93204378D01*
X85877595Y-93303843D01*
X85815283Y-93337869D01*
X85744468Y-93332804D01*
X85699405Y-93303843D01*
X85599940Y-93204378D01*
X85587513Y-93194738D01*
X85462517Y-93120816D01*
X85448081Y-93114569D01*
X85361779Y-93089496D01*
X85301943Y-93051283D01*
X85272266Y-92986787D01*
X85282169Y-92916484D01*
X85328509Y-92862696D01*
X85396932Y-92842499D01*
X85415626Y-92842499D01*
X85417226Y-92842418D01*
X85417235Y-92842418D01*
X85421904Y-92842182D01*
X85621450Y-92801947D01*
X85680889Y-92777205D01*
X85803693Y-92726087D01*
X85803696Y-92726086D01*
X85809381Y-92723719D01*
X85908907Y-92657092D01*
X85976641Y-92635818D01*
X86049093Y-92657092D01*
G37*
%TD.AperFunction*%
%TA.AperFunction,Conductor*%
G36*
X91171582Y-88155502D02*
G01*
X91218075Y-88209158D01*
X91228179Y-88279432D01*
X91199272Y-88343330D01*
X91070741Y-88493821D01*
X90943223Y-88701911D01*
X90941330Y-88706481D01*
X90941328Y-88706485D01*
X90851720Y-88922819D01*
X90851718Y-88922825D01*
X90849828Y-88927388D01*
X90848676Y-88932188D01*
X90848674Y-88932193D01*
X90830528Y-89007778D01*
X90792854Y-89164698D01*
X90773706Y-89408000D01*
X90792854Y-89651302D01*
X90811400Y-89728549D01*
X90848415Y-89882725D01*
X90849828Y-89888612D01*
X90851718Y-89893175D01*
X90851720Y-89893181D01*
X90941328Y-90109515D01*
X90943223Y-90114089D01*
X91070741Y-90322179D01*
X91229241Y-90507759D01*
X91414821Y-90666259D01*
X91622911Y-90793777D01*
X91627481Y-90795670D01*
X91627485Y-90795672D01*
X91843819Y-90885280D01*
X91843825Y-90885282D01*
X91848388Y-90887172D01*
X91853188Y-90888324D01*
X91853193Y-90888326D01*
X91961702Y-90914377D01*
X92085698Y-90944146D01*
X92167321Y-90950570D01*
X92173208Y-90951033D01*
X92239550Y-90976318D01*
X92252418Y-90987550D01*
X92361773Y-91096905D01*
X92395799Y-91159217D01*
X92390734Y-91230032D01*
X92361773Y-91275095D01*
X92014273Y-91622595D01*
X91951961Y-91656621D01*
X91925178Y-91659500D01*
X91680396Y-91659500D01*
X91616594Y-91641053D01*
X91616382Y-91641469D01*
X91614219Y-91640367D01*
X91613159Y-91640060D01*
X91606350Y-91635764D01*
X91600990Y-91633626D01*
X91600985Y-91633623D01*
X91406785Y-91556146D01*
X91401421Y-91554006D01*
X91395761Y-91552880D01*
X91395757Y-91552879D01*
X91190691Y-91512089D01*
X91190688Y-91512089D01*
X91185024Y-91510962D01*
X91179249Y-91510886D01*
X91179245Y-91510886D01*
X91068504Y-91509437D01*
X90964406Y-91508074D01*
X90958709Y-91509053D01*
X90958708Y-91509053D01*
X90752654Y-91544459D01*
X90752653Y-91544459D01*
X90746957Y-91545438D01*
X90539957Y-91621804D01*
X90534996Y-91624756D01*
X90534995Y-91624756D01*
X90509272Y-91640060D01*
X90350341Y-91734614D01*
X90184457Y-91880090D01*
X90047863Y-92053360D01*
X89945131Y-92248620D01*
X89943417Y-92254139D01*
X89941206Y-92259477D01*
X89938889Y-92258517D01*
X89905538Y-92308699D01*
X89840511Y-92337195D01*
X89770400Y-92326011D01*
X89717467Y-92278698D01*
X89698500Y-92212216D01*
X89698500Y-90506758D01*
X89700051Y-90487047D01*
X89701291Y-90479219D01*
X89702323Y-90472703D01*
X89700944Y-90446378D01*
X89698673Y-90403058D01*
X89698500Y-90396464D01*
X89698500Y-90375496D01*
X89698156Y-90372222D01*
X89696308Y-90354636D01*
X89695791Y-90348062D01*
X89692487Y-90285017D01*
X89692486Y-90285014D01*
X89692141Y-90278422D01*
X89688382Y-90264393D01*
X89684779Y-90244951D01*
X89683952Y-90237084D01*
X89683262Y-90230518D01*
X89661713Y-90164196D01*
X89659841Y-90157878D01*
X89655727Y-90142522D01*
X89641788Y-90090503D01*
X89635195Y-90077563D01*
X89627630Y-90059299D01*
X89623144Y-90045492D01*
X89619843Y-90039774D01*
X89588266Y-89985081D01*
X89585118Y-89979283D01*
X89556465Y-89923047D01*
X89556463Y-89923044D01*
X89553465Y-89917160D01*
X89544330Y-89905879D01*
X89533138Y-89889596D01*
X89525870Y-89877008D01*
X89521447Y-89872096D01*
X89521445Y-89872093D01*
X89479185Y-89825158D01*
X89474913Y-89820157D01*
X89461724Y-89803870D01*
X89446919Y-89789065D01*
X89442378Y-89784281D01*
X89395692Y-89732431D01*
X89383943Y-89723895D01*
X89368907Y-89711053D01*
X88977946Y-89320091D01*
X88965106Y-89305058D01*
X88960448Y-89298647D01*
X88956569Y-89293308D01*
X88904728Y-89246630D01*
X88899944Y-89242089D01*
X88885130Y-89227275D01*
X88877475Y-89221076D01*
X88868836Y-89214080D01*
X88863821Y-89209796D01*
X88816905Y-89167553D01*
X88816901Y-89167550D01*
X88811992Y-89163130D01*
X88799412Y-89155867D01*
X88783127Y-89144674D01*
X88776974Y-89139692D01*
X88776972Y-89139690D01*
X88771840Y-89135535D01*
X88709717Y-89103882D01*
X88703919Y-89100734D01*
X88649226Y-89069157D01*
X88649224Y-89069156D01*
X88643508Y-89065856D01*
X88629700Y-89061370D01*
X88611437Y-89053805D01*
X88604377Y-89050208D01*
X88598497Y-89047212D01*
X88531115Y-89029157D01*
X88524804Y-89027287D01*
X88458482Y-89005738D01*
X88444049Y-89004221D01*
X88424607Y-89000618D01*
X88410578Y-88996859D01*
X88403986Y-88996514D01*
X88403983Y-88996513D01*
X88340938Y-88993209D01*
X88334364Y-88992692D01*
X88316778Y-88990844D01*
X88316776Y-88990844D01*
X88313504Y-88990500D01*
X88292536Y-88990500D01*
X88285942Y-88990327D01*
X88222889Y-88987022D01*
X88222884Y-88987022D01*
X88216297Y-88986677D01*
X88201951Y-88988949D01*
X88182242Y-88990500D01*
X87973706Y-88990500D01*
X87905585Y-88970498D01*
X87884611Y-88953595D01*
X87803538Y-88872522D01*
X87634381Y-88759281D01*
X87628696Y-88756914D01*
X87628693Y-88756913D01*
X87452134Y-88683419D01*
X87446450Y-88681053D01*
X87246904Y-88640818D01*
X87242240Y-88640582D01*
X87242234Y-88640581D01*
X87242215Y-88640580D01*
X87242197Y-88640580D01*
X87240627Y-88640500D01*
X87239030Y-88640500D01*
X86890074Y-88640501D01*
X86542374Y-88640501D01*
X86540774Y-88640582D01*
X86540765Y-88640582D01*
X86536096Y-88640818D01*
X86336550Y-88681053D01*
X86330866Y-88683419D01*
X86154307Y-88756913D01*
X86154304Y-88756914D01*
X86148619Y-88759281D01*
X86143496Y-88762710D01*
X86143497Y-88762710D01*
X86049093Y-88825908D01*
X85981359Y-88847182D01*
X85908907Y-88825908D01*
X85814503Y-88762710D01*
X85814504Y-88762710D01*
X85809381Y-88759281D01*
X85803696Y-88756914D01*
X85803693Y-88756913D01*
X85627134Y-88683419D01*
X85621450Y-88681053D01*
X85421904Y-88640818D01*
X85417240Y-88640582D01*
X85417234Y-88640581D01*
X85417215Y-88640580D01*
X85417197Y-88640580D01*
X85415627Y-88640500D01*
X85414030Y-88640500D01*
X85065074Y-88640501D01*
X84717374Y-88640501D01*
X84715774Y-88640582D01*
X84715765Y-88640582D01*
X84711096Y-88640818D01*
X84511550Y-88681053D01*
X84505866Y-88683419D01*
X84329307Y-88756913D01*
X84329304Y-88756914D01*
X84323619Y-88759281D01*
X84318497Y-88762710D01*
X84279981Y-88788494D01*
X84212247Y-88809768D01*
X84139795Y-88788494D01*
X84047503Y-88726710D01*
X84042381Y-88723281D01*
X84036696Y-88720914D01*
X84036693Y-88720913D01*
X83860134Y-88647419D01*
X83854450Y-88645053D01*
X83654904Y-88604818D01*
X83650240Y-88604582D01*
X83650234Y-88604581D01*
X83650215Y-88604580D01*
X83650197Y-88604580D01*
X83648627Y-88604500D01*
X83647030Y-88604500D01*
X83310625Y-88604501D01*
X82975374Y-88604501D01*
X82973774Y-88604582D01*
X82973765Y-88604582D01*
X82969096Y-88604818D01*
X82769550Y-88645053D01*
X82581619Y-88723281D01*
X82556594Y-88740034D01*
X82488860Y-88761308D01*
X82416406Y-88740034D01*
X82391381Y-88723281D01*
X82203450Y-88645053D01*
X82003904Y-88604818D01*
X81999240Y-88604582D01*
X81999234Y-88604581D01*
X81999215Y-88604580D01*
X81999197Y-88604580D01*
X81997627Y-88604500D01*
X81996030Y-88604500D01*
X81659625Y-88604501D01*
X81324374Y-88604501D01*
X81322774Y-88604582D01*
X81322765Y-88604582D01*
X81318096Y-88604818D01*
X81118550Y-88645053D01*
X80930619Y-88723281D01*
X80905594Y-88740034D01*
X80837860Y-88761308D01*
X80765406Y-88740034D01*
X80740381Y-88723281D01*
X80552450Y-88645053D01*
X80352904Y-88604818D01*
X80348240Y-88604582D01*
X80348234Y-88604581D01*
X80348215Y-88604580D01*
X80348197Y-88604580D01*
X80346627Y-88604500D01*
X80345030Y-88604500D01*
X80008625Y-88604501D01*
X79673374Y-88604501D01*
X79671774Y-88604582D01*
X79671765Y-88604582D01*
X79667096Y-88604818D01*
X79467550Y-88645053D01*
X79461866Y-88647419D01*
X79285307Y-88720913D01*
X79285304Y-88720914D01*
X79279619Y-88723281D01*
X79274496Y-88726710D01*
X79274497Y-88726710D01*
X79150427Y-88809768D01*
X79110462Y-88836522D01*
X78966522Y-88980462D01*
X78963092Y-88985586D01*
X78963091Y-88985587D01*
X78856710Y-89144496D01*
X78856708Y-89144500D01*
X78853281Y-89149619D01*
X78850913Y-89155308D01*
X78848520Y-89159771D01*
X78798701Y-89210354D01*
X78758814Y-89224409D01*
X78560654Y-89258459D01*
X78560653Y-89258459D01*
X78554957Y-89259438D01*
X78347957Y-89335804D01*
X78158341Y-89448614D01*
X78107561Y-89493147D01*
X78090420Y-89508179D01*
X78026016Y-89538056D01*
X77960652Y-89530476D01*
X77955248Y-89528320D01*
X77944786Y-89524146D01*
X77944782Y-89524145D01*
X77939421Y-89522006D01*
X77933761Y-89520880D01*
X77933757Y-89520879D01*
X77728691Y-89480089D01*
X77728688Y-89480089D01*
X77723024Y-89478962D01*
X77717249Y-89478886D01*
X77717245Y-89478886D01*
X77606504Y-89477437D01*
X77502406Y-89476074D01*
X77496709Y-89477053D01*
X77496708Y-89477053D01*
X77479040Y-89480089D01*
X77355458Y-89501324D01*
X77284935Y-89493147D01*
X77230027Y-89448140D01*
X77208168Y-89380592D01*
X77226299Y-89311949D01*
X77264806Y-89271923D01*
X77730513Y-88965133D01*
X77735062Y-88962274D01*
X78271897Y-88640581D01*
X78524268Y-88489350D01*
X78528906Y-88486703D01*
X79042576Y-88207943D01*
X79147954Y-88150756D01*
X79208053Y-88135500D01*
X91103461Y-88135500D01*
X91171582Y-88155502D01*
G37*
%TD.AperFunction*%
%TD*%
M02*
