%TF.GenerationSoftware,KiCad,Pcbnew,(6.0.4-0)*%
%TF.CreationDate,2022-11-29T10:20:57+01:00*%
%TF.ProjectId,RoundScanner,526f756e-6453-4636-916e-6e65722e6b69,2*%
%TF.SameCoordinates,Original*%
%TF.FileFunction,Other,Comment*%
%FSLAX46Y46*%
G04 Gerber Fmt 4.6, Leading zero omitted, Abs format (unit mm)*
G04 Created by KiCad (PCBNEW (6.0.4-0)) date 2022-11-29 10:20:57*
%MOMM*%
%LPD*%
G01*
G04 APERTURE LIST*
%ADD10C,0.200000*%
%ADD11C,0.150000*%
%ADD12C,0.002000*%
%ADD13C,0.100000*%
G04 APERTURE END LIST*
D10*
X95580200Y-107569000D02*
G75*
G03*
X95580200Y-107569000I-6299200J0D01*
G01*
D11*
X105638383Y-107569000D02*
G75*
G03*
X105638383Y-107569000I-16357383J0D01*
G01*
D12*
%TO.C,U7*%
X74657857Y-118987333D02*
X74663904Y-118993380D01*
X74669952Y-119011523D01*
X74669952Y-119023619D01*
X74663904Y-119041761D01*
X74651809Y-119053857D01*
X74639714Y-119059904D01*
X74615523Y-119065952D01*
X74597380Y-119065952D01*
X74573190Y-119059904D01*
X74561095Y-119053857D01*
X74549000Y-119041761D01*
X74542952Y-119023619D01*
X74542952Y-119011523D01*
X74549000Y-118993380D01*
X74555047Y-118987333D01*
X74669952Y-118914761D02*
X74663904Y-118926857D01*
X74657857Y-118932904D01*
X74645761Y-118938952D01*
X74609476Y-118938952D01*
X74597380Y-118932904D01*
X74591333Y-118926857D01*
X74585285Y-118914761D01*
X74585285Y-118896619D01*
X74591333Y-118884523D01*
X74597380Y-118878476D01*
X74609476Y-118872428D01*
X74645761Y-118872428D01*
X74657857Y-118878476D01*
X74663904Y-118884523D01*
X74669952Y-118896619D01*
X74669952Y-118914761D01*
X74585285Y-118818000D02*
X74712285Y-118818000D01*
X74591333Y-118818000D02*
X74585285Y-118805904D01*
X74585285Y-118781714D01*
X74591333Y-118769619D01*
X74597380Y-118763571D01*
X74609476Y-118757523D01*
X74645761Y-118757523D01*
X74657857Y-118763571D01*
X74663904Y-118769619D01*
X74669952Y-118781714D01*
X74669952Y-118805904D01*
X74663904Y-118818000D01*
X74585285Y-118715190D02*
X74669952Y-118684952D01*
X74585285Y-118654714D02*
X74669952Y-118684952D01*
X74700190Y-118697047D01*
X74706238Y-118703095D01*
X74712285Y-118715190D01*
X74669952Y-118606333D02*
X74585285Y-118606333D01*
X74609476Y-118606333D02*
X74597380Y-118600285D01*
X74591333Y-118594238D01*
X74585285Y-118582142D01*
X74585285Y-118570047D01*
X74669952Y-118527714D02*
X74585285Y-118527714D01*
X74542952Y-118527714D02*
X74549000Y-118533761D01*
X74555047Y-118527714D01*
X74549000Y-118521666D01*
X74542952Y-118527714D01*
X74555047Y-118527714D01*
X74585285Y-118412809D02*
X74688095Y-118412809D01*
X74700190Y-118418857D01*
X74706238Y-118424904D01*
X74712285Y-118437000D01*
X74712285Y-118455142D01*
X74706238Y-118467238D01*
X74663904Y-118412809D02*
X74669952Y-118424904D01*
X74669952Y-118449095D01*
X74663904Y-118461190D01*
X74657857Y-118467238D01*
X74645761Y-118473285D01*
X74609476Y-118473285D01*
X74597380Y-118467238D01*
X74591333Y-118461190D01*
X74585285Y-118449095D01*
X74585285Y-118424904D01*
X74591333Y-118412809D01*
X74669952Y-118352333D02*
X74542952Y-118352333D01*
X74669952Y-118297904D02*
X74603428Y-118297904D01*
X74591333Y-118303952D01*
X74585285Y-118316047D01*
X74585285Y-118334190D01*
X74591333Y-118346285D01*
X74597380Y-118352333D01*
X74585285Y-118255571D02*
X74585285Y-118207190D01*
X74542952Y-118237428D02*
X74651809Y-118237428D01*
X74663904Y-118231380D01*
X74669952Y-118219285D01*
X74669952Y-118207190D01*
X74555047Y-118074142D02*
X74549000Y-118068095D01*
X74542952Y-118056000D01*
X74542952Y-118025761D01*
X74549000Y-118013666D01*
X74555047Y-118007619D01*
X74567142Y-118001571D01*
X74579238Y-118001571D01*
X74597380Y-118007619D01*
X74669952Y-118080190D01*
X74669952Y-118001571D01*
X74542952Y-117922952D02*
X74542952Y-117910857D01*
X74549000Y-117898761D01*
X74555047Y-117892714D01*
X74567142Y-117886666D01*
X74591333Y-117880619D01*
X74621571Y-117880619D01*
X74645761Y-117886666D01*
X74657857Y-117892714D01*
X74663904Y-117898761D01*
X74669952Y-117910857D01*
X74669952Y-117922952D01*
X74663904Y-117935047D01*
X74657857Y-117941095D01*
X74645761Y-117947142D01*
X74621571Y-117953190D01*
X74591333Y-117953190D01*
X74567142Y-117947142D01*
X74555047Y-117941095D01*
X74549000Y-117935047D01*
X74542952Y-117922952D01*
X74555047Y-117832238D02*
X74549000Y-117826190D01*
X74542952Y-117814095D01*
X74542952Y-117783857D01*
X74549000Y-117771761D01*
X74555047Y-117765714D01*
X74567142Y-117759666D01*
X74579238Y-117759666D01*
X74597380Y-117765714D01*
X74669952Y-117838285D01*
X74669952Y-117759666D01*
X74669952Y-117638714D02*
X74669952Y-117711285D01*
X74669952Y-117675000D02*
X74542952Y-117675000D01*
X74561095Y-117687095D01*
X74573190Y-117699190D01*
X74579238Y-117711285D01*
X74633666Y-117493571D02*
X74633666Y-117433095D01*
X74669952Y-117505666D02*
X74542952Y-117463333D01*
X74669952Y-117421000D01*
X74663904Y-117324238D02*
X74669952Y-117336333D01*
X74669952Y-117360523D01*
X74663904Y-117372619D01*
X74657857Y-117378666D01*
X74645761Y-117384714D01*
X74609476Y-117384714D01*
X74597380Y-117378666D01*
X74591333Y-117372619D01*
X74585285Y-117360523D01*
X74585285Y-117336333D01*
X74591333Y-117324238D01*
X74663904Y-117215380D02*
X74669952Y-117227476D01*
X74669952Y-117251666D01*
X74663904Y-117263761D01*
X74657857Y-117269809D01*
X74645761Y-117275857D01*
X74609476Y-117275857D01*
X74597380Y-117269809D01*
X74591333Y-117263761D01*
X74585285Y-117251666D01*
X74585285Y-117227476D01*
X74591333Y-117215380D01*
X74663904Y-117112571D02*
X74669952Y-117124666D01*
X74669952Y-117148857D01*
X74663904Y-117160952D01*
X74651809Y-117167000D01*
X74603428Y-117167000D01*
X74591333Y-117160952D01*
X74585285Y-117148857D01*
X74585285Y-117124666D01*
X74591333Y-117112571D01*
X74603428Y-117106523D01*
X74615523Y-117106523D01*
X74627619Y-117167000D01*
X74669952Y-117033952D02*
X74663904Y-117046047D01*
X74651809Y-117052095D01*
X74542952Y-117052095D01*
X74663904Y-116937190D02*
X74669952Y-116949285D01*
X74669952Y-116973476D01*
X74663904Y-116985571D01*
X74651809Y-116991619D01*
X74603428Y-116991619D01*
X74591333Y-116985571D01*
X74585285Y-116973476D01*
X74585285Y-116949285D01*
X74591333Y-116937190D01*
X74603428Y-116931142D01*
X74615523Y-116931142D01*
X74627619Y-116991619D01*
X74669952Y-116876714D02*
X74585285Y-116876714D01*
X74609476Y-116876714D02*
X74597380Y-116870666D01*
X74591333Y-116864619D01*
X74585285Y-116852523D01*
X74585285Y-116840428D01*
X74669952Y-116743666D02*
X74603428Y-116743666D01*
X74591333Y-116749714D01*
X74585285Y-116761809D01*
X74585285Y-116786000D01*
X74591333Y-116798095D01*
X74663904Y-116743666D02*
X74669952Y-116755761D01*
X74669952Y-116786000D01*
X74663904Y-116798095D01*
X74651809Y-116804142D01*
X74639714Y-116804142D01*
X74627619Y-116798095D01*
X74621571Y-116786000D01*
X74621571Y-116755761D01*
X74615523Y-116743666D01*
X74585285Y-116701333D02*
X74585285Y-116652952D01*
X74542952Y-116683190D02*
X74651809Y-116683190D01*
X74663904Y-116677142D01*
X74669952Y-116665047D01*
X74669952Y-116652952D01*
X74663904Y-116562238D02*
X74669952Y-116574333D01*
X74669952Y-116598523D01*
X74663904Y-116610619D01*
X74651809Y-116616666D01*
X74603428Y-116616666D01*
X74591333Y-116610619D01*
X74585285Y-116598523D01*
X74585285Y-116574333D01*
X74591333Y-116562238D01*
X74603428Y-116556190D01*
X74615523Y-116556190D01*
X74627619Y-116616666D01*
X74669952Y-116447333D02*
X74542952Y-116447333D01*
X74663904Y-116447333D02*
X74669952Y-116459428D01*
X74669952Y-116483619D01*
X74663904Y-116495714D01*
X74657857Y-116501761D01*
X74645761Y-116507809D01*
X74609476Y-116507809D01*
X74597380Y-116501761D01*
X74591333Y-116495714D01*
X74585285Y-116483619D01*
X74585285Y-116459428D01*
X74591333Y-116447333D01*
X74669952Y-116290095D02*
X74542952Y-116290095D01*
X74542952Y-116259857D01*
X74549000Y-116241714D01*
X74561095Y-116229619D01*
X74573190Y-116223571D01*
X74597380Y-116217523D01*
X74615523Y-116217523D01*
X74639714Y-116223571D01*
X74651809Y-116229619D01*
X74663904Y-116241714D01*
X74669952Y-116259857D01*
X74669952Y-116290095D01*
X74663904Y-116114714D02*
X74669952Y-116126809D01*
X74669952Y-116151000D01*
X74663904Y-116163095D01*
X74651809Y-116169142D01*
X74603428Y-116169142D01*
X74591333Y-116163095D01*
X74585285Y-116151000D01*
X74585285Y-116126809D01*
X74591333Y-116114714D01*
X74603428Y-116108666D01*
X74615523Y-116108666D01*
X74627619Y-116169142D01*
X74663904Y-116060285D02*
X74669952Y-116048190D01*
X74669952Y-116024000D01*
X74663904Y-116011904D01*
X74651809Y-116005857D01*
X74645761Y-116005857D01*
X74633666Y-116011904D01*
X74627619Y-116024000D01*
X74627619Y-116042142D01*
X74621571Y-116054238D01*
X74609476Y-116060285D01*
X74603428Y-116060285D01*
X74591333Y-116054238D01*
X74585285Y-116042142D01*
X74585285Y-116024000D01*
X74591333Y-116011904D01*
X74669952Y-115951428D02*
X74585285Y-115951428D01*
X74542952Y-115951428D02*
X74549000Y-115957476D01*
X74555047Y-115951428D01*
X74549000Y-115945380D01*
X74542952Y-115951428D01*
X74555047Y-115951428D01*
X74585285Y-115836523D02*
X74688095Y-115836523D01*
X74700190Y-115842571D01*
X74706238Y-115848619D01*
X74712285Y-115860714D01*
X74712285Y-115878857D01*
X74706238Y-115890952D01*
X74663904Y-115836523D02*
X74669952Y-115848619D01*
X74669952Y-115872809D01*
X74663904Y-115884904D01*
X74657857Y-115890952D01*
X74645761Y-115897000D01*
X74609476Y-115897000D01*
X74597380Y-115890952D01*
X74591333Y-115884904D01*
X74585285Y-115872809D01*
X74585285Y-115848619D01*
X74591333Y-115836523D01*
X74585285Y-115776047D02*
X74669952Y-115776047D01*
X74597380Y-115776047D02*
X74591333Y-115770000D01*
X74585285Y-115757904D01*
X74585285Y-115739761D01*
X74591333Y-115727666D01*
X74603428Y-115721619D01*
X74669952Y-115721619D01*
X74663904Y-115667190D02*
X74669952Y-115655095D01*
X74669952Y-115630904D01*
X74663904Y-115618809D01*
X74651809Y-115612761D01*
X74645761Y-115612761D01*
X74633666Y-115618809D01*
X74627619Y-115630904D01*
X74627619Y-115649047D01*
X74621571Y-115661142D01*
X74609476Y-115667190D01*
X74603428Y-115667190D01*
X74591333Y-115661142D01*
X74585285Y-115649047D01*
X74585285Y-115630904D01*
X74591333Y-115618809D01*
X74657857Y-115558333D02*
X74663904Y-115552285D01*
X74669952Y-115558333D01*
X74663904Y-115564380D01*
X74657857Y-115558333D01*
X74669952Y-115558333D01*
X74633666Y-115407142D02*
X74633666Y-115346666D01*
X74669952Y-115419238D02*
X74542952Y-115376904D01*
X74669952Y-115334571D01*
X74669952Y-115274095D02*
X74663904Y-115286190D01*
X74651809Y-115292238D01*
X74542952Y-115292238D01*
X74669952Y-115207571D02*
X74663904Y-115219666D01*
X74651809Y-115225714D01*
X74542952Y-115225714D01*
X74669952Y-115062428D02*
X74585285Y-115062428D01*
X74609476Y-115062428D02*
X74597380Y-115056380D01*
X74591333Y-115050333D01*
X74585285Y-115038238D01*
X74585285Y-115026142D01*
X74669952Y-114983809D02*
X74585285Y-114983809D01*
X74542952Y-114983809D02*
X74549000Y-114989857D01*
X74555047Y-114983809D01*
X74549000Y-114977761D01*
X74542952Y-114983809D01*
X74555047Y-114983809D01*
X74585285Y-114868904D02*
X74688095Y-114868904D01*
X74700190Y-114874952D01*
X74706238Y-114881000D01*
X74712285Y-114893095D01*
X74712285Y-114911238D01*
X74706238Y-114923333D01*
X74663904Y-114868904D02*
X74669952Y-114881000D01*
X74669952Y-114905190D01*
X74663904Y-114917285D01*
X74657857Y-114923333D01*
X74645761Y-114929380D01*
X74609476Y-114929380D01*
X74597380Y-114923333D01*
X74591333Y-114917285D01*
X74585285Y-114905190D01*
X74585285Y-114881000D01*
X74591333Y-114868904D01*
X74669952Y-114808428D02*
X74542952Y-114808428D01*
X74669952Y-114754000D02*
X74603428Y-114754000D01*
X74591333Y-114760047D01*
X74585285Y-114772142D01*
X74585285Y-114790285D01*
X74591333Y-114802380D01*
X74597380Y-114808428D01*
X74585285Y-114711666D02*
X74585285Y-114663285D01*
X74542952Y-114693523D02*
X74651809Y-114693523D01*
X74663904Y-114687476D01*
X74669952Y-114675380D01*
X74669952Y-114663285D01*
X74663904Y-114627000D02*
X74669952Y-114614904D01*
X74669952Y-114590714D01*
X74663904Y-114578619D01*
X74651809Y-114572571D01*
X74645761Y-114572571D01*
X74633666Y-114578619D01*
X74627619Y-114590714D01*
X74627619Y-114608857D01*
X74621571Y-114620952D01*
X74609476Y-114627000D01*
X74603428Y-114627000D01*
X74591333Y-114620952D01*
X74585285Y-114608857D01*
X74585285Y-114590714D01*
X74591333Y-114578619D01*
X74669952Y-114421380D02*
X74585285Y-114421380D01*
X74609476Y-114421380D02*
X74597380Y-114415333D01*
X74591333Y-114409285D01*
X74585285Y-114397190D01*
X74585285Y-114385095D01*
X74663904Y-114294380D02*
X74669952Y-114306476D01*
X74669952Y-114330666D01*
X74663904Y-114342761D01*
X74651809Y-114348809D01*
X74603428Y-114348809D01*
X74591333Y-114342761D01*
X74585285Y-114330666D01*
X74585285Y-114306476D01*
X74591333Y-114294380D01*
X74603428Y-114288333D01*
X74615523Y-114288333D01*
X74627619Y-114348809D01*
X74663904Y-114239952D02*
X74669952Y-114227857D01*
X74669952Y-114203666D01*
X74663904Y-114191571D01*
X74651809Y-114185523D01*
X74645761Y-114185523D01*
X74633666Y-114191571D01*
X74627619Y-114203666D01*
X74627619Y-114221809D01*
X74621571Y-114233904D01*
X74609476Y-114239952D01*
X74603428Y-114239952D01*
X74591333Y-114233904D01*
X74585285Y-114221809D01*
X74585285Y-114203666D01*
X74591333Y-114191571D01*
X74663904Y-114082714D02*
X74669952Y-114094809D01*
X74669952Y-114119000D01*
X74663904Y-114131095D01*
X74651809Y-114137142D01*
X74603428Y-114137142D01*
X74591333Y-114131095D01*
X74585285Y-114119000D01*
X74585285Y-114094809D01*
X74591333Y-114082714D01*
X74603428Y-114076666D01*
X74615523Y-114076666D01*
X74627619Y-114137142D01*
X74669952Y-114022238D02*
X74585285Y-114022238D01*
X74609476Y-114022238D02*
X74597380Y-114016190D01*
X74591333Y-114010142D01*
X74585285Y-113998047D01*
X74585285Y-113985952D01*
X74585285Y-113955714D02*
X74669952Y-113925476D01*
X74585285Y-113895238D01*
X74663904Y-113798476D02*
X74669952Y-113810571D01*
X74669952Y-113834761D01*
X74663904Y-113846857D01*
X74651809Y-113852904D01*
X74603428Y-113852904D01*
X74591333Y-113846857D01*
X74585285Y-113834761D01*
X74585285Y-113810571D01*
X74591333Y-113798476D01*
X74603428Y-113792428D01*
X74615523Y-113792428D01*
X74627619Y-113852904D01*
X74669952Y-113683571D02*
X74542952Y-113683571D01*
X74663904Y-113683571D02*
X74669952Y-113695666D01*
X74669952Y-113719857D01*
X74663904Y-113731952D01*
X74657857Y-113738000D01*
X74645761Y-113744047D01*
X74609476Y-113744047D01*
X74597380Y-113738000D01*
X74591333Y-113731952D01*
X74585285Y-113719857D01*
X74585285Y-113695666D01*
X74591333Y-113683571D01*
X74657857Y-113623095D02*
X74663904Y-113617047D01*
X74669952Y-113623095D01*
X74663904Y-113629142D01*
X74657857Y-113623095D01*
X74669952Y-113623095D01*
D11*
X70066880Y-121793880D02*
X70066880Y-121698642D01*
X70114500Y-121603404D01*
X70162119Y-121555785D01*
X70257357Y-121508166D01*
X70447833Y-121460547D01*
X70685928Y-121460547D01*
X70876404Y-121508166D01*
X70971642Y-121555785D01*
X71019261Y-121603404D01*
X71066880Y-121698642D01*
X71066880Y-121793880D01*
X71019261Y-121889119D01*
X70971642Y-121936738D01*
X70876404Y-121984357D01*
X70685928Y-122031976D01*
X70447833Y-122031976D01*
X70257357Y-121984357D01*
X70162119Y-121936738D01*
X70114500Y-121889119D01*
X70066880Y-121793880D01*
X70971642Y-121031976D02*
X71019261Y-120984357D01*
X71066880Y-121031976D01*
X71019261Y-121079595D01*
X70971642Y-121031976D01*
X71066880Y-121031976D01*
X70066880Y-120365309D02*
X70066880Y-120270071D01*
X70114500Y-120174833D01*
X70162119Y-120127214D01*
X70257357Y-120079595D01*
X70447833Y-120031976D01*
X70685928Y-120031976D01*
X70876404Y-120079595D01*
X70971642Y-120127214D01*
X71019261Y-120174833D01*
X71066880Y-120270071D01*
X71066880Y-120365309D01*
X71019261Y-120460547D01*
X70971642Y-120508166D01*
X70876404Y-120555785D01*
X70685928Y-120603404D01*
X70447833Y-120603404D01*
X70257357Y-120555785D01*
X70162119Y-120508166D01*
X70114500Y-120460547D01*
X70066880Y-120365309D01*
X71066880Y-119555785D02*
X71066880Y-119365309D01*
X71019261Y-119270071D01*
X70971642Y-119222452D01*
X70828785Y-119127214D01*
X70638309Y-119079595D01*
X70257357Y-119079595D01*
X70162119Y-119127214D01*
X70114500Y-119174833D01*
X70066880Y-119270071D01*
X70066880Y-119460547D01*
X70114500Y-119555785D01*
X70162119Y-119603404D01*
X70257357Y-119651023D01*
X70495452Y-119651023D01*
X70590690Y-119603404D01*
X70638309Y-119555785D01*
X70685928Y-119460547D01*
X70685928Y-119270071D01*
X70638309Y-119174833D01*
X70590690Y-119127214D01*
X70495452Y-119079595D01*
X70400214Y-118222452D02*
X71066880Y-118222452D01*
X70019261Y-118460547D02*
X70733547Y-118698642D01*
X70733547Y-118079595D01*
X71066880Y-117698642D02*
X70400214Y-117698642D01*
X70066880Y-117698642D02*
X70114500Y-117746261D01*
X70162119Y-117698642D01*
X70114500Y-117651023D01*
X70066880Y-117698642D01*
X70162119Y-117698642D01*
X70400214Y-117222452D02*
X71066880Y-117222452D01*
X70495452Y-117222452D02*
X70447833Y-117174833D01*
X70400214Y-117079595D01*
X70400214Y-116936738D01*
X70447833Y-116841500D01*
X70543071Y-116793880D01*
X71066880Y-116793880D01*
X70019261Y-115603404D02*
X71304976Y-116460547D01*
X70162119Y-115317690D02*
X70114500Y-115270071D01*
X70066880Y-115174833D01*
X70066880Y-114936738D01*
X70114500Y-114841500D01*
X70162119Y-114793880D01*
X70257357Y-114746261D01*
X70352595Y-114746261D01*
X70495452Y-114793880D01*
X71066880Y-115365309D01*
X71066880Y-114746261D01*
X70971642Y-114317690D02*
X71019261Y-114270071D01*
X71066880Y-114317690D01*
X71019261Y-114365309D01*
X70971642Y-114317690D01*
X71066880Y-114317690D01*
X70400214Y-113412928D02*
X71066880Y-113412928D01*
X70019261Y-113651023D02*
X70733547Y-113889119D01*
X70733547Y-113270071D01*
X71066880Y-112889119D02*
X70400214Y-112889119D01*
X70495452Y-112889119D02*
X70447833Y-112841500D01*
X70400214Y-112746261D01*
X70400214Y-112603404D01*
X70447833Y-112508166D01*
X70543071Y-112460547D01*
X71066880Y-112460547D01*
X70543071Y-112460547D02*
X70447833Y-112412928D01*
X70400214Y-112317690D01*
X70400214Y-112174833D01*
X70447833Y-112079595D01*
X70543071Y-112031976D01*
X71066880Y-112031976D01*
X71066880Y-111555785D02*
X70400214Y-111555785D01*
X70495452Y-111555785D02*
X70447833Y-111508166D01*
X70400214Y-111412928D01*
X70400214Y-111270071D01*
X70447833Y-111174833D01*
X70543071Y-111127214D01*
X71066880Y-111127214D01*
X70543071Y-111127214D02*
X70447833Y-111079595D01*
X70400214Y-110984357D01*
X70400214Y-110841500D01*
X70447833Y-110746261D01*
X70543071Y-110698642D01*
X71066880Y-110698642D01*
X74064880Y-111856071D02*
X74064880Y-111760833D01*
X74112500Y-111665595D01*
X74160119Y-111617976D01*
X74255357Y-111570357D01*
X74445833Y-111522738D01*
X74683928Y-111522738D01*
X74874404Y-111570357D01*
X74969642Y-111617976D01*
X75017261Y-111665595D01*
X75064880Y-111760833D01*
X75064880Y-111856071D01*
X75017261Y-111951309D01*
X74969642Y-111998928D01*
X74874404Y-112046547D01*
X74683928Y-112094166D01*
X74445833Y-112094166D01*
X74255357Y-112046547D01*
X74160119Y-111998928D01*
X74112500Y-111951309D01*
X74064880Y-111856071D01*
X74969642Y-111094166D02*
X75017261Y-111046547D01*
X75064880Y-111094166D01*
X75017261Y-111141785D01*
X74969642Y-111094166D01*
X75064880Y-111094166D01*
X74064880Y-110427500D02*
X74064880Y-110332261D01*
X74112500Y-110237023D01*
X74160119Y-110189404D01*
X74255357Y-110141785D01*
X74445833Y-110094166D01*
X74683928Y-110094166D01*
X74874404Y-110141785D01*
X74969642Y-110189404D01*
X75017261Y-110237023D01*
X75064880Y-110332261D01*
X75064880Y-110427500D01*
X75017261Y-110522738D01*
X74969642Y-110570357D01*
X74874404Y-110617976D01*
X74683928Y-110665595D01*
X74445833Y-110665595D01*
X74255357Y-110617976D01*
X74160119Y-110570357D01*
X74112500Y-110522738D01*
X74064880Y-110427500D01*
X74064880Y-109760833D02*
X74064880Y-109141785D01*
X74445833Y-109475119D01*
X74445833Y-109332261D01*
X74493452Y-109237023D01*
X74541071Y-109189404D01*
X74636309Y-109141785D01*
X74874404Y-109141785D01*
X74969642Y-109189404D01*
X75017261Y-109237023D01*
X75064880Y-109332261D01*
X75064880Y-109617976D01*
X75017261Y-109713214D01*
X74969642Y-109760833D01*
X74064880Y-108808452D02*
X74064880Y-108141785D01*
X75064880Y-108570357D01*
X75064880Y-107760833D02*
X74398214Y-107760833D01*
X74064880Y-107760833D02*
X74112500Y-107808452D01*
X74160119Y-107760833D01*
X74112500Y-107713214D01*
X74064880Y-107760833D01*
X74160119Y-107760833D01*
X74398214Y-107284642D02*
X75064880Y-107284642D01*
X74493452Y-107284642D02*
X74445833Y-107237023D01*
X74398214Y-107141785D01*
X74398214Y-106998928D01*
X74445833Y-106903690D01*
X74541071Y-106856071D01*
X75064880Y-106856071D01*
X74017261Y-105665595D02*
X75302976Y-106522738D01*
X74064880Y-105141785D02*
X74064880Y-105046547D01*
X74112500Y-104951309D01*
X74160119Y-104903690D01*
X74255357Y-104856071D01*
X74445833Y-104808452D01*
X74683928Y-104808452D01*
X74874404Y-104856071D01*
X74969642Y-104903690D01*
X75017261Y-104951309D01*
X75064880Y-105046547D01*
X75064880Y-105141785D01*
X75017261Y-105237023D01*
X74969642Y-105284642D01*
X74874404Y-105332261D01*
X74683928Y-105379880D01*
X74445833Y-105379880D01*
X74255357Y-105332261D01*
X74160119Y-105284642D01*
X74112500Y-105237023D01*
X74064880Y-105141785D01*
X74969642Y-104379880D02*
X75017261Y-104332261D01*
X75064880Y-104379880D01*
X75017261Y-104427500D01*
X74969642Y-104379880D01*
X75064880Y-104379880D01*
X75064880Y-103856071D02*
X75064880Y-103665595D01*
X75017261Y-103570357D01*
X74969642Y-103522738D01*
X74826785Y-103427500D01*
X74636309Y-103379880D01*
X74255357Y-103379880D01*
X74160119Y-103427500D01*
X74112500Y-103475119D01*
X74064880Y-103570357D01*
X74064880Y-103760833D01*
X74112500Y-103856071D01*
X74160119Y-103903690D01*
X74255357Y-103951309D01*
X74493452Y-103951309D01*
X74588690Y-103903690D01*
X74636309Y-103856071D01*
X74683928Y-103760833D01*
X74683928Y-103570357D01*
X74636309Y-103475119D01*
X74588690Y-103427500D01*
X74493452Y-103379880D01*
X74064880Y-102475119D02*
X74064880Y-102951309D01*
X74541071Y-102998928D01*
X74493452Y-102951309D01*
X74445833Y-102856071D01*
X74445833Y-102617976D01*
X74493452Y-102522738D01*
X74541071Y-102475119D01*
X74636309Y-102427500D01*
X74874404Y-102427500D01*
X74969642Y-102475119D01*
X75017261Y-102522738D01*
X75064880Y-102617976D01*
X75064880Y-102856071D01*
X75017261Y-102951309D01*
X74969642Y-102998928D01*
X75064880Y-101998928D02*
X74398214Y-101998928D01*
X74493452Y-101998928D02*
X74445833Y-101951309D01*
X74398214Y-101856071D01*
X74398214Y-101713214D01*
X74445833Y-101617976D01*
X74541071Y-101570357D01*
X75064880Y-101570357D01*
X74541071Y-101570357D02*
X74445833Y-101522738D01*
X74398214Y-101427500D01*
X74398214Y-101284642D01*
X74445833Y-101189404D01*
X74541071Y-101141785D01*
X75064880Y-101141785D01*
X75064880Y-100665595D02*
X74398214Y-100665595D01*
X74493452Y-100665595D02*
X74445833Y-100617976D01*
X74398214Y-100522738D01*
X74398214Y-100379880D01*
X74445833Y-100284642D01*
X74541071Y-100237023D01*
X75064880Y-100237023D01*
X74541071Y-100237023D02*
X74445833Y-100189404D01*
X74398214Y-100094166D01*
X74398214Y-99951309D01*
X74445833Y-99856071D01*
X74541071Y-99808452D01*
X75064880Y-99808452D01*
X49426880Y-127985071D02*
X49426880Y-127889833D01*
X49474500Y-127794595D01*
X49522119Y-127746976D01*
X49617357Y-127699357D01*
X49807833Y-127651738D01*
X50045928Y-127651738D01*
X50236404Y-127699357D01*
X50331642Y-127746976D01*
X50379261Y-127794595D01*
X50426880Y-127889833D01*
X50426880Y-127985071D01*
X50379261Y-128080309D01*
X50331642Y-128127928D01*
X50236404Y-128175547D01*
X50045928Y-128223166D01*
X49807833Y-128223166D01*
X49617357Y-128175547D01*
X49522119Y-128127928D01*
X49474500Y-128080309D01*
X49426880Y-127985071D01*
X50331642Y-127223166D02*
X50379261Y-127175547D01*
X50426880Y-127223166D01*
X50379261Y-127270785D01*
X50331642Y-127223166D01*
X50426880Y-127223166D01*
X49426880Y-126556500D02*
X49426880Y-126461261D01*
X49474500Y-126366023D01*
X49522119Y-126318404D01*
X49617357Y-126270785D01*
X49807833Y-126223166D01*
X50045928Y-126223166D01*
X50236404Y-126270785D01*
X50331642Y-126318404D01*
X50379261Y-126366023D01*
X50426880Y-126461261D01*
X50426880Y-126556500D01*
X50379261Y-126651738D01*
X50331642Y-126699357D01*
X50236404Y-126746976D01*
X50045928Y-126794595D01*
X49807833Y-126794595D01*
X49617357Y-126746976D01*
X49522119Y-126699357D01*
X49474500Y-126651738D01*
X49426880Y-126556500D01*
X49522119Y-125842214D02*
X49474500Y-125794595D01*
X49426880Y-125699357D01*
X49426880Y-125461261D01*
X49474500Y-125366023D01*
X49522119Y-125318404D01*
X49617357Y-125270785D01*
X49712595Y-125270785D01*
X49855452Y-125318404D01*
X50426880Y-125889833D01*
X50426880Y-125270785D01*
X49522119Y-124889833D02*
X49474500Y-124842214D01*
X49426880Y-124746976D01*
X49426880Y-124508880D01*
X49474500Y-124413642D01*
X49522119Y-124366023D01*
X49617357Y-124318404D01*
X49712595Y-124318404D01*
X49855452Y-124366023D01*
X50426880Y-124937452D01*
X50426880Y-124318404D01*
X50426880Y-123889833D02*
X49760214Y-123889833D01*
X49426880Y-123889833D02*
X49474500Y-123937452D01*
X49522119Y-123889833D01*
X49474500Y-123842214D01*
X49426880Y-123889833D01*
X49522119Y-123889833D01*
X49760214Y-123413642D02*
X50426880Y-123413642D01*
X49855452Y-123413642D02*
X49807833Y-123366023D01*
X49760214Y-123270785D01*
X49760214Y-123127928D01*
X49807833Y-123032690D01*
X49903071Y-122985071D01*
X50426880Y-122985071D01*
X49379261Y-121794595D02*
X50664976Y-122651738D01*
X49426880Y-121270785D02*
X49426880Y-121175547D01*
X49474500Y-121080309D01*
X49522119Y-121032690D01*
X49617357Y-120985071D01*
X49807833Y-120937452D01*
X50045928Y-120937452D01*
X50236404Y-120985071D01*
X50331642Y-121032690D01*
X50379261Y-121080309D01*
X50426880Y-121175547D01*
X50426880Y-121270785D01*
X50379261Y-121366023D01*
X50331642Y-121413642D01*
X50236404Y-121461261D01*
X50045928Y-121508880D01*
X49807833Y-121508880D01*
X49617357Y-121461261D01*
X49522119Y-121413642D01*
X49474500Y-121366023D01*
X49426880Y-121270785D01*
X50331642Y-120508880D02*
X50379261Y-120461261D01*
X50426880Y-120508880D01*
X50379261Y-120556500D01*
X50331642Y-120508880D01*
X50426880Y-120508880D01*
X49426880Y-119556500D02*
X49426880Y-120032690D01*
X49903071Y-120080309D01*
X49855452Y-120032690D01*
X49807833Y-119937452D01*
X49807833Y-119699357D01*
X49855452Y-119604119D01*
X49903071Y-119556500D01*
X49998309Y-119508880D01*
X50236404Y-119508880D01*
X50331642Y-119556500D01*
X50379261Y-119604119D01*
X50426880Y-119699357D01*
X50426880Y-119937452D01*
X50379261Y-120032690D01*
X50331642Y-120080309D01*
X49426880Y-118604119D02*
X49426880Y-119080309D01*
X49903071Y-119127928D01*
X49855452Y-119080309D01*
X49807833Y-118985071D01*
X49807833Y-118746976D01*
X49855452Y-118651738D01*
X49903071Y-118604119D01*
X49998309Y-118556500D01*
X50236404Y-118556500D01*
X50331642Y-118604119D01*
X50379261Y-118651738D01*
X50426880Y-118746976D01*
X50426880Y-118985071D01*
X50379261Y-119080309D01*
X50331642Y-119127928D01*
X50426880Y-118127928D02*
X49760214Y-118127928D01*
X49855452Y-118127928D02*
X49807833Y-118080309D01*
X49760214Y-117985071D01*
X49760214Y-117842214D01*
X49807833Y-117746976D01*
X49903071Y-117699357D01*
X50426880Y-117699357D01*
X49903071Y-117699357D02*
X49807833Y-117651738D01*
X49760214Y-117556500D01*
X49760214Y-117413642D01*
X49807833Y-117318404D01*
X49903071Y-117270785D01*
X50426880Y-117270785D01*
X50426880Y-116794595D02*
X49760214Y-116794595D01*
X49855452Y-116794595D02*
X49807833Y-116746976D01*
X49760214Y-116651738D01*
X49760214Y-116508880D01*
X49807833Y-116413642D01*
X49903071Y-116366023D01*
X50426880Y-116366023D01*
X49903071Y-116366023D02*
X49807833Y-116318404D01*
X49760214Y-116223166D01*
X49760214Y-116080309D01*
X49807833Y-115985071D01*
X49903071Y-115937452D01*
X50426880Y-115937452D01*
X79779880Y-121793880D02*
X79779880Y-121698642D01*
X79827500Y-121603404D01*
X79875119Y-121555785D01*
X79970357Y-121508166D01*
X80160833Y-121460547D01*
X80398928Y-121460547D01*
X80589404Y-121508166D01*
X80684642Y-121555785D01*
X80732261Y-121603404D01*
X80779880Y-121698642D01*
X80779880Y-121793880D01*
X80732261Y-121889119D01*
X80684642Y-121936738D01*
X80589404Y-121984357D01*
X80398928Y-122031976D01*
X80160833Y-122031976D01*
X79970357Y-121984357D01*
X79875119Y-121936738D01*
X79827500Y-121889119D01*
X79779880Y-121793880D01*
X80684642Y-121031976D02*
X80732261Y-120984357D01*
X80779880Y-121031976D01*
X80732261Y-121079595D01*
X80684642Y-121031976D01*
X80779880Y-121031976D01*
X79779880Y-120365309D02*
X79779880Y-120270071D01*
X79827500Y-120174833D01*
X79875119Y-120127214D01*
X79970357Y-120079595D01*
X80160833Y-120031976D01*
X80398928Y-120031976D01*
X80589404Y-120079595D01*
X80684642Y-120127214D01*
X80732261Y-120174833D01*
X80779880Y-120270071D01*
X80779880Y-120365309D01*
X80732261Y-120460547D01*
X80684642Y-120508166D01*
X80589404Y-120555785D01*
X80398928Y-120603404D01*
X80160833Y-120603404D01*
X79970357Y-120555785D01*
X79875119Y-120508166D01*
X79827500Y-120460547D01*
X79779880Y-120365309D01*
X79779880Y-119698642D02*
X79779880Y-119079595D01*
X80160833Y-119412928D01*
X80160833Y-119270071D01*
X80208452Y-119174833D01*
X80256071Y-119127214D01*
X80351309Y-119079595D01*
X80589404Y-119079595D01*
X80684642Y-119127214D01*
X80732261Y-119174833D01*
X80779880Y-119270071D01*
X80779880Y-119555785D01*
X80732261Y-119651023D01*
X80684642Y-119698642D01*
X80779880Y-118127214D02*
X80779880Y-118698642D01*
X80779880Y-118412928D02*
X79779880Y-118412928D01*
X79922738Y-118508166D01*
X80017976Y-118603404D01*
X80065595Y-118698642D01*
X80779880Y-117698642D02*
X80113214Y-117698642D01*
X79779880Y-117698642D02*
X79827500Y-117746261D01*
X79875119Y-117698642D01*
X79827500Y-117651023D01*
X79779880Y-117698642D01*
X79875119Y-117698642D01*
X80113214Y-117222452D02*
X80779880Y-117222452D01*
X80208452Y-117222452D02*
X80160833Y-117174833D01*
X80113214Y-117079595D01*
X80113214Y-116936738D01*
X80160833Y-116841500D01*
X80256071Y-116793880D01*
X80779880Y-116793880D01*
X79732261Y-115603404D02*
X81017976Y-116460547D01*
X79779880Y-115079595D02*
X79779880Y-114984357D01*
X79827500Y-114889119D01*
X79875119Y-114841500D01*
X79970357Y-114793880D01*
X80160833Y-114746261D01*
X80398928Y-114746261D01*
X80589404Y-114793880D01*
X80684642Y-114841500D01*
X80732261Y-114889119D01*
X80779880Y-114984357D01*
X80779880Y-115079595D01*
X80732261Y-115174833D01*
X80684642Y-115222452D01*
X80589404Y-115270071D01*
X80398928Y-115317690D01*
X80160833Y-115317690D01*
X79970357Y-115270071D01*
X79875119Y-115222452D01*
X79827500Y-115174833D01*
X79779880Y-115079595D01*
X80684642Y-114317690D02*
X80732261Y-114270071D01*
X80779880Y-114317690D01*
X80732261Y-114365309D01*
X80684642Y-114317690D01*
X80779880Y-114317690D01*
X80208452Y-113698642D02*
X80160833Y-113793880D01*
X80113214Y-113841500D01*
X80017976Y-113889119D01*
X79970357Y-113889119D01*
X79875119Y-113841500D01*
X79827500Y-113793880D01*
X79779880Y-113698642D01*
X79779880Y-113508166D01*
X79827500Y-113412928D01*
X79875119Y-113365309D01*
X79970357Y-113317690D01*
X80017976Y-113317690D01*
X80113214Y-113365309D01*
X80160833Y-113412928D01*
X80208452Y-113508166D01*
X80208452Y-113698642D01*
X80256071Y-113793880D01*
X80303690Y-113841500D01*
X80398928Y-113889119D01*
X80589404Y-113889119D01*
X80684642Y-113841500D01*
X80732261Y-113793880D01*
X80779880Y-113698642D01*
X80779880Y-113508166D01*
X80732261Y-113412928D01*
X80684642Y-113365309D01*
X80589404Y-113317690D01*
X80398928Y-113317690D01*
X80303690Y-113365309D01*
X80256071Y-113412928D01*
X80208452Y-113508166D01*
X80779880Y-112889119D02*
X80113214Y-112889119D01*
X80208452Y-112889119D02*
X80160833Y-112841500D01*
X80113214Y-112746261D01*
X80113214Y-112603404D01*
X80160833Y-112508166D01*
X80256071Y-112460547D01*
X80779880Y-112460547D01*
X80256071Y-112460547D02*
X80160833Y-112412928D01*
X80113214Y-112317690D01*
X80113214Y-112174833D01*
X80160833Y-112079595D01*
X80256071Y-112031976D01*
X80779880Y-112031976D01*
X80779880Y-111555785D02*
X80113214Y-111555785D01*
X80208452Y-111555785D02*
X80160833Y-111508166D01*
X80113214Y-111412928D01*
X80113214Y-111270071D01*
X80160833Y-111174833D01*
X80256071Y-111127214D01*
X80779880Y-111127214D01*
X80256071Y-111127214D02*
X80160833Y-111079595D01*
X80113214Y-110984357D01*
X80113214Y-110841500D01*
X80160833Y-110746261D01*
X80256071Y-110698642D01*
X80779880Y-110698642D01*
%TO.C,H2*%
X73886000Y-97556000D02*
G75*
G03*
X73886000Y-97556000I-1750000J0D01*
G01*
%TO.C,H1*%
X105382000Y-115717000D02*
G75*
G03*
X105382000Y-115717000I-1750000J0D01*
G01*
D13*
%TO.C,U7*%
X75562500Y-113471500D02*
X76832500Y-113471500D01*
X71792501Y-117541500D02*
X71665501Y-117287500D01*
X74612500Y-113471500D02*
X74358500Y-113598500D01*
X73662500Y-117541500D02*
X71538501Y-117541500D01*
X71665501Y-115395500D02*
X71919501Y-115395500D01*
X75816500Y-113344500D02*
X75562500Y-113471500D01*
X76416499Y-119954500D02*
X76416499Y-120208500D01*
X73062501Y-120081500D02*
X72808501Y-120208500D01*
X75816500Y-113598500D02*
X75816500Y-113344500D01*
X74612500Y-115141500D02*
X74612500Y-113217500D01*
X75562500Y-115141500D02*
X75562500Y-113217500D01*
X71665501Y-117287500D02*
X71919501Y-117287500D01*
X78829500Y-117445500D02*
X78575500Y-117445500D01*
X78702500Y-117191500D02*
X78702500Y-118461500D01*
X76162499Y-117191500D02*
X79083500Y-117191500D01*
X78829500Y-115237500D02*
X78575500Y-115237500D01*
X71919501Y-115395500D02*
X71792501Y-115141500D01*
X71792501Y-117541500D02*
X71792501Y-116271500D01*
X76162499Y-120081500D02*
X76416499Y-120208500D01*
X71919501Y-117287500D02*
X71792501Y-117541500D01*
X74358500Y-113344500D02*
X74612500Y-113471500D01*
X72808501Y-119954500D02*
X72808501Y-120208500D01*
X78702500Y-117191500D02*
X78829500Y-117445500D01*
X73062501Y-120081500D02*
X71792501Y-120081500D01*
X78702500Y-115491500D02*
X78829500Y-115237500D01*
X74612500Y-113471500D02*
X73342500Y-113471500D01*
X78702500Y-115491500D02*
X78702500Y-114221500D01*
X78702500Y-115491500D02*
X78575500Y-115237500D01*
X78702500Y-117191500D02*
X78575500Y-117445500D01*
X73662500Y-115141500D02*
X71538501Y-115141500D01*
X76162499Y-120081500D02*
X77432499Y-120081500D01*
X75562500Y-113471500D02*
X75816500Y-113598500D01*
X76162499Y-115491500D02*
X79083500Y-115491500D01*
X73062501Y-120081500D02*
X72808501Y-119954500D01*
X76162499Y-120081500D02*
X76416499Y-119954500D01*
X76162499Y-117191500D02*
X76162499Y-120462500D01*
X73062501Y-117191500D02*
X73062501Y-120462500D01*
X71792501Y-115141500D02*
X71792501Y-116411500D01*
X71792501Y-115141500D02*
X71665501Y-115395500D01*
X74358500Y-113598500D02*
X74358500Y-113344500D01*
%TD*%
M02*
