%TF.GenerationSoftware,KiCad,Pcbnew,(6.0.4-0)*%
%TF.CreationDate,2022-12-13T14:35:05+01:00*%
%TF.ProjectId,ControllerBoard,436f6e74-726f-46c6-9c65-72426f617264,rev?*%
%TF.SameCoordinates,Original*%
%TF.FileFunction,Soldermask,Top*%
%TF.FilePolarity,Negative*%
%FSLAX46Y46*%
G04 Gerber Fmt 4.6, Leading zero omitted, Abs format (unit mm)*
G04 Created by KiCad (PCBNEW (6.0.4-0)) date 2022-12-13 14:35:05*
%MOMM*%
%LPD*%
G01*
G04 APERTURE LIST*
G04 Aperture macros list*
%AMRoundRect*
0 Rectangle with rounded corners*
0 $1 Rounding radius*
0 $2 $3 $4 $5 $6 $7 $8 $9 X,Y pos of 4 corners*
0 Add a 4 corners polygon primitive as box body*
4,1,4,$2,$3,$4,$5,$6,$7,$8,$9,$2,$3,0*
0 Add four circle primitives for the rounded corners*
1,1,$1+$1,$2,$3*
1,1,$1+$1,$4,$5*
1,1,$1+$1,$6,$7*
1,1,$1+$1,$8,$9*
0 Add four rect primitives between the rounded corners*
20,1,$1+$1,$2,$3,$4,$5,0*
20,1,$1+$1,$4,$5,$6,$7,0*
20,1,$1+$1,$6,$7,$8,$9,0*
20,1,$1+$1,$8,$9,$2,$3,0*%
G04 Aperture macros list end*
%ADD10O,2.000000X1.700000*%
%ADD11RoundRect,0.250000X-0.750000X0.600000X-0.750000X-0.600000X0.750000X-0.600000X0.750000X0.600000X0*%
%ADD12RoundRect,0.150000X-0.150000X-0.625000X0.150000X-0.625000X0.150000X0.625000X-0.150000X0.625000X0*%
%ADD13RoundRect,0.250000X-0.350000X-0.650000X0.350000X-0.650000X0.350000X0.650000X-0.350000X0.650000X0*%
%ADD14R,1.600000X1.600000*%
%ADD15C,1.600000*%
%ADD16R,0.700000X1.050000*%
%ADD17R,0.760000X1.050000*%
%ADD18R,0.800000X1.050000*%
%ADD19O,0.900000X1.500000*%
%ADD20RoundRect,0.250000X-0.250000X-2.500000X0.250000X-2.500000X0.250000X2.500000X-0.250000X2.500000X0*%
%ADD21RoundRect,0.250000X-0.550000X-1.250000X0.550000X-1.250000X0.550000X1.250000X-0.550000X1.250000X0*%
%ADD22C,2.640000*%
%ADD23R,2.000000X2.000000*%
%ADD24C,2.000000*%
G04 APERTURE END LIST*
D10*
%TO.C,X1*%
X118410000Y-60178000D03*
D11*
X118410000Y-57678000D03*
%TD*%
D12*
%TO.C,CONN1*%
X104799000Y-58221000D03*
X105799000Y-58221000D03*
X106799000Y-58221000D03*
X107799000Y-58221000D03*
D13*
X109099000Y-55696000D03*
X103499000Y-55696000D03*
%TD*%
D14*
%TO.C,A1*%
X120796500Y-115062000D03*
D15*
X120796500Y-112522000D03*
X120796500Y-109982000D03*
X120796500Y-107442000D03*
X120796500Y-104902000D03*
X120796500Y-102362000D03*
X120796500Y-99822000D03*
X120796500Y-97282000D03*
X120796500Y-94742000D03*
X120796500Y-92202000D03*
X120796500Y-89662000D03*
X120796500Y-87122000D03*
X120796500Y-84582000D03*
X120796500Y-82042000D03*
X120796500Y-79502000D03*
X120796500Y-76962000D03*
X100476500Y-76962000D03*
X100476500Y-79502000D03*
X100476500Y-82042000D03*
X100476500Y-84582000D03*
X100476500Y-87122000D03*
X100476500Y-89662000D03*
X100476500Y-92202000D03*
X100476500Y-94742000D03*
X100476500Y-97282000D03*
X100476500Y-99822000D03*
X100476500Y-102362000D03*
X100476500Y-104902000D03*
%TD*%
D16*
%TO.C,J2*%
X110150000Y-168175000D03*
D17*
X112170000Y-168175000D03*
D18*
X113400000Y-168175000D03*
D16*
X111150000Y-168175000D03*
D17*
X109130000Y-168175000D03*
D18*
X107900000Y-168175000D03*
D19*
X104850000Y-174000000D03*
X116450000Y-174000000D03*
X104850000Y-171000000D03*
X116450000Y-171000000D03*
%TD*%
D20*
%TO.C,J1*%
X103744000Y-40370000D03*
X105744000Y-40370000D03*
X107744000Y-40370000D03*
X109744000Y-40370000D03*
X111744000Y-40370000D03*
X113744000Y-40370000D03*
X115744000Y-40370000D03*
X117744000Y-40370000D03*
D21*
X101344000Y-38120000D03*
X120144000Y-38120000D03*
%TD*%
D22*
%TO.C,BT1*%
X104622000Y-67139000D03*
X116612000Y-113619000D03*
D23*
X110617000Y-64389000D03*
D24*
X110617000Y-116379000D03*
%TD*%
M02*
