%TF.GenerationSoftware,KiCad,Pcbnew,(6.0.4-0)*%
%TF.CreationDate,2022-12-13T14:35:05+01:00*%
%TF.ProjectId,ControllerBoard,436f6e74-726f-46c6-9c65-72426f617264,rev?*%
%TF.SameCoordinates,Original*%
%TF.FileFunction,Legend,Bot*%
%TF.FilePolarity,Positive*%
%FSLAX46Y46*%
G04 Gerber Fmt 4.6, Leading zero omitted, Abs format (unit mm)*
G04 Created by KiCad (PCBNEW (6.0.4-0)) date 2022-12-13 14:35:05*
%MOMM*%
%LPD*%
G01*
G04 APERTURE LIST*
%ADD10C,0.150000*%
%ADD11C,0.120000*%
G04 APERTURE END LIST*
D10*
%TO.C,BT1*%
X104545571Y-63553285D02*
X104593190Y-63696142D01*
X104640809Y-63743761D01*
X104736047Y-63791380D01*
X104878904Y-63791380D01*
X104974142Y-63743761D01*
X105021761Y-63696142D01*
X105069380Y-63600904D01*
X105069380Y-63219952D01*
X104069380Y-63219952D01*
X104069380Y-63553285D01*
X104117000Y-63648523D01*
X104164619Y-63696142D01*
X104259857Y-63743761D01*
X104355095Y-63743761D01*
X104450333Y-63696142D01*
X104497952Y-63648523D01*
X104545571Y-63553285D01*
X104545571Y-63219952D01*
X104069380Y-64077095D02*
X104069380Y-64648523D01*
X105069380Y-64362809D02*
X104069380Y-64362809D01*
X105069380Y-65505666D02*
X105069380Y-64934238D01*
X105069380Y-65219952D02*
X104069380Y-65219952D01*
X104212238Y-65124714D01*
X104307476Y-65029476D01*
X104355095Y-64934238D01*
X110628428Y-60608047D02*
X110628428Y-61369952D01*
X111009380Y-60989000D02*
X110247476Y-60989000D01*
X110628428Y-119378047D02*
X110628428Y-120139952D01*
D11*
X118217000Y-62489000D02*
X118217000Y-80489000D01*
X116217000Y-98289000D02*
X116217000Y-82489000D01*
X106557000Y-114699000D02*
X114557000Y-114699000D01*
X102052000Y-61769000D02*
X102052000Y-119009000D01*
X108557000Y-112699000D02*
X112557000Y-112699000D01*
X103017000Y-62489000D02*
X118217000Y-62489000D01*
X103017000Y-100289000D02*
X103017000Y-118289000D01*
X105017000Y-82489000D02*
X105017000Y-98289000D01*
X103017000Y-62489000D02*
X103017000Y-80489000D01*
X119182000Y-61769000D02*
X102052000Y-61769000D01*
X102052000Y-119009000D02*
X119182000Y-119009000D01*
X103017000Y-118289000D02*
X118217000Y-118289000D01*
X119182000Y-119009000D02*
X119182000Y-61769000D01*
X113557000Y-113699000D02*
X107557000Y-113699000D01*
X109557000Y-111699000D02*
X111557000Y-111699000D01*
X118217000Y-100289000D02*
X118217000Y-118289000D01*
X105017000Y-82489000D02*
G75*
G03*
X103017000Y-80489000I-2000000J0D01*
G01*
X103017000Y-100289000D02*
G75*
G03*
X105017000Y-98289000I0J2000000D01*
G01*
X116217000Y-98289000D02*
G75*
G03*
X118217000Y-100289000I2000000J0D01*
G01*
X118217000Y-80489000D02*
G75*
G03*
X116217000Y-82489000I0J-2000000D01*
G01*
%TD*%
M02*
