%TF.GenerationSoftware,KiCad,Pcbnew,(6.0.4-0)*%
%TF.CreationDate,2022-11-29T11:04:19+01:00*%
%TF.ProjectId,ControllerBoard,436f6e74-726f-46c6-9c65-72426f617264,rev?*%
%TF.SameCoordinates,Original*%
%TF.FileFunction,Soldermask,Top*%
%TF.FilePolarity,Negative*%
%FSLAX46Y46*%
G04 Gerber Fmt 4.6, Leading zero omitted, Abs format (unit mm)*
G04 Created by KiCad (PCBNEW (6.0.4-0)) date 2022-11-29 11:04:19*
%MOMM*%
%LPD*%
G01*
G04 APERTURE LIST*
G04 Aperture macros list*
%AMRoundRect*
0 Rectangle with rounded corners*
0 $1 Rounding radius*
0 $2 $3 $4 $5 $6 $7 $8 $9 X,Y pos of 4 corners*
0 Add a 4 corners polygon primitive as box body*
4,1,4,$2,$3,$4,$5,$6,$7,$8,$9,$2,$3,0*
0 Add four circle primitives for the rounded corners*
1,1,$1+$1,$2,$3*
1,1,$1+$1,$4,$5*
1,1,$1+$1,$6,$7*
1,1,$1+$1,$8,$9*
0 Add four rect primitives between the rounded corners*
20,1,$1+$1,$2,$3,$4,$5,0*
20,1,$1+$1,$4,$5,$6,$7,0*
20,1,$1+$1,$6,$7,$8,$9,0*
20,1,$1+$1,$8,$9,$2,$3,0*%
G04 Aperture macros list end*
%ADD10RoundRect,0.250000X0.750000X-0.600000X0.750000X0.600000X-0.750000X0.600000X-0.750000X-0.600000X0*%
%ADD11O,2.000000X1.700000*%
%ADD12RoundRect,0.150000X-0.150000X-0.625000X0.150000X-0.625000X0.150000X0.625000X-0.150000X0.625000X0*%
%ADD13RoundRect,0.250000X-0.350000X-0.650000X0.350000X-0.650000X0.350000X0.650000X-0.350000X0.650000X0*%
%ADD14R,1.600000X1.600000*%
%ADD15C,1.600000*%
%ADD16R,0.700000X1.050000*%
%ADD17R,0.760000X1.050000*%
%ADD18R,0.800000X1.050000*%
%ADD19O,0.900000X1.500000*%
%ADD20RoundRect,0.250000X-0.250000X-2.500000X0.250000X-2.500000X0.250000X2.500000X-0.250000X2.500000X0*%
%ADD21RoundRect,0.250000X-0.550000X-1.250000X0.550000X-1.250000X0.550000X1.250000X-0.550000X1.250000X0*%
%ADD22C,2.640000*%
%ADD23R,2.000000X2.000000*%
%ADD24C,2.000000*%
G04 APERTURE END LIST*
D10*
%TO.C,X1*%
X110650000Y-37050000D03*
D11*
X110650000Y-34550000D03*
%TD*%
D12*
%TO.C,CONN1*%
X109150000Y-133875000D03*
X110150000Y-133875000D03*
X111150000Y-133875000D03*
X112150000Y-133875000D03*
D13*
X113450000Y-131350000D03*
X107850000Y-131350000D03*
%TD*%
D14*
%TO.C,A1*%
X100597500Y-75750000D03*
D15*
X100597500Y-78290000D03*
X100597500Y-80830000D03*
X100597500Y-83370000D03*
X100597500Y-85910000D03*
X100597500Y-88450000D03*
X100597500Y-90990000D03*
X100597500Y-93530000D03*
X100597500Y-96070000D03*
X100597500Y-98610000D03*
X100597500Y-101150000D03*
X100597500Y-103690000D03*
X100597500Y-106230000D03*
X100597500Y-108770000D03*
X100597500Y-111310000D03*
X100597500Y-113850000D03*
X120917500Y-113850000D03*
X120917500Y-111310000D03*
X120917500Y-108770000D03*
X120917500Y-106230000D03*
X120917500Y-103690000D03*
X120917500Y-101150000D03*
X120917500Y-98610000D03*
X120917500Y-96070000D03*
X120917500Y-93530000D03*
X120917500Y-90990000D03*
X120917500Y-88450000D03*
X120917500Y-85910000D03*
%TD*%
D16*
%TO.C,J2*%
X110150000Y-168175000D03*
D17*
X112170000Y-168175000D03*
D18*
X113400000Y-168175000D03*
D16*
X111150000Y-168175000D03*
D17*
X109130000Y-168175000D03*
D18*
X107900000Y-168175000D03*
D19*
X104850000Y-174000000D03*
X116450000Y-174000000D03*
X104850000Y-171000000D03*
X116450000Y-171000000D03*
%TD*%
D20*
%TO.C,J1*%
X103650000Y-22600000D03*
X105650000Y-22600000D03*
X107650000Y-22600000D03*
X109650000Y-22600000D03*
X111650000Y-22600000D03*
X113650000Y-22600000D03*
X115650000Y-22600000D03*
X117650000Y-22600000D03*
D21*
X101250000Y-20350000D03*
X120050000Y-20350000D03*
%TD*%
D22*
%TO.C,BT1*%
X104805000Y-69500000D03*
X116795000Y-115980000D03*
D23*
X110800000Y-66750000D03*
D24*
X110800000Y-118740000D03*
%TD*%
M02*
