%TF.GenerationSoftware,KiCad,Pcbnew,(6.0.4-0)*%
%TF.CreationDate,2022-11-29T11:04:19+01:00*%
%TF.ProjectId,ControllerBoard,436f6e74-726f-46c6-9c65-72426f617264,rev?*%
%TF.SameCoordinates,Original*%
%TF.FileFunction,Profile,NP*%
%FSLAX46Y46*%
G04 Gerber Fmt 4.6, Leading zero omitted, Abs format (unit mm)*
G04 Created by KiCad (PCBNEW (6.0.4-0)) date 2022-11-29 11:04:19*
%MOMM*%
%LPD*%
G01*
G04 APERTURE LIST*
%TA.AperFunction,Profile*%
%ADD10C,0.250000*%
%TD*%
%TA.AperFunction,Profile*%
%ADD11C,0.100000*%
%TD*%
%TA.AperFunction,Profile*%
%ADD12C,0.010000*%
%TD*%
G04 APERTURE END LIST*
D10*
X106150000Y-147583439D02*
G75*
G03*
X115150000Y-147583439I4500000J0D01*
G01*
X102775092Y-51758825D02*
X102816866Y-52257077D01*
X106150000Y-142583439D02*
X106150000Y-147583439D01*
X119496954Y-50937165D02*
X119995206Y-50978939D01*
D11*
X115800000Y-175000000D02*
X118150000Y-175000000D01*
D10*
X111800000Y-159199815D02*
X111800000Y-159699815D01*
D11*
X103150000Y-175000000D02*
X98150000Y-125000000D01*
D10*
X119803049Y-53270866D02*
G75*
G03*
X119995206Y-50978939I96051J1145966D01*
G01*
X119496962Y-50937072D02*
G75*
G03*
X119304794Y-53229124I-96062J-1146028D01*
G01*
X119304794Y-53229124D02*
X119803046Y-53270898D01*
D11*
X123150000Y-125000000D02*
X123150000Y-15000000D01*
X98150000Y-125000000D02*
X98150000Y-15000000D01*
D10*
X109500000Y-159199815D02*
X109500000Y-159699815D01*
X111800000Y-159199815D02*
G75*
G03*
X109500000Y-159199815I-1150000J0D01*
G01*
X100483134Y-51950986D02*
X100524908Y-52449238D01*
X102775067Y-51758827D02*
G75*
G03*
X100483134Y-51950986I-1145967J-96073D01*
G01*
X115150000Y-142583439D02*
X115150000Y-147583439D01*
X100524927Y-52449236D02*
G75*
G03*
X102816866Y-52257077I1145973J96036D01*
G01*
D11*
X105500000Y-175000000D02*
X103150000Y-175000000D01*
X123150000Y-125000000D02*
X118150000Y-175000000D01*
D10*
X109500000Y-159699815D02*
G75*
G03*
X111800000Y-159699815I1150000J0D01*
G01*
X115150000Y-142583439D02*
G75*
G03*
X106150000Y-142583439I-4500000J0D01*
G01*
D11*
X123150000Y-15000000D02*
X98150000Y-15000000D01*
D12*
%TO.C,J2*%
X106241620Y-168700000D02*
X115058380Y-168700000D01*
X115800000Y-175000000D02*
X115800000Y-169441620D01*
X105500000Y-169441620D02*
X105500000Y-175000000D01*
X105963510Y-168512501D02*
G75*
G03*
X105312500Y-169163510I-463509J-187500D01*
G01*
X105963510Y-168512500D02*
G75*
G03*
X106241620Y-168700010I278114J112494D01*
G01*
X115058380Y-168699984D02*
G75*
G03*
X115336490Y-168512500I20J299984D01*
G01*
X105500000Y-169441620D02*
G75*
G03*
X105312500Y-169163510I-300004J0D01*
G01*
X115987490Y-169163486D02*
G75*
G03*
X115799990Y-169441620I112510J-278114D01*
G01*
X115987499Y-169163510D02*
G75*
G03*
X115336490Y-168512500I-187339J463670D01*
G01*
%TD*%
M02*
