%TF.GenerationSoftware,KiCad,Pcbnew,(6.0.4-0)*%
%TF.CreationDate,2022-11-29T11:04:19+01:00*%
%TF.ProjectId,ControllerBoard,436f6e74-726f-46c6-9c65-72426f617264,rev?*%
%TF.SameCoordinates,Original*%
%TF.FileFunction,Copper,L1,Top*%
%TF.FilePolarity,Positive*%
%FSLAX46Y46*%
G04 Gerber Fmt 4.6, Leading zero omitted, Abs format (unit mm)*
G04 Created by KiCad (PCBNEW (6.0.4-0)) date 2022-11-29 11:04:19*
%MOMM*%
%LPD*%
G01*
G04 APERTURE LIST*
G04 Aperture macros list*
%AMRoundRect*
0 Rectangle with rounded corners*
0 $1 Rounding radius*
0 $2 $3 $4 $5 $6 $7 $8 $9 X,Y pos of 4 corners*
0 Add a 4 corners polygon primitive as box body*
4,1,4,$2,$3,$4,$5,$6,$7,$8,$9,$2,$3,0*
0 Add four circle primitives for the rounded corners*
1,1,$1+$1,$2,$3*
1,1,$1+$1,$4,$5*
1,1,$1+$1,$6,$7*
1,1,$1+$1,$8,$9*
0 Add four rect primitives between the rounded corners*
20,1,$1+$1,$2,$3,$4,$5,0*
20,1,$1+$1,$4,$5,$6,$7,0*
20,1,$1+$1,$6,$7,$8,$9,0*
20,1,$1+$1,$8,$9,$2,$3,0*%
G04 Aperture macros list end*
%ADD10C,0.300000*%
%TA.AperFunction,NonConductor*%
%ADD11C,0.300000*%
%TD*%
%TA.AperFunction,NonConductor*%
%ADD12C,0.200000*%
%TD*%
%TA.AperFunction,ComponentPad*%
%ADD13RoundRect,0.250000X0.750000X-0.600000X0.750000X0.600000X-0.750000X0.600000X-0.750000X-0.600000X0*%
%TD*%
%TA.AperFunction,ComponentPad*%
%ADD14O,2.000000X1.700000*%
%TD*%
%TA.AperFunction,SMDPad,CuDef*%
%ADD15RoundRect,0.150000X-0.150000X-0.625000X0.150000X-0.625000X0.150000X0.625000X-0.150000X0.625000X0*%
%TD*%
%TA.AperFunction,SMDPad,CuDef*%
%ADD16RoundRect,0.250000X-0.350000X-0.650000X0.350000X-0.650000X0.350000X0.650000X-0.350000X0.650000X0*%
%TD*%
%TA.AperFunction,ComponentPad*%
%ADD17R,1.600000X1.600000*%
%TD*%
%TA.AperFunction,ComponentPad*%
%ADD18C,1.600000*%
%TD*%
%TA.AperFunction,SMDPad,CuDef*%
%ADD19R,0.700000X1.050000*%
%TD*%
%TA.AperFunction,SMDPad,CuDef*%
%ADD20R,0.760000X1.050000*%
%TD*%
%TA.AperFunction,SMDPad,CuDef*%
%ADD21R,0.800000X1.050000*%
%TD*%
%TA.AperFunction,ComponentPad*%
%ADD22O,0.900000X1.500000*%
%TD*%
%TA.AperFunction,SMDPad,CuDef*%
%ADD23RoundRect,0.250000X-0.250000X-2.500000X0.250000X-2.500000X0.250000X2.500000X-0.250000X2.500000X0*%
%TD*%
%TA.AperFunction,SMDPad,CuDef*%
%ADD24RoundRect,0.250000X-0.550000X-1.250000X0.550000X-1.250000X0.550000X1.250000X-0.550000X1.250000X0*%
%TD*%
%TA.AperFunction,ComponentPad*%
%ADD25R,2.000000X2.000000*%
%TD*%
%TA.AperFunction,ComponentPad*%
%ADD26C,2.000000*%
%TD*%
%TA.AperFunction,ViaPad*%
%ADD27C,0.800000*%
%TD*%
%TA.AperFunction,Conductor*%
%ADD28C,0.500000*%
%TD*%
G04 APERTURE END LIST*
D10*
D11*
X103721428Y-4521429D02*
X103792857Y-4450001D01*
X103935714Y-4378572D01*
X104292857Y-4378572D01*
X104435714Y-4450001D01*
X104507142Y-4521429D01*
X104578571Y-4664286D01*
X104578571Y-4807143D01*
X104507142Y-5021429D01*
X103650000Y-5878572D01*
X104578571Y-5878572D01*
X105935714Y-4378572D02*
X105221428Y-4378572D01*
X105150000Y-5092858D01*
X105221428Y-5021429D01*
X105364285Y-4950001D01*
X105721428Y-4950001D01*
X105864285Y-5021429D01*
X105935714Y-5092858D01*
X106007142Y-5235715D01*
X106007142Y-5592858D01*
X105935714Y-5735715D01*
X105864285Y-5807143D01*
X105721428Y-5878572D01*
X105364285Y-5878572D01*
X105221428Y-5807143D01*
X105150000Y-5735715D01*
X106650000Y-5735715D02*
X106721428Y-5807143D01*
X106650000Y-5878572D01*
X106578571Y-5807143D01*
X106650000Y-5735715D01*
X106650000Y-5878572D01*
X107650000Y-4378572D02*
X107792857Y-4378572D01*
X107935714Y-4450001D01*
X108007142Y-4521429D01*
X108078571Y-4664286D01*
X108150000Y-4950001D01*
X108150000Y-5307143D01*
X108078571Y-5592858D01*
X108007142Y-5735715D01*
X107935714Y-5807143D01*
X107792857Y-5878572D01*
X107650000Y-5878572D01*
X107507142Y-5807143D01*
X107435714Y-5735715D01*
X107364285Y-5592858D01*
X107292857Y-5307143D01*
X107292857Y-4950001D01*
X107364285Y-4664286D01*
X107435714Y-4521429D01*
X107507142Y-4450001D01*
X107650000Y-4378572D01*
X109078571Y-4378572D02*
X109221428Y-4378572D01*
X109364285Y-4450001D01*
X109435714Y-4521429D01*
X109507142Y-4664286D01*
X109578571Y-4950001D01*
X109578571Y-5307143D01*
X109507142Y-5592858D01*
X109435714Y-5735715D01*
X109364285Y-5807143D01*
X109221428Y-5878572D01*
X109078571Y-5878572D01*
X108935714Y-5807143D01*
X108864285Y-5735715D01*
X108792857Y-5592858D01*
X108721428Y-5307143D01*
X108721428Y-4950001D01*
X108792857Y-4664286D01*
X108864285Y-4521429D01*
X108935714Y-4450001D01*
X109078571Y-4378572D01*
X110507142Y-4378572D02*
X110650000Y-4378572D01*
X110792857Y-4450001D01*
X110864285Y-4521429D01*
X110935714Y-4664286D01*
X111007142Y-4950001D01*
X111007142Y-5307143D01*
X110935714Y-5592858D01*
X110864285Y-5735715D01*
X110792857Y-5807143D01*
X110650000Y-5878572D01*
X110507142Y-5878572D01*
X110364285Y-5807143D01*
X110292857Y-5735715D01*
X110221428Y-5592858D01*
X110150000Y-5307143D01*
X110150000Y-4950001D01*
X110221428Y-4664286D01*
X110292857Y-4521429D01*
X110364285Y-4450001D01*
X110507142Y-4378572D01*
X111935714Y-4378572D02*
X112078571Y-4378572D01*
X112221428Y-4450001D01*
X112292857Y-4521429D01*
X112364285Y-4664286D01*
X112435714Y-4950001D01*
X112435714Y-5307143D01*
X112364285Y-5592858D01*
X112292857Y-5735715D01*
X112221428Y-5807143D01*
X112078571Y-5878572D01*
X111935714Y-5878572D01*
X111792857Y-5807143D01*
X111721428Y-5735715D01*
X111650000Y-5592858D01*
X111578571Y-5307143D01*
X111578571Y-4950001D01*
X111650000Y-4664286D01*
X111721428Y-4521429D01*
X111792857Y-4450001D01*
X111935714Y-4378572D01*
X114221428Y-5878572D02*
X114221428Y-4878572D01*
X114221428Y-5021429D02*
X114292857Y-4950001D01*
X114435714Y-4878572D01*
X114650000Y-4878572D01*
X114792857Y-4950001D01*
X114864285Y-5092858D01*
X114864285Y-5878572D01*
X114864285Y-5092858D02*
X114935714Y-4950001D01*
X115078571Y-4878572D01*
X115292857Y-4878572D01*
X115435714Y-4950001D01*
X115507142Y-5092858D01*
X115507142Y-5878572D01*
X116221428Y-5878572D02*
X116221428Y-4878572D01*
X116221428Y-5021429D02*
X116292857Y-4950001D01*
X116435714Y-4878572D01*
X116650000Y-4878572D01*
X116792857Y-4950001D01*
X116864285Y-5092858D01*
X116864285Y-5878572D01*
X116864285Y-5092858D02*
X116935714Y-4950001D01*
X117078571Y-4878572D01*
X117292857Y-4878572D01*
X117435714Y-4950001D01*
X117507142Y-5092858D01*
X117507142Y-5878572D01*
D12*
X123150000Y-14500000D02*
X123150000Y-6413581D01*
X98150000Y-14500000D02*
X98150000Y-6413581D01*
X123150000Y-7000001D02*
X98150000Y-7000001D01*
X123150000Y-7000001D02*
X98150000Y-7000001D01*
X123150000Y-7000001D02*
X122023496Y-6413580D01*
X123150000Y-7000001D02*
X122023496Y-7586422D01*
X98150000Y-7000001D02*
X99276504Y-7586422D01*
X98150000Y-7000001D02*
X99276504Y-6413580D01*
D13*
%TO.P,X1,1,1*%
%TO.N,Net-(A1-Pad19)*%
X110650000Y-37050000D03*
D14*
%TO.P,X1,2,2*%
%TO.N,3.3V*%
X110650000Y-34550000D03*
%TD*%
D15*
%TO.P,CONN1,1,GND*%
%TO.N,GND*%
X109150000Y-133875000D03*
%TO.P,CONN1,2,V+*%
%TO.N,3.3V*%
X110150000Y-133875000D03*
%TO.P,CONN1,3,SDA*%
%TO.N,Net-(CONN1-Pad3)*%
X111150000Y-133875000D03*
%TO.P,CONN1,4,SCL*%
%TO.N,Net-(A1-Pad18)*%
X112150000Y-133875000D03*
D16*
%TO.P,CONN1,MP*%
%TO.N,N/C*%
X113450000Y-131350000D03*
X107850000Y-131350000D03*
%TD*%
D17*
%TO.P,A1,1,~{RESET}*%
%TO.N,unconnected-(A1-Pad1)*%
X100597500Y-75750000D03*
D18*
%TO.P,A1,2,3V3*%
%TO.N,3.3V*%
X100597500Y-78290000D03*
%TO.P,A1,3,NC*%
%TO.N,unconnected-(A1-Pad3)*%
X100597500Y-80830000D03*
%TO.P,A1,4,GND*%
%TO.N,GND*%
X100597500Y-83370000D03*
%TO.P,A1,5,DAC2/A0*%
%TO.N,unconnected-(A1-Pad5)*%
X100597500Y-85910000D03*
%TO.P,A1,6,DAC1/A1*%
%TO.N,unconnected-(A1-Pad6)*%
X100597500Y-88450000D03*
%TO.P,A1,7,I34/A2*%
%TO.N,unconnected-(A1-Pad7)*%
X100597500Y-90990000D03*
%TO.P,A1,8,I39/A3*%
%TO.N,unconnected-(A1-Pad8)*%
X100597500Y-93530000D03*
%TO.P,A1,9,IO36/A4*%
%TO.N,unconnected-(A1-Pad9)*%
X100597500Y-96070000D03*
%TO.P,A1,10,IO4/A5*%
%TO.N,unconnected-(A1-Pad10)*%
X100597500Y-98610000D03*
%TO.P,A1,11,SCK/IO5*%
%TO.N,Net-(A1-Pad11)*%
X100597500Y-101150000D03*
%TO.P,A1,12,MOSI/IO18*%
%TO.N,Net-(A1-Pad12)*%
X100597500Y-103690000D03*
%TO.P,A1,13,MISO/IO19*%
%TO.N,unconnected-(A1-Pad13)*%
X100597500Y-106230000D03*
%TO.P,A1,14,RX/IO16*%
%TO.N,unconnected-(A1-Pad14)*%
X100597500Y-108770000D03*
%TO.P,A1,15,TX/IO17*%
%TO.N,unconnected-(A1-Pad15)*%
X100597500Y-111310000D03*
%TO.P,A1,16,IO21*%
%TO.N,unconnected-(A1-Pad16)*%
X100597500Y-113850000D03*
%TO.P,A1,17,SDA/IO23*%
%TO.N,Net-(CONN1-Pad3)*%
X120917500Y-113850000D03*
%TO.P,A1,18,SCL/IO22*%
%TO.N,Net-(A1-Pad18)*%
X120917500Y-111310000D03*
%TO.P,A1,19,A6/IO14*%
%TO.N,Net-(A1-Pad19)*%
X120917500Y-108770000D03*
%TO.P,A1,20,A7/IO32*%
%TO.N,Net-(A1-Pad20)*%
X120917500Y-106230000D03*
%TO.P,A1,21,A8/IO15*%
%TO.N,Net-(A1-Pad21)*%
X120917500Y-103690000D03*
%TO.P,A1,22,A9/IO33*%
%TO.N,Net-(A1-Pad22)*%
X120917500Y-101150000D03*
%TO.P,A1,23,A10/IO27*%
%TO.N,Net-(A1-Pad23)*%
X120917500Y-98610000D03*
%TO.P,A1,24,A11/IO12*%
%TO.N,unconnected-(A1-Pad24)*%
X120917500Y-96070000D03*
%TO.P,A1,25,A12/IO13*%
%TO.N,unconnected-(A1-Pad25)*%
X120917500Y-93530000D03*
%TO.P,A1,26,USB*%
%TO.N,Net-(A1-Pad26)*%
X120917500Y-90990000D03*
%TO.P,A1,27,EN*%
%TO.N,unconnected-(A1-Pad27)*%
X120917500Y-88450000D03*
%TO.P,A1,28,VBAT*%
%TO.N,Net-(A1-Pad28)*%
X120917500Y-85910000D03*
%TD*%
D19*
%TO.P,J2,A5,CC1*%
%TO.N,unconnected-(J2-PadA5)*%
X110150000Y-168175000D03*
D20*
%TO.P,J2,A9,VBUS*%
%TO.N,Net-(A1-Pad26)*%
X112170000Y-168175000D03*
D21*
%TO.P,J2,A12,GND*%
%TO.N,GND*%
X113400000Y-168175000D03*
D19*
%TO.P,J2,B5,CC2*%
%TO.N,unconnected-(J2-PadB5)*%
X111150000Y-168175000D03*
D20*
%TO.P,J2,B9,VBUS*%
%TO.N,Net-(A1-Pad26)*%
X109130000Y-168175000D03*
D21*
%TO.P,J2,B12,GND*%
%TO.N,GND*%
X107900000Y-168175000D03*
D22*
%TO.P,J2,S1,SHIELD*%
%TO.N,Net-(J2-PadS1)*%
X104850000Y-174000000D03*
%TO.P,J2,S2,SHIELD*%
X116450000Y-174000000D03*
%TO.P,J2,S3,SHIELD*%
X104850000Y-171000000D03*
%TO.P,J2,S4,SHIELD*%
X116450000Y-171000000D03*
%TD*%
D23*
%TO.P,J1,1,Pin_1*%
%TO.N,3.3V*%
X103650000Y-22600000D03*
%TO.P,J1,2,Pin_2*%
%TO.N,GND*%
X105650000Y-22600000D03*
%TO.P,J1,3,Pin_3*%
%TO.N,Net-(A1-Pad12)*%
X107650000Y-22600000D03*
%TO.P,J1,4,Pin_4*%
%TO.N,Net-(A1-Pad11)*%
X109650000Y-22600000D03*
%TO.P,J1,5,Pin_5*%
%TO.N,Net-(A1-Pad20)*%
X111650000Y-22600000D03*
%TO.P,J1,6,Pin_6*%
%TO.N,Net-(A1-Pad21)*%
X113650000Y-22600000D03*
%TO.P,J1,7,Pin_7*%
%TO.N,Net-(A1-Pad22)*%
X115650000Y-22600000D03*
%TO.P,J1,8,Pin_8*%
%TO.N,Net-(A1-Pad23)*%
X117650000Y-22600000D03*
D24*
%TO.P,J1,MP,MountPin*%
%TO.N,GND*%
X101250000Y-20350000D03*
X120050000Y-20350000D03*
%TD*%
D25*
%TO.P,BT1,1,+*%
%TO.N,Net-(A1-Pad28)*%
X110800000Y-66750000D03*
D26*
%TO.P,BT1,2,-*%
%TO.N,GND*%
X110800000Y-118740000D03*
%TD*%
D27*
%TO.N,GND*%
X100838000Y-46863000D03*
X100711000Y-36195000D03*
X120396000Y-24892000D03*
X108350000Y-163200000D03*
X108585000Y-16637000D03*
X116050000Y-163200000D03*
X110998000Y-60833000D03*
X120650000Y-28448000D03*
X100457000Y-65659000D03*
X99822000Y-125984000D03*
X120523000Y-64262000D03*
X111379000Y-30480000D03*
X110998000Y-55499000D03*
X116570183Y-128000183D03*
X109220000Y-46101000D03*
X108458000Y-99568000D03*
X102616000Y-141478000D03*
X107442000Y-161163000D03*
X110490000Y-89281000D03*
X120396000Y-71882000D03*
X113538000Y-160528000D03*
X101346000Y-117094000D03*
X103200000Y-122750000D03*
X103886000Y-110109000D03*
X117602000Y-164338000D03*
X105664000Y-26797000D03*
X101473000Y-24511000D03*
X120142000Y-46101000D03*
X102235000Y-131953000D03*
X108966000Y-125095000D03*
X112268000Y-97028000D03*
X103124000Y-153162000D03*
X105918000Y-39878000D03*
X107315000Y-29337000D03*
X110617000Y-50800000D03*
X105537000Y-47752000D03*
X119380000Y-133604000D03*
X108204000Y-114808000D03*
X120777000Y-79248000D03*
X120650000Y-41148000D03*
X113411000Y-110490000D03*
X119888000Y-58166000D03*
X112268000Y-94615000D03*
X109220000Y-108712000D03*
X113792000Y-154559000D03*
X101219000Y-29210000D03*
X101727000Y-16383000D03*
X100711000Y-56134000D03*
X116586000Y-110744000D03*
X117348000Y-125603000D03*
X118110000Y-137922000D03*
X112395000Y-106934000D03*
X108839000Y-104775000D03*
X107315000Y-154305000D03*
X114808000Y-127254000D03*
X110871000Y-83947000D03*
X117348000Y-16510000D03*
X102870000Y-145669000D03*
X101092000Y-43180000D03*
X118999000Y-142113000D03*
X118491000Y-155194000D03*
X109220000Y-42037000D03*
X107696000Y-137160000D03*
X105791000Y-44069000D03*
X116459000Y-123063000D03*
X109474000Y-111633000D03*
X109982000Y-30099000D03*
X102997000Y-127508000D03*
X110871000Y-78994000D03*
X105918000Y-34290000D03*
X103886000Y-91948000D03*
X120142000Y-34544000D03*
X116459000Y-118999000D03*
X104775000Y-77724000D03*
X101600000Y-136271000D03*
X104902000Y-72644000D03*
X110744000Y-96393000D03*
X105283000Y-57658000D03*
%TO.N,Net-(A1-Pad11)*%
X109650000Y-27552500D03*
%TO.N,Net-(A1-Pad12)*%
X107650000Y-27552500D03*
%TO.N,Net-(A1-Pad20)*%
X111650000Y-27552500D03*
%TO.N,Net-(A1-Pad21)*%
X113650000Y-27552500D03*
%TO.N,Net-(A1-Pad22)*%
X115650000Y-27552500D03*
%TO.N,Net-(A1-Pad23)*%
X117650000Y-27552500D03*
%TD*%
D28*
%TO.N,3.3V*%
X110150000Y-128565000D02*
X110150000Y-133875000D01*
X103650000Y-67350000D02*
X102800000Y-68200000D01*
X103650000Y-22600000D02*
X103650000Y-27650000D01*
X105750000Y-124165000D02*
X110150000Y-128565000D01*
X103700000Y-27650000D02*
X103650000Y-27650000D01*
X110600000Y-34550000D02*
X103700000Y-27650000D01*
X105750000Y-83442500D02*
X105750000Y-124165000D01*
X100597500Y-78290000D02*
X105750000Y-83442500D01*
X102800000Y-68200000D02*
X102800000Y-76100000D01*
X103650000Y-27650000D02*
X103650000Y-67350000D01*
X102800000Y-76100000D02*
X100610000Y-78290000D01*
%TO.N,GND*%
X101473000Y-18161000D02*
X101250000Y-18384000D01*
X99060000Y-81832500D02*
X99060000Y-19685000D01*
X100597500Y-83370000D02*
X99060000Y-81832500D01*
X105500000Y-163200000D02*
X108350000Y-163200000D01*
X109150000Y-129550000D02*
X104925500Y-125325500D01*
X100445000Y-18300000D02*
X103660673Y-18300000D01*
X103200000Y-122750000D02*
X103200000Y-85972500D01*
X103200000Y-122750000D02*
X103200000Y-123600000D01*
X99060000Y-19685000D02*
X100445000Y-18300000D01*
X103200000Y-123600000D02*
X104925500Y-125325500D01*
X105425000Y-163125000D02*
X107900000Y-165600000D01*
X101250000Y-19105000D02*
X100445000Y-18300000D01*
X113400000Y-165850000D02*
X113400000Y-168125000D01*
X105150000Y-162850000D02*
X105425000Y-163125000D01*
X117861000Y-18161000D02*
X101473000Y-18161000D01*
X116050000Y-163200000D02*
X113400000Y-165850000D01*
X105150000Y-132950000D02*
X105150000Y-162850000D01*
X103200000Y-85972500D02*
X100597500Y-83370000D01*
X105163173Y-126850000D02*
X105150000Y-126850000D01*
X109150000Y-133875000D02*
X109150000Y-129550000D01*
X101250000Y-18384000D02*
X101250000Y-20350000D01*
X107900000Y-165600000D02*
X107900000Y-168175000D01*
X105150000Y-125550000D02*
X105150000Y-132950000D01*
X105425000Y-163125000D02*
X105500000Y-163200000D01*
X103660673Y-18300000D02*
X105650000Y-20289327D01*
X104925500Y-125325500D02*
X105150000Y-125550000D01*
X120050000Y-20350000D02*
X117861000Y-18161000D01*
%TO.N,Net-(A1-Pad18)*%
X112800000Y-123000000D02*
X112150000Y-123650000D01*
X112800000Y-117577906D02*
X112800000Y-123000000D01*
X112150000Y-123650000D02*
X112150000Y-133875000D01*
X120917500Y-111310000D02*
X119067906Y-111310000D01*
X119067906Y-111310000D02*
X112800000Y-117577906D01*
%TO.N,Net-(CONN1-Pad3)*%
X120917500Y-124854242D02*
X120917500Y-113850000D01*
X111150000Y-135600000D02*
X111450000Y-135900000D01*
X115300489Y-134949511D02*
X115300490Y-130471252D01*
X115300490Y-130471252D02*
X120917500Y-124854242D01*
X111150000Y-133875000D02*
X111150000Y-135600000D01*
X114350000Y-135900000D02*
X115300489Y-134949511D01*
X111450000Y-135900000D02*
X114350000Y-135900000D01*
%TO.N,Net-(A1-Pad19)*%
X110650000Y-37050000D02*
X110650000Y-48735000D01*
X110650000Y-48735000D02*
X108760001Y-50624999D01*
X108760001Y-50624999D02*
X108760001Y-96612501D01*
X108760001Y-96612501D02*
X120917500Y-108770000D01*
%TO.N,Net-(A1-Pad28)*%
X110800000Y-66750000D02*
X110800000Y-74000000D01*
X110800000Y-74000000D02*
X120917500Y-84117500D01*
X120917500Y-84117500D02*
X120917500Y-85910000D01*
%TO.N,Net-(A1-Pad11)*%
X109650000Y-22600000D02*
X109650000Y-27552500D01*
%TO.N,Net-(A1-Pad12)*%
X107650000Y-22600000D02*
X107650000Y-27552500D01*
%TO.N,Net-(A1-Pad20)*%
X111650000Y-22600000D02*
X111650000Y-27552500D01*
%TO.N,Net-(A1-Pad21)*%
X113650000Y-22600000D02*
X113650000Y-27552500D01*
%TO.N,Net-(A1-Pad22)*%
X115650000Y-22600000D02*
X115650000Y-27552500D01*
%TO.N,Net-(A1-Pad23)*%
X117650000Y-22600000D02*
X117650000Y-27552500D01*
%TO.N,Net-(A1-Pad26)*%
X112170000Y-164720000D02*
X112125000Y-164675000D01*
X122200000Y-124561000D02*
X116000000Y-130761000D01*
X112170000Y-168125000D02*
X112170000Y-164720000D01*
X112125000Y-164675000D02*
X109130000Y-167670000D01*
X116000000Y-160800000D02*
X112125000Y-164675000D01*
X122200000Y-92272500D02*
X122200000Y-124561000D01*
X116000000Y-130761000D02*
X116000000Y-160800000D01*
X109130000Y-167670000D02*
X109130000Y-168125000D01*
X120917500Y-90990000D02*
X122200000Y-92272500D01*
%TD*%
%TA.AperFunction,Conductor*%
%TO.N,GND*%
G36*
X122583621Y-15528502D02*
G01*
X122630114Y-15582158D01*
X122641500Y-15634500D01*
X122641500Y-91337129D01*
X122621498Y-91405250D01*
X122567842Y-91451743D01*
X122497568Y-91461847D01*
X122432988Y-91432353D01*
X122426405Y-91426224D01*
X122253171Y-91252990D01*
X122219145Y-91190678D01*
X122216745Y-91152913D01*
X122230519Y-90995475D01*
X122230998Y-90990000D01*
X122211043Y-90761913D01*
X122151784Y-90540757D01*
X122149461Y-90535775D01*
X122057349Y-90338238D01*
X122057346Y-90338233D01*
X122055023Y-90333251D01*
X121923698Y-90145700D01*
X121761800Y-89983802D01*
X121757292Y-89980645D01*
X121757289Y-89980643D01*
X121679111Y-89925902D01*
X121574249Y-89852477D01*
X121569267Y-89850154D01*
X121569262Y-89850151D01*
X121535043Y-89834195D01*
X121481758Y-89787278D01*
X121462297Y-89719001D01*
X121482839Y-89651041D01*
X121535043Y-89605805D01*
X121569262Y-89589849D01*
X121569267Y-89589846D01*
X121574249Y-89587523D01*
X121679111Y-89514098D01*
X121757289Y-89459357D01*
X121757292Y-89459355D01*
X121761800Y-89456198D01*
X121923698Y-89294300D01*
X122055023Y-89106749D01*
X122057346Y-89101767D01*
X122057349Y-89101762D01*
X122149461Y-88904225D01*
X122149461Y-88904224D01*
X122151784Y-88899243D01*
X122211043Y-88678087D01*
X122230998Y-88450000D01*
X122211043Y-88221913D01*
X122151784Y-88000757D01*
X122149461Y-87995775D01*
X122057349Y-87798238D01*
X122057346Y-87798233D01*
X122055023Y-87793251D01*
X121923698Y-87605700D01*
X121761800Y-87443802D01*
X121757292Y-87440645D01*
X121757289Y-87440643D01*
X121679111Y-87385902D01*
X121574249Y-87312477D01*
X121569267Y-87310154D01*
X121569262Y-87310151D01*
X121535043Y-87294195D01*
X121481758Y-87247278D01*
X121462297Y-87179001D01*
X121482839Y-87111041D01*
X121535043Y-87065805D01*
X121569262Y-87049849D01*
X121569267Y-87049846D01*
X121574249Y-87047523D01*
X121679111Y-86974098D01*
X121757289Y-86919357D01*
X121757292Y-86919355D01*
X121761800Y-86916198D01*
X121923698Y-86754300D01*
X122055023Y-86566749D01*
X122057346Y-86561767D01*
X122057349Y-86561762D01*
X122149461Y-86364225D01*
X122149461Y-86364224D01*
X122151784Y-86359243D01*
X122211043Y-86138087D01*
X122230998Y-85910000D01*
X122211043Y-85681913D01*
X122151784Y-85460757D01*
X122149461Y-85455775D01*
X122057349Y-85258238D01*
X122057346Y-85258233D01*
X122055023Y-85253251D01*
X121923698Y-85065700D01*
X121761800Y-84903802D01*
X121729729Y-84881345D01*
X121685401Y-84825890D01*
X121676000Y-84778133D01*
X121676000Y-84184570D01*
X121677433Y-84165620D01*
X121679599Y-84151385D01*
X121679599Y-84151381D01*
X121680699Y-84144151D01*
X121676415Y-84091482D01*
X121676000Y-84081267D01*
X121676000Y-84073207D01*
X121672709Y-84044980D01*
X121672278Y-84040621D01*
X121671496Y-84031006D01*
X121666360Y-83967864D01*
X121664105Y-83960903D01*
X121662918Y-83954963D01*
X121661529Y-83949088D01*
X121660682Y-83941819D01*
X121635764Y-83873170D01*
X121634347Y-83869042D01*
X121614107Y-83806564D01*
X121614106Y-83806562D01*
X121611851Y-83799601D01*
X121608055Y-83793346D01*
X121605549Y-83787872D01*
X121602830Y-83782442D01*
X121600333Y-83775563D01*
X121587953Y-83756681D01*
X121560314Y-83714524D01*
X121557967Y-83710805D01*
X121520095Y-83648393D01*
X121512697Y-83640016D01*
X121512724Y-83639992D01*
X121510071Y-83637000D01*
X121507368Y-83633767D01*
X121503356Y-83627648D01*
X121447117Y-83574372D01*
X121444675Y-83571994D01*
X111595405Y-73722724D01*
X111561379Y-73660412D01*
X111558500Y-73633629D01*
X111558500Y-68384500D01*
X111578502Y-68316379D01*
X111632158Y-68269886D01*
X111684500Y-68258500D01*
X111848134Y-68258500D01*
X111910316Y-68251745D01*
X112046705Y-68200615D01*
X112163261Y-68113261D01*
X112250615Y-67996705D01*
X112301745Y-67860316D01*
X112308500Y-67798134D01*
X112308500Y-65701866D01*
X112301745Y-65639684D01*
X112250615Y-65503295D01*
X112163261Y-65386739D01*
X112046705Y-65299385D01*
X111910316Y-65248255D01*
X111848134Y-65241500D01*
X109751866Y-65241500D01*
X109689684Y-65248255D01*
X109682284Y-65251029D01*
X109674600Y-65252856D01*
X109673851Y-65249706D01*
X109617893Y-65253789D01*
X109555533Y-65219852D01*
X109521419Y-65157589D01*
X109518501Y-65130630D01*
X109518501Y-52068387D01*
X117737768Y-52068387D01*
X117754151Y-52316425D01*
X117755161Y-52321037D01*
X117805184Y-52549503D01*
X117807318Y-52559251D01*
X117896082Y-52791442D01*
X118018461Y-53007809D01*
X118171720Y-53203520D01*
X118352437Y-53374204D01*
X118556574Y-53516047D01*
X118560794Y-53518126D01*
X118560800Y-53518129D01*
X118775343Y-53623799D01*
X118775348Y-53623801D01*
X118779571Y-53625881D01*
X119016447Y-53701253D01*
X119229255Y-53735260D01*
X119240584Y-53737609D01*
X119249368Y-53739855D01*
X119254207Y-53740320D01*
X119254212Y-53740321D01*
X119257022Y-53740591D01*
X119257026Y-53740591D01*
X119261863Y-53741056D01*
X119289740Y-53739421D01*
X119307638Y-53739646D01*
X119496964Y-53755520D01*
X119707508Y-53773173D01*
X119728185Y-53776657D01*
X119747642Y-53781631D01*
X119752485Y-53782097D01*
X119752488Y-53782097D01*
X119753320Y-53782177D01*
X119760137Y-53782832D01*
X119764990Y-53782547D01*
X119765043Y-53782548D01*
X119773429Y-53782339D01*
X119898383Y-53783441D01*
X120008747Y-53784415D01*
X120161453Y-53762775D01*
X120250187Y-53750200D01*
X120250190Y-53750199D01*
X120254857Y-53749538D01*
X120367009Y-53716025D01*
X120488496Y-53679723D01*
X120488501Y-53679721D01*
X120493019Y-53678371D01*
X120717915Y-53572502D01*
X120806330Y-53513359D01*
X120920599Y-53436922D01*
X120920603Y-53436919D01*
X120924521Y-53434298D01*
X120960412Y-53401582D01*
X121104730Y-53270027D01*
X121108221Y-53266845D01*
X121264912Y-53073883D01*
X121391094Y-52859724D01*
X121407269Y-52819560D01*
X121482189Y-52633518D01*
X121483948Y-52629150D01*
X121541401Y-52387312D01*
X121558908Y-52178495D01*
X121561774Y-52144315D01*
X121561774Y-52144312D01*
X121562168Y-52139613D01*
X121545786Y-51891585D01*
X121492621Y-51648769D01*
X121490263Y-51642599D01*
X121432043Y-51490308D01*
X121403861Y-51416588D01*
X121362907Y-51344179D01*
X121292533Y-51219757D01*
X121281488Y-51200229D01*
X121128235Y-51004526D01*
X121059049Y-50939180D01*
X120950952Y-50837084D01*
X120947527Y-50833849D01*
X120943660Y-50831162D01*
X120943655Y-50831158D01*
X120747273Y-50694703D01*
X120743399Y-50692011D01*
X120633593Y-50637927D01*
X120524633Y-50584259D01*
X120524627Y-50584257D01*
X120520411Y-50582180D01*
X120515927Y-50580753D01*
X120515924Y-50580752D01*
X120288045Y-50508242D01*
X120288046Y-50508242D01*
X120283545Y-50506810D01*
X120070756Y-50472805D01*
X120059423Y-50470456D01*
X120055354Y-50469415D01*
X120055341Y-50469413D01*
X120050634Y-50468209D01*
X120044386Y-50467608D01*
X120042984Y-50467473D01*
X120042983Y-50467473D01*
X120038139Y-50467007D01*
X120010266Y-50468642D01*
X119992369Y-50468417D01*
X119592491Y-50434890D01*
X119571813Y-50431405D01*
X119552360Y-50426432D01*
X119545778Y-50425799D01*
X119544706Y-50425696D01*
X119544702Y-50425696D01*
X119539865Y-50425231D01*
X119535012Y-50425516D01*
X119533519Y-50425488D01*
X119528434Y-50425614D01*
X119408784Y-50424558D01*
X119291255Y-50423521D01*
X119141015Y-50444811D01*
X119049806Y-50457736D01*
X119049803Y-50457737D01*
X119045136Y-50458398D01*
X118806963Y-50529568D01*
X118582057Y-50635439D01*
X118578146Y-50638055D01*
X118578141Y-50638058D01*
X118379365Y-50771025D01*
X118379361Y-50771028D01*
X118375443Y-50773649D01*
X118371957Y-50776826D01*
X118371954Y-50776829D01*
X118314175Y-50829498D01*
X118191735Y-50941109D01*
X118035037Y-51134078D01*
X117908850Y-51348246D01*
X117907087Y-51352624D01*
X117907085Y-51352628D01*
X117827658Y-51549858D01*
X117815991Y-51578830D01*
X117814902Y-51583414D01*
X117814901Y-51583417D01*
X117799376Y-51648769D01*
X117758536Y-51820677D01*
X117737768Y-52068387D01*
X109518501Y-52068387D01*
X109518501Y-50991370D01*
X109538503Y-50923249D01*
X109555406Y-50902275D01*
X111138911Y-49318770D01*
X111153323Y-49306384D01*
X111164918Y-49297851D01*
X111164923Y-49297846D01*
X111170818Y-49293508D01*
X111175557Y-49287930D01*
X111175560Y-49287927D01*
X111205035Y-49253232D01*
X111211965Y-49245716D01*
X111217660Y-49240021D01*
X111235281Y-49217749D01*
X111238072Y-49214345D01*
X111280591Y-49164297D01*
X111280592Y-49164295D01*
X111285333Y-49158715D01*
X111288661Y-49152199D01*
X111292028Y-49147150D01*
X111295195Y-49142021D01*
X111299734Y-49136284D01*
X111330655Y-49070125D01*
X111332561Y-49066225D01*
X111365769Y-49001192D01*
X111367508Y-48994084D01*
X111369607Y-48988441D01*
X111371524Y-48982678D01*
X111374622Y-48976050D01*
X111389487Y-48904583D01*
X111390457Y-48900299D01*
X111406473Y-48834845D01*
X111407808Y-48829390D01*
X111408500Y-48818236D01*
X111408536Y-48818238D01*
X111408775Y-48814245D01*
X111409149Y-48810053D01*
X111410640Y-48802885D01*
X111408546Y-48725479D01*
X111408500Y-48722072D01*
X111408500Y-38526450D01*
X111428502Y-38458329D01*
X111482158Y-38411836D01*
X111521496Y-38401123D01*
X111529135Y-38400331D01*
X111549308Y-38398238D01*
X111549312Y-38398237D01*
X111556166Y-38397526D01*
X111562702Y-38395345D01*
X111562704Y-38395345D01*
X111694806Y-38351272D01*
X111723946Y-38341550D01*
X111874348Y-38248478D01*
X111999305Y-38123303D01*
X112092115Y-37972738D01*
X112147797Y-37804861D01*
X112158500Y-37700400D01*
X112158500Y-36399600D01*
X112147526Y-36293834D01*
X112091550Y-36126054D01*
X111998478Y-35975652D01*
X111873303Y-35850695D01*
X111727660Y-35760919D01*
X111680168Y-35708148D01*
X111668744Y-35638076D01*
X111697018Y-35572952D01*
X111706805Y-35562490D01*
X111817278Y-35457103D01*
X111821135Y-35453424D01*
X111958754Y-35268458D01*
X112063240Y-35062949D01*
X112099321Y-34946752D01*
X112130024Y-34847871D01*
X112131607Y-34842773D01*
X112132308Y-34837484D01*
X112161198Y-34619511D01*
X112161198Y-34619506D01*
X112161898Y-34614226D01*
X112153249Y-34383842D01*
X112105907Y-34158209D01*
X112021224Y-33943779D01*
X111901623Y-33746683D01*
X111750523Y-33572555D01*
X111708970Y-33538484D01*
X111576373Y-33429760D01*
X111576367Y-33429756D01*
X111572245Y-33426376D01*
X111567609Y-33423737D01*
X111567606Y-33423735D01*
X111376529Y-33314968D01*
X111371886Y-33312325D01*
X111155175Y-33233663D01*
X111149926Y-33232714D01*
X111149923Y-33232713D01*
X110932392Y-33193377D01*
X110932385Y-33193376D01*
X110928308Y-33192639D01*
X110910586Y-33191803D01*
X110905644Y-33191570D01*
X110905637Y-33191570D01*
X110904156Y-33191500D01*
X110442110Y-33191500D01*
X110434215Y-33192170D01*
X110382529Y-33196555D01*
X110312961Y-33182383D01*
X110282782Y-33160101D01*
X104445405Y-27322724D01*
X104411379Y-27260412D01*
X104408500Y-27233629D01*
X104408500Y-25716393D01*
X104428502Y-25648272D01*
X104445327Y-25627375D01*
X104494134Y-25578483D01*
X104499305Y-25573303D01*
X104543040Y-25502352D01*
X104595811Y-25454860D01*
X104665883Y-25443436D01*
X104731006Y-25471710D01*
X104757443Y-25502166D01*
X104798063Y-25567807D01*
X104807099Y-25579208D01*
X104921829Y-25693739D01*
X104933240Y-25702751D01*
X105071243Y-25787816D01*
X105084424Y-25793963D01*
X105238710Y-25845138D01*
X105252086Y-25848005D01*
X105346438Y-25857672D01*
X105352854Y-25858000D01*
X105377885Y-25858000D01*
X105393124Y-25853525D01*
X105394329Y-25852135D01*
X105396000Y-25844452D01*
X105396000Y-25839884D01*
X105904000Y-25839884D01*
X105908475Y-25855123D01*
X105909865Y-25856328D01*
X105917548Y-25857999D01*
X105947095Y-25857999D01*
X105953614Y-25857662D01*
X106049206Y-25847743D01*
X106062600Y-25844851D01*
X106216784Y-25793412D01*
X106229962Y-25787239D01*
X106367807Y-25701937D01*
X106379208Y-25692901D01*
X106493739Y-25578171D01*
X106502751Y-25566760D01*
X106542451Y-25502354D01*
X106595223Y-25454861D01*
X106665294Y-25443437D01*
X106730418Y-25471711D01*
X106756854Y-25502166D01*
X106801522Y-25574348D01*
X106806704Y-25579521D01*
X106854518Y-25627252D01*
X106888597Y-25689535D01*
X106891500Y-25716425D01*
X106891500Y-27015501D01*
X106874619Y-27078500D01*
X106815473Y-27180944D01*
X106756458Y-27362572D01*
X106755768Y-27369133D01*
X106755768Y-27369135D01*
X106751720Y-27407651D01*
X106736496Y-27552500D01*
X106737186Y-27559065D01*
X106752993Y-27709456D01*
X106756458Y-27742428D01*
X106815473Y-27924056D01*
X106910960Y-28089444D01*
X107038747Y-28231366D01*
X107193248Y-28343618D01*
X107199276Y-28346302D01*
X107199278Y-28346303D01*
X107361681Y-28418609D01*
X107367712Y-28421294D01*
X107461112Y-28441147D01*
X107548056Y-28459628D01*
X107548061Y-28459628D01*
X107554513Y-28461000D01*
X107745487Y-28461000D01*
X107751939Y-28459628D01*
X107751944Y-28459628D01*
X107838887Y-28441147D01*
X107932288Y-28421294D01*
X107938319Y-28418609D01*
X108100722Y-28346303D01*
X108100724Y-28346302D01*
X108106752Y-28343618D01*
X108261253Y-28231366D01*
X108389040Y-28089444D01*
X108484527Y-27924056D01*
X108530167Y-27783590D01*
X108570241Y-27724986D01*
X108635637Y-27697349D01*
X108705594Y-27709456D01*
X108757900Y-27757462D01*
X108769832Y-27783589D01*
X108815473Y-27924056D01*
X108910960Y-28089444D01*
X109038747Y-28231366D01*
X109193248Y-28343618D01*
X109199276Y-28346302D01*
X109199278Y-28346303D01*
X109361681Y-28418609D01*
X109367712Y-28421294D01*
X109461112Y-28441147D01*
X109548056Y-28459628D01*
X109548061Y-28459628D01*
X109554513Y-28461000D01*
X109745487Y-28461000D01*
X109751939Y-28459628D01*
X109751944Y-28459628D01*
X109838887Y-28441147D01*
X109932288Y-28421294D01*
X109938319Y-28418609D01*
X110100722Y-28346303D01*
X110100724Y-28346302D01*
X110106752Y-28343618D01*
X110261253Y-28231366D01*
X110389040Y-28089444D01*
X110484527Y-27924056D01*
X110530167Y-27783590D01*
X110570241Y-27724986D01*
X110635637Y-27697349D01*
X110705594Y-27709456D01*
X110757900Y-27757462D01*
X110769832Y-27783589D01*
X110815473Y-27924056D01*
X110910960Y-28089444D01*
X111038747Y-28231366D01*
X111193248Y-28343618D01*
X111199276Y-28346302D01*
X111199278Y-28346303D01*
X111361681Y-28418609D01*
X111367712Y-28421294D01*
X111461112Y-28441147D01*
X111548056Y-28459628D01*
X111548061Y-28459628D01*
X111554513Y-28461000D01*
X111745487Y-28461000D01*
X111751939Y-28459628D01*
X111751944Y-28459628D01*
X111838887Y-28441147D01*
X111932288Y-28421294D01*
X111938319Y-28418609D01*
X112100722Y-28346303D01*
X112100724Y-28346302D01*
X112106752Y-28343618D01*
X112261253Y-28231366D01*
X112389040Y-28089444D01*
X112484527Y-27924056D01*
X112530167Y-27783590D01*
X112570241Y-27724986D01*
X112635637Y-27697349D01*
X112705594Y-27709456D01*
X112757900Y-27757462D01*
X112769832Y-27783589D01*
X112815473Y-27924056D01*
X112910960Y-28089444D01*
X113038747Y-28231366D01*
X113193248Y-28343618D01*
X113199276Y-28346302D01*
X113199278Y-28346303D01*
X113361681Y-28418609D01*
X113367712Y-28421294D01*
X113461112Y-28441147D01*
X113548056Y-28459628D01*
X113548061Y-28459628D01*
X113554513Y-28461000D01*
X113745487Y-28461000D01*
X113751939Y-28459628D01*
X113751944Y-28459628D01*
X113838887Y-28441147D01*
X113932288Y-28421294D01*
X113938319Y-28418609D01*
X114100722Y-28346303D01*
X114100724Y-28346302D01*
X114106752Y-28343618D01*
X114261253Y-28231366D01*
X114389040Y-28089444D01*
X114484527Y-27924056D01*
X114530167Y-27783590D01*
X114570241Y-27724986D01*
X114635637Y-27697349D01*
X114705594Y-27709456D01*
X114757900Y-27757462D01*
X114769832Y-27783589D01*
X114815473Y-27924056D01*
X114910960Y-28089444D01*
X115038747Y-28231366D01*
X115193248Y-28343618D01*
X115199276Y-28346302D01*
X115199278Y-28346303D01*
X115361681Y-28418609D01*
X115367712Y-28421294D01*
X115461112Y-28441147D01*
X115548056Y-28459628D01*
X115548061Y-28459628D01*
X115554513Y-28461000D01*
X115745487Y-28461000D01*
X115751939Y-28459628D01*
X115751944Y-28459628D01*
X115838887Y-28441147D01*
X115932288Y-28421294D01*
X115938319Y-28418609D01*
X116100722Y-28346303D01*
X116100724Y-28346302D01*
X116106752Y-28343618D01*
X116261253Y-28231366D01*
X116389040Y-28089444D01*
X116484527Y-27924056D01*
X116530167Y-27783590D01*
X116570241Y-27724986D01*
X116635637Y-27697349D01*
X116705594Y-27709456D01*
X116757900Y-27757462D01*
X116769832Y-27783589D01*
X116815473Y-27924056D01*
X116910960Y-28089444D01*
X117038747Y-28231366D01*
X117193248Y-28343618D01*
X117199276Y-28346302D01*
X117199278Y-28346303D01*
X117361681Y-28418609D01*
X117367712Y-28421294D01*
X117461112Y-28441147D01*
X117548056Y-28459628D01*
X117548061Y-28459628D01*
X117554513Y-28461000D01*
X117745487Y-28461000D01*
X117751939Y-28459628D01*
X117751944Y-28459628D01*
X117838887Y-28441147D01*
X117932288Y-28421294D01*
X117938319Y-28418609D01*
X118100722Y-28346303D01*
X118100724Y-28346302D01*
X118106752Y-28343618D01*
X118261253Y-28231366D01*
X118389040Y-28089444D01*
X118484527Y-27924056D01*
X118543542Y-27742428D01*
X118547008Y-27709456D01*
X118562814Y-27559065D01*
X118563504Y-27552500D01*
X118548280Y-27407651D01*
X118544232Y-27369135D01*
X118544232Y-27369133D01*
X118543542Y-27362572D01*
X118484527Y-27180944D01*
X118425381Y-27078500D01*
X118408500Y-27015501D01*
X118408500Y-25716393D01*
X118428502Y-25648272D01*
X118445327Y-25627375D01*
X118494134Y-25578483D01*
X118499305Y-25573303D01*
X118503338Y-25566760D01*
X118588275Y-25428968D01*
X118588276Y-25428966D01*
X118592115Y-25422738D01*
X118647797Y-25254861D01*
X118650054Y-25232838D01*
X118658172Y-25153598D01*
X118658500Y-25150400D01*
X118658500Y-22123737D01*
X118678502Y-22055616D01*
X118732158Y-22009123D01*
X118802432Y-21999019D01*
X118867012Y-22028513D01*
X118891644Y-22057434D01*
X118898063Y-22067807D01*
X118907099Y-22079208D01*
X119021829Y-22193739D01*
X119033240Y-22202751D01*
X119171243Y-22287816D01*
X119184424Y-22293963D01*
X119338710Y-22345138D01*
X119352086Y-22348005D01*
X119446438Y-22357672D01*
X119452854Y-22358000D01*
X119777885Y-22358000D01*
X119793124Y-22353525D01*
X119794329Y-22352135D01*
X119796000Y-22344452D01*
X119796000Y-22339884D01*
X120304000Y-22339884D01*
X120308475Y-22355123D01*
X120309865Y-22356328D01*
X120317548Y-22357999D01*
X120647095Y-22357999D01*
X120653614Y-22357662D01*
X120749206Y-22347743D01*
X120762600Y-22344851D01*
X120916784Y-22293412D01*
X120929962Y-22287239D01*
X121067807Y-22201937D01*
X121079208Y-22192901D01*
X121193739Y-22078171D01*
X121202751Y-22066760D01*
X121287816Y-21928757D01*
X121293963Y-21915576D01*
X121345138Y-21761290D01*
X121348005Y-21747914D01*
X121357672Y-21653562D01*
X121358000Y-21647146D01*
X121358000Y-20622115D01*
X121353525Y-20606876D01*
X121352135Y-20605671D01*
X121344452Y-20604000D01*
X120322115Y-20604000D01*
X120306876Y-20608475D01*
X120305671Y-20609865D01*
X120304000Y-20617548D01*
X120304000Y-22339884D01*
X119796000Y-22339884D01*
X119796000Y-20077885D01*
X120304000Y-20077885D01*
X120308475Y-20093124D01*
X120309865Y-20094329D01*
X120317548Y-20096000D01*
X121339884Y-20096000D01*
X121355123Y-20091525D01*
X121356328Y-20090135D01*
X121357999Y-20082452D01*
X121357999Y-19052905D01*
X121357662Y-19046386D01*
X121347743Y-18950794D01*
X121344851Y-18937400D01*
X121293412Y-18783216D01*
X121287239Y-18770038D01*
X121201937Y-18632193D01*
X121192901Y-18620792D01*
X121078171Y-18506261D01*
X121066760Y-18497249D01*
X120928757Y-18412184D01*
X120915576Y-18406037D01*
X120761290Y-18354862D01*
X120747914Y-18351995D01*
X120653562Y-18342328D01*
X120647145Y-18342000D01*
X120322115Y-18342000D01*
X120306876Y-18346475D01*
X120305671Y-18347865D01*
X120304000Y-18355548D01*
X120304000Y-20077885D01*
X119796000Y-20077885D01*
X119796000Y-18360116D01*
X119791525Y-18344877D01*
X119790135Y-18343672D01*
X119782452Y-18342001D01*
X119452905Y-18342001D01*
X119446386Y-18342338D01*
X119350794Y-18352257D01*
X119337400Y-18355149D01*
X119183216Y-18406588D01*
X119170038Y-18412761D01*
X119032193Y-18498063D01*
X119020792Y-18507099D01*
X118906261Y-18621829D01*
X118897249Y-18633240D01*
X118812184Y-18771243D01*
X118806037Y-18784424D01*
X118754862Y-18938710D01*
X118751995Y-18952086D01*
X118742328Y-19046438D01*
X118742000Y-19052855D01*
X118742000Y-19576120D01*
X118721998Y-19644241D01*
X118668342Y-19690734D01*
X118598068Y-19700838D01*
X118533488Y-19671344D01*
X118508857Y-19642425D01*
X118498478Y-19625652D01*
X118373303Y-19500695D01*
X118367072Y-19496854D01*
X118228968Y-19411725D01*
X118228966Y-19411724D01*
X118222738Y-19407885D01*
X118142995Y-19381436D01*
X118061389Y-19354368D01*
X118061387Y-19354368D01*
X118054861Y-19352203D01*
X118048025Y-19351503D01*
X118048022Y-19351502D01*
X118004969Y-19347091D01*
X117950400Y-19341500D01*
X117349600Y-19341500D01*
X117346354Y-19341837D01*
X117346350Y-19341837D01*
X117250692Y-19351762D01*
X117250688Y-19351763D01*
X117243834Y-19352474D01*
X117237298Y-19354655D01*
X117237296Y-19354655D01*
X117220928Y-19360116D01*
X117076054Y-19408450D01*
X116925652Y-19501522D01*
X116800695Y-19626697D01*
X116796855Y-19632927D01*
X116796854Y-19632928D01*
X116757255Y-19697170D01*
X116704483Y-19744663D01*
X116634411Y-19756087D01*
X116569288Y-19727813D01*
X116542851Y-19697358D01*
X116526753Y-19671344D01*
X116498478Y-19625652D01*
X116373303Y-19500695D01*
X116367072Y-19496854D01*
X116228968Y-19411725D01*
X116228966Y-19411724D01*
X116222738Y-19407885D01*
X116142995Y-19381436D01*
X116061389Y-19354368D01*
X116061387Y-19354368D01*
X116054861Y-19352203D01*
X116048025Y-19351503D01*
X116048022Y-19351502D01*
X116004969Y-19347091D01*
X115950400Y-19341500D01*
X115349600Y-19341500D01*
X115346354Y-19341837D01*
X115346350Y-19341837D01*
X115250692Y-19351762D01*
X115250688Y-19351763D01*
X115243834Y-19352474D01*
X115237298Y-19354655D01*
X115237296Y-19354655D01*
X115220928Y-19360116D01*
X115076054Y-19408450D01*
X114925652Y-19501522D01*
X114800695Y-19626697D01*
X114796855Y-19632927D01*
X114796854Y-19632928D01*
X114757255Y-19697170D01*
X114704483Y-19744663D01*
X114634411Y-19756087D01*
X114569288Y-19727813D01*
X114542851Y-19697358D01*
X114526753Y-19671344D01*
X114498478Y-19625652D01*
X114373303Y-19500695D01*
X114367072Y-19496854D01*
X114228968Y-19411725D01*
X114228966Y-19411724D01*
X114222738Y-19407885D01*
X114142995Y-19381436D01*
X114061389Y-19354368D01*
X114061387Y-19354368D01*
X114054861Y-19352203D01*
X114048025Y-19351503D01*
X114048022Y-19351502D01*
X114004969Y-19347091D01*
X113950400Y-19341500D01*
X113349600Y-19341500D01*
X113346354Y-19341837D01*
X113346350Y-19341837D01*
X113250692Y-19351762D01*
X113250688Y-19351763D01*
X113243834Y-19352474D01*
X113237298Y-19354655D01*
X113237296Y-19354655D01*
X113220928Y-19360116D01*
X113076054Y-19408450D01*
X112925652Y-19501522D01*
X112800695Y-19626697D01*
X112796855Y-19632927D01*
X112796854Y-19632928D01*
X112757255Y-19697170D01*
X112704483Y-19744663D01*
X112634411Y-19756087D01*
X112569288Y-19727813D01*
X112542851Y-19697358D01*
X112526753Y-19671344D01*
X112498478Y-19625652D01*
X112373303Y-19500695D01*
X112367072Y-19496854D01*
X112228968Y-19411725D01*
X112228966Y-19411724D01*
X112222738Y-19407885D01*
X112142995Y-19381436D01*
X112061389Y-19354368D01*
X112061387Y-19354368D01*
X112054861Y-19352203D01*
X112048025Y-19351503D01*
X112048022Y-19351502D01*
X112004969Y-19347091D01*
X111950400Y-19341500D01*
X111349600Y-19341500D01*
X111346354Y-19341837D01*
X111346350Y-19341837D01*
X111250692Y-19351762D01*
X111250688Y-19351763D01*
X111243834Y-19352474D01*
X111237298Y-19354655D01*
X111237296Y-19354655D01*
X111220928Y-19360116D01*
X111076054Y-19408450D01*
X110925652Y-19501522D01*
X110800695Y-19626697D01*
X110796855Y-19632927D01*
X110796854Y-19632928D01*
X110757255Y-19697170D01*
X110704483Y-19744663D01*
X110634411Y-19756087D01*
X110569288Y-19727813D01*
X110542851Y-19697358D01*
X110526753Y-19671344D01*
X110498478Y-19625652D01*
X110373303Y-19500695D01*
X110367072Y-19496854D01*
X110228968Y-19411725D01*
X110228966Y-19411724D01*
X110222738Y-19407885D01*
X110142995Y-19381436D01*
X110061389Y-19354368D01*
X110061387Y-19354368D01*
X110054861Y-19352203D01*
X110048025Y-19351503D01*
X110048022Y-19351502D01*
X110004969Y-19347091D01*
X109950400Y-19341500D01*
X109349600Y-19341500D01*
X109346354Y-19341837D01*
X109346350Y-19341837D01*
X109250692Y-19351762D01*
X109250688Y-19351763D01*
X109243834Y-19352474D01*
X109237298Y-19354655D01*
X109237296Y-19354655D01*
X109220928Y-19360116D01*
X109076054Y-19408450D01*
X108925652Y-19501522D01*
X108800695Y-19626697D01*
X108796855Y-19632927D01*
X108796854Y-19632928D01*
X108757255Y-19697170D01*
X108704483Y-19744663D01*
X108634411Y-19756087D01*
X108569288Y-19727813D01*
X108542851Y-19697358D01*
X108526753Y-19671344D01*
X108498478Y-19625652D01*
X108373303Y-19500695D01*
X108367072Y-19496854D01*
X108228968Y-19411725D01*
X108228966Y-19411724D01*
X108222738Y-19407885D01*
X108142995Y-19381436D01*
X108061389Y-19354368D01*
X108061387Y-19354368D01*
X108054861Y-19352203D01*
X108048025Y-19351503D01*
X108048022Y-19351502D01*
X108004969Y-19347091D01*
X107950400Y-19341500D01*
X107349600Y-19341500D01*
X107346354Y-19341837D01*
X107346350Y-19341837D01*
X107250692Y-19351762D01*
X107250688Y-19351763D01*
X107243834Y-19352474D01*
X107237298Y-19354655D01*
X107237296Y-19354655D01*
X107220928Y-19360116D01*
X107076054Y-19408450D01*
X106925652Y-19501522D01*
X106800695Y-19626697D01*
X106756962Y-19697646D01*
X106756961Y-19697647D01*
X106704189Y-19745140D01*
X106634117Y-19756564D01*
X106568994Y-19728290D01*
X106542557Y-19697834D01*
X106501937Y-19632193D01*
X106492901Y-19620792D01*
X106378171Y-19506261D01*
X106366760Y-19497249D01*
X106228757Y-19412184D01*
X106215576Y-19406037D01*
X106061290Y-19354862D01*
X106047914Y-19351995D01*
X105953562Y-19342328D01*
X105947145Y-19342000D01*
X105922115Y-19342000D01*
X105906876Y-19346475D01*
X105905671Y-19347865D01*
X105904000Y-19355548D01*
X105904000Y-25839884D01*
X105396000Y-25839884D01*
X105396000Y-19360116D01*
X105391525Y-19344877D01*
X105390135Y-19343672D01*
X105382452Y-19342001D01*
X105352905Y-19342001D01*
X105346386Y-19342338D01*
X105250794Y-19352257D01*
X105237400Y-19355149D01*
X105083216Y-19406588D01*
X105070038Y-19412761D01*
X104932193Y-19498063D01*
X104920792Y-19507099D01*
X104806261Y-19621829D01*
X104797249Y-19633240D01*
X104757549Y-19697646D01*
X104704777Y-19745139D01*
X104634706Y-19756563D01*
X104569582Y-19728289D01*
X104543145Y-19697833D01*
X104502332Y-19631880D01*
X104502330Y-19631877D01*
X104498478Y-19625652D01*
X104373303Y-19500695D01*
X104367072Y-19496854D01*
X104228968Y-19411725D01*
X104228966Y-19411724D01*
X104222738Y-19407885D01*
X104142995Y-19381436D01*
X104061389Y-19354368D01*
X104061387Y-19354368D01*
X104054861Y-19352203D01*
X104048025Y-19351503D01*
X104048022Y-19351502D01*
X104004969Y-19347091D01*
X103950400Y-19341500D01*
X103349600Y-19341500D01*
X103346354Y-19341837D01*
X103346350Y-19341837D01*
X103250692Y-19351762D01*
X103250688Y-19351763D01*
X103243834Y-19352474D01*
X103237298Y-19354655D01*
X103237296Y-19354655D01*
X103220928Y-19360116D01*
X103076054Y-19408450D01*
X102925652Y-19501522D01*
X102800695Y-19626697D01*
X102796855Y-19632927D01*
X102796854Y-19632928D01*
X102791259Y-19642005D01*
X102738487Y-19689498D01*
X102668415Y-19700922D01*
X102603291Y-19672648D01*
X102563792Y-19613654D01*
X102557999Y-19575889D01*
X102557999Y-19052905D01*
X102557662Y-19046386D01*
X102547743Y-18950794D01*
X102544851Y-18937400D01*
X102493412Y-18783216D01*
X102487239Y-18770038D01*
X102401937Y-18632193D01*
X102392901Y-18620792D01*
X102278171Y-18506261D01*
X102266760Y-18497249D01*
X102128757Y-18412184D01*
X102115576Y-18406037D01*
X101961290Y-18354862D01*
X101947914Y-18351995D01*
X101853562Y-18342328D01*
X101847145Y-18342000D01*
X101522115Y-18342000D01*
X101506876Y-18346475D01*
X101505671Y-18347865D01*
X101504000Y-18355548D01*
X101504000Y-22339884D01*
X101508475Y-22355123D01*
X101509865Y-22356328D01*
X101517548Y-22357999D01*
X101847095Y-22357999D01*
X101853614Y-22357662D01*
X101949206Y-22347743D01*
X101962600Y-22344851D01*
X102116784Y-22293412D01*
X102129962Y-22287239D01*
X102267807Y-22201937D01*
X102279208Y-22192901D01*
X102393739Y-22078171D01*
X102402751Y-22066760D01*
X102408240Y-22057855D01*
X102461012Y-22010362D01*
X102531084Y-21998938D01*
X102596208Y-22027212D01*
X102635707Y-22086206D01*
X102641500Y-22123971D01*
X102641500Y-25150400D01*
X102641837Y-25153646D01*
X102641837Y-25153650D01*
X102650054Y-25232838D01*
X102652474Y-25256166D01*
X102708450Y-25423946D01*
X102801522Y-25574348D01*
X102806704Y-25579521D01*
X102854518Y-25627252D01*
X102888597Y-25689535D01*
X102891500Y-25716425D01*
X102891500Y-27622165D01*
X102891258Y-27629966D01*
X102887453Y-27691298D01*
X102888693Y-27698514D01*
X102889680Y-27704257D01*
X102891500Y-27725596D01*
X102891500Y-50478275D01*
X102871498Y-50546396D01*
X102817842Y-50592889D01*
X102747568Y-50602993D01*
X102687814Y-50577476D01*
X102647307Y-50545754D01*
X102553790Y-50472520D01*
X102548301Y-50469415D01*
X102481099Y-50431405D01*
X102337428Y-50350142D01*
X102333026Y-50348459D01*
X102109646Y-50263061D01*
X102109643Y-50263060D01*
X102105243Y-50261378D01*
X102100635Y-50260369D01*
X101867031Y-50209220D01*
X101867029Y-50209220D01*
X101862422Y-50208211D01*
X101614389Y-50191828D01*
X101609690Y-50192222D01*
X101609687Y-50192222D01*
X101501605Y-50201284D01*
X101366684Y-50212596D01*
X101362095Y-50213686D01*
X101362096Y-50213686D01*
X101129432Y-50268959D01*
X101129428Y-50268960D01*
X101124841Y-50270050D01*
X100894263Y-50362908D01*
X100890205Y-50365299D01*
X100890199Y-50365302D01*
X100787700Y-50425696D01*
X100680100Y-50489095D01*
X100487136Y-50645791D01*
X100483954Y-50649282D01*
X100372982Y-50771025D01*
X100319682Y-50829498D01*
X100317061Y-50833417D01*
X100317059Y-50833419D01*
X100184099Y-51032192D01*
X100184095Y-51032199D01*
X100181479Y-51036110D01*
X100075613Y-51261013D01*
X100004449Y-51499182D01*
X100003788Y-51503848D01*
X100003787Y-51503852D01*
X99984129Y-51642599D01*
X99969578Y-51745298D01*
X99971486Y-51960791D01*
X99971057Y-51972344D01*
X99970305Y-51981389D01*
X99971201Y-51993910D01*
X99972291Y-51998653D01*
X99972292Y-51998660D01*
X99977452Y-52021114D01*
X99980212Y-52038806D01*
X100013736Y-52438650D01*
X100013743Y-52459626D01*
X100012078Y-52479619D01*
X100012974Y-52492140D01*
X100014066Y-52496894D01*
X100014097Y-52497098D01*
X100015627Y-52504963D01*
X100052782Y-52737557D01*
X100128143Y-52974437D01*
X100130226Y-52978667D01*
X100130227Y-52978669D01*
X100142559Y-53003710D01*
X100237968Y-53197440D01*
X100240659Y-53201313D01*
X100377113Y-53397710D01*
X100377118Y-53397717D01*
X100379804Y-53401582D01*
X100410702Y-53434298D01*
X100541224Y-53572502D01*
X100550482Y-53582305D01*
X100554187Y-53585206D01*
X100554193Y-53585212D01*
X100698709Y-53698386D01*
X100746190Y-53735570D01*
X100962555Y-53857953D01*
X101194744Y-53946721D01*
X101437570Y-53999891D01*
X101442274Y-54000202D01*
X101442276Y-54000202D01*
X101561589Y-54008083D01*
X101685609Y-54016275D01*
X101690308Y-54015881D01*
X101690311Y-54015881D01*
X101928620Y-53995901D01*
X101933319Y-53995507D01*
X102175167Y-53938050D01*
X102374056Y-53857953D01*
X102401378Y-53846950D01*
X102401381Y-53846948D01*
X102405750Y-53845189D01*
X102619916Y-53718998D01*
X102686070Y-53665276D01*
X102751560Y-53637860D01*
X102821475Y-53650203D01*
X102873619Y-53698386D01*
X102891500Y-53763087D01*
X102891500Y-66983629D01*
X102871498Y-67051750D01*
X102854595Y-67072724D01*
X102311089Y-67616230D01*
X102296677Y-67628616D01*
X102285082Y-67637149D01*
X102285077Y-67637154D01*
X102279182Y-67641492D01*
X102274443Y-67647070D01*
X102274440Y-67647073D01*
X102244965Y-67681768D01*
X102238035Y-67689284D01*
X102232340Y-67694979D01*
X102230060Y-67697861D01*
X102214719Y-67717251D01*
X102211928Y-67720655D01*
X102177544Y-67761128D01*
X102164667Y-67776285D01*
X102161339Y-67782801D01*
X102157972Y-67787850D01*
X102154805Y-67792979D01*
X102150266Y-67798716D01*
X102119345Y-67864875D01*
X102117442Y-67868769D01*
X102084231Y-67933808D01*
X102082492Y-67940916D01*
X102080393Y-67946559D01*
X102078476Y-67952322D01*
X102075378Y-67958950D01*
X102073888Y-67966112D01*
X102073888Y-67966113D01*
X102060514Y-68030412D01*
X102059544Y-68034696D01*
X102042192Y-68105610D01*
X102041500Y-68116764D01*
X102041464Y-68116762D01*
X102041225Y-68120755D01*
X102040851Y-68124947D01*
X102039360Y-68132115D01*
X102039558Y-68139432D01*
X102041454Y-68209521D01*
X102041500Y-68212928D01*
X102041500Y-74583110D01*
X102021498Y-74651231D01*
X101967842Y-74697724D01*
X101897568Y-74707828D01*
X101832988Y-74678334D01*
X101814674Y-74658675D01*
X101766142Y-74593919D01*
X101760761Y-74586739D01*
X101644205Y-74499385D01*
X101507816Y-74448255D01*
X101445634Y-74441500D01*
X99749366Y-74441500D01*
X99687184Y-74448255D01*
X99550795Y-74499385D01*
X99434239Y-74586739D01*
X99346885Y-74703295D01*
X99295755Y-74839684D01*
X99289000Y-74901866D01*
X99289000Y-76598134D01*
X99295755Y-76660316D01*
X99346885Y-76796705D01*
X99434239Y-76913261D01*
X99550795Y-77000615D01*
X99687184Y-77051745D01*
X99697974Y-77052917D01*
X99700106Y-77053803D01*
X99702722Y-77054425D01*
X99702621Y-77054848D01*
X99763535Y-77080155D01*
X99803963Y-77138517D01*
X99806422Y-77209471D01*
X99770129Y-77270490D01*
X99761469Y-77277489D01*
X99757707Y-77280646D01*
X99753200Y-77283802D01*
X99591302Y-77445700D01*
X99459977Y-77633251D01*
X99457654Y-77638233D01*
X99457651Y-77638238D01*
X99365539Y-77835775D01*
X99363216Y-77840757D01*
X99303957Y-78061913D01*
X99284002Y-78290000D01*
X99303957Y-78518087D01*
X99363216Y-78739243D01*
X99365539Y-78744224D01*
X99365539Y-78744225D01*
X99457651Y-78941762D01*
X99457654Y-78941767D01*
X99459977Y-78946749D01*
X99591302Y-79134300D01*
X99753200Y-79296198D01*
X99757708Y-79299355D01*
X99757711Y-79299357D01*
X99835889Y-79354098D01*
X99940751Y-79427523D01*
X99945733Y-79429846D01*
X99945738Y-79429849D01*
X99979957Y-79445805D01*
X100033242Y-79492722D01*
X100052703Y-79560999D01*
X100032161Y-79628959D01*
X99979957Y-79674195D01*
X99945738Y-79690151D01*
X99945733Y-79690154D01*
X99940751Y-79692477D01*
X99835889Y-79765902D01*
X99757711Y-79820643D01*
X99757708Y-79820645D01*
X99753200Y-79823802D01*
X99591302Y-79985700D01*
X99459977Y-80173251D01*
X99457654Y-80178233D01*
X99457651Y-80178238D01*
X99365539Y-80375775D01*
X99363216Y-80380757D01*
X99303957Y-80601913D01*
X99284002Y-80830000D01*
X99303957Y-81058087D01*
X99363216Y-81279243D01*
X99365539Y-81284224D01*
X99365539Y-81284225D01*
X99457651Y-81481762D01*
X99457654Y-81481767D01*
X99459977Y-81486749D01*
X99591302Y-81674300D01*
X99753200Y-81836198D01*
X99757708Y-81839355D01*
X99757711Y-81839357D01*
X99835889Y-81894098D01*
X99940751Y-81967523D01*
X99945733Y-81969846D01*
X99945738Y-81969849D01*
X99980549Y-81986081D01*
X100033834Y-82032998D01*
X100053295Y-82101275D01*
X100032753Y-82169235D01*
X99980549Y-82214471D01*
X99945989Y-82230586D01*
X99936494Y-82236069D01*
X99884452Y-82272509D01*
X99876076Y-82282988D01*
X99883144Y-82296434D01*
X100584688Y-82997978D01*
X100598632Y-83005592D01*
X100600465Y-83005461D01*
X100607080Y-83001210D01*
X101312577Y-82295713D01*
X101319007Y-82283938D01*
X101309711Y-82271923D01*
X101258506Y-82236069D01*
X101249011Y-82230586D01*
X101214451Y-82214471D01*
X101161166Y-82167554D01*
X101141705Y-82099277D01*
X101162247Y-82031317D01*
X101214451Y-81986081D01*
X101249262Y-81969849D01*
X101249267Y-81969846D01*
X101254249Y-81967523D01*
X101359111Y-81894098D01*
X101437289Y-81839357D01*
X101437292Y-81839355D01*
X101441800Y-81836198D01*
X101603698Y-81674300D01*
X101735023Y-81486749D01*
X101737346Y-81481767D01*
X101737349Y-81481762D01*
X101829461Y-81284225D01*
X101829461Y-81284224D01*
X101831784Y-81279243D01*
X101891043Y-81058087D01*
X101899823Y-80957733D01*
X101925687Y-80891615D01*
X101983190Y-80849976D01*
X102054077Y-80846035D01*
X102114439Y-80879620D01*
X104954595Y-83719776D01*
X104988621Y-83782088D01*
X104991500Y-83808871D01*
X104991500Y-124097930D01*
X104990067Y-124116880D01*
X104986801Y-124138349D01*
X104987394Y-124145641D01*
X104987394Y-124145644D01*
X104991085Y-124191018D01*
X104991500Y-124201233D01*
X104991500Y-124209293D01*
X104991925Y-124212937D01*
X104994789Y-124237507D01*
X104995222Y-124241882D01*
X105001140Y-124314637D01*
X105003396Y-124321601D01*
X105004587Y-124327560D01*
X105005971Y-124333415D01*
X105006818Y-124340681D01*
X105031735Y-124409327D01*
X105033152Y-124413455D01*
X105055649Y-124482899D01*
X105059445Y-124489154D01*
X105061951Y-124494628D01*
X105064670Y-124500058D01*
X105067167Y-124506937D01*
X105071180Y-124513057D01*
X105071180Y-124513058D01*
X105107186Y-124567976D01*
X105109523Y-124571680D01*
X105147405Y-124634107D01*
X105151121Y-124638315D01*
X105151122Y-124638316D01*
X105154803Y-124642484D01*
X105154776Y-124642508D01*
X105157429Y-124645500D01*
X105160132Y-124648733D01*
X105164144Y-124654852D01*
X105169456Y-124659884D01*
X105220383Y-124708128D01*
X105222825Y-124710506D01*
X109354595Y-128842276D01*
X109388621Y-128904588D01*
X109391500Y-128931371D01*
X109391500Y-132966246D01*
X109386497Y-133001398D01*
X109344438Y-133146169D01*
X109343934Y-133152574D01*
X109343933Y-133152579D01*
X109341693Y-133181042D01*
X109341500Y-133183498D01*
X109341500Y-134566502D01*
X109341693Y-134568950D01*
X109341693Y-134568958D01*
X109343927Y-134597336D01*
X109344438Y-134603831D01*
X109346233Y-134610008D01*
X109388643Y-134755989D01*
X109388645Y-134755993D01*
X109390855Y-134763601D01*
X109393885Y-134768725D01*
X109404000Y-134817570D01*
X109404000Y-135136878D01*
X109407973Y-135150409D01*
X109415871Y-135151544D01*
X109555790Y-135110893D01*
X109570221Y-135104648D01*
X109585370Y-135095689D01*
X109654186Y-135078230D01*
X109713648Y-135095690D01*
X109736399Y-135109145D01*
X109744010Y-135111356D01*
X109744012Y-135111357D01*
X109796231Y-135126528D01*
X109896169Y-135155562D01*
X109902574Y-135156066D01*
X109902579Y-135156067D01*
X109931042Y-135158307D01*
X109931050Y-135158307D01*
X109933498Y-135158500D01*
X110265500Y-135158500D01*
X110333621Y-135178502D01*
X110380114Y-135232158D01*
X110391500Y-135284500D01*
X110391500Y-135532930D01*
X110390067Y-135551880D01*
X110386801Y-135573349D01*
X110387394Y-135580641D01*
X110387394Y-135580644D01*
X110391085Y-135626018D01*
X110391500Y-135636233D01*
X110391500Y-135644293D01*
X110391925Y-135647937D01*
X110394789Y-135672507D01*
X110395222Y-135676882D01*
X110401140Y-135749637D01*
X110403396Y-135756601D01*
X110404587Y-135762560D01*
X110405971Y-135768415D01*
X110406818Y-135775681D01*
X110431735Y-135844327D01*
X110433152Y-135848455D01*
X110455649Y-135917899D01*
X110459445Y-135924154D01*
X110461951Y-135929628D01*
X110464670Y-135935058D01*
X110467167Y-135941937D01*
X110471180Y-135948057D01*
X110471180Y-135948058D01*
X110507186Y-136002976D01*
X110509523Y-136006680D01*
X110547405Y-136069107D01*
X110551121Y-136073315D01*
X110551122Y-136073316D01*
X110554803Y-136077484D01*
X110554776Y-136077508D01*
X110557429Y-136080500D01*
X110560132Y-136083733D01*
X110564144Y-136089852D01*
X110569456Y-136094884D01*
X110620383Y-136143128D01*
X110622825Y-136145506D01*
X110866230Y-136388911D01*
X110878616Y-136403323D01*
X110887149Y-136414918D01*
X110887154Y-136414923D01*
X110891492Y-136420818D01*
X110897070Y-136425557D01*
X110897073Y-136425560D01*
X110931768Y-136455035D01*
X110939284Y-136461965D01*
X110944979Y-136467660D01*
X110947861Y-136469940D01*
X110967251Y-136485281D01*
X110970655Y-136488072D01*
X111020703Y-136530591D01*
X111026285Y-136535333D01*
X111032801Y-136538661D01*
X111037850Y-136542028D01*
X111042979Y-136545195D01*
X111048716Y-136549734D01*
X111114875Y-136580655D01*
X111118769Y-136582558D01*
X111183808Y-136615769D01*
X111190916Y-136617508D01*
X111196559Y-136619607D01*
X111202322Y-136621524D01*
X111208950Y-136624622D01*
X111216112Y-136626112D01*
X111216113Y-136626112D01*
X111280412Y-136639486D01*
X111284696Y-136640456D01*
X111355610Y-136657808D01*
X111361212Y-136658156D01*
X111361215Y-136658156D01*
X111366764Y-136658500D01*
X111366762Y-136658536D01*
X111370755Y-136658775D01*
X111374947Y-136659149D01*
X111382115Y-136660640D01*
X111459520Y-136658546D01*
X111462928Y-136658500D01*
X114282930Y-136658500D01*
X114301880Y-136659933D01*
X114316115Y-136662099D01*
X114316119Y-136662099D01*
X114323349Y-136663199D01*
X114330641Y-136662606D01*
X114330644Y-136662606D01*
X114376018Y-136658915D01*
X114386233Y-136658500D01*
X114394293Y-136658500D01*
X114411680Y-136656473D01*
X114422507Y-136655211D01*
X114426882Y-136654778D01*
X114492339Y-136649454D01*
X114492342Y-136649453D01*
X114499637Y-136648860D01*
X114506601Y-136646604D01*
X114512560Y-136645413D01*
X114518415Y-136644029D01*
X114525681Y-136643182D01*
X114594327Y-136618265D01*
X114598455Y-136616848D01*
X114660936Y-136596607D01*
X114660938Y-136596606D01*
X114667899Y-136594351D01*
X114674154Y-136590555D01*
X114679628Y-136588049D01*
X114685058Y-136585330D01*
X114691937Y-136582833D01*
X114698058Y-136578820D01*
X114752976Y-136542814D01*
X114756680Y-136540477D01*
X114819107Y-136502595D01*
X114827484Y-136495197D01*
X114827508Y-136495224D01*
X114830500Y-136492571D01*
X114833733Y-136489868D01*
X114839852Y-136485856D01*
X114893128Y-136429617D01*
X114895506Y-136427175D01*
X115026405Y-136296276D01*
X115088717Y-136262250D01*
X115159532Y-136267315D01*
X115216368Y-136309862D01*
X115241179Y-136376382D01*
X115241500Y-136385371D01*
X115241500Y-140041898D01*
X115221498Y-140110019D01*
X115167842Y-140156512D01*
X115097568Y-140166616D01*
X115032988Y-140137122D01*
X115003739Y-140100082D01*
X114991621Y-140076803D01*
X114756632Y-139707944D01*
X114754968Y-139705776D01*
X114754960Y-139705764D01*
X114492071Y-139363162D01*
X114490389Y-139360970D01*
X114488531Y-139358942D01*
X114488524Y-139358934D01*
X114196770Y-139040540D01*
X114194919Y-139038520D01*
X113895127Y-138763812D01*
X113874505Y-138744915D01*
X113874497Y-138744908D01*
X113872469Y-138743050D01*
X113675538Y-138591939D01*
X113527675Y-138478479D01*
X113527663Y-138478471D01*
X113525495Y-138476807D01*
X113156636Y-138241818D01*
X112768700Y-138039872D01*
X112364640Y-137872504D01*
X112362020Y-137871678D01*
X112362012Y-137871675D01*
X111950160Y-137741819D01*
X111950155Y-137741818D01*
X111947530Y-137740990D01*
X111520546Y-137646330D01*
X111517827Y-137645972D01*
X111517821Y-137645971D01*
X111355379Y-137624585D01*
X111086935Y-137589244D01*
X111084186Y-137589124D01*
X111084175Y-137589123D01*
X110652748Y-137570287D01*
X110650000Y-137570167D01*
X110647252Y-137570287D01*
X110215825Y-137589123D01*
X110215814Y-137589124D01*
X110213065Y-137589244D01*
X109944621Y-137624585D01*
X109782179Y-137645971D01*
X109782173Y-137645972D01*
X109779454Y-137646330D01*
X109352470Y-137740990D01*
X109349845Y-137741818D01*
X109349840Y-137741819D01*
X108937988Y-137871675D01*
X108937980Y-137871678D01*
X108935360Y-137872504D01*
X108531300Y-138039872D01*
X108143364Y-138241818D01*
X107774505Y-138476807D01*
X107772337Y-138478471D01*
X107772325Y-138478479D01*
X107624462Y-138591939D01*
X107427531Y-138743050D01*
X107425503Y-138744908D01*
X107425495Y-138744915D01*
X107404873Y-138763812D01*
X107105081Y-139038520D01*
X107103230Y-139040540D01*
X106811476Y-139358934D01*
X106811469Y-139358942D01*
X106809611Y-139360970D01*
X106807929Y-139363162D01*
X106545040Y-139705764D01*
X106545032Y-139705776D01*
X106543368Y-139707944D01*
X106308379Y-140076803D01*
X106106433Y-140464739D01*
X105939065Y-140868799D01*
X105807551Y-141285909D01*
X105712891Y-141712893D01*
X105655805Y-142146504D01*
X105655685Y-142149253D01*
X105655684Y-142149264D01*
X105642756Y-142445373D01*
X105637272Y-142570978D01*
X105636309Y-142577163D01*
X105636829Y-142581136D01*
X105636728Y-142583439D01*
X105637130Y-142583439D01*
X105637646Y-142587386D01*
X105637646Y-142587388D01*
X105640436Y-142608722D01*
X105641500Y-142625059D01*
X105641500Y-147534072D01*
X105640000Y-147553457D01*
X105636309Y-147577163D01*
X105637130Y-147583439D01*
X105636728Y-147583439D01*
X105637064Y-147591136D01*
X105653810Y-147974674D01*
X105655805Y-148020374D01*
X105712891Y-148453985D01*
X105807551Y-148880969D01*
X105939065Y-149298079D01*
X106106433Y-149702139D01*
X106308379Y-150090075D01*
X106543368Y-150458934D01*
X106545032Y-150461102D01*
X106545040Y-150461114D01*
X106807929Y-150803716D01*
X106809611Y-150805908D01*
X106811469Y-150807936D01*
X106811476Y-150807944D01*
X107082420Y-151103628D01*
X107105081Y-151128358D01*
X107107101Y-151130209D01*
X107425495Y-151421963D01*
X107425503Y-151421970D01*
X107427531Y-151423828D01*
X107429723Y-151425510D01*
X107772325Y-151688399D01*
X107772337Y-151688407D01*
X107774505Y-151690071D01*
X108143364Y-151925060D01*
X108531300Y-152127006D01*
X108935360Y-152294374D01*
X108937980Y-152295200D01*
X108937988Y-152295203D01*
X109349840Y-152425059D01*
X109349845Y-152425060D01*
X109352470Y-152425888D01*
X109779454Y-152520548D01*
X109782173Y-152520906D01*
X109782179Y-152520907D01*
X109944621Y-152542293D01*
X110213065Y-152577634D01*
X110215814Y-152577754D01*
X110215825Y-152577755D01*
X110647252Y-152596591D01*
X110650000Y-152596711D01*
X110652748Y-152596591D01*
X111084175Y-152577755D01*
X111084186Y-152577754D01*
X111086935Y-152577634D01*
X111355379Y-152542293D01*
X111517821Y-152520907D01*
X111517827Y-152520906D01*
X111520546Y-152520548D01*
X111947530Y-152425888D01*
X111950155Y-152425060D01*
X111950160Y-152425059D01*
X112362012Y-152295203D01*
X112362020Y-152295200D01*
X112364640Y-152294374D01*
X112768700Y-152127006D01*
X113156636Y-151925060D01*
X113525495Y-151690071D01*
X113527663Y-151688407D01*
X113527675Y-151688399D01*
X113870277Y-151425510D01*
X113872469Y-151423828D01*
X113874497Y-151421970D01*
X113874505Y-151421963D01*
X114192899Y-151130209D01*
X114194919Y-151128358D01*
X114217580Y-151103628D01*
X114488524Y-150807944D01*
X114488531Y-150807936D01*
X114490389Y-150805908D01*
X114492071Y-150803716D01*
X114754960Y-150461114D01*
X114754968Y-150461102D01*
X114756632Y-150458934D01*
X114991621Y-150090075D01*
X115003739Y-150066797D01*
X115052933Y-150015612D01*
X115121994Y-149999147D01*
X115188993Y-150022634D01*
X115232659Y-150078614D01*
X115241500Y-150124980D01*
X115241500Y-160433629D01*
X115221498Y-160501750D01*
X115204595Y-160522724D01*
X111608350Y-164118969D01*
X111602663Y-164124315D01*
X111556596Y-164165000D01*
X111552368Y-164170983D01*
X111549005Y-164175741D01*
X111535203Y-164192116D01*
X108641089Y-167086230D01*
X108626677Y-167098616D01*
X108615082Y-167107149D01*
X108615077Y-167107154D01*
X108609182Y-167111492D01*
X108604443Y-167117070D01*
X108604440Y-167117073D01*
X108594448Y-167128835D01*
X108535099Y-167167800D01*
X108464106Y-167168493D01*
X108454193Y-167165238D01*
X108417599Y-167151519D01*
X108402357Y-167147895D01*
X108351486Y-167142369D01*
X108344672Y-167142000D01*
X108172115Y-167142000D01*
X108156876Y-167146475D01*
X108155671Y-167147865D01*
X108154000Y-167155548D01*
X108154000Y-168065500D01*
X108133998Y-168133621D01*
X108080342Y-168180114D01*
X108028000Y-168191500D01*
X107772000Y-168191500D01*
X107703879Y-168171498D01*
X107657386Y-168117842D01*
X107646000Y-168065500D01*
X107646000Y-167160116D01*
X107641525Y-167144877D01*
X107640135Y-167143672D01*
X107632452Y-167142001D01*
X107455331Y-167142001D01*
X107448510Y-167142371D01*
X107397648Y-167147895D01*
X107382396Y-167151521D01*
X107261946Y-167196676D01*
X107246351Y-167205214D01*
X107144276Y-167281715D01*
X107131715Y-167294276D01*
X107055214Y-167396351D01*
X107046676Y-167411946D01*
X107001522Y-167532394D01*
X106997895Y-167547649D01*
X106992369Y-167598514D01*
X106992000Y-167605327D01*
X106992001Y-168065500D01*
X106971999Y-168133621D01*
X106918344Y-168180114D01*
X106866001Y-168191500D01*
X106444431Y-168191500D01*
X106376310Y-168171498D01*
X106345364Y-168143357D01*
X106337713Y-168133621D01*
X106234336Y-168002082D01*
X106091132Y-167877260D01*
X105927144Y-167781366D01*
X105748136Y-167717774D01*
X105662188Y-167704472D01*
X105566260Y-167689624D01*
X105566255Y-167689624D01*
X105560403Y-167688718D01*
X105492899Y-167691030D01*
X105376463Y-167695018D01*
X105376459Y-167695018D01*
X105370547Y-167695221D01*
X105261872Y-167719754D01*
X105191017Y-167735749D01*
X105191014Y-167735750D01*
X105185242Y-167737053D01*
X105179814Y-167739411D01*
X105179811Y-167739412D01*
X105016434Y-167810385D01*
X105016429Y-167810388D01*
X105011005Y-167812744D01*
X104853961Y-167919633D01*
X104719634Y-168053960D01*
X104612745Y-168211003D01*
X104610389Y-168216427D01*
X104610386Y-168216432D01*
X104573571Y-168301179D01*
X104537054Y-168385240D01*
X104495221Y-168570545D01*
X104488718Y-168760401D01*
X104489624Y-168766253D01*
X104489624Y-168766258D01*
X104489628Y-168766282D01*
X104517774Y-168948134D01*
X104581366Y-169127142D01*
X104677258Y-169291131D01*
X104802080Y-169434334D01*
X104865734Y-169484360D01*
X104902978Y-169513630D01*
X104944178Y-169571449D01*
X104947579Y-169642364D01*
X104912099Y-169703860D01*
X104849005Y-169736413D01*
X104818527Y-169738524D01*
X104809318Y-169738041D01*
X104809313Y-169738041D01*
X104802936Y-169737707D01*
X104647587Y-169761201D01*
X104616715Y-169765870D01*
X104616714Y-169765870D01*
X104610401Y-169766825D01*
X104604415Y-169769028D01*
X104604409Y-169769029D01*
X104433640Y-169831860D01*
X104433635Y-169831862D01*
X104427654Y-169834063D01*
X104262160Y-169936674D01*
X104257527Y-169941055D01*
X104257526Y-169941056D01*
X104125315Y-170066081D01*
X104120678Y-170070466D01*
X104008989Y-170229975D01*
X103931655Y-170408684D01*
X103930350Y-170414931D01*
X103930349Y-170414934D01*
X103911268Y-170506273D01*
X103891835Y-170599293D01*
X103891500Y-170605685D01*
X103891500Y-171348663D01*
X103906235Y-171493727D01*
X103908144Y-171499818D01*
X103962556Y-171673451D01*
X103962558Y-171673456D01*
X103964465Y-171679541D01*
X104058870Y-171849850D01*
X104063019Y-171854691D01*
X104063022Y-171854695D01*
X104122684Y-171924303D01*
X104185591Y-171997698D01*
X104339453Y-172117046D01*
X104345176Y-172119862D01*
X104345179Y-172119864D01*
X104508444Y-172200200D01*
X104514171Y-172203018D01*
X104520349Y-172204627D01*
X104520351Y-172204628D01*
X104696425Y-172250492D01*
X104696428Y-172250492D01*
X104702607Y-172252102D01*
X104872095Y-172260984D01*
X104939075Y-172284523D01*
X104982696Y-172340539D01*
X104991500Y-172386811D01*
X104991500Y-172614813D01*
X104971498Y-172682934D01*
X104917842Y-172729427D01*
X104858906Y-172740640D01*
X104809318Y-172738041D01*
X104809313Y-172738041D01*
X104802936Y-172737707D01*
X104647587Y-172761201D01*
X104616715Y-172765870D01*
X104616714Y-172765870D01*
X104610401Y-172766825D01*
X104604415Y-172769028D01*
X104604409Y-172769029D01*
X104433640Y-172831860D01*
X104433635Y-172831862D01*
X104427654Y-172834063D01*
X104262160Y-172936674D01*
X104257527Y-172941055D01*
X104257526Y-172941056D01*
X104125315Y-173066081D01*
X104120678Y-173070466D01*
X104008989Y-173229975D01*
X103931655Y-173408684D01*
X103930350Y-173414931D01*
X103930349Y-173414934D01*
X103911268Y-173506273D01*
X103891835Y-173599293D01*
X103891500Y-173605685D01*
X103891500Y-174348663D01*
X103891917Y-174352765D01*
X103891880Y-174352963D01*
X103891984Y-174355022D01*
X103891491Y-174355047D01*
X103878903Y-174422557D01*
X103830222Y-174474235D01*
X103766562Y-174491500D01*
X103724215Y-174491500D01*
X103656094Y-174471498D01*
X103609601Y-174417842D01*
X103598840Y-174378037D01*
X102130390Y-159693539D01*
X108986309Y-159693539D01*
X108987130Y-159699815D01*
X108986849Y-159699815D01*
X109005425Y-159947695D01*
X109060738Y-160190037D01*
X109151553Y-160421429D01*
X109275840Y-160636701D01*
X109430824Y-160831045D01*
X109434276Y-160834248D01*
X109434277Y-160834249D01*
X109575497Y-160965282D01*
X109613042Y-161000119D01*
X109616944Y-161002779D01*
X109811127Y-161135170D01*
X109818425Y-161140146D01*
X109822674Y-161142192D01*
X109822677Y-161142194D01*
X109931601Y-161194649D01*
X110042383Y-161247999D01*
X110046885Y-161249388D01*
X110046891Y-161249390D01*
X110143966Y-161279333D01*
X110279914Y-161321267D01*
X110284564Y-161321968D01*
X110284569Y-161321969D01*
X110389473Y-161337780D01*
X110525713Y-161358315D01*
X110774287Y-161358315D01*
X110910527Y-161337780D01*
X111015431Y-161321969D01*
X111015436Y-161321968D01*
X111020086Y-161321267D01*
X111257617Y-161247999D01*
X111332063Y-161212148D01*
X111477327Y-161142192D01*
X111481576Y-161140146D01*
X111485478Y-161137486D01*
X111683056Y-161002780D01*
X111683062Y-161002775D01*
X111686958Y-161000119D01*
X111724504Y-160965282D01*
X111865723Y-160834249D01*
X111865724Y-160834248D01*
X111869176Y-160831045D01*
X112024160Y-160636701D01*
X112148447Y-160421429D01*
X112239262Y-160190037D01*
X112294575Y-159947695D01*
X112310681Y-159732771D01*
X112312076Y-159721280D01*
X112312768Y-159717170D01*
X112312768Y-159717167D01*
X112313576Y-159712367D01*
X112313729Y-159699815D01*
X112309773Y-159672191D01*
X112308500Y-159654329D01*
X112308500Y-159253065D01*
X112310246Y-159232160D01*
X112312770Y-159217159D01*
X112312770Y-159217156D01*
X112313576Y-159212367D01*
X112313729Y-159199815D01*
X112313039Y-159194995D01*
X112313010Y-159194550D01*
X112312200Y-159187123D01*
X112311744Y-159181030D01*
X112294575Y-158951935D01*
X112239262Y-158709593D01*
X112148447Y-158478201D01*
X112024160Y-158262929D01*
X111869176Y-158068585D01*
X111686958Y-157899511D01*
X111683062Y-157896855D01*
X111683056Y-157896850D01*
X111485472Y-157762140D01*
X111485470Y-157762139D01*
X111481576Y-157759484D01*
X111257617Y-157651631D01*
X111020086Y-157578363D01*
X111015436Y-157577662D01*
X111015431Y-157577661D01*
X110910527Y-157561850D01*
X110774287Y-157541315D01*
X110525713Y-157541315D01*
X110389473Y-157561850D01*
X110284569Y-157577661D01*
X110284564Y-157577662D01*
X110279914Y-157578363D01*
X110182306Y-157608471D01*
X110046891Y-157650240D01*
X110046885Y-157650242D01*
X110042383Y-157651631D01*
X109943719Y-157699145D01*
X109822677Y-157757436D01*
X109822674Y-157757438D01*
X109818425Y-157759484D01*
X109613042Y-157899511D01*
X109430824Y-158068585D01*
X109275840Y-158262929D01*
X109151553Y-158478201D01*
X109060738Y-158709593D01*
X109005425Y-158951935D01*
X109005073Y-158956635D01*
X109005072Y-158956640D01*
X108988632Y-159176030D01*
X108987764Y-159183568D01*
X108987835Y-159183742D01*
X108986309Y-159193539D01*
X108986951Y-159198451D01*
X108986849Y-159199815D01*
X108987130Y-159199815D01*
X108988325Y-159208954D01*
X108988325Y-159208955D01*
X108990436Y-159225098D01*
X108991500Y-159241435D01*
X108991500Y-159650448D01*
X108990000Y-159669833D01*
X108987690Y-159684666D01*
X108987690Y-159684670D01*
X108986309Y-159693539D01*
X102130390Y-159693539D01*
X99617434Y-134563984D01*
X108342001Y-134563984D01*
X108342195Y-134568920D01*
X108344430Y-134597336D01*
X108346730Y-134609931D01*
X108389107Y-134755790D01*
X108395352Y-134770221D01*
X108471911Y-134899678D01*
X108481551Y-134912104D01*
X108587896Y-135018449D01*
X108600322Y-135028089D01*
X108729779Y-135104648D01*
X108744210Y-135110893D01*
X108878605Y-135149939D01*
X108892706Y-135149899D01*
X108896000Y-135142630D01*
X108896000Y-134147115D01*
X108891525Y-134131876D01*
X108890135Y-134130671D01*
X108882452Y-134129000D01*
X108360116Y-134129000D01*
X108344877Y-134133475D01*
X108343672Y-134134865D01*
X108342001Y-134142548D01*
X108342001Y-134563984D01*
X99617434Y-134563984D01*
X99366076Y-132050400D01*
X106741500Y-132050400D01*
X106752474Y-132156166D01*
X106808450Y-132323946D01*
X106901522Y-132474348D01*
X107026697Y-132599305D01*
X107032927Y-132603145D01*
X107032928Y-132603146D01*
X107170090Y-132687694D01*
X107177262Y-132692115D01*
X107257005Y-132718564D01*
X107338611Y-132745632D01*
X107338613Y-132745632D01*
X107345139Y-132747797D01*
X107351975Y-132748497D01*
X107351978Y-132748498D01*
X107395031Y-132752909D01*
X107449600Y-132758500D01*
X108250400Y-132758500D01*
X108253646Y-132758163D01*
X108253650Y-132758163D01*
X108273187Y-132756136D01*
X108295475Y-132753823D01*
X108365295Y-132766687D01*
X108417077Y-132815258D01*
X108434380Y-132884114D01*
X108416932Y-132943289D01*
X108395352Y-132979779D01*
X108389107Y-132994210D01*
X108346731Y-133140065D01*
X108344430Y-133152667D01*
X108342193Y-133181084D01*
X108342000Y-133186014D01*
X108342000Y-133602885D01*
X108346475Y-133618124D01*
X108347865Y-133619329D01*
X108355548Y-133621000D01*
X108877885Y-133621000D01*
X108893124Y-133616525D01*
X108894329Y-133615135D01*
X108896000Y-133607452D01*
X108896000Y-132613122D01*
X108891525Y-132597883D01*
X108869616Y-132578898D01*
X108860881Y-132574910D01*
X108822494Y-132515186D01*
X108822490Y-132444189D01*
X108836128Y-132413565D01*
X108888275Y-132328968D01*
X108888276Y-132328966D01*
X108892115Y-132322738D01*
X108947797Y-132154861D01*
X108958500Y-132050400D01*
X108958500Y-130649600D01*
X108947526Y-130543834D01*
X108891550Y-130376054D01*
X108798478Y-130225652D01*
X108673303Y-130100695D01*
X108667072Y-130096854D01*
X108528968Y-130011725D01*
X108528966Y-130011724D01*
X108522738Y-130007885D01*
X108442995Y-129981436D01*
X108361389Y-129954368D01*
X108361387Y-129954368D01*
X108354861Y-129952203D01*
X108348025Y-129951503D01*
X108348022Y-129951502D01*
X108304969Y-129947091D01*
X108250400Y-129941500D01*
X107449600Y-129941500D01*
X107446354Y-129941837D01*
X107446350Y-129941837D01*
X107350692Y-129951762D01*
X107350688Y-129951763D01*
X107343834Y-129952474D01*
X107337298Y-129954655D01*
X107337296Y-129954655D01*
X107235842Y-129988503D01*
X107176054Y-130008450D01*
X107025652Y-130101522D01*
X106900695Y-130226697D01*
X106807885Y-130377262D01*
X106752203Y-130545139D01*
X106741500Y-130649600D01*
X106741500Y-132050400D01*
X99366076Y-132050400D01*
X98659125Y-124980891D01*
X98658500Y-124968354D01*
X98658500Y-113850000D01*
X99284002Y-113850000D01*
X99303957Y-114078087D01*
X99305381Y-114083400D01*
X99305381Y-114083402D01*
X99341842Y-114219473D01*
X99363216Y-114299243D01*
X99365539Y-114304224D01*
X99365539Y-114304225D01*
X99457651Y-114501762D01*
X99457654Y-114501767D01*
X99459977Y-114506749D01*
X99463134Y-114511257D01*
X99565889Y-114658006D01*
X99591302Y-114694300D01*
X99753200Y-114856198D01*
X99757708Y-114859355D01*
X99757711Y-114859357D01*
X99785269Y-114878653D01*
X99940751Y-114987523D01*
X99945733Y-114989846D01*
X99945738Y-114989849D01*
X100143275Y-115081961D01*
X100148257Y-115084284D01*
X100153565Y-115085706D01*
X100153567Y-115085707D01*
X100364098Y-115142119D01*
X100364100Y-115142119D01*
X100369413Y-115143543D01*
X100597500Y-115163498D01*
X100825587Y-115143543D01*
X100830900Y-115142119D01*
X100830902Y-115142119D01*
X101041433Y-115085707D01*
X101041435Y-115085706D01*
X101046743Y-115084284D01*
X101051725Y-115081961D01*
X101249262Y-114989849D01*
X101249267Y-114989846D01*
X101254249Y-114987523D01*
X101409731Y-114878653D01*
X101437289Y-114859357D01*
X101437292Y-114859355D01*
X101441800Y-114856198D01*
X101603698Y-114694300D01*
X101629112Y-114658006D01*
X101731866Y-114511257D01*
X101735023Y-114506749D01*
X101737346Y-114501767D01*
X101737349Y-114501762D01*
X101829461Y-114304225D01*
X101829461Y-114304224D01*
X101831784Y-114299243D01*
X101853159Y-114219473D01*
X101889619Y-114083402D01*
X101889619Y-114083400D01*
X101891043Y-114078087D01*
X101910998Y-113850000D01*
X101891043Y-113621913D01*
X101831784Y-113400757D01*
X101829461Y-113395775D01*
X101737349Y-113198238D01*
X101737346Y-113198233D01*
X101735023Y-113193251D01*
X101603698Y-113005700D01*
X101441800Y-112843802D01*
X101437292Y-112840645D01*
X101437289Y-112840643D01*
X101359111Y-112785902D01*
X101254249Y-112712477D01*
X101249267Y-112710154D01*
X101249262Y-112710151D01*
X101215043Y-112694195D01*
X101161758Y-112647278D01*
X101142297Y-112579001D01*
X101162839Y-112511041D01*
X101215043Y-112465805D01*
X101249262Y-112449849D01*
X101249267Y-112449846D01*
X101254249Y-112447523D01*
X101359111Y-112374098D01*
X101437289Y-112319357D01*
X101437292Y-112319355D01*
X101441800Y-112316198D01*
X101603698Y-112154300D01*
X101735023Y-111966749D01*
X101737346Y-111961767D01*
X101737349Y-111961762D01*
X101829461Y-111764225D01*
X101829461Y-111764224D01*
X101831784Y-111759243D01*
X101891043Y-111538087D01*
X101910998Y-111310000D01*
X101891043Y-111081913D01*
X101831784Y-110860757D01*
X101794872Y-110781598D01*
X101737349Y-110658238D01*
X101737346Y-110658233D01*
X101735023Y-110653251D01*
X101603698Y-110465700D01*
X101441800Y-110303802D01*
X101437292Y-110300645D01*
X101437289Y-110300643D01*
X101359111Y-110245902D01*
X101254249Y-110172477D01*
X101249267Y-110170154D01*
X101249262Y-110170151D01*
X101215043Y-110154195D01*
X101161758Y-110107278D01*
X101142297Y-110039001D01*
X101162839Y-109971041D01*
X101215043Y-109925805D01*
X101249262Y-109909849D01*
X101249267Y-109909846D01*
X101254249Y-109907523D01*
X101359111Y-109834098D01*
X101437289Y-109779357D01*
X101437292Y-109779355D01*
X101441800Y-109776198D01*
X101603698Y-109614300D01*
X101735023Y-109426749D01*
X101737346Y-109421767D01*
X101737349Y-109421762D01*
X101829461Y-109224225D01*
X101829461Y-109224224D01*
X101831784Y-109219243D01*
X101891043Y-108998087D01*
X101910998Y-108770000D01*
X101891043Y-108541913D01*
X101831784Y-108320757D01*
X101829461Y-108315775D01*
X101737349Y-108118238D01*
X101737346Y-108118233D01*
X101735023Y-108113251D01*
X101603698Y-107925700D01*
X101441800Y-107763802D01*
X101437292Y-107760645D01*
X101437289Y-107760643D01*
X101359111Y-107705902D01*
X101254249Y-107632477D01*
X101249267Y-107630154D01*
X101249262Y-107630151D01*
X101215043Y-107614195D01*
X101161758Y-107567278D01*
X101142297Y-107499001D01*
X101162839Y-107431041D01*
X101215043Y-107385805D01*
X101249262Y-107369849D01*
X101249267Y-107369846D01*
X101254249Y-107367523D01*
X101359111Y-107294098D01*
X101437289Y-107239357D01*
X101437292Y-107239355D01*
X101441800Y-107236198D01*
X101603698Y-107074300D01*
X101735023Y-106886749D01*
X101737346Y-106881767D01*
X101737349Y-106881762D01*
X101829461Y-106684225D01*
X101829461Y-106684224D01*
X101831784Y-106679243D01*
X101891043Y-106458087D01*
X101910998Y-106230000D01*
X101891043Y-106001913D01*
X101831784Y-105780757D01*
X101829461Y-105775775D01*
X101737349Y-105578238D01*
X101737346Y-105578233D01*
X101735023Y-105573251D01*
X101603698Y-105385700D01*
X101441800Y-105223802D01*
X101437292Y-105220645D01*
X101437289Y-105220643D01*
X101359111Y-105165902D01*
X101254249Y-105092477D01*
X101249267Y-105090154D01*
X101249262Y-105090151D01*
X101215043Y-105074195D01*
X101161758Y-105027278D01*
X101142297Y-104959001D01*
X101162839Y-104891041D01*
X101215043Y-104845805D01*
X101249262Y-104829849D01*
X101249267Y-104829846D01*
X101254249Y-104827523D01*
X101359111Y-104754098D01*
X101437289Y-104699357D01*
X101437292Y-104699355D01*
X101441800Y-104696198D01*
X101603698Y-104534300D01*
X101735023Y-104346749D01*
X101737346Y-104341767D01*
X101737349Y-104341762D01*
X101829461Y-104144225D01*
X101829461Y-104144224D01*
X101831784Y-104139243D01*
X101891043Y-103918087D01*
X101910998Y-103690000D01*
X101891043Y-103461913D01*
X101831784Y-103240757D01*
X101829461Y-103235775D01*
X101737349Y-103038238D01*
X101737346Y-103038233D01*
X101735023Y-103033251D01*
X101603698Y-102845700D01*
X101441800Y-102683802D01*
X101437292Y-102680645D01*
X101437289Y-102680643D01*
X101359111Y-102625902D01*
X101254249Y-102552477D01*
X101249267Y-102550154D01*
X101249262Y-102550151D01*
X101215043Y-102534195D01*
X101161758Y-102487278D01*
X101142297Y-102419001D01*
X101162839Y-102351041D01*
X101215043Y-102305805D01*
X101249262Y-102289849D01*
X101249267Y-102289846D01*
X101254249Y-102287523D01*
X101359111Y-102214098D01*
X101437289Y-102159357D01*
X101437292Y-102159355D01*
X101441800Y-102156198D01*
X101603698Y-101994300D01*
X101735023Y-101806749D01*
X101737346Y-101801767D01*
X101737349Y-101801762D01*
X101829461Y-101604225D01*
X101829461Y-101604224D01*
X101831784Y-101599243D01*
X101891043Y-101378087D01*
X101910998Y-101150000D01*
X101891043Y-100921913D01*
X101831784Y-100700757D01*
X101829461Y-100695775D01*
X101737349Y-100498238D01*
X101737346Y-100498233D01*
X101735023Y-100493251D01*
X101603698Y-100305700D01*
X101441800Y-100143802D01*
X101437292Y-100140645D01*
X101437289Y-100140643D01*
X101359111Y-100085902D01*
X101254249Y-100012477D01*
X101249267Y-100010154D01*
X101249262Y-100010151D01*
X101215043Y-99994195D01*
X101161758Y-99947278D01*
X101142297Y-99879001D01*
X101162839Y-99811041D01*
X101215043Y-99765805D01*
X101249262Y-99749849D01*
X101249267Y-99749846D01*
X101254249Y-99747523D01*
X101359111Y-99674098D01*
X101437289Y-99619357D01*
X101437292Y-99619355D01*
X101441800Y-99616198D01*
X101603698Y-99454300D01*
X101735023Y-99266749D01*
X101737346Y-99261767D01*
X101737349Y-99261762D01*
X101829461Y-99064225D01*
X101829461Y-99064224D01*
X101831784Y-99059243D01*
X101891043Y-98838087D01*
X101910998Y-98610000D01*
X101891043Y-98381913D01*
X101831784Y-98160757D01*
X101829461Y-98155775D01*
X101737349Y-97958238D01*
X101737346Y-97958233D01*
X101735023Y-97953251D01*
X101603698Y-97765700D01*
X101441800Y-97603802D01*
X101437292Y-97600645D01*
X101437289Y-97600643D01*
X101359111Y-97545902D01*
X101254249Y-97472477D01*
X101249267Y-97470154D01*
X101249262Y-97470151D01*
X101215043Y-97454195D01*
X101161758Y-97407278D01*
X101142297Y-97339001D01*
X101162839Y-97271041D01*
X101215043Y-97225805D01*
X101249262Y-97209849D01*
X101249267Y-97209846D01*
X101254249Y-97207523D01*
X101359111Y-97134098D01*
X101437289Y-97079357D01*
X101437292Y-97079355D01*
X101441800Y-97076198D01*
X101603698Y-96914300D01*
X101735023Y-96726749D01*
X101737346Y-96721767D01*
X101737349Y-96721762D01*
X101829461Y-96524225D01*
X101829461Y-96524224D01*
X101831784Y-96519243D01*
X101891043Y-96298087D01*
X101910998Y-96070000D01*
X101891043Y-95841913D01*
X101831784Y-95620757D01*
X101829461Y-95615775D01*
X101737349Y-95418238D01*
X101737346Y-95418233D01*
X101735023Y-95413251D01*
X101603698Y-95225700D01*
X101441800Y-95063802D01*
X101437292Y-95060645D01*
X101437289Y-95060643D01*
X101359111Y-95005902D01*
X101254249Y-94932477D01*
X101249267Y-94930154D01*
X101249262Y-94930151D01*
X101215043Y-94914195D01*
X101161758Y-94867278D01*
X101142297Y-94799001D01*
X101162839Y-94731041D01*
X101215043Y-94685805D01*
X101249262Y-94669849D01*
X101249267Y-94669846D01*
X101254249Y-94667523D01*
X101359111Y-94594098D01*
X101437289Y-94539357D01*
X101437292Y-94539355D01*
X101441800Y-94536198D01*
X101603698Y-94374300D01*
X101735023Y-94186749D01*
X101737346Y-94181767D01*
X101737349Y-94181762D01*
X101829461Y-93984225D01*
X101829461Y-93984224D01*
X101831784Y-93979243D01*
X101891043Y-93758087D01*
X101910998Y-93530000D01*
X101891043Y-93301913D01*
X101831784Y-93080757D01*
X101829461Y-93075775D01*
X101737349Y-92878238D01*
X101737346Y-92878233D01*
X101735023Y-92873251D01*
X101603698Y-92685700D01*
X101441800Y-92523802D01*
X101437292Y-92520645D01*
X101437289Y-92520643D01*
X101359111Y-92465902D01*
X101254249Y-92392477D01*
X101249267Y-92390154D01*
X101249262Y-92390151D01*
X101215043Y-92374195D01*
X101161758Y-92327278D01*
X101142297Y-92259001D01*
X101162839Y-92191041D01*
X101215043Y-92145805D01*
X101249262Y-92129849D01*
X101249267Y-92129846D01*
X101254249Y-92127523D01*
X101359111Y-92054098D01*
X101437289Y-91999357D01*
X101437292Y-91999355D01*
X101441800Y-91996198D01*
X101603698Y-91834300D01*
X101735023Y-91646749D01*
X101737346Y-91641767D01*
X101737349Y-91641762D01*
X101829461Y-91444225D01*
X101829461Y-91444224D01*
X101831784Y-91439243D01*
X101835273Y-91426224D01*
X101889619Y-91223402D01*
X101889619Y-91223400D01*
X101891043Y-91218087D01*
X101910998Y-90990000D01*
X101891043Y-90761913D01*
X101831784Y-90540757D01*
X101829461Y-90535775D01*
X101737349Y-90338238D01*
X101737346Y-90338233D01*
X101735023Y-90333251D01*
X101603698Y-90145700D01*
X101441800Y-89983802D01*
X101437292Y-89980645D01*
X101437289Y-89980643D01*
X101359111Y-89925902D01*
X101254249Y-89852477D01*
X101249267Y-89850154D01*
X101249262Y-89850151D01*
X101215043Y-89834195D01*
X101161758Y-89787278D01*
X101142297Y-89719001D01*
X101162839Y-89651041D01*
X101215043Y-89605805D01*
X101249262Y-89589849D01*
X101249267Y-89589846D01*
X101254249Y-89587523D01*
X101359111Y-89514098D01*
X101437289Y-89459357D01*
X101437292Y-89459355D01*
X101441800Y-89456198D01*
X101603698Y-89294300D01*
X101735023Y-89106749D01*
X101737346Y-89101767D01*
X101737349Y-89101762D01*
X101829461Y-88904225D01*
X101829461Y-88904224D01*
X101831784Y-88899243D01*
X101891043Y-88678087D01*
X101910998Y-88450000D01*
X101891043Y-88221913D01*
X101831784Y-88000757D01*
X101829461Y-87995775D01*
X101737349Y-87798238D01*
X101737346Y-87798233D01*
X101735023Y-87793251D01*
X101603698Y-87605700D01*
X101441800Y-87443802D01*
X101437292Y-87440645D01*
X101437289Y-87440643D01*
X101359111Y-87385902D01*
X101254249Y-87312477D01*
X101249267Y-87310154D01*
X101249262Y-87310151D01*
X101215043Y-87294195D01*
X101161758Y-87247278D01*
X101142297Y-87179001D01*
X101162839Y-87111041D01*
X101215043Y-87065805D01*
X101249262Y-87049849D01*
X101249267Y-87049846D01*
X101254249Y-87047523D01*
X101359111Y-86974098D01*
X101437289Y-86919357D01*
X101437292Y-86919355D01*
X101441800Y-86916198D01*
X101603698Y-86754300D01*
X101735023Y-86566749D01*
X101737346Y-86561767D01*
X101737349Y-86561762D01*
X101829461Y-86364225D01*
X101829461Y-86364224D01*
X101831784Y-86359243D01*
X101891043Y-86138087D01*
X101910998Y-85910000D01*
X101891043Y-85681913D01*
X101831784Y-85460757D01*
X101829461Y-85455775D01*
X101737349Y-85258238D01*
X101737346Y-85258233D01*
X101735023Y-85253251D01*
X101603698Y-85065700D01*
X101441800Y-84903802D01*
X101437292Y-84900645D01*
X101437289Y-84900643D01*
X101330530Y-84825890D01*
X101254249Y-84772477D01*
X101249267Y-84770154D01*
X101249262Y-84770151D01*
X101214451Y-84753919D01*
X101161166Y-84707002D01*
X101141705Y-84638725D01*
X101162247Y-84570765D01*
X101214451Y-84525529D01*
X101249011Y-84509414D01*
X101258506Y-84503931D01*
X101310548Y-84467491D01*
X101318924Y-84457012D01*
X101311856Y-84443566D01*
X100610312Y-83742022D01*
X100596368Y-83734408D01*
X100594535Y-83734539D01*
X100587920Y-83738790D01*
X99882423Y-84444287D01*
X99875993Y-84456062D01*
X99885289Y-84468077D01*
X99936494Y-84503931D01*
X99945989Y-84509414D01*
X99980549Y-84525529D01*
X100033834Y-84572446D01*
X100053295Y-84640723D01*
X100032753Y-84708683D01*
X99980549Y-84753919D01*
X99945738Y-84770151D01*
X99945733Y-84770154D01*
X99940751Y-84772477D01*
X99864470Y-84825890D01*
X99757711Y-84900643D01*
X99757708Y-84900645D01*
X99753200Y-84903802D01*
X99591302Y-85065700D01*
X99459977Y-85253251D01*
X99457654Y-85258233D01*
X99457651Y-85258238D01*
X99365539Y-85455775D01*
X99363216Y-85460757D01*
X99303957Y-85681913D01*
X99284002Y-85910000D01*
X99303957Y-86138087D01*
X99363216Y-86359243D01*
X99365539Y-86364224D01*
X99365539Y-86364225D01*
X99457651Y-86561762D01*
X99457654Y-86561767D01*
X99459977Y-86566749D01*
X99591302Y-86754300D01*
X99753200Y-86916198D01*
X99757708Y-86919355D01*
X99757711Y-86919357D01*
X99835889Y-86974098D01*
X99940751Y-87047523D01*
X99945733Y-87049846D01*
X99945738Y-87049849D01*
X99979957Y-87065805D01*
X100033242Y-87112722D01*
X100052703Y-87180999D01*
X100032161Y-87248959D01*
X99979957Y-87294195D01*
X99945738Y-87310151D01*
X99945733Y-87310154D01*
X99940751Y-87312477D01*
X99835889Y-87385902D01*
X99757711Y-87440643D01*
X99757708Y-87440645D01*
X99753200Y-87443802D01*
X99591302Y-87605700D01*
X99459977Y-87793251D01*
X99457654Y-87798233D01*
X99457651Y-87798238D01*
X99365539Y-87995775D01*
X99363216Y-88000757D01*
X99303957Y-88221913D01*
X99284002Y-88450000D01*
X99303957Y-88678087D01*
X99363216Y-88899243D01*
X99365539Y-88904224D01*
X99365539Y-88904225D01*
X99457651Y-89101762D01*
X99457654Y-89101767D01*
X99459977Y-89106749D01*
X99591302Y-89294300D01*
X99753200Y-89456198D01*
X99757708Y-89459355D01*
X99757711Y-89459357D01*
X99835889Y-89514098D01*
X99940751Y-89587523D01*
X99945733Y-89589846D01*
X99945738Y-89589849D01*
X99979957Y-89605805D01*
X100033242Y-89652722D01*
X100052703Y-89720999D01*
X100032161Y-89788959D01*
X99979957Y-89834195D01*
X99945738Y-89850151D01*
X99945733Y-89850154D01*
X99940751Y-89852477D01*
X99835889Y-89925902D01*
X99757711Y-89980643D01*
X99757708Y-89980645D01*
X99753200Y-89983802D01*
X99591302Y-90145700D01*
X99459977Y-90333251D01*
X99457654Y-90338233D01*
X99457651Y-90338238D01*
X99365539Y-90535775D01*
X99363216Y-90540757D01*
X99303957Y-90761913D01*
X99284002Y-90990000D01*
X99303957Y-91218087D01*
X99305381Y-91223400D01*
X99305381Y-91223402D01*
X99359728Y-91426224D01*
X99363216Y-91439243D01*
X99365539Y-91444224D01*
X99365539Y-91444225D01*
X99457651Y-91641762D01*
X99457654Y-91641767D01*
X99459977Y-91646749D01*
X99591302Y-91834300D01*
X99753200Y-91996198D01*
X99757708Y-91999355D01*
X99757711Y-91999357D01*
X99835889Y-92054098D01*
X99940751Y-92127523D01*
X99945733Y-92129846D01*
X99945738Y-92129849D01*
X99979957Y-92145805D01*
X100033242Y-92192722D01*
X100052703Y-92260999D01*
X100032161Y-92328959D01*
X99979957Y-92374195D01*
X99945738Y-92390151D01*
X99945733Y-92390154D01*
X99940751Y-92392477D01*
X99835889Y-92465902D01*
X99757711Y-92520643D01*
X99757708Y-92520645D01*
X99753200Y-92523802D01*
X99591302Y-92685700D01*
X99459977Y-92873251D01*
X99457654Y-92878233D01*
X99457651Y-92878238D01*
X99365539Y-93075775D01*
X99363216Y-93080757D01*
X99303957Y-93301913D01*
X99284002Y-93530000D01*
X99303957Y-93758087D01*
X99363216Y-93979243D01*
X99365539Y-93984224D01*
X99365539Y-93984225D01*
X99457651Y-94181762D01*
X99457654Y-94181767D01*
X99459977Y-94186749D01*
X99591302Y-94374300D01*
X99753200Y-94536198D01*
X99757708Y-94539355D01*
X99757711Y-94539357D01*
X99835889Y-94594098D01*
X99940751Y-94667523D01*
X99945733Y-94669846D01*
X99945738Y-94669849D01*
X99979957Y-94685805D01*
X100033242Y-94732722D01*
X100052703Y-94800999D01*
X100032161Y-94868959D01*
X99979957Y-94914195D01*
X99945738Y-94930151D01*
X99945733Y-94930154D01*
X99940751Y-94932477D01*
X99835889Y-95005902D01*
X99757711Y-95060643D01*
X99757708Y-95060645D01*
X99753200Y-95063802D01*
X99591302Y-95225700D01*
X99459977Y-95413251D01*
X99457654Y-95418233D01*
X99457651Y-95418238D01*
X99365539Y-95615775D01*
X99363216Y-95620757D01*
X99303957Y-95841913D01*
X99284002Y-96070000D01*
X99303957Y-96298087D01*
X99363216Y-96519243D01*
X99365539Y-96524224D01*
X99365539Y-96524225D01*
X99457651Y-96721762D01*
X99457654Y-96721767D01*
X99459977Y-96726749D01*
X99591302Y-96914300D01*
X99753200Y-97076198D01*
X99757708Y-97079355D01*
X99757711Y-97079357D01*
X99835889Y-97134098D01*
X99940751Y-97207523D01*
X99945733Y-97209846D01*
X99945738Y-97209849D01*
X99979957Y-97225805D01*
X100033242Y-97272722D01*
X100052703Y-97340999D01*
X100032161Y-97408959D01*
X99979957Y-97454195D01*
X99945738Y-97470151D01*
X99945733Y-97470154D01*
X99940751Y-97472477D01*
X99835889Y-97545902D01*
X99757711Y-97600643D01*
X99757708Y-97600645D01*
X99753200Y-97603802D01*
X99591302Y-97765700D01*
X99459977Y-97953251D01*
X99457654Y-97958233D01*
X99457651Y-97958238D01*
X99365539Y-98155775D01*
X99363216Y-98160757D01*
X99303957Y-98381913D01*
X99284002Y-98610000D01*
X99303957Y-98838087D01*
X99363216Y-99059243D01*
X99365539Y-99064224D01*
X99365539Y-99064225D01*
X99457651Y-99261762D01*
X99457654Y-99261767D01*
X99459977Y-99266749D01*
X99591302Y-99454300D01*
X99753200Y-99616198D01*
X99757708Y-99619355D01*
X99757711Y-99619357D01*
X99835889Y-99674098D01*
X99940751Y-99747523D01*
X99945733Y-99749846D01*
X99945738Y-99749849D01*
X99979957Y-99765805D01*
X100033242Y-99812722D01*
X100052703Y-99880999D01*
X100032161Y-99948959D01*
X99979957Y-99994195D01*
X99945738Y-100010151D01*
X99945733Y-100010154D01*
X99940751Y-100012477D01*
X99835889Y-100085902D01*
X99757711Y-100140643D01*
X99757708Y-100140645D01*
X99753200Y-100143802D01*
X99591302Y-100305700D01*
X99459977Y-100493251D01*
X99457654Y-100498233D01*
X99457651Y-100498238D01*
X99365539Y-100695775D01*
X99363216Y-100700757D01*
X99303957Y-100921913D01*
X99284002Y-101150000D01*
X99303957Y-101378087D01*
X99363216Y-101599243D01*
X99365539Y-101604224D01*
X99365539Y-101604225D01*
X99457651Y-101801762D01*
X99457654Y-101801767D01*
X99459977Y-101806749D01*
X99591302Y-101994300D01*
X99753200Y-102156198D01*
X99757708Y-102159355D01*
X99757711Y-102159357D01*
X99835889Y-102214098D01*
X99940751Y-102287523D01*
X99945733Y-102289846D01*
X99945738Y-102289849D01*
X99979957Y-102305805D01*
X100033242Y-102352722D01*
X100052703Y-102420999D01*
X100032161Y-102488959D01*
X99979957Y-102534195D01*
X99945738Y-102550151D01*
X99945733Y-102550154D01*
X99940751Y-102552477D01*
X99835889Y-102625902D01*
X99757711Y-102680643D01*
X99757708Y-102680645D01*
X99753200Y-102683802D01*
X99591302Y-102845700D01*
X99459977Y-103033251D01*
X99457654Y-103038233D01*
X99457651Y-103038238D01*
X99365539Y-103235775D01*
X99363216Y-103240757D01*
X99303957Y-103461913D01*
X99284002Y-103690000D01*
X99303957Y-103918087D01*
X99363216Y-104139243D01*
X99365539Y-104144224D01*
X99365539Y-104144225D01*
X99457651Y-104341762D01*
X99457654Y-104341767D01*
X99459977Y-104346749D01*
X99591302Y-104534300D01*
X99753200Y-104696198D01*
X99757708Y-104699355D01*
X99757711Y-104699357D01*
X99835889Y-104754098D01*
X99940751Y-104827523D01*
X99945733Y-104829846D01*
X99945738Y-104829849D01*
X99979957Y-104845805D01*
X100033242Y-104892722D01*
X100052703Y-104960999D01*
X100032161Y-105028959D01*
X99979957Y-105074195D01*
X99945738Y-105090151D01*
X99945733Y-105090154D01*
X99940751Y-105092477D01*
X99835889Y-105165902D01*
X99757711Y-105220643D01*
X99757708Y-105220645D01*
X99753200Y-105223802D01*
X99591302Y-105385700D01*
X99459977Y-105573251D01*
X99457654Y-105578233D01*
X99457651Y-105578238D01*
X99365539Y-105775775D01*
X99363216Y-105780757D01*
X99303957Y-106001913D01*
X99284002Y-106230000D01*
X99303957Y-106458087D01*
X99363216Y-106679243D01*
X99365539Y-106684224D01*
X99365539Y-106684225D01*
X99457651Y-106881762D01*
X99457654Y-106881767D01*
X99459977Y-106886749D01*
X99591302Y-107074300D01*
X99753200Y-107236198D01*
X99757708Y-107239355D01*
X99757711Y-107239357D01*
X99835889Y-107294098D01*
X99940751Y-107367523D01*
X99945733Y-107369846D01*
X99945738Y-107369849D01*
X99979957Y-107385805D01*
X100033242Y-107432722D01*
X100052703Y-107500999D01*
X100032161Y-107568959D01*
X99979957Y-107614195D01*
X99945738Y-107630151D01*
X99945733Y-107630154D01*
X99940751Y-107632477D01*
X99835889Y-107705902D01*
X99757711Y-107760643D01*
X99757708Y-107760645D01*
X99753200Y-107763802D01*
X99591302Y-107925700D01*
X99459977Y-108113251D01*
X99457654Y-108118233D01*
X99457651Y-108118238D01*
X99365539Y-108315775D01*
X99363216Y-108320757D01*
X99303957Y-108541913D01*
X99284002Y-108770000D01*
X99303957Y-108998087D01*
X99363216Y-109219243D01*
X99365539Y-109224224D01*
X99365539Y-109224225D01*
X99457651Y-109421762D01*
X99457654Y-109421767D01*
X99459977Y-109426749D01*
X99591302Y-109614300D01*
X99753200Y-109776198D01*
X99757708Y-109779355D01*
X99757711Y-109779357D01*
X99835889Y-109834098D01*
X99940751Y-109907523D01*
X99945733Y-109909846D01*
X99945738Y-109909849D01*
X99979957Y-109925805D01*
X100033242Y-109972722D01*
X100052703Y-110040999D01*
X100032161Y-110108959D01*
X99979957Y-110154195D01*
X99945738Y-110170151D01*
X99945733Y-110170154D01*
X99940751Y-110172477D01*
X99835889Y-110245902D01*
X99757711Y-110300643D01*
X99757708Y-110300645D01*
X99753200Y-110303802D01*
X99591302Y-110465700D01*
X99459977Y-110653251D01*
X99457654Y-110658233D01*
X99457651Y-110658238D01*
X99400128Y-110781598D01*
X99363216Y-110860757D01*
X99303957Y-111081913D01*
X99284002Y-111310000D01*
X99303957Y-111538087D01*
X99363216Y-111759243D01*
X99365539Y-111764224D01*
X99365539Y-111764225D01*
X99457651Y-111961762D01*
X99457654Y-111961767D01*
X99459977Y-111966749D01*
X99591302Y-112154300D01*
X99753200Y-112316198D01*
X99757708Y-112319355D01*
X99757711Y-112319357D01*
X99835889Y-112374098D01*
X99940751Y-112447523D01*
X99945733Y-112449846D01*
X99945738Y-112449849D01*
X99979957Y-112465805D01*
X100033242Y-112512722D01*
X100052703Y-112580999D01*
X100032161Y-112648959D01*
X99979957Y-112694195D01*
X99945738Y-112710151D01*
X99945733Y-112710154D01*
X99940751Y-112712477D01*
X99835889Y-112785902D01*
X99757711Y-112840643D01*
X99757708Y-112840645D01*
X99753200Y-112843802D01*
X99591302Y-113005700D01*
X99459977Y-113193251D01*
X99457654Y-113198233D01*
X99457651Y-113198238D01*
X99365539Y-113395775D01*
X99363216Y-113400757D01*
X99303957Y-113621913D01*
X99284002Y-113850000D01*
X98658500Y-113850000D01*
X98658500Y-83375475D01*
X99284983Y-83375475D01*
X99303972Y-83592519D01*
X99305875Y-83603312D01*
X99362264Y-83813761D01*
X99366010Y-83824053D01*
X99458086Y-84021511D01*
X99463569Y-84031006D01*
X99500009Y-84083048D01*
X99510488Y-84091424D01*
X99523934Y-84084356D01*
X100225478Y-83382812D01*
X100231856Y-83371132D01*
X100961908Y-83371132D01*
X100962039Y-83372965D01*
X100966290Y-83379580D01*
X101671787Y-84085077D01*
X101683562Y-84091507D01*
X101695577Y-84082211D01*
X101731431Y-84031006D01*
X101736914Y-84021511D01*
X101828990Y-83824053D01*
X101832736Y-83813761D01*
X101889125Y-83603312D01*
X101891028Y-83592519D01*
X101910017Y-83375475D01*
X101910017Y-83364525D01*
X101891028Y-83147481D01*
X101889125Y-83136688D01*
X101832736Y-82926239D01*
X101828990Y-82915947D01*
X101736914Y-82718489D01*
X101731431Y-82708994D01*
X101694991Y-82656952D01*
X101684512Y-82648576D01*
X101671066Y-82655644D01*
X100969522Y-83357188D01*
X100961908Y-83371132D01*
X100231856Y-83371132D01*
X100233092Y-83368868D01*
X100232961Y-83367035D01*
X100228710Y-83360420D01*
X99523213Y-82654923D01*
X99511438Y-82648493D01*
X99499423Y-82657789D01*
X99463569Y-82708994D01*
X99458086Y-82718489D01*
X99366010Y-82915947D01*
X99362264Y-82926239D01*
X99305875Y-83136688D01*
X99303972Y-83147481D01*
X99284983Y-83364525D01*
X99284983Y-83375475D01*
X98658500Y-83375475D01*
X98658500Y-21647095D01*
X99942001Y-21647095D01*
X99942338Y-21653614D01*
X99952257Y-21749206D01*
X99955149Y-21762600D01*
X100006588Y-21916784D01*
X100012761Y-21929962D01*
X100098063Y-22067807D01*
X100107099Y-22079208D01*
X100221829Y-22193739D01*
X100233240Y-22202751D01*
X100371243Y-22287816D01*
X100384424Y-22293963D01*
X100538710Y-22345138D01*
X100552086Y-22348005D01*
X100646438Y-22357672D01*
X100652854Y-22358000D01*
X100977885Y-22358000D01*
X100993124Y-22353525D01*
X100994329Y-22352135D01*
X100996000Y-22344452D01*
X100996000Y-20622115D01*
X100991525Y-20606876D01*
X100990135Y-20605671D01*
X100982452Y-20604000D01*
X99960116Y-20604000D01*
X99944877Y-20608475D01*
X99943672Y-20609865D01*
X99942001Y-20617548D01*
X99942001Y-21647095D01*
X98658500Y-21647095D01*
X98658500Y-20077885D01*
X99942000Y-20077885D01*
X99946475Y-20093124D01*
X99947865Y-20094329D01*
X99955548Y-20096000D01*
X100977885Y-20096000D01*
X100993124Y-20091525D01*
X100994329Y-20090135D01*
X100996000Y-20082452D01*
X100996000Y-18360116D01*
X100991525Y-18344877D01*
X100990135Y-18343672D01*
X100982452Y-18342001D01*
X100652905Y-18342001D01*
X100646386Y-18342338D01*
X100550794Y-18352257D01*
X100537400Y-18355149D01*
X100383216Y-18406588D01*
X100370038Y-18412761D01*
X100232193Y-18498063D01*
X100220792Y-18507099D01*
X100106261Y-18621829D01*
X100097249Y-18633240D01*
X100012184Y-18771243D01*
X100006037Y-18784424D01*
X99954862Y-18938710D01*
X99951995Y-18952086D01*
X99942328Y-19046438D01*
X99942000Y-19052855D01*
X99942000Y-20077885D01*
X98658500Y-20077885D01*
X98658500Y-15634500D01*
X98678502Y-15566379D01*
X98732158Y-15519886D01*
X98784500Y-15508500D01*
X122515500Y-15508500D01*
X122583621Y-15528502D01*
G37*
%TD.AperFunction*%
%TA.AperFunction,Conductor*%
G36*
X122500863Y-125436984D02*
G01*
X122557699Y-125479531D01*
X122582510Y-125546051D01*
X122582206Y-125567572D01*
X120168749Y-149702139D01*
X117701159Y-174378037D01*
X117674478Y-174443830D01*
X117616462Y-174484753D01*
X117575784Y-174491500D01*
X117534500Y-174491500D01*
X117466379Y-174471498D01*
X117419886Y-174417842D01*
X117408500Y-174365500D01*
X117408500Y-173651337D01*
X117393765Y-173506273D01*
X117376111Y-173449939D01*
X117337444Y-173326549D01*
X117337442Y-173326544D01*
X117335535Y-173320459D01*
X117241130Y-173150150D01*
X117236981Y-173145309D01*
X117236978Y-173145305D01*
X117118560Y-173007145D01*
X117114409Y-173002302D01*
X116960547Y-172882954D01*
X116954824Y-172880138D01*
X116954821Y-172880136D01*
X116791556Y-172799800D01*
X116785829Y-172796982D01*
X116779651Y-172795373D01*
X116779649Y-172795372D01*
X116603575Y-172749508D01*
X116603572Y-172749508D01*
X116597393Y-172747898D01*
X116427905Y-172739016D01*
X116360925Y-172715477D01*
X116317304Y-172659461D01*
X116308500Y-172613189D01*
X116308500Y-172385187D01*
X116328502Y-172317066D01*
X116382158Y-172270573D01*
X116441094Y-172259360D01*
X116490682Y-172261959D01*
X116490687Y-172261959D01*
X116497064Y-172262293D01*
X116652413Y-172238799D01*
X116683285Y-172234130D01*
X116683286Y-172234130D01*
X116689599Y-172233175D01*
X116695585Y-172230972D01*
X116695591Y-172230971D01*
X116866360Y-172168140D01*
X116866365Y-172168138D01*
X116872346Y-172165937D01*
X117037840Y-172063326D01*
X117112362Y-171992855D01*
X117174685Y-171933919D01*
X117179322Y-171929534D01*
X117291011Y-171770025D01*
X117368345Y-171591316D01*
X117387460Y-171499818D01*
X117407176Y-171405443D01*
X117407177Y-171405438D01*
X117408165Y-171400707D01*
X117408500Y-171394315D01*
X117408500Y-170651337D01*
X117393765Y-170506273D01*
X117376111Y-170449939D01*
X117337444Y-170326549D01*
X117337442Y-170326544D01*
X117335535Y-170320459D01*
X117241130Y-170150150D01*
X117236981Y-170145309D01*
X117236978Y-170145305D01*
X117118560Y-170007145D01*
X117114409Y-170002302D01*
X116960547Y-169882954D01*
X116954824Y-169880138D01*
X116954821Y-169880136D01*
X116791556Y-169799800D01*
X116785829Y-169796982D01*
X116779651Y-169795373D01*
X116779649Y-169795372D01*
X116603575Y-169749508D01*
X116603572Y-169749508D01*
X116597393Y-169747898D01*
X116532061Y-169744474D01*
X116465262Y-169740973D01*
X116398282Y-169717433D01*
X116354661Y-169661418D01*
X116348249Y-169590711D01*
X116381082Y-169527763D01*
X116394045Y-169516044D01*
X116493223Y-169438173D01*
X116493227Y-169438169D01*
X116497886Y-169434511D01*
X116502605Y-169429102D01*
X116618920Y-169295764D01*
X116622811Y-169291304D01*
X116718797Y-169127287D01*
X116720779Y-169121714D01*
X116720781Y-169121709D01*
X116780485Y-168953804D01*
X116782467Y-168948231D01*
X116811580Y-168760436D01*
X116811379Y-168754522D01*
X116805315Y-168576428D01*
X116805314Y-168576424D01*
X116805113Y-168570507D01*
X116763292Y-168385127D01*
X116687590Y-168210817D01*
X116580670Y-168053709D01*
X116446292Y-167919331D01*
X116390182Y-167881145D01*
X116294080Y-167815742D01*
X116294078Y-167815741D01*
X116289185Y-167812411D01*
X116114875Y-167736708D01*
X116109102Y-167735406D01*
X116109100Y-167735405D01*
X115935276Y-167696192D01*
X115935275Y-167696192D01*
X115929495Y-167694888D01*
X115923576Y-167694686D01*
X115923573Y-167694686D01*
X115745480Y-167688621D01*
X115745476Y-167688621D01*
X115739566Y-167688420D01*
X115733723Y-167689326D01*
X115733720Y-167689326D01*
X115557619Y-167716626D01*
X115557615Y-167716627D01*
X115551771Y-167717533D01*
X115546197Y-167719515D01*
X115546193Y-167719516D01*
X115378297Y-167779217D01*
X115372715Y-167781202D01*
X115208698Y-167877187D01*
X115204233Y-167881082D01*
X115155585Y-167923520D01*
X115065490Y-168002113D01*
X115061828Y-168006777D01*
X114954624Y-168143312D01*
X114896823Y-168184539D01*
X114855522Y-168191500D01*
X114434000Y-168191500D01*
X114365879Y-168171498D01*
X114319386Y-168117842D01*
X114308000Y-168065500D01*
X114307999Y-167605332D01*
X114307629Y-167598510D01*
X114302105Y-167547648D01*
X114298479Y-167532396D01*
X114253324Y-167411946D01*
X114244786Y-167396351D01*
X114168285Y-167294276D01*
X114155724Y-167281715D01*
X114053649Y-167205214D01*
X114038054Y-167196676D01*
X113917606Y-167151522D01*
X113902351Y-167147895D01*
X113851486Y-167142369D01*
X113844672Y-167142000D01*
X113672115Y-167142000D01*
X113656876Y-167146475D01*
X113655671Y-167147865D01*
X113654000Y-167155548D01*
X113654000Y-168065500D01*
X113633998Y-168133621D01*
X113580342Y-168180114D01*
X113528000Y-168191500D01*
X113272000Y-168191500D01*
X113203879Y-168171498D01*
X113157386Y-168117842D01*
X113146000Y-168065500D01*
X113146000Y-167160116D01*
X113141525Y-167144877D01*
X113140135Y-167143672D01*
X113132452Y-167142001D01*
X113054500Y-167142001D01*
X112986379Y-167121999D01*
X112939886Y-167068343D01*
X112928500Y-167016001D01*
X112928500Y-164996371D01*
X112948502Y-164928250D01*
X112965405Y-164907276D01*
X116488911Y-161383770D01*
X116503323Y-161371384D01*
X116514918Y-161362851D01*
X116514923Y-161362846D01*
X116520818Y-161358508D01*
X116525557Y-161352930D01*
X116525560Y-161352927D01*
X116555035Y-161318232D01*
X116561965Y-161310716D01*
X116567661Y-161305020D01*
X116569924Y-161302159D01*
X116569929Y-161302154D01*
X116585293Y-161282734D01*
X116588082Y-161279333D01*
X116630592Y-161229296D01*
X116630594Y-161229294D01*
X116635333Y-161223715D01*
X116638662Y-161217195D01*
X116642028Y-161212148D01*
X116645193Y-161207024D01*
X116649735Y-161201283D01*
X116680637Y-161135164D01*
X116682565Y-161131218D01*
X116712442Y-161072708D01*
X116712443Y-161072706D01*
X116715769Y-161066192D01*
X116717508Y-161059086D01*
X116719609Y-161053436D01*
X116721524Y-161047679D01*
X116724622Y-161041050D01*
X116739491Y-160969565D01*
X116740461Y-160965282D01*
X116756473Y-160899844D01*
X116757808Y-160894390D01*
X116758500Y-160883236D01*
X116758535Y-160883238D01*
X116758775Y-160879266D01*
X116759152Y-160875045D01*
X116760641Y-160867885D01*
X116758546Y-160790458D01*
X116758500Y-160787050D01*
X116758500Y-131127371D01*
X116778502Y-131059250D01*
X116795405Y-131038276D01*
X122367736Y-125465945D01*
X122430048Y-125431919D01*
X122500863Y-125436984D01*
G37*
%TD.AperFunction*%
%TA.AperFunction,Conductor*%
G36*
X104617012Y-29640147D02*
G01*
X104623595Y-29646276D01*
X109132149Y-34154830D01*
X109166175Y-34217142D01*
X109167962Y-34260480D01*
X109152304Y-34378623D01*
X109138102Y-34485774D01*
X109146751Y-34716158D01*
X109194093Y-34941791D01*
X109278776Y-35156221D01*
X109398377Y-35353317D01*
X109401874Y-35357347D01*
X109488438Y-35457103D01*
X109549477Y-35527445D01*
X109585120Y-35556670D01*
X109625114Y-35615329D01*
X109627046Y-35686299D01*
X109590302Y-35747048D01*
X109571532Y-35761248D01*
X109440579Y-35842285D01*
X109425652Y-35851522D01*
X109300695Y-35976697D01*
X109207885Y-36127262D01*
X109152203Y-36295139D01*
X109141500Y-36399600D01*
X109141500Y-37700400D01*
X109152474Y-37806166D01*
X109208450Y-37973946D01*
X109301522Y-38124348D01*
X109426697Y-38249305D01*
X109432927Y-38253145D01*
X109432928Y-38253146D01*
X109570090Y-38337694D01*
X109577262Y-38342115D01*
X109657005Y-38368564D01*
X109738611Y-38395632D01*
X109738613Y-38395632D01*
X109745139Y-38397797D01*
X109751977Y-38398498D01*
X109751979Y-38398498D01*
X109778342Y-38401199D01*
X109844070Y-38428040D01*
X109884852Y-38486155D01*
X109891500Y-38526543D01*
X109891500Y-48368629D01*
X109871498Y-48436750D01*
X109854595Y-48457724D01*
X108271090Y-50041229D01*
X108256678Y-50053615D01*
X108245083Y-50062148D01*
X108245078Y-50062153D01*
X108239183Y-50066491D01*
X108234444Y-50072069D01*
X108234441Y-50072072D01*
X108204966Y-50106767D01*
X108198036Y-50114283D01*
X108192341Y-50119978D01*
X108190061Y-50122860D01*
X108174720Y-50142250D01*
X108171929Y-50145654D01*
X108129410Y-50195702D01*
X108124668Y-50201284D01*
X108121340Y-50207800D01*
X108117973Y-50212849D01*
X108114806Y-50217978D01*
X108110267Y-50223715D01*
X108079346Y-50289874D01*
X108077443Y-50293768D01*
X108044232Y-50358807D01*
X108042493Y-50365915D01*
X108040394Y-50371558D01*
X108038477Y-50377321D01*
X108035379Y-50383949D01*
X108033889Y-50391111D01*
X108033889Y-50391112D01*
X108020515Y-50455411D01*
X108019545Y-50459695D01*
X108002193Y-50530609D01*
X108001501Y-50541763D01*
X108001465Y-50541761D01*
X108001226Y-50545754D01*
X108000852Y-50549946D01*
X107999361Y-50557114D01*
X108000039Y-50582180D01*
X108001455Y-50634520D01*
X108001501Y-50637927D01*
X108001501Y-96545431D01*
X108000068Y-96564381D01*
X107996802Y-96585850D01*
X107997395Y-96593142D01*
X107997395Y-96593145D01*
X108001086Y-96638519D01*
X108001501Y-96648734D01*
X108001501Y-96656794D01*
X108001926Y-96660438D01*
X108004790Y-96685008D01*
X108005223Y-96689383D01*
X108011141Y-96762138D01*
X108013397Y-96769102D01*
X108014588Y-96775061D01*
X108015972Y-96780916D01*
X108016819Y-96788182D01*
X108041736Y-96856828D01*
X108043153Y-96860956D01*
X108061697Y-96918197D01*
X108065650Y-96930400D01*
X108069446Y-96936655D01*
X108071952Y-96942129D01*
X108074671Y-96947559D01*
X108077168Y-96954438D01*
X108081181Y-96960558D01*
X108081181Y-96960559D01*
X108117187Y-97015477D01*
X108119524Y-97019181D01*
X108157406Y-97081608D01*
X108161122Y-97085816D01*
X108161123Y-97085817D01*
X108164804Y-97089985D01*
X108164777Y-97090009D01*
X108167430Y-97093001D01*
X108170133Y-97096234D01*
X108174145Y-97102353D01*
X108179457Y-97107385D01*
X108230384Y-97155629D01*
X108232826Y-97158007D01*
X119581829Y-108507010D01*
X119615855Y-108569322D01*
X119618255Y-108607087D01*
X119604002Y-108770000D01*
X119623957Y-108998087D01*
X119683216Y-109219243D01*
X119685539Y-109224224D01*
X119685539Y-109224225D01*
X119777651Y-109421762D01*
X119777654Y-109421767D01*
X119779977Y-109426749D01*
X119911302Y-109614300D01*
X120073200Y-109776198D01*
X120077708Y-109779355D01*
X120077711Y-109779357D01*
X120155889Y-109834098D01*
X120260751Y-109907523D01*
X120265733Y-109909846D01*
X120265738Y-109909849D01*
X120299957Y-109925805D01*
X120353242Y-109972722D01*
X120372703Y-110040999D01*
X120352161Y-110108959D01*
X120299957Y-110154195D01*
X120265738Y-110170151D01*
X120265733Y-110170154D01*
X120260751Y-110172477D01*
X120155889Y-110245902D01*
X120077711Y-110300643D01*
X120077708Y-110300645D01*
X120073200Y-110303802D01*
X119911302Y-110465700D01*
X119888845Y-110497771D01*
X119833390Y-110542099D01*
X119785633Y-110551500D01*
X119134976Y-110551500D01*
X119116026Y-110550067D01*
X119101791Y-110547901D01*
X119101787Y-110547901D01*
X119094557Y-110546801D01*
X119087265Y-110547394D01*
X119087262Y-110547394D01*
X119041888Y-110551085D01*
X119031673Y-110551500D01*
X119023613Y-110551500D01*
X119019979Y-110551924D01*
X119019973Y-110551924D01*
X119006948Y-110553443D01*
X118995386Y-110554791D01*
X118991038Y-110555221D01*
X118968965Y-110557016D01*
X118925568Y-110560546D01*
X118925565Y-110560547D01*
X118918270Y-110561140D01*
X118911306Y-110563396D01*
X118905367Y-110564583D01*
X118899496Y-110565970D01*
X118892225Y-110566818D01*
X118885349Y-110569314D01*
X118885340Y-110569316D01*
X118823608Y-110591725D01*
X118819504Y-110593135D01*
X118750007Y-110615648D01*
X118743752Y-110619444D01*
X118738293Y-110621943D01*
X118732845Y-110624671D01*
X118725969Y-110627167D01*
X118664916Y-110667195D01*
X118661233Y-110669519D01*
X118603592Y-110704496D01*
X118603588Y-110704499D01*
X118598799Y-110707405D01*
X118594600Y-110711114D01*
X118594595Y-110711117D01*
X118590422Y-110714803D01*
X118590398Y-110714776D01*
X118587406Y-110717429D01*
X118584173Y-110720132D01*
X118578054Y-110724144D01*
X118573022Y-110729456D01*
X118524778Y-110780383D01*
X118522400Y-110782825D01*
X112311089Y-116994136D01*
X112296677Y-117006522D01*
X112285082Y-117015055D01*
X112285077Y-117015060D01*
X112279182Y-117019398D01*
X112274443Y-117024976D01*
X112274440Y-117024979D01*
X112244965Y-117059674D01*
X112238035Y-117067190D01*
X112232340Y-117072885D01*
X112230060Y-117075767D01*
X112214719Y-117095157D01*
X112211928Y-117098561D01*
X112169409Y-117148609D01*
X112164667Y-117154191D01*
X112161339Y-117160707D01*
X112157972Y-117165756D01*
X112154805Y-117170885D01*
X112150266Y-117176622D01*
X112119345Y-117242781D01*
X112117442Y-117246675D01*
X112084231Y-117311714D01*
X112082492Y-117318822D01*
X112080393Y-117324465D01*
X112078476Y-117330228D01*
X112075378Y-117336856D01*
X112073888Y-117344018D01*
X112073888Y-117344019D01*
X112060514Y-117408318D01*
X112059544Y-117412602D01*
X112042192Y-117483516D01*
X112041500Y-117494670D01*
X112041464Y-117494668D01*
X112041225Y-117498661D01*
X112040851Y-117502853D01*
X112039360Y-117510021D01*
X112039558Y-117517338D01*
X112041454Y-117587427D01*
X112041500Y-117590834D01*
X112041500Y-117805520D01*
X112021498Y-117873641D01*
X112004595Y-117894615D01*
X111172022Y-118727188D01*
X111164408Y-118741132D01*
X111164539Y-118742965D01*
X111168790Y-118749580D01*
X112004595Y-119585385D01*
X112038621Y-119647697D01*
X112041500Y-119674480D01*
X112041500Y-122633629D01*
X112021498Y-122701750D01*
X112004595Y-122722724D01*
X111661089Y-123066230D01*
X111646677Y-123078616D01*
X111635082Y-123087149D01*
X111635077Y-123087154D01*
X111629182Y-123091492D01*
X111624443Y-123097070D01*
X111624440Y-123097073D01*
X111594965Y-123131768D01*
X111588035Y-123139284D01*
X111582340Y-123144979D01*
X111580060Y-123147861D01*
X111564719Y-123167251D01*
X111561928Y-123170655D01*
X111519409Y-123220703D01*
X111514667Y-123226285D01*
X111511339Y-123232801D01*
X111507972Y-123237850D01*
X111504805Y-123242979D01*
X111500266Y-123248716D01*
X111469345Y-123314875D01*
X111467442Y-123318769D01*
X111434231Y-123383808D01*
X111432492Y-123390916D01*
X111430393Y-123396559D01*
X111428476Y-123402322D01*
X111425378Y-123408950D01*
X111423888Y-123416112D01*
X111423888Y-123416113D01*
X111410514Y-123480412D01*
X111409544Y-123484696D01*
X111392192Y-123555610D01*
X111391500Y-123566764D01*
X111391464Y-123566762D01*
X111391225Y-123570755D01*
X111390851Y-123574947D01*
X111389360Y-123582115D01*
X111389558Y-123589432D01*
X111391454Y-123659521D01*
X111391500Y-123662928D01*
X111391500Y-132465500D01*
X111371498Y-132533621D01*
X111317842Y-132580114D01*
X111265500Y-132591500D01*
X111034500Y-132591500D01*
X110966379Y-132571498D01*
X110919886Y-132517842D01*
X110908500Y-132465500D01*
X110908500Y-128632070D01*
X110909933Y-128613120D01*
X110912099Y-128598885D01*
X110912099Y-128598881D01*
X110913199Y-128591651D01*
X110908915Y-128538982D01*
X110908500Y-128528767D01*
X110908500Y-128520707D01*
X110905209Y-128492480D01*
X110904778Y-128488121D01*
X110899454Y-128422662D01*
X110899453Y-128422659D01*
X110898860Y-128415364D01*
X110896604Y-128408400D01*
X110895417Y-128402461D01*
X110894030Y-128396590D01*
X110893182Y-128389319D01*
X110890686Y-128382443D01*
X110890684Y-128382434D01*
X110868275Y-128320702D01*
X110866865Y-128316598D01*
X110844352Y-128247101D01*
X110840556Y-128240846D01*
X110838057Y-128235387D01*
X110835329Y-128229939D01*
X110832833Y-128223063D01*
X110792805Y-128162010D01*
X110790481Y-128158327D01*
X110755504Y-128100686D01*
X110755501Y-128100682D01*
X110752595Y-128095893D01*
X110748886Y-128091694D01*
X110748883Y-128091689D01*
X110745197Y-128087516D01*
X110745224Y-128087492D01*
X110742571Y-128084500D01*
X110739868Y-128081267D01*
X110735856Y-128075148D01*
X110679617Y-128021872D01*
X110677175Y-128019494D01*
X106545405Y-123887724D01*
X106511379Y-123825412D01*
X106508500Y-123798629D01*
X106508500Y-119972670D01*
X109932160Y-119972670D01*
X109937887Y-119980320D01*
X110109042Y-120085205D01*
X110117837Y-120089687D01*
X110327988Y-120176734D01*
X110337373Y-120179783D01*
X110558554Y-120232885D01*
X110568301Y-120234428D01*
X110795070Y-120252275D01*
X110804930Y-120252275D01*
X111031699Y-120234428D01*
X111041446Y-120232885D01*
X111262627Y-120179783D01*
X111272012Y-120176734D01*
X111482163Y-120089687D01*
X111490958Y-120085205D01*
X111658445Y-119982568D01*
X111667907Y-119972110D01*
X111664124Y-119963334D01*
X110812812Y-119112022D01*
X110798868Y-119104408D01*
X110797035Y-119104539D01*
X110790420Y-119108790D01*
X109938920Y-119960290D01*
X109932160Y-119972670D01*
X106508500Y-119972670D01*
X106508500Y-118744930D01*
X109287725Y-118744930D01*
X109305572Y-118971699D01*
X109307115Y-118981446D01*
X109360217Y-119202627D01*
X109363266Y-119212012D01*
X109450313Y-119422163D01*
X109454795Y-119430958D01*
X109557432Y-119598445D01*
X109567890Y-119607907D01*
X109576666Y-119604124D01*
X110427978Y-118752812D01*
X110435592Y-118738868D01*
X110435461Y-118737035D01*
X110431210Y-118730420D01*
X109579710Y-117878920D01*
X109567330Y-117872160D01*
X109559680Y-117877887D01*
X109454795Y-118049042D01*
X109450313Y-118057837D01*
X109363266Y-118267988D01*
X109360217Y-118277373D01*
X109307115Y-118498554D01*
X109305572Y-118508301D01*
X109287725Y-118735070D01*
X109287725Y-118744930D01*
X106508500Y-118744930D01*
X106508500Y-117507890D01*
X109932093Y-117507890D01*
X109935876Y-117516666D01*
X110787188Y-118367978D01*
X110801132Y-118375592D01*
X110802965Y-118375461D01*
X110809580Y-118371210D01*
X111661080Y-117519710D01*
X111667840Y-117507330D01*
X111662113Y-117499680D01*
X111490958Y-117394795D01*
X111482163Y-117390313D01*
X111272012Y-117303266D01*
X111262627Y-117300217D01*
X111041446Y-117247115D01*
X111031699Y-117245572D01*
X110804930Y-117227725D01*
X110795070Y-117227725D01*
X110568301Y-117245572D01*
X110558554Y-117247115D01*
X110337373Y-117300217D01*
X110327988Y-117303266D01*
X110117837Y-117390313D01*
X110109042Y-117394795D01*
X109941555Y-117497432D01*
X109932093Y-117507890D01*
X106508500Y-117507890D01*
X106508500Y-83509563D01*
X106509933Y-83490614D01*
X106512097Y-83476386D01*
X106513198Y-83469151D01*
X106508915Y-83416490D01*
X106508500Y-83406277D01*
X106508500Y-83398207D01*
X106508078Y-83394587D01*
X106508077Y-83394569D01*
X106505208Y-83369961D01*
X106504775Y-83365586D01*
X106499454Y-83300161D01*
X106499453Y-83300158D01*
X106498860Y-83292863D01*
X106496604Y-83285899D01*
X106495413Y-83279940D01*
X106494029Y-83274085D01*
X106493182Y-83266819D01*
X106468265Y-83198173D01*
X106466848Y-83194045D01*
X106446607Y-83131564D01*
X106446606Y-83131562D01*
X106444351Y-83124601D01*
X106440555Y-83118346D01*
X106438049Y-83112872D01*
X106435330Y-83107442D01*
X106432833Y-83100563D01*
X106392809Y-83039516D01*
X106390472Y-83035812D01*
X106355509Y-82978193D01*
X106355505Y-82978188D01*
X106352595Y-82973392D01*
X106345197Y-82965016D01*
X106345223Y-82964993D01*
X106342574Y-82962003D01*
X106339866Y-82958764D01*
X106335856Y-82952648D01*
X106330549Y-82947621D01*
X106330546Y-82947617D01*
X106279617Y-82899372D01*
X106277175Y-82896994D01*
X101933171Y-78552990D01*
X101899145Y-78490678D01*
X101896745Y-78452913D01*
X101910519Y-78295475D01*
X101910998Y-78290000D01*
X101897751Y-78138580D01*
X101911740Y-78068975D01*
X101934177Y-78038504D01*
X103288911Y-76683770D01*
X103303323Y-76671384D01*
X103314918Y-76662851D01*
X103314923Y-76662846D01*
X103320818Y-76658508D01*
X103325557Y-76652930D01*
X103325560Y-76652927D01*
X103355035Y-76618232D01*
X103361965Y-76610716D01*
X103367661Y-76605020D01*
X103369924Y-76602159D01*
X103369929Y-76602154D01*
X103385293Y-76582734D01*
X103388082Y-76579333D01*
X103389743Y-76577378D01*
X103435333Y-76523715D01*
X103438659Y-76517202D01*
X103442020Y-76512163D01*
X103445196Y-76507021D01*
X103449734Y-76501284D01*
X103480655Y-76435125D01*
X103482561Y-76431225D01*
X103515769Y-76366192D01*
X103517508Y-76359083D01*
X103519604Y-76353449D01*
X103521523Y-76347679D01*
X103524622Y-76341050D01*
X103539491Y-76269565D01*
X103540461Y-76265282D01*
X103556473Y-76199844D01*
X103557808Y-76194390D01*
X103558500Y-76183236D01*
X103558535Y-76183238D01*
X103558775Y-76179266D01*
X103559152Y-76175045D01*
X103560641Y-76167885D01*
X103558546Y-76090458D01*
X103558500Y-76087050D01*
X103558500Y-71106364D01*
X103578502Y-71038243D01*
X103632158Y-70991750D01*
X103702432Y-70981646D01*
X103749865Y-70998645D01*
X103968554Y-71131349D01*
X103968559Y-71131351D01*
X103972551Y-71133774D01*
X104223182Y-71238872D01*
X104486594Y-71305770D01*
X104712322Y-71328500D01*
X104873991Y-71328500D01*
X104876316Y-71328327D01*
X104876322Y-71328327D01*
X105071375Y-71313832D01*
X105071379Y-71313831D01*
X105076027Y-71313486D01*
X105341101Y-71253506D01*
X105375773Y-71240023D01*
X105590044Y-71156698D01*
X105590046Y-71156697D01*
X105594397Y-71155005D01*
X105628379Y-71135583D01*
X105682141Y-71104855D01*
X105830351Y-71020146D01*
X106043780Y-70851892D01*
X106229996Y-70653939D01*
X106232662Y-70650096D01*
X106382244Y-70434474D01*
X106382247Y-70434469D01*
X106384906Y-70430636D01*
X106505109Y-70186889D01*
X106587964Y-69928052D01*
X106631649Y-69659811D01*
X106635207Y-69388060D01*
X106598558Y-69118768D01*
X106522507Y-68857850D01*
X106408726Y-68611040D01*
X106374726Y-68559181D01*
X106262280Y-68387672D01*
X106262276Y-68387667D01*
X106259714Y-68383759D01*
X106144575Y-68254756D01*
X106081861Y-68184491D01*
X106081859Y-68184489D01*
X106078744Y-68180999D01*
X105869793Y-68007216D01*
X105641650Y-67868775D01*
X105641446Y-67868651D01*
X105641441Y-67868649D01*
X105637449Y-67866226D01*
X105386818Y-67761128D01*
X105123406Y-67694230D01*
X104897678Y-67671500D01*
X104736009Y-67671500D01*
X104733684Y-67671673D01*
X104733678Y-67671673D01*
X104588843Y-67682436D01*
X104533973Y-67686514D01*
X104529412Y-67687546D01*
X104527747Y-67687795D01*
X104457418Y-67678085D01*
X104403503Y-67631894D01*
X104383119Y-67563886D01*
X104385756Y-67537525D01*
X104389489Y-67519575D01*
X104390461Y-67515282D01*
X104406473Y-67449844D01*
X104407808Y-67444390D01*
X104408500Y-67433236D01*
X104408535Y-67433238D01*
X104408775Y-67429266D01*
X104409152Y-67425045D01*
X104410641Y-67417885D01*
X104408546Y-67340458D01*
X104408500Y-67337050D01*
X104408500Y-29735371D01*
X104428502Y-29667250D01*
X104482158Y-29620757D01*
X104552432Y-29610653D01*
X104617012Y-29640147D01*
G37*
%TD.AperFunction*%
%TA.AperFunction,Conductor*%
G36*
X119853754Y-112088502D02*
G01*
X119888845Y-112122228D01*
X119911302Y-112154300D01*
X120073200Y-112316198D01*
X120077708Y-112319355D01*
X120077711Y-112319357D01*
X120155889Y-112374098D01*
X120260751Y-112447523D01*
X120265733Y-112449846D01*
X120265738Y-112449849D01*
X120299957Y-112465805D01*
X120353242Y-112512722D01*
X120372703Y-112580999D01*
X120352161Y-112648959D01*
X120299957Y-112694195D01*
X120265738Y-112710151D01*
X120265733Y-112710154D01*
X120260751Y-112712477D01*
X120155889Y-112785902D01*
X120077711Y-112840643D01*
X120077708Y-112840645D01*
X120073200Y-112843802D01*
X119911302Y-113005700D01*
X119779977Y-113193251D01*
X119777654Y-113198233D01*
X119777651Y-113198238D01*
X119685539Y-113395775D01*
X119683216Y-113400757D01*
X119623957Y-113621913D01*
X119604002Y-113850000D01*
X119623957Y-114078087D01*
X119625381Y-114083400D01*
X119625381Y-114083402D01*
X119661842Y-114219473D01*
X119683216Y-114299243D01*
X119685539Y-114304224D01*
X119685539Y-114304225D01*
X119777651Y-114501762D01*
X119777654Y-114501767D01*
X119779977Y-114506749D01*
X119783134Y-114511257D01*
X119885889Y-114658006D01*
X119911302Y-114694300D01*
X120073200Y-114856198D01*
X120105271Y-114878655D01*
X120149599Y-114934110D01*
X120159000Y-114981867D01*
X120159000Y-124487871D01*
X120138998Y-124555992D01*
X120122095Y-124576966D01*
X114811579Y-129887482D01*
X114797167Y-129899868D01*
X114785572Y-129908401D01*
X114785567Y-129908406D01*
X114779672Y-129912744D01*
X114774933Y-129918322D01*
X114774930Y-129918325D01*
X114745455Y-129953020D01*
X114738525Y-129960536D01*
X114732830Y-129966231D01*
X114730550Y-129969113D01*
X114715209Y-129988503D01*
X114712418Y-129991907D01*
X114695088Y-130012306D01*
X114665157Y-130047537D01*
X114661829Y-130054053D01*
X114658462Y-130059102D01*
X114655295Y-130064231D01*
X114650756Y-130069968D01*
X114619835Y-130136127D01*
X114617929Y-130140027D01*
X114593598Y-130187676D01*
X114544804Y-130239249D01*
X114475875Y-130256255D01*
X114408693Y-130233295D01*
X114392363Y-130219548D01*
X114390886Y-130218073D01*
X114273303Y-130100695D01*
X114267072Y-130096854D01*
X114128968Y-130011725D01*
X114128966Y-130011724D01*
X114122738Y-130007885D01*
X114042995Y-129981436D01*
X113961389Y-129954368D01*
X113961387Y-129954368D01*
X113954861Y-129952203D01*
X113948025Y-129951503D01*
X113948022Y-129951502D01*
X113904969Y-129947091D01*
X113850400Y-129941500D01*
X113049600Y-129941500D01*
X113046350Y-129941837D01*
X113043108Y-129942005D01*
X113043051Y-129940904D01*
X112977657Y-129928839D01*
X112925886Y-129880257D01*
X112908500Y-129816390D01*
X112908500Y-124016371D01*
X112928502Y-123948250D01*
X112945405Y-123927276D01*
X113288911Y-123583770D01*
X113303323Y-123571384D01*
X113314918Y-123562851D01*
X113314923Y-123562846D01*
X113320818Y-123558508D01*
X113325557Y-123552930D01*
X113325560Y-123552927D01*
X113355035Y-123518232D01*
X113361965Y-123510716D01*
X113367661Y-123505020D01*
X113369924Y-123502159D01*
X113369929Y-123502154D01*
X113385293Y-123482734D01*
X113388082Y-123479333D01*
X113389743Y-123477378D01*
X113435333Y-123423715D01*
X113438659Y-123417202D01*
X113442020Y-123412163D01*
X113445196Y-123407021D01*
X113449734Y-123401284D01*
X113480655Y-123335125D01*
X113482561Y-123331225D01*
X113488918Y-123318775D01*
X113515769Y-123266192D01*
X113517508Y-123259083D01*
X113519604Y-123253449D01*
X113521523Y-123247679D01*
X113524622Y-123241050D01*
X113527694Y-123226285D01*
X113539490Y-123169571D01*
X113540461Y-123165282D01*
X113545429Y-123144979D01*
X113557808Y-123094390D01*
X113558500Y-123083236D01*
X113558535Y-123083238D01*
X113558775Y-123079266D01*
X113559152Y-123075045D01*
X113560641Y-123067885D01*
X113558546Y-122990458D01*
X113558500Y-122987050D01*
X113558500Y-117944277D01*
X113578502Y-117876156D01*
X113595405Y-117855182D01*
X114871471Y-116579116D01*
X114933783Y-116545090D01*
X115004598Y-116550155D01*
X115061434Y-116592702D01*
X115077453Y-116622012D01*
X115077493Y-116622150D01*
X115191274Y-116868960D01*
X115193837Y-116872869D01*
X115337720Y-117092328D01*
X115337724Y-117092333D01*
X115340286Y-117096241D01*
X115521256Y-117299001D01*
X115730207Y-117472784D01*
X115779120Y-117502465D01*
X115958554Y-117611349D01*
X115958559Y-117611351D01*
X115962551Y-117613774D01*
X116213182Y-117718872D01*
X116476594Y-117785770D01*
X116702322Y-117808500D01*
X116863991Y-117808500D01*
X116866316Y-117808327D01*
X116866322Y-117808327D01*
X117061375Y-117793832D01*
X117061379Y-117793831D01*
X117066027Y-117793486D01*
X117331101Y-117733506D01*
X117365773Y-117720023D01*
X117580044Y-117636698D01*
X117580046Y-117636697D01*
X117584397Y-117635005D01*
X117618379Y-117615583D01*
X117803073Y-117510021D01*
X117820351Y-117500146D01*
X118033780Y-117331892D01*
X118219996Y-117133939D01*
X118222662Y-117130096D01*
X118372244Y-116914474D01*
X118372247Y-116914469D01*
X118374906Y-116910636D01*
X118393531Y-116872869D01*
X118493044Y-116671077D01*
X118493045Y-116671074D01*
X118495109Y-116666889D01*
X118508810Y-116624089D01*
X118576541Y-116412497D01*
X118577964Y-116408052D01*
X118621649Y-116139811D01*
X118625207Y-115868060D01*
X118588558Y-115598768D01*
X118512507Y-115337850D01*
X118398726Y-115091040D01*
X118330857Y-114987523D01*
X118252280Y-114867672D01*
X118252276Y-114867667D01*
X118249714Y-114863759D01*
X118159229Y-114762379D01*
X118071861Y-114664491D01*
X118071859Y-114664489D01*
X118068744Y-114660999D01*
X117859793Y-114487216D01*
X117743621Y-114416721D01*
X117631446Y-114348651D01*
X117631441Y-114348649D01*
X117627449Y-114346226D01*
X117431985Y-114264262D01*
X117376900Y-114219473D01*
X117354774Y-114152013D01*
X117372632Y-114083299D01*
X117391617Y-114058970D01*
X119345182Y-112105405D01*
X119407494Y-112071379D01*
X119434277Y-112068500D01*
X119785633Y-112068500D01*
X119853754Y-112088502D01*
G37*
%TD.AperFunction*%
%TA.AperFunction,Conductor*%
G36*
X109674460Y-68247731D02*
G01*
X109674600Y-68247144D01*
X109682284Y-68248971D01*
X109689684Y-68251745D01*
X109751866Y-68258500D01*
X109915500Y-68258500D01*
X109983621Y-68278502D01*
X110030114Y-68332158D01*
X110041500Y-68384500D01*
X110041500Y-73932930D01*
X110040067Y-73951880D01*
X110036801Y-73973349D01*
X110037394Y-73980641D01*
X110037394Y-73980644D01*
X110041085Y-74026018D01*
X110041500Y-74036233D01*
X110041500Y-74044293D01*
X110041925Y-74047937D01*
X110044789Y-74072507D01*
X110045222Y-74076882D01*
X110051140Y-74149637D01*
X110053396Y-74156601D01*
X110054587Y-74162560D01*
X110055971Y-74168415D01*
X110056818Y-74175681D01*
X110081735Y-74244327D01*
X110083152Y-74248455D01*
X110105649Y-74317899D01*
X110109445Y-74324154D01*
X110111951Y-74329628D01*
X110114670Y-74335058D01*
X110117167Y-74341937D01*
X110121180Y-74348057D01*
X110121180Y-74348058D01*
X110157186Y-74402976D01*
X110159523Y-74406680D01*
X110197405Y-74469107D01*
X110201121Y-74473315D01*
X110201122Y-74473316D01*
X110204803Y-74477484D01*
X110204776Y-74477508D01*
X110207429Y-74480500D01*
X110210132Y-74483733D01*
X110214144Y-74489852D01*
X110219456Y-74494884D01*
X110270383Y-74543128D01*
X110272825Y-74545506D01*
X120122095Y-84394776D01*
X120156121Y-84457088D01*
X120159000Y-84483871D01*
X120159000Y-84778133D01*
X120138998Y-84846254D01*
X120105272Y-84881345D01*
X120073200Y-84903802D01*
X119911302Y-85065700D01*
X119779977Y-85253251D01*
X119777654Y-85258233D01*
X119777651Y-85258238D01*
X119685539Y-85455775D01*
X119683216Y-85460757D01*
X119623957Y-85681913D01*
X119604002Y-85910000D01*
X119623957Y-86138087D01*
X119683216Y-86359243D01*
X119685539Y-86364224D01*
X119685539Y-86364225D01*
X119777651Y-86561762D01*
X119777654Y-86561767D01*
X119779977Y-86566749D01*
X119911302Y-86754300D01*
X120073200Y-86916198D01*
X120077708Y-86919355D01*
X120077711Y-86919357D01*
X120155889Y-86974098D01*
X120260751Y-87047523D01*
X120265733Y-87049846D01*
X120265738Y-87049849D01*
X120299957Y-87065805D01*
X120353242Y-87112722D01*
X120372703Y-87180999D01*
X120352161Y-87248959D01*
X120299957Y-87294195D01*
X120265738Y-87310151D01*
X120265733Y-87310154D01*
X120260751Y-87312477D01*
X120155889Y-87385902D01*
X120077711Y-87440643D01*
X120077708Y-87440645D01*
X120073200Y-87443802D01*
X119911302Y-87605700D01*
X119779977Y-87793251D01*
X119777654Y-87798233D01*
X119777651Y-87798238D01*
X119685539Y-87995775D01*
X119683216Y-88000757D01*
X119623957Y-88221913D01*
X119604002Y-88450000D01*
X119623957Y-88678087D01*
X119683216Y-88899243D01*
X119685539Y-88904224D01*
X119685539Y-88904225D01*
X119777651Y-89101762D01*
X119777654Y-89101767D01*
X119779977Y-89106749D01*
X119911302Y-89294300D01*
X120073200Y-89456198D01*
X120077708Y-89459355D01*
X120077711Y-89459357D01*
X120155889Y-89514098D01*
X120260751Y-89587523D01*
X120265733Y-89589846D01*
X120265738Y-89589849D01*
X120299957Y-89605805D01*
X120353242Y-89652722D01*
X120372703Y-89720999D01*
X120352161Y-89788959D01*
X120299957Y-89834195D01*
X120265738Y-89850151D01*
X120265733Y-89850154D01*
X120260751Y-89852477D01*
X120155889Y-89925902D01*
X120077711Y-89980643D01*
X120077708Y-89980645D01*
X120073200Y-89983802D01*
X119911302Y-90145700D01*
X119779977Y-90333251D01*
X119777654Y-90338233D01*
X119777651Y-90338238D01*
X119685539Y-90535775D01*
X119683216Y-90540757D01*
X119623957Y-90761913D01*
X119604002Y-90990000D01*
X119623957Y-91218087D01*
X119625381Y-91223400D01*
X119625381Y-91223402D01*
X119679728Y-91426224D01*
X119683216Y-91439243D01*
X119685539Y-91444224D01*
X119685539Y-91444225D01*
X119777651Y-91641762D01*
X119777654Y-91641767D01*
X119779977Y-91646749D01*
X119911302Y-91834300D01*
X120073200Y-91996198D01*
X120077708Y-91999355D01*
X120077711Y-91999357D01*
X120155889Y-92054098D01*
X120260751Y-92127523D01*
X120265733Y-92129846D01*
X120265738Y-92129849D01*
X120299957Y-92145805D01*
X120353242Y-92192722D01*
X120372703Y-92260999D01*
X120352161Y-92328959D01*
X120299957Y-92374195D01*
X120265738Y-92390151D01*
X120265733Y-92390154D01*
X120260751Y-92392477D01*
X120155889Y-92465902D01*
X120077711Y-92520643D01*
X120077708Y-92520645D01*
X120073200Y-92523802D01*
X119911302Y-92685700D01*
X119779977Y-92873251D01*
X119777654Y-92878233D01*
X119777651Y-92878238D01*
X119685539Y-93075775D01*
X119683216Y-93080757D01*
X119623957Y-93301913D01*
X119604002Y-93530000D01*
X119623957Y-93758087D01*
X119683216Y-93979243D01*
X119685539Y-93984224D01*
X119685539Y-93984225D01*
X119777651Y-94181762D01*
X119777654Y-94181767D01*
X119779977Y-94186749D01*
X119911302Y-94374300D01*
X120073200Y-94536198D01*
X120077708Y-94539355D01*
X120077711Y-94539357D01*
X120155889Y-94594098D01*
X120260751Y-94667523D01*
X120265733Y-94669846D01*
X120265738Y-94669849D01*
X120299957Y-94685805D01*
X120353242Y-94732722D01*
X120372703Y-94800999D01*
X120352161Y-94868959D01*
X120299957Y-94914195D01*
X120265738Y-94930151D01*
X120265733Y-94930154D01*
X120260751Y-94932477D01*
X120155889Y-95005902D01*
X120077711Y-95060643D01*
X120077708Y-95060645D01*
X120073200Y-95063802D01*
X119911302Y-95225700D01*
X119779977Y-95413251D01*
X119777654Y-95418233D01*
X119777651Y-95418238D01*
X119685539Y-95615775D01*
X119683216Y-95620757D01*
X119623957Y-95841913D01*
X119604002Y-96070000D01*
X119623957Y-96298087D01*
X119683216Y-96519243D01*
X119685539Y-96524224D01*
X119685539Y-96524225D01*
X119777651Y-96721762D01*
X119777654Y-96721767D01*
X119779977Y-96726749D01*
X119911302Y-96914300D01*
X120073200Y-97076198D01*
X120077708Y-97079355D01*
X120077711Y-97079357D01*
X120155889Y-97134098D01*
X120260751Y-97207523D01*
X120265733Y-97209846D01*
X120265738Y-97209849D01*
X120299957Y-97225805D01*
X120353242Y-97272722D01*
X120372703Y-97340999D01*
X120352161Y-97408959D01*
X120299957Y-97454195D01*
X120265738Y-97470151D01*
X120265733Y-97470154D01*
X120260751Y-97472477D01*
X120155889Y-97545902D01*
X120077711Y-97600643D01*
X120077708Y-97600645D01*
X120073200Y-97603802D01*
X119911302Y-97765700D01*
X119779977Y-97953251D01*
X119777654Y-97958233D01*
X119777651Y-97958238D01*
X119685539Y-98155775D01*
X119683216Y-98160757D01*
X119623957Y-98381913D01*
X119604002Y-98610000D01*
X119623957Y-98838087D01*
X119683216Y-99059243D01*
X119685539Y-99064224D01*
X119685539Y-99064225D01*
X119777651Y-99261762D01*
X119777654Y-99261767D01*
X119779977Y-99266749D01*
X119911302Y-99454300D01*
X120073200Y-99616198D01*
X120077708Y-99619355D01*
X120077711Y-99619357D01*
X120155889Y-99674098D01*
X120260751Y-99747523D01*
X120265733Y-99749846D01*
X120265738Y-99749849D01*
X120299957Y-99765805D01*
X120353242Y-99812722D01*
X120372703Y-99880999D01*
X120352161Y-99948959D01*
X120299957Y-99994195D01*
X120265738Y-100010151D01*
X120265733Y-100010154D01*
X120260751Y-100012477D01*
X120155889Y-100085902D01*
X120077711Y-100140643D01*
X120077708Y-100140645D01*
X120073200Y-100143802D01*
X119911302Y-100305700D01*
X119779977Y-100493251D01*
X119777654Y-100498233D01*
X119777651Y-100498238D01*
X119685539Y-100695775D01*
X119683216Y-100700757D01*
X119623957Y-100921913D01*
X119604002Y-101150000D01*
X119623957Y-101378087D01*
X119683216Y-101599243D01*
X119685539Y-101604224D01*
X119685539Y-101604225D01*
X119777651Y-101801762D01*
X119777654Y-101801767D01*
X119779977Y-101806749D01*
X119911302Y-101994300D01*
X120073200Y-102156198D01*
X120077708Y-102159355D01*
X120077711Y-102159357D01*
X120155889Y-102214098D01*
X120260751Y-102287523D01*
X120265733Y-102289846D01*
X120265738Y-102289849D01*
X120299957Y-102305805D01*
X120353242Y-102352722D01*
X120372703Y-102420999D01*
X120352161Y-102488959D01*
X120299957Y-102534195D01*
X120265738Y-102550151D01*
X120265733Y-102550154D01*
X120260751Y-102552477D01*
X120155889Y-102625902D01*
X120077711Y-102680643D01*
X120077708Y-102680645D01*
X120073200Y-102683802D01*
X119911302Y-102845700D01*
X119779977Y-103033251D01*
X119777654Y-103038233D01*
X119777651Y-103038238D01*
X119685539Y-103235775D01*
X119683216Y-103240757D01*
X119623957Y-103461913D01*
X119604002Y-103690000D01*
X119623957Y-103918087D01*
X119683216Y-104139243D01*
X119685539Y-104144224D01*
X119685539Y-104144225D01*
X119777651Y-104341762D01*
X119777654Y-104341767D01*
X119779977Y-104346749D01*
X119911302Y-104534300D01*
X120073200Y-104696198D01*
X120077708Y-104699355D01*
X120077711Y-104699357D01*
X120155889Y-104754098D01*
X120260751Y-104827523D01*
X120265733Y-104829846D01*
X120265738Y-104829849D01*
X120299957Y-104845805D01*
X120353242Y-104892722D01*
X120372703Y-104960999D01*
X120352161Y-105028959D01*
X120299957Y-105074195D01*
X120265738Y-105090151D01*
X120265733Y-105090154D01*
X120260751Y-105092477D01*
X120155889Y-105165902D01*
X120077711Y-105220643D01*
X120077708Y-105220645D01*
X120073200Y-105223802D01*
X119911302Y-105385700D01*
X119779977Y-105573251D01*
X119777654Y-105578233D01*
X119777651Y-105578238D01*
X119685539Y-105775775D01*
X119683216Y-105780757D01*
X119623957Y-106001913D01*
X119623478Y-106007393D01*
X119615177Y-106102267D01*
X119589313Y-106168385D01*
X119531810Y-106210024D01*
X119460923Y-106213965D01*
X119400561Y-106180380D01*
X109555406Y-96335225D01*
X109521380Y-96272913D01*
X109518501Y-96246130D01*
X109518501Y-68369370D01*
X109538503Y-68301249D01*
X109592159Y-68254756D01*
X109662433Y-68244652D01*
X109674460Y-68247731D01*
G37*
%TD.AperFunction*%
%TD*%
M02*
