%TF.GenerationSoftware,KiCad,Pcbnew,(6.0.4-0)*%
%TF.CreationDate,2022-11-04T09:41:38+01:00*%
%TF.ProjectId,RoundScanner,526f756e-6453-4636-916e-6e65722e6b69,2*%
%TF.SameCoordinates,Original*%
%TF.FileFunction,Soldermask,Bot*%
%TF.FilePolarity,Negative*%
%FSLAX46Y46*%
G04 Gerber Fmt 4.6, Leading zero omitted, Abs format (unit mm)*
G04 Created by KiCad (PCBNEW (6.0.4-0)) date 2022-11-04 09:41:38*
%MOMM*%
%LPD*%
G01*
G04 APERTURE LIST*
G04 Aperture macros list*
%AMRoundRect*
0 Rectangle with rounded corners*
0 $1 Rounding radius*
0 $2 $3 $4 $5 $6 $7 $8 $9 X,Y pos of 4 corners*
0 Add a 4 corners polygon primitive as box body*
4,1,4,$2,$3,$4,$5,$6,$7,$8,$9,$2,$3,0*
0 Add four circle primitives for the rounded corners*
1,1,$1+$1,$2,$3*
1,1,$1+$1,$4,$5*
1,1,$1+$1,$6,$7*
1,1,$1+$1,$8,$9*
0 Add four rect primitives between the rounded corners*
20,1,$1+$1,$2,$3,$4,$5,0*
20,1,$1+$1,$4,$5,$6,$7,0*
20,1,$1+$1,$6,$7,$8,$9,0*
20,1,$1+$1,$8,$9,$2,$3,0*%
G04 Aperture macros list end*
%ADD10C,3.500000*%
%ADD11R,1.700000X1.700000*%
%ADD12O,1.700000X1.700000*%
%ADD13RoundRect,0.150000X0.335876X-0.548008X0.548008X-0.335876X-0.335876X0.548008X-0.548008X0.335876X0*%
%ADD14RoundRect,0.250000X0.212132X-0.707107X0.707107X-0.212132X-0.212132X0.707107X-0.707107X0.212132X0*%
G04 APERTURE END LIST*
%TO.C,REF\u002A\u002A*%
G36*
X86113799Y-108466450D02*
G01*
X86147465Y-108478338D01*
X86199439Y-108497441D01*
X86267782Y-108523009D01*
X86350555Y-108554290D01*
X86445820Y-108590531D01*
X86551639Y-108630981D01*
X86666072Y-108674888D01*
X86787182Y-108721501D01*
X86913029Y-108770068D01*
X87041676Y-108819837D01*
X87171183Y-108870056D01*
X87299613Y-108919974D01*
X87425027Y-108968838D01*
X87545486Y-109015898D01*
X87659051Y-109060402D01*
X87763785Y-109101597D01*
X87857749Y-109138732D01*
X87939003Y-109171055D01*
X88005611Y-109197815D01*
X88055632Y-109218259D01*
X88087129Y-109231637D01*
X88098163Y-109237196D01*
X88097268Y-109238663D01*
X88081739Y-109250778D01*
X88048869Y-109272951D01*
X88001191Y-109303571D01*
X87941239Y-109341030D01*
X87871547Y-109383715D01*
X87794651Y-109430019D01*
X87769880Y-109444853D01*
X87695049Y-109490168D01*
X87628271Y-109531348D01*
X87572070Y-109566787D01*
X87528969Y-109594879D01*
X87501491Y-109614018D01*
X87492159Y-109622596D01*
X87496994Y-109633081D01*
X87513220Y-109662831D01*
X87539580Y-109709150D01*
X87574783Y-109769880D01*
X87617543Y-109842858D01*
X87666569Y-109925926D01*
X87720574Y-110016921D01*
X87778269Y-110113685D01*
X87838365Y-110214056D01*
X87899573Y-110315874D01*
X87960604Y-110416979D01*
X88020171Y-110515210D01*
X88076984Y-110608407D01*
X88129755Y-110694409D01*
X88177195Y-110771055D01*
X88202433Y-110811493D01*
X88286227Y-110944215D01*
X88369592Y-111074032D01*
X88450834Y-111198416D01*
X88528261Y-111314838D01*
X88600180Y-111420770D01*
X88664897Y-111513685D01*
X88720721Y-111591053D01*
X88765957Y-111650346D01*
X88873427Y-111777696D01*
X88991355Y-111898970D01*
X89106612Y-111997095D01*
X89219809Y-112072351D01*
X89331552Y-112125018D01*
X89442453Y-112155375D01*
X89553118Y-112163704D01*
X89664157Y-112150285D01*
X89776178Y-112115398D01*
X89854274Y-112079146D01*
X89949690Y-112021073D01*
X90044298Y-111947357D01*
X90139616Y-111856526D01*
X90237162Y-111747108D01*
X90338454Y-111617629D01*
X90445010Y-111466617D01*
X90468572Y-111431342D01*
X90515751Y-111359181D01*
X90573475Y-111269471D01*
X90640608Y-111164054D01*
X90716011Y-111044770D01*
X90798547Y-110913461D01*
X90887078Y-110771967D01*
X90980468Y-110622129D01*
X91077578Y-110465787D01*
X91177271Y-110304782D01*
X91278410Y-110140956D01*
X91379857Y-109976149D01*
X91480475Y-109812201D01*
X91579126Y-109650955D01*
X91674673Y-109494249D01*
X91765978Y-109343926D01*
X91851905Y-109201825D01*
X91931314Y-109069789D01*
X92003070Y-108949657D01*
X92066034Y-108843270D01*
X92107509Y-108773294D01*
X92147139Y-108707485D01*
X92181450Y-108651588D01*
X92208761Y-108608311D01*
X92227388Y-108580360D01*
X92235650Y-108570442D01*
X92243420Y-108574082D01*
X92270189Y-108588560D01*
X92313901Y-108612948D01*
X92372434Y-108646039D01*
X92443670Y-108686630D01*
X92525488Y-108733515D01*
X92615768Y-108785490D01*
X92712390Y-108841350D01*
X92722530Y-108847224D01*
X92831547Y-108910450D01*
X92921649Y-108962933D01*
X92994564Y-109005803D01*
X93052017Y-109040189D01*
X93095735Y-109067220D01*
X93127444Y-109088024D01*
X93148870Y-109103731D01*
X93161741Y-109115470D01*
X93167781Y-109124368D01*
X93168718Y-109131557D01*
X93166278Y-109138163D01*
X93151900Y-109164554D01*
X93125562Y-109211841D01*
X93089815Y-109275388D01*
X93046028Y-109352803D01*
X92995568Y-109441693D01*
X92939803Y-109539665D01*
X92880101Y-109644325D01*
X92817829Y-109753282D01*
X92754355Y-109864142D01*
X92691048Y-109974512D01*
X92629274Y-110082000D01*
X92570401Y-110184212D01*
X92515798Y-110278756D01*
X92466832Y-110363239D01*
X92424870Y-110435267D01*
X92403434Y-110471903D01*
X92245554Y-110739731D01*
X92096473Y-110988870D01*
X91954633Y-111221835D01*
X91818474Y-111441141D01*
X91686438Y-111649303D01*
X91556964Y-111848836D01*
X91428493Y-112042255D01*
X91408065Y-112072570D01*
X91323880Y-112195290D01*
X91248225Y-112301280D01*
X91178401Y-112393911D01*
X91111710Y-112476554D01*
X91045454Y-112552582D01*
X90976935Y-112625364D01*
X90903455Y-112698273D01*
X90852403Y-112746095D01*
X90688366Y-112881436D01*
X90517375Y-112994826D01*
X90337561Y-113087135D01*
X90147059Y-113159231D01*
X89944000Y-113211985D01*
X89726519Y-113246264D01*
X89711291Y-113247852D01*
X89633095Y-113253387D01*
X89541739Y-113256600D01*
X89444632Y-113257493D01*
X89349177Y-113256064D01*
X89262783Y-113252315D01*
X89192855Y-113246246D01*
X89148042Y-113240232D01*
X88973364Y-113205455D01*
X88807661Y-113153165D01*
X88649518Y-113082439D01*
X88497517Y-112992356D01*
X88350241Y-112881994D01*
X88206272Y-112750432D01*
X88064193Y-112596746D01*
X87922587Y-112420017D01*
X87868049Y-112345991D01*
X87789429Y-112235354D01*
X87701888Y-112108552D01*
X87607085Y-111968196D01*
X87506681Y-111816896D01*
X87402336Y-111657263D01*
X87295709Y-111491908D01*
X87188461Y-111323442D01*
X87082250Y-111154475D01*
X86978737Y-110987618D01*
X86879582Y-110825483D01*
X86786445Y-110670679D01*
X86700985Y-110525818D01*
X86624862Y-110393510D01*
X86559737Y-110276367D01*
X86558048Y-110273280D01*
X86536478Y-110237010D01*
X86518116Y-110211383D01*
X86506777Y-110201775D01*
X86504277Y-110202615D01*
X86484411Y-110212728D01*
X86447562Y-110233097D01*
X86396365Y-110262215D01*
X86333459Y-110298572D01*
X86261479Y-110340660D01*
X86183063Y-110386970D01*
X86152496Y-110405091D01*
X86077009Y-110449685D01*
X86009468Y-110489365D01*
X85952403Y-110522660D01*
X85908347Y-110548095D01*
X85879831Y-110564197D01*
X85869386Y-110569494D01*
X85870102Y-110559490D01*
X85873120Y-110527248D01*
X85878308Y-110474411D01*
X85885490Y-110402683D01*
X85894494Y-110313769D01*
X85905144Y-110209374D01*
X85917267Y-110091204D01*
X85930688Y-109960962D01*
X85945235Y-109820355D01*
X85960733Y-109671086D01*
X85977007Y-109514861D01*
X85993740Y-109355254D01*
X86013943Y-109164989D01*
X86031986Y-108998127D01*
X86047900Y-108854397D01*
X86061719Y-108733525D01*
X86073473Y-108635241D01*
X86083195Y-108559271D01*
X86090917Y-108505343D01*
X86096670Y-108473185D01*
X86100487Y-108462524D01*
X86113799Y-108466450D01*
G37*
G36*
X86111409Y-108464100D02*
G01*
X86145075Y-108475988D01*
X86197049Y-108495091D01*
X86265392Y-108520659D01*
X86348165Y-108551940D01*
X86443430Y-108588181D01*
X86549249Y-108628631D01*
X86663682Y-108672538D01*
X86784792Y-108719151D01*
X86910639Y-108767718D01*
X87039286Y-108817487D01*
X87168793Y-108867706D01*
X87297223Y-108917624D01*
X87422637Y-108966488D01*
X87543096Y-109013548D01*
X87656661Y-109058052D01*
X87761395Y-109099247D01*
X87855359Y-109136382D01*
X87936613Y-109168705D01*
X88003221Y-109195465D01*
X88053242Y-109215909D01*
X88084739Y-109229287D01*
X88095773Y-109234846D01*
X88094878Y-109236313D01*
X88079349Y-109248428D01*
X88046479Y-109270601D01*
X87998801Y-109301221D01*
X87938849Y-109338680D01*
X87869157Y-109381365D01*
X87792261Y-109427669D01*
X87767490Y-109442503D01*
X87692659Y-109487818D01*
X87625881Y-109528998D01*
X87569680Y-109564437D01*
X87526579Y-109592529D01*
X87499101Y-109611668D01*
X87489769Y-109620246D01*
X87494604Y-109630731D01*
X87510830Y-109660481D01*
X87537190Y-109706800D01*
X87572393Y-109767530D01*
X87615153Y-109840508D01*
X87664179Y-109923576D01*
X87718184Y-110014571D01*
X87775879Y-110111335D01*
X87835975Y-110211706D01*
X87897183Y-110313524D01*
X87958214Y-110414629D01*
X88017781Y-110512860D01*
X88074594Y-110606057D01*
X88127365Y-110692059D01*
X88174805Y-110768705D01*
X88200043Y-110809143D01*
X88283837Y-110941865D01*
X88367202Y-111071682D01*
X88448444Y-111196066D01*
X88525871Y-111312488D01*
X88597790Y-111418420D01*
X88662507Y-111511335D01*
X88718331Y-111588703D01*
X88763567Y-111647996D01*
X88871037Y-111775346D01*
X88988965Y-111896620D01*
X89104222Y-111994745D01*
X89217419Y-112070001D01*
X89329162Y-112122668D01*
X89440063Y-112153025D01*
X89550728Y-112161354D01*
X89661767Y-112147935D01*
X89773788Y-112113048D01*
X89851884Y-112076796D01*
X89947300Y-112018723D01*
X90041908Y-111945007D01*
X90137226Y-111854176D01*
X90234772Y-111744758D01*
X90336064Y-111615279D01*
X90442620Y-111464267D01*
X90466182Y-111428992D01*
X90513361Y-111356831D01*
X90571085Y-111267121D01*
X90638218Y-111161704D01*
X90713621Y-111042420D01*
X90796157Y-110911111D01*
X90884688Y-110769617D01*
X90978078Y-110619779D01*
X91075188Y-110463437D01*
X91174881Y-110302432D01*
X91276020Y-110138606D01*
X91377467Y-109973799D01*
X91478085Y-109809851D01*
X91576736Y-109648605D01*
X91672283Y-109491899D01*
X91763588Y-109341576D01*
X91849515Y-109199475D01*
X91928924Y-109067439D01*
X92000680Y-108947307D01*
X92063644Y-108840920D01*
X92105119Y-108770944D01*
X92144749Y-108705135D01*
X92179060Y-108649238D01*
X92206371Y-108605961D01*
X92224998Y-108578010D01*
X92233260Y-108568092D01*
X92241030Y-108571732D01*
X92267799Y-108586210D01*
X92311511Y-108610598D01*
X92370044Y-108643689D01*
X92441280Y-108684280D01*
X92523098Y-108731165D01*
X92613378Y-108783140D01*
X92710000Y-108839000D01*
X92720140Y-108844874D01*
X92829157Y-108908100D01*
X92919259Y-108960583D01*
X92992174Y-109003453D01*
X93049627Y-109037839D01*
X93093345Y-109064870D01*
X93125054Y-109085674D01*
X93146480Y-109101381D01*
X93159351Y-109113120D01*
X93165391Y-109122018D01*
X93166328Y-109129207D01*
X93163888Y-109135813D01*
X93149510Y-109162204D01*
X93123172Y-109209491D01*
X93087425Y-109273038D01*
X93043638Y-109350453D01*
X92993178Y-109439343D01*
X92937413Y-109537315D01*
X92877711Y-109641975D01*
X92815439Y-109750932D01*
X92751965Y-109861792D01*
X92688658Y-109972162D01*
X92626884Y-110079650D01*
X92568011Y-110181862D01*
X92513408Y-110276406D01*
X92464442Y-110360889D01*
X92422480Y-110432917D01*
X92401044Y-110469553D01*
X92243164Y-110737381D01*
X92094083Y-110986520D01*
X91952243Y-111219485D01*
X91816084Y-111438791D01*
X91684048Y-111646953D01*
X91554574Y-111846486D01*
X91426103Y-112039905D01*
X91405675Y-112070220D01*
X91321490Y-112192940D01*
X91245835Y-112298930D01*
X91176011Y-112391561D01*
X91109320Y-112474204D01*
X91043064Y-112550232D01*
X90974545Y-112623014D01*
X90901065Y-112695923D01*
X90850013Y-112743745D01*
X90685976Y-112879086D01*
X90514985Y-112992476D01*
X90335171Y-113084785D01*
X90144669Y-113156881D01*
X89941610Y-113209635D01*
X89724129Y-113243914D01*
X89708901Y-113245502D01*
X89630705Y-113251037D01*
X89539349Y-113254250D01*
X89442242Y-113255143D01*
X89346787Y-113253714D01*
X89260393Y-113249965D01*
X89190465Y-113243896D01*
X89145652Y-113237882D01*
X88970974Y-113203105D01*
X88805271Y-113150815D01*
X88647128Y-113080089D01*
X88495127Y-112990006D01*
X88347851Y-112879644D01*
X88203882Y-112748082D01*
X88061803Y-112594396D01*
X87920197Y-112417667D01*
X87865659Y-112343641D01*
X87787039Y-112233004D01*
X87699498Y-112106202D01*
X87604695Y-111965846D01*
X87504291Y-111814546D01*
X87399946Y-111654913D01*
X87293319Y-111489558D01*
X87186071Y-111321092D01*
X87079860Y-111152125D01*
X86976347Y-110985268D01*
X86877192Y-110823133D01*
X86784055Y-110668329D01*
X86698595Y-110523468D01*
X86622472Y-110391160D01*
X86557347Y-110274017D01*
X86555658Y-110270930D01*
X86534088Y-110234660D01*
X86515726Y-110209033D01*
X86504387Y-110199425D01*
X86501887Y-110200265D01*
X86482021Y-110210378D01*
X86445172Y-110230747D01*
X86393975Y-110259865D01*
X86331069Y-110296222D01*
X86259089Y-110338310D01*
X86180673Y-110384620D01*
X86150106Y-110402741D01*
X86074619Y-110447335D01*
X86007078Y-110487015D01*
X85950013Y-110520310D01*
X85905957Y-110545745D01*
X85877441Y-110561847D01*
X85866996Y-110567144D01*
X85867712Y-110557140D01*
X85870730Y-110524898D01*
X85875918Y-110472061D01*
X85883100Y-110400333D01*
X85892104Y-110311419D01*
X85902754Y-110207024D01*
X85914877Y-110088854D01*
X85928298Y-109958612D01*
X85942845Y-109818005D01*
X85958343Y-109668736D01*
X85974617Y-109512511D01*
X85991350Y-109352904D01*
X86011553Y-109162639D01*
X86029596Y-108995777D01*
X86045510Y-108852047D01*
X86059329Y-108731175D01*
X86071083Y-108632891D01*
X86080805Y-108556921D01*
X86088527Y-108502993D01*
X86094280Y-108470835D01*
X86098097Y-108460174D01*
X86111409Y-108464100D01*
G37*
%TD*%
D10*
%TO.C,H2*%
X78740000Y-95885000D03*
%TD*%
%TO.C,H1*%
X89408000Y-123571000D03*
%TD*%
%TO.C,H4*%
X95885000Y-91694000D03*
%TD*%
%TO.C,H3*%
X108077000Y-117221000D03*
%TD*%
%TO.C,H5*%
X70993000Y-97155000D03*
%TD*%
D11*
%TO.C,J1*%
X91059000Y-87757000D03*
D12*
X93599000Y-87757000D03*
X96139000Y-87757000D03*
X98679000Y-87757000D03*
%TD*%
D13*
%TO.C,J3*%
X97889553Y-124140874D03*
X98596660Y-123433767D03*
X99303767Y-122726660D03*
X100010874Y-122019553D03*
D14*
X98190074Y-118360276D03*
X94230276Y-122320074D03*
%TD*%
M02*
