%TF.GenerationSoftware,KiCad,Pcbnew,(6.0.4-0)*%
%TF.CreationDate,2022-11-04T09:41:38+01:00*%
%TF.ProjectId,RoundScanner,526f756e-6453-4636-916e-6e65722e6b69,2*%
%TF.SameCoordinates,Original*%
%TF.FileFunction,Legend,Bot*%
%TF.FilePolarity,Positive*%
%FSLAX46Y46*%
G04 Gerber Fmt 4.6, Leading zero omitted, Abs format (unit mm)*
G04 Created by KiCad (PCBNEW (6.0.4-0)) date 2022-11-04 09:41:38*
%MOMM*%
%LPD*%
G01*
G04 APERTURE LIST*
%ADD10C,0.150000*%
%ADD11C,0.120000*%
%ADD12C,0.010000*%
G04 APERTURE END LIST*
D10*
X96837500Y-115570000D02*
X81724500Y-115570000D01*
X97471476Y-117376380D02*
X97471476Y-116376380D01*
X97471476Y-116852571D02*
X96900047Y-116852571D01*
X96900047Y-117376380D02*
X96900047Y-116376380D01*
X95995285Y-117376380D02*
X95995285Y-116852571D01*
X96042904Y-116757333D01*
X96138142Y-116709714D01*
X96328619Y-116709714D01*
X96423857Y-116757333D01*
X95995285Y-117328761D02*
X96090523Y-117376380D01*
X96328619Y-117376380D01*
X96423857Y-117328761D01*
X96471476Y-117233523D01*
X96471476Y-117138285D01*
X96423857Y-117043047D01*
X96328619Y-116995428D01*
X96090523Y-116995428D01*
X95995285Y-116947809D01*
X95519095Y-116709714D02*
X95519095Y-117376380D01*
X95519095Y-116804952D02*
X95471476Y-116757333D01*
X95376238Y-116709714D01*
X95233380Y-116709714D01*
X95138142Y-116757333D01*
X95090523Y-116852571D01*
X95090523Y-117376380D01*
X94185761Y-117376380D02*
X94185761Y-116376380D01*
X94185761Y-117328761D02*
X94281000Y-117376380D01*
X94471476Y-117376380D01*
X94566714Y-117328761D01*
X94614333Y-117281142D01*
X94661952Y-117185904D01*
X94661952Y-116900190D01*
X94614333Y-116804952D01*
X94566714Y-116757333D01*
X94471476Y-116709714D01*
X94281000Y-116709714D01*
X94185761Y-116757333D01*
X93709571Y-117376380D02*
X93709571Y-116376380D01*
X93281000Y-117376380D02*
X93281000Y-116852571D01*
X93328619Y-116757333D01*
X93423857Y-116709714D01*
X93566714Y-116709714D01*
X93661952Y-116757333D01*
X93709571Y-116804952D01*
X92423857Y-117328761D02*
X92519095Y-117376380D01*
X92709571Y-117376380D01*
X92804809Y-117328761D01*
X92852428Y-117233523D01*
X92852428Y-116852571D01*
X92804809Y-116757333D01*
X92709571Y-116709714D01*
X92519095Y-116709714D01*
X92423857Y-116757333D01*
X92376238Y-116852571D01*
X92376238Y-116947809D01*
X92852428Y-117043047D01*
X91804809Y-117376380D02*
X91900047Y-117328761D01*
X91947666Y-117233523D01*
X91947666Y-116376380D01*
X90995285Y-117376380D02*
X90995285Y-116376380D01*
X90995285Y-117328761D02*
X91090523Y-117376380D01*
X91281000Y-117376380D01*
X91376238Y-117328761D01*
X91423857Y-117281142D01*
X91471476Y-117185904D01*
X91471476Y-116900190D01*
X91423857Y-116804952D01*
X91376238Y-116757333D01*
X91281000Y-116709714D01*
X91090523Y-116709714D01*
X90995285Y-116757333D01*
X90566714Y-117328761D02*
X90423857Y-117376380D01*
X90185761Y-117376380D01*
X90090523Y-117328761D01*
X90042904Y-117281142D01*
X89995285Y-117185904D01*
X89995285Y-117090666D01*
X90042904Y-116995428D01*
X90090523Y-116947809D01*
X90185761Y-116900190D01*
X90376238Y-116852571D01*
X90471476Y-116804952D01*
X90519095Y-116757333D01*
X90566714Y-116662095D01*
X90566714Y-116566857D01*
X90519095Y-116471619D01*
X90471476Y-116424000D01*
X90376238Y-116376380D01*
X90138142Y-116376380D01*
X89995285Y-116424000D01*
X89138142Y-117328761D02*
X89233380Y-117376380D01*
X89423857Y-117376380D01*
X89519095Y-117328761D01*
X89566714Y-117281142D01*
X89614333Y-117185904D01*
X89614333Y-116900190D01*
X89566714Y-116804952D01*
X89519095Y-116757333D01*
X89423857Y-116709714D01*
X89233380Y-116709714D01*
X89138142Y-116757333D01*
X88281000Y-117376380D02*
X88281000Y-116852571D01*
X88328619Y-116757333D01*
X88423857Y-116709714D01*
X88614333Y-116709714D01*
X88709571Y-116757333D01*
X88281000Y-117328761D02*
X88376238Y-117376380D01*
X88614333Y-117376380D01*
X88709571Y-117328761D01*
X88757190Y-117233523D01*
X88757190Y-117138285D01*
X88709571Y-117043047D01*
X88614333Y-116995428D01*
X88376238Y-116995428D01*
X88281000Y-116947809D01*
X87804809Y-116709714D02*
X87804809Y-117376380D01*
X87804809Y-116804952D02*
X87757190Y-116757333D01*
X87661952Y-116709714D01*
X87519095Y-116709714D01*
X87423857Y-116757333D01*
X87376238Y-116852571D01*
X87376238Y-117376380D01*
X86900047Y-116709714D02*
X86900047Y-117376380D01*
X86900047Y-116804952D02*
X86852428Y-116757333D01*
X86757190Y-116709714D01*
X86614333Y-116709714D01*
X86519095Y-116757333D01*
X86471476Y-116852571D01*
X86471476Y-117376380D01*
X85614333Y-117328761D02*
X85709571Y-117376380D01*
X85900047Y-117376380D01*
X85995285Y-117328761D01*
X86042904Y-117233523D01*
X86042904Y-116852571D01*
X85995285Y-116757333D01*
X85900047Y-116709714D01*
X85709571Y-116709714D01*
X85614333Y-116757333D01*
X85566714Y-116852571D01*
X85566714Y-116947809D01*
X86042904Y-117043047D01*
X85138142Y-117376380D02*
X85138142Y-116709714D01*
X85138142Y-116900190D02*
X85090523Y-116804952D01*
X85042904Y-116757333D01*
X84947666Y-116709714D01*
X84852428Y-116709714D01*
X83852428Y-116709714D02*
X83614333Y-117376380D01*
X83376238Y-116709714D01*
X82804809Y-116376380D02*
X82709571Y-116376380D01*
X82614333Y-116424000D01*
X82566714Y-116471619D01*
X82519095Y-116566857D01*
X82471476Y-116757333D01*
X82471476Y-116995428D01*
X82519095Y-117185904D01*
X82566714Y-117281142D01*
X82614333Y-117328761D01*
X82709571Y-117376380D01*
X82804809Y-117376380D01*
X82900047Y-117328761D01*
X82947666Y-117281142D01*
X82995285Y-117185904D01*
X83042904Y-116995428D01*
X83042904Y-116757333D01*
X82995285Y-116566857D01*
X82947666Y-116471619D01*
X82900047Y-116424000D01*
X82804809Y-116376380D01*
X82042904Y-117281142D02*
X81995285Y-117328761D01*
X82042904Y-117376380D01*
X82090523Y-117328761D01*
X82042904Y-117281142D01*
X82042904Y-117376380D01*
X81090523Y-116376380D02*
X81566714Y-116376380D01*
X81614333Y-116852571D01*
X81566714Y-116804952D01*
X81471476Y-116757333D01*
X81233380Y-116757333D01*
X81138142Y-116804952D01*
X81090523Y-116852571D01*
X81042904Y-116947809D01*
X81042904Y-117185904D01*
X81090523Y-117281142D01*
X81138142Y-117328761D01*
X81233380Y-117376380D01*
X81471476Y-117376380D01*
X81566714Y-117328761D01*
X81614333Y-117281142D01*
X94138142Y-118081619D02*
X94090523Y-118034000D01*
X93995285Y-117986380D01*
X93757190Y-117986380D01*
X93661952Y-118034000D01*
X93614333Y-118081619D01*
X93566714Y-118176857D01*
X93566714Y-118272095D01*
X93614333Y-118414952D01*
X94185761Y-118986380D01*
X93566714Y-118986380D01*
X92947666Y-117986380D02*
X92852428Y-117986380D01*
X92757190Y-118034000D01*
X92709571Y-118081619D01*
X92661952Y-118176857D01*
X92614333Y-118367333D01*
X92614333Y-118605428D01*
X92661952Y-118795904D01*
X92709571Y-118891142D01*
X92757190Y-118938761D01*
X92852428Y-118986380D01*
X92947666Y-118986380D01*
X93042904Y-118938761D01*
X93090523Y-118891142D01*
X93138142Y-118795904D01*
X93185761Y-118605428D01*
X93185761Y-118367333D01*
X93138142Y-118176857D01*
X93090523Y-118081619D01*
X93042904Y-118034000D01*
X92947666Y-117986380D01*
X92233380Y-118081619D02*
X92185761Y-118034000D01*
X92090523Y-117986380D01*
X91852428Y-117986380D01*
X91757190Y-118034000D01*
X91709571Y-118081619D01*
X91661952Y-118176857D01*
X91661952Y-118272095D01*
X91709571Y-118414952D01*
X92281000Y-118986380D01*
X91661952Y-118986380D01*
X91281000Y-118081619D02*
X91233380Y-118034000D01*
X91138142Y-117986380D01*
X90900047Y-117986380D01*
X90804809Y-118034000D01*
X90757190Y-118081619D01*
X90709571Y-118176857D01*
X90709571Y-118272095D01*
X90757190Y-118414952D01*
X91328619Y-118986380D01*
X90709571Y-118986380D01*
X90281000Y-118605428D02*
X89519095Y-118605428D01*
X88519095Y-118986380D02*
X89090523Y-118986380D01*
X88804809Y-118986380D02*
X88804809Y-117986380D01*
X88900047Y-118129238D01*
X88995285Y-118224476D01*
X89090523Y-118272095D01*
X87900047Y-117986380D02*
X87804809Y-117986380D01*
X87709571Y-118034000D01*
X87661952Y-118081619D01*
X87614333Y-118176857D01*
X87566714Y-118367333D01*
X87566714Y-118605428D01*
X87614333Y-118795904D01*
X87661952Y-118891142D01*
X87709571Y-118938761D01*
X87804809Y-118986380D01*
X87900047Y-118986380D01*
X87995285Y-118938761D01*
X88042904Y-118891142D01*
X88090523Y-118795904D01*
X88138142Y-118605428D01*
X88138142Y-118367333D01*
X88090523Y-118176857D01*
X88042904Y-118081619D01*
X87995285Y-118034000D01*
X87900047Y-117986380D01*
X87138142Y-118605428D02*
X86376238Y-118605428D01*
X85947666Y-118081619D02*
X85900047Y-118034000D01*
X85804809Y-117986380D01*
X85566714Y-117986380D01*
X85471476Y-118034000D01*
X85423857Y-118081619D01*
X85376238Y-118176857D01*
X85376238Y-118272095D01*
X85423857Y-118414952D01*
X85995285Y-118986380D01*
X85376238Y-118986380D01*
X84519095Y-117986380D02*
X84709571Y-117986380D01*
X84804809Y-118034000D01*
X84852428Y-118081619D01*
X84947666Y-118224476D01*
X84995285Y-118414952D01*
X84995285Y-118795904D01*
X84947666Y-118891142D01*
X84900047Y-118938761D01*
X84804809Y-118986380D01*
X84614333Y-118986380D01*
X84519095Y-118938761D01*
X84471476Y-118891142D01*
X84423857Y-118795904D01*
X84423857Y-118557809D01*
X84471476Y-118462571D01*
X84519095Y-118414952D01*
X84614333Y-118367333D01*
X84804809Y-118367333D01*
X84900047Y-118414952D01*
X84947666Y-118462571D01*
X84995285Y-118557809D01*
%TO.C,J1*%
X88181380Y-87423666D02*
X88895666Y-87423666D01*
X89038523Y-87376047D01*
X89133761Y-87280809D01*
X89181380Y-87137952D01*
X89181380Y-87042714D01*
X89181380Y-88423666D02*
X89181380Y-87852238D01*
X89181380Y-88137952D02*
X88181380Y-88137952D01*
X88324238Y-88042714D01*
X88419476Y-87947476D01*
X88467095Y-87852238D01*
%TO.C,J3*%
X100198762Y-123857357D02*
X100703838Y-124362433D01*
X100838525Y-124429777D01*
X100973212Y-124429777D01*
X101107899Y-124362433D01*
X101175242Y-124295090D01*
X99929388Y-124126731D02*
X99491655Y-124564464D01*
X99996731Y-124598136D01*
X99895716Y-124699151D01*
X99862044Y-124800166D01*
X99862044Y-124867510D01*
X99895716Y-124968525D01*
X100064075Y-125136884D01*
X100165090Y-125170555D01*
X100232433Y-125170555D01*
X100333449Y-125136884D01*
X100535479Y-124934853D01*
X100569151Y-124833838D01*
X100569151Y-124766494D01*
%TO.C,kibuzzard-6346913B*%
G36*
X99855668Y-99385437D02*
G01*
X99941393Y-99394962D01*
X99941393Y-99845812D01*
X99788993Y-99845812D01*
X99563568Y-99780725D01*
X99487368Y-99601337D01*
X99509593Y-99488625D01*
X99569918Y-99421950D01*
X99658818Y-99390200D01*
X99763593Y-99382262D01*
X99855668Y-99385437D01*
G37*
G36*
X77463452Y-98314007D02*
G01*
X101825544Y-98314007D01*
X100844548Y-101583993D01*
X76482456Y-101583993D01*
X76723875Y-100779263D01*
X86723868Y-100779263D01*
X86809593Y-100991988D01*
X87006443Y-101065013D01*
X87114393Y-101045963D01*
X87204881Y-100990400D01*
X87268381Y-100901500D01*
X87292193Y-100779263D01*
X87268381Y-100660200D01*
X87204881Y-100572888D01*
X87114393Y-100518913D01*
X87006443Y-100499863D01*
X86809593Y-100572888D01*
X86723868Y-100779263D01*
X76723875Y-100779263D01*
X76873418Y-100280788D01*
X87892268Y-100280788D01*
X87904968Y-100450253D01*
X87943068Y-100603050D01*
X88004187Y-100737591D01*
X88085943Y-100852288D01*
X88187146Y-100945156D01*
X88306606Y-101014213D01*
X88442734Y-101057075D01*
X88593943Y-101071363D01*
X88745153Y-101057075D01*
X88830863Y-101030088D01*
X89536918Y-101030088D01*
X89851243Y-101030088D01*
X89942789Y-100812247D01*
X90039627Y-100594760D01*
X90141756Y-100377625D01*
X90249177Y-100160490D01*
X90361889Y-99943003D01*
X90479893Y-99725162D01*
X90479893Y-101030088D01*
X90832318Y-101030088D01*
X90832318Y-99064762D01*
X90517993Y-99064762D01*
X90429093Y-99210416D01*
X90340193Y-99367975D01*
X90252484Y-99531091D01*
X90167156Y-99693412D01*
X90086193Y-99852956D01*
X90011581Y-100007738D01*
X89945303Y-100150613D01*
X89889343Y-100274438D01*
X89889343Y-99064762D01*
X89536918Y-99064762D01*
X89536918Y-101030088D01*
X88830863Y-101030088D01*
X88881281Y-101014213D01*
X89001137Y-100945156D01*
X89103531Y-100852288D01*
X89186478Y-100737591D01*
X89247993Y-100603050D01*
X89286093Y-100450253D01*
X89298793Y-100280788D01*
X89285696Y-100113703D01*
X89246406Y-99961700D01*
X89183699Y-99827556D01*
X89100356Y-99714050D01*
X88997565Y-99622769D01*
X88876518Y-99555300D01*
X88740787Y-99513628D01*
X88593943Y-99499737D01*
X88445115Y-99513628D01*
X88309781Y-99555300D01*
X88189924Y-99622769D01*
X88087531Y-99714050D01*
X88004584Y-99827556D01*
X87943068Y-99961700D01*
X87904968Y-100113703D01*
X87892268Y-100280788D01*
X76873418Y-100280788D01*
X77309663Y-98826637D01*
X92788118Y-98826637D01*
X92788118Y-100985638D01*
X92907974Y-101017388D01*
X93051643Y-101042788D01*
X93205631Y-101059456D01*
X93356443Y-101065013D01*
X93570403Y-101042082D01*
X93746615Y-100973290D01*
X93885081Y-100858638D01*
X93984740Y-100704121D01*
X94044536Y-100515738D01*
X94064468Y-100293488D01*
X94047711Y-100067181D01*
X93997440Y-99875093D01*
X93913656Y-99717225D01*
X93797063Y-99599926D01*
X93739671Y-99572762D01*
X94283543Y-99572762D01*
X94353393Y-99934712D01*
X94443881Y-99915662D01*
X94550243Y-99898200D01*
X94655018Y-99887087D01*
X94740743Y-99883912D01*
X94902668Y-99891850D01*
X95064593Y-99922012D01*
X95064593Y-101030088D01*
X95458293Y-101030088D01*
X95458293Y-100995163D01*
X95928193Y-100995163D01*
X96182193Y-101039613D01*
X96360787Y-101058663D01*
X96560018Y-101065013D01*
X96818781Y-101039613D01*
X97017218Y-100955475D01*
X97144218Y-100803075D01*
X97188668Y-100572888D01*
X97137868Y-100353813D01*
X97068089Y-100280788D01*
X97417268Y-100280788D01*
X97429968Y-100450253D01*
X97468068Y-100603050D01*
X97529187Y-100737591D01*
X97610943Y-100852288D01*
X97712146Y-100945156D01*
X97831606Y-101014213D01*
X97967734Y-101057075D01*
X98118943Y-101071363D01*
X98270153Y-101057075D01*
X98406281Y-101014213D01*
X98526137Y-100945156D01*
X98628531Y-100852288D01*
X98711478Y-100737591D01*
X98772993Y-100603050D01*
X98811093Y-100450253D01*
X98812134Y-100436363D01*
X99014293Y-100436363D01*
X99029374Y-100599478D01*
X99074618Y-100733225D01*
X99238131Y-100923725D01*
X99350843Y-100984844D01*
X99482606Y-101025325D01*
X99629053Y-101047947D01*
X99785818Y-101055488D01*
X99918374Y-101051916D01*
X100055693Y-101041200D01*
X100194599Y-101023341D01*
X100331918Y-100998338D01*
X100331918Y-99090162D01*
X100087443Y-99056825D01*
X99823918Y-99042537D01*
X99622306Y-99054047D01*
X99461968Y-99088575D01*
X99242893Y-99209225D01*
X99134943Y-99375912D01*
X99106368Y-99560062D01*
X99123434Y-99691825D01*
X99174631Y-99807712D01*
X99357193Y-99979163D01*
X99189315Y-100064888D01*
X99085731Y-100176013D01*
X99032153Y-100303013D01*
X99014293Y-100436363D01*
X98812134Y-100436363D01*
X98823793Y-100280788D01*
X98810696Y-100113703D01*
X98771406Y-99961700D01*
X98708699Y-99827556D01*
X98625356Y-99714050D01*
X98522565Y-99622769D01*
X98401518Y-99555300D01*
X98265787Y-99513628D01*
X98118943Y-99499737D01*
X97970115Y-99513628D01*
X97834781Y-99555300D01*
X97714924Y-99622769D01*
X97612531Y-99714050D01*
X97529584Y-99827556D01*
X97468068Y-99961700D01*
X97429968Y-100113703D01*
X97417268Y-100280788D01*
X97068089Y-100280788D01*
X97001343Y-100210938D01*
X96804493Y-100133150D01*
X96572718Y-100109338D01*
X96429049Y-100115688D01*
X96302843Y-100134738D01*
X96302843Y-100087113D01*
X96372693Y-99901375D01*
X96467943Y-99845416D01*
X96613993Y-99826762D01*
X96828306Y-99842637D01*
X96994993Y-99880737D01*
X97048968Y-99566412D01*
X96842593Y-99520375D01*
X96706862Y-99504897D01*
X96566368Y-99499737D01*
X96397696Y-99510453D01*
X96259981Y-99542600D01*
X96064718Y-99663250D01*
X95959943Y-99853750D01*
X95928193Y-100106163D01*
X95928193Y-100995163D01*
X95458293Y-100995163D01*
X95458293Y-99636262D01*
X95300734Y-99584669D01*
X95139206Y-99544187D01*
X94961803Y-99517994D01*
X94756618Y-99509262D01*
X94666131Y-99512437D01*
X94540718Y-99523550D01*
X94405781Y-99542600D01*
X94283543Y-99572762D01*
X93739671Y-99572762D01*
X93648367Y-99529547D01*
X93467568Y-99506087D01*
X93311993Y-99523550D01*
X93178643Y-99572762D01*
X93178643Y-98893312D01*
X92788118Y-98826637D01*
X77309663Y-98826637D01*
X77463452Y-98314007D01*
G37*
G36*
X93521543Y-99870419D02*
G01*
X93604093Y-99953763D01*
X93651718Y-100089494D01*
X93667593Y-100274438D01*
X93648940Y-100456206D01*
X93592981Y-100601463D01*
X93495746Y-100696713D01*
X93353268Y-100728463D01*
X93264368Y-100725288D01*
X93178643Y-100715763D01*
X93178643Y-99902962D01*
X93280243Y-99860100D01*
X93400893Y-99842637D01*
X93521543Y-99870419D01*
G37*
G36*
X96610818Y-100390325D02*
G01*
X96710831Y-100417313D01*
X96779093Y-100471288D01*
X96804493Y-100563363D01*
X96728293Y-100707825D01*
X96531443Y-100750688D01*
X96407618Y-100749100D01*
X96302843Y-100741163D01*
X96302843Y-100398263D01*
X96394918Y-100387150D01*
X96493343Y-100382388D01*
X96610818Y-100390325D01*
G37*
G36*
X88727690Y-99870022D02*
G01*
X88824131Y-99961700D01*
X88882471Y-100103384D01*
X88901918Y-100283963D01*
X88884059Y-100464938D01*
X88830481Y-100607813D01*
X88737215Y-100700681D01*
X88600293Y-100731638D01*
X88466546Y-100700681D01*
X88370106Y-100607813D01*
X88311765Y-100464938D01*
X88292318Y-100283963D01*
X88310178Y-100103384D01*
X88363756Y-99961700D01*
X88457021Y-99870022D01*
X88593943Y-99839462D01*
X88727690Y-99870022D01*
G37*
G36*
X99941393Y-100703063D02*
G01*
X99850906Y-100712588D01*
X99754068Y-100715763D01*
X99623893Y-100704650D01*
X99511181Y-100663375D01*
X99430218Y-100577650D01*
X99398468Y-100436363D01*
X99488956Y-100231575D01*
X99731843Y-100169663D01*
X99941393Y-100169663D01*
X99941393Y-100703063D01*
G37*
G36*
X98252690Y-99870022D02*
G01*
X98349131Y-99961700D01*
X98407471Y-100103384D01*
X98426918Y-100283963D01*
X98409059Y-100464938D01*
X98355481Y-100607813D01*
X98262215Y-100700681D01*
X98125293Y-100731638D01*
X97991546Y-100700681D01*
X97895106Y-100607813D01*
X97836765Y-100464938D01*
X97817318Y-100283963D01*
X97835178Y-100103384D01*
X97888756Y-99961700D01*
X97982021Y-99870022D01*
X98118943Y-99839462D01*
X98252690Y-99870022D01*
G37*
%TO.C,REF\u002A\u002A*%
G36*
X93201938Y-113812788D02*
G01*
X93201825Y-113903995D01*
X93201393Y-114010117D01*
X93200671Y-114106844D01*
X93199694Y-114191743D01*
X93198498Y-114262384D01*
X93197117Y-114316335D01*
X93195587Y-114351164D01*
X93193943Y-114364440D01*
X93192559Y-114364644D01*
X93172719Y-114365283D01*
X93130106Y-114365908D01*
X93065638Y-114366517D01*
X92980237Y-114367107D01*
X92874824Y-114367677D01*
X92750320Y-114368225D01*
X92607644Y-114368749D01*
X92447718Y-114369246D01*
X92271463Y-114369715D01*
X92079800Y-114370154D01*
X91873648Y-114370560D01*
X91653930Y-114370932D01*
X91421565Y-114371268D01*
X91177475Y-114371566D01*
X90922580Y-114371823D01*
X90657801Y-114372038D01*
X90384058Y-114372209D01*
X90102273Y-114372333D01*
X89813366Y-114372410D01*
X89518259Y-114372435D01*
X85850569Y-114372435D01*
X85850569Y-113269130D01*
X93201938Y-113269130D01*
X93201938Y-113812788D01*
G37*
D11*
%TO.C,J1*%
X100009000Y-86427000D02*
X100009000Y-89087000D01*
X92329000Y-89087000D02*
X100009000Y-89087000D01*
X91059000Y-86427000D02*
X89729000Y-86427000D01*
X89729000Y-86427000D02*
X89729000Y-87757000D01*
X92329000Y-86427000D02*
X100009000Y-86427000D01*
X92329000Y-86427000D02*
X92329000Y-89087000D01*
%TO.C,REF\u002A\u002A*%
G36*
X91334372Y-95926684D02*
G01*
X91425629Y-95969569D01*
X91500416Y-96043729D01*
X91515917Y-96066944D01*
X91528774Y-96093256D01*
X91537893Y-96126420D01*
X91544102Y-96172881D01*
X91548233Y-96239082D01*
X91551116Y-96331468D01*
X91553579Y-96456485D01*
X91559697Y-96803278D01*
X91508303Y-96783738D01*
X91461246Y-96765787D01*
X91426015Y-96748511D01*
X91403017Y-96726242D01*
X91389655Y-96692165D01*
X91383328Y-96639463D01*
X91381437Y-96561323D01*
X91381385Y-96450928D01*
X91381117Y-96362935D01*
X91379521Y-96278502D01*
X91375712Y-96220834D01*
X91368820Y-96182988D01*
X91357975Y-96158024D01*
X91342308Y-96139000D01*
X91303792Y-96112153D01*
X91239091Y-96102034D01*
X91175081Y-96127606D01*
X91170856Y-96130880D01*
X91157689Y-96146007D01*
X91147975Y-96170268D01*
X91140903Y-96209650D01*
X91135656Y-96270141D01*
X91131421Y-96357729D01*
X91127385Y-96478402D01*
X91117615Y-96801515D01*
X90951539Y-96727065D01*
X90951539Y-96432062D01*
X90951883Y-96351919D01*
X90954847Y-96240431D01*
X90962351Y-96157421D01*
X90976190Y-96096199D01*
X90998155Y-96050075D01*
X91030039Y-96012358D01*
X91073633Y-95976358D01*
X91136336Y-95940089D01*
X91235117Y-95916412D01*
X91334372Y-95926684D01*
G37*
D12*
X91334372Y-95926684D02*
X91425629Y-95969569D01*
X91500416Y-96043729D01*
X91515917Y-96066944D01*
X91528774Y-96093256D01*
X91537893Y-96126420D01*
X91544102Y-96172881D01*
X91548233Y-96239082D01*
X91551116Y-96331468D01*
X91553579Y-96456485D01*
X91559697Y-96803278D01*
X91508303Y-96783738D01*
X91461246Y-96765787D01*
X91426015Y-96748511D01*
X91403017Y-96726242D01*
X91389655Y-96692165D01*
X91383328Y-96639463D01*
X91381437Y-96561323D01*
X91381385Y-96450928D01*
X91381117Y-96362935D01*
X91379521Y-96278502D01*
X91375712Y-96220834D01*
X91368820Y-96182988D01*
X91357975Y-96158024D01*
X91342308Y-96139000D01*
X91303792Y-96112153D01*
X91239091Y-96102034D01*
X91175081Y-96127606D01*
X91170856Y-96130880D01*
X91157689Y-96146007D01*
X91147975Y-96170268D01*
X91140903Y-96209650D01*
X91135656Y-96270141D01*
X91131421Y-96357729D01*
X91127385Y-96478402D01*
X91117615Y-96801515D01*
X90951539Y-96727065D01*
X90951539Y-96432062D01*
X90951883Y-96351919D01*
X90954847Y-96240431D01*
X90962351Y-96157421D01*
X90976190Y-96096199D01*
X90998155Y-96050075D01*
X91030039Y-96012358D01*
X91073633Y-95976358D01*
X91136336Y-95940089D01*
X91235117Y-95916412D01*
X91334372Y-95926684D01*
G36*
X92312574Y-96446643D02*
G01*
X92309066Y-96478021D01*
X92282927Y-96589705D01*
X92235694Y-96674642D01*
X92163862Y-96739741D01*
X92159802Y-96742428D01*
X92068487Y-96780634D01*
X91973144Y-96784034D01*
X91881274Y-96754939D01*
X91800379Y-96695660D01*
X91737962Y-96608510D01*
X91736914Y-96606409D01*
X91716173Y-96552289D01*
X91700980Y-96490781D01*
X91692921Y-96433039D01*
X91693582Y-96390215D01*
X91704548Y-96373462D01*
X91714290Y-96374480D01*
X91760877Y-96393009D01*
X91813682Y-96427081D01*
X91858603Y-96466522D01*
X91881535Y-96501155D01*
X91905373Y-96548133D01*
X91954230Y-96590862D01*
X92010963Y-96607923D01*
X92031758Y-96602990D01*
X92072804Y-96578157D01*
X92108557Y-96543685D01*
X92123846Y-96512411D01*
X92123842Y-96512295D01*
X92106495Y-96497933D01*
X92060247Y-96472025D01*
X91992067Y-96438210D01*
X91908923Y-96400129D01*
X91908466Y-96399927D01*
X91818138Y-96359709D01*
X91757592Y-96330733D01*
X91720888Y-96308474D01*
X91702086Y-96288407D01*
X91695246Y-96266009D01*
X91694429Y-96236756D01*
X91700113Y-96181363D01*
X91893000Y-96181363D01*
X91912911Y-96198777D01*
X91962521Y-96224872D01*
X91963976Y-96225610D01*
X92022506Y-96253483D01*
X92074868Y-96275719D01*
X92108086Y-96285126D01*
X92121410Y-96272552D01*
X92123846Y-96229468D01*
X92113724Y-96175847D01*
X92078631Y-96127119D01*
X92027823Y-96101856D01*
X91971181Y-96104406D01*
X91918584Y-96139120D01*
X91897910Y-96163107D01*
X91893000Y-96181363D01*
X91700113Y-96181363D01*
X91701622Y-96166654D01*
X91737184Y-96071412D01*
X91796714Y-95996567D01*
X91873746Y-95944745D01*
X91961815Y-95918573D01*
X92054454Y-95920676D01*
X92145198Y-95953681D01*
X92227579Y-96020215D01*
X92273222Y-96086055D01*
X92306008Y-96180036D01*
X92311339Y-96229468D01*
X92318787Y-96298536D01*
X92312574Y-96446643D01*
G37*
X92312574Y-96446643D02*
X92309066Y-96478021D01*
X92282927Y-96589705D01*
X92235694Y-96674642D01*
X92163862Y-96739741D01*
X92159802Y-96742428D01*
X92068487Y-96780634D01*
X91973144Y-96784034D01*
X91881274Y-96754939D01*
X91800379Y-96695660D01*
X91737962Y-96608510D01*
X91736914Y-96606409D01*
X91716173Y-96552289D01*
X91700980Y-96490781D01*
X91692921Y-96433039D01*
X91693582Y-96390215D01*
X91704548Y-96373462D01*
X91714290Y-96374480D01*
X91760877Y-96393009D01*
X91813682Y-96427081D01*
X91858603Y-96466522D01*
X91881535Y-96501155D01*
X91905373Y-96548133D01*
X91954230Y-96590862D01*
X92010963Y-96607923D01*
X92031758Y-96602990D01*
X92072804Y-96578157D01*
X92108557Y-96543685D01*
X92123846Y-96512411D01*
X92123842Y-96512295D01*
X92106495Y-96497933D01*
X92060247Y-96472025D01*
X91992067Y-96438210D01*
X91908923Y-96400129D01*
X91908466Y-96399927D01*
X91818138Y-96359709D01*
X91757592Y-96330733D01*
X91720888Y-96308474D01*
X91702086Y-96288407D01*
X91695246Y-96266009D01*
X91694429Y-96236756D01*
X91700113Y-96181363D01*
X91893000Y-96181363D01*
X91912911Y-96198777D01*
X91962521Y-96224872D01*
X91963976Y-96225610D01*
X92022506Y-96253483D01*
X92074868Y-96275719D01*
X92108086Y-96285126D01*
X92121410Y-96272552D01*
X92123846Y-96229468D01*
X92113724Y-96175847D01*
X92078631Y-96127119D01*
X92027823Y-96101856D01*
X91971181Y-96104406D01*
X91918584Y-96139120D01*
X91897910Y-96163107D01*
X91893000Y-96181363D01*
X91700113Y-96181363D01*
X91701622Y-96166654D01*
X91737184Y-96071412D01*
X91796714Y-95996567D01*
X91873746Y-95944745D01*
X91961815Y-95918573D01*
X92054454Y-95920676D01*
X92145198Y-95953681D01*
X92227579Y-96020215D01*
X92273222Y-96086055D01*
X92306008Y-96180036D01*
X92311339Y-96229468D01*
X92318787Y-96298536D01*
X92312574Y-96446643D01*
G36*
X89425575Y-89632693D02*
G01*
X89561371Y-89632807D01*
X89663576Y-89633472D01*
X89737122Y-89635182D01*
X89786942Y-89638429D01*
X89817967Y-89643706D01*
X89835129Y-89651507D01*
X89843361Y-89662325D01*
X89847594Y-89676654D01*
X89847716Y-89677168D01*
X89854672Y-89710851D01*
X89867320Y-89775917D01*
X89884360Y-89865542D01*
X89904496Y-89972904D01*
X89926429Y-90091178D01*
X89928218Y-90100856D01*
X89950083Y-90215650D01*
X89970430Y-90316480D01*
X89987934Y-90397217D01*
X90001271Y-90451734D01*
X90009116Y-90473901D01*
X90009158Y-90473936D01*
X90033884Y-90486200D01*
X90084631Y-90506576D01*
X90150462Y-90530674D01*
X90154169Y-90531983D01*
X90238331Y-90563791D01*
X90336230Y-90603685D01*
X90427435Y-90643353D01*
X90577407Y-90711420D01*
X90909499Y-90484639D01*
X90932889Y-90468688D01*
X91033080Y-90400890D01*
X91122480Y-90341208D01*
X91195745Y-90293156D01*
X91247527Y-90260250D01*
X91272480Y-90246004D01*
X91289577Y-90249270D01*
X91328395Y-90274571D01*
X91388385Y-90324675D01*
X91471210Y-90400989D01*
X91578535Y-90504922D01*
X91588139Y-90514382D01*
X91673302Y-90599145D01*
X91748949Y-90675937D01*
X91810449Y-90739947D01*
X91853173Y-90786361D01*
X91872489Y-90810369D01*
X91872552Y-90810485D01*
X91875006Y-90828763D01*
X91865956Y-90858411D01*
X91843119Y-90903486D01*
X91804213Y-90968044D01*
X91746954Y-91056140D01*
X91669059Y-91171830D01*
X91655785Y-91191357D01*
X91588652Y-91290278D01*
X91529410Y-91377848D01*
X91481588Y-91448831D01*
X91448715Y-91497991D01*
X91434318Y-91520095D01*
X91433232Y-91524777D01*
X91440044Y-91559710D01*
X91460450Y-91616753D01*
X91491123Y-91686172D01*
X91532808Y-91776959D01*
X91579352Y-91884686D01*
X91618877Y-91982192D01*
X91628676Y-92007430D01*
X91654340Y-92071870D01*
X91673193Y-92116763D01*
X91681710Y-92133616D01*
X91691111Y-92134875D01*
X91733363Y-92142159D01*
X91802521Y-92154739D01*
X91891387Y-92171246D01*
X91992768Y-92190312D01*
X92099467Y-92210569D01*
X92204288Y-92230647D01*
X92300036Y-92249179D01*
X92379516Y-92264795D01*
X92435530Y-92276127D01*
X92460885Y-92281807D01*
X92465088Y-92283408D01*
X92475334Y-92292045D01*
X92482957Y-92310433D01*
X92488338Y-92343460D01*
X92491859Y-92396013D01*
X92493901Y-92472979D01*
X92494847Y-92579246D01*
X92495077Y-92719701D01*
X92495077Y-93146845D01*
X92392500Y-93167091D01*
X92380092Y-93169518D01*
X92314199Y-93182088D01*
X92223084Y-93199170D01*
X92117104Y-93218829D01*
X92006615Y-93239132D01*
X91963105Y-93247299D01*
X91865882Y-93267167D01*
X91784858Y-93285954D01*
X91727477Y-93301859D01*
X91701187Y-93313079D01*
X91689273Y-93331411D01*
X91667583Y-93379916D01*
X91645395Y-93442692D01*
X91637585Y-93466200D01*
X91608835Y-93543366D01*
X91571752Y-93634694D01*
X91532375Y-93725093D01*
X91511315Y-93772310D01*
X91481311Y-93842837D01*
X91460692Y-93895655D01*
X91453026Y-93921912D01*
X91453452Y-93923894D01*
X91467993Y-93951751D01*
X91500783Y-94005510D01*
X91548493Y-94079963D01*
X91607798Y-94169897D01*
X91675369Y-94270104D01*
X91897713Y-94596416D01*
X91605601Y-94889016D01*
X91577349Y-94917171D01*
X91490961Y-95001449D01*
X91413756Y-95074128D01*
X91350258Y-95131112D01*
X91304990Y-95168307D01*
X91282474Y-95181616D01*
X91258023Y-95171490D01*
X91206819Y-95142421D01*
X91134747Y-95097896D01*
X91047460Y-95041411D01*
X90950612Y-94976462D01*
X90855486Y-94912314D01*
X90769669Y-94855827D01*
X90699652Y-94811184D01*
X90650876Y-94781855D01*
X90628783Y-94771308D01*
X90627488Y-94771404D01*
X90598139Y-94781802D01*
X90546093Y-94806012D01*
X90481708Y-94839249D01*
X90481032Y-94839613D01*
X90395521Y-94882441D01*
X90336926Y-94903365D01*
X90300571Y-94903423D01*
X90281775Y-94883654D01*
X90273819Y-94864195D01*
X90252347Y-94812080D01*
X90219273Y-94731964D01*
X90176356Y-94628107D01*
X90125356Y-94504767D01*
X90068033Y-94366201D01*
X90006146Y-94216670D01*
X89950052Y-94080636D01*
X89892977Y-93941050D01*
X89842479Y-93816315D01*
X89800254Y-93710672D01*
X89767995Y-93628365D01*
X89747397Y-93573635D01*
X89740154Y-93550726D01*
X89753986Y-93529718D01*
X89792412Y-93494642D01*
X89846807Y-93453887D01*
X89977395Y-93347267D01*
X90094260Y-93211025D01*
X90179780Y-93061118D01*
X90233431Y-92901971D01*
X90254684Y-92738012D01*
X90243014Y-92573667D01*
X90197894Y-92413361D01*
X90118797Y-92261520D01*
X90005197Y-92122572D01*
X89945965Y-92068460D01*
X89804054Y-91972782D01*
X89652206Y-91910405D01*
X89494861Y-91879844D01*
X89336456Y-91879615D01*
X89181429Y-91908232D01*
X89034220Y-91964210D01*
X88899266Y-92046064D01*
X88781005Y-92152309D01*
X88683877Y-92281459D01*
X88612318Y-92432031D01*
X88570769Y-92602539D01*
X88563143Y-92684722D01*
X88573634Y-92862775D01*
X88620882Y-93031704D01*
X88703489Y-93188522D01*
X88820059Y-93330245D01*
X88969193Y-93453887D01*
X89021561Y-93492982D01*
X89060832Y-93528443D01*
X89075846Y-93550692D01*
X89069859Y-93570088D01*
X89050432Y-93622059D01*
X89019194Y-93702002D01*
X88977839Y-93805673D01*
X88928061Y-93928832D01*
X88871553Y-94067234D01*
X88810009Y-94216637D01*
X88754008Y-94352020D01*
X88696184Y-94491852D01*
X88644500Y-94616872D01*
X88600718Y-94722822D01*
X88566597Y-94805441D01*
X88543898Y-94860472D01*
X88534380Y-94883654D01*
X88534269Y-94883928D01*
X88515228Y-94903503D01*
X88478694Y-94903279D01*
X88419954Y-94882210D01*
X88334292Y-94839249D01*
X88327549Y-94835631D01*
X88263938Y-94803087D01*
X88213707Y-94780050D01*
X88187218Y-94771308D01*
X88165506Y-94781639D01*
X88116984Y-94810788D01*
X88047163Y-94855287D01*
X87961484Y-94911668D01*
X87865388Y-94976462D01*
X87770706Y-95039984D01*
X87683132Y-95096705D01*
X87610642Y-95141547D01*
X87558889Y-95171016D01*
X87533526Y-95181616D01*
X87529206Y-95180270D01*
X87499092Y-95159056D01*
X87447640Y-95115237D01*
X87379375Y-95052909D01*
X87298820Y-94976170D01*
X87210500Y-94889116D01*
X86918488Y-94596617D01*
X87373360Y-93927525D01*
X87304208Y-93777916D01*
X87304003Y-93777473D01*
X87262477Y-93682101D01*
X87220044Y-93575896D01*
X87185858Y-93481769D01*
X87180684Y-93466588D01*
X87154601Y-93396109D01*
X87131081Y-93341342D01*
X87114677Y-93313079D01*
X87107996Y-93309088D01*
X87067892Y-93295697D01*
X86999795Y-93278373D01*
X86911145Y-93258917D01*
X86809385Y-93239132D01*
X86778904Y-93233551D01*
X86668628Y-93213233D01*
X86565731Y-93194095D01*
X86480569Y-93178070D01*
X86423500Y-93167091D01*
X86320923Y-93146845D01*
X86320923Y-92719701D01*
X86320946Y-92667180D01*
X86321379Y-92539047D01*
X86322659Y-92443420D01*
X86325168Y-92375411D01*
X86329286Y-92330133D01*
X86335395Y-92302697D01*
X86343878Y-92288218D01*
X86355115Y-92281807D01*
X86365994Y-92279209D01*
X86410347Y-92270022D01*
X86481106Y-92255991D01*
X86571074Y-92238486D01*
X86673056Y-92218874D01*
X86779857Y-92198525D01*
X86884281Y-92178807D01*
X86979132Y-92161089D01*
X87057214Y-92146738D01*
X87111332Y-92137124D01*
X87134291Y-92133616D01*
X87135842Y-92131497D01*
X87148325Y-92104006D01*
X87169927Y-92051406D01*
X87197123Y-91982192D01*
X87234866Y-91888937D01*
X87281328Y-91781159D01*
X87324878Y-91686172D01*
X87334858Y-91664851D01*
X87362862Y-91598086D01*
X87379641Y-91546590D01*
X87381854Y-91520095D01*
X87380713Y-91518218D01*
X87362584Y-91490565D01*
X87326644Y-91436849D01*
X87276418Y-91362303D01*
X87215430Y-91272162D01*
X87147205Y-91171657D01*
X87070330Y-91057470D01*
X87012663Y-90968770D01*
X86973426Y-90903721D01*
X86950350Y-90858295D01*
X86941166Y-90828463D01*
X86943604Y-90810195D01*
X86944424Y-90808825D01*
X86966477Y-90782205D01*
X87011436Y-90733697D01*
X87074673Y-90668108D01*
X87151559Y-90590247D01*
X87237465Y-90504922D01*
X87326579Y-90418334D01*
X87413872Y-90336947D01*
X87478018Y-90282035D01*
X87520679Y-90252190D01*
X87543521Y-90246004D01*
X87546505Y-90247394D01*
X87577936Y-90266127D01*
X87634997Y-90302733D01*
X87712343Y-90353697D01*
X87804626Y-90415504D01*
X87906502Y-90484639D01*
X88238593Y-90711420D01*
X88388566Y-90643353D01*
X88392923Y-90641381D01*
X88485000Y-90601491D01*
X88582683Y-90561818D01*
X88665539Y-90530674D01*
X88665905Y-90530545D01*
X88731685Y-90506456D01*
X88782323Y-90486110D01*
X88806884Y-90473901D01*
X88807282Y-90473458D01*
X88815619Y-90448456D01*
X88829341Y-90391598D01*
X88847123Y-90309014D01*
X88867641Y-90206831D01*
X88889571Y-90091178D01*
X88890336Y-90087033D01*
X88912229Y-89969019D01*
X88932281Y-89862151D01*
X88949192Y-89773252D01*
X88961667Y-89709145D01*
X88968406Y-89676654D01*
X88968837Y-89674853D01*
X88973273Y-89660944D01*
X88982263Y-89650489D01*
X89000737Y-89642996D01*
X89033628Y-89637972D01*
X89085868Y-89634922D01*
X89162388Y-89633355D01*
X89268122Y-89632776D01*
X89408000Y-89632692D01*
X89425575Y-89632693D01*
G37*
X89425575Y-89632693D02*
X89561371Y-89632807D01*
X89663576Y-89633472D01*
X89737122Y-89635182D01*
X89786942Y-89638429D01*
X89817967Y-89643706D01*
X89835129Y-89651507D01*
X89843361Y-89662325D01*
X89847594Y-89676654D01*
X89847716Y-89677168D01*
X89854672Y-89710851D01*
X89867320Y-89775917D01*
X89884360Y-89865542D01*
X89904496Y-89972904D01*
X89926429Y-90091178D01*
X89928218Y-90100856D01*
X89950083Y-90215650D01*
X89970430Y-90316480D01*
X89987934Y-90397217D01*
X90001271Y-90451734D01*
X90009116Y-90473901D01*
X90009158Y-90473936D01*
X90033884Y-90486200D01*
X90084631Y-90506576D01*
X90150462Y-90530674D01*
X90154169Y-90531983D01*
X90238331Y-90563791D01*
X90336230Y-90603685D01*
X90427435Y-90643353D01*
X90577407Y-90711420D01*
X90909499Y-90484639D01*
X90932889Y-90468688D01*
X91033080Y-90400890D01*
X91122480Y-90341208D01*
X91195745Y-90293156D01*
X91247527Y-90260250D01*
X91272480Y-90246004D01*
X91289577Y-90249270D01*
X91328395Y-90274571D01*
X91388385Y-90324675D01*
X91471210Y-90400989D01*
X91578535Y-90504922D01*
X91588139Y-90514382D01*
X91673302Y-90599145D01*
X91748949Y-90675937D01*
X91810449Y-90739947D01*
X91853173Y-90786361D01*
X91872489Y-90810369D01*
X91872552Y-90810485D01*
X91875006Y-90828763D01*
X91865956Y-90858411D01*
X91843119Y-90903486D01*
X91804213Y-90968044D01*
X91746954Y-91056140D01*
X91669059Y-91171830D01*
X91655785Y-91191357D01*
X91588652Y-91290278D01*
X91529410Y-91377848D01*
X91481588Y-91448831D01*
X91448715Y-91497991D01*
X91434318Y-91520095D01*
X91433232Y-91524777D01*
X91440044Y-91559710D01*
X91460450Y-91616753D01*
X91491123Y-91686172D01*
X91532808Y-91776959D01*
X91579352Y-91884686D01*
X91618877Y-91982192D01*
X91628676Y-92007430D01*
X91654340Y-92071870D01*
X91673193Y-92116763D01*
X91681710Y-92133616D01*
X91691111Y-92134875D01*
X91733363Y-92142159D01*
X91802521Y-92154739D01*
X91891387Y-92171246D01*
X91992768Y-92190312D01*
X92099467Y-92210569D01*
X92204288Y-92230647D01*
X92300036Y-92249179D01*
X92379516Y-92264795D01*
X92435530Y-92276127D01*
X92460885Y-92281807D01*
X92465088Y-92283408D01*
X92475334Y-92292045D01*
X92482957Y-92310433D01*
X92488338Y-92343460D01*
X92491859Y-92396013D01*
X92493901Y-92472979D01*
X92494847Y-92579246D01*
X92495077Y-92719701D01*
X92495077Y-93146845D01*
X92392500Y-93167091D01*
X92380092Y-93169518D01*
X92314199Y-93182088D01*
X92223084Y-93199170D01*
X92117104Y-93218829D01*
X92006615Y-93239132D01*
X91963105Y-93247299D01*
X91865882Y-93267167D01*
X91784858Y-93285954D01*
X91727477Y-93301859D01*
X91701187Y-93313079D01*
X91689273Y-93331411D01*
X91667583Y-93379916D01*
X91645395Y-93442692D01*
X91637585Y-93466200D01*
X91608835Y-93543366D01*
X91571752Y-93634694D01*
X91532375Y-93725093D01*
X91511315Y-93772310D01*
X91481311Y-93842837D01*
X91460692Y-93895655D01*
X91453026Y-93921912D01*
X91453452Y-93923894D01*
X91467993Y-93951751D01*
X91500783Y-94005510D01*
X91548493Y-94079963D01*
X91607798Y-94169897D01*
X91675369Y-94270104D01*
X91897713Y-94596416D01*
X91605601Y-94889016D01*
X91577349Y-94917171D01*
X91490961Y-95001449D01*
X91413756Y-95074128D01*
X91350258Y-95131112D01*
X91304990Y-95168307D01*
X91282474Y-95181616D01*
X91258023Y-95171490D01*
X91206819Y-95142421D01*
X91134747Y-95097896D01*
X91047460Y-95041411D01*
X90950612Y-94976462D01*
X90855486Y-94912314D01*
X90769669Y-94855827D01*
X90699652Y-94811184D01*
X90650876Y-94781855D01*
X90628783Y-94771308D01*
X90627488Y-94771404D01*
X90598139Y-94781802D01*
X90546093Y-94806012D01*
X90481708Y-94839249D01*
X90481032Y-94839613D01*
X90395521Y-94882441D01*
X90336926Y-94903365D01*
X90300571Y-94903423D01*
X90281775Y-94883654D01*
X90273819Y-94864195D01*
X90252347Y-94812080D01*
X90219273Y-94731964D01*
X90176356Y-94628107D01*
X90125356Y-94504767D01*
X90068033Y-94366201D01*
X90006146Y-94216670D01*
X89950052Y-94080636D01*
X89892977Y-93941050D01*
X89842479Y-93816315D01*
X89800254Y-93710672D01*
X89767995Y-93628365D01*
X89747397Y-93573635D01*
X89740154Y-93550726D01*
X89753986Y-93529718D01*
X89792412Y-93494642D01*
X89846807Y-93453887D01*
X89977395Y-93347267D01*
X90094260Y-93211025D01*
X90179780Y-93061118D01*
X90233431Y-92901971D01*
X90254684Y-92738012D01*
X90243014Y-92573667D01*
X90197894Y-92413361D01*
X90118797Y-92261520D01*
X90005197Y-92122572D01*
X89945965Y-92068460D01*
X89804054Y-91972782D01*
X89652206Y-91910405D01*
X89494861Y-91879844D01*
X89336456Y-91879615D01*
X89181429Y-91908232D01*
X89034220Y-91964210D01*
X88899266Y-92046064D01*
X88781005Y-92152309D01*
X88683877Y-92281459D01*
X88612318Y-92432031D01*
X88570769Y-92602539D01*
X88563143Y-92684722D01*
X88573634Y-92862775D01*
X88620882Y-93031704D01*
X88703489Y-93188522D01*
X88820059Y-93330245D01*
X88969193Y-93453887D01*
X89021561Y-93492982D01*
X89060832Y-93528443D01*
X89075846Y-93550692D01*
X89069859Y-93570088D01*
X89050432Y-93622059D01*
X89019194Y-93702002D01*
X88977839Y-93805673D01*
X88928061Y-93928832D01*
X88871553Y-94067234D01*
X88810009Y-94216637D01*
X88754008Y-94352020D01*
X88696184Y-94491852D01*
X88644500Y-94616872D01*
X88600718Y-94722822D01*
X88566597Y-94805441D01*
X88543898Y-94860472D01*
X88534380Y-94883654D01*
X88534269Y-94883928D01*
X88515228Y-94903503D01*
X88478694Y-94903279D01*
X88419954Y-94882210D01*
X88334292Y-94839249D01*
X88327549Y-94835631D01*
X88263938Y-94803087D01*
X88213707Y-94780050D01*
X88187218Y-94771308D01*
X88165506Y-94781639D01*
X88116984Y-94810788D01*
X88047163Y-94855287D01*
X87961484Y-94911668D01*
X87865388Y-94976462D01*
X87770706Y-95039984D01*
X87683132Y-95096705D01*
X87610642Y-95141547D01*
X87558889Y-95171016D01*
X87533526Y-95181616D01*
X87529206Y-95180270D01*
X87499092Y-95159056D01*
X87447640Y-95115237D01*
X87379375Y-95052909D01*
X87298820Y-94976170D01*
X87210500Y-94889116D01*
X86918488Y-94596617D01*
X87373360Y-93927525D01*
X87304208Y-93777916D01*
X87304003Y-93777473D01*
X87262477Y-93682101D01*
X87220044Y-93575896D01*
X87185858Y-93481769D01*
X87180684Y-93466588D01*
X87154601Y-93396109D01*
X87131081Y-93341342D01*
X87114677Y-93313079D01*
X87107996Y-93309088D01*
X87067892Y-93295697D01*
X86999795Y-93278373D01*
X86911145Y-93258917D01*
X86809385Y-93239132D01*
X86778904Y-93233551D01*
X86668628Y-93213233D01*
X86565731Y-93194095D01*
X86480569Y-93178070D01*
X86423500Y-93167091D01*
X86320923Y-93146845D01*
X86320923Y-92719701D01*
X86320946Y-92667180D01*
X86321379Y-92539047D01*
X86322659Y-92443420D01*
X86325168Y-92375411D01*
X86329286Y-92330133D01*
X86335395Y-92302697D01*
X86343878Y-92288218D01*
X86355115Y-92281807D01*
X86365994Y-92279209D01*
X86410347Y-92270022D01*
X86481106Y-92255991D01*
X86571074Y-92238486D01*
X86673056Y-92218874D01*
X86779857Y-92198525D01*
X86884281Y-92178807D01*
X86979132Y-92161089D01*
X87057214Y-92146738D01*
X87111332Y-92137124D01*
X87134291Y-92133616D01*
X87135842Y-92131497D01*
X87148325Y-92104006D01*
X87169927Y-92051406D01*
X87197123Y-91982192D01*
X87234866Y-91888937D01*
X87281328Y-91781159D01*
X87324878Y-91686172D01*
X87334858Y-91664851D01*
X87362862Y-91598086D01*
X87379641Y-91546590D01*
X87381854Y-91520095D01*
X87380713Y-91518218D01*
X87362584Y-91490565D01*
X87326644Y-91436849D01*
X87276418Y-91362303D01*
X87215430Y-91272162D01*
X87147205Y-91171657D01*
X87070330Y-91057470D01*
X87012663Y-90968770D01*
X86973426Y-90903721D01*
X86950350Y-90858295D01*
X86941166Y-90828463D01*
X86943604Y-90810195D01*
X86944424Y-90808825D01*
X86966477Y-90782205D01*
X87011436Y-90733697D01*
X87074673Y-90668108D01*
X87151559Y-90590247D01*
X87237465Y-90504922D01*
X87326579Y-90418334D01*
X87413872Y-90336947D01*
X87478018Y-90282035D01*
X87520679Y-90252190D01*
X87543521Y-90246004D01*
X87546505Y-90247394D01*
X87577936Y-90266127D01*
X87634997Y-90302733D01*
X87712343Y-90353697D01*
X87804626Y-90415504D01*
X87906502Y-90484639D01*
X88238593Y-90711420D01*
X88388566Y-90643353D01*
X88392923Y-90641381D01*
X88485000Y-90601491D01*
X88582683Y-90561818D01*
X88665539Y-90530674D01*
X88665905Y-90530545D01*
X88731685Y-90506456D01*
X88782323Y-90486110D01*
X88806884Y-90473901D01*
X88807282Y-90473458D01*
X88815619Y-90448456D01*
X88829341Y-90391598D01*
X88847123Y-90309014D01*
X88867641Y-90206831D01*
X88889571Y-90091178D01*
X88890336Y-90087033D01*
X88912229Y-89969019D01*
X88932281Y-89862151D01*
X88949192Y-89773252D01*
X88961667Y-89709145D01*
X88968406Y-89676654D01*
X88968837Y-89674853D01*
X88973273Y-89660944D01*
X88982263Y-89650489D01*
X89000737Y-89642996D01*
X89033628Y-89637972D01*
X89085868Y-89634922D01*
X89162388Y-89633355D01*
X89268122Y-89632776D01*
X89408000Y-89632692D01*
X89425575Y-89632693D01*
G36*
X86671936Y-95964911D02*
G01*
X86713807Y-95975547D01*
X86752791Y-96002062D01*
X86802965Y-96051420D01*
X86835232Y-96086279D01*
X86868844Y-96131534D01*
X86884003Y-96173951D01*
X86887539Y-96227768D01*
X86887539Y-96315850D01*
X86827470Y-96284787D01*
X86779867Y-96246936D01*
X86747261Y-96195950D01*
X86741661Y-96182088D01*
X86698992Y-96128358D01*
X86639707Y-96101417D01*
X86575061Y-96104039D01*
X86516308Y-96139000D01*
X86491450Y-96167394D01*
X86476970Y-96203718D01*
X86492470Y-96236046D01*
X86540667Y-96268565D01*
X86624274Y-96305461D01*
X86636962Y-96310557D01*
X86713078Y-96343907D01*
X86778396Y-96376793D01*
X86819953Y-96402769D01*
X86861576Y-96449167D01*
X86889247Y-96523211D01*
X86886310Y-96602670D01*
X86853571Y-96677868D01*
X86791841Y-96739131D01*
X86741858Y-96765210D01*
X86645303Y-96783470D01*
X86591647Y-96781007D01*
X86541976Y-96767687D01*
X86522919Y-96739739D01*
X86530045Y-96693710D01*
X86532118Y-96687624D01*
X86548556Y-96655349D01*
X86575926Y-96643133D01*
X86628068Y-96643950D01*
X86664884Y-96645061D01*
X86707961Y-96635528D01*
X86737475Y-96607026D01*
X86754286Y-96571935D01*
X86756161Y-96535175D01*
X86756074Y-96534961D01*
X86734279Y-96515098D01*
X86687632Y-96486192D01*
X86627278Y-96453886D01*
X86564360Y-96423823D01*
X86510023Y-96401646D01*
X86475410Y-96393000D01*
X86470260Y-96401467D01*
X86463778Y-96441309D01*
X86459339Y-96506371D01*
X86457692Y-96588385D01*
X86457309Y-96645153D01*
X86455505Y-96716648D01*
X86452558Y-96765610D01*
X86448843Y-96783769D01*
X86429424Y-96777667D01*
X86390227Y-96761095D01*
X86340462Y-96738420D01*
X86340462Y-96447509D01*
X86340780Y-96372940D01*
X86343789Y-96259701D01*
X86351454Y-96175692D01*
X86365562Y-96114520D01*
X86387899Y-96069795D01*
X86420253Y-96035124D01*
X86464410Y-96004117D01*
X86520667Y-95978528D01*
X86624540Y-95963154D01*
X86671936Y-95964911D01*
G37*
X86671936Y-95964911D02*
X86713807Y-95975547D01*
X86752791Y-96002062D01*
X86802965Y-96051420D01*
X86835232Y-96086279D01*
X86868844Y-96131534D01*
X86884003Y-96173951D01*
X86887539Y-96227768D01*
X86887539Y-96315850D01*
X86827470Y-96284787D01*
X86779867Y-96246936D01*
X86747261Y-96195950D01*
X86741661Y-96182088D01*
X86698992Y-96128358D01*
X86639707Y-96101417D01*
X86575061Y-96104039D01*
X86516308Y-96139000D01*
X86491450Y-96167394D01*
X86476970Y-96203718D01*
X86492470Y-96236046D01*
X86540667Y-96268565D01*
X86624274Y-96305461D01*
X86636962Y-96310557D01*
X86713078Y-96343907D01*
X86778396Y-96376793D01*
X86819953Y-96402769D01*
X86861576Y-96449167D01*
X86889247Y-96523211D01*
X86886310Y-96602670D01*
X86853571Y-96677868D01*
X86791841Y-96739131D01*
X86741858Y-96765210D01*
X86645303Y-96783470D01*
X86591647Y-96781007D01*
X86541976Y-96767687D01*
X86522919Y-96739739D01*
X86530045Y-96693710D01*
X86532118Y-96687624D01*
X86548556Y-96655349D01*
X86575926Y-96643133D01*
X86628068Y-96643950D01*
X86664884Y-96645061D01*
X86707961Y-96635528D01*
X86737475Y-96607026D01*
X86754286Y-96571935D01*
X86756161Y-96535175D01*
X86756074Y-96534961D01*
X86734279Y-96515098D01*
X86687632Y-96486192D01*
X86627278Y-96453886D01*
X86564360Y-96423823D01*
X86510023Y-96401646D01*
X86475410Y-96393000D01*
X86470260Y-96401467D01*
X86463778Y-96441309D01*
X86459339Y-96506371D01*
X86457692Y-96588385D01*
X86457309Y-96645153D01*
X86455505Y-96716648D01*
X86452558Y-96765610D01*
X86448843Y-96783769D01*
X86429424Y-96777667D01*
X86390227Y-96761095D01*
X86340462Y-96738420D01*
X86340462Y-96447509D01*
X86340780Y-96372940D01*
X86343789Y-96259701D01*
X86351454Y-96175692D01*
X86365562Y-96114520D01*
X86387899Y-96069795D01*
X86420253Y-96035124D01*
X86464410Y-96004117D01*
X86520667Y-95978528D01*
X86624540Y-95963154D01*
X86671936Y-95964911D01*
G36*
X89528458Y-95984228D02*
G01*
X89595622Y-96023389D01*
X89625169Y-96053902D01*
X89681948Y-96145110D01*
X89701077Y-96244548D01*
X89701077Y-96312960D01*
X89638191Y-96286518D01*
X89594700Y-96259837D01*
X89560426Y-96204446D01*
X89556907Y-96193024D01*
X89519028Y-96134838D01*
X89461936Y-96103407D01*
X89396383Y-96102058D01*
X89333117Y-96134116D01*
X89323672Y-96142383D01*
X89292087Y-96178311D01*
X89286871Y-96209635D01*
X89310765Y-96240391D01*
X89366510Y-96274617D01*
X89456846Y-96316350D01*
X89462956Y-96318993D01*
X89563241Y-96365755D01*
X89631735Y-96407181D01*
X89673899Y-96448542D01*
X89695193Y-96495111D01*
X89701077Y-96552160D01*
X89693366Y-96615408D01*
X89654430Y-96696364D01*
X89585932Y-96754522D01*
X89536388Y-96771983D01*
X89466469Y-96781537D01*
X89398575Y-96779496D01*
X89350093Y-96765082D01*
X89344943Y-96761493D01*
X89331267Y-96736416D01*
X89340757Y-96692218D01*
X89357246Y-96657527D01*
X89383687Y-96643084D01*
X89433834Y-96643803D01*
X89503453Y-96639660D01*
X89548943Y-96611054D01*
X89564308Y-96558104D01*
X89564294Y-96556582D01*
X89554983Y-96525845D01*
X89523311Y-96497643D01*
X89461731Y-96465136D01*
X89377986Y-96425998D01*
X89322518Y-96404706D01*
X89290497Y-96406079D01*
X89275534Y-96434203D01*
X89271242Y-96493170D01*
X89271231Y-96587068D01*
X89270752Y-96645031D01*
X89268556Y-96716612D01*
X89264986Y-96765606D01*
X89260491Y-96783769D01*
X89259290Y-96783646D01*
X89233319Y-96773802D01*
X89190305Y-96753028D01*
X89130859Y-96722287D01*
X89137923Y-96445298D01*
X89138414Y-96426928D01*
X89144025Y-96297992D01*
X89153938Y-96200814D01*
X89170175Y-96128925D01*
X89194759Y-96075852D01*
X89229715Y-96035127D01*
X89277064Y-96000279D01*
X89277940Y-95999733D01*
X89354499Y-95971303D01*
X89443044Y-95966500D01*
X89528458Y-95984228D01*
G37*
X89528458Y-95984228D02*
X89595622Y-96023389D01*
X89625169Y-96053902D01*
X89681948Y-96145110D01*
X89701077Y-96244548D01*
X89701077Y-96312960D01*
X89638191Y-96286518D01*
X89594700Y-96259837D01*
X89560426Y-96204446D01*
X89556907Y-96193024D01*
X89519028Y-96134838D01*
X89461936Y-96103407D01*
X89396383Y-96102058D01*
X89333117Y-96134116D01*
X89323672Y-96142383D01*
X89292087Y-96178311D01*
X89286871Y-96209635D01*
X89310765Y-96240391D01*
X89366510Y-96274617D01*
X89456846Y-96316350D01*
X89462956Y-96318993D01*
X89563241Y-96365755D01*
X89631735Y-96407181D01*
X89673899Y-96448542D01*
X89695193Y-96495111D01*
X89701077Y-96552160D01*
X89693366Y-96615408D01*
X89654430Y-96696364D01*
X89585932Y-96754522D01*
X89536388Y-96771983D01*
X89466469Y-96781537D01*
X89398575Y-96779496D01*
X89350093Y-96765082D01*
X89344943Y-96761493D01*
X89331267Y-96736416D01*
X89340757Y-96692218D01*
X89357246Y-96657527D01*
X89383687Y-96643084D01*
X89433834Y-96643803D01*
X89503453Y-96639660D01*
X89548943Y-96611054D01*
X89564308Y-96558104D01*
X89564294Y-96556582D01*
X89554983Y-96525845D01*
X89523311Y-96497643D01*
X89461731Y-96465136D01*
X89377986Y-96425998D01*
X89322518Y-96404706D01*
X89290497Y-96406079D01*
X89275534Y-96434203D01*
X89271242Y-96493170D01*
X89271231Y-96587068D01*
X89270752Y-96645031D01*
X89268556Y-96716612D01*
X89264986Y-96765606D01*
X89260491Y-96783769D01*
X89259290Y-96783646D01*
X89233319Y-96773802D01*
X89190305Y-96753028D01*
X89130859Y-96722287D01*
X89137923Y-96445298D01*
X89138414Y-96426928D01*
X89144025Y-96297992D01*
X89153938Y-96200814D01*
X89170175Y-96128925D01*
X89194759Y-96075852D01*
X89229715Y-96035127D01*
X89277064Y-96000279D01*
X89277940Y-95999733D01*
X89354499Y-95971303D01*
X89443044Y-95966500D01*
X89528458Y-95984228D01*
G36*
X93804135Y-96375105D02*
G01*
X93803076Y-96469584D01*
X93799436Y-96535414D01*
X93791892Y-96581394D01*
X93779122Y-96616321D01*
X93759803Y-96648995D01*
X93755050Y-96655775D01*
X93704759Y-96709231D01*
X93647457Y-96749547D01*
X93618032Y-96762629D01*
X93512299Y-96784450D01*
X93407734Y-96770336D01*
X93311368Y-96722105D01*
X93230235Y-96641579D01*
X93223385Y-96630791D01*
X93201097Y-96568153D01*
X93186079Y-96480935D01*
X93178792Y-96380210D01*
X93179611Y-96287037D01*
X93376796Y-96287037D01*
X93378349Y-96416114D01*
X93378974Y-96424420D01*
X93388077Y-96495643D01*
X93404288Y-96540809D01*
X93431660Y-96571752D01*
X93477553Y-96600737D01*
X93522942Y-96602261D01*
X93569692Y-96568846D01*
X93577824Y-96560053D01*
X93593754Y-96533741D01*
X93603159Y-96495520D01*
X93607632Y-96436349D01*
X93608769Y-96347182D01*
X93606822Y-96263664D01*
X93597105Y-96184095D01*
X93577047Y-96133808D01*
X93544240Y-96107513D01*
X93496280Y-96099923D01*
X93478016Y-96101432D01*
X93426848Y-96129107D01*
X93393035Y-96191172D01*
X93376796Y-96287037D01*
X93179611Y-96287037D01*
X93179699Y-96277052D01*
X93189262Y-96182533D01*
X93207943Y-96107727D01*
X93231951Y-96057905D01*
X93299536Y-95980409D01*
X93391114Y-95932256D01*
X93503213Y-95915703D01*
X93533151Y-95916599D01*
X93621315Y-95934929D01*
X93693733Y-95981104D01*
X93760192Y-96060648D01*
X93764147Y-96066548D01*
X93782040Y-96098288D01*
X93793678Y-96134163D01*
X93800371Y-96182906D01*
X93803426Y-96253249D01*
X93804106Y-96347182D01*
X93804154Y-96353923D01*
X93804135Y-96375105D01*
G37*
X93804135Y-96375105D02*
X93803076Y-96469584D01*
X93799436Y-96535414D01*
X93791892Y-96581394D01*
X93779122Y-96616321D01*
X93759803Y-96648995D01*
X93755050Y-96655775D01*
X93704759Y-96709231D01*
X93647457Y-96749547D01*
X93618032Y-96762629D01*
X93512299Y-96784450D01*
X93407734Y-96770336D01*
X93311368Y-96722105D01*
X93230235Y-96641579D01*
X93223385Y-96630791D01*
X93201097Y-96568153D01*
X93186079Y-96480935D01*
X93178792Y-96380210D01*
X93179611Y-96287037D01*
X93376796Y-96287037D01*
X93378349Y-96416114D01*
X93378974Y-96424420D01*
X93388077Y-96495643D01*
X93404288Y-96540809D01*
X93431660Y-96571752D01*
X93477553Y-96600737D01*
X93522942Y-96602261D01*
X93569692Y-96568846D01*
X93577824Y-96560053D01*
X93593754Y-96533741D01*
X93603159Y-96495520D01*
X93607632Y-96436349D01*
X93608769Y-96347182D01*
X93606822Y-96263664D01*
X93597105Y-96184095D01*
X93577047Y-96133808D01*
X93544240Y-96107513D01*
X93496280Y-96099923D01*
X93478016Y-96101432D01*
X93426848Y-96129107D01*
X93393035Y-96191172D01*
X93376796Y-96287037D01*
X93179611Y-96287037D01*
X93179699Y-96277052D01*
X93189262Y-96182533D01*
X93207943Y-96107727D01*
X93231951Y-96057905D01*
X93299536Y-95980409D01*
X93391114Y-95932256D01*
X93503213Y-95915703D01*
X93533151Y-95916599D01*
X93621315Y-95934929D01*
X93693733Y-95981104D01*
X93760192Y-96060648D01*
X93764147Y-96066548D01*
X93782040Y-96098288D01*
X93793678Y-96134163D01*
X93800371Y-96182906D01*
X93803426Y-96253249D01*
X93804106Y-96347182D01*
X93804154Y-96353923D01*
X93804135Y-96375105D01*
G36*
X88370839Y-96449652D02*
G01*
X88359810Y-96553507D01*
X88335814Y-96631333D01*
X88296043Y-96690760D01*
X88237688Y-96739418D01*
X88182100Y-96767546D01*
X88088751Y-96783199D01*
X87995530Y-96766084D01*
X87911272Y-96718388D01*
X87844818Y-96642294D01*
X87836793Y-96628262D01*
X87826196Y-96603679D01*
X87818335Y-96572309D01*
X87812807Y-96528769D01*
X87809206Y-96467678D01*
X87807128Y-96383655D01*
X87807064Y-96376200D01*
X87942615Y-96376200D01*
X87943077Y-96447316D01*
X87945999Y-96511641D01*
X87953221Y-96553166D01*
X87966561Y-96581067D01*
X87987836Y-96604517D01*
X87992821Y-96609025D01*
X88056863Y-96642295D01*
X88124625Y-96638890D01*
X88187734Y-96599042D01*
X88206526Y-96578398D01*
X88222254Y-96551029D01*
X88231039Y-96513192D01*
X88234859Y-96455355D01*
X88235692Y-96367986D01*
X88235281Y-96301319D01*
X88232434Y-96236245D01*
X88225256Y-96194251D01*
X88211889Y-96166063D01*
X88190472Y-96142406D01*
X88177890Y-96131753D01*
X88112699Y-96103057D01*
X88044400Y-96107575D01*
X87985098Y-96145144D01*
X87972333Y-96160040D01*
X87956764Y-96188089D01*
X87947762Y-96227258D01*
X87943617Y-96286858D01*
X87942615Y-96376200D01*
X87807064Y-96376200D01*
X87806167Y-96271320D01*
X87805919Y-96125289D01*
X87805846Y-95671963D01*
X87869346Y-95698564D01*
X87886136Y-95705845D01*
X87912859Y-95722287D01*
X87928156Y-95747187D01*
X87936563Y-95790732D01*
X87942615Y-95863106D01*
X87948144Y-95928089D01*
X87955450Y-95970750D01*
X87965918Y-95986670D01*
X87981692Y-95982400D01*
X88021890Y-95967397D01*
X88093728Y-95963678D01*
X88171010Y-95977572D01*
X88237688Y-96007505D01*
X88274371Y-96035211D01*
X88321472Y-96089269D01*
X88351638Y-96158577D01*
X88367678Y-96250765D01*
X88372191Y-96367986D01*
X88372401Y-96373462D01*
X88370839Y-96449652D01*
G37*
X88370839Y-96449652D02*
X88359810Y-96553507D01*
X88335814Y-96631333D01*
X88296043Y-96690760D01*
X88237688Y-96739418D01*
X88182100Y-96767546D01*
X88088751Y-96783199D01*
X87995530Y-96766084D01*
X87911272Y-96718388D01*
X87844818Y-96642294D01*
X87836793Y-96628262D01*
X87826196Y-96603679D01*
X87818335Y-96572309D01*
X87812807Y-96528769D01*
X87809206Y-96467678D01*
X87807128Y-96383655D01*
X87807064Y-96376200D01*
X87942615Y-96376200D01*
X87943077Y-96447316D01*
X87945999Y-96511641D01*
X87953221Y-96553166D01*
X87966561Y-96581067D01*
X87987836Y-96604517D01*
X87992821Y-96609025D01*
X88056863Y-96642295D01*
X88124625Y-96638890D01*
X88187734Y-96599042D01*
X88206526Y-96578398D01*
X88222254Y-96551029D01*
X88231039Y-96513192D01*
X88234859Y-96455355D01*
X88235692Y-96367986D01*
X88235281Y-96301319D01*
X88232434Y-96236245D01*
X88225256Y-96194251D01*
X88211889Y-96166063D01*
X88190472Y-96142406D01*
X88177890Y-96131753D01*
X88112699Y-96103057D01*
X88044400Y-96107575D01*
X87985098Y-96145144D01*
X87972333Y-96160040D01*
X87956764Y-96188089D01*
X87947762Y-96227258D01*
X87943617Y-96286858D01*
X87942615Y-96376200D01*
X87807064Y-96376200D01*
X87806167Y-96271320D01*
X87805919Y-96125289D01*
X87805846Y-95671963D01*
X87869346Y-95698564D01*
X87886136Y-95705845D01*
X87912859Y-95722287D01*
X87928156Y-95747187D01*
X87936563Y-95790732D01*
X87942615Y-95863106D01*
X87948144Y-95928089D01*
X87955450Y-95970750D01*
X87965918Y-95986670D01*
X87981692Y-95982400D01*
X88021890Y-95967397D01*
X88093728Y-95963678D01*
X88171010Y-95977572D01*
X88237688Y-96007505D01*
X88274371Y-96035211D01*
X88321472Y-96089269D01*
X88351638Y-96158577D01*
X88367678Y-96250765D01*
X88372191Y-96367986D01*
X88372401Y-96373462D01*
X88370839Y-96449652D01*
G36*
X85558413Y-96429449D02*
G01*
X85553641Y-96532047D01*
X85541150Y-96607126D01*
X85518121Y-96662748D01*
X85481732Y-96706975D01*
X85429162Y-96747869D01*
X85395714Y-96766466D01*
X85342098Y-96778991D01*
X85266780Y-96778003D01*
X85224672Y-96774035D01*
X85173879Y-96761920D01*
X85133280Y-96735585D01*
X85086049Y-96686514D01*
X85079738Y-96679346D01*
X85037277Y-96624189D01*
X85017018Y-96576150D01*
X85011846Y-96519184D01*
X85011846Y-96435471D01*
X85070346Y-96457552D01*
X85112994Y-96483364D01*
X85150064Y-96543928D01*
X85157803Y-96563320D01*
X85201074Y-96618235D01*
X85259976Y-96645879D01*
X85324111Y-96643393D01*
X85383077Y-96607923D01*
X85403342Y-96585805D01*
X85421720Y-96552436D01*
X85415971Y-96522117D01*
X85382887Y-96490913D01*
X85319261Y-96454887D01*
X85221885Y-96410103D01*
X85021615Y-96322445D01*
X85016301Y-96235607D01*
X85018299Y-96180296D01*
X85148783Y-96180296D01*
X85158688Y-96214538D01*
X85203756Y-96251096D01*
X85285557Y-96292692D01*
X85299092Y-96298718D01*
X85363818Y-96326753D01*
X85412247Y-96346472D01*
X85434751Y-96353923D01*
X85438161Y-96348438D01*
X85439529Y-96314948D01*
X85434651Y-96261116D01*
X85422364Y-96208473D01*
X85384041Y-96142151D01*
X85328720Y-96104780D01*
X85262640Y-96099721D01*
X85192040Y-96130339D01*
X85172474Y-96145648D01*
X85148783Y-96180296D01*
X85018299Y-96180296D01*
X85018647Y-96170663D01*
X85048186Y-96088590D01*
X85085472Y-96043361D01*
X85162776Y-95992838D01*
X85254478Y-95967316D01*
X85349274Y-95969336D01*
X85435859Y-96001440D01*
X85454920Y-96013767D01*
X85498640Y-96051912D01*
X85528540Y-96100167D01*
X85546968Y-96165710D01*
X85556270Y-96255720D01*
X85557499Y-96314948D01*
X85558794Y-96377376D01*
X85558413Y-96429449D01*
G37*
X85558413Y-96429449D02*
X85553641Y-96532047D01*
X85541150Y-96607126D01*
X85518121Y-96662748D01*
X85481732Y-96706975D01*
X85429162Y-96747869D01*
X85395714Y-96766466D01*
X85342098Y-96778991D01*
X85266780Y-96778003D01*
X85224672Y-96774035D01*
X85173879Y-96761920D01*
X85133280Y-96735585D01*
X85086049Y-96686514D01*
X85079738Y-96679346D01*
X85037277Y-96624189D01*
X85017018Y-96576150D01*
X85011846Y-96519184D01*
X85011846Y-96435471D01*
X85070346Y-96457552D01*
X85112994Y-96483364D01*
X85150064Y-96543928D01*
X85157803Y-96563320D01*
X85201074Y-96618235D01*
X85259976Y-96645879D01*
X85324111Y-96643393D01*
X85383077Y-96607923D01*
X85403342Y-96585805D01*
X85421720Y-96552436D01*
X85415971Y-96522117D01*
X85382887Y-96490913D01*
X85319261Y-96454887D01*
X85221885Y-96410103D01*
X85021615Y-96322445D01*
X85016301Y-96235607D01*
X85018299Y-96180296D01*
X85148783Y-96180296D01*
X85158688Y-96214538D01*
X85203756Y-96251096D01*
X85285557Y-96292692D01*
X85299092Y-96298718D01*
X85363818Y-96326753D01*
X85412247Y-96346472D01*
X85434751Y-96353923D01*
X85438161Y-96348438D01*
X85439529Y-96314948D01*
X85434651Y-96261116D01*
X85422364Y-96208473D01*
X85384041Y-96142151D01*
X85328720Y-96104780D01*
X85262640Y-96099721D01*
X85192040Y-96130339D01*
X85172474Y-96145648D01*
X85148783Y-96180296D01*
X85018299Y-96180296D01*
X85018647Y-96170663D01*
X85048186Y-96088590D01*
X85085472Y-96043361D01*
X85162776Y-95992838D01*
X85254478Y-95967316D01*
X85349274Y-95969336D01*
X85435859Y-96001440D01*
X85454920Y-96013767D01*
X85498640Y-96051912D01*
X85528540Y-96100167D01*
X85546968Y-96165710D01*
X85556270Y-96255720D01*
X85557499Y-96314948D01*
X85558794Y-96377376D01*
X85558413Y-96429449D01*
G36*
X88879892Y-95992167D02*
G01*
X88886060Y-95995581D01*
X88936447Y-96034692D01*
X88981498Y-96084975D01*
X88989355Y-96096339D01*
X89004376Y-96122860D01*
X89015107Y-96154336D01*
X89022486Y-96197591D01*
X89027452Y-96259449D01*
X89030942Y-96346733D01*
X89033893Y-96466269D01*
X89034311Y-96486478D01*
X89035654Y-96617499D01*
X89033761Y-96710296D01*
X89028605Y-96765507D01*
X89020158Y-96783769D01*
X88994594Y-96778301D01*
X88951166Y-96761733D01*
X88940940Y-96756888D01*
X88924967Y-96745920D01*
X88913954Y-96727890D01*
X88906750Y-96696396D01*
X88902208Y-96645036D01*
X88899180Y-96567410D01*
X88896516Y-96457115D01*
X88895785Y-96424875D01*
X88892965Y-96323050D01*
X88889304Y-96251788D01*
X88883694Y-96204332D01*
X88875029Y-96173925D01*
X88862202Y-96153810D01*
X88844105Y-96137229D01*
X88790525Y-96108161D01*
X88724612Y-96102564D01*
X88665635Y-96124807D01*
X88623203Y-96170859D01*
X88606923Y-96236692D01*
X88606470Y-96254587D01*
X88597578Y-96286982D01*
X88571325Y-96291925D01*
X88519919Y-96272633D01*
X88508013Y-96266446D01*
X88475835Y-96230058D01*
X88475198Y-96175954D01*
X88505856Y-96101128D01*
X88533978Y-96060350D01*
X88605883Y-96002421D01*
X88694638Y-95969670D01*
X88789542Y-95965212D01*
X88879892Y-95992167D01*
G37*
X88879892Y-95992167D02*
X88886060Y-95995581D01*
X88936447Y-96034692D01*
X88981498Y-96084975D01*
X88989355Y-96096339D01*
X89004376Y-96122860D01*
X89015107Y-96154336D01*
X89022486Y-96197591D01*
X89027452Y-96259449D01*
X89030942Y-96346733D01*
X89033893Y-96466269D01*
X89034311Y-96486478D01*
X89035654Y-96617499D01*
X89033761Y-96710296D01*
X89028605Y-96765507D01*
X89020158Y-96783769D01*
X88994594Y-96778301D01*
X88951166Y-96761733D01*
X88940940Y-96756888D01*
X88924967Y-96745920D01*
X88913954Y-96727890D01*
X88906750Y-96696396D01*
X88902208Y-96645036D01*
X88899180Y-96567410D01*
X88896516Y-96457115D01*
X88895785Y-96424875D01*
X88892965Y-96323050D01*
X88889304Y-96251788D01*
X88883694Y-96204332D01*
X88875029Y-96173925D01*
X88862202Y-96153810D01*
X88844105Y-96137229D01*
X88790525Y-96108161D01*
X88724612Y-96102564D01*
X88665635Y-96124807D01*
X88623203Y-96170859D01*
X88606923Y-96236692D01*
X88606470Y-96254587D01*
X88597578Y-96286982D01*
X88571325Y-96291925D01*
X88519919Y-96272633D01*
X88508013Y-96266446D01*
X88475835Y-96230058D01*
X88475198Y-96175954D01*
X88505856Y-96101128D01*
X88533978Y-96060350D01*
X88605883Y-96002421D01*
X88694638Y-95969670D01*
X88789542Y-95965212D01*
X88879892Y-95992167D01*
G36*
X86019501Y-95971476D02*
G01*
X86100167Y-96001440D01*
X86133714Y-96023954D01*
X86167687Y-96056212D01*
X86191919Y-96097246D01*
X86208001Y-96153108D01*
X86217521Y-96229851D01*
X86222068Y-96333525D01*
X86223231Y-96470184D01*
X86223003Y-96540805D01*
X86221860Y-96637308D01*
X86219919Y-96714323D01*
X86217365Y-96765319D01*
X86214381Y-96783769D01*
X86194962Y-96777667D01*
X86155766Y-96761095D01*
X86154589Y-96760558D01*
X86134235Y-96749903D01*
X86120546Y-96735282D01*
X86112199Y-96709673D01*
X86107874Y-96666054D01*
X86106248Y-96597403D01*
X86106000Y-96496698D01*
X86105500Y-96432813D01*
X86100164Y-96312751D01*
X86087945Y-96224809D01*
X86067552Y-96164375D01*
X86037695Y-96126836D01*
X85997082Y-96107581D01*
X85991448Y-96106239D01*
X85915378Y-96105191D01*
X85856052Y-96139271D01*
X85815077Y-96207598D01*
X85807770Y-96227351D01*
X85791114Y-96271066D01*
X85782679Y-96291155D01*
X85765356Y-96288387D01*
X85727525Y-96273365D01*
X85692240Y-96248556D01*
X85676154Y-96201670D01*
X85680952Y-96168087D01*
X85710431Y-96099967D01*
X85758098Y-96036134D01*
X85813839Y-95991988D01*
X85837193Y-95981782D01*
X85925619Y-95964718D01*
X86019501Y-95971476D01*
G37*
X86019501Y-95971476D02*
X86100167Y-96001440D01*
X86133714Y-96023954D01*
X86167687Y-96056212D01*
X86191919Y-96097246D01*
X86208001Y-96153108D01*
X86217521Y-96229851D01*
X86222068Y-96333525D01*
X86223231Y-96470184D01*
X86223003Y-96540805D01*
X86221860Y-96637308D01*
X86219919Y-96714323D01*
X86217365Y-96765319D01*
X86214381Y-96783769D01*
X86194962Y-96777667D01*
X86155766Y-96761095D01*
X86154589Y-96760558D01*
X86134235Y-96749903D01*
X86120546Y-96735282D01*
X86112199Y-96709673D01*
X86107874Y-96666054D01*
X86106248Y-96597403D01*
X86106000Y-96496698D01*
X86105500Y-96432813D01*
X86100164Y-96312751D01*
X86087945Y-96224809D01*
X86067552Y-96164375D01*
X86037695Y-96126836D01*
X85997082Y-96107581D01*
X85991448Y-96106239D01*
X85915378Y-96105191D01*
X85856052Y-96139271D01*
X85815077Y-96207598D01*
X85807770Y-96227351D01*
X85791114Y-96271066D01*
X85782679Y-96291155D01*
X85765356Y-96288387D01*
X85727525Y-96273365D01*
X85692240Y-96248556D01*
X85676154Y-96201670D01*
X85680952Y-96168087D01*
X85710431Y-96099967D01*
X85758098Y-96036134D01*
X85813839Y-95991988D01*
X85837193Y-95981782D01*
X85925619Y-95964718D01*
X86019501Y-95971476D01*
G36*
X93057763Y-96593269D02*
G01*
X93058300Y-96636802D01*
X93060019Y-96782344D01*
X93060365Y-96893711D01*
X93058277Y-96974804D01*
X93052698Y-97029522D01*
X93042567Y-97061761D01*
X93026826Y-97075422D01*
X93004417Y-97074403D01*
X92974280Y-97062603D01*
X92935355Y-97043920D01*
X92927038Y-97039933D01*
X92892402Y-97020419D01*
X92874314Y-96997202D01*
X92867392Y-96958492D01*
X92866256Y-96892497D01*
X92866205Y-96774000D01*
X92744141Y-96774000D01*
X92669055Y-96770712D01*
X92610015Y-96757377D01*
X92560986Y-96730423D01*
X92557330Y-96727788D01*
X92507581Y-96683286D01*
X92472959Y-96629523D01*
X92451123Y-96559154D01*
X92439737Y-96464830D01*
X92436959Y-96358271D01*
X92631846Y-96358271D01*
X92631880Y-96376131D01*
X92633735Y-96456748D01*
X92639693Y-96509447D01*
X92651506Y-96543668D01*
X92670923Y-96568846D01*
X92672133Y-96570049D01*
X92719858Y-96602628D01*
X92766110Y-96599417D01*
X92818350Y-96559965D01*
X92831128Y-96546482D01*
X92849949Y-96518837D01*
X92860562Y-96482880D01*
X92865252Y-96428364D01*
X92866308Y-96345042D01*
X92865394Y-96294598D01*
X92855477Y-96202857D01*
X92832842Y-96142752D01*
X92795238Y-96109900D01*
X92740416Y-96099923D01*
X92717317Y-96102050D01*
X92677350Y-96123147D01*
X92650926Y-96170161D01*
X92636330Y-96247175D01*
X92631846Y-96358271D01*
X92436959Y-96358271D01*
X92436462Y-96339206D01*
X92437187Y-96247536D01*
X92440490Y-96178098D01*
X92447828Y-96129945D01*
X92460655Y-96093866D01*
X92480423Y-96060648D01*
X92498569Y-96035261D01*
X92564461Y-95966727D01*
X92639114Y-95929505D01*
X92732904Y-95917722D01*
X92840240Y-95929467D01*
X92933031Y-95971595D01*
X93006421Y-96045898D01*
X93011954Y-96053764D01*
X93024857Y-96074668D01*
X93034742Y-96098555D01*
X93042093Y-96130582D01*
X93047394Y-96175905D01*
X93051127Y-96239679D01*
X93053778Y-96327060D01*
X93054096Y-96345042D01*
X93055828Y-96443205D01*
X93057763Y-96593269D01*
G37*
X93057763Y-96593269D02*
X93058300Y-96636802D01*
X93060019Y-96782344D01*
X93060365Y-96893711D01*
X93058277Y-96974804D01*
X93052698Y-97029522D01*
X93042567Y-97061761D01*
X93026826Y-97075422D01*
X93004417Y-97074403D01*
X92974280Y-97062603D01*
X92935355Y-97043920D01*
X92927038Y-97039933D01*
X92892402Y-97020419D01*
X92874314Y-96997202D01*
X92867392Y-96958492D01*
X92866256Y-96892497D01*
X92866205Y-96774000D01*
X92744141Y-96774000D01*
X92669055Y-96770712D01*
X92610015Y-96757377D01*
X92560986Y-96730423D01*
X92557330Y-96727788D01*
X92507581Y-96683286D01*
X92472959Y-96629523D01*
X92451123Y-96559154D01*
X92439737Y-96464830D01*
X92436959Y-96358271D01*
X92631846Y-96358271D01*
X92631880Y-96376131D01*
X92633735Y-96456748D01*
X92639693Y-96509447D01*
X92651506Y-96543668D01*
X92670923Y-96568846D01*
X92672133Y-96570049D01*
X92719858Y-96602628D01*
X92766110Y-96599417D01*
X92818350Y-96559965D01*
X92831128Y-96546482D01*
X92849949Y-96518837D01*
X92860562Y-96482880D01*
X92865252Y-96428364D01*
X92866308Y-96345042D01*
X92865394Y-96294598D01*
X92855477Y-96202857D01*
X92832842Y-96142752D01*
X92795238Y-96109900D01*
X92740416Y-96099923D01*
X92717317Y-96102050D01*
X92677350Y-96123147D01*
X92650926Y-96170161D01*
X92636330Y-96247175D01*
X92631846Y-96358271D01*
X92436959Y-96358271D01*
X92436462Y-96339206D01*
X92437187Y-96247536D01*
X92440490Y-96178098D01*
X92447828Y-96129945D01*
X92460655Y-96093866D01*
X92480423Y-96060648D01*
X92498569Y-96035261D01*
X92564461Y-95966727D01*
X92639114Y-95929505D01*
X92732904Y-95917722D01*
X92840240Y-95929467D01*
X92933031Y-95971595D01*
X93006421Y-96045898D01*
X93011954Y-96053764D01*
X93024857Y-96074668D01*
X93034742Y-96098555D01*
X93042093Y-96130582D01*
X93047394Y-96175905D01*
X93051127Y-96239679D01*
X93053778Y-96327060D01*
X93054096Y-96345042D01*
X93055828Y-96443205D01*
X93057763Y-96593269D01*
G36*
X90384923Y-95726806D02*
G01*
X90384923Y-96261455D01*
X90384660Y-96400094D01*
X90383958Y-96524805D01*
X90382883Y-96630557D01*
X90381500Y-96712322D01*
X90379874Y-96765069D01*
X90378070Y-96783769D01*
X90377364Y-96783706D01*
X90353387Y-96776912D01*
X90309685Y-96762320D01*
X90248154Y-96740870D01*
X90248154Y-96465617D01*
X90247763Y-96357466D01*
X90245946Y-96279026D01*
X90241767Y-96225647D01*
X90234286Y-96190256D01*
X90222567Y-96165779D01*
X90205671Y-96145144D01*
X90194152Y-96134170D01*
X90131864Y-96103775D01*
X90063211Y-96106466D01*
X90000298Y-96142406D01*
X89991139Y-96151325D01*
X89976471Y-96169844D01*
X89966433Y-96194326D01*
X89960151Y-96231393D01*
X89956748Y-96287667D01*
X89955349Y-96369771D01*
X89955077Y-96484329D01*
X89954947Y-96542430D01*
X89954099Y-96637993D01*
X89952594Y-96714526D01*
X89950585Y-96765345D01*
X89948223Y-96783769D01*
X89947518Y-96783706D01*
X89923541Y-96776912D01*
X89879839Y-96762320D01*
X89818308Y-96740870D01*
X89818338Y-96464358D01*
X89818384Y-96439742D01*
X89820970Y-96311419D01*
X89828913Y-96214384D01*
X89844155Y-96142057D01*
X89868636Y-96087855D01*
X89904298Y-96045198D01*
X89953082Y-96007505D01*
X90000661Y-95983910D01*
X90076732Y-95965672D01*
X90151556Y-95964636D01*
X90209077Y-95982378D01*
X90213402Y-95984829D01*
X90226738Y-95984566D01*
X90235851Y-95964039D01*
X90242428Y-95916980D01*
X90248154Y-95837120D01*
X90257923Y-95673236D01*
X90384923Y-95726806D01*
G37*
X90384923Y-95726806D02*
X90384923Y-96261455D01*
X90384660Y-96400094D01*
X90383958Y-96524805D01*
X90382883Y-96630557D01*
X90381500Y-96712322D01*
X90379874Y-96765069D01*
X90378070Y-96783769D01*
X90377364Y-96783706D01*
X90353387Y-96776912D01*
X90309685Y-96762320D01*
X90248154Y-96740870D01*
X90248154Y-96465617D01*
X90247763Y-96357466D01*
X90245946Y-96279026D01*
X90241767Y-96225647D01*
X90234286Y-96190256D01*
X90222567Y-96165779D01*
X90205671Y-96145144D01*
X90194152Y-96134170D01*
X90131864Y-96103775D01*
X90063211Y-96106466D01*
X90000298Y-96142406D01*
X89991139Y-96151325D01*
X89976471Y-96169844D01*
X89966433Y-96194326D01*
X89960151Y-96231393D01*
X89956748Y-96287667D01*
X89955349Y-96369771D01*
X89955077Y-96484329D01*
X89954947Y-96542430D01*
X89954099Y-96637993D01*
X89952594Y-96714526D01*
X89950585Y-96765345D01*
X89948223Y-96783769D01*
X89947518Y-96783706D01*
X89923541Y-96776912D01*
X89879839Y-96762320D01*
X89818308Y-96740870D01*
X89818338Y-96464358D01*
X89818384Y-96439742D01*
X89820970Y-96311419D01*
X89828913Y-96214384D01*
X89844155Y-96142057D01*
X89868636Y-96087855D01*
X89904298Y-96045198D01*
X89953082Y-96007505D01*
X90000661Y-95983910D01*
X90076732Y-95965672D01*
X90151556Y-95964636D01*
X90209077Y-95982378D01*
X90213402Y-95984829D01*
X90226738Y-95984566D01*
X90235851Y-95964039D01*
X90242428Y-95916980D01*
X90248154Y-95837120D01*
X90257923Y-95673236D01*
X90384923Y-95726806D01*
G36*
X87595998Y-95969034D02*
G01*
X87638850Y-95985829D01*
X87688615Y-96008503D01*
X87688615Y-96663533D01*
X87626785Y-96725363D01*
X87612662Y-96739228D01*
X87573536Y-96770046D01*
X87534078Y-96780028D01*
X87475362Y-96775433D01*
X87451456Y-96772462D01*
X87389801Y-96766176D01*
X87346692Y-96763672D01*
X87333905Y-96764055D01*
X87281446Y-96768200D01*
X87218022Y-96775433D01*
X87197730Y-96777918D01*
X87146610Y-96778895D01*
X87109207Y-96763462D01*
X87066599Y-96725363D01*
X87004769Y-96663533D01*
X87004769Y-96313343D01*
X87005251Y-96209857D01*
X87006753Y-96111192D01*
X87009089Y-96033068D01*
X87012071Y-95981662D01*
X87015509Y-95963154D01*
X87016230Y-95963204D01*
X87041203Y-95972413D01*
X87083399Y-95992707D01*
X87140549Y-96022261D01*
X87145928Y-96329746D01*
X87151308Y-96637231D01*
X87268539Y-96637231D01*
X87273885Y-96300192D01*
X87275579Y-96208574D01*
X87278005Y-96110649D01*
X87280634Y-96032906D01*
X87283246Y-95981642D01*
X87285623Y-95963154D01*
X87286306Y-95963219D01*
X87309996Y-95970020D01*
X87353546Y-95984604D01*
X87415077Y-96006054D01*
X87415376Y-96302104D01*
X87415676Y-96353532D01*
X87417754Y-96453466D01*
X87421470Y-96536925D01*
X87426430Y-96596377D01*
X87432240Y-96624287D01*
X87453024Y-96639214D01*
X87495440Y-96643825D01*
X87542077Y-96637231D01*
X87547423Y-96300192D01*
X87549336Y-96214546D01*
X87553303Y-96113172D01*
X87558491Y-96033655D01*
X87564499Y-95981736D01*
X87570927Y-95963154D01*
X87595998Y-95969034D01*
G37*
X87595998Y-95969034D02*
X87638850Y-95985829D01*
X87688615Y-96008503D01*
X87688615Y-96663533D01*
X87626785Y-96725363D01*
X87612662Y-96739228D01*
X87573536Y-96770046D01*
X87534078Y-96780028D01*
X87475362Y-96775433D01*
X87451456Y-96772462D01*
X87389801Y-96766176D01*
X87346692Y-96763672D01*
X87333905Y-96764055D01*
X87281446Y-96768200D01*
X87218022Y-96775433D01*
X87197730Y-96777918D01*
X87146610Y-96778895D01*
X87109207Y-96763462D01*
X87066599Y-96725363D01*
X87004769Y-96663533D01*
X87004769Y-96313343D01*
X87005251Y-96209857D01*
X87006753Y-96111192D01*
X87009089Y-96033068D01*
X87012071Y-95981662D01*
X87015509Y-95963154D01*
X87016230Y-95963204D01*
X87041203Y-95972413D01*
X87083399Y-95992707D01*
X87140549Y-96022261D01*
X87145928Y-96329746D01*
X87151308Y-96637231D01*
X87268539Y-96637231D01*
X87273885Y-96300192D01*
X87275579Y-96208574D01*
X87278005Y-96110649D01*
X87280634Y-96032906D01*
X87283246Y-95981642D01*
X87285623Y-95963154D01*
X87286306Y-95963219D01*
X87309996Y-95970020D01*
X87353546Y-95984604D01*
X87415077Y-96006054D01*
X87415376Y-96302104D01*
X87415676Y-96353532D01*
X87417754Y-96453466D01*
X87421470Y-96536925D01*
X87426430Y-96596377D01*
X87432240Y-96624287D01*
X87453024Y-96639214D01*
X87495440Y-96643825D01*
X87542077Y-96637231D01*
X87547423Y-96300192D01*
X87549336Y-96214546D01*
X87553303Y-96113172D01*
X87558491Y-96033655D01*
X87564499Y-95981736D01*
X87570927Y-95963154D01*
X87595998Y-95969034D01*
D11*
%TO.C,J3*%
X97341546Y-124384826D02*
X98041581Y-125084861D01*
X99229521Y-118961317D02*
X100997288Y-120729084D01*
X100997288Y-120729084D02*
X100254826Y-121471546D01*
X94265631Y-121139205D02*
X97009205Y-118395631D01*
X96599084Y-125127288D02*
X97341546Y-124384826D01*
X94831317Y-123359521D02*
X96599084Y-125127288D01*
%TD*%
M02*
