<?xml version="1.0" standalone="no"?>
 <!DOCTYPE svg PUBLIC "-//W3C//DTD SVG 1.1//EN" 
 "http://www.w3.org/Graphics/SVG/1.1/DTD/svg11.dtd"> 
<svg
  xmlns:svg="http://www.w3.org/2000/svg"
  xmlns="http://www.w3.org/2000/svg"
  xmlns:xlink="http://www.w3.org/1999/xlink"
  version="1.1"
  width="6.621780cm" height="5.171440cm" viewBox="0 0 66217800 51714400">
<title>SVG Picture created as RoundScanner-B_Mask.svg date 2023/02/24 09:48:27 </title>
  <desc>Picture generated by PCBNEW </desc>
<g style="fill:#000000; fill-opacity:1.000000;stroke:#000000; stroke-opacity:1.000000;
stroke-linecap:round; stroke-linejoin:round;"
 transform="translate(0 0) scale(1 1)">
</g>
<g style="fill:#000000; fill-opacity:0.0; 
stroke:#000000; stroke-width:0.000000; stroke-opacity:1; 
stroke-linecap:round; stroke-linejoin:round;">
</g>
<g style="fill:#02FFEE; fill-opacity:0.0; 
stroke:#02FFEE; stroke-width:0.000000; stroke-opacity:1; 
stroke-linecap:round; stroke-linejoin:round;">
</g>
<g style="fill:#02FFEE; fill-opacity:1.0; 
stroke:#02FFEE; stroke-width:1.000000; stroke-opacity:1; 
stroke-linecap:round; stroke-linejoin:round;">
<path style="fill:#02FFEE; fill-opacity:1.0; 
stroke:#02FFEE; stroke-width:1.000000; stroke-opacity:1; 
stroke-linecap:round; stroke-linejoin:round;fill-rule:evenodd;"
d="M 44166409.000000,11085100.000000
44200075.000000,11096988.000000
44252049.000000,11116091.000000
44320392.000000,11141659.000000
44403165.000000,11172940.000000
44498430.000000,11209181.000000
44604249.000000,11249631.000000
44718682.000000,11293538.000000
44839792.000000,11340151.000000
44965639.000000,11388718.000000
45094286.000000,11438487.000000
45223793.000000,11488706.000000
45352223.000000,11538624.000000
45477637.000000,11587488.000000
45598096.000000,11634548.000000
45711661.000000,11679052.000000
45816395.000000,11720247.000000
45910359.000000,11757382.000000
45991613.000000,11789705.000000
46058221.000000,11816465.000000
46108242.000000,11836909.000000
46139739.000000,11850287.000000
46150773.000000,11855846.000000
46149878.000000,11857313.000000
46134349.000000,11869428.000000
46101479.000000,11891601.000000
46053801.000000,11922221.000000
45993849.000000,11959680.000000
45924157.000000,12002365.000000
45847261.000000,12048669.000000
45822490.000000,12063503.000000
45747659.000000,12108818.000000
45680881.000000,12149998.000000
45624680.000000,12185437.000000
45581579.000000,12213529.000000
45554101.000000,12232668.000000
45544769.000000,12241246.000000
45549604.000000,12251731.000000
45565830.000000,12281481.000000
45592190.000000,12327800.000000
45627393.000000,12388530.000000
45670153.000000,12461508.000000
45719179.000000,12544576.000000
45773184.000000,12635571.000000
45830879.000000,12732335.000000
45890975.000000,12832706.000000
45952183.000000,12934524.000000
46013214.000000,13035629.000000
46072781.000000,13133860.000000
46129594.000000,13227057.000000
46182365.000000,13313059.000000
46229805.000000,13389705.000000
46255043.000000,13430143.000000
46338837.000000,13562865.000000
46422202.000000,13692682.000000
46503444.000000,13817066.000000
46580871.000000,13933488.000000
46652790.000000,14039420.000000
46717507.000000,14132335.000000
46773331.000000,14209703.000000
46818567.000000,14268996.000000
46926037.000000,14396346.000000
47043965.000000,14517620.000000
47159222.000000,14615745.000000
47272419.000000,14691001.000000
47384162.000000,14743668.000000
47495063.000000,14774025.000000
47605728.000000,14782354.000000
47716767.000000,14768935.000000
47828788.000000,14734048.000000
47906884.000000,14697796.000000
48002300.000000,14639723.000000
48096908.000000,14566007.000000
48192226.000000,14475176.000000
48289772.000000,14365758.000000
48391064.000000,14236279.000000
48497620.000000,14085267.000000
48521182.000000,14049992.000000
48568361.000000,13977831.000000
48626085.000000,13888121.000000
48693218.000000,13782704.000000
48768621.000000,13663420.000000
48851157.000000,13532111.000000
48939688.000000,13390617.000000
49033078.000000,13240779.000000
49130188.000000,13084437.000000
49229881.000000,12923432.000000
49331020.000000,12759606.000000
49432467.000000,12594799.000000
49533085.000000,12430851.000000
49631736.000000,12269605.000000
49727283.000000,12112899.000000
49818588.000000,11962576.000000
49904515.000000,11820475.000000
49983924.000000,11688439.000000
50055680.000000,11568307.000000
50118644.000000,11461920.000000
50160119.000000,11391944.000000
50199749.000000,11326135.000000
50234060.000000,11270238.000000
50261371.000000,11226961.000000
50279998.000000,11199010.000000
50288260.000000,11189092.000000
50296030.000000,11192732.000000
50322799.000000,11207210.000000
50366511.000000,11231598.000000
50425044.000000,11264689.000000
50496280.000000,11305280.000000
50578098.000000,11352165.000000
50668378.000000,11404140.000000
50765000.000000,11460000.000000
50775140.000000,11465874.000000
50884157.000000,11529100.000000
50974259.000000,11581583.000000
51047174.000000,11624453.000000
51104627.000000,11658839.000000
51148345.000000,11685870.000000
51180054.000000,11706674.000000
51201480.000000,11722381.000000
51214351.000000,11734120.000000
51220391.000000,11743018.000000
51221328.000000,11750207.000000
51218888.000000,11756813.000000
51204510.000000,11783204.000000
51178172.000000,11830491.000000
51142425.000000,11894038.000000
51098638.000000,11971453.000000
51048178.000000,12060343.000000
50992413.000000,12158315.000000
50932711.000000,12262975.000000
50870439.000000,12371932.000000
50806965.000000,12482792.000000
50743658.000000,12593162.000000
50681884.000000,12700650.000000
50623011.000000,12802862.000000
50568408.000000,12897406.000000
50519442.000000,12981889.000000
50477480.000000,13053917.000000
50456044.000000,13090553.000000
50298164.000000,13358381.000000
50149083.000000,13607520.000000
50007243.000000,13840485.000000
49871084.000000,14059791.000000
49739048.000000,14267953.000000
49609574.000000,14467486.000000
49481103.000000,14660905.000000
49460675.000000,14691220.000000
49376490.000000,14813940.000000
49300835.000000,14919930.000000
49231011.000000,15012561.000000
49164320.000000,15095204.000000
49098064.000000,15171232.000000
49029545.000000,15244014.000000
48956065.000000,15316923.000000
48905013.000000,15364745.000000
48740976.000000,15500086.000000
48569985.000000,15613476.000000
48390171.000000,15705785.000000
48199669.000000,15777881.000000
47996610.000000,15830635.000000
47779129.000000,15864914.000000
47763901.000000,15866502.000000
47685705.000000,15872037.000000
47594349.000000,15875250.000000
47497242.000000,15876143.000000
47401787.000000,15874714.000000
47315393.000000,15870965.000000
47245465.000000,15864896.000000
47200652.000000,15858882.000000
47025974.000000,15824105.000000
46860271.000000,15771815.000000
46702128.000000,15701089.000000
46550127.000000,15611006.000000
46402851.000000,15500644.000000
46258882.000000,15369082.000000
46116803.000000,15215396.000000
45975197.000000,15038667.000000
45920659.000000,14964641.000000
45842039.000000,14854004.000000
45754498.000000,14727202.000000
45659695.000000,14586846.000000
45559291.000000,14435546.000000
45454946.000000,14275913.000000
45348319.000000,14110558.000000
45241071.000000,13942092.000000
45134860.000000,13773125.000000
45031347.000000,13606268.000000
44932192.000000,13444133.000000
44839055.000000,13289329.000000
44753595.000000,13144468.000000
44677472.000000,13012160.000000
44612347.000000,12895017.000000
44610658.000000,12891930.000000
44589088.000000,12855660.000000
44570726.000000,12830033.000000
44559387.000000,12820425.000000
44556887.000000,12821265.000000
44537021.000000,12831378.000000
44500172.000000,12851747.000000
44448975.000000,12880865.000000
44386069.000000,12917222.000000
44314089.000000,12959310.000000
44235673.000000,13005620.000000
44205106.000000,13023741.000000
44129619.000000,13068335.000000
44062078.000000,13108015.000000
44005013.000000,13141310.000000
43960957.000000,13166745.000000
43932441.000000,13182847.000000
43921996.000000,13188144.000000
43922712.000000,13178140.000000
43925730.000000,13145898.000000
43930918.000000,13093061.000000
43938100.000000,13021333.000000
43947104.000000,12932419.000000
43957754.000000,12828024.000000
43969877.000000,12709854.000000
43983298.000000,12579612.000000
43997845.000000,12439005.000000
44013343.000000,12289736.000000
44029617.000000,12133511.000000
44046350.000000,11973904.000000
44066553.000000,11783639.000000
44084596.000000,11616777.000000
44100510.000000,11473047.000000
44114329.000000,11352175.000000
44126083.000000,11253891.000000
44135805.000000,11177921.000000
44143527.000000,11123993.000000
44149280.000000,11091835.000000
44153097.000000,11081174.000000
Z" /> 
<path style="fill:#02FFEE; fill-opacity:1.0; 
stroke:#02FFEE; stroke-width:1.000000; stroke-opacity:1; 
stroke-linecap:round; stroke-linejoin:round;fill-rule:evenodd;"
d="M 44168799.000000,11087450.000000
44202465.000000,11099338.000000
44254439.000000,11118441.000000
44322782.000000,11144009.000000
44405555.000000,11175290.000000
44500820.000000,11211531.000000
44606639.000000,11251981.000000
44721072.000000,11295888.000000
44842182.000000,11342501.000000
44968029.000000,11391068.000000
45096676.000000,11440837.000000
45226183.000000,11491056.000000
45354613.000000,11540974.000000
45480027.000000,11589838.000000
45600486.000000,11636898.000000
45714051.000000,11681402.000000
45818785.000000,11722597.000000
45912749.000000,11759732.000000
45994003.000000,11792055.000000
46060611.000000,11818815.000000
46110632.000000,11839259.000000
46142129.000000,11852637.000000
46153163.000000,11858196.000000
46152268.000000,11859663.000000
46136739.000000,11871778.000000
46103869.000000,11893951.000000
46056191.000000,11924571.000000
45996239.000000,11962030.000000
45926547.000000,12004715.000000
45849651.000000,12051019.000000
45824880.000000,12065853.000000
45750049.000000,12111168.000000
45683271.000000,12152348.000000
45627070.000000,12187787.000000
45583969.000000,12215879.000000
45556491.000000,12235018.000000
45547159.000000,12243596.000000
45551994.000000,12254081.000000
45568220.000000,12283831.000000
45594580.000000,12330150.000000
45629783.000000,12390880.000000
45672543.000000,12463858.000000
45721569.000000,12546926.000000
45775574.000000,12637921.000000
45833269.000000,12734685.000000
45893365.000000,12835056.000000
45954573.000000,12936874.000000
46015604.000000,13037979.000000
46075171.000000,13136210.000000
46131984.000000,13229407.000000
46184755.000000,13315409.000000
46232195.000000,13392055.000000
46257433.000000,13432493.000000
46341227.000000,13565215.000000
46424592.000000,13695032.000000
46505834.000000,13819416.000000
46583261.000000,13935838.000000
46655180.000000,14041770.000000
46719897.000000,14134685.000000
46775721.000000,14212053.000000
46820957.000000,14271346.000000
46928427.000000,14398696.000000
47046355.000000,14519970.000000
47161612.000000,14618095.000000
47274809.000000,14693351.000000
47386552.000000,14746018.000000
47497453.000000,14776375.000000
47608118.000000,14784704.000000
47719157.000000,14771285.000000
47831178.000000,14736398.000000
47909274.000000,14700146.000000
48004690.000000,14642073.000000
48099298.000000,14568357.000000
48194616.000000,14477526.000000
48292162.000000,14368108.000000
48393454.000000,14238629.000000
48500010.000000,14087617.000000
48523572.000000,14052342.000000
48570751.000000,13980181.000000
48628475.000000,13890471.000000
48695608.000000,13785054.000000
48771011.000000,13665770.000000
48853547.000000,13534461.000000
48942078.000000,13392967.000000
49035468.000000,13243129.000000
49132578.000000,13086787.000000
49232271.000000,12925782.000000
49333410.000000,12761956.000000
49434857.000000,12597149.000000
49535475.000000,12433201.000000
49634126.000000,12271955.000000
49729673.000000,12115249.000000
49820978.000000,11964926.000000
49906905.000000,11822825.000000
49986314.000000,11690789.000000
50058070.000000,11570657.000000
50121034.000000,11464270.000000
50162509.000000,11394294.000000
50202139.000000,11328485.000000
50236450.000000,11272588.000000
50263761.000000,11229311.000000
50282388.000000,11201360.000000
50290650.000000,11191442.000000
50298420.000000,11195082.000000
50325189.000000,11209560.000000
50368901.000000,11233948.000000
50427434.000000,11267039.000000
50498670.000000,11307630.000000
50580488.000000,11354515.000000
50670768.000000,11406490.000000
50767390.000000,11462350.000000
50777530.000000,11468224.000000
50886547.000000,11531450.000000
50976649.000000,11583933.000000
51049564.000000,11626803.000000
51107017.000000,11661189.000000
51150735.000000,11688220.000000
51182444.000000,11709024.000000
51203870.000000,11724731.000000
51216741.000000,11736470.000000
51222781.000000,11745368.000000
51223718.000000,11752557.000000
51221278.000000,11759163.000000
51206900.000000,11785554.000000
51180562.000000,11832841.000000
51144815.000000,11896388.000000
51101028.000000,11973803.000000
51050568.000000,12062693.000000
50994803.000000,12160665.000000
50935101.000000,12265325.000000
50872829.000000,12374282.000000
50809355.000000,12485142.000000
50746048.000000,12595512.000000
50684274.000000,12703000.000000
50625401.000000,12805212.000000
50570798.000000,12899756.000000
50521832.000000,12984239.000000
50479870.000000,13056267.000000
50458434.000000,13092903.000000
50300554.000000,13360731.000000
50151473.000000,13609870.000000
50009633.000000,13842835.000000
49873474.000000,14062141.000000
49741438.000000,14270303.000000
49611964.000000,14469836.000000
49483493.000000,14663255.000000
49463065.000000,14693570.000000
49378880.000000,14816290.000000
49303225.000000,14922280.000000
49233401.000000,15014911.000000
49166710.000000,15097554.000000
49100454.000000,15173582.000000
49031935.000000,15246364.000000
48958455.000000,15319273.000000
48907403.000000,15367095.000000
48743366.000000,15502436.000000
48572375.000000,15615826.000000
48392561.000000,15708135.000000
48202059.000000,15780231.000000
47999000.000000,15832985.000000
47781519.000000,15867264.000000
47766291.000000,15868852.000000
47688095.000000,15874387.000000
47596739.000000,15877600.000000
47499632.000000,15878493.000000
47404177.000000,15877064.000000
47317783.000000,15873315.000000
47247855.000000,15867246.000000
47203042.000000,15861232.000000
47028364.000000,15826455.000000
46862661.000000,15774165.000000
46704518.000000,15703439.000000
46552517.000000,15613356.000000
46405241.000000,15502994.000000
46261272.000000,15371432.000000
46119193.000000,15217746.000000
45977587.000000,15041017.000000
45923049.000000,14966991.000000
45844429.000000,14856354.000000
45756888.000000,14729552.000000
45662085.000000,14589196.000000
45561681.000000,14437896.000000
45457336.000000,14278263.000000
45350709.000000,14112908.000000
45243461.000000,13944442.000000
45137250.000000,13775475.000000
45033737.000000,13608618.000000
44934582.000000,13446483.000000
44841445.000000,13291679.000000
44755985.000000,13146818.000000
44679862.000000,13014510.000000
44614737.000000,12897367.000000
44613048.000000,12894280.000000
44591478.000000,12858010.000000
44573116.000000,12832383.000000
44561777.000000,12822775.000000
44559277.000000,12823615.000000
44539411.000000,12833728.000000
44502562.000000,12854097.000000
44451365.000000,12883215.000000
44388459.000000,12919572.000000
44316479.000000,12961660.000000
44238063.000000,13007970.000000
44207496.000000,13026091.000000
44132009.000000,13070685.000000
44064468.000000,13110365.000000
44007403.000000,13143660.000000
43963347.000000,13169095.000000
43934831.000000,13185197.000000
43924386.000000,13190494.000000
43925102.000000,13180490.000000
43928120.000000,13148248.000000
43933308.000000,13095411.000000
43940490.000000,13023683.000000
43949494.000000,12934769.000000
43960144.000000,12830374.000000
43972267.000000,12712204.000000
43985688.000000,12581962.000000
44000235.000000,12441355.000000
44015733.000000,12292086.000000
44032007.000000,12135861.000000
44048740.000000,11976254.000000
44068943.000000,11785989.000000
44086986.000000,11619127.000000
44102900.000000,11475397.000000
44116719.000000,11354525.000000
44128473.000000,11256241.000000
44138195.000000,11180271.000000
44145917.000000,11126343.000000
44151670.000000,11094185.000000
44155487.000000,11083524.000000
Z" /> 
<g >
</g>
<g >
</g>
<g >
</g>
<g >
</g>
<g >
</g>
<g >
</g>
<g >
</g>
<g >
</g>
<g >
</g>
<g >
</g>
<g >
</g>
<g >
</g>
<g >
</g>
<g >
</g>
<g >
</g>
<g style="fill:#000000; fill-opacity:1.0; 
stroke:#000000; stroke-width:1.000000; stroke-opacity:1; 
stroke-linecap:round; stroke-linejoin:round;">
<circle cx="23079000.000000" cy="16687000.000000" r="1750000.000000" /> 
</g>
<g style="fill:#000000; fill-opacity:1.0; 
stroke:#000000; stroke-width:21200.000000; stroke-opacity:1; 
stroke-linecap:round; stroke-linejoin:round;">
</g>
<g >
</g>
<g >
</g>
<g >
</g>
<g >
</g>
<g >
</g>
<g >
</g>
<g >
</g>
<g >
</g>
<g >
</g>
<g >
</g>
<g >
</g>
<g >
</g>
<g >
</g>
<g >
</g>
<g >
</g>
<g >
</g>
<g >
</g>
<g >
</g>
<g >
</g>
<g >
</g>
<g >
</g>
<g >
</g>
<g style="fill:#000000; fill-opacity:1.0; 
stroke:#000000; stroke-width:21200.000000; stroke-opacity:1; 
stroke-linecap:round; stroke-linejoin:round;">
</g>
<g style="fill:#000000; fill-opacity:1.0; 
stroke:#000000; stroke-width:1.000000; stroke-opacity:1; 
stroke-linecap:round; stroke-linejoin:round;">
<circle cx="54575000.000000" cy="34848000.000000" r="1750000.000000" /> 
</g>
<g style="fill:#000000; fill-opacity:1.0; 
stroke:#000000; stroke-width:21200.000000; stroke-opacity:1; 
stroke-linecap:round; stroke-linejoin:round;">
</g>
<g >
</g>
<g >
</g>
<g >
</g>
<g >
</g>
<g >
</g>
<g >
</g>
<g >
</g>
<g >
</g>
<g >
</g>
<g >
</g>
<g >
</g>
<g >
</g>
<g >
</g>
<g >
</g>
<g >
</g>
<g >
</g>
<g >
</g>
<g >
</g>
<g >
</g>
<g >
</g>
<g >
</g>
<g >
</g>
<g >
</g>
<g >
</g>
<g >
</g>
<g >
</g>
<g >
</g>
<g >
</g>
<g >
</g>
<g >
</g>
<g >
</g>
<g >
</g>
<g >
</g>
<g >
</g>
<g style="fill:#000000; fill-opacity:1.0; 
stroke:#000000; stroke-width:21200.000000; stroke-opacity:1; 
stroke-linecap:round; stroke-linejoin:round;">
</g>
<g style="fill:#000000; fill-opacity:1.0; 
stroke:#000000; stroke-width:1.000000; stroke-opacity:1; 
stroke-linecap:round; stroke-linejoin:round;">
<path style="fill:#000000; fill-opacity:1.0; 
stroke:#000000; stroke-width:1.000000; stroke-opacity:1; 
stroke-linecap:round; stroke-linejoin:round;fill-rule:evenodd;"
d="M 57774000.000000,16652080.000000
56571920.000000,15450000.000000
57774000.000000,14247920.000000
58976080.000000,15450000.000000
Z" /> 
<circle cx="55977949.000000" cy="13653949.000000" r="850000.000000" /> 
<circle cx="54181898.000000" cy="11857898.000000" r="850000.000000" /> 
<circle cx="52385846.000000" cy="10061846.000000" r="850000.000000" /> 
</g>
<g >
</g>
<g >
</g>
<g >
</g>
<g style="fill:#000000; fill-opacity:1.0; 
stroke:#000000; stroke-width:1.000000; stroke-opacity:1; 
stroke-linecap:round; stroke-linejoin:round;">
<path style="fill:#000000; fill-opacity:1.0; 
stroke:#000000; stroke-width:1.000000; stroke-opacity:1; 
stroke-linecap:round; stroke-linejoin:round;fill-rule:evenodd;"
d="M 28918672.000000,39557237.000000
30120752.000000,40759317.000000
28918672.000000,41961397.000000
27716592.000000,40759317.000000
Z" /> 
<circle cx="30714723.000000" cy="42555368.000000" r="850000.000000" /> 
<circle cx="32510774.000000" cy="44351419.000000" r="850000.000000" /> 
<circle cx="34306826.000000" cy="46147471.000000" r="850000.000000" /> 
</g>
<g >
</g>
<g style="fill:#000000; fill-opacity:1.0; 
stroke:#000000; stroke-width:1.000000; stroke-opacity:1; 
stroke-linecap:round; stroke-linejoin:round;">
<path style="fill:#000000; fill-opacity:1.0; 
stroke:#000000; stroke-width:1.000000; stroke-opacity:1; 
stroke-linecap:round; stroke-linejoin:round;fill-rule:evenodd;"
d="M 39059000.000000,45474000.000000
39070418.000000,45416597.000000
39102934.000000,45367934.000000
39151597.000000,45335418.000000
39209000.000000,45324000.000000
39509000.000000,45324000.000000
39566403.000000,45335418.000000
39615066.000000,45367934.000000
39647582.000000,45416597.000000
39659000.000000,45474000.000000
39659000.000000,46724000.000000
39647582.000000,46781403.000000
39615066.000000,46830066.000000
39566403.000000,46862582.000000
39509000.000000,46874000.000000
39209000.000000,46874000.000000
39151597.000000,46862582.000000
39102934.000000,46830066.000000
39070418.000000,46781403.000000
39059000.000000,46724000.000000
Z" /> 
<path style="fill:#000000; fill-opacity:1.0; 
stroke:#000000; stroke-width:1.000000; stroke-opacity:1; 
stroke-linecap:round; stroke-linejoin:round;fill-rule:evenodd;"
d="M 40059000.000000,45474000.000000
40070418.000000,45416597.000000
40102934.000000,45367934.000000
40151597.000000,45335418.000000
40209000.000000,45324000.000000
40509000.000000,45324000.000000
40566403.000000,45335418.000000
40615066.000000,45367934.000000
40647582.000000,45416597.000000
40659000.000000,45474000.000000
40659000.000000,46724000.000000
40647582.000000,46781403.000000
40615066.000000,46830066.000000
40566403.000000,46862582.000000
40509000.000000,46874000.000000
40209000.000000,46874000.000000
40151597.000000,46862582.000000
40102934.000000,46830066.000000
40070418.000000,46781403.000000
40059000.000000,46724000.000000
Z" /> 
<path style="fill:#000000; fill-opacity:1.0; 
stroke:#000000; stroke-width:1.000000; stroke-opacity:1; 
stroke-linecap:round; stroke-linejoin:round;fill-rule:evenodd;"
d="M 41059000.000000,45474000.000000
41070418.000000,45416597.000000
41102934.000000,45367934.000000
41151597.000000,45335418.000000
41209000.000000,45324000.000000
41509000.000000,45324000.000000
41566403.000000,45335418.000000
41615066.000000,45367934.000000
41647582.000000,45416597.000000
41659000.000000,45474000.000000
41659000.000000,46724000.000000
41647582.000000,46781403.000000
41615066.000000,46830066.000000
41566403.000000,46862582.000000
41509000.000000,46874000.000000
41209000.000000,46874000.000000
41151597.000000,46862582.000000
41102934.000000,46830066.000000
41070418.000000,46781403.000000
41059000.000000,46724000.000000
Z" /> 
<path style="fill:#000000; fill-opacity:1.0; 
stroke:#000000; stroke-width:1.000000; stroke-opacity:1; 
stroke-linecap:round; stroke-linejoin:round;fill-rule:evenodd;"
d="M 42059000.000000,45474000.000000
42070418.000000,45416597.000000
42102934.000000,45367934.000000
42151597.000000,45335418.000000
42209000.000000,45324000.000000
42509000.000000,45324000.000000
42566403.000000,45335418.000000
42615066.000000,45367934.000000
42647582.000000,45416597.000000
42659000.000000,45474000.000000
42659000.000000,46724000.000000
42647582.000000,46781403.000000
42615066.000000,46830066.000000
42566403.000000,46862582.000000
42509000.000000,46874000.000000
42209000.000000,46874000.000000
42151597.000000,46862582.000000
42102934.000000,46830066.000000
42070418.000000,46781403.000000
42059000.000000,46724000.000000
Z" /> 
<path style="fill:#000000; fill-opacity:1.0; 
stroke:#000000; stroke-width:1.000000; stroke-opacity:1; 
stroke-linecap:round; stroke-linejoin:round;fill-rule:evenodd;"
d="M 37459000.000000,41574000.000000
37478030.000000,41478329.000000
37532223.000000,41397223.000000
37613329.000000,41343030.000000
37709000.000000,41324000.000000
38409000.000000,41324000.000000
38504671.000000,41343030.000000
38585777.000000,41397223.000000
38639970.000000,41478329.000000
38659000.000000,41574000.000000
38659000.000000,42874000.000000
38639970.000000,42969671.000000
38585777.000000,43050777.000000
38504671.000000,43104970.000000
38409000.000000,43124000.000000
37709000.000000,43124000.000000
37613329.000000,43104970.000000
37532223.000000,43050777.000000
37478030.000000,42969671.000000
37459000.000000,42874000.000000
Z" /> 
<path style="fill:#000000; fill-opacity:1.0; 
stroke:#000000; stroke-width:1.000000; stroke-opacity:1; 
stroke-linecap:round; stroke-linejoin:round;fill-rule:evenodd;"
d="M 43059000.000000,41574000.000000
43078030.000000,41478329.000000
43132223.000000,41397223.000000
43213329.000000,41343030.000000
43309000.000000,41324000.000000
44009000.000000,41324000.000000
44104671.000000,41343030.000000
44185777.000000,41397223.000000
44239970.000000,41478329.000000
44259000.000000,41574000.000000
44259000.000000,42874000.000000
44239970.000000,42969671.000000
44185777.000000,43050777.000000
44104671.000000,43104970.000000
44009000.000000,43124000.000000
43309000.000000,43124000.000000
43213329.000000,43104970.000000
43132223.000000,43050777.000000
43078030.000000,42969671.000000
43059000.000000,42874000.000000
Z" /> 
</g>
<g >
</g>
<g style="fill:#000000; fill-opacity:1.0; 
stroke:#000000; stroke-width:1.000000; stroke-opacity:1; 
stroke-linecap:round; stroke-linejoin:round;">
<path style="fill:#000000; fill-opacity:1.0; 
stroke:#000000; stroke-width:1.000000; stroke-opacity:1; 
stroke-linecap:round; stroke-linejoin:round;fill-rule:evenodd;"
d="M 50079000.000000,44041000.000000
50059970.000000,44136671.000000
50005777.000000,44217777.000000
49924671.000000,44271970.000000
49829000.000000,44291000.000000
49179000.000000,44291000.000000
49083329.000000,44271970.000000
49002223.000000,44217777.000000
48948030.000000,44136671.000000
48929000.000000,44041000.000000
48929000.000000,43141000.000000
48948030.000000,43045329.000000
49002223.000000,42964223.000000
49083329.000000,42910030.000000
49179000.000000,42891000.000000
49829000.000000,42891000.000000
49924671.000000,42910030.000000
50005777.000000,42964223.000000
50059970.000000,43045329.000000
50079000.000000,43141000.000000
Z" /> 
<path style="fill:#000000; fill-opacity:1.0; 
stroke:#000000; stroke-width:1.000000; stroke-opacity:1; 
stroke-linecap:round; stroke-linejoin:round;fill-rule:evenodd;"
d="M 48029000.000000,44041000.000000
48009970.000000,44136671.000000
47955777.000000,44217777.000000
47874671.000000,44271970.000000
47779000.000000,44291000.000000
47129000.000000,44291000.000000
47033329.000000,44271970.000000
46952223.000000,44217777.000000
46898030.000000,44136671.000000
46879000.000000,44041000.000000
46879000.000000,43141000.000000
46898030.000000,43045329.000000
46952223.000000,42964223.000000
47033329.000000,42910030.000000
47129000.000000,42891000.000000
47779000.000000,42891000.000000
47874671.000000,42910030.000000
47955777.000000,42964223.000000
48009970.000000,43045329.000000
48029000.000000,43141000.000000
Z" /> 
</g>
<g >
</g>
<g >
</g>
<g >
</g>
<g >
</g>
<g >
</g>
</g>
<g style="fill:#000000; fill-opacity:1.0; 
stroke:#000000; stroke-width:1.000000; stroke-opacity:1; 
stroke-linecap:round; stroke-linejoin:round;">
</g>
<g style="fill:#D0D2CD; fill-opacity:1.0; 
stroke:#D0D2CD; stroke-width:1.000000; stroke-opacity:1; 
stroke-linecap:round; stroke-linejoin:round;">
</g>
<g style="fill:#D0D2CD; fill-opacity:1.0; 
stroke:#D0D2CD; stroke-width:250000.000000; stroke-opacity:1; 
stroke-linecap:round; stroke-linejoin:round;">
</g>
<g style="fill:#D0D2CD; fill-opacity:0.0; 
stroke:#D0D2CD; stroke-width:250000.000000; stroke-opacity:1; 
stroke-linecap:round; stroke-linejoin:round;">
<path d="M29916236 6466000
L50531764 6466000
" />
<path d="M29916235.986559 6465999.973920 A22500000.000000 22500000.000000 0.0 1 0 50531764.013441 6465999.973920" />
<g >
</g>
<g >
</g>
<g >
</g>
<g >
</g>
<g >
</g>
<g >
</g>
<g >
</g>
<g >
</g>
<g >
</g>
<g >
</g>
<g >
</g>
<g >
</g>
<g >
</g>
<g >
</g>
<g >
</g>
<g >
</g>
<g >
</g>
<g >
</g>
<g >
</g>
<g >
</g>
<g >
</g>
<g >
</g>
<g >
</g>
<g >
</g>
<g >
</g>
<g >
</g>
<g >
</g>
<g >
</g>
<g >
</g>
<g >
</g>
<g >
</g>
<g >
</g>
<g >
</g>
<g >
</g>
<g >
</g>
<g >
</g>
<g >
</g>
<g >
</g>
<g >
</g>
<g >
</g>
<g >
</g>
<g >
</g>
<g >
</g>
<g >
</g>
<g >
</g>
<g >
</g>
<g >
</g>
<g >
</g>
<g >
</g>
<g >
</g>
<g >
</g>
<g >
</g>
<g >
</g>
<g >
</g>
<g >
</g>
<g >
</g>
<g >
</g>
<g >
</g>
<g >
</g>
<g >
</g>
<g >
</g>
<g >
</g>
<g >
</g>
<g >
</g>
<g >
</g>
<g >
</g>
<g >
</g>
<g >
</g>
<g >
</g>
<g >
</g>
<g >
</g>
<g >
</g>
<g >
</g>
<g >
</g>
<g >
</g>
<g >
</g>
<g >
</g>
<g >
</g>
<g >
</g>
<g >
</g>
<g >
</g>
</g> 
</svg>
