%TF.GenerationSoftware,KiCad,Pcbnew,(6.0.4-0)*%
%TF.CreationDate,2022-11-29T10:20:57+01:00*%
%TF.ProjectId,RoundScanner,526f756e-6453-4636-916e-6e65722e6b69,2*%
%TF.SameCoordinates,Original*%
%TF.FileFunction,Copper,L3,Inr*%
%TF.FilePolarity,Positive*%
%FSLAX46Y46*%
G04 Gerber Fmt 4.6, Leading zero omitted, Abs format (unit mm)*
G04 Created by KiCad (PCBNEW (6.0.4-0)) date 2022-11-29 10:20:57*
%MOMM*%
%LPD*%
G01*
G04 APERTURE LIST*
G04 Aperture macros list*
%AMHorizOval*
0 Thick line with rounded ends*
0 $1 width*
0 $2 $3 position (X,Y) of the first rounded end (center of the circle)*
0 $4 $5 position (X,Y) of the second rounded end (center of the circle)*
0 Add line between two ends*
20,1,$1,$2,$3,$4,$5,0*
0 Add two circle primitives to create the rounded ends*
1,1,$1,$2,$3*
1,1,$1,$4,$5*%
%AMRotRect*
0 Rectangle, with rotation*
0 The origin of the aperture is its center*
0 $1 length*
0 $2 width*
0 $3 Rotation angle, in degrees counterclockwise*
0 Add horizontal line*
21,1,$1,$2,0,0,$3*%
G04 Aperture macros list end*
%TA.AperFunction,ComponentPad*%
%ADD10C,3.500000*%
%TD*%
%TA.AperFunction,ComponentPad*%
%ADD11RotRect,1.700000X1.700000X45.000000*%
%TD*%
%TA.AperFunction,ComponentPad*%
%ADD12HorizOval,1.700000X0.000000X0.000000X0.000000X0.000000X0*%
%TD*%
%TA.AperFunction,ComponentPad*%
%ADD13RotRect,1.700000X1.700000X225.000000*%
%TD*%
%TA.AperFunction,ComponentPad*%
%ADD14HorizOval,1.700000X0.000000X0.000000X0.000000X0.000000X0*%
%TD*%
%TA.AperFunction,ViaPad*%
%ADD15C,0.800000*%
%TD*%
%TA.AperFunction,Conductor*%
%ADD16C,0.500000*%
%TD*%
%TA.AperFunction,Conductor*%
%ADD17C,0.250000*%
%TD*%
G04 APERTURE END LIST*
D10*
%TO.N,GND*%
%TO.C,H2*%
X72136000Y-97556000D03*
%TD*%
%TO.N,GND*%
%TO.C,H1*%
X103632000Y-115717000D03*
%TD*%
D11*
%TO.N,GND*%
%TO.C,J4*%
X106299000Y-96139000D03*
D12*
%TO.N,LED RESET*%
X104502949Y-94342949D03*
%TO.N,AS7341_INT*%
X102706898Y-92546898D03*
%TO.N,DRDY_INT*%
X100910846Y-90750846D03*
%TD*%
D13*
%TO.N,GND*%
%TO.C,J1*%
X77975672Y-121628317D03*
D14*
%TO.N,+3V3*%
X79771723Y-123424368D03*
%TO.N,SCL*%
X81567774Y-125220419D03*
%TO.N,SDA*%
X83363826Y-127016471D03*
%TD*%
D15*
%TO.N,+2V5*%
X78613000Y-107696000D03*
X84963000Y-97155000D03*
X88392000Y-122682000D03*
X83185000Y-116459000D03*
X91059000Y-92710000D03*
%TO.N,Net-(C2-Pad2)*%
X88048500Y-91816701D03*
X103251000Y-97155000D03*
%TO.N,+3V3*%
X98552000Y-125603000D03*
X90574204Y-96811500D03*
X89492676Y-125907922D03*
X76200000Y-105410000D03*
X103112663Y-122848000D03*
X106019557Y-104177500D03*
X74676000Y-118745000D03*
X93726000Y-116967000D03*
X86106000Y-109093000D03*
X82042000Y-120142000D03*
X70992059Y-114597111D03*
X105029000Y-110998000D03*
X91402051Y-100123252D03*
X91331250Y-112159250D03*
%TO.N,SDA*%
X74930000Y-109347000D03*
X102743000Y-110998000D03*
X91567000Y-124587000D03*
X80264000Y-111252000D03*
%TO.N,Net-(C8-Pad1)*%
X80645000Y-96012000D03*
X78867000Y-90424000D03*
%TO.N,LED RESET*%
X109601000Y-111633000D03*
%TO.N,Net-(R25-Pad1)*%
X98679000Y-115697000D03*
X108157333Y-108095500D03*
%TO.N,Net-(R26-Pad1)*%
X107061000Y-107315000D03*
X101061788Y-111146613D03*
%TO.N,Net-(R27-Pad1)*%
X106680000Y-105791000D03*
X84836000Y-99441000D03*
%TO.N,Net-(R28-Pad1)*%
X107569000Y-105283000D03*
X88646000Y-98933000D03*
%TO.N,DRDY_INT*%
X72390000Y-105410000D03*
%TO.N,SCL*%
X101981000Y-110109000D03*
X75311000Y-112649000D03*
X90447204Y-123862500D03*
%TO.N,+1V8*%
X80391000Y-110109000D03*
X77597000Y-109093000D03*
X81280000Y-114046000D03*
%TO.N,Net-(C12-Pad1)*%
X87947500Y-121475500D03*
X87884000Y-117094000D03*
%TO.N,/ADC/AIN2+*%
X75565000Y-92583000D03*
X101334663Y-118618000D03*
%TO.N,/ADC/AIN2-*%
X86995000Y-112903000D03*
X77597000Y-90678000D03*
%TO.N,GND*%
X87352950Y-125998450D03*
X84963000Y-116332000D03*
X90551000Y-104140000D03*
X85852000Y-92837000D03*
X108380648Y-109069736D03*
X99187000Y-101346000D03*
X68580000Y-105029000D03*
X97790000Y-89789000D03*
X95123000Y-94361000D03*
X84201000Y-109407502D03*
X70231000Y-100076000D03*
X90678000Y-90043000D03*
X98286663Y-122936000D03*
X77089000Y-124333000D03*
X85217000Y-107569000D03*
X105791000Y-119126000D03*
X76708000Y-97917000D03*
X80899000Y-103505000D03*
X79121000Y-102489000D03*
X104013000Y-99187000D03*
X79502000Y-118618000D03*
X97663000Y-99060000D03*
%TO.N,AS7341_INT*%
X83439000Y-106238498D03*
%TD*%
D16*
%TO.N,+3V3*%
X89797598Y-125603000D02*
X98552000Y-125603000D01*
X89492676Y-125907922D02*
X89797598Y-125603000D01*
D17*
%TO.N,SDA*%
X85793297Y-124587000D02*
X83363826Y-127016471D01*
X74422000Y-109855000D02*
X74422000Y-117094000D01*
X74930000Y-109347000D02*
X76200000Y-109347000D01*
X74930000Y-109347000D02*
X74422000Y-109855000D01*
X76200000Y-109347000D02*
X78105000Y-111252000D01*
X102743000Y-113411000D02*
X91567000Y-124587000D01*
X81041767Y-127016471D02*
X83363826Y-127016471D01*
X75750490Y-121725194D02*
X81041767Y-127016471D01*
X74422000Y-117094000D02*
X75750489Y-118422489D01*
X102743000Y-110998000D02*
X102743000Y-113411000D01*
X78105000Y-111252000D02*
X80264000Y-111252000D01*
X91567000Y-124587000D02*
X85793297Y-124587000D01*
X75750489Y-118422489D02*
X75750490Y-121725194D01*
%TO.N,DRDY_INT*%
X87503000Y-98425000D02*
X88392000Y-97536000D01*
X79375000Y-98425000D02*
X87503000Y-98425000D01*
X88392000Y-97536000D02*
X95250000Y-97536000D01*
X72390000Y-105410000D02*
X79375000Y-98425000D01*
X100659175Y-92126825D02*
X100659175Y-90661530D01*
X95250000Y-97536000D02*
X100659175Y-92126825D01*
%TO.N,SCL*%
X101981000Y-110109000D02*
X101981000Y-111252000D01*
X82925693Y-123862500D02*
X90447204Y-123862500D01*
X101981000Y-111252000D02*
X90447204Y-122785796D01*
X90447204Y-122785796D02*
X90447204Y-123862500D01*
X81567774Y-125220419D02*
X82925693Y-123862500D01*
X75311000Y-112649000D02*
X75311000Y-117302623D01*
X79881419Y-125220419D02*
X81567774Y-125220419D01*
X76200000Y-118191623D02*
X76200000Y-121539000D01*
X76200000Y-121539000D02*
X79881419Y-125220419D01*
X75311000Y-117302623D02*
X76200000Y-118191623D01*
%TO.N,Net-(C12-Pad1)*%
X87947500Y-117157500D02*
X87884000Y-117094000D01*
X87947500Y-121475500D02*
X87947500Y-117157500D01*
%TD*%
%TA.AperFunction,Conductor*%
%TO.N,+3V3*%
G36*
X99414045Y-88150756D02*
G01*
X100033095Y-88486703D01*
X100037732Y-88489350D01*
X100624809Y-88841150D01*
X100695766Y-88883670D01*
X100743917Y-88935842D01*
X100756218Y-89005765D01*
X100728763Y-89071238D01*
X100670269Y-89111474D01*
X100653682Y-89115481D01*
X100651852Y-89115625D01*
X100647043Y-89116779D01*
X100647040Y-89116780D01*
X100560861Y-89137470D01*
X100399236Y-89176273D01*
X100394665Y-89178166D01*
X100394663Y-89178167D01*
X100163792Y-89273797D01*
X100163788Y-89273799D01*
X100159218Y-89275692D01*
X99937706Y-89411434D01*
X99740157Y-89580157D01*
X99571434Y-89777706D01*
X99435692Y-89999218D01*
X99433799Y-90003788D01*
X99433797Y-90003792D01*
X99348364Y-90210046D01*
X99336273Y-90239236D01*
X99325425Y-90284422D01*
X99276780Y-90487039D01*
X99276779Y-90487045D01*
X99275625Y-90491852D01*
X99255242Y-90750846D01*
X99275625Y-91009840D01*
X99276779Y-91014647D01*
X99276780Y-91014653D01*
X99308379Y-91146268D01*
X99336273Y-91262456D01*
X99338166Y-91267027D01*
X99338167Y-91267029D01*
X99433738Y-91497756D01*
X99435692Y-91502474D01*
X99571434Y-91723986D01*
X99574643Y-91727743D01*
X99579505Y-91733436D01*
X99608534Y-91798227D01*
X99597926Y-91868427D01*
X99572786Y-91904359D01*
X96357675Y-95119470D01*
X96295363Y-95153496D01*
X96224548Y-95148431D01*
X96167712Y-95105884D01*
X96142901Y-95039364D01*
X96158646Y-94968809D01*
X96221586Y-94856422D01*
X96221587Y-94856420D01*
X96224410Y-94851379D01*
X96226266Y-94845912D01*
X96226268Y-94845907D01*
X96293475Y-94647921D01*
X96293476Y-94647916D01*
X96295331Y-94642452D01*
X96296159Y-94636743D01*
X96296160Y-94636738D01*
X96326458Y-94427772D01*
X96326991Y-94424098D01*
X96328643Y-94361000D01*
X96308454Y-94141289D01*
X96248565Y-93928936D01*
X96150980Y-93731053D01*
X96140925Y-93717587D01*
X96022420Y-93558891D01*
X96022420Y-93558890D01*
X96018967Y-93554267D01*
X95856949Y-93404499D01*
X95670350Y-93286764D01*
X95465421Y-93205006D01*
X95459761Y-93203880D01*
X95459757Y-93203879D01*
X95254691Y-93163089D01*
X95254688Y-93163089D01*
X95249024Y-93161962D01*
X95243249Y-93161886D01*
X95243245Y-93161886D01*
X95132504Y-93160437D01*
X95028406Y-93159074D01*
X95022709Y-93160053D01*
X95022708Y-93160053D01*
X94816654Y-93195459D01*
X94816653Y-93195459D01*
X94810957Y-93196438D01*
X94603957Y-93272804D01*
X94598996Y-93275756D01*
X94598995Y-93275756D01*
X94521423Y-93321907D01*
X94414341Y-93385614D01*
X94248457Y-93531090D01*
X94111863Y-93704360D01*
X94009131Y-93899620D01*
X93943703Y-94110333D01*
X93917770Y-94329440D01*
X93932200Y-94549604D01*
X93933621Y-94555200D01*
X93933622Y-94555205D01*
X93985090Y-94757857D01*
X93986511Y-94763452D01*
X93988928Y-94768694D01*
X93988928Y-94768695D01*
X94024778Y-94846459D01*
X94078883Y-94963821D01*
X94206222Y-95144002D01*
X94364264Y-95297961D01*
X94369060Y-95301166D01*
X94369063Y-95301168D01*
X94483192Y-95377426D01*
X94547717Y-95420540D01*
X94553020Y-95422818D01*
X94553023Y-95422820D01*
X94745129Y-95505355D01*
X94750436Y-95507635D01*
X94791143Y-95516846D01*
X94959995Y-95555054D01*
X94960001Y-95555055D01*
X94965632Y-95556329D01*
X94971403Y-95556556D01*
X94971405Y-95556556D01*
X95039211Y-95559220D01*
X95186098Y-95564991D01*
X95295275Y-95549161D01*
X95398738Y-95534160D01*
X95398743Y-95534159D01*
X95404452Y-95533331D01*
X95409916Y-95531476D01*
X95409921Y-95531475D01*
X95607907Y-95464268D01*
X95607912Y-95464266D01*
X95613379Y-95462410D01*
X95730809Y-95396646D01*
X95800017Y-95380812D01*
X95866799Y-95404909D01*
X95909952Y-95461286D01*
X95915775Y-95532043D01*
X95881470Y-95595675D01*
X94903550Y-96573595D01*
X94841238Y-96607621D01*
X94814455Y-96610500D01*
X88474758Y-96610500D01*
X88455049Y-96608949D01*
X88440703Y-96606677D01*
X88434116Y-96607022D01*
X88434111Y-96607022D01*
X88371058Y-96610327D01*
X88364464Y-96610500D01*
X88343496Y-96610500D01*
X88340224Y-96610844D01*
X88340222Y-96610844D01*
X88322636Y-96612692D01*
X88316062Y-96613209D01*
X88253017Y-96616513D01*
X88253014Y-96616514D01*
X88246422Y-96616859D01*
X88232393Y-96620618D01*
X88212951Y-96624221D01*
X88198518Y-96625738D01*
X88132196Y-96647287D01*
X88125885Y-96649157D01*
X88058503Y-96667212D01*
X88052623Y-96670208D01*
X88045563Y-96673805D01*
X88027300Y-96681370D01*
X88013492Y-96685856D01*
X88007776Y-96689156D01*
X88007774Y-96689157D01*
X87953081Y-96720734D01*
X87947283Y-96723882D01*
X87885160Y-96755535D01*
X87880028Y-96759690D01*
X87880026Y-96759692D01*
X87873873Y-96764674D01*
X87857588Y-96775867D01*
X87845008Y-96783130D01*
X87840099Y-96787550D01*
X87840095Y-96787553D01*
X87793179Y-96829796D01*
X87788164Y-96834080D01*
X87780083Y-96840624D01*
X87771870Y-96847275D01*
X87757055Y-96862090D01*
X87752271Y-96866631D01*
X87710399Y-96904333D01*
X87700431Y-96913308D01*
X87691896Y-96925056D01*
X87679054Y-96940091D01*
X87156550Y-97462595D01*
X87094238Y-97496621D01*
X87067455Y-97499500D01*
X86271776Y-97499500D01*
X86203655Y-97479498D01*
X86157162Y-97425842D01*
X86147080Y-97355420D01*
X86148793Y-97343604D01*
X86166991Y-97218098D01*
X86168643Y-97155000D01*
X86148454Y-96935289D01*
X86144273Y-96920462D01*
X86105541Y-96783130D01*
X86088565Y-96722936D01*
X85990980Y-96525053D01*
X85974049Y-96502379D01*
X85862420Y-96352891D01*
X85862420Y-96352890D01*
X85858967Y-96348267D01*
X85758145Y-96255068D01*
X85701189Y-96202418D01*
X85701186Y-96202416D01*
X85696949Y-96198499D01*
X85510350Y-96080764D01*
X85305421Y-95999006D01*
X85299761Y-95997880D01*
X85299757Y-95997879D01*
X85094691Y-95957089D01*
X85094688Y-95957089D01*
X85089024Y-95955962D01*
X85083249Y-95955886D01*
X85083245Y-95955886D01*
X84972504Y-95954437D01*
X84868406Y-95953074D01*
X84862709Y-95954053D01*
X84862708Y-95954053D01*
X84656654Y-95989459D01*
X84656653Y-95989459D01*
X84650957Y-95990438D01*
X84443957Y-96066804D01*
X84438996Y-96069756D01*
X84438995Y-96069756D01*
X84334368Y-96132003D01*
X84254341Y-96179614D01*
X84088457Y-96325090D01*
X83951863Y-96498360D01*
X83849131Y-96693620D01*
X83783703Y-96904333D01*
X83757770Y-97123440D01*
X83772200Y-97343604D01*
X83773624Y-97349212D01*
X83774349Y-97353788D01*
X83765250Y-97424199D01*
X83719528Y-97478514D01*
X83649900Y-97499500D01*
X79457759Y-97499500D01*
X79438050Y-97497949D01*
X79423704Y-97495677D01*
X79417117Y-97496022D01*
X79417112Y-97496022D01*
X79354059Y-97499327D01*
X79347465Y-97499500D01*
X79326496Y-97499500D01*
X79310077Y-97501226D01*
X79305639Y-97501692D01*
X79299064Y-97502209D01*
X79236016Y-97505513D01*
X79236012Y-97505514D01*
X79229422Y-97505859D01*
X79215393Y-97509618D01*
X79195951Y-97513221D01*
X79181518Y-97514738D01*
X79115196Y-97536287D01*
X79108885Y-97538157D01*
X79066598Y-97549488D01*
X79057066Y-97552042D01*
X79041503Y-97556212D01*
X79035623Y-97559208D01*
X79028563Y-97562805D01*
X79010300Y-97570370D01*
X78996492Y-97574856D01*
X78990776Y-97578156D01*
X78990774Y-97578157D01*
X78936081Y-97609734D01*
X78930283Y-97612882D01*
X78868160Y-97644535D01*
X78863028Y-97648690D01*
X78863026Y-97648692D01*
X78856873Y-97653674D01*
X78840588Y-97664867D01*
X78828008Y-97672130D01*
X78823099Y-97676550D01*
X78823095Y-97676553D01*
X78776179Y-97718796D01*
X78771164Y-97723080D01*
X78762525Y-97730076D01*
X78754870Y-97736275D01*
X78740055Y-97751090D01*
X78735271Y-97755631D01*
X78683431Y-97802308D01*
X78674891Y-97814063D01*
X78662066Y-97829079D01*
X78050525Y-98440620D01*
X77988215Y-98474644D01*
X77917399Y-98469579D01*
X77860564Y-98427032D01*
X77835753Y-98360512D01*
X77842119Y-98311022D01*
X77878475Y-98203921D01*
X77878476Y-98203916D01*
X77880331Y-98198452D01*
X77881159Y-98192743D01*
X77881160Y-98192738D01*
X77905395Y-98025590D01*
X77911991Y-97980098D01*
X77913643Y-97917000D01*
X77893454Y-97697289D01*
X77882913Y-97659911D01*
X77841542Y-97513221D01*
X77833565Y-97484936D01*
X77735980Y-97287053D01*
X77676617Y-97207556D01*
X77607420Y-97114891D01*
X77607420Y-97114890D01*
X77603967Y-97110267D01*
X77441949Y-96960499D01*
X77255350Y-96842764D01*
X77050421Y-96761006D01*
X77044761Y-96759880D01*
X77044757Y-96759879D01*
X76839691Y-96719089D01*
X76839688Y-96719089D01*
X76834024Y-96717962D01*
X76828249Y-96717886D01*
X76828245Y-96717886D01*
X76717504Y-96716437D01*
X76613406Y-96715074D01*
X76607709Y-96716053D01*
X76607708Y-96716053D01*
X76401654Y-96751459D01*
X76401653Y-96751459D01*
X76395957Y-96752438D01*
X76188957Y-96828804D01*
X76183996Y-96831756D01*
X76183995Y-96831756D01*
X76010319Y-96935083D01*
X75999341Y-96941614D01*
X75833457Y-97087090D01*
X75696863Y-97260360D01*
X75594131Y-97455620D01*
X75528703Y-97666333D01*
X75502770Y-97885440D01*
X75517200Y-98105604D01*
X75518621Y-98111200D01*
X75518622Y-98111205D01*
X75549915Y-98234418D01*
X75571511Y-98319452D01*
X75573928Y-98324694D01*
X75573928Y-98324695D01*
X75651511Y-98492985D01*
X75663883Y-98519821D01*
X75791222Y-98700002D01*
X75949264Y-98853961D01*
X75954060Y-98857166D01*
X75954063Y-98857168D01*
X76072543Y-98936333D01*
X76132717Y-98976540D01*
X76138020Y-98978818D01*
X76138023Y-98978820D01*
X76253517Y-99028440D01*
X76335436Y-99063635D01*
X76411626Y-99080875D01*
X76544995Y-99111054D01*
X76545001Y-99111055D01*
X76550632Y-99112329D01*
X76556403Y-99112556D01*
X76556405Y-99112556D01*
X76624211Y-99115220D01*
X76771098Y-99120991D01*
X76880275Y-99105161D01*
X76983738Y-99090160D01*
X76983743Y-99090159D01*
X76989452Y-99089331D01*
X76994916Y-99087476D01*
X76994921Y-99087475D01*
X77102022Y-99051119D01*
X77172957Y-99048163D01*
X77234229Y-99084026D01*
X77266386Y-99147323D01*
X77259217Y-99217957D01*
X77231618Y-99259527D01*
X72308818Y-104182327D01*
X72241061Y-104217412D01*
X72077957Y-104245438D01*
X71870957Y-104321804D01*
X71865996Y-104324756D01*
X71865995Y-104324756D01*
X71713069Y-104415738D01*
X71681341Y-104434614D01*
X71515457Y-104580090D01*
X71378863Y-104753360D01*
X71276131Y-104948620D01*
X71210703Y-105159333D01*
X71184770Y-105378440D01*
X71199200Y-105598604D01*
X71200621Y-105604200D01*
X71200622Y-105604205D01*
X71241512Y-105765206D01*
X71253511Y-105812452D01*
X71255928Y-105817694D01*
X71255928Y-105817695D01*
X71321919Y-105960839D01*
X71345883Y-106012821D01*
X71473222Y-106193002D01*
X71631264Y-106346961D01*
X71636060Y-106350166D01*
X71636063Y-106350168D01*
X71733310Y-106415146D01*
X71814717Y-106469540D01*
X71820020Y-106471818D01*
X71820023Y-106471820D01*
X71958788Y-106531438D01*
X72017436Y-106556635D01*
X72073350Y-106569287D01*
X72226995Y-106604054D01*
X72227001Y-106604055D01*
X72232632Y-106605329D01*
X72238403Y-106605556D01*
X72238405Y-106605556D01*
X72306211Y-106608220D01*
X72453098Y-106613991D01*
X72562275Y-106598161D01*
X72665738Y-106583160D01*
X72665743Y-106583159D01*
X72671452Y-106582331D01*
X72676916Y-106580476D01*
X72676921Y-106580475D01*
X72874907Y-106513268D01*
X72874912Y-106513266D01*
X72880379Y-106511410D01*
X72885992Y-106508267D01*
X73008698Y-106439548D01*
X73072884Y-106403602D01*
X73084645Y-106393821D01*
X73238086Y-106266204D01*
X73242518Y-106262518D01*
X73288744Y-106206938D01*
X82233770Y-106206938D01*
X82248200Y-106427102D01*
X82249621Y-106432698D01*
X82249622Y-106432703D01*
X82295664Y-106613991D01*
X82302511Y-106640950D01*
X82394883Y-106841319D01*
X82522222Y-107021500D01*
X82680264Y-107175459D01*
X82685060Y-107178664D01*
X82685063Y-107178666D01*
X82761148Y-107229504D01*
X82863717Y-107298038D01*
X82869020Y-107300316D01*
X82869023Y-107300318D01*
X83016633Y-107363736D01*
X83066436Y-107385133D01*
X83130371Y-107399600D01*
X83275995Y-107432552D01*
X83276001Y-107432553D01*
X83281632Y-107433827D01*
X83287403Y-107434054D01*
X83287405Y-107434054D01*
X83355211Y-107436718D01*
X83502098Y-107442489D01*
X83611275Y-107426659D01*
X83714738Y-107411658D01*
X83714743Y-107411657D01*
X83720452Y-107410829D01*
X83725916Y-107408974D01*
X83725921Y-107408973D01*
X83850477Y-107366692D01*
X83921412Y-107363736D01*
X83982685Y-107399600D01*
X84014841Y-107462896D01*
X84016105Y-107500814D01*
X84011770Y-107537440D01*
X84026200Y-107757604D01*
X84027621Y-107763200D01*
X84027622Y-107763205D01*
X84058454Y-107884604D01*
X84080511Y-107971452D01*
X84113676Y-108043393D01*
X84124031Y-108113627D01*
X84094769Y-108178313D01*
X84035181Y-108216910D01*
X84020588Y-108220322D01*
X83894654Y-108241961D01*
X83894653Y-108241961D01*
X83888957Y-108242940D01*
X83681957Y-108319306D01*
X83676996Y-108322258D01*
X83676995Y-108322258D01*
X83509607Y-108421844D01*
X83492341Y-108432116D01*
X83326457Y-108577592D01*
X83189863Y-108750862D01*
X83087131Y-108946122D01*
X83021703Y-109156835D01*
X82995770Y-109375942D01*
X83010200Y-109596106D01*
X83011621Y-109601702D01*
X83011622Y-109601707D01*
X83049950Y-109752620D01*
X83064511Y-109809954D01*
X83066928Y-109815196D01*
X83066928Y-109815197D01*
X83103739Y-109895046D01*
X83156883Y-110010323D01*
X83284222Y-110190504D01*
X83442264Y-110344463D01*
X83447060Y-110347668D01*
X83447063Y-110347670D01*
X83529543Y-110402781D01*
X83625717Y-110467042D01*
X83631020Y-110469320D01*
X83631023Y-110469322D01*
X83802062Y-110542806D01*
X83828436Y-110554137D01*
X83880580Y-110565936D01*
X84037995Y-110601556D01*
X84038001Y-110601557D01*
X84043632Y-110602831D01*
X84049403Y-110603058D01*
X84049405Y-110603058D01*
X84117211Y-110605722D01*
X84264098Y-110611493D01*
X84385386Y-110593907D01*
X84476738Y-110580662D01*
X84476743Y-110580661D01*
X84482452Y-110579833D01*
X84487916Y-110577978D01*
X84487921Y-110577977D01*
X84685907Y-110510770D01*
X84685912Y-110510768D01*
X84691379Y-110508912D01*
X84716073Y-110495083D01*
X84825212Y-110433962D01*
X84883884Y-110401104D01*
X84923624Y-110368053D01*
X85038034Y-110272898D01*
X85053518Y-110260020D01*
X85125889Y-110173004D01*
X85190908Y-110094828D01*
X85190910Y-110094825D01*
X85194602Y-110090386D01*
X85285632Y-109927841D01*
X85299586Y-109902924D01*
X85299587Y-109902922D01*
X85302410Y-109897881D01*
X85304266Y-109892414D01*
X85304268Y-109892409D01*
X85371475Y-109694423D01*
X85371476Y-109694418D01*
X85373331Y-109688954D01*
X85374159Y-109683245D01*
X85374160Y-109683240D01*
X85398463Y-109515623D01*
X85404991Y-109470600D01*
X85406643Y-109407502D01*
X85386454Y-109187791D01*
X85362279Y-109102070D01*
X85328134Y-108981002D01*
X85326565Y-108975438D01*
X85306994Y-108935752D01*
X85294804Y-108865810D01*
X85322363Y-108800381D01*
X85380921Y-108760237D01*
X85401919Y-108755328D01*
X85444046Y-108749219D01*
X85498452Y-108741331D01*
X85503916Y-108739476D01*
X85503921Y-108739475D01*
X85701907Y-108672268D01*
X85701912Y-108672266D01*
X85707379Y-108670410D01*
X85899884Y-108562602D01*
X85912387Y-108552204D01*
X86065086Y-108425204D01*
X86069518Y-108421518D01*
X86108589Y-108374540D01*
X86206908Y-108256326D01*
X86206910Y-108256323D01*
X86210602Y-108251884D01*
X86318410Y-108059379D01*
X86320266Y-108053912D01*
X86320268Y-108053907D01*
X86387475Y-107855921D01*
X86387476Y-107855916D01*
X86389331Y-107850452D01*
X86390159Y-107844743D01*
X86390160Y-107844738D01*
X86409426Y-107711857D01*
X86420991Y-107632098D01*
X86422643Y-107569000D01*
X86402454Y-107349289D01*
X86399809Y-107339908D01*
X86344134Y-107142500D01*
X86342565Y-107136936D01*
X86244980Y-106939053D01*
X86213044Y-106896285D01*
X86116420Y-106766891D01*
X86116420Y-106766890D01*
X86112967Y-106762267D01*
X85981727Y-106640950D01*
X85955189Y-106616418D01*
X85955186Y-106616416D01*
X85950949Y-106612499D01*
X85764350Y-106494764D01*
X85559421Y-106413006D01*
X85553761Y-106411880D01*
X85553757Y-106411879D01*
X85348691Y-106371089D01*
X85348688Y-106371089D01*
X85343024Y-106369962D01*
X85337249Y-106369886D01*
X85337245Y-106369886D01*
X85226504Y-106368437D01*
X85122406Y-106367074D01*
X85116709Y-106368053D01*
X85116708Y-106368053D01*
X84910654Y-106403459D01*
X84910653Y-106403459D01*
X84904957Y-106404438D01*
X84811129Y-106439053D01*
X84740295Y-106443865D01*
X84678105Y-106409618D01*
X84644303Y-106347185D01*
X84643033Y-106309042D01*
X84642143Y-106308966D01*
X84642458Y-106305271D01*
X84642991Y-106301596D01*
X84644643Y-106238498D01*
X84624454Y-106018787D01*
X84622772Y-106012821D01*
X84566134Y-105811998D01*
X84564565Y-105806434D01*
X84541390Y-105759440D01*
X105474770Y-105759440D01*
X105489200Y-105979604D01*
X105490621Y-105985200D01*
X105490622Y-105985205D01*
X105538407Y-106173355D01*
X105543511Y-106193452D01*
X105545928Y-106198694D01*
X105545928Y-106198695D01*
X105593366Y-106301596D01*
X105635883Y-106393821D01*
X105763222Y-106574002D01*
X105767356Y-106578029D01*
X105767361Y-106578035D01*
X105916023Y-106722857D01*
X105950861Y-106784718D01*
X105945199Y-106853020D01*
X105947131Y-106853620D01*
X105881703Y-107064333D01*
X105855770Y-107283440D01*
X105870200Y-107503604D01*
X105871621Y-107509200D01*
X105871622Y-107509205D01*
X105923090Y-107711857D01*
X105924511Y-107717452D01*
X105926928Y-107722694D01*
X105926928Y-107722695D01*
X105990552Y-107860705D01*
X106016883Y-107917821D01*
X106144222Y-108098002D01*
X106302264Y-108251961D01*
X106307060Y-108255166D01*
X106307063Y-108255168D01*
X106398539Y-108316290D01*
X106485717Y-108374540D01*
X106491020Y-108376818D01*
X106491023Y-108376820D01*
X106680969Y-108458427D01*
X106688436Y-108461635D01*
X106903632Y-108510329D01*
X106909401Y-108510556D01*
X106909404Y-108510556D01*
X106951663Y-108512216D01*
X107018946Y-108534877D01*
X107061143Y-108585367D01*
X107113216Y-108698321D01*
X107116549Y-108703037D01*
X107173034Y-108782962D01*
X107196015Y-108850136D01*
X107195264Y-108870491D01*
X107185660Y-108951640D01*
X107175418Y-109038176D01*
X107189848Y-109258340D01*
X107191269Y-109263936D01*
X107191270Y-109263941D01*
X107217886Y-109368738D01*
X107244159Y-109472188D01*
X107246576Y-109477430D01*
X107246576Y-109477431D01*
X107284694Y-109560115D01*
X107336531Y-109672557D01*
X107463870Y-109852738D01*
X107621912Y-110006697D01*
X107626708Y-110009902D01*
X107626711Y-110009904D01*
X107727787Y-110077440D01*
X107805365Y-110129276D01*
X107810668Y-110131554D01*
X107810671Y-110131556D01*
X108002777Y-110214091D01*
X108008084Y-110216371D01*
X108087736Y-110234394D01*
X108217643Y-110263790D01*
X108217649Y-110263791D01*
X108223280Y-110265065D01*
X108229051Y-110265292D01*
X108229053Y-110265292D01*
X108296859Y-110267956D01*
X108443746Y-110273727D01*
X108568848Y-110255588D01*
X108656386Y-110242896D01*
X108656391Y-110242895D01*
X108662100Y-110242067D01*
X108667564Y-110240212D01*
X108667569Y-110240211D01*
X108865555Y-110173004D01*
X108865560Y-110173002D01*
X108871027Y-110171146D01*
X109063532Y-110063338D01*
X109071852Y-110056419D01*
X109228734Y-109925940D01*
X109233166Y-109922254D01*
X109274597Y-109872439D01*
X109370556Y-109757062D01*
X109370558Y-109757059D01*
X109374250Y-109752620D01*
X109482058Y-109560115D01*
X109483914Y-109554648D01*
X109483916Y-109554643D01*
X109551123Y-109356657D01*
X109551124Y-109356652D01*
X109552979Y-109351188D01*
X109553807Y-109345479D01*
X109553808Y-109345474D01*
X109575836Y-109193548D01*
X109584639Y-109132834D01*
X109586291Y-109069736D01*
X109566102Y-108850025D01*
X109540780Y-108760237D01*
X109535681Y-108742159D01*
X109506213Y-108637672D01*
X109408628Y-108439789D01*
X109400693Y-108429162D01*
X109366101Y-108382839D01*
X109341369Y-108316290D01*
X109342363Y-108289370D01*
X109346795Y-108258804D01*
X109361324Y-108158598D01*
X109362976Y-108095500D01*
X109342787Y-107875789D01*
X109282898Y-107663436D01*
X109185313Y-107465553D01*
X109161792Y-107434054D01*
X109056753Y-107293391D01*
X109056753Y-107293390D01*
X109053300Y-107288767D01*
X108955919Y-107198749D01*
X108895522Y-107142918D01*
X108895519Y-107142916D01*
X108891282Y-107138999D01*
X108704683Y-107021264D01*
X108499754Y-106939506D01*
X108494094Y-106938380D01*
X108494090Y-106938379D01*
X108289025Y-106897589D01*
X108289020Y-106897589D01*
X108283357Y-106896462D01*
X108277580Y-106896386D01*
X108277577Y-106896386D01*
X108269853Y-106896285D01*
X108202001Y-106875392D01*
X108158499Y-106826024D01*
X108125127Y-106758351D01*
X108088980Y-106685053D01*
X108007138Y-106575454D01*
X107982406Y-106508905D01*
X107997580Y-106439548D01*
X108047842Y-106389406D01*
X108054831Y-106385954D01*
X108059379Y-106384410D01*
X108064422Y-106381586D01*
X108064426Y-106381584D01*
X108213877Y-106297887D01*
X108251884Y-106276602D01*
X108264387Y-106266204D01*
X108417086Y-106139204D01*
X108421518Y-106135518D01*
X108460589Y-106088540D01*
X108558908Y-105970326D01*
X108558910Y-105970323D01*
X108562602Y-105965884D01*
X108648782Y-105811998D01*
X108667586Y-105778422D01*
X108667587Y-105778420D01*
X108670410Y-105773379D01*
X108672266Y-105767912D01*
X108672268Y-105767907D01*
X108739475Y-105569921D01*
X108739476Y-105569916D01*
X108741331Y-105564452D01*
X108742159Y-105558743D01*
X108742160Y-105558738D01*
X108764483Y-105404776D01*
X108772991Y-105346098D01*
X108774643Y-105283000D01*
X108754454Y-105063289D01*
X108748052Y-105040587D01*
X108700150Y-104870738D01*
X108694565Y-104850936D01*
X108596980Y-104653053D01*
X108580049Y-104630379D01*
X108468420Y-104480891D01*
X108468420Y-104480890D01*
X108464967Y-104476267D01*
X108331711Y-104353086D01*
X108307189Y-104330418D01*
X108307186Y-104330416D01*
X108302949Y-104326499D01*
X108116350Y-104208764D01*
X107911421Y-104127006D01*
X107905761Y-104125880D01*
X107905757Y-104125879D01*
X107700691Y-104085089D01*
X107700688Y-104085089D01*
X107695024Y-104083962D01*
X107689249Y-104083886D01*
X107689245Y-104083886D01*
X107578504Y-104082437D01*
X107474406Y-104081074D01*
X107468709Y-104082053D01*
X107468708Y-104082053D01*
X107262654Y-104117459D01*
X107262653Y-104117459D01*
X107256957Y-104118438D01*
X107049957Y-104194804D01*
X106860341Y-104307614D01*
X106694457Y-104453090D01*
X106690878Y-104457630D01*
X106690877Y-104457631D01*
X106617491Y-104550722D01*
X106559610Y-104591836D01*
X106539881Y-104596897D01*
X106500950Y-104603586D01*
X106373654Y-104625459D01*
X106373653Y-104625459D01*
X106367957Y-104626438D01*
X106160957Y-104702804D01*
X106155996Y-104705756D01*
X106155995Y-104705756D01*
X105991325Y-104803725D01*
X105971341Y-104815614D01*
X105805457Y-104961090D01*
X105668863Y-105134360D01*
X105566131Y-105329620D01*
X105500703Y-105540333D01*
X105474770Y-105759440D01*
X84541390Y-105759440D01*
X84466980Y-105608551D01*
X84438134Y-105569921D01*
X84338420Y-105436389D01*
X84338420Y-105436388D01*
X84334967Y-105431765D01*
X84205764Y-105312331D01*
X84177189Y-105285916D01*
X84177186Y-105285914D01*
X84172949Y-105281997D01*
X83986350Y-105164262D01*
X83781421Y-105082504D01*
X83775761Y-105081378D01*
X83775757Y-105081377D01*
X83570691Y-105040587D01*
X83570688Y-105040587D01*
X83565024Y-105039460D01*
X83559249Y-105039384D01*
X83559245Y-105039384D01*
X83448504Y-105037935D01*
X83344406Y-105036572D01*
X83338709Y-105037551D01*
X83338708Y-105037551D01*
X83132654Y-105072957D01*
X83132653Y-105072957D01*
X83126957Y-105073936D01*
X82919957Y-105150302D01*
X82914996Y-105153254D01*
X82914995Y-105153254D01*
X82763696Y-105243268D01*
X82730341Y-105263112D01*
X82564457Y-105408588D01*
X82427863Y-105581858D01*
X82325131Y-105777118D01*
X82288557Y-105894907D01*
X82262258Y-105979604D01*
X82259703Y-105987831D01*
X82233770Y-106206938D01*
X73288744Y-106206938D01*
X73293407Y-106201331D01*
X73379908Y-106097326D01*
X73379910Y-106097323D01*
X73383602Y-106092884D01*
X73491410Y-105900379D01*
X73493266Y-105894912D01*
X73493268Y-105894907D01*
X73560475Y-105696921D01*
X73560476Y-105696916D01*
X73562331Y-105691452D01*
X73580903Y-105563366D01*
X73610472Y-105498822D01*
X73616503Y-105492352D01*
X76651415Y-102457440D01*
X77915770Y-102457440D01*
X77930200Y-102677604D01*
X77931621Y-102683200D01*
X77931622Y-102683205D01*
X77936622Y-102702891D01*
X77984511Y-102891452D01*
X77986928Y-102896694D01*
X77986928Y-102896695D01*
X78007336Y-102940962D01*
X78076883Y-103091821D01*
X78204222Y-103272002D01*
X78362264Y-103425961D01*
X78367060Y-103429166D01*
X78367063Y-103429168D01*
X78481192Y-103505426D01*
X78545717Y-103548540D01*
X78551020Y-103550818D01*
X78551023Y-103550820D01*
X78743129Y-103633355D01*
X78748436Y-103635635D01*
X78790111Y-103645065D01*
X78957995Y-103683054D01*
X78958001Y-103683055D01*
X78963632Y-103684329D01*
X78969403Y-103684556D01*
X78969405Y-103684556D01*
X79037211Y-103687220D01*
X79184098Y-103692991D01*
X79293275Y-103677161D01*
X79396738Y-103662160D01*
X79396743Y-103662159D01*
X79402452Y-103661331D01*
X79407916Y-103659476D01*
X79407921Y-103659475D01*
X79547316Y-103612157D01*
X79618251Y-103609201D01*
X79679524Y-103645065D01*
X79709940Y-103700455D01*
X79761089Y-103901855D01*
X79761091Y-103901860D01*
X79762511Y-103907452D01*
X79764928Y-103912694D01*
X79764928Y-103912695D01*
X79803046Y-103995379D01*
X79854883Y-104107821D01*
X79982222Y-104288002D01*
X80140264Y-104441961D01*
X80145060Y-104445166D01*
X80145063Y-104445168D01*
X80229261Y-104501427D01*
X80323717Y-104564540D01*
X80329020Y-104566818D01*
X80329023Y-104566820D01*
X80467788Y-104626438D01*
X80526436Y-104651635D01*
X80606088Y-104669658D01*
X80735995Y-104699054D01*
X80736001Y-104699055D01*
X80741632Y-104700329D01*
X80747403Y-104700556D01*
X80747405Y-104700556D01*
X80815211Y-104703220D01*
X80962098Y-104708991D01*
X81071275Y-104693161D01*
X81174738Y-104678160D01*
X81174743Y-104678159D01*
X81180452Y-104677331D01*
X81185916Y-104675476D01*
X81185921Y-104675475D01*
X81383907Y-104608268D01*
X81383912Y-104608266D01*
X81389379Y-104606410D01*
X81428267Y-104584632D01*
X81513575Y-104536857D01*
X81581884Y-104498602D01*
X81613448Y-104472351D01*
X81747086Y-104361204D01*
X81751518Y-104357518D01*
X81813256Y-104283287D01*
X81888908Y-104192326D01*
X81888910Y-104192323D01*
X81892602Y-104187884D01*
X81937093Y-104108440D01*
X89345770Y-104108440D01*
X89360200Y-104328604D01*
X89361621Y-104334200D01*
X89361622Y-104334205D01*
X89391816Y-104453090D01*
X89414511Y-104542452D01*
X89416928Y-104547694D01*
X89416928Y-104547695D01*
X89452778Y-104625459D01*
X89506883Y-104742821D01*
X89634222Y-104923002D01*
X89792264Y-105076961D01*
X89797060Y-105080166D01*
X89797063Y-105080168D01*
X89924129Y-105165070D01*
X89975717Y-105199540D01*
X89981020Y-105201818D01*
X89981023Y-105201820D01*
X90160467Y-105278915D01*
X90178436Y-105286635D01*
X90258088Y-105304658D01*
X90387995Y-105334054D01*
X90388001Y-105334055D01*
X90393632Y-105335329D01*
X90399403Y-105335556D01*
X90399405Y-105335556D01*
X90467211Y-105338220D01*
X90614098Y-105343991D01*
X90723275Y-105328161D01*
X90826738Y-105313160D01*
X90826743Y-105313159D01*
X90832452Y-105312331D01*
X90837916Y-105310476D01*
X90837921Y-105310475D01*
X91035907Y-105243268D01*
X91035912Y-105243266D01*
X91041379Y-105241410D01*
X91233884Y-105133602D01*
X91279370Y-105095772D01*
X91399086Y-104996204D01*
X91403518Y-104992518D01*
X91507026Y-104868064D01*
X91540908Y-104827326D01*
X91540910Y-104827323D01*
X91544602Y-104822884D01*
X91627155Y-104675475D01*
X91649586Y-104635422D01*
X91649587Y-104635420D01*
X91652410Y-104630379D01*
X91654266Y-104624912D01*
X91654268Y-104624907D01*
X91721475Y-104426921D01*
X91721476Y-104426916D01*
X91723331Y-104421452D01*
X91724159Y-104415743D01*
X91724160Y-104415738D01*
X91751541Y-104226891D01*
X91754991Y-104203098D01*
X91756643Y-104140000D01*
X91736454Y-103920289D01*
X91720427Y-103863459D01*
X91700251Y-103791921D01*
X91676565Y-103707936D01*
X91578980Y-103510053D01*
X91446967Y-103333267D01*
X91284949Y-103183499D01*
X91098350Y-103065764D01*
X90893421Y-102984006D01*
X90887761Y-102982880D01*
X90887757Y-102982879D01*
X90682691Y-102942089D01*
X90682688Y-102942089D01*
X90677024Y-102940962D01*
X90671249Y-102940886D01*
X90671245Y-102940886D01*
X90560504Y-102939437D01*
X90456406Y-102938074D01*
X90450709Y-102939053D01*
X90450708Y-102939053D01*
X90244654Y-102974459D01*
X90244653Y-102974459D01*
X90238957Y-102975438D01*
X90031957Y-103051804D01*
X90026996Y-103054756D01*
X90026995Y-103054756D01*
X89964695Y-103091821D01*
X89842341Y-103164614D01*
X89676457Y-103310090D01*
X89539863Y-103483360D01*
X89437131Y-103678620D01*
X89371703Y-103889333D01*
X89345770Y-104108440D01*
X81937093Y-104108440D01*
X82000410Y-103995379D01*
X82002266Y-103989912D01*
X82002268Y-103989907D01*
X82069475Y-103791921D01*
X82069476Y-103791916D01*
X82071331Y-103786452D01*
X82072159Y-103780743D01*
X82072160Y-103780738D01*
X82093014Y-103636910D01*
X82102991Y-103568098D01*
X82104643Y-103505000D01*
X82084454Y-103285289D01*
X82081843Y-103276029D01*
X82026134Y-103078500D01*
X82024565Y-103072936D01*
X81926980Y-102875053D01*
X81794967Y-102698267D01*
X81632949Y-102548499D01*
X81446350Y-102430764D01*
X81241421Y-102349006D01*
X81235761Y-102347880D01*
X81235757Y-102347879D01*
X81030691Y-102307089D01*
X81030688Y-102307089D01*
X81025024Y-102305962D01*
X81019249Y-102305886D01*
X81019245Y-102305886D01*
X80908504Y-102304437D01*
X80804406Y-102303074D01*
X80798709Y-102304053D01*
X80798708Y-102304053D01*
X80592654Y-102339459D01*
X80592653Y-102339459D01*
X80586957Y-102340438D01*
X80476030Y-102381361D01*
X80405198Y-102386173D01*
X80343007Y-102351926D01*
X80309205Y-102289493D01*
X80307104Y-102275701D01*
X80306983Y-102275050D01*
X80306454Y-102269289D01*
X80246565Y-102056936D01*
X80148980Y-101859053D01*
X80132049Y-101836379D01*
X80020420Y-101686891D01*
X80020420Y-101686890D01*
X80016967Y-101682267D01*
X79919586Y-101592249D01*
X79859189Y-101536418D01*
X79859186Y-101536416D01*
X79854949Y-101532499D01*
X79668350Y-101414764D01*
X79463421Y-101333006D01*
X79457761Y-101331880D01*
X79457757Y-101331879D01*
X79370085Y-101314440D01*
X97981770Y-101314440D01*
X97996200Y-101534604D01*
X97997621Y-101540200D01*
X97997622Y-101540205D01*
X98027816Y-101659090D01*
X98050511Y-101748452D01*
X98052928Y-101753694D01*
X98052928Y-101753695D01*
X98089193Y-101832360D01*
X98142883Y-101948821D01*
X98270222Y-102129002D01*
X98428264Y-102282961D01*
X98433060Y-102286166D01*
X98433063Y-102286168D01*
X98530310Y-102351146D01*
X98611717Y-102405540D01*
X98617020Y-102407818D01*
X98617023Y-102407820D01*
X98732517Y-102457440D01*
X98814436Y-102492635D01*
X98894088Y-102510658D01*
X99023995Y-102540054D01*
X99024001Y-102540055D01*
X99029632Y-102541329D01*
X99035403Y-102541556D01*
X99035405Y-102541556D01*
X99103211Y-102544220D01*
X99250098Y-102549991D01*
X99359275Y-102534161D01*
X99462738Y-102519160D01*
X99462743Y-102519159D01*
X99468452Y-102518331D01*
X99473916Y-102516476D01*
X99473921Y-102516475D01*
X99671907Y-102449268D01*
X99671912Y-102449266D01*
X99677379Y-102447410D01*
X99869884Y-102339602D01*
X99908977Y-102307089D01*
X100035086Y-102202204D01*
X100039518Y-102198518D01*
X100152644Y-102062500D01*
X100176908Y-102033326D01*
X100176910Y-102033323D01*
X100180602Y-102028884D01*
X100245606Y-101912812D01*
X100285586Y-101841422D01*
X100285587Y-101841420D01*
X100288410Y-101836379D01*
X100290266Y-101830912D01*
X100290268Y-101830907D01*
X100357475Y-101632921D01*
X100357476Y-101632916D01*
X100359331Y-101627452D01*
X100360159Y-101621743D01*
X100360160Y-101621738D01*
X100379346Y-101489413D01*
X100390991Y-101409098D01*
X100392643Y-101346000D01*
X100372454Y-101126289D01*
X100312565Y-100913936D01*
X100214980Y-100716053D01*
X100187178Y-100678821D01*
X100086420Y-100543891D01*
X100086420Y-100543890D01*
X100082967Y-100539267D01*
X99920949Y-100389499D01*
X99734350Y-100271764D01*
X99529421Y-100190006D01*
X99523761Y-100188880D01*
X99523757Y-100188879D01*
X99318691Y-100148089D01*
X99318688Y-100148089D01*
X99313024Y-100146962D01*
X99307249Y-100146886D01*
X99307245Y-100146886D01*
X99196504Y-100145437D01*
X99092406Y-100144074D01*
X99086709Y-100145053D01*
X99086708Y-100145053D01*
X98880654Y-100180459D01*
X98880653Y-100180459D01*
X98874957Y-100181438D01*
X98667957Y-100257804D01*
X98662996Y-100260756D01*
X98662995Y-100260756D01*
X98489946Y-100363710D01*
X98478341Y-100370614D01*
X98312457Y-100516090D01*
X98175863Y-100689360D01*
X98073131Y-100884620D01*
X98007703Y-101095333D01*
X97981770Y-101314440D01*
X79370085Y-101314440D01*
X79252691Y-101291089D01*
X79252688Y-101291089D01*
X79247024Y-101289962D01*
X79241249Y-101289886D01*
X79241245Y-101289886D01*
X79130504Y-101288437D01*
X79026406Y-101287074D01*
X79020709Y-101288053D01*
X79020708Y-101288053D01*
X78814654Y-101323459D01*
X78814653Y-101323459D01*
X78808957Y-101324438D01*
X78601957Y-101400804D01*
X78412341Y-101513614D01*
X78246457Y-101659090D01*
X78109863Y-101832360D01*
X78007131Y-102027620D01*
X77941703Y-102238333D01*
X77915770Y-102457440D01*
X76651415Y-102457440D01*
X79721450Y-99387405D01*
X79783762Y-99353379D01*
X79810545Y-99350500D01*
X83508895Y-99350500D01*
X83577016Y-99370502D01*
X83623509Y-99424158D01*
X83634625Y-99468259D01*
X83639053Y-99535821D01*
X83645200Y-99629604D01*
X83646621Y-99635200D01*
X83646622Y-99635205D01*
X83685890Y-99789821D01*
X83699511Y-99843452D01*
X83701928Y-99848694D01*
X83701928Y-99848695D01*
X83737844Y-99926602D01*
X83791883Y-100043821D01*
X83919222Y-100224002D01*
X84077264Y-100377961D01*
X84082060Y-100381166D01*
X84082063Y-100381168D01*
X84166261Y-100437427D01*
X84260717Y-100500540D01*
X84266020Y-100502818D01*
X84266023Y-100502820D01*
X84401225Y-100560907D01*
X84463436Y-100587635D01*
X84543088Y-100605658D01*
X84672995Y-100635054D01*
X84673001Y-100635055D01*
X84678632Y-100636329D01*
X84684403Y-100636556D01*
X84684405Y-100636556D01*
X84752211Y-100639220D01*
X84899098Y-100644991D01*
X85008275Y-100629161D01*
X85111738Y-100614160D01*
X85111743Y-100614159D01*
X85117452Y-100613331D01*
X85122916Y-100611476D01*
X85122921Y-100611475D01*
X85320907Y-100544268D01*
X85320912Y-100544266D01*
X85326379Y-100542410D01*
X85331992Y-100539267D01*
X85450575Y-100472857D01*
X85518884Y-100434602D01*
X85571321Y-100390991D01*
X85684086Y-100297204D01*
X85688518Y-100293518D01*
X85775546Y-100188879D01*
X85825908Y-100128326D01*
X85825910Y-100128323D01*
X85829602Y-100123884D01*
X85937410Y-99931379D01*
X85939266Y-99925912D01*
X85939268Y-99925907D01*
X86006475Y-99727921D01*
X86006476Y-99727916D01*
X86008331Y-99722452D01*
X86009159Y-99716743D01*
X86009160Y-99716738D01*
X86032549Y-99555422D01*
X86039991Y-99504098D01*
X86040800Y-99473202D01*
X86062578Y-99405628D01*
X86117433Y-99360556D01*
X86166757Y-99350500D01*
X87420242Y-99350500D01*
X87439951Y-99352051D01*
X87454297Y-99354323D01*
X87454298Y-99354323D01*
X87453917Y-99356730D01*
X87510473Y-99376609D01*
X87551320Y-99426142D01*
X87581380Y-99491346D01*
X87601883Y-99535821D01*
X87729222Y-99716002D01*
X87887264Y-99869961D01*
X87892060Y-99873166D01*
X87892063Y-99873168D01*
X87976261Y-99929427D01*
X88070717Y-99992540D01*
X88076020Y-99994818D01*
X88076023Y-99994820D01*
X88219418Y-100056427D01*
X88273436Y-100079635D01*
X88311328Y-100088209D01*
X88482995Y-100127054D01*
X88483001Y-100127055D01*
X88488632Y-100128329D01*
X88494403Y-100128556D01*
X88494405Y-100128556D01*
X88562211Y-100131220D01*
X88709098Y-100136991D01*
X88818275Y-100121161D01*
X88921738Y-100106160D01*
X88921743Y-100106159D01*
X88927452Y-100105331D01*
X88932916Y-100103476D01*
X88932921Y-100103475D01*
X89130907Y-100036268D01*
X89130912Y-100036266D01*
X89136379Y-100034410D01*
X89197523Y-100000168D01*
X89311349Y-99936422D01*
X89328884Y-99926602D01*
X89341387Y-99916204D01*
X89494086Y-99789204D01*
X89498518Y-99785518D01*
X89533977Y-99742884D01*
X89635908Y-99620326D01*
X89635910Y-99620323D01*
X89639602Y-99615884D01*
X89709347Y-99491346D01*
X89744586Y-99428422D01*
X89744587Y-99428420D01*
X89747410Y-99423379D01*
X89749266Y-99417912D01*
X89749268Y-99417907D01*
X89816475Y-99219921D01*
X89816476Y-99219916D01*
X89818331Y-99214452D01*
X89819159Y-99208743D01*
X89819160Y-99208738D01*
X89840014Y-99064910D01*
X89845302Y-99028440D01*
X96457770Y-99028440D01*
X96472200Y-99248604D01*
X96473621Y-99254200D01*
X96473622Y-99254205D01*
X96515198Y-99417907D01*
X96526511Y-99462452D01*
X96528928Y-99467694D01*
X96528928Y-99467695D01*
X96567046Y-99550379D01*
X96618883Y-99662821D01*
X96746222Y-99843002D01*
X96904264Y-99996961D01*
X96909060Y-100000166D01*
X96909063Y-100000168D01*
X97024582Y-100077355D01*
X97087717Y-100119540D01*
X97093020Y-100121818D01*
X97093023Y-100121820D01*
X97231788Y-100181438D01*
X97290436Y-100206635D01*
X97346350Y-100219287D01*
X97499995Y-100254054D01*
X97500001Y-100254055D01*
X97505632Y-100255329D01*
X97511403Y-100255556D01*
X97511405Y-100255556D01*
X97579211Y-100258220D01*
X97726098Y-100263991D01*
X97846455Y-100246540D01*
X97938738Y-100233160D01*
X97938743Y-100233159D01*
X97944452Y-100232331D01*
X97949916Y-100230476D01*
X97949921Y-100230475D01*
X98147907Y-100163268D01*
X98147912Y-100163266D01*
X98153379Y-100161410D01*
X98177166Y-100148089D01*
X98264913Y-100098948D01*
X98345884Y-100053602D01*
X98351667Y-100048793D01*
X98511086Y-99916204D01*
X98515518Y-99912518D01*
X98554262Y-99865934D01*
X98652908Y-99747326D01*
X98652910Y-99747323D01*
X98656602Y-99742884D01*
X98742528Y-99589452D01*
X98761586Y-99555422D01*
X98761587Y-99555420D01*
X98764410Y-99550379D01*
X98766266Y-99544912D01*
X98766268Y-99544907D01*
X98833475Y-99346921D01*
X98833476Y-99346916D01*
X98835331Y-99341452D01*
X98836159Y-99335743D01*
X98836160Y-99335738D01*
X98856559Y-99195048D01*
X98866991Y-99123098D01*
X98868643Y-99060000D01*
X98848454Y-98840289D01*
X98825952Y-98760500D01*
X98791481Y-98638277D01*
X98788565Y-98627936D01*
X98700233Y-98448816D01*
X98693535Y-98435234D01*
X98690980Y-98430053D01*
X98679831Y-98415122D01*
X98562420Y-98257891D01*
X98562420Y-98257890D01*
X98558967Y-98253267D01*
X98442776Y-98145861D01*
X98401189Y-98107418D01*
X98401186Y-98107416D01*
X98396949Y-98103499D01*
X98210350Y-97985764D01*
X98005421Y-97904006D01*
X97999761Y-97902880D01*
X97999757Y-97902879D01*
X97794691Y-97862089D01*
X97794688Y-97862089D01*
X97789024Y-97860962D01*
X97783249Y-97860886D01*
X97783245Y-97860886D01*
X97672504Y-97859437D01*
X97568406Y-97858074D01*
X97562709Y-97859053D01*
X97562708Y-97859053D01*
X97356654Y-97894459D01*
X97356653Y-97894459D01*
X97350957Y-97895438D01*
X97143957Y-97971804D01*
X97138996Y-97974756D01*
X97138995Y-97974756D01*
X96979102Y-98069883D01*
X96954341Y-98084614D01*
X96788457Y-98230090D01*
X96651863Y-98403360D01*
X96549131Y-98598620D01*
X96483703Y-98809333D01*
X96457770Y-99028440D01*
X89845302Y-99028440D01*
X89849991Y-98996098D01*
X89851643Y-98933000D01*
X89831454Y-98713289D01*
X89805623Y-98621698D01*
X89806384Y-98550708D01*
X89845406Y-98491397D01*
X89910299Y-98462598D01*
X89926893Y-98461500D01*
X95167242Y-98461500D01*
X95186951Y-98463051D01*
X95201297Y-98465323D01*
X95207884Y-98464978D01*
X95207889Y-98464978D01*
X95270942Y-98461673D01*
X95277536Y-98461500D01*
X95298504Y-98461500D01*
X95301776Y-98461156D01*
X95301778Y-98461156D01*
X95319364Y-98459308D01*
X95325938Y-98458791D01*
X95388983Y-98455487D01*
X95388986Y-98455486D01*
X95395578Y-98455141D01*
X95409607Y-98451382D01*
X95429049Y-98447779D01*
X95443482Y-98446262D01*
X95509804Y-98424713D01*
X95516115Y-98422843D01*
X95569756Y-98408470D01*
X95577123Y-98406496D01*
X95577124Y-98406496D01*
X95583497Y-98404788D01*
X95595202Y-98398824D01*
X95596437Y-98398195D01*
X95614701Y-98390630D01*
X95628508Y-98386144D01*
X95634224Y-98382844D01*
X95634226Y-98382843D01*
X95688919Y-98351266D01*
X95694717Y-98348118D01*
X95750956Y-98319463D01*
X95756840Y-98316465D01*
X95763562Y-98311022D01*
X95768127Y-98307326D01*
X95784412Y-98296133D01*
X95796992Y-98288870D01*
X95801901Y-98284450D01*
X95801905Y-98284447D01*
X95848821Y-98242204D01*
X95853836Y-98237920D01*
X95863505Y-98230090D01*
X95870130Y-98224725D01*
X95884945Y-98209910D01*
X95889729Y-98205369D01*
X95936666Y-98163107D01*
X95936667Y-98163105D01*
X95941569Y-98158692D01*
X95950107Y-98146941D01*
X95962946Y-98131909D01*
X100970873Y-93123982D01*
X101033185Y-93089956D01*
X101104000Y-93095021D01*
X101160836Y-93137568D01*
X101176377Y-93164859D01*
X101225986Y-93284624D01*
X101231744Y-93298526D01*
X101367486Y-93520038D01*
X101536209Y-93717587D01*
X101733758Y-93886310D01*
X101955270Y-94022052D01*
X101959840Y-94023945D01*
X101959844Y-94023947D01*
X102190715Y-94119577D01*
X102195288Y-94121471D01*
X102254660Y-94135725D01*
X102443091Y-94180964D01*
X102443097Y-94180965D01*
X102447904Y-94182119D01*
X102706898Y-94202502D01*
X102711828Y-94202114D01*
X102711835Y-94202114D01*
X102712267Y-94202080D01*
X102712429Y-94202114D01*
X102716783Y-94202114D01*
X102716783Y-94203029D01*
X102781747Y-94216674D01*
X102832308Y-94266515D01*
X102846785Y-94333064D01*
X102847733Y-94333064D01*
X102847733Y-94337424D01*
X102847767Y-94337580D01*
X102847733Y-94338012D01*
X102847733Y-94338019D01*
X102847345Y-94342949D01*
X102867728Y-94601943D01*
X102868882Y-94606750D01*
X102868883Y-94606756D01*
X102877453Y-94642452D01*
X102928376Y-94854559D01*
X102930269Y-94859130D01*
X102930270Y-94859132D01*
X103013232Y-95059418D01*
X103027795Y-95094577D01*
X103163537Y-95316089D01*
X103332260Y-95513638D01*
X103336016Y-95516846D01*
X103356288Y-95534160D01*
X103529809Y-95682361D01*
X103534023Y-95684943D01*
X103534028Y-95684947D01*
X103662683Y-95763786D01*
X103710315Y-95816433D01*
X103721922Y-95886475D01*
X103693819Y-95951672D01*
X103634929Y-95991327D01*
X103572268Y-95994798D01*
X103382691Y-95957089D01*
X103382688Y-95957089D01*
X103377024Y-95955962D01*
X103371249Y-95955886D01*
X103371245Y-95955886D01*
X103260504Y-95954437D01*
X103156406Y-95953074D01*
X103150709Y-95954053D01*
X103150708Y-95954053D01*
X102944654Y-95989459D01*
X102944653Y-95989459D01*
X102938957Y-95990438D01*
X102731957Y-96066804D01*
X102726996Y-96069756D01*
X102726995Y-96069756D01*
X102622368Y-96132003D01*
X102542341Y-96179614D01*
X102376457Y-96325090D01*
X102239863Y-96498360D01*
X102137131Y-96693620D01*
X102071703Y-96904333D01*
X102045770Y-97123440D01*
X102060200Y-97343604D01*
X102061621Y-97349200D01*
X102061622Y-97349205D01*
X102100437Y-97502036D01*
X102114511Y-97557452D01*
X102116928Y-97562694D01*
X102116928Y-97562695D01*
X102157371Y-97650422D01*
X102206883Y-97757821D01*
X102334222Y-97938002D01*
X102492264Y-98091961D01*
X102497060Y-98095166D01*
X102497063Y-98095168D01*
X102572931Y-98145861D01*
X102675717Y-98214540D01*
X102681020Y-98216818D01*
X102681023Y-98216820D01*
X102865625Y-98296131D01*
X102878436Y-98301635D01*
X102884071Y-98302910D01*
X102884074Y-98302911D01*
X102941421Y-98315887D01*
X103003448Y-98350429D01*
X103036953Y-98413023D01*
X103031299Y-98483794D01*
X103012566Y-98516783D01*
X103001863Y-98530360D01*
X102899131Y-98725620D01*
X102833703Y-98936333D01*
X102807770Y-99155440D01*
X102822200Y-99375604D01*
X102823621Y-99381200D01*
X102823622Y-99381205D01*
X102855767Y-99507772D01*
X102876511Y-99589452D01*
X102878928Y-99594694D01*
X102878928Y-99594695D01*
X102944919Y-99737839D01*
X102968883Y-99789821D01*
X103096222Y-99970002D01*
X103254264Y-100123961D01*
X103259060Y-100127166D01*
X103259063Y-100127168D01*
X103356310Y-100192146D01*
X103437717Y-100246540D01*
X103443020Y-100248818D01*
X103443023Y-100248820D01*
X103635129Y-100331355D01*
X103640436Y-100333635D01*
X103720088Y-100351658D01*
X103849995Y-100381054D01*
X103850001Y-100381055D01*
X103855632Y-100382329D01*
X103861403Y-100382556D01*
X103861405Y-100382556D01*
X103929211Y-100385220D01*
X104076098Y-100390991D01*
X104190358Y-100374424D01*
X104288738Y-100360160D01*
X104288743Y-100360159D01*
X104294452Y-100359331D01*
X104299916Y-100357476D01*
X104299921Y-100357475D01*
X104497907Y-100290268D01*
X104497912Y-100290266D01*
X104503379Y-100288410D01*
X104535887Y-100270205D01*
X104647122Y-100207910D01*
X104695884Y-100180602D01*
X104722356Y-100158586D01*
X104861086Y-100043204D01*
X104865518Y-100039518D01*
X104955457Y-99931379D01*
X105002908Y-99874326D01*
X105002910Y-99874323D01*
X105006602Y-99869884D01*
X105114410Y-99677379D01*
X105116266Y-99671912D01*
X105116268Y-99671907D01*
X105183475Y-99473921D01*
X105183476Y-99473916D01*
X105185331Y-99468452D01*
X105186159Y-99462743D01*
X105186160Y-99462738D01*
X105215624Y-99259527D01*
X105216991Y-99250098D01*
X105218643Y-99187000D01*
X105198454Y-98967289D01*
X105138565Y-98754936D01*
X105040980Y-98557053D01*
X105013178Y-98519821D01*
X104912420Y-98384891D01*
X104912420Y-98384890D01*
X104908967Y-98380267D01*
X104805310Y-98284447D01*
X104751189Y-98234418D01*
X104751186Y-98234416D01*
X104746949Y-98230499D01*
X104560350Y-98112764D01*
X104355421Y-98031006D01*
X104349763Y-98029880D01*
X104349761Y-98029880D01*
X104328193Y-98025590D01*
X104265284Y-97992681D01*
X104230153Y-97930986D01*
X104233954Y-97860091D01*
X104245108Y-97838167D01*
X104244602Y-97837884D01*
X104349586Y-97650422D01*
X104349587Y-97650420D01*
X104352410Y-97645379D01*
X104354266Y-97639912D01*
X104354268Y-97639907D01*
X104421475Y-97441921D01*
X104421476Y-97441916D01*
X104423331Y-97436452D01*
X104424159Y-97430743D01*
X104424160Y-97430738D01*
X104454458Y-97221772D01*
X104454991Y-97218098D01*
X104456643Y-97155000D01*
X104439986Y-96973722D01*
X104436984Y-96941053D01*
X104436983Y-96941046D01*
X104436454Y-96935289D01*
X104436015Y-96933734D01*
X104443129Y-96864457D01*
X104487412Y-96808964D01*
X104554667Y-96786221D01*
X104623542Y-96803450D01*
X104648862Y-96823022D01*
X105517567Y-97691725D01*
X105795071Y-97969229D01*
X105798625Y-97972397D01*
X105950927Y-98067566D01*
X106120528Y-98126628D01*
X106127521Y-98127412D01*
X106127524Y-98127413D01*
X106292001Y-98145861D01*
X106299000Y-98146646D01*
X106305999Y-98145861D01*
X106470476Y-98127413D01*
X106470479Y-98127412D01*
X106477472Y-98126628D01*
X106647073Y-98067566D01*
X106774466Y-97987962D01*
X106794853Y-97975223D01*
X106794856Y-97975221D01*
X106799375Y-97972397D01*
X106802929Y-97969231D01*
X108030875Y-96741283D01*
X108093188Y-96707258D01*
X108164003Y-96712322D01*
X108220839Y-96754869D01*
X108229371Y-96767868D01*
X108345663Y-96971392D01*
X108348229Y-96976113D01*
X108770212Y-97793700D01*
X108772573Y-97798524D01*
X108821438Y-97904006D01*
X109159308Y-98633354D01*
X109161463Y-98638277D01*
X109304790Y-98985804D01*
X109503764Y-99468259D01*
X109512266Y-99488875D01*
X109514206Y-99493882D01*
X109825906Y-100351738D01*
X109828407Y-100358622D01*
X109830130Y-100363699D01*
X110087665Y-101179268D01*
X110107188Y-101241093D01*
X110108693Y-101246241D01*
X110346566Y-102129002D01*
X110348074Y-102134599D01*
X110349358Y-102139799D01*
X110539117Y-102986146D01*
X110550659Y-103037626D01*
X110551720Y-103042883D01*
X110595307Y-103285289D01*
X110714546Y-103948429D01*
X110715384Y-103953736D01*
X110839451Y-104865399D01*
X110840062Y-104870738D01*
X110887750Y-105384206D01*
X110924363Y-105778422D01*
X110925146Y-105786858D01*
X110925528Y-105792211D01*
X110970427Y-106690234D01*
X110971472Y-106711142D01*
X110971625Y-106716496D01*
X110973874Y-107024345D01*
X110978346Y-107636576D01*
X110978270Y-107641949D01*
X110945756Y-108561419D01*
X110945452Y-108566784D01*
X110873760Y-109484068D01*
X110873227Y-109489415D01*
X110763324Y-110395921D01*
X110762492Y-110402781D01*
X110761734Y-110408087D01*
X110750026Y-110479146D01*
X110704981Y-110752527D01*
X110674170Y-110816489D01*
X110613669Y-110853640D01*
X110542688Y-110852185D01*
X110495128Y-110824567D01*
X110339189Y-110680418D01*
X110339186Y-110680416D01*
X110334949Y-110676499D01*
X110148350Y-110558764D01*
X109943421Y-110477006D01*
X109937761Y-110475880D01*
X109937757Y-110475879D01*
X109732691Y-110435089D01*
X109732688Y-110435089D01*
X109727024Y-110433962D01*
X109721249Y-110433886D01*
X109721245Y-110433886D01*
X109610504Y-110432437D01*
X109506406Y-110431074D01*
X109500709Y-110432053D01*
X109500708Y-110432053D01*
X109294654Y-110467459D01*
X109294653Y-110467459D01*
X109288957Y-110468438D01*
X109081957Y-110544804D01*
X109076996Y-110547756D01*
X109076995Y-110547756D01*
X108971257Y-110610664D01*
X108892341Y-110657614D01*
X108726457Y-110803090D01*
X108589863Y-110976360D01*
X108487131Y-111171620D01*
X108421703Y-111382333D01*
X108395770Y-111601440D01*
X108410200Y-111821604D01*
X108411621Y-111827200D01*
X108411622Y-111827205D01*
X108442915Y-111950418D01*
X108464511Y-112035452D01*
X108466928Y-112040694D01*
X108466928Y-112040695D01*
X108527065Y-112171141D01*
X108556883Y-112235821D01*
X108684222Y-112416002D01*
X108842264Y-112569961D01*
X108847060Y-112573166D01*
X108847063Y-112573168D01*
X108965543Y-112652333D01*
X109025717Y-112692540D01*
X109031020Y-112694818D01*
X109031023Y-112694820D01*
X109223129Y-112777355D01*
X109228436Y-112779635D01*
X109308088Y-112797658D01*
X109437995Y-112827054D01*
X109438001Y-112827055D01*
X109443632Y-112828329D01*
X109449403Y-112828556D01*
X109449405Y-112828556D01*
X109517211Y-112831220D01*
X109664098Y-112836991D01*
X109788283Y-112818985D01*
X109876738Y-112806160D01*
X109876743Y-112806159D01*
X109882452Y-112805331D01*
X109887916Y-112803476D01*
X109887921Y-112803475D01*
X110091379Y-112734410D01*
X110092179Y-112736765D01*
X110151984Y-112728763D01*
X110216273Y-112758887D01*
X110254071Y-112818985D01*
X110254959Y-112884301D01*
X110201874Y-113093418D01*
X110195416Y-113118857D01*
X110193988Y-113124018D01*
X110054198Y-113590326D01*
X109929781Y-114005352D01*
X109928129Y-114010465D01*
X109626586Y-114879727D01*
X109624717Y-114884765D01*
X109429118Y-115379418D01*
X109294064Y-115720958D01*
X109286390Y-115740364D01*
X109284312Y-115745309D01*
X108979704Y-116428861D01*
X108909796Y-116585738D01*
X108907506Y-116590594D01*
X108792131Y-116822379D01*
X108497524Y-117414234D01*
X108495028Y-117418993D01*
X108435912Y-117526054D01*
X108096992Y-118139845D01*
X108050271Y-118224457D01*
X108047578Y-118229097D01*
X107764393Y-118693936D01*
X107568904Y-119014825D01*
X107566011Y-119019353D01*
X107141151Y-119654147D01*
X107086640Y-119699633D01*
X107016190Y-119708427D01*
X106952169Y-119677737D01*
X106914904Y-119617307D01*
X106917127Y-119543565D01*
X106963331Y-119407452D01*
X106964159Y-119401743D01*
X106964160Y-119401738D01*
X106983346Y-119269413D01*
X106994991Y-119189098D01*
X106996643Y-119126000D01*
X106976454Y-118906289D01*
X106916565Y-118693936D01*
X106818980Y-118496053D01*
X106686967Y-118319267D01*
X106589430Y-118229105D01*
X106529189Y-118173418D01*
X106529186Y-118173416D01*
X106524949Y-118169499D01*
X106338350Y-118051764D01*
X106133421Y-117970006D01*
X106127761Y-117968880D01*
X106127757Y-117968879D01*
X105922691Y-117928089D01*
X105922688Y-117928089D01*
X105917024Y-117926962D01*
X105911249Y-117926886D01*
X105911245Y-117926886D01*
X105800504Y-117925437D01*
X105696406Y-117924074D01*
X105690709Y-117925053D01*
X105690708Y-117925053D01*
X105484654Y-117960459D01*
X105484653Y-117960459D01*
X105478957Y-117961438D01*
X105271957Y-118037804D01*
X105266996Y-118040756D01*
X105266995Y-118040756D01*
X105090075Y-118146013D01*
X105082341Y-118150614D01*
X104916457Y-118296090D01*
X104779863Y-118469360D01*
X104677131Y-118664620D01*
X104611703Y-118875333D01*
X104585770Y-119094440D01*
X104600200Y-119314604D01*
X104601621Y-119320200D01*
X104601622Y-119320205D01*
X104653090Y-119522857D01*
X104654511Y-119528452D01*
X104746883Y-119728821D01*
X104874222Y-119909002D01*
X105032264Y-120062961D01*
X105037060Y-120066166D01*
X105037063Y-120066168D01*
X105121261Y-120122427D01*
X105215717Y-120185540D01*
X105221020Y-120187818D01*
X105221023Y-120187820D01*
X105413129Y-120270355D01*
X105418436Y-120272635D01*
X105498088Y-120290658D01*
X105627995Y-120320054D01*
X105628001Y-120320055D01*
X105633632Y-120321329D01*
X105639403Y-120321556D01*
X105639405Y-120321556D01*
X105707211Y-120324220D01*
X105854098Y-120329991D01*
X105963275Y-120314161D01*
X106066738Y-120299160D01*
X106066743Y-120299159D01*
X106072452Y-120298331D01*
X106077916Y-120296476D01*
X106077921Y-120296475D01*
X106275907Y-120229268D01*
X106275912Y-120229266D01*
X106281379Y-120227410D01*
X106473884Y-120119602D01*
X106542403Y-120062615D01*
X106607567Y-120034434D01*
X106677623Y-120045957D01*
X106730327Y-120093526D01*
X106748947Y-120162037D01*
X106724601Y-120233972D01*
X106654837Y-120329162D01*
X106507295Y-120530475D01*
X106504038Y-120534727D01*
X105946933Y-121230570D01*
X105928986Y-121252987D01*
X105925541Y-121257107D01*
X105381771Y-121879891D01*
X105320408Y-121950170D01*
X105316792Y-121954137D01*
X104779849Y-122518597D01*
X104682642Y-122620785D01*
X104678867Y-122624587D01*
X104340996Y-122950721D01*
X104016885Y-123263573D01*
X104012940Y-123267222D01*
X103621762Y-123613839D01*
X103503080Y-123719002D01*
X103324309Y-123877408D01*
X103320216Y-123880882D01*
X102839531Y-124271522D01*
X102606188Y-124461154D01*
X102601949Y-124464451D01*
X101863847Y-125013737D01*
X101859493Y-125016835D01*
X101374346Y-125346695D01*
X101098613Y-125534170D01*
X101094106Y-125537096D01*
X100311876Y-126021508D01*
X100307253Y-126024236D01*
X100239767Y-126062146D01*
X99505078Y-126474853D01*
X99500338Y-126477384D01*
X98679692Y-126893384D01*
X98674850Y-126895710D01*
X98587481Y-126935411D01*
X97837205Y-127276342D01*
X97832267Y-127278460D01*
X96979157Y-127623030D01*
X96974132Y-127624936D01*
X96107110Y-127932815D01*
X96102009Y-127934505D01*
X95270620Y-128190373D01*
X95222647Y-128205137D01*
X95217482Y-128206607D01*
X94327340Y-128439508D01*
X94322156Y-128440747D01*
X93908508Y-128530322D01*
X93422912Y-128635477D01*
X93417637Y-128636502D01*
X92858119Y-128732896D01*
X92510907Y-128792714D01*
X92505625Y-128793509D01*
X91593057Y-128910916D01*
X91587738Y-128911486D01*
X90952698Y-128965788D01*
X90670988Y-128989877D01*
X90665626Y-128990220D01*
X89746417Y-129029450D01*
X89741044Y-129029565D01*
X88820956Y-129029565D01*
X88815583Y-129029450D01*
X87896374Y-128990220D01*
X87891012Y-128989877D01*
X87609302Y-128965788D01*
X86974262Y-128911486D01*
X86968943Y-128910916D01*
X86056375Y-128793509D01*
X86051093Y-128792714D01*
X85703881Y-128732896D01*
X85144363Y-128636502D01*
X85139088Y-128635477D01*
X84486575Y-128494176D01*
X84424231Y-128460209D01*
X84390147Y-128397929D01*
X84395145Y-128327109D01*
X84431412Y-128275219D01*
X84530754Y-128190373D01*
X84530759Y-128190368D01*
X84534515Y-128187160D01*
X84703238Y-127989611D01*
X84838980Y-127768099D01*
X84898281Y-127624936D01*
X84936505Y-127532654D01*
X84936506Y-127532652D01*
X84938399Y-127528081D01*
X84967719Y-127405956D01*
X84997892Y-127280278D01*
X84997893Y-127280272D01*
X84999047Y-127275465D01*
X85019430Y-127016471D01*
X84999047Y-126757477D01*
X85000273Y-126757380D01*
X85008640Y-126692652D01*
X85034893Y-126654259D01*
X85947907Y-125741245D01*
X86010219Y-125707219D01*
X86081034Y-125712284D01*
X86137870Y-125754831D01*
X86162681Y-125821351D01*
X86162129Y-125845149D01*
X86147720Y-125966890D01*
X86162150Y-126187054D01*
X86163571Y-126192650D01*
X86163572Y-126192655D01*
X86208114Y-126368037D01*
X86216461Y-126400902D01*
X86218878Y-126406144D01*
X86218878Y-126406145D01*
X86256996Y-126488829D01*
X86308833Y-126601271D01*
X86436172Y-126781452D01*
X86594214Y-126935411D01*
X86599010Y-126938616D01*
X86599013Y-126938618D01*
X86745176Y-127036280D01*
X86777667Y-127057990D01*
X86782970Y-127060268D01*
X86782973Y-127060270D01*
X86975079Y-127142805D01*
X86980386Y-127145085D01*
X87060038Y-127163108D01*
X87189945Y-127192504D01*
X87189951Y-127192505D01*
X87195582Y-127193779D01*
X87201353Y-127194006D01*
X87201355Y-127194006D01*
X87269161Y-127196670D01*
X87416048Y-127202441D01*
X87525225Y-127186611D01*
X87628688Y-127171610D01*
X87628693Y-127171609D01*
X87634402Y-127170781D01*
X87639866Y-127168926D01*
X87639871Y-127168925D01*
X87837857Y-127101718D01*
X87837862Y-127101716D01*
X87843329Y-127099860D01*
X88035834Y-126992052D01*
X88205468Y-126850968D01*
X88283305Y-126757380D01*
X88342858Y-126685776D01*
X88342860Y-126685773D01*
X88346552Y-126681334D01*
X88454360Y-126488829D01*
X88456216Y-126483362D01*
X88456218Y-126483357D01*
X88523425Y-126285371D01*
X88523426Y-126285366D01*
X88525281Y-126279902D01*
X88526109Y-126274193D01*
X88526110Y-126274188D01*
X88556408Y-126065222D01*
X88556941Y-126061548D01*
X88558593Y-125998450D01*
X88538404Y-125778739D01*
X88508498Y-125672699D01*
X88509259Y-125601708D01*
X88548281Y-125542397D01*
X88613174Y-125513597D01*
X88629768Y-125512500D01*
X90752890Y-125512500D01*
X90822892Y-125533735D01*
X90991717Y-125646540D01*
X90997020Y-125648818D01*
X90997023Y-125648820D01*
X91132951Y-125707219D01*
X91194436Y-125733635D01*
X91256961Y-125747783D01*
X91403995Y-125781054D01*
X91404001Y-125781055D01*
X91409632Y-125782329D01*
X91415403Y-125782556D01*
X91415405Y-125782556D01*
X91483211Y-125785220D01*
X91630098Y-125790991D01*
X91739275Y-125775161D01*
X91842738Y-125760160D01*
X91842743Y-125760159D01*
X91848452Y-125759331D01*
X91853916Y-125757476D01*
X91853921Y-125757475D01*
X92051907Y-125690268D01*
X92051912Y-125690266D01*
X92057379Y-125688410D01*
X92085430Y-125672701D01*
X92164290Y-125628537D01*
X92249884Y-125580602D01*
X92295821Y-125542397D01*
X92415086Y-125443204D01*
X92419518Y-125439518D01*
X92445402Y-125408397D01*
X92556908Y-125274326D01*
X92556910Y-125274323D01*
X92560602Y-125269884D01*
X92668410Y-125077379D01*
X92670266Y-125071912D01*
X92670268Y-125071907D01*
X92737475Y-124873921D01*
X92737476Y-124873916D01*
X92739331Y-124868452D01*
X92757903Y-124740366D01*
X92787472Y-124675822D01*
X92793503Y-124669352D01*
X94558415Y-122904440D01*
X97081433Y-122904440D01*
X97095863Y-123124604D01*
X97097284Y-123130200D01*
X97097285Y-123130205D01*
X97123279Y-123232553D01*
X97150174Y-123338452D01*
X97152591Y-123343694D01*
X97152591Y-123343695D01*
X97188236Y-123421014D01*
X97242546Y-123538821D01*
X97369885Y-123719002D01*
X97527927Y-123872961D01*
X97532723Y-123876166D01*
X97532726Y-123876168D01*
X97616924Y-123932427D01*
X97711380Y-123995540D01*
X97716683Y-123997818D01*
X97716686Y-123997820D01*
X97900555Y-124076816D01*
X97914099Y-124082635D01*
X97993751Y-124100658D01*
X98123658Y-124130054D01*
X98123664Y-124130055D01*
X98129295Y-124131329D01*
X98135066Y-124131556D01*
X98135068Y-124131556D01*
X98202874Y-124134220D01*
X98349761Y-124139991D01*
X98458938Y-124124161D01*
X98562401Y-124109160D01*
X98562406Y-124109159D01*
X98568115Y-124108331D01*
X98573579Y-124106476D01*
X98573584Y-124106475D01*
X98771570Y-124039268D01*
X98771575Y-124039266D01*
X98777042Y-124037410D01*
X98969547Y-123929602D01*
X98985765Y-123916114D01*
X99134749Y-123792204D01*
X99139181Y-123788518D01*
X99217390Y-123694483D01*
X99276571Y-123623326D01*
X99276573Y-123623323D01*
X99280265Y-123618884D01*
X99388073Y-123426379D01*
X99389929Y-123420912D01*
X99389931Y-123420907D01*
X99457138Y-123222921D01*
X99457139Y-123222916D01*
X99458994Y-123217452D01*
X99459822Y-123211743D01*
X99459823Y-123211738D01*
X99483436Y-123048879D01*
X99490654Y-122999098D01*
X99492306Y-122936000D01*
X99472117Y-122716289D01*
X99451929Y-122644705D01*
X99413797Y-122509500D01*
X99412228Y-122503936D01*
X99314643Y-122306053D01*
X99279962Y-122259609D01*
X99186083Y-122133891D01*
X99186083Y-122133890D01*
X99182630Y-122129267D01*
X99029957Y-121988137D01*
X99024852Y-121983418D01*
X99024849Y-121983416D01*
X99020612Y-121979499D01*
X98834013Y-121861764D01*
X98629084Y-121780006D01*
X98623424Y-121778880D01*
X98623420Y-121778879D01*
X98418354Y-121738089D01*
X98418351Y-121738089D01*
X98412687Y-121736962D01*
X98406912Y-121736886D01*
X98406908Y-121736886D01*
X98296167Y-121735437D01*
X98192069Y-121734074D01*
X98186372Y-121735053D01*
X98186371Y-121735053D01*
X97980317Y-121770459D01*
X97980316Y-121770459D01*
X97974620Y-121771438D01*
X97767620Y-121847804D01*
X97762659Y-121850756D01*
X97762658Y-121850756D01*
X97592152Y-121952197D01*
X97578004Y-121960614D01*
X97412120Y-122106090D01*
X97275526Y-122279360D01*
X97172794Y-122474620D01*
X97107366Y-122685333D01*
X97081433Y-122904440D01*
X94558415Y-122904440D01*
X100999968Y-116462887D01*
X101062280Y-116428861D01*
X101133095Y-116433926D01*
X101189931Y-116476473D01*
X101208896Y-116513046D01*
X101247748Y-116632620D01*
X101255916Y-116657758D01*
X101257603Y-116661344D01*
X101257605Y-116661348D01*
X101390873Y-116944556D01*
X101390877Y-116944563D01*
X101392561Y-116948142D01*
X101564522Y-117219110D01*
X101564965Y-117219645D01*
X101588578Y-117285826D01*
X101572498Y-117354978D01*
X101521584Y-117404458D01*
X101460723Y-117416194D01*
X101460687Y-117418962D01*
X101240069Y-117416074D01*
X101234372Y-117417053D01*
X101234371Y-117417053D01*
X101028317Y-117452459D01*
X101028316Y-117452459D01*
X101022620Y-117453438D01*
X100815620Y-117529804D01*
X100810659Y-117532756D01*
X100810658Y-117532756D01*
X100643576Y-117632160D01*
X100626004Y-117642614D01*
X100460120Y-117788090D01*
X100323526Y-117961360D01*
X100220794Y-118156620D01*
X100155366Y-118367333D01*
X100129433Y-118586440D01*
X100143863Y-118806604D01*
X100145284Y-118812200D01*
X100145285Y-118812205D01*
X100169180Y-118906289D01*
X100198174Y-119020452D01*
X100200591Y-119025694D01*
X100200591Y-119025695D01*
X100275921Y-119189098D01*
X100290546Y-119220821D01*
X100417885Y-119401002D01*
X100575927Y-119554961D01*
X100580723Y-119558166D01*
X100580726Y-119558168D01*
X100724370Y-119654147D01*
X100759380Y-119677540D01*
X100764683Y-119679818D01*
X100764686Y-119679820D01*
X100889716Y-119733537D01*
X100962099Y-119764635D01*
X101041751Y-119782658D01*
X101171658Y-119812054D01*
X101171664Y-119812055D01*
X101177295Y-119813329D01*
X101183066Y-119813556D01*
X101183068Y-119813556D01*
X101250874Y-119816220D01*
X101397761Y-119821991D01*
X101506938Y-119806161D01*
X101610401Y-119791160D01*
X101610406Y-119791159D01*
X101616115Y-119790331D01*
X101621579Y-119788476D01*
X101621584Y-119788475D01*
X101819570Y-119721268D01*
X101819575Y-119721266D01*
X101825042Y-119719410D01*
X101860357Y-119699633D01*
X102001353Y-119620671D01*
X102017547Y-119611602D01*
X102099355Y-119543563D01*
X102182749Y-119474204D01*
X102187181Y-119470518D01*
X102328265Y-119300884D01*
X102393269Y-119184812D01*
X102433249Y-119113422D01*
X102433250Y-119113420D01*
X102436073Y-119108379D01*
X102437929Y-119102912D01*
X102437931Y-119102907D01*
X102505138Y-118904921D01*
X102505139Y-118904916D01*
X102506994Y-118899452D01*
X102507822Y-118893743D01*
X102507823Y-118893738D01*
X102535986Y-118699500D01*
X102538654Y-118681098D01*
X102540306Y-118618000D01*
X102520117Y-118398289D01*
X102469114Y-118217444D01*
X102469874Y-118146453D01*
X102508895Y-118087141D01*
X102573788Y-118058342D01*
X102636767Y-118066092D01*
X102831315Y-118143119D01*
X102842294Y-118147466D01*
X103153139Y-118227277D01*
X103471536Y-118267500D01*
X103792464Y-118267500D01*
X104110861Y-118227277D01*
X104421706Y-118147466D01*
X104720097Y-118029324D01*
X104732619Y-118022440D01*
X104997856Y-117876625D01*
X104997859Y-117876623D01*
X105001328Y-117874716D01*
X105004532Y-117872388D01*
X105004537Y-117872385D01*
X105257760Y-117688408D01*
X105257762Y-117688407D01*
X105260964Y-117686080D01*
X105310397Y-117639660D01*
X105492024Y-117469101D01*
X105494911Y-117466390D01*
X105699478Y-117219110D01*
X105871439Y-116948142D01*
X105873123Y-116944563D01*
X105873127Y-116944556D01*
X106006395Y-116661348D01*
X106006397Y-116661344D01*
X106008084Y-116657758D01*
X106024337Y-116607738D01*
X106093427Y-116395098D01*
X106107256Y-116352538D01*
X106167392Y-116037294D01*
X106187543Y-115717000D01*
X106167392Y-115396706D01*
X106107256Y-115081462D01*
X106008084Y-114776242D01*
X106006395Y-114772652D01*
X105873127Y-114489444D01*
X105873123Y-114489437D01*
X105871439Y-114485858D01*
X105699478Y-114214890D01*
X105494911Y-113967610D01*
X105269055Y-113755518D01*
X105263851Y-113750631D01*
X105263850Y-113750631D01*
X105260964Y-113747920D01*
X105175741Y-113686002D01*
X105004537Y-113561615D01*
X105004532Y-113561612D01*
X105001328Y-113559284D01*
X104904080Y-113505821D01*
X104723559Y-113406579D01*
X104723556Y-113406578D01*
X104720097Y-113404676D01*
X104421706Y-113286534D01*
X104110861Y-113206723D01*
X103792464Y-113166500D01*
X103788505Y-113166500D01*
X103786583Y-113166379D01*
X103719854Y-113142136D01*
X103676824Y-113085666D01*
X103668500Y-113040628D01*
X103668500Y-111808317D01*
X103688502Y-111740196D01*
X103697626Y-111727747D01*
X103732908Y-111685326D01*
X103732910Y-111685323D01*
X103736602Y-111680884D01*
X103822368Y-111527738D01*
X103841586Y-111493422D01*
X103841587Y-111493420D01*
X103844410Y-111488379D01*
X103846266Y-111482912D01*
X103846268Y-111482907D01*
X103913475Y-111284921D01*
X103913476Y-111284916D01*
X103915331Y-111279452D01*
X103916159Y-111273743D01*
X103916160Y-111273738D01*
X103946458Y-111064772D01*
X103946991Y-111061098D01*
X103948643Y-110998000D01*
X103928454Y-110778289D01*
X103921189Y-110752527D01*
X103877997Y-110599379D01*
X103868565Y-110565936D01*
X103770980Y-110368053D01*
X103753365Y-110344463D01*
X103642420Y-110195891D01*
X103642420Y-110195890D01*
X103638967Y-110191267D01*
X103524377Y-110085341D01*
X103481189Y-110045418D01*
X103481186Y-110045416D01*
X103476949Y-110041499D01*
X103290350Y-109923764D01*
X103219415Y-109895464D01*
X103163556Y-109851643D01*
X103144836Y-109812635D01*
X103115727Y-109709422D01*
X103106565Y-109676936D01*
X103008980Y-109479053D01*
X102927701Y-109370207D01*
X102880420Y-109306891D01*
X102880420Y-109306890D01*
X102876967Y-109302267D01*
X102714949Y-109152499D01*
X102528350Y-109034764D01*
X102323421Y-108953006D01*
X102317761Y-108951880D01*
X102317757Y-108951879D01*
X102112691Y-108911089D01*
X102112688Y-108911089D01*
X102107024Y-108909962D01*
X102101249Y-108909886D01*
X102101245Y-108909886D01*
X101990504Y-108908437D01*
X101886406Y-108907074D01*
X101880709Y-108908053D01*
X101880708Y-108908053D01*
X101674654Y-108943459D01*
X101674653Y-108943459D01*
X101668957Y-108944438D01*
X101461957Y-109020804D01*
X101456996Y-109023756D01*
X101456995Y-109023756D01*
X101325362Y-109102070D01*
X101272341Y-109133614D01*
X101106457Y-109279090D01*
X100969863Y-109452360D01*
X100867131Y-109647620D01*
X100801703Y-109858333D01*
X100798698Y-109883725D01*
X100797839Y-109890980D01*
X100769968Y-109956277D01*
X100716323Y-109994381D01*
X100542745Y-110058417D01*
X100537784Y-110061369D01*
X100537783Y-110061369D01*
X100429038Y-110126066D01*
X100353129Y-110171227D01*
X100187245Y-110316703D01*
X100050651Y-110489973D01*
X99947919Y-110685233D01*
X99882491Y-110895946D01*
X99856558Y-111115053D01*
X99870988Y-111335217D01*
X99872409Y-111340813D01*
X99872410Y-111340818D01*
X99910775Y-111491879D01*
X99925299Y-111549065D01*
X99927716Y-111554307D01*
X99927716Y-111554308D01*
X100015252Y-111744188D01*
X100015255Y-111744193D01*
X100017671Y-111749434D01*
X100021001Y-111754146D01*
X100021004Y-111754151D01*
X100021401Y-111754712D01*
X100021507Y-111755021D01*
X100023895Y-111759158D01*
X100023083Y-111759627D01*
X100044389Y-111821884D01*
X100027412Y-111890821D01*
X100007607Y-111916538D01*
X89851296Y-122072849D01*
X89836268Y-122085686D01*
X89824512Y-122094227D01*
X89820099Y-122099129D01*
X89820097Y-122099130D01*
X89777835Y-122146067D01*
X89773294Y-122150851D01*
X89758479Y-122165666D01*
X89752280Y-122173321D01*
X89745284Y-122181960D01*
X89741001Y-122186975D01*
X89700982Y-122231421D01*
X89640536Y-122268661D01*
X89569552Y-122267310D01*
X89510567Y-122227796D01*
X89494339Y-122202839D01*
X89485033Y-122183967D01*
X89425663Y-122063577D01*
X89422535Y-122057234D01*
X89419980Y-122052053D01*
X89372252Y-121988137D01*
X89291420Y-121879891D01*
X89291420Y-121879890D01*
X89287967Y-121875267D01*
X89181632Y-121776972D01*
X89173255Y-121769228D01*
X89136810Y-121708299D01*
X89134088Y-121658623D01*
X89151491Y-121538598D01*
X89153143Y-121475500D01*
X89132954Y-121255789D01*
X89073065Y-121043436D01*
X88975480Y-120845553D01*
X88898042Y-120741851D01*
X88873310Y-120675301D01*
X88873000Y-120666462D01*
X88873000Y-117817980D01*
X88889064Y-117756417D01*
X88985410Y-117584379D01*
X88987266Y-117578912D01*
X88987268Y-117578907D01*
X89054475Y-117380921D01*
X89054476Y-117380916D01*
X89056331Y-117375452D01*
X89057159Y-117369743D01*
X89057160Y-117369738D01*
X89076988Y-117232983D01*
X89087991Y-117157098D01*
X89089643Y-117094000D01*
X89069454Y-116874289D01*
X89067421Y-116867078D01*
X89011134Y-116667500D01*
X89009565Y-116661936D01*
X88911980Y-116464053D01*
X88828708Y-116352538D01*
X88783420Y-116291891D01*
X88783420Y-116291890D01*
X88779967Y-116287267D01*
X88617949Y-116137499D01*
X88431350Y-116019764D01*
X88226421Y-115938006D01*
X88220761Y-115936880D01*
X88220757Y-115936879D01*
X88015691Y-115896089D01*
X88015688Y-115896089D01*
X88010024Y-115894962D01*
X88004249Y-115894886D01*
X88004245Y-115894886D01*
X87893504Y-115893437D01*
X87789406Y-115892074D01*
X87783709Y-115893053D01*
X87783708Y-115893053D01*
X87577654Y-115928459D01*
X87577653Y-115928459D01*
X87571957Y-115929438D01*
X87364957Y-116005804D01*
X87359996Y-116008756D01*
X87359995Y-116008756D01*
X87195325Y-116106725D01*
X87175341Y-116118614D01*
X87009457Y-116264090D01*
X86872863Y-116437360D01*
X86770131Y-116632620D01*
X86704703Y-116843333D01*
X86678770Y-117062440D01*
X86693200Y-117282604D01*
X86694621Y-117288200D01*
X86694622Y-117288205D01*
X86739876Y-117466390D01*
X86747511Y-117496452D01*
X86749928Y-117501694D01*
X86749928Y-117501695D01*
X86834333Y-117684783D01*
X86839883Y-117696821D01*
X86967222Y-117877002D01*
X86971357Y-117881030D01*
X86971362Y-117881036D01*
X86983923Y-117893273D01*
X87018760Y-117955135D01*
X87022000Y-117983525D01*
X87022000Y-120666537D01*
X87001998Y-120734658D01*
X86994950Y-120744542D01*
X86936363Y-120818860D01*
X86833631Y-121014120D01*
X86768203Y-121224833D01*
X86742270Y-121443940D01*
X86756700Y-121664104D01*
X86758121Y-121669700D01*
X86758122Y-121669705D01*
X86786679Y-121782146D01*
X86811011Y-121877952D01*
X86903383Y-122078321D01*
X87030722Y-122258502D01*
X87167724Y-122391964D01*
X87202560Y-122453825D01*
X87204928Y-122497025D01*
X87186770Y-122650440D01*
X87187148Y-122656207D01*
X87196753Y-122802760D01*
X87181249Y-122872043D01*
X87130749Y-122921945D01*
X87071023Y-122937000D01*
X83008451Y-122937000D01*
X82988742Y-122935449D01*
X82974396Y-122933177D01*
X82967809Y-122933522D01*
X82967804Y-122933522D01*
X82904751Y-122936827D01*
X82898157Y-122937000D01*
X82877189Y-122937000D01*
X82873917Y-122937344D01*
X82873915Y-122937344D01*
X82856329Y-122939192D01*
X82849755Y-122939709D01*
X82786710Y-122943013D01*
X82786707Y-122943014D01*
X82780115Y-122943359D01*
X82766086Y-122947118D01*
X82746644Y-122950721D01*
X82732211Y-122952238D01*
X82665889Y-122973787D01*
X82659578Y-122975657D01*
X82592196Y-122993712D01*
X82586316Y-122996708D01*
X82579256Y-123000305D01*
X82560993Y-123007870D01*
X82547185Y-123012356D01*
X82541469Y-123015656D01*
X82541467Y-123015657D01*
X82486774Y-123047234D01*
X82480976Y-123050382D01*
X82418853Y-123082035D01*
X82413721Y-123086190D01*
X82413719Y-123086192D01*
X82407566Y-123091174D01*
X82391281Y-123102367D01*
X82378701Y-123109630D01*
X82373792Y-123114050D01*
X82373788Y-123114053D01*
X82326872Y-123156296D01*
X82321857Y-123160580D01*
X82313218Y-123167576D01*
X82305563Y-123173775D01*
X82290748Y-123188590D01*
X82285964Y-123193131D01*
X82234124Y-123239808D01*
X82225589Y-123251556D01*
X82212747Y-123266591D01*
X81929986Y-123549352D01*
X81867674Y-123583378D01*
X81826819Y-123584545D01*
X81826768Y-123585198D01*
X81572704Y-123565203D01*
X81567774Y-123564815D01*
X81308780Y-123585198D01*
X81303973Y-123586352D01*
X81303967Y-123586353D01*
X81288774Y-123590001D01*
X81217866Y-123586454D01*
X81160132Y-123545134D01*
X81133902Y-123479160D01*
X81133398Y-123464402D01*
X81134295Y-123427731D01*
X81134101Y-123421014D01*
X81116504Y-123206972D01*
X81114819Y-123196792D01*
X81062937Y-122990243D01*
X81059617Y-122980492D01*
X80974695Y-122785182D01*
X80969828Y-122776107D01*
X80904786Y-122675565D01*
X80894100Y-122666363D01*
X80884535Y-122670766D01*
X79860818Y-123694483D01*
X79798506Y-123728509D01*
X79727691Y-123723444D01*
X79682628Y-123694483D01*
X79501608Y-123513463D01*
X79467582Y-123451151D01*
X79472647Y-123380336D01*
X79501608Y-123335273D01*
X80525112Y-122311769D01*
X80532133Y-122298912D01*
X80525334Y-122289581D01*
X80521277Y-122286886D01*
X80334840Y-122183967D01*
X80325428Y-122179737D01*
X80124682Y-122108648D01*
X80114711Y-122106014D01*
X80019526Y-122089059D01*
X79955968Y-122057421D01*
X79919605Y-121996443D01*
X79922631Y-121923575D01*
X79960983Y-121813442D01*
X79963300Y-121806789D01*
X79964306Y-121797826D01*
X79982533Y-121635316D01*
X79983318Y-121628317D01*
X79963300Y-121449845D01*
X79904238Y-121280244D01*
X79809069Y-121127942D01*
X79805903Y-121124388D01*
X78479601Y-119798088D01*
X78476047Y-119794920D01*
X78323745Y-119699751D01*
X78154144Y-119640689D01*
X78147151Y-119639905D01*
X78147148Y-119639904D01*
X77982671Y-119621456D01*
X77975672Y-119620671D01*
X77968673Y-119621456D01*
X77804196Y-119639904D01*
X77804193Y-119639905D01*
X77797200Y-119640689D01*
X77627599Y-119699751D01*
X77573530Y-119733537D01*
X77479819Y-119792094D01*
X77479816Y-119792096D01*
X77475297Y-119794920D01*
X77471743Y-119798086D01*
X77470460Y-119799369D01*
X77470442Y-119799386D01*
X77340595Y-119929233D01*
X77278283Y-119963259D01*
X77207468Y-119958194D01*
X77150632Y-119915647D01*
X77125821Y-119849127D01*
X77125500Y-119840138D01*
X77125500Y-118586440D01*
X78296770Y-118586440D01*
X78311200Y-118806604D01*
X78312621Y-118812200D01*
X78312622Y-118812205D01*
X78336517Y-118906289D01*
X78365511Y-119020452D01*
X78367928Y-119025694D01*
X78367928Y-119025695D01*
X78443258Y-119189098D01*
X78457883Y-119220821D01*
X78585222Y-119401002D01*
X78743264Y-119554961D01*
X78748060Y-119558166D01*
X78748063Y-119558168D01*
X78891707Y-119654147D01*
X78926717Y-119677540D01*
X78932020Y-119679818D01*
X78932023Y-119679820D01*
X79057053Y-119733537D01*
X79129436Y-119764635D01*
X79209088Y-119782658D01*
X79338995Y-119812054D01*
X79339001Y-119812055D01*
X79344632Y-119813329D01*
X79350403Y-119813556D01*
X79350405Y-119813556D01*
X79418211Y-119816220D01*
X79565098Y-119821991D01*
X79674275Y-119806161D01*
X79777738Y-119791160D01*
X79777743Y-119791159D01*
X79783452Y-119790331D01*
X79788916Y-119788476D01*
X79788921Y-119788475D01*
X79986907Y-119721268D01*
X79986912Y-119721266D01*
X79992379Y-119719410D01*
X80027694Y-119699633D01*
X80168690Y-119620671D01*
X80184884Y-119611602D01*
X80266692Y-119543563D01*
X80350086Y-119474204D01*
X80354518Y-119470518D01*
X80495602Y-119300884D01*
X80560606Y-119184812D01*
X80600586Y-119113422D01*
X80600587Y-119113420D01*
X80603410Y-119108379D01*
X80605266Y-119102912D01*
X80605268Y-119102907D01*
X80672475Y-118904921D01*
X80672476Y-118904916D01*
X80674331Y-118899452D01*
X80675159Y-118893743D01*
X80675160Y-118893738D01*
X80703323Y-118699500D01*
X80705991Y-118681098D01*
X80707643Y-118618000D01*
X80687454Y-118398289D01*
X80627565Y-118185936D01*
X80529980Y-117988053D01*
X80509375Y-117960459D01*
X80401420Y-117815891D01*
X80401420Y-117815890D01*
X80397967Y-117811267D01*
X80274160Y-117696821D01*
X80240189Y-117665418D01*
X80240186Y-117665416D01*
X80235949Y-117661499D01*
X80049350Y-117543764D01*
X79844421Y-117462006D01*
X79838761Y-117460880D01*
X79838757Y-117460879D01*
X79633691Y-117420089D01*
X79633688Y-117420089D01*
X79628024Y-117418962D01*
X79622249Y-117418886D01*
X79622245Y-117418886D01*
X79511504Y-117417437D01*
X79407406Y-117416074D01*
X79401709Y-117417053D01*
X79401708Y-117417053D01*
X79195654Y-117452459D01*
X79195653Y-117452459D01*
X79189957Y-117453438D01*
X78982957Y-117529804D01*
X78977996Y-117532756D01*
X78977995Y-117532756D01*
X78810913Y-117632160D01*
X78793341Y-117642614D01*
X78627457Y-117788090D01*
X78490863Y-117961360D01*
X78388131Y-118156620D01*
X78322703Y-118367333D01*
X78296770Y-118586440D01*
X77125500Y-118586440D01*
X77125500Y-118274381D01*
X77127051Y-118254670D01*
X77128291Y-118246842D01*
X77129323Y-118240326D01*
X77128666Y-118227774D01*
X77125673Y-118170681D01*
X77125500Y-118164087D01*
X77125500Y-118143119D01*
X77125156Y-118139845D01*
X77123308Y-118122259D01*
X77122791Y-118115685D01*
X77119487Y-118052640D01*
X77119486Y-118052637D01*
X77119141Y-118046045D01*
X77115382Y-118032016D01*
X77111779Y-118012574D01*
X77110952Y-118004707D01*
X77110262Y-117998141D01*
X77101121Y-117970006D01*
X77098311Y-117961360D01*
X77088713Y-117931819D01*
X77086841Y-117925501D01*
X77070496Y-117864500D01*
X77070496Y-117864499D01*
X77068788Y-117858126D01*
X77062195Y-117845186D01*
X77054630Y-117826922D01*
X77050144Y-117813115D01*
X77035696Y-117788090D01*
X77015266Y-117752704D01*
X77012118Y-117746906D01*
X76983463Y-117690667D01*
X76980465Y-117684783D01*
X76976308Y-117679649D01*
X76971326Y-117673496D01*
X76960131Y-117657208D01*
X76958469Y-117654329D01*
X76952870Y-117644631D01*
X76948450Y-117639722D01*
X76948447Y-117639718D01*
X76906204Y-117592802D01*
X76901920Y-117587787D01*
X76890801Y-117574057D01*
X76888725Y-117571493D01*
X76873910Y-117556678D01*
X76869369Y-117551894D01*
X76827107Y-117504957D01*
X76827105Y-117504956D01*
X76822692Y-117500054D01*
X76810941Y-117491516D01*
X76795909Y-117478677D01*
X76273405Y-116956173D01*
X76239379Y-116893861D01*
X76236500Y-116867078D01*
X76236500Y-116427440D01*
X81979770Y-116427440D01*
X81994200Y-116647604D01*
X81995621Y-116653200D01*
X81995622Y-116653205D01*
X81999253Y-116667500D01*
X82048511Y-116861452D01*
X82140883Y-117061821D01*
X82268222Y-117242002D01*
X82426264Y-117395961D01*
X82431060Y-117399166D01*
X82431063Y-117399168D01*
X82528310Y-117464146D01*
X82609717Y-117518540D01*
X82615020Y-117520818D01*
X82615023Y-117520820D01*
X82776859Y-117590350D01*
X82812436Y-117605635D01*
X82875160Y-117619828D01*
X83021995Y-117653054D01*
X83022001Y-117653055D01*
X83027632Y-117654329D01*
X83033403Y-117654556D01*
X83033405Y-117654556D01*
X83100909Y-117657208D01*
X83248098Y-117662991D01*
X83362358Y-117646424D01*
X83460738Y-117632160D01*
X83460743Y-117632159D01*
X83466452Y-117631331D01*
X83471916Y-117629476D01*
X83471921Y-117629475D01*
X83669907Y-117562268D01*
X83669912Y-117562266D01*
X83675379Y-117560410D01*
X83686229Y-117554334D01*
X83790075Y-117496177D01*
X83867884Y-117452602D01*
X83891000Y-117433377D01*
X84033086Y-117315204D01*
X84037518Y-117311518D01*
X84047288Y-117299771D01*
X84106226Y-117260187D01*
X84177208Y-117258752D01*
X84214164Y-117275576D01*
X84387717Y-117391540D01*
X84393020Y-117393818D01*
X84393023Y-117393820D01*
X84556712Y-117464146D01*
X84590436Y-117478635D01*
X84647375Y-117491519D01*
X84799995Y-117526054D01*
X84800001Y-117526055D01*
X84805632Y-117527329D01*
X84811403Y-117527556D01*
X84811405Y-117527556D01*
X84879211Y-117530220D01*
X85026098Y-117535991D01*
X85146455Y-117518540D01*
X85238738Y-117505160D01*
X85238743Y-117505159D01*
X85244452Y-117504331D01*
X85249916Y-117502476D01*
X85249921Y-117502475D01*
X85447907Y-117435268D01*
X85447912Y-117435266D01*
X85453379Y-117433410D01*
X85463938Y-117427497D01*
X85556870Y-117375452D01*
X85645884Y-117325602D01*
X85658387Y-117315204D01*
X85811086Y-117188204D01*
X85815518Y-117184518D01*
X85893875Y-117090305D01*
X85952908Y-117019326D01*
X85952910Y-117019323D01*
X85956602Y-117014884D01*
X86042528Y-116861452D01*
X86061586Y-116827422D01*
X86061587Y-116827420D01*
X86064410Y-116822379D01*
X86066266Y-116816912D01*
X86066268Y-116816907D01*
X86133475Y-116618921D01*
X86133476Y-116618916D01*
X86135331Y-116613452D01*
X86136159Y-116607743D01*
X86136160Y-116607738D01*
X86161361Y-116433926D01*
X86166991Y-116395098D01*
X86168643Y-116332000D01*
X86148454Y-116112289D01*
X86127304Y-116037294D01*
X86090134Y-115905500D01*
X86088565Y-115899936D01*
X85990980Y-115702053D01*
X85939888Y-115633632D01*
X85862420Y-115529891D01*
X85862420Y-115529890D01*
X85858967Y-115525267D01*
X85696949Y-115375499D01*
X85510350Y-115257764D01*
X85305421Y-115176006D01*
X85299761Y-115174880D01*
X85299757Y-115174879D01*
X85094691Y-115134089D01*
X85094688Y-115134089D01*
X85089024Y-115132962D01*
X85083249Y-115132886D01*
X85083245Y-115132886D01*
X84972504Y-115131437D01*
X84868406Y-115130074D01*
X84862709Y-115131053D01*
X84862708Y-115131053D01*
X84656654Y-115166459D01*
X84656653Y-115166459D01*
X84650957Y-115167438D01*
X84443957Y-115243804D01*
X84438996Y-115246756D01*
X84438995Y-115246756D01*
X84340851Y-115305146D01*
X84254341Y-115356614D01*
X84088457Y-115502090D01*
X84087114Y-115500559D01*
X84033569Y-115531648D01*
X83962645Y-115528444D01*
X83926857Y-115509234D01*
X83923193Y-115506423D01*
X83918949Y-115502499D01*
X83914066Y-115499418D01*
X83914062Y-115499415D01*
X83737233Y-115387845D01*
X83737234Y-115387845D01*
X83732350Y-115384764D01*
X83527421Y-115303006D01*
X83521761Y-115301880D01*
X83521757Y-115301879D01*
X83316691Y-115261089D01*
X83316688Y-115261089D01*
X83311024Y-115259962D01*
X83305249Y-115259886D01*
X83305245Y-115259886D01*
X83194504Y-115258437D01*
X83090406Y-115257074D01*
X83084709Y-115258053D01*
X83084708Y-115258053D01*
X82878654Y-115293459D01*
X82878653Y-115293459D01*
X82872957Y-115294438D01*
X82665957Y-115370804D01*
X82660996Y-115373756D01*
X82660995Y-115373756D01*
X82615759Y-115400669D01*
X82476341Y-115483614D01*
X82310457Y-115629090D01*
X82173863Y-115802360D01*
X82071131Y-115997620D01*
X82005703Y-116208333D01*
X81979770Y-116427440D01*
X76236500Y-116427440D01*
X76236500Y-114014440D01*
X80074770Y-114014440D01*
X80089200Y-114234604D01*
X80090621Y-114240200D01*
X80090622Y-114240205D01*
X80142090Y-114442857D01*
X80143511Y-114448452D01*
X80145928Y-114453694D01*
X80145928Y-114453695D01*
X80184046Y-114536379D01*
X80235883Y-114648821D01*
X80363222Y-114829002D01*
X80521264Y-114982961D01*
X80526060Y-114986166D01*
X80526063Y-114986168D01*
X80610261Y-115042427D01*
X80704717Y-115105540D01*
X80710020Y-115107818D01*
X80710023Y-115107820D01*
X80848788Y-115167438D01*
X80907436Y-115192635D01*
X80987088Y-115210658D01*
X81116995Y-115240054D01*
X81117001Y-115240055D01*
X81122632Y-115241329D01*
X81128403Y-115241556D01*
X81128405Y-115241556D01*
X81196211Y-115244220D01*
X81343098Y-115249991D01*
X81452275Y-115234161D01*
X81555738Y-115219160D01*
X81555743Y-115219159D01*
X81561452Y-115218331D01*
X81566916Y-115216476D01*
X81566921Y-115216475D01*
X81764907Y-115149268D01*
X81764912Y-115149266D01*
X81770379Y-115147410D01*
X81794166Y-115134089D01*
X81881172Y-115085363D01*
X81962884Y-115039602D01*
X82132518Y-114898518D01*
X82234215Y-114776242D01*
X82269908Y-114733326D01*
X82269910Y-114733323D01*
X82273602Y-114728884D01*
X82381410Y-114536379D01*
X82383266Y-114530912D01*
X82383268Y-114530907D01*
X82450475Y-114332921D01*
X82450476Y-114332916D01*
X82452331Y-114327452D01*
X82453159Y-114321743D01*
X82453160Y-114321738D01*
X82483458Y-114112772D01*
X82483991Y-114109098D01*
X82485643Y-114046000D01*
X82465454Y-113826289D01*
X82405565Y-113613936D01*
X82307980Y-113416053D01*
X82300906Y-113406579D01*
X82179420Y-113243891D01*
X82179420Y-113243890D01*
X82175967Y-113239267D01*
X82048532Y-113121467D01*
X82018189Y-113093418D01*
X82018186Y-113093416D01*
X82013949Y-113089499D01*
X81827350Y-112971764D01*
X81622421Y-112890006D01*
X81616761Y-112888880D01*
X81616757Y-112888879D01*
X81529085Y-112871440D01*
X85789770Y-112871440D01*
X85804200Y-113091604D01*
X85805621Y-113097200D01*
X85805622Y-113097205D01*
X85835816Y-113216090D01*
X85858511Y-113305452D01*
X85860928Y-113310694D01*
X85860928Y-113310695D01*
X85907366Y-113411426D01*
X85950883Y-113505821D01*
X86078222Y-113686002D01*
X86236264Y-113839961D01*
X86241060Y-113843166D01*
X86241063Y-113843168D01*
X86325261Y-113899427D01*
X86419717Y-113962540D01*
X86425020Y-113964818D01*
X86425023Y-113964820D01*
X86531265Y-114010465D01*
X86622436Y-114049635D01*
X86702088Y-114067658D01*
X86831995Y-114097054D01*
X86832001Y-114097055D01*
X86837632Y-114098329D01*
X86843403Y-114098556D01*
X86843405Y-114098556D01*
X86911211Y-114101220D01*
X87058098Y-114106991D01*
X87167275Y-114091161D01*
X87270738Y-114076160D01*
X87270743Y-114076159D01*
X87276452Y-114075331D01*
X87281916Y-114073476D01*
X87281921Y-114073475D01*
X87479907Y-114006268D01*
X87479912Y-114006266D01*
X87485379Y-114004410D01*
X87677884Y-113896602D01*
X87847518Y-113755518D01*
X87960644Y-113619500D01*
X87984908Y-113590326D01*
X87984910Y-113590323D01*
X87988602Y-113585884D01*
X88059483Y-113459317D01*
X88093586Y-113398422D01*
X88093587Y-113398420D01*
X88096410Y-113393379D01*
X88098266Y-113387912D01*
X88098268Y-113387907D01*
X88165475Y-113189921D01*
X88165476Y-113189916D01*
X88167331Y-113184452D01*
X88168159Y-113178743D01*
X88168160Y-113178738D01*
X88190067Y-113027645D01*
X88198991Y-112966098D01*
X88200643Y-112903000D01*
X88180454Y-112683289D01*
X88120565Y-112470936D01*
X88022980Y-112273053D01*
X87995178Y-112235821D01*
X87894420Y-112100891D01*
X87894420Y-112100890D01*
X87890967Y-112096267D01*
X87787310Y-112000447D01*
X87733189Y-111950418D01*
X87733186Y-111950416D01*
X87728949Y-111946499D01*
X87542350Y-111828764D01*
X87337421Y-111747006D01*
X87331761Y-111745880D01*
X87331757Y-111745879D01*
X87126691Y-111705089D01*
X87126688Y-111705089D01*
X87121024Y-111703962D01*
X87115249Y-111703886D01*
X87115245Y-111703886D01*
X87004504Y-111702437D01*
X86900406Y-111701074D01*
X86894709Y-111702053D01*
X86894708Y-111702053D01*
X86688654Y-111737459D01*
X86688653Y-111737459D01*
X86682957Y-111738438D01*
X86475957Y-111814804D01*
X86470996Y-111817756D01*
X86470995Y-111817756D01*
X86375295Y-111874692D01*
X86286341Y-111927614D01*
X86120457Y-112073090D01*
X85983863Y-112246360D01*
X85881131Y-112441620D01*
X85815703Y-112652333D01*
X85789770Y-112871440D01*
X81529085Y-112871440D01*
X81411691Y-112848089D01*
X81411688Y-112848089D01*
X81406024Y-112846962D01*
X81400249Y-112846886D01*
X81400245Y-112846886D01*
X81289504Y-112845437D01*
X81185406Y-112844074D01*
X81179709Y-112845053D01*
X81179708Y-112845053D01*
X80973654Y-112880459D01*
X80973653Y-112880459D01*
X80967957Y-112881438D01*
X80760957Y-112957804D01*
X80571341Y-113070614D01*
X80405457Y-113216090D01*
X80268863Y-113389360D01*
X80166131Y-113584620D01*
X80100703Y-113795333D01*
X80074770Y-114014440D01*
X76236500Y-114014440D01*
X76236500Y-113459317D01*
X76256502Y-113391196D01*
X76265626Y-113378747D01*
X76300908Y-113336326D01*
X76300910Y-113336323D01*
X76304602Y-113331884D01*
X76412410Y-113139379D01*
X76414266Y-113133912D01*
X76414268Y-113133907D01*
X76481475Y-112935921D01*
X76481476Y-112935916D01*
X76483331Y-112930452D01*
X76484159Y-112924743D01*
X76484160Y-112924738D01*
X76505014Y-112780910D01*
X76514991Y-112712098D01*
X76516643Y-112649000D01*
X76496454Y-112429289D01*
X76493843Y-112420029D01*
X76452391Y-112273053D01*
X76436565Y-112216936D01*
X76338980Y-112019053D01*
X76280490Y-111940725D01*
X76210420Y-111846891D01*
X76210420Y-111846890D01*
X76206967Y-111842267D01*
X76096547Y-111740196D01*
X76049189Y-111696418D01*
X76049186Y-111696416D01*
X76044949Y-111692499D01*
X75858350Y-111574764D01*
X75653421Y-111493006D01*
X75647761Y-111491880D01*
X75647757Y-111491879D01*
X75448919Y-111452328D01*
X75386009Y-111419421D01*
X75350877Y-111357726D01*
X75347500Y-111328749D01*
X75347500Y-110562104D01*
X75367502Y-110493983D01*
X75420452Y-110448541D01*
X75420379Y-110448410D01*
X75612884Y-110340602D01*
X75659747Y-110301626D01*
X75724911Y-110273445D01*
X75740317Y-110272500D01*
X75764455Y-110272500D01*
X75832576Y-110292502D01*
X75853550Y-110309405D01*
X77392054Y-111847909D01*
X77404893Y-111862941D01*
X77413431Y-111874692D01*
X77418333Y-111879105D01*
X77418334Y-111879107D01*
X77465271Y-111921369D01*
X77470055Y-111925910D01*
X77484870Y-111940725D01*
X77492000Y-111946499D01*
X77501164Y-111953920D01*
X77506179Y-111958204D01*
X77553095Y-112000447D01*
X77553099Y-112000450D01*
X77558008Y-112004870D01*
X77570588Y-112012133D01*
X77586873Y-112023326D01*
X77593026Y-112028308D01*
X77598160Y-112032465D01*
X77604044Y-112035463D01*
X77660283Y-112064118D01*
X77666081Y-112067266D01*
X77720774Y-112098843D01*
X77720776Y-112098844D01*
X77726492Y-112102144D01*
X77740299Y-112106630D01*
X77758563Y-112114195D01*
X77765623Y-112117792D01*
X77771503Y-112120788D01*
X77838885Y-112138843D01*
X77845196Y-112140713D01*
X77911518Y-112162262D01*
X77925951Y-112163779D01*
X77945393Y-112167382D01*
X77959422Y-112171141D01*
X77966012Y-112171486D01*
X77966016Y-112171487D01*
X78029064Y-112174791D01*
X78035639Y-112175308D01*
X78040077Y-112175774D01*
X78056496Y-112177500D01*
X78077465Y-112177500D01*
X78084059Y-112177673D01*
X78147112Y-112180978D01*
X78147117Y-112180978D01*
X78153704Y-112181323D01*
X78168050Y-112179051D01*
X78187759Y-112177500D01*
X79449890Y-112177500D01*
X79519892Y-112198735D01*
X79688717Y-112311540D01*
X79694020Y-112313818D01*
X79694023Y-112313820D01*
X79886129Y-112396355D01*
X79891436Y-112398635D01*
X79947350Y-112411287D01*
X80100995Y-112446054D01*
X80101001Y-112446055D01*
X80106632Y-112447329D01*
X80112403Y-112447556D01*
X80112405Y-112447556D01*
X80180211Y-112450220D01*
X80327098Y-112455991D01*
X80436275Y-112440161D01*
X80539738Y-112425160D01*
X80539743Y-112425159D01*
X80545452Y-112424331D01*
X80550916Y-112422476D01*
X80550921Y-112422475D01*
X80748907Y-112355268D01*
X80748912Y-112355266D01*
X80754379Y-112353410D01*
X80946884Y-112245602D01*
X80958645Y-112235821D01*
X81112086Y-112108204D01*
X81116518Y-112104518D01*
X81147500Y-112067266D01*
X81253908Y-111939326D01*
X81253910Y-111939323D01*
X81257602Y-111934884D01*
X81358503Y-111754712D01*
X81362586Y-111747422D01*
X81362587Y-111747420D01*
X81365410Y-111742379D01*
X81367266Y-111736912D01*
X81367268Y-111736907D01*
X81434475Y-111538921D01*
X81434476Y-111538916D01*
X81436331Y-111533452D01*
X81437159Y-111527743D01*
X81437160Y-111527738D01*
X81456346Y-111395413D01*
X81467991Y-111315098D01*
X81469643Y-111252000D01*
X81449454Y-111032289D01*
X81396807Y-110845615D01*
X81397568Y-110774623D01*
X81408140Y-110749855D01*
X81492410Y-110599379D01*
X81494266Y-110593912D01*
X81494268Y-110593907D01*
X81561475Y-110395921D01*
X81561476Y-110395916D01*
X81563331Y-110390452D01*
X81564159Y-110384743D01*
X81564160Y-110384738D01*
X81588902Y-110214091D01*
X81594991Y-110172098D01*
X81596643Y-110109000D01*
X81576454Y-109889289D01*
X81567282Y-109856765D01*
X81525727Y-109709422D01*
X81516565Y-109676936D01*
X81418980Y-109479053D01*
X81337701Y-109370207D01*
X81290420Y-109306891D01*
X81290420Y-109306890D01*
X81286967Y-109302267D01*
X81124949Y-109152499D01*
X80938350Y-109034764D01*
X80733421Y-108953006D01*
X80727761Y-108951880D01*
X80727757Y-108951879D01*
X80522691Y-108911089D01*
X80522688Y-108911089D01*
X80517024Y-108909962D01*
X80511249Y-108909886D01*
X80511245Y-108909886D01*
X80400504Y-108908437D01*
X80296406Y-108907074D01*
X80290709Y-108908053D01*
X80290708Y-108908053D01*
X80084654Y-108943459D01*
X80084653Y-108943459D01*
X80078957Y-108944438D01*
X79871957Y-109020804D01*
X79866996Y-109023756D01*
X79866995Y-109023756D01*
X79735362Y-109102070D01*
X79682341Y-109133614D01*
X79516457Y-109279090D01*
X79379863Y-109452360D01*
X79277131Y-109647620D01*
X79211703Y-109858333D01*
X79185770Y-110077440D01*
X79186148Y-110083207D01*
X79193295Y-110192260D01*
X79177791Y-110261543D01*
X79127291Y-110311445D01*
X79067565Y-110326500D01*
X78540545Y-110326500D01*
X78472424Y-110306498D01*
X78451450Y-110289595D01*
X78360384Y-110198529D01*
X78326358Y-110136217D01*
X78331423Y-110065402D01*
X78368910Y-110012560D01*
X78445081Y-109949209D01*
X78445086Y-109949204D01*
X78449518Y-109945518D01*
X78494877Y-109890980D01*
X78586908Y-109780326D01*
X78586910Y-109780323D01*
X78590602Y-109775884D01*
X78694512Y-109590339D01*
X78695586Y-109588422D01*
X78695587Y-109588420D01*
X78698410Y-109583379D01*
X78700266Y-109577912D01*
X78700268Y-109577907D01*
X78767475Y-109379921D01*
X78767476Y-109379916D01*
X78769331Y-109374452D01*
X78770159Y-109368743D01*
X78770160Y-109368738D01*
X78789739Y-109233701D01*
X78800991Y-109156098D01*
X78802643Y-109093000D01*
X78800506Y-109069736D01*
X78794355Y-109002806D01*
X78808039Y-108933140D01*
X78857216Y-108881933D01*
X78889777Y-108869009D01*
X78894452Y-108868331D01*
X78964771Y-108844461D01*
X79097907Y-108799268D01*
X79097912Y-108799266D01*
X79103379Y-108797410D01*
X79295884Y-108689602D01*
X79322356Y-108667586D01*
X79461086Y-108552204D01*
X79465518Y-108548518D01*
X79539675Y-108459355D01*
X79602908Y-108383326D01*
X79602910Y-108383323D01*
X79606602Y-108378884D01*
X79697312Y-108216910D01*
X79711586Y-108191422D01*
X79711587Y-108191420D01*
X79714410Y-108186379D01*
X79716266Y-108180912D01*
X79716268Y-108180907D01*
X79783475Y-107982921D01*
X79783476Y-107982916D01*
X79785331Y-107977452D01*
X79786159Y-107971743D01*
X79786160Y-107971738D01*
X79812304Y-107791422D01*
X79816991Y-107759098D01*
X79818643Y-107696000D01*
X79798454Y-107476289D01*
X79738565Y-107263936D01*
X79640980Y-107066053D01*
X79548081Y-106941646D01*
X79512420Y-106893891D01*
X79512420Y-106893890D01*
X79508967Y-106889267D01*
X79383660Y-106773434D01*
X79351189Y-106743418D01*
X79351186Y-106743416D01*
X79346949Y-106739499D01*
X79160350Y-106621764D01*
X78955421Y-106540006D01*
X78949761Y-106538880D01*
X78949757Y-106538879D01*
X78744691Y-106498089D01*
X78744688Y-106498089D01*
X78739024Y-106496962D01*
X78733249Y-106496886D01*
X78733245Y-106496886D01*
X78622504Y-106495437D01*
X78518406Y-106494074D01*
X78512709Y-106495053D01*
X78512708Y-106495053D01*
X78306654Y-106530459D01*
X78306653Y-106530459D01*
X78300957Y-106531438D01*
X78093957Y-106607804D01*
X78088996Y-106610756D01*
X78088995Y-106610756D01*
X78083558Y-106613991D01*
X77904341Y-106720614D01*
X77738457Y-106866090D01*
X77601863Y-107039360D01*
X77499131Y-107234620D01*
X77433703Y-107445333D01*
X77407770Y-107664440D01*
X77414244Y-107763205D01*
X77416093Y-107791422D01*
X77400589Y-107860705D01*
X77350089Y-107910608D01*
X77311699Y-107923843D01*
X77290657Y-107927458D01*
X77290651Y-107927460D01*
X77284957Y-107928438D01*
X77077957Y-108004804D01*
X77072996Y-108007756D01*
X77072995Y-108007756D01*
X76895043Y-108113627D01*
X76888341Y-108117614D01*
X76722457Y-108263090D01*
X76600878Y-108417314D01*
X76542997Y-108458427D01*
X76469321Y-108461016D01*
X76466112Y-108460156D01*
X76459804Y-108458287D01*
X76418818Y-108444970D01*
X76399761Y-108438778D01*
X76399760Y-108438778D01*
X76393482Y-108436738D01*
X76379049Y-108435221D01*
X76359607Y-108431618D01*
X76345578Y-108427859D01*
X76338986Y-108427514D01*
X76338983Y-108427513D01*
X76275938Y-108424209D01*
X76269364Y-108423692D01*
X76251778Y-108421844D01*
X76251776Y-108421844D01*
X76248504Y-108421500D01*
X76227536Y-108421500D01*
X76220942Y-108421327D01*
X76157889Y-108418022D01*
X76157884Y-108418022D01*
X76151297Y-108417677D01*
X76136951Y-108419949D01*
X76117242Y-108421500D01*
X75746253Y-108421500D01*
X75678132Y-108401498D01*
X75669548Y-108395462D01*
X75668194Y-108394423D01*
X75663949Y-108390499D01*
X75477350Y-108272764D01*
X75272421Y-108191006D01*
X75266761Y-108189880D01*
X75266757Y-108189879D01*
X75061691Y-108149089D01*
X75061688Y-108149089D01*
X75056024Y-108147962D01*
X75050249Y-108147886D01*
X75050245Y-108147886D01*
X74939504Y-108146437D01*
X74835406Y-108145074D01*
X74829709Y-108146053D01*
X74829708Y-108146053D01*
X74623654Y-108181459D01*
X74623653Y-108181459D01*
X74617957Y-108182438D01*
X74410957Y-108258804D01*
X74405996Y-108261756D01*
X74405995Y-108261756D01*
X74309263Y-108319306D01*
X74221341Y-108371614D01*
X74055457Y-108517090D01*
X73918863Y-108690360D01*
X73816131Y-108885620D01*
X73750703Y-109096333D01*
X73750024Y-109102070D01*
X73738908Y-109195985D01*
X73707417Y-109265485D01*
X73673553Y-109303095D01*
X73673550Y-109303099D01*
X73669130Y-109308008D01*
X73661869Y-109320585D01*
X73650674Y-109336873D01*
X73645692Y-109343026D01*
X73641535Y-109348160D01*
X73638537Y-109354044D01*
X73609882Y-109410283D01*
X73606734Y-109416081D01*
X73575157Y-109470774D01*
X73571856Y-109476492D01*
X73567657Y-109489415D01*
X73567370Y-109490299D01*
X73559805Y-109508563D01*
X73553212Y-109521503D01*
X73551504Y-109527876D01*
X73551504Y-109527877D01*
X73535159Y-109588878D01*
X73533287Y-109595196D01*
X73511738Y-109661518D01*
X73511048Y-109668084D01*
X73510221Y-109675951D01*
X73506618Y-109695393D01*
X73502859Y-109709422D01*
X73502514Y-109716014D01*
X73502513Y-109716017D01*
X73499209Y-109779062D01*
X73498692Y-109785636D01*
X73496844Y-109803222D01*
X73496500Y-109806496D01*
X73496500Y-109827464D01*
X73496327Y-109834058D01*
X73493109Y-109895464D01*
X73492677Y-109903703D01*
X73493709Y-109910219D01*
X73494949Y-109918047D01*
X73496500Y-109937758D01*
X73496500Y-117011242D01*
X73494949Y-117030951D01*
X73492677Y-117045297D01*
X73493022Y-117051884D01*
X73493022Y-117051889D01*
X73496327Y-117114942D01*
X73496500Y-117121536D01*
X73496500Y-117142504D01*
X73496844Y-117145776D01*
X73496844Y-117145778D01*
X73498692Y-117163364D01*
X73499209Y-117169938D01*
X73500167Y-117188204D01*
X73502859Y-117239578D01*
X73506618Y-117253607D01*
X73510221Y-117273049D01*
X73511738Y-117287482D01*
X73513778Y-117293760D01*
X73513778Y-117293761D01*
X73533285Y-117353797D01*
X73535157Y-117360115D01*
X73539267Y-117375452D01*
X73550414Y-117417053D01*
X73553212Y-117427497D01*
X73556208Y-117433377D01*
X73559805Y-117440437D01*
X73567370Y-117458700D01*
X73571856Y-117472508D01*
X73575156Y-117478224D01*
X73575157Y-117478226D01*
X73606734Y-117532919D01*
X73609882Y-117538717D01*
X73641535Y-117600840D01*
X73645690Y-117605972D01*
X73645692Y-117605974D01*
X73650674Y-117612127D01*
X73661867Y-117628412D01*
X73669130Y-117640992D01*
X73673550Y-117645901D01*
X73673553Y-117645905D01*
X73715796Y-117692821D01*
X73720080Y-117697836D01*
X73733275Y-117714130D01*
X73748090Y-117728945D01*
X73752631Y-117733729D01*
X73799308Y-117785569D01*
X73811064Y-117794110D01*
X73826092Y-117806947D01*
X74788084Y-118768939D01*
X74822110Y-118831251D01*
X74824989Y-118858034D01*
X74824990Y-121642435D01*
X74823439Y-121662146D01*
X74821167Y-121676491D01*
X74821512Y-121683078D01*
X74821512Y-121683083D01*
X74824817Y-121746136D01*
X74824990Y-121752730D01*
X74824990Y-121773698D01*
X74825334Y-121776970D01*
X74825334Y-121776972D01*
X74827182Y-121794558D01*
X74827699Y-121801132D01*
X74830765Y-121859624D01*
X74831349Y-121870772D01*
X74835108Y-121884801D01*
X74838711Y-121904243D01*
X74840228Y-121918676D01*
X74859991Y-121979499D01*
X74861775Y-121984991D01*
X74863649Y-121991316D01*
X74878684Y-122047426D01*
X74881702Y-122058691D01*
X74884698Y-122064571D01*
X74888295Y-122071631D01*
X74895860Y-122089894D01*
X74900346Y-122103702D01*
X74903646Y-122109418D01*
X74903647Y-122109420D01*
X74935224Y-122164113D01*
X74938372Y-122169911D01*
X74955150Y-122202839D01*
X74970025Y-122232034D01*
X74974180Y-122237166D01*
X74974182Y-122237168D01*
X74979164Y-122243321D01*
X74990357Y-122259606D01*
X74997620Y-122272186D01*
X75002040Y-122277095D01*
X75002043Y-122277099D01*
X75044286Y-122324015D01*
X75048570Y-122329030D01*
X75061765Y-122345324D01*
X75076580Y-122360139D01*
X75081121Y-122364923D01*
X75119267Y-122407288D01*
X75127798Y-122416763D01*
X75139554Y-122425304D01*
X75154582Y-122438141D01*
X76137522Y-123421081D01*
X76171548Y-123483393D01*
X76166483Y-123554208D01*
X76147377Y-123588181D01*
X76127150Y-123613839D01*
X76077863Y-123676360D01*
X75975131Y-123871620D01*
X75909703Y-124082333D01*
X75909024Y-124088071D01*
X75899758Y-124166360D01*
X75871888Y-124231658D01*
X75813140Y-124271522D01*
X75742165Y-124273297D01*
X75695166Y-124249333D01*
X75241788Y-123880885D01*
X75237691Y-123877408D01*
X75058921Y-123719002D01*
X74940238Y-123613839D01*
X74549060Y-123267222D01*
X74545115Y-123263573D01*
X74221004Y-122950721D01*
X73883133Y-122624587D01*
X73879358Y-122620785D01*
X73782152Y-122518597D01*
X73245208Y-121954137D01*
X73241592Y-121950170D01*
X73180230Y-121879891D01*
X72636459Y-121257107D01*
X72633014Y-121252987D01*
X72615067Y-121230570D01*
X72057962Y-120534727D01*
X72054705Y-120530475D01*
X71907771Y-120329991D01*
X71510823Y-119788376D01*
X71507761Y-119784007D01*
X70995985Y-119019348D01*
X70993096Y-119014825D01*
X70797607Y-118693936D01*
X70514422Y-118229097D01*
X70511729Y-118224457D01*
X70465009Y-118139845D01*
X70126088Y-117526054D01*
X70066972Y-117418993D01*
X70064476Y-117414234D01*
X69769869Y-116822379D01*
X69654494Y-116590594D01*
X69652204Y-116585738D01*
X69582296Y-116428861D01*
X69277688Y-115745309D01*
X69275610Y-115740364D01*
X69267937Y-115720958D01*
X69132882Y-115379418D01*
X68937283Y-114884765D01*
X68935414Y-114879727D01*
X68633871Y-114010465D01*
X68632219Y-114005352D01*
X68507802Y-113590326D01*
X68368012Y-113124018D01*
X68366584Y-113118857D01*
X68360127Y-113093418D01*
X68190486Y-112425160D01*
X68140204Y-112227086D01*
X68138993Y-112221851D01*
X68003807Y-111574764D01*
X67950839Y-111321226D01*
X67949853Y-111315951D01*
X67800266Y-110408086D01*
X67799508Y-110402781D01*
X67798677Y-110395921D01*
X67688773Y-109489415D01*
X67688240Y-109484068D01*
X67616548Y-108566784D01*
X67616244Y-108561419D01*
X67583730Y-107641949D01*
X67583654Y-107636576D01*
X67588126Y-107024345D01*
X67590375Y-106716496D01*
X67590528Y-106711142D01*
X67591574Y-106690234D01*
X67619123Y-106139204D01*
X67622961Y-106062444D01*
X67646340Y-105995407D01*
X67702250Y-105951652D01*
X67772941Y-105945069D01*
X67820418Y-105967227D01*
X67821264Y-105965961D01*
X68004717Y-106088540D01*
X68010020Y-106090818D01*
X68010023Y-106090820D01*
X68202129Y-106173355D01*
X68207436Y-106175635D01*
X68263350Y-106188287D01*
X68416995Y-106223054D01*
X68417001Y-106223055D01*
X68422632Y-106224329D01*
X68428403Y-106224556D01*
X68428405Y-106224556D01*
X68496211Y-106227220D01*
X68643098Y-106232991D01*
X68752275Y-106217161D01*
X68855738Y-106202160D01*
X68855743Y-106202159D01*
X68861452Y-106201331D01*
X68866916Y-106199476D01*
X68866921Y-106199475D01*
X69064907Y-106132268D01*
X69064912Y-106132266D01*
X69070379Y-106130410D01*
X69137387Y-106092884D01*
X69191741Y-106062444D01*
X69262884Y-106022602D01*
X69274645Y-106012821D01*
X69428086Y-105885204D01*
X69432518Y-105881518D01*
X69499276Y-105801251D01*
X69569908Y-105716326D01*
X69569910Y-105716323D01*
X69573602Y-105711884D01*
X69681410Y-105519379D01*
X69683266Y-105513912D01*
X69683268Y-105513907D01*
X69750475Y-105315921D01*
X69750476Y-105315916D01*
X69752331Y-105310452D01*
X69753159Y-105304743D01*
X69753160Y-105304738D01*
X69773081Y-105167343D01*
X69783991Y-105092098D01*
X69785643Y-105029000D01*
X69765454Y-104809289D01*
X69705565Y-104596936D01*
X69607980Y-104399053D01*
X69559556Y-104334205D01*
X69479420Y-104226891D01*
X69479420Y-104226890D01*
X69475967Y-104222267D01*
X69365810Y-104120439D01*
X69318189Y-104076418D01*
X69318186Y-104076416D01*
X69313949Y-104072499D01*
X69127350Y-103954764D01*
X68922421Y-103873006D01*
X68916761Y-103871880D01*
X68916757Y-103871879D01*
X68711691Y-103831089D01*
X68711688Y-103831089D01*
X68706024Y-103829962D01*
X68700249Y-103829886D01*
X68700245Y-103829886D01*
X68589504Y-103828437D01*
X68485406Y-103827074D01*
X68479709Y-103828053D01*
X68479708Y-103828053D01*
X68273654Y-103863459D01*
X68273653Y-103863459D01*
X68267957Y-103864438D01*
X68060957Y-103940804D01*
X68055995Y-103943756D01*
X68050779Y-103946244D01*
X68049617Y-103943808D01*
X67991880Y-103958587D01*
X67924501Y-103936213D01*
X67879915Y-103880963D01*
X67872279Y-103810366D01*
X67966693Y-103285289D01*
X68010280Y-103042883D01*
X68011341Y-103037626D01*
X68022884Y-102986146D01*
X68212642Y-102139799D01*
X68213926Y-102134599D01*
X68215435Y-102129002D01*
X68453307Y-101246241D01*
X68454812Y-101241093D01*
X68474335Y-101179268D01*
X68731870Y-100363699D01*
X68733593Y-100358622D01*
X68734018Y-100357452D01*
X68793654Y-100193324D01*
X68835716Y-100136130D01*
X68902023Y-100110756D01*
X68971523Y-100125258D01*
X69022149Y-100175033D01*
X69037808Y-100228112D01*
X69039592Y-100255329D01*
X69040200Y-100264604D01*
X69041621Y-100270200D01*
X69041622Y-100270205D01*
X69072915Y-100393418D01*
X69094511Y-100478452D01*
X69096928Y-100483694D01*
X69096928Y-100483695D01*
X69135046Y-100566379D01*
X69186883Y-100678821D01*
X69314222Y-100859002D01*
X69472264Y-101012961D01*
X69477060Y-101016166D01*
X69477063Y-101016168D01*
X69561261Y-101072427D01*
X69655717Y-101135540D01*
X69661020Y-101137818D01*
X69661023Y-101137820D01*
X69853129Y-101220355D01*
X69858436Y-101222635D01*
X69938088Y-101240658D01*
X70067995Y-101270054D01*
X70068001Y-101270055D01*
X70073632Y-101271329D01*
X70079403Y-101271556D01*
X70079405Y-101271556D01*
X70147211Y-101274220D01*
X70294098Y-101279991D01*
X70403275Y-101264161D01*
X70506738Y-101249160D01*
X70506743Y-101249159D01*
X70512452Y-101248331D01*
X70517916Y-101246476D01*
X70517921Y-101246475D01*
X70715907Y-101179268D01*
X70715912Y-101179266D01*
X70721379Y-101177410D01*
X70913884Y-101069602D01*
X71083518Y-100928518D01*
X71224602Y-100758884D01*
X71332410Y-100566379D01*
X71334266Y-100560912D01*
X71334268Y-100560907D01*
X71401475Y-100362921D01*
X71401476Y-100362916D01*
X71403331Y-100357452D01*
X71404159Y-100351743D01*
X71404160Y-100351738D01*
X71433011Y-100152755D01*
X71462581Y-100088209D01*
X71522353Y-100049897D01*
X71589041Y-100048793D01*
X71653300Y-100065292D01*
X71653310Y-100065294D01*
X71657139Y-100066277D01*
X71975536Y-100106500D01*
X72296464Y-100106500D01*
X72614861Y-100066277D01*
X72925706Y-99986466D01*
X73224097Y-99868324D01*
X73227559Y-99866421D01*
X73501856Y-99715625D01*
X73501859Y-99715623D01*
X73505328Y-99713716D01*
X73508532Y-99711388D01*
X73508537Y-99711385D01*
X73761760Y-99527408D01*
X73761762Y-99527407D01*
X73764964Y-99525080D01*
X73998911Y-99305390D01*
X74203478Y-99058110D01*
X74335590Y-98849934D01*
X74373315Y-98790489D01*
X74373315Y-98790488D01*
X74375439Y-98787142D01*
X74377123Y-98783563D01*
X74377127Y-98783556D01*
X74510395Y-98500348D01*
X74510397Y-98500344D01*
X74512084Y-98496758D01*
X74611256Y-98191538D01*
X74671392Y-97876294D01*
X74691543Y-97556000D01*
X74671392Y-97235706D01*
X74611256Y-96920462D01*
X74545392Y-96717753D01*
X74513310Y-96619015D01*
X74513310Y-96619014D01*
X74512084Y-96615242D01*
X74510395Y-96611652D01*
X74377127Y-96328444D01*
X74377123Y-96328437D01*
X74375439Y-96324858D01*
X74203478Y-96053890D01*
X74142715Y-95980440D01*
X79439770Y-95980440D01*
X79454200Y-96200604D01*
X79455621Y-96206200D01*
X79455622Y-96206205D01*
X79486969Y-96329632D01*
X79508511Y-96414452D01*
X79510928Y-96419694D01*
X79510928Y-96419695D01*
X79547193Y-96498360D01*
X79600883Y-96614821D01*
X79728222Y-96795002D01*
X79886264Y-96948961D01*
X79891060Y-96952166D01*
X79891063Y-96952168D01*
X79975261Y-97008427D01*
X80069717Y-97071540D01*
X80075020Y-97073818D01*
X80075023Y-97073820D01*
X80190517Y-97123440D01*
X80272436Y-97158635D01*
X80352088Y-97176658D01*
X80481995Y-97206054D01*
X80482001Y-97206055D01*
X80487632Y-97207329D01*
X80493403Y-97207556D01*
X80493405Y-97207556D01*
X80561211Y-97210220D01*
X80708098Y-97215991D01*
X80817275Y-97200161D01*
X80920738Y-97185160D01*
X80920743Y-97185159D01*
X80926452Y-97184331D01*
X80931916Y-97182476D01*
X80931921Y-97182475D01*
X81129907Y-97115268D01*
X81129912Y-97115266D01*
X81135379Y-97113410D01*
X81140992Y-97110267D01*
X81215875Y-97068330D01*
X81327884Y-97005602D01*
X81363341Y-96976113D01*
X81493086Y-96868204D01*
X81497518Y-96864518D01*
X81575371Y-96770911D01*
X81634908Y-96699326D01*
X81634910Y-96699323D01*
X81638602Y-96694884D01*
X81706527Y-96573595D01*
X81743586Y-96507422D01*
X81743587Y-96507420D01*
X81746410Y-96502379D01*
X81748266Y-96496912D01*
X81748268Y-96496907D01*
X81815475Y-96298921D01*
X81815476Y-96298916D01*
X81817331Y-96293452D01*
X81818159Y-96287743D01*
X81818160Y-96287738D01*
X81844792Y-96104056D01*
X81848991Y-96075098D01*
X81850643Y-96012000D01*
X81830454Y-95792289D01*
X81822416Y-95763786D01*
X81773299Y-95589631D01*
X81770565Y-95579936D01*
X81672980Y-95382053D01*
X81569649Y-95243676D01*
X81544420Y-95209891D01*
X81544420Y-95209890D01*
X81540967Y-95205267D01*
X81433455Y-95105884D01*
X81383189Y-95059418D01*
X81383186Y-95059416D01*
X81378949Y-95055499D01*
X81192350Y-94937764D01*
X80987421Y-94856006D01*
X80981761Y-94854880D01*
X80981757Y-94854879D01*
X80776691Y-94814089D01*
X80776688Y-94814089D01*
X80771024Y-94812962D01*
X80765249Y-94812886D01*
X80765245Y-94812886D01*
X80654504Y-94811437D01*
X80550406Y-94810074D01*
X80544709Y-94811053D01*
X80544708Y-94811053D01*
X80338654Y-94846459D01*
X80338653Y-94846459D01*
X80332957Y-94847438D01*
X80125957Y-94923804D01*
X80120996Y-94926756D01*
X80120995Y-94926756D01*
X80050311Y-94968809D01*
X79936341Y-95036614D01*
X79770457Y-95182090D01*
X79633863Y-95355360D01*
X79531131Y-95550620D01*
X79465703Y-95761333D01*
X79439770Y-95980440D01*
X74142715Y-95980440D01*
X73998911Y-95806610D01*
X73764964Y-95586920D01*
X73761760Y-95584592D01*
X73508537Y-95400615D01*
X73508532Y-95400612D01*
X73505328Y-95398284D01*
X73485229Y-95387234D01*
X73227559Y-95245579D01*
X73227556Y-95245578D01*
X73224097Y-95243676D01*
X72925706Y-95125534D01*
X72614861Y-95045723D01*
X72296464Y-95005500D01*
X71975536Y-95005500D01*
X71658144Y-95045596D01*
X71588053Y-95034290D01*
X71535202Y-94986884D01*
X71516370Y-94918431D01*
X71538675Y-94848986D01*
X71691497Y-94627713D01*
X71694645Y-94623357D01*
X72249310Y-93889283D01*
X72252640Y-93885066D01*
X72838098Y-93175313D01*
X72841605Y-93171241D01*
X73398935Y-92551440D01*
X74359770Y-92551440D01*
X74374200Y-92771604D01*
X74375621Y-92777200D01*
X74375622Y-92777205D01*
X74410691Y-92915287D01*
X74428511Y-92985452D01*
X74430928Y-92990694D01*
X74430928Y-92990695D01*
X74492375Y-93123982D01*
X74520883Y-93185821D01*
X74648222Y-93366002D01*
X74806264Y-93519961D01*
X74811060Y-93523166D01*
X74811063Y-93523168D01*
X74895261Y-93579427D01*
X74989717Y-93642540D01*
X74995020Y-93644818D01*
X74995023Y-93644820D01*
X75171860Y-93720795D01*
X75192436Y-93729635D01*
X75272088Y-93747658D01*
X75401995Y-93777054D01*
X75402001Y-93777055D01*
X75407632Y-93778329D01*
X75413403Y-93778556D01*
X75413405Y-93778556D01*
X75481211Y-93781220D01*
X75628098Y-93786991D01*
X75737275Y-93771161D01*
X75840738Y-93756160D01*
X75840743Y-93756159D01*
X75846452Y-93755331D01*
X75851916Y-93753476D01*
X75851921Y-93753475D01*
X76049907Y-93686268D01*
X76049912Y-93686266D01*
X76055379Y-93684410D01*
X76116523Y-93650168D01*
X76221601Y-93591321D01*
X76247884Y-93576602D01*
X76260387Y-93566204D01*
X76413086Y-93439204D01*
X76417518Y-93435518D01*
X76455854Y-93389424D01*
X76554908Y-93270326D01*
X76554910Y-93270323D01*
X76558602Y-93265884D01*
X76644528Y-93112452D01*
X76663586Y-93078422D01*
X76663587Y-93078420D01*
X76666410Y-93073379D01*
X76668266Y-93067912D01*
X76668268Y-93067907D01*
X76735475Y-92869921D01*
X76735476Y-92869916D01*
X76737331Y-92864452D01*
X76738159Y-92858743D01*
X76738160Y-92858738D01*
X76745888Y-92805440D01*
X84646770Y-92805440D01*
X84661200Y-93025604D01*
X84662621Y-93031200D01*
X84662622Y-93031205D01*
X84706763Y-93205006D01*
X84715511Y-93239452D01*
X84717928Y-93244694D01*
X84717928Y-93244695D01*
X84786245Y-93392884D01*
X84807883Y-93439821D01*
X84935222Y-93620002D01*
X85093264Y-93773961D01*
X85098060Y-93777166D01*
X85098063Y-93777168D01*
X85182261Y-93833427D01*
X85276717Y-93896540D01*
X85282020Y-93898818D01*
X85282023Y-93898820D01*
X85474129Y-93981355D01*
X85479436Y-93983635D01*
X85559088Y-94001658D01*
X85688995Y-94031054D01*
X85689001Y-94031055D01*
X85694632Y-94032329D01*
X85700403Y-94032556D01*
X85700405Y-94032556D01*
X85768211Y-94035220D01*
X85915098Y-94040991D01*
X86032648Y-94023947D01*
X86127738Y-94010160D01*
X86127743Y-94010159D01*
X86133452Y-94009331D01*
X86138916Y-94007476D01*
X86138921Y-94007475D01*
X86336907Y-93940268D01*
X86336912Y-93940266D01*
X86342379Y-93938410D01*
X86401791Y-93905138D01*
X86422875Y-93893330D01*
X86534884Y-93830602D01*
X86561356Y-93808586D01*
X86700086Y-93693204D01*
X86704518Y-93689518D01*
X86786188Y-93591321D01*
X86841908Y-93524326D01*
X86841910Y-93524323D01*
X86845602Y-93519884D01*
X86953410Y-93327379D01*
X86955266Y-93321912D01*
X86955268Y-93321907D01*
X87022475Y-93123921D01*
X87022476Y-93123916D01*
X87024331Y-93118452D01*
X87025159Y-93112743D01*
X87025160Y-93112738D01*
X87053379Y-92918111D01*
X87055991Y-92900098D01*
X87057643Y-92837000D01*
X87057304Y-92833309D01*
X87057189Y-92829804D01*
X87074949Y-92761065D01*
X87127054Y-92712840D01*
X87196959Y-92700440D01*
X87262471Y-92727803D01*
X87271038Y-92735420D01*
X87289764Y-92753662D01*
X87294560Y-92756867D01*
X87294563Y-92756869D01*
X87420029Y-92840702D01*
X87473217Y-92876241D01*
X87478520Y-92878519D01*
X87478523Y-92878521D01*
X87670629Y-92961056D01*
X87675936Y-92963336D01*
X87748948Y-92979857D01*
X87885495Y-93010755D01*
X87885501Y-93010756D01*
X87891132Y-93012030D01*
X87896903Y-93012257D01*
X87896905Y-93012257D01*
X87964711Y-93014921D01*
X88111598Y-93020692D01*
X88220775Y-93004862D01*
X88324238Y-92989861D01*
X88324243Y-92989860D01*
X88329952Y-92989032D01*
X88335416Y-92987177D01*
X88335421Y-92987176D01*
X88533407Y-92919969D01*
X88533412Y-92919967D01*
X88538879Y-92918111D01*
X88577667Y-92896389D01*
X88644897Y-92858738D01*
X88731384Y-92810303D01*
X88737232Y-92805440D01*
X88889931Y-92678440D01*
X89853770Y-92678440D01*
X89868200Y-92898604D01*
X89869621Y-92904200D01*
X89869622Y-92904205D01*
X89908811Y-93058508D01*
X89922511Y-93112452D01*
X89924928Y-93117694D01*
X89924928Y-93117695D01*
X89960778Y-93195459D01*
X90014883Y-93312821D01*
X90142222Y-93493002D01*
X90300264Y-93646961D01*
X90305060Y-93650166D01*
X90305063Y-93650168D01*
X90410765Y-93720795D01*
X90483717Y-93769540D01*
X90489020Y-93771818D01*
X90489023Y-93771820D01*
X90627558Y-93831339D01*
X90686436Y-93856635D01*
X90766088Y-93874658D01*
X90895995Y-93904054D01*
X90896001Y-93904055D01*
X90901632Y-93905329D01*
X90907403Y-93905556D01*
X90907405Y-93905556D01*
X90975211Y-93908220D01*
X91122098Y-93913991D01*
X91242455Y-93896540D01*
X91334738Y-93883160D01*
X91334743Y-93883159D01*
X91340452Y-93882331D01*
X91345916Y-93880476D01*
X91345921Y-93880475D01*
X91543907Y-93813268D01*
X91543912Y-93813266D01*
X91549379Y-93811410D01*
X91610523Y-93777168D01*
X91683615Y-93736234D01*
X91741884Y-93703602D01*
X91754387Y-93693204D01*
X91907086Y-93566204D01*
X91911518Y-93562518D01*
X91950353Y-93515824D01*
X92048908Y-93397326D01*
X92048910Y-93397323D01*
X92052602Y-93392884D01*
X92138528Y-93239452D01*
X92157586Y-93205422D01*
X92157587Y-93205420D01*
X92160410Y-93200379D01*
X92162266Y-93194912D01*
X92162268Y-93194907D01*
X92229475Y-92996921D01*
X92229476Y-92996916D01*
X92231331Y-92991452D01*
X92232159Y-92985743D01*
X92232160Y-92985738D01*
X92257187Y-92813128D01*
X92262991Y-92773098D01*
X92264643Y-92710000D01*
X92244454Y-92490289D01*
X92184565Y-92277936D01*
X92086980Y-92080053D01*
X92050138Y-92030715D01*
X91958420Y-91907891D01*
X91958420Y-91907890D01*
X91954967Y-91903267D01*
X91857323Y-91813006D01*
X91797189Y-91757418D01*
X91797186Y-91757416D01*
X91792949Y-91753499D01*
X91606350Y-91635764D01*
X91431570Y-91566034D01*
X91406785Y-91556146D01*
X91401421Y-91554006D01*
X91395761Y-91552880D01*
X91395757Y-91552879D01*
X91190691Y-91512089D01*
X91190688Y-91512089D01*
X91185024Y-91510962D01*
X91179249Y-91510886D01*
X91179245Y-91510886D01*
X91068504Y-91509437D01*
X90964406Y-91508074D01*
X90958709Y-91509053D01*
X90958708Y-91509053D01*
X90752654Y-91544459D01*
X90752653Y-91544459D01*
X90746957Y-91545438D01*
X90539957Y-91621804D01*
X90534996Y-91624756D01*
X90534995Y-91624756D01*
X90436851Y-91683146D01*
X90350341Y-91734614D01*
X90184457Y-91880090D01*
X90047863Y-92053360D01*
X89945131Y-92248620D01*
X89879703Y-92459333D01*
X89853770Y-92678440D01*
X88889931Y-92678440D01*
X88896586Y-92672905D01*
X88901018Y-92669219D01*
X88965183Y-92592070D01*
X89038408Y-92504027D01*
X89038410Y-92504024D01*
X89042102Y-92499585D01*
X89115207Y-92369046D01*
X89147086Y-92312123D01*
X89147087Y-92312121D01*
X89149910Y-92307080D01*
X89151766Y-92301613D01*
X89151768Y-92301608D01*
X89218975Y-92103622D01*
X89218976Y-92103617D01*
X89220831Y-92098153D01*
X89221659Y-92092444D01*
X89221660Y-92092439D01*
X89241870Y-91953053D01*
X89252491Y-91879799D01*
X89254143Y-91816701D01*
X89233954Y-91596990D01*
X89221832Y-91554006D01*
X89175634Y-91390201D01*
X89174065Y-91384637D01*
X89076480Y-91186754D01*
X88947966Y-91014653D01*
X88947920Y-91014592D01*
X88947920Y-91014591D01*
X88944467Y-91009968D01*
X88846515Y-90919422D01*
X88786689Y-90864119D01*
X88786686Y-90864117D01*
X88782449Y-90860200D01*
X88595850Y-90742465D01*
X88390921Y-90660707D01*
X88385261Y-90659581D01*
X88385257Y-90659580D01*
X88180191Y-90618790D01*
X88180188Y-90618790D01*
X88174524Y-90617663D01*
X88168749Y-90617587D01*
X88168745Y-90617587D01*
X88058004Y-90616138D01*
X87953906Y-90614775D01*
X87948209Y-90615754D01*
X87948208Y-90615754D01*
X87742154Y-90651160D01*
X87742153Y-90651160D01*
X87736457Y-90652139D01*
X87529457Y-90728505D01*
X87524496Y-90731457D01*
X87524495Y-90731457D01*
X87417893Y-90794879D01*
X87339841Y-90841315D01*
X87173957Y-90986791D01*
X87037363Y-91160061D01*
X86934631Y-91355321D01*
X86869203Y-91566034D01*
X86843270Y-91785141D01*
X86843648Y-91790908D01*
X86843648Y-91790909D01*
X86845863Y-91824712D01*
X86830359Y-91893995D01*
X86779858Y-91943897D01*
X86710395Y-91958574D01*
X86644024Y-91933367D01*
X86634611Y-91925482D01*
X86600549Y-91893995D01*
X86590189Y-91884418D01*
X86590186Y-91884416D01*
X86585949Y-91880499D01*
X86399350Y-91762764D01*
X86194421Y-91681006D01*
X86188761Y-91679880D01*
X86188757Y-91679879D01*
X85983691Y-91639089D01*
X85983688Y-91639089D01*
X85978024Y-91637962D01*
X85972249Y-91637886D01*
X85972245Y-91637886D01*
X85861504Y-91636437D01*
X85757406Y-91635074D01*
X85751709Y-91636053D01*
X85751708Y-91636053D01*
X85545654Y-91671459D01*
X85545653Y-91671459D01*
X85539957Y-91672438D01*
X85332957Y-91748804D01*
X85327996Y-91751756D01*
X85327995Y-91751756D01*
X85160913Y-91851160D01*
X85143341Y-91861614D01*
X84977457Y-92007090D01*
X84840863Y-92180360D01*
X84738131Y-92375620D01*
X84700738Y-92496046D01*
X84681879Y-92556783D01*
X84672703Y-92586333D01*
X84646770Y-92805440D01*
X76745888Y-92805440D01*
X76758825Y-92716209D01*
X76768991Y-92646098D01*
X76770643Y-92583000D01*
X76750454Y-92363289D01*
X76729194Y-92287904D01*
X76692134Y-92156500D01*
X76690565Y-92150936D01*
X76592980Y-91953053D01*
X76572387Y-91925475D01*
X76464420Y-91780891D01*
X76464420Y-91780890D01*
X76460967Y-91776267D01*
X76350797Y-91674427D01*
X76303189Y-91630418D01*
X76303186Y-91630416D01*
X76298949Y-91626499D01*
X76112350Y-91508764D01*
X75907421Y-91427006D01*
X75901761Y-91425880D01*
X75901757Y-91425879D01*
X75696691Y-91385089D01*
X75696688Y-91385089D01*
X75691024Y-91383962D01*
X75685249Y-91383886D01*
X75685245Y-91383886D01*
X75574504Y-91382437D01*
X75470406Y-91381074D01*
X75464709Y-91382053D01*
X75464708Y-91382053D01*
X75258654Y-91417459D01*
X75258653Y-91417459D01*
X75252957Y-91418438D01*
X75045957Y-91494804D01*
X75040996Y-91497756D01*
X75040995Y-91497756D01*
X74864522Y-91602747D01*
X74856341Y-91607614D01*
X74690457Y-91753090D01*
X74553863Y-91926360D01*
X74451131Y-92121620D01*
X74385703Y-92332333D01*
X74359770Y-92551440D01*
X73398935Y-92551440D01*
X73456802Y-92487087D01*
X73460480Y-92483169D01*
X74104296Y-91825861D01*
X74108137Y-91822103D01*
X74779385Y-91192852D01*
X74783358Y-91189283D01*
X75480878Y-90589181D01*
X75484958Y-90585820D01*
X76207415Y-90016017D01*
X76211642Y-90012825D01*
X76387120Y-89886178D01*
X76454060Y-89862532D01*
X76523161Y-89878831D01*
X76572480Y-89929901D01*
X76586359Y-89999528D01*
X76572364Y-90047017D01*
X76483131Y-90216620D01*
X76417703Y-90427333D01*
X76391770Y-90646440D01*
X76401499Y-90794879D01*
X76404543Y-90841315D01*
X76406200Y-90866604D01*
X76407621Y-90872200D01*
X76407622Y-90872205D01*
X76443800Y-91014653D01*
X76460511Y-91080452D01*
X76462928Y-91085694D01*
X76462928Y-91085695D01*
X76499238Y-91164457D01*
X76552883Y-91280821D01*
X76680222Y-91461002D01*
X76838264Y-91614961D01*
X76843060Y-91618166D01*
X76843063Y-91618168D01*
X76940310Y-91683146D01*
X77021717Y-91737540D01*
X77027020Y-91739818D01*
X77027023Y-91739820D01*
X77219001Y-91822300D01*
X77224436Y-91824635D01*
X77304088Y-91842658D01*
X77433995Y-91872054D01*
X77434001Y-91872055D01*
X77439632Y-91873329D01*
X77445403Y-91873556D01*
X77445405Y-91873556D01*
X77509905Y-91876090D01*
X77660098Y-91881991D01*
X77774358Y-91865424D01*
X77872738Y-91851160D01*
X77872743Y-91851159D01*
X77878452Y-91850331D01*
X77883916Y-91848476D01*
X77883921Y-91848475D01*
X78081907Y-91781268D01*
X78081912Y-91781266D01*
X78087379Y-91779410D01*
X78092992Y-91776267D01*
X78193870Y-91719772D01*
X78279884Y-91671602D01*
X78318977Y-91639089D01*
X78374510Y-91592902D01*
X78439675Y-91564721D01*
X78492480Y-91569794D01*
X78494436Y-91570635D01*
X78508238Y-91573758D01*
X78703995Y-91618054D01*
X78704001Y-91618055D01*
X78709632Y-91619329D01*
X78715403Y-91619556D01*
X78715405Y-91619556D01*
X78783211Y-91622220D01*
X78930098Y-91627991D01*
X79044358Y-91611424D01*
X79142738Y-91597160D01*
X79142743Y-91597159D01*
X79148452Y-91596331D01*
X79153916Y-91594476D01*
X79153921Y-91594475D01*
X79351907Y-91527268D01*
X79351912Y-91527266D01*
X79357379Y-91525410D01*
X79381166Y-91512089D01*
X79480807Y-91456287D01*
X79549884Y-91417602D01*
X79588977Y-91385089D01*
X79715086Y-91280204D01*
X79719518Y-91276518D01*
X79789103Y-91192852D01*
X79856908Y-91111326D01*
X79856910Y-91111323D01*
X79860602Y-91106884D01*
X79968410Y-90914379D01*
X79970266Y-90908912D01*
X79970268Y-90908907D01*
X80037475Y-90710921D01*
X80037476Y-90710916D01*
X80039331Y-90705452D01*
X80040159Y-90699743D01*
X80040160Y-90699738D01*
X80063549Y-90538422D01*
X80070991Y-90487098D01*
X80072643Y-90424000D01*
X80052454Y-90204289D01*
X79998066Y-90011440D01*
X89472770Y-90011440D01*
X89487200Y-90231604D01*
X89488621Y-90237200D01*
X89488622Y-90237205D01*
X89538366Y-90433070D01*
X89541511Y-90445452D01*
X89543928Y-90450694D01*
X89543928Y-90450695D01*
X89619606Y-90614851D01*
X89633883Y-90645821D01*
X89761222Y-90826002D01*
X89919264Y-90979961D01*
X89924060Y-90983166D01*
X89924063Y-90983168D01*
X90008261Y-91039427D01*
X90102717Y-91102540D01*
X90108020Y-91104818D01*
X90108023Y-91104820D01*
X90298730Y-91186754D01*
X90305436Y-91189635D01*
X90384326Y-91207486D01*
X90514995Y-91237054D01*
X90515001Y-91237055D01*
X90520632Y-91238329D01*
X90526403Y-91238556D01*
X90526405Y-91238556D01*
X90594211Y-91241220D01*
X90741098Y-91246991D01*
X90850275Y-91231161D01*
X90953738Y-91216160D01*
X90953743Y-91216159D01*
X90959452Y-91215331D01*
X90964916Y-91213476D01*
X90964921Y-91213475D01*
X91162907Y-91146268D01*
X91162912Y-91146266D01*
X91168379Y-91144410D01*
X91235387Y-91106884D01*
X91298133Y-91071744D01*
X91360884Y-91036602D01*
X91397617Y-91006052D01*
X91526086Y-90899204D01*
X91530518Y-90895518D01*
X91572430Y-90845125D01*
X91667908Y-90730326D01*
X91667910Y-90730323D01*
X91671602Y-90725884D01*
X91748138Y-90589219D01*
X91776586Y-90538422D01*
X91776587Y-90538420D01*
X91779410Y-90533379D01*
X91781266Y-90527912D01*
X91781268Y-90527907D01*
X91848475Y-90329921D01*
X91848476Y-90329916D01*
X91850331Y-90324452D01*
X91851159Y-90318743D01*
X91851160Y-90318738D01*
X91881458Y-90109772D01*
X91881991Y-90106098D01*
X91883643Y-90043000D01*
X91863454Y-89823289D01*
X91850599Y-89777706D01*
X91844883Y-89757440D01*
X96584770Y-89757440D01*
X96599200Y-89977604D01*
X96600621Y-89983200D01*
X96600622Y-89983205D01*
X96632767Y-90109772D01*
X96653511Y-90191452D01*
X96655928Y-90196694D01*
X96655928Y-90196695D01*
X96737530Y-90373703D01*
X96745883Y-90391821D01*
X96873222Y-90572002D01*
X97031264Y-90725961D01*
X97036060Y-90729166D01*
X97036063Y-90729168D01*
X97120261Y-90785427D01*
X97214717Y-90848540D01*
X97220020Y-90850818D01*
X97220023Y-90850820D01*
X97367961Y-90914379D01*
X97417436Y-90935635D01*
X97495606Y-90953323D01*
X97626995Y-90983054D01*
X97627001Y-90983055D01*
X97632632Y-90984329D01*
X97638403Y-90984556D01*
X97638405Y-90984556D01*
X97706211Y-90987220D01*
X97853098Y-90992991D01*
X97962275Y-90977161D01*
X98065738Y-90962160D01*
X98065743Y-90962159D01*
X98071452Y-90961331D01*
X98076916Y-90959476D01*
X98076921Y-90959475D01*
X98274907Y-90892268D01*
X98274912Y-90892266D01*
X98280379Y-90890410D01*
X98304107Y-90877122D01*
X98403807Y-90821287D01*
X98472884Y-90782602D01*
X98511067Y-90750846D01*
X98638086Y-90645204D01*
X98642518Y-90641518D01*
X98771000Y-90487036D01*
X98779908Y-90476326D01*
X98779910Y-90476323D01*
X98783602Y-90471884D01*
X98891410Y-90279379D01*
X98893266Y-90273912D01*
X98893268Y-90273907D01*
X98960475Y-90075921D01*
X98960476Y-90075916D01*
X98962331Y-90070452D01*
X98963159Y-90064743D01*
X98963160Y-90064738D01*
X98993458Y-89855772D01*
X98993991Y-89852098D01*
X98995643Y-89789000D01*
X98975454Y-89569289D01*
X98966646Y-89538056D01*
X98930207Y-89408852D01*
X98915565Y-89356936D01*
X98817980Y-89159053D01*
X98778216Y-89105802D01*
X98689420Y-88986891D01*
X98689420Y-88986890D01*
X98685967Y-88982267D01*
X98581695Y-88885879D01*
X98528189Y-88836418D01*
X98528186Y-88836416D01*
X98523949Y-88832499D01*
X98337350Y-88714764D01*
X98132421Y-88633006D01*
X98126761Y-88631880D01*
X98126757Y-88631879D01*
X97921691Y-88591089D01*
X97921688Y-88591089D01*
X97916024Y-88589962D01*
X97910249Y-88589886D01*
X97910245Y-88589886D01*
X97799504Y-88588437D01*
X97695406Y-88587074D01*
X97689709Y-88588053D01*
X97689708Y-88588053D01*
X97483654Y-88623459D01*
X97483653Y-88623459D01*
X97477957Y-88624438D01*
X97270957Y-88700804D01*
X97081341Y-88813614D01*
X96915457Y-88959090D01*
X96778863Y-89132360D01*
X96676131Y-89327620D01*
X96610703Y-89538333D01*
X96584770Y-89757440D01*
X91844883Y-89757440D01*
X91829421Y-89702614D01*
X91803565Y-89610936D01*
X91705980Y-89413053D01*
X91573967Y-89236267D01*
X91444707Y-89116780D01*
X91416189Y-89090418D01*
X91416186Y-89090416D01*
X91411949Y-89086499D01*
X91225350Y-88968764D01*
X91020421Y-88887006D01*
X91014761Y-88885880D01*
X91014757Y-88885879D01*
X90809691Y-88845089D01*
X90809688Y-88845089D01*
X90804024Y-88843962D01*
X90798249Y-88843886D01*
X90798245Y-88843886D01*
X90687504Y-88842437D01*
X90583406Y-88841074D01*
X90577709Y-88842053D01*
X90577708Y-88842053D01*
X90371654Y-88877459D01*
X90371653Y-88877459D01*
X90365957Y-88878438D01*
X90158957Y-88954804D01*
X90153996Y-88957756D01*
X90153995Y-88957756D01*
X90073300Y-89005765D01*
X89969341Y-89067614D01*
X89803457Y-89213090D01*
X89666863Y-89386360D01*
X89564131Y-89581620D01*
X89498703Y-89792333D01*
X89472770Y-90011440D01*
X79998066Y-90011440D01*
X79992565Y-89991936D01*
X79894980Y-89794053D01*
X79762967Y-89617267D01*
X79658695Y-89520879D01*
X79605189Y-89471418D01*
X79605186Y-89471416D01*
X79600949Y-89467499D01*
X79414350Y-89349764D01*
X79209421Y-89268006D01*
X79203761Y-89266880D01*
X79203757Y-89266879D01*
X78998691Y-89226089D01*
X78998688Y-89226089D01*
X78993024Y-89224962D01*
X78987249Y-89224886D01*
X78987245Y-89224886D01*
X78876504Y-89223437D01*
X78772406Y-89222074D01*
X78766709Y-89223053D01*
X78766708Y-89223053D01*
X78560654Y-89258459D01*
X78560653Y-89258459D01*
X78554957Y-89259438D01*
X78347957Y-89335804D01*
X78342996Y-89338756D01*
X78342995Y-89338756D01*
X78215438Y-89414645D01*
X78158341Y-89448614D01*
X78107561Y-89493147D01*
X78090420Y-89508179D01*
X78026016Y-89538056D01*
X77960652Y-89530476D01*
X77955248Y-89528320D01*
X77944786Y-89524146D01*
X77944782Y-89524145D01*
X77939421Y-89522006D01*
X77933761Y-89520880D01*
X77933757Y-89520879D01*
X77728691Y-89480089D01*
X77728688Y-89480089D01*
X77723024Y-89478962D01*
X77717249Y-89478886D01*
X77717245Y-89478886D01*
X77606504Y-89477437D01*
X77502406Y-89476074D01*
X77496709Y-89477053D01*
X77496708Y-89477053D01*
X77479040Y-89480089D01*
X77355458Y-89501324D01*
X77284935Y-89493147D01*
X77230027Y-89448140D01*
X77208168Y-89380592D01*
X77226299Y-89311949D01*
X77264806Y-89271923D01*
X77730513Y-88965133D01*
X77735062Y-88962274D01*
X78356496Y-88589886D01*
X78524268Y-88489350D01*
X78528906Y-88486703D01*
X79147954Y-88150756D01*
X79208053Y-88135500D01*
X99353946Y-88135500D01*
X99414045Y-88150756D01*
G37*
%TD.AperFunction*%
%TD*%
M02*
