%TF.GenerationSoftware,KiCad,Pcbnew,(6.0.4-0)*%
%TF.CreationDate,2022-11-29T10:20:57+01:00*%
%TF.ProjectId,RoundScanner,526f756e-6453-4636-916e-6e65722e6b69,2*%
%TF.SameCoordinates,Original*%
%TF.FileFunction,Soldermask,Bot*%
%TF.FilePolarity,Negative*%
%FSLAX46Y46*%
G04 Gerber Fmt 4.6, Leading zero omitted, Abs format (unit mm)*
G04 Created by KiCad (PCBNEW (6.0.4-0)) date 2022-11-29 10:20:57*
%MOMM*%
%LPD*%
G01*
G04 APERTURE LIST*
G04 Aperture macros list*
%AMRoundRect*
0 Rectangle with rounded corners*
0 $1 Rounding radius*
0 $2 $3 $4 $5 $6 $7 $8 $9 X,Y pos of 4 corners*
0 Add a 4 corners polygon primitive as box body*
4,1,4,$2,$3,$4,$5,$6,$7,$8,$9,$2,$3,0*
0 Add four circle primitives for the rounded corners*
1,1,$1+$1,$2,$3*
1,1,$1+$1,$4,$5*
1,1,$1+$1,$6,$7*
1,1,$1+$1,$8,$9*
0 Add four rect primitives between the rounded corners*
20,1,$1+$1,$2,$3,$4,$5,0*
20,1,$1+$1,$4,$5,$6,$7,0*
20,1,$1+$1,$6,$7,$8,$9,0*
20,1,$1+$1,$8,$9,$2,$3,0*%
%AMHorizOval*
0 Thick line with rounded ends*
0 $1 width*
0 $2 $3 position (X,Y) of the first rounded end (center of the circle)*
0 $4 $5 position (X,Y) of the second rounded end (center of the circle)*
0 Add line between two ends*
20,1,$1,$2,$3,$4,$5,0*
0 Add two circle primitives to create the rounded ends*
1,1,$1,$2,$3*
1,1,$1,$4,$5*%
%AMRotRect*
0 Rectangle, with rotation*
0 The origin of the aperture is its center*
0 $1 length*
0 $2 width*
0 $3 Rotation angle, in degrees counterclockwise*
0 Add horizontal line*
21,1,$1,$2,0,0,$3*%
G04 Aperture macros list end*
%ADD10C,3.500000*%
%ADD11RotRect,1.700000X1.700000X45.000000*%
%ADD12HorizOval,1.700000X0.000000X0.000000X0.000000X0.000000X0*%
%ADD13RotRect,1.700000X1.700000X225.000000*%
%ADD14HorizOval,1.700000X0.000000X0.000000X0.000000X0.000000X0*%
%ADD15RoundRect,0.150000X-0.150000X-0.625000X0.150000X-0.625000X0.150000X0.625000X-0.150000X0.625000X0*%
%ADD16RoundRect,0.250000X-0.350000X-0.650000X0.350000X-0.650000X0.350000X0.650000X-0.350000X0.650000X0*%
G04 APERTURE END LIST*
%TO.C,REF\u002A\u002A*%
G36*
X71760409Y-111258100D02*
G01*
X71794075Y-111269988D01*
X71846049Y-111289091D01*
X71914392Y-111314659D01*
X71997165Y-111345940D01*
X72092430Y-111382181D01*
X72198249Y-111422631D01*
X72312682Y-111466538D01*
X72433792Y-111513151D01*
X72559639Y-111561718D01*
X72688286Y-111611487D01*
X72817793Y-111661706D01*
X72946223Y-111711624D01*
X73071637Y-111760488D01*
X73192096Y-111807548D01*
X73305661Y-111852052D01*
X73410395Y-111893247D01*
X73504359Y-111930382D01*
X73585613Y-111962705D01*
X73652221Y-111989465D01*
X73702242Y-112009909D01*
X73733739Y-112023287D01*
X73744773Y-112028846D01*
X73743878Y-112030313D01*
X73728349Y-112042428D01*
X73695479Y-112064601D01*
X73647801Y-112095221D01*
X73587849Y-112132680D01*
X73518157Y-112175365D01*
X73441261Y-112221669D01*
X73416490Y-112236503D01*
X73341659Y-112281818D01*
X73274881Y-112322998D01*
X73218680Y-112358437D01*
X73175579Y-112386529D01*
X73148101Y-112405668D01*
X73138769Y-112414246D01*
X73143604Y-112424731D01*
X73159830Y-112454481D01*
X73186190Y-112500800D01*
X73221393Y-112561530D01*
X73264153Y-112634508D01*
X73313179Y-112717576D01*
X73367184Y-112808571D01*
X73424879Y-112905335D01*
X73484975Y-113005706D01*
X73546183Y-113107524D01*
X73607214Y-113208629D01*
X73666781Y-113306860D01*
X73723594Y-113400057D01*
X73776365Y-113486059D01*
X73823805Y-113562705D01*
X73849043Y-113603143D01*
X73932837Y-113735865D01*
X74016202Y-113865682D01*
X74097444Y-113990066D01*
X74174871Y-114106488D01*
X74246790Y-114212420D01*
X74311507Y-114305335D01*
X74367331Y-114382703D01*
X74412567Y-114441996D01*
X74520037Y-114569346D01*
X74637965Y-114690620D01*
X74753222Y-114788745D01*
X74866419Y-114864001D01*
X74978162Y-114916668D01*
X75089063Y-114947025D01*
X75199728Y-114955354D01*
X75310767Y-114941935D01*
X75422788Y-114907048D01*
X75500884Y-114870796D01*
X75596300Y-114812723D01*
X75690908Y-114739007D01*
X75786226Y-114648176D01*
X75883772Y-114538758D01*
X75985064Y-114409279D01*
X76091620Y-114258267D01*
X76115182Y-114222992D01*
X76162361Y-114150831D01*
X76220085Y-114061121D01*
X76287218Y-113955704D01*
X76362621Y-113836420D01*
X76445157Y-113705111D01*
X76533688Y-113563617D01*
X76627078Y-113413779D01*
X76724188Y-113257437D01*
X76823881Y-113096432D01*
X76925020Y-112932606D01*
X77026467Y-112767799D01*
X77127085Y-112603851D01*
X77225736Y-112442605D01*
X77321283Y-112285899D01*
X77412588Y-112135576D01*
X77498515Y-111993475D01*
X77577924Y-111861439D01*
X77649680Y-111741307D01*
X77712644Y-111634920D01*
X77754119Y-111564944D01*
X77793749Y-111499135D01*
X77828060Y-111443238D01*
X77855371Y-111399961D01*
X77873998Y-111372010D01*
X77882260Y-111362092D01*
X77890030Y-111365732D01*
X77916799Y-111380210D01*
X77960511Y-111404598D01*
X78019044Y-111437689D01*
X78090280Y-111478280D01*
X78172098Y-111525165D01*
X78262378Y-111577140D01*
X78359000Y-111633000D01*
X78369140Y-111638874D01*
X78478157Y-111702100D01*
X78568259Y-111754583D01*
X78641174Y-111797453D01*
X78698627Y-111831839D01*
X78742345Y-111858870D01*
X78774054Y-111879674D01*
X78795480Y-111895381D01*
X78808351Y-111907120D01*
X78814391Y-111916018D01*
X78815328Y-111923207D01*
X78812888Y-111929813D01*
X78798510Y-111956204D01*
X78772172Y-112003491D01*
X78736425Y-112067038D01*
X78692638Y-112144453D01*
X78642178Y-112233343D01*
X78586413Y-112331315D01*
X78526711Y-112435975D01*
X78464439Y-112544932D01*
X78400965Y-112655792D01*
X78337658Y-112766162D01*
X78275884Y-112873650D01*
X78217011Y-112975862D01*
X78162408Y-113070406D01*
X78113442Y-113154889D01*
X78071480Y-113226917D01*
X78050044Y-113263553D01*
X77892164Y-113531381D01*
X77743083Y-113780520D01*
X77601243Y-114013485D01*
X77465084Y-114232791D01*
X77333048Y-114440953D01*
X77203574Y-114640486D01*
X77075103Y-114833905D01*
X77054675Y-114864220D01*
X76970490Y-114986940D01*
X76894835Y-115092930D01*
X76825011Y-115185561D01*
X76758320Y-115268204D01*
X76692064Y-115344232D01*
X76623545Y-115417014D01*
X76550065Y-115489923D01*
X76499013Y-115537745D01*
X76334976Y-115673086D01*
X76163985Y-115786476D01*
X75984171Y-115878785D01*
X75793669Y-115950881D01*
X75590610Y-116003635D01*
X75373129Y-116037914D01*
X75357901Y-116039502D01*
X75279705Y-116045037D01*
X75188349Y-116048250D01*
X75091242Y-116049143D01*
X74995787Y-116047714D01*
X74909393Y-116043965D01*
X74839465Y-116037896D01*
X74794652Y-116031882D01*
X74619974Y-115997105D01*
X74454271Y-115944815D01*
X74296128Y-115874089D01*
X74144127Y-115784006D01*
X73996851Y-115673644D01*
X73852882Y-115542082D01*
X73710803Y-115388396D01*
X73569197Y-115211667D01*
X73514659Y-115137641D01*
X73436039Y-115027004D01*
X73348498Y-114900202D01*
X73253695Y-114759846D01*
X73153291Y-114608546D01*
X73048946Y-114448913D01*
X72942319Y-114283558D01*
X72835071Y-114115092D01*
X72728860Y-113946125D01*
X72625347Y-113779268D01*
X72526192Y-113617133D01*
X72433055Y-113462329D01*
X72347595Y-113317468D01*
X72271472Y-113185160D01*
X72206347Y-113068017D01*
X72204658Y-113064930D01*
X72183088Y-113028660D01*
X72164726Y-113003033D01*
X72153387Y-112993425D01*
X72150887Y-112994265D01*
X72131021Y-113004378D01*
X72094172Y-113024747D01*
X72042975Y-113053865D01*
X71980069Y-113090222D01*
X71908089Y-113132310D01*
X71829673Y-113178620D01*
X71799106Y-113196741D01*
X71723619Y-113241335D01*
X71656078Y-113281015D01*
X71599013Y-113314310D01*
X71554957Y-113339745D01*
X71526441Y-113355847D01*
X71515996Y-113361144D01*
X71516712Y-113351140D01*
X71519730Y-113318898D01*
X71524918Y-113266061D01*
X71532100Y-113194333D01*
X71541104Y-113105419D01*
X71551754Y-113001024D01*
X71563877Y-112882854D01*
X71577298Y-112752612D01*
X71591845Y-112612005D01*
X71607343Y-112462736D01*
X71623617Y-112306511D01*
X71640350Y-112146904D01*
X71660553Y-111956639D01*
X71678596Y-111789777D01*
X71694510Y-111646047D01*
X71708329Y-111525175D01*
X71720083Y-111426891D01*
X71729805Y-111350921D01*
X71737527Y-111296993D01*
X71743280Y-111264835D01*
X71747097Y-111254174D01*
X71760409Y-111258100D01*
G37*
G36*
X71762799Y-111260450D02*
G01*
X71796465Y-111272338D01*
X71848439Y-111291441D01*
X71916782Y-111317009D01*
X71999555Y-111348290D01*
X72094820Y-111384531D01*
X72200639Y-111424981D01*
X72315072Y-111468888D01*
X72436182Y-111515501D01*
X72562029Y-111564068D01*
X72690676Y-111613837D01*
X72820183Y-111664056D01*
X72948613Y-111713974D01*
X73074027Y-111762838D01*
X73194486Y-111809898D01*
X73308051Y-111854402D01*
X73412785Y-111895597D01*
X73506749Y-111932732D01*
X73588003Y-111965055D01*
X73654611Y-111991815D01*
X73704632Y-112012259D01*
X73736129Y-112025637D01*
X73747163Y-112031196D01*
X73746268Y-112032663D01*
X73730739Y-112044778D01*
X73697869Y-112066951D01*
X73650191Y-112097571D01*
X73590239Y-112135030D01*
X73520547Y-112177715D01*
X73443651Y-112224019D01*
X73418880Y-112238853D01*
X73344049Y-112284168D01*
X73277271Y-112325348D01*
X73221070Y-112360787D01*
X73177969Y-112388879D01*
X73150491Y-112408018D01*
X73141159Y-112416596D01*
X73145994Y-112427081D01*
X73162220Y-112456831D01*
X73188580Y-112503150D01*
X73223783Y-112563880D01*
X73266543Y-112636858D01*
X73315569Y-112719926D01*
X73369574Y-112810921D01*
X73427269Y-112907685D01*
X73487365Y-113008056D01*
X73548573Y-113109874D01*
X73609604Y-113210979D01*
X73669171Y-113309210D01*
X73725984Y-113402407D01*
X73778755Y-113488409D01*
X73826195Y-113565055D01*
X73851433Y-113605493D01*
X73935227Y-113738215D01*
X74018592Y-113868032D01*
X74099834Y-113992416D01*
X74177261Y-114108838D01*
X74249180Y-114214770D01*
X74313897Y-114307685D01*
X74369721Y-114385053D01*
X74414957Y-114444346D01*
X74522427Y-114571696D01*
X74640355Y-114692970D01*
X74755612Y-114791095D01*
X74868809Y-114866351D01*
X74980552Y-114919018D01*
X75091453Y-114949375D01*
X75202118Y-114957704D01*
X75313157Y-114944285D01*
X75425178Y-114909398D01*
X75503274Y-114873146D01*
X75598690Y-114815073D01*
X75693298Y-114741357D01*
X75788616Y-114650526D01*
X75886162Y-114541108D01*
X75987454Y-114411629D01*
X76094010Y-114260617D01*
X76117572Y-114225342D01*
X76164751Y-114153181D01*
X76222475Y-114063471D01*
X76289608Y-113958054D01*
X76365011Y-113838770D01*
X76447547Y-113707461D01*
X76536078Y-113565967D01*
X76629468Y-113416129D01*
X76726578Y-113259787D01*
X76826271Y-113098782D01*
X76927410Y-112934956D01*
X77028857Y-112770149D01*
X77129475Y-112606201D01*
X77228126Y-112444955D01*
X77323673Y-112288249D01*
X77414978Y-112137926D01*
X77500905Y-111995825D01*
X77580314Y-111863789D01*
X77652070Y-111743657D01*
X77715034Y-111637270D01*
X77756509Y-111567294D01*
X77796139Y-111501485D01*
X77830450Y-111445588D01*
X77857761Y-111402311D01*
X77876388Y-111374360D01*
X77884650Y-111364442D01*
X77892420Y-111368082D01*
X77919189Y-111382560D01*
X77962901Y-111406948D01*
X78021434Y-111440039D01*
X78092670Y-111480630D01*
X78174488Y-111527515D01*
X78264768Y-111579490D01*
X78361390Y-111635350D01*
X78371530Y-111641224D01*
X78480547Y-111704450D01*
X78570649Y-111756933D01*
X78643564Y-111799803D01*
X78701017Y-111834189D01*
X78744735Y-111861220D01*
X78776444Y-111882024D01*
X78797870Y-111897731D01*
X78810741Y-111909470D01*
X78816781Y-111918368D01*
X78817718Y-111925557D01*
X78815278Y-111932163D01*
X78800900Y-111958554D01*
X78774562Y-112005841D01*
X78738815Y-112069388D01*
X78695028Y-112146803D01*
X78644568Y-112235693D01*
X78588803Y-112333665D01*
X78529101Y-112438325D01*
X78466829Y-112547282D01*
X78403355Y-112658142D01*
X78340048Y-112768512D01*
X78278274Y-112876000D01*
X78219401Y-112978212D01*
X78164798Y-113072756D01*
X78115832Y-113157239D01*
X78073870Y-113229267D01*
X78052434Y-113265903D01*
X77894554Y-113533731D01*
X77745473Y-113782870D01*
X77603633Y-114015835D01*
X77467474Y-114235141D01*
X77335438Y-114443303D01*
X77205964Y-114642836D01*
X77077493Y-114836255D01*
X77057065Y-114866570D01*
X76972880Y-114989290D01*
X76897225Y-115095280D01*
X76827401Y-115187911D01*
X76760710Y-115270554D01*
X76694454Y-115346582D01*
X76625935Y-115419364D01*
X76552455Y-115492273D01*
X76501403Y-115540095D01*
X76337366Y-115675436D01*
X76166375Y-115788826D01*
X75986561Y-115881135D01*
X75796059Y-115953231D01*
X75593000Y-116005985D01*
X75375519Y-116040264D01*
X75360291Y-116041852D01*
X75282095Y-116047387D01*
X75190739Y-116050600D01*
X75093632Y-116051493D01*
X74998177Y-116050064D01*
X74911783Y-116046315D01*
X74841855Y-116040246D01*
X74797042Y-116034232D01*
X74622364Y-115999455D01*
X74456661Y-115947165D01*
X74298518Y-115876439D01*
X74146517Y-115786356D01*
X73999241Y-115675994D01*
X73855272Y-115544432D01*
X73713193Y-115390746D01*
X73571587Y-115214017D01*
X73517049Y-115139991D01*
X73438429Y-115029354D01*
X73350888Y-114902552D01*
X73256085Y-114762196D01*
X73155681Y-114610896D01*
X73051336Y-114451263D01*
X72944709Y-114285908D01*
X72837461Y-114117442D01*
X72731250Y-113948475D01*
X72627737Y-113781618D01*
X72528582Y-113619483D01*
X72435445Y-113464679D01*
X72349985Y-113319818D01*
X72273862Y-113187510D01*
X72208737Y-113070367D01*
X72207048Y-113067280D01*
X72185478Y-113031010D01*
X72167116Y-113005383D01*
X72155777Y-112995775D01*
X72153277Y-112996615D01*
X72133411Y-113006728D01*
X72096562Y-113027097D01*
X72045365Y-113056215D01*
X71982459Y-113092572D01*
X71910479Y-113134660D01*
X71832063Y-113180970D01*
X71801496Y-113199091D01*
X71726009Y-113243685D01*
X71658468Y-113283365D01*
X71601403Y-113316660D01*
X71557347Y-113342095D01*
X71528831Y-113358197D01*
X71518386Y-113363494D01*
X71519102Y-113353490D01*
X71522120Y-113321248D01*
X71527308Y-113268411D01*
X71534490Y-113196683D01*
X71543494Y-113107769D01*
X71554144Y-113003374D01*
X71566267Y-112885204D01*
X71579688Y-112754962D01*
X71594235Y-112614355D01*
X71609733Y-112465086D01*
X71626007Y-112308861D01*
X71642740Y-112149254D01*
X71662943Y-111958989D01*
X71680986Y-111792127D01*
X71696900Y-111648397D01*
X71710719Y-111527525D01*
X71722473Y-111429241D01*
X71732195Y-111353271D01*
X71739917Y-111299343D01*
X71745670Y-111267185D01*
X71749487Y-111256524D01*
X71762799Y-111260450D01*
G37*
%TD*%
D10*
%TO.C,H2*%
X72136000Y-97556000D03*
%TD*%
%TO.C,H1*%
X103632000Y-115717000D03*
%TD*%
D11*
%TO.C,J4*%
X106299000Y-96139000D03*
D12*
X104502949Y-94342949D03*
X102706898Y-92546898D03*
X100910846Y-90750846D03*
%TD*%
D13*
%TO.C,J1*%
X77975672Y-121628317D03*
D14*
X79771723Y-123424368D03*
X81567774Y-125220419D03*
X83363826Y-127016471D03*
%TD*%
D15*
%TO.C,J3*%
X88416000Y-126968000D03*
X89416000Y-126968000D03*
X90416000Y-126968000D03*
X91416000Y-126968000D03*
D16*
X87116000Y-123093000D03*
X92716000Y-123093000D03*
%TD*%
M02*
