M48
; DRILL file {KiCad (6.0.4-0)} date Tuesday, 29 November 2022 at 10.20.57
; FORMAT={-:-/ absolute / inch / decimal}
; #@! TF.CreationDate,2022-11-29T10:20:57+01:00
; #@! TF.GenerationSoftware,Kicad,Pcbnew,(6.0.4-0)
; #@! TF.FileFunction,Plated,1,4,PTH
FMAT,2
INCH
; #@! TA.AperFunction,Plated,PTH,ViaDrill
T1C0.0157
; #@! TA.AperFunction,Plated,PTH,ComponentDrill
T2C0.0394
; #@! TA.AperFunction,Plated,PTH,ComponentDrill
T3C0.0866
%
G90
G05
T1
X2.7Y-4.135
X2.765Y-3.94
X2.795Y-4.5117
X2.85Y-4.15
X2.94Y-4.675
X2.95Y-4.305
X2.965Y-4.435
X2.975Y-3.645
X3.0Y-4.15
X3.02Y-3.855
X3.035Y-4.895
X3.055Y-3.57
X3.055Y-4.295
X3.095Y-4.24
X3.105Y-3.56
X3.115Y-4.035
X3.13Y-4.67
X3.16Y-4.38
X3.165Y-4.335
X3.175Y-3.78
X3.185Y-4.075
X3.2Y-4.49
X3.23Y-4.73
X3.275Y-4.585
X3.285Y-4.1826
X3.315Y-4.3074
X3.34Y-3.915
X3.345Y-3.825
X3.345Y-4.58
X3.355Y-4.235
X3.38Y-3.655
X3.39Y-4.295
X3.425Y-4.445
X3.4391Y-4.9606
X3.46Y-4.61
X3.4625Y-4.7825
X3.4665Y-3.6148
X3.48Y-4.83
X3.49Y-3.895
X3.5233Y-4.957
X3.5609Y-4.8765
X3.565Y-4.1
X3.5659Y-3.8115
X3.57Y-3.545
X3.585Y-3.65
X3.5957Y-4.4157
X3.5985Y-3.9419
X3.605Y-4.905
X3.69Y-4.605
X3.745Y-3.715
X3.845Y-3.9
X3.85Y-3.535
X3.8696Y-4.84
X3.88Y-4.945
X3.885Y-4.555
X3.905Y-3.99
X3.9788Y-4.3759
X3.9896Y-4.67
X4.015Y-4.335
X4.045Y-4.37
X4.0596Y-4.8365
X4.065Y-3.825
X4.095Y-3.905
X4.135Y-4.37
X4.165Y-4.69
X4.174Y-4.1015
X4.2Y-4.165
X4.215Y-4.225
X4.235Y-4.145
X4.2582Y-4.2557
X4.267Y-4.2941
X4.315Y-4.395
T2
X3.0699Y-4.7885
X3.1406Y-4.8592
X3.2113Y-4.9299
X3.282Y-5.0006
X3.9729Y-3.5729
X4.0436Y-3.6436
X4.1143Y-3.7143
X4.185Y-3.785
T3
X2.84Y-3.8408
X4.08Y-4.5558
T0
M30
