  0
SECTION
  2
HEADER
  9
$ACADVER
  1
AC1015
  9
$ACADMAINTVER
 70
     6
  9
$DWGCODEPAGE
  3
ANSI_1252
  9
$INSBASE
 10
0.0
 20
0.0
 30
0.0
  9
$EXTMIN
 10
-22.5
 20
-22.5
 30
0.0
  9
$EXTMAX
 10
22.5
 20
20.0
 30
0.0
  9
$LIMMIN
 10
0.0
 20
0.0
  9
$LIMMAX
 10
420.0
 20
297.0
  9
$ORTHOMODE
 70
     0
  9
$REGENMODE
 70
     1
  9
$FILLMODE
 70
     1
  9
$QTEXTMODE
 70
     0
  9
$MIRRTEXT
 70
     1
  9
$LTSCALE
 40
1.0
  9
$ATTMODE
 70
     1
  9
$TEXTSIZE
 40
3.5
  9
$TRACEWID
 40
1.0
  9
$TEXTSTYLE
  7
Standard
  9
$CLAYER
  8
0
  9
$CELTYPE
  6
ByLayer
  9
$CECOLOR
 62
   256
  9
$CELTSCALE
 40
1.0
  9
$DISPSILH
 70
     0
  9
$DIMSCALE
 40
1.0
  9
$DIMASZ
 40
3.302
  9
$DIMEXO
 40
0.0
  9
$DIMDLI
 40
3.75
  9
$DIMRND
 40
0.0
  9
$DIMDLE
 40
0.0
  9
$DIMEXE
 40
1.0
  9
$DIMTP
 40
0.0
  9
$DIMTM
 40
0.0
  9
$DIMTXT
 40
3.5
  9
$DIMCEN
 40
2.5
  9
$DIMTSZ
 40
0.0
  9
$DIMTOL
 70
     0
  9
$DIMLIM
 70
     0
  9
$DIMTIH
 70
     1
  9
$DIMTOH
 70
     1
  9
$DIMSE1
 70
     0
  9
$DIMSE2
 70
     0
  9
$DIMTAD
 70
     1
  9
$DIMZIN
 70
     1
  9
$DIMBLK
  1

  9
$DIMASO
 70
     1
  9
$DIMSHO
 70
     1
  9
$DIMPOST
  1

  9
$DIMAPOST
  1

  9
$DIMALT
 70
     0
  9
$DIMALTD
 70
     3
  9
$DIMALTF
 40
0.0393700787
  9
$DIMLFAC
 40
1.0
  9
$DIMTOFL
 70
     1
  9
$DIMTVP
 40
0.0
  9
$DIMTIX
 70
     0
  9
$DIMSOXD
 70
     0
  9
$DIMSAH
 70
     0
  9
$DIMBLK1
  1

  9
$DIMBLK2
  1

  9
$DIMSTYLE
  2
ISO-25
  9
$DIMCLRD
 70
     0
  9
$DIMCLRE
 70
     0
  9
$DIMCLRT
 70
     0
  9
$DIMTFAC
 40
1.0
  9
$DIMGAP
 40
1.524
  9
$DIMJUST
 70
     0
  9
$DIMSD1
 70
     0
  9
$DIMSD2
 70
     0
  9
$DIMTOLJ
 70
     0
  9
$DIMTZIN
 70
     1
  9
$DIMALTZ
 70
     0
  9
$DIMALTTZ
 70
     0
  9
$DIMUPT
 70
     0
  9
$DIMDEC
 70
     2
  9
$DIMTDEC
 70
     2
  9
$DIMALTU
 70
     2
  9
$DIMALTTD
 70
     3
  9
$DIMTXSTY
  7
Standard
  9
$DIMAUNIT
 70
     0
  9
$DIMADEC
 70
     2
  9
$DIMALTRND
 40
0.0
  9
$DIMAZIN
 70
     0
  9
$DIMDSEP
 70
    44
  9
$DIMATFIT
 70
     3
  9
$DIMFRAC
 70
     0
  9
$DIMLDRBLK
  1

  9
$DIMLUNIT
 70
     2
  9
$DIMLWD
 70
    -2
  9
$DIMLWE
 70
    -2
  9
$DIMTMOVE
 70
     0
  9
$LUNITS
 70
     2
  9
$LUPREC
 70
     2
  9
$SKETCHINC
 40
1.0
  9
$FILLETRAD
 40
0.0
  9
$AUNITS
 70
     0
  9
$AUPREC
 70
     2
  9
$MENU
  1
.
  9
$ELEVATION
 40
0.0
  9
$PELEVATION
 40
0.0
  9
$THICKNESS
 40
0.0
  9
$LIMCHECK
 70
     0
  9
$CHAMFERA
 40
0.0
  9
$CHAMFERB
 40
0.0
  9
$CHAMFERC
 40
0.0
  9
$CHAMFERD
 40
0.0
  9
$SKPOLY
 70
     0
  9
$TDCREATE
 40
2459908.457511157
  9
$TDUCREATE
 40
2459908.415844491
  9
$TDUPDATE
 40
2459908.457729699
  9
$TDUUPDATE
 40
2459908.416063033
  9
$TDINDWG
 40
0.0000000116
  9
$TDUSRTIMER
 40
0.0000000116
  9
$USRTIMER
 70
     1
  9
$ANGBASE
 50
0.0
  9
$ANGDIR
 70
     0
  9
$PDMODE
 70
     0
  9
$PDSIZE
 40
-1.0
  9
$PLINEWID
 40
0.0
  9
$SPLFRAME
 70
     0
  9
$SPLINETYPE
 70
     6
  9
$SPLINESEGS
 70
     8
  9
$HANDSEED
  5
11A
  9
$SURFTAB1
 70
     6
  9
$SURFTAB2
 70
     6
  9
$SURFTYPE
 70
     6
  9
$SURFU
 70
     6
  9
$SURFV
 70
     6
  9
$UCSBASE
  2

  9
$UCSNAME
  2

  9
$UCSORG
 10
0.0
 20
0.0
 30
0.0
  9
$UCSXDIR
 10
1.0
 20
0.0
 30
0.0
  9
$UCSYDIR
 10
0.0
 20
1.0
 30
0.0
  9
$UCSORTHOREF
  2

  9
$UCSORTHOVIEW
 70
     0
  9
$UCSORGTOP
 10
0.0
 20
0.0
 30
0.0
  9
$UCSORGBOTTOM
 10
0.0
 20
0.0
 30
0.0
  9
$UCSORGLEFT
 10
0.0
 20
0.0
 30
0.0
  9
$UCSORGRIGHT
 10
0.0
 20
0.0
 30
0.0
  9
$UCSORGFRONT
 10
0.0
 20
0.0
 30
0.0
  9
$UCSORGBACK
 10
0.0
 20
0.0
 30
0.0
  9
$PUCSBASE
  2

  9
$PUCSNAME
  2

  9
$PUCSORG
 10
0.0
 20
0.0
 30
0.0
  9
$PUCSXDIR
 10
1.0
 20
0.0
 30
0.0
  9
$PUCSYDIR
 10
0.0
 20
1.0
 30
0.0
  9
$PUCSORTHOREF
  2

  9
$PUCSORTHOVIEW
 70
     0
  9
$PUCSORGTOP
 10
0.0
 20
0.0
 30
0.0
  9
$PUCSORGBOTTOM
 10
0.0
 20
0.0
 30
0.0
  9
$PUCSORGLEFT
 10
0.0
 20
0.0
 30
0.0
  9
$PUCSORGRIGHT
 10
0.0
 20
0.0
 30
0.0
  9
$PUCSORGFRONT
 10
0.0
 20
0.0
 30
0.0
  9
$PUCSORGBACK
 10
0.0
 20
0.0
 30
0.0
  9
$USERI1
 70
     0
  9
$USERI2
 70
     0
  9
$USERI3
 70
     0
  9
$USERI4
 70
     0
  9
$USERI5
 70
     0
  9
$USERR1
 40
0.0
  9
$USERR2
 40
0.0
  9
$USERR3
 40
0.0
  9
$USERR4
 40
0.0
  9
$USERR5
 40
0.0
  9
$WORLDVIEW
 70
     1
  9
$SHADEDGE
 70
     3
  9
$SHADEDIF
 70
    70
  9
$TILEMODE
 70
     1
  9
$MAXACTVP
 70
    64
  9
$PINSBASE
 10
0.0
 20
0.0
 30
0.0
  9
$PLIMCHECK
 70
     0
  9
$PEXTMIN
 10
1.0000000000E+20
 20
1.0000000000E+20
 30
1.0000000000E+20
  9
$PEXTMAX
 10
-1.0000000000E+20
 20
-1.0000000000E+20
 30
-1.0000000000E+20
  9
$PLIMMIN
 10
0.0
 20
0.0
  9
$PLIMMAX
 10
420.0
 20
297.0
  9
$UNITMODE
 70
     0
  9
$VISRETAIN
 70
     1
  9
$PLINEGEN
 70
     0
  9
$PSLTSCALE
 70
     1
  9
$TREEDEPTH
 70
  3020
  9
$CMLSTYLE
  2
Standard
  9
$CMLJUST
 70
     0
  9
$CMLSCALE
 40
20.0
  9
$PROXYGRAPHICS
 70
     1
  9
$MEASUREMENT
 70
     1
  9
$CELWEIGHT
370
    -1
  9
$ENDCAPS
280
     0
  9
$JOINSTYLE
280
     0
  9
$LWDISPLAY
290
     1
  9
$INSUNITS
 70
     4
  9
$HYPERLINKBASE
  1

  9
$STYLESHEET
  1

  9
$XEDIT
290
     1
  9
$CEPSNTYPE
380
     0
  9
$PSTYLEMODE
290
     1
  9
$FINGERPRINTGUID
  2
{8ef734eb-b60f-4e1b-9758-9f19e98da661}
  9
$VERSIONGUID
  2
{FAEB1C32-E019-11D5-929B-00C0DF256EC4}
  9
$EXTNAMES
290
     1
  9
$PSVPSCALE
 40
0.0
  9
$OLESTARTUP
290
     0
  0
ENDSEC
  0
SECTION
  2
CLASSES
  0
CLASS
  1
ACDBDICTIONARYWDFLT
  2
AcDbDictionaryWithDefault
  3
ObjectDBX Classes
 90
        0
280
     0
281
     0
  0
CLASS
  1
VISUALSTYLE
  2
AcDbVisualStyle
  3
ObjectDBX Classes
 90
     4095
280
     0
281
     0
  0
CLASS
  1
MATERIAL
  2
AcDbMaterial
  3
ObjectDBX Classes
 90
     1153
280
     0
281
     0
  0
CLASS
  1
SCALE
  2
AcDbScale
  3
ObjectDBX Classes
 90
     1153
280
     0
281
     0
  0
CLASS
  1
TABLESTYLE
  2
AcDbTableStyle
  3
ObjectDBX Classes
 90
     4095
280
     0
281
     0
  0
CLASS
  1
MLEADERSTYLE
  2
AcDbMLeaderStyle
  3
ACDB_MLEADERSTYLE_CLASS
 90
     4095
280
     0
281
     0
  0
CLASS
  1
SUN
  2
AcDbSun
  3
SCENEOE
 90
     1153
280
     0
281
     0
  0
CLASS
  1
ACDBPLACEHOLDER
  2
AcDbPlaceHolder
  3
ObjectDBX Classes
 90
        0
280
     0
281
     0
  0
CLASS
  1
LAYOUT
  2
AcDbLayout
  3
ObjectDBX Classes
 90
        0
280
     0
281
     0
  0
ENDSEC
  0
SECTION
  2
TABLES
  0
TABLE
  2
VPORT
  5
8
330
0
100
AcDbSymbolTable
 70
     1
  0
VPORT
  5
29
330
8
100
AcDbSymbolTableRecord
100
AcDbViewportTableRecord
  2
*Active
 70
     0
 10
0.0
 20
0.0
 11
1.0
 21
1.0
 12
0.0
 22
-1.25
 13
0.0
 23
0.0
 14
10.0
 24
10.0
 15
10.0
 25
10.0
 16
0.0
 26
0.0
 36
1.0
 17
0.0
 27
0.0
 37
0.0
 40
43.35
 41
1.0588235294
 42
50.0
 43
0.0
 44
0.0
 50
0.0
 51
0.0
 71
     0
 72
   100
 73
     1
 74
     3
 75
     0
 76
     0
 77
     0
 78
     0
281
     0
 65
     1
110
0.0
120
0.0
130
0.0
111
1.0
121
0.0
131
0.0
112
0.0
122
1.0
132
0.0
 79
     0
146
0.0
  0
ENDTAB
  0
TABLE
  2
LTYPE
  5
5
330
0
100
AcDbSymbolTable
 70
     6
  0
LTYPE
  5
14
330
5
100
AcDbSymbolTableRecord
100
AcDbLinetypeTableRecord
  2
ByBlock
 70
     0
  3

 72
    65
 73
     0
 40
0.0
  0
LTYPE
  5
15
330
5
100
AcDbSymbolTableRecord
100
AcDbLinetypeTableRecord
  2
ByLayer
 70
     0
  3

 72
    65
 73
     0
 40
0.0
  0
LTYPE
  5
16
330
5
100
AcDbSymbolTableRecord
100
AcDbLinetypeTableRecord
  2
Continuous
 70
     0
  3
Solid line
 72
    65
 73
     0
 40
0.0
  0
LTYPE
  5
5E
330
5
100
AcDbSymbolTableRecord
100
AcDbLinetypeTableRecord
  2
HIDDEN
 70
     0
  3
Hidden __ __ __ __ __ __ __ __ __ __ __ __ __ __
 72
    65
 73
     2
 40
1.905
 49
1.27
 74
     0
 49
-0.635
 74
     0
  0
LTYPE
  5
5F
330
5
100
AcDbSymbolTableRecord
100
AcDbLinetypeTableRecord
  2
PHANTOM
 70
     0
  3
Phantom ______  __  __  ______  __  __  ______
 72
    65
 73
     6
 40
12.7
 49
6.35
 74
     0
 49
-1.27
 74
     0
 49
1.27
 74
     0
 49
-1.27
 74
     0
 49
1.27
 74
     0
 49
-1.27
 74
     0
  0
LTYPE
  5
60
330
5
100
AcDbSymbolTableRecord
100
AcDbLinetypeTableRecord
  2
CENTER
 70
     0
  3
Center ____ _ ____ _ ____ _ ____ _ ____ _ ____
 72
    65
 73
     4
 40
10.16
 49
6.35
 74
     0
 49
-1.27
 74
     0
 49
1.27
 74
     0
 49
-1.27
 74
     0
  0
LTYPE
  5
61
330
5
100
AcDbSymbolTableRecord
100
AcDbLinetypeTableRecord
  2
CENTERX2
 70
     0
  3
Center (2x) ________  __  ________  __  _____
 72
    65
 73
     4
 40
20.32
 49
12.7
 74
     0
 49
-2.54
 74
     0
 49
2.54
 74
     0
 49
-2.54
 74
     0
  0
LTYPE
  5
62
330
5
100
AcDbSymbolTableRecord
100
AcDbLinetypeTableRecord
  2
DOT2
 70
     0
  3
Dot (.5x) ........................................
 72
    65
 73
     2
 40
0.635
 49
0.0
 74
     0
 49
-0.635
 74
     0
  0
ENDTAB
  0
TABLE
  2
LAYER
  5
2
330
0
100
AcDbSymbolTable
 70
     1
  0
LAYER
  5
10
330
2
100
AcDbSymbolTableRecord
100
AcDbLayerTableRecord
  2
0
 70
     0
 62
     7
  6
Continuous
370
    -3
390
F
  0
ENDTAB
  0
TABLE
  2
STYLE
  5
3
330
0
100
AcDbSymbolTable
 70
     1
  0
STYLE
  5
11
330
3
100
AcDbSymbolTableRecord
100
AcDbTextStyleTableRecord
  2
Standard
 70
     0
 40
0.0
 41
1.0
 50
0.0
 71
     0
 42
3.5
  3
txt
  4

  0
ENDTAB
  0
TABLE
  2
VIEW
  5
6
330
0
100
AcDbSymbolTable
 70
     0
  0
ENDTAB
  0
TABLE
  2
UCS
  5
7
330
0
100
AcDbSymbolTable
 70
     0
  0
ENDTAB
  0
TABLE
  2
APPID
  5
9
330
0
100
AcDbSymbolTable
 70
     1
  0
APPID
  5
12
330
9
100
AcDbSymbolTableRecord
100
AcDbRegAppTableRecord
  2
ACAD
 70
     0
  0
ENDTAB
  0
TABLE
  2
DIMSTYLE
  5
A
330
0
100
AcDbSymbolTable
 70
     1
100
AcDbDimStyleTable
  0
DIMSTYLE
105
27
330
A
100
AcDbSymbolTableRecord
100
AcDbDimStyleTableRecord
  2
ISO-25
 70
     0
 41
2.5
 42
0.625
 43
3.75
 44
1.25
 73
     0
 74
     0
 77
     1
 78
     8
140
2.5
141
2.5
143
0.0393700787
147
0.625
171
     3
172
     1
178
     0
271
     2
272
     2
274
     3
278
    44
283
     0
284
     8
340
11
  0
ENDTAB
  0
TABLE
  2
BLOCK_RECORD
  5
1
330
0
100
AcDbSymbolTable
 70
     1
  0
BLOCK_RECORD
  5
1F
330
1
100
AcDbSymbolTableRecord
100
AcDbBlockTableRecord
  2
*Model_Space
340
22
  0
BLOCK_RECORD
  5
1B
330
1
100
AcDbSymbolTableRecord
100
AcDbBlockTableRecord
  2
*Paper_Space
340
1E
  0
BLOCK_RECORD
  5
23
330
1
100
AcDbSymbolTableRecord
100
AcDbBlockTableRecord
  2
*Paper_Space0
340
26
  0
ENDTAB
  0
ENDSEC
  0
SECTION
  2
BLOCKS
  0
BLOCK
  5
20
330
1F
100
AcDbEntity
  8
0
100
AcDbBlockBegin
  2
*Model_Space
 70
     0
 10
0.0
 20
0.0
 30
0.0
  3
*Model_Space
  1

  0
ENDBLK
  5
21
330
1F
100
AcDbEntity
  8
0
100
AcDbBlockEnd
  0
BLOCK
  5
1C
330
1B
100
AcDbEntity
 67
     1
  8
0
100
AcDbBlockBegin
  2
*Paper_Space
 70
     0
 10
0.0
 20
0.0
 30
0.0
  3
*Paper_Space
  1

  0
ENDBLK
  5
1D
330
1B
100
AcDbEntity
 67
     1
  8
0
100
AcDbBlockEnd
  0
BLOCK
  5
24
330
23
100
AcDbEntity
  8
0
100
AcDbBlockBegin
  2
*Paper_Space0
 70
     0
 10
0.0
 20
0.0
 30
0.0
  3
*Paper_Space0
  1

  0
ENDBLK
  5
25
330
23
100
AcDbEntity
  8
0
100
AcDbBlockEnd
  0
ENDSEC
  0
SECTION
  2
ENTITIES
  0
CIRCLE
  5
79
330
1F
100
AcDbEntity
  8
0
  6
Continuous
 62
     7
370
    25
100
AcDbCircle
 10
0.0
 20
0.0
 30
0.0
 40
9.999999999999996
  0
SPLINE
  5
86
330
1F
100
AcDbEntity
  8
0
  6
Continuous
 62
     7
370
    25
100
AcDbSpline
210
0.0
220
0.0
230
1.0
 70
     8
 71
     3
 72
    11
 73
     7
 74
     0
 42
0.00000001
 43
0.00000001
 40
0.0
 40
0.0
 40
0.0
 40
0.0
 40
0.2951388013693745
 40
0.5602299448882374
 40
0.794983356740901
 40
1.0
 40
1.0
 40
1.0
 40
1.0
 10
7.388421474358973
 20
2.242888621794872
 30
0.0
 10
7.373312453215108
 20
2.249628887910017
 30
0.0
 10
7.344632638688959
 20
2.262423203319238
 30
0.0
 10
7.302678072420209
 20
2.277565213451274
 30
0.0
 10
7.263996735689332
 20
2.286481129299392
 30
0.0
 10
7.239353177326462
 20
2.287831846751507
 30
0.0
 10
7.227864583333332
 20
2.288461538461539
 30
0.0
  0
SPLINE
  5
87
330
1F
100
AcDbEntity
  8
0
  6
Continuous
 62
     7
370
    25
100
AcDbSpline
210
0.0
220
0.0
230
1.0
 70
     8
 71
     3
 72
    15
 73
    11
 74
     0
 42
0.00000001
 43
0.00000001
 40
0.0
 40
0.0
 40
0.0
 40
0.0
 40
0.0525942815291367
 40
0.1249519739750385
 40
0.2180938989285934
 40
0.3335024107325189
 40
0.4687891785044472
 40
0.6249375859645979
 40
0.8016830479282276
 40
0.9999999999999999
 40
0.9999999999999999
 40
0.9999999999999999
 40
0.9999999999999999
 10
-6.657151442307693
 20
2.335436698717949
 30
0.0
 10
-6.649490069900003
 20
2.328599672902126
 30
0.0
 10
-6.631288402763087
 20
2.31235646457287
 30
0.0
 10
-6.598012477023421
 20
2.285764183929128
 30
0.0
 10
-6.554069678793481
 20
2.252961411633859
 30
0.0
 10
-6.500607477616633
 20
2.212374095159068
 30
0.0
 10
-6.436640115889584
 20
2.165292633041796
 30
0.0
 10
-6.362160559744971
 20
2.112319020877998
 30
0.0
 10
-6.277999026910036
 20
2.051733561871116
 30
0.0
 10
-6.21827711101045
 20
2.009376021261181
 30
0.0
 10
-6.18669871794872
 20
1.986979166666667
 30
0.0
  0
SPLINE
  5
88
330
1F
100
AcDbEntity
  8
0
  6
Continuous
 62
     7
370
    25
100
AcDbSpline
210
0.0
220
0.0
230
1.0
 70
     8
 71
     3
 72
    15
 73
    11
 74
     0
 42
0.00000001
 43
0.00000001
 40
0.0
 40
0.0
 40
0.0
 40
0.0
 40
0.157761663513549
 40
0.3059502132085406
 40
0.4437754990007258
 40
0.5728243624015384
 40
0.692154156443243
 40
0.8022957069908465
 40
0.9055643918329939
 40
1.0
 40
1.0
 40
1.0
 40
1.0
 10
1.836939102564102
 20
1.188401442307693
 30
0.0
 10
1.810892462524689
 20
1.202940573971971
 30
0.0
 10
1.760379715029858
 20
1.231136590250482
 30
0.0
 10
1.68883242409401
 20
1.275052670508812
 30
0.0
 10
1.624285069875257
 20
1.319719945188994
 30
0.0
 10
1.565184495312519
 20
1.362632784438767
 30
0.0
 10
1.513023489635069
 20
1.4060537283863
 30
0.0
 10
1.468007541330104
 20
1.450030979853748
 30
0.0
 10
1.428364325498559
 20
1.492790965933054
 30
0.0
 10
1.406416913767339
 20
1.523088262547799
 30
0.0
 10
1.395933493589743
 20
1.537560096153846
 30
0.0
  0
SPLINE
  5
89
330
1F
100
AcDbEntity
  8
0
  6
Continuous
 62
     7
370
    25
100
AcDbSpline
210
0.0
220
0.0
230
1.0
 70
     8
 71
     3
 72
    15
 73
    11
 74
     0
 42
0.00000001
 43
0.00000001
 40
0.0
 40
0.0
 40
0.0
 40
0.0
 40
0.1298621417207365
 40
0.2546535308972867
 40
0.376014554193712
 40
0.4952552518176074
 40
0.6147977192994575
 40
0.7381055541683319
 40
0.8651963000723569
 40
1.0
 40
1.0
 40
1.0
 40
1.0
 10
3.901041666666668
 20
-4.230769230769231
 30
0.0
 10
3.953241525729612
 20
-4.232206982311091
 30
0.0
 10
4.055602985710035
 20
-4.235026345228076
 30
0.0
 10
4.205330994976857
 20
-4.258489072547056
 30
0.0
 10
4.346975472880414
 20
-4.298127539701901
 30
0.0
 10
4.481629824910492
 20
-4.352045037725412
 30
0.0
 10
4.608810511005321
 20
-4.423693766807324
 30
0.0
 10
4.727313495321261
 20
-4.514073727830963
 30
0.0
 10
4.838378978629073
 20
-4.622614914801088
 30
0.0
 10
4.902759270288295
 20
-4.705985359270317
 30
0.0
 10
4.935897435897438
 20
-4.748898237179487
 30
0.0
  0
SPLINE
  5
8A
330
1F
100
AcDbEntity
  8
0
  6
Continuous
 62
     7
370
    25
100
AcDbSpline
210
0.0
220
0.0
230
1.0
 70
     8
 71
     3
 72
    15
 73
    11
 74
     0
 42
0.00000001
 43
0.00000001
 40
0.0
 40
0.0
 40
0.0
 40
0.0
 40
0.1057142614175166
 40
0.2134116126389966
 40
0.3261267300734718
 40
0.4444516715568699
 40
0.5690610798550864
 40
0.7027122044812166
 40
0.8463179465861965
 40
1.0
 40
1.0
 40
1.0
 40
1.0
 10
1.925280448717948
 20
2.602564102564103
 30
0.0
 10
1.952472512183583
 20
2.60145976186672
 30
0.0
 10
2.007366733997837
 20
2.599230364186868
 30
0.0
 10
2.089721360045941
 20
2.581524673582129
 30
0.0
 10
2.171954702133386
 20
2.552391569482659
 30
0.0
 10
2.25427805210101
 20
2.512155336144271
 30
0.0
 10
2.336088341484462
 20
2.460088460264083
 30
0.0
 10
2.418105198160196
 20
2.397159160895765
 30
0.0
 10
2.501313228450341
 20
2.323781446386589
 30
0.0
 10
2.553269541551727
 20
2.267682220966607
 30
0.0
 10
2.580128205128204
 20
2.238681891025641
 30
0.0
  0
SPLINE
  5
8B
330
1F
100
AcDbEntity
  8
0
  6
Continuous
 62
     7
370
    25
100
AcDbSpline
210
0.0
220
0.0
230
1.0
 70
     8
 71
     3
 72
    11
 73
     7
 74
     0
 42
0.00000001
 43
0.00000001
 40
0.0
 40
0.0
 40
0.0
 40
0.0
 40
0.2252775478670095
 40
0.4635231951764805
 40
0.7203235553269193
 40
1.0
 40
1.0
 40
1.0
 40
1.0
 10
7.287459935897433
 20
2.602564102564103
 30
0.0
 10
7.309286262384122
 20
2.601373575969184
 30
0.0
 10
7.354195347589756
 20
2.598923990129653
 30
0.0
 10
7.422177937394004
 20
2.581713165487797
 30
0.0
 10
7.492221389303606
 20
2.554235142934802
 30
0.0
 10
7.537363776554154
 20
2.528394920269813
 30
0.0
 10
7.560897435897434
 20
2.514923878205129
 30
0.0
  0
SPLINE
  5
8D
330
1F
100
AcDbEntity
  8
0
  6
Continuous
 62
     7
370
    25
100
AcDbSpline
210
0.0
220
0.0
230
1.0
 70
     8
 71
     3
 72
    15
 73
    11
 74
     0
 42
0.00000001
 43
0.00000001
 40
0.0
 40
0.0
 40
0.0
 40
0.0
 40
0.1355195283706054
 40
0.2608331631936791
 40
0.3784760291245033
 40
0.4931776464746765
 40
0.6092809649289386
 40
0.7299810378566458
 40
0.8592613089300661
 40
1.0
 40
1.0
 40
1.0
 40
1.0
 10
0.2993790064102567
 20
1.78505608974359
 30
0.0
 10
0.2887534749039333
 20
1.824767274691239
 30
0.0
 10
0.2683026142292326
 20
1.90119901931581
 30
0.0
 10
0.2177686311040891
 20
2.004873371937257
 30
0.0
 10
0.1539544503167209
 20
2.093071559766555
 30
0.0
 10
0.0760566009515526
 20
2.165248281390948
 30
0.0
 10
-0.015172474688818
 20
2.221419118095957
 30
0.0
 10
-0.1194796174566531
 20
2.260393072823017
 30
0.0
 10
-0.2358582581289731
 20
2.284769342021924
 30
0.0
 10
-0.317712640802456
 20
2.287196474037251
 30
0.0
 10
-0.3603766025641023
 20
2.288461538461539
 30
0.0
  0
SPLINE
  5
8E
330
1F
100
AcDbEntity
  8
0
  6
Continuous
 62
     7
370
    25
100
AcDbSpline
210
0.0
220
0.0
230
1.0
 70
     8
 71
     3
 72
    15
 73
    11
 74
     0
 42
0.00000001
 43
0.00000001
 40
0.0
 40
0.0
 40
0.0
 40
0.0
 40
0.0834251049856347
 40
0.1775598214659705
 40
0.2839823599504457
 40
0.4022167468072145
 40
0.533568480380057
 40
0.67612099419882
 40
0.8316493725539875
 40
0.9999999999999999
 40
0.9999999999999999
 40
0.9999999999999999
 40
0.9999999999999999
 10
1.67988782051282
 20
1.712139423076923
 30
0.0
 10
1.687851314284497
 20
1.702354838743884
 30
0.0
 10
1.704800607097349
 20
1.681529584192605
 30
0.0
 10
1.736609122074122
 20
1.652625730775046
 30
0.0
 10
1.77263162493443
 20
1.620683479799875
 30
0.0
 10
1.815951562666702
 20
1.58874664282135
 30
0.0
 10
1.864702590550761
 20
1.555114917615033
 30
0.0
 10
1.919941874764522
 20
1.521112784640416
 30
0.0
 10
1.979916379735572
 20
1.484148359752089
 30
0.0
 10
2.022853686352197
 20
1.460703924208317
 30
0.0
 10
2.045172275641025
 20
1.448517628205128
 30
0.0
  0
SPLINE
  5
92
330
1F
100
AcDbEntity
  8
0
  6
Continuous
 62
     7
370
    25
100
AcDbSpline
210
0.0
220
0.0
230
1.0
 70
     8
 71
     3
 72
    19
 73
    15
 74
     0
 42
0.00000001
 43
0.00000001
 40
0.0
 40
0.0
 40
0.0
 40
0.0
 40
0.0938065293523325
 40
0.191338128136339
 40
0.2951906166251709
 40
0.4103123367232983
 40
0.4719302510512778
 40
0.5364251593464323
 40
0.6031187283036311
 40
0.6741176724905975
 40
0.7493320232258873
 40
0.8282833841715622
 40
0.9120398092627608
 40
0.9999999999999999
 40
0.9999999999999999
 40
0.9999999999999999
 40
0.9999999999999999
 10
-1.14072516025641
 20
-4.544871794871795
 30
0.0
 10
-1.165930893767428
 20
-4.546551832240364
 30
0.0
 10
-1.217343283732174
 20
-4.549978621479027
 30
0.0
 10
-1.292827783141918
 20
-4.576917429246011
 30
0.0
 10
-1.366074988643255
 20
-4.62044266935917
 30
0.0
 10
-1.424246650979267
 20
-4.668713781210032
 30
0.0
 10
-1.469288903854089
 20
-4.715261578674419
 30
0.0
 10
-1.501429129384858
 20
-4.755909981241406
 30
0.0
 10
-1.530911876338533
 20
-4.801488612769846
 30
0.0
 10
-1.559082096739034
 20
-4.85121829657318
 30
0.0
 10
-1.584748390948179
 20
-4.905948142605427
 30
0.0
 10
-1.608703060151913
 20
-4.96513135602733
 30
0.0
 10
-1.630361923074289
 20
-5.028836484797109
 30
0.0
 10
-1.642712167298531
 20
-5.07321900501738
 30
0.0
 10
-1.649038461538461
 20
-5.095953525641026
 30
0.0
  0
SPLINE
  5
93
330
1F
100
AcDbEntity
  8
0
  6
Continuous
 62
     7
370
    25
100
AcDbSpline
210
0.0
220
0.0
230
1.0
 70
     8
 71
     3
 72
    15
 73
    11
 74
     0
 42
0.00000001
 43
0.00000001
 40
0.0
 40
0.0
 40
0.0
 40
0.0
 40
0.090279214650015
 40
0.1895299184469587
 40
0.2991978724002884
 40
0.4189258867738191
 40
0.5483762854012484
 40
0.6881363695386806
 40
0.8390835016589192
 40
1.0
 40
1.0
 40
1.0
 40
1.0
 10
-5.801782852564103
 20
1.205929487179487
 30
0.0
 10
-5.817453466744699
 20
1.225976310782828
 30
0.0
 10
-5.850351961034621
 20
1.268062109351094
 30
0.0
 10
-5.906909473627636
 20
1.330707344826535
 30
0.0
 10
-5.973275587933029
 20
1.395325763778589
 30
0.0
 10
-6.047179142844694
 20
1.464384820727927
 30
0.0
 10
-6.131312231685307
 20
1.534672617415962
 30
0.0
 10
-6.223039746088459
 20
1.609540895354915
 30
0.0
 10
-6.324703605054587
 20
1.686142472401591
 30
0.0
 10
-6.396003101672576
 20
1.737515037948144
 30
0.0
 10
-6.432792467948719
 20
1.764022435897436
 30
0.0
  0
SPLINE
  5
94
330
1F
100
AcDbEntity
  8
0
  6
Continuous
 62
     7
370
    25
100
AcDbSpline
210
0.0
220
0.0
230
1.0
 70
     8
 71
     3
 72
    23
 73
    19
 74
     0
 42
0.00000001
 43
0.00000001
 40
0.0
 40
0.0
 40
0.0
 40
0.0
 40
0.0715786576891419
 40
0.1396292246928479
 40
0.2047966973966657
 40
0.2681349633966819
 40
0.3298137469867302
 40
0.3913013977745599
 40
0.4534335150970539
 40
0.5165516903197668
 40
0.579631270704923
 40
0.6411189214927526
 40
0.7012940466987743
 40
0.7608103356761335
 40
0.819931721778144
 40
0.8789195754993824
 40
0.9389828222504467
 40
1.0
 40
1.0
 40
1.0
 40
1.0
 10
-3.537159455128206
 20
-0.0448717948717948
 30
0.0
 10
-3.586301432663648
 20
-0.0437246195422224
 30
0.0
 10
-3.682163194320964
 20
-0.0414868128128672
 30
0.0
 10
-3.821702941433821
 20
-0.0221943483784
 30
0.0
 10
-3.953082359831344
 20
0.0092780103152776
 30
0.0
 10
-4.076294063184947
 20
0.0532435518065507
 30
0.0
 10
-4.191036315762497
 20
0.1106708758968331
 30
0.0
 10
-4.297537170574422
 20
0.1806303577005575
 30
0.0
 10
-4.396356696443393
 20
0.2627626123891068
 30
0.0
 10
-4.484380905628544
 20
0.3577790558760695
 30
0.0
 10
-4.563624788338985
 20
0.4594610131714704
 30
0.0
 10
-4.633550608314668
 20
0.565416897657453
 30
0.0
 10
-4.692008039364111
 20
0.6753801221313697
 30
0.0
 10
-4.73956064955984
 20
0.7886506461749166
 30
0.0
 10
-4.777965514529641
 20
0.9045145397180501
 30
0.0
 10
-4.804732218298766
 20
1.024026007287268
 30
0.0
 10
-4.820161966280823
 20
1.146861591527442
 30
0.0
 10
-4.822526411818182
 20
1.229958927245197
 30
0.0
 10
-4.82371794871795
 20
1.271834935897436
 30
0.0
  0
SPLINE
  5
95
330
1F
100
AcDbEntity
  8
0
  6
Continuous
 62
     7
370
    25
100
AcDbSpline
210
0.0
220
0.0
230
1.0
 70
     8
 71
     3
 72
    15
 73
    11
 74
     0
 42
0.00000001
 43
0.00000001
 40
0.0
 40
0.0
 40
0.0
 40
0.0
 40
0.1185218400132609
 40
0.236254763161747
 40
0.3561744339909319
 40
0.4772496548985583
 40
0.6015398708217021
 40
0.7296183821680431
 40
0.8621582661414389
 40
0.9999999999999999
 40
0.9999999999999999
 40
0.9999999999999999
 40
0.9999999999999999
 10
1.740885416666667
 20
-4.734174679487179
 30
0.0
 10
1.763012354979157
 20
-4.764378260873468
 30
0.0
 10
1.807118948075644
 20
-4.824584379562276
 30
0.0
 10
1.862366048110776
 20
-4.922755536662962
 30
0.0
 10
1.910323443094452
 20
-5.025466131013114
 30
0.0
 10
1.948656404109221
 20
-5.134376428100115
 30
0.0
 10
1.979695905305769
 20
-5.248196008273045
 30
0.0
 10
2.002152724045955
 20
-5.367738552987356
 30
0.0
 10
2.015322342627792
 20
-5.492968464348211
 30
0.0
 10
2.017911039976227
 20
-5.578295019824915
 30
0.0
 10
2.01923076923077
 20
-5.621794871794872
 30
0.0
  0
SPLINE
  5
96
330
1F
100
AcDbEntity
  8
0
  6
Continuous
 62
     7
370
    25
100
AcDbSpline
210
0.0
220
0.0
230
1.0
 70
     8
 71
     3
 72
    23
 73
    19
 74
     0
 42
0.00000001
 43
0.00000001
 40
0.0
 40
0.0
 40
0.0
 40
0.0
 40
0.0715786576891419
 40
0.1396292246928478
 40
0.2047966973966657
 40
0.2681349633966816
 40
0.3298137469867302
 40
0.3913013977745596
 40
0.4534335150970538
 40
0.5165516903197664
 40
0.5796312707049232
 40
0.6411189214927524
 40
0.7012940466987739
 40
0.7608103356761335
 40
0.819931721778144
 40
0.8789195754993824
 40
0.9389828222504464
 40
1.0
 40
1.0
 40
1.0
 40
1.0
 10
0.703225160256411
 20
-6.878205128205129
 30
0.0
 10
0.6540831827209692
 20
-6.877057952875557
 30
0.0
 10
0.5582214210636535
 20
-6.874820146146201
 30
0.0
 10
0.4186816739507963
 20
-6.855527681711732
 30
0.0
 10
0.2873022555532725
 20
-6.824055323018056
 30
0.0
 10
0.1640905521996694
 20
-6.780089781526783
 30
0.0
 10
0.049348299622121
 20
-6.722662457436501
 30
0.0
 10
-0.0571525551898044
 20
-6.652702975632777
 30
0.0
 10
-0.1559720810587746
 20
-6.570570720944228
 30
0.0
 10
-0.2439962902439279
 20
-6.475554277457262
 30
0.0
 10
-0.3232401729543671
 20
-6.373872320161865
 30
0.0
 10
-0.3931659929300528
 20
-6.26791643567588
 30
0.0
 10
-0.4516234239794927
 20
-6.157953211201964
 30
0.0
 10
-0.4991760341752234
 20
-6.044682687158418
 30
0.0
 10
-0.5375808991450234
 20
-5.928818793615283
 30
0.0
 10
-0.5643476029141518
 20
-5.809307326046065
 30
0.0
 10
-0.5797773508962059
 20
-5.686471741805892
 30
0.0
 10
-0.5821417964335642
 20
-5.603374406088138
 30
0.0
 10
-0.5833333333333327
 20
-5.561498397435898
 30
0.0
  0
SPLINE
  5
97
330
1F
100
AcDbEntity
  8
0
  6
Continuous
 62
     7
370
    25
100
AcDbSpline
210
0.0
220
0.0
230
1.0
 70
     8
 71
     3
 72
    15
 73
    11
 74
     0
 42
0.00000001
 43
0.00000001
 40
0.0
 40
0.0
 40
0.0
 40
0.0
 40
0.1590042985173773
 40
0.304646099896814
 40
0.4385469045795918
 40
0.5623222987759277
 40
0.6774325425257313
 40
0.7868973929387537
 40
0.8936108891042669
 40
1.0
 40
1.0
 40
1.0
 40
1.0
 10
-7.130408653846154
 20
0.8525641025641028
 30
0.0
 10
-7.102890416595622
 20
0.8064997176169949
 30
0.0
 10
-7.050166535967365
 20
0.7182421337080399
 30
0.0
 10
-6.96221517681487
 20
0.5989840932792629
 30
0.0
 10
-6.871082265648956
 20
0.4976219365202678
 30
0.0
 10
-6.776092932099513
 20
0.4147453289804381
 30
0.0
 10
-6.677826983977136
 20
0.3494964422328195
 30
0.0
 10
-6.575642930240436
 20
0.3032942105142714
 30
0.0
 10
-6.469885119528998
 20
0.2744782351429302
 30
0.0
 10
-6.397911298049572
 20
0.27097814858827
 30
0.0
 10
-6.361979166666667
 20
0.2692307692307692
 30
0.0
  0
SPLINE
  5
98
330
1F
100
AcDbEntity
  8
0
  6
Continuous
 62
     7
370
    25
100
AcDbSpline
210
0.0
220
0.0
230
1.0
 70
     8
 71
     3
 72
    11
 73
     7
 74
     0
 42
0.00000001
 43
0.00000001
 40
0.0
 40
0.0
 40
0.0
 40
0.0
 40
0.2488386141270714
 40
0.4952350254576694
 40
0.7433356038750065
 40
1.0
 40
1.0
 40
1.0
 40
1.0
 10
2.505809294871794
 20
1.089543269230769
 30
0.0
 10
2.524019822283843
 20
1.059877181180261
 30
0.0
 10
2.560262151627061
 20
1.000836160065184
 30
0.0
 10
2.598320418083027
 20
0.903617732622358
 30
0.0
 10
2.620380692925824
 20
0.8005072301851541
 30
0.0
 10
2.623442913149423
 20
0.7299750100684624
 30
0.0
 10
2.624999999999999
 20
0.694110576923077
 30
0.0
  0
SPLINE
  5
99
330
1F
100
AcDbEntity
  8
0
  6
Continuous
 62
     7
370
    25
100
AcDbSpline
210
0.0
220
0.0
230
1.0
 70
     8
 71
     3
 72
    19
 73
    15
 74
     0
 42
0.00000001
 43
0.00000001
 40
0.0
 40
0.0
 40
0.0
 40
0.0
 40
0.1072327993600883
 40
0.213251812781849
 40
0.3188304473075875
 40
0.4267935306342751
 40
0.483645950782719
 40
0.5436038220211425
 40
0.6083076495640835
 40
0.6771267602600408
 40
0.7506856360204961
 40
0.828713418443288
 40
0.9121903482234532
 40
1.0
 40
1.0
 40
1.0
 40
1.0
 10
-6.339543269230769
 20
3.58974358974359
 30
0.0
 10
-6.298299168932758
 20
3.588321038144409
 30
0.0
 10
-6.216277817185966
 20
3.585492037044825
 30
0.0
 10
-6.095628601616418
 20
3.560894505725089
 30
0.0
 10
-5.979467885215811
 20
3.520193833937103
 30
0.0
 10
-5.886024620396316
 20
3.474005175959536
 30
0.0
 10
-5.812891858934495
 20
3.427873760246265
 30
0.0
 10
-5.757119126245563
 20
3.385853935967422
 30
0.0
 10
-5.700601675458995
 20
3.337478827363225
 30
0.0
 10
-5.642883620630248
 20
3.282619581282408
 30
0.0
 10
-5.584942961191082
 20
3.220772830192796
 30
0.0
 10
-5.525919508946926
 20
3.152362141283575
 30
0.0
 10
-5.465675240136232
 20
3.077805585419188
 30
0.0
 10
-5.426919380012327
 20
3.024581084664678
 30
0.0
 10
-5.407051282051283
 20
2.997295673076923
 30
0.0
  0
SPLINE
  5
9A
330
1F
100
AcDbEntity
  8
0
  6
Continuous
 62
     7
370
    25
100
AcDbSpline
210
0.0
220
0.0
230
1.0
 70
     8
 71
     3
 72
    23
 73
    19
 74
     0
 42
0.00000001
 43
0.00000001
 40
0.0
 40
0.0
 40
0.0
 40
0.0
 40
0.063774532305632
 40
0.1260788099895055
 40
0.1869040927472073
 40
0.2475739349176194
 40
0.3080033561644468
 40
0.3691318984609778
 40
0.4320332277442045
 40
0.496790794437091
 40
0.5616108232295652
 40
0.6249138657484624
 40
0.6867263492419248
 40
0.7480788332577714
 40
0.8095822911398958
 40
0.8716307425688271
 40
0.9348858208285534
 40
1.0
 40
1.0
 40
1.0
 40
1.0
 10
-5.339743589743589
 20
-5.547475961538462
 30
0.0
 10
-5.338490618358705
 20
-5.503012257969033
 30
0.0
 10
-5.336013561523543
 20
-5.415109914649699
 30
0.0
 10
-5.317560341683272
 20
-5.285831216663841
 30
0.0
 10
-5.286529333024093
 20
-5.1613129559306
 30
0.0
 10
-5.242981485358204
 20
-5.041956012706839
 30
0.0
 10
-5.187139530395084
 20
-4.927615962558251
 30
0.0
 10
-5.119211443374234
 20
-4.818211937543314
 30
0.0
 10
-5.039192318675395
 20
-4.713442540081276
 30
0.0
 10
-4.94693991165901
 20
-4.615771313262501
 30
0.0
 10
-4.847005141496371
 20
-4.525550698993121
 30
0.0
 10
-4.740096410581002
 20
-4.447141653550657
 30
0.0
 10
-4.62887312926017
 20
-4.379424804734632
 30
0.0
 10
-4.511610118737787
 20
-4.325771328428284
 30
0.0
 10
-4.390043013923791
 20
-4.282362223883824
 30
0.0
 10
-4.263089568176562
 20
-4.252329255783309
 30
0.0
 10
-4.131277989500989
 20
-4.234631934543303
 30
0.0
 10
-4.041787497436371
 20
-4.232069170392216
 30
0.0
 10
-3.996394230769229
 20
-4.230769230769231
 30
0.0
  0
SPLINE
  5
9B
330
1F
100
AcDbEntity
  8
0
  6
Continuous
 62
     7
370
    25
100
AcDbSpline
210
0.0
220
0.0
230
1.0
 70
     8
 71
     3
 72
    15
 73
    11
 74
     0
 42
0.00000001
 43
0.00000001
 40
0.0
 40
0.0
 40
0.0
 40
0.0
 40
0.1409759662687708
 40
0.2735687809631698
 40
0.3989883138042539
 40
0.5199297813924318
 40
0.6381100215247449
 40
0.756588900740595
 40
0.8768597544106074
 40
1.0
 40
1.0
 40
1.0
 40
1.0
 10
-1.278846153846154
 20
2.096354166666667
 30
0.0
 10
-1.24530851871404
 20
2.138196889504292
 30
0.0
 10
-1.180227567667474
 20
2.219394152994193
 30
0.0
 10
-1.071843234392061
 20
2.326114727554277
 30
0.0
 10
-0.9572993340694493
 20
2.414059952599059
 30
0.0
 10
-0.8372973305822883
 20
2.484163746543379
 30
0.0
 10
-0.7116743204823606
 20
2.537010372692042
 30
0.0
 10
-0.5811960505192668
 20
2.575176303777714
 30
0.0
 10
-0.4450813444314617
 20
2.598061132317334
 30
0.0
 10
-0.3525169075579241
 20
2.601051362616858
 30
0.0
 10
-0.3056891025641022
 20
2.602564102564103
 30
0.0
  0
SPLINE
  5
9C
330
1F
100
AcDbEntity
  8
0
  6
Continuous
 62
     7
370
    25
100
AcDbSpline
210
0.0
220
0.0
230
1.0
 70
     8
 71
     3
 72
    15
 73
    11
 74
     0
 42
0.00000001
 43
0.00000001
 40
0.0
 40
0.0
 40
0.0
 40
0.0
 40
0.0708548685015313
 40
0.1569381495573537
 40
0.2586003949600846
 40
0.3758909295892028
 40
0.5081661676989032
 40
0.6562378085782242
 40
0.8201767703979103
 40
1.0
 40
1.0
 40
1.0
 40
1.0
 10
6.719551282051281
 20
1.737379807692308
 30
0.0
 10
6.714818888686202
 20
1.717102634113487
 30
0.0
 10
6.70433699699125
 20
1.672190235473658
 30
0.0
 10
6.694145459147623
 20
1.596841710751886
 30
0.0
 10
6.684075941171082
 20
1.507818051987888
 30
0.0
 10
6.676979322820336
 20
1.404871459104331
 30
0.0
 10
6.670401280693056
 20
1.288259015176171
 30
0.0
 10
6.666691198465916
 20
1.157803069552564
 30
0.0
 10
6.663588057909164
 20
1.013369718410515
 30
0.0
 10
6.663504991038263
 20
0.9123953651782959
 30
0.0
 10
6.663461538461537
 20
0.8595753205128207
 30
0.0
  0
SPLINE
  5
9D
330
1F
100
AcDbEntity
  8
0
  6
Continuous
 62
     7
370
    25
100
AcDbSpline
210
0.0
220
0.0
230
1.0
 70
     8
 71
     3
 72
    15
 73
    11
 74
     0
 42
0.00000001
 43
0.00000001
 40
0.0
 40
0.0
 40
0.0
 40
0.0
 40
0.181535301376285
 40
0.3470816724816287
 40
0.4955678164315546
 40
0.6283573018772138
 40
0.7455196699921558
 40
0.8458307507576512
 40
0.9307818073847586
 40
1.0
 40
1.0
 40
1.0
 40
1.0
 10
-6.432792467948719
 20
1.764022435897436
 30
0.0
 10
-6.469616464127774
 20
1.790251023516763
 30
0.0
 10
-6.540021140707957
 20
1.840398085761574
 30
0.0
 10
-6.638479723054324
 20
1.914822369775194
 30
0.0
 10
-6.726524186064239
 20
1.982866239317095
 30
0.0
 10
-6.803763202587549
 20
2.045170251419631
 30
0.0
 10
-6.870162799433609
 20
2.101742856149508
 30
0.0
 10
-6.926246210447754
 20
2.152040795291678
 30
0.0
 10
-6.970584767543317
 20
2.197424356160035
 30
0.0
 10
-6.995240348201843
 20
2.226865697905194
 30
0.0
 10
-7.006310096153846
 20
2.240084134615385
 30
0.0
  0
SPLINE
  5
9E
330
1F
100
AcDbEntity
  8
0
  6
Continuous
 62
     7
370
    25
100
AcDbSpline
210
0.0
220
0.0
230
1.0
 70
     8
 71
     3
 72
    19
 73
    15
 74
     0
 42
0.00000001
 43
0.00000001
 40
0.0
 40
0.0
 40
0.0
 40
0.0
 40
0.08378537065371
 40
0.1657798879221418
 40
0.2462800078932625
 40
0.3274609277363899
 40
0.4087969540320681
 40
0.4897152412309885
 40
0.5713760321300526
 40
0.6555233211112771
 40
0.7410194827999727
 40
0.8265467605037607
 40
0.9119888516548327
 40
1.0
 40
1.0
 40
1.0
 40
1.0
 10
-7.201923076923078
 20
2.772936698717948
 30
0.0
 10
-7.20061786792971
 20
2.809966473282652
 30
0.0
 10
-7.198035347867467
 20
2.883234537017677
 30
0.0
 10
-7.176194830597049
 20
2.99026536745978
 30
0.0
 10
-7.141721936942562
 20
3.092451784677343
 30
0.0
 10
-7.093427049080987
 20
3.188782118402061
 30
0.0
 10
-7.031169696162752
 20
3.276748099290272
 30
0.0
 10
-6.959123721797531
 20
3.357361586272305
 30
0.0
 10
-6.87331223556007
 20
3.425130168493188
 30
0.0
 10
-6.779159612296663
 20
3.484342226882406
 30
0.0
 10
-6.676103240213976
 20
3.530688152089467
 30
0.0
 10
-6.568112336816348
 20
3.565649132249963
 30
0.0
 10
-6.455015264791156
 20
3.585458389940919
 30
0.0
 10
-6.378412130167741
 20
3.588301154853564
 30
0.0
 10
-6.33954326923077
 20
3.58974358974359
 30
0.0
  0
SPLINE
  5
9F
330
1F
100
AcDbEntity
  8
0
  6
Continuous
 62
     7
370
    25
100
AcDbSpline
210
0.0
220
0.0
230
1.0
 70
     8
 71
     3
 72
    11
 73
     7
 74
     0
 42
0.00000001
 43
0.00000001
 40
0.0
 40
0.0
 40
0.0
 40
0.0
 40
0.2347233736739019
 40
0.4771583189289882
 40
0.7285562842030545
 40
1.0
 40
1.0
 40
1.0
 40
1.0
 10
-5.676282051282051
 20
0.8623798076923079
 30
0.0
 10
-5.677756361981348
 20
0.8915206573997716
 30
0.0
 10
-5.68075342019436
 20
0.9507597465494259
 30
0.0
 10
-5.706084900266829
 20
1.038159399503381
 30
0.0
 10
-5.745934147110269
 20
1.124651969527642
 30
0.0
 10
-5.782696790815245
 20
1.178153235105402
 30
0.0
 10
-5.801782852564103
 20
1.205929487179487
 30
0.0
  0
SPLINE
  5
A0
330
1F
100
AcDbEntity
  8
0
  6
Continuous
 62
     7
370
    25
100
AcDbSpline
210
0.0
220
0.0
230
1.0
 70
     8
 71
     3
 72
    11
 73
     7
 74
     0
 42
0.00000001
 43
0.00000001
 40
0.0
 40
0.0
 40
0.0
 40
0.0
 40
0.2951388013693774
 40
0.5602299448882373
 40
0.7949833567409027
 40
1.0
 40
1.0
 40
1.0
 40
1.0
 10
-0.9801682692307689
 20
-4.590444711538462
 30
0.0
 10
-0.9952772903746351
 20
-4.583704445423317
 30
0.0
 10
-1.023957104900782
 20
-4.570910130014096
 30
0.0
 10
-1.065911671169534
 20
-4.555768119882059
 30
0.0
 10
-1.104593007900408
 20
-4.546852204033941
 30
0.0
 10
-1.129236566263279
 20
-4.545501486581826
 30
0.0
 10
-1.14072516025641
 20
-4.544871794871795
 30
0.0
  0
SPLINE
  5
A1
330
1F
100
AcDbEntity
  8
0
  6
Continuous
 62
     7
370
    25
100
AcDbSpline
210
0.0
220
0.0
230
1.0
 70
     8
 71
     3
 72
    15
 73
    11
 74
     0
 42
0.00000001
 43
0.00000001
 40
0.0
 40
0.0
 40
0.0
 40
0.0
 40
0.1280448079611203
 40
0.2537679000244893
 40
0.3774284265813013
 40
0.5005508414825331
 40
0.6232958832424763
 40
0.7465783319335076
 40
0.8723475406047174
 40
1.0
 40
1.0
 40
1.0
 40
1.0
 10
-0.5833333333333326
 20
-5.561498397435897
 30
0.0
 10
-0.5822741920027368
 20
-5.522203567018321
 30
0.0
 10
-0.5801751137536911
 20
-5.444326402331452
 30
0.0
 10
-0.5669443263600048
 20
-5.32906085780117
 30
0.0
 10
-0.5434960332919876
 20
-5.217032405272611
 30
0.0
 10
-0.5113197093428548
 20
-5.10814795730374
 30
0.0
 10
-0.4697684631596157
 20
-5.002589823319652
 30
0.0
 10
-0.4189362439433958
 20
-4.900293759696495
 30
0.0
 10
-0.3587438661546126
 20
-4.801368619836033
 30
0.0
 10
-0.3122711923981465
 20
-4.73896548612822
 30
0.0
 10
-0.2888621794871788
 20
-4.707532051282052
 30
0.0
  0
SPLINE
  5
A2
330
1F
100
AcDbEntity
  8
0
  6
Continuous
 62
     7
370
    25
100
AcDbSpline
210
0.0
220
0.0
230
1.0
 70
     8
 71
     3
 72
    19
 73
    15
 74
     0
 42
0.00000001
 43
0.00000001
 40
0.0
 40
0.0
 40
0.0
 40
0.0
 40
0.0933698567361953
 40
0.1816607660710046
 40
0.2658742270426186
 40
0.346354784034308
 40
0.4245998617178937
 40
0.5019031838373769
 40
0.5799920909873477
 40
0.6584434305294313
 40
0.7386722364878342
 40
0.8218941484362439
 40
0.9088007920466151
 40
1.0
 40
1.0
 40
1.0
 40
1.0
 10
-2.355769230769231
 20
0.6611578525641025
 30
0.0
 10
-2.378005826009207
 20
0.621714521288781
 30
0.0
 10
-2.42126943449388
 20
0.5449734184710697
 30
0.0
 10
-2.495670182384647
 20
0.4395415579990015
 30
0.0
 10
-2.57366225496284
 20
0.3446938421602394
 30
0.0
 10
-2.658766222966413
 20
0.2629641878763478
 30
0.0
 10
-2.748435901920428
 20
0.1917128029021488
 30
0.0
 10
-2.843168556706109
 20
0.1293749781832009
 30
0.0
 10
-2.943457374441453
 20
0.0762564578373856
 30
0.0
 10
-3.049307099219712
 20
0.0315039299646136
 30
0.0
 10
-3.161606650361208
 20
-0.0029055641433079
 30
0.0
 10
-3.280628166771252
 20
-0.0272097850643181
 30
0.0
 10
-3.406599662150041
 20
-0.0422330537147527
 30
0.0
 10
-3.492945842017796
 20
-0.0439781944918105
 30
0.0
 10
-3.537159455128206
 20
-0.0448717948717948
 30
0.0
  0
SPLINE
  5
A3
330
1F
100
AcDbEntity
  8
0
  6
Continuous
 62
     7
370
    25
100
AcDbSpline
210
0.0
220
0.0
230
1.0
 70
     8
 71
     3
 72
    11
 73
     7
 74
     0
 42
0.00000001
 43
0.00000001
 40
0.0
 40
0.0
 40
0.0
 40
0.0
 40
0.2400399314959815
 40
0.4794031936060935
 40
0.7317567388575625
 40
1.0
 40
1.0
 40
1.0
 40
1.0
 10
1.592948717948717
 20
1.944210737179487
 30
0.0
 10
1.59405953021406
 20
1.923998693027847
 30
0.0
 10
1.59627802337969
 20
1.88363158220918
 30
0.0
 10
1.613524702590979
 20
1.824083548368655
 30
0.0
 10
1.640990774770665
 20
1.766026510175889
 30
0.0
 10
1.666660969053222
 20
1.730463603822506
 30
0.0
 10
1.67988782051282
 20
1.712139423076923
 30
0.0
  0
SPLINE
  5
A4
330
1F
100
AcDbEntity
  8
0
  6
Continuous
 62
     7
370
    25
100
AcDbSpline
210
0.0
220
0.0
230
1.0
 70
     8
 71
     3
 72
    15
 73
    11
 74
     0
 42
0.00000001
 43
0.00000001
 40
0.0
 40
0.0
 40
0.0
 40
0.0
 40
0.0769954547170576
 40
0.1676150771831732
 40
0.2710523936342343
 40
0.3894595025720738
 40
0.5208428024655765
 40
0.6663987586080736
 40
0.8260936125153154
 40
1.0
 40
1.0
 40
1.0
 40
1.0
 10
-1.23046875
 20
1.611177884615385
 30
0.0
 10
-1.23440839857569
 20
1.593922681561492
 30
0.0
 10
-1.242984807436649
 20
1.556359007156059
 30
0.0
 10
-1.252247987295508
 20
1.49471458777148
 30
0.0
 10
-1.260655562697183
 20
1.423404612779321
 30
0.0
 10
-1.267692521315758
 20
1.342512295723484
 30
0.0
 10
-1.271997937786335
 20
1.251754420605941
 30
0.0
 10
-1.27669233455999
 20
1.151518582801949
 30
0.0
 10
-1.278401395626375
 20
1.041405094445868
 30
0.0
 10
-1.278693749643921
 20
0.9647434017210992
 30
0.0
 10
-1.278846153846154
 20
0.9247796474358976
 30
0.0
  0
SPLINE
  5
A5
330
1F
100
AcDbEntity
  8
0
  6
Continuous
 62
     7
370
    25
100
AcDbSpline
210
0.0
220
0.0
230
1.0
 70
     8
 71
     3
 72
    23
 73
    19
 74
     0
 42
0.00000001
 43
0.00000001
 40
0.0
 40
0.0
 40
0.0
 40
0.0
 40
0.0645481255642505
 40
0.1271991327555118
 40
0.1885973380874246
 40
0.2486395150940131
 40
0.3095246994640577
 40
0.370036991053349
 40
0.431889243607074
 40
0.4957042857252936
 40
0.559519327843513
 40
0.6213715803972378
 40
0.6823971072916405
 40
0.7435684819321646
 40
0.805498483571214
 40
0.8686397008205241
 40
0.9330662250811647
 40
0.9999999999999999
 40
0.9999999999999999
 40
0.9999999999999999
 40
0.9999999999999999
 10
2.624999999999999
 20
0.694110576923077
 30
0.0
 10
2.62428046618457
 20
0.6688414306782603
 30
0.0
 10
2.622862546198346
 20
0.6190458175645455
 30
0.0
 10
2.613004479260525
 20
0.54571098786352
 30
0.0
 10
2.596049502937336
 20
0.4755764303271319
 30
0.0
 10
2.572955748980311
 20
0.4078811456255823
 30
0.0
 10
2.541771376076513
 20
0.343922206008145
 30
0.0
 10
2.505223578925178
 20
0.2820859570204881
 30
0.0
 10
2.461348667189354
 20
0.2237100262311173
 30
0.0
 10
2.411257291572576
 20
0.1688710660532227
 30
0.0
 10
2.356411797593557
 20
0.1187853186328824
 30
0.0
 10
2.297905659240056
 20
0.0747613647667025
 30
0.0
 10
2.235666828630194
 20
0.038187027567606
 30
0.0
 10
2.170140027207797
 20
0.0079216823246897
 30
0.0
 10
2.101176373135262
 20
-0.0161465756216815
 30
0.0
 10
2.028765083848728
 20
-0.0328091068754648
 30
0.0
 10
1.953136329277107
 20
-0.0427818679696506
 30
0.0
 10
1.901706521146123
 20
-0.0441663441542127
 30
0.0
 10
1.87550080128205
 20
-0.0448717948717948
 30
0.0
  0
SPLINE
  5
A6
330
1F
100
AcDbEntity
  8
0
  6
Continuous
 62
     7
370
    25
100
AcDbSpline
210
0.0
220
0.0
230
1.0
 70
     8
 71
     3
 72
    11
 73
     7
 74
     0
 42
0.00000001
 43
0.00000001
 40
0.0
 40
0.0
 40
0.0
 40
0.0
 40
0.2534754346498646
 40
0.5004533151029035
 40
0.7455781350009829
 40
1.0
 40
1.0
 40
1.0
 40
1.0
 10
2.310897435897435
 20
0.680789262820513
 30
0.0
 10
2.30981114155863
 20
0.7030988814825967
 30
0.0
 10
2.307666398799695
 20
0.7471462371308625
 30
0.0
 10
2.290823126795179
 20
0.8108965781749885
 30
0.0
 10
2.26421027453538
 20
0.8713658588573661
 30
0.0
 10
2.238005626181625
 20
0.9067555060991191
 30
0.0
 10
2.224659455128204
 20
0.9247796474358976
 30
0.0
  0
SPLINE
  5
A7
330
1F
100
AcDbEntity
  8
0
  6
Continuous
 62
     7
370
    25
100
AcDbSpline
210
0.0
220
0.0
230
1.0
 70
     8
 71
     3
 72
    15
 73
    11
 74
     0
 42
0.00000001
 43
0.00000001
 40
0.0
 40
0.0
 40
0.0
 40
0.0
 40
0.0708548685015309
 40
0.1569381495573534
 40
0.2586003949600846
 40
0.375890929589203
 40
0.5081661676989032
 40
0.656237808578224
 40
0.82017677039791
 40
1.0
 40
1.0
 40
1.0
 40
1.0
 10
-1.649038461538461
 20
-5.095953525641026
 30
0.0
 10
-1.653770854903541
 20
-5.116230699219847
 30
0.0
 10
-1.664252746598492
 20
-5.161143097859675
 30
0.0
 10
-1.674444284442118
 20
-5.236491622581446
 30
0.0
 10
-1.684513802418662
 20
-5.325515281345447
 30
0.0
 10
-1.691610420769401
 20
-5.428461874229
 30
0.0
 10
-1.698188462896686
 20
-5.545074318157163
 30
0.0
 10
-1.701898545123825
 20
-5.675530263780769
 30
0.0
 10
-1.705001685680578
 20
-5.819963614922818
 30
0.0
 10
-1.705084752551479
 20
-5.920937968155037
 30
0.0
 10
-1.705128205128205
 20
-5.973758012820513
 30
0.0
  0
SPLINE
  5
A8
330
1F
100
AcDbEntity
  8
0
  6
Continuous
 62
     7
370
    25
100
AcDbSpline
210
0.0
220
0.0
230
1.0
 70
     8
 71
     3
 72
    15
 73
    11
 74
     0
 42
0.00000001
 43
0.00000001
 40
0.0
 40
0.0
 40
0.0
 40
0.0
 40
0.1298621417207365
 40
0.2546535308972872
 40
0.3760145541937122
 40
0.4952552518176073
 40
0.6147977192994577
 40
0.7381055541683322
 40
0.8651963000723571
 40
0.9999999999999999
 40
0.9999999999999999
 40
0.9999999999999999
 40
0.9999999999999999
 10
-3.996394230769229
 20
-4.230769230769231
 30
0.0
 10
-3.944194371706285
 20
-4.232206982311092
 30
0.0
 10
-3.841832911725861
 20
-4.235026345228076
 30
0.0
 10
-3.69210490245904
 20
-4.258489072547057
 30
0.0
 10
-3.550460424555484
 20
-4.298127539701901
 30
0.0
 10
-3.415806072525406
 20
-4.352045037725412
 30
0.0
 10
-3.288625386430577
 20
-4.423693766807323
 30
0.0
 10
-3.170122402114635
 20
-4.514073727830963
 30
0.0
 10
-3.059056918806824
 20
-4.622614914801088
 30
0.0
 10
-2.994676627147601
 20
-4.705985359270317
 30
0.0
 10
-2.96153846153846
 20
-4.748898237179488
 30
0.0
  0
SPLINE
  5
A9
330
1F
100
AcDbEntity
  8
0
  6
Continuous
 62
     7
370
    25
100
AcDbSpline
210
0.0
220
0.0
230
1.0
 70
     8
 71
     3
 72
    15
 73
    11
 74
     0
 42
0.00000001
 43
0.00000001
 40
0.0
 40
0.0
 40
0.0
 40
0.0
 40
0.1474758177483592
 40
0.2859041715443769
 40
0.4171716482444375
 40
0.5405007435864958
 40
0.6592377183802377
 40
0.7750060983159545
 40
0.887228573428635
 40
1.0
 40
1.0
 40
1.0
 40
1.0
 10
1.352463942307691
 20
0.5384615384615384
 30
0.0
 10
1.372236355284137
 20
0.5171067739337344
 30
0.0
 10
1.410568167494255
 20
0.4757073339844347
 30
0.0
 10
1.47186938429155
 20
0.4205829933129858
 30
0.0
 10
1.534248785394583
 20
0.374381722180973
 30
0.0
 10
1.597083471968895
 20
0.3357383073889859
 30
0.0
 10
1.661303566292427
 20
0.3059629042314387
 30
0.0
 10
1.726549180526089
 20
0.2850443103218211
 30
0.0
 10
1.792687604587519
 20
0.2716001180964548
 30
0.0
 10
1.837109740407377
 20
0.2700218357769085
 30
0.0
 10
1.859374999999999
 20
0.2692307692307692
 30
0.0
  0
SPLINE
  5
AA
330
1F
100
AcDbEntity
  8
0
  6
Continuous
 62
     7
370
    25
100
AcDbSpline
210
0.0
220
0.0
230
1.0
 70
     8
 71
     3
 72
    15
 73
    11
 74
     0
 42
0.00000001
 43
0.00000001
 40
0.0
 40
0.0
 40
0.0
 40
0.0
 40
0.1288352544875548
 40
0.2535893349864766
 40
0.3746432573141699
 40
0.495340042237792
 40
0.6163247746357905
 40
0.7397593354405144
 40
0.866842320380546
 40
1.0
 40
1.0
 40
1.0
 40
1.0
 10
-0.2888621794871788
 20
-4.707532051282052
 30
0.0
 10
-0.257154496711346
 20
-4.669663181194
 30
0.0
 10
-0.1947435501030765
 20
-4.595125030743528
 30
0.0
 10
-0.089187194749219
 20
-4.497186704961899
 30
0.0
 10
0.0251130015931643
 20
-4.415142929784841
 30
0.0
 10
0.1467246276933243
 20
-4.347135793646622
 30
0.0
 10
0.277061101753916
 20
-4.295462146653842
 30
0.0
 10
0.4143703927915015
 20
-4.256954564421567
 30
0.0
 10
0.5602159790181184
 20
-4.235376553388293
 30
0.0
 10
0.6599211998563137
 20
-4.2323287197663
 30
0.0
 10
0.7109375000000009
 20
-4.230769230769231
 30
0.0
  0
SPLINE
  5
AB
330
1F
100
AcDbEntity
  8
0
  6
Continuous
 62
     7
370
    25
100
AcDbSpline
210
0.0
220
0.0
230
1.0
 70
     8
 71
     3
 72
    15
 73
    11
 74
     0
 42
0.00000001
 43
0.00000001
 40
0.0
 40
0.0
 40
0.0
 40
0.0
 40
0.126742518961846
 40
0.2517239612496066
 40
0.377218688026243
 40
0.504693549251629
 40
0.6314582385934865
 40
0.7554010672029517
 40
0.8777005336014759
 40
1.0
 40
1.0
 40
1.0
 40
1.0
 10
1.87550080128205
 20
-0.0448717948717948
 30
0.0
 10
1.84013362584408
 20
-0.0438790945462423
 30
0.0
 10
1.769890698905443
 20
-0.0419074873829266
 30
0.0
 10
1.666000979756707
 20
-0.0234014262191864
 30
0.0
 10
1.564480221092046
 20
0.0053939677483832
 30
0.0
 10
1.466096680785674
 20
0.0451099019064998
 30
0.0
 10
1.373050566896628
 20
0.0952606147637772
 30
0.0
 10
1.287919642295728
 20
0.1553230083500318
 30
0.0
 10
1.210408179834991
 20
0.2233130057539105
 30
0.0
 10
1.166289906098843
 20
0.2754259164478847
 30
0.0
 10
1.144230769230769
 20
0.3014823717948719
 30
0.0
  0
SPLINE
  5
AC
330
1F
100
AcDbEntity
  8
0
  6
Continuous
 62
     7
370
    25
100
AcDbSpline
210
0.0
220
0.0
230
1.0
 70
     8
 71
     3
 72
    15
 73
    11
 74
     0
 42
0.00000001
 43
0.00000001
 40
0.0
 40
0.0
 40
0.0
 40
0.0
 40
0.1288352544875546
 40
0.2535893349864762
 40
0.3746432573141701
 40
0.4953400422377922
 40
0.6163247746357903
 40
0.7397593354405144
 40
0.866842320380546
 40
1.0
 40
1.0
 40
1.0
 40
1.0
 10
-4.529246794871796
 20
2.125801282051282
 30
0.0
 10
-4.497539112095962
 20
2.163670152139333
 30
0.0
 10
-4.435128165487694
 20
2.238208302589805
 30
0.0
 10
-4.329571810133836
 20
2.336146628371435
 30
0.0
 10
-4.215271613791453
 20
2.418190403548492
 30
0.0
 10
-4.093659987691294
 20
2.486197539686712
 30
0.0
 10
-3.963323513630702
 20
2.537871186679495
 30
0.0
 10
-3.826014222593115
 20
2.576378768911765
 30
0.0
 10
-3.680168636366499
 20
2.597956779945042
 30
0.0
 10
-3.580463415528303
 20
2.601004613567034
 30
0.0
 10
-3.529447115384616
 20
2.602564102564103
 30
0.0
  0
SPLINE
  5
AD
330
1F
100
AcDbEntity
  8
0
  6
Continuous
 62
     7
370
    25
100
AcDbSpline
210
0.0
220
0.0
230
1.0
 70
     8
 71
     3
 72
    15
 73
    11
 74
     0
 42
0.00000001
 43
0.00000001
 40
0.0
 40
0.0
 40
0.0
 40
0.0
 40
0.1280448079611201
 40
0.2537679000244897
 40
0.3774284265813014
 40
0.5005508414825328
 40
0.6232958832424762
 40
0.746578331933508
 40
0.8723475406047165
 40
1.0
 40
1.0
 40
1.0
 40
1.0
 10
-4.82371794871795
 20
1.271834935897436
 30
0.0
 10
-4.822658807387354
 20
1.311129766315012
 30
0.0
 10
-4.820559729138309
 20
1.389006931001881
 30
0.0
 10
-4.807328941744619
 20
1.504272475532165
 30
0.0
 10
-4.783880648676606
 20
1.616300928060723
 30
0.0
 10
-4.75170432472747
 20
1.725185376029594
 30
0.0
 10
-4.710153078544232
 20
1.83074351001368
 30
0.0
 10
-4.659320859328012
 20
1.933039573636839
 30
0.0
 10
-4.599128481539229
 20
2.0319647134973
 30
0.0
 10
-4.552655807782765
 20
2.094367847205115
 30
0.0
 10
-4.529246794871796
 20
2.125801282051282
 30
0.0
  0
SPLINE
  5
AE
330
1F
100
AcDbEntity
  8
0
  6
Continuous
 62
     7
370
    25
100
AcDbSpline
210
0.0
220
0.0
230
1.0
 70
     8
 71
     3
 72
    23
 73
    19
 74
     0
 42
0.00000001
 43
0.00000001
 40
0.0
 40
0.0
 40
0.0
 40
0.0
 40
0.0624160261588177
 40
0.1233369785373299
 40
0.1832651398530923
 40
0.2431724430697093
 40
0.3028983539197452
 40
0.3637735975039103
 40
0.4256053049523824
 40
0.4896590425101843
 40
0.5537845767921167
 40
0.6162215328110732
 40
0.6778544713083421
 40
0.739516897487938
 40
0.8020965355763715
 40
0.8658658412779715
 40
0.9315077951965114
 40
1.0
 40
1.0
 40
1.0
 40
1.0
 10
5.810897435897434
 20
1.271834935897436
 30
0.0
 10
5.809916098579533
 20
1.228534878219732
 30
0.0
 10
5.807976930273498
 20
1.142971944897588
 30
0.0
 10
5.789633313882431
 20
1.016952579109112
 30
0.0
 10
5.761102228005171
 20
0.894757756423727
 30
0.0
 10
5.720270389826129
 20
0.7768990626711497
 30
0.0
 10
5.667912280562583
 20
0.6630162352597754
 30
0.0
 10
5.604021593029005
 20
0.553606685970859
 30
0.0
 10
5.528149975877295
 20
0.4484545526977476
 30
0.0
 10
5.442145979118891
 20
0.3484527144453353
 30
0.0
 10
5.347094102967501
 20
0.2562864996518799
 30
0.0
 10
5.243977954648436
 20
0.1759582300985562
 30
0.0
 10
5.134823920897515
 20
0.1071367057301411
 30
0.0
 10
5.018180567622836
 20
0.051700290115382
 30
0.0
 10
4.89511308079109
 20
0.0079905898038462
 30
0.0
 10
4.765356012686022
 20
-0.0227094266265495
 30
0.0
 10
4.629110942372793
 20
-0.0412711104029189
 30
0.0
 10
4.536083721006604
 20
-0.0436546836638354
 30
0.0
 10
4.488581730769228
 20
-0.0448717948717948
 30
0.0
  0
SPLINE
  5
AF
330
1F
100
AcDbEntity
  8
0
  6
Continuous
 62
     7
370
    25
100
AcDbSpline
210
0.0
220
0.0
230
1.0
 70
     8
 71
     3
 72
    19
 73
    15
 74
     0
 42
0.00000001
 43
0.00000001
 40
0.0
 40
0.0
 40
0.0
 40
0.0
 40
0.0969723103815163
 40
0.1877734389628685
 40
0.2723961390136936
 40
0.351320997375289
 40
0.4243347744514673
 40
0.4919087840005271
 40
0.5542332197968003
 40
0.6112676582441553
 40
0.7163478449915539
 40
0.814540085821616
 40
0.9084954561491857
 40
1.0
 40
1.0
 40
1.0
 40
1.0
 10
-6.18669871794872
 20
1.986979166666667
 30
0.0
 10
-6.148712804641305
 20
1.95933780711695
 30
0.0
 10
-6.075158348262816
 20
1.905814145364028
 30
0.0
 10
-5.970500768351293
 20
1.82539846533658
 30
0.0
 10
-5.875606960256446
 20
1.746750696762295
 30
0.0
 10
-5.790143756686279
 20
1.670373089666203
 30
0.0
 10
-5.713266848246508
 20
1.596844996662558
 30
0.0
 10
-5.645829127571719
 20
1.525281816332374
 30
0.0
 10
-5.587143447224537
 20
1.456196243650151
 30
0.0
 10
-5.523964228764382
 20
1.367623667958968
 30
0.0
 10
-5.459406409243905
 20
1.258842583684628
 30
0.0
 10
-5.403964901817772
 20
1.125564345139354
 30
0.0
 10
-5.369006554363218
 20
0.9917680246423876
 30
0.0
 10
-5.364435038931259
 20
0.9018411881673303
 30
0.0
 10
-5.362179487179487
 20
0.8574719551282051
 30
0.0
  0
SPLINE
  5
B0
330
1F
100
AcDbEntity
  8
0
  6
Continuous
 62
     7
370
    25
100
AcDbSpline
210
0.0
220
0.0
230
1.0
 70
     8
 71
     3
 72
    23
 73
    19
 74
     0
 42
0.00000001
 43
0.00000001
 40
0.0
 40
0.0
 40
0.0
 40
0.0
 40
0.0683846151037681
 40
0.1344755875434509
 40
0.1983910577839564
 40
0.2607534774484865
 40
0.321829222807649
 40
0.3830372384795248
 40
0.4446531231064264
 40
0.5073980112040049
 40
0.5698252379730249
 40
0.630777640631313
 40
0.690928686523717
 40
0.750945132691736
 40
0.8110494767293276
 40
0.872330852546993
 40
0.9350040935894052
 40
0.9999999999999999
 40
0.9999999999999999
 40
0.9999999999999999
 40
0.9999999999999999
 10
-4.509615384615385
 20
1.211538461538462
 30
0.0
 10
-4.508075778186234
 20
1.177837997291347
 30
0.0
 10
-4.505048204238033
 20
1.111567393541643
 30
0.0
 10
-4.490933061071595
 20
1.014596610459173
 30
0.0
 10
-4.468684287297365
 20
0.9222232682955454
 30
0.0
 10
-4.437415224658866
 20
0.8351402263220776
 30
0.0
 10
-4.399548379403973
 20
0.7522100988067876
 30
0.0
 10
-4.353162662618039
 20
0.6740480618381605
 30
0.0
 10
-4.297823108665537
 20
0.6010101317882622
 30
0.0
 10
-4.236097409281171
 20
0.5324429941951306
 30
0.0
 10
-4.16739031394556
 20
0.47138223302743
 30
0.0
 10
-4.095107566724368
 20
0.416730456793156
 30
0.0
 10
-4.01821400173518
 20
0.3709248600637933
 30
0.0
 10
-3.937315918241224
 20
0.3337449703103444
 30
0.0
 10
-3.85254413309705
 20
0.3046386542512427
 30
0.0
 10
-3.76387193798131
 20
0.2847708335683183
 30
0.0
 10
-3.671473821626561
 20
0.2714637266934554
 30
0.0
 10
-3.608488087593784
 20
0.2699840614929266
 30
0.0
 10
-3.576422275641026
 20
0.2692307692307692
 30
0.0
  0
SPLINE
  5
B1
330
1F
100
AcDbEntity
  8
0
  6
Continuous
 62
     7
370
    25
100
AcDbSpline
210
0.0
220
0.0
230
1.0
 70
     8
 71
     3
 72
    15
 73
    11
 74
     0
 42
0.00000001
 43
0.00000001
 40
0.0
 40
0.0
 40
0.0
 40
0.0
 40
0.1289191318119609
 40
0.2552377249249066
 40
0.3786785959785507
 40
0.5010878871851324
 40
0.6227136794297773
 40
0.7462407949383829
 40
0.8715890472316703
 40
1.0
 40
1.0
 40
1.0
 40
1.0
 10
3.163461538461537
 20
1.271834935897436
 30
0.0
 10
3.164584848815176
 20
1.314651481790352
 30
0.0
 10
3.166808810263086
 20
1.399420884199845
 30
0.0
 10
3.183129319337396
 20
1.524347944850985
 30
0.0
 10
3.210487875821867
 20
1.645045333915566
 30
0.0
 10
3.249219272276435
 20
1.760970809899256
 30
0.0
 10
3.298734463167825
 20
1.872726245938934
 30
0.0
 10
3.359095751112007
 20
1.980131076925254
 30
0.0
 10
3.430886383652513
 20
2.083118877404027
 30
0.0
 10
3.486088335184844
 20
2.146840957432089
 30
0.0
 10
3.514022435897433
 20
2.179086538461539
 30
0.0
  0
SPLINE
  5
B2
330
1F
100
AcDbEntity
  8
0
  6
Continuous
 62
     7
370
    25
100
AcDbSpline
210
0.0
220
0.0
230
1.0
 70
     8
 71
     3
 72
    19
 73
    15
 74
     0
 42
0.00000001
 43
0.00000001
 40
0.0
 40
0.0
 40
0.0
 40
0.0
 40
0.0933698567361955
 40
0.1816607660710045
 40
0.2658742270426183
 40
0.346354784034308
 40
0.4245998617178935
 40
0.5019031838373769
 40
0.5799920909873476
 40
0.6584434305294311
 40
0.7386722364878342
 40
0.8218941484362439
 40
0.9088007920466151
 40
1.0
 40
1.0
 40
1.0
 40
1.0
 10
1.884615384615386
 20
-6.172175480769231
 30
0.0
 10
1.86237878937541
 20
-6.211618812044553
 30
0.0
 10
1.819115180890738
 20
-6.288359914862266
 30
0.0
 10
1.744714432999969
 20
-6.393791775334331
 30
0.0
 10
1.666722360421776
 20
-6.488639491173095
 30
0.0
 10
1.581618392418205
 20
-6.570369145456987
 30
0.0
 10
1.491948713464188
 20
-6.641620530431181
 30
0.0
 10
1.39721605867851
 20
-6.703958355150136
 30
0.0
 10
1.296927240943163
 20
-6.757076875495947
 30
0.0
 10
1.191077516164904
 20
-6.801829403368721
 30
0.0
 10
1.078777965023409
 20
-6.836238897476641
 30
0.0
 10
0.959756448613364
 20
-6.860543118397654
 30
0.0
 10
0.8337849532345768
 20
-6.875566387048087
 30
0.0
 10
0.7474387733668203
 20
-6.877311527825143
 30
0.0
 10
0.703225160256411
 20
-6.878205128205129
 30
0.0
  0
SPLINE
  5
B3
330
1F
100
AcDbEntity
  8
0
  6
Continuous
 62
     7
370
    25
100
AcDbSpline
210
0.0
220
0.0
230
1.0
 70
     8
 71
     3
 72
    23
 73
    19
 74
     0
 42
0.00000001
 43
0.00000001
 40
0.0
 40
0.0
 40
0.0
 40
0.0
 40
0.0646199913407677
 40
0.1274334841444695
 40
0.1890041265579397
 40
0.2499300706860468
 40
0.3106684537406717
 40
0.3723289611368239
 40
0.434939109997008
 40
0.4995755441940339
 40
0.5641912077719234
 40
0.6267352169294784
 40
0.6881093335614014
 40
0.749293606536751
 40
0.8103305278109453
 40
0.8719011702244156
 40
0.935045914684531
 40
1.0
 40
1.0
 40
1.0
 40
1.0
 10
3.891225961538463
 20
-6.878205128205129
 30
0.0
 10
3.846058007705926
 20
-6.876978755935976
 30
0.0
 10
3.756984802817933
 20
-6.874560295520342
 30
0.0
 10
3.625955725679019
 20
-6.855797991902067
 30
0.0
 10
3.499863476226356
 20
-6.825667370259989
 30
0.0
 10
3.378588903564568
 20
-6.783766480768222
 30
0.0
 10
3.262916758130464
 20
-6.728185659130038
 30
0.0
 10
3.151856661458154
 20
-6.661644411088619
 30
0.0
 10
3.045983969439039
 20
-6.582403581007974
 30
0.0
 10
2.946912430475186
 20
-6.491815552655081
 30
0.0
 10
2.855680430099283
 20
-6.39342056547147
 30
0.0
 10
2.775619157477099
 20
-6.288475018596342
 30
0.0
 10
2.708866077622353
 20
-6.177432714703671
 30
0.0
 10
2.653045996915081
 20
-6.061699560814962
 30
0.0
 10
2.610049652474347
 20
-5.940384641280929
 30
0.0
 10
2.580076018216426
 20
-5.813907473341146
 30
0.0
 10
2.561335571515765
 20
-5.682417599801301
 30
0.0
 10
2.55891811083081
 20
-5.59287807670569
 30
0.0
 10
2.557692307692308
 20
-5.547475961538462
 30
0.0
  0
SPLINE
  5
B4
330
1F
100
AcDbEntity
  8
0
  6
Continuous
 62
     7
370
    25
100
AcDbSpline
210
0.0
220
0.0
230
1.0
 70
     8
 71
     3
 72
    15
 73
    11
 74
     0
 42
0.00000001
 43
0.00000001
 40
0.0
 40
0.0
 40
0.0
 40
0.0
 40
0.0768750740350486
 40
0.1674616757257276
 40
0.2722700232466412
 40
0.3895508405125228
 40
0.5208013683480559
 40
0.6662632933752262
 40
0.8255449152058618
 40
1.0
 40
1.0
 40
1.0
 40
1.0
 10
2.224659455128204
 20
0.9247796474358976
 30
0.0
 10
2.216637060700815
 20
0.9338150095876603
 30
0.0
 10
2.199161388241226
 20
0.9534972915979925
 30
0.0
 10
2.167106146975663
 20
0.9819223704596166
 30
0.0
 10
2.128724284774924
 20
1.012560469612917
 30
0.0
 10
2.083584121842676
 20
1.044892058551654
 30
0.0
 10
2.031594659905104
 20
1.078490663843803
 30
0.0
 10
1.972545184515283
 20
1.113180016093333
 30
0.0
 10
1.907244631966872
 20
1.150607741881774
 30
0.0
 10
1.861074000648961
 20
1.17542739722507
 30
0.0
 10
1.836939102564102
 20
1.188401442307693
 30
0.0
  0
SPLINE
  5
B5
330
1F
100
AcDbEntity
  8
0
  6
Continuous
 62
     7
370
    25
100
AcDbSpline
210
0.0
220
0.0
230
1.0
 70
     8
 71
     3
 72
    15
 73
    11
 74
     0
 42
0.00000001
 43
0.00000001
 40
0.0
 40
0.0
 40
0.0
 40
0.0
 40
0.107285214268956
 40
0.2147458609696403
 40
0.3229385595552859
 40
0.4341161625174664
 40
0.5534123109627943
 40
0.6860729848107298
 40
0.8342559920595832
 40
1.0
 40
1.0
 40
1.0
 40
1.0
 10
-6.887820512820513
 20
2.787660256410257
 30
0.0
 10
-6.887427386185605
 20
2.768908777869796
 30
0.0
 10
-6.886640490076399
 20
2.731375158432451
 30
0.0
 10
-6.875665692390013
 20
2.675923736478497
 30
0.0
 10
-6.861566363432174
 20
2.620612397059869
 30
0.0
 10
-6.839223731678753
 20
2.565689814225701
 30
0.0
 10
-6.808378428062976
 20
2.510195455173439
 30
0.0
 10
-6.767873252156608
 20
2.453173717614888
 30
0.0
 10
-6.716859940106635
 20
2.394122008942766
 30
0.0
 10
-6.677782927755213
 20
2.35571463516786
 30
0.0
 10
-6.657151442307693
 20
2.335436698717949
 30
0.0
  0
SPLINE
  5
B6
330
1F
100
AcDbEntity
  8
0
  6
Continuous
 62
     7
370
    25
100
AcDbSpline
210
0.0
220
0.0
230
1.0
 70
     8
 71
     3
 72
    15
 73
    11
 74
     0
 42
0.00000001
 43
0.00000001
 40
0.0
 40
0.0
 40
0.0
 40
0.0
 40
0.1320402344259814
 40
0.2590328407793698
 40
0.3818798239250167
 40
0.5022584437149856
 40
0.6227521895274793
 40
0.7447426318590017
 40
0.8701089273418191
 40
1.0
 40
1.0
 40
1.0
 40
1.0
 10
-3.529447115384616
 20
2.602564102564103
 30
0.0
 10
-3.476999510080931
 20
2.601210053671601
 30
0.0
 10
-3.374109264142261
 20
2.598553718406038
 30
0.0
 10
-3.224077143105476
 20
2.573927384996976
 30
0.0
 10
-3.082116426564875
 20
2.534874830433579
 30
0.0
 10
-2.948283922256063
 20
2.479721039933041
 30
0.0
 10
-2.822566061503229
 20
2.408561488142672
 30
0.0
 10
-2.705780011928538
 20
2.32041964666172
 30
0.0
 10
-2.595928499379784
 20
2.218001559436653
 30
0.0
 10
-2.532019920527582
 20
2.139238350009363
 30
0.0
 10
-2.499499198717949
 20
2.099158653846154
 30
0.0
  0
SPLINE
  5
B7
330
1F
100
AcDbEntity
  8
0
  6
Continuous
 62
     7
370
    25
100
AcDbSpline
210
0.0
220
0.0
230
1.0
 70
     8
 71
     3
 72
    23
 73
    19
 74
     0
 42
0.00000001
 43
0.00000001
 40
0.0
 40
0.0
 40
0.0
 40
0.0
 40
0.0646199913407675
 40
0.1274334841444695
 40
0.1890041265579397
 40
0.2499300706860468
 40
0.3106684537406717
 40
0.3723289611368239
 40
0.4349391099970082
 40
0.4995755441940338
 40
0.5641912077719234
 40
0.6267352169294785
 40
0.6881093335614015
 40
0.7492936065367511
 40
0.8103305278109453
 40
0.8719011702244156
 40
0.935045914684531
 40
1.0
 40
1.0
 40
1.0
 40
1.0
 10
-4.006209935897434
 20
-6.878205128205129
 30
0.0
 10
-4.05137788972997
 20
-6.876978755935977
 30
0.0
 10
-4.140451094617964
 20
-6.874560295520342
 30
0.0
 10
-4.271480171756878
 20
-6.855797991902065
 30
0.0
 10
-4.39757242120954
 20
-6.82566737025999
 30
0.0
 10
-4.518846993871328
 20
-6.783766480768223
 30
0.0
 10
-4.634519139305434
 20
-6.728185659130038
 30
0.0
 10
-4.745579235977742
 20
-6.661644411088619
 30
0.0
 10
-4.851451927996859
 20
-6.582403581007972
 30
0.0
 10
-4.950523466960709
 20
-6.491815552655082
 30
0.0
 10
-5.041755467336615
 20
-6.393420565471471
 30
0.0
 10
-5.121816739958799
 20
-6.288475018596342
 30
0.0
 10
-5.188569819813543
 20
-6.177432714703671
 30
0.0
 10
-5.244389900520817
 20
-6.061699560814963
 30
0.0
 10
-5.287386244961549
 20
-5.940384641280927
 30
0.0
 10
-5.31735987921947
 20
-5.81390747334115
 30
0.0
 10
-5.336100325920133
 20
-5.682417599801302
 30
0.0
 10
-5.338517786605085
 20
-5.592878076705691
 30
0.0
 10
-5.339743589743589
 20
-5.547475961538462
 30
0.0
  0
SPLINE
  5
B8
330
1F
100
AcDbEntity
  8
0
  6
Continuous
 62
     7
370
    25
100
AcDbSpline
210
0.0
220
0.0
230
1.0
 70
     8
 71
     3
 72
    23
 73
    19
 74
     0
 42
0.00000001
 43
0.00000001
 40
0.0
 40
0.0
 40
0.0
 40
0.0
 40
0.063774532305632
 40
0.1260788099895055
 40
0.1869040927472072
 40
0.2475739349176193
 40
0.3080033561644467
 40
0.3691318984609777
 40
0.4320332277442044
 40
0.4967907944370909
 40
0.5616108232295652
 40
0.6249138657484623
 40
0.6867263492419247
 40
0.7480788332577711
 40
0.8095822911398955
 40
0.8716307425688271
 40
0.9348858208285536
 40
1.0
 40
1.0
 40
1.0
 40
1.0
 10
2.557692307692308
 20
-5.547475961538462
 30
0.0
 10
2.558945279077192
 20
-5.503012257969033
 30
0.0
 10
2.561422335912356
 20
-5.4151099146497
 30
0.0
 10
2.579875555752625
 20
-5.285831216663841
 30
0.0
 10
2.610906564411803
 20
-5.161312955930598
 30
0.0
 10
2.654454412077692
 20
-5.041956012706842
 30
0.0
 10
2.710296367040811
 20
-4.92761596255825
 30
0.0
 10
2.778224454061665
 20
-4.818211937543315
 30
0.0
 10
2.8582435787605
 20
-4.713442540081275
 30
0.0
 10
2.950495985776886
 20
-4.615771313262504
 30
0.0
 10
3.050430755939524
 20
-4.52555069899312
 30
0.0
 10
3.157339486854896
 20
-4.447141653550658
 30
0.0
 10
3.268562768175726
 20
-4.379424804734633
 30
0.0
 10
3.38582577869811
 20
-4.325771328428284
 30
0.0
 10
3.507392883512104
 20
-4.282362223883825
 30
0.0
 10
3.634346329259337
 20
-4.25232925578331
 30
0.0
 10
3.76615790793491
 20
-4.234631934543302
 30
0.0
 10
3.855648399999526
 20
-4.232069170392217
 30
0.0
 10
3.901041666666668
 20
-4.230769230769231
 30
0.0
  0
SPLINE
  5
B9
330
1F
100
AcDbEntity
  8
0
  6
Continuous
 62
     7
370
    25
100
AcDbSpline
210
0.0
220
0.0
230
1.0
 70
     8
 71
     3
 72
    15
 73
    11
 74
     0
 42
0.00000001
 43
0.00000001
 40
0.0
 40
0.0
 40
0.0
 40
0.0
 40
0.1589891012267957
 40
0.3071145916055726
 40
0.4462131585962148
 40
0.5748760724117281
 40
0.6941521095829565
 40
0.8045811801532384
 40
0.9065933190457638
 40
1.0
 40
1.0
 40
1.0
 40
1.0
 10
2.045172275641025
 20
1.448517628205128
 30
0.0
 10
2.072385852738115
 20
1.433272725391001
 30
0.0
 10
2.124953522797318
 20
1.403824592998902
 30
0.0
 10
2.199646290052812
 20
1.358114889489336
 30
0.0
 10
2.267433331023724
 20
1.312683465215807
 30
0.0
 10
2.328888998672396
 20
1.268016191338188
 30
0.0
 10
2.382830807514256
 20
1.22286332372139
 30
0.0
 10
2.430895360166066
 20
1.178955566747709
 30
0.0
 10
2.47188380409234
 20
1.134966258463754
 30
0.0
 10
2.494837730779759
 20
1.104233144783678
 30
0.0
 10
2.505809294871794
 20
1.089543269230769
 30
0.0
  0
SPLINE
  5
BA
330
1F
100
AcDbEntity
  8
0
  6
Continuous
 62
     7
370
    25
100
AcDbSpline
210
0.0
220
0.0
230
1.0
 70
     8
 71
     3
 72
    11
 73
     7
 74
     0
 42
0.00000001
 43
0.00000001
 40
0.0
 40
0.0
 40
0.0
 40
0.0
 40
0.2252775478670092
 40
0.4635231951764813
 40
0.7203235553269212
 40
1.0
 40
1.0
 40
1.0
 40
1.0
 10
-1.081129807692307
 20
-4.230769230769231
 30
0.0
 10
-1.059303481205618
 20
-4.231959757364149
 30
0.0
 10
-1.014394395999985
 20
-4.234409343203681
 30
0.0
 10
-0.9464118061957384
 20
-4.251620167845536
 30
0.0
 10
-0.876368354286135
 20
-4.279098190398532
 30
0.0
 10
-0.831225967035588
 20
-4.304938413063521
 30
0.0
 10
-0.8076923076923075
 20
-4.318409455128204
 30
0.0
  0
SPLINE
  5
BB
330
1F
100
AcDbEntity
  8
0
  6
Continuous
 62
     7
370
    25
100
AcDbSpline
210
0.0
220
0.0
230
1.0
 70
     8
 71
     3
 72
    15
 73
    11
 74
     0
 42
0.00000001
 43
0.00000001
 40
0.0
 40
0.0
 40
0.0
 40
0.0
 40
0.1249584925460621
 40
0.2459006286062662
 40
0.3691660295860715
 40
0.4985108411773543
 40
0.6285038663666057
 40
0.7510283288509907
 40
0.8737241742784339
 40
1.0
 40
1.0
 40
1.0
 40
1.0
 10
1.925280448717948
 20
2.288461538461539
 30
0.0
 10
1.903141058876193
 20
2.287386665483833
 30
0.0
 10
1.859573872940109
 20
2.285271467584879
 30
0.0
 10
1.797148054606453
 20
2.264158037250104
 30
0.0
 10
1.739197429588505
 20
2.231749298790171
 30
0.0
 10
1.68904044958233
 20
2.185780715234977
 30
0.0
 10
1.646552769561026
 20
2.133016446406917
 30
0.0
 10
1.615539088542732
 20
2.074020121520955
 30
0.0
 10
1.596573104913251
 20
2.010572077814638
 30
0.0
 10
1.594168372871129
 20
1.966542220146272
 30
0.0
 10
1.592948717948717
 20
1.944210737179487
 30
0.0
  0
SPLINE
  5
BC
330
1F
100
AcDbEntity
  8
0
  6
Continuous
 62
     7
370
    25
100
AcDbSpline
210
0.0
220
0.0
230
1.0
 70
     8
 71
     3
 72
    19
 73
    15
 74
     0
 42
0.00000001
 43
0.00000001
 40
0.0
 40
0.0
 40
0.0
 40
0.0
 40
0.0825922633314363
 40
0.163878894098497
 40
0.2456587396295032
 40
0.3277256953541222
 40
0.4086099609103191
 40
0.4857490859539306
 40
0.5591690561972781
 40
0.6302684758575456
 40
0.7053060284320705
 40
0.792064966096608
 40
0.8897964374100895
 40
1.0
 40
1.0
 40
1.0
 40
1.0
 10
-3.576422275641026
 20
0.2692307692307692
 30
0.0
 10
-3.545071128037008
 20
0.269838825890668
 30
0.0
 10
-3.482864437109462
 20
0.2710453269472324
 30
0.0
 10
-3.390223579766373
 20
0.2827772378582402
 30
0.0
 10
-3.299084052366851
 20
0.3017475134793218
 30
0.0
 10
-3.209823069099629
 20
0.3276375035629862
 30
0.0
 10
-3.12425222318293
 20
0.3592143556697177
 30
0.0
 10
-3.045006673121698
 20
0.397317213318795
 30
0.0
 10
-2.972126457495573
 20
0.4394669600617258
 30
0.0
 10
-2.904009490909274
 20
0.4876766351101492
 30
0.0
 10
-2.837938497557241
 20
0.5466848221131546
 30
0.0
 10
-2.772396011142501
 20
0.6203205431017323
 30
0.0
 10
-2.702119357779229
 20
0.7074080708853354
 30
0.0
 10
-2.658129765035466
 20
0.7729537368632534
 30
0.0
 10
-2.634815705128206
 20
0.8076923076923079
 30
0.0
  0
SPLINE
  5
BD
330
1F
100
AcDbEntity
  8
0
  6
Continuous
 62
     7
370
    25
100
AcDbSpline
210
0.0
220
0.0
230
1.0
 70
     8
 71
     3
 72
    15
 73
    11
 74
     0
 42
0.00000001
 43
0.00000001
 40
0.0
 40
0.0
 40
0.0
 40
0.0
 40
0.158223097556321
 40
0.3050355053581699
 40
0.4413089638879059
 40
0.565963227104724
 40
0.6835251144150605
 40
0.7933341296296
 40
0.898517512161001
 40
1.0
 40
1.0
 40
1.0
 40
1.0
 10
2.366987179487179
 20
2.01923076923077
 30
0.0
 10
2.348596675959185
 20
2.04054391556555
 30
0.0
 10
2.313141950169508
 20
2.081633152620137
 30
0.0
 10
2.256910469167079
 20
2.136570219123622
 30
0.0
 10
2.200886865592771
 20
2.182707158065969
 30
0.0
 10
2.145838052019536
 20
2.221659416975274
 30
0.0
 10
2.090379782945304
 20
2.251108563581097
 30
0.0
 10
2.035162864813036
 20
2.272603425521408
 30
0.0
 10
1.980130126298084
 20
2.285905231182125
 30
0.0
 10
1.943344091082762
 20
2.287619669876214
 30
0.0
 10
1.925280448717948
 20
2.288461538461539
 30
0.0
  0
SPLINE
  5
BE
330
1F
100
AcDbEntity
  8
0
  6
Continuous
 62
     7
370
    25
100
AcDbSpline
210
0.0
220
0.0
230
1.0
 70
     8
 71
     3
 72
    15
 73
    11
 74
     0
 42
0.00000001
 43
0.00000001
 40
0.0
 40
0.0
 40
0.0
 40
0.0
 40
0.118521840013261
 40
0.2362547631617466
 40
0.3561744339909314
 40
0.4772496548985581
 40
0.6015398708217022
 40
0.7296183821680425
 40
0.8621582661414386
 40
0.9999999999999999
 40
0.9999999999999999
 40
0.9999999999999999
 40
0.9999999999999999
 10
-2.499499198717949
 20
2.099158653846154
 30
0.0
 10
-2.47737226040546
 20
2.068955072459864
 30
0.0
 10
-2.433265667308973
 20
2.008748953771055
 30
0.0
 10
-2.378018567273841
 20
1.910577796670373
 30
0.0
 10
-2.330061172290165
 20
1.807867202320219
 30
0.0
 10
-2.291728211275397
 20
1.69895690523322
 30
0.0
 10
-2.260688710078848
 20
1.585137325060289
 30
0.0
 10
-2.238231891338662
 20
1.465594780345978
 30
0.0
 10
-2.225062272756825
 20
1.340364868985122
 30
0.0
 10
-2.22247357540839
 20
1.255038313508419
 30
0.0
 10
-2.221153846153847
 20
1.211538461538462
 30
0.0
  0
SPLINE
  5
BF
330
1F
100
AcDbEntity
  8
0
  6
Continuous
 62
     7
370
    25
100
AcDbSpline
210
0.0
220
0.0
230
1.0
 70
     8
 71
     3
 72
    15
 73
    11
 74
     0
 42
0.00000001
 43
0.00000001
 40
0.0
 40
0.0
 40
0.0
 40
0.0
 40
0.1340420464623714
 40
0.2618956736507321
 40
0.3878360446911195
 40
0.5176862058208263
 40
0.6445086536782135
 40
0.7647182630567265
 40
0.8802907821585004
 40
0.9999999999999999
 40
0.9999999999999999
 40
0.9999999999999999
 40
0.9999999999999999
 10
1.859374999999999
 20
0.2692307692307692
 30
0.0
 10
1.889692925958042
 20
0.2706015940909695
 30
0.0
 10
1.948929067542196
 20
0.2732799559161904
 30
0.0
 10
2.033772826156188
 20
0.2975970479460134
 30
0.0
 10
2.112111452606655
 20
0.3357269997710667
 30
0.0
 10
2.180134798125521
 20
0.3898116979311893
 30
0.0
 10
2.238036959193087
 20
0.4527672705308602
 30
0.0
 10
2.279965133600804
 20
0.5236813898312123
 30
0.0
 10
2.306241309061694
 20
0.6004728465204352
 30
0.0
 10
2.309327307717647
 20
0.6537051491395216
 30
0.0
 10
2.310897435897435
 20
0.680789262820513
 30
0.0
  0
SPLINE
  5
C0
330
1F
100
AcDbEntity
  8
0
  6
Continuous
 62
     7
370
    25
100
AcDbSpline
210
0.0
220
0.0
230
1.0
 70
     8
 71
     3
 72
    19
 73
    15
 74
     0
 42
0.00000001
 43
0.00000001
 40
0.0
 40
0.0
 40
0.0
 40
0.0
 40
0.0912636048966265
 40
0.1809303110850814
 40
0.2700882198317224
 40
0.3601561333877265
 40
0.4483425324981535
 40
0.5326658421383302
 40
0.6138337041070479
 40
0.6939815272835586
 40
0.7727159770890042
 40
0.8493351720622465
 40
0.9239673265752323
 40
1.0
 40
1.0
 40
1.0
 40
1.0
 10
-6.361979166666668
 20
0.2692307692307692
 30
0.0
 10
-6.331292306155175
 20
0.2700854417429853
 30
0.0
 10
-6.270455533107935
 20
0.2717798320060728
 30
0.0
 10
-6.180893290146826
 20
0.2880606340554695
 30
0.0
 10
-6.09391148788077
 20
0.3130727629689341
 30
0.0
 10
-6.011302850150229
 20
0.3488936944774186
 30
0.0
 10
-5.934207235618699
 20
0.3922321802024024
 30
0.0
 10
-5.866600540282065
 20
0.444578357709711
 30
0.0
 10
-5.808154427102588
 20
0.5031845634234037
 30
0.0
 10
-5.76034531253544
 20
0.5685672180653195
 30
0.0
 10
-5.723665277247084
 20
0.6388843666726217
 30
0.0
 10
-5.695473208833866
 20
0.711060318010911
 30
0.0
 10
-5.679828135177483
 20
0.7862288862899007
 30
0.0
 10
-5.677471381720798
 20
0.8368393491376925
 30
0.0
 10
-5.676282051282051
 20
0.8623798076923079
 30
0.0
  0
SPLINE
  5
C1
330
1F
100
AcDbEntity
  8
0
  6
Continuous
 62
     7
370
    25
100
AcDbSpline
210
0.0
220
0.0
230
1.0
 70
     8
 71
     3
 72
    15
 73
    11
 74
     0
 42
0.00000001
 43
0.00000001
 40
0.0
 40
0.0
 40
0.0
 40
0.0
 40
0.160059412485494
 40
0.3061123827401269
 40
0.4383665141302053
 40
0.560541455255218
 40
0.6753172249527023
 40
0.7861136344281775
 40
0.8928417881050882
 40
1.0
 40
1.0
 40
1.0
 40
1.0
 10
6.663461538461537
 20
2.181189903846154
 30
0.0
 10
6.686650297212838
 20
2.216245732172045
 30
0.0
 10
6.730998618151417
 20
2.283289731466621
 30
0.0
 10
6.80471154750517
 20
2.371959032458469
 30
0.0
 10
6.880214878783572
 20
2.445374079069875
 30
0.0
 10
6.95787006608612
 20
2.50387759783977
 30
0.0
 10
7.038248165996263
 20
2.547690716663605
 30
0.0
 10
7.11958511771426
 20
2.579783751695143
 30
0.0
 10
7.203160587571722
 20
2.598761066932477
 30
0.0
 10
7.259322511799606
 20
2.601294725889769
 30
0.0
 10
7.287459935897433
 20
2.602564102564103
 30
0.0
  0
SPLINE
  5
C2
330
1F
100
AcDbEntity
  8
0
  6
Continuous
 62
     7
370
    25
100
AcDbSpline
210
0.0
220
0.0
230
1.0
 70
     8
 71
     3
 72
    15
 73
    11
 74
     0
 42
0.00000001
 43
0.00000001
 40
0.0
 40
0.0
 40
0.0
 40
0.0
 40
0.17885001941116
 40
0.3421096489422994
 40
0.4898256633683922
 40
0.6232544282245643
 40
0.7400796760857923
 40
0.8414826730699855
 40
0.9289076721840651
 40
0.9999999999999999
 40
0.9999999999999999
 40
0.9999999999999999
 40
0.9999999999999999
 10
0.336538461538462
 20
1.203125
 30
0.0
 10
0.3363452535195154
 20
1.237947444928758
 30
0.0
 10
0.3359756794610262
 20
1.304556855702726
 30
0.0
 10
0.3348100327764904
 20
1.399925878893067
 30
0.0
 10
0.3320002261735239
 20
1.486412457295846
 30
0.0
 10
0.3280519132574833
 20
1.563809824701269
 30
0.0
 10
0.3222728827282302
 20
1.632043661264618
 30
0.0
 10
0.3162502513782307
 20
1.691252938003122
 30
0.0
 10
0.3088852745812863
 20
1.741362480435936
 30
0.0
 10
0.302322361444124
 20
1.771527562819067
 30
0.0
 10
0.2993790064102567
 20
1.78505608974359
 30
0.0
  0
SPLINE
  5
C3
330
1F
100
AcDbEntity
  8
0
  6
Continuous
 62
     7
370
    25
100
AcDbSpline
210
0.0
220
0.0
230
1.0
 70
     8
 71
     3
 72
    15
 73
    11
 74
     0
 42
0.00000001
 43
0.00000001
 40
0.0
 40
0.0
 40
0.0
 40
0.0
 40
0.1284975211375124
 40
0.2527129855154526
 40
0.3748191325670455
 40
0.4964364263727302
 40
0.6179105567458513
 40
0.7412876173092895
 40
0.8687004007446074
 40
1.0
 40
1.0
 40
1.0
 40
1.0
 10
3.514022435897433
 20
2.179086538461539
 30
0.0
 10
3.546471026923458
 20
2.213061477715061
 30
0.0
 10
3.610286890773322
 20
2.279879173927857
 30
0.0
 10
3.717635618501523
 20
2.365411698014809
 30
0.0
 10
3.830129439611991
 20
2.439327771875632
 30
0.0
 10
3.949854365749508
 20
2.498803987328319
 30
0.0
 10
4.075537223705278
 20
2.545642505054718
 30
0.0
 10
4.207756466233161
 20
2.578208020169583
 30
0.0
 10
4.346031981692665
 20
2.599461375138576
 30
0.0
 10
4.440591602788248
 20
2.601519552944017
 30
0.0
 10
4.488581730769228
 20
2.602564102564103
 30
0.0
  0
SPLINE
  5
C4
330
1F
100
AcDbEntity
  8
0
  6
Continuous
 62
     7
370
    25
100
AcDbSpline
210
0.0
220
0.0
230
1.0
 70
     8
 71
     3
 72
    19
 73
    15
 74
     0
 42
0.00000001
 43
0.00000001
 40
0.0
 40
0.0
 40
0.0
 40
0.0
 40
0.0938065293523325
 40
0.1913381281363393
 40
0.2951906166251709
 40
0.4103123367232986
 40
0.4719302510512784
 40
0.5364251593464326
 40
0.6031187283036314
 40
0.6741176724905978
 40
0.7493320232258877
 40
0.828283384171563
 40
0.9120398092627617
 40
1.0
 40
1.0
 40
1.0
 40
1.0
 10
7.227864583333332
 20
2.288461538461539
 30
0.0
 10
7.202658849822314
 20
2.28678150109297
 30
0.0
 10
7.151246459857565
 20
2.283354711854306
 30
0.0
 10
7.075761960447826
 20
2.256415904087324
 30
0.0
 10
7.002514754946485
 20
2.212890663974165
 30
0.0
 10
6.944343092610476
 20
2.164619552123301
 30
0.0
 10
6.899300839735652
 20
2.118071754658915
 30
0.0
 10
6.867160614204883
 20
2.077423352091926
 30
0.0
 10
6.837677867251209
 20
2.031844720563489
 30
0.0
 10
6.80950764685071
 20
1.982115036760155
 30
0.0
 10
6.783841352641562
 20
1.927385190727904
 30
0.0
 10
6.759886683437829
 20
1.868201977306005
 30
0.0
 10
6.738227820515452
 20
1.804496848536224
 30
0.0
 10
6.725877576291213
 20
1.760114328315954
 30
0.0
 10
6.719551282051281
 20
1.737379807692308
 30
0.0
  0
SPLINE
  5
C5
330
1F
100
AcDbEntity
  8
0
  6
Continuous
 62
     7
370
    25
100
AcDbSpline
210
0.0
220
0.0
230
1.0
 70
     8
 71
     3
 72
    15
 73
    11
 74
     0
 42
0.00000001
 43
0.00000001
 40
0.0
 40
0.0
 40
0.0
 40
0.0
 40
0.1317514273024049
 40
0.2583323505141585
 40
0.3821339760925443
 40
0.5038043916000854
 40
0.6246929865409323
 40
0.7468705897275777
 40
0.8715135042348163
 40
1.0
 40
1.0
 40
1.0
 40
1.0
 10
4.488581730769228
 20
2.602564102564103
 30
0.0
 10
4.536573003612486
 20
2.601542211425263
 30
0.0
 10
4.630672161182209
 20
2.599538532639605
 30
0.0
 10
4.768480047061545
 20
2.578123566986983
 30
0.0
 10
4.900025182997857
 20
2.545376202601366
 30
0.0
 10
5.025811375161379
 20
2.500104640526912
 30
0.0
 10
5.144227670614124
 20
2.439422689980249
 30
0.0
 10
5.256998914722095
 20
2.367013398854822
 30
0.0
 10
5.36381592360701
 20
2.281230805290507
 30
0.0
 10
5.427838952864207
 20
2.21487273691577
 30
0.0
 10
5.460336538461536
 20
2.181189903846154
 30
0.0
  0
SPLINE
  5
C6
330
1F
100
AcDbEntity
  8
0
  6
Continuous
 62
     7
370
    25
100
AcDbSpline
210
0.0
220
0.0
230
1.0
 70
     8
 71
     3
 72
    23
 73
    19
 74
     0
 42
0.00000001
 43
0.00000001
 40
0.0
 40
0.0
 40
0.0
 40
0.0
 40
0.0639861098164668
 40
0.126626858089477
 40
0.1889843719814868
 40
0.250230193960398
 40
0.3123511629623216
 40
0.3745736184579387
 40
0.438147530878204
 40
0.5029204126073701
 40
0.5679740951402714
 40
0.6307713337491899
 40
0.6929346089254586
 40
0.7543975343123291
 40
0.8152183520172953
 40
0.8761169254810909
 40
0.9380146047939529
 40
1.0
 40
1.0
 40
1.0
 40
1.0
 10
-0.3603766025641023
 20
2.288461538461539
 30
0.0
 10
-0.3856442861689716
 20
2.287985533797999
 30
0.0
 10
-0.435648379170734
 20
2.287043532867595
 30
0.0
 10
-0.509798351076883
 20
2.277592234844607
 30
0.0
 10
-0.5817225242548415
 20
2.262133779246247
 30
0.0
 10
-0.6521427332496189
 20
2.2412651417471
 30
0.0
 10
-0.7196505269846611
 20
2.212602872524413
 30
0.0
 10
-0.7864148181648445
 20
2.180073502299506
 30
0.0
 10
-0.849921582294672
 20
2.139525290314175
 30
0.0
 10
-0.9115249794231529
 20
2.094334668874414
 30
0.0
 10
-0.968837787076323
 20
2.044255461676825
 30
0.0
 10
-1.022166125486978
 20
1.991410951523936
 30
0.0
 10
-1.069704145738079
 20
1.935135347727851
 30
0.0
 10
-1.112772821021772
 20
1.876335400198777
 30
0.0
 10
-1.149951084399346
 20
1.814203562201677
 30
0.0
 10
-1.182404172461659
 20
1.749339255722874
 30
0.0
 10
-1.209939867253393
 20
1.681657106899009
 30
0.0
 10
-1.223622559723241
 20
1.634682045668252
 30
0.0
 10
-1.23046875
 20
1.611177884615385
 30
0.0
  0
SPLINE
  5
C7
330
1F
100
AcDbEntity
  8
0
  6
Continuous
 62
     7
370
    25
100
AcDbSpline
210
0.0
220
0.0
230
1.0
 70
     8
 71
     3
 72
    23
 73
    19
 74
     0
 42
0.00000001
 43
0.00000001
 40
0.0
 40
0.0
 40
0.0
 40
0.0
 40
0.0687422616054892
 40
0.1346351922242768
 40
0.1983241870671475
 40
0.260825012560421
 40
0.3227135881590247
 40
0.3845545346076188
 40
0.4469128577247559
 40
0.5109576325148291
 40
0.5749307010013357
 40
0.6366845377960935
 40
0.697483115294062
 40
0.7571338075238545
 40
0.8169656636752642
 40
0.8768183516571962
 40
0.9376625803840032
 40
0.9999999999999999
 40
0.9999999999999999
 40
0.9999999999999999
 40
0.9999999999999999
 10
4.488581730769228
 20
-0.0448717948717948
 30
0.0
 10
4.44084701126028
 20
-0.0436505986541027
 30
0.0
 10
4.347356151536427
 20
-0.0412588241667266
 30
0.0
 10
4.210630169613172
 20
-0.0227815414371596
 30
0.0
 10
4.080640550678303
 20
0.0079764411323115
 30
0.0
 10
3.9574119521589
 20
0.051843933862311
 30
0.0
 10
3.840267105203796
 20
0.1071384776117426
 30
0.0
 10
3.730480608254417
 20
0.1757501671899092
 30
0.0
 10
3.627280692738553
 20
0.2563103224283484
 30
0.0
 10
3.532208708322658
 20
0.3484462594782014
 30
0.0
 10
3.446210102996574
 20
0.448456215805914
 30
0.0
 10
3.370337094645353
 20
0.5536062542994388
 30
0.0
 10
3.306446768495311
 20
0.6630163477366591
 30
0.0
 10
3.254088564613198
 20
0.7768990326774191
 30
0.0
 10
3.21325675169509
 20
0.8947577644663023
 30
0.0
 10
3.184725659026765
 20
1.016952576926137
 30
0.0
 10
3.166382044460853
 20
1.142971945462813
 30
0.0
 10
3.164442875905571
 20
1.228534878409657
 30
0.0
 10
3.163461538461537
 20
1.271834935897436
 30
0.0
  0
SPLINE
  5
C8
330
1F
100
AcDbEntity
  8
0
  6
Continuous
 62
     7
370
    25
100
AcDbSpline
210
0.0
220
0.0
230
1.0
 70
     8
 71
     3
 72
    15
 73
    11
 74
     0
 42
0.00000001
 43
0.00000001
 40
0.0
 40
0.0
 40
0.0
 40
0.0
 40
0.1342983790141684
 40
0.2620849753823008
 40
0.3862699121345005
 40
0.5071645966228002
 40
0.6273002357255064
 40
0.7481449416029935
 40
0.8723701771613519
 40
1.0
 40
1.0
 40
1.0
 40
1.0
 10
-2.961538461538459
 20
-6.390925480769231
 30
0.0
 10
-2.99695725216462
 20
-6.430965074727064
 30
0.0
 10
-3.066077467445466
 20
-6.509102845814005
 30
0.0
 10
-3.181518585416939
 20
-6.611185018304755
 30
0.0
 10
-3.303886763319424
 20
-6.695563339844807
 30
0.0
 10
-3.432588084450123
 20
-6.7637132555452
 30
0.0
 10
-3.567506327794743
 20
-6.814905311882561
 30
0.0
 10
-3.708342415070995
 20
-6.851291471008356
 30
0.0
 10
-3.855153795936532
 20
-6.874685306180609
 30
0.0
 10
-3.955406150726536
 20
-6.877021328049639
 30
0.0
 10
-4.006209935897434
 20
-6.878205128205129
 30
0.0
  0
SPLINE
  5
C9
330
1F
100
AcDbEntity
  8
0
  6
Continuous
 62
     7
370
    25
100
AcDbSpline
210
0.0
220
0.0
230
1.0
 70
     8
 71
     3
 72
    15
 73
    11
 74
     0
 42
0.00000001
 43
0.00000001
 40
0.0
 40
0.0
 40
0.0
 40
0.0
 40
0.160059412485494
 40
0.3061123827401265
 40
0.4383665141302057
 40
0.5605414552552176
 40
0.6753172249527021
 40
0.7861136344281768
 40
0.8928417881050882
 40
1.0
 40
1.0
 40
1.0
 40
1.0
 10
-1.705128205128205
 20
-4.65214342948718
 30
0.0
 10
-1.681939446376903
 20
-4.617087601161288
 30
0.0
 10
-1.637591125438325
 20
-4.550043601866712
 30
0.0
 10
-1.563878196084572
 20
-4.461374300874867
 30
0.0
 10
-1.488374864806168
 20
-4.387959254263459
 30
0.0
 10
-1.410719677503623
 20
-4.329455735493562
 30
0.0
 10
-1.330341577593476
 20
-4.285642616669731
 30
0.0
 10
-1.249004625875485
 20
-4.253549581638191
 30
0.0
 10
-1.165429156018019
 20
-4.234572266400856
 30
0.0
 10
-1.109267231790136
 20
-4.232038607443565
 30
0.0
 10
-1.081129807692307
 20
-4.230769230769231
 30
0.0
  0
SPLINE
  5
CA
330
1F
100
AcDbEntity
  8
0
  6
Continuous
 62
     7
370
    25
100
AcDbSpline
210
0.0
220
0.0
230
1.0
 70
     8
 71
     3
 72
    23
 73
    19
 74
     0
 42
0.00000001
 43
0.00000001
 40
0.0
 40
0.0
 40
0.0
 40
0.0
 40
0.0683846151037681
 40
0.1344755875434512
 40
0.1983910577839562
 40
0.2607534774484868
 40
0.321829222807649
 40
0.3830372384795248
 40
0.4446531231064262
 40
0.5073980112040051
 40
0.5698252379730249
 40
0.6307776406313131
 40
0.6909286865237169
 40
0.7509451326917358
 40
0.8110494767293275
 40
0.8723308525469932
 40
0.9350040935894052
 40
0.9999999999999999
 40
0.9999999999999999
 40
0.9999999999999999
 40
0.9999999999999999
 10
-0.2692307692307684
 20
-5.621794871794872
 30
0.0
 10
-0.2676911628016162
 20
-5.655495336041986
 30
0.0
 10
-0.264663588853415
 20
-5.72176593979169
 30
0.0
 10
-0.2505484456869793
 20
-5.818736722874162
 30
0.0
 10
-0.2282996719127474
 20
-5.911110065037787
 30
0.0
 10
-0.1970306092742495
 20
-5.998193107011256
 30
0.0
 10
-0.1591637640193577
 20
-6.081123234526548
 30
0.0
 10
-0.1127780472334215
 20
-6.159285271495172
 30
0.0
 10
-0.0574384932809224
 20
-6.232323201545073
 30
0.0
 10
0.0042872061034463
 20
-6.300890339138203
 30
0.0
 10
0.0729943014390567
 20
-6.361951100305901
 30
0.0
 10
0.1452770486602485
 20
-6.416602876540177
 30
0.0
 10
0.2221706136494367
 20
-6.46240847326954
 30
0.0
 10
0.3030686971433925
 20
-6.49958836302299
 30
0.0
 10
0.3878404822875669
 20
-6.528694679082091
 30
0.0
 10
0.4765126774033075
 20
-6.548562499765014
 30
0.0
 10
0.5689107937580558
 20
-6.561869606639879
 30
0.0
 10
0.6318965277908329
 20
-6.563349271840408
 30
0.0
 10
0.6639623397435906
 20
-6.564102564102565
 30
0.0
  0
SPLINE
  5
CB
330
1F
100
AcDbEntity
  8
0
  6
Continuous
 62
     7
370
    25
100
AcDbSpline
210
0.0
220
0.0
230
1.0
 70
     8
 71
     3
 72
    23
 73
    19
 74
     0
 42
0.00000001
 43
0.00000001
 40
0.0
 40
0.0
 40
0.0
 40
0.0
 40
0.0572082694335096
 40
0.1136960596574903
 40
0.1691779164171953
 40
0.2241592165805427
 40
0.2787198783810437
 40
0.3337942174469888
 40
0.389241459340003
 40
0.4458220733936216
 40
0.5037042811090202
 40
0.5642938918193636
 40
0.6279754158952241
 40
0.6950382596840514
 40
0.765372725851013
 40
0.8396114430907355
 40
0.917537750077789
 40
1.0
 40
1.0
 40
1.0
 40
1.0
 10
-6.361979166666667
 20
-0.0897435897435897
 30
0.0
 10
-6.388414509647642
 20
-0.0892324081461782
 30
0.0
 10
-6.440952269702147
 20
-0.0882164827568836
 30
0.0
 10
-6.51866175157532
 20
-0.0792352023347084
 30
0.0
 10
-6.594801340773387
 20
-0.0665280987435309
 30
0.0
 10
-6.668415622807515
 20
-0.0463540287665913
 30
0.0
 10
-6.740453034449264
 20
-0.0218770517244958
 30
0.0
 10
-6.810600268975214
 20
0.0082612808736963
 30
0.0
 10
-6.878891322831093
 20
0.0443784823210679
 30
0.0
 10
-6.945708905699442
 20
0.085673506949716
 30
0.0
 10
-7.010883080285572
 20
0.1337312515133136
 30
0.0
 10
-7.073802548214427
 20
0.1897047479515015
 30
0.0
 10
-7.136531733727724
 20
0.2520502529427995
 30
0.0
 10
-7.197219130049302
 20
0.3224608163044987
 30
0.0
 10
-7.257092274355104
 20
0.3997988991622698
 30
0.0
 10
-7.314970683891603
 20
0.484788082559699
 30
0.0
 10
-7.372052401570633
 20
0.5769654363186739
 30
0.0
 10
-7.407867869397944
 20
0.6418305220384929
 30
0.0
 10
-7.426282051282052
 20
0.6751802884615385
 30
0.0
  0
SPLINE
  5
CC
330
1F
100
AcDbEntity
  8
0
  6
Continuous
 62
     7
370
    25
100
AcDbSpline
210
0.0
220
0.0
230
1.0
 70
     8
 71
     3
 72
    23
 73
    19
 74
     0
 42
0.00000001
 43
0.00000001
 40
0.0
 40
0.0
 40
0.0
 40
0.0
 40
0.0772404236164787
 40
0.1511781404663829
 40
0.2234879838003996
 40
0.2955426441988697
 40
0.3669762546197896
 40
0.4371305254863862
 40
0.5070436156432693
 40
0.5785597335236781
 40
0.6166135446965535
 40
0.658756236977529
 40
0.7044912261144046
 40
0.7548031149051501
 40
0.8093316253185658
 40
0.868274455472821
 40
0.932072883409294
 40
1.0
 40
1.0
 40
1.0
 40
1.0
 10
-0.3056891025641022
 20
2.602564102564103
 30
0.0
 10
-0.2583584684475533
 20
2.600818907122908
 30
0.0
 10
-0.1657210006837428
 20
2.597403138679427
 30
0.0
 10
-0.0308429393016857
 20
2.570386447568381
 30
0.0
 10
0.0951304543850938
 20
2.52424119244373
 30
0.0
 10
0.2117500101731818
 20
2.461029122040681
 30
0.0
 10
0.3168772235358231
 20
2.382422648636878
 30
0.0
 10
0.409202075011992
 20
2.290844866877723
 30
0.0
 10
0.4855653223895757
 20
2.185508783642115
 30
0.0
 10
0.5367626853892862
 20
2.087785627405512
 30
0.0
 10
0.570488333080275
 20
2.001096833132717
 30
0.0
 10
0.591720670594097
 20
1.926850083033868
 30
0.0
 10
0.6097516520534696
 20
1.844131931864793
 30
0.0
 10
0.6253834000711666
 20
1.753192342810397
 30
0.0
 10
0.6359605119386021
 20
1.653394152558038
 30
0.0
 10
0.6443028034698832
 20
1.545146460505116
 30
0.0
 10
0.6502814977581819
 20
1.428484330009535
 30
0.0
 10
0.6505187047449316
 20
1.347797702599653
 30
0.0
 10
0.6506410256410259
 20
1.306189903846154
 30
0.0
  0
SPLINE
  5
CD
330
1F
100
AcDbEntity
  8
0
  6
Continuous
 62
     7
370
    25
100
AcDbSpline
210
0.0
220
0.0
230
1.0
 70
     8
 71
     3
 72
    23
 73
    19
 74
     0
 42
0.00000001
 43
0.00000001
 40
0.0
 40
0.0
 40
0.0
 40
0.0
 40
0.0614842551968905
 40
0.1217745277022104
 40
0.1809195598139319
 40
0.2402561150782712
 40
0.3001144444023515
 40
0.3611459476126114
 40
0.4235005824125857
 40
0.4886693612807193
 40
0.5539541046535622
 40
0.6175812610152619
 40
0.6802384268167396
 40
0.7421873887724535
 40
0.8046632117692933
 40
0.8682589893126631
 40
0.9330202571803762
 40
1.0
 40
1.0
 40
1.0
 40
1.0
 10
-5.362179487179488
 20
0.8574719551282051
 30
0.0
 10
-5.362836625303446
 20
0.8260935900326147
 30
0.0
 10
-5.364138140373017
 20
0.7639462064895136
 30
0.0
 10
-5.379099054151635
 20
0.6726911296074025
 30
0.0
 10
-5.401018719314206
 20
0.584060259923446
 30
0.0
 10
-5.434055953264752
 20
0.4991491474784324
 30
0.0
 10
-5.474379111524647
 20
0.4164043847949862
 30
0.0
 10
-5.525545359390676
 20
0.3379964843840644
 30
0.0
 10
-5.584853044128365
 20
0.2621900857971177
 30
0.0
 10
-5.652886809032749
 20
0.1910065944419718
 30
0.0
 10
-5.727332711349258
 20
0.1256603984565608
 30
0.0
 10
-5.806016406012027
 20
0.0675313369840902
 30
0.0
 10
-5.889066678946183
 20
0.0190630135887724
 30
0.0
 10
-5.976032995629414
 20
-0.0204878284611621
 30
0.0
 10
-6.066935332336477
 20
-0.0514213459874122
 30
0.0
 10
-6.161743116170991
 20
-0.0738342151182841
 30
0.0
 10
-6.260612627390544
 20
-0.0875899260317857
 30
0.0
 10
-6.327813108963026
 20
-0.0890176874963867
 30
0.0
 10
-6.361979166666667
 20
-0.0897435897435897
 30
0.0
  0
SPLINE
  5
CE
330
1F
100
AcDbEntity
  8
0
  6
Continuous
 62
     7
370
    25
100
AcDbSpline
210
0.0
220
0.0
230
1.0
 70
     8
 71
     3
 72
    19
 73
    15
 74
     0
 42
0.00000001
 43
0.00000001
 40
0.0
 40
0.0
 40
0.0
 40
0.0
 40
0.0984694310255576
 40
0.1896291011376322
 40
0.2741840894379707
 40
0.3521831609671546
 40
0.4231988731834696
 40
0.4885509460005332
 40
0.548473346027938
 40
0.6014401636178724
 40
0.701198082425766
 40
0.799591802138185
 40
0.8985450984822286
 40
1.0
 40
1.0
 40
1.0
 40
1.0
 10
-5.691005608974359
 20
2.782051282051282
 30
0.0
 10
-5.708151541446674
 20
2.804139972473904
 30
0.0
 10
-5.741170598518792
 20
2.846677625698101
 30
0.0
 10
-5.791300085379306
 20
2.906248941304363
 30
0.0
 10
-5.83854873329959
 20
2.960665420836301
 30
0.0
 10
-5.885099133083804
 20
3.007930548866342
 30
0.0
 10
-5.92849276454972
 20
3.050632682204228
 30
0.0
 10
-5.970609806796678
 20
3.087192439028684
 30
0.0
 10
-6.010844158034082
 20
3.117968034458771
 30
0.0
 10
-6.061561068680123
 20
3.150811594417935
 30
0.0
 10
-6.125278787003317
 20
3.183368097972693
 30
0.0
 10
-6.205263323242633
 20
3.210917176050413
 30
0.0
 10
-6.288849598277609
 20
3.227472237969199
 30
0.0
 10
-6.345779229768298
 20
3.229661125537026
 30
0.0
 10
-6.374599358974359
 20
3.230769230769232
 30
0.0
  0
SPLINE
  5
CF
330
1F
100
AcDbEntity
  8
0
  6
Continuous
 62
     7
370
    25
100
AcDbSpline
210
0.0
220
0.0
230
1.0
 70
     8
 71
     3
 72
    11
 73
     7
 74
     0
 42
0.00000001
 43
0.00000001
 40
0.0
 40
0.0
 40
0.0
 40
0.0
 40
0.2462523706929824
 40
0.4925907964763737
 40
0.7405699911180894
 40
1.0
 40
1.0
 40
1.0
 40
1.0
 10
1.395933493589743
 20
1.537560096153846
 30
0.0
 10
1.377802893933432
 20
1.566705711189533
 30
0.0
 10
1.341535358720821
 20
1.625007126456403
 30
0.0
 10
1.306320167542717
 20
1.722317603188492
 30
0.0
 10
1.282114138665585
 20
1.824762660517808
 30
0.0
 10
1.279951748496265
 20
1.895449514863885
 30
0.0
 10
1.278846153846153
 20
1.931590544871795
 30
0.0
  0
SPLINE
  5
D0
330
1F
100
AcDbEntity
  8
0
  6
Continuous
 62
     7
370
    25
100
AcDbSpline
210
0.0
220
0.0
230
1.0
 70
     8
 71
     3
 72
    15
 73
    11
 74
     0
 42
0.00000001
 43
0.00000001
 40
0.0
 40
0.0
 40
0.0
 40
0.0
 40
0.1342983790141684
 40
0.262084975382301
 40
0.3862699121345004
 40
0.5071645966228001
 40
0.6273002357255066
 40
0.7481449416029937
 40
0.872370177161352
 40
1.0
 40
1.0
 40
1.0
 40
1.0
 10
4.935897435897438
 20
-6.390925480769231
 30
0.0
 10
4.900478645271277
 20
-6.430965074727064
 30
0.0
 10
4.831358429990432
 20
-6.509102845814007
 30
0.0
 10
4.715917312018958
 20
-6.611185018304752
 30
0.0
 10
4.593549134116474
 20
-6.695563339844813
 30
0.0
 10
4.464847812985771
 20
-6.763713255545197
 30
0.0
 10
4.329929569641158
 20
-6.814905311882562
 30
0.0
 10
4.189093482364901
 20
-6.851291471008357
 30
0.0
 10
4.042282101499366
 20
-6.874685306180609
 30
0.0
 10
3.942029746709361
 20
-6.877021328049638
 30
0.0
 10
3.891225961538463
 20
-6.878205128205129
 30
0.0
  0
SPLINE
  5
D1
330
1F
100
AcDbEntity
  8
0
  6
Continuous
 62
     7
370
    25
100
AcDbSpline
210
0.0
220
0.0
230
1.0
 70
     8
 71
     3
 72
    15
 73
    11
 74
     0
 42
0.00000001
 43
0.00000001
 40
0.0
 40
0.0
 40
0.0
 40
0.0
 40
0.143073083730364
 40
0.2759029640930105
 40
0.4023708562739973
 40
0.5284136450935951
 40
0.6503563791869512
 40
0.7658950861246941
 40
0.8807741308440215
 40
0.9999999999999999
 40
0.9999999999999999
 40
0.9999999999999999
 40
0.9999999999999999
 10
-6.374599358974359
 20
3.230769230769232
 30
0.0
 10
-6.410755881379831
 20
3.229557530817343
 30
0.0
 10
-6.480480328794171
 20
3.22722088160562
 30
0.0
 10
-6.579470564901736
 20
3.201700896313973
 30
0.0
 10
-6.668564489964987
 20
3.161519036008125
 30
0.0
 10
-6.745117055021186
 20
3.105204057912454
 30
0.0
 10
-6.80885403206423
 20
3.038483065227339
 30
0.0
 10
-6.854959490829125
 20
2.96170421015242
 30
0.0
 10
-6.882709655381176
 20
2.876921807547884
 30
0.0
 10
-6.886095935032217
 20
2.817780151216174
 30
0.0
 10
-6.887820512820514
 20
2.787660256410257
 30
0.0
  0
SPLINE
  5
D2
330
1F
100
AcDbEntity
  8
0
  6
Continuous
 62
     7
370
    25
100
AcDbSpline
210
0.0
220
0.0
230
1.0
 70
     8
 71
     3
 72
    23
 73
    19
 74
     0
 42
0.00000001
 43
0.00000001
 40
0.0
 40
0.0
 40
0.0
 40
0.0
 40
0.0679784896192552
 40
0.1330435352439081
 40
0.1965074380533953
 40
0.2586134167685751
 40
0.3197283376065483
 40
0.3808728540495677
 40
0.4426356023162053
 40
0.5050793035048786
 40
0.5678805200585766
 40
0.6288138541554884
 40
0.6889100905404405
 40
0.7487650058898476
 40
0.8093857829631184
 40
0.8708843357532264
 40
0.9340374630737026
 40
1.0
 40
1.0
 40
1.0
 40
1.0
 10
1.278846153846153
 20
1.931590544871795
 30
0.0
 10
1.279380349168562
 20
1.955215942820242
 30
0.0
 10
1.280425845098263
 20
2.001454193805376
 30
0.0
 10
1.288769896674059
 20
2.069393014108534
 30
0.0
 10
1.303961607870077
 20
2.133941167957186
 30
0.0
 10
1.323016530468937
 20
2.196068030965636
 30
0.0
 10
1.349499534912974
 20
2.254570125003379
 30
0.0
 10
1.381145440057925
 20
2.310227596033536
 30
0.0
 10
1.418332864981847
 20
2.362963514035961
 30
0.0
 10
1.46117615583001
 20
2.41196664612399
 30
0.0
 10
1.508282801073556
 20
2.45647597243117
 30
0.0
 10
1.559177570808907
 20
2.495274600402542
 30
0.0
 10
1.612715827389732
 20
2.528380955198975
 30
0.0
 10
1.669124246948774
 20
2.55614611579017
 30
0.0
 10
1.72894471991271
 20
2.577147498384962
 30
0.0
 10
1.791759106249423
 20
2.591604883453437
 30
0.0
 10
1.857440261128667
 20
2.60126008625433
 30
0.0
 10
1.902341387090171
 20
2.602123170550845
 30
0.0
 10
1.925280448717948
 20
2.602564102564103
 30
0.0
  0
SPLINE
  5
D3
330
1F
100
AcDbEntity
  8
0
  6
Continuous
 62
     7
370
    25
100
AcDbSpline
210
0.0
220
0.0
230
1.0
 70
     8
 71
     3
 72
    15
 73
    11
 74
     0
 42
0.00000001
 43
0.00000001
 40
0.0
 40
0.0
 40
0.0
 40
0.0
 40
0.1335067689985181
 40
0.2625589787303701
 40
0.3882644471488791
 40
0.5126673546814278
 40
0.6337222699657602
 40
0.7553938601370948
 40
0.8775529450912779
 40
1.0
 40
1.0
 40
1.0
 40
1.0
 10
-7.006310096153846
 20
2.240084134615385
 30
0.0
 10
-7.021782641384995
 20
2.260685171469585
 30
0.0
 10
-7.052211478100342
 20
2.30119987523929
 30
0.0
 10
-7.092377483565443
 20
2.364524733007
 30
0.0
 10
-7.126516646363823
 20
2.429347998416227
 30
0.0
 10
-7.153278978500062
 20
2.495843862980816
 30
0.0
 10
-7.175815197339635
 20
2.563078791861388
 30
0.0
 10
-7.190973128057404
 20
2.631930037561004
 30
0.0
 10
-7.200464524973188
 20
2.702088656025493
 30
0.0
 10
-7.201436511506294
 20
2.749302156648001
 30
0.0
 10
-7.201923076923078
 20
2.772936698717948
 30
0.0
  0
SPLINE
  5
D4
330
1F
100
AcDbEntity
  8
0
  6
Continuous
 62
     7
370
    25
100
AcDbSpline
210
0.0
220
0.0
230
1.0
 70
     8
 71
     3
 72
    15
 73
    11
 74
     0
 42
0.00000001
 43
0.00000001
 40
0.0
 40
0.0
 40
0.0
 40
0.0
 40
0.1281572795931867
 40
0.2538343627967352
 40
0.376505622522209
 40
0.4985336856679098
 40
0.6213677287324636
 40
0.7445647449043581
 40
0.8706337982552834
 40
1.0
 40
1.0
 40
1.0
 40
1.0
 10
5.460336538461536
 20
2.181189903846154
 30
0.0
 10
5.488318492526485
 20
2.14897591805672
 30
0.0
 10
5.543740872764507
 20
2.0851713758414
 30
0.0
 10
5.614806591553875
 20
1.981715762879015
 30
0.0
 10
5.676028151711306
 20
1.874575662287354
 30
0.0
 10
5.725091112698005
 20
1.762328335616088
 30
0.0
 10
5.763776136383218
 20
1.645953664462518
 30
0.0
 10
5.791241832638514
 20
1.525051653303734
 30
0.0
 10
5.807578767578933
 20
1.399889306140167
 30
0.0
 10
5.809781734520572
 20
1.314885468063135
 30
0.0
 10
5.810897435897433
 20
1.271834935897436
 30
0.0
  0
SPLINE
  5
D5
330
1F
100
AcDbEntity
  8
0
  6
Continuous
 62
     7
370
    25
100
AcDbSpline
210
0.0
220
0.0
230
1.0
 70
     8
 71
     3
 72
    15
 73
    11
 74
     0
 42
0.00000001
 43
0.00000001
 40
0.0
 40
0.0
 40
0.0
 40
0.0
 40
0.1320402344259818
 40
0.2590328407793698
 40
0.3818798239250168
 40
0.5022584437149856
 40
0.6227521895274792
 40
0.7447426318590017
 40
0.8701089273418192
 40
1.0
 40
1.0
 40
1.0
 40
1.0
 10
0.7109375000000009
 20
-4.230769230769231
 30
0.0
 10
0.7633851053036863
 20
-4.232123279661733
 30
0.0
 10
0.8662753512423557
 20
-4.234779614927297
 30
0.0
 10
1.01630747227914
 20
-4.259405948336356
 30
0.0
 10
1.158268188819742
 20
-4.298458502899755
 30
0.0
 10
1.292100693128554
 20
-4.353612293400293
 30
0.0
 10
1.417818553881387
 20
-4.42477184519066
 30
0.0
 10
1.53460460345608
 20
-4.512913686671617
 30
0.0
 10
1.644456116004833
 20
-4.615331773896679
 30
0.0
 10
1.708364694857034
 20
-4.69409498332397
 30
0.0
 10
1.740885416666667
 20
-4.734174679487179
 30
0.0
  0
SPLINE
  5
D6
330
1F
100
AcDbEntity
  8
0
  6
Continuous
 62
     7
370
    25
100
AcDbSpline
210
0.0
220
0.0
230
1.0
 70
     8
 71
     3
 72
    19
 73
    15
 74
     0
 42
0.00000001
 43
0.00000001
 40
0.0
 40
0.0
 40
0.0
 40
0.0
 40
0.0825922633314363
 40
0.1638788940984968
 40
0.2456587396295033
 40
0.3277256953541223
 40
0.4086099609103191
 40
0.4857490859539306
 40
0.5591690561972783
 40
0.6302684758575458
 40
0.7053060284320708
 40
0.7920649660966081
 40
0.8897964374100895
 40
1.0
 40
1.0
 40
1.0
 40
1.0
 10
0.6639623397435906
 20
-6.564102564102565
 30
0.0
 10
0.6953134873476086
 20
-6.563494507442666
 30
0.0
 10
0.7575201782751548
 20
-6.562288006386101
 30
0.0
 10
0.8501610356182439
 20
-6.550556095475095
 30
0.0
 10
0.9413005630177654
 20
-6.531585819854011
 30
0.0
 10
1.030561546284988
 20
-6.505695829770346
 30
0.0
 10
1.116132392201687
 20
-6.474118977663616
 30
0.0
 10
1.195377942262919
 20
-6.436016120014541
 30
0.0
 10
1.268258157889043
 20
-6.393866373271605
 30
0.0
 10
1.336375124475344
 20
-6.34565669822319
 30
0.0
 10
1.402446117827375
 20
-6.286648511220176
 30
0.0
 10
1.467988604242116
 20
-6.213012790231602
 30
0.0
 10
1.538265257605389
 20
-6.125925262447999
 30
0.0
 10
1.582254850349151
 20
-6.060379596470081
 30
0.0
 10
1.605568910256411
 20
-6.025641025641026
 30
0.0
  0
SPLINE
  5
D7
330
1F
100
AcDbEntity
  8
0
  6
Continuous
 62
     7
370
    25
100
AcDbSpline
210
0.0
220
0.0
230
1.0
 70
     8
 71
     3
 72
    23
 73
    19
 74
     0
 42
0.00000001
 43
0.00000001
 40
0.0
 40
0.0
 40
0.0
 40
0.0
 40
0.0651847959860722
 40
0.1282737271139274
 40
0.1902702203927575
 40
0.2517683137756831
 40
0.3127686945781242
 40
0.374793279409787
 40
0.4379695860627115
 40
0.503047399863371
 40
0.5681252136640307
 40
0.6309497487122625
 40
0.6923691093867028
 40
0.7529731677502621
 40
0.8136410669177476
 40
0.8743552086918152
 40
0.9365729684654834
 40
1.0
 40
1.0
 40
1.0
 40
1.0
 10
5.496794871794869
 20
1.269731570512821
 30
0.0
 10
5.495836601768905
 20
1.304369128224151
 30
0.0
 10
5.493950872651361
 20
1.372530553883983
 30
0.0
 10
5.479475908271324
 20
1.472793007477428
 30
0.0
 10
5.456320368607908
 20
1.569284604106975
 30
0.0
 10
5.424348751353863
 20
1.66213660738968
 30
0.0
 10
5.381694737505335
 20
1.750649111711509
 30
0.0
 10
5.329277944427647
 20
1.834678838768607
 30
0.0
 10
5.26904691902068
 20
1.916055384820964
 30
0.0
 10
5.199029798122595
 20
1.991409025608677
 30
0.0
 10
5.123726420240655
 20
2.061144062181873
 30
0.0
 10
5.043261382058386
 20
2.121773451581359
 30
0.0
 10
4.959476403475253
 20
2.17323104707682
 30
0.0
 10
4.872097820814191
 20
2.215917287649273
 30
0.0
 10
4.780645253166769
 20
2.247864627975194
 30
0.0
 10
4.685838123985928
 20
2.271241259478368
 30
0.0
 10
4.587639314046259
 20
2.285531456111195
 30
0.0
 10
4.520880270886065
 20
2.287478597572517
 30
0.0
 10
4.487179487179485
 20
2.288461538461539
 30
0.0
  0
SPLINE
  5
D8
330
1F
100
AcDbEntity
  8
0
  6
Continuous
 62
     7
370
    25
100
AcDbSpline
210
0.0
220
0.0
230
1.0
 70
     8
 71
     3
 72
    23
 73
    19
 74
     0
 42
0.00000001
 43
0.00000001
 40
0.0
 40
0.0
 40
0.0
 40
0.0
 40
0.0638458997347875
 40
0.1260436278408443
 40
0.1871653577195674
 40
0.2473992895212636
 40
0.3083800306041637
 40
0.3697796166640495
 40
0.4325839246869349
 40
0.4976407859952569
 40
0.5624011369620617
 40
0.625557103333041
 40
0.6873320046201731
 40
0.7483127457030733
 40
0.8097910391226146
 40
0.871767571972928
 40
0.9348361909503149
 40
1.0
 40
1.0
 40
1.0
 40
1.0
 10
4.487179487179485
 20
2.288461538461539
 30
0.0
 10
4.453241875857737
 20
2.287496946787269
 30
0.0
 10
4.386242747189891
 20
2.285592664217595
 30
0.0
 10
4.287623162481873
 20
2.271108759507339
 30
0.0
 10
4.192683008549542
 20
2.248161255438872
 30
0.0
 10
4.10124216441807
 20
2.215557199178999
 30
0.0
 10
4.013608992001671
 20
2.17345830026775
 30
0.0
 10
3.929699589598552
 20
2.121749940066422
 30
0.0
 10
3.84926714969057
 20
2.06111698358742
 30
0.0
 10
3.773885086329523
 20
1.991654311977377
 30
0.0
 10
3.704702774167202
 20
1.915775317437835
 30
0.0
 10
3.644224797571169
 20
1.83492695855285
 30
0.0
 10
3.592799691200198
 20
1.750420612276349
 30
0.0
 10
3.549959532262267
 20
1.662168401136387
 30
0.0
 10
3.518052344166704
 20
1.569275987233704
 30
0.0
 10
3.494879321681736
 20
1.472795356006693
 30
0.0
 10
3.480409081218835
 20
1.372529939524633
 30
0.0
 10
3.478522702631039
 20
1.304368921219113
 30
0.0
 10
3.4775641025641
 20
1.269731570512821
 30
0.0
  0
SPLINE
  5
D9
330
1F
100
AcDbEntity
  8
0
  6
Continuous
 62
     7
370
    25
100
AcDbSpline
210
0.0
220
0.0
230
1.0
 70
     8
 71
     3
 72
    19
 73
    15
 74
     0
 42
0.00000001
 43
0.00000001
 40
0.0
 40
0.0
 40
0.0
 40
0.0
 40
0.0847327446980154
 40
0.1681786536463128
 40
0.2514881976122796
 40
0.3358406713894906
 40
0.4198344941507963
 40
0.5023448759880099
 40
0.5836490197324395
 40
0.6659310052762728
 40
0.7487165252643908
 40
0.8310473361373631
 40
0.9144098067945605
 40
1.0
 40
1.0
 40
1.0
 40
1.0
 10
3.4775641025641
 20
1.269731570512821
 30
0.0
 10
3.479170926199621
 20
1.224979543352944
 30
0.0
 10
3.482360170648531
 20
1.13615513783516
 30
0.0
 10
3.508295407083581
 20
1.0053440151986
 30
0.0
 10
3.551681686965955
 20
0.8797621630798682
 30
0.0
 10
3.610268966675158
 20
0.760145777037419
 30
0.0
 10
3.683675185355731
 20
0.6494734989987245
 30
0.0
 10
3.770162252032054
 20
0.5508020146449208
 30
0.0
 10
3.868801952394972
 20
0.4656162031974648
 30
0.0
 10
3.978418452589345
 20
0.3949353576382991
 30
0.0
 10
4.096772770501068
 20
0.3387756019432148
 30
0.0
 10
4.222029091609663
 20
0.298976626226542
 30
0.0
 10
4.352669785655372
 20
0.2731049338292927
 30
0.0
 10
4.441950516804662
 20
0.2705334594744345
 30
0.0
 10
4.487179487179485
 20
0.2692307692307692
 30
0.0
  0
SPLINE
  5
DA
330
1F
100
AcDbEntity
  8
0
  6
Continuous
 62
     7
370
    25
100
AcDbSpline
210
0.0
220
0.0
230
1.0
 70
     8
 71
     3
 72
    19
 73
    15
 74
     0
 42
0.00000001
 43
0.00000001
 40
0.0
 40
0.0
 40
0.0
 40
0.0
 40
0.0856056949735266
 40
0.1689832639222343
 40
0.2509075823297903
 40
0.3337080961143223
 40
0.4160049842563385
 40
0.4976595675743795
 40
0.5798932856419647
 40
0.6639023210428562
 40
0.7484662538082589
 40
0.831790886479856
 40
0.915251908831687
 40
1.0
 40
1.0
 40
1.0
 40
1.0
 10
4.487179487179485
 20
0.2692307692307692
 30
0.0
 10
4.532405856112718
 20
0.2705410494979245
 30
0.0
 10
4.621681452088574
 20
0.2731275063483159
 30
0.0
 10
4.752140628922493
 20
0.2988463260757122
 30
0.0
 10
4.877054600791118
 20
0.3389499867801241
 30
0.0
 10
4.995285988307971
 20
0.3948721966566293
 30
0.0
 10
5.104852591741838
 20
0.4658846114263559
 30
0.0
 10
5.204201713064843
 20
0.5503209884998577
 30
0.0
 10
5.289950324198883
 20
0.6497348398523054
 30
0.0
 10
5.363283929107032
 20
0.7602923686728289
 30
0.0
 10
5.422830671817017
 20
0.879576720765881
 30
0.0
 10
5.466013873608469
 20
1.005367193073243
 30
0.0
 10
5.492011459490294
 20
1.136149234988838
 30
0.0
 10
5.495192288217212
 20
1.2249775657261
 30
0.0
 10
5.49679487179487
 20
1.269731570512821
 30
0.0
  0
SPLINE
  5
DC
330
1F
100
AcDbEntity
  8
0
  6
Continuous
 62
     7
370
    25
100
AcDbSpline
210
0.0
220
0.0
230
1.0
 70
     8
 71
     3
 72
    15
 73
    11
 74
     0
 42
0.00000001
 43
0.00000001
 40
0.0
 40
0.0
 40
0.0
 40
0.0
 40
0.1310919762569281
 40
0.2591412763281421
 40
0.3841617634834042
 40
0.5059919524977762
 40
0.6290980893898572
 40
0.7506691234237096
 40
0.8740389376151275
 40
1.0
 40
1.0
 40
1.0
 40
1.0
 10
0.7270633012820521
 20
-4.544871794871795
 30
0.0
 10
0.6957138627654865
 20
-4.545483466416882
 30
0.0
 10
0.6337426137133609
 20
-4.546692612463904
 30
0.0
 10
0.542441545520175
 20
-4.558162741796606
 30
0.0
 10
0.4547618466020052
 20
-4.577122586668486
 30
0.0
 10
0.37005655899067
 20
-4.603087543270624
 30
0.0
 10
0.2894356906185171
 20
-4.637696145773383
 30
0.0
 10
0.2112409223998102
 20
-4.678279372382873
 30
0.0
 10
0.1374605261550004
 20
-4.727820956185342
 30
0.0
 10
0.0913192306779615
 20
-4.765579811017527
 30
0.0
 10
0.0680088141025649
 20
-4.784655448717949
 30
0.0
  0
SPLINE
  5
DD
330
1F
100
AcDbEntity
  8
0
  6
Continuous
 62
     7
370
    25
100
AcDbSpline
210
0.0
220
0.0
230
1.0
 70
     8
 71
     3
 72
    15
 73
    11
 74
     0
 42
0.00000001
 43
0.00000001
 40
0.0
 40
0.0
 40
0.0
 40
0.0
 40
0.1099838451118726
 40
0.222580497363888
 40
0.3384998709624458
 40
0.4587085654776339
 40
0.5855353464579955
 40
0.7175177429458918
 40
0.8546668197510217
 40
0.9999999999999999
 40
0.9999999999999999
 40
0.9999999999999999
 40
0.9999999999999999
 10
0.0680088141025649
 20
-4.784655448717949
 30
0.0
 10
0.0513155321381968
 20
-4.799749764342405
 30
0.0
 10
0.0175323979107539
 20
-4.830296980396191
 30
0.0
 10
-0.0276081235785417
 20
-4.882926186947222
 30
0.0
 10
-0.0708285962647323
 20
-4.939677749109252
 30
0.0
 10
-0.1101622490173813
 20
-5.002722873707397
 30
0.0
 10
-0.1462398354771248
 20
-5.071343652713987
 30
0.0
 10
-0.179999812658079
 20
-5.144961287948802
 30
0.0
 10
-0.2103862247396967
 20
-5.224134418210405
 30
0.0
 10
-0.2274823347731742
 20
-5.279306857438687
 30
0.0
 10
-0.2362780448717941
 20
-5.307692307692308
 30
0.0
  0
SPLINE
  5
DE
330
1F
100
AcDbEntity
  8
0
  6
Continuous
 62
     7
370
    25
100
AcDbSpline
210
0.0
220
0.0
230
1.0
 70
     8
 71
     3
 72
    19
 73
    15
 74
     0
 42
0.00000001
 43
0.00000001
 40
0.0
 40
0.0
 40
0.0
 40
0.0
 40
0.0962401251801512
 40
0.1852312611287014
 40
0.2675005230774398
 40
0.3444003817777773
 40
0.4195948685557305
 40
0.4968906265927781
 40
0.5766379188385163
 40
0.6602678524196387
 40
0.7453866150876287
 40
0.8300403273864528
 40
0.9144742116388023
 40
1.0
 40
1.0
 40
1.0
 40
1.0
 10
1.705128205128206
 20
-5.307692307692308
 30
0.0
 10
1.693631580574665
 20
-5.266029433967794
 30
0.0
 10
1.671504279090079
 20
-5.185841813390704
 30
0.0
 10
1.625267914643654
 20
-5.074800922946726
 30
0.0
 10
1.573196373947486
 20
-4.97611302193711
 30
0.0
 10
1.511574642572677
 20
-4.890533388881026
 30
0.0
 10
1.441755916946034
 20
-4.814529875898893
 30
0.0
 10
1.361110734298111
 20
-4.748111290731121
 30
0.0
 10
1.270674840804991
 20
-4.688693839663679
 30
0.0
 10
1.170915700127178
 20
-4.63854134019683
 30
0.0
 10
1.06527391505126
 20
-4.595851481474461
 30
0.0
 10
0.9546677230797479
 20
-4.56722636572483
 30
0.0
 10
0.8418099352089409
 20
-4.547616823425182
 30
0.0
 10
0.76547564886124
 20
-4.545790714994321
 30
0.0
 10
0.7270633012820522
 20
-4.544871794871796
 30
0.0
  0
SPLINE
  5
E0
330
1F
100
AcDbEntity
  8
0
  6
Continuous
 62
     7
370
    25
100
AcDbSpline
210
0.0
220
0.0
230
1.0
 70
     8
 71
     3
 72
    15
 73
    11
 74
     0
 42
0.00000001
 43
0.00000001
 40
0.0
 40
0.0
 40
0.0
 40
0.0
 40
0.1310919762569275
 40
0.2591412763281421
 40
0.3841617634834036
 40
0.5059919524977758
 40
0.6290980893898565
 40
0.7506691234237094
 40
0.874038937615128
 40
1.0
 40
1.0
 40
1.0
 40
1.0
 10
-3.513321314102565
 20
2.288461538461539
 30
0.0
 10
-3.54467075261913
 20
2.287849866916451
 30
0.0
 10
-3.606642001671256
 20
2.286640720869427
 30
0.0
 10
-3.697943069864441
 20
2.275170591536729
 30
0.0
 10
-3.785622768782611
 20
2.256210746664847
 30
0.0
 10
-3.870328056393947
 20
2.23024579006271
 30
0.0
 10
-3.9509489247661
 20
2.195637187559952
 30
0.0
 10
-4.029143692984808
 20
2.155053960950462
 30
0.0
 10
-4.102924089229615
 20
2.105512377147991
 30
0.0
 10
-4.149065384706655
 20
2.067753522315807
 30
0.0
 10
-4.172375801282052
 20
2.048677884615385
 30
0.0
  0
SPLINE
  5
E1
330
1F
100
AcDbEntity
  8
0
  6
Continuous
 62
     7
370
    25
100
AcDbSpline
210
0.0
220
0.0
230
1.0
 70
     8
 71
     3
 72
    19
 73
    15
 74
     0
 42
0.00000001
 43
0.00000001
 40
0.0
 40
0.0
 40
0.0
 40
0.0
 40
0.0962401251801506
 40
0.1852312611287011
 40
0.2675005230774393
 40
0.344400381777777
 40
0.4195948685557304
 40
0.4968906265927776
 40
0.5766379188385161
 40
0.6602678524196384
 40
0.7453866150876287
 40
0.8300403273864527
 40
0.9144742116388023
 40
1.0
 40
1.0
 40
1.0
 40
1.0
 10
-2.535256410256411
 20
1.525641025641026
 30
0.0
 10
-2.546753034809952
 20
1.56730389936554
 30
0.0
 10
-2.568880336294539
 20
1.647491519942631
 30
0.0
 10
-2.615116700740963
 20
1.758532410386607
 30
0.0
 10
-2.667188241437131
 20
1.857220311396224
 30
0.0
 10
-2.72880997281194
 20
1.942799944452309
 30
0.0
 10
-2.798628698438582
 20
2.018803457434442
 30
0.0
 10
-2.879273881086506
 20
2.085222042602211
 30
0.0
 10
-2.969709774579625
 20
2.144639493669655
 30
0.0
 10
-3.06946891525744
 20
2.194791993136505
 30
0.0
 10
-3.175110700333356
 20
2.237481851858874
 30
0.0
 10
-3.285716892304869
 20
2.266106967608505
 30
0.0
 10
-3.398574680175676
 20
2.285716509908152
 30
0.0
 10
-3.474908966523377
 20
2.287542618339013
 30
0.0
 10
-3.513321314102565
 20
2.288461538461539
 30
0.0
  0
SPLINE
  5
E2
330
1F
100
AcDbEntity
  8
0
  6
Continuous
 62
     7
370
    25
100
AcDbSpline
210
0.0
220
0.0
230
1.0
 70
     8
 71
     3
 72
    15
 73
    11
 74
     0
 42
0.00000001
 43
0.00000001
 40
0.0
 40
0.0
 40
0.0
 40
0.0
 40
0.1099838451118726
 40
0.2225804973638884
 40
0.3384998709624459
 40
0.4587085654776333
 40
0.5855353464579961
 40
0.717517742945892
 40
0.854666819751022
 40
0.9999999999999999
 40
0.9999999999999999
 40
0.9999999999999999
 40
0.9999999999999999
 10
-4.172375801282052
 20
2.048677884615385
 30
0.0
 10
-4.189069083246419
 20
2.03358356899093
 30
0.0
 10
-4.222852217473861
 20
2.003036352937141
 30
0.0
 10
-4.267992738963161
 20
1.950407146386112
 30
0.0
 10
-4.311213211649347
 20
1.89365558422408
 30
0.0
 10
-4.350546864401999
 20
1.83061045962594
 30
0.0
 10
-4.386624450861742
 20
1.761989680619345
 30
0.0
 10
-4.420384428042695
 20
1.688372045384534
 30
0.0
 10
-4.450770840124314
 20
1.609198915122927
 30
0.0
 10
-4.467866950157791
 20
1.554026475894646
 30
0.0
 10
-4.476662660256411
 20
1.525641025641026
 30
0.0
  0
SPLINE
  5
E3
330
1F
100
AcDbEntity
  8
0
  6
Continuous
 62
     7
370
    25
100
AcDbSpline
210
0.0
220
0.0
230
1.0
 70
     8
 71
     3
 72
    19
 73
    15
 74
     0
 42
0.00000001
 43
0.00000001
 40
0.0
 40
0.0
 40
0.0
 40
0.0
 40
0.0848023883688276
 40
0.1686635395998413
 40
0.2525519243727819
 40
0.3382396894642447
 40
0.4231026613931555
 40
0.5055560510576226
 40
0.5861756559890526
 40
0.6671357203303607
 40
0.748499180305534
 40
0.8304523987582794
 40
0.9134557062010135
 40
1.0
 40
1.0
 40
1.0
 40
1.0
 10
3.902443910256411
 20
-6.564102564102565
 30
0.0
 10
3.947890413018581
 20
-6.562442600176761
 30
0.0
 10
4.038278999540032
 20
-6.559141096566785
 30
0.0
 10
4.171717707420044
 20
-6.533859831273553
 30
0.0
 10
4.301212670217909
 20
-6.492091032923494
 30
0.0
 10
4.424999898596266
 20
-6.434191906189508
 30
0.0
 10
4.540316029744108
 20
-6.362434550292434
 30
0.0
 10
4.643813907360553
 20
-6.278427459261548
 30
0.0
 10
4.731329875734021
 20
-6.180724275139545
 30
0.0
 10
4.805522485312247
 20
-6.073347822094539
 30
0.0
 10
4.863697902010868
 20
-5.955635825633669
 30
0.0
 10
4.90607396120793
 20
-5.830301634887757
 30
0.0
 10
4.931127866984244
 20
-5.697340886742721
 30
0.0
 10
4.934285596626803
 20
-5.6064769597841
 30
0.0
 10
4.935897435897438
 20
-5.560096153846154
 30
0.0
  0
SPLINE
  5
E4
330
1F
100
AcDbEntity
  8
0
  6
Continuous
 62
     7
370
    25
100
AcDbSpline
210
0.0
220
0.0
230
1.0
 70
     8
 71
     3
 72
    19
 73
    15
 74
     0
 42
0.00000001
 43
0.00000001
 40
0.0
 40
0.0
 40
0.0
 40
0.0
 40
0.0859205174117674
 40
0.1695934351247434
 40
0.2524755148685386
 40
0.3362444769570506
 40
0.4195045210415722
 40
0.5020359066440894
 40
0.5847746476768716
 40
0.6698464747058008
 40
0.7541848663887865
 40
0.8366582383293271
 40
0.9180097257088053
 40
1.0
 40
1.0
 40
1.0
 40
1.0
 10
3.905248397435899
 20
-4.544871794871795
 30
0.0
 10
3.859334059563842
 20
-4.546505432602348
 30
0.0
 10
3.768706459593945
 20
-4.549729973641201
 30
0.0
 10
3.635662457531517
 20
-4.574903468825767
 30
0.0
 10
3.508349043443482
 20
-4.616788063189522
 30
0.0
 10
3.387402969174912
 20
-4.674069964357882
 30
0.0
 10
3.274734752552314
 20
-4.746098700974937
 30
0.0
 10
3.174041081722987
 20
-4.833220084266768
 30
0.0
 10
3.084498380367052
 20
-4.93305709842142
 30
0.0
 10
3.009190116134286
 20
-5.045159208811598
 30
0.0
 10
2.947799619214605
 20
-5.165337299880226
 30
0.0
 10
2.904632587277867
 20
-5.290961737981299
 30
0.0
 10
2.876163339868711
 20
-5.419766715537986
 30
0.0
 10
2.873254819307239
 20
-5.507129401315733
 30
0.0
 10
2.871794871794873
 20
-5.550981570512822
 30
0.0
  0
SPLINE
  5
E5
330
1F
100
AcDbEntity
  8
0
  6
Continuous
 62
     7
370
    25
100
AcDbSpline
210
0.0
220
0.0
230
1.0
 70
     8
 71
     3
 72
    19
 73
    15
 74
     0
 42
0.00000001
 43
0.00000001
 40
0.0
 40
0.0
 40
0.0
 40
0.0
 40
0.0815893489321834
 40
0.1628588951679347
 40
0.2454836892755789
 40
0.330807139158011
 40
0.4164933737762844
 40
0.4998932031606321
 40
0.5830481559950209
 40
0.6671578520621574
 40
0.7513119292929143
 40
0.8337847893576151
 40
0.91625648854398
 40
0.9999999999999999
 40
0.9999999999999999
 40
0.9999999999999999
 40
0.9999999999999999
 10
2.871794871794873
 20
-5.550981570512821
 30
0.0
 10
2.873659765104643
 20
-5.594571677696822
 30
0.0
 10
2.877382241972153
 20
-5.681581033564324
 30
0.0
 10
2.904132936370135
 20
-5.810561610332686
 30
0.0
 10
2.949012809803685
 20
-5.936215652394011
 30
0.0
 10
3.010254872531728
 20
-6.057476645913697
 30
0.0
 10
3.086941497260433
 20
-6.17006074627739
 30
0.0
 10
3.175830149812662
 20
-6.271800868838954
 30
0.0
 10
3.277780431125531
 20
-6.359290457111761
 30
0.0
 10
3.390707938199613
 20
-6.432528030717254
 30
0.0
 10
3.511315908599959
 20
-6.491690551612685
 30
0.0
 10
3.638149840072821
 20
-6.532856191119659
 30
0.0
 10
3.768825478229312
 20
-6.559433971739835
 30
0.0
 10
3.857677812081244
 20
-6.56253844857689
 30
0.0
 10
3.902443910256412
 20
-6.564102564102566
 30
0.0
  0
SPLINE
  5
E6
330
1F
100
AcDbEntity
  8
0
  6
Continuous
 62
     7
370
    25
100
AcDbSpline
210
0.0
220
0.0
230
1.0
 70
     8
 71
     3
 72
    23
 73
    19
 74
     0
 42
0.00000001
 43
0.00000001
 40
0.0
 40
0.0
 40
0.0
 40
0.0
 40
0.0656337996756901
 40
0.129188088057129
 40
0.191218683112189
 40
0.2519128178811572
 40
0.3125074743865508
 40
0.3734944337751983
 40
0.43515159965405
 40
0.4987414744066492
 40
0.5620952169966308
 40
0.6241865668116553
 40
0.6854757184651953
 40
0.7460968148060529
 40
0.8076116364477852
 40
0.8699665806571899
 40
0.9339510189149071
 40
1.0
 40
1.0
 40
1.0
 40
1.0
 10
4.935897435897438
 20
-5.560096153846154
 30
0.0
 10
4.934937779525847
 20
-5.524758323338397
 30
0.0
 10
4.933048872096291
 20
-5.455202289984521
 30
0.0
 10
4.918618302565646
 20
-5.353074772412491
 30
0.0
 10
4.89566337615372
 20
-5.25534104639217
 30
0.0
 10
4.863317206137249
 20
-5.16189835733357
 30
0.0
 10
4.820825921721693
 20
-5.07326334193433
 30
0.0
 10
4.769578155835293
 20
-4.98879958172401
 30
0.0
 10
4.708672706101703
 20
-4.908946370334331
 30
0.0
 10
4.639090010001732
 20
-4.834803299355858
 30
0.0
 10
4.562924807456264
 20
-4.767176837096637
 30
0.0
 10
4.482330266824187
 20
-4.706812596384875
 30
0.0
 10
4.396351519866754
 20
-4.65722382364502
 30
0.0
 10
4.306434482949005
 20
-4.616182552147375
 30
0.0
 10
4.212423148486952
 20
-4.583523402249774
 30
0.0
 10
4.113552528668402
 20
-4.561735708481707
 30
0.0
 10
4.010873541741347
 20
-4.546775387446307
 30
0.0
 10
3.940827486345033
 20
-4.545513006677002
 30
0.0
 10
3.905248397435899
 20
-4.544871794871795
 30
0.0
  0
SPLINE
  5
E7
330
1F
100
AcDbEntity
  8
0
  6
Continuous
 62
     7
370
    25
100
AcDbSpline
210
0.0
220
0.0
230
1.0
 70
     8
 71
     3
 72
    19
 73
    15
 74
     0
 42
0.00000001
 43
0.00000001
 40
0.0
 40
0.0
 40
0.0
 40
0.0
 40
0.0859205174117671
 40
0.1695934351247434
 40
0.2524755148685386
 40
0.3362444769570505
 40
0.4195045210415721
 40
0.5020359066440895
 40
0.5847746476768715
 40
0.6698464747058006
 40
0.7541848663887865
 40
0.8366582383293271
 40
0.9180097257088052
 40
1.0
 40
1.0
 40
1.0
 40
1.0
 10
-3.992187499999998
 20
-4.544871794871795
 30
0.0
 10
-4.038101837872055
 20
-4.546505432602348
 30
0.0
 10
-4.12872943784195
 20
-4.549729973641201
 30
0.0
 10
-4.26177343990438
 20
-4.574903468825766
 30
0.0
 10
-4.389086853992415
 20
-4.616788063189521
 30
0.0
 10
-4.510032928260985
 20
-4.674069964357883
 30
0.0
 10
-4.622701144883584
 20
-4.746098700974937
 30
0.0
 10
-4.723394815712909
 20
-4.833220084266769
 30
0.0
 10
-4.812937517068847
 20
-4.93305709842142
 30
0.0
 10
-4.888245781301609
 20
-5.0451592088116
 30
0.0
 10
-4.949636278221296
 20
-5.165337299880227
 30
0.0
 10
-4.992803310158028
 20
-5.290961737981299
 30
0.0
 10
-5.021272557567187
 20
-5.419766715537986
 30
0.0
 10
-5.024181078128657
 20
-5.507129401315732
 30
0.0
 10
-5.025641025641024
 20
-5.550981570512821
 30
0.0
  0
SPLINE
  5
E8
330
1F
100
AcDbEntity
  8
0
  6
Continuous
 62
     7
370
    25
100
AcDbSpline
210
0.0
220
0.0
230
1.0
 70
     8
 71
     3
 72
    19
 73
    15
 74
     0
 42
0.00000001
 43
0.00000001
 40
0.0
 40
0.0
 40
0.0
 40
0.0
 40
0.0815893489321834
 40
0.1628588951679347
 40
0.2454836892755788
 40
0.3308071391580111
 40
0.4164933737762846
 40
0.4998932031606321
 40
0.5830481559950209
 40
0.6671578520621574
 40
0.7513119292929146
 40
0.8337847893576151
 40
0.91625648854398
 40
0.9999999999999999
 40
0.9999999999999999
 40
0.9999999999999999
 40
0.9999999999999999
 10
-5.025641025641024
 20
-5.550981570512821
 30
0.0
 10
-5.023776132331253
 20
-5.594571677696822
 30
0.0
 10
-5.020053655463744
 20
-5.681581033564324
 30
0.0
 10
-4.99330296106576
 20
-5.810561610332686
 30
0.0
 10
-4.948423087632214
 20
-5.936215652394012
 30
0.0
 10
-4.887181024904169
 20
-6.057476645913696
 30
0.0
 10
-4.810494400175464
 20
-6.170060746277388
 30
0.0
 10
-4.721605747623236
 20
-6.271800868838955
 30
0.0
 10
-4.619655466310364
 20
-6.359290457111761
 30
0.0
 10
-4.506727959236286
 20
-6.432528030717255
 30
0.0
 10
-4.386119988835935
 20
-6.491690551612685
 30
0.0
 10
-4.259286057363078
 20
-6.532856191119659
 30
0.0
 10
-4.128610419206583
 20
-6.559433971739835
 30
0.0
 10
-4.039758085354655
 20
-6.56253844857689
 30
0.0
 10
-3.994991987179486
 20
-6.564102564102566
 30
0.0
  0
SPLINE
  5
E9
330
1F
100
AcDbEntity
  8
0
  6
Continuous
 62
     7
370
    25
100
AcDbSpline
210
0.0
220
0.0
230
1.0
 70
     8
 71
     3
 72
    23
 73
    19
 74
     0
 42
0.00000001
 43
0.00000001
 40
0.0
 40
0.0
 40
0.0
 40
0.0
 40
0.0656337996756901
 40
0.1291880880571289
 40
0.1912186831121889
 40
0.2519128178811573
 40
0.3125074743865507
 40
0.3734944337751982
 40
0.4351515996540498
 40
0.4987414744066492
 40
0.562095216996631
 40
0.6241865668116554
 40
0.6854757184651953
 40
0.7460968148060529
 40
0.807611636447785
 40
0.8699665806571896
 40
0.9339510189149071
 40
1.0
 40
1.0
 40
1.0
 40
1.0
 10
-2.961538461538459
 20
-5.560096153846154
 30
0.0
 10
-2.962498117910049
 20
-5.524758323338396
 30
0.0
 10
-2.964387025339608
 20
-5.45520228998452
 30
0.0
 10
-2.978817594870251
 20
-5.353074772412488
 30
0.0
 10
-3.001772521282176
 20
-5.255341046392171
 30
0.0
 10
-3.034118691298648
 20
-5.161898357333568
 30
0.0
 10
-3.076609975714206
 20
-5.073263341934328
 30
0.0
 10
-3.127857741600602
 20
-4.988799581724011
 30
0.0
 10
-3.188763191334193
 20
-4.908946370334331
 30
0.0
 10
-3.258345887434164
 20
-4.83480329935586
 30
0.0
 10
-3.334511089979632
 20
-4.767176837096637
 30
0.0
 10
-3.415105630611711
 20
-4.706812596384877
 30
0.0
 10
-3.501084377569144
 20
-4.657223823645017
 30
0.0
 10
-3.591001414486891
 20
-4.616182552147375
 30
0.0
 10
-3.685012748948947
 20
-4.583523402249774
 30
0.0
 10
-3.783883368767494
 20
-4.561735708481706
 30
0.0
 10
-3.886562355694552
 20
-4.546775387446308
 30
0.0
 10
-3.956608411090865
 20
-4.545513006677002
 30
0.0
 10
-3.992187499999998
 20
-4.544871794871795
 30
0.0
  0
SPLINE
  5
EA
330
1F
100
AcDbEntity
  8
0
  6
Continuous
 62
     7
370
    25
100
AcDbSpline
210
0.0
220
0.0
230
1.0
 70
     8
 71
     3
 72
    19
 73
    15
 74
     0
 42
0.00000001
 43
0.00000001
 40
0.0
 40
0.0
 40
0.0
 40
0.0
 40
0.0848023883688276
 40
0.1686635395998413
 40
0.2525519243727822
 40
0.3382396894642448
 40
0.4231026613931556
 40
0.5055560510576225
 40
0.5861756559890525
 40
0.6671357203303607
 40
0.7484991803055339
 40
0.8304523987582794
 40
0.9134557062010136
 40
1.0
 40
1.0
 40
1.0
 40
1.0
 10
-3.994991987179485
 20
-6.564102564102565
 30
0.0
 10
-3.949545484417317
 20
-6.562442600176761
 30
0.0
 10
-3.859156897895865
 20
-6.559141096566784
 30
0.0
 10
-3.725718190015853
 20
-6.533859831273555
 30
0.0
 10
-3.596223227217987
 20
-6.492091032923494
 30
0.0
 10
-3.472435998839631
 20
-6.434191906189508
 30
0.0
 10
-3.357119867691789
 20
-6.362434550292433
 30
0.0
 10
-3.253621990075345
 20
-6.278427459261548
 30
0.0
 10
-3.166106021701877
 20
-6.180724275139546
 30
0.0
 10
-3.09191341212365
 20
-6.073347822094536
 30
0.0
 10
-3.033737995425029
 20
-5.955635825633671
 30
0.0
 10
-2.991361936227967
 20
-5.830301634887758
 30
0.0
 10
-2.966308030451652
 20
-5.697340886742719
 30
0.0
 10
-2.963150300809094
 20
-5.6064769597841
 30
0.0
 10
-2.961538461538459
 20
-5.560096153846154
 30
0.0
  0
CIRCLE
  5
ED
330
1F
100
AcDbEntity
  8
0
  6
Continuous
 62
     7
370
    25
100
AcDbCircle
 10
14.351
 20
-8.382
 30
0.0
 40
1.199999999999985
  0
CIRCLE
  5
EE
330
1F
100
AcDbEntity
  8
0
  6
Continuous
 62
     7
370
    25
100
AcDbCircle
 10
-17.145
 20
9.779
 30
0.0
 40
1.199999999999985
  0
LINE
  5
EF
330
1F
100
AcDbEntity
  8
0
  6
Continuous
 62
     7
370
    25
100
AcDbLine
 10
-5.4070512821
 20
2.9972956731
 30
0.0
 11
-5.691005609
 21
2.7820512821
 31
0.0
  0
LINE
  5
F0
330
1F
100
AcDbEntity
  8
0
  6
Continuous
 62
     7
370
    25
100
AcDbLine
 10
-7.4262820513
 20
0.6751802885
 30
0.0
 11
-7.1304086538
 21
0.8525641026
 31
0.0
  0
LINE
  5
F1
330
1F
100
AcDbEntity
  8
0
  6
Continuous
 62
     7
370
    25
100
AcDbLine
 10
5.25
 20
-6.8333333333
 30
0.0
 11
4.9358974359
 21
-6.8333333333
 31
0.0
  0
LINE
  5
F2
330
1F
100
AcDbEntity
  8
0
  6
Continuous
 62
     7
370
    25
100
AcDbLine
 10
5.25
 20
-4.2756410256
 30
0.0
 11
5.25
 21
-6.8333333333
 31
0.0
  0
LINE
  5
F3
330
1F
100
AcDbEntity
  8
0
  6
Continuous
 62
     7
370
    25
100
AcDbLine
 10
4.9358974359
 20
-4.2756410256
 30
0.0
 11
5.25
 21
-4.2756410256
 31
0.0
  0
LINE
  5
F4
330
1F
100
AcDbEntity
  8
0
  6
Continuous
 62
     7
370
    25
100
AcDbLine
 10
4.9358974359
 20
-4.7488982372
 30
0.0
 11
4.9358974359
 21
-4.2756410256
 31
0.0
  0
LINE
  5
F5
330
1F
100
AcDbEntity
  8
0
  6
Continuous
 62
     7
370
    25
100
AcDbLine
 10
0.3365384615
 20
0.0
 30
0.0
 11
0.3365384615
 21
1.203125
 31
0.0
  0
LINE
  5
F6
330
1F
100
AcDbEntity
  8
0
  6
Continuous
 62
     7
370
    25
100
AcDbLine
 10
-1.2788461538
 20
2.5576923077
 30
0.0
 11
-1.2788461538
 21
2.0963541667
 31
0.0
  0
LINE
  5
F7
330
1F
100
AcDbEntity
  8
0
  6
Continuous
 62
     7
370
    25
100
AcDbLine
 10
-1.5929487179
 20
2.5576923077
 30
0.0
 11
-1.2788461538
 21
2.5576923077
 31
0.0
  0
LINE
  5
F8
330
1F
100
AcDbEntity
  8
0
  6
Continuous
 62
     7
370
    25
100
AcDbLine
 10
-1.5929487179
 20
0.0
 30
0.0
 11
-1.5929487179
 21
2.5576923077
 31
0.0
  0
LINE
  5
F9
330
1F
100
AcDbEntity
  8
0
  6
Continuous
 62
     7
370
    25
100
AcDbLine
 10
-1.2788461538
 20
0.0
 30
0.0
 11
-1.5929487179
 21
0.0
 31
0.0
  0
LINE
  5
FA
330
1F
100
AcDbEntity
  8
0
  6
Continuous
 62
     7
370
    25
100
AcDbLine
 10
2.5801282051
 20
2.238681891
 30
0.0
 11
2.3669871795
 21
2.0192307692
 31
0.0
  0
LINE
  5
FB
330
1F
100
AcDbEntity
  8
0
  6
Continuous
 62
     7
370
    25
100
AcDbLine
 10
-1.7051282051
 20
-5.9737580128
 30
0.0
 11
-1.7051282051
 21
-6.8333333333
 31
0.0
  0
LINE
  5
FC
330
1F
100
AcDbEntity
  8
0
  6
Continuous
 62
     7
370
    25
100
AcDbLine
 10
-0.8076923077
 20
-4.3184094551
 30
0.0
 11
-0.9801682692
 21
-4.5904447115
 31
0.0
  0
LINE
  5
FD
330
1F
100
AcDbEntity
  8
0
  6
Continuous
 62
     7
370
    25
100
AcDbLine
 10
-1.7051282051
 20
-4.2756410256
 30
0.0
 11
-1.7051282051
 21
-4.6521434295
 31
0.0
  0
LINE
  5
FE
330
1F
100
AcDbEntity
  8
0
  6
Continuous
 62
     7
370
    25
100
AcDbLine
 10
-2.0192307692
 20
-4.2756410256
 30
0.0
 11
-1.7051282051
 21
-4.2756410256
 31
0.0
  0
LINE
  5
FF
330
1F
100
AcDbEntity
  8
0
  6
Continuous
 62
     7
370
    25
100
AcDbLine
 10
-2.0192307692
 20
-6.8333333333
 30
0.0
 11
-2.0192307692
 21
-4.2756410256
 31
0.0
  0
LINE
  5
100
330
1F
100
AcDbEntity
  8
0
  6
Continuous
 62
     7
370
    25
100
AcDbLine
 10
-1.7051282051
 20
-6.8333333333
 30
0.0
 11
-2.0192307692
 21
-6.8333333333
 31
0.0
  0
LINE
  5
101
330
1F
100
AcDbEntity
  8
0
  6
Continuous
 62
     7
370
    25
100
AcDbLine
 10
-2.9615384615
 20
-6.8333333333
 30
0.0
 11
-2.9615384615
 21
-6.3909254808
 31
0.0
  0
LINE
  5
102
330
1F
100
AcDbEntity
  8
0
  6
Continuous
 62
     7
370
    25
100
AcDbLine
 10
-2.6474358974
 20
-6.8333333333
 30
0.0
 11
-2.9615384615
 21
-6.8333333333
 31
0.0
  0
LINE
  5
103
330
1F
100
AcDbEntity
  8
0
  6
Continuous
 62
     7
370
    25
100
AcDbLine
 10
-2.6474358974
 20
-4.2756410256
 30
0.0
 11
-2.6474358974
 21
-6.8333333333
 31
0.0
  0
LINE
  5
104
330
1F
100
AcDbEntity
  8
0
  6
Continuous
 62
     7
370
    25
100
AcDbLine
 10
-2.9615384615
 20
-4.2756410256
 30
0.0
 11
-2.6474358974
 21
-4.2756410256
 31
0.0
  0
LINE
  5
105
330
1F
100
AcDbEntity
  8
0
  6
Continuous
 62
     7
370
    25
100
AcDbLine
 10
6.6634615385
 20
0.8595753205
 30
0.0
 11
6.6634615385
 21
0.0
 31
0.0
  0
LINE
  5
106
330
1F
100
AcDbEntity
  8
0
  6
Continuous
 62
     7
370
    25
100
AcDbLine
 10
7.5608974359
 20
2.5149238782
 30
0.0
 11
7.3884214744
 21
2.2428886218
 31
0.0
  0
LINE
  5
107
330
1F
100
AcDbEntity
  8
0
  6
Continuous
 62
     7
370
    25
100
AcDbLine
 10
6.6634615385
 20
2.5576923077
 30
0.0
 11
6.6634615385
 21
2.1811899038
 31
0.0
  0
LINE
  5
108
330
1F
100
AcDbEntity
  8
0
  6
Continuous
 62
     7
370
    25
100
AcDbLine
 10
6.3493589744
 20
2.5576923077
 30
0.0
 11
6.6634615385
 21
2.5576923077
 31
0.0
  0
LINE
  5
109
330
1F
100
AcDbEntity
  8
0
  6
Continuous
 62
     7
370
    25
100
AcDbLine
 10
6.3493589744
 20
0.0
 30
0.0
 11
6.3493589744
 21
2.5576923077
 31
0.0
  0
LINE
  5
10A
330
1F
100
AcDbEntity
  8
0
  6
Continuous
 62
     7
370
    25
100
AcDbLine
 10
6.6634615385
 20
0.0
 30
0.0
 11
6.3493589744
 21
0.0
 31
0.0
  0
LINE
  5
10B
330
1F
100
AcDbEntity
  8
0
  6
Continuous
 62
     7
370
    25
100
AcDbLine
 10
1.6055689103
 20
-6.0256410256
 30
0.0
 11
1.8846153846
 21
-6.1721754808
 31
0.0
  0
LINE
  5
10C
330
1F
100
AcDbEntity
  8
0
  6
Continuous
 62
     7
370
    25
100
AcDbLine
 10
-2.2211538462
 20
1.2115384615
 30
0.0
 11
-4.5096153846
 21
1.2115384615
 31
0.0
  0
LINE
  5
10D
330
1F
100
AcDbEntity
  8
0
  6
Continuous
 62
     7
370
    25
100
AcDbLine
 10
-2.6348157051
 20
0.8076923077
 30
0.0
 11
-2.3557692308
 21
0.6611578526
 31
0.0
  0
LINE
  5
10E
330
1F
100
AcDbEntity
  8
0
  6
Continuous
 62
     7
370
    25
100
AcDbLine
 10
4.9358974359
 20
-6.8333333333
 30
0.0
 11
4.9358974359
 21
-6.3909254808
 31
0.0
  0
LINE
  5
10F
330
1F
100
AcDbEntity
  8
0
  6
Continuous
 62
     7
370
    25
100
AcDbLine
 10
0.6506410256
 20
0.0
 30
0.0
 11
0.3365384615
 21
0.0
 31
0.0
  0
LINE
  5
110
330
1F
100
AcDbEntity
  8
0
  6
Continuous
 62
     7
370
    25
100
AcDbLine
 10
-1.2788461538
 20
0.9247796474
 30
0.0
 11
-1.2788461538
 21
0.0
 31
0.0
  0
LINE
  5
111
330
1F
100
AcDbEntity
  8
0
  6
Continuous
 62
     7
370
    25
100
AcDbLine
 10
2.0192307692
 20
-5.6217948718
 30
0.0
 11
-0.2692307692
 21
-5.6217948718
 31
0.0
  0
LINE
  5
112
330
1F
100
AcDbEntity
  8
0
  6
Continuous
 62
     7
370
    25
100
AcDbLine
 10
1.1442307692
 20
0.3014823718
 30
0.0
 11
1.3524639423
 21
0.5384615385
 31
0.0
  0
LINE
  5
113
330
1F
100
AcDbEntity
  8
0
  6
Continuous
 62
     7
370
    25
100
AcDbLine
 10
-2.9615384615
 20
-4.7488982372
 30
0.0
 11
-2.9615384615
 21
-4.2756410256
 31
0.0
  0
LINE
  5
114
330
1F
100
AcDbEntity
  8
0
  6
Continuous
 62
     7
370
    25
100
AcDbLine
 10
0.6506410256
 20
1.3061899038
 30
0.0
 11
0.6506410256
 21
0.0
 31
0.0
  0
LINE
  5
115
330
1F
100
AcDbEntity
  8
0
  6
Continuous
 62
     7
370
    25
100
AcDbLine
 10
-0.2362780449
 20
-5.3076923077
 30
0.0
 11
1.7051282051
 21
-5.3076923077
 31
0.0
  0
LINE
  5
116
330
1F
100
AcDbEntity
  8
0
  6
Continuous
 62
     7
370
    25
100
AcDbLine
 10
-4.4766626603
 20
1.5256410256
 30
0.0
 11
-2.5352564103
 21
1.5256410256
 31
0.0
  0
LINE
  5
117
330
1F
100
AcDbEntity
  8
0
  6
Continuous
 62
     7
370
    25
100
AcDbLine
 10
-10.307764064
 20
20.0
 30
0.0
 11
10.307764064
 21
20.0
 31
0.0
  0
ARC
  5
118
330
1F
100
AcDbEntity
  8
0
  6
Continuous
 62
     7
370
    25
100
AcDbCircle
 10
0.0
 20
0.0
 30
0.0
 40
22.49999999999996
100
AcDbArc
 50
117.2660444507
 51
62.7339555493
  0
ENDSEC
  0
SECTION
  2
OBJECTS
  0
DICTIONARY
  5
C
330
0
100
AcDbDictionary
281
     1
  3
ACAD_GROUP
350
D
  3
ACAD_LAYOUT
350
1A
  3
ACAD_MLINESTYLE
350
17
  3
ACAD_PLOTSETTINGS
350
19
  3
ACAD_PLOTSTYLENAME
350
E
  3
ACAD_SCALELIST
350
47
  3
DWGPROPS
350
119
  0
DICTIONARY
  5
D
102
{ACAD_REACTORS
330
C
102
}
330
C
100
AcDbDictionary
281
     1
  0
DICTIONARY
  5
1A
102
{ACAD_REACTORS
330
C
102
}
330
C
100
AcDbDictionary
281
     1
  3
Layout1
350
1E
  3
Layout2
350
26
  3
Model
350
22
  0
DICTIONARY
  5
17
102
{ACAD_REACTORS
330
C
102
}
330
C
100
AcDbDictionary
281
     1
  3
Standard
350
18
  0
DICTIONARY
  5
19
102
{ACAD_REACTORS
330
C
102
}
330
C
100
AcDbDictionary
281
     1
  0
ACDBDICTIONARYWDFLT
  5
E
102
{ACAD_REACTORS
330
C
102
}
330
C
100
AcDbDictionary
281
     1
  3
Normal
350
F
100
AcDbDictionaryWithDefault
340
F
  0
DICTIONARY
  5
47
102
{ACAD_REACTORS
330
C
102
}
330
C
100
AcDbDictionary
281
     1
  3
A0
350
48
  3
A1
350
49
  3
A2
350
4A
  3
A3
350
4B
  3
A4
350
4C
  3
A5
350
4D
  3
A6
350
4E
  3
A7
350
4F
  3
A8
350
50
  3
A9
350
51
  3
B0
350
52
  3
B1
350
53
  3
B2
350
54
  3
B3
350
55
  3
B4
350
56
  3
B5
350
57
  3
B6
350
58
  0
XRECORD
  5
119
102
{ACAD_REACTORS
330
C
102
}
330
C
100
AcDbXrecord
280
     1
  1
DWGPROPS COOKIE
  2

  3

  4

  6

  7

  8
s175046
  9

300
=
301
=
302
=
303
=
304
=
305
=
306
=
307
=
308
=
309
=
 40
0.0
 41
2459908.415844491
 42
2459908.416063033
  1

 90
        0
  0
LAYOUT
  5
1E
102
{ACAD_REACTORS
330
1A
102
}
330
1A
100
AcDbPlotSettings
  1

  2
none_device
  4

  6

 40
0.0
 41
0.0
 42
0.0
 43
0.0
 44
0.0
 45
0.0
 46
0.0
 47
0.0
 48
0.0
 49
0.0
140
0.0
141
0.0
142
1.0
143
1.0
 70
   688
 72
     1
 73
     0
 74
     5
  7

 75
    16
147
1.0
148
0.0
149
0.0
100
AcDbLayout
  1
Layout1
 70
     1
 71
     1
 10
0.0
 20
0.0
 11
420.0
 21
297.0
 12
0.0
 22
0.0
 32
0.0
 14
1.0000000000E+20
 24
1.0000000000E+20
 34
1.0000000000E+20
 15
-1.0000000000E+20
 25
-1.0000000000E+20
 35
-1.0000000000E+20
146
0.0
 13
0.0
 23
0.0
 33
0.0
 16
1.0
 26
0.0
 36
0.0
 17
0.0
 27
1.0
 37
0.0
 76
     0
330
1B
  0
LAYOUT
  5
26
102
{ACAD_REACTORS
330
1A
102
}
330
1A
100
AcDbPlotSettings
  1

  2
none_device
  4

  6

 40
0.0
 41
0.0
 42
0.0
 43
0.0
 44
0.0
 45
0.0
 46
0.0
 47
0.0
 48
0.0
 49
0.0
140
0.0
141
0.0
142
1.0
143
1.0
 70
   688
 72
     1
 73
     0
 74
     5
  7

 75
    16
147
1.0
148
0.0
149
0.0
100
AcDbLayout
  1
Layout2
 70
     1
 71
     2
 10
0.0
 20
0.0
 11
0.0
 21
0.0
 12
0.0
 22
0.0
 32
0.0
 14
0.0
 24
0.0
 34
0.0
 15
0.0
 25
0.0
 35
0.0
146
0.0
 13
0.0
 23
0.0
 33
0.0
 16
1.0
 26
0.0
 36
0.0
 17
0.0
 27
1.0
 37
0.0
 76
     0
330
23
  0
LAYOUT
  5
22
102
{ACAD_REACTORS
330
1A
102
}
330
1A
100
AcDbPlotSettings
  1

  2
none_device
  4
ANSI_A_(11.00_x_8.50_Inches)
  6

 40
6.35
 41
19.05
 42
6.35000508
 43
19.05000254
 44
279.4
 45
215.9
 46
133.34999746
 47
95.18649873
 48
0.0
 49
0.0
140
0.0
141
0.0
142
0.198
143
1.0
 70
  1696
 72
     0
 73
     0
 74
     0
  7

 75
     0
147
0.0179189148
148
-1300.4909072572
149
0.0
100
AcDbLayout
  1
Model
 70
     1
 71
     0
 10
0.0
 20
0.0
 11
420.0
 21
297.0
 12
0.0
 22
0.0
 32
0.0
 14
-22.5
 24
-22.5
 34
0.0
 15
22.5
 25
20.0
 35
0.0
146
0.0
 13
0.0
 23
0.0
 33
0.0
 16
1.0
 26
0.0
 36
0.0
 17
0.0
 27
1.0
 37
0.0
 76
     0
330
1F
331
29
  0
MLINESTYLE
  5
18
102
{ACAD_REACTORS
330
17
102
}
330
17
100
AcDbMlineStyle
  2
Standard
 70
     0
  3

 62
   256
 51
90.0
 52
90.0
 71
     2
 49
0.5
 62
   256
  6
BYLAYER
 49
-0.5
 62
   256
  6
BYLAYER
  0
ACDBPLACEHOLDER
  5
F
102
{ACAD_REACTORS
330
E
102
}
330
E
  0
SCALE
  5
48
102
{ACAD_REACTORS
330
47
102
}
330
47
100
AcDbScale
 70
     0
300
1:1
140
1.0
141
1.0
290
     1
  0
SCALE
  5
49
102
{ACAD_REACTORS
330
47
102
}
330
47
100
AcDbScale
 70
     0
300
1:2
140
1.0
141
2.0
290
     0
  0
SCALE
  5
4A
102
{ACAD_REACTORS
330
47
102
}
330
47
100
AcDbScale
 70
     0
300
1:4
140
1.0
141
4.0
290
     0
  0
SCALE
  5
4B
102
{ACAD_REACTORS
330
47
102
}
330
47
100
AcDbScale
 70
     0
300
1:5
140
1.0
141
5.0
290
     0
  0
SCALE
  5
4C
102
{ACAD_REACTORS
330
47
102
}
330
47
100
AcDbScale
 70
     0
300
1:8
140
1.0
141
8.0
290
     0
  0
SCALE
  5
4D
102
{ACAD_REACTORS
330
47
102
}
330
47
100
AcDbScale
 70
     0
300
1:10
140
1.0
141
10.0
290
     0
  0
SCALE
  5
4E
102
{ACAD_REACTORS
330
47
102
}
330
47
100
AcDbScale
 70
     0
300
1:16
140
1.0
141
16.0
290
     0
  0
SCALE
  5
4F
102
{ACAD_REACTORS
330
47
102
}
330
47
100
AcDbScale
 70
     0
300
1:20
140
1.0
141
20.0
290
     0
  0
SCALE
  5
50
102
{ACAD_REACTORS
330
47
102
}
330
47
100
AcDbScale
 70
     0
300
1:30
140
1.0
141
30.0
290
     0
  0
SCALE
  5
51
102
{ACAD_REACTORS
330
47
102
}
330
47
100
AcDbScale
 70
     0
300
1:40
140
1.0
141
40.0
290
     0
  0
SCALE
  5
52
102
{ACAD_REACTORS
330
47
102
}
330
47
100
AcDbScale
 70
     0
300
1:50
140
1.0
141
50.0
290
     0
  0
SCALE
  5
53
102
{ACAD_REACTORS
330
47
102
}
330
47
100
AcDbScale
 70
     0
300
1:100
140
1.0
141
100.0
290
     0
  0
SCALE
  5
54
102
{ACAD_REACTORS
330
47
102
}
330
47
100
AcDbScale
 70
     0
300
2:1
140
2.0
141
1.0
290
     0
  0
SCALE
  5
55
102
{ACAD_REACTORS
330
47
102
}
330
47
100
AcDbScale
 70
     0
300
4:1
140
4.0
141
1.0
290
     0
  0
SCALE
  5
56
102
{ACAD_REACTORS
330
47
102
}
330
47
100
AcDbScale
 70
     0
300
8:1
140
8.0
141
1.0
290
     0
  0
SCALE
  5
57
102
{ACAD_REACTORS
330
47
102
}
330
47
100
AcDbScale
 70
     0
300
10:1
140
10.0
141
1.0
290
     0
  0
SCALE
  5
58
102
{ACAD_REACTORS
330
47
102
}
330
47
100
AcDbScale
 70
     0
300
100:1
140
100.0
141
1.0
290
     0
  0
ENDSEC
  0
EOF
