M48
; DRILL file {KiCad (6.0.4-0)} date Friday, 04 November 2022 at 09.41.55
; FORMAT={-:-/ absolute / inch / decimal}
; #@! TF.CreationDate,2022-11-04T09:41:55+01:00
; #@! TF.GenerationSoftware,Kicad,Pcbnew,(6.0.4-0)
; #@! TF.FileFunction,Plated,1,2,PTH
FMAT,2
INCH
; #@! TA.AperFunction,Plated,PTH,ViaDrill
T1C0.0157
; #@! TA.AperFunction,Plated,PTH,ComponentDrill
T2C0.0394
; #@! TA.AperFunction,Plated,PTH,ComponentDrill
T3C0.0866
%
G90
G05
T1
X2.83Y-3.665
X2.835Y-4.5
X2.845Y-4.815
X2.9025Y-4.6825
X2.92Y-4.38
X2.9484Y-4.6366
X2.96Y-4.83
X3.0428Y-4.3978
X3.045Y-4.98
X3.05Y-4.595
X3.1Y-4.085
X3.145Y-4.475
X3.148Y-4.6471
X3.185Y-3.99
X3.2Y-4.635
X3.215Y-4.83
X3.225Y-4.3
X3.265Y-3.64
X3.31Y-4.43
X3.345Y-5.03
X3.345Y-5.075
X3.345Y-5.115
X3.3501Y-3.8016
X3.3688Y-4.83
X3.4Y-4.01
X3.405Y-3.36
X3.41Y-4.63
X3.41Y-4.92
X3.425Y-3.49
X3.43Y-3.555
X3.475Y-4.335
X3.52Y-3.755
X3.595Y-4.1
X3.6Y-4.325
X3.615Y-4.625
X3.62Y-3.88
X3.63Y-4.785
X3.635Y-3.58
X3.655Y-4.19
X3.66Y-4.705
X3.7Y-4.06
X3.73Y-4.015
X3.7866Y-3.993
X3.8Y-4.715
X3.815Y-4.315
X3.865Y-3.975
X3.87Y-4.335
X3.88Y-4.53
X3.9Y-3.7
X3.92Y-4.95
X3.9411Y-4.9139
X3.945Y-4.87
X3.95Y-3.975
X3.96Y-4.475
X3.965Y-3.775
X3.9875Y-4.0975
X3.9964Y-4.6364
X4.0Y-3.46
X4.0Y-3.87
X4.0Y-4.86
X4.0339Y-3.6761
X4.035Y-4.43
X4.07Y-3.88
X4.0975Y-4.0975
X4.1Y-3.755
X4.145Y-3.67
X4.145Y-4.69
X4.17Y-3.99
X4.1766Y-4.375
X4.2Y-3.61
X4.2Y-3.82
X4.21Y-4.76
X4.2239Y-4.4089
X4.255Y-3.67
X4.2732Y-4.005
X4.3Y-4.095
X4.35Y-4.49
X4.366Y-4.359
X4.37Y-3.88
X4.44Y-4.13
T2
X3.585Y-3.455
X3.685Y-3.455
X3.785Y-3.455
X3.885Y-3.455
T3
X2.795Y-3.825
X3.1Y-3.775
X3.52Y-4.865
X3.775Y-3.61
X4.255Y-4.615
T0
M30
